<?xml version="1.0" standalone="no"?> <!DOCTYPE svg PUBLIC "-//W3C//DTD SVG 1.0//EN" "http://www.w3.org/TR/2001/REC-SVG-20010904/DTD/svg10.dtd" > <svg xmlns="http://www.w3.org/2000/svg" width="100%" height="100%">
<defs >
<font id="GuardianTextSansWeb-BoldItalic" horiz-adv-x="559" ><font-face
    font-family="GuardianTextSansWeb"
    units-per-em="1000"
    panose-1="0 0 0 0 0 0 0 0 0 0"
    ascent="797"
    descent="-203"
    alphabetic="0" />
<missing-glyph horiz-adv-x="504" />
<glyph unicode=" " glyph-name="space" horiz-adv-x="227" />
<glyph unicode="!" glyph-name="exclam" horiz-adv-x="309" d="M148 721H316L207 256H90L148 721ZM56 148H208L182 0H30L56 148Z" />
<glyph unicode="&quot;" glyph-name="quotedbl" horiz-adv-x="469" d="M348 721H495L429 470H311L348 721ZM132 721H279L213 470H95L132 721Z" />
<glyph unicode="#" glyph-name="numbersign" horiz-adv-x="588" d="M384 429H269L237 299H352L384 429ZM322 176H206L163 0H65L108 176H25L46 299H139L171 429H80L102 552H201L243 721H341L300 552H415L457 721H555L513 552H594L573 429H482L450 299H539L517 176H420L376
0H278L322 176Z" />
<glyph unicode="$" glyph-name="dollar" horiz-adv-x="544" d="M457 714Q489 703 509 692T540 673L518 554Q499 565 474 578T415 600L348 419L362 414Q432 386 468 344T505 229Q505 114 433 52T230 -11Q219 -11 210 -11T190 -9L138 -153H55L112 3Q71 14 44 28T3
55L26 172Q46 160 77 144T154 117L225 310L205 318Q139 345 107 388T74 505Q74 611 142 671T341 732Q352 732 361 732T380 730L416 826H498L457 714ZM352 208Q352 231 341 247T297 280L234 110Q294 111 323 136T352 208ZM220 522Q220 496 231 479T276 448L336 609Q220
608 220 522Z" />
<glyph unicode="%" glyph-name="percent" horiz-adv-x="975" d="M243 322Q160 322 118 362T75 472Q75 497 79 517L87 564Q95 609 113 640T156 692T213 722T279 732Q360 732 403 692T446 582Q446 571 445 560T442 538L434 491Q426 447 408 415T365 363T309 332T243
322ZM723 -10Q640 -10 598 30T555 140Q555 151 556 162T559 186L567 232Q575 277 593 309T636 361T693 391T760 401Q841 401 883 361T926 251Q926 240 925 229T922 206L914 160Q906 116 888 84T845 31T789 0T723 -10ZM719 742H832L265 -42H152L719 742ZM724 79Q751
79 767 97T792 165L802 217Q804 228 805 238T806 257Q806 286 794 299T755 312Q728 312 713 295T689 228L679 174Q677 162 676 152T675 132Q675 79 724 79ZM244 410Q271 410 287 428T312 496L321 549Q326 574 326 589Q326 644 275 644Q248 644 232 626T208 559L198
505Q196 494 195 484T194 464Q194 410 244 410Z" />
<glyph unicode="&amp;" glyph-name="ampersand" horiz-adv-x="712" d="M274 -13Q147 -13 84 40T21 182Q21 230 36 266T78 330T139 376T216 407Q196 444 188 473T180 532Q180 582 199 620T250 683T324 720T411 733Q514 733 565 689T616 574Q616 534 602 503T562
448T497 406T410 372L506 225Q540 281 561 363H689Q671 290 640 232T568 129L653 0H480L455 38Q410 12 364 0T274 -13ZM298 101Q356 101 400 123L262 336Q227 317 204 284T181 200Q181 179 187 161T207 130T243 109T298 101ZM329 541Q329 520 335 500T358 453L366
439Q418 462 447 490T477 564Q477 593 460 611T411 629Q396 629 382 624T356 607T337 580T329 541Z" />
<glyph unicode="&apos;" glyph-name="quotesingle" horiz-adv-x="256" d="M134 721H282L215 470H97L134 721Z" />
<glyph unicode="(" glyph-name="parenleft" horiz-adv-x="387" d="M173 -125Q149 -95 127 -58T86 22T57 116T46 224Q46 325 73 410T142 563T235 683T334 769H466Q406 713 357 653T271 525T215 380T195 214Q195 163 203 116T225 27T257 -54T297 -125H173V-125Z" />
<glyph unicode=")" glyph-name="parenright" horiz-adv-x="387" d="M-67 -125Q-7 -70 42 -10T127 119T183 264T203 430Q203 532 173 617T102 769H226Q250 739 272 702T313 622T342 528T353 420Q353 319 326 234T257 81T164 -39T64 -125H-67V-125Z" />
<glyph unicode="*" glyph-name="asterisk" horiz-adv-x="477" d="M256 491L109 380L72 487L244 523L89 581L162 680L267 552L255 721H375L304 549L452 659L489 553L316 517L472 459L398 360L294 488L304 319H184L256 491Z" />
<glyph unicode="+" glyph-name="plus" horiz-adv-x="581" d="M223 269H48L70 393H245L277 578H407L375 393H550L528 269H353L320 85H190L223 269Z" />
<glyph unicode="," glyph-name="comma" horiz-adv-x="280" d="M45 147H201L110 -115H-9L45 147Z" />
<glyph unicode="-" glyph-name="hyphen" horiz-adv-x="392" d="M69 364H350L328 240H47L69 364Z" />
<glyph unicode="." glyph-name="period" horiz-adv-x="280" d="M42 147H193L167 0H15L42 147Z" />
<glyph unicode="/" glyph-name="slash" horiz-adv-x="416" d="M352 769H482L65 -125H-65L352 769Z" />
<glyph unicode="0" glyph-name="zero" horiz-adv-x="667" d="M313 -12Q186 -12 117 50T47 236Q47 278 56 328L74 433Q90 523 122 580T196 672T289 719T391 732Q514 732 582 670T650 485Q650 464 648 441T642 392L623 288Q608 200 578 143T507 51T417 2T313 -12ZM318
111Q347 111 368 119T406 149T433 204T454 291L474 405Q479 432 481 455T484 499Q484 556 461 583T383 610Q354 610 332 601T294 571T265 515T243 428L223 314Q218 287 216 264T213 221Q213 167 237 139T318 111Z" />
<glyph unicode="1" glyph-name="one" horiz-adv-x="430" d="M213 550L61 525L80 628L314 723H406L278 0H116L213 550Z" />
<glyph unicode="2" glyph-name="two" horiz-adv-x="539" d="M5 116L171 262Q212 298 246 330T305 392T343 451T357 511Q357 563 328 581T247 599Q201 599 164 591T95 571L117 694Q157 712 200 722T300 733Q411 733 469 685T527 540Q527 486 509 441T459 357T388
283T305 215L197 132V129H471L448 0H-15L5 116Z" />
<glyph unicode="3" glyph-name="three" horiz-adv-x="544" d="M226 -12Q178 -12 142 -7T77 7T29 26T-5 47L15 166Q47 151 90 137T197 123Q259 123 293 146T328 224Q328 266 302 287T224 308H144L166 431H251Q304 431 332 452T360 521Q360 564 331 581T236 599Q168
599 103 579L124 699Q165 717 209 725T299 733Q411 733 466 684T521 557Q521 521 512 490T483 435T431 394T350 370V365Q425 348 459 312T493 209Q493 157 474 116T419 47T334 3T226 -12Z" />
<glyph unicode="4" glyph-name="four" horiz-adv-x="631" d="M317 166H0L19 281L426 722H572L496 289H606L585 166H475L445 0H287L317 166ZM249 376Q235 360 218 344T183 314Q164 298 144 283L143 280Q162 281 180 283Q196 284 214 285T249 286H341L367 428Q371
448 376 472T387 517Q393 541 399 565H395Q382 543 368 522Q356 504 341 483T309 443L249 376Z" />
<glyph unicode="5" glyph-name="five" horiz-adv-x="543" d="M220 -12Q174 -12 138 -7T75 6T27 24T-7 44L15 162Q46 147 86 135T189 122Q257 122 293 152T329 240Q330 291 297 314T182 338Q154 338 125 334T69 324L154 721H547L525 595H249L213 427Q232 437 255
445T311 453Q402 453 451 402T501 260Q501 200 483 150T430 64T342 8T220 -12Z" />
<glyph unicode="6" glyph-name="six" horiz-adv-x="620" d="M301 -12Q169 -12 106 52T42 227Q42 247 44 268T50 313L65 397Q83 494 116 559T195 662T297 717T415 733Q491 733 535 719T603 688L583 573Q563 581 526 591T427 601Q392 601 362 594T307 565T262 504T230
398Q262 425 303 440T386 456Q482 456 529 409T577 276Q577 211 558 158T503 68T416 9T301 -12ZM298 103Q326 103 347 115T382 148T403 199T410 262Q410 312 386 329T316 346Q284 346 262 338T219 319L212 279Q207 256 205 237T202 200Q202 152 223 128T298 103Z"
/>
<glyph unicode="7" glyph-name="seven" horiz-adv-x="529" d="M293 425Q313 457 335 486T375 539Q396 565 417 588V592H81L104 721H577L556 602L207 0H33L293 425Z" />
<glyph unicode="8" glyph-name="eight" horiz-adv-x="629" d="M295 -12Q224 -12 173 1T88 38T38 95T22 167Q22 208 35 239T73 294T130 334T205 363V368Q158 392 131 429T103 518Q103 571 123 611T178 679T261 719T366 733Q491 733 550 686T609 559Q609 426 447
377V372Q507 349 541 311T576 210Q576 97 501 43T295 -12ZM297 100Q350 100 382 125T414 200Q414 220 407 236T383 265T342 291T281 316Q237 299 207 268T176 186Q176 147 204 124T297 100ZM364 429Q406 446 432 472T459 542Q459 574 437 597T361 621Q314 621 287
599T260 532Q260 498 285 474T364 429Z" />
<glyph unicode="9" glyph-name="nine" horiz-adv-x="620" d="M226 -12Q153 -12 107 0T37 30L58 145Q79 137 119 129T218 120Q254 120 286 127T344 157T390 218T419 323Q388 296 347 280T263 264Q168 264 120 311T72 445Q72 509 91 562T146 653T233 712T348 733Q480
733 543 670T607 494Q607 474 605 451T599 405L583 321Q566 224 534 160T457 58T353 4T226 -12ZM333 374Q365 374 387 382T430 402L438 442Q442 465 444 484T447 521Q447 569 426 593T351 618Q323 618 302 606T267 573T246 522T239 459Q239 409 262 392T333 374Z"
/>
<glyph unicode=":" glyph-name="colon" horiz-adv-x="288" d="M46 147H197L171 0H19L46 147ZM100 452H251L225 305H73L100 452Z" />
<glyph unicode=";" glyph-name="semicolon" horiz-adv-x="288" d="M45 147H201L110 -115H-9L45 147ZM100 452H251L225 305H73L100 452Z" />
<glyph unicode="&lt;" glyph-name="less" horiz-adv-x="556" d="M62 272L83 397L543 599L517 457L207 330L473 202L450 70L62 272Z" />
<glyph unicode="=" glyph-name="equal" horiz-adv-x="576" d="M98 491H552L531 370H77L98 491ZM55 249H509L489 129H35L55 249Z" />
<glyph unicode="&gt;" glyph-name="greater" horiz-adv-x="556" d="M53 212L365 339L98 466L122 599L510 396L488 272L28 70L53 212Z" />
<glyph unicode="?" glyph-name="question" horiz-adv-x="454" d="M118 302Q123 330 131 350T151 386T182 416T226 446Q249 460 265 471T290 494T304 519T309 549Q309 578 287 595T204 612Q171 612 144 607T88 594L107 704Q145 718 180 725T260 733Q364 733 418
693T472 576Q472 538 464 509T438 457T395 414T335 373Q311 358 295 348T269 327T254 306T245 279L241 256H111L118 302ZM83 148H234L208 0H56L83 148Z" />
<glyph unicode="@" glyph-name="at" horiz-adv-x="940" d="M454 -165Q362 -165 288 -142T160 -71T77 47T48 212Q48 315 82 405T178 562T328 668T527 707Q613 707 682 681T801 610T876 501T903 363Q903 280 882 222T825 127T743 72T646 55Q592 55 562 72T524 116H519Q499
93 469 75T399 56Q340 56 305 94T269 208Q269 269 285 318T329 402T396 456T479 475Q511 475 534 466T572 443H577L583 467H701L640 187Q635 165 642 153T671 140Q696 140 720 152T764 189T794 256T806 356Q806 412 790 460T739 543T651 599T522 619Q438 619 369
590T251 508T174 380T147 215Q147 69 226 -5T456 -80Q532 -80 595 -67T700 -39V-114Q653 -137 592 -151T454 -165ZM445 146Q466 146 482 157T511 180L551 367Q543 376 529 382T495 388Q449 388 423 339T397 211Q397 175 408 161T445 146Z" />
<glyph unicode="A" glyph-name="A" horiz-adv-x="674" d="M331 721H502L609 0H445L426 152H188L116 0H-33L331 721ZM238 260H413L399 377Q394 414 392 455T389 532Q388 573 389 614H385Q373 576 359 536Q347 502 331 462T298 385L238 260Z" />
<glyph unicode="B" glyph-name="B" horiz-adv-x="626" d="M148 721H392Q502 721 554 676T606 558Q606 484 571 437T447 373V369Q510 358 544 323T579 227Q579 177 565 136T519 64T437 17T315 0H21L148 721ZM304 118Q363 118 390 146T417 235Q417 274 395 295T321
316H236L201 118H304ZM335 426Q389 426 417 449T445 531Q445 568 425 585T359 602H286L255 426H335Z" />
<glyph unicode="C" glyph-name="C" horiz-adv-x="570" d="M334 -12Q185 -12 113 55T41 251Q41 274 43 299T51 353L64 425Q80 518 114 577T193 671T291 719T400 732Q441 732 472 728T526 718T566 702T597 684L575 561Q558 568 543 575T510 588T470 596T418 600Q384
600 355 592T302 564T261 509T235 422L221 342Q217 318 215 297T213 257Q213 224 221 199T248 156T298 130T376 121Q421 121 452 130T515 150L492 20Q459 6 422 -3T334 -12Z" />
<glyph unicode="D" glyph-name="D" horiz-adv-x="682" d="M148 721H374Q522 721 596 661T671 472Q671 426 662 372L649 302Q634 217 606 159T535 66T432 16T292 0H21L148 721ZM296 128Q336 128 366 136T417 165T453 221T478 310L493 393Q497 416 499 436T501 474Q501
509 492 532T465 568T419 587T354 593H288L206 128H296Z" />
<glyph unicode="E" glyph-name="E" horiz-adv-x="570" d="M148 721H584L561 590H286L258 431H478L456 307H236L204 131H499L476 0H21L148 721Z" />
<glyph unicode="F" glyph-name="F" horiz-adv-x="539" d="M148 721H585L562 590H288L256 410H466L444 283H234L183 0H21L148 721Z" />
<glyph unicode="G" glyph-name="G" horiz-adv-x="653" d="M349 -11Q275 -11 218 3T121 47T61 126T40 242Q40 267 43 294T51 351L63 420Q79 514 115 575T200 671T304 719T418 733Q464 733 498 729T556 717T599 701T631 683L608 555Q582 569 541 583T427 597Q376
597 342 585T287 549T253 492T232 414L218 335Q213 305 209 279T205 230Q205 201 212 179T235 140T279 116T348 108Q369 108 387 111T420 119L445 264H349L370 384H620L558 26Q516 9 462 -1T349 -11Z" />
<glyph unicode="H" glyph-name="H" horiz-adv-x="703" d="M148 721H310L260 437H499L549 721H711L584 0H422L476 305H237L183 0H21L148 721Z" />
<glyph unicode="I" glyph-name="I" horiz-adv-x="303" d="M149 721H311L184 0H22L149 721Z" />
<glyph unicode="J" glyph-name="J" horiz-adv-x="455" d="M146 -8Q114 -8 90 -5T46 5T13 18T-12 34L9 149Q26 141 51 134T111 126Q154 126 180 146T215 217L303 721H465L372 186Q356 96 302 44T146 -8Z" />
<glyph unicode="K" glyph-name="K" horiz-adv-x="642" d="M262 372L532 721H705L424 372L581 0H415L262 372ZM148 721H310L183 0H21L148 721Z" />
<glyph unicode="L" glyph-name="L" horiz-adv-x="525" d="M148 721H310L206 131H471L448 0H21L148 721Z" />
<glyph unicode="M" glyph-name="M" horiz-adv-x="853" d="M148 721H376L396 468Q400 423 400 368T401 263Q400 205 399 146H402Q421 204 440 260Q457 308 476 360T513 454L629 721H861L734 0H579L634 309Q637 329 642 354T653 408T665 465T677 521Q691 584 706
652H702Q679 588 656 526Q636 473 614 416T574 317L433 0H300L272 318Q268 358 267 414T264 525Q263 587 262 653H258Q249 585 241 522Q237 495 233 466T226 409T218 355T210 308L156 0H21L148 721Z" />
<glyph unicode="N" glyph-name="N" horiz-adv-x="697" d="M148 721H326L417 471Q431 429 444 382T466 294Q477 246 486 201H489Q494 258 499 313Q504 360 509 410T522 497L562 721H705L578 0H423L319 291Q305 329 293 376T271 465Q260 513 250 563H247Q241 504
235 448Q230 400 224 348T211 257L165 0H21L148 721Z" />
<glyph unicode="O" glyph-name="O" horiz-adv-x="700" d="M329 -12Q189 -12 116 55T42 254Q42 299 51 352L63 421Q79 510 112 569T192 665T293 716T408 732Q546 732 617 665T688 468Q688 445 686 420T678 368L666 298Q651 209 618 150T539 54T440 3T329 -12ZM332
110Q400 110 439 157T496 303L510 385Q515 414 518 438T521 485Q521 546 494 578T398 610Q327 610 289 565T234 420L219 338Q214 309 211 284T208 238Q208 175 235 143T332 110Z" />
<glyph unicode="P" glyph-name="P" horiz-adv-x="606" d="M148 721H387Q505 721 560 667T616 522Q616 453 596 402T539 318T451 268T335 251H228L183 0H21L148 721ZM326 370Q395 370 423 405T451 516Q451 559 429 579T357 599H289L249 370H326Z" />
<glyph unicode="Q" glyph-name="Q" horiz-adv-x="700" d="M240 -12Q198 1 162 22T100 74T58 149T42 253Q42 298 51 352L63 421Q79 510 113 569T192 665T293 716T408 732Q545 732 616 665T688 468Q688 445 686 420T678 368L666 301Q655 240 636 196T588 120T520
70T432 43V39L665 -5L631 -140L240 -12ZM333 107Q400 107 439 155T495 303L510 385Q515 414 518 438T521 485Q521 546 494 578T398 610Q327 610 289 565T234 420L219 338Q214 309 211 284T208 237Q208 174 236 141T333 107Z" />
<glyph unicode="R" glyph-name="R" horiz-adv-x="627" d="M148 721H392Q502 721 560 671T618 530Q618 437 575 387T460 316V311L570 0H406L313 275H232L184 0H21L148 721ZM332 385Q396 385 425 416T455 517Q455 557 433 578T361 600H288L250 385H332Z" />
<glyph unicode="S" glyph-name="S" horiz-adv-x="524" d="M217 -11Q134 -11 82 9T-2 53L21 181Q41 170 61 160T105 141T154 127T214 121Q269 121 298 143T327 211Q327 237 313 256T256 293L199 317Q137 343 105 385T73 500Q73 551 88 593T136 667T217 715T332
732Q371 732 401 727T454 714T493 697T523 678L501 551Q470 568 429 584T327 600Q282 600 254 582T226 522Q226 496 239 478T291 444L348 419Q382 405 408 388T451 349T478 300T487 236Q487 122 417 56T217 -11Z" />
<glyph unicode="T" glyph-name="T" horiz-adv-x="570" d="M260 590H79L102 721H625L602 590H421L317 0H156L260 590Z" />
<glyph unicode="U" glyph-name="U" horiz-adv-x="691" d="M329 -11Q189 -11 123 43T56 198Q56 229 62 264L143 721H305L224 259Q221 245 220 233T219 210Q219 160 245 136T332 112Q361 112 384 117T426 138T456 178T476 242L560 721H705L618 226Q606 161 583 116T523
43T439 2T329 -11Z" />
<glyph unicode="V" glyph-name="V" horiz-adv-x="648" d="M91 721H253L289 412Q293 377 295 330T300 238Q302 187 304 133H307Q325 184 343 233Q359 275 377 321T412 402L559 721H713L357 0H192L91 721Z" />
<glyph unicode="W" glyph-name="W" horiz-adv-x="907" d="M94 721H249L255 448Q256 417 255 380T252 305T248 232T243 168T240 123T238 104H241Q257 164 275 224Q290 275 308 332T345 435L463 721H611L629 447Q631 417 631 381T629 307T626 233T622 169T619 123T617
104H620Q635 165 653 227Q668 279 686 338T723 446L825 721H968L681 0H517L503 280Q501 321 502 374T506 476Q509 532 513 592H510Q495 537 478 483Q464 437 447 386T412 293L292 0H128L94 721Z" />
<glyph unicode="X" glyph-name="X" horiz-adv-x="666" d="M241 373L113 721H283L321 605Q329 579 336 548T349 491Q355 460 361 429H365Q380 459 396 490Q410 516 426 545T460 601L539 721H706L457 370L592 0H422L378 136Q369 164 362 194T349 249Q343 278 338
306H334Q320 278 304 250Q290 225 273 196T237 141L138 0H-29L241 373Z" />
<glyph unicode="Y" glyph-name="Y" horiz-adv-x="610" d="M227 283L88 721H253L291 583Q299 551 306 515T318 447Q323 410 327 374H330Q345 410 363 446Q378 477 396 513T435 581L522 721H679L387 276L338 0H176L227 283Z" />
<glyph unicode="Z" glyph-name="Z" horiz-adv-x="571" d="M6 120L277 447Q299 473 323 499T369 545Q394 569 418 591V594H110L133 721H609L588 601L322 281Q299 252 273 225T225 177Q199 152 175 130V127H499L477 0H-15L6 120Z" />
<glyph unicode="[" glyph-name="bracketleft" horiz-adv-x="400" d="M157 769H452L431 654H285L168 -10H314L294 -125H-1L157 769Z" />
<glyph unicode="\" glyph-name="backslash" horiz-adv-x="416" d="M120 769H243L356 -125H233L120 769Z" />
<glyph unicode="]" glyph-name="bracketright" horiz-adv-x="400" d="M-15 -10H132L249 654H103L123 769H417L259 -125H-35L-15 -10Z" />
<glyph unicode="^" glyph-name="asciicircum" horiz-adv-x="522" d="M276 721H406L514 426H396L321 592L183 426H60L276 721Z" />
<glyph unicode="_" glyph-name="underscore" horiz-adv-x="359" d="M-65 -56H308L291 -152H-82L-65 -56Z" />
<glyph unicode="`" glyph-name="grave" horiz-adv-x="504" d="M171 791H326L376 621H256L171 791Z" />
<glyph unicode="a" glyph-name="a" horiz-adv-x="515" d="M285 61Q262 30 231 10T148 -10Q84 -10 43 24T1 130Q1 179 16 212T60 266T127 298T212 314L323 326L327 348Q335 394 314 414T232 435Q191 435 154 429T89 414L108 521Q140 537 181 547T283 558Q335 558
375 545T440 505T475 440T476 349L414 0H293L291 61H285ZM204 84Q230 84 250 95T288 126V127L308 242L229 236Q187 232 168 211T148 147Q148 117 162 101T204 84Z" />
<glyph unicode="b" glyph-name="b" horiz-adv-x="572" d="M251 -10Q164 -10 108 5T13 38L143 769H292L240 480H245Q277 512 315 535T407 559Q472 559 510 519T549 389Q549 347 540 295L531 245Q518 172 494 123T435 45T354 3T251 -10ZM255 97Q278 97 297 104T332
129T360 174T379 244L389 301Q395 338 395 364Q395 408 377 422T327 437Q296 437 270 424T226 396L176 110Q189 105 207 101T255 97Z" />
<glyph unicode="c" glyph-name="c" horiz-adv-x="454" d="M247 -10Q187 -10 145 4T76 46T37 110T24 192Q24 227 32 273L41 323Q53 390 78 435T138 507T216 547T308 559Q366 559 400 548T459 521L440 410Q417 421 390 429T318 438Q266 438 235 412T191 317L181
261Q178 243 176 227T174 197Q174 153 197 131T279 109Q314 109 346 117T401 132L382 21Q356 8 321 -1T247 -10Z" />
<glyph unicode="d" glyph-name="d" horiz-adv-x="572" d="M171 -10Q103 -10 63 30T23 161Q23 181 24 203T31 250L40 300Q53 371 78 420T138 500T215 545T304 559Q349 559 372 551T413 535L455 769H604L468 0H345L342 72H337Q303 34 262 12T171 -10ZM245 107Q276
107 302 122T346 153L395 433Q381 439 364 443T318 447Q272 447 239 416T192 305L182 247Q176 209 176 184Q176 139 194 123T245 107Z" />
<glyph unicode="e" glyph-name="e" horiz-adv-x="533" d="M275 -10Q207 -10 159 5T81 47T36 112T22 198Q22 216 24 234T30 273L40 324Q51 385 74 429T131 503T207 545T299 559Q411 559 460 511T510 370Q510 350 509 329T502 284L493 229H175Q174 222 174 216T173
203Q173 149 205 128T317 106Q355 106 386 112T455 129L436 26Q403 10 364 0T275 -10ZM298 451Q280 451 264 447T233 429T207 391T188 326H363Q369 356 369 378Q369 451 298 451Z" />
<glyph unicode="f" glyph-name="f" horiz-adv-x="379" d="M123 434H48L68 548H141L152 610Q166 699 220 739T354 779Q393 779 421 772T464 757L447 658Q436 662 421 664T385 667Q347 667 327 652T298 594L290 548H406L386 434H272L174 -157H25L123 434Z" />
<glyph unicode="g" glyph-name="g" horiz-adv-x="572" d="M194 -217Q122 -217 74 -204T-7 -172L12 -67Q36 -76 77 -86T175 -97Q246 -97 278 -72T321 7L335 88H330Q297 56 261 38T176 19Q108 19 68 61T28 191Q28 211 29 232T36 277L43 313Q56 380 82 426T146 502T233
545T343 559Q418 559 471 547T559 514L466 -10Q456 -67 434 -106T377 -170T297 -206T194 -217ZM249 132Q279 132 305 146T350 176L396 435Q383 441 367 444T325 448Q276 448 242 418T195 316L187 272Q180 238 180 210Q180 167 197 150T249 132Z" />
<glyph unicode="h" glyph-name="h" horiz-adv-x="569" d="M143 769H292L240 478H245Q280 513 322 536T414 559Q475 559 508 529T541 438Q541 428 540 417T537 394L468 0H319L384 367Q385 374 385 380T386 391Q386 415 373 426T330 437Q299 437 275 426T226 399L156
0H7L143 769Z" />
<glyph unicode="i" glyph-name="i" horiz-adv-x="266" d="M105 548H255L158 0H9L105 548ZM142 761H295L271 630H119L142 761Z" />
<glyph unicode="j" glyph-name="j" horiz-adv-x="266" d="M-34 -206Q-80 -206 -103 -199T-141 -182L-123 -84Q-114 -87 -103 -89T-74 -92Q-42 -92 -22 -76T4 -28L105 548H255L150 -50Q136 -125 91 -165T-34 -206ZM142 761H295L272 630H120L142 761Z" />
<glyph unicode="k" glyph-name="k" horiz-adv-x="527" d="M143 769H292L156 0H7L143 769ZM217 291L401 548H561L365 288L470 0H317L217 291Z" />
<glyph unicode="l" glyph-name="l" horiz-adv-x="309" d="M153 -8Q29 -8 29 100Q29 122 33 142L144 769H293L184 154Q179 125 188 115T225 104Q246 104 264 109L247 13Q233 5 211 -1T153 -8Z" />
<glyph unicode="m" glyph-name="m" horiz-adv-x="844" d="M102 548H246L234 474H239Q277 515 317 537T407 559Q497 559 514 470H519Q563 515 606 537T698 559Q754 559 785 527T816 435Q816 424 815 412T812 388L743 0H594L659 368Q660 375 660 381T661 392Q661
437 617 437Q588 437 566 428T521 404Q521 402 520 397T519 390L450 0H300L365 368Q368 380 368 390Q368 437 323 437Q294 437 271 428T227 404L155 0H6L102 548Z" />
<glyph unicode="n" glyph-name="n" horiz-adv-x="568" d="M103 548H246L233 474H238Q277 512 320 535T413 559Q475 559 508 529T541 438Q541 428 540 417T537 394L468 0H319L383 367Q386 380 386 391Q386 415 373 426T330 437Q298 437 274 426T226 399L155 0H6L103 548Z" />
<glyph unicode="o" glyph-name="o" horiz-adv-x="561" d="M256 -10Q195 -10 152 5T80 47T38 113T24 198Q24 231 30 266L39 317Q50 381 75 426T135 501T215 545T310 559Q426 559 481 504T536 354Q536 336 535 318T529 280L521 229Q510 165 486 120T428 46T351 4T256
-10ZM259 100Q303 100 329 128T369 234L379 292Q383 312 384 328T386 359Q386 410 365 429T303 448Q258 448 231 418T189 312L179 254Q173 218 173 191Q173 139 195 120T259 100Z" />
<glyph unicode="p" glyph-name="p" horiz-adv-x="573" d="M103 548H247L234 472H239Q273 510 313 534T407 559Q472 559 510 519T549 387Q549 367 548 344T541 295L532 246Q519 173 495 124T437 45T362 3T275 -10Q231 -10 203 -3T158 14L120 -203H-29L103 548ZM254
97Q276 97 296 104T332 129T361 174T380 243L390 300Q396 337 396 362Q396 407 378 422T327 437Q296 437 270 424T226 396L176 110Q189 105 207 101T254 97Z" />
<glyph unicode="q" glyph-name="q" horiz-adv-x="572" d="M329 59H324Q291 27 256 9T172 -10Q104 -10 64 30T23 161Q23 181 24 203T31 251L40 300Q52 371 78 420T144 500T233 545T343 559Q418 559 471 547T559 514L433 -201H284L329 59ZM245 107Q275 107 301 121T346
151L395 435Q381 441 366 444T325 448Q276 448 241 416T192 305L182 248Q176 210 176 185Q176 140 194 124T245 107Z" />
<glyph unicode="r" glyph-name="r" horiz-adv-x="396" d="M103 548H248L232 454H237Q272 505 308 530T384 555Q395 555 406 553T422 549L397 409Q388 411 377 412T356 413Q275 413 222 369L157 0H7L103 548Z" />
<glyph unicode="s" glyph-name="s" horiz-adv-x="443" d="M179 -10Q111 -10 65 4T-10 39L9 149Q24 141 40 134T75 120T118 110T171 106Q218 106 236 120T255 159Q255 179 245 189T202 211L162 225Q108 244 79 276T49 369Q49 463 103 511T255 559Q290 559 316 555T362
545T398 532T425 517L405 410Q382 420 345 431T261 443Q217 443 201 430T185 394Q185 373 197 363T239 342L278 328Q342 306 369 272T397 181Q397 90 343 40T179 -10Z" />
<glyph unicode="t" glyph-name="t" horiz-adv-x="387" d="M214 -8Q143 -8 104 20T64 111Q64 121 65 131T68 154L117 434H47L67 548H137L160 678H309L286 548H403L383 434H266L221 173Q214 138 225 123T274 107Q289 107 306 110T337 116L319 17Q303 8 275 0T214 -8Z" />
<glyph unicode="u" glyph-name="u" horiz-adv-x="561" d="M154 -11Q93 -11 60 20T27 111Q27 122 28 133T31 155L99 548H249L184 181Q181 164 181 153Q181 130 192 120T232 110Q264 110 287 120T334 145L404 548H553L457 0H336L334 71H329Q288 33 247 11T154 -11Z" />
<glyph unicode="v" glyph-name="v" horiz-adv-x="536" d="M58 548H208L229 353Q233 316 235 272T238 188Q239 142 239 97H243Q256 139 271 182Q284 219 299 261T332 341L426 548H573L297 0H141L58 548Z" />
<glyph unicode="w" glyph-name="w" horiz-adv-x="759" d="M60 548H203L212 382Q214 347 213 299T209 207T203 132T200 98H204Q217 151 232 202Q245 246 260 293T290 374L366 548H495L510 383Q513 350 513 304T512 213T509 136T507 98H511Q523 151 537 201Q548
244 562 291T591 374L661 548H793L562 0H420L403 192Q402 209 402 229T401 269Q401 299 401 329T404 385Q406 414 408 442H405Q394 398 383 355Q373 318 360 276T332 200L245 0H101L60 548Z" />
<glyph unicode="x" glyph-name="x" horiz-adv-x="530" d="M171 283L70 548H230L255 461Q260 440 265 418T274 376Q278 354 281 333H285Q294 354 305 376Q314 395 325 417T350 461L402 548H557L368 285L474 0H314L284 102Q278 121 274 143T265 184Q261 206 257
227H253L232 185Q222 166 211 144T185 102L118 0H-38L171 283Z" />
<glyph unicode="y" glyph-name="y" horiz-adv-x="545" d="M51 -206Q20 -206 -7 -199T-49 -184L-30 -82Q-19 -87 -1 -89T32 -91Q73 -91 94 -76T135 -25L157 16L62 548H215L240 372Q245 337 246 292T248 207T248 138T247 106H250Q265 153 282 200Q296 240 313 284T347
364L432 548H579L273 -57Q253 -96 231 -124T181 -171T122 -197T51 -206Z" />
<glyph unicode="z" glyph-name="z" horiz-adv-x="471" d="M1 110L199 331Q218 351 238 369T275 402Q294 419 313 433V436H68L88 548H490L473 446L269 219Q252 199 232 181T194 148Q174 130 153 115V112H411L391 0H-19L1 110Z" />
<glyph unicode="{" glyph-name="braceleft" horiz-adv-x="445" d="M336 -127Q268 -123 223 -110T150 -75T112 -27T100 31Q100 42 101 53T105 77L123 182Q126 194 126 204Q126 237 102 251T26 270L48 395Q107 396 137 412T175 474L193 575Q201 620 218 655T270
716T359 756T497 771L477 658Q409 656 376 631T333 548L315 451Q310 427 301 406T275 369T231 342T165 326V322Q227 309 249 283T272 219Q272 203 269 185L251 85Q248 68 248 55Q248 19 273 5T356 -15L336 -127V-127Z" />
<glyph unicode="|" glyph-name="bar" horiz-adv-x="306" d="M103 769H223V-125H103V769Z" />
<glyph unicode="}" glyph-name="braceright" horiz-adv-x="445" d="M-15 -15Q54 -13 86 12T129 95L147 193Q151 217 160 238T187 275T230 302T297 318V321Q235 335 213 361T190 425Q190 441 193 458L211 559Q214 575 214 589Q214 625 189 639T106 658L125 771Q194
767 239 754T312 719T350 671T361 613Q361 602 360 591T357 567L338 462Q337 456 337 451T336 440Q336 407 360 393T436 374L414 249Q385 248 363 244T326 231T301 207T287 170L268 68Q260 24 243 -12T191 -73T102 -112T-35 -127L-15 -15Z" />
<glyph unicode="~" glyph-name="asciitilde" horiz-adv-x="472" d="M27 227Q35 273 50 305T84 356T126 384T173 393Q195 393 214 387T250 374T281 360T307 354Q323 354 333 365T351 396H456Q448 349 433 318T399 267T356 239T309 230Q288 230 269 236T233 249T202
262T177 268Q160 268 150 257T134 227H27V227Z" />
<glyph unicode="&#xa0;" glyph-name="uni00A0" horiz-adv-x="227" />
<glyph unicode="&#xa1;" glyph-name="exclamdown" horiz-adv-x="309" d="M167 -125H-1L108 340H225L167 -125ZM259 448H107L133 596H285L259 448Z" />
<glyph unicode="&#xa2;" glyph-name="cent" horiz-adv-x="468" d="M166 -1Q89 16 55 68T21 194Q21 229 29 272L38 323Q50 389 75 434T136 506T215 546T307 558Q318 558 328 558T348 556L380 651H464L428 540Q454 531 472 520L454 414Q442 419 427 425T393 434L285
104Q320 105 356 112T413 128L394 21Q368 8 328 -1T253 -10H248L201 -153H117L166 -1ZM172 261Q169 242 167 227T165 197Q165 137 205 117L312 442H308Q261 442 228 415T182 317L172 261Z" />
<glyph unicode="&#xa3;" glyph-name="sterling" horiz-adv-x="554" d="M75 409H138L149 490Q158 555 183 601T245 676T327 719T423 733Q483 733 517 722T572 700L551 585Q526 594 505 598T448 602Q423 602 401 597T360 577T328 539T308 475L297 409H469L451 301H277L275
283Q269 250 260 226T236 184T202 151T159 125V122H493L472 0H-4L16 114Q55 134 81 165T117 258L123 301H56L75 409Z" />
<glyph unicode="&#xa5;" glyph-name="yen" horiz-adv-x="611" d="M68 373H216L95 721H259L295 592Q303 560 309 527T320 464Q324 431 328 399H331Q344 430 360 463Q374 491 391 524T428 589L510 721H667L426 373H573L555 277H385L372 206H544L526 109H355L336
0H174L193 109H22L40 206H210L223 277H51L68 373Z" />
<glyph unicode="&#xa6;" glyph-name="brokenbar" horiz-adv-x="306" d="M103 769H223V392H103V769ZM103 265H223V-125H103V265Z" />
<glyph unicode="&#xa7;" glyph-name="section" horiz-adv-x="552" d="M219 -137Q141 -137 89 -121T5 -83L25 30Q40 22 58 14T97 -1T144 -13T201 -18Q292 -18 292 45Q292 66 277 80T226 108L161 134Q102 157 65 192T28 290Q28 348 62 383T159 432Q140 452 130 478T119
539Q119 626 176 679T338 733Q377 733 407 728T459 716T499 699T528 682L508 568Q482 582 442 599T350 616Q266 616 266 556Q266 536 279 523T321 497L392 468Q425 454 451 441T496 410T523 371T533 318Q533 255 500 219T400 167Q444 125 444 64Q444 11 427 -27T380
-89T309 -125T219 -137ZM235 384Q168 373 168 318Q168 295 183 281T241 249L317 217L320 215Q387 229 387 282Q387 305 370 321T308 355L235 384Z" />
<glyph unicode="&#xa8;" glyph-name="dieresis" horiz-adv-x="504" d="M379 757H514L493 631H358L379 757ZM160 757H295L273 631H139L160 757Z" />
<glyph unicode="&#xa9;" glyph-name="copyright" horiz-adv-x="823" d="M425 -15Q348 -15 282 14T168 94T92 213T64 358Q64 435 91 502T167 620T282 699T425 728Q501 728 567 699T682 620T759 503T787 358Q787 281 759 213T682 95T567 15T425 -15ZM442 163Q359
163 310 205T261 340V372Q261 421 275 455T315 512T374 543T445 553Q480 553 503 547T543 533V447Q526 452 508 456T465 461Q426 461 403 444T380 380V342Q380 294 400 274T467 253Q495 253 513 258T546 270V185Q528 177 504 170T442 163ZM425 40Q489 40 544 64T638
130T700 230T723 358Q723 427 701 485T639 584T544 649T425 673Q360 673 306 650T213 585T151 485T129 358Q129 289 151 231T212 130T306 64T425 40Z" />
<glyph unicode="&#xaa;" glyph-name="ordfeminine" horiz-adv-x="465" d="M298 289H292Q271 261 243 245T170 228Q113 228 77 258T41 352Q41 396 55 425T94 472T153 499T229 514L326 525L330 543Q336 584 319 603T245 622Q209 622 176 616T118 602L136 697Q162
711 199 721T291 731Q384 731 432 685T464 544L409 236H299L298 289ZM221 312Q245 312 262 320T294 348L313 450L245 445Q208 441 191 423T173 367Q173 312 221 312Z" />
<glyph unicode="&#xab;" glyph-name="guillemotleft" horiz-adv-x="556" d="M34 243L41 286L202 500H331L164 253L240 25H122L34 243ZM263 243L270 286L431 500H560L392 253L469 25H351L263 243Z" />
<glyph unicode="&#xae;" glyph-name="registered" horiz-adv-x="608" d="M334 177Q277 177 228 199T141 259T83 348T61 456Q61 514 82 565T141 654T227 713T334 735Q391 735 440 714T527 654T585 565T607 456Q607 399 586 349T527 260T441 199T334 177ZM334 228Q380
228 420 246T488 295T533 367T550 456Q550 504 534 545T489 618T420 667T334 684Q287 684 248 667T180 619T135 546T119 456Q119 408 135 367T179 296T247 247T334 228ZM230 588H350Q447 588 447 508Q447 485 437 469T408 445V442L459 339H377L337 424H308V339H230V588ZM340
473Q371 473 371 503Q371 517 364 525T340 533H306V473H340Z" />
<glyph unicode="&#xaf;" glyph-name="macron" horiz-adv-x="504" d="M186 752H486L467 645H167L186 752Z" />
<glyph unicode="&#xb0;" glyph-name="degree" horiz-adv-x="450" d="M268 457Q310 457 335 484T360 557Q360 595 339 622T276 650Q232 650 208 622T183 550Q183 512 204 485T268 457ZM264 377Q225 377 193 391T139 429T104 484T91 548Q91 588 105 621T145 679T205
716T280 730Q319 730 350 716T404 679T439 624T452 560Q452 520 438 487T398 429T338 391T264 377Z" />
<glyph unicode="&#xb1;" glyph-name="plusminus" horiz-adv-x="587" d="M236 329H62L83 452H258L285 604H415L389 452H563L541 329H366L339 177H209L236 329ZM3 0L26 123H506L483 0H3Z" />
<glyph unicode="&#xb4;" glyph-name="acute" horiz-adv-x="504" d="M339 791H498L369 621H240L339 791Z" />
<glyph unicode="&#xb6;" glyph-name="paragraph" horiz-adv-x="619" d="M284 341H259Q220 341 187 353T131 386T94 438T81 506Q81 552 96 591T142 659T221 704T338 721H625L476 -125H388L522 636H425L290 -125H202L284 341Z" />
<glyph unicode="&#xb7;" glyph-name="periodcentered" horiz-adv-x="280" d="M87 404H238L212 257H60L87 404Z" />
<glyph unicode="&#xb8;" glyph-name="cedilla" horiz-adv-x="504" d="M99 -184Q168 -178 195 -168T223 -135Q223 -121 208 -115T146 -107L165 0H244L235 -51Q289 -56 310 -75T331 -127Q331 -181 273 -213T87 -251L99 -184Z" />
<glyph unicode="&#xba;" glyph-name="ordmasculine" horiz-adv-x="499" d="M262 226Q208 226 170 239T106 278T68 337T56 412Q56 440 62 472L70 515Q80 571 102 612T156 679T227 719T310 732Q413 732 461 682T510 546Q510 532 509 516T505 483L497 441Q487 384
466 344T414 277T345 239T262 226ZM264 328Q301 328 324 351T359 443L368 493Q374 529 374 553Q374 596 356 613T304 630Q266 630 243 605T207 513L198 463Q195 446 194 432T193 406Q193 361 211 345T264 328Z" />
<glyph unicode="&#xbb;" glyph-name="guillemotright" horiz-adv-x="556" d="M386 272L309 500H427L516 282L508 239L347 25H218L386 272ZM157 272L80 500H198L286 282L279 239L118 25H-11L157 272Z" />
<glyph unicode="&#xbc;" glyph-name="onequarter" horiz-adv-x="908" d="M439 592L332 581L347 662L511 723H591L511 271H383L439 592ZM689 742H802L238 -42H124L689 742ZM644 24H447L463 111L714 379H829L782 113H848L832 24H767L750 -73H627L644 24ZM536 107Q549
108 563 109Q575 110 590 111T621 112H664L676 183Q678 198 682 214T690 245Q694 262 699 278H697Q689 263 678 248Q669 235 658 220T635 192L612 168Q601 156 588 145T563 126Q550 116 537 109L536 107Z" />
<glyph unicode="&#xbd;" glyph-name="onehalf" horiz-adv-x="941" d="M439 592L332 581L347 662L511 723H591L511 271H383L439 592ZM689 742H802L238 -42H124L689 742ZM537 15L640 95Q667 116 688 133T724 167T746 200T754 236Q754 264 737 275T687 287Q656 287
632 281T588 267L604 359Q629 370 662 378T739 386Q814 386 852 353T890 264Q890 231 879 205T849 155T802 110T742 65L682 25L681 22H856L839 -73H521L537 15Z" />
<glyph unicode="&#xbe;" glyph-name="threequarters" horiz-adv-x="951" d="M185 263Q127 263 92 276T37 301L52 384Q72 375 98 367T160 358Q206 358 226 371T247 414Q247 439 232 449T185 459H131L147 545H202Q240 545 255 557T270 592Q270 615 253 625T198 636Q172
636 148 632T104 622L119 707Q145 718 176 724T242 730Q317 730 356 701T395 619Q395 571 368 542T283 507L282 503Q327 493 351 472T376 403Q376 337 325 300T185 263ZM732 742H845L281 -42H167L732 742ZM688 24H491L507 111L758 379H873L826 113H892L876 24H811L794
-73H671L688 24ZM580 107Q593 108 607 109Q619 110 634 111T665 112H708L720 183Q722 198 726 214T734 245Q738 262 743 278H741Q733 263 722 248Q713 235 702 220T679 192L656 168Q645 156 632 145T607 126Q594 116 581 109L580 107Z" />
<glyph unicode="&#xbf;" glyph-name="questiondown" horiz-adv-x="454" d="M343 294Q338 266 330 246T310 210T279 180T235 150Q212 136 196 125T171 102T157 77T152 47Q152 18 174 1T257 -16Q290 -16 317 -11T373 2L354 -108Q316 -122 281 -129T201 -137Q97 -137
43 -97T-11 20Q-11 58 -3 87T23 139T66 182T126 223Q150 238 166 248T192 269T207 290T216 317L220 340H350L343 294ZM378 448H227L253 596H405L378 448Z" />
<glyph unicode="&#xc0;" glyph-name="Agrave" horiz-adv-x="674" d="M333 721H504L611 0H447L428 152H190L118 0H-31L333 721ZM240 260H415L401 377Q396 414 394 455T391 532Q390 573 391 614H387Q375 576 361 536Q349 502 333 462T300 385L240 260ZM287 950H442L487
788H366L287 950Z" />
<glyph unicode="&#xc1;" glyph-name="Aacute" horiz-adv-x="674" d="M333 721H504L611 0H447L428 152H190L118 0H-31L333 721ZM240 260H415L401 377Q396 414 394 455T391 532Q390 573 391 614H387Q375 576 361 536Q349 502 333 462T300 385L240 260ZM484 788H356L456
950H617L484 788Z" />
<glyph unicode="&#xc2;" glyph-name="Acircumflex" horiz-adv-x="674" d="M333 721H504L611 0H447L428 152H190L118 0H-31L333 721ZM240 260H415L401 377Q396 414 394 455T391 532Q390 573 391 614H387Q375 576 361 536Q349 502 333 462T300 385L240 260ZM389
957H506L605 788H499L432 858L348 788H239L389 957Z" />
<glyph unicode="&#xc3;" glyph-name="Atilde" horiz-adv-x="674" d="M333 721H504L611 0H447L428 152H190L118 0H-31L333 721ZM240 260H415L401 377Q396 414 394 455T391 532Q390 573 391 614H387Q375 576 361 536Q349 502 333 462T300 385L240 260ZM230 790Q236
830 250 858T283 905T324 931T371 939Q391 939 408 933T439 920T467 907T492 901Q527 901 536 939H630Q624 899 610 871T576 824T534 798T489 790Q469 790 452 796T421 809T394 822T369 828Q334 828 325 790H230V790Z" />
<glyph unicode="&#xc4;" glyph-name="Adieresis" horiz-adv-x="674" d="M333 721H504L611 0H447L428 152H190L118 0H-31L333 721ZM240 260H415L401 377Q396 414 394 455T391 532Q390 573 391 614H387Q375 576 361 536Q349 502 333 462T300 385L240 260ZM486 918H628L605
793H464L486 918ZM268 918H409L386 793H245L268 918Z" />
<glyph unicode="&#xc5;" glyph-name="Aring" horiz-adv-x="674" d="M333 721H504L611 0H447L428 152H190L118 0H-31L333 721ZM240 260H415L401 377Q396 414 394 455T391 532Q390 573 391 614H387Q375 576 361 536Q349 502 333 462T300 385L240 260ZM431 1088Q452
1088 466 1101T481 1138Q481 1161 469 1174T435 1187Q412 1187 398 1173T384 1136Q384 1114 396 1101T431 1088ZM429 1017Q374 1017 340 1050T306 1134Q306 1160 316 1182T344 1222T386 1248T437 1258Q464 1258 486 1249T524 1225T549 1187T558 1140Q558 1114 548
1092T521 1053T480 1027T429 1017Z" />
<glyph unicode="&#xc6;" glyph-name="AE" horiz-adv-x="929" d="M450 721H943L920 590H652L624 431H836L815 307H602L571 131H858L835 0H388L416 157H214L112 0H-41L450 721ZM285 264H435L459 401Q465 435 472 473T487 546Q495 585 504 624H500Q481 588 462 551Q445
519 425 482T383 413L285 264Z" />
<glyph unicode="&#xc7;" glyph-name="Ccedilla" horiz-adv-x="570" d="M371 -127Q371 -181 313 -213T127 -251L139 -184Q208 -178 235 -168T263 -135Q263 -121 248 -115T186 -107L206 4Q123 30 82 92T41 251Q41 274 43 299T51 353L64 425Q80 518 114 577T193 671T291
719T400 732Q441 732 472 728T526 718T566 702T597 684L575 561Q558 568 543 575T510 588T470 596T418 600Q384 600 355 592T302 564T261 509T235 422L221 342Q217 318 215 297T213 257Q213 224 221 199T248 156T298 130T376 121Q421 121 452 130T515 150L492 20Q459
6 422 -3T334 -12Q307 -12 282 -9L275 -51Q329 -56 350 -75T371 -127Z" />
<glyph unicode="&#xc8;" glyph-name="Egrave" horiz-adv-x="570" d="M150 721H586L563 590H288L260 431H480L458 307H238L206 131H501L478 0H23L150 721ZM250 950H405L450 788H329L250 950Z" />
<glyph unicode="&#xc9;" glyph-name="Eacute" horiz-adv-x="570" d="M150 721H586L563 590H288L260 431H480L458 307H238L206 131H501L478 0H23L150 721ZM436 788H308L408 950H569L436 788Z" />
<glyph unicode="&#xca;" glyph-name="Ecircumflex" horiz-adv-x="570" d="M150 721H586L563 590H288L260 431H480L458 307H238L206 131H501L478 0H23L150 721ZM352 957H469L568 788H462L395 858L311 788H202L352 957Z" />
<glyph unicode="&#xcb;" glyph-name="Edieresis" horiz-adv-x="570" d="M150 721H586L563 590H288L260 431H480L458 307H238L206 131H501L478 0H23L150 721ZM445 918H587L564 793H423L445 918ZM227 918H368L345 793H204L227 918Z" />
<glyph unicode="&#xcc;" glyph-name="Igrave" horiz-adv-x="303" d="M151 721H313L186 0H24L151 721ZM358 950H513L558 788H437L358 950Z" />
<glyph unicode="&#xcd;" glyph-name="Iacute" horiz-adv-x="303" d="M151 721H313L186 0H24L151 721ZM558 788H430L530 950H691L558 788Z" />
<glyph unicode="&#xce;" glyph-name="Icircumflex" horiz-adv-x="303" d="M151 721H313L186 0H24L151 721ZM463 957H580L679 788H573L506 858L422 788H313L463 957Z" />
<glyph unicode="&#xcf;" glyph-name="Idieresis" horiz-adv-x="303" d="M297 921H439L416 796H275L297 921ZM87 921H227L205 796H64L87 921ZM151 721H313L186 0H24L151 721Z" />
<glyph unicode="&#xd0;" glyph-name="Eth" horiz-adv-x="682" d="M36 422H97L150 721H376Q524 721 598 661T673 472Q673 426 664 372L651 302Q636 217 608 159T537 66T434 16T294 0H23L76 300H14L36 422ZM298 128Q338 128 368 136T419 165T455 221T480 310L495
393Q499 416 501 436T503 474Q503 509 494 532T467 568T421 587T356 593H290L260 422H399L377 300H238L208 128H298Z" />
<glyph unicode="&#xd1;" glyph-name="Ntilde" horiz-adv-x="697" d="M150 721H328L419 471Q433 429 446 382T468 294Q479 246 488 201H491Q496 258 501 313Q506 360 511 410T524 497L564 721H707L580 0H425L321 291Q307 329 295 376T273 465Q262 513 252 563H249Q243
504 237 448Q232 400 226 348T213 257L167 0H23L150 721ZM255 790Q261 830 275 858T308 905T349 931T396 939Q416 939 433 933T464 920T492 907T517 901Q552 901 561 939H655Q649 899 635 871T601 824T559 798T514 790Q494 790 477 796T446 809T419 822T394 828Q359
828 350 790H255V790Z" />
<glyph unicode="&#xd2;" glyph-name="Ograve" horiz-adv-x="700" d="M331 -12Q191 -12 118 55T44 254Q44 299 53 352L65 421Q81 510 114 569T194 665T295 716T410 732Q548 732 619 665T690 468Q690 445 688 420T680 368L668 298Q653 209 620 150T541 54T442 3T331
-12ZM334 110Q402 110 441 157T498 303L512 385Q517 414 520 438T523 485Q523 546 496 578T400 610Q329 610 291 565T236 420L221 338Q216 309 213 284T210 238Q210 175 237 143T334 110ZM297 950H452L497 788H376L297 950Z" />
<glyph unicode="&#xd3;" glyph-name="Oacute" horiz-adv-x="700" d="M331 -12Q191 -12 118 55T44 254Q44 299 53 352L65 421Q81 510 114 569T194 665T295 716T410 732Q548 732 619 665T690 468Q690 445 688 420T680 368L668 298Q653 209 620 150T541 54T442 3T331
-12ZM334 110Q402 110 441 157T498 303L512 385Q517 414 520 438T523 485Q523 546 496 578T400 610Q329 610 291 565T236 420L221 338Q216 309 213 284T210 238Q210 175 237 143T334 110ZM482 788H354L454 950H615L482 788Z" />
<glyph unicode="&#xd4;" glyph-name="Ocircumflex" horiz-adv-x="700" d="M331 -12Q191 -12 118 55T44 254Q44 299 53 352L65 421Q81 510 114 569T194 665T295 716T410 732Q548 732 619 665T690 468Q690 445 688 420T680 368L668 298Q653 209 620 150T541 54T442
3T331 -12ZM334 110Q402 110 441 157T498 303L512 385Q517 414 520 438T523 485Q523 546 496 578T400 610Q329 610 291 565T236 420L221 338Q216 309 213 284T210 238Q210 175 237 143T334 110ZM385 957H502L601 788H495L428 858L344 788H235L385 957Z" />
<glyph unicode="&#xd5;" glyph-name="Otilde" horiz-adv-x="700" d="M331 -12Q191 -12 118 55T44 254Q44 299 53 352L65 421Q81 510 114 569T194 665T295 716T410 732Q548 732 619 665T690 468Q690 445 688 420T680 368L668 298Q653 209 620 150T541 54T442 3T331
-12ZM334 110Q402 110 441 157T498 303L512 385Q517 414 520 438T523 485Q523 546 496 578T400 610Q329 610 291 565T236 420L221 338Q216 309 213 284T210 238Q210 175 237 143T334 110ZM234 790Q240 830 254 858T287 905T328 931T375 939Q395 939 412 933T443
920T471 907T496 901Q531 901 540 939H634Q628 899 614 871T580 824T538 798T493 790Q473 790 456 796T425 809T398 822T373 828Q338 828 329 790H234V790Z" />
<glyph unicode="&#xd6;" glyph-name="Odieresis" horiz-adv-x="700" d="M331 -12Q191 -12 118 55T44 254Q44 299 53 352L65 421Q81 510 114 569T194 665T295 716T410 732Q548 732 619 665T690 468Q690 445 688 420T680 368L668 298Q653 209 620 150T541 54T442
3T331 -12ZM334 110Q402 110 441 157T498 303L512 385Q517 414 520 438T523 485Q523 546 496 578T400 610Q329 610 291 565T236 420L221 338Q216 309 213 284T210 238Q210 175 237 143T334 110ZM489 918H631L608 793H467L489 918ZM271 918H412L389 793H248L271
918Z" />
<glyph unicode="&#xd7;" glyph-name="multiply" horiz-adv-x="597" d="M40 176L219 329L94 480L195 566L319 414L497 566L573 474L395 323L521 170L421 84L294 237L116 85L40 176Z" />
<glyph unicode="&#xd8;" glyph-name="Oslash" horiz-adv-x="700" d="M329 -12Q230 -12 163 27L94 -62H-23L93 87Q42 155 42 255Q42 299 51 352L63 421Q79 510 112 569T192 665T293 716T408 732Q502 732 567 694L620 762H738L638 633Q662 601 675 560T688 468Q688
445 686 420T678 368L666 298Q651 209 618 150T539 54T440 3T329 -12ZM197 220L488 593Q455 615 399 615Q321 615 281 568T223 419L208 337Q203 308 200 284T197 237V220ZM331 106Q406 106 447 154T507 304L522 386Q527 415 529 439T532 486V498L241 126Q271 106
331 106Z" />
<glyph unicode="&#xd9;" glyph-name="Ugrave" horiz-adv-x="691" d="M331 -11Q191 -11 125 43T58 198Q58 229 64 264L145 721H307L226 259Q223 245 222 233T221 210Q221 160 247 136T334 112Q363 112 386 117T428 138T458 178T478 242L562 721H707L620 226Q608
161 585 116T525 43T441 2T331 -11ZM306 950H461L506 788H385L306 950Z" />
<glyph unicode="&#xda;" glyph-name="Uacute" horiz-adv-x="691" d="M331 -11Q191 -11 125 43T58 198Q58 229 64 264L145 721H307L226 259Q223 245 222 233T221 210Q221 160 247 136T334 112Q363 112 386 117T428 138T458 178T478 242L562 721H707L620 226Q608
161 585 116T525 43T441 2T331 -11ZM494 788H366L466 950H627L494 788Z" />
<glyph unicode="&#xdb;" glyph-name="Ucircumflex" horiz-adv-x="691" d="M331 -11Q191 -11 125 43T58 198Q58 229 64 264L145 721H307L226 259Q223 245 222 233T221 210Q221 160 247 136T334 112Q363 112 386 117T428 138T458 178T478 242L562 721H707L620 226Q608
161 585 116T525 43T441 2T331 -11ZM403 957H520L619 788H513L446 858L362 788H253L403 957Z" />
<glyph unicode="&#xdc;" glyph-name="Udieresis" horiz-adv-x="691" d="M331 -11Q191 -11 125 43T58 198Q58 229 64 264L145 721H307L226 259Q223 245 222 233T221 210Q221 160 247 136T334 112Q363 112 386 117T428 138T458 178T478 242L562 721H707L620 226Q608
161 585 116T525 43T441 2T331 -11ZM497 918H639L616 793H475L497 918ZM279 918H420L397 793H256L279 918Z" />
<glyph unicode="&#xdd;" glyph-name="Yacute" horiz-adv-x="610" d="M229 283L90 721H255L293 583Q301 551 308 515T320 447Q325 410 329 374H332Q347 410 365 446Q380 477 398 513T437 581L524 721H681L389 276L340 0H178L229 283ZM452 788H324L424 950H585L452 788Z" />
<glyph unicode="&#xde;" glyph-name="Thorn" horiz-adv-x="611" d="M148 721H311L290 599H379Q439 599 481 584T550 544T589 484T602 409Q602 283 530 216T320 149H210L184 0H21L148 721ZM310 268Q379 268 407 300T435 398Q435 439 414 458T345 477H267L231 268H310Z" />
<glyph unicode="&#xdf;" glyph-name="germandbls" horiz-adv-x="579" d="M107 571Q117 628 139 667T194 731T267 767T355 778Q410 778 449 764T514 726T552 671T564 605Q564 527 527 482T411 420V416Q479 392 511 347T543 236Q543 184 530 140T490 62T420 11T318
-8Q276 -8 253 -2T218 9L238 117Q247 114 258 112T286 109Q336 109 365 143T394 252Q394 297 372 326T295 373L313 476Q372 482 396 515T421 595Q421 626 405 647T348 668Q312 668 289 645T255 560L129 -157H-20L107 571Z" />
<glyph unicode="&#xe0;" glyph-name="agrave" horiz-adv-x="515" d="M285 61Q262 30 231 10T148 -10Q84 -10 43 24T1 130Q1 179 16 212T60 266T127 298T212 314L323 326L327 348Q335 394 314 414T232 435Q191 435 154 429T89 414L108 521Q140 537 181 547T283
558Q335 558 375 545T440 505T475 440T476 349L414 0H293L291 61H285ZM204 84Q230 84 250 95T288 126V127L308 242L229 236Q187 232 168 211T148 147Q148 117 162 101T204 84ZM424 791H579L629 621H509L424 791Z" />
<glyph unicode="&#xe1;" glyph-name="aacute" horiz-adv-x="515" d="M285 61Q262 30 231 10T148 -10Q84 -10 43 24T1 130Q1 179 16 212T60 266T127 298T212 314L323 326L327 348Q335 394 314 414T232 435Q191 435 154 429T89 414L108 521Q140 537 181 547T283
558Q335 558 375 545T440 505T475 440T476 349L414 0H293L291 61H285ZM204 84Q230 84 250 95T288 126V127L308 242L229 236Q187 232 168 211T148 147Q148 117 162 101T204 84ZM593 791H752L623 621H494L593 791Z" />
<glyph unicode="&#xe2;" glyph-name="acircumflex" horiz-adv-x="515" d="M285 61Q262 30 231 10T148 -10Q84 -10 43 24T1 130Q1 179 16 212T60 266T127 298T212 314L323 326L327 348Q335 394 314 414T232 435Q191 435 154 429T89 414L108 521Q140 537 181 547T283
558Q335 558 375 545T440 505T475 440T476 349L414 0H293L291 61H285ZM204 84Q230 84 250 95T288 126V127L308 242L229 236Q187 232 168 211T148 147Q148 117 162 101T204 84ZM525 806H642L738 621H634L570 704L481 621H369L525 806Z" />
<glyph unicode="&#xe3;" glyph-name="atilde" horiz-adv-x="515" d="M285 61Q262 30 231 10T148 -10Q84 -10 43 24T1 130Q1 179 16 212T60 266T127 298T212 314L323 326L327 348Q335 394 314 414T232 435Q191 435 154 429T89 414L108 521Q140 537 181 547T283
558Q335 558 375 545T440 505T475 440T476 349L414 0H293L291 61H285ZM204 84Q230 84 250 95T288 126V127L308 242L229 236Q187 232 168 211T148 147Q148 117 162 101T204 84ZM379 627Q392 706 430 739T513 773Q532 773 549 767T580 754T608 741T632 735Q662 735
673 773H769Q762 733 748 706T716 661T677 635T634 627Q614 627 598 633T567 646T540 659T516 665Q485 665 474 627H379V627Z" />
<glyph unicode="&#xe4;" glyph-name="adieresis" horiz-adv-x="515" d="M285 61Q262 30 231 10T148 -10Q84 -10 43 24T1 130Q1 179 16 212T60 266T127 298T212 314L323 326L327 348Q335 394 314 414T232 435Q191 435 154 429T89 414L108 521Q140 537 181 547T283
558Q335 558 375 545T440 505T475 440T476 349L414 0H293L291 61H285ZM204 84Q230 84 250 95T288 126V127L308 242L229 236Q187 232 168 211T148 147Q148 117 162 101T204 84ZM624 757H759L738 631H603L624 757ZM405 757H540L518 631H384L405 757Z" />
<glyph unicode="&#xe5;" glyph-name="aring" horiz-adv-x="515" d="M285 61Q262 30 231 10T148 -10Q84 -10 43 24T1 130Q1 179 16 212T60 266T127 298T212 314L323 326L327 348Q335 394 314 414T232 435Q191 435 154 429T89 414L108 521Q140 537 181 547T283 558Q335
558 375 545T440 505T475 440T476 349L414 0H293L291 61H285ZM204 84Q230 84 250 95T288 126V127L308 242L229 236Q187 232 168 211T148 147Q148 117 162 101T204 84ZM571 684Q593 684 607 698T621 735Q621 758 609 771T575 784Q553 784 539 770T524 733Q524 710
536 697T571 684ZM569 614Q515 614 481 647T447 732Q447 757 457 779T484 818T525 845T577 855Q604 855 626 846T665 821T690 784T699 737Q699 711 689 689T661 650T620 624T569 614Z" />
<glyph unicode="&#xe6;" glyph-name="ae" horiz-adv-x="809" d="M146 -10Q82 -10 43 27T3 132Q3 180 18 212T62 266T129 298T214 314L315 325L320 353Q323 366 323 377Q323 410 298 422T221 435Q181 435 152 431T93 419L112 527Q152 542 191 550T284 559Q335 559
371 544T426 497Q485 559 586 559Q689 559 737 511T786 370Q786 351 785 330T778 284L768 229H450Q448 222 448 216T448 203Q448 149 480 128T593 106Q631 106 662 112T730 129L712 26Q678 10 639 0T550 -10Q465 -10 411 13T329 77Q293 34 250 12T146 -10ZM639
326Q645 356 645 377Q645 415 628 433T573 451Q555 451 539 447T508 429T482 391T462 326H639ZM305 134Q297 166 297 198Q297 218 300 241L232 236Q190 231 170 211T150 149Q150 117 165 102T206 87Q238 87 261 100T305 134Z" />
<glyph unicode="&#xe7;" glyph-name="ccedilla" horiz-adv-x="454" d="M304 -127Q304 -181 246 -213T60 -251L72 -184Q140 -178 167 -168T195 -135Q195 -121 180 -115T119 -107L139 6Q78 29 51 77T24 192Q24 227 32 273L41 323Q53 390 78 435T138 507T216 547T308
559Q366 559 400 548T459 521L440 410Q417 421 390 429T318 438Q266 438 235 412T191 317L181 261Q178 243 176 227T174 197Q174 153 197 131T279 109Q314 109 346 117T401 132L382 21Q356 8 321 -1T247 -10Q239 -10 231 -10T215 -9L208 -51Q262 -56 283 -75T304
-127Z" />
<glyph unicode="&#xe8;" glyph-name="egrave" horiz-adv-x="533" d="M277 -10Q209 -10 161 5T83 47T38 112T24 198Q24 216 26 234T32 273L42 324Q53 385 76 429T133 503T209 545T301 559Q413 559 462 511T512 370Q512 350 511 329T504 284L495 229H177Q176 222
176 216T175 203Q175 149 207 128T319 106Q357 106 388 112T457 129L438 26Q405 10 366 0T277 -10ZM300 451Q282 451 266 447T235 429T209 391T190 326H365Q371 356 371 378Q371 451 300 451ZM191 791H346L396 621H276L191 791Z" />
<glyph unicode="&#xe9;" glyph-name="eacute" horiz-adv-x="533" d="M277 -10Q209 -10 161 5T83 47T38 112T24 198Q24 216 26 234T32 273L42 324Q53 385 76 429T133 503T209 545T301 559Q413 559 462 511T512 370Q512 350 511 329T504 284L495 229H177Q176 222
176 216T175 203Q175 149 207 128T319 106Q357 106 388 112T457 129L438 26Q405 10 366 0T277 -10ZM300 451Q282 451 266 447T235 429T209 391T190 326H365Q371 356 371 378Q371 451 300 451ZM351 791H510L381 621H252L351 791Z" />
<glyph unicode="&#xea;" glyph-name="ecircumflex" horiz-adv-x="533" d="M277 -10Q209 -10 161 5T83 47T38 112T24 198Q24 216 26 234T32 273L42 324Q53 385 76 429T133 503T209 545T301 559Q413 559 462 511T512 370Q512 350 511 329T504 284L495 229H177Q176
222 176 216T175 203Q175 149 207 128T319 106Q357 106 388 112T457 129L438 26Q405 10 366 0T277 -10ZM300 451Q282 451 266 447T235 429T209 391T190 326H365Q371 356 371 378Q371 451 300 451ZM295 806H412L508 621H404L340 704L251 621H139L295 806Z" />
<glyph unicode="&#xeb;" glyph-name="edieresis" horiz-adv-x="533" d="M277 -10Q209 -10 161 5T83 47T38 112T24 198Q24 216 26 234T32 273L42 324Q53 385 76 429T133 503T209 545T301 559Q413 559 462 511T512 370Q512 350 511 329T504 284L495 229H177Q176
222 176 216T175 203Q175 149 207 128T319 106Q357 106 388 112T457 129L438 26Q405 10 366 0T277 -10ZM300 451Q282 451 266 447T235 429T209 391T190 326H365Q371 356 371 378Q371 451 300 451ZM382 757H517L496 631H361L382 757ZM163 757H298L276 631H142L163
757Z" />
<glyph unicode="&#xec;" glyph-name="igrave" horiz-adv-x="266" d="M107 548H257L160 0H11L107 548ZM306 791H461L511 621H391L306 791Z" />
<glyph unicode="&#xed;" glyph-name="iacute" horiz-adv-x="266" d="M107 548H257L160 0H11L107 548ZM486 791H645L516 621H387L486 791Z" />
<glyph unicode="&#xee;" glyph-name="icircumflex" horiz-adv-x="266" d="M107 548H257L160 0H11L107 548ZM422 806H539L635 621H531L467 704L378 621H266L422 806Z" />
<glyph unicode="&#xef;" glyph-name="idieresis" horiz-adv-x="266" d="M246 757H376L355 631H225L246 757ZM55 757H184L163 631H33L55 757ZM107 548H257L160 0H11L107 548Z" />
<glyph unicode="&#xf0;" glyph-name="eth" horiz-adv-x="561" d="M173 658L275 689Q255 712 234 732T190 769H347Q361 760 374 749T400 726L551 771L536 687L454 661Q492 604 516 533T540 382Q540 343 534 303L524 242Q512 173 488 125T430 47T352 4T257 -10Q196
-10 152 6T80 49T37 115T23 198Q23 228 29 258L39 312Q49 370 71 412T124 481T195 521T281 534Q318 534 342 525T383 497Q374 530 359 562T324 623L158 574L173 658ZM259 100Q305 100 330 128T369 228L380 290Q385 316 387 335T389 371Q389 379 389 388T387 406Q376
420 353 427T305 435Q257 435 231 409T191 313L179 250Q173 217 173 191Q173 140 196 120T259 100Z" />
<glyph unicode="&#xf1;" glyph-name="ntilde" horiz-adv-x="568" d="M105 548H248L235 474H240Q279 512 322 535T415 559Q477 559 510 529T543 438Q543 428 542 417T539 394L470 0H321L385 367Q388 380 388 391Q388 415 375 426T332 437Q300 437 276 426T228 399L157
0H8L105 548ZM153 627Q166 706 204 739T287 773Q306 773 323 767T354 754T382 741T406 735Q436 735 447 773H543Q536 733 522 706T490 661T451 635T408 627Q388 627 372 633T341 646T314 659T290 665Q259 665 248 627H153V627Z" />
<glyph unicode="&#xf2;" glyph-name="ograve" horiz-adv-x="561" d="M258 -10Q197 -10 154 5T82 47T40 113T26 198Q26 231 32 266L41 317Q52 381 77 426T137 501T217 545T312 559Q428 559 483 504T538 354Q538 336 537 318T531 280L523 229Q512 165 488 120T430
46T353 4T258 -10ZM261 100Q305 100 331 128T371 234L381 292Q385 312 386 328T388 359Q388 410 367 429T305 448Q260 448 233 418T191 312L181 254Q175 218 175 191Q175 139 197 120T261 100ZM197 791H352L402 621H282L197 791Z" />
<glyph unicode="&#xf3;" glyph-name="oacute" horiz-adv-x="561" d="M258 -10Q197 -10 154 5T82 47T40 113T26 198Q26 231 32 266L41 317Q52 381 77 426T137 501T217 545T312 559Q428 559 483 504T538 354Q538 336 537 318T531 280L523 229Q512 165 488 120T430
46T353 4T258 -10ZM261 100Q305 100 331 128T371 234L381 292Q385 312 386 328T388 359Q388 410 367 429T305 448Q260 448 233 418T191 312L181 254Q175 218 175 191Q175 139 197 120T261 100ZM359 791H518L389 621H260L359 791Z" />
<glyph unicode="&#xf4;" glyph-name="ocircumflex" horiz-adv-x="561" d="M258 -10Q197 -10 154 5T82 47T40 113T26 198Q26 231 32 266L41 317Q52 381 77 426T137 501T217 545T312 559Q428 559 483 504T538 354Q538 336 537 318T531 280L523 229Q512 165 488 120T430
46T353 4T258 -10ZM261 100Q305 100 331 128T371 234L381 292Q385 312 386 328T388 359Q388 410 367 429T305 448Q260 448 233 418T191 312L181 254Q175 218 175 191Q175 139 197 120T261 100ZM297 806H414L510 621H406L342 704L253 621H141L297 806Z" />
<glyph unicode="&#xf5;" glyph-name="otilde" horiz-adv-x="561" d="M258 -10Q197 -10 154 5T82 47T40 113T26 198Q26 231 32 266L41 317Q52 381 77 426T137 501T217 545T312 559Q428 559 483 504T538 354Q538 336 537 318T531 280L523 229Q512 165 488 120T430
46T353 4T258 -10ZM261 100Q305 100 331 128T371 234L381 292Q385 312 386 328T388 359Q388 410 367 429T305 448Q260 448 233 418T191 312L181 254Q175 218 175 191Q175 139 197 120T261 100ZM144 627Q157 706 195 739T278 773Q297 773 314 767T345 754T373 741T397
735Q427 735 438 773H534Q527 733 513 706T481 661T442 635T399 627Q379 627 363 633T332 646T305 659T281 665Q250 665 239 627H144V627Z" />
<glyph unicode="&#xf6;" glyph-name="odieresis" horiz-adv-x="561" d="M258 -10Q197 -10 154 5T82 47T40 113T26 198Q26 231 32 266L41 317Q52 381 77 426T137 501T217 545T312 559Q428 559 483 504T538 354Q538 336 537 318T531 280L523 229Q512 165 488 120T430
46T353 4T258 -10ZM261 100Q305 100 331 128T371 234L381 292Q385 312 386 328T388 359Q388 410 367 429T305 448Q260 448 233 418T191 312L181 254Q175 218 175 191Q175 139 197 120T261 100ZM391 757H526L505 631H370L391 757ZM172 757H307L285 631H151L172 757Z"
/>
<glyph unicode="&#xf7;" glyph-name="divide" horiz-adv-x="581" d="M70 393H550L528 269H48L70 393ZM197 187H348L323 41H171L197 187ZM273 621H425L399 475H248L273 621Z" />
<glyph unicode="&#xf8;" glyph-name="oslash" horiz-adv-x="561" d="M256 -10Q218 -10 186 -3T128 16L69 -60H-34L65 66Q24 119 24 198Q24 231 30 266L39 317Q50 381 75 426T135 501T215 545T310 559Q381 559 433 534L479 592H581L496 484Q516 458 526 425T536
354Q536 336 535 318T529 280L521 229Q510 165 486 120T428 46T351 4T256 -10ZM169 254Q166 236 164 219T161 188L362 444Q341 454 306 454Q256 454 224 423T179 312L169 254ZM255 95Q280 95 300 101T335 123T362 166T380 234L390 292Q393 310 395 328T399 360L198
105Q209 99 223 97T255 95Z" />
<glyph unicode="&#xf9;" glyph-name="ugrave" horiz-adv-x="561" d="M156 -11Q95 -11 62 20T29 111Q29 122 30 133T33 155L101 548H251L186 181Q183 164 183 153Q183 130 194 120T234 110Q266 110 289 120T336 145L406 548H555L459 0H338L336 71H331Q290 33 249
11T156 -11ZM205 791H360L410 621H290L205 791Z" />
<glyph unicode="&#xfa;" glyph-name="uacute" horiz-adv-x="561" d="M156 -11Q95 -11 62 20T29 111Q29 122 30 133T33 155L101 548H251L186 181Q183 164 183 153Q183 130 194 120T234 110Q266 110 289 120T336 145L406 548H555L459 0H338L336 71H331Q290 33 249
11T156 -11ZM372 791H531L402 621H273L372 791Z" />
<glyph unicode="&#xfb;" glyph-name="ucircumflex" horiz-adv-x="561" d="M156 -11Q95 -11 62 20T29 111Q29 122 30 133T33 155L101 548H251L186 181Q183 164 183 153Q183 130 194 120T234 110Q266 110 289 120T336 145L406 548H555L459 0H338L336 71H331Q290
33 249 11T156 -11ZM315 806H432L528 621H424L360 704L271 621H159L315 806Z" />
<glyph unicode="&#xfc;" glyph-name="udieresis" horiz-adv-x="561" d="M156 -11Q95 -11 62 20T29 111Q29 122 30 133T33 155L101 548H251L186 181Q183 164 183 153Q183 130 194 120T234 110Q266 110 289 120T336 145L406 548H555L459 0H338L336 71H331Q290 33
249 11T156 -11ZM409 757H544L523 631H388L409 757ZM190 757H325L303 631H169L190 757Z" />
<glyph unicode="&#xfd;" glyph-name="yacute" horiz-adv-x="545" d="M53 -206Q22 -206 -5 -199T-47 -184L-28 -82Q-17 -87 1 -89T34 -91Q75 -91 96 -76T137 -25L159 16L64 548H217L242 372Q247 337 248 292T250 207T250 138T249 106H252Q267 153 284 200Q298 240
315 284T349 364L434 548H581L275 -57Q255 -96 233 -124T183 -171T124 -197T53 -206ZM362 791H521L392 621H263L362 791Z" />
<glyph unicode="&#xfe;" glyph-name="thorn" horiz-adv-x="573" d="M143 769H292L240 480H245Q277 512 316 535T407 559Q472 559 510 519T549 387Q549 367 548 344T541 295L532 246Q519 173 495 124T437 45T362 3T275 -10Q231 -10 203 -3T158 14L120 -203H-29L143
769ZM254 97Q276 97 296 104T332 129T361 174T380 243L390 300Q396 337 396 362Q396 407 378 422T327 437Q296 437 270 424T226 396L176 110Q189 105 207 101T254 97Z" />
<glyph unicode="&#xff;" glyph-name="ydieresis" horiz-adv-x="545" d="M53 -206Q22 -206 -5 -199T-47 -184L-28 -82Q-17 -87 1 -89T34 -91Q75 -91 96 -76T137 -25L159 16L64 548H217L242 372Q247 337 248 292T250 207T250 138T249 106H252Q267 153 284 200Q298
240 315 284T349 364L434 548H581L275 -57Q255 -96 233 -124T183 -171T124 -197T53 -206ZM399 757H534L513 631H378L399 757ZM180 757H315L293 631H159L180 757Z" />
<glyph unicode="&#x100;" glyph-name="Amacron" horiz-adv-x="674" d="M333 721H504L611 0H447L428 152H190L118 0H-31L333 721ZM240 260H415L401 377Q396 414 394 455T391 532Q390 573 391 614H387Q375 576 361 536Q349 502 333 462T300 385L240 260ZM281 908H608L590
805H262L281 908Z" />
<glyph unicode="&#x101;" glyph-name="amacron" horiz-adv-x="515" d="M285 61Q262 30 231 10T148 -10Q84 -10 43 24T1 130Q1 179 16 212T60 266T127 298T212 314L323 326L327 348Q335 394 314 414T232 435Q191 435 154 429T89 414L108 521Q140 537 181 547T283
558Q335 558 375 545T440 505T475 440T476 349L414 0H293L291 61H285ZM204 84Q230 84 250 95T288 126V127L308 242L229 236Q187 232 168 211T148 147Q148 117 162 101T204 84ZM435 752H735L716 645H416L435 752Z" />
<glyph unicode="&#x102;" glyph-name="Abreve" horiz-adv-x="674" d="M333 721H504L611 0H447L428 152H190L118 0H-31L333 721ZM240 260H415L401 377Q396 414 394 455T391 532Q390 573 391 614H387Q375 576 361 536Q349 502 333 462T300 385L240 260ZM427 781Q351
781 308 826T265 949H368Q370 919 385 902T432 885Q464 885 480 902T502 949H605Q599 871 552 826T427 781Z" />
<glyph unicode="&#x103;" glyph-name="abreve" horiz-adv-x="515" d="M285 61Q262 30 231 10T148 -10Q84 -10 43 24T1 130Q1 179 16 212T60 266T127 298T212 314L323 326L327 348Q335 394 314 414T232 435Q191 435 154 429T89 414L108 521Q140 537 181 547T283
558Q335 558 375 545T440 505T475 440T476 349L414 0H293L291 61H285ZM204 84Q230 84 250 95T288 126V127L308 242L229 236Q187 232 168 211T148 147Q148 117 162 101T204 84ZM568 616Q499 616 455 660T410 794H512Q513 754 531 738T575 721Q601 721 620 737T646
794H748Q741 706 692 661T568 616Z" />
<glyph unicode="&#x104;" glyph-name="Aogonek" horiz-adv-x="674" d="M445 0L426 152H188L116 0H-33L331 721H502L607 10Q571 -18 547 -46T522 -98Q522 -131 570 -131Q581 -131 592 -129T612 -125L598 -198Q585 -204 563 -208T518 -213Q483 -213 461 -206T426
-186T408 -160T403 -131Q403 -106 414 -85T441 -48T477 -19T512 0H445ZM238 260H413L399 377Q394 414 392 455T389 532Q388 573 389 614H385Q373 576 359 536Q347 502 331 462T298 385L238 260Z" />
<glyph unicode="&#x105;" glyph-name="aogonek" horiz-adv-x="515" d="M285 61Q262 30 231 10T148 -10Q84 -10 43 24T1 130Q1 179 16 212T60 266T127 298T212 314L323 326L327 348Q335 394 314 414T232 435Q191 435 154 429T89 414L108 521Q140 537 181 547T283
558Q335 558 375 545T440 505T475 440T476 349L416 10Q400 -2 386 -16T360 -44T342 -72T335 -98Q335 -131 382 -131Q394 -131 405 -129T425 -125L411 -198Q397 -204 375 -208T331 -213Q296 -213 274 -205T239 -185T221 -157T216 -128Q216 -103 227 -83T254 -46T290
-19T325 0H293L291 61H285ZM204 84Q230 84 250 95T288 127L308 242L229 236Q187 232 168 211T148 147Q148 117 162 101T204 84Z" />
<glyph unicode="&#x106;" glyph-name="Cacute" horiz-adv-x="570" d="M336 -12Q187 -12 115 55T43 251Q43 274 45 299T53 353L66 425Q82 518 116 577T195 671T293 719T402 732Q443 732 474 728T528 718T568 702T599 684L577 561Q560 568 545 575T512 588T472 596T420
600Q386 600 357 592T304 564T263 509T237 422L223 342Q219 318 217 297T215 257Q215 224 223 199T250 156T300 130T378 121Q423 121 454 130T517 150L494 20Q461 6 424 -3T336 -12ZM468 788H340L440 950H601L468 788Z" />
<glyph unicode="&#x107;" glyph-name="cacute" horiz-adv-x="454" d="M249 -10Q189 -10 147 4T78 46T39 110T26 192Q26 227 34 273L43 323Q55 390 80 435T140 507T218 547T310 559Q368 559 402 548T461 521L442 410Q419 421 392 429T320 438Q268 438 237 412T193
317L183 261Q180 243 178 227T176 197Q176 153 199 131T281 109Q316 109 348 117T403 132L384 21Q358 8 323 -1T249 -10ZM592 791H751L622 621H493L592 791Z" />
<glyph unicode="&#x108;" glyph-name="Ccircumflex" horiz-adv-x="570" d="M336 -12Q187 -12 115 55T43 251Q43 274 45 299T53 353L66 425Q82 518 116 577T195 671T293 719T402 732Q443 732 474 728T528 718T568 702T599 684L577 561Q560 568 545 575T512 588T472
596T420 600Q386 600 357 592T304 564T263 509T237 422L223 342Q219 318 217 297T215 257Q215 224 223 199T250 156T300 130T378 121Q423 121 454 130T517 150L494 20Q461 6 424 -3T336 -12ZM376 957H493L592 788H486L419 858L335 788H226L376 957Z" />
<glyph unicode="&#x109;" glyph-name="ccircumflex" horiz-adv-x="454" d="M249 -10Q189 -10 147 4T78 46T39 110T26 192Q26 227 34 273L43 323Q55 390 80 435T140 507T218 547T310 559Q368 559 402 548T461 521L442 410Q419 421 392 429T320 438Q268 438 237
412T193 317L183 261Q180 243 178 227T176 197Q176 153 199 131T281 109Q316 109 348 117T403 132L384 21Q358 8 323 -1T249 -10ZM537 806H654L750 621H646L582 704L493 621H381L537 806Z" />
<glyph unicode="&#x10a;" glyph-name="Cdotaccent" horiz-adv-x="570" d="M336 -12Q187 -12 115 55T43 251Q43 274 45 299T53 353L66 425Q82 518 116 577T195 671T293 719T402 732Q443 732 474 728T528 718T568 702T599 684L577 561Q560 568 545 575T512 588T472
596T420 600Q386 600 357 592T304 564T263 509T237 422L223 342Q219 318 217 297T215 257Q215 224 223 199T250 156T300 130T378 121Q423 121 454 130T517 150L494 20Q461 6 424 -3T336 -12ZM354 922H507L485 794H331L354 922Z" />
<glyph unicode="&#x10b;" glyph-name="cdotaccent" horiz-adv-x="454" d="M249 -10Q189 -10 147 4T78 46T39 110T26 192Q26 227 34 273L43 323Q55 390 80 435T140 507T218 547T310 559Q368 559 402 548T461 521L442 410Q419 421 392 429T320 438Q268 438 237 412T193
317L183 261Q180 243 178 227T176 197Q176 153 199 131T281 109Q316 109 348 117T403 132L384 21Q358 8 323 -1T249 -10ZM518 768H668L645 636H495L518 768Z" />
<glyph unicode="&#x10c;" glyph-name="Ccaron" horiz-adv-x="570" d="M336 -12Q187 -12 115 55T43 251Q43 274 45 299T53 353L66 425Q82 518 116 577T195 671T293 719T402 732Q443 732 474 728T528 718T568 702T599 684L577 561Q560 568 545 575T512 588T472 596T420
600Q386 600 357 592T304 564T263 509T237 422L223 342Q219 318 217 297T215 257Q215 224 223 199T250 156T300 130T378 121Q423 121 454 130T517 150L494 20Q461 6 424 -3T336 -12ZM472 788H357L260 957H365L430 886L519 957H628L472 788Z" />
<glyph unicode="&#x10d;" glyph-name="ccaron" horiz-adv-x="454" d="M249 -10Q189 -10 147 4T78 46T39 110T26 192Q26 227 34 273L43 323Q55 390 80 435T140 507T218 547T310 559Q368 559 402 548T461 521L442 410Q419 421 392 429T320 438Q268 438 237 412T193
317L183 261Q180 243 178 227T176 197Q176 153 199 131T281 109Q316 109 348 117T403 132L384 21Q358 8 323 -1T249 -10ZM406 806H510L576 720L663 806H775L622 621H504L406 806Z" />
<glyph unicode="&#x10e;" glyph-name="Dcaron" horiz-adv-x="682" d="M150 721H376Q524 721 598 661T673 472Q673 426 664 372L651 302Q636 217 608 159T537 66T434 16T294 0H23L150 721ZM298 128Q338 128 368 136T419 165T455 221T480 310L495 393Q499 416 501
436T503 474Q503 509 494 532T467 568T421 587T356 593H290L208 128H298ZM452 788H337L240 957H345L410 886L499 957H608L452 788Z" />
<glyph unicode="&#x10f;" glyph-name="dcaron" horiz-adv-x="572" d="M173 -10Q105 -10 65 30T25 161Q25 181 26 203T33 250L42 300Q55 371 80 420T140 500T217 545T306 559Q351 559 374 551T415 535L457 769H606L470 0H347L344 72H339Q305 34 264 12T173 -10ZM247
107Q278 107 304 122T348 153L397 433Q383 439 366 443T320 447Q274 447 241 416T194 305L184 247Q178 209 178 184Q178 139 196 123T247 107ZM662 769H796L738 598H629L662 769Z" />
<glyph unicode="&#x110;" glyph-name="Dcroat" horiz-adv-x="682" d="M38 422H99L152 721H378Q526 721 600 661T675 472Q675 426 666 372L653 302Q638 217 610 159T539 66T436 16T296 0H25L78 300H16L38 422ZM300 128Q340 128 370 136T421 165T457 221T482 310L497
393Q501 416 503 436T505 474Q505 509 496 532T469 568T423 587T358 593H292L262 422H401L379 300H240L210 128H300Z" />
<glyph unicode="&#x111;" glyph-name="dcroat" horiz-adv-x="572" d="M295 707H654L639 621H279L295 707ZM173 -10Q105 -10 65 30T25 161Q25 181 26 203T33 250L42 300Q55 371 80 420T140 500T217 545T306 559Q351 559 374 551T415 535L457 769H606L470 0H347L344
72H339Q305 34 264 12T173 -10ZM247 107Q278 107 304 122T348 153L397 433Q383 439 366 443T320 447Q274 447 241 416T194 305L184 247Q178 209 178 184Q178 139 196 123T247 107Z" />
<glyph unicode="&#x112;" glyph-name="Emacron" horiz-adv-x="570" d="M150 721H586L563 590H288L260 431H480L458 307H238L206 131H501L478 0H23L150 721ZM238 908H565L547 805H219L238 908Z" />
<glyph unicode="&#x113;" glyph-name="emacron" horiz-adv-x="533" d="M277 -10Q209 -10 161 5T83 47T38 112T24 198Q24 216 26 234T32 273L42 324Q53 385 76 429T133 503T209 545T301 559Q413 559 462 511T512 370Q512 350 511 329T504 284L495 229H177Q176 222
176 216T175 203Q175 149 207 128T319 106Q357 106 388 112T457 129L438 26Q405 10 366 0T277 -10ZM300 451Q282 451 266 447T235 429T209 391T190 326H365Q371 356 371 378Q371 451 300 451ZM194 752H494L475 645H175L194 752Z" />
<glyph unicode="&#x114;" glyph-name="Ebreve" horiz-adv-x="570" d="M150 721H586L563 590H288L260 431H480L458 307H238L206 131H501L478 0H23L150 721ZM382 781Q306 781 263 826T220 949H323Q325 919 340 902T387 885Q419 885 435 902T457 949H560Q554 871
507 826T382 781Z" />
<glyph unicode="&#x115;" glyph-name="ebreve" horiz-adv-x="533" d="M277 -10Q209 -10 161 5T83 47T38 112T24 198Q24 216 26 234T32 273L42 324Q53 385 76 429T133 503T209 545T301 559Q413 559 462 511T512 370Q512 350 511 329T504 284L495 229H177Q176 222
176 216T175 203Q175 149 207 128T319 106Q357 106 388 112T457 129L438 26Q405 10 366 0T277 -10ZM300 451Q282 451 266 447T235 429T209 391T190 326H365Q371 356 371 378Q371 451 300 451ZM577 616Q508 616 464 660T419 794H521Q522 754 540 738T584 721Q610
721 629 737T655 794H757Q750 706 701 661T577 616Z" />
<glyph unicode="&#x116;" glyph-name="Edotaccent" horiz-adv-x="570" d="M150 721H586L563 590H288L260 431H480L458 307H238L206 131H501L478 0H23L150 721ZM325 922H478L456 794H302L325 922Z" />
<glyph unicode="&#x117;" glyph-name="edotaccent" horiz-adv-x="533" d="M277 -10Q209 -10 161 5T83 47T38 112T24 198Q24 216 26 234T32 273L42 324Q53 385 76 429T133 503T209 545T301 559Q413 559 462 511T512 370Q512 350 511 329T504 284L495 229H177Q176
222 176 216T175 203Q175 149 207 128T319 106Q357 106 388 112T457 129L438 26Q405 10 366 0T277 -10ZM300 451Q282 451 266 447T235 429T209 391T190 326H365Q371 356 371 378Q371 451 300 451ZM270 768H420L397 636H247L270 768Z" />
<glyph unicode="&#x118;" glyph-name="Eogonek" horiz-adv-x="570" d="M332 -213Q297 -213 275 -206T240 -186T222 -160T217 -131Q217 -106 228 -85T255 -48T291 -19T326 0H409Q379 -24 358 -49T336 -98Q336 -131 384 -131Q395 -131 406 -129T426 -125L412 -198Q399
-204 377 -208T332 -213ZM150 721H586L563 590H288L260 431H480L458 307H238L206 131H501L478 0H23L150 721Z" />
<glyph unicode="&#x119;" glyph-name="eogonek" horiz-adv-x="533" d="M301 -213Q266 -213 244 -206T209 -186T191 -160T186 -131Q186 -109 194 -91T216 -57T245 -31T276 -10H268Q202 -9 156 6T79 49T36 114T22 198Q22 216 24 234T30 273L40 324Q51 385 74 429T131
503T207 545T299 559Q411 559 460 511T510 370Q510 350 509 329T502 284L493 229H175Q174 222 174 216T173 203Q173 149 205 128T317 106Q355 106 386 112T455 129L436 26Q419 18 405 12T376 -4Q349 -22 327 -46T305 -98Q305 -131 353 -131Q364 -131 375 -129T395
-125L381 -198Q368 -204 346 -208T301 -213ZM298 451Q280 451 264 447T233 429T207 391T188 326H363Q369 356 369 378Q369 451 298 451Z" />
<glyph unicode="&#x11a;" glyph-name="Ecaron" horiz-adv-x="570" d="M150 721H586L563 590H288L260 431H480L458 307H238L206 131H501L478 0H23L150 721ZM431 788H316L219 957H324L389 886L478 957H587L431 788Z" />
<glyph unicode="&#x11b;" glyph-name="ecaron" horiz-adv-x="533" d="M277 -10Q209 -10 161 5T83 47T38 112T24 198Q24 216 26 234T32 273L42 324Q53 385 76 429T133 503T209 545T301 559Q413 559 462 511T512 370Q512 350 511 329T504 284L495 229H177Q176 222
176 216T175 203Q175 149 207 128T319 106Q357 106 388 112T457 129L438 26Q405 10 366 0T277 -10ZM300 451Q282 451 266 447T235 429T209 391T190 326H365Q371 356 371 378Q371 451 300 451ZM413 806H517L583 720L670 806H782L629 621H511L413 806Z" />
<glyph unicode="&#x11c;" glyph-name="Gcircumflex" horiz-adv-x="653" d="M351 -11Q277 -11 220 3T123 47T63 126T42 242Q42 267 45 294T53 351L65 420Q81 514 117 575T202 671T306 719T420 733Q466 733 500 729T558 717T601 701T633 683L610 555Q584 569 543
583T429 597Q378 597 344 585T289 549T255 492T234 414L220 335Q215 305 211 279T207 230Q207 201 214 179T237 140T281 116T350 108Q371 108 389 111T422 119L447 264H351L372 384H622L560 26Q518 9 464 -1T351 -11ZM382 957H499L598 788H492L425 858L341 788H232L382
957Z" />
<glyph unicode="&#x11d;" glyph-name="gcircumflex" horiz-adv-x="572" d="M196 -217Q124 -217 76 -204T-5 -172L14 -67Q38 -76 79 -86T177 -97Q248 -97 280 -72T323 7L337 88H332Q299 56 263 38T178 19Q110 19 70 61T30 191Q30 211 31 232T38 277L45 313Q58 380
84 426T148 502T235 545T345 559Q420 559 473 547T561 514L468 -10Q458 -67 436 -106T379 -170T299 -206T196 -217ZM251 132Q281 132 307 146T352 176L398 435Q385 441 369 444T327 448Q278 448 244 418T197 316L189 272Q182 238 182 210Q182 167 199 150T251 132ZM319
806H436L532 621H428L364 704L275 621H163L319 806Z" />
<glyph unicode="&#x11e;" glyph-name="Gbreve" horiz-adv-x="653" d="M351 -11Q277 -11 220 3T123 47T63 126T42 242Q42 267 45 294T53 351L65 420Q81 514 117 575T202 671T306 719T420 733Q466 733 500 729T558 717T601 701T633 683L610 555Q584 569 543 583T429
597Q378 597 344 585T289 549T255 492T234 414L220 335Q215 305 211 279T207 230Q207 201 214 179T237 140T281 116T350 108Q371 108 389 111T422 119L447 264H351L372 384H622L560 26Q518 9 464 -1T351 -11ZM428 781Q352 781 309 826T266 949H369Q371 919 386
902T433 885Q465 885 481 902T503 949H606Q600 871 553 826T428 781Z" />
<glyph unicode="&#x11f;" glyph-name="gbreve" horiz-adv-x="572" d="M196 -217Q124 -217 76 -204T-5 -172L14 -67Q38 -76 79 -86T177 -97Q248 -97 280 -72T323 7L337 88H332Q299 56 263 38T178 19Q110 19 70 61T30 191Q30 211 31 232T38 277L45 313Q58 380 84
426T148 502T235 545T345 559Q420 559 473 547T561 514L468 -10Q458 -67 436 -106T379 -170T299 -206T196 -217ZM251 132Q281 132 307 146T352 176L398 435Q385 441 369 444T327 448Q278 448 244 418T197 316L189 272Q182 238 182 210Q182 167 199 150T251 132ZM358
616Q289 616 245 660T200 794H302Q303 754 321 738T365 721Q391 721 410 737T436 794H538Q531 706 482 661T358 616Z" />
<glyph unicode="&#x120;" glyph-name="Gdotaccent" horiz-adv-x="653" d="M351 -11Q277 -11 220 3T123 47T63 126T42 242Q42 267 45 294T53 351L65 420Q81 514 117 575T202 671T306 719T420 733Q466 733 500 729T558 717T601 701T633 683L610 555Q584 569 543
583T429 597Q378 597 344 585T289 549T255 492T234 414L220 335Q215 305 211 279T207 230Q207 201 214 179T237 140T281 116T350 108Q371 108 389 111T422 119L447 264H351L372 384H622L560 26Q518 9 464 -1T351 -11ZM356 922H509L487 794H333L356 922Z" />
<glyph unicode="&#x121;" glyph-name="gdotaccent" horiz-adv-x="572" d="M196 -217Q124 -217 76 -204T-5 -172L14 -67Q38 -76 79 -86T177 -97Q248 -97 280 -72T323 7L337 88H332Q299 56 263 38T178 19Q110 19 70 61T30 191Q30 211 31 232T38 277L45 313Q58 380
84 426T148 502T235 545T345 559Q420 559 473 547T561 514L468 -10Q458 -67 436 -106T379 -170T299 -206T196 -217ZM251 132Q281 132 307 146T352 176L398 435Q385 441 369 444T327 448Q278 448 244 418T197 316L189 272Q182 238 182 210Q182 167 199 150T251 132ZM291
768H441L418 636H268L291 768Z" />
<glyph unicode="&#x122;" glyph-name="Gcommaaccent" horiz-adv-x="653" d="M225 -67H370L300 -242H189L225 -67ZM351 -11Q277 -11 220 3T123 47T63 126T42 242Q42 267 45 294T53 351L65 420Q81 514 117 575T202 671T306 719T420 733Q466 733 500 729T558 717T601
701T633 683L610 555Q584 569 543 583T429 597Q378 597 344 585T289 549T255 492T234 414L220 335Q215 305 211 279T207 230Q207 201 214 179T237 140T281 116T350 108Q371 108 389 111T422 119L447 264H351L372 384H622L560 26Q518 9 464 -1T351 -11Z" />
<glyph unicode="&#x123;" glyph-name="gcommaaccent" horiz-adv-x="572" d="M196 -217Q124 -217 76 -204T-5 -172L14 -67Q38 -76 79 -86T177 -97Q248 -97 280 -72T323 7L337 88H332Q299 56 263 38T178 19Q110 19 70 61T30 191Q30 211 31 232T38 277L45 313Q58
380 84 426T148 502T235 545T345 559Q420 559 473 547T561 514L468 -10Q458 -67 436 -106T379 -170T299 -206T196 -217ZM251 132Q281 132 307 146T352 176L398 435Q385 441 369 444T327 448Q278 448 244 418T197 316L189 272Q182 238 182 210Q182 167 199 150T251
132ZM410 621H266L336 796H445L410 621Z" />
<glyph unicode="&#x124;" glyph-name="Hcircumflex" horiz-adv-x="703" d="M150 721H312L262 437H501L551 721H713L586 0H424L478 305H239L185 0H23L150 721ZM410 957H527L626 788H520L453 858L369 788H260L410 957Z" />
<glyph unicode="&#x125;" glyph-name="hcircumflex" horiz-adv-x="569" d="M145 769H294L242 478H247Q282 513 324 536T416 559Q477 559 510 529T543 438Q543 428 542 417T539 394L470 0H321L386 367Q387 374 387 380T388 391Q388 415 375 426T332 437Q301 437
277 426T228 399L158 0H9L145 769ZM346 993H463L562 824H456L389 894L305 824H196L346 993Z" />
<glyph unicode="&#x126;" glyph-name="Hbar" horiz-adv-x="715" d="M780 524H23L41 625H799L780 524ZM156 721H318L268 437H507L557 721H719L592 0H430L484 305H245L191 0H29L156 721Z" />
<glyph unicode="&#x127;" glyph-name="hbar" horiz-adv-x="569" d="M415 621H56L71 707H431L415 621ZM145 769H294L242 478H247Q282 513 324 536T416 559Q477 559 510 529T543 438Q543 428 542 417T539 394L470 0H321L386 367Q387 374 387 380T388 391Q388 415
375 426T332 437Q301 437 277 426T228 399L158 0H9L145 769Z" />
<glyph unicode="&#x128;" glyph-name="Itilde" horiz-adv-x="303" d="M151 721H313L186 0H24L151 721ZM312 790Q318 830 332 858T365 905T406 931T453 939Q473 939 490 933T521 920T549 907T574 901Q609 901 618 939H712Q706 899 692 871T658 824T616 798T571
790Q551 790 534 796T503 809T476 822T451 828Q416 828 407 790H312V790Z" />
<glyph unicode="&#x129;" glyph-name="itilde" horiz-adv-x="266" d="M107 548H257L160 0H11L107 548ZM268 627Q281 706 319 739T402 773Q421 773 438 767T469 754T497 741T521 735Q551 735 562 773H658Q651 733 637 706T605 661T566 635T523 627Q503 627 487
633T456 646T429 659T405 665Q374 665 363 627H268V627Z" />
<glyph unicode="&#x12a;" glyph-name="Imacron" horiz-adv-x="303" d="M151 721H313L186 0H24L151 721ZM357 908H684L666 805H338L357 908Z" />
<glyph unicode="&#x12b;" glyph-name="imacron" horiz-adv-x="266" d="M76 752H356L337 645H57L76 752ZM107 548H257L160 0H11L107 548Z" />
<glyph unicode="&#x12c;" glyph-name="Ibreve" horiz-adv-x="303" d="M151 721H313L186 0H24L151 721ZM510 781Q434 781 391 826T348 949H451Q453 919 468 902T515 885Q547 885 563 902T585 949H688Q682 871 635 826T510 781Z" />
<glyph unicode="&#x12d;" glyph-name="ibreve" horiz-adv-x="266" d="M107 548H257L160 0H11L107 548ZM199 616Q130 616 86 660T41 794H143Q144 754 162 738T206 721Q232 721 251 737T277 794H379Q372 706 323 661T199 616Z" />
<glyph unicode="&#x12e;" glyph-name="Iogonek" horiz-adv-x="303" d="M22 0L149 721H311L187 18Q142 -14 117 -44T91 -98Q91 -131 139 -131Q150 -131 161 -129T181 -125L167 -198Q154 -204 132 -208T87 -213Q52 -213 30 -206T-5 -186T-23 -160T-28 -131Q-28 -106
-17 -85T10 -48T46 -19T81 0H22Z" />
<glyph unicode="&#x12f;" glyph-name="iogonek" horiz-adv-x="266" d="M9 0L105 548H255L160 12Q121 -17 97 -45T72 -98Q72 -131 120 -131Q131 -131 142 -129T162 -125L148 -198Q135 -204 113 -208T68 -213Q33 -213 11 -206T-24 -186T-42 -160T-47 -131Q-47 -106
-36 -85T-9 -48T27 -19T62 0H9ZM142 761H295L271 630H119L142 761Z" />
<glyph unicode="&#x130;" glyph-name="Idotaccent" horiz-adv-x="303" d="M151 721H313L186 0H24L151 721ZM445 922H598L576 794H422L445 922Z" />
<glyph unicode="&#x131;" glyph-name="dotlessi" horiz-adv-x="266" d="M105 548H255L158 0H9L105 548Z" />
<glyph unicode="&#x132;" glyph-name="IJ" horiz-adv-x="747" d="M149 721H311L184 0H22L149 721ZM437 -8Q379 -8 346 4T291 30L312 145Q329 137 350 132T402 126Q446 126 472 146T506 217L595 721H757L663 186Q647 96 593 44T437 -8Z" />
<glyph unicode="&#x133;" glyph-name="ij" horiz-adv-x="527" d="M107 548H257L160 0H11L107 548ZM144 761H297L273 630H121L144 761ZM230 -206Q184 -206 161 -199T123 -182L141 -84Q150 -87 161 -89T190 -92Q222 -92 242 -76T268 -28L369 548H519L414 -50Q400
-125 355 -165T230 -206ZM406 761H559L536 630H384L406 761Z" />
<glyph unicode="&#x134;" glyph-name="Jcircumflex" horiz-adv-x="455" d="M148 -8Q116 -8 92 -5T48 5T15 18T-10 34L11 149Q28 141 53 134T113 126Q156 126 182 146T217 217L305 721H467L374 186Q358 96 304 44T148 -8ZM361 957H478L577 788H471L404 858L320
788H211L361 957Z" />
<glyph unicode="&#x135;" glyph-name="jcircumflex" horiz-adv-x="266" d="M416 806H533L629 621H525L461 704L372 621H260L416 806ZM-32 -206Q-78 -206 -101 -199T-139 -182L-121 -84Q-112 -87 -101 -89T-72 -92Q-40 -92 -20 -76T6 -28L107 548H257L152 -50Q138
-125 93 -165T-32 -206Z" />
<glyph unicode="&#x136;" glyph-name="Kcommaaccent" horiz-adv-x="642" d="M198 -67H343L273 -242H162L198 -67ZM264 372L534 721H707L426 372L583 0H417L264 372ZM150 721H312L185 0H23L150 721Z" />
<glyph unicode="&#x137;" glyph-name="kcommaaccent" horiz-adv-x="527" d="M148 -67H293L223 -242H112L148 -67ZM145 769H294L158 0H9L145 769ZM219 291L403 548H563L367 288L472 0H319L219 291Z" />
<glyph unicode="&#x139;" glyph-name="Lacute" horiz-adv-x="525" d="M150 721H312L208 131H473L450 0H23L150 721ZM557 788H429L529 950H690L557 788Z" />
<glyph unicode="&#x13a;" glyph-name="lacute" horiz-adv-x="309" d="M155 -8Q31 -8 31 100Q31 122 35 142L146 769H295L186 154Q181 125 190 115T227 104Q248 104 266 109L249 13Q235 5 213 -1T155 -8ZM546 824H418L518 986H679L546 824Z" />
<glyph unicode="&#x13b;" glyph-name="Lcommaaccent" horiz-adv-x="525" d="M163 -67H308L238 -242H127L163 -67ZM150 721H312L208 131H473L450 0H23L150 721Z" />
<glyph unicode="&#x13c;" glyph-name="lcommaaccent" horiz-adv-x="309" d="M304 -67H449L379 -242H268L304 -67ZM155 -8Q31 -8 31 100Q31 122 35 142L146 769H295L186 154Q181 125 190 115T227 104Q248 104 266 109L249 13Q235 5 213 -1T155 -8Z" />
<glyph unicode="&#x13d;" glyph-name="Lcaron" horiz-adv-x="525" d="M150 721H312L208 131H473L450 0H23L150 721ZM384 977H518L460 806H351L384 977Z" />
<glyph unicode="&#x13e;" glyph-name="lcaron" horiz-adv-x="309" d="M155 -8Q31 -8 31 100Q31 122 35 142L146 769H295L186 154Q181 125 190 115T227 104Q248 104 266 109L249 13Q235 5 213 -1T155 -8ZM351 769H485L427 598H318L351 769Z" />
<glyph unicode="&#x13f;" glyph-name="Ldot" horiz-adv-x="525" d="M150 721H312L208 131H473L450 0H23L150 721Z" />
<glyph unicode="&#x140;" glyph-name="ldot" horiz-adv-x="426" d="M155 -8Q31 -8 31 100Q31 122 35 142L146 769H295L186 154Q181 125 190 115T227 104Q248 104 266 109L249 13Q235 5 213 -1T155 -8Z" />
<glyph unicode="&#x141;" glyph-name="Lslash" horiz-adv-x="530" d="M22 335L91 361L154 721H316L264 425L450 495L428 371L242 302L212 131H477L454 0H27L69 237L0 211L22 335Z" />
<glyph unicode="&#x142;" glyph-name="lslash" horiz-adv-x="309" d="M155 -8Q31 -8 31 100Q31 122 35 142L63 299L0 269L22 392L84 421L146 769H295L247 498L331 538L309 416L225 376L186 154Q181 125 190 115T227 104Q248 104 266 109L249 13Q235 5 213 -1T155 -8Z" />
<glyph unicode="&#x143;" glyph-name="Nacute" horiz-adv-x="697" d="M150 721H328L419 471Q433 429 446 382T468 294Q479 246 488 201H491Q496 258 501 313Q506 360 511 410T524 497L564 721H707L580 0H425L321 291Q307 329 295 376T273 465Q262 513 252 563H249Q243
504 237 448Q232 400 226 348T213 257L167 0H23L150 721ZM495 788H367L467 950H628L495 788Z" />
<glyph unicode="&#x144;" glyph-name="nacute" horiz-adv-x="568" d="M105 548H248L235 474H240Q279 512 322 535T415 559Q477 559 510 529T543 438Q543 428 542 417T539 394L470 0H321L385 367Q388 380 388 391Q388 415 375 426T332 437Q300 437 276 426T228
399L157 0H8L105 548ZM367 791H526L397 621H268L367 791Z" />
<glyph unicode="&#x145;" glyph-name="Ncommaaccent" horiz-adv-x="697" d="M226 -67H371L301 -242H190L226 -67ZM150 721H328L419 471Q433 429 446 382T468 294Q479 246 488 201H491Q496 258 501 313Q506 360 511 410T524 497L564 721H707L580 0H425L321 291Q307
329 295 376T273 465Q262 513 252 563H249Q243 504 237 448Q232 400 226 348T213 257L167 0H23L150 721Z" />
<glyph unicode="&#x146;" glyph-name="ncommaaccent" horiz-adv-x="568" d="M157 -67H302L232 -242H121L157 -67ZM105 548H248L235 474H240Q279 512 322 535T415 559Q477 559 510 529T543 438Q543 428 542 417T539 394L470 0H321L385 367Q388 380 388 391Q388
415 375 426T332 437Q300 437 276 426T228 399L157 0H8L105 548Z" />
<glyph unicode="&#x147;" glyph-name="Ncaron" horiz-adv-x="697" d="M150 721H328L419 471Q433 429 446 382T468 294Q479 246 488 201H491Q496 258 501 313Q506 360 511 410T524 497L564 721H707L580 0H425L321 291Q307 329 295 376T273 465Q262 513 252 563H249Q243
504 237 448Q232 400 226 348T213 257L167 0H23L150 721ZM495 788H380L283 957H388L453 886L542 957H651L495 788Z" />
<glyph unicode="&#x148;" glyph-name="ncaron" horiz-adv-x="568" d="M105 548H248L235 474H240Q279 512 322 535T415 559Q477 559 510 529T543 438Q543 428 542 417T539 394L470 0H321L385 367Q388 380 388 391Q388 415 375 426T332 437Q300 437 276 426T228
399L157 0H8L105 548ZM183 806H287L353 720L440 806H552L399 621H281L183 806Z" />
<glyph unicode="&#x149;" glyph-name="napostrophe" horiz-adv-x="628" d="M165 548H308L295 474H300Q339 512 382 535T475 559Q537 559 570 529T603 438Q603 428 602 417T599 394L530 0H381L445 367Q448 380 448 391Q448 415 435 426T392 437Q360 437 336 426T288
399L217 0H68L165 548ZM277 721H425L341 470H223L277 721Z" />
<glyph unicode="&#x14a;" glyph-name="Eng" horiz-adv-x="697" d="M350 -207Q299 -207 267 -196T215 -171L235 -55Q273 -74 320 -74Q362 -74 387 -56T423 4L319 291Q305 329 293 376T271 465Q260 513 250 563H247Q241 504 235 448Q230 400 224 348T211 257L165
0H21L148 721H326L417 471Q431 429 444 382T466 294Q477 246 486 201H489Q494 258 499 313Q504 360 509 410T522 497L562 721H705L576 -14Q560 -103 506 -155T350 -207Z" />
<glyph unicode="&#x14b;" glyph-name="eng" horiz-adv-x="568" d="M275 -206Q229 -206 206 -199T168 -182L186 -84Q195 -87 206 -89T235 -92Q302 -92 313 -28L383 367Q386 382 386 391Q386 415 373 426T330 437Q298 437 274 426T226 399L155 0H6L102 548H246L233
474H238Q277 512 320 535T413 559Q475 559 508 529T541 438Q541 428 540 417T537 394L459 -50Q445 -125 400 -165T275 -206Z" />
<glyph unicode="&#x14c;" glyph-name="Omacron" horiz-adv-x="700" d="M331 -12Q191 -12 118 55T44 254Q44 299 53 352L65 421Q81 510 114 569T194 665T295 716T410 732Q548 732 619 665T690 468Q690 445 688 420T680 368L668 298Q653 209 620 150T541 54T442
3T331 -12ZM334 110Q402 110 441 157T498 303L512 385Q517 414 520 438T523 485Q523 546 496 578T400 610Q329 610 291 565T236 420L221 338Q216 309 213 284T210 238Q210 175 237 143T334 110ZM285 908H612L594 805H266L285 908Z" />
<glyph unicode="&#x14d;" glyph-name="omacron" horiz-adv-x="561" d="M258 -10Q197 -10 154 5T82 47T40 113T26 198Q26 231 32 266L41 317Q52 381 77 426T137 501T217 545T312 559Q428 559 483 504T538 354Q538 336 537 318T531 280L523 229Q512 165 488 120T430
46T353 4T258 -10ZM261 100Q305 100 331 128T371 234L381 292Q385 312 386 328T388 359Q388 410 367 429T305 448Q260 448 233 418T191 312L181 254Q175 218 175 191Q175 139 197 120T261 100ZM200 752H500L481 645H181L200 752Z" />
<glyph unicode="&#x14e;" glyph-name="Obreve" horiz-adv-x="700" d="M331 -12Q191 -12 118 55T44 254Q44 299 53 352L65 421Q81 510 114 569T194 665T295 716T410 732Q548 732 619 665T690 468Q690 445 688 420T680 368L668 298Q653 209 620 150T541 54T442 3T331
-12ZM334 110Q402 110 441 157T498 303L512 385Q517 414 520 438T523 485Q523 546 496 578T400 610Q329 610 291 565T236 420L221 338Q216 309 213 284T210 238Q210 175 237 143T334 110ZM436 781Q360 781 317 826T274 949H377Q379 919 394 902T441 885Q473 885
489 902T511 949H614Q608 871 561 826T436 781Z" />
<glyph unicode="&#x14f;" glyph-name="obreve" horiz-adv-x="561" d="M258 -10Q197 -10 154 5T82 47T40 113T26 198Q26 231 32 266L41 317Q52 381 77 426T137 501T217 545T312 559Q428 559 483 504T538 354Q538 336 537 318T531 280L523 229Q512 165 488 120T430
46T353 4T258 -10ZM261 100Q305 100 331 128T371 234L381 292Q385 312 386 328T388 359Q388 410 367 429T305 448Q260 448 233 418T191 312L181 254Q175 218 175 191Q175 139 197 120T261 100ZM333 616Q264 616 220 660T175 794H277Q278 754 296 738T340 721Q366
721 385 737T411 794H513Q506 706 457 661T333 616Z" />
<glyph unicode="&#x150;" glyph-name="Ohungarumlaut" horiz-adv-x="700" d="M331 -12Q191 -12 118 55T44 254Q44 299 53 352L65 421Q81 510 114 569T194 665T295 716T410 732Q548 732 619 665T690 468Q690 445 688 420T680 368L668 298Q653 209 620 150T541 54T442
3T331 -12ZM334 110Q402 110 441 157T498 303L512 385Q517 414 520 438T523 485Q523 546 496 578T400 610Q329 610 291 565T236 420L221 338Q216 309 213 284T210 238Q210 175 237 143T334 110ZM541 946H678L571 788H465L541 946ZM352 946H490L382 788H276L352
946Z" />
<glyph unicode="&#x151;" glyph-name="ohungarumlaut" horiz-adv-x="561" d="M258 -10Q197 -10 154 5T82 47T40 113T26 198Q26 231 32 266L41 317Q52 381 77 426T137 501T217 545T312 559Q428 559 483 504T538 354Q538 336 537 318T531 280L523 229Q512 165 488
120T430 46T353 4T258 -10ZM261 100Q305 100 331 128T371 234L381 292Q385 312 386 328T388 359Q388 410 367 429T305 448Q260 448 233 418T191 312L181 254Q175 218 175 191Q175 139 197 120T261 100ZM438 793H575L484 621H372L438 793ZM237 793H375L282 621H170L237
793Z" />
<glyph unicode="&#x152;" glyph-name="OE" horiz-adv-x="936" d="M341 0Q195 0 118 61T41 252Q41 299 51 349L63 419Q78 504 108 562T183 655T288 705T424 721H950L927 590H654L626 431H844L822 307H604L572 131H865L842 0H341ZM412 128L494 593H418Q377 593 347
585T294 556T257 500T232 411L217 328Q213 305 211 286T209 249Q209 213 218 190T247 153T294 134T361 128H412Z" />
<glyph unicode="&#x153;" glyph-name="oe" horiz-adv-x="881" d="M256 -10Q195 -10 152 5T80 48T38 114T24 199Q24 231 30 266L39 317Q50 381 75 426T136 501T216 545T311 559Q376 559 417 539T480 480Q512 521 555 540T656 559Q761 559 810 510T860 368Q860 330
852 284L843 229H523Q521 222 521 216T521 203Q521 149 553 128T665 106Q703 106 735 112T804 129L786 26Q752 10 712 0T623 -10Q546 -10 499 11T428 70Q396 28 353 9T256 -10ZM259 100Q304 100 330 128T370 234L380 292Q384 312 385 328T387 359Q387 410 366 429T303
448Q258 448 231 418T190 312L180 254Q177 236 175 221T173 192Q173 139 195 120T259 100ZM714 326Q717 341 718 353T719 377Q719 415 702 433T647 451Q629 451 612 447T581 429T554 391T535 326H714Z" />
<glyph unicode="&#x154;" glyph-name="Racute" horiz-adv-x="627" d="M150 721H394Q504 721 562 671T620 530Q620 437 577 387T462 316V311L572 0H408L315 275H234L186 0H23L150 721ZM334 385Q398 385 427 416T457 517Q457 557 435 578T363 600H290L252 385H334ZM441
788H313L413 950H574L441 788Z" />
<glyph unicode="&#x155;" glyph-name="racute" horiz-adv-x="396" d="M105 548H250L234 454H239Q274 505 310 530T386 555Q397 555 408 553T424 549L399 409Q390 411 379 412T358 413Q277 413 224 369L159 0H9L105 548ZM548 791H707L578 621H449L548 791Z" />
<glyph unicode="&#x156;" glyph-name="Rcommaaccent" horiz-adv-x="627" d="M197 -67H342L272 -242H161L197 -67ZM150 721H394Q504 721 562 671T620 530Q620 437 577 387T462 316V311L572 0H408L315 275H234L186 0H23L150 721ZM334 385Q398 385 427 416T457 517Q457
557 435 578T363 600H290L252 385H334Z" />
<glyph unicode="&#x157;" glyph-name="rcommaaccent" horiz-adv-x="396" d="M258 -67H403L333 -242H222L258 -67ZM105 548H250L234 454H239Q274 505 310 530T386 555Q397 555 408 553T424 549L399 409Q390 411 379 412T358 413Q277 413 224 369L159 0H9L105 548Z" />
<glyph unicode="&#x158;" glyph-name="Rcaron" horiz-adv-x="627" d="M150 721H394Q504 721 562 671T620 530Q620 437 577 387T462 316V311L572 0H408L315 275H234L186 0H23L150 721ZM334 385Q398 385 427 416T457 517Q457 557 435 578T363 600H290L252 385H334ZM431
788H316L219 957H324L389 886L478 957H587L431 788Z" />
<glyph unicode="&#x159;" glyph-name="rcaron" horiz-adv-x="396" d="M105 548H250L234 454H239Q274 505 310 530T386 555Q397 555 408 553T424 549L399 409Q390 411 379 412T358 413Q277 413 224 369L159 0H9L105 548ZM375 806H479L545 720L632 806H744L591 621H473L375
806Z" />
<glyph unicode="&#x15a;" glyph-name="Sacute" horiz-adv-x="524" d="M219 -11Q136 -11 84 9T0 53L23 181Q43 170 63 160T107 141T156 127T216 121Q271 121 300 143T329 211Q329 237 315 256T258 293L201 317Q139 343 107 385T75 500Q75 551 90 593T138 667T219
715T334 732Q373 732 403 727T456 714T495 697T525 678L503 551Q472 568 431 584T329 600Q284 600 256 582T228 522Q228 496 241 478T293 444L350 419Q384 405 410 388T453 349T480 300T489 236Q489 122 419 56T219 -11ZM664 788H536L636 950H797L664 788Z" />
<glyph unicode="&#x15b;" glyph-name="sacute" horiz-adv-x="443" d="M181 -10Q113 -10 67 4T-8 39L11 149Q26 141 42 134T77 120T120 110T173 106Q220 106 238 120T257 159Q257 179 247 189T204 211L164 225Q110 244 81 276T51 369Q51 463 105 511T257 559Q292
559 318 555T364 545T400 532T427 517L407 410Q384 420 347 431T263 443Q219 443 203 430T187 394Q187 373 199 363T241 342L280 328Q344 306 371 272T399 181Q399 90 345 40T181 -10ZM557 791H716L587 621H458L557 791Z" />
<glyph unicode="&#x15c;" glyph-name="Scircumflex" horiz-adv-x="524" d="M219 -11Q136 -11 84 9T0 53L23 181Q43 170 63 160T107 141T156 127T216 121Q271 121 300 143T329 211Q329 237 315 256T258 293L201 317Q139 343 107 385T75 500Q75 551 90 593T138 667T219
715T334 732Q373 732 403 727T456 714T495 697T525 678L503 551Q472 568 431 584T329 600Q284 600 256 582T228 522Q228 496 241 478T293 444L350 419Q384 405 410 388T453 349T480 300T489 236Q489 122 419 56T219 -11ZM316 957H433L532 788H426L359 858L275 788H166L316
957Z" />
<glyph unicode="&#x15d;" glyph-name="scircumflex" horiz-adv-x="443" d="M181 -10Q113 -10 67 4T-8 39L11 149Q26 141 42 134T77 120T120 110T173 106Q220 106 238 120T257 159Q257 179 247 189T204 211L164 225Q110 244 81 276T51 369Q51 463 105 511T257 559Q292
559 318 555T364 545T400 532T427 517L407 410Q384 420 347 431T263 443Q219 443 203 430T187 394Q187 373 199 363T241 342L280 328Q344 306 371 272T399 181Q399 90 345 40T181 -10ZM497 806H614L710 621H606L542 704L453 621H341L497 806Z" />
<glyph unicode="&#x15e;" glyph-name="Scedilla" horiz-adv-x="524" d="M219 -11Q136 -11 84 9T0 53L23 181Q43 170 63 160T107 141T156 127T216 121Q271 121 300 143T329 211Q329 237 315 256T258 293L201 317Q139 343 107 385T75 500Q75 551 90 593T138 667T219
715T334 732Q373 732 403 727T456 714T495 697T525 678L503 551Q472 568 431 584T329 600Q284 600 256 582T228 522Q228 496 241 478T293 444L350 419Q384 405 410 388T453 349T480 300T489 236Q489 122 419 56T219 -11ZM333 -184Q402 -178 429 -168T457 -135Q457
-121 442 -115T380 -107L399 0H478L469 -51Q523 -56 544 -75T565 -127Q565 -181 507 -213T321 -251L333 -184Z" />
<glyph unicode="&#x15f;" glyph-name="scedilla" horiz-adv-x="443" d="M181 -10Q113 -10 67 4T-8 39L11 149Q26 141 42 134T77 120T120 110T173 106Q220 106 238 120T257 159Q257 179 247 189T204 211L164 225Q110 244 81 276T51 369Q51 463 105 511T257 559Q292
559 318 555T364 545T400 532T427 517L407 410Q384 420 347 431T263 443Q219 443 203 430T187 394Q187 373 199 363T241 342L280 328Q344 306 371 272T399 181Q399 90 345 40T181 -10ZM286 -184Q355 -178 382 -168T410 -135Q410 -121 395 -115T333 -107L352 0H431L422
-51Q476 -56 497 -75T518 -127Q518 -181 460 -213T274 -251L286 -184Z" />
<glyph unicode="&#x160;" glyph-name="Scaron" horiz-adv-x="524" d="M219 -11Q136 -11 84 9T0 53L23 181Q43 170 63 160T107 141T156 127T216 121Q271 121 300 143T329 211Q329 237 315 256T258 293L201 317Q139 343 107 385T75 500Q75 551 90 593T138 667T219
715T334 732Q373 732 403 727T456 714T495 697T525 678L503 551Q472 568 431 584T329 600Q284 600 256 582T228 522Q228 496 241 478T293 444L350 419Q384 405 410 388T453 349T480 300T489 236Q489 122 419 56T219 -11ZM650 788H535L438 957H543L608 886L697 957H806L650
788Z" />
<glyph unicode="&#x161;" glyph-name="scaron" horiz-adv-x="443" d="M181 -10Q113 -10 67 4T-8 39L11 149Q26 141 42 134T77 120T120 110T173 106Q220 106 238 120T257 159Q257 179 247 189T204 211L164 225Q110 244 81 276T51 369Q51 463 105 511T257 559Q292
559 318 555T364 545T400 532T427 517L407 410Q384 420 347 431T263 443Q219 443 203 430T187 394Q187 373 199 363T241 342L280 328Q344 306 371 272T399 181Q399 90 345 40T181 -10ZM368 806H472L538 720L625 806H737L584 621H466L368 806Z" />
<glyph unicode="&#x162;" glyph-name="Tcommaaccent" horiz-adv-x="570" d="M155 -67H300L230 -242H119L155 -67ZM262 590H81L104 721H627L604 590H423L319 0H158L262 590Z" />
<glyph unicode="&#x163;" glyph-name="tcommaaccent" horiz-adv-x="387" d="M361 -67H506L436 -242H325L361 -67ZM216 -8Q145 -8 106 20T66 111Q66 121 67 131T70 154L119 434H49L69 548H139L162 678H311L288 548H405L385 434H268L223 173Q216 138 227 123T276
107Q291 107 308 110T339 116L321 17Q305 8 277 0T216 -8Z" />
<glyph unicode="&#x164;" glyph-name="Tcaron" horiz-adv-x="570" d="M262 590H81L104 721H627L604 590H423L319 0H158L262 590ZM431 788H316L219 957H324L389 886L478 957H587L431 788Z" />
<glyph unicode="&#x165;" glyph-name="tcaron" horiz-adv-x="387" d="M216 -8Q145 -8 106 20T66 111Q66 121 67 131T70 154L119 434H49L69 548H139L162 678H311L288 548H405L385 434H268L223 173Q216 138 227 123T276 107Q291 107 308 110T339 116L321 17Q305
8 277 0T216 -8ZM376 769H510L452 598H343L376 769Z" />
<glyph unicode="&#x166;" glyph-name="Tbar" horiz-adv-x="570" d="M523 364H79L98 464H542L523 364ZM262 590H81L104 721H627L604 590H423L319 0H158L262 590Z" />
<glyph unicode="&#x167;" glyph-name="tbar" horiz-adv-x="387" d="M372 370L355 276H18L35 370H372ZM216 -8Q145 -8 106 20T66 111Q66 121 67 131T70 154L119 434H49L69 548H139L162 678H311L288 548H405L385 434H268L223 173Q216 138 227 123T276 107Q291 107
308 110T339 116L321 17Q305 8 277 0T216 -8Z" />
<glyph unicode="&#x168;" glyph-name="Utilde" horiz-adv-x="691" d="M331 -11Q191 -11 125 43T58 198Q58 229 64 264L145 721H307L226 259Q223 245 222 233T221 210Q221 160 247 136T334 112Q363 112 386 117T428 138T458 178T478 242L562 721H707L620 226Q608
161 585 116T525 43T441 2T331 -11ZM260 790Q266 830 280 858T313 905T354 931T401 939Q421 939 438 933T469 920T497 907T522 901Q557 901 566 939H660Q654 899 640 871T606 824T564 798T519 790Q499 790 482 796T451 809T424 822T399 828Q364 828 355 790H260V790Z"
/>
<glyph unicode="&#x169;" glyph-name="utilde" horiz-adv-x="561" d="M156 -11Q95 -11 62 20T29 111Q29 122 30 133T33 155L101 548H251L186 181Q183 164 183 153Q183 130 194 120T234 110Q266 110 289 120T336 145L406 548H555L459 0H338L336 71H331Q290 33 249
11T156 -11ZM166 627Q179 706 217 739T300 773Q319 773 336 767T367 754T395 741T419 735Q449 735 460 773H556Q549 733 535 706T503 661T464 635T421 627Q401 627 385 633T354 646T327 659T303 665Q272 665 261 627H166V627Z" />
<glyph unicode="&#x16a;" glyph-name="Umacron" horiz-adv-x="691" d="M331 -11Q191 -11 125 43T58 198Q58 229 64 264L145 721H307L226 259Q223 245 222 233T221 210Q221 160 247 136T334 112Q363 112 386 117T428 138T458 178T478 242L562 721H707L620 226Q608
161 585 116T525 43T441 2T331 -11ZM300 908H627L609 805H281L300 908Z" />
<glyph unicode="&#x16b;" glyph-name="umacron" horiz-adv-x="561" d="M156 -11Q95 -11 62 20T29 111Q29 122 30 133T33 155L101 548H251L186 181Q183 164 183 153Q183 130 194 120T234 110Q266 110 289 120T336 145L406 548H555L459 0H338L336 71H331Q290 33
249 11T156 -11ZM214 752H514L495 645H195L214 752Z" />
<glyph unicode="&#x16c;" glyph-name="Ubreve" horiz-adv-x="691" d="M331 -11Q191 -11 125 43T58 198Q58 229 64 264L145 721H307L226 259Q223 245 222 233T221 210Q221 160 247 136T334 112Q363 112 386 117T428 138T458 178T478 242L562 721H707L620 226Q608
161 585 116T525 43T441 2T331 -11ZM452 781Q376 781 333 826T290 949H393Q395 919 410 902T457 885Q489 885 505 902T527 949H630Q624 871 577 826T452 781Z" />
<glyph unicode="&#x16d;" glyph-name="ubreve" horiz-adv-x="561" d="M156 -11Q95 -11 62 20T29 111Q29 122 30 133T33 155L101 548H251L186 181Q183 164 183 153Q183 130 194 120T234 110Q266 110 289 120T336 145L406 548H555L459 0H338L336 71H331Q290 33 249
11T156 -11ZM347 616Q278 616 234 660T189 794H291Q292 754 310 738T354 721Q380 721 399 737T425 794H527Q520 706 471 661T347 616Z" />
<glyph unicode="&#x16e;" glyph-name="Uring" horiz-adv-x="691" d="M331 -11Q191 -11 125 43T58 198Q58 229 64 264L145 721H307L226 259Q223 245 222 233T221 210Q221 160 247 136T334 112Q363 112 386 117T428 138T458 178T478 242L562 721H707L620 226Q608
161 585 116T525 43T441 2T331 -11ZM451 1085Q472 1085 486 1098T501 1135Q501 1158 489 1171T455 1184Q432 1184 418 1170T404 1133Q404 1111 416 1098T451 1085ZM449 1014Q394 1014 360 1047T326 1131Q326 1157 336 1179T364 1219T406 1245T457 1255Q484 1255
506 1246T544 1222T569 1184T578 1137Q578 1111 568 1089T541 1050T500 1024T449 1014Z" />
<glyph unicode="&#x16f;" glyph-name="uring" horiz-adv-x="561" d="M156 -11Q95 -11 62 20T29 111Q29 122 30 133T33 155L101 548H251L186 181Q183 164 183 153Q183 130 194 120T234 110Q266 110 289 120T336 145L406 548H555L459 0H338L336 71H331Q290 33 249
11T156 -11ZM353 684Q375 684 389 698T403 735Q403 758 391 771T357 784Q335 784 321 770T306 733Q306 710 318 697T353 684ZM351 614Q297 614 263 647T229 732Q229 757 239 779T266 818T307 845T359 855Q386 855 408 846T447 821T472 784T481 737Q481 711 471
689T443 650T402 624T351 614Z" />
<glyph unicode="&#x170;" glyph-name="Uhungarumlaut" horiz-adv-x="691" d="M331 -11Q191 -11 125 43T58 198Q58 229 64 264L145 721H307L226 259Q223 245 222 233T221 210Q221 160 247 136T334 112Q363 112 386 117T428 138T458 178T478 242L562 721H707L620
226Q608 161 585 116T525 43T441 2T331 -11ZM553 946H690L583 788H477L553 946ZM364 946H502L394 788H288L364 946Z" />
<glyph unicode="&#x171;" glyph-name="uhungarumlaut" horiz-adv-x="561" d="M156 -11Q95 -11 62 20T29 111Q29 122 30 133T33 155L101 548H251L186 181Q183 164 183 153Q183 130 194 120T234 110Q266 110 289 120T336 145L406 548H555L459 0H338L336 71H331Q290
33 249 11T156 -11ZM446 793H583L492 621H380L446 793ZM245 793H383L290 621H178L245 793Z" />
<glyph unicode="&#x172;" glyph-name="Uogonek" horiz-adv-x="691" d="M329 -213Q294 -213 272 -206T237 -186T219 -160T214 -131Q214 -110 222 -92T242 -59T270 -32T301 -11Q175 -6 116 48T56 198Q56 229 62 264L143 721H305L224 259Q221 245 220 233T219 210Q219
160 245 136T332 112Q361 112 384 117T426 138T456 178T476 242L560 721H705L618 226Q608 170 591 133T552 70T509 32T468 11Q426 -5 400 -19T358 -47T338 -73T332 -98Q332 -131 380 -131Q391 -131 402 -129T422 -125L409 -198Q395 -204 373 -208T329 -213Z" />
<glyph unicode="&#x173;" glyph-name="uogonek" horiz-adv-x="561" d="M336 0L334 71H329Q288 33 247 11T154 -11Q93 -11 60 20T27 111Q27 122 28 133T31 155L99 548H249L184 181Q181 164 181 153Q181 130 192 120T232 110Q264 110 287 120T334 145L404 548H553L458
7Q423 -19 400 -46T376 -98Q376 -131 424 -131Q435 -131 446 -129T466 -125L452 -198Q439 -204 417 -208T372 -213Q337 -213 315 -206T280 -186T262 -160T257 -131Q257 -106 268 -85T295 -48T331 -19T366 0H336Z" />
<glyph unicode="&#x174;" glyph-name="Wcircumflex" horiz-adv-x="907" d="M96 721H251L257 448Q258 417 257 380T254 305T250 232T245 168T242 123T240 104H243Q259 164 277 224Q292 275 310 332T347 435L465 721H613L631 447Q633 417 633 381T631 307T628 233T624
169T621 123T619 104H622Q637 165 655 227Q670 279 688 338T725 446L827 721H970L683 0H519L505 280Q503 321 504 374T508 476Q511 532 515 592H512Q497 537 480 483Q466 437 449 386T414 293L294 0H130L96 721ZM510 957H627L726 788H620L553 858L469 788H360L510
957Z" />
<glyph unicode="&#x175;" glyph-name="wcircumflex" horiz-adv-x="759" d="M62 548H205L214 382Q216 347 215 299T211 207T205 132T202 98H206Q219 151 234 202Q247 246 262 293T292 374L368 548H497L512 383Q515 350 515 304T514 213T511 136T509 98H513Q525
151 539 201Q550 244 564 291T593 374L663 548H795L564 0H422L405 192Q404 209 404 229T403 269Q403 299 403 329T406 385Q408 414 410 442H407Q396 398 385 355Q375 318 362 276T334 200L247 0H103L62 548ZM409 806H526L622 621H518L454 704L365 621H253L409 806Z"
/>
<glyph unicode="&#x176;" glyph-name="Ycircumflex" horiz-adv-x="610" d="M229 283L90 721H255L293 583Q301 551 308 515T320 447Q325 410 329 374H332Q347 410 365 446Q380 477 398 513T437 581L524 721H681L389 276L340 0H178L229 283ZM365 957H482L581 788H475L408
858L324 788H215L365 957Z" />
<glyph unicode="&#x177;" glyph-name="ycircumflex" horiz-adv-x="545" d="M53 -206Q22 -206 -5 -199T-47 -184L-28 -82Q-17 -87 1 -89T34 -91Q75 -91 96 -76T137 -25L159 16L64 548H217L242 372Q247 337 248 292T250 207T250 138T249 106H252Q267 153 284 200Q298
240 315 284T349 364L434 548H581L275 -57Q255 -96 233 -124T183 -171T124 -197T53 -206ZM305 806H422L518 621H414L350 704L261 621H149L305 806Z" />
<glyph unicode="&#x178;" glyph-name="Ydieresis" horiz-adv-x="610" d="M229 283L90 721H255L293 583Q301 551 308 515T320 447Q325 410 329 374H332Q347 410 365 446Q380 477 398 513T437 581L524 721H681L389 276L340 0H178L229 283ZM454 918H596L573 793H432L454
918ZM236 918H377L354 793H213L236 918Z" />
<glyph unicode="&#x179;" glyph-name="Zacute" horiz-adv-x="571" d="M8 120L279 447Q301 473 325 499T371 545Q396 569 420 591V594H112L135 721H611L590 601L324 281Q301 252 275 225T227 177Q201 152 177 130V127H501L479 0H-13L8 120ZM434 788H306L406 950H567L434
788Z" />
<glyph unicode="&#x17a;" glyph-name="zacute" horiz-adv-x="471" d="M3 110L201 331Q220 351 240 369T277 402Q296 419 315 433V436H70L90 548H492L475 446L271 219Q254 199 234 181T196 148Q176 130 155 115V112H413L393 0H-17L3 110ZM577 791H736L607 621H478L577
791Z" />
<glyph unicode="&#x17b;" glyph-name="Zdotaccent" horiz-adv-x="571" d="M8 120L279 447Q301 473 325 499T371 545Q396 569 420 591V594H112L135 721H611L590 601L324 281Q301 252 275 225T227 177Q201 152 177 130V127H501L479 0H-13L8 120ZM326 922H479L457
794H303L326 922Z" />
<glyph unicode="&#x17c;" glyph-name="zdotaccent" horiz-adv-x="471" d="M3 110L201 331Q220 351 240 369T277 402Q296 419 315 433V436H70L90 548H492L475 446L271 219Q254 199 234 181T196 148Q176 130 155 115V112H413L393 0H-17L3 110ZM503 768H653L630 636H480L503
768Z" />
<glyph unicode="&#x17d;" glyph-name="Zcaron" horiz-adv-x="571" d="M8 120L279 447Q301 473 325 499T371 545Q396 569 420 591V594H112L135 721H611L590 601L324 281Q301 252 275 225T227 177Q201 152 177 130V127H501L479 0H-13L8 120ZM437 788H322L225 957H330L395
886L484 957H593L437 788Z" />
<glyph unicode="&#x17e;" glyph-name="zcaron" horiz-adv-x="471" d="M3 110L201 331Q220 351 240 369T277 402Q296 419 315 433V436H70L90 548H492L475 446L271 219Q254 199 234 181T196 148Q176 130 155 115V112H413L393 0H-17L3 110ZM395 806H499L565 720L652
806H764L611 621H493L395 806Z" />
<glyph unicode="&#x192;" glyph-name="florin" horiz-adv-x="454" d="M67 437H141L164 550Q185 652 238 692T375 733Q416 733 441 727T484 713L466 609Q453 612 443 614T415 616Q377 616 353 599T319 533L301 437H420L399 320H278L213 -15Q195 -108 145 -149T13
-190Q-25 -190 -50 -184T-89 -171L-71 -68Q-63 -70 -53 -72T-29 -75Q0 -75 22 -59T52 -5L117 320H46L67 437Z" />
<glyph unicode="&#x1fa;" glyph-name="Aringacute" horiz-adv-x="674" d="M333 721H504L611 0H447L428 152H190L118 0H-31L333 721ZM240 260H415L401 377Q396 414 394 455T391 532Q390 573 391 614H387Q375 576 361 536Q349 502 333 462T300 385L240 260ZM506
1034H378L478 1196H639L506 1034ZM431 1088Q452 1088 466 1101T481 1138Q481 1161 469 1174T435 1187Q412 1187 398 1173T384 1136Q384 1114 396 1101T431 1088ZM429 1017Q374 1017 340 1050T306 1134Q306 1160 316 1182T344 1222T386 1248T437 1258Q464 1258 486
1249T524 1225T549 1187T558 1140Q558 1114 548 1092T521 1053T480 1027T429 1017Z" />
<glyph unicode="&#x1fb;" glyph-name="aringacute" horiz-adv-x="515" d="M580 930Q602 930 616 944T630 981Q630 1004 618 1017T584 1030Q562 1030 548 1016T533 979Q533 956 545 943T580 930ZM578 860Q524 860 490 893T456 978Q456 1003 466 1025T493 1064T534
1091T586 1101Q613 1101 635 1092T674 1067T699 1030T708 983Q708 957 698 935T670 896T629 870T578 860ZM285 61Q262 30 231 10T148 -10Q84 -10 43 24T1 130Q1 179 16 212T60 266T127 298T212 314L323 326L327 348Q335 394 314 414T232 435Q191 435 154 429T89
414L108 521Q140 537 181 547T283 558Q335 558 375 545T440 505T475 440T476 349L414 0H293L291 61H285ZM204 84Q230 84 250 95T288 126V127L308 242L229 236Q187 232 168 211T148 147Q148 117 162 101T204 84ZM666 878H538L638 1040H799L666 878Z" />
<glyph unicode="&#x1fc;" glyph-name="AEacute" horiz-adv-x="929" d="M746 788H618L718 950H879L746 788ZM452 721H945L922 590H654L626 431H838L817 307H604L573 131H860L837 0H390L418 157H216L114 0H-39L452 721ZM287 264H437L461 401Q467 435 474 473T489
546Q497 585 506 624H502Q483 588 464 551Q447 519 427 482T385 413L287 264Z" />
<glyph unicode="&#x1fd;" glyph-name="aeacute" horiz-adv-x="805" d="M146 -10Q82 -10 43 27T3 132Q3 180 18 212T62 266T129 298T214 314L315 325L320 353Q323 366 323 377Q323 410 298 422T221 435Q181 435 152 431T93 419L112 527Q152 542 191 550T284 559Q335
559 371 544T426 497Q485 559 586 559Q689 559 737 511T786 370Q786 351 785 330T778 284L768 229H450Q448 222 448 216T448 203Q448 149 480 128T593 106Q631 106 662 112T730 129L712 26Q678 10 639 0T550 -10Q465 -10 411 13T329 77Q293 34 250 12T146 -10ZM639
326Q645 356 645 377Q645 415 628 433T573 451Q555 451 539 447T508 429T482 391T462 326H639ZM305 134Q297 166 297 198Q297 218 300 241L232 236Q190 231 170 211T150 149Q150 117 165 102T206 87Q238 87 261 100T305 134ZM493 791H652L523 621H394L493 791Z"
/>
<glyph unicode="&#x1fe;" glyph-name="Oslashacute" horiz-adv-x="700" d="M331 -12Q232 -12 165 27L96 -62H-21L95 87Q44 155 44 255Q44 299 53 352L65 421Q81 510 114 569T194 665T295 716T410 732Q504 732 569 694L622 762H740L640 633Q664 601 677 560T690
468Q690 445 688 420T680 368L668 298Q653 209 620 150T541 54T442 3T331 -12ZM199 220L490 593Q457 615 401 615Q323 615 283 568T225 419L210 337Q205 308 202 284T199 237V220ZM333 106Q408 106 449 154T509 304L524 386Q529 415 531 439T534 486V498L243 126Q273
106 333 106ZM482 788H354L454 950H615L482 788Z" />
<glyph unicode="&#x1ff;" glyph-name="oslashacute" horiz-adv-x="561" d="M258 -10Q220 -10 188 -3T130 16L71 -60H-32L67 66Q26 119 26 198Q26 231 32 266L41 317Q52 381 77 426T137 501T217 545T312 559Q383 559 435 534L481 592H583L498 484Q518 458 528 425T538
354Q538 336 537 318T531 280L523 229Q512 165 488 120T430 46T353 4T258 -10ZM171 254Q168 236 166 219T163 188L364 444Q343 454 308 454Q258 454 226 423T181 312L171 254ZM257 95Q282 95 302 101T337 123T364 166T382 234L392 292Q395 310 397 328T401 360L200
105Q211 99 225 97T257 95ZM367 791H526L397 621H268L367 791Z" />
<glyph unicode="&#x218;" glyph-name="Scommaaccent" horiz-adv-x="524" d="M136 -67H281L211 -242H100L136 -67ZM219 -11Q136 -11 84 9T0 53L23 181Q43 170 63 160T107 141T156 127T216 121Q271 121 300 143T329 211Q329 237 315 256T258 293L201 317Q139 343
107 385T75 500Q75 551 90 593T138 667T219 715T334 732Q373 732 403 727T456 714T495 697T525 678L503 551Q472 568 431 584T329 600Q284 600 256 582T228 522Q228 496 241 478T293 444L350 419Q384 405 410 388T453 349T480 300T489 236Q489 122 419 56T219 -11Z"
/>
<glyph unicode="&#x219;" glyph-name="scommaaccent" horiz-adv-x="442" d="M353 -67H498L428 -242H317L353 -67ZM181 -10Q113 -10 67 4T-8 39L11 149Q26 141 42 134T77 120T120 110T173 106Q220 106 238 120T257 159Q257 179 247 189T204 211L164 225Q110 244
81 276T51 369Q51 463 105 511T257 559Q292 559 318 555T364 545T400 532T427 517L407 410Q384 420 347 431T263 443Q219 443 203 430T187 394Q187 373 199 363T241 342L280 328Q344 306 371 272T399 181Q399 90 345 40T181 -10Z" />
<glyph unicode="&#x21a;" glyph-name="uni021A" horiz-adv-x="570" d="M155 -67H300L230 -242H119L155 -67ZM262 590H81L104 721H627L604 590H423L319 0H158L262 590Z" />
<glyph unicode="&#x21b;" glyph-name="uni021B" horiz-adv-x="387" d="M361 -67H506L436 -242H325L361 -67ZM216 -8Q145 -8 106 20T66 111Q66 121 67 131T70 154L119 434H49L69 548H139L162 678H311L288 548H405L385 434H268L223 173Q216 138 227 123T276 107Q291
107 308 110T339 116L321 17Q305 8 277 0T216 -8Z" />
<glyph unicode="&#x237;" glyph-name="uni0237" horiz-adv-x="266" d="M-34 -206Q-80 -206 -103 -199T-141 -182L-123 -84Q-114 -87 -103 -89T-74 -92Q-42 -92 -22 -76T4 -28L105 548H255L150 -50Q136 -125 91 -165T-34 -206Z" />
<glyph unicode="&#x2c6;" glyph-name="circumflex" horiz-adv-x="504" d="M283 806H400L496 621H392L328 704L239 621H127L283 806Z" />
<glyph unicode="&#x2c7;" glyph-name="caron" horiz-adv-x="504" d="M161 806H265L331 720L418 806H530L377 621H259L161 806Z" />
<glyph unicode="&#x2d8;" glyph-name="breve" horiz-adv-x="504" d="M333 616Q264 616 220 660T175 794H277Q278 754 296 738T340 721Q366 721 385 737T411 794H513Q506 706 457 661T333 616Z" />
<glyph unicode="&#x2d9;" glyph-name="dotaccent" horiz-adv-x="504" d="M263 768H413L390 636H240L263 768Z" />
<glyph unicode="&#x2da;" glyph-name="ring" horiz-adv-x="504" d="M329 684Q351 684 365 698T379 735Q379 758 367 771T333 784Q311 784 297 770T282 733Q282 710 294 697T329 684ZM327 614Q273 614 239 647T205 732Q205 757 215 779T242 818T283 845T335 855Q362
855 384 846T423 821T448 784T457 737Q457 711 447 689T419 650T378 624T327 614Z" />
<glyph unicode="&#x2db;" glyph-name="ogonek" horiz-adv-x="504" d="M194 -213Q159 -213 137 -206T102 -186T84 -160T79 -131Q79 -106 90 -85T117 -48T153 -19T188 0H271Q241 -24 220 -49T198 -98Q198 -131 246 -131Q257 -131 268 -129T288 -125L274 -198Q261
-204 239 -208T194 -213Z" />
<glyph unicode="&#x2dc;" glyph-name="tilde" horiz-adv-x="504" d="M132 627Q145 706 183 739T266 773Q285 773 302 767T333 754T361 741T385 735Q415 735 426 773H522Q515 733 501 706T469 661T430 635T387 627Q367 627 351 633T320 646T293 659T269 665Q238
665 227 627H132V627Z" />
<glyph unicode="&#x2dd;" glyph-name="hungarumlaut" horiz-adv-x="504" d="M418 793H555L464 621H352L418 793ZM217 793H355L262 621H150L217 793Z" />
</font>
</defs>
</svg>
