<svg xmlns="http://www.w3.org/2000/svg" width="364" height="78" viewBox="0 0 364 78">
  <path d="M53.5609756,40.777475 L57.7268293,38.7090524 L57.7268293,6.79624584 L54.7512195,6.79624584 L47.3121951,16.8428701 L46.4195122,16.8428701 L47.0146341,5.61429004 L80.0439024,5.61429004 L80.6390244,16.8428701 L79.7463415,16.8428701 L72.3073171,6.79624584 L68.4390244,6.79624584 L68.4390244,38.7090524 L72.604878,40.777475 L72.604878,41.9594308 L53.5609756,41.9594308 L53.5609756,40.777475 Z M83.3170732,39.5955192 L83.3170732,4.13684529 L80.0439024,2.95488949 L80.0439024,2.06842265 L91.6487805,0 L92.8390244,0 L92.8390244,16.8428701 L93.1365854,16.5473812 C95.8146341,14.4789585 99.3853659,13.0015138 102.956098,13.0015138 C108.014634,13.0015138 110.097561,15.9564033 110.097561,20.9797154 L110.097561,39.5955192 L112.77561,41.072964 L112.77561,42.2549198 L97.6,42.2549198 L97.6,41.072964 L100.278049,39.5955192 L100.278049,20.9797154 C100.278049,18.0248259 99.0878049,16.8428701 96.7073171,16.8428701 C95.2195122,16.8428701 93.7317073,17.433848 92.8390244,18.0248259 L92.8390244,39.3000303 L95.5170732,40.777475 L95.5170732,41.6639419 L80.3414634,41.6639419 L80.3414634,40.777475 L83.3170732,39.5955192 Z M121.107317,28.6624281 C121.404878,34.5722071 124.082927,39.0045413 130.331707,39.0045413 C133.307317,39.0045413 135.390244,37.5270966 137.473171,36.6406297 L137.473171,37.8225855 C135.985366,39.8910082 131.819512,42.8458977 126.463415,42.8458977 C116.643902,42.8458977 111.882927,37.5270966 111.882927,28.0714502 C111.882927,18.9112928 117.239024,13.2970027 126.165854,13.2970027 C134.497561,13.2970027 138.663415,17.433848 138.663415,28.0714502 L138.663415,28.3669391 L121.107317,28.3669391 L121.107317,28.6624281 Z M121.107317,27.1849833 L129.439024,26.5940054 C129.439024,19.2067817 128.24878,14.4789585 125.570732,14.4789585 C123.190244,14.4789585 121.107317,20.0932486 121.107317,27.1849833 Z M0,56.1429004 C0,40.777475 10.4146341,35.163185 21.7219512,35.163185 C26.4829268,35.163185 31.2439024,36.0496518 33.6243902,36.9361187 L33.9219512,47.8692098 L32.7317073,47.8692098 L25.8878049,37.5270966 C24.697561,36.9361187 23.5073171,36.9361187 21.7219512,36.9361187 C15.4731707,36.9361187 12.497561,44.0278535 12.497561,55.5519225 C12.497561,69.1444142 14.8780488,75.6451711 20.5317073,75.6451711 C22.0195122,75.6451711 23.2097561,75.3496821 23.804878,75.0541932 L23.804878,60.2797457 L20.2341463,58.211323 L20.2341463,57.0293672 L38.0878049,57.0293672 L38.0878049,58.211323 L34.5170732,60.2797457 L34.5170732,74.7587042 C31.8390244,75.6451711 26.7804878,76.8271269 21.4243902,76.8271269 C8.33170732,76.8271269 0,70.6218589 0,56.1429004 Z M36.897561,49.0511656 L36.897561,48.1646988 L48.8,46.0962761 L49.9902439,46.0962761 L49.9902439,69.7353921 C49.9902439,72.6902816 51.4780488,73.5767484 53.5609756,73.5767484 C55.0487805,73.5767484 56.2390244,72.9857705 57.4292683,71.8038147 L57.4292683,50.8240993 L54.1560976,49.3466546 L54.1560976,48.4601877 L66.0585366,46.3917651 L67.2487805,46.3917651 L67.2487805,73.2812595 L70.5219512,74.7587042 L70.5219512,75.6451711 L58.6195122,77.1226158 L57.4292683,77.1226158 L57.4292683,73.5767484 L57.1317073,73.5767484 C55.0487805,75.6451711 51.7756098,77.4181048 48.204878,77.4181048 C42.5512195,77.4181048 39.8731707,74.1677263 39.8731707,68.8489252 L39.8731707,51.1195883 L36.897561,49.0511656 Z M112.180488,45.8007872 L113.073171,45.8007872 L113.073171,54.3699667 L113.370732,54.3699667 C114.560976,47.8692098 117.536585,45.5052982 120.809756,45.5052982 C121.404878,45.5052982 122,45.5052982 122.297561,45.8007872 L122.297561,54.6654556 C121.702439,54.3699667 120.809756,54.3699667 119.917073,54.3699667 C117.239024,54.3699667 115.156098,54.9609446 113.370732,55.5519225 L113.370732,72.6902816 L116.04878,74.1677263 L116.04878,75.3496821 L100.57561,75.3496821 L100.57561,74.1677263 L103.253659,72.6902816 L103.253659,49.3466546 L99.9804878,48.4601877 L99.9804878,47.5737209 L112.180488,45.8007872 Z M142.234146,46.687254 L142.234146,37.5270966 L138.960976,36.3451408 L138.960976,35.7541629 L151.160976,33.6857402 L152.35122,33.9812292 L152.35122,73.2812595 L155.62439,74.4632153 L155.62439,75.3496821 L143.721951,76.8271269 L142.829268,76.8271269 L142.829268,73.5767484 L142.531707,73.5767484 C140.746341,75.3496821 138.365854,76.8271269 134.497561,76.8271269 C127.95122,76.8271269 123.190244,71.8038147 123.190244,61.7571904 C123.190244,51.1195883 128.843902,45.8007872 137.17561,45.8007872 C139.556098,45.8007872 141.341463,46.0962761 142.234146,46.687254 Z M142.234146,71.8038147 L142.234146,48.1646988 C141.341463,47.5737209 141.043902,46.982743 138.960976,47.2782319 C135.687805,47.2782319 133.604878,52.3015441 133.604878,60.8707236 C133.604878,68.5534363 135.092683,72.9857705 139.258537,72.9857705 C140.746341,72.9857705 141.639024,72.3947926 142.234146,71.8038147 Z M168.717073,45.8007872 L169.907317,45.8007872 L169.907317,73.2812595 L172.585366,74.7587042 L172.585366,75.94066 L157.112195,75.94066 L157.112195,74.7587042 L159.790244,73.2812595 L159.790244,50.2331214 L156.517073,49.0511656 L156.517073,48.1646988 L168.717073,45.8007872 Z M169.907317,38.4135634 C169.907317,41.3684529 167.526829,43.4368756 164.55122,43.4368756 C161.57561,43.4368756 159.195122,41.3684529 159.195122,38.4135634 C159.195122,35.4586739 161.57561,33.3902513 164.55122,33.3902513 C167.526829,33.3902513 169.907317,35.7541629 169.907317,38.4135634 Z M205.019512,73.2812595 L205.019512,50.2331214 L201.746341,49.0511656 L201.746341,47.8692098 L213.64878,45.8007872 L214.839024,45.8007872 L214.839024,49.3466546 L215.136585,49.3466546 C217.814634,46.982743 221.682927,45.5052982 225.253659,45.5052982 C230.609756,45.5052982 232.692683,47.8692098 232.692683,53.4834998 L232.692683,73.5767484 L235.370732,75.0541932 L235.370732,76.236149 L219.897561,76.236149 L219.897561,75.0541932 L222.57561,73.5767484 L222.57561,54.0744777 C222.57561,51.1195883 221.385366,49.9376325 218.707317,49.9376325 C217.219512,49.9376325 215.731707,50.2331214 214.541463,51.1195883 L214.541463,73.5767484 L217.219512,75.0541932 L217.219512,76.236149 L201.746341,76.236149 L201.746341,75.0541932 L205.019512,73.2812595 Z M188.058537,58.8023009 L188.058537,54.9609446 C188.058537,49.0511656 186.868293,47.2782319 183,47.2782319 C182.702439,47.2782319 182.107317,47.2782319 181.809756,47.2782319 L175.263415,56.1429004 L174.370732,56.1429004 L174.370732,48.1646988 C177.04878,47.2782319 180.619512,46.3917651 185.380488,46.3917651 C193.414634,46.3917651 197.878049,48.4601877 197.878049,55.2564335 L197.878049,73.8722374 L200.853659,74.7587042 L200.853659,75.6451711 C199.663415,76.236149 197.580488,77.1226158 194.902439,77.1226158 C191.034146,77.1226158 188.95122,75.94066 188.356098,73.5767484 L188.058537,73.5767484 C186.273171,75.94066 183.892683,77.1226158 180.321951,77.1226158 C175.560976,77.1226158 172.287805,74.1677263 172.287805,69.1444142 C172.287805,64.121102 175.263415,61.4617015 181.512195,60.2797457 L188.058537,58.8023009 Z M188.058537,71.8038147 L188.058537,59.9842567 L185.97561,60.2797457 C182.702439,60.5752346 181.809756,62.6436573 181.809756,66.7805026 C181.809756,71.5083258 183.297561,72.6902816 185.678049,72.6902816 C186.570732,72.9857705 187.463415,72.6902816 188.058537,71.8038147 Z M86.8878049,58.8023009 L86.8878049,54.9609446 C86.8878049,49.0511656 85.697561,47.2782319 81.8292683,47.2782319 C81.5317073,47.2782319 80.9365854,47.2782319 80.6390244,47.2782319 L74.0926829,56.1429004 L73.2,56.1429004 L73.2,48.1646988 C75.8780488,47.2782319 79.4487805,46.3917651 84.2097561,46.3917651 C92.2439024,46.3917651 96.7073171,48.4601877 96.7073171,55.2564335 L96.7073171,73.8722374 L99.6829268,74.7587042 L99.6829268,75.6451711 C98.4926829,76.236149 96.4097561,77.1226158 93.7317073,77.1226158 C89.8634146,77.1226158 87.7804878,75.94066 87.1853659,73.5767484 L86.8878049,73.5767484 C85.102439,75.94066 82.7219512,77.1226158 79.1512195,77.1226158 C74.3902439,77.1226158 71.1170732,74.1677263 71.1170732,69.1444142 C71.1170732,64.121102 74.0926829,61.4617015 80.3414634,60.2797457 L86.8878049,58.8023009 Z M86.8878049,71.8038147 L86.8878049,59.9842567 L84.804878,60.2797457 C81.5317073,60.5752346 80.6390244,62.6436573 80.6390244,66.7805026 C80.6390244,71.5083258 82.1268293,72.6902816 84.5073171,72.6902816 C85.697561,72.9857705 86.2926829,72.6902816 86.8878049,71.8038147 Z M246.082927,75.0541932 L249.653659,74.1677263 L249.653659,38.4135634 L246.082927,37.5270966 L246.082927,36.6406297 L265.42439,36.6406297 L265.42439,37.5270966 L261.556098,38.4135634 L261.556098,75.0541932 L267.804878,75.0541932 L276.731707,61.1662125 L277.62439,61.1662125 L277.029268,76.236149 L246.082927,76.236149 L246.082927,75.0541932 Z M295.180488,58.506812 L295.180488,54.6654556 C295.180488,48.7556767 293.990244,46.687254 290.419512,46.687254 C290.121951,46.687254 289.82439,46.687254 289.229268,46.687254 L281.790244,56.7338783 L280.897561,56.7338783 L281.195122,47.5737209 C284.170732,46.687254 287.741463,45.8007872 292.204878,45.8007872 C300.239024,45.8007872 305,48.1646988 305,54.6654556 L305,73.8722374 L307.97561,74.7587042 L307.97561,75.6451711 C306.785366,76.236149 304.404878,77.1226158 302.02439,77.1226158 C298.156098,77.1226158 296.073171,75.94066 295.180488,73.5767484 L294.882927,73.5767484 C293.097561,75.94066 290.717073,77.1226158 286.84878,77.1226158 C282.087805,77.1226158 278.814634,74.1677263 278.814634,68.8489252 C278.814634,63.8256131 282.087805,61.1662125 288.336585,59.9842567 L295.180488,58.506812 Z M295.180488,71.8038147 L295.180488,59.6887678 L293.097561,59.9842567 C289.82439,60.2797457 288.634146,62.3481683 288.634146,66.7805026 C288.634146,71.5083258 290.121951,72.9857705 292.502439,72.9857705 C293.990244,72.9857705 294.585366,72.3947926 295.180488,71.8038147 Z M338.921951,60.2797457 C338.921951,71.8038147 332.37561,76.8271269 322.556098,76.8271269 C317.497561,76.8271269 312.439024,75.6451711 309.760976,74.1677263 L309.760976,36.9361187 L306.487805,35.7541629 L306.487805,34.867696 L318.390244,33.0947623 L319.580488,33.3902513 L319.580488,49.3466546 L319.878049,49.3466546 C321.365854,47.5737209 324.341463,45.5052982 328.507317,45.5052982 C334.458537,45.5052982 338.921951,49.3466546 338.921951,60.2797457 Z M328.507317,61.1662125 C328.507317,52.3015441 326.42439,49.6421435 323.15122,49.6421435 C321.960976,49.6421435 320.770732,49.9376325 319.878049,50.2331214 L319.878049,74.4632153 C320.770732,75.0541932 321.663415,75.6451711 323.15122,75.6451711 C326.42439,75.6451711 328.507317,72.0993037 328.507317,61.1662125 Z M363.619512,66.7805026 C363.619512,72.9857705 359.156098,76.5316379 351.419512,76.5316379 C347.84878,76.5316379 343.980488,76.236149 341.302439,75.0541932 L341.004878,66.1895247 L341.897561,66.1895247 L349.634146,75.3496821 C350.229268,75.6451711 350.82439,75.6451711 351.419512,75.6451711 C354.692683,75.6451711 356.180488,73.8722374 356.180488,71.2128368 C356.180488,68.8489252 354.990244,67.9624584 351.419512,66.1895247 L349.634146,65.3030578 C344.278049,62.6436573 341.004878,59.9842567 341.004878,54.9609446 C341.004878,48.7556767 345.170732,45.2098093 352.609756,45.2098093 C355.585366,45.2098093 358.858537,45.5052982 361.536585,46.0962761 L361.834146,54.3699667 L360.941463,54.3699667 L354.990244,46.3917651 C354.395122,46.0962761 353.8,46.0962761 353.204878,46.0962761 C350.229268,46.0962761 349.039024,47.8692098 349.039024,50.2331214 C349.039024,52.8925219 350.229268,53.7789888 354.097561,55.5519225 L355.882927,56.4383893 C360.643902,59.0977899 363.619512,61.4617015 363.619512,66.7805026 Z"/>
</svg>
