<svg aria-hidden="true" class="icon icon--guardian-labs-logo" x="0px" y="0px" width="88.9px" height="47px" viewBox="0 0 88.9 47">	<g>					<path d="M20.2,15.6l1.5-0.8V2.6h-1.2l-2.9,3.8h-0.3l0.2-4.2H30l0.2,4.2h-0.3l-2.8-3.8h-1.2v12.2l1.6,0.8V16h-7.2V15.6z"></path>					<path d="M31.4,15V1.5L30.2,1V0.8L34.6,0H35v6.4l0.1-0.1c1-0.8,2.3-1.4,3.7-1.4c1.9,0,2.7,1.1,2.7,3.1v7l1,0.6l0,0.4h-5.7v-0.4						l1-0.6V8c0-1.1-0.5-1.5-1.4-1.5c-0.6,0-1.1,0.2-1.5,0.5V15l1,0.6V16h-5.7v-0.4L31.4,15z"></path>					<path d="M45.7,10.9c0.1,2.2,1.1,4,3.5,4c1.1,0,2-0.5,2.7-0.9v0.4c-0.6,0.8-2.1,1.9-4.2,1.9c-3.7,0-5.5-2-5.5-5.6						c0-3.5,2.1-5.6,5.4-5.6c3.1,0,4.7,1.6,4.7,5.7v0.1H45.7z M45.7,10.4l3.2-0.2c0-2.8-0.5-4.6-1.4-4.6C46.5,5.6,45.7,7.7,45.7,10.4						z"></path>					<path d="M0,21.4c0-5.9,3.9-8,8.2-8c1.8,0,3.6,0.3,4.5,0.7l0.1,4.1h-0.4l-2.5-4C9.5,14,9,14,8.3,14c-2.3,0-3.5,2.7-3.4,7						c0,5.2,1,7.6,3.1,7.6c0.5,0,1-0.1,1.3-0.2v-5.6L7.8,22v-0.5h6.7V22l-1.4,0.8v5.5c-1.1,0.4-3.1,0.9-5.1,0.9						C3.1,29.2,0,26.9,0,21.4z"></path>					<path d="M13.9,18.6v-0.3l4.5-0.8l0.5,0v8.9c0,1.1,0.5,1.4,1.4,1.4c0.6,0,1.1-0.2,1.5-0.7v-8l-1.2-0.5v-0.4l4.5-0.8l0.5,0v10.2						l1.2,0.5v0.3l-4.5,0.6l-0.5,0v-1.3h-0.1c-0.8,0.8-2,1.4-3.4,1.4c-2.2,0-3.2-1.3-3.2-3.2v-6.8L13.9,18.6z"></path>					<path d="M42.4,17.5l0.4,0l0,3.3h0.1c0.5-2.4,1.6-3.3,2.9-3.3c0.2,0,0.4,0,0.6,0.1v3.4c-0.2-0.1-0.6-0.1-0.9-0.1						c-1,0-1.8,0.2-2.5,0.5l0,6.5l1,0.6l0,0.4H38v-0.4l1.1-0.6V19l-1.2-0.4v-0.3L42.4,17.5z"></path>					<path d="M53.7,17.7v-3.5l-1.2-0.4v-0.3l4.6-0.8l0.4,0.1v15l1.3,0.5v0.4l-4.5,0.6l-0.4,0v-1.2h-0.1c-0.7,0.7-1.6,1.3-3,1.3						c-2.5,0-4.3-1.9-4.3-5.7c0-4.1,2.1-6.1,5.3-6.1C52.7,17.4,53.4,17.6,53.7,17.7z M53.7,27.3v-9c-0.3-0.2-0.5-0.4-1.3-0.4						c-1.2,0-2,1.9-2,5.2c0,3,0.5,4.6,2.2,4.6C53.1,27.7,53.5,27.6,53.7,27.3z"></path>					<path d="M63.7,17.5l0.4,0v10.4l1,0.6l0,0.4h-5.9v-0.4l1.1-0.6v-8.8l-1.3-0.5v-0.3L63.7,17.5z M64.1,14.6c0,1.1-0.9,1.9-2,1.9						c-1.1,0-2-0.8-2-1.9c0-1.1,0.9-1.9,2-1.9C63.2,12.7,64.1,13.5,64.1,14.6z"></path>					<path d="M77.3,27.9V19l-1.2-0.4v-0.4l4.5-0.8l0.5,0v1.3h0.1c1-0.9,2.4-1.4,3.9-1.4c2,0,2.8,0.9,2.8,3v7.6l1.1,0.6l0,0.4H83v-0.4						l1.1-0.6v-7.4c0-1.1-0.5-1.6-1.4-1.6c-0.6,0-1.1,0.2-1.6,0.5v8.5l1,0.6v0.4h-5.9v-0.4L77.3,27.9z"></path>					<path d="M70.9,22.3v-1.5c0-2.2-0.5-3-1.9-3c-0.2,0-0.3,0-0.5,0l-2.5,3.3h-0.3v-3.1c1.1-0.3,2.4-0.7,4.1-0.7c3,0,4.8,0.8,4.8,3.4						v7.2l1.1,0.3v0.3c-0.4,0.3-1.3,0.5-2.2,0.5c-1.5,0-2.2-0.5-2.5-1.3h-0.1c-0.6,0.9-1.5,1.3-2.9,1.3c-1.8,0-3-1.1-3-3.1						c0-1.9,1.2-2.9,3.5-3.3L70.9,22.3z M70.9,27.3v-4.5l-0.8,0.1c-1.2,0.1-1.6,0.9-1.6,2.5c0,1.8,0.6,2.3,1.4,2.3						C70.5,27.7,70.7,27.6,70.9,27.3z"></path>					<path d="M32.8,22.3v-1.5c0-2.2-0.5-3-1.9-3c-0.2,0-0.3,0-0.5,0L28,21.3h-0.3v-3.1c1.1-0.3,2.4-0.7,4.1-0.7c3,0,4.8,0.8,4.8,3.4						v7.2l1.1,0.3v0.3c-0.4,0.3-1.3,0.5-2.2,0.5c-1.5,0-2.2-0.5-2.5-1.3h-0.1c-0.6,0.9-1.5,1.3-2.9,1.3c-1.8,0-3-1.1-3-3.1						c0-1.9,1.2-2.9,3.5-3.3L32.8,22.3z M32.8,27.3v-4.5L32,22.9c-1.2,0.1-1.6,0.9-1.6,2.5c0,1.8,0.6,2.3,1.4,2.3						C32.3,27.7,32.6,27.6,32.8,27.3z"></path>	</g>	<g>		<path d="M20.1,46.3l1.4-0.3V32.4l-1.4-0.3v-0.4h7.2v0.4l-1.5,0.3v13.9h2.4l3.4-5.3H32l-0.3,5.7H20.1V46.3z"></path>		<path d="M38.6,40v-1.5c0-2.3-0.5-3-1.8-3c-0.1,0-0.3,0-0.4,0l-2.8,3.8h-0.4l0.1-3.5c1.1-0.3,2.4-0.7,4.2-0.7c3.1,0,4.8,0.8,4.8,3.4			v7.4l1.1,0.3v0.3c-0.4,0.3-1.3,0.5-2.3,0.5c-1.5,0-2.2-0.5-2.6-1.3h-0.1c-0.6,0.9-1.6,1.4-3,1.4c-1.8,0-3.1-1.1-3.1-3.1			c0-1.9,1.2-2.9,3.6-3.4L38.6,40z M38.6,45.1v-4.6l-0.8,0.1c-1.2,0.1-1.6,0.9-1.6,2.6c0,1.8,0.6,2.3,1.4,2.3			C38.2,45.5,38.4,45.4,38.6,45.1z"></path>		<path d="M55.2,40.7c0,4.4-2.5,6.3-6.2,6.3c-1.9,0-3.8-0.4-4.8-1V31.8l-1.3-0.5V31l4.5-0.7l0.5,0.1v6.1H48c0.6-0.7,1.7-1.4,3.3-1.4			C53.4,35.1,55.2,36.6,55.2,40.7z M51.2,41.1c0-3.4-0.7-4.4-2-4.4c-0.5,0-0.9,0.1-1.2,0.2v9.3c0.3,0.3,0.7,0.4,1.2,0.4			C50.4,46.6,51.2,45.2,51.2,41.1z"></path>		<path d="M64.5,43.2c0,2.3-1.6,3.7-4.7,3.7c-1.4,0-2.8-0.2-3.9-0.6L55.8,43h0.4l3,3.5c0.2,0.1,0.4,0.1,0.6,0.1			c1.3,0,1.8-0.7,1.8-1.7c0-0.9-0.5-1.3-1.8-1.9l-0.7-0.3c-2.1-1-3.3-2-3.3-3.9c0-2.3,1.6-3.7,4.4-3.7c1.1,0,2.4,0.1,3.3,0.4l0.1,3.1			h-0.4l-2.3-3c-0.2-0.1-0.5-0.1-0.7-0.1c-1.1,0-1.6,0.6-1.6,1.6c0,1,0.5,1.3,1.9,2l0.6,0.3C63.4,40.3,64.5,41.1,64.5,43.2z"></path>	</g>	</svg>
