<svg width="301" height="113" viewBox="0 0 301 113" fill="none" xmlns="http://www.w3.org/2000/svg">
    <path
        d="M116.783 104.968h-8.791v-.065l2.933-1.549c3.879-2.052 5.736-3.903 5.736-6.687 0-2.805-2.029-4.247-5.578-4.247-1.879 0-3.621.258-4.869.753l-.107 4.506h.365l3.32-4.829c1.836 0 2.631 1.356 2.631 3.753 0 2.374-.968 4.397-3.405 6.708l-3.148 2.998v1.902h10.626l.287-3.243zM124.44 108.096c-1.57 0-2.158-2.482-2.158-7.741 0-5.065.602-7.548 2.137-7.548 1.57 0 2.093 2.418 2.093 7.763-.007 5.072-.523 7.526-2.072 7.526zm-.064.387c3.685 0 6.747-2.697 6.747-8.085 0-5.367-2.997-7.978-6.597-7.978-3.642 0-6.854 2.633-6.854 8.107 0 5.244 3.083 7.956 6.704 7.956zM139.003 108.16c-1.57 0-2.158-2.482-2.158-7.741 0-5.065.602-7.547 2.136-7.547 1.57 0 2.094 2.418 2.094 7.763-.007 5.065-.524 7.525-2.072 7.525zm-.065.388c3.686 0 6.747-2.698 6.747-8.086 0-5.366-2.997-7.978-6.596-7.978-3.643 0-6.855 2.634-6.855 8.108 0 5.237 3.083 7.956 6.704 7.956z"
        fill="#FFE500"/>
    <path
        d="M67.475 47.867l5.098-2.475v-37.5h-3.857l-9.429 11.694h-1.054l.588-13.029H99.69l.595 13.029h-1.126L89.931 7.892h-3.957v37.414l5.133 2.533v1.27H67.475v-1.242zM104.945 46.21V4.663l-3.965-1.478v-.774L115.313 0h1.513v19.658l.394-.316c3.169-2.59 7.722-4.261 12.282-4.261 6.274 0 9.041 3.307 9.041 9.477v21.645l3.349 1.707v1.263h-18.735v-1.256l3.363-1.714v-21.71c0-3.393-1.585-4.75-4.553-4.75-1.979 0-3.686.582-4.948 1.529v24.995l3.299 1.708v1.205h-18.742v-1.19l3.369-1.78zM153.55 31.868l10.633-.61c0-8.508-1.563-14.154-4.681-14.154-3.313.007-5.952 6.564-5.952 14.764zm.194 1.586c.387 6.866 3.678 12.182 11.479 12.182 3.771 0 6.446-1.636 8.97-2.877v1.349c-1.951 2.49-6.891 5.99-13.781 5.99-12.088 0-18.262-6.284-18.262-17.16 0-10.633 6.762-17.255 17.681-17.255 10.268 0 15.602 4.8 15.602 17.44v.331h-21.689zM0 65.746c0-18.087 12.805-24.522 27.066-24.522 6.052 0 11.759.91 14.964 2.145l.28 12.62h-1.363l-8.374-12.211c-1.434-.574-2.797-.804-5.299-.804-7.585 0-11.457 8.186-11.335 21.617.143 16.07 3.133 23.36 10.088 23.36 1.806 0 3.205-.259 4.172-.654V70.093l-4.588-2.46V66.19H47.8v1.535l-4.524 2.367v16.982c-3.757 1.363-10.088 2.669-16.77 2.669C10.296 89.75 0 82.727 0 65.746zM47.587 57.309v-1.04l14.935-2.461 1.634.129v27.499c0 3.314 1.707 4.333 4.568 4.333 1.842 0 3.506-.653 4.84-2.138V58.966l-4.095-1.657v-1.084l14.935-2.46 1.499.129v31.524l4.022 1.578v1.005l-14.727 1.693-1.498-.13v-4.14h-.41c-2.724 2.361-6.545 4.399-11.177 4.399-7.155 0-10.432-3.953-10.432-9.944V58.973l-4.094-1.664zM143.054 53.743l1.226.13v10.18h.337c1.599-7.462 5.112-10.253 9.407-10.253.681 0 1.434.065 1.842.259v10.417c-.681-.194-1.907-.258-3.068-.258-3.406 0-5.916.573-8.117 1.513v20.124l3.392 1.758v1.306h-19.359v-1.291l3.484-1.765V58.406l-4.094-1.14v-.933l14.95-2.59z"
        fill="#fff"/>
    <path
        d="M180.516 84.133v-27.57c-.953-.575-1.641-1.285-4.115-1.199-4.03.137-6.517 5.819-6.517 15.956 0 9.112 1.792 14.205 7.155 14.04 1.506-.05 2.732-.552 3.477-1.227zm.022-29.53v-10.74l-4.087-1.34v-.862l15.064-2.582 1.434.193v46.131l4.159 1.414v1.19l-14.864 1.873-1.161-.129v-3.817h-.344c-2.18 2.038-5.184 3.889-9.888 3.889-8.116 0-14.045-5.804-14.045-17.656 0-12.498 6.89-18.64 17.322-18.64 3.004-.006 5.256.503 6.41 1.077zM215.039 45.07c0 3.378-3.069 5.925-6.618 5.925-3.678 0-6.546-2.547-6.546-5.926s2.868-5.99 6.546-5.99c3.549 0 6.618 2.611 6.618 5.99zm-1.363 8.644l1.298.13v32.011l3.406 1.765v1.306h-19.359v-1.291l3.477-1.765V58.908l-4.158-1.528v-1.069l15.336-2.597zM261.844 85.855V58.6l-4.094-1.342v-1.32l14.863-2.59 1.506.13v4.082h.409c3.204-2.676 7.98-4.398 12.683-4.398 6.474 0 9.342 2.87 9.342 9.24v23.403l3.471 1.808v1.306h-19.359v-1.292l3.477-1.772V63.041c0-3.508-1.634-4.907-4.703-4.907-1.979 0-3.607.466-5.112 1.52v26.194l3.413 1.765v1.306h-19.366v-1.292l3.47-1.772zM240.363 84.133V70.36l-2.473.186c-3.886.316-5.292 2.633-5.292 7.763 0 5.574 1.943 7.01 4.689 7.01 1.542.006 2.409-.431 3.076-1.184zm0-15.403v-4.57c0-6.887-1.606-9.14-6.159-9.14-.537 0-1.003.065-1.541.13l-8.102 10.266h-1.14V55.96c3.484-1.005 7.836-2.196 13.594-2.196 9.916 0 15.673 2.569 15.673 10.332v22.29l3.549.876v.875c-1.405.81-4.223 1.564-7.299 1.564-4.889 0-7.234-1.5-8.302-4.01h-.337c-2.08 2.632-5.026 4.132-9.644 4.132-5.893 0-9.916-3.444-9.916-9.391 0-5.761 3.815-8.89 11.587-10.267l8.037-1.435zM110.803 84.133V70.36l-2.48.186c-3.887.316-5.292 2.633-5.292 7.763 0 5.574 1.943 7.01 4.689 7.01 1.542.006 2.417-.431 3.083-1.184zm0-15.403v-4.57c0-6.887-1.606-9.14-6.159-9.14-.537 0-1.003.065-1.541.13l-8.102 10.266h-1.14V55.96c3.484-1.005 7.837-2.196 13.594-2.196 9.916 0 15.673 2.569 15.673 10.332v22.29l3.549.876v.875c-1.405.81-4.223 1.564-7.299 1.564-4.889 0-7.234-1.5-8.302-4.01h-.337c-2.079 2.632-5.026 4.132-9.644 4.132-5.893 0-9.909-3.444-9.909-9.391 0-5.761 3.815-8.89 11.587-10.267l8.03-1.435zM149.772 112.422l-1.155-2.238v-.309h4.152l-4.833-12.684-.939-.474v-.351h6.03v.351l-1.212.538 2.603 7.562 2.251-7.21-1.527-.89v-.351h3.112v.351l-1.176.826-3.542 11.163c-.631 1.973-1.828 3.278-3.764 3.716zm11.335-10.776c.137 2.798.976 4.513 3.722 4.513.903 0 1.663-.122 2.387-.459v.33c-.609.975-2.093 1.987-4.23 1.987-3.621 0-5.478-2.317-5.478-6.026 0-3.623 2.036-5.883 5.32-5.883 3.305 0 4.696 1.865 4.696 5.244v.287h-6.417v.007zm0-.416l3.033-.143c0-3.566-.451-4.578-1.391-4.578-1.018 0-1.642 1.45-1.642 4.721zm12.469-.186V99.53c0-2.303-.473-3.042-1.664-3.042-.136 0-.251.021-.394.043l-2.638 3.788h-.337l.078-3.523c1.019-.33 2.288-.703 3.973-.703 2.896 0 4.581.847 4.581 3.415v7.375l1.04.287v.287c-.409.273-1.233.517-2.137.517-1.427 0-2.115-.495-2.423-1.327h-.101c-.609.868-1.47 1.37-2.817 1.37-1.721 0-2.897-1.141-2.897-3.106 0-1.909 1.118-2.942 3.384-3.401l2.352-.466zm0 5.1v-4.555l-.724.064c-1.133.101-1.549.868-1.549 2.569 0 1.844.566 2.317 1.369 2.317.452 0 .703-.151.904-.395zm9.658-9.986l.351.043v3.228h.1c.545-2.468 1.449-3.4 2.66-3.4.194 0 .409.021.531.086v3.415c-.194-.065-.545-.086-.882-.086-.975 0-1.699.1-2.33.373v7.231l1.448.309v.352h-6.144v-.352l1.118-.309v-9.384l-1.176-.495v-.351l4.324-.66zm12.719 8.078c0 2.339-1.549 3.752-4.402 3.752-1.291 0-2.624-.165-3.657-.581l-.115-3.357h.33l2.796 3.458c.194.064.409.1.588.1 1.198 0 1.743-.682 1.743-1.743 0-.933-.474-1.285-1.7-1.909l-.645-.308c-1.957-.976-3.09-1.987-3.09-3.896 0-2.317 1.527-3.688 4.151-3.688 1.076 0 2.252.101 3.148.374l.1 3.128h-.33l-2.136-3.028a2.024 2.024 0 00-.689-.122c-1.054 0-1.527.646-1.527 1.571 0 1.012.452 1.35 1.764 1.988l.609.287c2.001 1.011 3.062 1.901 3.062 3.974zM73.541 107.673l1.312-.287V93.754l-1.29-.308v-.352h11.392l.1 4.85h-.329l-2.545-4.455h-3.19v7.024h1.562l1.778-2.755h.33v5.947h-.33l-1.778-2.776H78.99v6.485l1.527.273v.352h-6.969v-.366h-.007zM84.29 102.313c0-3.644 2.193-5.904 5.477-5.904 3.284 0 5.52 2.26 5.52 5.926 0 3.688-2.193 6.005-5.499 6.005-3.27 0-5.499-2.339-5.499-6.027zm3.856.022c0 4.477.567 5.632 1.664 5.632 1.075 0 1.627-1.184 1.627-5.654 0-4.455-.53-5.531-1.641-5.531-1.083 0-1.65 1.098-1.65 5.553zM99.69 96.474l.351.043v3.228h.1c.545-2.468 1.449-3.393 2.66-3.393.194 0 .409.021.531.086v3.415c-.194-.065-.545-.087-.882-.087-.975 0-1.706.101-2.33.374v7.231l1.448.309v.351h-6.144v-.351l1.118-.309v-9.39l-1.176-.496v-.351l4.324-.66z"
        fill="#fff"/>
</svg>
