<svg width="369" height="141" viewBox="0 0 369 141" fill="none" xmlns="http://www.w3.org/2000/svg">
<path d="M89.424 126.896L88.736 124.624H85.024L84.304 126.896L85.488 127.248V128H82.144V127.232L82.976 126.896L86.56 116.464H88.864L92.432 126.896L93.312 127.232V128H88.224V127.248L89.424 126.896ZM86.864 118.8L85.408 123.408H88.352L86.944 118.8H86.864ZM100.715 119.136C101.056 119.136 101.355 119.163 101.611 119.216C101.877 119.259 102.096 119.317 102.267 119.392V116.752L101.211 116.448V115.808L104.459 115.344L104.763 115.408V126.752L105.803 127.168V127.792L102.635 128.176L102.379 128.144V127.264H102.299C102.021 127.509 101.691 127.728 101.307 127.92C100.923 128.112 100.448 128.208 99.8828 128.208C99.4241 128.208 98.9921 128.123 98.5868 127.952C98.1921 127.771 97.8454 127.499 97.5468 127.136C97.2481 126.773 97.0134 126.32 96.8428 125.776C96.6721 125.221 96.5868 124.576 96.5868 123.84C96.5868 122.283 96.9654 121.109 97.7228 120.32C98.4801 119.531 99.4774 119.136 100.715 119.136ZM101.163 126.912C101.397 126.912 101.611 126.88 101.803 126.816C101.995 126.752 102.149 126.683 102.267 126.608V120.352C102.128 120.267 101.968 120.192 101.787 120.128C101.616 120.053 101.381 120.016 101.083 120.016C100.517 120.016 100.064 120.293 99.7228 120.848C99.3814 121.403 99.2108 122.325 99.2108 123.616C99.2108 124.779 99.3761 125.621 99.7068 126.144C100.037 126.656 100.523 126.912 101.163 126.912ZM114.21 123.824H108.834C108.876 124.805 109.111 125.536 109.538 126.016C109.964 126.496 110.658 126.736 111.618 126.736C112.087 126.736 112.503 126.688 112.866 126.592C113.228 126.485 113.564 126.347 113.874 126.176V126.928C113.628 127.237 113.228 127.531 112.674 127.808C112.119 128.085 111.442 128.224 110.641 128.224C109.18 128.224 108.087 127.803 107.362 126.96C106.636 126.117 106.274 124.997 106.274 123.6C106.274 122.224 106.658 121.136 107.426 120.336C108.194 119.525 109.207 119.12 110.466 119.12C111.724 119.12 112.663 119.488 113.282 120.224C113.9 120.949 114.21 122.085 114.21 123.632V123.824ZM110.402 119.936C109.911 119.936 109.522 120.187 109.234 120.688C108.956 121.179 108.812 121.952 108.802 123.008L111.794 122.88C111.794 121.781 111.676 121.019 111.442 120.592C111.218 120.155 110.871 119.936 110.402 119.936ZM119.169 128.208C118.476 128.208 117.862 128.101 117.329 127.888C116.806 127.664 116.369 127.355 116.017 126.96C115.676 126.555 115.414 126.069 115.233 125.504C115.062 124.939 114.977 124.32 114.977 123.648C114.977 122.923 115.089 122.277 115.313 121.712C115.537 121.147 115.846 120.672 116.241 120.288C116.646 119.904 117.132 119.611 117.697 119.408C118.262 119.205 118.881 119.104 119.553 119.104C120.076 119.104 120.572 119.136 121.041 119.2C121.51 119.253 121.889 119.328 122.177 119.424V121.92H121.041L120.577 120.064C120.47 120.021 120.348 119.989 120.209 119.968C120.07 119.947 119.91 119.936 119.729 119.936C119.025 119.936 118.481 120.224 118.097 120.8C117.713 121.365 117.521 122.224 117.521 123.376C117.521 124.549 117.75 125.403 118.209 125.936C118.678 126.469 119.345 126.736 120.209 126.736C120.668 126.736 121.057 126.688 121.377 126.592C121.708 126.496 122.001 126.373 122.257 126.224V126.96C121.958 127.301 121.558 127.595 121.057 127.84C120.566 128.085 119.937 128.208 119.169 128.208ZM125.868 123.312L127.852 122.944V121.792C127.852 121.152 127.745 120.693 127.532 120.416C127.318 120.128 126.929 119.984 126.364 119.984C126.172 119.984 126.001 120 125.852 120.032C125.702 120.053 125.558 120.08 125.42 120.112L124.876 121.936H123.756V119.648C124.15 119.531 124.614 119.413 125.148 119.296C125.681 119.168 126.262 119.104 126.892 119.104C128.022 119.104 128.881 119.301 129.468 119.696C130.054 120.091 130.348 120.757 130.348 121.696V126.944L131.276 127.312V127.84C131.126 127.925 130.908 128.005 130.62 128.08C130.342 128.155 130.038 128.192 129.708 128.192C129.206 128.192 128.828 128.107 128.572 127.936C128.316 127.755 128.14 127.515 128.044 127.216H127.948C127.702 127.515 127.393 127.76 127.02 127.952C126.657 128.144 126.188 128.24 125.612 128.24C124.876 128.24 124.278 128.032 123.82 127.616C123.372 127.189 123.148 126.608 123.148 125.872C123.148 125.136 123.377 124.565 123.836 124.16C124.294 123.755 124.972 123.472 125.868 123.312ZM126.828 126.928C127.052 126.928 127.249 126.896 127.42 126.832C127.601 126.768 127.745 126.683 127.852 126.576V123.808L126.844 123.92C126.396 123.963 126.07 124.112 125.868 124.368C125.676 124.613 125.58 124.981 125.58 125.472C125.58 126.016 125.692 126.395 125.916 126.608C126.14 126.821 126.444 126.928 126.828 126.928ZM135.965 119.136C136.306 119.136 136.605 119.163 136.861 119.216C137.127 119.259 137.346 119.317 137.517 119.392V116.752L136.461 116.448V115.808L139.709 115.344L140.013 115.408V126.752L141.053 127.168V127.792L137.885 128.176L137.629 128.144V127.264H137.549C137.271 127.509 136.941 127.728 136.557 127.92C136.173 128.112 135.698 128.208 135.133 128.208C134.674 128.208 134.242 128.123 133.837 127.952C133.442 127.771 133.095 127.499 132.797 127.136C132.498 126.773 132.263 126.32 132.093 125.776C131.922 125.221 131.837 124.576 131.837 123.84C131.837 122.283 132.215 121.109 132.973 120.32C133.73 119.531 134.727 119.136 135.965 119.136ZM136.413 126.912C136.647 126.912 136.861 126.88 137.053 126.816C137.245 126.752 137.399 126.683 137.517 126.608V120.352C137.378 120.267 137.218 120.192 137.037 120.128C136.866 120.053 136.631 120.016 136.333 120.016C135.767 120.016 135.314 120.293 134.973 120.848C134.631 121.403 134.461 122.325 134.461 123.616C134.461 124.779 134.626 125.621 134.957 126.144C135.287 126.656 135.773 126.912 136.413 126.912ZM149.46 123.824H144.084C144.126 124.805 144.361 125.536 144.788 126.016C145.214 126.496 145.908 126.736 146.868 126.736C147.337 126.736 147.753 126.688 148.116 126.592C148.478 126.485 148.814 126.347 149.124 126.176V126.928C148.878 127.237 148.478 127.531 147.924 127.808C147.369 128.085 146.692 128.224 145.891 128.224C144.43 128.224 143.337 127.803 142.612 126.96C141.886 126.117 141.524 124.997 141.524 123.6C141.524 122.224 141.908 121.136 142.676 120.336C143.444 119.525 144.457 119.12 145.716 119.12C146.974 119.12 147.913 119.488 148.532 120.224C149.15 120.949 149.46 122.085 149.46 123.632V123.824ZM145.652 119.936C145.161 119.936 144.772 120.187 144.484 120.688C144.206 121.179 144.062 121.952 144.052 123.008L147.044 122.88C147.044 121.781 146.926 121.019 146.692 120.592C146.468 120.155 146.121 119.936 145.652 119.936ZM157.313 128.24C156.662 128.24 156.065 128.133 155.521 127.92C154.987 127.696 154.529 127.387 154.145 126.992C153.771 126.587 153.478 126.101 153.265 125.536C153.051 124.971 152.945 124.341 152.945 123.648C152.945 122.955 153.051 122.331 153.265 121.776C153.478 121.211 153.777 120.731 154.161 120.336C154.545 119.941 155.003 119.637 155.537 119.424C156.07 119.211 156.651 119.104 157.281 119.104C157.931 119.104 158.529 119.211 159.073 119.424C159.617 119.637 160.075 119.941 160.449 120.336C160.833 120.72 161.131 121.195 161.345 121.76C161.558 122.315 161.665 122.939 161.665 123.632C161.665 124.325 161.558 124.96 161.345 125.536C161.131 126.101 160.833 126.587 160.449 126.992C160.075 127.387 159.617 127.696 159.073 127.92C158.539 128.133 157.953 128.24 157.313 128.24ZM157.297 119.952C156.774 119.952 156.369 120.213 156.081 120.736C155.793 121.259 155.649 122.224 155.649 123.632C155.649 125.051 155.793 126.032 156.081 126.576C156.379 127.109 156.795 127.376 157.329 127.376C157.851 127.376 158.251 127.109 158.529 126.576C158.817 126.043 158.961 125.072 158.961 123.664C158.961 122.245 158.811 121.275 158.513 120.752C158.225 120.219 157.819 119.952 157.297 119.952ZM165.761 127.008L166.961 127.376V128H162.257V127.376L163.249 127.008V120.336H162.225V119.696L163.249 119.296V118.272C163.249 117.749 163.334 117.301 163.505 116.928C163.686 116.544 163.926 116.235 164.225 116C164.534 115.765 164.886 115.595 165.281 115.488C165.686 115.371 166.113 115.312 166.561 115.312C166.923 115.312 167.259 115.323 167.569 115.344C167.878 115.365 168.219 115.408 168.593 115.472V117.728H167.633L167.297 116.208C167.211 116.176 167.126 116.155 167.041 116.144C166.955 116.133 166.865 116.128 166.769 116.128C166.438 116.128 166.187 116.24 166.017 116.464C165.846 116.688 165.761 117.088 165.761 117.664V119.296H167.553V120.336H165.761V127.008ZM170.819 127.376L171.811 127.024V120.576L170.771 120.24V119.632L173.939 119.152L174.259 119.216V120.16H174.339C174.734 119.851 175.144 119.6 175.571 119.408C176.008 119.205 176.515 119.104 177.091 119.104C177.582 119.104 177.992 119.189 178.323 119.36C178.654 119.52 178.904 119.792 179.075 120.176H179.139C179.534 119.867 179.96 119.611 180.419 119.408C180.888 119.205 181.406 119.104 181.971 119.104C182.707 119.104 183.267 119.296 183.651 119.68C184.035 120.064 184.227 120.656 184.227 121.456V127.024L185.219 127.376V128H180.931V127.376L181.763 127.024V121.824C181.763 121.333 181.656 120.987 181.443 120.784C181.23 120.581 180.931 120.48 180.547 120.48C180.291 120.48 180.056 120.517 179.843 120.592C179.63 120.656 179.427 120.731 179.235 120.816V127.024L180.067 127.376V128H175.971V127.376L176.835 127.024V121.824C176.835 121.333 176.734 120.987 176.531 120.784C176.339 120.581 176.051 120.48 175.667 120.48C175.368 120.48 175.118 120.512 174.915 120.576C174.712 120.64 174.51 120.72 174.307 120.816V127.024L175.123 127.376V128H170.819V127.376ZM188.415 123.312L190.399 122.944V121.792C190.399 121.152 190.292 120.693 190.079 120.416C189.865 120.128 189.476 119.984 188.911 119.984C188.719 119.984 188.548 120 188.399 120.032C188.249 120.053 188.105 120.08 187.967 120.112L187.423 121.936H186.303V119.648C186.697 119.531 187.161 119.413 187.695 119.296C188.228 119.168 188.809 119.104 189.439 119.104C190.569 119.104 191.428 119.301 192.015 119.696C192.601 120.091 192.895 120.757 192.895 121.696V126.944L193.823 127.312V127.84C193.673 127.925 193.455 128.005 193.167 128.08C192.889 128.155 192.585 128.192 192.255 128.192C191.753 128.192 191.375 128.107 191.119 127.936C190.863 127.755 190.687 127.515 190.591 127.216H190.495C190.249 127.515 189.94 127.76 189.567 127.952C189.204 128.144 188.735 128.24 188.159 128.24C187.423 128.24 186.825 128.032 186.367 127.616C185.919 127.189 185.695 126.608 185.695 125.872C185.695 125.136 185.924 124.565 186.383 124.16C186.841 123.755 187.519 123.472 188.415 123.312ZM189.375 126.928C189.599 126.928 189.796 126.896 189.967 126.832C190.148 126.768 190.292 126.683 190.399 126.576V123.808L189.391 123.92C188.943 123.963 188.617 124.112 188.415 124.368C188.223 124.613 188.127 124.981 188.127 125.472C188.127 126.016 188.239 126.395 188.463 126.608C188.687 126.821 188.991 126.928 189.375 126.928ZM202.048 120.368L199.808 122.688L202.864 127.072L203.6 127.36V128H200.544L197.792 123.952V126.992L198.752 127.36V128H194.288V127.376L195.28 127.008V116.768L194.24 116.432V115.808L197.424 115.344L197.792 115.408V123.36L200.64 120.4L199.76 119.936V119.296H203.104V119.936L202.048 120.368ZM206.167 115.616C206.53 115.616 206.85 115.749 207.127 116.016C207.404 116.272 207.543 116.587 207.543 116.96C207.543 117.333 207.404 117.648 207.127 117.904C206.85 118.16 206.53 118.288 206.167 118.288C205.772 118.288 205.442 118.16 205.175 117.904C204.919 117.648 204.791 117.333 204.791 116.96C204.791 116.587 204.919 116.272 205.175 116.016C205.442 115.749 205.772 115.616 206.167 115.616ZM203.943 119.632L207.223 119.152L207.495 119.216V127.024L208.487 127.376V128H203.991V127.376L204.983 127.024V120.576L203.943 120.24V119.632ZM208.991 127.376L209.983 127.008V120.576L208.943 120.224V119.632L212.127 119.152L212.447 119.216V120.16H212.527C212.911 119.851 213.359 119.6 213.871 119.408C214.393 119.205 214.921 119.104 215.455 119.104C216.223 119.104 216.788 119.291 217.151 119.664C217.524 120.037 217.711 120.624 217.711 121.424V127.008L218.687 127.376V128H214.303V127.376L215.215 127.04V121.824C215.215 121.333 215.103 120.992 214.879 120.8C214.665 120.597 214.361 120.496 213.967 120.496C213.668 120.496 213.396 120.533 213.151 120.608C212.916 120.672 212.697 120.747 212.495 120.832V127.04L213.375 127.376V128H208.991V127.376ZM222.753 131.488C221.409 131.488 220.395 131.339 219.713 131.04C219.03 130.752 218.689 130.32 218.689 129.744C218.689 129.413 218.854 129.12 219.185 128.864C219.515 128.619 219.953 128.427 220.497 128.288V128.208C220.166 128.101 219.883 127.904 219.649 127.616C219.425 127.317 219.313 126.981 219.313 126.608C219.313 126.213 219.441 125.867 219.697 125.568C219.953 125.259 220.315 125.008 220.785 124.816V124.752C220.326 124.528 219.942 124.187 219.633 123.728C219.334 123.269 219.185 122.747 219.185 122.16C219.185 121.179 219.521 120.427 220.193 119.904C220.875 119.371 221.745 119.104 222.801 119.104C223.185 119.104 223.537 119.141 223.857 119.216C224.177 119.28 224.459 119.365 224.705 119.472H224.817L227.121 119.088H227.249V120.576H227.073L225.489 120.176V120.272C225.798 120.507 226.033 120.789 226.193 121.12C226.363 121.451 226.449 121.813 226.449 122.208C226.449 122.699 226.358 123.131 226.177 123.504C225.995 123.867 225.745 124.176 225.425 124.432C225.105 124.677 224.721 124.864 224.273 124.992C223.825 125.12 223.334 125.184 222.801 125.184C222.534 125.184 222.299 125.168 222.097 125.136C221.894 125.104 221.691 125.067 221.489 125.024C221.371 125.12 221.27 125.221 221.185 125.328C221.11 125.435 221.073 125.557 221.073 125.696C221.073 125.877 221.131 126.027 221.249 126.144C221.366 126.251 221.547 126.304 221.793 126.304H224.609C225.526 126.304 226.225 126.459 226.705 126.768C227.185 127.077 227.425 127.616 227.425 128.384C227.425 129.301 227.03 130.048 226.241 130.624C225.462 131.2 224.299 131.488 222.753 131.488ZM224.081 122.128C224.081 121.275 223.969 120.683 223.745 120.352C223.521 120.011 223.211 119.84 222.817 119.84C222.411 119.84 222.102 120.011 221.889 120.352C221.675 120.693 221.569 121.285 221.569 122.128C221.569 122.949 221.675 123.525 221.889 123.856C222.113 124.176 222.422 124.336 222.817 124.336C223.211 124.336 223.521 124.171 223.745 123.84C223.969 123.499 224.081 122.928 224.081 122.128ZM222.769 130.704C223.686 130.704 224.358 130.571 224.785 130.304C225.222 130.037 225.441 129.691 225.441 129.264C225.441 129.008 225.35 128.811 225.169 128.672C224.998 128.533 224.694 128.464 224.257 128.464H221.345C221.099 128.603 220.918 128.752 220.801 128.912C220.683 129.083 220.625 129.253 220.625 129.424C220.625 129.819 220.774 130.128 221.073 130.352C221.382 130.587 221.947 130.704 222.769 130.704ZM233.352 123.312L235.336 122.944V121.792C235.336 121.152 235.229 120.693 235.016 120.416C234.803 120.128 234.413 119.984 233.848 119.984C233.656 119.984 233.485 120 233.336 120.032C233.187 120.053 233.043 120.08 232.904 120.112L232.36 121.936H231.24V119.648C231.635 119.531 232.099 119.413 232.632 119.296C233.165 119.168 233.747 119.104 234.376 119.104C235.507 119.104 236.365 119.301 236.952 119.696C237.539 120.091 237.832 120.757 237.832 121.696V126.944L238.76 127.312V127.84C238.611 127.925 238.392 128.005 238.104 128.08C237.827 128.155 237.523 128.192 237.192 128.192C236.691 128.192 236.312 128.107 236.056 127.936C235.8 127.755 235.624 127.515 235.528 127.216H235.432C235.187 127.515 234.877 127.76 234.504 127.952C234.141 128.144 233.672 128.24 233.096 128.24C232.36 128.24 231.763 128.032 231.304 127.616C230.856 127.189 230.632 126.608 230.632 125.872C230.632 125.136 230.861 124.565 231.32 124.16C231.779 123.755 232.456 123.472 233.352 123.312ZM234.312 126.928C234.536 126.928 234.733 126.896 234.904 126.832C235.085 126.768 235.229 126.683 235.336 126.576V123.808L234.328 123.92C233.88 123.963 233.555 124.112 233.352 124.368C233.16 124.613 233.064 124.981 233.064 125.472C233.064 126.016 233.176 126.395 233.4 126.608C233.624 126.821 233.928 126.928 234.312 126.928ZM246.215 119.136C246.556 119.136 246.855 119.163 247.111 119.216C247.377 119.259 247.596 119.317 247.767 119.392V116.752L246.711 116.448V115.808L249.959 115.344L250.263 115.408V126.752L251.303 127.168V127.792L248.135 128.176L247.879 128.144V127.264H247.799C247.521 127.509 247.191 127.728 246.807 127.92C246.423 128.112 245.948 128.208 245.383 128.208C244.924 128.208 244.492 128.123 244.087 127.952C243.692 127.771 243.345 127.499 243.047 127.136C242.748 126.773 242.513 126.32 242.343 125.776C242.172 125.221 242.087 124.576 242.087 123.84C242.087 122.283 242.465 121.109 243.223 120.32C243.98 119.531 244.977 119.136 246.215 119.136ZM246.663 126.912C246.897 126.912 247.111 126.88 247.303 126.816C247.495 126.752 247.649 126.683 247.767 126.608V120.352C247.628 120.267 247.468 120.192 247.287 120.128C247.116 120.053 246.881 120.016 246.583 120.016C246.017 120.016 245.564 120.293 245.223 120.848C244.881 121.403 244.711 122.325 244.711 123.616C244.711 124.779 244.876 125.621 245.207 126.144C245.537 126.656 246.023 126.912 246.663 126.912ZM253.902 115.616C254.264 115.616 254.584 115.749 254.862 116.016C255.139 116.272 255.278 116.587 255.278 116.96C255.278 117.333 255.139 117.648 254.862 117.904C254.584 118.16 254.264 118.288 253.902 118.288C253.507 118.288 253.176 118.16 252.91 117.904C252.654 117.648 252.526 117.333 252.526 116.96C252.526 116.587 252.654 116.272 252.91 116.016C253.176 115.749 253.507 115.616 253.902 115.616ZM251.678 119.632L254.958 119.152L255.23 119.216V127.024L256.222 127.376V128H251.726V127.376L252.718 127.024V120.576L251.678 120.24V119.632ZM260.245 127.008L261.269 127.376V128H256.741V127.376L257.733 127.008V120.336H256.709V119.696L257.733 119.296V118.688C257.733 117.664 258.058 116.88 258.709 116.336C259.36 115.792 260.288 115.52 261.493 115.52C262.005 115.52 262.464 115.563 262.869 115.648C263.274 115.733 263.632 115.845 263.941 115.984C264.24 115.749 264.586 115.579 264.981 115.472C265.376 115.365 265.797 115.312 266.245 115.312C266.597 115.312 266.928 115.323 267.237 115.344C267.546 115.365 267.888 115.408 268.261 115.472V117.728H267.317L266.965 116.208C266.88 116.176 266.794 116.155 266.709 116.144C266.624 116.133 266.538 116.128 266.453 116.128C266.122 116.128 265.866 116.24 265.685 116.464C265.514 116.688 265.429 117.088 265.429 117.664V119.296H267.237V120.336H265.429V127.008L266.645 127.376V128H262.021V127.376L262.933 127.008V120.336H260.245V127.008ZM260.245 119.296H262.933V118.272C262.933 118.027 262.954 117.797 262.997 117.584C263.04 117.36 263.098 117.157 263.173 116.976C263.034 116.816 262.842 116.683 262.597 116.576C262.362 116.469 262.08 116.416 261.749 116.416C261.258 116.416 260.885 116.56 260.629 116.848C260.373 117.125 260.245 117.648 260.245 118.416V119.296ZM275.631 123.824H270.255C270.298 124.805 270.533 125.536 270.959 126.016C271.386 126.496 272.079 126.736 273.039 126.736C273.509 126.736 273.925 126.688 274.287 126.592C274.65 126.485 274.986 126.347 275.295 126.176V126.928C275.05 127.237 274.65 127.531 274.095 127.808C273.541 128.085 272.863 128.224 272.063 128.224C270.602 128.224 269.509 127.803 268.783 126.96C268.058 126.117 267.695 124.997 267.695 123.6C267.695 122.224 268.079 121.136 268.847 120.336C269.615 119.525 270.629 119.12 271.887 119.12C273.146 119.12 274.085 119.488 274.703 120.224C275.322 120.949 275.631 122.085 275.631 123.632V123.824ZM271.823 119.936C271.333 119.936 270.943 120.187 270.655 120.688C270.378 121.179 270.234 121.952 270.223 123.008L273.215 122.88C273.215 121.781 273.098 121.019 272.863 120.592C272.639 120.155 272.293 119.936 271.823 119.936ZM276.271 119.632L279.471 119.152L279.727 119.216V120.976H279.807C280.042 120.336 280.346 119.861 280.719 119.552C281.103 119.232 281.54 119.072 282.031 119.072C282.127 119.072 282.218 119.077 282.303 119.088C282.388 119.099 282.452 119.115 282.495 119.136V121.392C282.42 121.371 282.319 121.355 282.191 121.344C282.063 121.333 281.93 121.328 281.791 121.328C281.375 121.328 281.007 121.36 280.687 121.424C280.367 121.488 280.079 121.589 279.823 121.728V127.024L281.055 127.376V128H276.319V127.376L277.311 127.024V120.576L276.271 120.24V119.632ZM290.835 123.824H285.459C285.501 124.805 285.736 125.536 286.163 126.016C286.589 126.496 287.283 126.736 288.243 126.736C288.712 126.736 289.128 126.688 289.491 126.592C289.853 126.485 290.189 126.347 290.499 126.176V126.928C290.253 127.237 289.853 127.531 289.299 127.808C288.744 128.085 288.067 128.224 287.266 128.224C285.805 128.224 284.712 127.803 283.987 126.96C283.261 126.117 282.899 124.997 282.899 123.6C282.899 122.224 283.283 121.136 284.051 120.336C284.819 119.525 285.832 119.12 287.091 119.12C288.349 119.12 289.288 119.488 289.907 120.224C290.525 120.949 290.835 122.085 290.835 123.632V123.824ZM287.027 119.936C286.536 119.936 286.147 120.187 285.859 120.688C285.581 121.179 285.437 121.952 285.427 123.008L288.419 122.88C288.419 121.781 288.301 121.019 288.067 120.592C287.843 120.155 287.496 119.936 287.027 119.936ZM291.522 127.376L292.514 127.008V120.576L291.474 120.224V119.632L294.658 119.152L294.978 119.216V120.16H295.058C295.442 119.851 295.89 119.6 296.402 119.408C296.925 119.205 297.453 119.104 297.986 119.104C298.754 119.104 299.319 119.291 299.682 119.664C300.055 120.037 300.242 120.624 300.242 121.424V127.008L301.218 127.376V128H296.834V127.376L297.746 127.04V121.824C297.746 121.333 297.634 120.992 297.41 120.8C297.197 120.597 296.893 120.496 296.498 120.496C296.199 120.496 295.927 120.533 295.682 120.608C295.447 120.672 295.229 120.747 295.026 120.832V127.04L295.906 127.376V128H291.522V127.376ZM305.95 128.208C305.257 128.208 304.644 128.101 304.11 127.888C303.588 127.664 303.15 127.355 302.798 126.96C302.457 126.555 302.196 126.069 302.014 125.504C301.844 124.939 301.758 124.32 301.758 123.648C301.758 122.923 301.87 122.277 302.094 121.712C302.318 121.147 302.628 120.672 303.022 120.288C303.428 119.904 303.913 119.611 304.478 119.408C305.044 119.205 305.662 119.104 306.334 119.104C306.857 119.104 307.353 119.136 307.822 119.2C308.292 119.253 308.67 119.328 308.958 119.424V121.92H307.822L307.358 120.064C307.252 120.021 307.129 119.989 306.99 119.968C306.852 119.947 306.692 119.936 306.51 119.936C305.806 119.936 305.262 120.224 304.878 120.8C304.494 121.365 304.302 122.224 304.302 123.376C304.302 124.549 304.532 125.403 304.99 125.936C305.46 126.469 306.126 126.736 306.99 126.736C307.449 126.736 307.838 126.688 308.158 126.592C308.489 126.496 308.782 126.373 309.038 126.224V126.96C308.74 127.301 308.34 127.595 307.838 127.84C307.348 128.085 306.718 128.208 305.95 128.208ZM317.788 123.824H312.412C312.454 124.805 312.689 125.536 313.116 126.016C313.542 126.496 314.236 126.736 315.196 126.736C315.665 126.736 316.081 126.688 316.444 126.592C316.806 126.485 317.142 126.347 317.452 126.176V126.928C317.206 127.237 316.806 127.531 316.252 127.808C315.697 128.085 315.02 128.224 314.22 128.224C312.758 128.224 311.665 127.803 310.94 126.96C310.214 126.117 309.852 124.997 309.852 123.6C309.852 122.224 310.236 121.136 311.004 120.336C311.772 119.525 312.785 119.12 314.044 119.12C315.302 119.12 316.241 119.488 316.86 120.224C317.478 120.949 317.788 122.085 317.788 123.632V123.824ZM313.98 119.936C313.489 119.936 313.1 120.187 312.812 120.688C312.534 121.179 312.39 121.952 312.38 123.008L315.372 122.88C315.372 121.781 315.254 121.019 315.02 120.592C314.796 120.155 314.449 119.936 313.98 119.936Z" fill="#FFE500"/>
<path d="M76.9883 58.5507L82.8105 55.5129V9.6563H78.4077L67.6534 23.9533H66.4385L67.1242 8.01685H113.75L114.424 23.9533H113.149L102.611 9.6563H98.0998V55.4165L103.958 58.5146V60.0696H76.9883V58.5507Z" fill="white"/>
<path d="M119.103 56.5251V5.70194L114.58 3.89371V2.94138L130.928 0H132.648V24.0494L133.105 23.6636C136.726 20.4932 141.923 18.456 147.12 18.456C154.277 18.456 157.441 22.5064 157.441 30.0527V56.5251L161.266 58.6106V60.1536H139.89V58.6227L143.727 56.5251V29.9563C143.727 25.8094 141.923 24.1458 138.531 24.1458C136.269 24.1458 134.32 24.8571 132.877 26.0143V56.5854L136.642 58.6709V60.1416H115.254V58.683L119.103 56.5251Z" fill="white"/>
<path d="M173.717 40.9145C174.162 49.3167 177.915 55.8143 186.817 55.8143C191.123 55.8143 194.179 53.8132 197.054 52.2943V53.9458C194.828 56.9957 189.186 61.2751 181.331 61.2751C167.534 61.2751 160.484 53.5962 160.484 40.2877C160.484 27.2805 168.195 19.1796 180.658 19.1796C192.374 19.1796 198.461 25.0503 198.461 40.5046V40.9024H173.717V40.9145ZM173.488 38.9857L185.626 38.2383C185.626 27.835 183.845 20.9276 180.285 20.9276C176.508 20.9276 173.488 28.944 173.488 38.9857Z" fill="white"/>
<path d="M0 80.4178C0 58.2972 14.6157 50.4254 30.8915 50.4254C37.7963 50.4254 44.3163 51.5344 47.9612 53.0533L48.2739 68.4956H46.7221L37.1708 53.5596C35.5348 52.8604 33.983 52.5832 31.12 52.5832C22.4709 52.5832 18.0441 62.6007 18.1764 79.0315C18.3448 98.6809 21.7491 107.601 29.6885 107.601C31.7576 107.601 33.3455 107.288 34.4522 106.806V85.746L29.2074 82.7323V80.9723H54.5413V82.8529L49.3806 85.746V106.517C45.0982 108.192 37.8685 109.783 30.2419 109.783C11.7407 109.783 0 101.188 0 80.4178Z" fill="white"/>
<path d="M53.6504 70.0993V68.8215L70.684 65.8077L72.5485 65.9645V99.5974C72.5485 103.648 74.4973 104.902 77.7573 104.902C79.8624 104.902 81.7631 104.106 83.2788 102.286V72.1245L78.6114 70.0993V68.7732L95.645 65.7595L97.3531 65.9162V104.468L101.948 106.396V107.626L85.1433 109.699L83.4351 109.543V104.48H82.966C79.8504 107.361 75.4958 109.856 70.2028 109.856C62.0349 109.856 58.2937 105.022 58.2937 97.6928V72.1245L53.6504 70.0993Z" fill="white"/>
<path d="M161.326 65.7357L162.721 65.8924V78.345H163.106C164.923 69.2195 168.94 65.808 173.836 65.808C174.618 65.808 175.472 65.8803 175.942 66.1214V78.8634C175.16 78.6343 173.764 78.5499 172.441 78.5499C168.556 78.5499 165.693 79.2491 163.178 80.4064V105.022L167.052 107.18V108.771H144.966V107.192L148.948 105.034V71.4376L144.28 70.0392V68.894L161.326 65.7357Z" fill="white"/>
<path d="M204.102 66.7843V53.6445L199.435 52.005V50.9563L216.625 47.7858L218.261 48.0149V104.444L223.012 106.167V107.626L206.051 109.916L204.728 109.76V105.095H204.343C201.853 107.59 198.424 109.844 193.059 109.844C183.797 109.844 177.036 102.756 177.036 88.2539C177.036 72.9684 184.891 65.4582 196.8 65.4582C200.205 65.4582 202.779 66.0851 204.102 66.7843ZM204.066 102.913V69.1832C202.971 68.484 202.19 67.616 199.363 67.7125C194.767 67.8692 191.928 74.8369 191.928 87.2293C191.928 98.38 193.974 104.612 200.096 104.407C201.817 104.347 203.212 103.732 204.066 102.913Z" fill="white"/>
<path d="M241.899 65.6989L243.379 65.8556V105.01L247.264 107.168V108.759H225.178V107.18L229.148 105.022V72.0398L224.396 70.1713V68.8693L241.899 65.6989ZM243.463 55.1268C243.463 59.2616 239.963 62.3718 235.921 62.3718C231.722 62.3718 228.45 59.2496 228.45 55.1268C228.45 50.992 231.722 47.7975 235.921 47.7975C239.963 47.7975 243.463 50.992 243.463 55.1268Z" fill="white"/>
<path d="M295.442 105.022V71.6781L290.774 70.0386V68.4233L307.736 65.2528L309.444 65.4096V70.4003H309.913C313.57 67.1213 319.019 65.0238 324.385 65.0238C331.771 65.0238 335.043 68.5318 335.043 76.3312V104.949L339 107.168V108.759H316.914V107.18L320.884 105.022V77.1148C320.884 72.8233 319.019 71.1115 315.519 71.1115C313.257 71.1115 311.405 71.6901 309.685 72.9679V105.01L313.57 107.168V108.759H291.472V107.18L295.442 105.022Z" fill="white"/>
<path d="M270.938 84.0699V78.4764C270.938 70.0501 269.11 67.2895 263.913 67.2895C263.3 67.2895 262.77 67.3619 262.157 67.4463L252.906 80.0074H251.607V68.4468C255.577 67.2172 260.545 65.7706 267.125 65.7706C278.433 65.7706 285.013 68.9169 285.013 78.4041V105.672L289.067 106.745V107.818C287.467 108.818 284.255 109.735 280.73 109.735C275.149 109.735 272.478 107.902 271.251 104.828H270.866C268.496 108.047 265.14 109.879 259.859 109.879C253.135 109.879 248.552 105.672 248.552 98.391C248.552 91.3389 252.906 87.5176 261.772 85.8299L270.938 84.0699ZM270.938 102.912V86.0589L268.112 86.288C263.673 86.6737 262.073 89.5066 262.073 95.7872C262.073 102.598 264.286 104.37 267.426 104.37C269.182 104.358 270.181 103.828 270.938 102.912Z" fill="white"/>
<path d="M124.529 84.0699V78.4764C124.529 70.0501 122.7 67.2895 117.491 67.2895C116.878 67.2895 116.349 67.3619 115.735 67.4463L106.485 80.0074H105.185V68.4468C109.155 67.2172 114.123 65.7706 120.703 65.7706C132.011 65.7706 138.591 68.9169 138.591 78.4041V105.672L142.645 106.745V107.818C141.045 108.818 137.833 109.735 134.308 109.735C128.727 109.735 126.056 107.902 124.829 104.828H124.444C122.075 108.047 118.706 109.879 113.437 109.879C106.713 109.879 102.13 105.672 102.13 98.391C102.13 91.3389 106.485 87.5176 115.35 85.8299L124.529 84.0699ZM124.529 102.912V86.0589L121.702 86.288C117.263 86.6737 115.663 89.5066 115.663 95.7872C115.663 102.598 117.876 104.37 121.016 104.37C122.76 104.358 123.759 103.828 124.529 102.912Z" fill="white"/>
</svg>
