<svg xmlns="http://www.w3.org/2000/svg" width="160" height="80" viewBox="0 0 160 80"><path fill="#676767" d="M90.3 18.4C90.3 7.5 87 5.7 83 5.7s-7.1 1.6-7.1 12.7 3.3 12.2 7.1 12.2c4-.2 7.3-1.3 7.3-12.2M75.9 60.2c-5.1 0-6.4 3.8-6.4 6.4 0 4 3.6 7.6 14 7.6 11.8 0 15.1-3.3 15.1-7.6 0-3.8-2.9-6.4-7.6-6.4H75.9zm-9.6-56C52.6 10.4 43 24.2 43 40.4c0 10.9 4.4 20.9 11.6 28v-.7c0-7.1 6.9-9.8 13.1-11.1-5.8-1.3-8.7-5.6-8.7-9.8 0-5.8 6.4-10.7 9.6-12.9l-.4-.2c-5.6-3.1-9.1-8.4-9.1-15.6-.1-5.9 2.6-10.8 7.2-13.9M123 40.6c0-16.4-10-30.7-24.2-36.7 4.7 3.1 7.6 7.8 7.8 14l.2 1.3c0 12-9.8 18.2-23.8 18.2-3.6 0-6-.2-9.1-1.1-1.3.9-2.4 2.4-2.4 4 0 2 1.8 3.6 4 3.6H95c12.2 0 18.2 4.9 18.2 15.8 0 3.6-.7 6.9-2.2 9.6 7.3-7.6 12-17.6 12-28.7"/><circle opacity=".8" fill="#FB0" cx="40" cy="40" r="40"/><path fill="#FFF" d="M120 1c21.5 0 39 17.5 39 39s-17.5 39-39 39-39-17.5-39-39S98.5 1 120 1m0-1C97.9 0 80 17.9 80 40s17.9 40 40 40 40-17.9 40-40-17.9-40-40-40zM27.3 30l-2.7 2.9v14.3l2.8 2.9h16.1V30H27.3m26.1.9l-7.4 7v4.3l7.4 7h2.1V30.9h-2.1"/><path class="inline-guardian-video-logo__title" fill="#FB0" d="M94.2 44.5l2-6.2-1.2-.6v-1h4.4v1l-1.2.6-3.4 9.6h-3.2l-3.3-9.6-1.2-.6v-1h6.5v1l-1.2.6 1.8 6.2zm10.8-8.1h.3v9.9l1.2.6v1h-6.1v-1l1.2-.6v-7.6l-1.3-.6v-1l4.7-.7zm.3-2.6c0 1.1-.9 2-2 2s-2-.9-2-2 .9-2 2-2 2 .9 2 2zm9 .4l-1.2-.6v-1l4.7-.7h.3V46l1.2.7v1l-4.4.5h-.3V47h-.1c-.5.6-1.4 1.2-2.8 1.2-2 0-4.5-1.3-4.5-5.6 0-4.5 2.5-6.1 5.5-6.1.6 0 1.3.1 1.8.5l-.2-2.8zm0 4.2c-.3-.2-.6-.4-1.3-.4-1.2 0-2.1 1.1-2.1 4.2 0 2.8.7 4 2.2 4 .6 0 .9-.1 1.1-.2v-7.6zm9.2 4.3c.2 2.2 1.2 3.2 3.3 3.2 1.4 0 2.2-.1 3-.4v1.1c-.5.7-2.2 1.6-4.3 1.6-3.8 0-5.8-2.1-5.8-5.9 0-3.7 2.2-5.8 5.5-5.8 3.4 0 5 1.5 5 6.2h-6.7zm-.1-1.4l3.1-.2c0-3-.5-3.5-1.4-3.5-1 .1-1.6.7-1.7 3.7zm19.7 1c0 3.8-2.3 5.9-5.7 5.9-3.4 0-5.7-2.1-5.7-5.9 0-3.8 2.3-5.9 5.7-5.9 3.4 0 5.7 2.1 5.7 5.9zm-3.9 0c0-3.7-.6-4.3-1.8-4.3-1.2 0-1.9.6-1.9 4.3 0 3.7.6 4.3 1.9 4.3 1.2.1 1.8-.6 1.8-4.3zm4.7 5.2v-3h1.6l.6 1.9c.3.2 1.2.4 1.8.4 1.1 0 1.8-.2 1.8-1.1 0-.8-.3-1.2-1.5-1.4l-1.4-.3c-2.1-.5-3-2.1-3-3.8 0-2.1 1.5-3.7 4.8-3.7 1.3 0 2.7.2 3.5.6v2.8h-1.6l-.5-1.5c-.3-.1-1-.3-1.6-.3-.9 0-1.5.4-1.5 1.1 0 .7.3 1.1 1.5 1.3l1.3.3c2.2.5 3 1.9 3 3.6 0 2.3-1.5 3.9-5 3.9-1.1-.1-2.7-.3-3.8-.8z"/></svg>