<svg fill="none" xmlns="http://www.w3.org/2000/svg" viewBox="0 0 236 92"><path d="M53.627 41.257l4.038-2.096V7.513h-3.054l-7.46 9.867h-.842l.476-10.999h32.341l.468 10.999h-.885L71.4 7.513h-3.128v31.581l4.063 2.138v1.073H53.627v-1.048zM82.84 39.86V4.783l-3.138-1.248v-.657l11.34-2.03h1.193v16.597l.317-.266c2.512-2.188 6.116-3.594 9.721-3.594 4.965 0 7.159 2.795 7.159 8.003v18.27l2.654 1.44v1.065H97.258v-1.057l2.662-1.448V21.523c0-2.862-1.252-4.01-3.605-4.01-1.569 0-2.92.49-3.921 1.29V39.9l2.611 1.44v1.014H80.17V41.35l2.67-1.49zM120.721 29.086c.309 5.799 2.913 10.283 9.087 10.283 2.987 0 5.107-1.381 7.101-2.43v1.14c-1.544 2.105-5.457 5.059-10.906 5.059-9.57 0-14.46-5.3-14.46-14.485 0-8.977 5.349-14.568 13.993-14.568 8.127 0 12.349 4.052 12.349 14.718v.274h-17.164v.009zm-.158-1.331l8.419-.516c0-7.18-1.235-11.947-3.705-11.947-2.62 0-4.714 5.532-4.714 12.463zM.225 56.349c0-15.267 10.138-20.7 21.427-20.7 4.79 0 9.312.766 11.84 1.814l.217 10.657h-1.076l-6.625-10.307c-1.135-.483-2.211-.674-4.197-.674-6 0-9.07 6.913-8.979 18.253.117 13.56 2.479 19.717 7.986 19.717 1.435 0 2.536-.216 3.304-.549V60.026l-3.638-2.08v-1.215h17.573v1.298l-3.58 1.997V74.36c-2.97 1.157-7.985 2.255-13.275 2.255C8.368 76.615.225 70.683.225 56.35zM37.439 49.227v-.881l11.815-2.08 1.294.108v23.211c0 2.796 1.351 3.661 3.612 3.661 1.46 0 2.78-.549 3.83-1.805V50.625l-3.237-1.398v-.915l11.815-2.08 1.185.109v26.606l3.187 1.33v.85l-11.656 1.43-1.185-.108v-3.494h-.325c-2.162 1.988-5.182 3.71-8.854 3.71-5.665 0-8.26-3.336-8.26-8.394V50.625l-3.221-1.398zM112.127 46.216l.968.108v8.594h.267c1.26-6.298 4.047-8.652 7.443-8.652.542 0 1.135.05 1.46.216v8.794c-.542-.158-1.51-.216-2.428-.216-2.695 0-4.681.482-6.425 1.28v16.99l2.687 1.489v1.098h-15.32v-1.09l2.762-1.49V50.152l-3.237-.965v-.79l11.823-2.18z" fill="#fff"/><path d="M141.799 46.94V37.87l-3.238-1.131v-.724l11.924-2.188 1.135.158V72.93l3.295 1.19v1.007l-11.765 1.58-.918-.108v-3.22h-.267c-1.727 1.723-4.105 3.278-7.826 3.278-6.425 0-11.115-4.891-11.115-14.9 0-10.55 5.449-15.732 13.71-15.732 2.361 0 4.147.432 5.065.915zm-.025 24.934V48.595c-.76-.482-1.302-1.081-3.263-1.015-3.187.109-5.157 4.917-5.157 13.47 0 7.696 1.419 11.997 5.666 11.855 1.193-.041 2.161-.466 2.754-1.031zM168.016 46.19l1.026.109V73.32l2.695 1.489v1.098h-15.32v-1.09l2.754-1.489V50.567l-3.296-1.29v-.898l12.141-2.188zm1.084-7.296c0 2.854-2.428 5-5.231 5-2.912 0-5.182-2.154-5.182-5 0-2.853 2.27-5.058 5.182-5.058 2.803 0 5.231 2.205 5.231 5.058zM205.155 73.33V50.316l-3.238-1.131V48.07l11.766-2.188 1.184.108v3.444h.326c2.537-2.263 6.316-3.71 10.038-3.71 5.123 0 7.393 2.42 7.393 7.803V73.28l2.745 1.53v1.1h-15.32v-1.09l2.754-1.49V54.07c0-2.962-1.294-4.143-3.722-4.143-1.568 0-2.853.4-4.047 1.281v22.114l2.696 1.489v1.098h-15.329v-1.09l2.754-1.489zM188.158 58.87v-3.86c0-5.816-1.268-7.721-4.873-7.721-.425 0-.792.05-1.218.108l-6.417 8.669h-.901v-7.979c2.754-.848 6.2-1.847 10.764-1.847 7.844 0 12.408 2.172 12.408 8.72v18.818l2.812.74v.741c-1.11.69-3.338 1.323-5.783 1.323-3.871 0-5.724-1.265-6.575-3.386h-.267c-1.644 2.221-3.972 3.486-7.635 3.486-4.664 0-7.843-2.904-7.843-7.929 0-4.867 3.02-7.504 9.17-8.669l6.358-1.215zm0 13.003v-11.63l-1.961.157c-3.079.266-4.188 2.221-4.188 6.556 0 4.7 1.535 5.924 3.713 5.924 1.218-.009 1.911-.375 2.436-1.007zM86.603 58.87v-3.86c0-5.816-1.269-7.721-4.882-7.721-.425 0-.792.05-1.218.108l-6.416 8.669h-.902v-7.979c2.754-.848 6.2-1.847 10.764-1.847 7.844 0 12.408 2.172 12.408 8.72v18.818l2.812.74v.741c-1.11.69-3.338 1.323-5.783 1.323-3.871 0-5.724-1.265-6.575-3.386h-.267c-1.644 2.221-3.98 3.486-7.635 3.486-4.664 0-7.843-2.904-7.843-7.929 0-4.867 3.02-7.504 9.17-8.669l6.367-1.215zm0 13.003v-11.63l-1.961.157c-3.08.266-4.189 2.221-4.189 6.556 0 4.7 1.535 5.924 3.713 5.924 1.21-.009 1.903-.375 2.437-1.007z" fill="#fff"/><path d="M194.942 41.323h-4.748v-.033l1.586-.832c2.094-1.098 3.095-2.096 3.095-3.594 0-1.506-1.093-2.288-3.012-2.288-1.009 0-1.952.142-2.628.408l-.059 2.42h.201l1.794-2.595c.984 0 1.418.732 1.418 2.022 0 1.273-.526 2.363-1.836 3.61l-1.702 1.614v1.024h5.733l.158-1.756zM199.039 43.212c1.986 0 3.638-1.448 3.638-4.351 0-2.887-1.618-4.293-3.563-4.293-1.969 0-3.696 1.414-3.696 4.36.008 2.82 1.669 4.284 3.621 4.284zm.034-.208c-.851 0-1.16-1.331-1.16-4.16 0-2.729.325-4.06 1.151-4.06.851 0 1.127 1.298 1.127 4.177 0 2.72-.276 4.043-1.118 4.043zM206.899 43.212c1.986 0 3.638-1.448 3.638-4.351 0-2.887-1.619-4.293-3.563-4.293-1.969 0-3.696 1.414-3.696 4.36.008 2.82 1.669 4.284 3.621 4.284zm.034-.208c-.852 0-1.16-1.331-1.16-4.16 0-2.729.325-4.06 1.151-4.06.851 0 1.127 1.298 1.127 4.177 0 2.72-.276 4.043-1.118 4.043z" fill="#FFE604"/><path d="M175.634 36.157c.367-1.223.384-1.38-.284-1.539l-.225-.05c-.075-.108-.058-.274.075-.324.409.025.826.041 1.335.041h2.303c.793 0 1.385 0 1.744-.041a36.3 36.3 0 00-.509 1.738c-.05.109-.275.092-.309-.016.075-.682.109-1.007-.434-1.165-.283-.075-.667-.116-1.31-.116h-.684c-.35 0-.35.041-.467.44l-.851 2.854c-.084.275-.059.325.2.325h.851c1.177 0 1.41-.092 1.694-.641l.209-.408c.058-.075.3-.066.325.025-.083.233-.275.757-.417 1.24-.15.482-.276.982-.326 1.306-.075.092-.233.075-.325 0l.008-.5c.009-.432-.258-.573-1.276-.573h-.918c-.276 0-.301.041-.392.366l-.543 1.88c-.35 1.215-.392 1.498.234 1.556l.484.041c.075.092.033.275-.05.325-.718-.025-1.152-.042-1.686-.042a26 26 0 00-1.402.042c-.1-.067-.1-.25-.008-.325l.384-.041c.592-.067.718-.225 1.11-1.556l1.46-4.842zM181.116 38.586c-.718 1.015-1.201 2.571-1.235 3.262-.025.457.15.831.509.831.275 0 .584-.116.976-.682.543-.773 1.127-2.495 1.152-3.186.008-.408-.059-.857-.492-.857-.259.008-.551.125-.91.632zm2.253.624c-.033.716-.392 1.972-1.31 2.962-.768.832-1.435.899-1.769.899-.793 0-1.31-.616-1.235-1.74.05-.806.509-2.07 1.352-2.92.642-.648 1.201-.848 1.71-.848.868.008 1.302.699 1.252 1.647zM185.814 38.81l-.535 1.648h.059c.367-.732.976-1.772 1.302-2.204.283-.392.592-.683.901-.683.434 0 .492.441.492.64 0 .2-.108.575-.259.783-.15.2-.342.208-.392-.067-.058-.34-.133-.507-.258-.507-.109 0-.251.133-.434.39-.751 1.016-1.444 2.613-2.103 4.11-.05.109-.109.159-.209.159-.133 0-.492-.05-.409-.341.159-.524.943-2.829 1.277-4.11.033-.142.008-.275-.1-.275-.325 0-.659.366-.876.682-.125.026-.209-.05-.2-.207.392-.708.867-1.257 1.46-1.257.617 0 .4.882.284 1.24zM213.916 39.277c.009.832-.008 1.789-.183 2.87h.05c.409-.64.768-1.447 1.043-2.246.259-.757.442-2.072.459-2.413.025-.374.208-.407.3-.407.084 0 .251.05.351.116.075.05.108.117.108.258.008.325-.325 2.013-1.435 3.977-.609 1.081-1.051 1.947-2.044 3.128-.918 1.106-1.536 1.314-1.928 1.314-.392 0-.642-.274-.642-.599 0-.324.225-.557.492-.557.125 0 .25.075.334.208.033.067.15.233.342.233.158 0 .384-.108.684-.366.309-.275.851-1.098 1.085-1.955.175-.666.258-1.864.25-2.979-.025-1.447-.234-1.955-.467-1.955-.251 0-.459.441-.718.99-.133.042-.208-.05-.233-.166.258-.874.801-1.68 1.41-1.68.617.008.717 1.314.742 2.229zM218.063 38.087a5.312 5.312 0 00-.917 1.522c.817-.258 1.201-.507 1.66-.965.384-.374.484-.773.484-.89 0-.133-.058-.3-.284-.3-.175.009-.5.125-.943.633zm1.961-.241c0 .99-1.226 1.647-3.004 2.163-.083.224-.175.64-.175 1.164 0 .441.259.74.593.74.442 0 .751-.257 1.301-.756.109 0 .184.108.159.225-.751.981-1.46 1.19-1.978 1.19-.742 0-1.001-.733-1.001-1.374 0-.823.492-2.412 1.844-3.51.642-.525 1.126-.624 1.485-.624.493-.009.776.44.776.782zM222.169 38.245c-.793.74-1.544 2.455-1.544 3.378 0 .158.075.25.184.25.125 0 .492-.167 1.202-.849.942-.923 1.46-2.046 1.66-2.82-.083-.25-.3-.466-.617-.466-.301 0-.501.141-.885.508zm2.153-1.489c.208-.108.534.025.609.2-.184.482-1.26 3.37-1.661 4.55-.075.225-.008.3.084.3.208 0 .567-.224 1.277-.873.083 0 .175.066.175.166-.518.732-1.402 1.464-2.078 1.464-.284 0-.359-.25-.359-.35 0-.09.025-.207.125-.507l.409-1.173-.033-.016c-.876 1.148-2.136 2.046-2.72 2.046-.351 0-.543-.366-.543-.732 0-.3.276-1.348 1.085-2.529.593-.865 1.127-1.381 1.636-1.68.484-.292.792-.383 1.109-.383.134 0 .226.041.301.075a.75.75 0 01.25.274l.334-.832zM227.167 38.295l-.534 1.648h.058c.368-.733.977-1.773 1.302-2.205.284-.391.593-.682.901-.682.434 0 .493.44.493.64s-.109.574-.259.782c-.15.2-.351.208-.392-.066-.059-.341-.134-.508-.259-.508-.108 0-.25.133-.434.391-.751 1.015-1.443 2.613-2.103 4.11-.05.108-.108.158-.208.158-.134 0-.492-.05-.409-.34.159-.525.943-2.83 1.277-4.11.033-.142.008-.275-.1-.275-.326 0-.66.366-.877.682-.125.025-.208-.05-.2-.208.392-.707.868-1.256 1.46-1.256.618 0 .392.89.284 1.24zM231.99 37.804c0 .208-.125.35-.226.408-.083.025-.158 0-.233-.109-.209-.224-.367-.415-.751-.415-.359 0-.509.324-.509.524 0 .274.058.549.417 1.19.309.548.492.873.467 1.447-.008.35-.183.832-.642 1.256-.317.3-.776.466-1.252.466-.467 0-.751-.39-.751-.69 0-.133.05-.275.184-.433a.238.238 0 01.334 0c.158.191.534.524.851.524.3 0 .592-.324.592-.74 0-.225-.15-.624-.459-1.148-.325-.55-.434-.99-.434-1.215 0-.508.209-.89.743-1.373.359-.324.751-.432.918-.432.467-.009.751.416.751.74z" fill="#fff"/><path d="M58.107 79.478h1.761l2.311 3.993c.726 1.248 1.536 3.095 1.536 3.095h.041s-.125-1.939-.125-3.245v-3.843h1.427v9.176h-1.544l-2.536-4.443c-.718-1.248-1.535-3.128-1.535-3.128h-.05s.15 1.997.15 3.287v4.292h-1.427v-9.184h-.009zM66.535 85.542v-.624c0-2.238 1.302-3.27 3.03-3.27 2.002 0 2.836 1.032 2.836 3.17v.849h-4.28c.041 1.53.692 1.855 2.002 1.855.893 0 1.469-.2 2.053-.483v1.107c-.46.291-1.202.64-2.362.64-2.236 0-3.279-1.14-3.279-3.244zm1.569-.957h2.753c0-1.372-.459-1.797-1.318-1.797-.692 0-1.393.308-1.435 1.797zM73.018 81.773h1.594l.609 2.546c.267 1.098.559 3.212.559 3.212h.05s.292-2.089.6-3.212l.693-2.546H78.5l.693 2.546c.292 1.098.642 3.212.642 3.212h.05s.284-2.089.55-3.212l.602-2.546h1.393l-1.852 6.89h-1.56l-.776-2.805c-.293-1.031-.476-2.878-.476-2.878h-.05s-.167 1.847-.46 2.878l-.775 2.804h-1.594l-1.869-6.889zM83.115 88.33v-1.224c.576.233 1.06.416 2.019.416.918 0 1.285-.266 1.285-.765 0-.458-.125-.674-.885-.857l-.75-.175c-1.018-.241-1.66-.765-1.66-1.997 0-1.272.792-2.088 2.486-2.088.918 0 1.51.166 1.952.383v1.198a4.809 4.809 0 00-1.81-.341c-.776 0-1.177.258-1.177.74 0 .458.217.65.818.79l.75.175c1.319.308 1.778.84 1.778 2.047 0 1.414-.918 2.138-2.595 2.138-.86 0-1.652-.15-2.211-.44zM91.717 81.773h1.594l.61 2.546c.266 1.098.558 3.212.558 3.212h.05s.292-2.089.601-3.212l.693-2.546h1.376l.693 2.546c.292 1.098.642 3.212.642 3.212h.05s.284-2.089.551-3.212l.6-2.546h1.394l-1.852 6.89h-1.56l-.776-2.805c-.292-1.031-.476-2.878-.476-2.878h-.05s-.167 1.847-.459 2.878l-.776 2.804h-1.594l-1.869-6.889zM101.839 85.542v-.624c0-2.238 1.302-3.27 3.029-3.27 2.002 0 2.837 1.032 2.837 3.17v.849h-4.281c.042 1.53.693 1.855 2.003 1.855.893 0 1.468-.2 2.052-.483v1.107c-.458.291-1.201.64-2.361.64-2.236 0-3.279-1.14-3.279-3.244zm1.569-.957h2.753c0-1.372-.459-1.797-1.318-1.797-.693 0-1.402.308-1.435 1.797zM108.948 88.263V78.87h1.535v3.503h.067a2.827 2.827 0 011.952-.724c1.252 0 2.529.724 2.529 3.128v.557c0 2.355-1.16 3.478-3.396 3.478-.977 0-2.053-.233-2.687-.55zm4.481-2.712v-.64c0-1.606-.509-1.998-1.661-1.998-.534 0-1.018.2-1.293.341v4.102c.258.125.584.266 1.235.266.901 0 1.719-.34 1.719-2.071zM115.94 88.33v-1.224c.576.233 1.06.416 2.02.416.918 0 1.285-.266 1.285-.765 0-.458-.125-.674-.876-.857l-.751-.175c-1.018-.241-1.661-.765-1.661-1.997 0-1.272.793-2.088 2.487-2.088.917 0 1.51.166 1.952.383v1.198a4.81 4.81 0 00-1.811-.341c-.776 0-1.176.258-1.176.74 0 .458.217.65.818.79l.751.175c1.318.308 1.777.84 1.777 2.047 0 1.414-.918 2.138-2.595 2.138-.868 0-1.661-.15-2.22-.44zM121.915 79.086h1.585v1.464h-1.585v-1.464zm.025 2.687h1.535v6.889h-1.535v-6.889zM125.611 86.99v-4.01h-1.135v-1.207h1.135V80.11h1.535v1.664h1.777v1.207h-1.777v3.768c0 .6.2.774.86.774.283 0 .767-.075 1.009-.175v1.04c-.283.175-.843.358-1.51.358-1.152 0-1.894-.433-1.894-1.755zM129.8 85.542v-.624c0-2.238 1.301-3.27 3.029-3.27 2.002 0 2.837 1.032 2.837 3.17v.849h-4.281c.042 1.53.693 1.855 2.003 1.855.893 0 1.468-.2 2.052-.483v1.107c-.459.291-1.201.64-2.361.64-2.236 0-3.279-1.14-3.279-3.244zm1.568-.957h2.754c0-1.372-.459-1.797-1.318-1.797-.693 0-1.394.308-1.436 1.797zM139.771 85.542v-.582c0-2.163 1.352-3.312 3.162-3.312 1.953 0 3.113 1.124 3.113 3.245v.582c0 2.189-1.327 3.312-3.129 3.312-1.978 0-3.146-1.14-3.146-3.245zm4.681.058v-.699c0-1.722-.693-2.071-1.544-2.071-.959 0-1.543.599-1.543 2.013v.716c0 1.689.701 2.046 1.585 2.046.951-.008 1.502-.566 1.502-2.005zM147.831 82.98h-1.126v-1.207h1.126v-.848c0-1.506.918-2.163 2.211-2.163.626 0 1.102.116 1.327.241v1.073c-.175-.05-.534-.1-.918-.1-.701 0-1.085.317-1.085 1.099v.715h1.644v1.206h-1.644v5.674h-1.535v-5.69zM155.808 86.99v-4.01h-1.135v-1.207h1.135V80.11h1.535v1.664h1.778v1.207h-1.778v3.768c0 .6.201.774.86.774.284 0 .768-.075 1.009-.175v1.04c-.283.175-.842.358-1.51.358-1.151 0-1.894-.433-1.894-1.755zM160.289 78.87h1.535v3.602h.067c.484-.474 1.293-.823 2.12-.823 1.276 0 1.919.557 1.919 1.897v5.116h-1.536v-4.734c0-.69-.217-.965-1.101-.965-.501 0-1.076.167-1.469.366v5.333h-1.535V78.87zM167.173 85.542v-.624c0-2.238 1.302-3.27 3.029-3.27 2.002 0 2.837 1.032 2.837 3.17v.849h-4.281c.042 1.53.693 1.855 2.003 1.855.893 0 1.468-.2 2.052-.483v1.107c-.459.291-1.201.64-2.361.64-2.236 0-3.279-1.14-3.279-3.244zm1.569-.957h2.753c0-1.372-.459-1.797-1.318-1.797-.701 0-1.402.308-1.435 1.797zM177.06 91.075v-1.082c.176.042.434.067.676.067.609 0 .993-.242 1.235-.89l.242-.65-2.403-6.747h1.619l.751 2.238c.484 1.423.792 3.32.792 3.32h.042s.342-1.897.801-3.32l.718-2.238h1.518l-2.645 7.638c-.45 1.298-1.101 1.88-2.336 1.88-.35 0-.809-.091-1.01-.216zM183.527 85.542v-.624c0-2.238 1.302-3.27 3.029-3.27 2.003 0 2.837 1.032 2.837 3.17v.849h-4.28c.041 1.53.692 1.855 2.002 1.855.893 0 1.469-.2 2.053-.483v1.107c-.459.291-1.202.64-2.361.64-2.228 0-3.28-1.14-3.28-3.244zm1.577-.957h2.754c0-1.372-.459-1.797-1.318-1.797-.701 0-1.402.308-1.436 1.797zM190.228 86.807c0-1.273.792-1.872 2.136-2.039l1.535-.2v-.523c0-.882-.359-1.107-1.494-1.107-.651 0-1.235.1-1.643.191v-1.106c.625-.258 1.368-.383 2.244-.383 1.544 0 2.428.608 2.428 2.063v4.95h-1.26l-.125-.69h-.075c-.317.45-.826.815-1.685.815-1.227.009-2.061-.632-2.061-1.971zm3.663.474v-1.747l-1.185.116c-.651.067-.943.416-.943 1.082 0 .665.384.94.984.94.468.008.893-.158 1.144-.391zM196.97 81.774h1.468v.94h.075c.343-.574 1.102-1.04 1.803-1.04.192 0 .359.025.409.066v1.398a3.745 3.745 0 00-.534-.05c-.601 0-1.26.2-1.686.474v5.109h-1.535v-6.897z" fill="#F9E44C"/></svg>
