<svg xmlns="http://www.w3.org/2000/svg" width="108" height="35"><path d="M24 18.6l1.9-1V3.1h-1.4l-3.4 4.5h-.4l.2-5h14.8l.2 5h-.4l-3.3-4.5h-1.5v14.5l1.9 1v.5H24zm13.7-.6V1.7l-1.5-.6V1l5.2-.9h.5v7.6h.2c1.1-1 2.8-1.7 4.4-1.7 2.3 0 3.3 1.2 3.3 3.6V18l1.2.7v.5h-6.8v-.5l1.2-.7V9.5c0-1.3-.5-1.8-1.6-1.8-.7 0-1.3.2-1.8.6V18l1.2.6v.5h-6.8v-.5l1.3-.7zM55 13c.1 2.7 1.3 4.7 4.1 4.7 1.4 0 2.4-.6 3.3-1v.4c-.7 1-2.5 2.4-5 2.4-4.4 0-6.6-2.5-6.6-6.7 0-4.1 2.5-6.7 6.4-6.7 3.7 0 5.6 1.9 5.6 6.8H55zm0-.6l3.8-.3c0-3.3-.6-5.5-1.7-5.5-1.2 0-2.2 2.6-2.2 5.8zM0 25.5c0-7 4.6-9.5 9.8-9.5 2.2 0 4.2.4 5.4.8v5h-.4l-3-4.8c-.6-.2-1-.3-2-.3-2.7 0-4 3.2-4 8.4 0 6.2 1 9 3.6 9 .6 0 1.1 0 1.5-.2v-6.7l-1.7-1v-.5h8v.6l-1.6 1v6.5c-1.3.6-3.6 1-6 1-5.9 0-9.6-2.7-9.6-9.3m16.9-3.2v-.4l5.4-1h.6v10.7c0 1.3.6 1.7 1.6 1.7.7 0 1.3-.2 1.8-.8v-9.6l-1.5-.6v-.5l5.4-1 .5.1v12.3l1.5.6v.4l-5.3.6h-.6v-1.6h-.1a6 6 0 0 1-4 1.7c-2.6 0-3.8-1.6-3.8-3.9v-8l-1.5-.6zm34.4-1.4h.5v4c.7-3 2-4 3.5-4l.6.1v4h-1c-1.3 0-2.2.2-3 .5v7.8l1.2.7v.5h-7V34l1.3-.7V22.7l-1.5-.5V22l5.4-1zm13.9.3V17l-1.5-.5v-.3l5.4-1h.6v18l1.5.5v.5l-5.4.7h-.4v-1.5h-.1a5 5 0 0 1-3.6 1.5c-3 0-5-2.3-5-6.9 0-4.8 2.4-7.2 6.2-7.2 1 0 1.9.2 2.3.4m0 11.5V22c-.4-.3-.6-.5-1.5-.5-1.5 0-2.4 2.3-2.4 6.2 0 3.5.7 5.5 2.6 5.5.6 0 1-.3 1.3-.5m12.2-11.8h.4v12.4l1.3.7v.5h-7V34l1.2-.7V23l-1.5-.6V22l5.6-1zm.5-3.4c0 1.3-1.1 2.3-2.4 2.3-1.3 0-2.4-1-2.4-2.3 0-1.3 1-2.3 2.4-2.3 1.3 0 2.4 1 2.4 2.3zm16.3 15.8V22.8l-1.5-.6v-.5l5.4-1h.5v1.7h.2a7 7 0 0 1 4.6-1.8c2.3 0 3.3 1.2 3.3 3.6v9.1l1.3.7v.5h-7V34l1.3-.7v-8.8c0-1.4-.6-2-1.7-2a3 3 0 0 0-1.9.7v10.1l1.3.7v.5h-7V34l1.2-.7zm-8-6.6v-1.8c0-2.7-.5-3.5-2.1-3.5h-.6l-3 4h-.3v-3.7a15 15 0 0 1 4.9-.8c3.6 0 5.6 1 5.6 4v8.7l1.3.3v.3c-.5.4-1.5.6-2.6.6-1.8 0-2.6-.5-3-1.5h-.1a4 4 0 0 1-3.5 1.6c-2.1 0-3.6-1.3-3.6-3.7 0-2.2 1.4-3.4 4.2-4l2.9-.5zm0 6v-5.4l-.8.1c-1.4.1-2 1-2 3 0 2.2.8 2.7 1.8 2.7.5 0 .8-.1 1-.4zm-46.6-6v-1.8c0-2.7-.6-3.5-2.2-3.5h-.6l-2.9 4h-.4v-3.7a15 15 0 0 1 4.9-.8c3.6 0 5.7 1 5.7 4v8.7l1.2.3v.3c-.5.4-1.5.6-2.6.6-1.8 0-2.6-.5-3-1.5h-.1a4 4 0 0 1-3.5 1.6c-2.1 0-3.6-1.3-3.6-3.7 0-2.2 1.4-3.4 4.2-4l2.9-.5zm0 6v-5.4l-.9.1c-1.4.1-1.9 1-1.9 3 0 2.2.7 2.7 1.7 2.7.5 0 .9-.1 1.1-.4z" fill="#FFF"/></svg>