<svg xmlns="http://www.w3.org/2000/svg" width="320" height="103" viewBox="0 0 320 103">
  <g fill="#FFF">
    <polygon points="71.267 54.733 76.721 51.896 76.721 9.024 72.598 9.024 62.516 22.392 61.383 22.392 62.019 7.495 105.723 7.495 106.358 22.392 105.155 22.392 95.283 9.024 91.054 9.024 91.054 51.803 96.544 54.699 96.544 56.145 71.267 56.145"/>
    <path d="M111.578585 52.8353868L111.578585 5.33146082 107.341785 3.63794954 107.341785 2.75330885 122.670277 0 124.287015 0 124.287015 22.4771554 124.7104 22.1179854C128.099446 19.1540946 132.970338 17.2490175 137.842215 17.2490175 144.5504 17.2490175 147.515077 21.0326031 147.515077 28.0900481L147.515077 52.8353868 151.098092 54.7857292 151.100062 56.2253614 131.065108 56.2253614 131.065108 54.7936014 134.665846 52.8363708 134.665846 28.0093578C134.665846 24.1283535 132.970338 22.5765422 129.793969 22.5765422 127.676062 22.5765422 125.8496 23.2397767 124.498708 24.324175L124.498708 52.9032847 128.028554 54.8516591 128.028554 56.2253614 107.9808 56.2253614 107.9808 54.8595313 111.578585 52.8353868zM162.966646 38.2481636C163.382154 46.0997188 166.901169 52.1760884 175.243815 52.1760884 179.274831 52.1760884 182.138092 50.3084042 184.835938 48.8864845L184.835938 50.4323917C182.751508 53.2801672 177.467077 57.284175 170.098215 57.284175 157.169231 57.284175 150.565415 50.1007744 150.565415 37.6646353 150.565415 25.50796 157.795446 17.9368527 169.472985 17.9368527 180.456369 17.9368527 186.156308 23.4237898 186.156308 37.8742332L186.156308 38.2471796 162.966646 38.2471796 162.966646 38.2481636zM162.756923 36.4395211L174.130215 35.7447977C174.130215 26.0176862 172.463262 19.562466 169.1264 19.562466 165.5808 19.561482 162.756923 27.0607553 162.756923 36.4395211L162.756923 36.4395211zM0 75.1708422C0 54.4944571 13.6930462 47.1329476 28.9486769 47.1329476 35.4225231 47.1329476 41.5251692 48.1740487 44.9476923 49.5871121L45.2460308 64.0159069 43.7907692 64.0159069 34.8347077 50.0545252C33.3006769 49.3962108 31.8464 49.1383956 29.1672615 49.1383956 21.0550154 49.1383956 16.9117538 58.5014169 17.0417231 73.8551975 17.1963077 92.2260063 20.3904 100.563671 27.8321231 100.563671 29.7668923 100.563671 31.2556308 100.265511 32.2973538 99.8197462L32.2973538 80.1529733 27.3860923 77.3406228 27.3860923 75.6913927 51.1261538 75.6913927 51.1261538 77.4478818 46.2867692 80.1529733 46.2867692 99.5658671C42.2695385 101.128503 35.4973538 102.615368 28.3529846 102.615368 11.0139077 102.614384 0 94.5827521 0 75.1708422M50.0873846 65.5214689L50.0873846 64.3288276 66.0568615 61.5154931 67.8065231 61.6611291 67.8065231 93.1017907C67.8065231 96.8922645 69.6300308 98.056369 72.6921846 98.056369 74.6604308 98.056369 76.4435692 97.3075241 77.8692923 95.6140128L77.8692923 67.4157217 73.4936615 65.5214689 73.4936615 64.2825783 89.4631385 61.4692438 91.0680615 61.6138958 91.0680615 97.6529177 95.3698462 99.4586082 95.3698462 100.605 79.6189538 102.540582 78.0150154 102.394946 78.0150154 97.6598059 77.5768615 97.6598059C74.6604308 100.355057 70.5772308 102.687202 65.6187077 102.687202 57.9623385 102.687202 54.4620308 98.1685481 54.4620308 91.3187329L54.4620308 67.4157217 50.0873846 65.5214689zM152.072862 61.4485792L153.385354 61.5932312 153.381415 73.2323081 153.745723 73.2323081C155.451077 64.6988219 159.214277 61.5154931 163.808492 61.5154931 164.538092 61.5154931 165.339569 61.5873271 165.776738 61.8087332L165.776738 73.7154656C165.047138 73.4970115 163.735631 73.4241935 162.496 73.4241935 158.849969 73.4241935 156.169846 74.0825078 153.818585 75.1570658L153.822523 98.1616599 157.4528 100.17498 157.453785 101.668734 136.750277 101.668734 136.750277 100.189741 140.479015 98.1665801 140.479015 66.778072 136.103385 65.4742356 136.103385 64.4085338 152.072862 61.4485792zM193.145108 62.4296546L193.145108 50.1529279 188.770462 48.6217812 188.770462 47.6387377 204.885662 44.6777991 206.416738 44.8972372 206.416738 97.6371733 210.865231 99.2509784 210.865231 100.60992 194.968615 102.753132 193.729969 102.607496 193.729969 98.2433342 193.364677 98.2433342C191.032123 100.573511 187.822277 102.688186 182.792862 102.688186 174.115446 102.688186 167.770585 96.0568252 167.770585 82.5028309 167.770585 68.2167201 175.134523 61.191748 186.292185 61.191748 189.499077 61.190764 191.905477 61.7742923 193.145108 62.4296546M193.122462 96.1965571L193.122462 64.6702851C192.1024 64.0149228 191.363938 63.2050682 188.718277 63.2965828 184.408615 63.449107 181.7472 69.9525446 181.7472 81.539468 181.7472 91.9593348 183.660308 97.7847774 189.403569 97.5928921 191.007508 97.5397546 192.320985 96.9660666 193.122462 96.1965571M229.263754 61.4121702L230.649108 61.5587903 230.649108 98.1616599 234.289231 100.17498 234.2912 101.66775 213.587692 101.66775 213.587692 100.187773 217.304615 98.1655961 217.304615 67.3429037 212.856123 65.5942869 212.856123 64.3731088 229.263754 61.4121702zM230.722954 51.5295823C230.722954 55.3928742 227.441231 58.3075635 223.648492 58.3075635 219.712 58.3075635 216.648862 55.3928742 216.648862 51.5295823 216.648862 47.6672745 219.712 44.6787831 223.648492 44.6787831 227.441231 44.6787831 230.722954 47.6672745 230.722954 51.5295823L230.722954 51.5295823zM279.169969 98.1655961L279.169969 67.0043983 274.795323 65.4742356 274.795323 63.9627694 290.691938 61.0028147 292.295877 61.1474668 292.295877 65.811757 292.733046 65.811757C296.160492 62.7514316 301.265723 60.7833766 306.295138 60.7833766 313.223877 60.7833766 316.285046 64.0621561 316.285046 71.3498636L316.285046 98.1036023 319.998031 100.173012 319.998031 101.665782 299.295508 101.665782 299.295508 100.186788 303.013415 98.164612 303.013415 72.0800119C303.013415 68.071084 301.264738 66.4690873 297.983015 66.4690873 295.868062 66.4690873 294.124308 67.0043983 292.513477 68.2078639L292.513477 98.1547718 296.159508 100.17498 296.159508 101.66775 275.448123 101.66775 275.448123 100.188757 279.169969 98.1655961zM255.666215 78.5814814L255.666215 73.3553115C255.666215 65.4801397 253.948062 62.9029718 249.076185 62.9029718 248.505108 62.9029718 248.002954 62.9748058 247.428923 63.0466398L238.761354 74.7870715 237.545354 74.7870715 237.545354 63.9785138C241.269169 62.8331058 245.924431 61.4721959 252.085169 61.4721959 262.687508 61.4721959 268.847262 64.4075498 268.847262 73.2844616L268.847262 98.7697889 272.642954 99.7725129 272.642954 100.774253C271.138462 101.705143 268.129477 102.564199 264.834954 102.564199 259.605662 102.564199 257.098831 100.846087 255.952738 97.982567L255.595323 97.982567C253.374031 100.988771 250.222277 102.707867 245.280492 102.707867 238.976985 102.707867 234.679138 98.770773 234.679138 91.9691751 234.679138 85.3840633 238.761354 81.8031873 247.071508 80.2287434L255.666215 78.5814814zM255.666215 96.191637L255.666215 80.4442454 253.016615 80.6577794C248.860554 81.0159654 247.357046 83.6659513 247.357046 89.5346911 247.357046 95.906269 249.435569 97.5515629 252.372677 97.5515629 254.019938 97.5515629 254.951385 97.0506929 255.666215 96.191637L255.666215 96.191637zM117.341538 78.5814814L117.341538 73.3553115C117.341538 65.4801397 115.623385 62.9029718 110.751508 62.9029718 110.179446 62.9029718 109.678277 62.9748058 109.104246 63.0466398L100.436677 74.7870715 99.2196923 74.7870715 99.2196923 63.9785138C102.944492 62.8331058 107.599754 61.4721959 113.759508 61.4721959 124.361846 61.4721959 130.5216 64.4075498 130.5216 73.2844616L130.5216 98.7697889 134.318277 99.7725129 134.318277 100.774253C132.813785 101.705143 129.8048 102.564199 126.510277 102.564199 121.281969 102.564199 118.774154 100.846087 117.628062 97.982567L117.269662 97.982567C115.049354 100.988771 111.8976 102.707867 106.955815 102.707867 100.652308 102.707867 96.3544615 98.770773 96.3544615 91.9691751 96.3544615 85.3840633 100.436677 81.8031873 108.746831 80.2287434L117.341538 78.5814814zM117.341538 96.191637L117.341538 80.4442454 114.691938 80.6577794C110.535877 81.0159654 109.032369 83.6659513 109.032369 89.5346911 109.032369 95.906269 111.110892 97.5515629 114.047015 97.5515629 115.693292 97.5515629 116.625723 97.0506929 117.341538 96.191637L117.341538 96.191637z"/>
  </g>
</svg>
