<svg xmlns="http://www.w3.org/2000/svg" width="107.7" height="20.1"><path fill="#AADCE6" d="M1.5 6.8h-1.5v-1.5l1.5-.3v-1.9l3.3-.4v2.3h2.2v1.7h-2.1v5.3c0 1 .3 1.5 1.2 1.5.4 0 .8 0 1.1-.1v1.3c-.6.3-1.7.6-2.7.6-2 0-2.9-.9-2.9-3l-.1-5.5zm5.9 7.4l1.1-.5v-11.2l-1.2-.5v-.9l4.2-.7h.3v5.6h.1c.9-.8 2.1-1.3 3.5-1.3 1.7 0 2.5.8 2.5 2.7v6.2l1.1.5v.9h-5.5v-.9l1.1-.5v-5.4c0-1-.4-1.4-1.4-1.4-.5 0-1 .1-1.4.3v6.6l1.1.5v.9h-5.5v-.9zm15.4-3.8c.2 2 1.1 2.9 2.9 2.9 1.3 0 2-.1 2.7-.4v1c-.5.6-2 1.5-3.8 1.5-3.5 0-5.2-1.9-5.2-5.3 0-3.3 2-5.3 4.9-5.3 3 0 4.5 1.3 4.5 5.6h-6zm0-1.2l2.8-.2c0-2.7-.5-3.1-1.3-3.1-.9 0-1.5.6-1.5 3.3z"/><path fill="#fff" d="M39.3 15.8c0 2.4-1.7 3.9-5.7 3.9-3.2 0-5.1-1-5.1-2.4 0-1.3 1.3-1.7 2.4-1.9v-.1c-1.1-.2-1.6-1-1.6-1.8 0-1.1 1.1-1.9 1.7-2.3v-.1c-1-.6-1.7-1.5-1.7-2.9 0-2.2 1.8-3.5 4.4-3.5.8 0 1.7.3 2.3.5h.2l2.6-.5h.2v2h-.2l-1.7-.6v.1c.6.6 1 1.1 1 2.1 0 2.2-1.8 3.4-4.4 3.4-.7 0-1.1 0-1.7-.2-.3.2-.5.5-.5.7 0 .4.3.6.7.6h3.8c2.2.1 3.3 1 3.3 3zm-2.9.9c0-.5-.4-.8-1.2-.8h-3.5c-.3.3-.4.6-.4 1.1 0 .7.6 1.4 2.5 1.4 2 0 2.6-.6 2.6-1.7zm-3.8-8.5c0 2.1.5 2.2 1.2 2.2s1.2-.2 1.2-2.2-.5-2.3-1.2-2.3-1.2.3-1.2 2.3zm7.8-1.3l-1.2-.5v-1l4.2-.7h.3v7.1c0 1.1.6 1.4 1.4 1.4.6 0 .9-.1 1.2-.2v-6.1l-1.1-.5v-1l4.2-.7h.3v8.6l1.1.6v.9l-4.1.4h-.3v-1.2h-.1c-.7.8-1.7 1.4-3.1 1.4-2 0-2.9-1.5-2.9-3.2l.1-5.3zm13 1.3h-1.6v-2.7c1-.3 2.1-.8 3.8-.8 2.7 0 4.3.8 4.3 3.1v5.9l1.1.5v.8c-.3.2-1.1.4-1.9.4-1 0-2-.4-2.1-1.4h-.1c-.4.9-1.6 1.4-2.9 1.4-1.8 0-2.9-1.1-2.9-2.8 0-2.1 1.3-2.5 3.6-2.9l1.9-.3v-1.4c0-1.3-.4-1.9-1.7-1.9h-.9l-.6 2.1zm3.2 2.2l-.8.1c-.8.1-1.4.6-1.4 1.6 0 1.1.6 1.5 1.3 1.5.4 0 .7-.2.9-.4v-2.8zm8.7-5.7h.3v2.1h.1c.6-1.3 1.5-2.1 2.6-2.1.2 0 .4 0 .5.1v2.9c-.2-.1-.6-.1-.9-.1-.9 0-1.6.1-2.2.4v5.6l1.4.5v.9h-5.8v-.9l1-.5v-6.8l-1.1-.5v-.9l4.1-.7zm10.1-2l-1.1-.5v-.9l4.2-.7h.3v12.8l1.1.6v.9l-4 .4h-.3v-1.1h-.1c-.4.5-1.3 1.1-2.5 1.1-1.8 0-4-1.2-4-5 0-4.1 2.3-5.5 4.9-5.5.6 0 1.2.1 1.6.4l-.1-2.5zm0 3.8c-.2-.2-.5-.3-1.1-.3-1.1 0-1.8.9-1.8 3.8 0 2.5.6 3.6 2 3.6.5 0 .8-.1 1-.2l-.1-6.9zm8.7-1.8h.3v8.9l1.1.5v.9h-5.5v-.9l1.1-.5v-6.8l-1.1-.5v-.9l4.1-.7zm.4-2.3c0 1-.8 1.8-1.8 1.8s-1.8-.8-1.8-1.8.8-1.8 1.8-1.8c.9 0 1.8.8 1.8 1.8zm3.6 5.8h-1.6v-2.7c1-.3 2.1-.8 3.9-.8 2.7 0 4.3.8 4.3 3.1v5.8l1.1.5v.8c-.3.2-1.1.4-1.9.4-1 0-2-.4-2.1-1.4h-.1c-.4.9-1.6 1.4-2.9 1.4-1.8 0-2.9-1.1-2.9-2.8 0-2.1 1.3-2.5 3.6-2.9l1.9-.3v-1.3c0-1.3-.4-1.9-1.7-1.9h-.9l-.7 2.1zm3.3 2.2l-.8.1c-.8.1-1.4.6-1.4 1.6 0 1.1.6 1.5 1.3 1.5.4 0 .7-.2.9-.4v-2.8zm4.6 3.8l1.1-.5v-6.9l-1.2-.5v-.9l4.2-.7h.3v1.3h.1c.9-.8 2.1-1.3 3.5-1.3 1.7 0 2.5.8 2.5 2.7v6.2l1.1.5v.9h-5.5v-.9l1.1-.5v-5.4c0-1-.4-1.4-1.3-1.4-.5 0-.9.1-1.4.3v6.6l1.1.5v.9h-5.6v-.9z"/></svg>