<svg fill="none" xmlns="http://www.w3.org/2000/svg" viewBox="0 0 236 98"><path d="M53.402 41.257l4.039-2.096V7.513h-3.054l-7.46 9.867h-.843L46.56 6.38h32.342l.467 10.999h-.885l-7.309-9.867h-3.129v31.581l4.064 2.138v1.073H53.402v-1.048zM82.615 39.86V4.783l-3.137-1.248v-.657l11.34-2.03h1.192v16.597l.317-.266c2.512-2.188 6.117-3.594 9.721-3.594 4.965 0 7.159 2.795 7.159 8.003v18.27l2.654 1.44v1.065H97.033v-1.057l2.662-1.448V21.523c0-2.862-1.251-4.01-3.604-4.01-1.57 0-2.92.49-3.922 1.29V39.9l2.612 1.44v1.014H79.945V41.35l2.67-1.49zM120.497 29.086c.309 5.799 2.912 10.283 9.087 10.283 2.987 0 5.106-1.381 7.1-2.43v1.14c-1.543 2.105-5.457 5.059-10.905 5.059-9.571 0-14.461-5.3-14.461-14.485 0-8.977 5.349-14.568 13.993-14.568 8.127 0 12.35 4.052 12.35 14.718v.274h-17.164v.009zm-.159-1.331l8.419-.516c0-7.18-1.234-11.947-3.704-11.947-2.62 0-4.715 5.532-4.715 12.463zM0 56.349c0-15.267 10.138-20.7 21.428-20.7 4.79 0 9.312.766 11.84 1.814l.217 10.657h-1.077l-6.625-10.307c-1.135-.483-2.211-.674-4.197-.674-6 0-9.07 6.913-8.978 18.253.117 13.56 2.478 19.717 7.985 19.717 1.435 0 2.537-.216 3.304-.549V60.026l-3.638-2.08v-1.215h17.573v1.298l-3.58 1.997V74.36c-2.97 1.157-7.985 2.255-13.275 2.255C8.144 76.615 0 70.683 0 56.35zM37.214 49.227v-.881l11.816-2.08 1.293.108v23.211c0 2.796 1.352 3.661 3.613 3.661 1.46 0 2.779-.549 3.83-1.805V50.625l-3.238-1.398v-.915l11.816-2.08 1.184.109v26.606l3.188 1.33v.85l-11.657 1.43-1.185-.108v-3.494h-.325c-2.161 1.988-5.182 3.71-8.853 3.71-5.666 0-8.26-3.336-8.26-8.394V50.625l-3.222-1.398zM111.903 46.216l.968.108v8.594h.267c1.26-6.298 4.046-8.652 7.442-8.652.543 0 1.135.05 1.461.216v8.794c-.543-.158-1.511-.216-2.428-.216-2.696 0-4.681.482-6.425 1.28v16.99l2.686 1.489v1.098h-15.319v-1.09l2.762-1.49V50.152l-3.238-.965v-.79l11.824-2.18z" fill="#fff"/><path d="M141.574 46.94V37.87l-3.238-1.131v-.724l11.924-2.188 1.135.158V72.93l3.296 1.19v1.007l-11.765 1.58-.918-.108v-3.22h-.267c-1.727 1.723-4.105 3.278-7.827 3.278-6.425 0-11.114-4.891-11.114-14.9 0-10.55 5.448-15.732 13.709-15.732 2.361 0 4.147.432 5.065.915zm-.025 24.934V48.595c-.759-.482-1.302-1.081-3.263-1.015-3.187.109-5.156 4.917-5.156 13.47 0 7.696 1.418 11.997 5.665 11.855 1.194-.041 2.162-.466 2.754-1.031zM167.791 46.19l1.026.109V73.32l2.695 1.489v1.098h-15.319v-1.09l2.753-1.489V50.567l-3.296-1.29v-.898l12.141-2.188zm1.085-7.296c0 2.854-2.428 5-5.232 5-2.912 0-5.182-2.154-5.182-5 0-2.853 2.27-5.058 5.182-5.058 2.804 0 5.232 2.205 5.232 5.058zM204.93 73.33V50.316l-3.237-1.131V48.07l11.765-2.188 1.185.108v3.444h.325c2.537-2.263 6.317-3.71 10.038-3.71 5.123 0 7.393 2.42 7.393 7.803V73.28l2.745 1.53v1.1h-15.319v-1.09l2.753-1.49V54.07c0-2.962-1.293-4.143-3.721-4.143-1.569 0-2.854.4-4.047 1.281v22.114l2.695 1.489v1.098h-15.328v-1.09l2.753-1.489zM187.934 58.87v-3.86c0-5.816-1.269-7.721-4.873-7.721-.426 0-.793.05-1.219.108l-6.416 8.669h-.901v-7.979c2.753-.848 6.199-1.847 10.764-1.847 7.843 0 12.407 2.172 12.407 8.72v18.818l2.812.74v.741c-1.11.69-3.338 1.323-5.782 1.323-3.872 0-5.724-1.265-6.575-3.386h-.267c-1.644 2.221-3.972 3.486-7.635 3.486-4.665 0-7.844-2.904-7.844-7.929 0-4.867 3.021-7.504 9.17-8.669l6.359-1.215zm0 13.003v-11.63l-1.961.157c-3.079.266-4.189 2.221-4.189 6.556 0 4.7 1.535 5.924 3.713 5.924 1.218-.009 1.911-.375 2.437-1.007zM86.378 58.87v-3.86c0-5.816-1.268-7.721-4.881-7.721-.426 0-.793.05-1.219.108l-6.416 8.669h-.901v-7.979c2.753-.848 6.2-1.847 10.764-1.847 7.843 0 12.407 2.172 12.407 8.72v18.818l2.812.74v.741c-1.11.69-3.338 1.323-5.782 1.323-3.872 0-5.724-1.265-6.575-3.386h-.267c-1.644 2.221-3.98 3.486-7.635 3.486-4.665 0-7.844-2.904-7.844-7.929 0-4.867 3.02-7.504 9.17-8.669l6.367-1.215zm0 13.003v-11.63l-1.96.157c-3.08.266-4.19 2.221-4.19 6.556 0 4.7 1.536 5.924 3.714 5.924 1.21-.009 1.902-.375 2.436-1.007z" fill="#fff"/><path d="M97.624 90.625h-8.259v-.061l2.756-1.456c3.644-1.927 5.388-3.666 5.388-6.282 0-2.635-1.906-3.99-5.24-3.99-1.765 0-3.402.243-4.574.708l-.1 4.233h.342l3.12-4.537c1.724 0 2.47 1.274 2.47 3.526 0 2.23-.909 4.13-3.198 6.302l-2.957 2.817v1.786h9.982l.27-3.046zm7.193 2.938c-1.475 0-2.027-2.332-2.027-7.272 0-4.758.565-7.091 2.007-7.091 1.475 0 1.967 2.272 1.967 7.293-.007 4.765-.492 7.07-1.947 7.07zm-.06.364c3.462 0 6.339-2.534 6.339-7.596 0-5.042-2.816-7.495-6.198-7.495-3.422 0-6.439 2.474-6.439 7.617 0 4.926 2.896 7.474 6.298 7.474zm13.741-.304c-1.475 0-2.027-2.331-2.027-7.272 0-4.758.566-7.09 2.007-7.09 1.475 0 1.967 2.272 1.967 7.293-.007 4.758-.492 7.07-1.947 7.07zm-.061.365c3.463 0 6.339-2.535 6.339-7.597 0-5.04-2.816-7.494-6.197-7.494-3.422 0-6.44 2.474-6.44 7.617 0 4.92 2.897 7.474 6.298 7.474z" fill="#FFE500"/><path d="M128.615 97.627l-1.085-2.102v-.29h3.901l-4.541-11.916-.882-.446v-.33h5.665v.33l-1.138.506 2.445 7.104 2.115-6.773-1.435-.837v-.33h2.924v.33l-1.105.776-3.328 10.487c-.592 1.854-1.717 3.08-3.536 3.491zm10.649-10.123c.129 2.628.917 4.24 3.497 4.24.848 0 1.562-.115 2.242-.432v.31c-.572.916-1.966 1.867-3.974 1.867-3.402 0-5.146-2.177-5.146-5.661 0-3.404 1.913-5.527 4.998-5.527 3.105 0 4.411 1.752 4.411 4.927v.27h-6.028v.006zm0-.39l2.849-.135c0-3.35-.423-4.301-1.307-4.301-.956 0-1.542 1.362-1.542 4.435zm11.714-.176v-1.422c0-2.163-.444-2.858-1.563-2.858-.128 0-.236.02-.37.04l-2.479 3.56h-.316l.073-3.31c.957-.31 2.149-.66 3.732-.66 2.721 0 4.304.795 4.304 3.207v6.929l.977.27v.27c-.384.255-1.158.485-2.008.485-1.34 0-1.987-.465-2.276-1.247h-.095c-.572.816-1.381 1.287-2.646 1.287-1.617 0-2.722-1.072-2.722-2.918 0-1.793 1.051-2.764 3.179-3.195l2.21-.438zm0 4.792v-4.28l-.68.06c-1.065.095-1.455.816-1.455 2.414 0 1.732.531 2.177 1.286 2.177.424 0 .66-.142.849-.371zm9.073-9.382l.33.04v3.033h.094c.512-2.318 1.361-3.194 2.499-3.194.182 0 .384.02.499.08v3.209c-.183-.061-.512-.08-.829-.08-.916 0-1.596.093-2.189.35v6.793l1.36.29v.33h-5.772v-.33l1.051-.29v-8.816l-1.105-.465v-.33l4.062-.62zM172 89.938c0 2.197-1.455 3.524-4.135 3.524-1.213 0-2.466-.155-3.436-.546l-.108-3.154h.31l2.627 3.249c.182.06.384.094.552.094 1.126 0 1.638-.64 1.638-1.638 0-.876-.446-1.207-1.598-1.793l-.605-.29c-1.839-.916-2.903-1.866-2.903-3.66 0-2.176 1.434-3.464 3.899-3.464 1.011 0 2.116.095 2.958.351l.094 2.939h-.31l-2.007-2.845a1.904 1.904 0 00-.647-.114c-.991 0-1.435.607-1.435 1.476 0 .95.425 1.268 1.657 1.867l.572.27c1.88.95 2.877 1.786 2.877 3.733zM57 93.165l1.233-.27V80.09l-1.212-.29v-.33h10.702l.094 4.556h-.31l-2.39-4.185H62.12v6.599h1.467l1.67-2.589h.31v5.587h-.31l-1.67-2.608H62.12v6.093l1.435.256v.33h-6.547v-.343H57zm10.098-5.035c0-3.424 2.06-5.547 5.145-5.547 3.086 0 5.186 2.123 5.186 5.567 0 3.465-2.06 5.642-5.166 5.642-3.072 0-5.165-2.198-5.165-5.663zm3.623.02c0 4.206.532 5.291 1.563 5.291 1.01 0 1.528-1.112 1.528-5.311 0-4.186-.498-5.197-1.541-5.197-1.018 0-1.55 1.032-1.55 5.217zm10.845-5.506l.33.04v3.033h.093c.512-2.319 1.362-3.188 2.5-3.188.182 0 .384.02.498.081v3.209c-.182-.062-.512-.082-.828-.082-.916 0-1.603.095-2.19.351v6.793l1.361.29v.33h-5.772v-.33l1.05-.29v-8.821l-1.105-.466v-.33l4.063-.62z" fill="#fff"/></svg>
