<svg xmlns="http://www.w3.org/2000/svg" width="160" height="80" viewBox="0 0 160 80"><path fill="#676767" d="M90.33 18.377C90.33 7.487 86.998 5.71 83 5.71s-7.11 1.555-7.11 12.667c0 11.11 3.332 12.22 7.11 12.22 4-.22 7.333-1.33 7.333-12.22M75.89 60.152c-5.11 0-6.443 3.777-6.443 6.444 0 4 3.555 7.557 14 7.557 11.775 0 15.11-3.333 15.11-7.557 0-3.777-2.89-6.444-7.558-6.444h-15.11zM66.332 4.155C52.555 10.375 43 24.155 43 40.375c0 10.888 4.444 20.888 11.556 28v-.666c0-7.113 6.888-9.78 13.11-11.113C61.888 55.265 59 51.04 59 46.82c0-5.778 6.442-10.668 9.555-12.89l-.444-.222C62.556 30.598 59 25.266 59 18.154c0-6 2.667-10.89 7.332-14M123 40.598c0-16.44-10.003-30.665-24.225-36.665 4.667 3.112 7.556 7.778 7.777 14l.224 1.334c0 12-9.778 18.223-23.778 18.223-3.555 0-6-.225-9.11-1.113-1.334.89-2.444 2.443-2.444 4 0 1.998 1.777 3.555 4 3.555h19.555c12.222 0 18.22 4.89 18.22 15.777 0 3.555-.666 6.888-2.223 9.555C118.332 61.708 123 51.707 123 40.597"/><circle opacity=".8" fill="#fb0" cx="40" cy="40" r="40"/><path fill="#fff" d="M120 1c21.505 0 39 17.495 39 39s-17.495 39-39 39-39-17.495-39-39S98.495 1 120 1m0-1C97.908 0 80 17.91 80 40c0 22.092 17.908 40 40 40s40-17.908 40-40c0-22.09-17.908-40-40-40zM27.292 30l-2.746 2.87v14.26L27.38 50h16.054V30H27.292m26.103.87l-7.384 6.957v4.347l7.385 6.957h2.06V30.87h-2.06"/><g class="inline-guardian-video-logo__title" fill="#fb0"><path d="M94.24 44.472h.08l1.94-6.16-1.2-.562v-1.04h4.402v1.04l-1.2.56-3.382 9.603h-3.22l-3.3-9.602-1.2-.56v-1.04h6.5v1.04l-1.2.56 1.78 6.162zM104.96 36.39h.3v9.922l1.2.56v1.04h-6.12v-1.04l1.2-.56V38.73l-1.26-.58v-1.02l4.68-.74zm.36-2.62c0 1.08-.9 1.96-1.98 1.96-1.1 0-1.98-.88-1.98-1.96 0-1.1.88-1.98 1.98-1.98 1.08-.002 1.98.88 1.98 1.98zM114.3 34.188l-1.24-.56v-1.02l4.663-.74h.3V46.03l1.18.66v.96l-4.42.5h-.32v-1.16h-.12c-.46.6-1.42 1.22-2.82 1.22-2.04 0-4.482-1.3-4.482-5.6 0-4.52 2.503-6.142 5.464-6.142.62 0 1.34.14 1.8.46v-2.74zm0 4.222c-.278-.22-.6-.4-1.26-.4-1.18 0-2.06 1.06-2.06 4.22 0 2.762.7 3.962 2.18 3.962.56 0 .88-.1 1.14-.2V38.41zM123.48 42.65c.18 2.18 1.22 3.222 3.26 3.222 1.42 0 2.22-.14 3-.38v1.08c-.52.72-2.2 1.64-4.26 1.64-3.842 0-5.822-2.12-5.822-5.92 0-3.702 2.182-5.843 5.52-5.843 3.362 0 4.983 1.5 4.983 6.2h-6.68zm-.04-1.34l3.1-.18c0-2.98-.5-3.46-1.42-3.46-1.02 0-1.64.66-1.68 3.64zM143.102 42.31c0 3.802-2.34 5.902-5.742 5.902-3.4 0-5.74-2.1-5.74-5.9s2.34-5.882 5.74-5.882c3.402 0 5.742 2.08 5.742 5.88zm-3.9 0c0-3.7-.58-4.34-1.82-4.34s-1.862.64-1.862 4.34c0 3.702.62 4.342 1.86 4.342s1.82-.64 1.82-4.34zM143.898 47.492v-2.96h1.58l.64 1.86c.26.24 1.16.36 1.802.36 1.06 0 1.8-.24 1.8-1.12 0-.82-.28-1.16-1.48-1.422l-1.36-.3c-2.06-.46-3.02-2.1-3.02-3.76 0-2.142 1.46-3.722 4.76-3.722 1.32 0 2.66.2 3.542.58v2.76H150.6l-.48-1.54c-.26-.14-1.04-.28-1.64-.28-.88 0-1.48.42-1.48 1.1 0 .66.3 1.062 1.54 1.32l1.32.28c2.16.46 2.98 1.9 2.98 3.602 0 2.34-1.48 3.94-5.04 3.94-1.2.002-2.82-.238-3.902-.698z"/></g></svg>