<svg width="160" height="30" viewBox="0 0 320 60"><path fill="#fff" d="M284 45h16v-3l-3-1.5v-20c1.2-.9 2.8-1.1 4.3-1.1 2.8 0 3.8.9 3.8 4.1v17l-3 1.5v3h16v-3l-3-1.5v-19c0-5.7-2.2-8.3-7.2-8.3-4.1 0-8.1 1.5-10.8 4v-4.2h-1l-12.4 2.2v2.7l3.4 1.6v21l-3 1.5-.1 3zm-38.7-44.6c-3 0-5.4 2.4-5.4 5.5 0 3 2.4 5.4 5.4 5.4 2.9 0 5.4-2.4 5.4-5.4-.1-3.1-2.5-5.5-5.4-5.5zm-8.3 14.7v2.8l3 1.6v20.9l-3 1.5v3h16v-3l-3-1.5v-27.3h-1l-12 2zm-14.1 23.9c-.7.6-1.6 1.1-3.1 1.1-4 0-5.9-3.3-5.9-10.9 0-8.7 2.4-11.7 5.6-11.7 1.8 0 2.7.6 3.4 1.4v20.1zm0-24.5c-1.2-.9-3.2-1.4-4.9-1.4-7.4 0-14.5 4.3-14.5 16.8 0 11.9 7.1 15.7 11.8 15.7 3.8 0 6.4-1.7 7.6-3.4h.3v3.3h.9l11.9-1.4v-2.3l-3.2-1.8v-39.4h-.8l-12.6 2v2.8l3.4 1.6v7.5h.1zm-41.9 3.5l3 1.5v20.9l-3 1.5v3h17v-3l-3.9-1.5v-16.3c1.8-1.4 4-1.9 6.7-1.9.9 0 1.6.2 2.2.3v-9c-.3-.1-.7-.2-1.2-.2-3.3 0-5.9 2.1-7.7 6.2v-6.5h-1.1l-12 2v3zm-19.3-.8c3.9 0 5 2 5 5.9v3.5l-5.8 1.1c-5.9 1.1-10.4 3-10.4 9.3 0 5.1 3.5 8.7 8.3 8.7 3.8 0 7.4-1.7 8.7-4.4h.3c.5 3.3 3.3 4.4 6.4 4.4 2.4 0 4.8-.6 5.7-1.6v-2l-3-1.5v-18c0-6.9-5-9.4-13.1-9.4-5.3 0-8.8 1.4-11.6 2.7v7.8h4.7l2-6c.9-.5 2.4-.5 2.8-.5zm2.3 22.9c-1.9 0-4-1.1-4-4.6 0-2.4 2.4-4.6 4.8-5l2.2-.5v8.5s-1.9 1.6-3 1.6zm100.8-22.9c3.9 0 5 2 5 5.9v3.5l-5.8 1.1c-5.9 1.1-10.4 3-10.4 9.3 0 5.1 3.5 8.7 8.3 8.7 3.8 0 7.4-1.7 8.7-4.4h.3c.5 3.3 3.3 4.4 6.4 4.4 2.4 0 4.8-.6 5.7-1.6v-2l-3-1.5v-18c0-6.9-5-9.4-13.1-9.4-5.3 0-8.8 1.4-11.6 2.7v7.8h4.7l2-6c.8-.5 2.3-.5 2.8-.5zm2.2 22.9c-1.9 0-4-1.1-4-4.6 0-2.4 2.4-4.6 4.8-5l2.2-.5v8.5s-1.9 1.6-3 1.6zm-138.7 5.6c.4 0 .9 0 1.3-.1 3.5-.3 6.7-2 8.4-4.2v4.1l12-1.5v-2l-3-2v-27h-1l-11.9 2.3v2.8l3.9 1.6v18.3c-1.1.8-2.4 1.3-4.2 1.3-2.5 0-4.8-.8-4.8-4.3v-22h-1l-12 2.5v2.6l4 1.6v16.3c0 5.4 2.2 9.7 8.3 9.7zm-32.3-7.7c-1.2 0-2.5-.8-2.5-1.9 0-.8.6-1.7 1.3-2.3 1.6.5 3 .6 5 .6 7.8 0 13.2-3.7 13.2-10.4 0-3-1.3-4.6-3.2-6.4l5.2 1.4v-6l-8.2 1.6c-1.9-.7-4.5-1.6-7-1.6-7.8 0-13.2 4.1-13.2 10.8 0 4.1 2 7.1 5 8.8l.3.2c-1.7 1.2-5.3 4-5.3 7.2 0 2.4 1.5 4.8 4.8 5.5-3.4.8-7.4 2.5-7.4 6.5 0 4.1 5.9 8 15.5 8 11.8 0 16.5-5.7 16.5-13 0-6.1-2.8-9-9.5-9h-10.5zm7.5-14c0 5.7-1.3 6.5-3.5 6.5s-4-.8-4-6.5c0-5.8 1.8-7.5 4-7.5s3.5 2 3.5 7.5zm-11.5 26.9c.1-1.5 1.1-3.4 3.7-3.6h8.6c2.5 0 3.7 2 3.7 3.6 0 3.2-2 4.4-8.3 4.4-5.5 0-7.8-2.2-7.7-4.4z"/><path fill="#AADCE6" d="M83 30c0-13-5.1-16.9-13-16.9-9 0-15 6.2-15 16.4 0 10.5 5.5 16.2 15.8 16.2 5.6 0 9.8-2.7 11.2-4.7v-3c-2.1.7-3.9 1.2-7.8 1.2-5.4 0-9.2-3.2-9.2-9.2h18zm-13.1-13.4c2.5 0 3.8 1.9 3.8 9.6l-8.4.5c.2-7.9 1.8-10.1 4.6-10.1zm-32.9 28.4v-3l-3-1.5v-19.5c1.2-.9 3.3-1.7 4.8-1.7 2.8 0 4.3 1.5 4.2 4.2v17l-3 1.5v3h16v-3l-3-1.5v-19c0-5.7-3.3-8.3-7.7-8.3-4.1 0-8.6 1.3-11.3 3.8v-17h-1l-12 2v3l4 1.5v34l-3 1.5v3h15zm-33-8.6c0 5.7 2.8 9.3 8.9 9.3 3.1 0 6.5-.8 8.4-2.3v-3.8c-.8.3-2.2.5-3.3.5-2.9 0-4-1.6-4-4.6v-16.5h7v-5h-7v-7.5l-10 1.5v6l-4 1v4h4v17.4z"/></svg>
