<?xml version="1.0" encoding="utf-8"?>
<!-- Generator: Adobe Illustrator 16.0.1, SVG Export Plug-In . SVG Version: 6.00 Build 0)  -->
<!DOCTYPE svg PUBLIC "-//W3C//DTD SVG 1.1//EN" "http://www.w3.org/Graphics/SVG/1.1/DTD/svg11.dtd">
<svg version="1.1" id="Layer_1" xmlns="http://www.w3.org/2000/svg" xmlns:xlink="http://www.w3.org/1999/xlink" x="0px" y="0px"
	 width="160px" height="36px" viewBox="0 0 160 36" enable-background="new 0 0 160 36" xml:space="preserve">
<path fill="#FFFFFF" d="M142.164,22.65h8.009v-1.5l-1.501-0.752V10.387c0.601-0.451,1.401-0.551,2.152-0.551
	c1.401,0,1.852,0.45,1.852,2.052v8.51l-1.501,0.752v1.5h8.009v-1.5l-1.502-0.752v-9.511c0-2.854-1.051-4.155-3.554-4.155
	c-2.053,0-4.055,0.75-5.406,2.002V6.632h-0.501l-6.207,1.102v1.352l1.652,0.801v10.512l-1.502,0.752V22.65z M122.792,0.325
	c-1.502,0-2.703,1.201-2.703,2.753c0,1.502,1.201,2.703,2.703,2.703c1.451,0,2.703-1.201,2.703-2.703
	C125.444,1.526,124.243,0.325,122.792,0.325z M118.637,7.684v1.402l1.502,0.801V20.35l-1.502,0.75v1.551h8.01V21.1l-1.502-0.75
	V6.682h-0.501L118.637,7.684z M111.629,19.648c-0.351,0.299-0.852,0.549-1.603,0.549c-2.002,0-2.953-1.65-2.953-5.456
	c0-4.354,1.201-5.807,2.804-5.807c0.9,0,1.401,0.3,1.752,0.701V19.648L111.629,19.648z M111.629,7.433
	c-0.601-0.45-1.652-0.7-2.503-0.7c-3.704,0-7.259,2.202-7.259,8.41c0,5.957,3.555,7.859,5.907,7.859
	c1.902,0,3.204-0.852,3.805-1.703h0.149v1.652h0.45l5.958-0.701V21.1l-1.502-0.902V0.425h-0.501l-6.307,1.001v1.401l1.802,0.751
	V7.433z M90.604,9.136l1.502,0.751V20.35l-1.502,0.75v1.551h8.51V21.1l-2.002-0.75v-8.161c0.9-0.701,2.052-0.951,3.403-0.951
	c0.451,0,0.802,0.101,1.102,0.15V6.883c-0.15-0.05-0.351-0.1-0.601-0.1c-1.652,0-3.004,1.101-3.904,3.104V6.632h-0.501l-6.007,1.001
	V9.136z M80.943,8.735c1.952,0,2.653,1.001,2.653,2.954v1.752l-3.054,0.55c-2.954,0.551-5.206,1.452-5.206,4.656
	c0,2.553,1.752,4.355,4.155,4.355c1.902,0,3.705-0.852,4.355-2.203h0.15c0.25,1.652,1.651,2.203,3.203,2.203
	c1.201,0,2.403-0.301,2.854-0.801v-1.002l-1.451-0.75v-9.011c0-3.504-2.604-4.705-6.658-4.705c-2.653,0-4.305,0.65-5.707,1.301
	v3.905h2.353l1.001-3.003C80.143,8.735,80.743,8.735,80.943,8.735z M82.095,20.197c-0.951,0-2.002-0.549-2.002-2.301
	c0-1.203,1.202-2.354,2.403-2.503l1.102-0.25v4.256C83.597,19.398,82.646,20.197,82.095,20.197z M132.503,8.735
	c1.952,0,2.653,1.001,2.653,2.954v1.752l-3.054,0.55c-2.953,0.551-5.206,1.452-5.206,4.656c0,2.553,1.752,4.355,4.154,4.355
	c1.902,0,3.705-0.852,4.355-2.203h0.15c0.25,1.652,1.651,2.203,3.203,2.203c1.201,0,2.403-0.301,2.854-0.801v-1.002l-1.451-0.75
	v-9.011c0-3.504-2.604-4.705-6.658-4.705c-2.652,0-4.305,0.65-5.707,1.301v3.905h2.354l1.001-3.003
	C131.702,8.735,132.303,8.735,132.503,8.735L132.503,8.735z M133.654,20.197c-0.951,0-2.003-0.549-2.003-2.301
	c0-1.203,1.202-2.354,2.403-2.503l1.102-0.25v4.256C135.156,19.398,134.204,20.197,133.654,20.197z M64.224,23.002
	c0.2,0,0.451,0,0.651-0.051c1.752-0.15,3.354-1,4.205-2.102v2.053l6.007-0.752v-1l-1.501-1.002V6.632h-0.5l-6.007,1.151v1.352
	l2.002,0.851v9.16c-0.551,0.4-1.201,0.65-2.103,0.65c-1.251,0-2.402-0.398-2.402-2.152V6.632h-0.501l-6.007,1.251v1.302l2.002,0.801
	v8.16C60.069,20.85,61.17,23.002,64.224,23.002z M48.056,19.146c-0.601,0-1.251-0.4-1.251-0.951c0-0.4,0.3-0.85,0.7-1.15
	c0.801,0.25,1.502,0.301,2.503,0.301c3.905,0,6.608-1.853,6.608-5.207c0-1.502-0.651-2.303-1.603-3.204l2.553,0.701V6.632
	l-4.105,0.801c-0.951-0.35-2.252-0.801-3.504-0.801c-3.904,0-6.607,2.053-6.607,5.406c0,2.053,1.001,3.555,2.503,4.405l0.1,0.1
	c-0.851,0.602-2.653,2.004-2.653,3.605c0,1.201,0.751,2.402,2.403,2.754c-1.702,0.398-3.654,1.25-3.654,3.252
	c0,2.053,2.953,4.006,7.759,4.006c5.907,0,8.259-2.854,8.259-6.508c0-3.053-1.401-4.506-4.755-4.506H48.056z M51.81,12.139
	c0,2.853-0.65,3.254-1.752,3.254c-1.101,0-2.002-0.401-2.002-3.254c0-2.904,0.901-3.754,2.002-3.754
	C51.159,8.385,51.81,9.386,51.81,12.139z M46.053,25.605c0.05-0.752,0.551-1.703,1.852-1.803h4.305c1.251,0,1.853,1,1.853,1.803
	c0,1.602-1.001,2.201-4.155,2.201C47.154,27.807,46.003,26.705,46.053,25.605z"/>
<path fill="#AAD8F1" d="M41.548,15.143c0-6.507-2.553-8.46-6.507-8.46c-4.505,0-7.509,3.104-7.509,8.21
	c0,5.256,2.753,8.11,7.909,8.11c2.803,0,4.855-1.352,5.606-2.354v-1.502c-1.051,0.352-1.952,0.602-3.854,0.602
	c-2.803,0-4.655-1.602-4.655-4.605H41.548z M34.99,8.435c1.251,0,1.902,0.901,1.902,4.805l-4.205,0.351
	C32.738,9.636,33.589,8.435,34.99,8.435z M18.521,22.65v-1.5l-1.502-0.752v-9.761c0.601-0.451,1.602-0.852,2.403-0.852
	c1.402,0,2.152,0.802,2.103,2.103v8.51l-1.502,0.752v1.5h8.009v-1.5l-1.501-0.752v-9.511c0-2.854-1.652-4.155-3.854-4.155
	c-2.052,0-4.305,0.65-5.657,1.902v-8.51h-0.5l-6.007,1.001v1.502l2.002,0.751v17.02l-1.502,0.752v1.5H18.521z M2.002,18.346
	c0,2.854,1.401,4.656,4.455,4.656c1.552,0,3.104-0.4,4.055-1.152v-1.902c-0.4,0.15-0.951,0.25-1.452,0.25
	c-1.452,0-2.052-0.799-2.052-2.301v-8.26h3.504V7.133H7.008V3.379l-5.006,0.75v3.004L0,7.634v2.002h2.002V18.346z"/>
<g>
	<path d="M36.51,29.943c0,0-0.001,0.014-0.002,0.027C36.516,29.926,36.517,29.914,36.51,29.943z"/>
	<path d="M38.162,23.492c-0.005,0.014-0.011,0.025-0.011,0.025C38.139,23.545,38.144,23.533,38.162,23.492z"/>
	<path d="M37.467,18.176c-1.325-0.568-1.305-0.66-1.411-0.885c-0.107-0.223,0.163-0.924,0.163-0.924l-0.899-0.221
		c0,0-0.314,0.957-0.625,1.5c-0.311,0.543-1.828,2.865-1.748,6.113c0.01,0.416,0.106,0.586,0.047,0.906
		c-0.1,0.545-0.182,0.818-0.216,0.922l-0.004-0.006c0,0,0-0.006-0.002,0.01c-0.002,0.008-0.004,0.008-0.006,0.01h0.002
		c-0.017,0-0.07,0.393-0.232,0.918c-0.096,0.311-0.258,0.418-0.46,0.783c-1.575,2.84-1.312,5.625-1.287,6.252
		c0.024,0.625-0.143,1.631-0.143,1.631l0.898,0.221c0,0,0.088-0.754,0.287-0.902c0.198-0.148,0.22-0.23,1.657-0.121
		c2.635,0.201,2.856-1.74,3.017-2.32c0.709-2.555,0.619-2.6,0.003-3.52c-0.472-0.705-3.13-1.707-3.281-1.939
		c-0.137-0.213,0.009-0.723,0.046-0.865c-0.001-0.002,0.142-0.67,0.362-0.795c0.242-0.137,3.063,0.201,3.808-0.203
		c0.972-0.531,1.072-0.525,1.626-3.117C39.192,21.033,39.895,19.219,37.467,18.176z M35.61,28.283
		c1.09,0.771,0.931,1.564,0.896,1.709c0,0,0.001-0.01,0.002-0.021c-0.058,0.314-0.477,2.301-0.817,2.988
		c-0.45,0.91-0.801,0.875-1.877,0.961c-1.005,0.082-1.502-0.027-1.947-0.367c-0.384-0.295-0.455-0.82-0.424-1.088
		c0.063-0.555,0.084-1.836,0.435-3.035c0.322-1.105,0.577-1.562,1.116-2C33.533,26.994,34.688,27.629,35.61,28.283z M38.17,23.473
		c-0.058,0.135-0.291,0.908-1.615,1.088c-1.119,0.152-2.452,0.174-2.728-0.463c-0.276-0.637-0.297-1.162-0.071-2.291
		c0.246-1.227,0.817-2.371,1.018-2.895c0.097-0.25,0.401-0.686,0.877-0.768c0.552-0.094,1.041,0.039,1.894,0.576
		c0.913,0.574,1.27,0.719,1.247,1.732c-0.017,0.77-0.507,2.746-0.632,3.039C38.166,23.482,38.17,23.473,38.17,23.473z"/>
	<path d="M32.765,25.602h-0.003C32.762,25.602,32.763,25.602,32.765,25.602z"/>
</g>
<path fill="#AAD8F1" d="M37.193,19.748c-2.803,0-4.655-1.602-4.655-4.605l-5.006-0.25c0,5.256,2.753,8.11,7.909,8.11L37.193,19.748z
	"/>
</svg>
