<svg width="222" height="92" viewBox="0 0 222 92" fill="none" xmlns="http://www.w3.org/2000/svg">
<path d="M0 90.4781L2.74624 89.8843V63.3126L0.0742227 62.7188V62.0508H23.8255L24.0481 71.5513H23.3801L18.1103 62.8672H11.4303V76.45H14.6961L18.4072 71.0317H19.0752V82.6105H18.4072L14.6961 77.1922H11.4303V89.8843L14.6219 90.4038V91.0718H0V90.4781Z" fill="white"/>
<path d="M23.5283 80.0123C23.5283 72.8869 28.1301 68.5078 34.9586 68.5078C41.7871 68.5078 46.4631 72.8869 46.4631 80.0865C46.4631 87.2861 41.8613 91.8137 34.9586 91.8137C28.1301 91.7395 23.5283 87.2119 23.5283 80.0123ZM31.5444 80.0123C31.5444 88.7706 32.7319 90.9973 35.0328 90.9973C37.2595 90.9973 38.4471 88.6964 38.4471 79.9381C38.4471 71.254 37.3337 69.1016 35.0328 69.1016C32.7319 69.1758 31.5444 71.3283 31.5444 80.0123Z" fill="white"/>
<path d="M46.3145 70.586V69.918L55.2212 68.6562L56.1861 68.7305V85.5048C56.1861 87.9541 57.2252 88.6964 59.0065 88.6964C60.0456 88.6964 60.9363 88.3995 61.7528 88.0284V71.5509L59.3034 70.586V69.918L68.2101 68.6562L69.1008 68.7305V88.6964L71.4759 89.6613V90.3293L62.6434 91.7395L61.7528 91.6653V88.8448H61.5301C59.823 90.4777 57.5963 91.8137 54.8501 91.8137C50.5451 91.8137 48.6154 89.2902 48.6154 85.5048V71.5509L46.3145 70.586Z" fill="white"/>
<path d="M75.1134 89.8097V71.5509L72.6641 70.586V69.918L81.5708 68.6563L82.4615 68.7305V71.5509H82.6841C84.6139 69.6212 87.4344 68.5078 90.2548 68.5078C94.1144 68.5078 95.8215 70.3634 95.8215 74.3714V89.8097L98.1224 90.4777V91.1457H86.321V90.4777L88.3993 89.9582V74.7425C88.3993 72.5901 87.4344 71.5509 85.5046 71.5509C84.317 71.5509 83.3521 71.8478 82.5357 72.2932V89.9582L84.5397 90.4777V91.1457H72.8125V90.4777L75.1134 89.8097Z" fill="white"/>
<path d="M112.67 69.2505V62.0509L110.22 61.2345V60.5665L119.275 59.3047L120.166 59.4531V89.2906L122.69 90.0329V90.7009L113.56 91.74L112.892 91.6658V89.068H112.67C111.334 90.4782 109.701 91.74 106.955 91.74C102.13 91.74 98.5674 88.0289 98.5674 80.5324C98.5674 72.5905 102.724 68.5825 108.959 68.5825C110.666 68.5825 112.002 68.8794 112.67 69.2505ZM112.67 88.1031V70.2154C112.076 69.9185 111.408 69.6959 110.295 69.6959C107.919 69.6959 106.361 72.5163 106.361 79.6417C106.361 86.0991 107.771 88.6226 110.666 88.6226C111.482 88.6226 112.224 88.4 112.67 88.1031Z" fill="white"/>
<path d="M135.308 78.1568V75.1879C135.308 70.6603 134.343 69.25 131.82 69.25C131.523 69.25 131.3 69.3243 131.003 69.3243L125.511 76.7465H124.843L124.991 69.8438C127.144 69.1758 129.742 68.4336 133.304 68.4336C139.316 68.4336 142.879 70.0665 142.879 75.1136V89.5128L145.031 90.1066V90.7004C144.141 91.22 142.434 91.7395 140.578 91.7395C137.609 91.7395 136.199 90.7746 135.531 89.1417H135.308C134.046 90.8488 132.265 91.8137 129.445 91.8137C125.882 91.8137 123.433 89.5871 123.433 85.7275C123.433 82.0163 125.734 80.0123 130.484 79.1217L135.308 78.1568ZM135.308 88.1026V79.1959L133.824 79.3443C131.449 79.567 130.632 81.0514 130.632 84.3915C130.632 88.0284 131.82 88.9191 133.453 88.9191C134.418 88.8448 134.937 88.5479 135.308 88.1026Z" fill="white"/>
<path d="M143.918 70.5121V69.7698L147.11 68.9534V65.0196L154.532 63.832V69.0276H159.505V70.5121H154.532V85.2082C154.532 87.5091 155.2 88.3997 157.649 88.3997C158.391 88.3997 159.208 88.3255 159.653 88.1771V88.8451C158.317 90.2553 156.09 91.5171 153.418 91.5171C149.188 91.5171 147.035 89.5873 147.035 84.837V70.5121H143.918Z" fill="white"/>
<path d="M169.896 68.5825L170.935 68.6567V89.8102L173.236 90.4782V91.1462H161.063V90.4782L163.364 89.8102V71.5514L160.841 70.5865V69.9185L169.896 68.5825ZM170.935 63.3127C170.935 65.4652 169.08 67.0981 167.001 67.0981C164.775 67.0981 163.067 65.4652 163.067 63.3127C163.067 61.1602 164.775 59.5273 167.001 59.5273C169.08 59.5273 170.935 61.1602 170.935 63.3127Z" fill="white"/>
<path d="M173.384 80.0123C173.384 72.8869 177.986 68.5078 184.814 68.5078C191.643 68.5078 196.319 72.8869 196.319 80.0865C196.319 87.2861 191.717 91.8137 184.814 91.8137C178.06 91.7395 173.384 87.2119 173.384 80.0123ZM181.4 80.0123C181.4 88.7706 182.587 90.9973 184.888 90.9973C187.115 90.9973 188.303 88.6964 188.303 79.9381C188.303 71.254 187.189 69.1016 184.888 69.1016C182.587 69.1758 181.4 71.3283 181.4 80.0123Z" fill="white"/>
<path d="M198.917 89.8097V71.5509L196.468 70.586V69.918L205.375 68.6563L206.265 68.7305V71.5509H206.488C208.418 69.6212 211.238 68.5078 214.059 68.5078C217.918 68.5078 219.625 70.3634 219.625 74.3714V89.8097L221.926 90.4777V91.1457H210.125V90.4777L212.203 89.9582V74.7425C212.203 72.5901 211.238 71.5509 209.308 71.5509C208.121 71.5509 207.156 71.8478 206.339 72.2932V89.9582L208.343 90.4777V91.1457H196.542V90.4777L198.917 89.8097Z" fill="white"/>
<path d="M40.0061 30.3569L43.0493 28.724V4.9727H40.7484L35.1817 12.395H34.5879L34.8848 4.15625H59.0814L59.4525 12.395H58.7845L53.3662 4.9727H50.9911V28.724L54.0342 30.2826V31.0991H40.0061V30.3569Z" fill="white"/>
<path d="M62.1984 29.318V2.96891L59.8232 2.00401V1.55868L68.3589 0H69.2495V12.4694L69.4722 12.2467C71.3278 10.6138 74.074 9.57472 76.746 9.57472C80.4572 9.57472 82.09 11.653 82.09 15.5868V29.318L84.0941 30.4313V31.2477H73.0349V30.4313L75.0389 29.318V15.5125C75.0389 13.3601 74.074 12.4694 72.3669 12.4694C71.1793 12.4694 70.2144 12.8405 69.398 13.4343V29.2437L71.3278 30.3571V31.0993H60.1944V30.3571L62.1984 29.318Z" fill="white"/>
<path d="M91.1459 21.2272C91.3685 25.6063 93.2983 28.9463 97.9744 28.9463C100.201 28.9463 101.76 27.9072 103.318 27.0907V27.9814C102.131 29.5401 99.2361 31.7668 95.1539 31.7668C88.0285 31.7668 84.3174 27.7587 84.3174 20.9303C84.3174 14.176 88.3254 10.0195 94.7828 10.0195C100.869 10.0195 103.986 13.0627 103.986 21.0787V21.3014H91.1459V21.2272ZM90.9974 20.188L97.3064 19.8169C97.3064 14.3987 96.4157 10.836 94.5601 10.836C92.5561 10.836 90.9974 14.9925 90.9974 20.188Z" fill="white"/>
<path d="M0.0742188 41.6375C0.0742188 30.2072 7.64493 26.125 16.1063 26.125C19.669 26.125 23.0832 26.7188 24.9388 27.461L25.0873 35.4771H24.2708L19.2979 27.7579C18.4814 27.3868 17.665 27.2383 16.1805 27.2383C11.653 27.2383 9.42628 32.4339 9.5005 40.9695C9.57472 51.138 11.3561 55.7398 15.5125 55.7398C16.5517 55.7398 17.4423 55.5914 17.9619 55.2945V44.3838L15.2156 42.8251V41.9344H28.3531V42.8993L25.681 44.3838V55.1461C23.4544 56.0367 19.669 56.8532 15.7352 56.8532C6.16048 56.8532 0.0742188 52.3998 0.0742188 41.6375Z" fill="white"/>
<path d="M28.2793 36.297V35.629L37.1118 34.0703L38.0767 34.1445V51.5869C38.0767 53.6651 39.1158 54.3331 40.7487 54.3331C41.862 54.3331 42.8269 53.8878 43.6434 52.9971V37.3361L41.194 36.297V35.629L50.0265 34.0703L50.9172 34.1445V54.1104L53.2923 55.0753V55.7433L44.5341 56.7824L43.6434 56.7082V54.1104H43.4207C41.7878 55.5949 39.5611 56.9309 36.8149 56.9309C32.5842 56.9309 30.6544 54.4073 30.6544 50.622V37.3361L28.2793 36.297Z" fill="white"/>
<path d="M84.7622 34.0703L85.5044 34.1445V40.6019H85.7271C86.692 35.8517 88.7702 34.1445 91.2938 34.1445C91.6649 34.1445 92.1102 34.2188 92.4071 34.293V40.8246C92.036 40.6761 91.2938 40.6761 90.6258 40.6761C88.6218 40.6761 87.1373 41.0472 85.8013 41.641V54.4073L87.8053 55.5207V56.3371H76.375V55.5207L78.4533 54.4073V37.0392L76.0039 36.297V35.7032L84.7622 34.0703Z" fill="white"/>
<path d="M107.029 34.5865V27.758L104.58 26.9415V26.422L113.486 24.7891L114.303 24.9375V54.1812L116.752 55.0719V55.8141L107.92 57.0017L107.252 56.9275V54.4781H107.029C105.767 55.7399 103.986 56.9275 101.165 56.9275C96.341 56.9275 92.8525 53.2163 92.8525 45.7199C92.8525 37.778 96.9348 33.9184 103.095 33.9184C104.951 33.9184 106.287 34.2153 107.029 34.5865ZM106.955 53.2906V35.8482C106.361 35.4771 105.99 35.0318 104.505 35.106C102.13 35.1802 100.646 38.8171 100.646 45.2003C100.646 50.9897 101.685 54.1812 104.877 54.107C105.842 54.0328 106.51 53.7359 106.955 53.2906Z" fill="white"/>
<path d="M126.624 34.0669L127.366 34.1411V54.4039L129.37 55.5172V56.3337H117.939V55.5172L120.018 54.4039V37.3327L117.568 36.3678V35.6998L126.624 34.0669ZM127.44 28.5744C127.44 30.7269 125.584 32.3598 123.506 32.3598C121.354 32.3598 119.647 30.7269 119.647 28.5744C119.647 26.422 121.354 24.7891 123.506 24.7891C125.584 24.7891 127.44 26.422 127.44 28.5744Z" fill="white"/>
<path d="M155.125 54.4073V37.1135L152.676 36.297V35.4806L161.508 33.8477L162.399 33.9219V36.5197H162.622C164.551 34.8126 167.372 33.6992 170.118 33.6992C173.978 33.6992 175.685 35.4806 175.685 39.5628V54.4073L177.763 55.5207V56.3371H166.333V55.5207L168.411 54.4073V39.9339C168.411 37.7072 167.446 36.8166 165.591 36.8166C164.403 36.8166 163.438 37.1135 162.547 37.7815V54.4073L164.551 55.5207V56.3371H153.047V55.5207L155.125 54.4073Z" fill="white"/>
<path d="M142.433 43.5708V40.6761C142.433 36.297 141.468 34.8868 138.796 34.8868C138.499 34.8868 138.203 34.961 137.906 34.961L133.081 41.4926H132.413V35.4805C134.491 34.8125 137.089 34.0703 140.429 34.0703C146.293 34.0703 149.707 35.7032 149.707 40.6019V54.7042L151.785 55.2238V55.7433C150.969 56.2629 149.262 56.7082 147.48 56.7082C144.586 56.7082 143.175 55.7433 142.582 54.1847H142.359C141.097 55.8175 139.39 56.7824 136.644 56.7824C133.155 56.7824 130.78 54.63 130.78 50.8446C130.78 47.2077 133.007 45.2037 137.609 44.313L142.433 43.5708ZM142.433 53.294V44.6099L140.949 44.7584C138.648 44.981 137.831 46.3913 137.831 49.6571C137.831 53.2198 139.019 54.1104 140.578 54.1104C141.543 54.0362 142.062 53.8135 142.433 53.294Z" fill="white"/>
<path d="M65.6871 43.5708V40.6761C65.6871 36.297 64.7222 34.8868 62.0502 34.8868C61.7533 34.8868 61.4564 34.961 61.1596 34.961L56.3351 41.4926H55.6671V35.4805C57.7453 34.8125 60.3431 34.0703 63.7573 34.0703C69.6209 34.0703 73.0352 35.7032 73.0352 40.6019V54.7042L75.1134 55.2238V55.7433C74.297 56.2629 72.5898 56.7082 70.8085 56.7082C67.9138 56.7082 66.5036 55.7433 65.9098 54.1847H65.6871C64.4253 55.8175 62.7182 56.7824 59.972 56.7824C56.4835 56.7824 54.1084 54.63 54.1084 50.8446C54.1084 47.2077 56.3351 45.2037 60.9369 44.313L65.6871 43.5708ZM65.6871 53.294V44.6099L64.2027 44.7584C61.9018 44.981 61.0853 46.3913 61.0853 49.6571C61.0853 53.2198 62.2729 54.1104 63.8316 54.1104C64.7965 54.0362 65.316 53.8135 65.6871 53.294Z" fill="white"/>
</svg>
