<svg xmlns="http://www.w3.org/2000/svg" width="320" height="103" viewBox="0 0 320 103"><path d="M71.3 54.7l5.4-2.8V9h-4.1l-10 13.4h-1.2L62 7.5h43.7l.7 14.9h-1.2L95.2 9h-4.1v42.8l5.4 2.9v1.4H71.3zm40.3-1.9V5.3l-4.3-1.7v-.8L122.7 0h1.6v22.5l.4-.4c3.4-3 8.3-4.9 13.1-4.9 6.8 0 9.7 3.8 9.7 10.9v24.7l3.6 2v1.4h-20v-1.4l3.6-2V28c0-3.9-1.7-5.4-5-5.4-2 0-3.9.6-5.2 1.7V53l3.5 2v1.3h-20V55l3.6-2zM163 38.2c.4 7.9 3.9 14 12.2 14 4 0 7-1.9 9.6-3.3v1.5c-2 2.9-7.3 6.9-14.7 6.9-13 0-19.5-7.2-19.5-19.6 0-12.2 7.2-19.8 18.9-19.8 11 0 16.7 5.5 16.7 20v.3H163zm-.2-1.8l11.3-.7c0-9.7-1.6-16.1-5-16.1-3.5 0-6.3 7.5-6.3 16.8zM0 75.2c0-20.7 13.7-28 29-28 6.4 0 12.5 1 16 2.4l.2 14.4h-1.4l-9-14c-1.5-.6-3-.9-5.6-.9C21 49.1 16.9 58.5 17 74c.2 18.3 3.4 26.7 10.8 26.7 2 0 3.5-.3 4.5-.8V80.2l-5-2.9v-1.6h23.8v1.7l-4.8 2.8v19.4a55 55 0 0 1-18 3C11 102.6 0 94.6 0 75.2m50-9.7v-1.2l16-2.8 1.8.2V93c0 3.8 1.8 5 4.9 5 2 0 3.7-.8 5.2-2.5V67.4l-4.4-1.9v-1.2l16-2.8 1.6.1v36l4.3 1.9v1.1l-15.8 2-1.6-.2v-4.7h-.4c-3 2.7-7 5-12 5-7.6 0-11.1-4.5-11.1-11.4V67.4L50 65.5zm102-4h1.4v11.7h.3c1.8-8.5 5.5-11.7 10.1-11.7a5 5 0 0 1 2 .3v12a20 20 0 0 0-12 1.4v23l3.7 2v1.5h-20.7v-1.5l3.7-2V66.8l-4.4-1.3v-1l16-3zm41.1 1V50.1l-4.3-1.6v-1l16-3 1.6.3v52.7l4.5 1.7v1.3l-16 2.2-1.2-.2v-4.4h-.3a14.2 14.2 0 0 1-10.6 4.5c-8.7 0-15-6.6-15-20.2 0-14.3 7.3-21.3 18.5-21.3 3.2 0 5.6.6 6.8 1.2m0 33.8V64.7c-1-.7-1.7-1.5-4.4-1.4-4.3.1-7 6.7-7 18.2 0 10.5 2 16.3 7.7 16 1.6 0 3-.5 3.7-1.3m36.2-34.8l1.3.2v36.6l3.7 2v1.5h-20.7v-1.5l3.7-2V67.3l-4.4-1.7v-1.2l16.4-3zm1.4-9.9a7 7 0 0 1-7 6.8 6.8 6.8 0 0 1 0-13.6c3.7 0 7 3 7 6.8zm48.5 46.7V67l-4.4-1.5V64l15.9-3 1.6.1v4.7h.4c3.5-3 8.6-5 13.6-5 7 0 10 3.3 10 10.5v26.8l3.7 2v1.6h-20.7v-1.5l3.7-2V72c0-4-1.7-5.6-5-5.6-2.1 0-3.9.5-5.5 1.7v30l3.7 2v1.5h-20.8v-1.5l3.8-2zm-23.5-19.6v-5.2c0-8-1.8-10.5-6.6-10.5l-1.7.1-8.6 11.8h-1.3V64c3.8-1.2 8.4-2.5 14.6-2.5 10.6 0 16.7 3 16.7 11.8v25.5l3.8 1v1c-1.5 1-4.5 1.8-7.8 1.8-5.2 0-7.7-1.8-8.8-4.6h-.4c-2.2 3-5.4 4.7-10.3 4.7-6.3 0-10.6-4-10.6-10.7 0-6.6 4-10.2 12.4-11.8l8.6-1.6zm0 17.6V80.4l-2.7.3c-4.1.3-5.6 3-5.6 8.8 0 6.4 2 8 5 8 1.6 0 2.6-.4 3.3-1.3zM117.3 78.6v-5.2c0-8-1.7-10.5-6.5-10.5l-1.7.1-8.7 11.8h-1.2V64c3.7-1.2 8.4-2.5 14.6-2.5 10.6 0 16.7 3 16.7 11.8v25.5l3.8 1v1c-1.5 1-4.5 1.8-7.8 1.8-5.2 0-7.7-1.8-8.9-4.6h-.3c-2.3 3-5.4 4.7-10.3 4.7-6.3 0-10.6-4-10.6-10.7 0-6.6 4-10.2 12.3-11.8l8.6-1.6zm0 17.6V80.4l-2.6.3c-4.2.3-5.7 3-5.7 8.8 0 6.4 2.1 8 5 8 1.7 0 2.6-.4 3.3-1.3z" fill="#FFF"/></svg>
