<?xml version="1.0" encoding="utf-8"?>
<!-- Generator: Adobe Illustrator 16.0.1, SVG Export Plug-In . SVG Version: 6.00 Build 0)  -->
<!DOCTYPE svg PUBLIC "-//W3C//DTD SVG 1.1//EN" "http://www.w3.org/Graphics/SVG/1.1/DTD/svg11.dtd">
<svg version="1.1" id="Layer_1" xmlns="http://www.w3.org/2000/svg" xmlns:xlink="http://www.w3.org/1999/xlink" x="0px" y="0px"
	 width="160px" height="80px" viewBox="0 0 160 80" enable-background="new 0 0 160 80" xml:space="preserve">
<path fill="#676767" d="M90.331,18.377c0-10.889-3.334-12.668-7.333-12.668s-7.11,1.556-7.11,12.668
	c0,11.109,3.332,12.221,7.11,12.221C86.997,30.376,90.331,29.266,90.331,18.377 M75.888,60.152c-5.111,0-6.443,3.777-6.443,6.444
	c0,4,3.555,7.557,13.999,7.557c11.776,0,15.11-3.333,15.11-7.557c0-3.777-2.89-6.444-7.557-6.444H75.888z M66.332,4.155
	C52.555,10.376,43,24.155,43,40.376c0,10.887,4.444,20.887,11.556,27.998v-0.665c0-7.112,6.888-9.779,13.109-11.112
	C61.889,55.265,59,51.041,59,46.819c0-5.777,6.442-10.667,9.555-12.889l-0.444-0.222C62.555,30.598,59,25.266,59,18.154
	C59,12.153,61.667,7.265,66.332,4.155 M123,40.597c0-16.441-10.003-30.665-24.225-36.665c4.667,3.112,7.556,7.778,7.777,13.999
	l0.224,1.335c0,11.999-9.778,18.223-23.778,18.223c-3.555,0-5.999-0.224-9.109-1.112c-1.335,0.889-2.445,2.443-2.445,4
	c0,1.998,1.777,3.555,3.999,3.555h19.556c12.223,0,18.221,4.889,18.221,15.777c0,3.556-0.666,6.889-2.223,9.556
	C118.332,61.708,123,51.707,123,40.597"/>
<circle opacity="0.8" fill="#FFBB00" cx="40" cy="40" r="40"/>
<g>
	<path fill="#FFFFFF" d="M120,1c21.505,0,39,17.495,39,39s-17.495,39-39,39S81,61.505,81,40S98.495,1,120,1 M120,0
		C97.908,0,80,17.909,80,40c0,22.092,17.908,40,40,40s40-17.908,40-40C160,17.909,142.092,0,120,0L120,0z"/>
</g>
<g>
	<path fill="#FFFFFF" d="M94.738,45.493h0.098l2.363-7.503l-1.463-0.682v-1.267h5.359v1.267l-1.461,0.682l-4.117,11.693h-3.922
		l-4.02-11.693l-1.461-0.682v-1.267h7.916v1.267L92.57,37.99L94.738,45.493z"/>
	<path fill="#FFFFFF" d="M108.016,35.651h0.365v12.083l1.463,0.683v1.267h-7.455v-1.267l1.463-0.683v-9.233l-1.535-0.706v-1.243
		L108.016,35.651z M108.455,32.46c0,1.316-1.096,2.388-2.412,2.388c-1.34,0-2.412-1.072-2.412-2.388
		c0-1.339,1.072-2.412,2.412-2.412C107.359,30.048,108.455,31.121,108.455,32.46z"/>
	<path fill="#FFFFFF" d="M119.197,32.972l-1.51-0.682v-1.243l5.676-0.901h0.365v17.247l1.438,0.804v1.17l-5.385,0.608h-0.391v-1.413
		h-0.145c-0.561,0.731-1.73,1.486-3.436,1.486c-2.484,0-5.455-1.583-5.455-6.821c0-5.505,3.045-7.479,6.65-7.479
		c0.754,0,1.631,0.17,2.191,0.561V32.972z M119.197,38.112c-0.342-0.268-0.73-0.487-1.535-0.487c-1.436,0-2.508,1.292-2.508,5.14
		c0,3.362,0.852,4.823,2.654,4.823c0.684,0,1.072-0.121,1.389-0.243V38.112z"/>
	<path fill="#FFFFFF" d="M130.182,43.276c0.221,2.655,1.488,3.922,3.973,3.922c1.73,0,2.703-0.17,3.654-0.463v1.315
		c-0.635,0.878-2.68,1.998-5.189,1.998c-4.676,0-7.088-2.582-7.088-7.211c0-4.506,2.654-7.113,6.723-7.113
		c4.092,0,6.066,1.827,6.066,7.552H130.182z M130.135,41.645l3.775-0.22c0-3.629-0.609-4.214-1.729-4.214
		C130.938,37.21,130.182,38.014,130.135,41.645z"/>
	<path fill="#FFFFFF" d="M153.885,42.862c0,4.629-2.85,7.187-6.992,7.187c-4.141,0-6.992-2.558-6.992-7.187s2.852-7.162,6.992-7.162
		C151.035,35.7,153.885,38.233,153.885,42.862z M149.135,42.862c0-4.507-0.707-5.286-2.217-5.286s-2.266,0.779-2.266,5.286
		s0.756,5.286,2.266,5.286S149.135,47.369,149.135,42.862z"/>
</g>
<path fill="#FFFFFF" d="M27.292,30l-2.746,2.87v14.261L27.379,50h16.055V30H27.292 M53.395,30.87l-7.384,6.957v4.347l7.384,6.957
	h2.059V30.87H53.395"/>
</svg>
