<?xml version="1.0" encoding="utf-8"?>
<!-- Generator: Adobe Illustrator 16.0.1, SVG Export Plug-In . SVG Version: 6.00 Build 0)  -->
<!DOCTYPE svg PUBLIC "-//W3C//DTD SVG 1.1//EN" "http://www.w3.org/Graphics/SVG/1.1/DTD/svg11.dtd">
<svg version="1.1" id="Layer_1" xmlns="http://www.w3.org/2000/svg" xmlns:xlink="http://www.w3.org/1999/xlink" x="0px" y="0px"
	 width="320px" height="71px" viewBox="0 0 320 71" enable-background="new 0 0 320 71" xml:space="preserve">
<path fill="#FFFFFF" d="M284,45h16v-3l-3-1.5v-20c1.2-0.9,2.8-1.1,4.3-1.1c2.8,0,3.7,0.9,3.7,4.1v17l-3,1.5v3h16v-3l-3-1.5v-19
	c0-5.7-2.1-8.3-7.1-8.3c-4.101,0-8.101,1.5-10.801,4V13h-1L283.7,15.2v2.7l3.3,1.6v21l-3,1.5V45z M245.3,0.4
	c-3,0-5.399,2.4-5.399,5.5c0,3,2.399,5.4,5.399,5.4c2.9,0,5.4-2.4,5.4-5.4C250.6,2.8,248.2,0.4,245.3,0.4z M237,15.1v2.8l3,1.6v20.9
	l-3,1.5V45h16v-3.1l-3-1.5V13.1h-1L237,15.1z M223,39c-0.7,0.6-1.7,1.1-3.2,1.1c-4,0-5.899-3.3-5.899-10.899
	c0-8.7,2.399-11.6,5.6-11.6c1.8,0,2.8,0.6,3.5,1.4V39L223,39z M223,14.6c-1.2-0.9-3.3-1.4-5-1.4c-7.4,0-14.5,4.4-14.5,16.8
	c0,11.9,7.1,15.7,11.8,15.7c3.8,0,6.4-1.7,7.601-3.4h0.3v3.3h0.899L236,44.2v-2.3l-3-1.801V0.6h-1l-12.6,2v2.8l3.6,1.5V14.6z
	 M181,18l3,1.5v20.9l-3,1.5V45h17v-3.1l-4-1.5V24.1c1.8-1.4,4.1-1.9,6.8-1.9c0.9,0,1.601,0.2,2.2,0.3v-9c-0.3-0.1-0.7-0.2-1.2-0.2
	c-3.3,0-6,2.2-7.8,6.2V13h-1l-12,2V18z M161.7,17.2c3.899,0,5.3,2,5.3,5.9v3.5l-6.1,1.1c-5.9,1.1-10.4,2.899-10.4,9.3
	c0,5.1,3.5,8.7,8.3,8.7c3.8,0,7.4-1.7,8.7-4.4h0.3c0.5,3.3,3.3,4.4,6.4,4.4c2.399,0,4.8-0.601,5.7-1.601v-2l-2.9-1.5v-18
	c0-7-5.2-9.4-13.3-9.4c-5.3,0-8.6,1.3-11.4,2.6v7.8h4.7l2-6C160.1,17.2,161.3,17.2,161.7,17.2z M164,40.1c-1.9,0-4-1.1-4-4.6
	c0-2.4,2.4-4.7,4.8-5L167,30v8.5C167,38.5,165.1,40.1,164,40.1z M264.7,17.2c3.899,0,5.3,2,5.3,5.9v3.5l-6.1,1.1
	c-5.9,1.1-10.4,2.899-10.4,9.3c0,5.1,3.5,8.7,8.3,8.7c3.8,0,7.4-1.7,8.7-4.4h0.3c0.5,3.3,3.3,4.4,6.4,4.4
	c2.399,0,4.8-0.601,5.7-1.601v-2l-2.9-1.5v-18c0-7-5.2-9.4-13.3-9.4c-5.3,0-8.601,1.3-11.4,2.6v7.8h4.7l2-6
	C263.1,17.2,264.3,17.2,264.7,17.2L264.7,17.2z M267,40.1c-1.9,0-4-1.1-4-4.6c0-2.4,2.4-4.7,4.8-5L270,30v8.5
	C270,38.5,268.1,40.1,267,40.1z M128.3,45.7c0.4,0,0.9,0,1.3-0.101c3.5-0.3,6.7-2,8.4-4.199v4.1l12-1.5v-2l-3-2V13h-1l-12,2.3V18
	l4,1.7V38c-1.1,0.8-2.4,1.3-4.2,1.3c-2.5,0-4.8-0.8-4.8-4.3V13h-1l-12,2.5v2.6l4,1.6V36C120,41.4,122.2,45.7,128.3,45.7z M96,38
	c-1.2,0-2.5-0.8-2.5-1.9c0-0.8,0.6-1.699,1.4-2.3c1.6,0.5,3,0.601,5,0.601c7.8,0,13.2-3.7,13.2-10.4c0-3-1.3-4.6-3.2-6.4L115,19v-6
	l-8.2,1.6c-1.9-0.7-4.5-1.6-7-1.6c-7.8,0-13.2,4.1-13.2,10.8c0,4.1,2,7.101,5,8.8l0.2,0.2c-1.7,1.2-5.3,4-5.3,7.2
	c0,2.4,1.5,4.8,4.8,5.5C87.9,46.3,84,48,84,52c0,4.1,5.9,8,15.5,8c11.8,0,16.5-5.7,16.5-13c0-6.1-2.8-9-9.5-9H96z M103.5,24
	c0,5.7-1.3,6.5-3.5,6.5s-4-0.8-4-6.5c0-5.8,1.8-7.5,4-7.5S103.5,18.5,103.5,24z M92,50.9c0.1-1.5,1.1-3.4,3.7-3.601h8.6
	c2.5,0,3.7,2,3.7,3.601c0,3.199-2,4.399-8.3,4.399C94.2,55.3,91.9,53.1,92,50.9z"/>
<path fill="#AAD8F1" d="M83,30c0-13-5.1-16.9-13-16.9c-9,0-15,6.2-15,16.4c0,10.5,5.5,16.2,15.8,16.2c5.6,0,9.7-2.7,11.2-4.7v-3
	c-2.1,0.7-3.9,1.2-7.7,1.2C68.7,39.2,65,36,65,30H83z M69.9,16.6c2.5,0,3.8,1.8,3.8,9.6l-8.4,0.7C65.4,19,67.1,16.6,69.9,16.6z
	 M37,45v-3l-3-1.5V21c1.2-0.9,3.2-1.7,4.8-1.7c2.8,0,4.3,1.6,4.2,4.2v17L40,42v3h16v-3l-3-1.5v-19c0-5.7-3.3-8.3-7.7-8.3
	c-4.1,0-8.6,1.3-11.3,3.8V0h-1L21,2v3l4,1.5v34L22,42v3H37z M4,36.4c0,5.699,2.8,9.3,8.9,9.3c3.1,0,6.2-0.8,8.1-2.3V39.6
	c-0.8,0.301-1.9,0.5-2.9,0.5c-2.9,0-4.1-1.6-4.1-4.6V19h7v-5h-7V6.5L4,8v6l-4,1v4h4V36.4z"/>
<g>
	<path d="M72.936,59.566c0,0-0.002,0.028-0.004,0.055C72.947,59.534,72.95,59.51,72.936,59.566z"/>
	<path d="M76.235,46.683c-0.011,0.024-0.021,0.051-0.021,0.051C76.19,46.786,76.2,46.765,76.235,46.683z"/>
	<path d="M74.847,36.061c-2.647-1.137-2.606-1.32-2.819-1.767c-0.213-0.446,0.326-1.848,0.326-1.848l-1.795-0.44
		c0,0-0.627,1.912-1.25,2.997c-0.622,1.086-3.652,5.725-3.493,12.21c0.021,0.834,0.211,1.175,0.095,1.813
		c-0.199,1.088-0.364,1.635-0.432,1.839l-0.008-0.009c0,0-0.001-0.014-0.005,0.018c-0.005,0.015-0.009,0.018-0.012,0.02h0.004
		c-0.033,0-0.139,0.787-0.464,1.836c-0.192,0.619-0.516,0.833-0.92,1.562c-3.146,5.674-2.62,11.24-2.572,12.49
		c0.048,1.25-0.286,3.257-0.286,3.257l1.794,0.443c0,0,0.176-1.508,0.572-1.804c0.396-0.298,0.439-0.459,3.311-0.241
		c5.264,0.401,5.705-3.478,6.027-4.635c1.417-5.103,1.236-5.193,0.006-7.031c-0.944-1.407-6.253-3.41-6.555-3.877
		c-0.274-0.425,0.017-1.441,0.091-1.729c-0.003-0.001,0.284-1.338,0.723-1.587c0.483-0.274,6.118,0.403,7.607-0.407
		c1.941-1.058,2.143-1.049,3.249-6.227C78.294,41.77,79.697,38.144,74.847,36.061z M71.137,56.25
		c2.178,1.544,1.861,3.127,1.79,3.417c0,0,0.002-0.022,0.004-0.046c-0.116,0.631-0.952,4.596-1.632,5.972
		c-0.898,1.817-1.601,1.745-3.75,1.918c-2.008,0.163-3.001-0.056-3.89-0.733c-0.767-0.587-0.908-1.638-0.847-2.171
		c0.127-1.11,0.169-3.668,0.868-6.065c0.643-2.208,1.152-3.123,2.229-3.993C66.988,53.677,69.297,54.944,71.137,56.25z
		 M76.252,46.641c-0.115,0.271-0.58,1.814-3.227,2.175c-2.234,0.304-4.897,0.346-5.449-0.926c-0.552-1.271-0.594-2.322-0.141-4.577
		c0.492-2.448,1.633-4.738,2.034-5.781c0.193-0.5,0.801-1.368,1.753-1.532c1.102-0.19,2.079,0.075,3.783,1.149
		c1.825,1.148,2.537,1.436,2.492,3.461c-0.035,1.536-1.014,5.485-1.263,6.073C76.244,46.66,76.252,46.641,76.252,46.641z"/>
	<path d="M65.454,50.894h-0.006C65.448,50.894,65.45,50.896,65.454,50.894z"/>
</g>
<path fill="#AAD8F1" d="M74.3,39.2C68.7,39.2,65,36,65,30l-10-0.5c0,10.5,5.5,16.2,15.8,16.2L74.3,39.2z"/>
</svg>
