<svg viewBox="0 0 300 116" fill="none" xmlns="http://www.w3.org/2000/svg">
    <path d="M68.131 51.5536L73.2834 48.8788V8.50213H69.3872L59.8701 21.0906H58.7949L59.4017 7.05859H100.664L101.26 21.0906H100.131L90.8059 8.50213H86.8138V48.7939L91.9982 51.5217V52.891H68.131V51.5536Z" fill="white"/>
    <path d="M105.401 49.7702V5.02054L101.398 3.4284V2.58988L115.866 0H117.388V21.1754L117.792 20.8358C120.997 18.0442 125.596 16.2504 130.194 16.2504C136.529 16.2504 139.328 19.8168 139.328 26.4613V49.7702L142.714 51.6065V52.9651H123.797V51.6171L127.192 49.7702V26.3764C127.192 22.7251 125.596 21.2604 122.594 21.2604C120.592 21.2604 118.868 21.8866 117.59 22.9056V49.8233L120.922 51.6596V52.9545H101.995V51.6702L105.401 49.7702Z" fill="white"/>
    <path d="M153.732 36.0252C154.125 43.4233 157.447 49.1444 165.324 49.1444C169.136 49.1444 171.839 47.3825 174.384 46.0451V47.4992C172.414 50.1846 167.422 53.9527 160.47 53.9527C148.26 53.9527 142.021 47.1914 142.021 35.4733C142.021 24.0205 148.845 16.8877 159.874 16.8877C170.243 16.8877 175.629 22.0568 175.629 35.6643V36.0146H153.732V36.0252ZM153.529 34.3269L164.271 33.6688C164.271 24.5087 162.695 18.4268 159.544 18.4268C156.201 18.4268 153.529 25.4852 153.529 34.3269Z" fill="white"/>
    <path d="M0 70.8077C0 51.3305 12.9343 44.3994 27.3376 44.3994C33.4481 44.3994 39.2179 45.3759 42.4435 46.7133L42.7203 60.3102H41.347L32.8945 47.1591C31.4467 46.5435 30.0735 46.2994 27.5399 46.2994C19.8858 46.2994 15.9682 55.1198 16.0853 69.587C16.2344 86.8883 19.247 94.7428 26.273 94.7428C28.1041 94.7428 29.5093 94.4669 30.4886 94.0423V75.4992L25.8472 72.8456V71.2959H48.2666V72.9518L43.6997 75.4992V93.7875C39.9099 95.2629 33.512 96.664 26.7627 96.664C10.39 96.664 0 89.096 0 70.8077Z" fill="white"/>
    <path d="M47.4785 61.7225V60.5974L62.5525 57.9438L64.2026 58.0818V87.6956C64.2026 91.262 65.9271 92.3658 68.812 92.3658C70.675 92.3658 72.357 91.6653 73.6983 90.0625V63.5057L69.5679 61.7225V60.5549L84.6419 57.9014L86.1535 58.0393V91.9837L90.2201 93.682V94.7647L75.3484 96.5903L73.8367 96.4523V91.9943H73.4215C70.6644 94.5312 66.8107 96.7283 62.1267 96.7283C54.8984 96.7283 51.5877 92.472 51.5877 86.0185V63.5057L47.4785 61.7225Z" fill="white"/>
    <path d="M142.767 57.8799L144.002 58.0179V68.9824H144.342C145.95 60.9474 149.505 57.9436 153.838 57.9436C154.53 57.9436 155.286 58.0073 155.701 58.2195V69.4388C155.009 69.2371 153.774 69.1628 152.603 69.1628C149.165 69.1628 146.631 69.7785 144.406 70.7974V92.4717L147.834 94.3717V95.7728H128.289V94.3823L131.813 92.4824V62.9004L127.682 61.6692V60.6608L142.767 57.8799Z" fill="white"/>
    <path d="M180.622 58.8037V47.2342L176.491 45.7907V44.8672L191.704 42.0757L193.151 42.2774V91.9627L197.356 93.4805V94.7648L182.346 96.7815L181.175 96.6436V92.5358H180.835C178.631 94.733 175.597 96.7179 170.849 96.7179C162.652 96.7179 156.669 90.4767 156.669 77.7077C156.669 64.2489 163.621 57.6362 174.16 57.6362C177.173 57.6362 179.451 58.1881 180.622 58.8037ZM180.59 90.6147V60.916C179.621 60.3004 178.929 59.5361 176.427 59.621C172.361 59.759 169.849 65.8941 169.849 76.8055C169.849 86.6237 171.658 92.1113 177.077 91.9308C178.599 91.8778 179.834 91.3364 180.59 90.6147Z" fill="white"/>
    <path d="M214.07 57.8476L215.379 57.9856V92.4607L218.818 94.3607V95.7617H199.273V94.3713L202.786 92.4713V63.4307L198.581 61.7855V60.6392L214.07 57.8476ZM215.454 48.5389C215.454 52.1796 212.356 54.9181 208.779 54.9181C205.064 54.9181 202.168 52.169 202.168 48.5389C202.168 44.8982 205.064 42.0854 208.779 42.0854C212.356 42.0854 215.454 44.8982 215.454 48.5389Z" fill="white"/>
    <path d="M261.453 92.4715V63.1125L257.322 61.6689V60.2466L272.332 57.4551L273.844 57.5931V61.9874H274.259C277.495 59.1003 282.318 57.2534 287.066 57.2534C293.602 57.2534 296.498 60.3422 296.498 67.2096V92.4078L300 94.3609V95.7619H280.455V94.3715L283.968 92.4715V67.8995C283.968 64.1208 282.318 62.6136 279.22 62.6136C277.219 62.6136 275.579 63.1231 274.057 64.2482V92.4609L277.495 94.3609V95.7619H257.94V94.3715L261.453 92.4715Z" fill="white"/>
    <path d="M239.768 74.0236V69.0986C239.768 61.6792 238.15 59.2485 233.551 59.2485C233.008 59.2485 232.54 59.3122 231.997 59.3865L223.811 70.4466H222.661V60.2675C226.174 59.1848 230.571 57.9111 236.394 57.9111C246.4 57.9111 252.223 60.6815 252.223 69.0349V93.0443L255.811 93.989V94.9336C254.395 95.8146 251.553 96.6213 248.434 96.6213C243.494 96.6213 241.131 95.0079 240.045 92.3013H239.704C237.607 95.1353 234.637 96.7487 229.964 96.7487C224.013 96.7487 219.957 93.0443 219.957 86.6333C219.957 80.424 223.811 77.0592 231.656 75.5733L239.768 74.0236ZM239.768 90.6136V75.7749L237.267 75.9766C233.338 76.3162 231.923 78.8106 231.923 84.3406C231.923 90.3377 233.881 91.898 236.66 91.898C238.214 91.8874 239.098 91.4203 239.768 90.6136Z" fill="white"/>
    <path d="M110.202 74.0236V69.0986C110.202 61.6792 108.584 59.2485 103.975 59.2485C103.432 59.2485 102.963 59.3122 102.42 59.3865L94.234 70.4466H93.0843V60.2675C96.5973 59.1848 100.994 57.9111 106.817 57.9111C116.824 57.9111 122.647 60.6815 122.647 69.0349V93.0443L126.234 93.989V94.9336C124.818 95.8146 121.976 96.6213 118.857 96.6213C113.917 96.6213 111.554 95.0079 110.468 92.3013H110.128C108.031 95.1353 105.05 96.7487 100.387 96.7487C94.4363 96.7487 90.3804 93.0443 90.3804 86.6333C90.3804 80.424 94.234 77.0592 102.08 75.5733L110.202 74.0236ZM110.202 90.6136V75.7749L107.701 75.9766C103.772 76.3162 102.357 78.8106 102.357 84.3406C102.357 90.3377 104.315 91.898 107.094 91.898C108.637 91.8874 109.521 91.4203 110.202 90.6136Z" fill="white"/>
    <path d="M244.764 103.344H246.604V104.528H246.7C246.807 104.346 246.94 104.176 247.1 104.016C247.271 103.856 247.457 103.717 247.66 103.6C247.863 103.482 248.071 103.392 248.284 103.328C248.508 103.253 248.732 103.216 248.956 103.216C249.223 103.216 249.393 103.242 249.468 103.296V105.056C249.383 105.034 249.271 105.018 249.132 105.008C249.004 104.997 248.892 104.992 248.796 104.992C248.423 104.992 248.044 105.05 247.66 105.168C247.276 105.274 246.951 105.413 246.684 105.584V112H244.764V103.344Z" fill="#FFE500"/>
    <path d="M239.196 112.16C238.428 112.16 237.81 111.957 237.34 111.552C236.871 111.147 236.636 110.523 236.636 109.68C236.636 108.88 236.871 108.283 237.34 107.888C237.81 107.483 238.466 107.227 239.308 107.12L241.228 106.864V106.208C241.228 105.931 241.196 105.701 241.132 105.52C241.068 105.339 240.962 105.2 240.812 105.104C240.674 104.997 240.482 104.923 240.236 104.88C240.002 104.837 239.708 104.816 239.356 104.816C238.951 104.816 238.567 104.843 238.204 104.896C237.852 104.949 237.548 105.003 237.292 105.056V103.664C238.071 103.344 239.01 103.184 240.108 103.184C241.079 103.184 241.826 103.387 242.348 103.792C242.882 104.197 243.148 104.859 243.148 105.776V112H241.564L241.404 111.136H241.308C241.106 111.413 240.839 111.653 240.508 111.856C240.178 112.059 239.74 112.16 239.196 112.16ZM239.788 110.768C240.087 110.768 240.359 110.725 240.604 110.64C240.86 110.544 241.068 110.421 241.228 110.272V108.08L239.74 108.224C238.951 108.299 238.556 108.752 238.556 109.584C238.556 110 238.668 110.304 238.892 110.496C239.116 110.677 239.415 110.768 239.788 110.768Z" fill="#FFE500"/>
    <path d="M232.664 112.16C231.256 112.16 230.216 111.813 229.544 111.12C228.882 110.427 228.552 109.413 228.552 108.08V107.296C228.552 106.592 228.648 105.984 228.84 105.472C229.032 104.949 229.298 104.523 229.64 104.192C229.981 103.851 230.381 103.6 230.84 103.44C231.298 103.269 231.8 103.184 232.344 103.184C233.602 103.184 234.509 103.509 235.064 104.16C235.618 104.811 235.896 105.813 235.896 107.168V108.24H230.536C230.546 108.72 230.605 109.115 230.712 109.424C230.818 109.723 230.973 109.957 231.176 110.128C231.389 110.299 231.65 110.416 231.96 110.48C232.269 110.544 232.632 110.576 233.048 110.576C233.613 110.576 234.088 110.523 234.472 110.416C234.866 110.299 235.25 110.149 235.624 109.968V111.36C235.336 111.541 234.952 111.723 234.472 111.904C234.002 112.075 233.4 112.16 232.664 112.16ZM232.328 104.624C232.104 104.624 231.885 104.656 231.672 104.72C231.469 104.773 231.282 104.885 231.112 105.056C230.941 105.216 230.802 105.445 230.696 105.744C230.589 106.032 230.53 106.411 230.52 106.88H233.976C233.976 106.016 233.837 105.424 233.56 105.104C233.282 104.784 232.872 104.624 232.328 104.624Z" fill="#FFE500"/>
    <path d="M222.04 115.312C221.816 115.312 221.576 115.286 221.32 115.232C221.075 115.19 220.888 115.126 220.76 115.04V113.68C221.005 113.734 221.288 113.76 221.608 113.76C221.992 113.76 222.307 113.675 222.552 113.504C222.808 113.334 223.011 113.046 223.16 112.64L223.464 111.824L220.456 103.344H222.488L223.432 106.16C223.581 106.608 223.715 107.083 223.832 107.584C223.96 108.075 224.067 108.523 224.152 108.928C224.259 109.408 224.349 109.878 224.424 110.336H224.472C224.557 109.878 224.653 109.408 224.76 108.928C224.845 108.523 224.947 108.075 225.064 107.584C225.192 107.083 225.331 106.608 225.48 106.16L226.376 103.344H228.28L224.968 112.944C224.691 113.766 224.328 114.363 223.88 114.736C223.432 115.12 222.819 115.312 222.04 115.312Z" fill="#FFE500"/>
    <path d="M213.108 112.16C211.7 112.16 210.66 111.813 209.988 111.12C209.327 110.427 208.996 109.413 208.996 108.08V107.296C208.996 106.592 209.092 105.984 209.284 105.472C209.476 104.949 209.743 104.523 210.084 104.192C210.425 103.851 210.825 103.6 211.284 103.44C211.743 103.269 212.244 103.184 212.788 103.184C214.047 103.184 214.953 103.509 215.508 104.16C216.063 104.811 216.34 105.813 216.34 107.168V108.24H210.98C210.991 108.72 211.049 109.115 211.156 109.424C211.263 109.723 211.417 109.957 211.62 110.128C211.833 110.299 212.095 110.416 212.404 110.48C212.713 110.544 213.076 110.576 213.492 110.576C214.057 110.576 214.532 110.523 214.916 110.416C215.311 110.299 215.695 110.149 216.068 109.968V111.36C215.78 111.541 215.396 111.723 214.916 111.904C214.447 112.075 213.844 112.16 213.108 112.16ZM212.772 104.624C212.548 104.624 212.329 104.656 212.116 104.72C211.913 104.773 211.727 104.885 211.556 105.056C211.385 105.216 211.247 105.445 211.14 105.744C211.033 106.032 210.975 106.411 210.964 106.88H214.42C214.42 106.016 214.281 105.424 214.004 105.104C213.727 104.784 213.316 104.624 212.772 104.624Z" fill="#FFE500"/>
    <path d="M200.686 99.6958H202.606V104.224H202.686C202.995 103.925 203.385 103.68 203.854 103.488C204.323 103.285 204.819 103.184 205.342 103.184C206.142 103.184 206.739 103.37 207.134 103.744C207.539 104.117 207.742 104.725 207.742 105.568V112H205.822V106.048C205.822 105.61 205.731 105.301 205.55 105.12C205.369 104.928 205.001 104.832 204.446 104.832C204.137 104.832 203.811 104.88 203.47 104.976C203.139 105.061 202.851 105.168 202.606 105.296V112H200.686V99.6958Z" fill="#FFE500"/>
    <path d="M197.764 112.112C197.402 112.112 197.076 112.075 196.788 112C196.5 111.925 196.25 111.803 196.036 111.632C195.834 111.461 195.674 111.237 195.556 110.96C195.45 110.672 195.396 110.32 195.396 109.904V104.864H193.972V103.344H195.396V101.248H197.316V103.344H199.54V104.864H197.316V109.6C197.316 109.973 197.391 110.229 197.54 110.368C197.7 110.507 197.983 110.576 198.388 110.576C198.57 110.576 198.788 110.555 199.044 110.512C199.3 110.469 199.503 110.416 199.652 110.352V111.664C199.471 111.781 199.215 111.888 198.884 111.984C198.554 112.069 198.18 112.112 197.764 112.112Z" fill="#FFE500"/>
    <path d="M186.036 104.864H184.628V103.344H186.036V102.272C186.036 101.333 186.292 100.645 186.804 100.208C187.327 99.7704 187.993 99.5518 188.804 99.5518C189.199 99.5518 189.535 99.5838 189.812 99.6478C190.1 99.7011 190.319 99.7704 190.468 99.8558V101.2C190.351 101.168 190.191 101.141 189.988 101.12C189.785 101.088 189.561 101.072 189.316 101.072C188.868 101.072 188.527 101.178 188.292 101.392C188.068 101.605 187.956 101.957 187.956 102.448V103.344H190.02V104.864H187.956V112H186.036V104.864Z" fill="#FFE500"/>
    <path d="M180.189 112.16C178.941 112.16 177.97 111.813 177.277 111.12C176.583 110.427 176.237 109.413 176.237 108.08V107.344C176.237 106.661 176.338 106.064 176.541 105.552C176.743 105.029 177.021 104.592 177.373 104.24C177.725 103.888 178.141 103.627 178.621 103.456C179.111 103.275 179.639 103.184 180.205 103.184C181.431 103.184 182.386 103.531 183.069 104.224C183.762 104.907 184.109 105.92 184.109 107.264V108C184.109 108.693 184.007 109.301 183.805 109.824C183.613 110.336 183.341 110.768 182.989 111.12C182.647 111.461 182.237 111.723 181.757 111.904C181.277 112.075 180.754 112.16 180.189 112.16ZM180.221 110.672C180.829 110.672 181.293 110.48 181.613 110.096C181.943 109.712 182.109 109.067 182.109 108.16V107.28C182.109 106.736 182.055 106.299 181.949 105.968C181.853 105.627 181.714 105.36 181.533 105.168C181.362 104.976 181.159 104.848 180.925 104.784C180.69 104.709 180.439 104.672 180.173 104.672C179.565 104.672 179.09 104.869 178.749 105.264C178.407 105.659 178.237 106.304 178.237 107.2V108.096C178.237 108.629 178.285 109.067 178.381 109.408C178.487 109.739 178.631 110 178.813 110.192C178.994 110.373 179.202 110.501 179.437 110.576C179.682 110.64 179.943 110.672 180.221 110.672Z" fill="#FFE500"/>
    <path d="M167.323 103.344H169.163V104.528H169.259C169.365 104.346 169.499 104.176 169.659 104.016C169.829 103.856 170.016 103.717 170.219 103.6C170.421 103.482 170.629 103.392 170.843 103.328C171.067 103.253 171.291 103.216 171.515 103.216C171.781 103.216 171.952 103.242 172.027 103.296V105.056C171.941 105.034 171.829 105.018 171.691 105.008C171.563 104.997 171.451 104.992 171.355 104.992C170.981 104.992 170.603 105.05 170.219 105.168C169.835 105.274 169.509 105.413 169.243 105.584V112H167.323V103.344Z" fill="#FFE500"/>
    <path d="M162.918 112.16C161.51 112.16 160.47 111.813 159.798 111.12C159.137 110.427 158.806 109.413 158.806 108.08V107.296C158.806 106.592 158.902 105.984 159.094 105.472C159.286 104.949 159.553 104.523 159.894 104.192C160.235 103.851 160.635 103.6 161.094 103.44C161.553 103.269 162.054 103.184 162.598 103.184C163.857 103.184 164.763 103.509 165.318 104.16C165.873 104.811 166.15 105.813 166.15 107.168V108.24H160.79C160.801 108.72 160.859 109.115 160.966 109.424C161.073 109.723 161.227 109.957 161.43 110.128C161.643 110.299 161.905 110.416 162.214 110.48C162.523 110.544 162.886 110.576 163.302 110.576C163.867 110.576 164.342 110.523 164.726 110.416C165.121 110.299 165.505 110.149 165.878 109.968V111.36C165.59 111.541 165.206 111.723 164.726 111.904C164.257 112.075 163.654 112.16 162.918 112.16ZM162.582 104.624C162.358 104.624 162.139 104.656 161.926 104.72C161.723 104.773 161.537 104.885 161.366 105.056C161.195 105.216 161.057 105.445 160.95 105.744C160.843 106.032 160.785 106.411 160.774 106.88H164.23C164.23 106.016 164.091 105.424 163.814 105.104C163.537 104.784 163.126 104.624 162.582 104.624Z" fill="#FFE500"/>
    <path d="M153.268 112.16C152.852 112.16 152.442 112.096 152.036 111.968C151.631 111.829 151.268 111.605 150.948 111.296C150.639 110.986 150.388 110.576 150.196 110.064C150.004 109.541 149.908 108.896 149.908 108.128V107.44C149.908 106.661 149.999 106 150.18 105.456C150.362 104.912 150.612 104.474 150.932 104.144C151.263 103.802 151.652 103.557 152.1 103.408C152.559 103.258 153.06 103.184 153.604 103.184C154.095 103.184 154.5 103.253 154.82 103.392C155.151 103.52 155.412 103.669 155.604 103.84V99.6958H157.524V112H155.876L155.716 111.136H155.636C155.37 111.445 155.039 111.696 154.644 111.888C154.26 112.069 153.802 112.16 153.268 112.16ZM153.908 110.656C154.292 110.656 154.628 110.592 154.916 110.464C155.215 110.325 155.444 110.181 155.604 110.032V105.136C155.455 105.018 155.231 104.917 154.932 104.832C154.634 104.746 154.308 104.704 153.956 104.704C153.626 104.704 153.332 104.741 153.076 104.816C152.82 104.89 152.602 105.024 152.42 105.216C152.25 105.408 152.116 105.669 152.02 106C151.935 106.32 151.892 106.73 151.892 107.232V108.064C151.892 108.576 151.935 109.002 152.02 109.344C152.116 109.674 152.25 109.936 152.42 110.128C152.591 110.32 152.799 110.458 153.044 110.544C153.3 110.618 153.588 110.656 153.908 110.656Z" fill="#FFE500"/>
    <path d="M146.691 103.344H148.611V112H146.691V103.344ZM146.659 99.9678H148.643V101.808H146.659V99.9678Z" fill="#FFE500"/>
    <path d="M137.819 103.344H139.851L140.811 106.496C140.939 106.912 141.062 107.366 141.179 107.856C141.307 108.347 141.419 108.8 141.515 109.216C141.633 109.707 141.739 110.192 141.835 110.672H141.899C141.985 110.192 142.086 109.707 142.203 109.216C142.299 108.8 142.406 108.347 142.523 107.856C142.651 107.366 142.779 106.912 142.907 106.496L143.883 103.344H145.787L142.795 112H140.795L137.819 103.344Z" fill="#FFE500"/>
    <path d="M133.616 112.16C132.368 112.16 131.397 111.813 130.704 111.12C130.011 110.427 129.664 109.413 129.664 108.08V107.344C129.664 106.661 129.765 106.064 129.968 105.552C130.171 105.029 130.448 104.592 130.8 104.24C131.152 103.888 131.568 103.627 132.048 103.456C132.539 103.275 133.067 103.184 133.632 103.184C134.859 103.184 135.813 103.531 136.496 104.224C137.189 104.907 137.536 105.92 137.536 107.264V108C137.536 108.693 137.435 109.301 137.232 109.824C137.04 110.336 136.768 110.768 136.416 111.12C136.075 111.461 135.664 111.723 135.184 111.904C134.704 112.075 134.181 112.16 133.616 112.16ZM133.648 110.672C134.256 110.672 134.72 110.48 135.04 110.096C135.371 109.712 135.536 109.067 135.536 108.16V107.28C135.536 106.736 135.483 106.299 135.376 105.968C135.28 105.627 135.141 105.36 134.96 105.168C134.789 104.976 134.587 104.848 134.352 104.784C134.117 104.709 133.867 104.672 133.6 104.672C132.992 104.672 132.517 104.869 132.176 105.264C131.835 105.659 131.664 106.304 131.664 107.2V108.096C131.664 108.629 131.712 109.067 131.808 109.408C131.915 109.739 132.059 110 132.24 110.192C132.421 110.373 132.629 110.501 132.864 110.576C133.109 110.64 133.371 110.672 133.648 110.672Z" fill="#FFE500"/>
    <path d="M124.461 103.344H126.301V104.528H126.397C126.504 104.346 126.637 104.176 126.797 104.016C126.968 103.856 127.155 103.717 127.357 103.6C127.56 103.482 127.768 103.392 127.981 103.328C128.205 103.253 128.429 103.216 128.653 103.216C128.92 103.216 129.091 103.242 129.165 103.296V105.056C129.08 105.034 128.968 105.018 128.829 105.008C128.701 104.997 128.589 104.992 128.493 104.992C128.12 104.992 127.741 105.05 127.357 105.168C126.973 105.274 126.648 105.413 126.381 105.584V112H124.461V103.344Z" fill="#FFE500"/>
    <path d="M115.611 103.344H117.467V104.24H117.547C117.793 103.931 118.123 103.68 118.539 103.488C118.955 103.285 119.43 103.184 119.963 103.184C120.401 103.184 120.817 103.253 121.211 103.392C121.606 103.52 121.953 103.739 122.251 104.048C122.55 104.357 122.785 104.768 122.955 105.28C123.137 105.781 123.227 106.411 123.227 107.168V107.872C123.227 108.64 123.142 109.296 122.971 109.84C122.801 110.384 122.555 110.827 122.235 111.168C121.915 111.509 121.526 111.76 121.067 111.92C120.619 112.08 120.118 112.16 119.563 112.16C119.062 112.16 118.646 112.091 118.315 111.952C117.995 111.803 117.734 111.648 117.531 111.488V115.248H115.611V103.344ZM119.211 110.704C119.542 110.704 119.83 110.661 120.075 110.576C120.331 110.491 120.545 110.347 120.715 110.144C120.886 109.941 121.014 109.675 121.099 109.344C121.185 109.013 121.227 108.603 121.227 108.112V107.296C121.227 106.805 121.185 106.4 121.099 106.08C121.025 105.749 120.907 105.488 120.747 105.296C120.587 105.104 120.385 104.971 120.139 104.896C119.894 104.821 119.611 104.784 119.291 104.784C118.886 104.784 118.529 104.843 118.219 104.96C117.921 105.067 117.691 105.179 117.531 105.296V110.192C117.691 110.32 117.921 110.437 118.219 110.544C118.518 110.651 118.849 110.704 119.211 110.704Z" fill="#FFE500"/>
    <path d="M107.462 112.144C106.918 112.144 106.406 112.096 105.926 112C105.446 111.904 105.03 111.765 104.678 111.584V110.048C104.859 110.123 105.035 110.192 105.206 110.256C105.376 110.32 105.558 110.379 105.75 110.432C105.952 110.475 106.171 110.512 106.406 110.544C106.64 110.565 106.907 110.576 107.206 110.576C107.782 110.576 108.192 110.496 108.438 110.336C108.694 110.165 108.822 109.925 108.822 109.616C108.822 109.328 108.752 109.109 108.614 108.96C108.486 108.8 108.187 108.661 107.718 108.544L106.774 108.32C106.454 108.245 106.166 108.144 105.91 108.016C105.654 107.888 105.435 107.728 105.254 107.536C105.072 107.333 104.934 107.093 104.838 106.816C104.742 106.528 104.694 106.192 104.694 105.808C104.694 105.008 104.944 104.373 105.446 103.904C105.958 103.424 106.747 103.184 107.814 103.184C108.39 103.184 108.87 103.232 109.254 103.328C109.648 103.413 109.984 103.525 110.262 103.664V105.168C110.016 105.061 109.696 104.965 109.302 104.88C108.907 104.784 108.47 104.736 107.99 104.736C107.008 104.736 106.518 105.045 106.518 105.664C106.518 105.952 106.592 106.171 106.742 106.32C106.902 106.459 107.168 106.571 107.542 106.656L108.486 106.88C109.307 107.072 109.883 107.36 110.214 107.744C110.544 108.128 110.71 108.699 110.71 109.456C110.71 110.352 110.432 111.024 109.878 111.472C109.323 111.92 108.518 112.144 107.462 112.144Z" fill="#FFE500"/>
    <path d="M92.3345 103.344H94.3345L95.1025 106.544C95.1878 106.886 95.2731 107.291 95.3585 107.76C95.4438 108.219 95.5185 108.656 95.5825 109.072C95.6571 109.563 95.7318 110.064 95.8065 110.576H95.8705C95.9345 110.075 96.0091 109.579 96.0945 109.088C96.1691 108.672 96.2491 108.235 96.3345 107.776C96.4305 107.307 96.5265 106.896 96.6225 106.544L97.4865 103.344H99.2145L100.078 106.544C100.164 106.886 100.254 107.291 100.35 107.76C100.446 108.219 100.537 108.656 100.622 109.072C100.718 109.563 100.804 110.064 100.878 110.576H100.942C101.017 110.075 101.092 109.579 101.166 109.088C101.23 108.672 101.3 108.235 101.374 107.776C101.46 107.307 101.545 106.896 101.63 106.544L102.382 103.344H104.126L101.806 112H99.8545L98.8785 108.48C98.7825 108.16 98.6971 107.792 98.6225 107.376C98.5585 106.96 98.4998 106.566 98.4465 106.192C98.3931 105.766 98.3398 105.323 98.2865 104.864H98.2225C98.1798 105.323 98.1318 105.766 98.0785 106.192C98.0251 106.566 97.9611 106.96 97.8865 107.376C97.8118 107.792 97.7318 108.16 97.6465 108.48L96.6705 112H94.6705L92.3345 103.344Z" fill="#FFE500"/>
    <path d="M88.6335 112.16C87.2255 112.16 86.1855 111.813 85.5135 111.12C84.8522 110.427 84.5215 109.413 84.5215 108.08V107.296C84.5215 106.592 84.6175 105.984 84.8095 105.472C85.0015 104.949 85.2682 104.523 85.6095 104.192C85.9508 103.851 86.3508 103.6 86.8095 103.44C87.2682 103.269 87.7695 103.184 88.3135 103.184C89.5722 103.184 90.4788 103.509 91.0335 104.16C91.5882 104.811 91.8655 105.813 91.8655 107.168V108.24H86.5055C86.5162 108.72 86.5748 109.115 86.6815 109.424C86.7882 109.723 86.9428 109.957 87.1455 110.128C87.3588 110.299 87.6202 110.416 87.9295 110.48C88.2388 110.544 88.6015 110.576 89.0175 110.576C89.5828 110.576 90.0575 110.523 90.4415 110.416C90.8362 110.299 91.2202 110.149 91.5935 109.968V111.36C91.3055 111.541 90.9215 111.723 90.4415 111.904C89.9722 112.075 89.3695 112.16 88.6335 112.16ZM88.2975 104.624C88.0735 104.624 87.8548 104.656 87.6415 104.72C87.4388 104.773 87.2522 104.885 87.0815 105.056C86.9108 105.216 86.7722 105.445 86.6655 105.744C86.5588 106.032 86.5002 106.411 86.4895 106.88H89.9455C89.9455 106.016 89.8068 105.424 89.5295 105.104C89.2522 104.784 88.8415 104.624 88.2975 104.624Z" fill="#FFE500"/>
    <path d="M74.2798 100.464H76.4878L79.3838 105.488C79.6078 105.883 79.8318 106.309 80.0558 106.768C80.2905 107.216 80.4985 107.632 80.6798 108.016C80.8931 108.475 81.1011 108.928 81.3038 109.376H81.3518C81.3198 108.907 81.2931 108.432 81.2718 107.952C81.2505 107.547 81.2291 107.109 81.2078 106.64C81.1971 106.16 81.1918 105.712 81.1918 105.296V100.464H82.9838V112H81.0478L77.8638 106.416C77.6398 106.021 77.4105 105.595 77.1758 105.136C76.9518 104.677 76.7491 104.251 76.5678 103.856C76.3545 103.397 76.1465 102.939 75.9438 102.48H75.8798C75.9118 102.96 75.9438 103.445 75.9758 103.936C75.9971 104.352 76.0185 104.8 76.0398 105.28C76.0611 105.76 76.0718 106.203 76.0718 106.608V112H74.2798V100.464Z" fill="#FFE500"/>
</svg>
