<svg xmlns="http://www.w3.org/2000/svg" width="160" height="52" viewBox="0 0 160 52">
  <g fill="#FFF">
    <polygon points="35.634 27.546 38.361 26.118 38.361 4.541 36.299 4.541 31.258 11.269 30.691 11.269 31.009 3.772 52.862 3.772 53.179 11.269 52.577 11.269 47.642 4.541 45.527 4.541 45.527 26.071 48.272 27.529 48.272 28.256 35.634 28.256"/>
    <path d="M55.7892923 26.590819L55.7892923 2.6832 53.6708923 1.83089524 53.6708923 1.38567619 61.3351385 0 62.1435077 0 62.1435077 11.3122286 62.3552 11.1314667C64.0497231 9.63980952 66.4851692 8.68102857 68.9211077 8.68102857 72.2752 8.68102857 73.7575385 10.585219 73.7575385 14.1370667L73.7575385 26.590819 75.5490462 27.572381 75.5500308 28.2969143 65.5325538 28.2969143 65.5325538 27.5763429 67.3329231 26.5913143 67.3329231 14.0964571C67.3329231 12.1432381 66.4851692 11.3622476 64.8969846 11.3622476 63.8380308 11.3622476 62.9248 11.6960381 62.2493538 12.2417905L62.2493538 26.6249905 64.0142769 27.6055619 64.0142769 28.2969143 53.9904 28.2969143 53.9904 27.6095238 55.7892923 26.590819zM81.4833231 19.2494095C81.6910769 23.2009143 83.4505846 26.2590095 87.6219077 26.2590095 89.6374154 26.2590095 91.0690462 25.3190476 92.4179692 24.6034286L92.4179692 25.3814476C91.3757538 26.8146667 88.7335385 28.8297905 85.0491077 28.8297905 78.5846154 28.8297905 75.2827077 25.2145524 75.2827077 18.9557333 75.2827077 12.8375619 78.8977231 9.0272 84.7364923 9.0272 90.2281846 9.0272 93.0781538 11.7886476 93.0781538 19.061219L93.0781538 19.2489143 81.4833231 19.2489143 81.4833231 19.2494095zM81.3784615 18.3391619L87.0651077 17.9895238C87.0651077 13.0940952 86.2316308 9.84533333 84.5632 9.84533333 82.7904 9.8448381 81.3784615 13.6190476 81.3784615 18.3391619L81.3784615 18.3391619zM0 37.8317333C0 27.4257905 6.84652308 23.7209143 14.4743385 23.7209143 17.7112615 23.7209143 20.7625846 24.2448762 22.4738462 24.9560381L22.6230154 32.2177143 21.8953846 32.2177143 17.4173538 25.1912762C16.6503385 24.8599619 15.9232 24.7302095 14.5836308 24.7302095 10.5275077 24.7302095 8.45587692 29.4424 8.52086154 37.1696 8.59815385 46.4152 10.1952 50.6113524 13.9160615 50.6113524 14.8834462 50.6113524 15.6278154 50.4612952 16.1486769 50.2369524L16.1486769 40.3391238 13.6930462 38.9237333 13.6930462 38.0937143 25.5630769 38.0937143 25.5630769 38.9777143 23.1433846 40.3391238 23.1433846 50.109181C21.1347692 50.895619 17.7486769 51.6439238 14.1764923 51.6439238 5.50695385 51.6434286 0 47.6012952 0 37.8317333M25.0436923 32.9754286L25.0436923 32.3752 33.0284308 30.9593143 33.9032615 31.0326095 33.9032615 46.8559619C33.9032615 48.763619 34.8150154 49.3494857 36.3460923 49.3494857 37.3302154 49.3494857 38.2217846 48.9726095 38.9346462 48.1203048L38.9346462 33.9287619 36.7468308 32.9754286 36.7468308 32.3519238 44.7315692 30.9360381 45.5340308 31.0088381 45.5340308 49.1464381 47.6849231 50.0552 47.6849231 50.6321524 39.8094769 51.6062857 39.0075077 51.5329905 39.0075077 49.1499048 38.7884308 49.1499048C37.3302154 50.5063619 35.2886154 51.6800762 32.8093538 51.6800762 28.9811692 51.6800762 27.2310154 49.4059429 27.2310154 45.9585905L27.2310154 33.9287619 25.0436923 32.9754286zM76.0364308 30.9256381L76.6926769 30.9984381 76.6907077 36.8561143 76.8728615 36.8561143C77.7255385 32.5614095 79.6071385 30.9593143 81.9042462 30.9593143 82.2690462 30.9593143 82.6697846 30.9954667 82.8883692 31.1068952L82.8883692 37.0992762C82.5235692 36.9893333 81.8678154 36.9526857 81.248 36.9526857 79.4249846 36.9526857 78.0849231 37.284 76.9092923 37.8248L76.9112615 49.4024762 78.7264 50.4157333 78.7268923 51.1675048 68.3751385 51.1675048 68.3751385 50.4231619 70.2395077 49.4049524 70.2395077 33.6078476 68.0516923 32.9516571 68.0516923 32.4153143 76.0364308 30.9256381zM96.5725538 31.4193905L96.5725538 25.2408 94.3852308 24.4702095 94.3852308 23.9754667 102.442831 22.4852952 103.208369 22.5957333 103.208369 49.1385143 105.432615 49.9507048 105.432615 50.6346286 97.4843077 51.7132571 96.8649846 51.6399619 96.8649846 49.443581 96.6823385 49.443581C95.5160615 50.6163048 93.9111385 51.6805714 91.3964308 51.6805714 87.0577231 51.6805714 83.8852923 48.3431619 83.8852923 41.5217524 83.8852923 34.3318857 87.5672615 30.796381 93.1460923 30.796381 94.7495385 30.7958857 95.9527385 31.0895619 96.5725538 31.4193905M96.5612308 48.4134857L96.5612308 32.5470476C96.0512 32.217219 95.6819692 31.8096381 94.3591385 31.8556952 92.2043077 31.9324571 90.8736 35.2054857 90.8736 41.0369143 90.8736 46.2809905 91.8301538 49.2128 94.7017846 49.1162286 95.5037538 49.0894857 96.1604923 48.8007619 96.5612308 48.4134857M114.631877 30.9073143L115.324554 30.9811048 115.324554 49.4024762 117.144615 50.4157333 117.1456 51.1670095 106.793846 51.1670095 106.793846 50.4221714 108.652308 49.4044571 108.652308 33.8921143 106.428062 33.0120762 106.428062 32.3974857 114.631877 30.9073143zM115.361477 25.9336381C115.361477 27.8779429 113.720615 29.3448381 111.824246 29.3448381 109.856 29.3448381 108.324431 27.8779429 108.324431 25.9336381 108.324431 23.9898286 109.856 22.4857905 111.824246 22.4857905 113.720615 22.4857905 115.361477 23.9898286 115.361477 25.9336381L115.361477 25.9336381zM139.584985 49.4044571L139.584985 33.7217524 137.397662 32.9516571 137.397662 32.1909714 145.345969 30.7012952 146.147938 30.7740952 146.147938 33.1215238 146.366523 33.1215238C148.080246 31.5813333 150.632862 30.5908571 153.147569 30.5908571 156.611938 30.5908571 158.142523 32.2409905 158.142523 35.9087238L158.142523 49.3732571 159.999015 50.4147429 159.999015 51.166019 149.647754 51.166019 149.647754 50.4216762 151.506708 49.4039619 151.506708 36.2761905C151.506708 34.2585905 150.632369 33.4523429 148.991508 33.4523429 147.934031 33.4523429 147.062154 33.7217524 146.256738 34.3274286L146.256738 49.3990095 148.079754 50.4157333 148.079754 51.1670095 137.724062 51.1670095 137.724062 50.4226667 139.584985 49.4044571zM127.833108 39.5482286L127.833108 36.918019C127.833108 32.9546286 126.974031 31.6576 124.538092 31.6576 124.252554 31.6576 124.001477 31.6937524 123.714462 31.7299048L119.380677 37.6385905 118.772677 37.6385905 118.772677 32.1988952C120.634585 31.6224381 122.962215 30.9375238 126.042585 30.9375238 131.343754 30.9375238 134.423631 32.414819 134.423631 36.8823619L134.423631 49.7085333 136.321477 50.213181 136.321477 50.7173333C135.569231 51.1858286 134.064738 51.6181714 132.417477 51.6181714 129.802831 51.6181714 128.549415 50.7534857 127.976369 49.3123429L127.797662 49.3123429C126.687015 50.8252952 125.111138 51.6904762 122.640246 51.6904762 119.488492 51.6904762 117.339569 49.7090286 117.339569 46.2859429 117.339569 42.9718095 119.380677 41.1696381 123.535754 40.3772571L127.833108 39.5482286zM127.833108 48.4110095L127.833108 40.4857143 126.508308 40.593181C124.430277 40.7734476 123.678523 42.1071238 123.678523 45.0607238 123.678523 48.2673905 124.717785 49.0954286 126.186338 49.0954286 127.009969 49.0954286 127.475692 48.8433524 127.833108 48.4110095L127.833108 48.4110095zM58.6707692 39.5482286L58.6707692 36.918019C58.6707692 32.9546286 57.8116923 31.6576 55.3757538 31.6576 55.0897231 31.6576 54.8391385 31.6937524 54.5521231 31.7299048L50.2183385 37.6385905 49.6098462 37.6385905 49.6098462 32.1988952C51.4722462 31.6224381 53.7998769 30.9375238 56.8797538 30.9375238 62.1809231 30.9375238 65.2608 32.414819 65.2608 36.8823619L65.2608 49.7085333 67.1591385 50.213181 67.1591385 50.7173333C66.4068923 51.1858286 64.9024 51.6181714 63.2551385 51.6181714 60.6409846 51.6181714 59.3870769 50.7534857 58.8140308 49.3123429L58.6348308 49.3123429C57.5246769 50.8252952 55.9488 51.6904762 53.4779077 51.6904762 50.3261538 51.6904762 48.1772308 49.7090286 48.1772308 46.2859429 48.1772308 42.9718095 50.2183385 41.1696381 54.3734154 40.3772571L58.6707692 39.5482286zM58.6707692 48.4110095L58.6707692 40.4857143 57.3459692 40.593181C55.2679385 40.7734476 54.5161846 42.1071238 54.5161846 45.0607238 54.5161846 48.2673905 55.5554462 49.0954286 57.0235077 49.0954286 57.8466462 49.0954286 58.3128615 48.8433524 58.6707692 48.4110095L58.6707692 48.4110095z"/>
  </g>
</svg>
