<svg xmlns="http://www.w3.org/2000/svg" width="160" height="52" viewBox="0 0 160 52"><path d="M35.6 27.6l2.8-1.4V4.6h-2.1l-5 6.7h-.6l.3-7.5h22l.3 7.5h-.6l-5-6.7h-2v21.6l2.7 1.4v.7H35.6zm20.2-.9v-24l-2.1-.9v-.4L61.3 0h.8v11.3l.3-.1c1.6-1.5 4-2.5 6.5-2.5 3.4 0 4.9 2 4.9 5.5v12.5l1.7 1v.7h-10v-.7l1.8-1V14c0-2-.8-2.7-2.4-2.7-1 0-2 .3-2.7.9v14.4l1.8 1v.7H54v-.7l1.8-1zm25.7-7.4c.2 4 2 7 6.1 7 2 0 3.5-.9 4.8-1.6v.8a9.3 9.3 0 0 1-7.4 3.4c-6.4 0-9.7-3.6-9.7-9.9 0-6.1 3.6-10 9.4-10 5.5 0 8.4 2.8 8.4 10.1v.2H81.5zm-.1-.9L87 18c0-4.9-.9-8.1-2.5-8.1-1.8 0-3.2 3.8-3.2 8.5zM0 38c0-10.5 6.8-14.2 14.5-14.2 3.2 0 6.3.5 8 1.2l.1 7.3H22l-4.5-7c-.7-.4-1.5-.5-2.8-.5-4 0-6.1 4.7-6 12.5 0 9.3 1.6 13.5 5.3 13.5 1 0 1.7-.2 2.2-.4v-10L13.7 39v-.8h11.9v.9L23 40.5v9.8c-2 .8-5.4 1.5-9 1.5-8.4 0-14-4-14-13.8m25-5v-.5l8-1.4h.9V47c0 2 1 2.5 2.4 2.5 1 0 2-.4 2.6-1.2V34l-2.2-1v-.5l8-1.5.8.1v18.2l2.2 1v.5l-7.9 1-.8-.1v-2.4h-.2a8.8 8.8 0 0 1-6 2.5c-3.8 0-5.6-2.2-5.6-5.7v-12L25 33zm51-2l.7.1V37h.2c.8-4.3 2.7-6 5-6 .4 0 .8 0 1 .2v6l-1.7-.1a10 10 0 0 0-4.3.8v11.7l1.8 1v.7H68.4v-.7l1.8-1V33.7l-2.1-.6v-.6l8-1.5zm20.6.5v-6.2l-2.2-.8v-.4l8-1.5h.8v26.7l2.2.8v.7l-8 1H97v-2.2h-.2a7 7 0 0 1-5.3 2.2c-4.3 0-7.5-3.3-7.5-10.1 0-7.3 3.7-10.8 9.2-10.8 1.6 0 2.9.3 3.5.6m0 17V32.7c-.5-.3-1-.7-2.2-.6-2.2 0-3.5 3.3-3.5 9.2 0 5.2 1 8.2 3.8 8 .8 0 1.5-.2 1.9-.6m18-17.6h.7v18.6l1.8 1v.7h-10.3v-.7l1.9-1V34l-2.3-.9v-.6l8.2-1.5zm.8-5c0 2-1.7 3.4-3.6 3.4-2 0-3.5-1.4-3.5-3.4s1.6-3.4 3.5-3.4c2 0 3.6 1.5 3.6 3.4zm24.2 23.6V33.8l-2.2-.7v-.8l8-1.5h.7v2.4h.3c1.7-1.5 4.2-2.5 6.7-2.5 3.5 0 5 1.6 5 5.3v13.5l1.9 1v.8h-10.4v-.7l2-1V36.4c0-2-1-2.8-2.6-2.8-1 0-2 .2-2.7.8v15.2l1.8 1v.7h-10.4v-.7l1.9-1zm-11.8-10V37c0-4-.8-5.2-3.3-5.2h-.8l-4.3 6h-.6v-5.5a22 22 0 0 1 7.2-1.3c5.3 0 8.4 1.5 8.4 6v12.9l2 .5v.5a8 8 0 0 1-4 .9c-2.6 0-3.9-.9-4.4-2.3h-.2c-1.1 1.5-2.7 2.4-5.2 2.4-3.1 0-5.3-2-5.3-5.5 0-3.3 2-5.1 6.2-5.9l4.3-.8zm0 9v-8l-1.3.1c-2 .2-2.8 1.5-2.8 4.5 0 3.2 1 4 2.5 4 .8 0 1.3-.2 1.6-.6zm-69.1-9V37c0-4-.9-5.2-3.3-5.2h-.8l-4.4 6h-.6v-5.5c1.9-.6 4.2-1.3 7.3-1.3 5.3 0 8.4 1.5 8.4 6v12.9l1.9.5v.5a8 8 0 0 1-4 .9c-2.6 0-3.8-.9-4.4-2.3h-.2c-1 1.5-2.7 2.4-5.1 2.4-3.2 0-5.3-2-5.3-5.5 0-3.3 2-5.1 6.2-5.9l4.3-.8zm0 9v-8l-1.4.1c-2 .2-2.8 1.5-2.8 4.5 0 3.2 1 4 2.5 4 .8 0 1.3-.2 1.7-.6z" fill="#FFF"/></svg>
