<svg width="106.67" height="20" viewBox="0 0 320 60"><path d="M284 45h16v-2.95l-3.04-1.55v-20c1.2-.87 2.76-1.14 4.27-1.14 2.76 0 3.77.94 3.77 4.14v17l-3 1.55V45h16v-2.95l-3-1.55v-19c0-5.7-2.2-8.32-7.22-8.32-4.1 0-8.1 1.5-10.82 4.03V13H296l-12.4 2.22v2.7l3.4 1.58v21l-3 1.54V45zM245.27.37c-2.97 0-5.35 2.43-5.35 5.47 0 2.98 2.38 5.4 5.35 5.4 2.92 0 5.36-2.42 5.36-5.4 0-3.04-2.44-5.47-5.36-5.47zM237 15.1v2.83l3 1.57v20.95L237 42v3h16v-3l-3-1.55V13.07h-1l-12 2.04zm-14.07 23.95c-.73.6-1.56 1.07-3.08 1.07-4 0-5.9-3.3-5.9-10.93 0-8.74 2.4-11.67 5.58-11.67 1.78 0 2.67.57 3.4 1.4v20.1zm0-24.5c-1.24-.87-3.2-1.37-4.86-1.37-7.45 0-14.48 4.35-14.48 16.83 0 11.88 7.06 15.7 11.8 15.7 3.8 0 6.4-1.7 7.63-3.37h.33v3.26h.86l11.95-1.44V41.9l-3.2-1.82V.6h-.8l-12.6 2.04v2.8L222.93 7v7.56zM181 18l3.02 1.53v20.92L181 42v3h17v-3l-3.93-1.55v-16.4c1.78-1.42 4-1.87 6.7-1.87.87 0 1.63.16 2.23.32v-9c-.33-.1-.66-.2-1.2-.2-3.3 0-5.94 2.14-7.73 6.23v-6.46H193L181 15v3zm-19.26-.8c3.9 0 5.03 2 5.03 5.92v3.48L161 27.7c-5.9 1.12-10.37 2.95-10.37 9.3 0 5.13 3.53 8.7 8.34 8.7 3.78 0 7.35-1.67 8.7-4.43h.27c.5 3.32 3.3 4.36 6.44 4.36 2.42 0 4.77-.6 5.66-1.63v-2L177 40.5v-18c0-6.95-5-9.43-13.1-9.43-5.3 0-8.76 1.35-11.57 2.7v7.84h4.7l2.04-6.04c.7-.33 2.18-.34 2.67-.34zM164 40.07c-1.94 0-4-1.14-4-4.56 0-2.43 2.4-4.64 4.75-5L167 30v8.5s-1.9 1.56-3 1.56zM264.75 17.2c3.9 0 5.03 2 5.03 5.92v3.48L264 27.7c-5.9 1.12-10.36 2.95-10.36 9.3 0 5.13 3.53 8.7 8.34 8.7 3.78 0 7.35-1.67 8.7-4.43h.27c.5 3.32 3.3 4.36 6.44 4.36 2.4 0 4.76-.6 5.65-1.63v-2L280 40.5v-18c0-6.95-5-9.43-13.1-9.43-5.3 0-8.76 1.35-11.57 2.7v7.84h4.7l2.04-6.04c.7-.33 2.18-.34 2.67-.34zM267 40.07c-1.94 0-4-1.14-4-4.56 0-2.43 2.4-4.64 4.75-5L270 30v8.5s-1.9 1.56-3 1.56zM128.3 45.7c.44 0 .87-.03 1.3-.07 3.54-.34 6.68-2.02 8.42-4.2v4.07l12-1.5v-2l-3-2V13h-1l-11.88 2.28v2.8l3.88 1.6V38c-1.12.76-2.42 1.34-4.2 1.34-2.54 0-4.8-.8-4.8-4.34V13h-1l-12 2.5v2.6l4 1.6V36c0 5.36 2.17 9.7 8.28 9.7zM96 38c-1.2 0-2.54-.8-2.54-1.9 0-.84.6-1.72 1.35-2.28 1.65.5 3 .6 5 .6 7.78 0 13.2-3.68 13.2-10.42 0-3.03-1.3-4.64-3.2-6.4L115 19v-6l-8.24 1.62c-1.9-.72-4.54-1.6-6.97-1.6-7.8 0-13.2 4.08-13.2 10.76 0 4.08 2 7.12 5 8.83l.26.17C90.13 34 86.6 36.75 86.6 40c0 2.44 1.5 4.8 4.74 5.54-3.4.7-7.34 2.43-7.34 6.46 0 4.14 5.95 8 15.46 8C111.3 60 116 54.34 116 47c0-6.07-2.8-9-9.5-9H96zm7.5-14c0 5.7-1.34 6.5-3.5 6.5s-4-.8-4-6.5c0-5.82 1.84-7.5 4-7.5 2.22 0 3.5 1.96 3.5 7.5zM92 50.93c.06-1.48 1.1-3.4 3.7-3.58h8.6c2.48 0 3.7 1.98 3.7 3.58 0 3.2-2 4.37-8.26 4.37-5.52 0-7.83-2.2-7.74-4.37zM83 30c0-12.97-5.14-16.88-12.96-16.88C61 13.12 55 19.3 55 29.5c0 10.5 5.47 16.2 15.85 16.2C76.42 45.7 80.6 43 82 41v-3c-2.1.66-3.9 1.23-7.75 1.23C68.75 39.23 65 36 65 30h18zM69.87 16.6c2.5 0 3.84 1.85 3.84 9.55l-8.36.5c.12-7.87 1.8-10.05 4.55-10.05zM37 45v-2.95l-3-1.55V21c1.2-.85 3.25-1.73 4.76-1.73 2.76 0 4.3 1.55 4.24 4.23v17l-3 1.55V45h16v-2.95l-3-1.55v-19c0-5.7-3.32-8.32-7.68-8.32-4.1 0-8.62 1.28-11.32 3.82V0h-1L21 2v3l4 1.5v34l-3 1.55V45h15zM4 36.42c0 5.68 2.85 9.27 8.85 9.27 3.13 0 6.48-.85 8.4-2.3v-3.8c-.8.26-2.18.5-3.26.5-2.94 0-4-1.58-4-4.6V19h7v-5.05h-7V6.5L4 8v5.95L0 15v4h4v17.4z"/></svg>