<svg xmlns="http://www.w3.org/2000/svg" width="100" viewBox="0 0 49.942 16.826"><g fill="#fff"><path d="M27.7 0c-.3 0-.6.3-.6.6s.3.6.6.6.6-.3.6-.6-.3-.6-.6-.6m4.1 4.8h1.8v-.3l-.3-.2V2.2c.1-.1.3-.1.4-.1.3 0 .4.1.4.5v1.8l-.3.2v.3h1.8v-.3l-.4-.2v-2c0-.6-.3-.9-.8-.9-.4 0-.9.2-1.2.4v-.4l-1.4.2V2l.4.2v2.2l-.4.2v.3m-5.1-3.2V2l.4.2v2.2l-.4.2v.3h1.8v-.3l-.4-.2V1.5l-1.5.2m-1.5 2.5c-.1.1-.2.1-.3.1-.4 0-.6-.4-.6-1.2 0-.9.3-1.2.6-1.2.2 0 .3.1.4.1v2.1m0-2.6c-.1-.1-.3-.1-.5-.1-.8 0-1.6.5-1.6 1.8s.8 1.7 1.3 1.7c.4 0 .7-.2.8-.4v.3l1.4-.2v-.2l-.3-.2V0l-1.5.2v.3l.4.2v.8m-4.5.1v.3l.4.2v2.2l-.3.2v.3h1.9v-.3l-.4-.2V2.6c.2-.2.4-.2.7-.2h.3v-1h-.2c-.4 0-.7.2-.9.7v-.7l-1.4.2m-2.3.3h.3c.4 0 .5.2.5.6v.4l-.6.1c-.6.1-1.1.3-1.1 1 0 .5.4.9.9.9.4 0 .8-.2.9-.5.1.4.4.5.7.5.3 0 .5-.1.6-.2v-.2l-.3-.2V2.4c0-.7-.5-1-1.4-1-.6 0-.9.1-1.3.3v.8h.5l.2-.6m.8 2.2c-.1.1-.2.1-.3.1-.2 0-.4-.1-.4-.5 0-.3.2-.5.5-.5h.2v.9m10.2-2.2h.3c.4 0 .5.2.5.6v.4l-.6.1c-.6.1-1.1.3-1.1 1 0 .5.4.9.9.9.4 0 .8-.2.9-.5.1.4.4.5.7.5.3 0 .5-.1.6-.2v-.2l-.3-.2V2.4c0-.7-.5-1-1.4-1-.6 0-.9.1-1.3.3v.8h.5l.2-.6m.8 2.2c-.1.1-.2.1-.3.1-.2 0-.4-.1-.4-.5 0-.3.2-.5.5-.5h.2v.9m-16.2-.3c0 .6.3 1 .9 1 .4 0 .8-.2 1-.5v.4l1.4-.2v-.2l-.4-.2V1.3l-1.5.2v.3l.4.2v2c-.1.1-.2.1-.4.1-.3 0-.5-.1-.5-.5V1.3l-1.5.2v.3l.4.2v1.7m-1.4.2h-1.2c-.1 0-.2-.1-.2-.2s.1-.2.1-.2c.2.1.3.1.5.1.8 0 1.4-.4 1.4-1.1 0-.3-.1-.5-.3-.7l.6.2v-.7l-.9.2c-.2-.1-.5-.2-.8-.2-.8 0-1.4.4-1.4 1.1 0 .4.2.8.5.9-.2.1-.6.4-.6.8 0 .3.2.5.5.6-.4.1-.8.2-.8.7 0 .4.6.9 1.7.9 1.3 0 1.8-.6 1.8-1.4 0-.6-.4-.9-1.1-.9m-.7-2.3c.2 0 .4.2.4.8 0 .6-.2.7-.4.7s-.4-.1-.4-.7.2-.8.4-.8m0 4.1c-.6 0-.8-.2-.8-.5 0-.2.1-.4.4-.4h.9c.3 0 .4.2.4.4 0 .3-.3.5-.9.5M9.8 3.2c0-1.4-.6-1.8-1.5-1.8-1 0-1.6.6-1.6 1.7s.6 1.7 1.7 1.7c.6 0 1.1-.3 1.2-.5V4c-.2.1-.5.1-.9.1-.6 0-1-.3-1-.9h2zM8.3 1.7c.3 0 .4.2.4 1h-.9c0-.8.2-1.1.5-1.1"/><path d="M3.8 4.8h1.8v-.3l-.3-.2V2.2c.1-.1.3-.1.4-.1.3 0 .4.2.4.5v1.8l-.3.2v.3h1.8v-.3l-.4-.2v-2c0-.6-.3-.9-.8-.9-.4 0-.9.2-1.2.4V.1L3.8.3v.3l.4.2v3.6l-.4.2v.3m-2-.9c0 .6.3 1 .9 1 .3 0 .7-.1.9-.2v-.4c-.1 0-.2.1-.4.1-.3 0-.4-.2-.4-.5V2.3h.7v-.6h-.7V.9l-1.1.2v.6h-.5v.5h.5V4m24.8 6.3c0-.2.1-1.2.1-1.4 0-.1-.1-.2-.2-.3 0-.1-.1-.1-.2-.2-.2-.1-.3-.2-.5-.3-.1 0-.2.1-.3.2l-.2.2c-.1.2-1.1 2.1-1.2 2.3-.2.4-.5.9-.7 1.3-.1.2-.2.3-.3.5V9.1c0-.2-.8-.9-.9-.9-.3 0-.2.1-.5.5-.1.3-.3.6-.4.8-.1.3-1.7 3.5-1.7 3.5 0-.2.2-2.4.9-4.7v-.1c-.1-.1-.5-.7-.7-.8-.1-.1-.3.2-.4.2-.2 0-.2.1-.2.2V8c-.1.2-.3.9-.4 1.2s-.4 1.9-.6 2.2c-1 1.4-3.2 2.9-3.6 3.1-.1.1-.3.1-.4-.1-.1-.2-.3-1-.3-1.4v-.3s1-.4 2-1.3c.5-.5.9-1.3 1-1.8.1-.6.1-1.1-.2-1.6-.1-.3-.3-.5-.3-.5-.3-.3-1.1-.5-1.1-.5-.3 0-.9.4-1.2.7-.2.2-1.4 1.6-1.5 4.1 0 0-.3.1-.7 0 0 .1-.1.9-.1 1 .1.2.1.3.2.5h.6c0 .1-.1 1.2.8 2.5.1.2.6.3.8.3h.5c.4-.1 1.3-.7 2.1-1.4.2-.2 1.4-1.2 1.5-1.4 0 .4-.1.8-.1 1.2 0 .3 0 .7-.1 1v1l.1.1s.7.4 1.1.3c.1 0 .1-.1.2-.2.2-.3 2.3-4.6 2.4-4.9l.1-.2c0 .1.1 2.9 0 3.4v.1c.3.2.3.2.6.3.1.1.3 0 .5 0 .1 0 .7-.8.8-1.1.2-.3.4-.7.7-1.1.2-.3.3-.5.5-.8.1-.1.1-.2.2-.3.1.1.2 3.2.2 3.3 0 .3.1.6.1.7.1.3.5.4.9.4.2 0 .5-.4.5-.6 0-.1-.4-3.4-.1-5.6M14.6 9.1c.1-.3.4-.7.7-.9.1 0 .3 0 .4.2.1.2.2 1-.2 1.6-.3.4-.9 1-1.5 1.4 0-.7.6-2 .7-2.2M9.9 6.8c-.1 0-.3.1-.4.4l-3 6-.1-.1V9.4c0-.3.1-1.7 0-1.8-.3-.4-.7-.7-1.1-.6 0 0-.3.2-.4.4-.2.3-2.4 4.3-3 5.5 0-.1.2-4.4.7-5.1.1-.1.1-.1.1-.2 0-.2-.2-.7-1-1-.1 0-.2 0-.3.1-.1.1-.3.3-.3.4-.1.2-.1.2-.1.4s-.3 2.6-.4 3.4c0 .1-.2 4-.2 4.4 0 .2-.1.4-.1.7 0 .2.1.3.2.4.1.1.4.2.5.2.2 0 .3 0 .6-.1.1 0 .5-.9.7-1.2.1-.2.8-1.5 1-1.9.1-.1 1.7-3.6 1.7-3.6.1 0 0 .5 0 .6 0 .4-.2 5.4-.2 5.7 0 .3 0 .5.2.6.3.3.7.2 1 .2.1 0 .1-.1.2-.1l.3-.6c.1-.2.7-1.3 1.5-2.9.8-1.6 1.6-3.5 1.6-3.5 0 .1-.1 1.7-.1 2 0 .4 0 4.3.2 4.6.5.7 1.5.2 1.5 0v-.6c-.6-3.6-.2-7.2-.2-7.6 0-.2 0-.3-.1-.4-.2-.4-.9-.6-1.1-.6m36 2v-.4c-.1-.1-.2 0-.4-.2-.1-.1-.3-.1-.4-.1-.7.2-1.7 1.1-2.1 1.7-.3.4-.7.9-.7 1V11c0-.4.2-1.3.2-1.5 0-.2.1-.4-.1-.5-.2-.1-.3-.2-.4-.4-.3-.1-.7 0-.8.2 0 .2-.2 2.2-.2 2.3 0 .1 0 .5-.8 1.6-1.9 2.5-3.3 2.6-3.5 2.3-.3-.4-.4-.9-.5-1.2v-.3c.9-.4 1.8-1.3 2.1-1.9.2-.4.4-.8.4-1.3.1-.6-.2-1.2-.5-1.7-.2-.2-.2-.3-.6-.5-.4-.2-.9-.3-.9-.3-.3 0-.6.2-.8.5-1.1 1.6-1 4-1 4s-.4.1-.8.1c0 .1.1.9.2 1 .1.1.2.3.4.4h.2c.1 0 .3-.1.3-.1 0 .1.3 1.5 1.1 2.2.4.4 1 .5 1.4.3.4-.1.9-.3 1.8-.9 1.3-.9 1.7-1.8 1.7-1.8v2.4c0 .2.1.2.2.3.2.1.5.2.7.2.2 0 .4-.1.5-.3.1-.2.1-2.5.3-3.3.3-.7.7-1.6 1.6-2.4.6-.5 1-.8 1.2-.9.4-.3.5-.5.5-.7m-9.6.9c.1-.3.3-.7.5-1 .2-.2.3 0 .4.2.2.6.3.9 0 1.4-.3.5-.7.8-1.3 1.3 0-.1 0-1 .3-1.9m12.9-2.9c-.8-.4-1.6 0-1.9.3-.8.9-.6 2.7-.6 3.3 0 .3.2 1.1.3 1.6.1.5.4 1.3.4 1.6.1.3.2.9-.1 1.2-.4.4-1.5.1-2.4-.6-.1-.1-.2 0-.2.1-.1.1-.1.2-.2.3-.1.1-.1.2-.1.2 0 .4.5.7.8 1 .2.2.6.4.9.4.2.1.6.1.9.1.3 0 .8-.1 1.2-.4.3-.2.8-.8.8-1.5 0-1.1-.7-2.2-1-3.8-.1-.7-.1-1.6 0-1.9.1-.3.2-.6.3-.7.2-.2.5-.2.8-.1.5.3.8.2 1.1 0 .1-.1.2-.4.2-.5 0-.1-.1-.1-.4-.3-.2-.1-.3-.2-.7-.4M33.2 9c-.1-.1-.4-.3-.6-.4-.3-.1-.5-.1-.8 0-.2.1-.6.5-1.2 1.4-.5.6-1 1.4-1.1 1.5 0-.1-.1-.2-.1-.2.1-.4.8-3.7.8-5.5 0-.2-.2-.3-.5-.4-.3-.1-.7-.2-.8.3 0 .2-.3 1.5-.3 1.7 0 .2-.6 4.5-.6 5.1 0 .3-.1.6-.2.9-.1.3-.2.6-.1.8 0 .1.1.2.2.2.2.1.4.1.6.2.1 0 1.5-2 1.7-2.3.2-.4 1.8-2.3 1.9-2.4.1 0 .1.1.1.2 0 .4 0 .8-.1 1.2 0 .2 0 .3-.1.5-.1.4-.1.9-.2 1.3-.2.5-.3 1-.7 1.5-.2.2-.5.4-.8.5-.4.1-.8 0-1.2-.1-.1 0-.3.1-.4.3 0 0-.1.3 0 .6s.8.5 1.1.6c1.1.3 2-.5 2.3-.8.2-.2.4-.5.5-.8.8-1.6.8-4.2.8-4.6 0-.4-.1-.9-.5-1.3"/></g></svg>
