<svg xmlns="http://www.w3.org/2000/svg" width="253.12" height="67.368" viewBox="0 0 253.12 67.368"><g fill="#FFF"><path d="M119.554.133c-1.46 0-2.627 1.167-2.627 2.626 0 1.432 1.168 2.598 2.627 2.598 1.432 0 2.626-1.167 2.626-2.6 0-1.458-1.194-2.625-2.626-2.625M138.445 21.567h8.117v-1.352l-1.564-.743V9.874c.583-.42 1.273-.562 2.016-.562 1.354 0 1.99.556 1.99 2.096v8.065l-1.565.743v1.352h8.116v-1.352l-1.618-.743v-9.18c0-2.73-1.247-3.953-3.715-3.953-2.015 0-3.98.717-5.305 1.937V6.34h-.398l-6.154.98v1.3l1.698.77v10.082l-1.618.743v1.352zM115.496 7.27V8.62l1.67.768v10.055l-1.59.742v1.38h8.116v-1.38l-1.592-.742V6.285h-.397M108.59 18.773c-.357.295-.768.513-1.51.513-1.964 0-2.892-1.592-2.892-5.253 0-4.19 1.166-5.597 2.73-5.597.877 0 1.313.273 1.672.668v9.67zm0-11.77c-.61-.426-1.563-.665-2.386-.665-3.652 0-7.105 2.094-7.105 8.09 0 5.703 3.477 7.537 5.804 7.537 1.857 0 3.13-.822 3.74-1.62h.16v1.567h.425l5.86-.69v-1.08l-1.564-.876V.29h-.398l-6.18.983v1.354l1.644.742v3.633zM88.1 7.27V8.62l1.645.77v10.054l-1.566.742v1.38h8.542v-1.38l-2.044-.742V11.57c.874-.687 1.964-.904 3.29-.904.425 0 .954.053 1.247.132V6.473c-.16-.054-.477-.08-.742-.08-1.62 0-3.104 1.062-3.98 3.024v-3.13h-.424l-5.97.982zM77.5 8.44c.352-.156 1.072-.164 1.312-.164 1.91 0 2.467.956 2.467 2.84l-.005 1.676-2.828.53c-2.896.535-5.08 1.414-5.08 4.466 0 2.466 1.73 4.176 4.092 4.176 1.857 0 3.607-.795 4.27-2.12h.133c.24 1.59 1.618 2.095 3.156 2.095 1.193 0 2.347-.373 2.785-.87v-.855l-1.565-.743V10.85c0-3.342-2.387-4.565-6.367-4.565-2.6 0-4.298.65-5.677 1.306v3.765h2.308L77.5 8.44zm3.778 10.18c-.284.42-.822.64-1.353.64-.956 0-1.856-.532-1.856-2.176 0-1.174 1.06-2.255 2.22-2.433l.988-.186v4.156z"/><path d="M127.678 8.44c.35-.156 1.07-.164 1.31-.164 1.91 0 2.467.956 2.467 2.84l-.003 1.676-2.828.53c-2.896.535-5.08 1.414-5.08 4.466 0 2.466 1.73 4.176 4.093 4.176 1.856 0 3.606-.795 4.27-2.12h.134c.24 1.59 1.618 2.095 3.158 2.095 1.193 0 2.347-.373 2.786-.87v-.855l-1.566-.743V10.85c0-3.342-2.388-4.565-6.366-4.565-2.6 0-4.3.65-5.677 1.306v3.765h2.307l.996-2.915zm3.777 10.18c-.282.42-.82.64-1.353.64-.954 0-1.856-.532-1.856-2.176 0-1.174 1.06-2.255 2.223-2.433l.985-.186v4.156zM58.12 17.243c0 2.574 1.275 4.723 4.273 4.723 1.99 0 3.74-.875 4.695-2.042v2.017h.398l6.022-.717v-1.08l-1.672-.876v-12.9h-.398l-6.18.98v1.355l1.643.77v8.91c-.548.364-.927.533-1.798.533-1.247 0-2.047-.37-2.047-2.07V6.368h-.424l-6.18.98v1.355l1.67.77v7.77zM51.868 18.305h-5.306c-.584 0-1.06-.424-1.06-.956 0-.397.29-.823.662-1.087.796.238 1.46.292 2.44.292 3.82 0 6.447-1.726 6.447-4.96 0-1.46-.61-2.283-1.538-3.132l2.516.785.005-2.96-4.005.743c-.93-.344-2.228-.77-3.423-.77-3.82 0-6.472 1.965-6.472 5.175 0 1.962.982 3.422 2.467 4.245l.12.073c-.85.584-2.614 1.917-2.614 3.482 0 1.167.77 2.307 2.362 2.652v.004c-1.672.346-3.555 1.057-3.555 2.995 0 1.99 2.865 3.957 7.533 3.957 5.81 0 8.33-2.737 8.33-6.265 0-2.92-1.62-4.272-4.908-4.272M48.604 8.01c1.088 0 1.833.76 1.833 3.423 0 2.73-.77 3.29-1.833 3.29-1.06 0-1.805-.56-1.805-3.29 0-2.798.744-3.422 1.804-3.422m-.024 18.573c-2.705 0-3.68-1.057-3.635-2.098.03-.715.382-1.642 1.653-1.723h4.218c1.22 0 1.99.846 1.99 1.616 0 1.54-1.15 2.205-4.226 2.205M41.19 14.59c0-6.235-2.766-8.28-6.606-8.28-4.43 0-7.32 2.894-7.32 7.804 0 5.04 2.625 7.85 7.72 7.85 2.73 0 4.885-1.438 5.575-2.393l.074-1.212c-1.036.318-2.096.504-3.98.504-2.706 0-4.327-1.383-4.324-4.272h8.86zm-6.685-6.606c1.22 0 1.883.887 1.883 4.59l-4.11.238c.055-3.78.873-4.828 2.227-4.828"/><path d="M11.168 21.567h8.117v-1.352l-1.564-.743-.002-9.577c.592-.408 1.27-.628 2.01-.628 1.355 0 2.023.854 1.998 2.14v8.065l-1.564.743v1.352h8.117v-1.352l-1.618-.743v-9.18c0-2.73-1.576-3.953-3.714-3.953-2.016 0-3.984.716-5.312 1.936h.006V0h-.398L11.09.982v1.3l1.698.768v16.423l-1.618.743v1.35zM2.28 17.508c0 2.73 1.3 4.457 4.243 4.457 1.54 0 3.18-.398 4.115-1.095v-1.828c-.39.125-1.062.244-1.592.244-1.432 0-1.83-.742-1.83-2.202V9.258h3.236V6.71H7.215V3.236l-4.934.69v2.786L0 7.14v2.118h2.28v8.25z"/></g><path fill="#FFF" d="M36.086 67.363c-.393-.03-.79-.197-1.18-.496l-.26-.193c-.747-.547-1.678-1.23-1.207-2.764.545-1.773 4.25-13.355 4.28-13.602-.43.727-6.667 6.003-11.692 8.94-.476.277-1.962 1.194-2.7 1.003-3.45-.888-2.264-4.34-1.303-5.137.066-.055.345-.216.657-.347 1.75-.738 6.655-3.297 11.89-8.162 3.496-3.247 8.84-10.15 9.232-11.025.097-.218.195-.434.293-.646.257-.548.857-1.833 2.142-1.73.25.02.515.095.786.224 1.608.76 2.277 2.053 1.75 3.377-.366.915-.86 1.773-1.34 2.604-.346.6-.705 1.22-1 1.845-1.08 2.273-2.148 4.664-3.27 7.31-.686 1.62-1.274 3.28-1.815 4.845-.096.276-.15.574-.2.89.073-.07.138-.144.19-.216.83-1.18 3.515-5.21 6.642-9.277 3.126-4.068 8.74-11.2 9.866-11.942 1.388-.914 3.17.65 3.628 1.565.465.93.562 1.926.263 2.732-1.418 3.83-2.853 7.65-4.288 11.474L56.25 51.84c-.184.49-.375.98-.563 1.468l-.01.026c.28-.155.54-.308.723-.498 2.12-2.2 6.897-7.31 6.897-7.31 3.923-4.197 7.848-8.395 11.754-12.606.672-.722 1.34-1.046 2.044-.99.316.025.63.13.938.312.77.455 2.064 1.215 1.553 2.925-.183.614-4.747 15.7-4.982 16.397-.523 1.548-1.064 3.15-1.435 4.747-.133.58-.256 1.776.266 2.64 1.366-.36 7.308-4.118 7.308-4.118s-.168-.85-.044-2.73c.387-5.834 2.91-10.43 5.55-13.556 2.442-2.89 5.773-4.918 7.856-4.782 1.8.118 3.562 1.647 3.403 3.917-.124 1.795-.72 3.83-1.72 5.882-2.65 5.433-5.293 9.195-8.57 12.197-.457.417-.68.602-1.23 1.044 0 0 .245.588.968.646 1.542.123 2.902-.428 4.028-.983 3.816-1.88 7.29-4.798 10.62-8.915 1.706-2.106 2.96-3.9 3.946-5.643.84-1.487 1.537-3.105 2.21-4.67.296-.684.592-1.37.9-2.048.304-.67.87-1.92 2.165-1.817.267.022.552.103.846.243.856.4 1.437 1.006 1.682 1.748.252.758.124 1.606-.323 2.478-1.272 2.467-5.395 12.127-5.395 12.127-.168.513-.106.94.06.974.17.033 6.7-7.3 9.872-10.86 0 0 5.187-5.664 5.48-6.042.54-.705 1.926-1.743 3.26-.972 1.238.72 1.74 2.847 1.303 4.05-1.225 3.358-2.425 6.725-3.623 10.09l-1.124 3.268c.34-.342.66-.668.923-1.027 4.836-6.577 15.39-16.836 17.965-16.63 1.123.09 1.87 1.088 2.51 2.154.306.504.607 1.262-.05 2.24-1.244 1.86-4.794 11.336-5.058 12.072-.382 1.072-2.12 6.463-2.163 6.652-.04.168-.2.635-.182.85 0 0 8.757-6.822 11.703-10.365 5.18-6.225 13.176-26.018 13.54-26.71.746-1.418 2.142-2.293 3.6-2.14 1.585.167 1.982 1.206 2.028 2.16.16 3.307-11.185 23.215-11.076 23.406.456-.498 8.774-7.647 13.443-6.238 1.935.584 2.072 1.95 2.46 3.792.706 3.36-3.556 23.634-19.03 24.275-1.92.078-4.724-1.348-5.724-4.15-.028-.08-.437.3-.847.098-.846-.462-1.402-.98-1.618-1.52-.182-.45-.048-.956.16-1.798.275-1.113 4.193-5.598-.79-.92-4.177 3.92-8.412 6.76-9.088 7.233-.606.425-1.38.9-2.196.807-.784-.09-1.745-.585-2.307-1.284-.83-1.033-.42-2.406.304-4.006.555-1.22 1.374-4.71 1.57-5.3l1.165-3.5c.932-2.79 1.86-5.58 2.775-8.377.104-.327.337-1.07.19-1.142 0 0-4.417 4.86-5.89 6.513-.896 1-8.468 10.16-10.465 12.64-.52.644-1.146.94-1.863.884-.615-.05-1.183-.355-1.64-.602-1.238-.66-1.593-1.62-1.118-2.884.575-1.538.968-3.195 1.35-4.797.238-1.002.482-2.036.773-3.045.386-1.342.854-2.675 1.31-3.965.212-.607.426-1.218.634-1.828.08-.248.16-.498.236-.746-.19.29-12.74 14.976-14.64 16.644-.403.354-1.11.85-1.81.795-.384-.03-1.774-.77-2.737-1.768-.487-.503-.803-.94.256-2.842.207-.37.652-1.187.625-1.576-.006-.105-.02-.266-.1-.4-.15.056-4.52 4.903-10.398 7.394-1.514.64-2.982.946-4.377.816-3.327-.31-5.147-2.524-5.147-2.524s-7.297 5.167-11.865 5.974c-.943.166-2.157-.4-2.796-1.27-.64-.873-.02-4.15.526-6.52.857-3.712 3.02-10.272 3.443-11.447.482-1.337.966-2.675 1.43-4.018 0-.003-.01-.024-.02-.053-.183.035-.427.085-.493.15-.688.686-7.127 7.806-7.127 7.806-2.542 2.786-5.083 5.573-7.617 8.366-1.362 1.496-2.49 2.766-3.578 4.095-.5.61-1.165 1.018-1.826.863-1.587-.37-2.65-2.03-2.534-2.97.26-2.085.71-4.323 1.418-7.052.54-2.074 2.75-9.02 2.976-9.617l.08-.212c-.113.045-.218.092-.245.133-1.29 1.825-11.644 16.69-14.204 20.283-.676.952-1.267 1.677-1.855 2.278-.533.546-1.104.8-1.694.753M92.38 39.537c-2.814 1.047-6.422 6.146-7.618 12.354 2.314-2.362 7.435-10.076 7.618-12.353m61.657 20.168c12.065-1.56 17.59-21.06 10.947-17.244-4.47 2.57-10.225 8.804-12.624 15.3-.407 1.1-.212 2.488 1.677 1.945"/><path fill="#FFF" d="M221.65 66.636c-2.135-.23-3.924-1.323-5.03-3.07-1.176-1.85-1.446-4.198-.726-6.278.508-1.475 2.02-2.485 3.845-3.27.853-.37 5.723-2.812 5.723-2.812s.657-1.507.89-2.14c.523-1.44 1.78-4.887 2.218-6.097 0 0-1.897 1.112-5.243 2.232-3.412 1.143-8.838 2.358-10.903 2.613-2.065.254-2.81.924-3.55 1.826-1.94 2.377-4.348 5.545-6.495 8.323-.58.746-1.414 1.78-2.673 1.682-.382-.03-1.697-.547-2.21-1.28-.41-.59-.564-1.097.09-2.552.302-.67 2.498-4.664 2.84-5.333-.02.025.07-.176-.007-.202-1.688 1.686-12.353 11.736-18.66 11.232-5.624-.45-6.323-7.32-6.323-7.32s-1.312.363-1.606.35c-.596-.032-1.323-.71-1.894-2.027-.367-.854-1.012-2.49-.206-2.668 2.396-.526 3.687-.914 3.687-.914.955-6.114 3.956-10.144 5.052-11.44 2.888-3.42 6.16-4.39 7.03-4.505 3.9-.515 5.585 1.993 5.645 4.255.088 3.39-1.425 6.177-2.69 8.022-3.79 5.526-9.87 7.437-9.87 7.437s-.082 3.167 1.997 3.333c4.527.36 16.4-10.037 20.905-15.627.916-1.137 5.808-7.363 6.16-7.762.3-.34.712-.397 1.514-.106.883.32 3.142 1.876 2.1 3.603-1.044 1.73-4.19 7.198-4.19 7.198.608-.53 1.37-.94 2.68-1.04 8.756-.708 16.398-3.823 19.05-7.394 1.342-1.81 3.47-3.694 5.406-2.18 1.81 1.41 2.09 3.268 1.49 4.43-.412.793-1.515 1.82-2.968 2.716l-3.133 8.652s15.203-7.732 17.717-8.743c.78-.316 2.49.095 3.44 1.427.576.805.484 1.62-.326 1.996-4.454 2.06-23.188 11.702-23.188 11.702s-2.915 7.767-4.218 10c-.824 1.41-2.553 1.796-3.29 1.737l-.08-.006zm1.566-8.905c-1.586.74-2.612 1.484-2.746 2.1-.074.346.183.988.63 1.3.69.48 1.757-2.153 2.116-3.4m-39.76-16.19c-1.442 2.468-2.164 5.15-2.186 5.43 4.4-2.395 7.44-6.095 7.012-9.327-.01-.053-.064-.072-.095-.068-.784.11-3.342 1.59-4.732 3.966"/></svg>