<svg xmlns="http://www.w3.org/2000/svg" width="300px" height="90px" viewBox="0 0 300 90">
<g>
	<path fill="#FFFFFF" d="M164.807,0.383c-1.459,0-2.627,1.167-2.627,2.626c0,1.433,1.168,2.599,2.627,2.599
		c1.432,0,2.626-1.167,2.626-2.599C167.433,1.55,166.238,0.383,164.807,0.383"/>
	<path fill="#FFFFFF" d="M183.697,21.817h8.117v-1.352l-1.564-0.743v-9.599c0.583-0.419,1.273-0.562,2.016-0.562
		c1.354,0,1.989,0.556,1.989,2.096v8.065l-1.564,0.743v1.352h8.117v-1.352l-1.618-0.743v-9.179c0-2.732-1.247-3.954-3.715-3.954
		c-2.015,0-3.979,0.717-5.305,1.937V6.589h-0.398l-6.154,0.982v1.3l1.698,0.769v10.082l-1.618,0.743V21.817z"/>
	<polygon fill="#FFFFFF" points="160.748,7.519 160.748,8.872 162.42,9.64 162.42,19.695 160.827,20.437 160.827,21.817 
		168.944,21.817 168.944,20.437 167.353,19.695 167.353,6.536 166.955,6.536 	"/>
	<path fill="#FFFFFF" d="M153.844,19.023c-0.358,0.295-0.769,0.513-1.511,0.513c-1.964,0-2.892-1.592-2.892-5.253
		c0-4.191,1.166-5.597,2.731-5.597c0.876,0,1.312,0.273,1.671,0.668V19.023z M153.844,7.253c-0.61-0.426-1.564-0.665-2.387-0.665
		c-3.652,0-7.105,2.094-7.105,8.089c0,5.704,3.478,7.538,5.805,7.538c1.857,0,3.131-0.822,3.741-1.619h0.158v1.566h0.426l5.862-0.69
		v-1.081l-1.565-0.875V0.541h-0.398l-6.181,0.982v1.354l1.645,0.742V7.253z"/>
	<path fill="#FFFFFF" d="M133.351,7.519v1.353l1.646,0.769v10.055l-1.566,0.742v1.38h8.543v-1.38l-2.044-0.742v-7.876
		c0.874-0.687,1.964-0.904,3.289-0.904c0.426,0,0.955,0.053,1.248,0.132V6.723c-0.16-0.054-0.477-0.08-0.742-0.08
		c-1.619,0-3.104,1.062-3.979,3.024V6.536h-0.425L133.351,7.519z"/>
	<path fill="#FFFFFF" d="M122.752,8.69c0.352-0.156,1.072-0.164,1.312-0.164c1.909,0,2.467,0.956,2.467,2.839l-0.004,1.677
		l-2.828,0.531c-2.896,0.534-5.081,1.413-5.081,4.465c0,2.466,1.732,4.176,4.093,4.176c1.858,0,3.608-0.795,4.272-2.121h0.132
		c0.239,1.592,1.618,2.096,3.156,2.096c1.194,0,2.348-0.372,2.786-0.869v-0.855l-1.565-0.743V11.1c0-3.342-2.387-4.565-6.367-4.565
		c-2.599,0-4.298,0.649-5.677,1.306v3.764h2.308L122.752,8.69z M126.53,18.87c-0.284,0.419-0.822,0.64-1.353,0.64
		c-0.956,0-1.856-0.532-1.856-2.176c0-1.174,1.061-2.255,2.221-2.433l0.988-0.187V18.87z"/>
	<path fill="#FFFFFF" d="M172.931,8.69c0.35-0.156,1.071-0.164,1.311-0.164c1.91,0,2.466,0.956,2.466,2.839l-0.003,1.677
		l-2.828,0.531c-2.896,0.534-5.081,1.413-5.081,4.465c0,2.466,1.732,4.176,4.094,4.176c1.856,0,3.606-0.795,4.271-2.121h0.133
		c0.239,1.592,1.617,2.096,3.157,2.096c1.193,0,2.347-0.372,2.786-0.869v-0.855l-1.566-0.743V11.1c0-3.342-2.388-4.565-6.366-4.565
		c-2.601,0-4.3,0.649-5.677,1.306v3.764h2.307L172.931,8.69z M176.707,18.87c-0.282,0.419-0.82,0.64-1.353,0.64
		c-0.954,0-1.856-0.532-1.856-2.176c0-1.174,1.061-2.255,2.223-2.433l0.986-0.187V18.87z"/>
	<path fill="#FFFFFF" d="M103.374,17.493c0,2.574,1.274,4.723,4.272,4.723c1.99,0,3.74-0.875,4.695-2.042v2.017h0.398l6.022-0.718
		v-1.08l-1.672-0.876V6.617h-0.398l-6.181,0.981v1.354l1.644,0.769v8.91c-0.549,0.365-0.928,0.534-1.799,0.534
		c-1.247,0-2.047-0.371-2.047-2.069V6.617h-0.424l-6.181,0.981v1.354l1.671,0.769V17.493z"/>
	<path fill="#FFFFFF" d="M97.121,18.555h-5.306c-0.584,0-1.061-0.424-1.061-0.956c0-0.396,0.292-0.822,0.663-1.086
		c0.796,0.238,1.46,0.292,2.44,0.292c3.821,0,6.447-1.726,6.447-4.961c0-1.459-0.61-2.282-1.539-3.131l2.516,0.785l0.005-2.959
		L97.28,7.279c-0.929-0.345-2.228-0.77-3.423-0.77c-3.819,0-6.472,1.964-6.472,5.174c0,1.962,0.982,3.422,2.467,4.245l0.119,0.073
		c-0.849,0.584-2.613,1.917-2.613,3.482c0,1.167,0.77,2.307,2.362,2.652v0.004c-1.672,0.345-3.555,1.056-3.555,2.994
		c0,1.99,2.865,3.957,7.533,3.957c5.81,0,8.33-2.737,8.33-6.265C102.028,19.907,100.41,18.555,97.121,18.555 M93.857,8.261
		c1.088,0,1.833,0.758,1.833,3.422c0,2.731-0.771,3.289-1.833,3.289c-1.061,0-1.805-0.558-1.805-3.289
		C92.052,8.885,92.796,8.261,93.857,8.261 M93.832,26.833c-2.705,0-3.679-1.057-3.635-2.098c0.029-0.715,0.382-1.642,1.653-1.723
		h4.218c1.22,0,1.991,0.846,1.991,1.616C98.059,26.167,96.91,26.833,93.832,26.833"/>
	<path fill="#FFFFFF" d="M86.442,14.84c0-6.235-2.766-8.279-6.606-8.279c-4.429,0-7.321,2.893-7.321,7.803
		c0,5.041,2.626,7.85,7.72,7.85c2.732,0,4.886-1.438,5.576-2.393l0.075-1.213c-1.036,0.318-2.096,0.504-3.98,0.504
		c-2.706,0-4.327-1.383-4.324-4.272H86.442z M79.757,8.234c1.22,0,1.883,0.887,1.883,4.59l-4.111,0.238
		C77.585,9.281,78.403,8.234,79.757,8.234"/>
	<path fill="#FFFFFF" d="M56.42,21.817h8.117v-1.352l-1.564-0.743l-0.003-9.577c0.592-0.408,1.269-0.628,2.011-0.628
		c1.354,0,2.022,0.854,1.997,2.14v8.065l-1.564,0.743v1.352h8.117v-1.352l-1.617-0.743v-9.179c0-2.732-1.576-3.954-3.714-3.954
		c-2.016,0-3.984,0.717-5.312,1.937h0.006V0.25h-0.398l-6.153,0.982v1.299l1.697,0.769v16.423l-1.618,0.743V21.817z"/>
	<path fill="#FFFFFF" d="M47.533,17.758c0,2.731,1.298,4.457,4.242,4.457c1.539,0,3.18-0.398,4.115-1.095v-1.828
		c-0.389,0.125-1.062,0.244-1.592,0.244c-1.432,0-1.83-0.742-1.83-2.202V9.508h3.236V6.961h-3.236V3.485l-4.935,0.691v2.785
		L45.252,7.39v2.118h2.281V17.758z"/>
</g>
<path fill="#FFFFFF" d="M81.338,67.613c-0.393-0.031-0.789-0.197-1.179-0.495l-0.261-0.194c-0.747-0.547-1.678-1.228-1.207-2.763
	c0.546-1.773,4.25-13.355,4.281-13.602c-0.431,0.726-6.667,6.003-11.692,8.94c-0.476,0.278-1.962,1.195-2.699,1.004
	c-3.452-0.89-2.265-4.34-1.304-5.138c0.066-0.055,0.345-0.216,0.657-0.347c1.749-0.737,6.655-3.297,11.89-8.161
	c3.496-3.248,8.839-10.151,9.232-11.025c0.097-0.217,0.195-0.433,0.293-0.645c0.257-0.548,0.857-1.833,2.142-1.73
	c0.251,0.019,0.516,0.095,0.787,0.224c1.608,0.759,2.277,2.054,1.75,3.378c-0.366,0.915-0.861,1.773-1.339,2.603
	c-0.347,0.602-0.706,1.222-1.001,1.847c-1.081,2.273-2.148,4.664-3.269,7.308c-0.687,1.621-1.275,3.283-1.816,4.846
	c-0.097,0.277-0.152,0.575-0.201,0.89c0.073-0.07,0.138-0.143,0.19-0.215c0.83-1.179,3.515-5.208,6.642-9.277
	c3.126-4.068,8.739-11.199,9.866-11.942c1.388-0.914,3.17,0.65,3.628,1.565c0.465,0.929,0.562,1.926,0.263,2.732
	c-1.417,3.829-2.852,7.652-4.287,11.474l-1.202,3.204c-0.184,0.491-0.375,0.979-0.563,1.468l-0.011,0.026
	c0.281-0.155,0.542-0.307,0.724-0.498c2.119-2.199,6.897-7.311,6.897-7.311c3.923-4.196,7.848-8.393,11.754-12.605
	c0.671-0.722,1.34-1.046,2.043-0.989c0.316,0.024,0.631,0.13,0.938,0.311c0.771,0.455,2.064,1.215,1.553,2.925
	c-0.183,0.614-4.747,15.699-4.982,16.397c-0.523,1.547-1.064,3.149-1.435,4.747c-0.133,0.58-0.256,1.776,0.266,2.639
	c1.366-0.36,7.308-4.118,7.308-4.118s-0.168-0.851-0.044-2.729c0.387-5.835,2.911-10.431,5.551-13.557
	c2.441-2.891,5.772-4.919,7.855-4.783c1.799,0.118,3.562,1.648,3.403,3.917c-0.124,1.794-0.719,3.829-1.721,5.881
	c-2.65,5.433-5.292,9.195-8.569,12.197c-0.457,0.418-0.681,0.603-1.229,1.046c0,0,0.244,0.587,0.967,0.645
	c1.542,0.123,2.902-0.428,4.028-0.983c3.816-1.882,7.291-4.798,10.621-8.916c1.705-2.106,2.958-3.901,3.945-5.643
	c0.84-1.486,1.538-3.104,2.212-4.668c0.295-0.685,0.591-1.371,0.899-2.048c0.304-0.671,0.871-1.919,2.165-1.817
	c0.267,0.022,0.552,0.103,0.846,0.243c0.855,0.401,1.436,1.006,1.681,1.748c0.252,0.758,0.124,1.606-0.323,2.477
	c-1.271,2.468-5.394,12.127-5.394,12.127c-0.168,0.512-0.106,0.938,0.061,0.973c0.168,0.033,6.699-7.301,9.871-10.861
	c0,0,5.187-5.664,5.479-6.042c0.542-0.705,1.927-1.743,3.261-0.972c1.238,0.719,1.74,2.846,1.303,4.051
	c-1.225,3.357-2.425,6.724-3.623,10.09l-1.124,3.267c0.34-0.342,0.66-0.667,0.923-1.028c4.836-6.578,15.391-16.836,17.965-16.63
	c1.122,0.09,1.869,1.088,2.51,2.154c0.305,0.504,0.606,1.263-0.05,2.242c-1.245,1.86-4.795,11.335-5.059,12.071
	c-0.382,1.072-2.121,6.463-2.163,6.653c-0.04,0.168-0.199,0.635-0.181,0.851c0,0,8.757-6.824,11.703-10.366
	c5.178-6.225,13.175-26.018,13.54-26.711c0.745-1.417,2.141-2.292,3.598-2.138c1.586,0.166,1.983,1.205,2.029,2.158
	c0.16,3.308-11.185,23.216-11.076,23.407c0.456-0.497,8.774-7.646,13.443-6.237c1.935,0.583,2.072,1.951,2.46,3.792
	c0.706,3.361-3.556,23.634-19.029,24.275c-1.921,0.08-4.725-1.347-5.725-4.15c-0.029-0.079-0.438,0.302-0.848,0.099
	c-0.846-0.462-1.402-0.979-1.618-1.522c-0.182-0.45-0.048-0.954,0.16-1.797c0.275-1.113,4.193-5.598-0.791-0.92
	c-4.176,3.921-8.411,6.761-9.087,7.234c-0.606,0.425-1.38,0.899-2.196,0.807c-0.785-0.089-1.746-0.584-2.308-1.284
	c-0.829-1.033-0.42-2.406,0.304-4.005c0.555-1.219,1.374-4.711,1.569-5.301l1.166-3.5c0.932-2.79,1.861-5.581,2.775-8.377
	c0.104-0.327,0.337-1.07,0.19-1.141c0,0-4.417,4.858-5.89,6.511c-0.896,1.001-8.468,10.16-10.465,12.641
	c-0.519,0.643-1.146,0.939-1.863,0.883c-0.614-0.049-1.182-0.355-1.639-0.601c-1.238-0.66-1.593-1.62-1.118-2.884
	c0.575-1.539,0.968-3.197,1.351-4.797c0.237-1.002,0.481-2.037,0.772-3.045c0.386-1.342,0.854-2.675,1.309-3.965
	c0.213-0.608,0.427-1.218,0.635-1.829c0.082-0.248,0.161-0.497,0.237-0.746c-0.191,0.292-12.74,14.977-14.641,16.645
	c-0.402,0.354-1.109,0.851-1.809,0.795c-0.384-0.03-1.774-0.769-2.737-1.767c-0.486-0.502-0.802-0.941,0.257-2.842
	c0.207-0.37,0.652-1.186,0.625-1.576c-0.007-0.105-0.02-0.266-0.1-0.399c-0.152,0.055-4.52,4.902-10.399,7.392
	c-1.514,0.64-2.982,0.946-4.377,0.816c-3.327-0.308-5.147-2.524-5.147-2.524s-7.297,5.167-11.865,5.973
	c-0.943,0.166-2.157-0.399-2.796-1.269c-0.639-0.874-0.021-4.15,0.526-6.522c0.857-3.711,3.019-10.271,3.443-11.446
	c0.482-1.337,0.966-2.675,1.431-4.018c-0.002-0.002-0.011-0.023-0.022-0.051c-0.182,0.035-0.426,0.084-0.492,0.149
	c-0.688,0.687-7.127,7.807-7.127,7.807c-2.542,2.787-5.083,5.573-7.617,8.366c-1.361,1.497-2.49,2.767-3.577,4.096
	c-0.5,0.611-1.165,1.018-1.826,0.864c-1.587-0.37-2.65-2.032-2.534-2.972c0.26-2.083,0.709-4.322,1.418-7.05
	c0.539-2.074,2.75-9.021,2.976-9.617c0.027-0.069,0.053-0.141,0.08-0.211c-0.113,0.044-0.218,0.092-0.245,0.132
	c-1.291,1.824-11.645,16.688-14.205,20.283c-0.676,0.952-1.267,1.677-1.855,2.278C82.5,67.406,81.929,67.66,81.338,67.613
	 M137.632,39.787c-2.814,1.047-6.422,6.146-7.618,12.354C132.328,49.778,137.45,42.065,137.632,39.787 M199.289,59.955
	c12.065-1.561,17.589-21.059,10.947-17.244c-4.47,2.569-10.225,8.803-12.624,15.299C197.205,59.111,197.4,60.498,199.289,59.955"/>
<path fill="#FFFFFF" d="M266.903,66.886c-2.136-0.232-3.925-1.323-5.031-3.07c-1.176-1.851-1.446-4.199-0.726-6.278
	c0.508-1.475,2.021-2.486,3.845-3.271c0.854-0.369,5.724-2.811,5.724-2.811s0.657-1.506,0.89-2.14
	c0.523-1.441,1.781-4.887,2.218-6.097c0,0-1.898,1.113-5.244,2.233c-3.412,1.142-8.838,2.358-10.903,2.613
	c-2.065,0.254-2.811,0.924-3.549,1.826c-1.942,2.376-4.349,5.544-6.496,8.323c-0.578,0.745-1.413,1.781-2.672,1.682
	c-0.382-0.031-1.697-0.547-2.209-1.281c-0.41-0.59-0.565-1.097,0.09-2.552c0.301-0.668,2.497-4.664,2.839-5.333
	c-0.02,0.025,0.071-0.176-0.007-0.202c-1.688,1.685-12.353,11.737-18.661,11.232c-5.623-0.449-6.322-7.32-6.322-7.32
	s-1.312,0.363-1.606,0.349c-0.597-0.031-1.324-0.709-1.895-2.026c-0.367-0.854-1.012-2.491-0.206-2.667
	c2.396-0.527,3.687-0.914,3.687-0.914c0.955-6.116,3.956-10.145,5.052-11.442c2.889-3.42,6.162-4.39,7.03-4.504
	c3.902-0.515,5.586,1.993,5.646,4.255c0.088,3.388-1.425,6.177-2.689,8.022c-3.791,5.526-9.871,7.436-9.871,7.436
	s-0.082,3.168,1.997,3.334c4.527,0.362,16.401-10.037,20.905-15.627c0.916-1.136,5.808-7.363,6.159-7.761
	c0.302-0.341,0.713-0.397,1.515-0.106c0.882,0.319,3.141,1.876,2.098,3.603c-1.043,1.728-4.188,7.197-4.188,7.197
	c0.607-0.532,1.368-0.939,2.68-1.042c8.755-0.706,16.397-3.822,19.049-7.392c1.342-1.809,3.469-3.694,5.406-2.181
	c1.811,1.41,2.09,3.269,1.49,4.432c-0.412,0.792-1.515,1.818-2.968,2.715l-3.133,8.652c0,0,15.203-7.732,17.717-8.744
	c0.781-0.315,2.491,0.097,3.44,1.429c0.576,0.804,0.484,1.62-0.326,1.996c-4.454,2.06-23.188,11.702-23.188,11.702
	s-2.915,7.767-4.218,9.999c-0.824,1.413-2.553,1.798-3.29,1.739L266.903,66.886z M268.469,57.981
	c-1.586,0.739-2.612,1.483-2.746,2.1c-0.074,0.345,0.183,0.987,0.631,1.299C267.043,61.861,268.109,59.227,268.469,57.981
	 M228.707,41.791c-1.441,2.467-2.163,5.151-2.185,5.428c4.4-2.394,7.44-6.094,7.012-9.326c-0.009-0.053-0.064-0.073-0.095-0.068
	C232.655,37.935,230.098,39.414,228.707,41.791"/>
</svg>
