<svg width="414.2" height="290.6" viewBox="415 -0.9 414.2 290.6" enable-background="new 415 -0.9 414.2 290.6"><path fill="#fff" d="M683.6 282.4h1.5v7.3h-1.5v-7.3zm0-282.4h1.5v7.3h-1.5V0zm15.9 281.6l.8 7.2-1.5.2-.8-7.2 1.5-.2zM669.9.7l.8 7.2-1.5.2-.8-7.2 1.5-.2zm43.8 278.6l1.5 7.1-1.4.3-1.5-7.1 1.4-.3zM655 3l1.5 7.1-1.4.3-1.5-7.1L655 3zm72.6 272.5l2.3 6.9-1.4.5-2.2-6.9 1.3-.5zM640.3 6.8l2.3 6.9-1.4.5-2.3-6.9 1.4-.5zM741 270.3l3 6.7-1.3.6-3-6.7 1.3-.6zM626.1 12.2l3 6.7-1.3.6-3-6.7 1.3-.6zm127.7 251.4l3.6 6.3-1.3.7-3.6-6.3 1.3-.7zM612.6 19l3.6 6.3-1.3.7-3.6-6.3 1.3-.7zm153.3 236.7l4.3 5.9-1.2.9-4.3-5.9 1.2-.9zM599.8 27.2l4.3 5.9-1.2.9-4.3-5.9 1.2-.9zM777 246.6l4.9 5.4-1.1 1-4.9-5.4 1.1-1zM588 36.7l4.9 5.4-1.1 1-4.9-5.4 1.1-1zm199.1 199.7l5.4 4.9-1 1.1-5.4-4.9 1-1.1zm-209.9-189l5.4 4.9-1 1.1-5.4-4.9 1-1.1zm218.9 177.7l5.9 4.3-.9 1.2-5.9-4.3.9-1.2zm-228.5-166l5.9 4.3-.9 1.2-5.9-4.3.9-1.2zM803.9 213l6.3 3.6-.7 1.3-6.3-3.6.7-1.3zM559.3 71.8l6.3 3.6-.7 1.3-6.3-3.6.7-1.3zm251 128.3l6.7 3-.6 1.3-6.7-3 .6-1.3zM552.4 85.3l6.7 3-.6 1.3-6.7-3 .6-1.3zm263.1 101.3l6.9 2.2-.5 1.4-6.9-2.2.5-1.4zM546.9 99.4l6.9 2.3-.4 1.4-6.9-2.3.4-1.4zm272.2 73.4l7.1 1.5-.3 1.4-7.1-1.5.3-1.4zM542.8 114l7.1 1.5-.3 1.4-7.1-1.5.3-1.4zm278.4 44.5l7.2.8-.2 1.5-7.2-.8.2-1.5zM540.4 129l7.2.8-.2 1.5-7.2-.8.2-1.5zm281.5 15.1h7.3v1.5h-7.3v-1.5zm-282.4 0h7.3v1.5h-7.3v-1.5zm282.4 0h7.3v1.5h-7.3v-1.5zm-282.4 0h7.3v1.5h-7.3v-1.5zM828.3 129l.2 1.5-7.2.8-.2-1.4 7.2-.9zm-280.8 29.5l.2 1.5-7.2.8-.2-1.5 7.2-.8zM825.9 114l.3 1.4-7.1 1.5-.3-1.4 7.1-1.5zm-276.3 58.8l.3 1.4-7.1 1.5-.3-1.4 7.1-1.5zm272.3-73.4l.5 1.4-6.9 2.2-.5-1.4 6.9-2.2zm-268.6 87.3l.4 1.4-6.9 2.2-.5-1.4 7-2.2zM816.4 85.3l.6 1.3-6.7 3-.6-1.3 6.7-3zm-258 114.9l.6 1.3-6.7 3-.6-1.3 6.7-3zM809.5 71.8l.7 1.3-6.3 3.6-.7-1.3 6.3-3.6zM564.9 213l.7 1.3-6.3 3.6-.7-1.3 6.3-3.6zM801.1 59.1l.9 1.2-5.9 4.3-.9-1.2 5.9-4.3zm-228.4 166l.9 1.2-5.9 4.3-.9-1.2 5.9-4.3zM791.6 47.4l1 1.1-5.4 4.9-1-1.1 5.4-4.9zm-209.9 189l1 1.1-5.4 4.9-1-1.1 5.4-4.9zM780.8 36.7l1.1 1-4.9 5.4-1.1-1 4.9-5.4zm-189 209.9l1.1 1-4.9 5.4-1.1-1 4.9-5.4zM769 27.3l1.2.9-4.3 5.9-1.2-.9 4.3-5.9zM602.9 255.7l1.2.9-4.3 5.9-1.2-.9 4.3-5.9zM756.2 19l1.3.7-3.6 6.3-1.3-.7 3.6-6.3zM615 263.6l1.3.7-3.7 6.3-1.3-.7 3.7-6.3zM742.6 12.2l1.3.6-3 6.7-1.3-.6 3-6.7zM627.8 270.3l1.3.6-3 6.7-1.3-.6 3-6.7zM728.4 6.9l1.4.5-2.3 6.9-1.4-.4 2.3-7zm-87.2 268.6l1.4.4-2.3 6.9-1.4-.5 2.3-6.8zM713.8 3l1.4.3-1.5 7.1-1.4-.3 1.5-7.1zM655 279.3l1.4.3-1.5 7.1-1.4-.3 1.5-7.1zM698.8.7l1.5.2-.8 7.2-1.4-.1.7-7.3zm-29.5 280.9l1.5.2-.8 7.2-1.5-.2.8-7.2zM683.6 0h1.5v7.3h-1.5V0zm0 282.4h1.5v7.3h-1.5v-7.3zM559.3 169.8l6.9-.6v-38.6l-7.1-.6v-1.8l9.7-.9.4.3v4.5h.2c5.1-3 9.9-5.2 16.1-5.2 5.6 0 8.7 2 10.5 5.5h.2c5.2-3 10.7-5.5 16.9-5.5 7.3 0 11.5 3.6 11.5 11.2v31l7.2.6v1.7h-17.5v-1.7l7.2-.6V139c0-6.6-3.1-9.3-9.3-9.3-5.8 0-10.5 2.1-15.5 4.8.3.9.4 2.2.4 3.8v31l7.1.6v1.7h-17.4v-1.7l7.2-.6v-30.1c0-6.5-2.8-9.4-9.2-9.4-6 0-10.4 1.9-15.3 4.6v34.9l7.2.6v1.7h-17.2v-1.8h-.2zm74.9 0l7.2-.6v-38.6l-7.5-.6v-1.8l10.2-.9.4.3v41.6l7.2.6v1.7h-17.5v-1.7zm5.8-55.7c0-1.3 1-2.5 2.5-2.5s2.5 1.2 2.5 2.5-1 2.5-2.5 2.5-2.5-1.2-2.5-2.5zm14.2 55.7l6.9-.6v-38.6l-7.1-.6v-1.8l9.7-.9.4.3v4.7h.2c5.1-3 10.8-5.4 16.9-5.4 8 0 12.3 3.6 12.3 11.4v30.9l6.9.6v1.7h-17.1v-1.7l7.1-.6v-29.9c0-6.6-3-9.6-10.3-9.6-5.6 0-11.1 2.1-15.9 4.8v34.8l7.2.6v1.7h-17.2v-1.8zm54.3-9.7v-29.7l-6.9-.6V128l9.6-.6.4.4v32.1c0 6.6 3 9.6 10.3 9.6 5.6 0 10.6-2 15.5-4.5v-34.5l-6.8-.6v-1.8l9.5-.6.4.4V169l7 .6v1.7l-9.5.7-.4-.4v-4.7h-.3c-5.2 3-10.4 5.2-16.5 5.2-8.3 0-12.3-4.1-12.3-12zm48 2.4v-32.3h-6.6v-1.7l6.8-.9.6-10.6h2.3v10.6h12.6v2.6h-12.6v31.6c0 5.9 2.2 7.8 7.4 7.8 2.3 0 4.2-.5 6.2-1.2v1.8c-1.8 1-4.6 1.9-7.3 1.9-5.5 0-9.4-2.6-9.4-9.6zm20.5-13c0-14.3 8-22.6 18.5-22.6 11 0 17 7.4 17 21.2h-32.3c-.3 13.4 3.9 21.5 17.3 21.5 6.7 0 10.5-1.6 13.5-3.1v2.1c-2.8 1.6-7.1 3.6-14 3.6-15.4 0-20-10-20-22.7zm32.1-3.9c-.3-11.1-5.1-16.4-13.8-16.4-9 0-14.3 6.3-15 16.7l28.8-.3zm-387.4 16.9v-32.3h-6.6v-1.7l6.8-.9.6-10.6h2.3v10.6h12.6v2.6h-12.6v31.6c0 5.9 2.2 7.8 7.4 7.8 2.3 0 4.2-.5 6.2-1.2v1.8c-1.8 1-4.6 1.9-7.3 1.9-5.5 0-9.4-2.6-9.4-9.6zm19.9 7.3l6.9-.6v-58.4l-7.5-.6v-1.8l10.2-.9.4.3v24.4h.2c5.1-2.9 10.7-5.3 16.9-5.3 8 0 12.3 3.5 12.3 11.4v30.9l6.9.6v1.7h-17.1v-1.7l7.1-.6v-29.9c0-6.6-3-9.6-10.3-9.6-5.6 0-11.1 2.1-15.9 4.8v34.8l7.2.6v1.7h-17.2l-.1-1.8zm50.1-20.3c0-14.3 8-22.6 18.5-22.6 11 0 17 7.4 17 21.2H495c-.3 13.4 3.9 21.5 17.3 21.5 6.7 0 10.5-1.6 13.5-3.1v2.1c-2.8 1.6-7.1 3.6-14 3.6-15.5 0-20.1-10-20.1-22.7zm32.1-3.9c-.3-11.1-5.1-16.4-13.8-16.4-9 0-14.3 6.3-15 16.7l28.8-.3zM466.3 13.8c0-5 3.1-7.9 7.6-7.9 4.6 0 6.8 2.6 6.8 8.6H471c.2 3.1 1.8 4.4 4.5 4.4 2.1 0 3.3-.4 4.4-.7v2.4c-1 .7-2.8 1.5-5.6 1.5-5.4-.2-8-3.3-8-8.3zm9.8-1.7c0-2.7-.9-3.6-2.4-3.6s-2.6 1-2.8 3.8l5.2-.2zm5.5 7.3l1.9-.4V3l-2-.5V.3l6.1-.7.4.2V19l1.8.4v2.1h-8.2v-2.1zm9.2-5.6c0-5 3.1-7.9 7.6-7.9 4.6 0 6.8 2.6 6.8 8.6h-9.7c.2 3.1 1.8 4.4 4.5 4.4 2.1 0 3.3-.4 4.4-.7v2.4c-1 .7-2.8 1.5-5.6 1.5-5.4-.2-8-3.3-8-8.3zm9.8-1.7c0-2.7-.9-3.6-2.4-3.6-1.6 0-2.6 1-2.8 3.8l5.2-.2zm5.6 1.8c0-5.7 3.5-8.1 8.4-8.1 1.8 0 3.5.3 4.5.6V11h-2.8l-.4-2.2c-.3-.1-.6-.2-1.5-.2-2.1 0-3.4 1.4-3.4 5 0 3.9 1.8 5.2 4.5 5.2 1.7 0 3-.3 3.8-.7v2.4c-.9.7-2.6 1.4-5.2 1.4-5.2 0-7.9-3-7.9-8zm15.9 3.8V8.9h-1.8v-2l2.2-.8.6-3.6h3.5v3.6h3.4v2.7h-3.4V17c0 1.5.5 2 2 2 .6 0 1.1-.1 1.6-.2V21c-.7.4-2 .9-3.5.9-2.9 0-4.6-1.1-4.6-4.2zm9.2 1.7l1.8-.4V9.2l-2-.5V6.6l6-.7.4.2V19l1.8.4v2.1h-8.1l.1-2.1zm1.4-17.3c0-1.4 1.2-2.3 2.5-2.3 1.4 0 2.6.9 2.6 2.3s-1.1 2.3-2.6 2.3c-1.4 0-2.5-.9-2.5-2.3zm7.6 11.8c0-5.2 3.5-8.1 7.8-8.1 4.9 0 7.8 3 7.8 7.9 0 5.1-3.5 8.2-7.8 8.2-5 0-7.8-3.1-7.8-8zm10.8.1c0-4.3-1.4-5.5-3.1-5.5-1.7 0-3 1.1-3 5.2 0 4.2 1.4 5.5 3.1 5.5 1.7 0 3-1.1 3-5.2zm5 5.4l1.8-.4V9.2l-1.9-.5V6.6l5.8-.7.4.2v1.5h.2c1.5-1 3-1.8 5.1-1.8 2.5 0 4.1 1.1 4.1 3.9V19l1.8.4v2.1h-7.8v-2.1l1.5-.4v-7.8c0-1.5-.7-2-2.2-2-.9 0-1.7.2-2.5.5V19l1.5.4v2.1h-7.8v-2.1zm-90 23.5l4.7-4.6c2.4-2.3 3.9-4.2 3.9-6.4 0-2.1-1.1-3.2-3.7-3.2-1.5 0-3 .3-4.3.8v-2.7c1.5-.8 3.8-1.7 6.3-1.7 4.3 0 6.8 2.2 6.8 6.1 0 3.2-2.3 5.8-6.1 8.7l-2.8 2.2v.1h5.8l1.1-2.3h2.5l-.4 5.7h-13.8v-2.7zm14.5-7.3c0-7.4 4.1-10.6 8.7-10.6 4.8 0 8.6 3.2 8.6 10.4 0 7.3-4 10.5-8.7 10.5-4.9 0-8.6-3.2-8.6-10.3zm12.2 0c0-5.5-1-7.8-3.5-7.8-2.4 0-3.5 2.4-3.5 7.5 0 5.5 1 7.7 3.5 7.7 2.4.1 3.5-2.2 3.5-7.4zm5.5 7.7l2.7-.5v-13l-3 .2v-2.3l5.8-2.6h2.2v17.6l2.7.5v2.3h-10.4v-2.2zm10.4-7.1c0-7.9 4.6-11.2 9.7-11.2 2.3 0 4 .5 5 1.1v2.6c-.9-.3-2.4-.5-3.9-.5-2.9 0-5.3 1.2-5.7 5.8 1.1-.7 2.8-1.3 4.6-1.3 3.9 0 6.3 2.4 6.3 6.2 0 3.8-2.6 7-7.8 7-5.2 0-8.2-3.8-8.2-9.7zm11 3c0-2.5-1.1-3.4-2.9-3.4-1.2 0-2.2.3-3 .8v.7c0 3.8.8 5.9 3.1 5.9 1.9-.1 2.8-1.5 2.8-4zM417 1.1h45v45h-45z"/><path fill="#E42529" d="M441-.9h18v4h-18zM444 6.1h17v3h-17zM441 13.1h18v3h-18zM443 20.1h18v3h-18zM419 27.1h42v3h-42zM415 34.1h43v3h-43zM419 41.1h42v4h-42z"/><path fill="#1F4482" d="M440 24.1h-25v-25h18v4h-14v17h17v-14h4z"/><path fill="#204583" d="M439.2 1l-.9-1.2L425 14.7l-4.4-5.3-1 1.2 5 8.7h.4z"/></svg>
