<svg xmlns="http://www.w3.org/2000/svg" width="431" height="301.3" viewBox="415.13 0 431 301.3" enable-background="new 415.13 0 431 301.3"><path fill="#fff" d="M683.65 282.42h1.46v7.29h-1.46zM683.65 0h1.46v7.29h-1.46zM699.484 281.57l.762 7.25-1.452.152-.762-7.25zM669.95.713l.763 7.25-1.452.152-.76-7.25zM713.71 279.262l1.52 7.13-1.43.304-1.517-7.13zM654.953 3.002l1.517 7.13-1.428.304-1.517-7.13zM727.614 275.475l2.252 6.933-1.39.45-2.25-6.932zM640.334 6.837l2.253 6.933-1.388.452-2.255-6.933zM741.002 270.256l2.965 6.66-1.334.594-2.965-6.66zM626.113 12.193l2.965 6.66-1.334.593-2.965-6.66zM753.79 263.636l3.643 6.314-1.264.73-3.645-6.314zM612.608 19.012l3.645 6.313-1.265.73-3.645-6.313zM765.853 255.69l4.286 5.898-1.182.858-4.286-5.897zM599.83 27.22l4.286 5.896-1.18.858-4.287-5.896zM776.983 246.618l4.878 5.418-1.085.976-4.877-5.417zM587.974 36.692l4.88 5.416-1.086.977-4.88-5.416zM787.073 236.397l5.418 4.88-.977 1.084-5.417-4.878zM577.232 47.395l5.418 4.878-.977 1.085-5.418-4.878zM796.064 225.128l5.897 4.286-.857 1.18-5.897-4.285zM567.603 59.14l5.898 4.286-.858 1.18-5.897-4.284zM803.88 213.04l6.315 3.646-.73 1.264-6.314-3.645zM559.315 71.806l6.314 3.646-.732 1.265-6.313-3.646zM810.317 200.123l6.66 2.963-.594 1.334-6.66-2.963zM552.367 85.283l6.66 2.965-.593 1.334-6.66-2.965zM815.47 186.64l6.932 2.25-.45 1.39-6.934-2.253zM546.86 99.378l6.932 2.252-.45 1.388-6.934-2.252zM819.124 172.767l7.13 1.516-.302 1.428-7.132-1.514zM542.82 114.007l7.13 1.516-.304 1.428-7.13-1.515zM821.243 158.517l7.25.762-.153 1.45-7.25-.76zM540.38 128.985l7.25.762-.15 1.452-7.25-.763zM821.95 144.13h7.29v1.46h-7.29zM539.53 144.13h7.29v1.46h-7.29zM821.95 144.13h7.29v1.46h-7.29zM539.53 144.13h7.29v1.46h-7.29zM828.332 128.983l.152 1.452-7.25.756-.152-1.45zM547.475 158.494l.153 1.452-7.25.762-.153-1.452zM825.914 114.042l.305 1.428-7.13 1.52-.305-1.427zM549.65 172.77l.303 1.427-7.132 1.512-.302-1.43zM821.943 99.372l.45 1.388-6.933 2.25-.45-1.387zM553.34 186.663l.45 1.39-6.934 2.25-.45-1.39zM816.398 85.282l.592 1.334-6.663 2.956-.593-1.334zM558.396 200.16l.593 1.334-6.664 2.96-.592-1.334zM809.503 71.766l.73 1.265-6.316 3.643-.73-1.265zM564.894 213.043l.73 1.265-6.314 3.645-.73-1.265zM801.114 59.108l.858 1.18-5.896 4.287-.86-1.18zM572.675 225.13l.86 1.18-5.896 4.29-.86-1.18zM791.55 47.415l.976 1.085-5.42 4.876-.976-1.085zM581.664 236.393l.976 1.085-5.42 4.877-.976-1.086zM780.77 36.744l1.085.977-4.877 5.42-1.085-.977zM591.8 246.59l1.078.97-4.873 5.42-1.08-.97zM768.957 27.28l1.18.858-4.288 5.895-1.18-.86zM602.91 255.697l1.182.858-4.284 5.898-1.18-.858zM756.198 19.012l1.265.73-3.643 6.315-1.265-.73zM614.99 263.6l1.264.73-3.65 6.31-1.264-.73zM742.6 12.232l1.335.594-2.962 6.66-1.334-.593zM627.768 270.256l1.334.593-2.958 6.662-1.335-.593zM728.428 6.873l1.388.45-2.253 6.934-1.39-.45zM641.18 275.47l1.39.45-2.255 6.933-1.39-.45zM713.816 3.03l1.428.303-1.516 7.13-1.428-.302zM655.04 279.276l1.427.303-1.513 7.13-1.43-.303zM698.836.705l1.452.152-.76 7.25-1.452-.152zM669.274 281.558l1.452.152-.762 7.25-1.452-.153zM683.65 0h1.46v7.29h-1.46zM683.65 282.42h1.46v7.29h-1.46z"/><g fill="#fff"><path d="M559.3 169.78l6.92-.61V130.6l-7.09-.61v-1.82l9.69-.86.43.26v4.5h.17c5.1-3.03 9.86-5.19 16.09-5.19 5.62 0 8.74 1.99 10.55 5.54h.17c5.19-3.03 10.72-5.54 16.86-5.54 7.35 0 11.5 3.55 11.5 11.24v31.05l7.18.61v1.73H614.3v-1.73l7.18-.61v-30.18c0-6.57-3.11-9.34-9.34-9.34-5.79 0-10.55 2.08-15.48 4.76.26.95.35 2.16.35 3.8v30.96l7.09.61v1.73h-17.38v-1.73l7.18-.61v-30.1c0-6.49-2.77-9.43-9.25-9.43-5.97 0-10.38 1.9-15.31 4.58v34.94l7.18.61v1.73H559.3v-1.72zM634.2 169.78l7.18-.61V130.6l-7.52-.61v-1.82l10.21-.86.43.26v41.6l7.18.61v1.73H634.2v-1.73zm5.8-55.7c0-1.3 1.04-2.51 2.51-2.51 1.47 0 2.51 1.21 2.51 2.51 0 1.3-1.04 2.51-2.51 2.51-1.48 0-2.51-1.21-2.51-2.51zM654.18 169.78l6.92-.61V130.6l-7.09-.61v-1.82l9.69-.86.43.26v4.67h.17c5.1-3.03 10.81-5.36 16.95-5.36 8.04 0 12.28 3.55 12.28 11.42v30.88l6.92.61v1.73h-17.12v-1.73l7.09-.61v-29.93c0-6.57-3.03-9.6-10.29-9.6-5.62 0-11.07 2.08-15.91 4.76v34.77l7.18.61v1.73h-17.21v-1.74zM708.49 160.09v-29.75l-6.92-.61v-1.81l9.6-.61.43.35v32.09c0 6.57 3.03 9.6 10.29 9.6 5.62 0 10.64-1.99 15.48-4.5v-34.51l-6.83-.61v-1.81l9.51-.61.43.35v41.08l7 .61v1.73l-9.51.87-.43-.35v-4.67h-.26c-5.19 3.03-10.38 5.19-16.52 5.19-8.29-.01-12.27-4.16-12.27-12.03zM756.49 162.51v-32.35h-6.57v-1.73l6.75-.87.61-10.55h2.33v10.55h12.63v2.6h-12.63v31.65c0 5.88 2.25 7.78 7.44 7.78 2.33 0 4.24-.52 6.23-1.21v1.82c-1.82 1.04-4.58 1.9-7.26 1.9-5.63.01-9.53-2.58-9.53-9.59zM776.99 149.46c0-14.27 7.96-22.57 18.51-22.57 10.98 0 17.04 7.35 17.04 21.19h-32.26c-.26 13.41 3.89 21.54 17.3 21.54 6.66 0 10.46-1.64 13.49-3.11v2.08c-2.77 1.64-7.09 3.63-14.01 3.63-15.49-.02-20.07-10.05-20.07-22.76zm32.09-3.9c-.26-11.07-5.1-16.35-13.75-16.35-8.99 0-14.27 6.31-14.96 16.69l28.71-.34zM421.7 162.51v-32.35h-6.57v-1.73l6.75-.87.61-10.55h2.33v10.55h12.63v2.6h-12.63v31.65c0 5.88 2.25 7.78 7.44 7.78 2.33 0 4.24-.52 6.23-1.21v1.82c-1.82 1.04-4.58 1.9-7.26 1.9-5.64.01-9.53-2.58-9.53-9.59zM441.59 169.78l6.92-.61V110.8l-7.52-.61v-1.82l10.21-.87.43.26v24.39h.17c5.1-2.85 10.72-5.28 16.86-5.28 8.04 0 12.28 3.55 12.28 11.42v30.88l6.92.61v1.73h-17.12v-1.73l7.09-.61v-29.93c0-6.57-3.03-9.6-10.29-9.6-5.62 0-11.07 2.08-15.91 4.76v34.77l7.18.61v1.73H441.6v-1.73zM491.67 149.46c0-14.27 7.96-22.57 18.51-22.57 10.98 0 17.04 7.35 17.04 21.19h-32.26c-.26 13.41 3.89 21.54 17.3 21.54 6.66 0 10.46-1.64 13.49-3.11v2.08c-2.77 1.64-7.09 3.63-14.01 3.63-15.49-.02-20.07-10.05-20.07-22.76zm32.09-3.9c-.26-11.07-5.1-16.35-13.75-16.35-8.99 0-14.27 6.31-14.96 16.69l28.71-.34z"/></g><path fill="#fff" d="M415.13-.55h47v47h-47z"/><path fill="#ED1C24" d="M442.13-.55h18v4h-18zM445.13 6.45h17v4h-17zM442.13 13.45h17v4h-17zM444.13 21.45h18v3h-18zM418.13 28.45h44v3h-44zM415.13 34.45h43v4h-43zM417.13 42.45h45v4h-45z"/><path fill="#204483" d="M440.13 24.45h-25v-25h18v4h-15v18h19v-15h3z"/><path fill="#214583" d="M439.73.95l-1-1.24-13.56 15.32-4.6-5.44-1.02 1.27 5.12 8.9h.5z"/><g fill="#fff"><path d="M466.29 13.84c0-5.02 3.09-7.94 7.56-7.94 4.64 0 6.77 2.6 6.77 8.56h-9.67c.23 3.12 1.81 4.41 4.5 4.41 2.07 0 3.33-.38 4.44-.73v2.37c-1.05.67-2.8 1.49-5.63 1.49-5.34-.01-7.97-3.11-7.97-8.16zm9.81-1.72c0-2.66-.9-3.59-2.36-3.59-1.55 0-2.6.96-2.77 3.77l5.13-.18zM481.65 19.48l1.87-.44V3.1l-2.04-.47V.41l6.13-.67.41.2v19.1l1.84.44v2.13h-8.2v-2.13zM490.76 13.84c0-5.02 3.09-7.94 7.56-7.94 4.64 0 6.77 2.6 6.77 8.56h-9.67c.23 3.12 1.81 4.41 4.5 4.41 2.07 0 3.33-.38 4.44-.73v2.37c-1.05.67-2.8 1.49-5.63 1.49-5.34-.01-7.97-3.11-7.97-8.16zm9.81-1.72c0-2.66-.9-3.59-2.36-3.59-1.55 0-2.6.96-2.77 3.77l5.13-.18zM506.23 14.02c0-5.69 3.5-8.12 8.41-8.12 1.75 0 3.5.26 4.5.61v4.53h-2.83l-.44-2.22c-.32-.12-.64-.23-1.49-.23-2.1 0-3.39 1.43-3.39 5.05 0 3.94 1.81 5.2 4.53 5.2 1.66 0 3.01-.32 3.77-.67v2.39c-.93.67-2.63 1.43-5.17 1.43-5.26 0-7.89-3.07-7.89-7.97zM522.12 17.81V8.94h-1.81V6.95l2.22-.76.58-3.59h3.53v3.62h3.39v2.72h-3.39v8.09c0 1.46.55 1.99 2.01 1.99.56 0 1.11-.09 1.58-.2v2.25c-.67.44-1.99.88-3.53.88-2.95-.02-4.58-1.04-4.58-4.14zM531.26 19.48l1.84-.44V9.29l-1.99-.47V6.63l6.04-.7.44.2v12.91l1.78.44v2.13h-8.12v-2.13zm1.4-17.29c0-1.4 1.17-2.31 2.54-2.31 1.43 0 2.57.91 2.57 2.31 0 1.37-1.14 2.31-2.57 2.31-1.37 0-2.54-.94-2.54-2.31zM540.28 14.02c0-5.17 3.45-8.12 7.77-8.12 4.9 0 7.79 2.95 7.79 7.94 0 5.14-3.47 8.15-7.77 8.15-4.93 0-7.79-3.1-7.79-7.97zm10.8.03c0-4.26-1.37-5.46-3.07-5.46-1.69 0-3.01 1.08-3.01 5.23 0 4.23 1.37 5.46 3.1 5.46 1.67-.01 2.98-1.14 2.98-5.23zM556.08 19.48l1.84-.44V9.29l-1.9-.47V6.63l5.78-.7.44.2v1.55h.18c1.46-1.05 3.04-1.78 5.08-1.78 2.51 0 4.12 1.08 4.12 3.88v9.26l1.75.44v2.13h-7.79v-2.13l1.52-.38v-7.8c0-1.52-.73-1.99-2.22-1.99-.9 0-1.66.23-2.45.5v9.29l1.52.38v2.13h-7.85v-2.13zM466.09 43.01l4.73-4.64c2.37-2.34 3.91-4.18 3.91-6.45 0-2.07-1.14-3.18-3.68-3.18-1.49 0-3.01.32-4.26.76v-2.74c1.46-.82 3.79-1.66 6.28-1.66 4.29 0 6.83 2.19 6.83 6.1 0 3.18-2.34 5.78-6.13 8.73l-2.83 2.25v.06h5.84l1.08-2.28h2.51l-.44 5.69h-13.84v-2.64zM480.63 35.65c0-7.42 4.09-10.6 8.73-10.6 4.82 0 8.61 3.18 8.61 10.39 0 7.33-3.97 10.54-8.7 10.54-4.93.01-8.64-3.17-8.64-10.33zm12.17.06c0-5.55-.96-7.8-3.47-7.8-2.39 0-3.53 2.39-3.53 7.5 0 5.49.99 7.74 3.53 7.74 2.36.01 3.47-2.24 3.47-7.44zM498.29 43.33l2.71-.5V29.84l-2.98.23v-2.31l5.78-2.57h2.2v17.64l2.69.5v2.31H498.3v-2.31zM508.72 36.24c0-7.94 4.58-11.15 9.66-11.15 2.31 0 3.97.5 4.99 1.14v2.63c-.91-.32-2.42-.47-3.88-.47-2.89 0-5.31 1.17-5.69 5.78 1.08-.67 2.77-1.31 4.61-1.31 3.91 0 6.28 2.42 6.28 6.16 0 3.8-2.57 6.98-7.77 6.98-5.2-.01-8.2-3.81-8.2-9.76zm10.94 3.03c0-2.54-1.08-3.45-2.89-3.45-1.25 0-2.22.29-3.01.76v.67c0 3.77.82 5.87 3.12 5.87 1.94.01 2.78-1.34 2.78-3.85z"/></g></svg>