<svg width="414.1" height="289.7" viewBox="415.1 0 414.1 289.7" enable-background="new 415.1 0 414.1 289.7"><path fill="#fff" d="M683.6 282.4h1.5v7.3h-1.5v-7.3zm0-282.4h1.5v7.3h-1.5V0zm15.9 281.6l.8 7.2-1.5.2-.8-7.2 1.5-.2zM669.9.7l.8 7.2-1.5.2-.8-7.2 1.5-.2zm43.8 278.6l1.5 7.1-1.4.3-1.5-7.1 1.4-.3zM655 3l1.5 7.1-1.4.3-1.5-7.1L655 3zm72.6 272.5l2.3 6.9-1.4.5-2.2-6.9 1.3-.5zM640.3 6.8l2.3 6.9-1.4.5-2.3-6.9 1.4-.5zM741 270.3l3 6.7-1.3.6-3-6.7 1.3-.6zM626.1 12.2l3 6.7-1.3.6-3-6.7 1.3-.6zm127.7 251.4l3.6 6.3-1.3.7-3.6-6.3 1.3-.7zM612.6 19l3.6 6.3-1.3.7-3.6-6.3 1.3-.7zm153.3 236.7l4.3 5.9-1.2.9-4.3-5.9 1.2-.9zM599.8 27.2l4.3 5.9-1.2.9-4.3-5.9 1.2-.9zM777 246.6l4.9 5.4-1.1 1-4.9-5.4 1.1-1zM588 36.7l4.9 5.4-1.1 1-4.9-5.4 1.1-1zm199.1 199.7l5.4 4.9-1 1.1-5.4-4.9 1-1.1zm-209.9-189l5.4 4.9-1 1.1-5.4-4.9 1-1.1zm218.9 177.7l5.9 4.3-.9 1.2-5.9-4.3.9-1.2zm-228.5-166l5.9 4.3-.9 1.2-5.9-4.3.9-1.2zM803.9 213l6.3 3.6-.7 1.3-6.3-3.6.7-1.3zM559.3 71.8l6.3 3.6-.7 1.3-6.3-3.6.7-1.3zm251 128.3l6.7 3-.6 1.3-6.7-3 .6-1.3zM552.4 85.3l6.7 3-.6 1.3-6.7-3 .6-1.3zm263.1 101.3l6.9 2.2-.5 1.4-6.9-2.2.5-1.4zM546.9 99.4l6.9 2.3-.4 1.4-6.9-2.3.4-1.4zm272.2 73.4l7.1 1.5-.3 1.4-7.1-1.5.3-1.4zM542.8 114l7.1 1.5-.3 1.4-7.1-1.5.3-1.4zm278.4 44.5l7.2.8-.2 1.5-7.2-.8.2-1.5zM540.4 129l7.2.8-.2 1.5-7.2-.8.2-1.5zm281.5 15.1h7.3v1.5h-7.3v-1.5zm-282.4 0h7.3v1.5h-7.3v-1.5zm282.4 0h7.3v1.5h-7.3v-1.5zm-282.4 0h7.3v1.5h-7.3v-1.5zM828.3 129l.2 1.5-7.2.8-.2-1.4 7.2-.9zm-280.8 29.5l.2 1.5-7.2.8-.2-1.5 7.2-.8zM825.9 114l.3 1.4-7.1 1.5-.3-1.4 7.1-1.5zm-276.3 58.8l.3 1.4-7.1 1.5-.3-1.4 7.1-1.5zm272.3-73.4l.5 1.4-6.9 2.2-.5-1.4 6.9-2.2zm-268.6 87.3l.4 1.4-6.9 2.2-.5-1.4 7-2.2zM816.4 85.3l.6 1.3-6.7 3-.6-1.3 6.7-3zm-258 114.9l.6 1.3-6.7 3-.6-1.3 6.7-3zM809.5 71.8l.7 1.3-6.3 3.6-.7-1.3 6.3-3.6zM564.9 213l.7 1.3-6.3 3.6-.7-1.3 6.3-3.6zM801.1 59.1l.9 1.2-5.9 4.3-.9-1.2 5.9-4.3zm-228.4 166l.9 1.2-5.9 4.3-.9-1.2 5.9-4.3zM791.6 47.4l1 1.1-5.4 4.9-1-1.1 5.4-4.9zm-209.9 189l1 1.1-5.4 4.9-1-1.1 5.4-4.9zM780.8 36.7l1.1 1-4.9 5.4-1.1-1 4.9-5.4zm-189 209.9l1.1 1-4.9 5.4-1.1-1 4.9-5.4zM769 27.3l1.2.9-4.3 5.9-1.2-.9 4.3-5.9zM602.9 255.7l1.2.9-4.3 5.9-1.2-.9 4.3-5.9zM756.2 19l1.3.7-3.6 6.3-1.3-.7 3.6-6.3zM615 263.6l1.3.7-3.7 6.3-1.3-.7 3.7-6.3zM742.6 12.2l1.3.6-3 6.7-1.3-.6 3-6.7zM627.8 270.3l1.3.6-3 6.7-1.3-.6 3-6.7zM728.4 6.9l1.4.5-2.3 6.9-1.4-.4 2.3-7zm-87.2 268.6l1.4.4-2.3 6.9-1.4-.5 2.3-6.8zM713.8 3l1.4.3-1.5 7.1-1.4-.3 1.5-7.1zM655 279.3l1.4.3-1.5 7.1-1.4-.3 1.5-7.1zM698.8.7l1.5.2-.8 7.2-1.4-.1.7-7.3zm-29.5 280.9l1.5.2-.8 7.2-1.5-.2.8-7.2zM683.6 0h1.5v7.3h-1.5V0zm0 282.4h1.5v7.3h-1.5v-7.3zM559.3 169.8l6.9-.6v-38.6l-7.1-.6v-1.8l9.7-.9.4.3v4.5h.2c5.1-3 9.9-5.2 16.1-5.2 5.6 0 8.7 2 10.5 5.5h.2c5.2-3 10.7-5.5 16.9-5.5 7.3 0 11.5 3.6 11.5 11.2v31l7.2.6v1.7h-17.5v-1.7l7.2-.6V139c0-6.6-3.1-9.3-9.3-9.3-5.8 0-10.5 2.1-15.5 4.8.3.9.4 2.2.4 3.8v31l7.1.6v1.7h-17.4v-1.7l7.2-.6v-30.1c0-6.5-2.8-9.4-9.2-9.4-6 0-10.4 1.9-15.3 4.6v34.9l7.2.6v1.7h-17.2v-1.8h-.2zm74.9 0l7.2-.6v-38.6l-7.5-.6v-1.8l10.2-.9.4.3v41.6l7.2.6v1.7h-17.5v-1.7zm5.8-55.7c0-1.3 1-2.5 2.5-2.5s2.5 1.2 2.5 2.5-1 2.5-2.5 2.5-2.5-1.2-2.5-2.5zm14.2 55.7l6.9-.6v-38.6l-7.1-.6v-1.8l9.7-.9.4.3v4.7h.2c5.1-3 10.8-5.4 16.9-5.4 8 0 12.3 3.6 12.3 11.4v30.9l6.9.6v1.7h-17.1v-1.7l7.1-.6v-29.9c0-6.6-3-9.6-10.3-9.6-5.6 0-11.1 2.1-15.9 4.8v34.8l7.2.6v1.7h-17.2v-1.8zm54.3-9.7v-29.7l-6.9-.6V128l9.6-.6.4.4v32.1c0 6.6 3 9.6 10.3 9.6 5.6 0 10.6-2 15.5-4.5v-34.5l-6.8-.6v-1.8l9.5-.6.4.4V169l7 .6v1.7l-9.5.7-.4-.4v-4.7h-.3c-5.2 3-10.4 5.2-16.5 5.2-8.3 0-12.3-4.1-12.3-12zm48 2.4v-32.3h-6.6v-1.7l6.8-.9.6-10.6h2.3v10.6h12.6v2.6h-12.6v31.6c0 5.9 2.2 7.8 7.4 7.8 2.3 0 4.2-.5 6.2-1.2v1.8c-1.8 1-4.6 1.9-7.3 1.9-5.5 0-9.4-2.6-9.4-9.6zm20.5-13c0-14.3 8-22.6 18.5-22.6 11 0 17 7.4 17 21.2h-32.3c-.3 13.4 3.9 21.5 17.3 21.5 6.7 0 10.5-1.6 13.5-3.1v2.1c-2.8 1.6-7.1 3.6-14 3.6-15.4 0-20-10-20-22.7zm32.1-3.9c-.3-11.1-5.1-16.4-13.8-16.4-9 0-14.3 6.3-15 16.7l28.8-.3zm-387.4 16.9v-32.3h-6.6v-1.7l6.8-.9.6-10.6h2.3v10.6h12.6v2.6h-12.6v31.6c0 5.9 2.2 7.8 7.4 7.8 2.3 0 4.2-.5 6.2-1.2v1.8c-1.8 1-4.6 1.9-7.3 1.9-5.5 0-9.4-2.6-9.4-9.6zm19.9 7.3l6.9-.6v-58.4l-7.5-.6v-1.8l10.2-.9.4.3v24.4h.2c5.1-2.9 10.7-5.3 16.9-5.3 8 0 12.3 3.5 12.3 11.4v30.9l6.9.6v1.7h-17.1v-1.7l7.1-.6v-29.9c0-6.6-3-9.6-10.3-9.6-5.6 0-11.1 2.1-15.9 4.8v34.8l7.2.6v1.7h-17.2l-.1-1.8zm50.1-20.3c0-14.3 8-22.6 18.5-22.6 11 0 17 7.4 17 21.2H495c-.3 13.4 3.9 21.5 17.3 21.5 6.7 0 10.5-1.6 13.5-3.1v2.1c-2.8 1.6-7.1 3.6-14 3.6-15.5 0-20.1-10-20.1-22.7zm32.1-3.9c-.3-11.1-5.1-16.4-13.8-16.4-9 0-14.3 6.3-15 16.7l28.8-.3z"/></svg>
