<?xml version="1.0" encoding="utf-8"?>
<!-- Generator: Adobe Illustrator 16.0.1, SVG Export Plug-In . SVG Version: 6.00 Build 0)  -->
<!DOCTYPE svg PUBLIC "-//W3C//DTD SVG 1.1//EN" "http://www.w3.org/Graphics/SVG/1.1/DTD/svg11.dtd">
<svg version="1.1" id="Layer_1" xmlns="http://www.w3.org/2000/svg" xmlns:xlink="http://www.w3.org/1999/xlink" x="0px" y="0px"
	 width="414.1px" height="289.7px" viewBox="415.1 0 414.1 289.7" enable-background="new 415.1 0 414.1 289.7"
	 xml:space="preserve">
<path fill="#FFFFFF" d="M683.6,282.4h1.5v7.3h-1.5V282.4z M683.6,0h1.5v7.3h-1.5V0z M699.5,281.6l0.8,7.2l-1.5,0.2l-0.8-7.2
	L699.5,281.6z M669.9,0.7l0.8,7.2l-1.5,0.2l-0.8-7.2L669.9,0.7z M713.7,279.3l1.5,7.1l-1.4,0.3l-1.5-7.1L713.7,279.3z M655,3
	l1.5,7.1l-1.4,0.3l-1.5-7.1L655,3z M727.6,275.5l2.3,6.9l-1.4,0.5l-2.2-6.9L727.6,275.5z M640.3,6.8l2.3,6.9l-1.4,0.5l-2.3-6.9
	L640.3,6.8z M741,270.3l3,6.7l-1.3,0.6l-3-6.7L741,270.3z M626.1,12.2l3,6.7l-1.3,0.6l-3-6.7L626.1,12.2z M753.8,263.6l3.6,6.3
	l-1.3,0.7l-3.6-6.3L753.8,263.6z M612.6,19l3.6,6.3l-1.3,0.7l-3.6-6.3L612.6,19z M765.9,255.7l4.3,5.9l-1.2,0.9l-4.3-5.9
	L765.9,255.7z M599.8,27.2l4.3,5.9l-1.2,0.9l-4.3-5.9L599.8,27.2z M777,246.6l4.9,5.4l-1.1,1l-4.9-5.4L777,246.6z M588,36.7l4.9,5.4
	l-1.1,1l-4.9-5.4L588,36.7z M787.1,236.4l5.4,4.9l-1,1.1l-5.4-4.9L787.1,236.4z M577.2,47.4l5.4,4.9l-1,1.1l-5.4-4.9L577.2,47.4z
	 M796.1,225.1l5.9,4.3l-0.9,1.2l-5.9-4.3L796.1,225.1z M567.6,59.1l5.9,4.3l-0.9,1.2l-5.9-4.3L567.6,59.1z M803.9,213l6.3,3.6
	l-0.7,1.3l-6.3-3.6L803.9,213z M559.3,71.8l6.3,3.6l-0.7,1.3l-6.3-3.6L559.3,71.8z M810.3,200.1l6.7,3l-0.6,1.3l-6.7-3L810.3,200.1z
	 M552.4,85.3l6.7,3l-0.6,1.3l-6.7-3L552.4,85.3z M815.5,186.6l6.9,2.2l-0.5,1.4L815,188L815.5,186.6z M546.9,99.4l6.9,2.3l-0.4,1.4
	l-6.9-2.3L546.9,99.4z M819.1,172.8l7.1,1.5l-0.3,1.4l-7.1-1.5L819.1,172.8z M542.8,114l7.1,1.5l-0.3,1.4l-7.1-1.5L542.8,114z
	 M821.2,158.5l7.2,0.8l-0.2,1.5l-7.2-0.8L821.2,158.5z M540.4,129l7.2,0.8l-0.2,1.5l-7.2-0.8L540.4,129z M821.9,144.1h7.3v1.5h-7.3
	V144.1z M539.5,144.1h7.3v1.5h-7.3V144.1z M821.9,144.1h7.3v1.5h-7.3V144.1z M539.5,144.1h7.3v1.5h-7.3V144.1z M828.3,129l0.2,1.5
	l-7.2,0.8l-0.2-1.4L828.3,129z M547.5,158.5l0.2,1.5l-7.2,0.8l-0.2-1.5L547.5,158.5z M825.9,114l0.3,1.4l-7.1,1.5l-0.3-1.4
	L825.9,114z M549.6,172.8l0.3,1.4l-7.1,1.5l-0.3-1.4L549.6,172.8z M821.9,99.4l0.5,1.4l-6.9,2.2l-0.5-1.4L821.9,99.4z M553.3,186.7
	l0.4,1.4l-6.9,2.2l-0.5-1.4L553.3,186.7z M816.4,85.3l0.6,1.3l-6.7,3l-0.6-1.3L816.4,85.3z M558.4,200.2l0.6,1.3l-6.7,3l-0.6-1.3
	L558.4,200.2z M809.5,71.8l0.7,1.3l-6.3,3.6l-0.7-1.3L809.5,71.8z M564.9,213l0.7,1.3l-6.3,3.6l-0.7-1.3L564.9,213z M801.1,59.1
	l0.9,1.2l-5.9,4.3l-0.9-1.2L801.1,59.1z M572.7,225.1l0.9,1.2l-5.9,4.3l-0.9-1.2L572.7,225.1z M791.6,47.4l1,1.1l-5.4,4.9l-1-1.1
	L791.6,47.4z M581.7,236.4l1,1.1l-5.4,4.9l-1-1.1L581.7,236.4z M780.8,36.7l1.1,1l-4.9,5.4l-1.1-1L780.8,36.7z M591.8,246.6l1.1,1
	L588,253l-1.1-1L591.8,246.6z M769,27.3l1.2,0.9l-4.3,5.9l-1.2-0.9L769,27.3z M602.9,255.7l1.2,0.9l-4.3,5.9l-1.2-0.9L602.9,255.7z
	 M756.2,19l1.3,0.7l-3.6,6.3l-1.3-0.7L756.2,19z M615,263.6l1.3,0.7l-3.7,6.3l-1.3-0.7L615,263.6z M742.6,12.2l1.3,0.6l-3,6.7
	l-1.3-0.6L742.6,12.2z M627.8,270.3l1.3,0.6l-3,6.7l-1.3-0.6L627.8,270.3z M728.4,6.9l1.4,0.5l-2.3,6.9l-1.4-0.4L728.4,6.9z
	 M641.2,275.5l1.4,0.4l-2.3,6.9l-1.4-0.5L641.2,275.5z M713.8,3l1.4,0.3l-1.5,7.1l-1.4-0.3L713.8,3z M655,279.3l1.4,0.3l-1.5,7.1
	l-1.4-0.3L655,279.3z M698.8,0.7l1.5,0.2l-0.8,7.2L698.1,8L698.8,0.7z M669.3,281.6l1.5,0.2L670,289l-1.5-0.2L669.3,281.6z M683.6,0
	h1.5v7.3h-1.5V0z M683.6,282.4h1.5v7.3h-1.5V282.4z"/>
<g>
	<path fill="#FFFFFF" d="M559.3,169.8l6.9-0.6v-38.6l-7.1-0.6v-1.8l9.7-0.9l0.4,0.3v4.5h0.2c5.1-3,9.9-5.2,16.1-5.2
		c5.6,0,8.7,2,10.5,5.5h0.2c5.2-3,10.7-5.5,16.9-5.5c7.3,0,11.5,3.6,11.5,11.2v31l7.2,0.6v1.7h-17.5v-1.7l7.2-0.6V139
		c0-6.6-3.1-9.3-9.3-9.3c-5.8,0-10.5,2.1-15.5,4.8c0.3,0.9,0.4,2.2,0.4,3.8v31l7.1,0.6v1.7h-17.4v-1.7l7.2-0.6v-30.1
		c0-6.5-2.8-9.4-9.2-9.4c-6,0-10.4,1.9-15.3,4.6v34.9l7.2,0.6v1.7h-17.2V169.8L559.3,169.8z M634.2,169.8l7.2-0.6v-38.6l-7.5-0.6
		v-1.8l10.2-0.9l0.4,0.3v41.6l7.2,0.6v1.7h-17.5V169.8z M640,114.1c0-1.3,1-2.5,2.5-2.5c1.5,0,2.5,1.2,2.5,2.5s-1,2.5-2.5,2.5
		C641,116.6,640,115.4,640,114.1z M654.2,169.8l6.9-0.6v-38.6L654,130v-1.8l9.7-0.9l0.4,0.3v4.7h0.2c5.1-3,10.8-5.4,16.9-5.4
		c8,0,12.3,3.6,12.3,11.4v30.9l6.9,0.6v1.7h-17.1v-1.7l7.1-0.6v-29.9c0-6.6-3-9.6-10.3-9.6c-5.6,0-11.1,2.1-15.9,4.8v34.8l7.2,0.6
		v1.7h-17.2L654.2,169.8L654.2,169.8z M708.5,160.1v-29.7l-6.9-0.6v-1.8l9.6-0.6l0.4,0.4v32.1c0,6.6,3,9.6,10.3,9.6
		c5.6,0,10.6-2,15.5-4.5v-34.5l-6.8-0.6v-1.8l9.5-0.6l0.4,0.4v41.1l7,0.6v1.7L738,172l-0.4-0.4v-4.7h-0.3c-5.2,3-10.4,5.2-16.5,5.2
		C712.5,172.1,708.5,168,708.5,160.1L708.5,160.1z M756.5,162.5v-32.3h-6.6v-1.7l6.8-0.9l0.6-10.6h2.3v10.6h12.6v2.6h-12.6v31.6
		c0,5.9,2.2,7.8,7.4,7.8c2.3,0,4.2-0.5,6.2-1.2v1.8c-1.8,1-4.6,1.9-7.3,1.9C760.4,172.1,756.5,169.5,756.5,162.5L756.5,162.5z
		 M777,149.5c0-14.3,8-22.6,18.5-22.6c11,0,17,7.4,17,21.2h-32.3c-0.3,13.4,3.9,21.5,17.3,21.5c6.7,0,10.5-1.6,13.5-3.1v2.1
		c-2.8,1.6-7.1,3.6-14,3.6C781.6,172.2,777,162.2,777,149.5L777,149.5z M809.1,145.6c-0.3-11.1-5.1-16.4-13.8-16.4
		c-9,0-14.3,6.3-15,16.7L809.1,145.6z M421.7,162.5v-32.3h-6.6v-1.7l6.8-0.9l0.6-10.6h2.3v10.6h12.6v2.6h-12.6v31.6
		c0,5.9,2.2,7.8,7.4,7.8c2.3,0,4.2-0.5,6.2-1.2v1.8c-1.8,1-4.6,1.9-7.3,1.9C425.6,172.1,421.7,169.5,421.7,162.5L421.7,162.5z
		 M441.6,169.8l6.9-0.6v-58.4l-7.5-0.6v-1.8l10.2-0.9l0.4,0.3v24.4h0.2c5.1-2.9,10.7-5.3,16.9-5.3c8,0,12.3,3.5,12.3,11.4v30.9
		l6.9,0.6v1.7h-17.1v-1.7l7.1-0.6v-29.9c0-6.6-3-9.6-10.3-9.6c-5.6,0-11.1,2.1-15.9,4.8v34.8l7.2,0.6v1.7h-17.2L441.6,169.8
		L441.6,169.8z M491.7,149.5c0-14.3,8-22.6,18.5-22.6c11,0,17,7.4,17,21.2H495c-0.3,13.4,3.9,21.5,17.3,21.5
		c6.7,0,10.5-1.6,13.5-3.1v2.1c-2.8,1.6-7.1,3.6-14,3.6C496.3,172.2,491.7,162.2,491.7,149.5L491.7,149.5z M523.8,145.6
		c-0.3-11.1-5.1-16.4-13.8-16.4c-9,0-14.3,6.3-15,16.7L523.8,145.6z"/>
</g>
</svg>
