<svg xmlns="http://www.w3.org/2000/svg" width="320" height="43" viewBox="0 0 320 43">
  <g fill="#FFF">
    <path d="M0 16.9375829C0 7.96868759.797231834 4.16570014.797231834 4.16570014L31.800692 4.16570014C31.800692 4.16570014 32.5979239 7.96868759 32.5979239 16.9375829L31.7231834 16.9375829C27.7591696 8.48527838 26.4747405 6.48486301 24.4927336 5.09996006L21.6913495 5.09996006C21.1709343 5.79241153 20.9384083 6.71568017 20.9384083 12.6180046L20.9384083 32.5891844C20.9384083 38.4915089 21.1155709 39.3048646 21.7577855 39.8214554L25.8878893 40.2281332C25.8878893 40.2281332 25.8878893 40.5139069 25.8878893 41.0304976L6.7100346 41.0304976C6.7100346 40.5139069 6.7100346 40.2391245 6.7100346 40.2391245L10.8622837 39.8214554C11.5044983 39.3048646 11.7370242 38.4915089 11.7370242 32.5891844L11.7370242 12.6289959C11.7370242 6.72667146 11.5044983 5.80340283 10.9176471 5.11095135L8.10519031 5.11095135C6.12318339 6.4958543 4.77231834 8.49626967.874740484 16.9375829L0 16.9375829zM51.2553633 41.0414889C51.2553633 40.5798546 51.2553633 40.294081 51.2553633 40.294081L53.1487889 39.9313683C53.6138408 39.6346034 53.7356401 39.2938733 53.7356401 35.6117901L53.7356401 22.4222382C53.7356401 19.2127806 51.8532872 16.530905 48.9743945 16.530905 47.7623828 16.5377064 46.5630746 16.7765517 45.4422145 17.2343478L45.4422145 35.6117901C45.4422145 39.2938733 45.5640138 39.6346034 46.0290657 39.9313683L48.033218 40.3050723C48.033218 40.3050723 48.033218 40.5688633 48.033218 41.0414889L33.9709343 41.0414889C33.9709343 40.5798546 33.9709343 40.3050723 33.9709343 40.3050723L35.8532872 39.9313683C36.3183391 39.6346034 36.4955017 39.2938733 36.4955017 35.6117901L36.4955017 7.30921C36.4955017 3.86893522 36.2629758 3.28639668 35.7868512 2.81377107L33.9598616 2.37411934C33.9598616 2.02239796 33.9598616 1.75860692 33.9598616 1.75860692 37.5739334.785292901 41.2819302.195783809 45.0214533 1.0658141e-14L45.7854671.120904226C45.7854671.120904226 45.4865052 6.13314162 45.4865052 10.3318156L45.4865052 16.2231488C48.0110727 13.7720904 51.4878893 11.8266315 54.3446367 11.8266315 59.5820069 11.8266315 62.8705882 16.0253055 62.8705882 22.5101685L62.8705882 35.6117901C62.8705882 39.2938733 62.9923875 39.6346034 63.4020761 39.9313683L65.3397924 40.3050723 65.3397924 41.0414889 51.2553633 41.0414889zM117.824221 42.1955747C107.858824 42.1955747 98.2809689 34.8863647 98.2809689 21.3121176 98.2809689 8.18851346 108.368166.318747504 117.824221.318747504 127.977855.318747504 137.367474 7.49606199 137.367474 20.5317358 137.356401 34.259861 127.33564 42.1955747 117.824221 42.1955747zM117.824221 1.19805096C110.715571 1.19805096 108.96609 12.596022 108.96609 21.1582395 108.96609 29.2148574 110.682353 41.1843757 117.824221 41.1843757 124.96609 41.1843757 126.682353 29.4676572 126.682353 20.5317358 126.704498 11.8376228 124.988235 1.19805096 117.824221 1.19805096zM140.058131 7.29821871C140.058131 3.85794393 139.825606 3.20945762 139.349481 2.74782331L137.644291 2.28618899 137.644291 1.76959821C141.2675.819373658 144.976384.226631534 148.716955-7.10542736e-15L149.425606.120904226C149.425606.120904226 149.07128 6.13314162 149.07128 10.6285806L149.07128 16.5858615C151.130796 14.0138989 154.131488 11.8046489 157.420069 11.8046489 162.889965 11.8046489 167.474048 17.2343478 167.474048 25.1700615 167.474048 35.5018771 161.716263 41.6570014 153.422837 41.6570014 150.068297 41.5735139 146.730278 41.1611686 143.457439 40.4259765L140.656055 41.4042016 139.548789 41.2503235C139.670588 40.0852464 139.781315 35.2930426 139.914187 31.2262641L140.058131 7.29821871zM149.115571 30.061187C149.115571 33.6773225 149.170934 37.7550923 149.414533 39.4587427 150.396753 40.2682957 151.60749 40.7559431 152.880277 40.854637 156.290657 40.854637 158.117647 35.721703 158.117647 29.4676572 158.117647 21.5868999 155.825606 16.3880182 152.116263 16.3880182 151.050337 16.4301842 150.014813 16.7525927 149.115571 17.3222781L149.115571 30.061187zM190.638062 13.3214474C190.984694 15.9706015 191.140108 18.6409637 191.103114 21.3121176L190.394464 21.3121176C186.375087 13.4973081 184.404152 13.1126128 184.404152 13.1126128 183.680297 12.9289927 182.93671 12.8330368 182.189619 12.8268392 179.65577 12.9456358 177.685253 15.0581555 177.760554 17.5750779 177.760554 20.1250579 178.757093 21.2791437 183.008997 22.9608116 189.076817 25.3349309 192.276817 27.1265117 192.276817 32.1055675 192.276817 38.1837527 186.386159 41.6570014 179.86436 41.6570014 176.546402 41.6253804 173.270713 40.9144401 170.242215 39.5686556 169.963508 36.8773953 169.826758 34.1735095 169.832526 31.4680725L170.463668 31.4680725C174.83737 39.6895599 177.229066 40.5688633 177.229066 40.5688633 178.069674 40.7718986 178.932893 40.8679277 179.797924 40.854637 181.90173 40.854637 184.116263 38.3706047 184.116263 35.7656682 184.116263 32.6441409 182.543945 31.709881 178.225606 29.9842479 172.401384 27.6101286 169.887889 25.3569135 169.887889 21.0703091 169.887889 15.2888889 176.476125 12.0464574 182.189619 12.0464574 185.049505 12.106513 187.889414 12.5350957 190.638062 13.3214474zM239.512803 21.367074C239.346713 21.367074 235.083737 19.828293 233.334256 19.1138589 232.589191 19.1834625 231.869805 19.4202427 231.23045 19.8063104L231.23045 35.6557553C231.23045 39.3598211 231.462976 39.5906382 232.10519 39.9423596L235.42699 40.3050723C235.42699 40.3050723 235.42699 40.5798546 235.42699 41.0524802L219.80346 41.0524802C219.80346 40.5908459 219.80346 40.3160636 219.80346 40.3160636L221.67474 39.9423596C222.139792 39.656586 222.261592 39.3048646 222.261592 35.6557553L222.261592 18.0696861C222.261592 16.2231488 222.084429 15.5856538 221.619377 15.178976L219.63737 14.6623852 219.63737 14.0908379C223.338587 13.1078762 227.12284 12.4640197 230.942561 12.1673616L231.529412 12.1673616 231.175087 19.0479112C234.319723 13.8380382 236.534256 12.1014139 238.870588 12.1014139 240.56935 12.1891876 241.926801 13.5366635 242.015225 15.2229411 242.015225 17.1354262 240.852595 21.5868999 239.512803 21.367074zM316.556401 21.367074C316.390311 21.367074 312.127336 19.828293 310.377855 19.1138589 309.632789 19.1834625 308.913404 19.4202427 308.274048 19.8063104L308.274048 35.6557553C308.274048 39.3598211 308.506574 39.5906382 309.148789 39.9423596L312.470588 40.3050723C312.470588 40.3050723 312.470588 40.5798546 312.470588 41.0524802L296.858131 41.0524802C296.858131 40.5908459 296.858131 40.3160636 296.858131 40.3160636L298.729412 39.9423596C299.194464 39.656586 299.316263 39.3048646 299.316263 35.6557553L299.316263 18.0696861C299.316263 16.2231488 299.1391 15.5856538 298.674048 15.178976L296.692042 14.6623852 296.692042 14.0908379C300.393258 13.1078762 304.177511 12.4640197 307.997232 12.1673616L308.584083 12.1673616 308.229758 19.0479112C311.374394 13.8380382 313.588927 12.1014139 315.92526 12.1014139 317.624021 12.1891876 318.981473 13.5366635 319.069896 15.2229411 319.069896 17.1354262 317.896194 21.5868999 316.556401 21.367074zM259.665052 12.969726C259.665052 13.4313603 259.665052 13.7061427 259.665052 13.7061427L257.32872 14.0138989C256.989374 14.3255706 256.817169 14.7773382 256.863668 15.2339324 257.026577 16.3121776 257.339603 17.3627286 257.793772 18.3554597L262.853979 30.7756211 267.072664 19.1138589C267.399042 18.1231057 267.574451 17.0895034 267.59308 16.0472881 267.598467 15.3570624 267.327662 14.6929312 266.840138 14.2007509L263.828374 13.7391165C263.828374 13.7391165 263.828374 13.4533429 263.828374 12.9917086L273.32872 12.9917086 273.32872 13.7281252 271.579239 14.0358815C270.527336 14.8492372 269.475433 16.0582794 268.257439 19.4216151L263.883737 31.3471683 260.096886 41.9317837 258.989619 41.9317837 248.537024 18.6851985C247.896566 16.9443966 246.905736 15.351272 245.624913 14.0029076L244.163322 13.6731688 244.163322 12.969726 259.665052 12.969726zM78.2062284 12.0244748C84.0304498 11.8705967 89.400692 13.9149772 89.5557093 19.5315281 89.594644 20.4775888 89.4634111 21.4229659 89.1681661 22.3233166 89.057763 22.6385119 88.7623521 22.852971 88.4262976 22.8618899 83.6429066 22.9937854 78.7266436 22.7849509 73.76609 22.9168464 73.76609 22.9168464 73.76609 23.5543414 73.76609 24.0159757 73.76609 29.8303698 76.4346021 35.4908859 83.2553633 35.3260165 85.4580359 35.2939295 87.6370109 34.8695273 89.6885813 34.073009L89.9321799 34.3587827C87.7176471 38.8762042 84.9384083 41.382219 79.0477509 41.5470884 71.5294118 41.755923 65.7605536 35.9415289 65.550173 27.8519371 65.3287197 18.8061027 71.3854671 12.2113268 78.2062284 12.0244748zM74.3418685 22.1584472L79.9778547 22.0924994C80.7861592 21.7627606 81.1737024 20.2129883 81.0851211 17.4431824 80.9965398 14.431568 80.0775087 12.6619698 77.8629758 12.7279176 75.6484429 12.7938653 73.7107266 16.3330617 73.8546713 21.7737519 73.8768166 22.0595255 73.9875433 22.1694385 74.3418685 22.1694385L74.3418685 22.1584472zM207.213841 12.0244748C213.038062 11.8705967 218.408304 13.9149772 218.563322 19.5315281 218.602257 20.4775888 218.471024 21.4229659 218.175779 22.3233166 218.065375 22.6385119 217.769965 22.852971 217.43391 22.8618899 212.650519 22.9937854 207.734256 22.7849509 202.773702 22.9168464 202.773702 22.9168464 202.773702 23.5543414 202.773702 24.0159757 202.773702 29.8303698 205.442215 35.4908859 212.262976 35.3260165 214.476838 35.2978789 216.667416 34.8734085 218.729412 34.073009L218.97301 34.3587827C216.758478 38.8762042 213.979239 41.382219 208.088581 41.5470884 200.570242 41.755923 194.801384 35.9415289 194.591003 27.8519371 194.347405 18.8061027 200.415225 12.2113268 207.213841 12.0244748zM203.349481 22.1584472L208.985467 22.0924994C209.793772 21.7627606 210.181315 20.2129883 210.092734 17.4431824 210.004152 14.431568 209.085121 12.6619698 206.870588 12.7279176 204.656055 12.7938653 202.718339 16.3330617 202.862284 21.7737519 202.884429 22.0595255 203.006228 22.1694385 203.360554 22.1694385L203.349481 22.1584472zM282.840138 12.0244748C288.66436 11.8705967 294.034602 13.9149772 294.189619 19.5315281 294.228554 20.4775888 294.097321 21.4229659 293.802076 22.3233166 293.691673 22.6385119 293.396262 22.852971 293.060208 22.8618899 288.276817 22.9937854 283.360554 22.7849509 278.4 22.9168464 278.4 22.9168464 278.4 23.5543414 278.4 24.0159757 278.4 29.8303698 281.068512 35.4908859 287.889273 35.3260165 290.103135 35.2978789 292.293713 34.8734085 294.355709 34.073009L294.599308 34.3587827C292.384775 38.8762042 289.605536 41.382219 283.714879 41.5470884 276.19654 41.755923 270.427682 35.9415289 270.217301 27.8519371 269.96263 18.8061027 276.019377 12.2113268 282.840138 12.0244748zM279.031142 22.1694385L284.667128 22.1034907C285.475433 21.7737519 285.862976 20.2239796 285.774394 17.4541737 285.685813 14.4425593 284.766782 12.6729611 282.552249 12.7389089 280.337716 12.8048566 278.4 16.344053 278.543945 21.7847432 278.510727 22.0595255 278.632526 22.1694385 279.031142 22.1694385z"/>
  </g>
</svg>
