<svg xmlns="http://www.w3.org/2000/svg" width="160" height="21"><path d="M0 8.3C0 3.9.4 2 .4 2h15.5s.4 1.9.4 6.3h-.4c-2-4.1-2.7-5.1-3.7-5.8h-1.4c-.2.3-.3.8-.3 3.7V16c0 2.9 0 3.3.4 3.5l2 .2v.4H3.4v-.4l2-.2c.4-.2.5-.6.5-3.5V6.2c0-2.9-.1-3.4-.4-3.7H4C3 3.2 2.4 4.2.4 8.3H0zm25.6 11.8v-.4l1-.1c.2-.2.3-.4.3-2.2V11c0-1.6-1-2.9-2.4-2.9l-1.8.3v9c0 1.9 0 2 .3 2.2l1 .1v.4h-7v-.4l1-.1c.2-.2.2-.4.2-2.2V3.6c0-1.7 0-2-.3-2.2l-1-.2V.9c1.9-.5 3.7-.8 5.6-.9h.4l-.2 5v3c1.3-1.3 3-2.2 4.5-2.2 2.6 0 4.2 2 4.2 5.2v6.4c0 1.9.1 2 .3 2.2l1 .1v.4h-7zm33.3.6c-5 0-9.8-3.6-9.8-10.3A10 10 0 0 1 59 .2c5 0 9.8 3.5 9.8 9.9 0 6.7-5 10.6-9.8 10.6zM59 .6c-3.5 0-4.4 5.6-4.4 9.8 0 4 .8 9.8 4.4 9.8 3.6 0 4.4-5.8 4.4-10.1S62.5.6 59 .6zm11.1 3c0-1.7 0-2-.3-2.3l-.9-.2V1c1.8-.5 3.7-.8 5.6-.9h.3l-.2 5.2v3c1-1.3 2.6-2.4 4.2-2.4 2.7 0 5 2.6 5 6.5 0 5-2.8 8.1-7 8.1-1.7 0-3.3-.2-5-.6l-1.4.5h-.5c0-.7 0-3 .2-5V3.6zm4.6 11.1l.1 4.6c.5.4 1.1.7 1.7.7 1.7 0 2.7-2.5 2.7-5.6 0-3.8-1.2-6.4-3-6.4a3 3 0 0 0-1.5.5v6.2zm20.7-8.2c.2 1.3.3 2.6.3 4h-.4c-2-3.9-3-4-3-4-.4-.2-.7-.2-1.1-.2-1.3 0-2.3 1-2.2 2.3 0 1.3.5 1.8 2.6 2.6 3 1.2 4.6 2 4.6 4.5 0 3-3 4.7-6.2 4.7-1.6 0-3.3-.4-4.8-1a37 37 0 0 1-.2-4h.3c2.2 4 3.4 4.5 3.4 4.5l1.3.1c1 0 2.2-1.2 2.2-2.5 0-1.5-.8-2-3-2.8-2.9-1.2-4.2-2.3-4.2-4.4C85 7.5 88.2 6 91.1 6c1.4 0 2.8.2 4.2.6zm24.5 4l-3.1-1.1c-.4 0-.8.1-1 .3v7.8c0 1.8 0 1.9.4 2l1.6.2v.4H110v-.3l1-.2c.2-.2.2-.3.2-2.1V8.9c0-1 0-1.3-.3-1.5l-1-.2v-.3c1.9-.5 3.8-.8 5.7-1h.3l-.2 3.4c1.6-2.5 2.7-3.4 3.8-3.4.9 0 1.6.7 1.6 1.6 0 .9-.6 3-1.2 3zm38.5 0l-3.1-1.1c-.4 0-.7.1-1 .3v7.8c0 1.8 0 1.9.4 2l1.6.2v.4h-7.8v-.3l1-.2c.2-.2.3-.3.3-2.1V8.9c0-1-.1-1.3-.4-1.5l-1-.2v-.3c1.9-.5 3.8-.8 5.7-1h.3l-.2 3.4c1.6-2.5 2.7-3.4 3.9-3.4.8 0 1.5.7 1.5 1.6 0 .9-.6 3-1.2 3zm-28.5-4.1v.3l-1.1.2c-.2.1-.3.3-.3.6L129 9l2.5 6 2.1-5.6.3-1.5c0-.4-.1-.7-.4-1l-1.5-.2v-.3h4.8v.3l-1 .2c-.4.4-1 1-1.6 2.6l-2.2 5.9-1.9 5.1h-.5l-5.2-11.3c-.4-.9-.8-1.7-1.5-2.3l-.7-.2v-.3h7.7zm-90.7-.5c3 0 5.6 1 5.7 3.7 0 .4 0 .9-.2 1.3 0 .2-.2.3-.4.3H37v.6c0 2.8 1.3 5.6 4.7 5.5 1.1 0 2.2-.2 3.2-.6l.2.1c-1.1 2.2-2.5 3.5-5.5 3.6-3.7 0-6.6-2.8-6.7-6.8C32.7 9.2 35.7 6 39 6zm-2 5H40c.4-.2.6-1 .5-2.4 0-1.4-.5-2.3-1.6-2.3-1 0-2 1.8-2 4.5 0 .1 0 .2.3.2zm66.5-5c3 0 5.6 1 5.7 3.7 0 .4 0 .9-.2 1.3 0 .2-.2.3-.4.3h-7.3v.6c0 2.8 1.3 5.6 4.7 5.5 1.1 0 2.2-.2 3.3-.6v.1c-1 2.2-2.4 3.5-5.4 3.6-3.7 0-6.6-2.8-6.7-6.8-.1-4.4 3-7.6 6.3-7.7zm-2 5h2.9c.4-.2.6-1 .5-2.4 0-1.4-.5-2.3-1.6-2.3-1 0-2 1.8-2 4.5 0 .1.1.2.3.2zm39.8-5c3 0 5.6 1 5.7 3.7 0 .4 0 .9-.2 1.3 0 .2-.2.3-.4.3h-7.3v.6c0 2.8 1.3 5.6 4.7 5.5 1.2 0 2.2-.2 3.3-.6l.1.1c-1.1 2.2-2.5 3.5-5.4 3.6a6.7 6.7 0 0 1-6.8-6.8c-.1-4.4 3-7.6 6.3-7.7zm-1.9 5h2.8c.4-.2.6-1 .6-2.3 0-1.5-.5-2.4-1.6-2.4s-2.1 1.8-2 4.5c0 .1 0 .2.2.2z" fill="#FFF"/></svg>