<svg xmlns="http://www.w3.org/2000/svg" width="320" height="43"><path d="M0 17C0 8 .8 4.1.8 4.1h31s.8 3.8.8 12.7h-.9c-4-8.4-5.2-10.4-7.2-11.8h-2.8c-.5.7-.8 1.6-.8 7.5v20c0 5.9.2 6.7.9 7.2l4 .4v.8h-19v-.8l4-.4c.7-.5 1-1.3 1-7.2v-20c0-5.9-.3-6.8-.9-7.5H8.1C6.1 6.5 4.8 8.5 1 17H0zm51.3 24v-.7l1.8-.4c.5-.3.6-.6.6-4.3V22.4c0-3.2-1.8-5.9-4.7-5.9-1.2 0-2.4.3-3.6.7v18.4c0 3.7.2 4 .6 4.3l2 .4v.7H34v-.7l1.9-.4c.4-.3.6-.6.6-4.3V7.3c0-3.4-.2-4-.7-4.5L34 2.4v-.6C37.6.8 41.3.2 45 0l.8.1s-.3 6-.3 10.2v6c2.5-2.5 6-4.5 8.8-4.5 5.3 0 8.6 4.2 8.6 10.7v13.1c0 3.7 0 4 .5 4.3l2 .4v.7H51.2zm66.5 1.2c-10 0-19.5-7.3-19.5-20.9 0-13.1 10-21 19.5-21 10.2 0 19.6 7.2 19.6 20.2 0 13.8-10 21.7-19.6 21.7zm0-41c-7 0-8.8 11.4-8.8 20 0 8 1.7 20 8.8 20 7.2 0 8.9-11.7 8.9-20.7 0-8.7-1.7-19.3-8.9-19.3zm22.3 6.1c0-3.4-.3-4-.8-4.6l-1.7-.4v-.5c3.7-1 7.4-1.6 11.1-1.8l.7.1s-.3 6-.3 10.5v6c2-2.6 5-4.8 8.3-4.8 5.5 0 10 5.4 10 13.4 0 10.3-5.7 16.5-14 16.5a49 49 0 0 1-10-1.3l-2.7 1-1.2-.1c.2-1.2.3-6 .4-10l.2-24zm9 22.8c0 3.6 0 7.7.3 9.4 1 .8 2.2 1.3 3.5 1.4 3.4 0 5.2-5.2 5.2-11.4 0-8-2.3-13.1-6-13.1a6 6 0 0 0-3 1V30zm41.5-16.8c.4 2.7.5 5.3.5 8h-.7c-4-7.8-6-8.2-6-8.2-.7-.2-1.5-.3-2.2-.3a4.6 4.6 0 0 0-4.4 4.8c0 2.5 1 3.7 5.2 5.4 6 2.3 9.3 4.1 9.3 9.1 0 6-6 9.6-12.4 9.6-3.4 0-6.6-.8-9.7-2.1a77 77 0 0 1-.4-8.1h.7c4.3 8.2 6.7 9 6.7 9 .9.3 1.7.4 2.6.4 2.1 0 4.3-2.5 4.3-5.1 0-3.2-1.6-4-5.9-5.8-5.8-2.4-8.3-4.6-8.3-9 0-5.7 6.6-9 12.3-9 2.8.1 5.7.5 8.4 1.3zm49 8l-6.3-2.2a5 5 0 0 0-2 .7v15.9c0 3.7.2 3.9.8 4.2l3.3.4v.8h-15.6v-.8l1.9-.4c.4-.2.6-.6.6-4.2V18c0-1.9-.2-2.5-.7-3l-2-.4V14a63 63 0 0 1 11.3-2h.6l-.3 7c3.1-5.3 5.3-7 7.7-7 1.7 0 3 1.4 3.1 3.1 0 2-1.1 6.4-2.5 6.2zm77 0l-6.2-2.2a5 5 0 0 0-2.1.7v15.9c0 3.7.2 3.9.8 4.2l3.4.4v.8h-15.6v-.8l1.8-.4c.5-.2.6-.6.6-4.2V18c0-1.9-.2-2.5-.6-3l-2-.4V14a63 63 0 0 1 11.3-2h.6l-.4 7c3.2-5.3 5.4-7 7.7-7 1.7 0 3 1.4 3.2 3.1 0 2-1.2 6.4-2.5 6.2zm-57-8.3v.7l-2.3.3c-.3.3-.5.8-.4 1.2a9 9 0 0 0 .9 3.2l5 12.4 4.3-11.7c.3-1 .5-2 .5-3 0-.7-.3-1.4-.8-1.9l-3-.5V13h9.5v.7l-1.7.3c-1 .8-2.1 2-3.3 5.4l-4.4 12-3.8 10.5H259l-10.5-23.2c-.6-1.8-1.6-3.3-2.9-4.7l-1.4-.3V13h15.5zM78.3 12c5.8-.1 11.2 2 11.4 7.5 0 1-.1 2-.4 2.8-.1.3-.4.6-.8.6H73.8V24c0 5.8 2.6 11.5 9.5 11.3 2.2 0 4.3-.4 6.4-1.2l.2.3c-2.2 4.5-5 7-10.9 7.1-7.5.3-13.2-5.6-13.4-13.6-.3-9 5.8-15.7 12.6-15.9zm-3.9 10.2L80 22c.8-.3 1.2-1.9 1-4.7 0-3-1-4.7-3.1-4.7-2.3 0-4.2 3.6-4 9 0 .4 0 .5.4.5zm133-10.2c5.7-.1 11.1 2 11.3 7.5 0 1-.1 2-.4 2.8-.1.3-.4.6-.8.6h-14.6V24c0 5.8 2.6 11.5 9.5 11.3 2.2 0 4.4-.4 6.4-1.2l.3.3c-2.2 4.5-5 7-11 7.1-7.4.3-13.2-5.6-13.4-13.6-.3-9 5.8-15.7 12.6-15.9zm-4 10.2l5.7-.1c.8-.3 1.2-1.9 1-4.7 0-3-1-4.7-3.1-4.7-2.2 0-4.2 3.6-4 9 0 .4.1.5.5.5zM282.8 12c5.9-.1 11.2 2 11.4 7.5 0 1-.1 2-.4 2.8-.1.3-.4.6-.7.6h-14.7V24c0 5.8 2.7 11.5 9.5 11.3 2.2 0 4.4-.4 6.5-1.2l.2.3c-2.2 4.5-5 7-10.9 7.1-7.5.3-13.3-5.6-13.5-13.6-.2-9 5.8-15.7 12.6-15.9zM279 22.2l5.7-.1c.8-.3 1.2-1.9 1-4.6 0-3-1-4.8-3.1-4.8-2.3.1-4.2 3.6-4 9 0 .4 0 .5.4.5z" fill="#FFF"/></svg>