<svg xmlns="http://www.w3.org/2000/svg" width="160" height="21" viewBox="0 0 160 21">
  <g fill="#FFF">
    <path d="M0 8.29769231C0 3.90384615.398615917 2.04076923.398615917 2.04076923L15.900346 2.04076923C15.900346 2.04076923 16.2989619 3.90384615 16.2989619 8.29769231L15.8615917 8.29769231C13.8795848 4.15692308 13.2373702 3.17692308 12.2463668 2.49846154L10.8456747 2.49846154C10.5854671 2.83769231 10.4692042 3.29 10.4692042 6.18153846L10.4692042 15.9653846C10.4692042 18.8569231 10.5577855 19.2553846 10.8788927 19.5084615L12.9439446 19.7076923C12.9439446 19.7076923 12.9439446 19.8476923 12.9439446 20.1007692L3.3550173 20.1007692C3.3550173 19.8476923 3.3550173 19.7130769 3.3550173 19.7130769L5.43114187 19.5084615C5.75224913 19.2553846 5.86851211 18.8569231 5.86851211 15.9653846L5.86851211 6.18692308C5.86851211 3.29538462 5.75224913 2.84307692 5.45882353 2.50384615L4.05259516 2.50384615C3.0615917 3.18230769 2.38615917 4.16230769.437370242 8.29769231L0 8.29769231zM25.6276817 20.1061538C25.6276817 19.88 25.6276817 19.74 25.6276817 19.74L26.5743945 19.5623077C26.8069204 19.4169231 26.8678201 19.25 26.8678201 17.4461538L26.8678201 10.9846154C26.8678201 9.41230769 25.9266436 8.09846154 24.4871972 8.09846154 23.8811914 8.1017935 23.2815373 8.2188034 22.7211073 8.44307692L22.7211073 17.4461538C22.7211073 19.25 22.7820069 19.4169231 23.0145329 19.5623077L24.016609 19.7453846C24.016609 19.7453846 24.016609 19.8746154 24.016609 20.1061538L16.9854671 20.1061538C16.9854671 19.88 16.9854671 19.7453846 16.9854671 19.7453846L17.9266436 19.5623077C18.1591696 19.4169231 18.2477509 19.25 18.2477509 17.4461538L18.2477509 3.58076923C18.2477509 1.89538462 18.1314879 1.61 17.8934256 1.37846154L16.9799308 1.16307692C16.9799308.990769231 16.9799308.861538462 16.9799308.861538462 18.7869667.384713622 20.6409651.0959141467 22.5107266 1.0658141e-14L22.8927336.0592307692C22.8927336.0592307692 22.7432526 3.00461538 22.7432526 5.06153846L22.7432526 7.94769231C24.0055363 6.74692308 25.7439446 5.79384615 27.1723183 5.79384615 29.7910035 5.79384615 31.4352941 7.85076923 31.4352941 11.0276923L31.4352941 17.4461538C31.4352941 19.25 31.4961938 19.4169231 31.7010381 19.5623077L32.6698962 19.7453846 32.6698962 20.1061538 25.6276817 20.1061538zM58.9121107 20.6715385C53.9294118 20.6715385 49.1404844 17.0907692 49.1404844 10.4407692 49.1404844 4.01153846 54.184083.156153846 58.9121107.156153846 63.9889273.156153846 68.683737 3.67230769 68.683737 10.0584615 68.6782007 16.7838462 63.6678201 20.6715385 58.9121107 20.6715385zM58.9121107.586923077C55.3577855.586923077 54.483045 6.17076923 54.483045 10.3653846 54.483045 14.3123077 55.3411765 20.1761538 58.9121107 20.1761538 62.483045 20.1761538 63.3411765 14.4361538 63.3411765 10.0584615 63.3522491 5.79923077 62.4941176.586923077 58.9121107.586923077zM70.0290657 3.57538462C70.0290657 1.89 69.9128028 1.57230769 69.6747405 1.34615385L68.8221453 1.12 68.8221453.866923077C70.6337502.401409726 72.4881922.111026393 74.3584775-7.10542736e-15L74.7128028.0592307692C74.7128028.0592307692 74.5356401 3.00461538 74.5356401 5.20692308L74.5356401 8.12538462C75.5653979 6.86538462 77.0657439 5.78307692 78.7100346 5.78307692 81.4449827 5.78307692 83.7370242 8.44307692 83.7370242 12.3307692 83.7370242 17.3923077 80.8581315 20.4076923 76.7114187 20.4076923 75.0341486 20.3667919 73.3651391 20.1647847 71.7287197 19.8046154L70.3280277 20.2838462 69.7743945 20.2084615C69.8352941 19.6376923 69.8906574 17.29 69.9570934 15.2976923L70.0290657 3.57538462zM74.5577855 14.7269231C74.5577855 16.4984615 74.5854671 18.4961538 74.7072664 19.3307692 75.1983764 19.7273678 75.803745 19.9662654 76.4401384 20.0146154 78.1453287 20.0146154 79.0588235 17.5 79.0588235 14.4361538 79.0588235 10.5753846 77.9128028 8.02846154 76.0581315 8.02846154 75.5251687 8.04911858 75.0074067 8.20706594 74.5577855 8.48615385L74.5577855 14.7269231zM95.3190311 6.52615385C95.4923472 7.82396982 95.5700538 9.13217559 95.5515571 10.4407692L95.1972318 10.4407692C93.1875433 6.61230769 92.2020761 6.42384615 92.2020761 6.42384615 91.8401487 6.33389098 91.468355 6.28688232 91.0948097 6.28384615 89.8278852 6.3420444 88.8426263 7.37696409 88.8802768 8.61 88.8802768 9.85923077 89.3785467 10.4246154 91.5044983 11.2484615 94.5384083 12.4115385 96.1384083 13.2892308 96.1384083 15.7284615 96.1384083 18.7061538 93.1930796 20.4076923 89.9321799 20.4076923 88.2732011 20.3922013 86.6353567 20.0439129 85.1211073 19.3846154 84.9817539 18.0661716 84.9133792 16.7415427 84.916263 15.4161538L85.2318339 15.4161538C87.4186851 19.4438462 88.6145329 19.8746154 88.6145329 19.8746154 89.0348369 19.974082 89.4664464 20.0211265 89.8989619 20.0146154 90.9508651 20.0146154 92.0581315 18.7976923 92.0581315 17.5215385 92.0581315 15.9923077 91.2719723 15.5346154 89.1128028 14.6892308 86.200692 13.5261538 84.9439446 12.4223077 84.9439446 10.3223077 84.9439446 7.49 88.2380623 5.90153846 91.0948097 5.90153846 92.5247523 5.9309596 93.9447072 6.14092154 95.3190311 6.52615385zM119.756401 10.4676923C119.673356 10.4676923 117.541869 9.71384615 116.667128 9.36384615 116.294595 9.39794484 115.934903 9.51394302 115.615225 9.70307692L115.615225 17.4676923C115.615225 19.2823077 115.731488 19.3953846 116.052595 19.5676923L117.713495 19.7453846C117.713495 19.7453846 117.713495 19.88 117.713495 20.1115385L109.90173 20.1115385C109.90173 19.8853846 109.90173 19.7507692 109.90173 19.7507692L110.83737 19.5676923C111.069896 19.4276923 111.130796 19.2553846 111.130796 17.4676923L111.130796 8.85230769C111.130796 7.94769231 111.042215 7.63538462 110.809689 7.43615385L109.818685 7.18307692 109.818685 6.90307692C111.669294 6.42152571 113.56142 6.10610152 115.47128 5.96076923L115.764706 5.96076923 115.587543 9.33153846C117.159862 6.77923077 118.267128 5.92846154 119.435294 5.92846154 120.284675 5.97146173 120.963401 6.63158786 121.007612 7.45769231 121.007612 8.39461538 120.426298 10.5753846 119.756401 10.4676923zM158.278201 10.4676923C158.195156 10.4676923 156.063668 9.71384615 155.188927 9.36384615 154.816395 9.39794484 154.456702 9.51394302 154.137024 9.70307692L154.137024 17.4676923C154.137024 19.2823077 154.253287 19.3953846 154.574394 19.5676923L156.235294 19.7453846C156.235294 19.7453846 156.235294 19.88 156.235294 20.1115385L148.429066 20.1115385C148.429066 19.8853846 148.429066 19.7507692 148.429066 19.7507692L149.364706 19.5676923C149.597232 19.4276923 149.658131 19.2553846 149.658131 17.4676923L149.658131 8.85230769C149.658131 7.94769231 149.56955 7.63538462 149.337024 7.43615385L148.346021 7.18307692 148.346021 6.90307692C150.196629 6.42152571 152.088756 6.10610152 153.998616 5.96076923L154.292042 5.96076923 154.114879 9.33153846C155.687197 6.77923077 156.794464 5.92846154 157.96263 5.92846154 158.812011 5.97146173 159.490736 6.63158786 159.534948 7.45769231 159.534948 8.39461538 158.948097 10.5753846 158.278201 10.4676923zM129.832526 6.35384615C129.832526 6.58 129.832526 6.71461538 129.832526 6.71461538L128.66436 6.86538462C128.494687 7.01807203 128.408584 7.23939223 128.431834 7.46307692 128.513288 7.99130734 128.669802 8.50597046 128.896886 8.99230769L131.42699 15.0769231 133.536332 9.36384615C133.699521 8.87847787 133.787225 8.37211789 133.79654 7.86153846 133.799234 7.52339806 133.663831 7.19804138 133.420069 6.95692308L131.914187 6.73076923C131.914187 6.73076923 131.914187 6.59076923 131.914187 6.36461538L136.66436 6.36461538 136.66436 6.72538462 135.789619 6.87615385C135.263668 7.27461538 134.737716 7.86692308 134.12872 9.51461538L131.941869 15.3569231 130.048443 20.5423077 129.49481 20.5423077 124.268512 9.15384615C123.948283 8.30103036 123.452868 7.5205614 122.812457 6.86L122.081661 6.69846154 122.081661 6.35384615 129.832526 6.35384615zM39.1031142 5.89076923C42.0152249 5.81538462 44.700346 6.81692308 44.7778547 9.56846154 44.797322 10.031935 44.7317056 10.4950736 44.584083 10.9361538 44.5288815 11.0905675 44.3811761 11.1956306 44.2131488 11.2 41.8214533 11.2646154 39.3633218 11.1623077 36.883045 11.2269231 36.883045 11.2269231 36.883045 11.5392308 36.883045 11.7653846 36.883045 14.6138462 38.217301 17.3869231 41.6276817 17.3061538 42.7290179 17.2904345 43.8185054 17.0825206 44.8442907 16.6923077L44.96609 16.8323077C43.8588235 19.0453846 42.4692042 20.2730769 39.5238754 20.3538462 35.7647059 20.4561538 32.8802768 17.6076923 32.7750865 13.6446154 32.6643599 9.21307692 35.6927336 5.98230769 39.1031142 5.89076923zM37.1709343 10.8553846L39.9889273 10.8230769C40.3930796 10.6615385 40.5868512 9.90230769 40.5425606 8.54538462 40.4982699 7.07 40.0387543 6.20307692 38.9314879 6.23538462 37.8242215 6.26769231 36.8553633 8.00153846 36.9273356 10.6669231 36.9384083 10.8069231 36.9937716 10.8607692 37.1709343 10.8607692L37.1709343 10.8553846zM103.60692 5.89076923C106.519031 5.81538462 109.204152 6.81692308 109.281661 9.56846154 109.301128 10.031935 109.235512 10.4950736 109.087889 10.9361538 109.032688 11.0905675 108.884982 11.1956306 108.716955 11.2 106.32526 11.2646154 103.867128 11.1623077 101.386851 11.2269231 101.386851 11.2269231 101.386851 11.5392308 101.386851 11.7653846 101.386851 14.6138462 102.721107 17.3869231 106.131488 17.3061538 107.238419 17.2923693 108.333708 17.084422 109.364706 16.6923077L109.486505 16.8323077C108.379239 19.0453846 106.989619 20.2730769 104.044291 20.3538462 100.285121 20.4561538 97.400692 17.6076923 97.2955017 13.6446154 97.1737024 9.21307692 100.207612 5.98230769 103.60692 5.89076923zM101.67474 10.8553846L104.492734 10.8230769C104.896886 10.6615385 105.090657 9.90230769 105.046367 8.54538462 105.002076 7.07 104.542561 6.20307692 103.435294 6.23538462 102.328028 6.26769231 101.35917 8.00153846 101.431142 10.6669231 101.442215 10.8069231 101.503114 10.8607692 101.680277 10.8607692L101.67474 10.8553846zM141.420069 5.89076923C144.33218 5.81538462 147.017301 6.81692308 147.09481 9.56846154 147.114277 10.031935 147.048661 10.4950736 146.901038 10.9361538 146.845837 11.0905675 146.698131 11.1956306 146.530104 11.2 144.138408 11.2646154 141.680277 11.1623077 139.2 11.2269231 139.2 11.2269231 139.2 11.5392308 139.2 11.7653846 139.2 14.6138462 140.534256 17.3869231 143.944637 17.3061538 145.051568 17.2923693 146.146857 17.084422 147.177855 16.6923077L147.299654 16.8323077C146.192388 19.0453846 144.802768 20.2730769 141.857439 20.3538462 138.09827 20.4561538 135.213841 17.6076923 135.108651 13.6446154 134.981315 9.21307692 138.009689 5.98230769 141.420069 5.89076923zM139.515571 10.8607692L142.333564 10.8284615C142.737716 10.6669231 142.931488 9.90769231 142.887197 8.55076923 142.842907 7.07538462 142.383391 6.20846154 141.276125 6.24076923 140.168858 6.27307692 139.2 8.00692308 139.271972 10.6723077 139.255363 10.8069231 139.316263 10.8607692 139.515571 10.8607692z"/>
  </g>
</svg>
