<svg width="156" height="50" xmlns="http://www.w3.org/2000/svg" viewBox="0 0 156 50"><style>.st0{fill:#fff}.st1{fill:#aadce6}.st2{fill:#1d1d1b}</style><g id="The_Guardian"><path class="st2" d="M33.9 26.7l2.6-1.4V3.1h-1.3l-5.6 7.2H29l.3-7.9H51l.3 7.9h-.6l-5.5-7.2h-1.4v22.2l2.6 1.4v.7H33.9v-.7zM53.4 25.7V2.6l-2.1-.8v-.4L58.9 0h.8v10.8l.2-.2c1.7-1.5 4.1-2.4 6.5-2.4 3.3 0 4.8 1.9 4.8 5.3v12.2l1.8 1v.7H63v-.7l1.8-1V13.5c0-1.9-.8-2.7-2.4-2.7-1 0-2 .3-2.6.9v14.1l1.7 1v.7h-9.9v-.7l1.8-1.1z"/><path class="st2" d="M78.5 18.4c.2 3.9 2 7 6.2 7 2 0 3.5-.9 4.8-1.6v.8c-1 1.4-3.7 3.4-7.4 3.4-6.5 0-9.8-3.6-9.8-9.8 0-6.1 3.6-9.9 9.5-9.9 5.5 0 8.4 2.7 8.4 10v.2H78.5zm-.1-.9l5.7-.3c0-4.9-.8-8.1-2.5-8.1-1.8 0-3.2 3.7-3.2 8.4zM0 36.6C0 26.6 6.7 23 14.1 23c3.2 0 6.1.5 7.8 1.2l.1 7h-.7L17 24.4c-.7-.3-1.5-.4-2.8-.4-4 0-6 4.5-5.9 12 .1 8.9 1.6 13 5.3 13 .9 0 1.7-.1 2.2-.4v-9l-2.4-1.9v-.8h11.1v.9l-1.9 1.9v8.8c-2 .8-5.3 1.5-8.7 1.5C5.4 49.9 0 46 0 36.6zM23.9 31.9v-.6l7.8-1.4.9.1v15.2c0 1.8.9 2.4 2.4 2.4 1 0 1.8-.4 2.5-1.2V32.9l-2.1-.9v-.6l7.8-1.4.8.1v17.5l2.1.9v.5l-7.7.9-.8-.1v-2.3h-.2c-1.4 1.3-3.4 2.4-5.8 2.4-3.7 0-5.4-2.2-5.4-5.5V32.9l-2.3-1zM56.9 38.2v-3.7c0-2.7-.9-3.6-3.2-3.6-.7 0-1.2.1-1.7.2l-3.5 5.1h-.6v-5c1.8-.6 4.2-1.2 7.2-1.2 5.3 0 8.3 1.4 8.3 5.8v11.7l1.9.9v.6c-.7.5-2.1.9-3.7.9-2.5 0-3.7-.9-4.2-2.3h-.2C56 49.1 54.4 50 51.9 50c-3.3 0-5.5-1.9-5.5-5.3 0-3.3 2-5.1 6.2-5.8l4.3-.7zm0 8.6v-7.7l-1.5.3c-1.8.3-2.6 2.3-2.6 4.5 0 2.5.7 4.1 2.4 3.8.7-.1 1.3-.5 1.7-.9zM124.7 38.2v-3.7c0-2.7-.9-3.6-3.2-3.6-.7 0-1.2.1-1.7.2l-3.5 5.1h-.6v-5c1.8-.6 4.2-1.2 7.2-1.2 5.3 0 8.3 1.4 8.3 5.8v11.7l1.9.9v.6c-.7.5-2.1.9-3.7.9-2.5 0-3.7-.9-4.2-2.3h-.2c-1.1 1.4-2.7 2.3-5.2 2.3-3.3 0-5.5-1.9-5.5-5.3 0-3.3 2-5.1 6.2-5.8l4.2-.6zm0 8.6v-7.7l-1.5.3c-1.8.3-2.6 2.3-2.6 4.5 0 2.5.7 4.1 2.4 3.8.8-.1 1.3-.5 1.7-.9zM73.7 30l.6.1v5.6h.2c.8-4.1 2.7-5.7 4.9-5.7.4 0 .7 0 1 .1v5.8c-.4-.1-1-.1-1.6-.1-1.8 0-3.1.3-4.2.8v11.2l1.8 1v.7H66.3v-.7l1.8-1V32.6l-2.1-.7v-.5l7.7-1.4zM94 30.4v-6.2l-2.1-.7V23l7.9-1.4.7.1v25.9l2.2.8v.6l-7.8 1-.6-.1v-2.1h-.2C93 48.9 91.4 50 88.9 50c-4.2 0-7.3-3.2-7.3-9.8 0-6.9 3.6-10.3 9-10.3 1.6-.1 2.8.2 3.4.5zm0 16.4V31.5c-.5-.3-.9-.7-2.1-.7-2.1.1-3.4 3.2-3.4 8.8 0 5.1.9 7.9 3.7 7.8.7.1 1.4-.2 1.8-.6zM111.4 29.9l.7.1v17.7l1.8 1v.7h-10.1v-.7l1.8-1V32.8l-2.2-.8v-.6l8-1.5zm.7-4.7c0 1.9-1.6 3.3-3.4 3.3-1.9 0-3.4-1.4-3.4-3.3s1.5-3.3 3.4-3.3c1.8-.1 3.4 1.4 3.4 3.3zM136.1 47.8V32.7L134 32v-.7l7.8-1.4.8.1v2.3h.2c1.7-1.5 4.2-2.4 6.6-2.4 3.4 0 4.9 1.6 4.9 5.1v13l1.8 1v.7H146V49l1.8-1V35.1c0-1.9-.9-2.7-2.5-2.7-1 0-1.9.3-2.7.8v14.5l1.8 1v.7h-10.1v-.7l1.8-.9z"/></g></svg>
