<svg width="295" height="97" viewBox="0 0 295 97"><defs><style>.cls-1{fill:#121212}</style></defs><path class="cls-1" d="M215.59 7.59h-.75l-11.68 1.85V12l3.11 1.4v6.87a8.45 8.45 0 0 0-4.52-1.27c-6.9 0-13.42 4-13.42 15.28 0 10.78 6.57 14.24 11 14.24a8.79 8.79 0 0 0 7.07-3.06h.3v3h.8l11.08-1.3v-2l-3-1.65zm-9.32 34.91a4.06 4.06 0 0 1-2.86 1c-3.71 0-5.46-3-5.46-9.93 0-7.92 2.2-10.57 5.16-10.57a3.79 3.79 0 0 1 3.16 1.26zm85.68 1.32V26.48c0-5.16-2.36-7.47-7-7.47a15 15 0 0 0-10 3.66V19h-.75l-11.63 1.86v2.46l3.21 1.45v19l-3.06 1.4v2.56H278v-2.5l-3-1.4V25.69a6.33 6.33 0 0 1 3.81-1.06c2.56 0 3.76 1.05 3.76 4v15.19l-3 1.4v2.56H295v-2.55zM227 17.16a4.94 4.94 0 1 0-5-4.91 5 5 0 0 0 5 4.91m-90.16 1.9h-.75l-11.68 1.86v2.56l3.11 1.45v16.83a5.17 5.17 0 0 1-3.4 1c-2.36 0-3.87-.7-3.87-3.91V19.06h-.8l-11.68 1.86v2.56l3.16 1.45v14.68c0 4.86 2.41 8.92 8.07 8.92a11.61 11.61 0 0 0 8.87-3.86v3.81h.75L140 47.13v-2l-3.16-1.65zM99.09 41.62h-10a1.91 1.91 0 0 1-2-1.8 2.78 2.78 0 0 1 1.25-2.06 14.74 14.74 0 0 0 4.61.55c7.22 0 12.18-3.26 12.18-9.37 0-2.76-1.15-4.31-2.91-5.91L107 24.5v-5.59l-7.57 1.4a19.71 19.71 0 0 0-6.47-1.46c-7.22 0-12.23 3.71-12.23 9.78a8.82 8.82 0 0 0 4.66 8l.22.14c-1.6 1.1-4.94 3.62-4.94 6.58 0 2.2 1.45 4.36 4.46 5-3.16.65-6.72 2-6.72 5.66s5.41 7.48 14.24 7.48c11 0 15.74-5.17 15.74-11.84 0-5.51-3.06-8.07-9.27-8.07m-6.19-19.41c2.06 0 3.46 1.43 3.46 6.47s-1.46 6.22-3.46 6.22-3.41-1.05-3.41-6.22 1.41-6.47 3.41-6.47m0 35.09c-5.11 0-7-2-6.87-4A3.13 3.13 0 0 1 89.13 50h8c2.3 0 3.76 1.6 3.76 3.05 0 2.91-2.17 4.17-8 4.17m166-29.73c0-6.31-4.51-8.62-12-8.62a23.29 23.29 0 0 0-10.73 2.47v7.11h4.36l1.88-5.5a7.81 7.81 0 0 1 2.48-.31c3.61 0 4.66 1.8 4.66 5.36v3.2l-5.35 1c-5.47 1-9.6 2.67-9.6 8.44a7.52 7.52 0 0 0 7.73 7.89c3.51 0 6.82-1.5 8.07-4h.25c.45 3 3.06 4 6 4 2.26 0 4.44-.7 5.26-1.64v-1.66l-3-1.4zm-9.37 14.68a3.09 3.09 0 0 1-2.56 1.21c-1.8 0-3.51-1-3.51-4.11a5 5 0 0 1 4.2-4.59l1.87-.35zm-63.27-15a10.56 10.56 0 0 1 2.36.25v-8.16a5.38 5.38 0 0 0-1.4-.15c-3.06 0-5.86 2-7.52 5.71v-5.91h-.8l-11.28 1.86v2.56l3.11 1.45v19l-3 1.4v2.61h16.14v-2.61L180 43.77V28.89a9.63 9.63 0 0 1 6.22-1.71m45.6-8.27H231l-11.73 1.86v2.56l3.16 1.45v19l-3 1.4v2.61h15.37v-2.61l-3-1.4zM164 27.53c0-6.31-4.51-8.62-12-8.62a23.3 23.3 0 0 0-10.73 2.47v7.11h4.36l1.88-5.5a7.8 7.8 0 0 1 2.48-.31c3.61 0 4.66 1.8 4.66 5.36v3.16l-5.34 1c-5.47 1-9.6 2.67-9.6 8.44a7.52 7.52 0 0 0 7.73 7.89c3.51 0 6.82-1.5 8.07-4h.25c.45 3 3.06 4 6 4 2.26 0 4.44-.7 5.26-1.64v-1.66l-3-1.4zm-9.37 14.68a3.08 3.08 0 0 1-2.56 1.21c-1.8 0-3.51-1-3.51-4.11a5 5 0 0 1 4.2-4.59l1.86-.35zM50.37 26.48c0-5.16-3-7.47-7-7.47a15 15 0 0 0-10 3.65V7h-.75L21 8.89v2.46l3.21 1.45v31l-3.06 1.4v2.56h15.29v-2.53l-3-1.4v-18.1a6.59 6.59 0 0 1 3.8-1.19c2.56 0 3.82 1.61 3.77 4v15.28l-3 1.4v2.56h15.42v-2.55l-3.06-1.4zM13.63 39.31V24.53h6.12v-4.82h-6.12v-6.56l-9.32 1.3v5.26L0 20.52v4h4.31v15.59c0 5.16 2.45 8.42 8 8.42 2.91 0 6-.75 7.77-2.07V43a11.16 11.16 0 0 1-3 .46c-2.71 0-3.46-1.4-3.46-4.16m47.46-4.7h16.75c0-11.78-5.23-15.6-12.48-15.6-8.35 0-13.84 5.43-13.84 14.7 0 9.52 5 14.84 14.59 14.84 5.16 0 9.23-2.72 10.54-4.52l.14-2.29a23.65 23.65 0 0 1-7.52 1c-5.11 0-8.17-2.62-8.17-8.07m4.11-12.48c2.31 0 3.56 1.67 3.56 8.67l-7.76.39c.11-7.14 1.66-9.12 4.21-9.12"/></svg>
