<svg width="158.2" height="47" viewBox="0 0 158.2 47"><path fill="#fff" d="M51.2 14.5c0-5 3.1-7.9 7.6-7.9 4.6 0 6.8 2.6 6.8 8.6h-9.7c.2 3.1 1.8 4.4 4.5 4.4 2.1 0 3.3-.4 4.4-.7v2.4c-1 .7-2.8 1.5-5.6 1.5-5.4-.2-8-3.3-8-8.3zm9.8-1.7c0-2.7-.9-3.6-2.4-3.6s-2.6 1-2.8 3.8l5.2-.2zm5.5 7.3l1.9-.4v-16l-2-.5V1l6.1-.7.4.2v19.1l1.8.4v2.1h-8.2v-2zm9.1-5.6c0-5 3.1-7.9 7.6-7.9 4.6 0 6.8 2.6 6.8 8.6h-9.7c.2 3.1 1.8 4.4 4.5 4.4 2.1 0 3.3-.4 4.4-.7v2.4c-1 .7-2.8 1.5-5.6 1.5-5.3-.2-8-3.3-8-8.3zm9.8-1.7c0-2.7-.9-3.6-2.4-3.6-1.6 0-2.6 1-2.8 3.8l5.2-.2zm5.7 1.8c0-5.7 3.5-8.1 8.4-8.1 1.8 0 3.5.3 4.5.6v4.5h-2.8l-.4-2.2c-.3-.1-.6-.2-1.5-.2-2.1 0-3.4 1.4-3.4 5 0 3.9 1.8 5.2 4.5 5.2 1.7 0 3-.3 3.8-.7v2.4c-.9.7-2.6 1.4-5.2 1.4-5.3.1-7.9-3-7.9-7.9zm15.9 3.8V9.6h-1.8v-2l2.2-.8.6-3.6h3.5v3.6h3.4v2.7h-3.4v8.1c0 1.5.5 2 2 2 .6 0 1.1-.1 1.6-.2v2.2c-.7.4-2 .9-3.5.9-3 .1-4.6-1-4.6-4.1zm9.1 1.7l1.8-.4V9.9l-2-.5V7.3l6-.7.4.2v12.9l1.8.4v2.1H116l.1-2.1zm1.4-17.3c0-1.4 1.2-2.3 2.5-2.3 1.4 0 2.6.9 2.6 2.3s-1.1 2.3-2.6 2.3c-1.3 0-2.5-.9-2.5-2.3zm7.6 11.8c0-5.2 3.5-8.1 7.8-8.1 4.9 0 7.8 3 7.8 7.9 0 5.1-3.5 8.2-7.8 8.2-4.9 0-7.8-3.1-7.8-8zm10.8.1c0-4.3-1.4-5.5-3.1-5.5-1.7 0-3 1.1-3 5.2 0 4.2 1.4 5.5 3.1 5.5 1.7 0 3-1.1 3-5.2zm5 5.4l1.8-.4V9.9l-1.9-.5V7.3l5.8-.7.4.2v1.5h.2c1.5-1 3-1.8 5.1-1.8 2.5 0 4.1 1.1 4.1 3.9v9.3l1.8.4v2.1h-7.8v-2.1l1.5-.4v-7.8c0-1.5-.7-2-2.2-2-.9 0-1.7.2-2.5.5v9.3l1.5.4v2.1H141l-.1-2.1zM51 43.6l4.7-4.6c2.4-2.3 3.9-4.2 3.9-6.4 0-2.1-1.1-3.2-3.7-3.2-1.5 0-3 .3-4.3.8v-2.7c1.5-.8 3.8-1.7 6.3-1.7 4.3 0 6.8 2.2 6.8 6.1 0 3.2-2.3 5.8-6.1 8.7l-2.8 2.2v.1h5.8l1.1-2.3h2.5l-.4 5.7H51v-2.7zm14.5-7.3c0-7.4 4.1-10.6 8.7-10.6 4.8 0 8.6 3.2 8.6 10.4 0 7.3-4 10.5-8.7 10.5-4.9 0-8.6-3.2-8.6-10.3zm12.2 0c0-5.5-1-7.8-3.5-7.8-2.4 0-3.5 2.4-3.5 7.5 0 5.5 1 7.7 3.5 7.7 2.4.1 3.5-2.2 3.5-7.4zm5.5 7.7l2.7-.5v-13l-3 .2v-2.3l5.8-2.6h2.2v17.6l2.7.5v2.3H83.2V44zm10.4-7.1c0-7.9 4.6-11.2 9.7-11.2 2.3 0 4 .5 5 1.1v2.6c-.9-.3-2.4-.5-3.9-.5-2.9 0-5.3 1.2-5.7 5.8 1.1-.7 2.8-1.3 4.6-1.3 3.9 0 6.3 2.4 6.3 6.2 0 3.8-2.6 7-7.8 7-5.2 0-8.2-3.8-8.2-9.7zm10.9 3c0-2.5-1.1-3.4-2.9-3.4-1.2 0-2.2.3-3 .8v.7c0 3.8.8 5.9 3.1 5.9 2-.1 2.8-1.5 2.8-4zM2 2h45v45H2z"/><path fill="#E52629" d="M26 0h18v4H26zM29 7h17v3H29zM26 14h18v3H26zM28 21h18v3H28zM4 28h42v3H4zM0 35h43v3H0zM4 42h42v4H4z"/><path fill="#204583" d="M25 25H0V0h18v4H4v17h17V7h4zM24.1 1.7l-1-1.2L9.9 15.4l-4.5-5.3-1 1.2 5 8.7h.5z"/></svg>
