<?xml version="1.0" encoding="utf-8"?>
<!-- Generator: Adobe Illustrator 16.0.1, SVG Export Plug-In . SVG Version: 6.00 Build 0)  -->
<!DOCTYPE svg PUBLIC "-//W3C//DTD SVG 1.1//EN" "http://www.w3.org/Graphics/SVG/1.1/DTD/svg11.dtd">
<svg version="1.1" id="Layer_1" xmlns="http://www.w3.org/2000/svg" xmlns:xlink="http://www.w3.org/1999/xlink" x="0px" y="0px"
	 width="158.2px" height="47px" viewBox="0 0 158.2 47" enable-background="new 0 0 158.2 47" xml:space="preserve">
<g>
	<path fill="#FFFFFF" d="M51.2,14.5c0-5,3.1-7.9,7.6-7.9c4.6,0,6.8,2.6,6.8,8.6h-9.7c0.2,3.1,1.8,4.4,4.5,4.4c2.1,0,3.3-0.4,4.4-0.7
		v2.4c-1,0.7-2.8,1.5-5.6,1.5C53.8,22.6,51.2,19.5,51.2,14.5L51.2,14.5z M61,12.8c0-2.7-0.9-3.6-2.4-3.6c-1.5,0-2.6,1-2.8,3.8
		L61,12.8L61,12.8z M66.5,20.1l1.9-0.4V3.7l-2-0.5V1l6.1-0.7l0.4,0.2v19.1l1.8,0.4v2.1h-8.2L66.5,20.1L66.5,20.1z M75.6,14.5
		c0-5,3.1-7.9,7.6-7.9c4.6,0,6.8,2.6,6.8,8.6h-9.7c0.2,3.1,1.8,4.4,4.5,4.4c2.1,0,3.3-0.4,4.4-0.7v2.4c-1,0.7-2.8,1.5-5.6,1.5
		C78.3,22.6,75.6,19.5,75.6,14.5L75.6,14.5z M85.4,12.8c0-2.7-0.9-3.6-2.4-3.6c-1.6,0-2.6,1-2.8,3.8L85.4,12.8L85.4,12.8z
		 M91.1,14.6c0-5.7,3.5-8.1,8.4-8.1c1.8,0,3.5,0.3,4.5,0.6v4.5h-2.8l-0.4-2.2c-0.3-0.1-0.6-0.2-1.5-0.2c-2.1,0-3.4,1.4-3.4,5
		c0,3.9,1.8,5.2,4.5,5.2c1.7,0,3-0.3,3.8-0.7v2.4c-0.9,0.7-2.6,1.4-5.2,1.4C93.7,22.6,91.1,19.5,91.1,14.6L91.1,14.6z M107,18.4V9.6
		h-1.8v-2l2.2-0.8l0.6-3.6h3.5v3.6h3.4v2.7h-3.4v8.1c0,1.5,0.5,2,2,2c0.6,0,1.1-0.1,1.6-0.2v2.2c-0.7,0.4-2,0.9-3.5,0.9
		C108.6,22.6,107,21.5,107,18.4z M116.1,20.1l1.8-0.4V9.9l-2-0.5V7.3l6-0.7l0.4,0.2v12.9l1.8,0.4v2.1h-8.1L116.1,20.1L116.1,20.1z
		 M117.5,2.8c0-1.4,1.2-2.3,2.5-2.3c1.4,0,2.6,0.9,2.6,2.3c0,1.4-1.1,2.3-2.6,2.3C118.7,5.1,117.5,4.2,117.5,2.8z M125.1,14.6
		c0-5.2,3.5-8.1,7.8-8.1c4.9,0,7.8,3,7.8,7.9c0,5.1-3.5,8.2-7.8,8.2C128,22.6,125.1,19.5,125.1,14.6z M135.9,14.7
		c0-4.3-1.4-5.5-3.1-5.5c-1.7,0-3,1.1-3,5.2c0,4.2,1.4,5.5,3.1,5.5C134.6,19.9,135.9,18.8,135.9,14.7L135.9,14.7z M140.9,20.1
		l1.8-0.4V9.9l-1.9-0.5V7.3l5.8-0.7l0.4,0.2v1.5h0.2c1.5-1,3-1.8,5.1-1.8c2.5,0,4.1,1.1,4.1,3.9v9.3l1.8,0.4v2.1h-7.8v-2.1l1.5-0.4
		v-7.8c0-1.5-0.7-2-2.2-2c-0.9,0-1.7,0.2-2.5,0.5v9.3l1.5,0.4v2.1H141L140.9,20.1L140.9,20.1z M51,43.6l4.7-4.6
		c2.4-2.3,3.9-4.2,3.9-6.4c0-2.1-1.1-3.2-3.7-3.2c-1.5,0-3,0.3-4.3,0.8v-2.7c1.5-0.8,3.8-1.7,6.3-1.7c4.3,0,6.8,2.2,6.8,6.1
		c0,3.2-2.3,5.8-6.1,8.7l-2.8,2.2v0.1h5.8l1.1-2.3h2.5l-0.4,5.7H51V43.6z M65.5,36.3c0-7.4,4.1-10.6,8.7-10.6
		c4.8,0,8.6,3.2,8.6,10.4c0,7.3-4,10.5-8.7,10.5C69.2,46.6,65.5,43.4,65.5,36.3L65.5,36.3z M77.7,36.3c0-5.5-1-7.8-3.5-7.8
		c-2.4,0-3.5,2.4-3.5,7.5c0,5.5,1,7.7,3.5,7.7C76.6,43.8,77.7,41.5,77.7,36.3z M83.2,44l2.7-0.5v-13l-3,0.2v-2.3l5.8-2.6h2.2v17.6
		l2.7,0.5v2.3H83.2L83.2,44L83.2,44z M93.6,36.9c0-7.9,4.6-11.2,9.7-11.2c2.3,0,4,0.5,5,1.1v2.6c-0.9-0.3-2.4-0.5-3.9-0.5
		c-2.9,0-5.3,1.2-5.7,5.8c1.1-0.7,2.8-1.3,4.6-1.3c3.9,0,6.3,2.4,6.3,6.2c0,3.8-2.6,7-7.8,7C96.6,46.6,93.6,42.8,93.6,36.9
		L93.6,36.9z M104.5,39.9c0-2.5-1.1-3.4-2.9-3.4c-1.2,0-2.2,0.3-3,0.8v0.7c0,3.8,0.8,5.9,3.1,5.9C103.7,43.8,104.5,42.4,104.5,39.9z
		"/>
</g>
<g>
	<rect x="2" y="2" fill="#FFFFFF" width="45" height="45"/>
	<rect x="26" fill="#E52629" width="18" height="4"/>
	<rect x="29" y="7" fill="#E52629" width="17" height="3"/>
	<rect x="26" y="14" fill="#E52629" width="18" height="3"/>
	<rect x="28" y="21" fill="#E52629" width="18" height="3"/>
	<rect x="4" y="28" fill="#E52629" width="42" height="3"/>
	<rect y="35" fill="#E52629" width="43" height="3"/>
	<rect x="4" y="42" fill="#E52629" width="42" height="4"/>
	<g>
		<polygon fill="#204583" points="25,25 0,25 0,0 18,0 18,4 4,4 4,21 21,21 21,7 25,7 		"/>
	</g>
	<polygon fill="#204583" points="24.1,1.7 23.1,0.5 9.9,15.4 5.4,10.1 4.4,11.3 9.4,20 9.9,20 	"/>
</g>
</svg>
