<svg width="100" height="100" viewBox="0 0 300 300">
  <g fill="none" fill-rule="evenodd">
    <path fill="#00B2FF" d="M.006 300H300V0H.006z"/>
    <path fill="#F5F4F5" d="M270.504 208.013l-38.553-22.263-23.132 13.357 38.554 22.261 23.131-13.355M216.53 123.42v27.997l23.139 13.353-.007-27.994-23.132-13.357"/>
    <path fill="#C00000" d="M270.504 234.725v-26.712l-23.131 13.355v26.715l23.131-13.358M216.53 78.895v44.524l23.132 13.357V92.252L216.53 78.895"/>
    <path d="M270.504 234.725l7.71 4.453c3.428 1.98 3.428 6.925 0 8.905l-12.85 7.42c-1.59.92-3.55.92-5.141 0l-12.85-7.42 23.131-13.358" fill="#1A1E1C"/>
    <path d="M170.266 245.114v-14.84l23.131-13.357v35.618c0 3.957-4.283 6.43-7.71 4.452l-12.85-7.42a5.138 5.138 0 0 1-2.571-4.453" fill="#A0715F"/>
    <path fill="#1A1E1C" d="M124.001 203.56l-15.422 8.904-7.71-22.261 23.132 13.357M239.662 92.252L216.53 78.895l-7.711 4.453c-3.427 1.98-3.427 6.927 0 8.904l12.851 7.422a5.14 5.14 0 0 0 5.14 0l12.852-7.422"/>
    <path d="M126.571 187.234l12.852 7.422L124 203.56l-15.422-8.904 12.852-7.422a5.14 5.14 0 0 1 5.14 0M139.423 221.37v50.458c0 1.837.98 3.535 2.57 4.453l12.854 7.422c3.427 1.978 7.71-.494 7.71-4.451l-.002-44.527-23.132-13.355" fill="#A0715F"/>
    <path fill="#A40000" d="M193.397 208.013v26.712l-23.131-13.357v-26.712l23.131 13.357"/>
    <path fill="#C00000" d="M239.669 163.485l-.007 26.718-77.107 44.522-23.132-13.355v-26.714l77.107-44.524z"/>
    <path fill="#B20000" d="M270.504 208.013l-7.71-4.453-23.132 13.357 7.711 4.451 23.131-13.355"/>
    <path fill="#A40000" d="M162.555 208.013v26.712l-23.132-13.355v-26.714l23.132 13.357"/>
  </g>
</svg>

