<?xml version="1.0" standalone="no"?> <!DOCTYPE svg PUBLIC "-//W3C//DTD SVG 1.0//EN" "http://www.w3.org/TR/2001/REC-SVG-20010904/DTD/svg10.dtd" > <svg xmlns="http://www.w3.org/2000/svg" width="100%" height="100%">
<defs >
<font id="GuardianTextSansWeb-BlackItalic" horiz-adv-x="542" ><font-face
    font-family="GuardianTextSansWeb"
    units-per-em="1000"
    panose-1="0 0 0 0 0 0 0 0 0 0"
    ascent="797"
    descent="-203"
    alphabetic="0" />
<missing-glyph horiz-adv-x="500" />
<glyph unicode=" " glyph-name="space" horiz-adv-x="206" />
<glyph unicode="!" glyph-name="exclam" horiz-adv-x="298" d="M131 721H322L209 266H79L131 721ZM46 158H211L183 0H18L46 158Z" />
<glyph unicode="&quot;" glyph-name="quotedbl" horiz-adv-x="486" d="M357 721H517L444 466H316L357 721ZM129 721H289L216 466H88L129 721Z" />
<glyph unicode="#" glyph-name="numbersign" horiz-adv-x="596" d="M384 425H273L243 301H354L384 425ZM320 165H209L168 0H61L102 165H21L45 301H136L166 425H79L103 561H200L240 721H347L307 561H418L458 721H565L525 561H605L581 425H491L461 301H547L523 165H427L386
0H279L320 165Z" />
<glyph unicode="$" glyph-name="dollar" horiz-adv-x="544" d="M464 713Q494 702 513 691T543 673L518 540Q497 552 472 563T414 583L353 427L367 422Q442 394 478 351T514 234Q514 175 494 129T438 52T349 5T230 -11Q218 -11 207 -11T184 -9L129 -153H41L102
5Q65 15 40 29T-1 56L25 188Q45 176 74 160T152 134L216 300L198 307Q163 320 138 337T96 378T71 431T63 501Q63 607 133 669T341 732Q352 732 362 732T382 730L420 826H508L464 713ZM340 209Q340 228 331 241T292 269L237 126Q291 127 315 149T340 209ZM229 519Q229
496 238 483T276 456L329 592Q275 590 252 571T229 519Z" />
<glyph unicode="%" glyph-name="percent" horiz-adv-x="990" d="M246 317Q161 317 117 357T72 469Q72 480 73 491T76 513L85 564Q93 609 111 641T156 693T214 723T281 732Q364 732 409 692T454 580Q454 557 450 537L441 486Q433 441 415 409T370 356T312 327T246
317ZM739 -10Q654 -10 610 30T565 142Q565 153 566 164T569 186L578 237Q586 282 604 314T649 366T707 396T774 405Q857 405 902 365T947 253Q947 230 943 210L934 159Q926 114 908 82T863 29T805 0T739 -10ZM719 742H843L282 -42H158L719 742ZM739 88Q763 88 777
104T799 165L809 222Q811 233 812 242T813 259Q813 285 803 296T769 307Q746 307 733 292T712 232L702 173Q698 153 698 134Q698 88 739 88ZM246 415Q270 415 284 431T306 492L316 549Q318 560 319 569T320 586Q320 612 310 623T276 634Q253 634 240 619T219 559L209
500Q205 480 205 461Q205 415 246 415Z" />
<glyph unicode="&amp;" glyph-name="ampersand" horiz-adv-x="727" d="M282 -13Q148 -13 84 41T19 185Q19 232 34 268T76 332T138 378T215 409Q197 441 189 470T181 528Q181 577 200 615T253 680T330 719T425 733Q534 733 587 688T640 569Q640 492 588 447T432
370L518 238Q533 264 545 295T568 364H711Q692 291 660 234T587 132L673 0H478L457 32Q412 9 368 -2T282 -13ZM312 113Q360 113 396 126L265 330Q237 313 219 282T201 206Q201 168 225 141T312 113ZM349 538Q349 519 355 499T377 455L385 442Q437 466 461 493T486
559Q486 585 470 601T425 618Q398 618 374 598T349 538Z" />
<glyph unicode="&apos;" glyph-name="quotesingle" horiz-adv-x="255" d="M129 721H289L216 466H88L129 721Z" />
<glyph unicode="(" glyph-name="parenleft" horiz-adv-x="399" d="M169 -125Q146 -96 123 -60T81 19T51 112T39 221Q39 326 67 413T139 570T234 689T330 769H477Q418 713 369 653T285 524T229 379T209 212Q209 109 239 25T310 -125H169V-125Z" />
<glyph unicode=")" glyph-name="parenright" horiz-adv-x="399" d="M-68 -125Q-10 -70 39 -10T124 119T180 265T200 432Q200 535 170 619T99 769H240Q263 740 286 704T328 625T358 532T370 423Q370 318 342 231T270 74T175 -45T79 -125H-68V-125Z" />
<glyph unicode="*" glyph-name="asterisk" horiz-adv-x="478" d="M251 479L100 362L60 480L237 515L77 573L157 682L263 548L247 721H382L305 545L456 661L496 544L318 509L479 451L399 341L293 476L308 303H173L251 479Z" />
<glyph unicode="+" glyph-name="plus" horiz-adv-x="573" d="M210 264H40L64 400H234L265 580H409L378 400H548L524 264H354L322 84H178L210 264Z" />
<glyph unicode="," glyph-name="comma" horiz-adv-x="266" d="M34 158H202L110 -107H-20L34 158Z" />
<glyph unicode="-" glyph-name="hyphen" horiz-adv-x="369" d="M56 374H340L315 235H31L56 374Z" />
<glyph unicode="." glyph-name="period" horiz-adv-x="266" d="M30 158H194L166 0H2L30 158Z" />
<glyph unicode="/" glyph-name="slash" horiz-adv-x="423" d="M347 769H493L77 -125H-69L347 769Z" />
<glyph unicode="0" glyph-name="zero" horiz-adv-x="663" d="M311 -12Q181 -12 110 49T39 234Q39 254 40 276T47 322L67 438Q82 527 114 584T189 674T283 719T388 732Q514 732 584 671T654 486Q654 466 652 444T646 398L626 281Q611 194 580 138T508 48T416 1T311
-12ZM316 126Q341 126 358 132T389 157T413 206T432 286L455 412Q460 439 462 461T465 502Q465 553 445 573T379 594Q354 594 336 587T303 562T279 513T260 433L238 308Q233 281 231 259T228 217Q228 169 248 148T316 126Z" />
<glyph unicode="1" glyph-name="one" horiz-adv-x="430" d="M197 524L49 499L70 619L313 721H418L291 0H105L197 524Z" />
<glyph unicode="2" glyph-name="two" horiz-adv-x="530" d="M0 133L157 270Q192 301 223 330T279 387T317 444T331 500Q331 548 304 564T229 580Q183 580 149 572T83 555L108 695Q146 711 189 722T295 733Q405 733 465 685T526 536Q526 480 506 434T455 349T388
280T317 224L217 149V146H473L447 0H-23L0 133Z" />
<glyph unicode="3" glyph-name="three" horiz-adv-x="540" d="M229 -12Q179 -12 141 -7T74 7T25 26T-10 47L13 181Q44 167 87 154T194 141Q251 141 280 161T309 227Q309 298 219 298H134L158 436H249Q294 436 318 452T342 510Q342 550 314 565T216 580Q152 580
92 564L116 700Q158 718 205 725T295 733Q353 733 396 720T468 684T511 627T526 554Q526 516 517 485T488 429T435 389T353 367V363Q430 346 464 310T498 205Q498 156 479 116T424 48T339 4T229 -12Z" />
<glyph unicode="4" glyph-name="four" horiz-adv-x="648" d="M312 156H-2L20 286L421 722H591L516 294H620L596 156H492L464 0H284L312 156ZM263 379Q249 364 232 348T199 318Q181 302 161 288L160 285Q176 286 194 288Q209 289 226 290T259 291H341L365 422Q369
442 373 464T383 506Q388 529 394 552H390Q378 531 365 510Q354 492 340 471T310 433L263 379Z" />
<glyph unicode="5" glyph-name="five" horiz-adv-x="537" d="M224 -12Q175 -12 138 -7T72 6T23 25T-12 45L12 179Q42 164 83 152T187 140Q243 140 277 164T311 242Q311 286 279 306T168 327Q142 327 116 324T62 315L148 721H551L526 579H253L221 427Q241 438 265
446T322 455Q410 455 459 405T508 266Q508 202 490 151T435 63T346 8T224 -12Z" />
<glyph unicode="6" glyph-name="six" horiz-adv-x="615" d="M300 -12Q164 -12 99 52T33 228Q33 265 41 311L57 402Q73 496 105 559T183 661T286 716T408 733Q488 733 534 719T604 687L581 558Q561 566 524 575T424 584Q390 584 362 577T312 551T272 495T244 400Q274
427 314 443T397 459Q488 459 535 414T582 282Q582 216 563 162T507 69T418 9T300 -12ZM296 116Q321 116 339 128T369 160T386 208T392 265Q392 311 372 324T313 338Q285 338 268 331T233 316L224 269Q220 248 218 231T215 197Q215 158 233 137T296 116Z" />
<glyph unicode="7" glyph-name="seven" horiz-adv-x="536" d="M271 401Q291 434 314 465T357 519Q380 546 402 571V575H74L100 721H584L560 586L226 0H26L271 401Z" />
<glyph unicode="8" glyph-name="eight" horiz-adv-x="631" d="M295 -12Q219 -12 166 2T79 40T30 97T14 169Q14 248 62 293T195 361V366Q148 389 120 426T92 515Q92 570 112 611T169 679T256 719T365 733Q432 733 479 721T558 685T603 631T618 561Q618 495 581
450T457 379V374Q518 351 551 313T585 214Q585 98 508 43T295 -12ZM299 112Q344 112 373 135T403 203Q403 240 373 262T276 307Q237 290 211 262T185 189Q185 154 211 133T299 112ZM367 438Q403 454 426 476T450 539Q450 567 430 587T359 608Q317 608 293 588T269
530Q269 501 292 480T367 438Z" />
<glyph unicode="9" glyph-name="nine" horiz-adv-x="615" d="M225 -12Q149 -12 101 0T30 30L53 159Q73 151 114 144T214 137Q250 137 280 144T335 171T375 228T400 321Q370 294 330 278T247 262Q156 262 109 307T62 439Q62 505 81 559T137 652T226 712T344 733Q480
733 545 669T611 493Q611 456 603 410L587 319Q570 225 539 162T463 60T358 5T225 -12ZM331 383Q359 383 376 390T411 405L420 452Q424 473 426 490T429 524Q429 563 411 584T348 605Q323 605 305 593T275 561T258 513T252 456Q252 410 272 397T331 383Z" />
<glyph unicode=":" glyph-name="colon" horiz-adv-x="274" d="M34 158H198L170 0H6L34 158ZM87 462H251L223 304H59L87 462Z" />
<glyph unicode=";" glyph-name="semicolon" horiz-adv-x="274" d="M287 158H455L363 -107H233L287 158ZM87 462H251L223 304H59L87 462Z" />
<glyph unicode="&lt;" glyph-name="less" horiz-adv-x="536" d="M51 264L76 406L535 605L507 448L209 330L465 210L439 64L51 264Z" />
<glyph unicode="=" glyph-name="equal" horiz-adv-x="554" d="M87 503H544L521 369H64L87 503ZM43 251H500L477 118H20L43 251Z" />
<glyph unicode="&gt;" glyph-name="greater" horiz-adv-x="536" d="M43 221L341 339L85 459L111 605L499 405L474 263L15 64L43 221Z" />
<glyph unicode="?" glyph-name="question" horiz-adv-x="456" d="M110 309Q114 337 121 357T141 392T170 420T211 448Q235 462 251 472T276 493T290 514T294 543Q294 555 290 564T274 581T243 592T192 596Q160 596 134 592T80 580L102 704Q139 717 174 725T260
733Q368 733 423 693T479 576Q479 535 470 505T444 452T401 410T342 371Q316 356 300 346T275 326T260 306T252 281L249 266H103L110 309ZM76 158H240L212 0H48L76 158Z" />
<glyph unicode="@" glyph-name="at" horiz-adv-x="937" d="M450 -167Q360 -167 285 -144T156 -73T72 46T41 214Q41 318 75 408T173 564T326 669T524 707Q610 707 680 682T801 612T879 503T907 363Q907 280 886 222T828 126T744 72T645 55Q588 55 557 72T519 116H514Q496
94 467 76T396 57Q368 57 344 66T301 94T273 142T262 211Q262 271 278 319T321 402T387 454T471 473Q503 473 526 465T564 443H569L575 465H705L646 193Q641 172 647 160T674 148Q698 148 721 159T762 195T792 259T803 356Q803 411 787 458T736 539T648 592T520
612Q439 612 371 584T253 505T176 380T148 218Q148 69 227 -3T451 -75Q528 -75 591 -62T700 -33V-114Q653 -137 591 -152T450 -167ZM448 154Q466 154 479 163T503 184L541 364Q535 372 523 377T494 382Q473 382 456 370T427 335T409 281T403 213Q403 178 414 166T448
154Z" />
<glyph unicode="A" glyph-name="A" horiz-adv-x="698" d="M329 721H527L631 0H442L427 135H199L137 0H-32L329 721ZM252 252H414L402 359Q397 398 396 441T395 521Q395 564 397 606H392Q381 566 367 525Q355 490 339 448T306 368L252 252Z" />
<glyph unicode="B" glyph-name="B" horiz-adv-x="628" d="M139 721H396Q508 721 560 676T613 558Q613 482 577 436T450 373V369Q586 349 586 226Q586 177 572 136T526 64T444 17T320 0H12L139 721ZM305 131Q354 131 378 156T402 239Q402 273 384 291T319 310H249L217
131H305ZM338 431Q384 431 407 453T431 525Q431 557 415 573T357 589H298L270 431H338Z" />
<glyph unicode="C" glyph-name="C" horiz-adv-x="559" d="M333 -12Q181 -12 109 55T36 251Q36 297 45 351L58 425Q74 518 108 577T187 671T286 719T396 732Q438 732 468 728T522 718T562 703T593 685L568 546Q553 553 539 559T508 570T470 578T421 581Q388 581
361 574T313 549T277 499T254 420L240 339Q232 293 232 261Q232 231 239 209T264 171T311 147T384 139Q426 139 454 147T511 164L485 18Q454 4 419 -4T333 -12Z" />
<glyph unicode="D" glyph-name="D" horiz-adv-x="683" d="M139 721H374Q526 721 601 659T677 469Q677 424 668 372L655 299Q639 211 610 154T536 62T431 14T291 0H12L139 721ZM296 145Q330 145 356 152T402 177T436 227T459 310L474 396Q478 419 480 437T482 472Q482
533 452 554T353 576H300L224 145H296Z" />
<glyph unicode="E" glyph-name="E" horiz-adv-x="562" d="M139 721H582L556 573H296L272 438H480L456 298H248L221 148H502L476 0H12L139 721Z" />
<glyph unicode="F" glyph-name="F" horiz-adv-x="539" d="M139 721H590L564 573H299L271 414H475L450 270H246L198 0H12L139 721Z" />
<glyph unicode="G" glyph-name="G" horiz-adv-x="648" d="M348 -11Q273 -11 215 2T116 46T55 124T34 241Q34 266 37 293T45 350L58 422Q75 515 111 575T195 671T299 719T415 733Q463 733 497 729T557 718T600 703T633 685L607 540Q595 546 579 552T542 564T494
573T431 577Q381 577 350 567T300 537T270 487T251 414L236 333Q231 302 227 276T223 227Q223 175 249 149T345 122Q380 122 405 132L428 260H343L366 394H624L561 28Q519 10 463 0T348 -11Z" />
<glyph unicode="H" glyph-name="H" horiz-adv-x="703" d="M139 721H325L276 445H485L534 721H720L593 0H407L459 295H250L198 0H12L139 721Z" />
<glyph unicode="I" glyph-name="I" horiz-adv-x="308" d="M139 721H325L198 0H12L139 721Z" />
<glyph unicode="J" glyph-name="J" horiz-adv-x="449" d="M142 -8Q76 -8 39 5T-21 34L2 164Q18 157 41 151T95 144Q136 144 162 162T196 230L282 721H468L375 191Q358 97 302 45T142 -8Z" />
<glyph unicode="K" glyph-name="K" horiz-adv-x="655" d="M274 372L529 721H726L457 373L602 0H413L274 372ZM139 721H325L198 0H12L139 721Z" />
<glyph unicode="L" glyph-name="L" horiz-adv-x="518" d="M139 721H325L224 148H472L446 0H12L139 721Z" />
<glyph unicode="M" glyph-name="M" horiz-adv-x="863" d="M139 721H399L410 511Q412 465 412 407T412 297Q411 236 408 174H412Q432 236 451 295Q468 346 487 400T523 495L616 721H880L753 0H577L628 286Q632 307 637 333T648 388T660 448T672 508Q686 575 702
647H698Q675 578 652 514Q642 487 632 458T610 400T589 345T570 298L444 0H295L274 299Q271 339 270 398T268 513Q268 578 269 648H265Q255 577 246 509Q242 480 238 450T229 390T221 333T213 285L163 0H12L139 721Z" />
<glyph unicode="N" glyph-name="N" horiz-adv-x="695" d="M139 721H340L413 515Q428 470 440 421T462 328Q473 278 480 228H483Q488 290 493 348Q495 373 497 399T503 450T509 499T515 540L547 721H712L585 0H410L322 250Q308 288 296 338T275 434Q264 487 255
541H251Q246 477 240 416Q237 390 234 363T228 308T222 257T215 213L177 0H12L139 721Z" />
<glyph unicode="O" glyph-name="O" horiz-adv-x="699" d="M330 -12Q189 -12 113 54T36 254Q36 298 45 351L58 424Q74 516 109 575T192 670T295 718T408 732Q547 732 620 666T693 469Q693 421 683 368L670 295Q654 203 619 144T538 50T438 2T330 -12ZM334 126Q391
126 425 166T476 303L491 388Q496 418 499 443T502 489Q502 543 479 568T396 594Q338 594 304 555T253 420L238 335Q233 306 230 281T227 235Q227 178 251 152T334 126Z" />
<glyph unicode="P" glyph-name="P" horiz-adv-x="617" d="M139 721H397Q458 721 502 707T575 665T617 601T631 518Q631 446 611 394T552 308T460 257T339 240H240L198 0H12L139 721ZM330 372Q390 372 417 404T444 510Q444 549 425 566T363 584H301L264 372H330Z" />
<glyph unicode="Q" glyph-name="Q" horiz-adv-x="699" d="M244 -17Q202 -3 164 17T98 69T53 145T36 253Q36 297 45 351L58 424Q74 516 109 575T192 670T295 718T408 732Q547 732 620 666T693 469Q693 421 683 368L670 295Q659 236 640 194T593 123T527 76T443
51V47L669 8L632 -144L244 -17ZM334 122Q391 122 425 164T476 303L491 388Q496 418 499 443T502 489Q502 543 479 568T396 594Q338 594 304 555T253 420L238 335Q233 306 230 281T227 235Q227 178 251 150T334 122Z" />
<glyph unicode="R" glyph-name="R" horiz-adv-x="632" d="M139 721H400Q513 721 572 669T632 526Q632 479 622 444T591 383T543 340T480 311V307L584 0H396L313 263H245L199 0H12L139 721ZM336 387Q393 387 420 414T448 510Q448 586 363 586H300L265 387H336Z" />
<glyph unicode="S" glyph-name="S" horiz-adv-x="522" d="M214 -11Q172 -11 139 -6T78 9T30 29T-6 53L20 199Q41 189 61 179T103 159T151 145T210 139Q310 139 310 212Q310 235 297 251T244 285L191 307Q159 320 136 336T96 375T71 427T63 494Q63 545 78 588T126
664T209 714T330 732Q370 732 401 727T455 713T496 696T526 677L501 534Q485 542 468 550T429 566T383 577T326 582Q286 582 262 568T238 518Q238 496 250 481T299 450L352 428Q386 414 412 397T457 358T484 308T493 243Q493 124 420 57T214 -11Z" />
<glyph unicode="T" glyph-name="T" horiz-adv-x="573" d="M246 573H72L98 721H631L605 573H431L330 0H145L246 573Z" />
<glyph unicode="U" glyph-name="U" horiz-adv-x="690" d="M330 -11Q184 -11 115 44T46 200Q46 230 52 263L133 721H320L238 257Q236 246 235 236T234 216Q234 174 257 152T335 130Q361 130 382 134T419 151T446 186T463 242L547 721H713L625 224Q614 159 590 115T529
42T443 2T330 -11Z" />
<glyph unicode="V" glyph-name="V" horiz-adv-x="659" d="M89 721H274L301 453Q305 417 307 365T311 265Q313 209 313 150H317Q337 206 356 260Q373 306 391 356T426 442L549 721H726L376 0H186L89 721Z" />
<glyph unicode="W" glyph-name="W" horiz-adv-x="920" d="M93 721H269L271 473Q271 449 270 421T268 362T264 301T259 242Q254 176 246 108H249Q265 174 283 237Q290 264 299 293T317 352T335 408T355 460L460 721H629L641 476Q643 429 641 367T634 246Q630 178
623 108H626Q642 174 660 239Q667 267 675 297T693 358T711 418T730 473L820 721H982L699 0H510L503 261Q501 302 503 357T509 463Q513 522 517 585H514Q499 526 482 470Q475 446 467 420T451 369T434 319T417 274L310 0H121L93 721Z" />
<glyph unicode="X" glyph-name="X" horiz-adv-x="689" d="M233 375L111 721H306L338 613Q346 586 352 555T363 497Q368 465 372 434H376Q390 464 405 495Q418 521 433 551T466 608L536 721H726L483 371L613 0H418L382 122Q373 151 367 183T355 241Q350 272 345
301H341Q328 272 313 242Q300 216 283 186T246 128L159 0H-31L233 375Z" />
<glyph unicode="Y" glyph-name="Y" horiz-adv-x="627" d="M223 284L87 721H276L303 611Q311 576 317 538T329 465Q334 425 338 387H341Q357 424 375 463Q390 496 410 534T450 608L517 721H696L407 275L358 0H172L223 284Z" />
<glyph unicode="Z" glyph-name="Z" horiz-adv-x="572" d="M5 137L249 431Q272 458 297 483T343 529Q368 553 392 574V577H102L127 721H609L585 584L341 290Q317 261 292 236T246 190Q221 167 199 147V144H506L481 0H-19L5 137Z" />
<glyph unicode="[" glyph-name="bracketleft" horiz-adv-x="402" d="M149 769H458L435 640H294L182 4H323L300 -125H-9L149 769Z" />
<glyph unicode="\" glyph-name="backslash" horiz-adv-x="423" d="M119 769H258L372 -125H233L119 769Z" />
<glyph unicode="]" glyph-name="bracketright" horiz-adv-x="402" d="M-16 4H125L237 640H96L119 769H428L270 -125H-39L-16 4Z" />
<glyph unicode="^" glyph-name="asciicircum" horiz-adv-x="514" d="M263 721H412L517 425H384L315 578L186 425H48L263 721Z" />
<glyph unicode="_" glyph-name="underscore" horiz-adv-x="361" d="M-68 -53H313L294 -161H-87L-68 -53Z" />
<glyph unicode="`" glyph-name="grave" horiz-adv-x="500" d="M164 793H337L379 624H246L164 793Z" />
<glyph unicode="a" glyph-name="a" horiz-adv-x="526" d="M278 58Q253 26 222 8T143 -10Q77 -10 38 25T-1 130Q-1 183 16 217T62 272T132 303T220 319L319 331L322 346Q330 390 309 408T230 426Q190 426 153 421T87 406L108 526Q143 543 185 553T285 563Q339 563
381 550T450 511T488 443T489 345L428 0H289L285 58H278ZM212 92Q250 92 283 125L303 242L239 236Q201 232 182 213T162 154Q162 122 175 107T212 92Z" />
<glyph unicode="b" glyph-name="b" horiz-adv-x="577" d="M252 -10Q206 -10 169 -6T103 4T50 19T6 36L136 769H303L252 483H257Q290 517 329 540T418 563Q482 563 520 523T558 393Q558 351 549 299L540 248Q526 172 502 123T441 44T358 2T252 -10ZM256 107Q297
107 326 136T370 247L380 305Q386 339 386 362Q386 403 369 415T322 427Q298 427 276 418T237 396L188 117Q200 112 216 110T256 107Z" />
<glyph unicode="c" glyph-name="c" horiz-adv-x="453" d="M247 -10Q186 -10 143 4T73 46T33 110T20 193Q20 213 22 233T28 275L38 328Q50 394 75 439T136 511T215 551T309 563Q367 563 402 552T462 527L440 405Q419 414 393 421T322 429Q275 429 245 405T204 319L194
263Q191 246 189 231T187 202Q187 161 208 141T286 121Q319 121 350 128T402 142L381 20Q356 8 321 -1T247 -10Z" />
<glyph unicode="d" glyph-name="d" horiz-adv-x="577" d="M166 -10Q98 -10 59 30T19 161Q19 181 20 203T27 250L36 301Q49 374 75 424T136 505T213 549T302 563Q344 563 367 556T407 540L448 769H615L479 0H341L337 71H332Q260 -10 166 -10ZM254 120Q278 120 300
131T339 156L387 430Q375 435 359 438T319 441Q277 441 248 411T206 305L196 247Q190 212 190 189Q190 148 207 134T254 120Z" />
<glyph unicode="e" glyph-name="e" horiz-adv-x="539" d="M282 -10Q211 -10 161 5T79 47T32 113T17 200Q17 218 19 236T25 275L35 328Q58 449 126 506T300 563Q416 563 467 515T519 371Q519 351 518 329T511 283L501 225H187Q186 220 186 216T186 207Q186 157
218 138T329 118Q368 118 398 122T464 137L444 25Q409 8 370 -1T282 -10ZM299 446Q282 446 268 442T240 426T217 391T200 330H358Q364 358 364 379Q364 414 348 430T299 446Z" />
<glyph unicode="f" glyph-name="f" horiz-adv-x="381" d="M115 427H42L64 552H135L145 609Q159 697 214 738T352 779Q393 779 423 773T468 759L449 650Q439 652 424 654T391 656Q353 656 335 642T309 590L302 552H414L392 427H282L185 -157H18L115 427Z" />
<glyph unicode="g" glyph-name="g" horiz-adv-x="577" d="M196 -218Q121 -218 73 -205T-9 -174L12 -57Q37 -66 77 -75T174 -85Q243 -85 274 -62T314 10L328 88H323Q289 54 253 38T171 21Q103 21 64 62T24 191Q24 231 33 279L40 315Q53 384 79 431T145 507T235
550T350 563Q425 563 481 551T571 520L477 -9Q466 -68 443 -107T385 -172T302 -207T196 -218ZM258 144Q282 144 304 155T344 180L388 431Q367 441 327 441Q282 441 252 414T209 316L201 273Q195 238 195 215Q195 177 210 161T258 144Z" />
<glyph unicode="h" glyph-name="h" horiz-adv-x="574" d="M136 769H303L252 482H257Q291 517 333 540T423 563Q486 563 519 532T552 441Q552 430 551 419T548 396L479 0H312L376 363Q377 369 377 374T378 385Q378 408 366 418T326 428Q299 428 278 419T237 398L167
0H0L136 769Z" />
<glyph unicode="i" glyph-name="i" horiz-adv-x="271" d="M99 552H267L170 0H2L99 552ZM138 769H307L282 627H113L138 769Z" />
<glyph unicode="j" glyph-name="j" horiz-adv-x="271" d="M-30 -206Q-80 -206 -104 -198T-142 -180L-123 -73Q-115 -75 -104 -77T-77 -80Q-12 -80 -1 -17L99 552H267L162 -45Q148 -123 100 -164T-30 -206ZM138 769H307L282 627H113L138 769Z" />
<glyph unicode="k" glyph-name="k" horiz-adv-x="545" d="M136 769H303L167 0H0L136 769ZM229 293L403 552H580L393 290L488 0H317L229 293Z" />
<glyph unicode="l" glyph-name="l" horiz-adv-x="311" d="M151 -8Q22 -8 22 102Q22 112 23 123T26 146L137 769H304L196 160Q191 134 200 125T235 115Q253 115 270 120L251 14Q236 6 212 -1T151 -8Z" />
<glyph unicode="m" glyph-name="m" horiz-adv-x="851" d="M97 552H258L246 475H251Q290 519 330 541T419 563Q511 563 526 472H531Q576 520 619 541T711 563Q768 563 798 530T829 437Q829 425 828 413T824 386L756 0H589L653 364Q654 370 654 375T655 386Q655
406 646 417T615 428Q591 428 572 422T533 402L531 390L462 0H295L359 364Q360 369 360 374T361 384Q361 404 352 416T321 428Q296 428 276 421T238 402L167 0H0L97 552Z" />
<glyph unicode="n" glyph-name="n" horiz-adv-x="574" d="M97 552H258L245 478H250Q289 516 332 539T423 563Q486 563 519 532T552 441Q552 430 551 419T548 396L479 0H312L376 363Q377 369 377 374T378 385Q378 408 366 418T326 428Q299 428 278 419T237 398L167
0H0L97 552Z" />
<glyph unicode="o" glyph-name="o" horiz-adv-x="565" d="M259 -10Q196 -10 151 5T77 48T34 114T20 200Q20 232 26 268L35 319Q47 384 72 430T134 506T216 549T313 563Q432 563 488 508T545 356Q545 339 544 321T538 283L529 232Q517 167 493 121T433 46T354 4T259
-10ZM262 111Q281 111 296 116T324 136T345 175T360 237L370 295Q374 315 375 332T377 363Q377 408 359 425T304 442Q265 442 241 415T203 314L193 256Q190 237 188 222T186 192Q186 145 206 128T262 111Z" />
<glyph unicode="p" glyph-name="p" horiz-adv-x="577" d="M97 552H258L245 475H250Q285 515 326 539T418 563Q482 563 520 523T558 393Q558 351 549 299L540 248Q526 172 502 123T444 44T369 2T282 -10Q240 -10 213 -3T169 12L131 -203H-36L97 552ZM256 107Q297
107 326 136T370 247L380 305Q386 339 386 362Q386 403 369 415T322 427Q298 427 276 418T237 396L188 117Q200 112 216 110T256 107Z" />
<glyph unicode="q" glyph-name="q" horiz-adv-x="577" d="M322 58H317Q282 24 247 7T166 -10Q98 -10 59 30T19 161Q19 181 20 203T27 250L36 301Q49 374 76 424T143 505T235 549T350 563Q425 563 481 551T571 520L444 -200H277L322 58ZM254 120Q278 120 300 131T339
156L387 431Q366 441 327 441Q282 441 251 411T206 305L196 247Q190 212 190 189Q190 148 207 134T254 120Z" />
<glyph unicode="r" glyph-name="r" horiz-adv-x="413" d="M98 552H260L243 452H249Q286 508 323 533T400 559Q411 559 422 557T438 553L410 396Q401 398 389 399T367 400Q282 400 233 362L169 0H1L98 552Z" />
<glyph unicode="s" glyph-name="s" horiz-adv-x="448" d="M179 -10Q110 -10 63 4T-13 39L8 160Q38 145 75 132T170 118Q213 118 229 130T245 163Q245 179 237 187T198 207L158 220Q100 239 73 272T45 365Q45 465 101 514T257 563Q293 563 320 560T367 550T403
537T432 522L411 404Q387 414 349 425T265 436Q225 436 212 425T198 395Q198 376 207 368T246 350L285 337Q350 315 378 280T406 190Q406 99 351 45T179 -10Z" />
<glyph unicode="t" glyph-name="t" horiz-adv-x="389" d="M213 -8Q137 -8 98 20T58 112Q58 135 62 158L109 427H40L62 552H131L154 682H321L298 552H411L389 427H276L233 180Q227 146 238 133T282 119Q296 119 314 121T345 127L326 18Q309 8 277 0T213 -8Z" />
<glyph unicode="u" glyph-name="u" horiz-adv-x="566" d="M149 -11Q86 -11 54 20T21 111Q21 122 22 133T25 156L94 552H261L197 189Q194 174 194 162Q194 142 204 133T241 123Q268 123 288 131T328 151L398 552H565L468 0H332L329 73H324Q282 32 241 11T149 -11Z" />
<glyph unicode="v" glyph-name="v" horiz-adv-x="551" d="M57 552H224L242 371Q246 333 247 287T249 200Q249 152 248 105H252Q264 148 279 193Q291 231 307 275T340 357L426 552H589L314 0H138L57 552Z" />
<glyph unicode="w" glyph-name="w" horiz-adv-x="768" d="M58 552H216L223 404Q224 386 224 364T222 318T220 268T216 220Q212 165 206 107H210Q224 164 239 218Q252 264 267 313T297 395L364 552H506L519 404Q521 384 521 355T521 295T519 231T516 173T513 129T512
107H516Q529 164 543 218Q555 264 569 312T597 395L659 552H805L575 0H418L403 177Q402 189 402 203T401 234Q401 268 402 304T406 370Q408 405 411 439H408Q397 392 386 346Q376 307 363 264T335 185L255 0H96L58 552Z" />
<glyph unicode="x" glyph-name="x" horiz-adv-x="547" d="M168 286L70 552H249L268 474Q273 451 277 428T285 384Q289 361 291 339H295Q305 361 316 384Q325 404 337 427T362 474L405 552H578L391 290L494 0H315L289 99Q284 119 280 141T273 183Q269 206 267 229H263Q254
207 243 185Q234 165 223 143T197 99L134 0H-39L168 286Z" />
<glyph unicode="y" glyph-name="y" horiz-adv-x="565" d="M62 -206Q28 -206 -2 -199T-46 -182L-26 -69Q-13 -74 6 -76T38 -79Q59 -79 74 -75T101 -64T122 -45T139 -17L157 17L64 552H234L255 392Q258 369 259 340T261 281T262 221T260 169T258 130T257 111H260Q276
162 293 211Q307 253 324 300T358 383L434 552H597L293 -55Q254 -133 200 -169T62 -206Z" />
<glyph unicode="z" glyph-name="z" horiz-adv-x="471" d="M-3 123L188 329Q207 349 226 366T263 398Q282 413 300 426V429H60L81 552H496L477 440L279 223Q262 204 242 187T205 156Q185 140 164 126V123H418L396 0H-25L-3 123Z" />
<glyph unicode="{" glyph-name="braceleft" horiz-adv-x="445" d="M340 -127Q269 -122 222 -108T146 -73T105 -23T93 37Q93 48 94 59T98 83L115 179Q116 184 116 188T117 198Q117 230 93 244T21 264L45 405Q98 405 128 419T167 476L184 570Q193 618 211 655T266
717T359 756T501 771L478 644Q414 643 383 617T342 536L326 449Q321 425 313 404T287 367T242 340T174 325V322Q238 308 260 282T283 219Q283 203 280 185L264 96Q261 79 261 67Q261 32 284 19T362 0L340 -127V-127Z" />
<glyph unicode="|" glyph-name="bar" horiz-adv-x="295" d="M98 769H230V-125H98V769Z" />
<glyph unicode="}" glyph-name="braceright" horiz-adv-x="445" d="M-17 0Q47 1 78 27T119 108L135 195Q139 219 148 240T174 277T219 304T287 319V322Q223 336 201 362T178 425Q178 441 181 459L197 548Q200 564 200 577Q200 612 177 625T99 644L121 771Q192
766 239 752T315 717T356 667T368 607Q368 596 367 585T363 561L346 465Q345 460 345 456T344 446Q344 414 368 400T440 380L416 239Q363 239 333 225T294 168L277 74Q268 26 250 -11T195 -73T102 -112T-40 -127L-17 0Z" />
<glyph unicode="~" glyph-name="asciitilde" horiz-adv-x="471" d="M18 222Q27 273 43 307T79 361T124 390T172 399Q194 399 213 393T249 381T279 368T303 362Q319 362 328 372T345 400H464Q456 349 440 315T403 260T358 232T309 223Q287 223 268 229T233 241T203
254T179 260Q163 260 154 250T139 222H18V222Z" />
<glyph unicode="&#xa0;" glyph-name="uni00A0" horiz-adv-x="206" />
<glyph unicode="&#xa1;" glyph-name="exclamdown" horiz-adv-x="298" d="M173 -125H-18L95 330H225L173 -125ZM258 438H93L121 596H286L258 438Z" />
<glyph unicode="&#xa2;" glyph-name="cent" horiz-adv-x="466" d="M168 -2Q86 15 50 68T14 197Q14 232 22 275L32 328Q44 394 70 439T133 511T213 551T308 563Q319 563 329 563T349 561L380 656H470L434 545Q460 535 475 527L454 409Q443 414 429 418T396 426L297
118Q329 120 362 126T415 139L394 20Q382 14 366 9T330 0T292 -7T257 -10H256L210 -153H120L168 -2ZM184 263Q181 245 179 230T177 202Q177 149 211 131L308 432H307Q268 432 237 407T194 319L184 263Z" />
<glyph unicode="&#xa3;" glyph-name="sterling" horiz-adv-x="548" d="M65 415H123L133 487Q142 552 167 598T230 675T316 719T417 733Q449 733 473 730T516 723T546 712T568 701L544 569Q521 577 502 581T449 585Q424 585 403 580T364 563T335 527T315 468L305
415H472L451 294H282V291Q276 259 267 236T243 195T209 164T165 139V136H492L468 0H-14L9 129Q44 146 69 175T102 258L107 294H44L65 415Z" />
<glyph unicode="&#xa5;" glyph-name="yen" horiz-adv-x="625" d="M68 381H209L92 721H280L307 614Q315 581 320 545T330 480Q334 445 337 412H340Q353 444 368 478Q381 507 398 542T435 610L502 721H681L446 381H585L566 275H402L390 207H555L536 101H371L353
0H167L185 101H19L38 207H204L216 275H49L68 381Z" />
<glyph unicode="&#xa6;" glyph-name="brokenbar" horiz-adv-x="295" d="M98 769H230V397H98V769ZM98 262H230V-125H98V262Z" />
<glyph unicode="&#xa7;" glyph-name="section" horiz-adv-x="571" d="M231 -137Q150 -137 95 -121T5 -83L28 44Q44 36 62 28T102 12T150 1T208 -4Q247 -4 268 8T290 49Q290 67 277 79T229 103L165 126Q134 137 109 151T65 184T36 227T26 284Q26 342 59 377T155
426Q137 446 127 472T116 532Q116 576 131 613T174 676T245 718T342 733Q384 733 415 728T471 716T512 699T543 681L521 554Q508 561 491 569T452 585T408 598T358 603Q321 603 303 591T284 552Q284 521 337 501L406 475Q440 462 467 449T514 418T543 379T553 325Q553
262 521 226T422 173Q463 132 463 73Q463 17 446 -22T398 -87T325 -125T231 -137ZM239 373Q184 364 184 318Q184 298 199 285T258 255L334 225Q387 237 387 282Q387 301 371 315T309 347L239 373Z" />
<glyph unicode="&#xa8;" glyph-name="dieresis" horiz-adv-x="500" d="M373 762H522L499 628H350L373 762ZM147 762H296L273 628H124L147 762Z" />
<glyph unicode="&#xa9;" glyph-name="copyright" horiz-adv-x="806" d="M417 -15Q340 -15 274 14T159 94T83 213T55 358Q55 435 82 502T159 620T274 699T417 728Q493 728 559 699T674 620T751 503T779 358Q779 281 751 213T674 95T559 15T417 -15ZM436 160Q351
160 301 203T250 339V371Q250 422 265 457T306 513T366 545T439 555Q475 555 499 550T540 536V443Q526 448 508 452T466 456Q427 456 404 440T381 380V342Q381 296 401 277T467 258Q493 258 511 262T542 272V182Q524 174 499 167T436 160ZM417 42Q481 42 535 65T629
131T691 231T714 358Q714 427 692 484T629 583T535 648T417 671Q353 671 299 648T205 584T143 485T120 358Q120 289 142 231T204 131T298 66T417 42Z" />
<glyph unicode="&#xaa;" glyph-name="ordfeminine" horiz-adv-x="477" d="M293 283H286Q263 255 236 240T166 225Q109 225 75 256T40 348Q40 396 55 426T97 474T160 501T238 515L324 526L326 537Q332 575 315 592T245 610Q210 610 177 605T117 591L138 698Q166
712 204 721T295 731Q343 731 381 720T443 686T477 625T478 536L424 233H295L293 283ZM230 316Q249 316 262 322T290 342L309 446L256 441Q189 435 189 370Q189 342 200 329T230 316Z" />
<glyph unicode="&#xab;" glyph-name="guillemotleft" horiz-adv-x="576" d="M32 243L40 288L200 501H343L176 253L252 24H121L32 243ZM271 243L279 288L439 501H582L415 253L491 24H360L271 243Z" />
<glyph unicode="&#xae;" glyph-name="registered" horiz-adv-x="596" d="M329 177Q273 177 223 199T136 259T76 348T54 456Q54 514 76 565T135 654T223 713T329 735Q386 735 436 714T523 654T582 565T604 456Q604 399 583 349T524 260T436 199T329 177ZM329 230Q375
230 414 248T483 297T529 368T546 456Q546 503 530 544T484 617T415 665T329 682Q282 682 243 665T175 617T130 545T114 456Q114 409 130 368T175 297T243 249T329 230ZM220 586H351Q399 586 423 565T447 506Q447 484 437 468T408 445V442L459 341H371L333 422H304V341H220V586ZM339
470Q367 470 367 499Q367 513 360 521T339 529H301V470H339Z" />
<glyph unicode="&#xaf;" glyph-name="macron" horiz-adv-x="500" d="M179 762H488L468 646H159L179 762Z" />
<glyph unicode="&#xb0;" glyph-name="degree" horiz-adv-x="438" d="M259 457Q301 457 325 484T349 556Q349 593 329 619T268 645Q225 645 201 618T177 546Q177 511 197 484T259 457ZM253 372Q213 372 181 386T127 425T92 479T79 542Q79 585 94 619T136 678T197
716T274 730Q314 730 346 716T400 677T435 623T447 560Q447 517 432 483T391 424T329 386T253 372Z" />
<glyph unicode="&#xb2;" glyph-name="twosuperior" horiz-adv-x="386" d="M53 423L152 496Q178 515 198 531T232 562T253 592T260 626Q260 674 197 674Q165 674 142 667T98 653L117 758Q141 769 177 778T263 787Q341 787 379 751T418 662Q418 628 408 602T378
553T331 510T268 466L216 432L215 429H385L366 322H35L53 423Z" />
<glyph unicode="&#xb3;" glyph-name="threesuperior" horiz-adv-x="381" d="M184 314Q127 314 90 327T34 353L51 445Q71 436 97 428T154 419Q202 419 221 430T240 467Q240 491 226 499T183 507H127L144 602H201Q240 602 252 612T264 642Q264 663 249 672T196 682Q167
682 143 678T99 668L116 762Q142 773 173 780T246 787Q323 787 365 758T407 674Q407 573 293 562L292 558Q313 553 330 546T360 527T379 498T386 455Q386 388 332 351T184 314Z" />
<glyph unicode="&#xb4;" glyph-name="acute" horiz-adv-x="500" d="M318 793H497L370 624H227L318 793Z" />
<glyph unicode="&#xb6;" glyph-name="paragraph" horiz-adv-x="617" d="M276 338H257Q216 338 183 350T127 384T91 436T78 504Q78 552 93 591T139 660T219 705T335 721H632L483 -125H387L520 627H423L290 -125H194L276 338Z" />
<glyph unicode="&#xb7;" glyph-name="periodcentered" horiz-adv-x="266" d="M74 408H238L210 250H46L74 408Z" />
<glyph unicode="&#xb8;" glyph-name="cedilla" horiz-adv-x="500" d="M91 -181Q157 -176 184 -167T211 -135Q211 -121 196 -115T138 -107L157 0H240L231 -49Q287 -54 308 -74T330 -127Q330 -243 78 -253L91 -181Z" />
<glyph unicode="&#xb9;" glyph-name="onesuperior" horiz-adv-x="337" d="M189 629L83 619L100 714L270 780H363L282 322H135L189 629Z" />
<glyph unicode="&#xba;" glyph-name="ordmasculine" horiz-adv-x="499" d="M264 224Q209 224 169 238T104 276T66 335T54 411Q54 439 60 471L68 516Q78 573 100 614T155 681T227 720T312 732Q417 732 466 682T515 547Q515 517 509 483L501 438Q491 381 470 341T418
274T348 236T264 224ZM266 337Q282 337 294 341T316 356T333 388T346 441L355 492Q359 512 360 527T362 555Q362 592 348 605T305 619Q272 619 253 598T222 513L213 462Q207 427 207 404Q207 364 222 351T266 337Z" />
<glyph unicode="&#xbb;" glyph-name="guillemotright" horiz-adv-x="576" d="M392 272L316 501H447L536 282L528 237L368 24H225L392 272ZM153 272L77 501H208L297 282L289 237L129 24H-14L153 272Z" />
<glyph unicode="&#xbc;" glyph-name="onequarter" horiz-adv-x="929" d="M179 572L73 562L90 657L260 723H353L272 265H125L179 572ZM648 19H455L473 118L718 385H853L806 118H867L849 19H788L772 -73H632L648 19ZM546 111Q559 112 575 113Q589 114 606 115T641
116H673L683 178Q685 195 689 212T697 244Q701 261 706 278H704Q694 261 683 245Q673 231 661 216T637 186L626 174Q613 160 600 149T574 130Q560 120 547 113L546 111ZM688 742H813L257 -42H132L688 742Z" />
<glyph unicode="&#xbd;" glyph-name="onehalf" horiz-adv-x="973" d="M179 572L73 562L90 657L260 723H353L272 265H125L179 572ZM550 28L649 101Q675 120 695 136T729 167T750 197T757 231Q757 279 694 279Q662 279 639 272T595 258L614 363Q638 374 674 383T760
392Q838 392 876 356T915 267Q915 233 905 207T875 158T828 115T765 71L713 37L712 34H882L863 -73H532L550 28ZM688 742H813L257 -42H132L688 742Z" />
<glyph unicode="&#xbe;" glyph-name="threequarters" horiz-adv-x="971" d="M186 257Q129 257 92 270T36 296L53 388Q73 379 99 371T156 362Q204 362 223 373T242 410Q242 434 228 442T185 450H129L146 545H203Q242 545 254 555T266 585Q266 606 251 615T198 625Q169
625 145 621T101 611L118 705Q144 716 175 723T248 730Q325 730 367 701T409 617Q409 516 295 505L294 501Q315 496 332 489T362 470T381 441T388 398Q388 331 334 294T186 257ZM691 19H498L516 118L761 385H896L849 118H910L892 19H831L815 -73H675L691 19ZM589
111Q602 112 618 113Q632 114 649 115T684 116H716L726 178Q728 195 732 212T740 244Q744 261 749 278H747Q737 261 726 245Q716 231 704 216T680 186L669 174Q656 160 643 149T617 130Q603 120 590 113L589 111ZM729 742H854L298 -42H173L729 742Z" />
<glyph unicode="&#xbf;" glyph-name="questiondown" horiz-adv-x="456" d="M354 287Q350 259 343 239T323 204T294 176T253 148Q229 134 213 124T188 103T174 82T170 53Q170 41 174 32T190 15T221 4T272 0Q304 0 330 4T384 16L362 -108Q325 -121 290 -129T204
-137Q96 -137 41 -97T-15 20Q-15 61 -6 91T20 144T63 186T122 225Q148 240 164 250T189 270T204 290T212 315L215 330H361L354 287ZM388 438H224L252 596H416L388 438Z" />
<glyph unicode="&#xc0;" glyph-name="Agrave" horiz-adv-x="698" d="M293 964H466L504 795H369L293 964ZM329 721H527L631 0H442L427 135H199L137 0H-32L329 721ZM252 252H414L402 359Q397 398 396 441T395 521Q395 564 397 606H392Q381 566 367 525Q355 490 339
448T306 368L252 252Z" />
<glyph unicode="&#xc1;" glyph-name="Aacute" horiz-adv-x="698" d="M499 795H358L452 964H631L499 795ZM329 721H527L631 0H442L427 135H199L137 0H-32L329 721ZM252 252H414L402 359Q397 398 396 441T395 521Q395 564 397 606H392Q381 566 367 525Q355 490 339
448T306 368L252 252Z" />
<glyph unicode="&#xc2;" glyph-name="Acircumflex" horiz-adv-x="698" d="M398 979H529L627 794H508L446 869L359 794H240L398 979ZM329 721H527L631 0H442L427 135H199L137 0H-32L329 721ZM252 252H414L402 359Q397 398 396 441T395 521Q395 564 397 606H392Q381
566 367 525Q355 490 339 448T306 368L252 252Z" />
<glyph unicode="&#xc3;" glyph-name="Atilde" horiz-adv-x="698" d="M232 798Q238 842 252 872T287 920T331 946T381 954Q402 954 418 948T449 936T476 923T501 917Q534 917 541 953H648Q641 909 626 879T590 831T546 805T499 797Q478 797 462 803T431 815T405
828T380 834Q348 834 339 798H232V798ZM329 721H527L631 0H442L427 135H199L137 0H-32L329 721ZM252 252H414L402 359Q397 398 396 441T395 521Q395 564 397 606H392Q381 566 367 525Q355 490 339 448T306 368L252 252Z" />
<glyph unicode="&#xc4;" glyph-name="Adieresis" horiz-adv-x="698" d="M491 933H650L626 799H467L491 933ZM271 933H430L406 799H247L271 933ZM329 721H527L631 0H442L427 135H199L137 0H-32L329 721ZM252 252H414L402 359Q397 398 396 441T395 521Q395 564 397
606H392Q381 566 367 525Q355 490 339 448T306 368L252 252Z" />
<glyph unicode="&#xc5;" glyph-name="Aring" horiz-adv-x="698" d="M441 841Q461 841 474 854T487 887Q487 907 476 919T445 931Q425 931 412 918T399 885Q399 865 410 853T441 841ZM439 761Q382 761 347 795T312 883Q312 910 322 933T351 974T394 1001T447 1011Q504
1011 539 978T574 889Q574 862 564 839T535 798T492 771T439 761ZM329 721H527L631 0H442L427 135H199L137 0H-32L329 721ZM252 252H414L402 359Q397 398 396 441T395 521Q395 564 397 606H392Q381 566 367 525Q355 490 339 448T306 368L252 252Z" />
<glyph unicode="&#xc6;" glyph-name="AE" horiz-adv-x="932" d="M445 721H952L926 573H671L647 438H850L826 298H623L596 148H872L846 0H388L412 139H218L129 0H-43L445 721ZM294 256H433L452 363Q459 401 467 443T483 521Q492 563 500 605H496Q477 565 456 525Q438
490 416 451T371 376L294 256Z" />
<glyph unicode="&#xc7;" glyph-name="Ccedilla" horiz-adv-x="559" d="M370 -127Q370 -243 118 -253L131 -181Q197 -176 224 -167T251 -135Q251 -121 236 -115T178 -107L198 6Q116 32 76 94T36 251Q36 297 45 351L58 425Q74 518 108 577T187 671T286 719T396 732Q438
732 468 728T522 718T562 703T593 685L568 546Q553 553 539 559T508 570T470 578T421 581Q388 581 361 574T313 549T277 499T254 420L240 339Q232 293 232 261Q232 231 239 209T264 171T311 147T384 139Q426 139 454 147T511 164L485 18Q454 4 419 -4T333 -12Q305
-12 278 -9L271 -49Q327 -54 348 -74T370 -127Z" />
<glyph unicode="&#xc8;" glyph-name="Egrave" horiz-adv-x="562" d="M243 964H416L454 795H319L243 964ZM139 721H582L556 573H296L272 438H480L456 298H248L221 148H502L476 0H12L139 721Z" />
<glyph unicode="&#xc9;" glyph-name="Eacute" horiz-adv-x="562" d="M439 795H298L392 964H571L439 795ZM139 721H582L556 573H296L272 438H480L456 298H248L221 148H502L476 0H12L139 721Z" />
<glyph unicode="&#xca;" glyph-name="Ecircumflex" horiz-adv-x="562" d="M346 979H477L575 794H456L394 869L307 794H188L346 979ZM139 721H582L556 573H296L272 438H480L456 298H248L221 148H502L476 0H12L139 721Z" />
<glyph unicode="&#xcb;" glyph-name="Edieresis" horiz-adv-x="562" d="M431 933H590L566 799H407L431 933ZM211 933H370L346 799H187L211 933ZM139 721H582L556 573H296L272 438H480L456 298H248L221 148H502L476 0H12L139 721Z" />
<glyph unicode="&#xcc;" glyph-name="Igrave" horiz-adv-x="308" d="M100 964H273L311 795H176L100 964ZM139 721H325L198 0H12L139 721Z" />
<glyph unicode="&#xcd;" glyph-name="Iacute" horiz-adv-x="308" d="M306 795H165L259 964H438L306 795ZM139 721H325L198 0H12L139 721Z" />
<glyph unicode="&#xce;" glyph-name="Icircumflex" horiz-adv-x="308" d="M204 979H335L433 794H314L252 869L165 794H46L204 979ZM139 721H325L198 0H12L139 721Z" />
<glyph unicode="&#xcf;" glyph-name="Idieresis" horiz-adv-x="308" d="M297 938H456L432 804H273L297 938ZM77 938H236L212 804H53L77 938ZM139 721H325L198 0H12L139 721Z" />
<glyph unicode="&#xd0;" glyph-name="Eth" horiz-adv-x="683" d="M33 430H88L139 721H374Q526 721 601 659T677 469Q677 424 668 372L655 299Q639 211 610 154T536 62T431 14T291 0H12L63 292H8L33 430ZM296 145Q330 145 356 152T402 177T436 227T459 310L474
396Q478 419 480 437T482 472Q482 533 452 554T353 576H300L274 430H394L369 292H250L224 145H296Z" />
<glyph unicode="&#xd1;" glyph-name="Ntilde" horiz-adv-x="695" d="M246 798Q252 842 266 872T301 920T345 946T395 954Q416 954 432 948T463 936T490 923T515 917Q548 917 555 953H662Q655 909 640 879T604 831T560 805T513 797Q492 797 476 803T445 815T419
828T394 834Q362 834 353 798H246V798ZM139 721H340L413 515Q428 470 440 421T462 328Q473 278 480 228H483Q488 290 493 348Q495 373 497 399T503 450T509 499T515 540L547 721H712L585 0H410L322 250Q308 288 296 338T275 434Q264 487 255 541H251Q246 477 240
416Q237 390 234 363T228 308T222 257T215 213L177 0H12L139 721Z" />
<glyph unicode="&#xd2;" glyph-name="Ograve" horiz-adv-x="699" d="M291 964H464L502 795H367L291 964ZM330 -12Q189 -12 113 54T36 254Q36 298 45 351L58 424Q74 516 109 575T192 670T295 718T408 732Q547 732 620 666T693 469Q693 421 683 368L670 295Q654
203 619 144T538 50T438 2T330 -12ZM334 126Q391 126 425 166T476 303L491 388Q496 418 499 443T502 489Q502 543 479 568T396 594Q338 594 304 555T253 420L238 335Q233 306 230 281T227 235Q227 178 251 152T334 126Z" />
<glyph unicode="&#xd3;" glyph-name="Oacute" horiz-adv-x="699" d="M486 795H345L439 964H618L486 795ZM330 -12Q189 -12 113 54T36 254Q36 298 45 351L58 424Q74 516 109 575T192 670T295 718T408 732Q547 732 620 666T693 469Q693 421 683 368L670 295Q654
203 619 144T538 50T438 2T330 -12ZM334 126Q391 126 425 166T476 303L491 388Q496 418 499 443T502 489Q502 543 479 568T396 594Q338 594 304 555T253 420L238 335Q233 306 230 281T227 235Q227 178 251 152T334 126Z" />
<glyph unicode="&#xd4;" glyph-name="Ocircumflex" horiz-adv-x="699" d="M381 979H512L610 794H491L429 869L342 794H223L381 979ZM330 -12Q189 -12 113 54T36 254Q36 298 45 351L58 424Q74 516 109 575T192 670T295 718T408 732Q547 732 620 666T693 469Q693
421 683 368L670 295Q654 203 619 144T538 50T438 2T330 -12ZM334 126Q391 126 425 166T476 303L491 388Q496 418 499 443T502 489Q502 543 479 568T396 594Q338 594 304 555T253 420L238 335Q233 306 230 281T227 235Q227 178 251 152T334 126Z" />
<glyph unicode="&#xd5;" glyph-name="Otilde" horiz-adv-x="699" d="M221 798Q227 842 241 872T276 920T320 946T370 954Q391 954 407 948T438 936T465 923T490 917Q523 917 530 953H637Q630 909 615 879T579 831T535 805T488 797Q467 797 451 803T420 815T394
828T369 834Q337 834 328 798H221V798ZM330 -12Q189 -12 113 54T36 254Q36 298 45 351L58 424Q74 516 109 575T192 670T295 718T408 732Q547 732 620 666T693 469Q693 421 683 368L670 295Q654 203 619 144T538 50T438 2T330 -12ZM334 126Q391 126 425 166T476
303L491 388Q496 418 499 443T502 489Q502 543 479 568T396 594Q338 594 304 555T253 420L238 335Q233 306 230 281T227 235Q227 178 251 152T334 126Z" />
<glyph unicode="&#xd6;" glyph-name="Odieresis" horiz-adv-x="699" d="M480 933H639L615 799H456L480 933ZM260 933H419L395 799H236L260 933ZM330 -12Q189 -12 113 54T36 254Q36 298 45 351L58 424Q74 516 109 575T192 670T295 718T408 732Q547 732 620 666T693
469Q693 421 683 368L670 295Q654 203 619 144T538 50T438 2T330 -12ZM334 126Q391 126 425 166T476 303L491 388Q496 418 499 443T502 489Q502 543 479 568T396 594Q338 594 304 555T253 420L238 335Q233 306 230 281T227 235Q227 178 251 152T334 126Z" />
<glyph unicode="&#xd7;" glyph-name="multiply" horiz-adv-x="590" d="M34 184L205 329L85 474L196 569L317 423L489 569L572 468L400 323L521 178L410 83L289 228L117 83L34 184Z" />
<glyph unicode="&#xd8;" glyph-name="Oslash" horiz-adv-x="699" d="M330 -12Q239 -12 170 25L103 -62H-24L92 88Q66 121 52 162T37 255Q37 278 38 301T45 351L58 424Q74 516 109 575T192 670T295 718T408 732Q452 732 490 723T561 697L611 762H739L639 632Q665
600 679 559T693 469Q693 421 683 368L670 295Q654 203 619 144T538 50T438 2T330 -12ZM222 334Q217 308 215 286T211 243L475 585Q446 600 398 600Q329 600 292 559T237 419L222 334ZM332 120Q400 120 437 162T492 304L507 389Q512 414 514 435T518 475L255 135Q269
127 288 124T332 120Z" />
<glyph unicode="&#xd9;" glyph-name="Ugrave" horiz-adv-x="690" d="M301 964H474L512 795H377L301 964ZM330 -11Q184 -11 115 44T46 200Q46 230 52 263L133 721H320L238 257Q236 246 235 236T234 216Q234 174 257 152T335 130Q361 130 382 134T419 151T446 186T463
242L547 721H713L625 224Q614 159 590 115T529 42T443 2T330 -11Z" />
<glyph unicode="&#xda;" glyph-name="Uacute" horiz-adv-x="690" d="M499 795H358L452 964H631L499 795ZM330 -11Q184 -11 115 44T46 200Q46 230 52 263L133 721H320L238 257Q236 246 235 236T234 216Q234 174 257 152T335 130Q361 130 382 134T419 151T446 186T463
242L547 721H713L625 224Q614 159 590 115T529 42T443 2T330 -11Z" />
<glyph unicode="&#xdb;" glyph-name="Ucircumflex" horiz-adv-x="690" d="M396 979H527L625 794H506L444 869L357 794H238L396 979ZM330 -11Q184 -11 115 44T46 200Q46 230 52 263L133 721H320L238 257Q236 246 235 236T234 216Q234 174 257 152T335 130Q361 130
382 134T419 151T446 186T463 242L547 721H713L625 224Q614 159 590 115T529 42T443 2T330 -11Z" />
<glyph unicode="&#xdc;" glyph-name="Udieresis" horiz-adv-x="690" d="M489 933H648L624 799H465L489 933ZM269 933H428L404 799H245L269 933ZM330 -11Q184 -11 115 44T46 200Q46 230 52 263L133 721H320L238 257Q236 246 235 236T234 216Q234 174 257 152T335
130Q361 130 382 134T419 151T446 186T463 242L547 721H713L625 224Q614 159 590 115T529 42T443 2T330 -11Z" />
<glyph unicode="&#xdd;" glyph-name="Yacute" horiz-adv-x="627" d="M464 795H323L417 964H596L464 795ZM223 284L87 721H276L303 611Q311 576 317 538T329 465Q334 425 338 387H341Q357 424 375 463Q390 496 410 534T450 608L517 721H696L407 275L358 0H172L223 284Z" />
<glyph unicode="&#xde;" glyph-name="Thorn" horiz-adv-x="621" d="M139 721H326L306 604H386Q448 604 492 589T563 548T604 487T617 410Q617 281 544 212T324 143H224L199 0H12L139 721ZM313 275Q375 275 401 303T427 396Q427 434 407 450T346 467H281L247 275H313Z" />
<glyph unicode="&#xdf;" glyph-name="germandbls" horiz-adv-x="589" d="M100 568Q110 625 132 664T188 729T264 766T358 778Q416 778 457 764T524 725T563 668T576 601Q576 526 543 481T428 418V414Q556 367 556 238Q556 184 543 139T503 62T432 11T328 -8Q283
-8 259 -2T224 9L245 128Q253 126 262 124T289 121Q338 121 364 154T390 258Q390 298 371 324T300 368L319 479Q374 484 395 515T416 589Q416 618 401 637T349 657Q314 657 295 635T265 556L139 -157H-28L100 568Z" />
<glyph unicode="&#xe0;" glyph-name="agrave" horiz-adv-x="526" d="M278 58Q253 26 222 8T143 -10Q77 -10 38 25T-1 130Q-1 183 16 217T62 272T132 303T220 319L319 331L322 346Q330 390 309 408T230 426Q190 426 153 421T87 406L108 526Q143 543 185 553T285
563Q339 563 381 550T450 511T488 443T489 345L428 0H289L285 58H278ZM212 92Q250 92 283 125L303 242L239 236Q201 232 182 213T162 154Q162 122 175 107T212 92ZM164 793H337L379 624H246L164 793Z" />
<glyph unicode="&#xe1;" glyph-name="aacute" horiz-adv-x="526" d="M278 58Q253 26 222 8T143 -10Q77 -10 38 25T-1 130Q-1 183 16 217T62 272T132 303T220 319L319 331L322 346Q330 390 309 408T230 426Q190 426 153 421T87 406L108 526Q143 543 185 553T285
563Q339 563 381 550T450 511T488 443T489 345L428 0H289L285 58H278ZM212 92Q250 92 283 125L303 242L239 236Q201 232 182 213T162 154Q162 122 175 107T212 92ZM320 793H499L372 624H229L320 793Z" />
<glyph unicode="&#xe2;" glyph-name="acircumflex" horiz-adv-x="526" d="M278 58Q253 26 222 8T143 -10Q77 -10 38 25T-1 130Q-1 183 16 217T62 272T132 303T220 319L319 331L322 346Q330 390 309 408T230 426Q190 426 153 421T87 406L108 526Q143 543 185 553T285
563Q339 563 381 550T450 511T488 443T489 345L428 0H289L285 58H278ZM212 92Q250 92 283 125L303 242L239 236Q201 232 182 213T162 154Q162 122 175 107T212 92ZM518 808H649L744 623H629L569 698L486 623H363L518 808Z" />
<glyph unicode="&#xe3;" glyph-name="atilde" horiz-adv-x="526" d="M278 58Q253 26 222 8T143 -10Q77 -10 38 25T-1 130Q-1 183 16 217T62 272T132 303T220 319L319 331L322 346Q330 390 309 408T230 426Q190 426 153 421T87 406L108 526Q143 543 185 553T285
563Q339 563 381 550T450 511T488 443T489 345L428 0H289L285 58H278ZM212 92Q250 92 283 125L303 242L239 236Q201 232 182 213T162 154Q162 122 175 107T212 92ZM377 627Q384 670 398 700T431 748T472 775T516 783Q535 783 552 777T583 765T610 752T633 746Q660
746 671 782H778Q771 739 757 709T723 661T682 634T638 626Q618 626 602 632T572 644T545 657T523 663Q509 663 499 654T484 627H377V627Z" />
<glyph unicode="&#xe4;" glyph-name="adieresis" horiz-adv-x="526" d="M278 58Q253 26 222 8T143 -10Q77 -10 38 25T-1 130Q-1 183 16 217T62 272T132 303T220 319L319 331L322 346Q330 390 309 408T230 426Q190 426 153 421T87 406L108 526Q143 543 185 553T285
563Q339 563 381 550T450 511T488 443T489 345L428 0H289L285 58H278ZM212 92Q250 92 283 125L303 242L239 236Q201 232 182 213T162 154Q162 122 175 107T212 92ZM622 762H771L748 628H599L622 762ZM396 762H545L522 628H373L396 762Z" />
<glyph unicode="&#xe5;" glyph-name="aring" horiz-adv-x="526" d="M278 58Q253 26 222 8T143 -10Q77 -10 38 25T-1 130Q-1 183 16 217T62 272T132 303T220 319L319 331L322 346Q330 390 309 408T230 426Q190 426 153 421T87 406L108 526Q143 543 185 553T285
563Q339 563 381 550T450 511T488 443T489 345L428 0H289L285 58H278ZM212 92Q250 92 283 125L303 242L239 236Q201 232 182 213T162 154Q162 122 175 107T212 92ZM572 696Q592 696 605 709T618 742Q618 762 607 774T576 786Q556 786 543 773T530 740Q530 720 541
708T572 696ZM570 616Q514 616 479 649T443 738Q443 765 453 788T482 828T524 856T578 866Q635 866 670 832T705 744Q705 717 695 694T666 653T623 626T570 616Z" />
<glyph unicode="&#xe6;" glyph-name="ae" horiz-adv-x="815" d="M141 -10Q77 -10 38 28T-1 134Q-1 186 16 219T62 273T132 303T220 319L312 330L316 350Q318 356 318 361T318 371Q318 403 293 414T217 426Q177 426 148 422T89 410L110 530Q151 546 191 554T288
563Q337 563 374 550T431 508Q460 536 498 549T588 563Q795 563 795 371Q795 353 794 331T787 283L777 225H463Q462 220 462 216T462 207Q462 157 494 138T605 118Q644 118 674 122T740 137L720 25Q685 8 646 -1T558 -10Q469 -10 413 13T327 78Q289 33 245 12T141
-10ZM634 330Q640 358 640 379Q640 414 624 430T575 446Q558 446 544 442T516 426T493 391T476 330H634ZM301 137Q297 152 295 167T293 200Q293 220 296 241L239 236Q201 232 182 213T162 154Q162 122 176 109T212 95Q241 95 262 106T301 137Z" />
<glyph unicode="&#xe7;" glyph-name="ccedilla" horiz-adv-x="453" d="M306 -127Q306 -243 54 -253L67 -181Q133 -176 160 -167T187 -135Q187 -121 172 -115T114 -107L134 8Q74 31 47 79T20 193Q20 213 22 233T28 275L38 328Q50 394 75 439T136 511T215 551T309
563Q367 563 402 552T462 527L440 405Q419 414 393 421T322 429Q275 429 245 405T204 319L194 263Q191 246 189 231T187 202Q187 161 208 141T286 121Q319 121 350 128T402 142L381 20Q356 8 321 -1T247 -10Q239 -10 231 -10T214 -9L207 -49Q263 -54 284 -74T306
-127Z" />
<glyph unicode="&#xe8;" glyph-name="egrave" horiz-adv-x="539" d="M282 -10Q211 -10 161 5T79 47T32 113T17 200Q17 218 19 236T25 275L35 328Q58 449 126 506T300 563Q416 563 467 515T519 371Q519 351 518 329T511 283L501 225H187Q186 220 186 216T186 207Q186
157 218 138T329 118Q368 118 398 122T464 137L444 25Q409 8 370 -1T282 -10ZM299 446Q282 446 268 442T240 426T217 391T200 330H358Q364 358 364 379Q364 414 348 430T299 446ZM187 793H360L402 624H269L187 793Z" />
<glyph unicode="&#xe9;" glyph-name="eacute" horiz-adv-x="539" d="M282 -10Q211 -10 161 5T79 47T32 113T17 200Q17 218 19 236T25 275L35 328Q58 449 126 506T300 563Q416 563 467 515T519 371Q519 351 518 329T511 283L501 225H187Q186 220 186 216T186 207Q186
157 218 138T329 118Q368 118 398 122T464 137L444 25Q409 8 370 -1T282 -10ZM299 446Q282 446 268 442T240 426T217 391T200 330H358Q364 358 364 379Q364 414 348 430T299 446ZM341 793H520L393 624H250L341 793Z" />
<glyph unicode="&#xea;" glyph-name="ecircumflex" horiz-adv-x="539" d="M282 -10Q211 -10 161 5T79 47T32 113T17 200Q17 218 19 236T25 275L35 328Q58 449 126 506T300 563Q416 563 467 515T519 371Q519 351 518 329T511 283L501 225H187Q186 220 186 216T186
207Q186 157 218 138T329 118Q368 118 398 122T464 137L444 25Q409 8 370 -1T282 -10ZM299 446Q282 446 268 442T240 426T217 391T200 330H358Q364 358 364 379Q364 414 348 430T299 446ZM290 808H421L516 623H401L341 698L258 623H135L290 808Z" />
<glyph unicode="&#xeb;" glyph-name="edieresis" horiz-adv-x="539" d="M282 -10Q211 -10 161 5T79 47T32 113T17 200Q17 218 19 236T25 275L35 328Q58 449 126 506T300 563Q416 563 467 515T519 371Q519 351 518 329T511 283L501 225H187Q186 220 186 216T186
207Q186 157 218 138T329 118Q368 118 398 122T464 137L444 25Q409 8 370 -1T282 -10ZM299 446Q282 446 268 442T240 426T217 391T200 330H358Q364 358 364 379Q364 414 348 430T299 446ZM377 762H526L503 628H354L377 762ZM151 762H300L277 628H128L151 762Z"
/>
<glyph unicode="&#xec;" glyph-name="igrave" horiz-adv-x="271" d="M99 552H267L170 0H2L99 552ZM304 793H477L519 624H386L304 793Z" />
<glyph unicode="&#xed;" glyph-name="iacute" horiz-adv-x="271" d="M99 552H267L170 0H2L99 552ZM472 793H651L524 624H381L472 793Z" />
<glyph unicode="&#xee;" glyph-name="icircumflex" horiz-adv-x="271" d="M99 552H267L170 0H2L99 552ZM416 808H547L642 623H527L467 698L384 623H261L416 808Z" />
<glyph unicode="&#xef;" glyph-name="idieresis" horiz-adv-x="271" d="M251 762H392L369 628H228L251 762ZM49 762H190L167 628H26L49 762ZM99 552H267L170 0H2L99 552Z" />
<glyph unicode="&#xf0;" glyph-name="eth" horiz-adv-x="566" d="M168 663L270 691Q229 738 188 769H358Q371 761 383 751T408 729L564 772L548 682L466 659Q504 602 526 532T549 384Q549 346 543 307L532 242Q520 172 495 124T435 46T356 3T260 -10Q197 -10 151
6T76 50T33 116T19 198Q19 228 25 258L35 315Q45 373 67 415T121 483T193 522T280 535Q313 535 336 527T376 503Q367 533 353 562T322 620L152 573L168 663ZM263 111Q301 111 324 135T359 226L371 292Q376 319 378 339T380 376Q380 383 380 391T379 408Q368 419
348 424T308 429Q267 429 242 406T205 317L193 251Q187 216 187 191Q187 145 206 128T263 111Z" />
<glyph unicode="&#xf1;" glyph-name="ntilde" horiz-adv-x="574" d="M97 552H258L245 478H250Q289 516 332 539T423 563Q486 563 519 532T552 441Q552 430 551 419T548 396L479 0H312L376 363Q377 369 377 374T378 385Q378 408 366 418T326 428Q299 428 278 419T237
398L167 0H0L97 552ZM145 627Q152 670 166 700T199 748T240 775T284 783Q303 783 320 777T351 765T378 752T401 746Q428 746 439 782H546Q539 739 525 709T491 661T450 634T406 626Q386 626 370 632T340 644T313 657T291 663Q277 663 267 654T252 627H145V627Z"
/>
<glyph unicode="&#xf2;" glyph-name="ograve" horiz-adv-x="565" d="M259 -10Q196 -10 151 5T77 48T34 114T20 200Q20 232 26 268L35 319Q47 384 72 430T134 506T216 549T313 563Q432 563 488 508T545 356Q545 339 544 321T538 283L529 232Q517 167 493 121T433
46T354 4T259 -10ZM262 111Q281 111 296 116T324 136T345 175T360 237L370 295Q374 315 375 332T377 363Q377 408 359 425T304 442Q265 442 241 415T203 314L193 256Q190 237 188 222T186 192Q186 145 206 128T262 111ZM198 793H371L413 624H280L198 793Z" />
<glyph unicode="&#xf3;" glyph-name="oacute" horiz-adv-x="565" d="M259 -10Q196 -10 151 5T77 48T34 114T20 200Q20 232 26 268L35 319Q47 384 72 430T134 506T216 549T313 563Q432 563 488 508T545 356Q545 339 544 321T538 283L529 232Q517 167 493 121T433
46T354 4T259 -10ZM262 111Q281 111 296 116T324 136T345 175T360 237L370 295Q374 315 375 332T377 363Q377 408 359 425T304 442Q265 442 241 415T203 314L193 256Q190 237 188 222T186 192Q186 145 206 128T262 111ZM342 793H521L394 624H251L342 793Z" />
<glyph unicode="&#xf4;" glyph-name="ocircumflex" horiz-adv-x="565" d="M259 -10Q196 -10 151 5T77 48T34 114T20 200Q20 232 26 268L35 319Q47 384 72 430T134 506T216 549T313 563Q432 563 488 508T545 356Q545 339 544 321T538 283L529 232Q517 167 493 121T433
46T354 4T259 -10ZM262 111Q281 111 296 116T324 136T345 175T360 237L370 295Q374 315 375 332T377 363Q377 408 359 425T304 442Q265 442 241 415T203 314L193 256Q190 237 188 222T186 192Q186 145 206 128T262 111ZM288 808H419L514 623H399L339 698L256 623H133L288
808Z" />
<glyph unicode="&#xf5;" glyph-name="otilde" horiz-adv-x="565" d="M259 -10Q196 -10 151 5T77 48T34 114T20 200Q20 232 26 268L35 319Q47 384 72 430T134 506T216 549T313 563Q432 563 488 508T545 356Q545 339 544 321T538 283L529 232Q517 167 493 121T433
46T354 4T259 -10ZM262 111Q281 111 296 116T324 136T345 175T360 237L370 295Q374 315 375 332T377 363Q377 408 359 425T304 442Q265 442 241 415T203 314L193 256Q190 237 188 222T186 192Q186 145 206 128T262 111ZM137 627Q144 670 158 700T191 748T232 775T276
783Q295 783 312 777T343 765T370 752T393 746Q420 746 431 782H538Q531 739 517 709T483 661T442 634T398 626Q378 626 362 632T332 644T305 657T283 663Q269 663 259 654T244 627H137V627Z" />
<glyph unicode="&#xf6;" glyph-name="odieresis" horiz-adv-x="565" d="M259 -10Q196 -10 151 5T77 48T34 114T20 200Q20 232 26 268L35 319Q47 384 72 430T134 506T216 549T313 563Q432 563 488 508T545 356Q545 339 544 321T538 283L529 232Q517 167 493 121T433
46T354 4T259 -10ZM262 111Q281 111 296 116T324 136T345 175T360 237L370 295Q374 315 375 332T377 363Q377 408 359 425T304 442Q265 442 241 415T203 314L193 256Q190 237 188 222T186 192Q186 145 206 128T262 111ZM387 762H536L513 628H364L387 762ZM161 762H310L287
628H138L161 762Z" />
<glyph unicode="&#xf7;" glyph-name="divide" horiz-adv-x="573" d="M64 400H548L524 264H40L64 400ZM185 185H349L321 27H157L185 185ZM265 637H429L401 479H237L265 637Z" />
<glyph unicode="&#xf8;" glyph-name="oslash" horiz-adv-x="565" d="M259 -10Q183 -10 131 13L72 -62H-39L61 65Q40 91 30 125T20 200Q20 232 26 268L35 319Q47 384 72 430T134 506T216 549T313 563Q384 563 436 541L479 595H589L505 489Q525 463 535 430T545
356Q545 339 544 321T538 283L529 232Q517 167 493 121T433 46T354 4T259 -10ZM178 256Q176 242 174 229T170 203L358 441Q339 449 308 449Q286 449 267 443T233 421T206 379T188 314L178 256ZM258 104Q280 104 298 109T331 130T357 170T375 237L385 295Q387 308
389 321T393 346L208 111Q219 106 231 105T258 104Z" />
<glyph unicode="&#xf9;" glyph-name="ugrave" horiz-adv-x="566" d="M149 -11Q86 -11 54 20T21 111Q21 122 22 133T25 156L94 552H261L197 189Q194 174 194 162Q194 142 204 133T241 123Q268 123 288 131T328 151L398 552H565L468 0H332L329 73H324Q282 32 241
11T149 -11ZM203 793H376L418 624H285L203 793Z" />
<glyph unicode="&#xfa;" glyph-name="uacute" horiz-adv-x="566" d="M149 -11Q86 -11 54 20T21 111Q21 122 22 133T25 156L94 552H261L197 189Q194 174 194 162Q194 142 204 133T241 123Q268 123 288 131T328 151L398 552H565L468 0H332L329 73H324Q282 32 241
11T149 -11ZM358 793H537L410 624H267L358 793Z" />
<glyph unicode="&#xfb;" glyph-name="ucircumflex" horiz-adv-x="566" d="M149 -11Q86 -11 54 20T21 111Q21 122 22 133T25 156L94 552H261L197 189Q194 174 194 162Q194 142 204 133T241 123Q268 123 288 131T328 151L398 552H565L468 0H332L329 73H324Q282 32
241 11T149 -11ZM308 808H439L534 623H419L359 698L276 623H153L308 808Z" />
<glyph unicode="&#xfc;" glyph-name="udieresis" horiz-adv-x="566" d="M149 -11Q86 -11 54 20T21 111Q21 122 22 133T25 156L94 552H261L197 189Q194 174 194 162Q194 142 204 133T241 123Q268 123 288 131T328 151L398 552H565L468 0H332L329 73H324Q282 32
241 11T149 -11ZM407 762H556L533 628H384L407 762ZM181 762H330L307 628H158L181 762Z" />
<glyph unicode="&#xfd;" glyph-name="yacute" horiz-adv-x="565" d="M62 -206Q28 -206 -2 -199T-46 -182L-26 -69Q-13 -74 6 -76T38 -79Q59 -79 74 -75T101 -64T122 -45T139 -17L157 17L64 552H234L255 392Q258 369 259 340T261 281T262 221T260 169T258 130T257
111H260Q276 162 293 211Q307 253 324 300T358 383L434 552H597L293 -55Q254 -133 200 -169T62 -206ZM356 793H535L408 624H265L356 793Z" />
<glyph unicode="&#xfe;" glyph-name="thorn" horiz-adv-x="577" d="M136 769H303L252 483H257Q290 517 329 540T418 563Q482 563 520 523T558 393Q558 351 549 299L540 248Q526 172 502 123T444 44T369 2T282 -10Q240 -10 213 -3T169 12L131 -203H-36L136 769ZM256
107Q297 107 326 136T370 247L380 305Q386 339 386 362Q386 403 369 415T322 427Q298 427 276 418T237 396L188 117Q200 112 216 110T256 107Z" />
<glyph unicode="&#xff;" glyph-name="ydieresis" horiz-adv-x="565" d="M62 -206Q28 -206 -2 -199T-46 -182L-26 -69Q-13 -74 6 -76T38 -79Q59 -79 74 -75T101 -64T122 -45T139 -17L157 17L64 552H234L255 392Q258 369 259 340T261 281T262 221T260 169T258 130T257
111H260Q276 162 293 211Q307 253 324 300T358 383L434 552H597L293 -55Q254 -133 200 -169T62 -206ZM404 762H553L530 628H381L404 762ZM178 762H327L304 628H155L178 762Z" />
<glyph unicode="&#x131;" glyph-name="dotlessi" horiz-adv-x="271" d="M99 552H267L170 0H2L99 552Z" />
<glyph unicode="&#x141;" glyph-name="Lslash" horiz-adv-x="527" d="M23 346L87 369L149 721H335L285 441L460 504L435 365L261 302L234 148H482L456 0H22L62 230L-1 207L23 346Z" />
<glyph unicode="&#x142;" glyph-name="lslash" horiz-adv-x="312" d="M151 -8Q22 -8 22 102Q22 112 23 123T26 146L51 288L-4 263L20 397L75 422L137 769H304L257 506L335 542L311 408L233 372L196 160Q191 134 200 125T235 115Q253 115 270 120L251 14Q236 6
212 -1T151 -8Z" />
<glyph unicode="&#x152;" glyph-name="OE" horiz-adv-x="927" d="M339 0Q189 0 113 62T36 254Q36 298 45 349L58 422Q74 510 105 567T183 659T289 707T422 721H947L921 573H661L637 438H845L821 298H613L586 148H867L841 0H339ZM403 145L479 576H417Q382 576 355
569T308 544T274 494T251 411L236 325Q228 279 228 250Q228 219 236 199T260 167T301 150T360 145H403Z" />
<glyph unicode="&#x153;" glyph-name="oe" horiz-adv-x="881" d="M259 -10Q196 -10 151 5T77 48T34 114T20 200Q20 232 26 268L35 319Q47 384 72 430T134 506T216 549T313 563Q375 563 416 545T480 493Q510 528 552 545T652 563Q758 563 809 514T861 371Q861 348
859 327T853 283L843 225H529Q528 220 528 216T528 207Q528 157 560 138T671 118Q710 118 740 122T806 137L786 25Q751 8 712 -1T624 -10Q548 -10 500 9T426 64Q394 25 353 8T259 -10ZM262 111Q281 111 296 116T324 136T345 175T360 237L370 295Q374 315 375 332T377
363Q377 408 359 425T304 442Q265 442 241 415T203 314L193 256Q190 237 188 222T186 192Q186 145 206 128T262 111ZM700 330Q706 358 706 379Q706 414 690 430T641 446Q624 446 610 442T582 426T559 391T542 330H700Z" />
<glyph unicode="&#x160;" glyph-name="Scaron" horiz-adv-x="522" d="M402 794H271L175 979H292L353 904L441 979H562L402 794ZM214 -11Q172 -11 139 -6T78 9T30 29T-6 53L20 199Q41 189 61 179T103 159T151 145T210 139Q310 139 310 212Q310 235 297 251T244
285L191 307Q159 320 136 336T96 375T71 427T63 494Q63 545 78 588T126 664T209 714T330 732Q370 732 401 727T455 713T496 696T526 677L501 534Q485 542 468 550T429 566T383 577T326 582Q286 582 262 568T238 518Q238 496 250 481T299 450L352 428Q386 414 412
397T457 358T484 308T493 243Q493 124 420 57T214 -11Z" />
<glyph unicode="&#x161;" glyph-name="scaron" horiz-adv-x="448" d="M179 -10Q110 -10 63 4T-13 39L8 160Q38 145 75 132T170 118Q213 118 229 130T245 163Q245 179 237 187T198 207L158 220Q100 239 73 272T45 365Q45 465 101 514T257 563Q293 563 320 560T367
550T403 537T432 522L411 404Q387 414 349 425T265 436Q225 436 212 425T198 395Q198 376 207 368T246 350L285 337Q350 315 378 280T406 190Q406 99 351 45T179 -10ZM370 808H485L545 733L628 808H751L596 623H465L370 808Z" />
<glyph unicode="&#x178;" glyph-name="Ydieresis" horiz-adv-x="627" d="M453 933H612L588 799H429L453 933ZM233 933H392L368 799H209L233 933ZM223 284L87 721H276L303 611Q311 576 317 538T329 465Q334 425 338 387H341Q357 424 375 463Q390 496 410 534T450
608L517 721H696L407 275L358 0H172L223 284Z" />
<glyph unicode="&#x17d;" glyph-name="Zcaron" horiz-adv-x="572" d="M441 794H310L214 979H331L392 904L480 979H601L441 794ZM5 137L249 431Q272 458 297 483T343 529Q368 553 392 574V577H102L127 721H609L585 584L341 290Q317 261 292 236T246 190Q221 167
199 147V144H506L481 0H-19L5 137Z" />
<glyph unicode="&#x17e;" glyph-name="zcaron" horiz-adv-x="471" d="M-3 123L188 329Q207 349 226 366T263 398Q282 413 300 426V429H60L81 552H496L477 440L279 223Q262 204 242 187T205 156Q185 140 164 126V123H418L396 0H-25L-3 123ZM390 808H505L565 733L648
808H771L616 623H485L390 808Z" />
<glyph unicode="&#x192;" glyph-name="florin" horiz-adv-x="459" d="M67 439H138L160 549Q170 600 189 635T235 692T298 723T378 733Q420 733 448 727T494 712L473 595Q462 598 451 600T425 602Q390 602 368 588T338 530L321 439H434L411 307H296L236 -10Q219
-104 168 -147T28 -190Q-12 -190 -39 -184T-80 -170L-60 -55Q-53 -57 -44 -59T-21 -61Q5 -61 25 -47T52 0L112 307H44L67 439Z" />
<glyph unicode="&#x2c6;" glyph-name="circumflex" horiz-adv-x="500" d="M275 808H406L501 623H386L326 698L243 623H120L275 808Z" />
<glyph unicode="&#x2c7;" glyph-name="caron" horiz-adv-x="500" d="M152 808H267L327 733L410 808H533L378 623H247L152 808Z" />
<glyph unicode="&#x2d8;" glyph-name="breve" horiz-adv-x="500" d="M329 616Q255 616 210 661T164 795H277Q279 757 296 743T337 729Q360 729 379 743T404 795H517Q509 709 460 663T329 616Z" />
<glyph unicode="&#x2d9;" glyph-name="dotaccent" horiz-adv-x="500" d="M250 779H419L394 637H225L250 779Z" />
<glyph unicode="&#x2da;" glyph-name="ring" horiz-adv-x="500" d="M325 696Q345 696 358 709T371 742Q371 762 360 774T329 786Q309 786 296 773T283 740Q283 720 294 708T325 696ZM323 616Q267 616 232 649T196 738Q196 765 206 788T235 828T277 856T331 866Q388
866 423 832T458 744Q458 717 448 694T419 653T376 626T323 616Z" />
<glyph unicode="&#x2db;" glyph-name="ogonek" horiz-adv-x="500" d="M191 -210Q154 -210 131 -203T94 -183T75 -157T70 -128Q70 -102 81 -82T110 -46T146 -19T181 0H268Q241 -24 222 -47T202 -92Q202 -125 253 -125Q260 -125 269 -125T286 -123L273 -195Q259
-201 235 -205T191 -210Z" />
<glyph unicode="&#x2dc;" glyph-name="tilde" horiz-adv-x="500" d="M125 627Q132 670 146 700T179 748T220 775T264 783Q283 783 300 777T331 765T358 752T381 746Q408 746 419 782H526Q519 739 505 709T471 661T430 634T386 626Q366 626 350 632T320 644T293
657T271 663Q257 663 247 654T232 627H125V627Z" />
<glyph unicode="&#x2dd;" glyph-name="hungarumlaut" horiz-adv-x="500" d="M412 793H564L476 624H351L412 793ZM201 793H353L263 624H138L201 793Z" />
</font>
</defs>
</svg>
