<svg xmlns="http://www.w3.org/2000/svg" xmlns:xlink="http://www.w3.org/1999/xlink" width="279px" height="155px" version="1.1" viewBox="0 0 279 155"><defs><polygon id="a" points="0 0 279 0 279 155 0 155"/><polygon id="c" points="0 0 279 0 279 155 0 155"/><polygon id="e" points="0 0 279 0 279 155 0 155"/><polygon id="g" points="0.043 0.209 131.981 0.209 131.981 171.786 0.043 171.786"/><polygon id="i" points="0.043 0.209 131.981 0.209 131.981 171.786 0.043 171.786"/><polygon id="k" points="0.043 0.209 131.981 0.209 131.981 171.786 0.043 171.786"/><polygon id="m" points="0.043 0.209 131.981 0.209 131.981 171.786 0.043 171.786"/><polygon id="o" points="0.043 0.209 131.981 0.209 131.981 171.786 0.043 171.786"/><polygon id="q" points="0.043 0.209 131.981 0.209 131.981 171.786 0.043 171.786"/><polygon id="s" points="0.043 0.209 131.981 0.209 131.981 171.786 0.043 171.786"/><polygon id="u" points="0.043 0.209 131.981 0.209 131.981 171.786 0.043 171.786"/><polygon id="w" points="0.043 0.209 131.981 0.209 131.981 171.786 0.043 171.786"/><polygon id="y" points="0.043 0.209 131.981 0.209 131.981 171.786 0.043 171.786"/><polygon id="A" points="0.043 0.209 131.981 0.209 131.981 171.786 0.043 171.786"/><polygon id="C" points="0.043 0.209 131.981 0.209 131.981 171.786 0.043 171.786"/><polygon id="E" points="0.043 0.209 131.981 0.209 131.981 171.786 0.043 171.786"/><polygon id="G" points="0.043 0.209 131.981 0.209 131.981 171.786 0.043 171.786"/><polygon id="I" points="0.043 0.209 131.981 0.209 131.981 171.786 0.043 171.786"/><polygon id="K" points="0.043 0.209 131.981 0.209 131.981 171.786 0.043 171.786"/><polygon id="M" points="0.043 0.209 131.981 0.209 131.981 171.786 0.043 171.786"/><polygon id="O" points="0.043 0.209 131.981 0.209 131.981 171.786 0.043 171.786"/><polygon id="Q" points="0.043 0.209 131.981 0.209 131.981 171.786 0.043 171.786"/><polygon id="S" points="0.043 0.209 131.981 0.209 131.981 171.786 0.043 171.786"/><polygon id="U" points="0.043 0.209 131.981 0.209 131.981 171.786 0.043 171.786"/><polygon id="W" points="0.043 0.209 131.981 0.209 131.981 171.786 0.043 171.786"/><polygon id="Y" points="0.043 0.209 131.981 0.209 131.981 171.786 0.043 171.786"/><polygon id="aa" points="0.043 0.209 131.981 0.209 131.981 171.786 0.043 171.786"/><polygon id="ac" points="0.043 0.209 131.981 0.209 131.981 171.786 0.043 171.786"/><polygon id="ae" points="0.043 0.209 131.981 0.209 131.981 171.786 0.043 171.786"/><polygon id="ag" points="0.043 0.85 131.908 0.85 131.908 14.762 0.043 14.762"/><path id="ai" d="M8.57 5.88l.57-.3V.67h-.3L7.6 2.26h-.13L7.55.52h4.82l.07 1.74h-.13L11.1.68h-.3v4.88l.57.32v.15h-2.8v-.15zm4.33-.21V.57L12.43.4V.3l1.7-.3h.17v2.37l.05-.04c.38-.32.91-.52 1.45-.52.74 0 1.07.4 1.07 1.17v2.69l.4.2v.16h-2.22v-.15l.4-.21v-2.7c0-.42-.19-.59-.54-.59a.93.93 0 0 0-.58.2v3.1l.39.2v.15H12.5v-.15l.4-.21zm5.6-1.62c.05.87.45 1.54 1.38 1.54.46 0 .78-.21 1.08-.37v.17c-.23.32-.83.76-1.66.76-1.45 0-2.19-.8-2.19-2.16 0-1.34.81-2.18 2.13-2.18 1.23 0 1.87.6 1.87 2.2v.04h-2.6zm1.26-.27c0-1.07-.19-1.79-.57-1.79-.4 0-.71.83-.71 1.86l1.28-.07zM4.15 5.07c.7 0 1.37.1 1.74.26l.03 1.54h-.16L4.8 5.38a1.47 1.47 0 0 0-.62-.09c-.88 0-1.33 1-1.32 2.63.02 1.96.37 2.85 1.18 2.85.2 0 .37-.03.48-.08V8.72l-.53-.43v-.17h2.47v.18l-.42.42v1.94c-.44.17-1.17.33-1.95.33C2.2 10.99 1 10.13 1 8.06c0-2.2 1.49-3 3.15-3zm2.19 1.96V6.9l1.73-.3.2.02v3.35c0 .4.2.53.53.53.21 0 .4-.08.56-.26v-3l-.48-.2V6.9l1.74-.3.17.02v3.84l.47.2v.12l-1.71.2-.18-.01v-.5h-.04c-.32.28-.77.53-1.3.53-.84 0-1.22-.48-1.22-1.21V7.24l-.47-.2v-.01zm7.34 1.37v-.8c0-.59-.2-.8-.71-.8-.16 0-.27.01-.38.04l-.8 1.13h-.12v-1.1c.41-.13.93-.28 1.61-.28 1.17 0 1.86.32 1.86 1.29v2.57l.41.2v.14c-.15.1-.47.2-.82.2-.55 0-.83-.2-.94-.5h-.05c-.26.32-.6.51-1.16.51-.73 0-1.23-.42-1.23-1.15 0-.72.45-1.12 1.38-1.27l.95-.18zm0 .2l-.34.07c-.4.05-.58.5-.58.98 0 .54.16.89.54.84.16-.02.3-.1.38-.2V8.61zm15.13-.2v-.8c0-.59-.2-.8-.71-.8-.15 0-.26.01-.38.04l-.8 1.13h-.12v-1.1c.42-.13.93-.28 1.61-.28 1.18 0 1.86.32 1.86 1.29v2.57l.42.2v.14c-.16.1-.48.2-.83.2-.55 0-.82-.2-.94-.5h-.05c-.25.32-.6.51-1.16.51-.73 0-1.22-.42-1.22-1.15 0-.72.44-1.12 1.37-1.27l.95-.18zm0 .2l-.34.07c-.4.05-.58.5-.58.98 0 .54.16.89.54.84.16-.02.3-.1.38-.2V8.61zm-11.37-2l.15.01v1.24h.04c.18-.9.6-1.25 1.09-1.25l.21.04V7.9a2.2 2.2 0 0 0-1.3.15v2.46l.4.21v.16h-2.25v-.16l.4-.21V7.17l-.47-.14V6.9l1.73-.31zm4.51-1.27l-.47-.17v-.1l1.75-.32.17.03v5.69l.48.17v.14l-1.73.23-.13-.01v-.47h-.04c-.26.25-.6.48-1.15.48-.95 0-1.64-.71-1.64-2.16 0-1.52.8-2.27 2.02-2.27.35 0 .6.06.74.13V5.33zm0 1.61c-.11-.07-.19-.16-.48-.15-.47.02-.76.71-.76 1.95 0 1.11.21 1.73.84 1.71.17 0 .31-.06.4-.15V6.94zm3.28-.68c-.43 0-.76-.31-.76-.72s.33-.73.76-.73c.41 0 .77.32.77.73s-.36.72-.77.72zm.61.33l.15.02v3.9l.4.22v.16h-2.25v-.16l.4-.22V7.22l-.48-.18V6.9l1.78-.32zm5.5 3.92V7.2l-.47-.17v-.16l1.73-.31.17.01v.5h.05a2.3 2.3 0 0 1 1.47-.53c.76 0 1.09.34 1.09 1.12v2.86l.4.22v.16h-2.25v-.16l.4-.22V7.73c0-.43-.18-.6-.54-.6a.96.96 0 0 0-.6.19v3.2l.4.2v.17h-2.25v-.16l.4-.22z"/><polygon id="ak" points="0.079 0.462 81.151 0.462 81.151 22.115 0.079 22.115"/><polygon id="am" points="0.079 0.462 81.151 0.462 81.151 22.115 0.079 22.115"/><polygon id="ao" points="0.079 0.462 81.151 0.462 81.151 22.115 0.079 22.115"/><polygon id="aq" points="0.079 0.462 81.151 0.462 81.151 22.115 0.079 22.115"/><polygon id="as" points="0.079 0.462 81.151 0.462 81.151 22.115 0.079 22.115"/><polygon id="au" points="0.079 0.462 81.151 0.462 81.151 22.115 0.079 22.115"/><polygon id="aw" points="0.079 0.462 81.151 0.462 81.151 22.115 0.079 22.115"/><polygon id="ay" points="0.029 0.746 81.101 0.746 81.101 102.67 0.029 102.67"/></defs><g fill="none" fill-rule="evenodd" stroke="none" stroke-width="1"><mask id="b" fill="#fff"><use xlink:href="#a"/></mask><circle cx="139.5" cy="139.5" r="139.5" fill="#00B2FF" fill-rule="nonzero" mask="url(#b)"/><mask id="d" fill="#fff"><use xlink:href="#c"/></mask><circle cx="208.5" cy="58.5" r="49.5" fill="#90DCFF" fill-rule="nonzero" mask="url(#d)"/><mask id="f" fill="#fff"><use xlink:href="#e"/></mask><circle cx="192.5" cy="144.5" r="80.5" fill="#FFE500" fill-rule="nonzero" mask="url(#f)"/><g mask="url(#f)"><g transform="translate(47 13)"><path fill="#FFF" fill-rule="nonzero" d="M138.8 9.28v180.84a9.28 9.28 0 0 1-9.27 9.28H9.27A9.28 9.28 0 0 1 0 190.12V9.28A9.28 9.28 0 0 1 9.27 0h120.26a9.28 9.28 0 0 1 9.27 9.28z"/><ellipse cx="70.015" cy="8.152" fill="#DCDCDC" fill-rule="nonzero" rx="2.054" ry="2.063"/><polygon fill="#FFF" fill-rule="nonzero" stroke-width="1" points="0.043 0.209 131.981 0.209 131.981 171.786 0.043 171.786" transform="translate(3 14)"/><g fill="none" fill-rule="evenodd" stroke-width="1" transform="translate(3 14)"><mask id="h" fill="#fff"><use xlink:href="#g"/></mask><polygon fill="#FF4E36" fill-rule="nonzero" stroke="#FFF" stroke-width="0.926" points="-1.523 -4.403 -1.523 44.841 135.104 44.841 135.104 -4.403" mask="url(#h)"/></g><g fill="none" fill-rule="evenodd" stroke-width="1" transform="translate(3 14)"><mask id="j" fill="#fff"><use xlink:href="#i"/></mask><path fill="#FFF" fill-rule="nonzero" d="M4.32 19.68v-.98l1.3-.42V8.04l-1.3-.42V6.54h5.41l4.76 7.82h.09V7.95l-1.27-.44v-.97h4.07v.99l-1.1.38v11.78h-3.06L7.36 9.84h-.09v8.46l1.25.42v.97h-4.2zm18.42.28c-3.12 0-5.24-2.06-5.24-5.3 0-3.22 2.08-5.2 5.22-5.2 3.13 0 5.26 1.98 5.26 5.21 0 3.24-2.1 5.29-5.25 5.29zm0-9.46c-1 0-1.57.84-1.57 4.17 0 3.35.58 4.23 1.58 4.23s1.55-.9 1.55-4.25c0-3.33-.54-4.15-1.56-4.15zm8.33 8.4l1.06-.46v-7.12l-1.12-.44v-.79l4.05-.58.4.04v1.16h.12a4.58 4.58 0 0 1 3.17-1.25c1.17 0 1.9.34 2.3 1.27h.07a4.82 4.82 0 0 1 3.26-1.27c1.68 0 2.6.84 2.6 2.66v6.32l1.08.46v.78H42.8v-.78l.84-.46v-5.81c0-1-.45-1.4-1.22-1.4-.43 0-.85.14-1.2.29v6.92l.83.46v.78H37.1v-.78l.86-.46v-5.81c0-1-.4-1.4-1.2-1.4-.48 0-.87.12-1.23.3v6.91l.82.46v.78h-5.27v-.78zm22.33 1.06c-3.12 0-5.24-2.06-5.24-5.3 0-3.22 2.08-5.2 5.22-5.2 3.13 0 5.25 1.98 5.25 5.2 0 3.25-2.08 5.3-5.24 5.3zm0-9.47c-1 0-1.57.84-1.57 4.18 0 3.35.58 4.23 1.58 4.23s1.55-.9 1.55-4.25c0-3.34-.54-4.16-1.56-4.16zm5.4-.4l4.08-.58.33.04v2.26h.1c.53-1.64 1.4-2.4 2.57-2.4.18 0 .39 0 .5.06v3.01a3.54 3.54 0 0 0-.84-.07c-.93 0-1.62.09-2.22.33v5.7l1.38.46v.78h-5.85v-.78l1.06-.46v-7.12l-1.12-.44v-.79zm17.17 4.87h-6.06c.11 2.06.9 3.03 3.14 3.03a5.4 5.4 0 0 0 2.57-.59v.92a5.04 5.04 0 0 1-3.95 1.64c-3.47 0-5.25-2.05-5.25-5.3 0-3.2 1.94-5.19 5.08-5.19 2.94 0 4.47 1.44 4.47 5.24v.25zm-4.57-4.48c-.95 0-1.55 1.02-1.55 3.48l2.9-.18c0-2.55-.45-3.3-1.35-3.3zm11.07 3.79l2.24-.42v-1.37c0-1.36-.44-1.93-1.64-1.93-.35 0-.61.04-.9.11l-.68 2.19h-1.5v-2.76c.98-.29 2.19-.63 3.79-.63 2.76 0 4.34.74 4.34 3v5.87l.97.48v.65a3.9 3.9 0 0 1-1.93.46c-1.3 0-1.9-.46-2.19-1.17h-.1c-.6.75-1.43 1.2-2.73 1.2-1.73 0-2.89-1-2.89-2.71 0-1.68 1.04-2.6 3.23-2.97zm1.35 4c.39 0 .7-.1.9-.28v-3.1l-.83.09c-.91.09-1.34.6-1.34 1.71 0 1.28.52 1.59 1.27 1.59zM94.04 9.5c.82 0 1.44.15 1.76.31V7.07l-1.12-.38v-.82l4.12-.59.4.06v12.78l1.13.52v.8l-4.07.46-.31-.03v-1.04h-.1a3.67 3.67 0 0 1-2.7 1.11c-2.22 0-3.84-1.66-3.84-5.05 0-3.57 1.88-5.4 4.73-5.4zm.8 8.77c.42 0 .75-.1.96-.25v-7.1a1.91 1.91 0 0 0-1.1-.3c-1.1 0-1.81 1.13-1.81 4.02 0 2.61.65 3.63 1.96 3.63zm10.68-5.14c2.14.51 3.06 1.44 3.06 3.32 0 2.22-1.36 3.48-4.4 3.48-1.2 0-2.5-.18-3.53-.55l-.11-2.6h1.23l.78 1.73c.41.22.95.34 1.59.34 1.16 0 1.68-.49 1.68-1.25 0-.66-.36-1-1.4-1.24l-.7-.17c-2.17-.53-3.18-1.55-3.18-3.4 0-1.96 1.32-3.34 4.23-3.34 1.2 0 2.35.13 3.14.42v2.44h-1.24l-.54-1.57a3 3 0 0 0-1.28-.22c-1.01 0-1.51.44-1.51 1.17 0 .66.35.98 1.49 1.28l.69.16zM5.22 27.54l-1.12-.47v-.8l4.08-.55.45.03v7.37c0 .95.47 1.24 1.25 1.24.5 0 .93-.13 1.32-.3v-6.52l-1.11-.47v-.8l4.08-.55.4.03v8.6l1.1.55v.75l-4.02.46-.4-.04v-1.19h-.12a4.58 4.58 0 0 1-3.06 1.26c-1.96 0-2.85-1.13-2.85-2.84v-5.76zM26.8 30.6c0 3.92-2.2 5.52-4.72 5.52-.8 0-1.45-.16-1.75-.32v2.73l1.21.44v.82h-5.69v-.82l1.07-.44V27.6l-1.1-.52v-.77l4.08-.58.41.03v1.15h.11c.52-.6 1.5-1.24 2.88-1.24 1.95 0 3.5 1.31 3.5 4.94zm-3.56.37c0-2.74-.67-3.52-1.83-3.52-.43 0-.8.13-1.08.27v6.97c.24.18.56.32 1.03.32 1.17 0 1.88-1.05 1.88-4.04zM30 35.1l1.07-.47V23.31l-1.12-.44v-.8l4.04-.58.43.05v5.38h.11A5.47 5.47 0 0 1 38 25.66c1.77 0 2.56.82 2.56 2.65v6.32l1.06.47v.79h-5.4v-.79l.94-.41v-5.84c0-1-.44-1.4-1.28-1.4-.56 0-1.01.13-1.4.3v6.94l.93.41v.79H30v-.79zm21.3-3.93h-6.05c.1 2.06.89 3.02 3.13 3.02a5.4 5.4 0 0 0 2.57-.58v.91A5.04 5.04 0 0 1 47 36.16c-3.47 0-5.24-2.04-5.24-5.3 0-3.2 1.94-5.18 5.07-5.18 2.95 0 4.48 1.44 4.48 5.23v.26zm-4.56-4.49c-.96 0-1.55 1.02-1.55 3.49l2.89-.19c0-2.55-.45-3.3-1.34-3.3zm4.9-.38l4.1-.58.33.03v2.26h.09c.54-1.64 1.4-2.4 2.57-2.4.19 0 .4.02.5.07v3a3.54 3.54 0 0 0-.83-.06c-.93 0-1.63.09-2.22.32v5.71l1.38.46v.78H51.7v-.78l1.07-.46v-7.13l-1.12-.43v-.79zm17.19 4.87h-6.06c.11 2.06.9 3.02 3.13 3.02a5.4 5.4 0 0 0 2.57-.58v.91a5.04 5.04 0 0 1-3.95 1.64c-3.47 0-5.24-2.04-5.24-5.3 0-3.2 1.94-5.18 5.07-5.18 2.95 0 4.48 1.44 4.48 5.23v.26zm-4.57-4.49c-.95 0-1.55 1.02-1.55 3.49l2.9-.19c0-2.55-.46-3.3-1.35-3.3z" mask="url(#j)"/></g><g fill="none" fill-rule="evenodd" stroke-width="1" transform="translate(3 14)"><mask id="l" fill="#fff"><use xlink:href="#k"/></mask><polygon fill="#EDEDED" fill-rule="nonzero" points="0.043 70.948 131.981 70.948 131.981 133.988 0.043 133.988" mask="url(#l)"/></g><g fill="none" fill-rule="evenodd" stroke-width="1" transform="translate(3 14)"><mask id="n" fill="#fff"><use xlink:href="#m"/></mask><g fill-rule="nonzero" mask="url(#n)"><g transform="translate(2 124)"><polygon fill="#767676" points="0.32 0.788 38.782 0.788 38.782 38.76 0.32 38.76"/><polygon fill="#767676" points="40.894 0.788 77.276 0.788 77.276 38.76 40.894 38.76"/><polygon fill="#C70000" points="0.32 0.788 38.782 0.788 38.782 2.554 0.32 2.554"/><polygon fill="#C70000" points="40.894 0.788 77.276 0.788 77.276 2.554 40.894 2.554"/><polygon fill="#121212" points="40.893 0.788 77.336 0.788 77.336 20.023 40.893 20.023"/></g></g></g><g fill="none" fill-rule="evenodd" stroke-width="1" transform="translate(3 14)"><mask id="p" fill="#fff"><use xlink:href="#o"/></mask><g fill="#DCDCDC" fill-rule="nonzero" mask="url(#p)"><path d="M.04 63.1h131.87v1.74H.04v-1.73zm0 3.05h131.87v1.74H.04v-1.74zm0 3.04h131.87v1.74H.04V69.2z"/></g></g><g fill="none" fill-rule="evenodd" stroke-width="1" transform="translate(3 14)"><mask id="r" fill="#fff"><use xlink:href="#q"/></mask><path fill="#767676" fill-rule="nonzero" d="M94.38 79.37H129v49.14H94.38V79.37zm-92.2-6.3h88.25v48.99H2.18V73.08z" mask="url(#r)"/></g><g fill="none" fill-rule="evenodd" stroke-width="1" transform="translate(3 14)"><mask id="t" fill="#fff"><use xlink:href="#s"/></mask><polygon fill="#FFF" fill-rule="nonzero" points="3.199 76.12 31.107 76.12 31.107 77.734 3.199 77.734" mask="url(#t)"/></g><g fill="none" fill-rule="evenodd" stroke-width="1" transform="translate(3 14)"><mask id="v" fill="#fff"><use xlink:href="#u"/></mask><polygon fill="#999" fill-rule="nonzero" points="3.199 114.686 30.204 114.686 30.204 116.452 3.199 116.452" mask="url(#v)"/></g><g fill="none" fill-rule="evenodd" stroke-width="1" transform="translate(3 14)"><mask id="x" fill="#fff"><use xlink:href="#w"/></mask><polygon fill="#999" fill-rule="nonzero" points="32.615 114.686 59.62 114.686 59.62 116.452 32.615 116.452" mask="url(#x)"/></g><g fill="none" fill-rule="evenodd" stroke-width="1" transform="translate(3 14)"><mask id="z" fill="#fff"><use xlink:href="#y"/></mask><polygon fill="#999" fill-rule="nonzero" points="62.031 114.686 89.036 114.686 89.036 116.452 62.031 116.452" mask="url(#z)"/></g><g fill="none" fill-rule="evenodd" stroke-width="1" transform="translate(3 14)"><mask id="B" fill="#fff"><use xlink:href="#A"/></mask><polygon fill="#999" fill-rule="nonzero" points="3.199 79.164 31.107 79.164 31.107 80.778 3.199 80.778" mask="url(#B)"/></g><g fill="none" fill-rule="evenodd" stroke-width="1" transform="translate(3 14)"><mask id="D" fill="#fff"><use xlink:href="#C"/></mask><polygon fill="#999" fill-rule="nonzero" points="3.199 117.731 30.204 117.731 30.204 119.497 3.199 119.497" mask="url(#D)"/></g><g fill="none" fill-rule="evenodd" stroke-width="1" transform="translate(3 14)"><mask id="F" fill="#fff"><use xlink:href="#E"/></mask><polygon fill="#999" fill-rule="nonzero" points="32.615 117.731 59.62 117.731 59.62 119.497 32.615 119.497" mask="url(#F)"/></g><g fill="none" fill-rule="evenodd" stroke-width="1" transform="translate(3 14)"><mask id="H" fill="#fff"><use xlink:href="#G"/></mask><polygon fill="#999" fill-rule="nonzero" points="62.031 117.731 89.036 117.731 89.036 119.497 62.031 119.497" mask="url(#H)"/></g><g fill="none" fill-rule="evenodd" stroke-width="1" transform="translate(3 14)"><mask id="J" fill="#fff"><use xlink:href="#I"/></mask><polygon fill="#999" fill-rule="nonzero" points="3.199 82.209 22.336 82.209 22.336 83.823 3.199 83.823" mask="url(#J)"/></g><g fill="none" fill-rule="evenodd" stroke-width="1" transform="translate(3 14)"><mask id="L" fill="#fff"><use xlink:href="#K"/></mask><polygon fill="#FFF" fill-rule="nonzero" points="3.199 111.642 20.945 111.642 20.945 113.256 3.199 113.256" mask="url(#L)"/></g><g fill="none" fill-rule="evenodd" stroke-width="1" transform="translate(3 14)"><mask id="N" fill="#fff"><use xlink:href="#M"/></mask><polygon fill="#FFF" fill-rule="nonzero" points="32.615 111.642 50.361 111.642 50.361 113.256 32.615 113.256" mask="url(#N)"/></g><g fill="none" fill-rule="evenodd" stroke-width="1" transform="translate(3 14)"><mask id="P" fill="#fff"><use xlink:href="#O"/></mask><polygon fill="#FFF" fill-rule="nonzero" points="62.031 111.642 79.777 111.642 79.777 113.256 62.031 113.256" mask="url(#P)"/></g><g fill="none" fill-rule="evenodd" stroke-width="1" transform="translate(3 14)"><mask id="R" fill="#fff"><use xlink:href="#Q"/></mask><polygon fill="#C70000" fill-rule="nonzero" points="2.184 73.075 33.142 73.075 33.142 74.689 2.184 74.689" mask="url(#R)"/></g><g fill="none" fill-rule="evenodd" stroke-width="1" transform="translate(3 14)"><mask id="T" fill="#fff"><use xlink:href="#S"/></mask><polygon fill="#121212" fill-rule="nonzero" points="94.377 79.372 128.999 79.372 128.999 98.848 94.377 98.848" mask="url(#T)"/></g><g fill="none" fill-rule="evenodd" stroke-width="1" transform="translate(3 14)"><mask id="V" fill="#fff"><use xlink:href="#U"/></mask><polygon fill="#999" fill-rule="nonzero" points="95.391 103.73 127.363 103.73 127.363 105.344 95.391 105.344" mask="url(#V)"/></g><g fill="none" fill-rule="evenodd" stroke-width="1" transform="translate(3 14)"><mask id="X" fill="#fff"><use xlink:href="#W"/></mask><polygon fill="#C70000" fill-rule="nonzero" points="95.391 100.685 125.334 100.685 125.334 102.299 95.391 102.299" mask="url(#X)"/></g><g fill="none" fill-rule="evenodd" stroke-width="1" transform="translate(3 14)"><mask id="Z" fill="#fff"><use xlink:href="#Y"/></mask><polygon fill="#121212" fill-rule="nonzero" points="33.516 79.372 91.334 79.372 91.334 107.505 33.516 107.505" mask="url(#Z)"/></g><g fill="none" fill-rule="evenodd" stroke-width="1" transform="translate(3 14)"><mask id="ab" fill="#fff"><use xlink:href="#aa"/></mask><polygon fill="#999" fill-rule="nonzero" points="95.391 106.775 127.363 106.775 127.363 108.389 95.391 108.389" mask="url(#ab)"/></g><g fill="none" fill-rule="evenodd" stroke-width="1" transform="translate(3 14)"><mask id="ad" fill="#fff"><use xlink:href="#ac"/></mask><polygon fill="#999" fill-rule="nonzero" points="95.391 109.819 115.041 109.819 115.041 111.433 95.391 111.433" mask="url(#ad)"/></g><g fill="none" fill-rule="evenodd" stroke-width="1" transform="translate(3 14)"><mask id="af" fill="#fff"><use xlink:href="#ae"/></mask><polygon fill="#C70000" fill-rule="nonzero" points="94.377 79.372 128.999 79.372 128.999 80.986 94.377 80.986" mask="url(#af)"/></g><polygon fill="#F6F6F6" fill-rule="nonzero" stroke-width="1" points="0.043 0.85 131.908 0.85 131.908 14.762 0.043 14.762" transform="translate(3 57)"/><g fill="none" fill-rule="evenodd" stroke-width="1" transform="translate(3 57)"><mask id="ah" fill="#fff"><use xlink:href="#ag"/></mask><ellipse cx="11.975" cy="-0.488" fill="#121212" fill-rule="nonzero" mask="url(#ah)" rx="8.889" ry="8.811"/></g><g fill="none" fill-rule="nonzero" stroke-width="1" transform="translate(114.62 71.04)"><ellipse cx="5.024" cy="5.064" fill="#121212" rx="5.024" ry="5.064"/><polygon fill="#FFF" points="2.536 4.466 7.386 4.466 7.386 5.653 2.536 5.653"/><polygon fill="#FFF" points="2.536 6.495 7.386 6.495 7.386 7.682 2.536 7.682"/><polygon fill="#FFF" points="2.536 2.436 7.386 2.436 7.386 3.623 2.536 3.623"/></g><g fill="none" fill-rule="evenodd" stroke-width="1" transform="translate(92.32 58.87)"><mask id="aj" fill="#fff"><use xlink:href="#ai"/></mask><polygon fill="#161616" fill-rule="nonzero" points="1 0 36.018 0 36.018 11.006 1 11.006" mask="url(#aj)"/></g><polygon fill="#C70000" fill-rule="nonzero" points="7.1 70.08 20.591 70.08 20.591 71.694 7.1 71.694"/><polygon fill="#FF7F0F" fill-rule="nonzero" points="20.287 70.08 32.763 70.08 32.763 71.694 20.287 71.694"/><polygon fill="#0084C6" fill-rule="nonzero" points="32.459 70.08 44.935 70.08 44.935 71.694 32.459 71.694"/><polygon fill="#EACCA0" fill-rule="nonzero" points="44.631 70.08 57.107 70.08 57.107 71.694 44.631 71.694"/><polygon fill="#BB3B80" fill-rule="nonzero" points="56.803 70.08 69.279 70.08 69.279 71.694 56.803 71.694"/><polygon fill="#121212" fill-rule="nonzero" points="35.615 87.075 93.433 87.075 93.433 122.896 35.615 122.896"/></g></g><g mask="url(#f)"><g transform="translate(125 52)"><g fill="none" fill-rule="evenodd" stroke-width="1" transform="translate(.44 .58)"><path fill="#333" fill-rule="nonzero" d="M11.1 174.55c-6.13 0-11.1-4.98-11.1-11.11V11.1C0 4.98 4.97.01 11.1.01h63.57c6.14 0 11.11 4.97 11.11 11.1v152.33c0 6.13-4.97 11.1-11.1 11.1H11.1z"/><ellipse cx="34.993" cy="9.43" fill="#121212" fill-rule="nonzero" rx="1.039" ry="1.048"/><path fill="#121212" fill-rule="nonzero" d="M39.15 8.38h11.78c.57 0 1.04.47 1.04 1.04v.02c0 .57-.47 1.04-1.04 1.04H39.15c-.57 0-1.04-.47-1.04-1.04v-.02c0-.57.47-1.04 1.04-1.04z"/><polygon fill="#E9EFF1" fill-rule="nonzero" points="2.079 17.462 83.151 17.462 83.151 158.555 2.079 158.555"/><polygon fill="#F6F6F6" fill-rule="nonzero" points="0.079 0.462 81.151 0.462 81.151 22.115 0.079 22.115" transform="translate(2 17)"/><g transform="translate(2 17)"><mask id="al" fill="#fff"><use xlink:href="#ak"/></mask><polygon fill="#767676" fill-rule="nonzero" points="66.224 6.418 76.891 6.418 76.891 9.418 55.558 9.418 55.558 6.418 59.558 6.418 59.558 3.418 66.225 3.418 66.225 6.418" mask="url(#al)"/></g><g transform="translate(2 17)"><mask id="an" fill="#fff"><use xlink:href="#am"/></mask><ellipse cx="10.646" cy="-2.157" fill="#121212" fill-rule="nonzero" mask="url(#an)" rx="9.874" ry="9.953"/></g><g transform="translate(2 17)"><mask id="ap" fill="#fff"><use xlink:href="#ao"/></mask><polygon fill="#C70000" fill-rule="nonzero" points="0.705 13.124 9.713 13.124 9.713 14.849 0.705 14.849" mask="url(#ap)"/></g><g transform="translate(2 17)"><mask id="ar" fill="#fff"><use xlink:href="#aq"/></mask><polygon fill="#FF7F0F" fill-rule="nonzero" points="10.623 13.124 19.631 13.124 19.631 14.849 10.623 14.849" mask="url(#ar)"/></g><g transform="translate(2 17)"><mask id="at" fill="#fff"><use xlink:href="#as"/></mask><polygon fill="#0084C6" fill-rule="nonzero" points="19.639 13.124 28.647 13.124 28.647 14.849 19.639 14.849" mask="url(#at)"/></g><g transform="translate(2 17)"><mask id="av" fill="#fff"><use xlink:href="#au"/></mask><polygon fill="#EACCA0" fill-rule="nonzero" points="28.656 13.124 37.664 13.124 37.664 14.849 28.656 14.849" mask="url(#av)"/></g><g transform="translate(2 17)"><mask id="ax" fill="#fff"><use xlink:href="#aw"/></mask><polygon fill="#BB3B80" fill-rule="nonzero" points="37.672 13.124 46.68 13.124 46.68 14.849 37.672 14.849" mask="url(#ax)"/></g><polygon fill="#EDEDED" fill-rule="nonzero" points="0.029 0.746 81.101 0.746 81.101 102.67 0.029 102.67" transform="translate(2 50)"/><g transform="translate(2 50)"><mask id="az" fill="#fff"><use xlink:href="#ay"/></mask><g fill-rule="nonzero" mask="url(#az)"><g transform="translate(2 49)"><polygon fill="#767676" points="0.508 0.476 38.97 0.476 38.97 38.448 0.508 38.448"/><polygon fill="#767676" points="41.082 0.476 77.464 0.476 77.464 38.448 41.082 38.448"/><polygon fill="#C70000" points="0.508 0.476 38.97 0.476 38.97 2.242 0.508 2.242"/><polygon fill="#C70000" points="41.082 0.476 77.464 0.476 77.464 2.242 41.082 2.242"/><polygon fill="#121212" points="41.082 0.476 77.525 0.476 77.525 19.711 41.082 19.711"/></g></g></g></g><polygon fill="#BB3B80" fill-rule="nonzero" points="2.517 48.08 83.589 48.08 83.589 96.889 2.517 96.889"/><path fill="#FFF" fill-rule="nonzero" d="M22.38 72.32c0 4.7-3.13 6.99-6.51 6.99-3.7 0-6.41-2.36-6.41-6.84 0-4.74 3.15-6.96 6.52-6.96 3.68 0 6.4 2.31 6.4 6.81zM15.9 66.8c-1.5 0-2.2 1.22-2.2 5.57 0 4.52.63 5.67 2.24 5.67 1.5 0 2.17-1.19 2.17-5.56 0-4.6-.67-5.68-2.2-5.68zm6.6 2.55l4.06-.6.33.05v2.3h.1c.53-1.67 1.38-2.45 2.55-2.45.19 0 .39.02.5.07v3.06a3.43 3.43 0 0 0-.83-.08c-.93 0-1.61.1-2.2.34v5.8l1.36.46v.8h-5.8v-.8l1.05-.47v-7.24l-1.12-.44v-.8zm10.25 8.95l1.05-.48V66.3l-1.1-.45v-.82l4.01-.59.43.06v5.46h.1a5.36 5.36 0 0 1 3.45-1.28c1.76 0 2.54.84 2.54 2.69v6.43l1.05.48v.8h-5.37v-.8l.95-.43v-5.92c0-1.02-.45-1.43-1.28-1.43-.55 0-1 .13-1.39.3v7.05l.93.43v.8h-5.37v-.8zm21.02-4h-6.01c.1 2.09.89 3.07 3.1 3.07 1.08 0 1.84-.22 2.56-.6v.93a4.95 4.95 0 0 1-3.92 1.67c-3.45 0-5.2-2.07-5.2-5.39 0-3.24 1.92-5.26 5.03-5.26 2.93 0 4.44 1.47 4.44 5.32v.26zm-4.53-4.56c-.95 0-1.54 1.04-1.54 3.54l2.87-.19c0-2.59-.44-3.35-1.33-3.35zm4.75-.39l4.05-.6.34.05v2.3h.09c.54-1.67 1.39-2.45 2.55-2.45.19 0 .4.02.5.07v3.06a3.43 3.43 0 0 0-.83-.08c-.92 0-1.6.1-2.2.34v5.8l1.37.46v.8h-5.81v-.8l1.05-.47v-7.24L54 70.14v-.8zm16.93 4.95h-6.01c.1 2.09.89 3.07 3.1 3.07 1.08 0 1.84-.22 2.56-.6v.93a4.95 4.95 0 0 1-3.92 1.67c-3.45 0-5.2-2.07-5.2-5.39 0-3.24 1.92-5.26 5.03-5.26 2.92 0 4.44 1.47 4.44 5.32v.26zm-4.53-4.56c-.95 0-1.54 1.04-1.54 3.54l2.87-.19c0-2.59-.44-3.35-1.33-3.35zm6.23 4.93l-1.1-8.93h4.06l-1.18 8.93h-1.78zm.9 4.65a1.8 1.8 0 0 1-1.83-1.86c0-1 .74-1.83 1.84-1.83 1.09 0 1.85.83 1.85 1.83s-.76 1.86-1.85 1.86z"/><polygon fill="#FFF" fill-rule="nonzero" points="2.562 39.656 83.619 39.656 83.619 45.741 2.562 45.741"/><path fill="#DCDCDC" fill-rule="nonzero" stroke-width="1" d="M2.47 38.17h81.15v1.74H2.47v-1.74zm0 2.97h81.15v1.74H2.47v-1.74zm0 2.97h81.15v1.74H2.47V44.1z"/><g fill="none" fill-rule="nonzero" stroke-width="1" transform="translate(70.43 32.04)"><ellipse cx="5.024" cy="5.064" fill="#121212" rx="5.024" ry="5.064"/><g fill="#FFF" transform="translate(2 2)"><polygon points="0.536 2.466 5.386 2.466 5.386 3.653 0.536 3.653"/><polygon points="0.536 4.495 5.386 4.495 5.386 5.682 0.536 5.682"/><polygon points="0.536 0.436 5.386 0.436 5.386 1.623 0.536 1.623"/></g></g></g></g></g></svg>