<svg width="98px" height="24px" viewBox="0 0 98 24" xmlns="http://www.w3.org/2000/svg"><title>Group</title><g id="Complete" fill="none" fill-rule="evenodd"><g id="5.0_Treat-Politics-Duration-Podcast" transform="translate(-98 -765)" fill="#999999"><g id="Group" transform="translate(98 765)"><path id="Rectangle-2" d="M3 9H5V14H3zM54 9H56V14H54zM63 9H65V14H63zM81 9H83V14H81zM96 9H98V14H96zM90 9H92V14H90zM18 10H20V14H18zM0 10H2V13H0zM33 7H35V16H33zM42 9H44V14H42zM48 7H50V16H48zM69 7H71V16H69zM78 8H80V15H78zM57 7H59V16H57zM45 4H47V19H45zM72 4H74V19H72zM60 4H62V19H60zM6 5H8V19H6zM12 5H14V19H12zM9 2H11V22H9zM24 3H26V21H24zM36 2H38V22H36zM27 0H29V24H27zM21 5H23V19H21zM30 5H32V19H30zM39 5H41V18H39zM75 6H77V17H75zM87 5H89V18H87zM51 10H53V13H51zM66 10H68V13H66zM84 10H86V13H84zM93 10H95V13H93zM15 8H17V16H15z"/></g></g></g></svg>