<svg width="25px" height="25px" viewBox="0 0 25 25" xmlns="http://www.w3.org/2000/svg" xmlns:xlink="http://www.w3.org/1999/xlink"><title>Audio icon</title><defs><path d="M3.16666451,11.8749724 L5.5416564,11.8749724 L8.86664506,15.1999611 L9.49997623,15.1999611 L9.49997623,3.8 L8.86664506,3.8 L5.5416564,7.12498865 L3.16666451,7.12498865 L2.53333333,7.75831983 L2.53333333,11.2416413 L3.16666451,11.8749724 Z M15.3899561,9.49998055 C15.3899561,11.2099747 14.8041248,12.7774694 13.8066282,14.0441317 L14.1549603,14.3766306 C15.5641222,13.2208012 16.4666191,11.4791405 16.4666191,9.49998055 C16.4666191,7.52082064 15.5641222,5.76332663 14.1549603,4.60749724 L13.8066282,4.93999611 C14.8041248,6.20665845 15.3899561,7.77415311 15.3899561,9.49998055 Z M12.096634,9.49998055 C12.096634,10.4974771 11.8274683,11.3841408 11.2891368,12.1599715 L11.7008021,12.5716367 C12.5082993,11.7641395 12.9832977,10.7033098 12.9832977,9.49998055 C12.9832977,8.28081804 12.5082993,7.21998833 11.7008021,6.41249109 L11.2891368,6.82415635 C11.8274683,7.59998703 12.096634,8.50248395 12.096634,9.49998055 Z" id="path-1"/></defs><g id="Complete" fill="none" fill-rule="evenodd"><g id="2.0_Treat-Politics-NoDuration-Podcast" transform="translate(-71 -764)"><g id="Audio-icon" transform="translate(71 764)"><circle id="Oval-2" stroke="#121212" stroke-width="0.5" cx="12.4444444" cy="12.4444444" r="11.5555556"/><g id="Media-/-Audio" transform="translate(3 3)"><mask id="mask-2" fill="white"><use xlink:href="#path-1"/></mask><use id="Mask" fill="#333333" xlink:href="#path-1"/><g id="Greyscale-/-20%-—-Text-Black" mask="url(#mask-2)" fill="#333333"><path id="Colour" d="M0 0H19V19H0z"/></g></g></g></g></g></svg>