<svg width="140px" height="140px" id="Layer_1" xmlns="http://www.w3.org/2000/svg" xmlns:xlink="http://www.w3.org/1999/xlink" x="0px" y="0px" viewBox="0 0 420 420" enable-background="new 0 0 420 420"><style>.st1,.st13,.st3,.st4{clip-path:url(#SVGID_2_);fill:#fff}.st13,.st3,.st4{opacity:.1;fill:#2b2e30}.st13,.st4{opacity:.77;fill:#c5d2e6}.st13{opacity:.5}</style><g><defs><circle id="SVGID_1_" cx="210" cy="210" r="210"/></defs><clipPath id="SVGID_2_"><use xlink:href="#SVGID_1_" overflow="visible"/></clipPath><path clip-path="url(#SVGID_2_)" fill="#343332" d="M-23.2 -30.6H481.40000000000003V474H-23.2z"/><path opacity=".83" clip-path="url(#SVGID_2_)" fill="#fdb828" d="M158.3 314.4H481.40000000000003V346.5H158.3z"/><path class="st3" d="M158.3 314.1H481.40000000000003V346.6H158.3z"/><path class="st4" d="M451.1 344.8L438.9 301.9 427.7 344.8 427.6 344.8 427.6 474.1 451.2 474.1 451.2 344.8zM347.3 344.6L335.1 301.5 323.8 344.6 323.8 344.6 323.8 474.4 347.3 474.4 347.3 344.6zM245.4 345.8L233.1 303 221.9 345.8 221.9 345.8 221.9 474.6 245.4 474.6 245.4 345.8z"/><linearGradient id="SVGID_3_" gradientUnits="userSpaceOnUse" x1="318.5598" y1="472.465" x2="320.3325" y2="343.617"><stop offset="1.875000e-03" stop-color="#2b2e30"/><stop offset="0.2817" stop-color="#59616a"/><stop offset="0.6223" stop-color="#8c9aaa"/><stop offset="0.8712" stop-color="#acbed2"/><stop offset="1" stop-color="#b8cbe1"/></linearGradient><path opacity=".64" clip-path="url(#SVGID_2_)" fill="url(#SVGID_3_)" d="M157.4 346.6H481.4V473.40000000000003H157.4z"/><path class="st1" d="M136.9 343.9L124.7 299.3 113.4 343.9 113.4 343.9 113.4 478.2 136.9 478.2 136.9 343.9z"/><path opacity="5.000000e-02" clip-path="url(#SVGID_2_)" fill="#2b2e30" d="M136.8 343.9L124.5 299.3 113.3 343.9 113.3 343.9 113.3 478.2 136.8 478.2 136.8 343.9z"/><linearGradient id="SVGID_4_" gradientUnits="userSpaceOnUse" x1="106.1034" y1="475.069" x2="111.6553" y2="175.1226"><stop offset="1.875000e-03" stop-color="#2b2e30"/><stop offset="7.592656e-02" stop-color="#4b5259"/><stop offset="0.1573" stop-color="#68727d"/><stop offset="0.2461" stop-color="#818e9c"/><stop offset="0.3424" stop-color="#95a4b5"/><stop offset="0.4491" stop-color="#a4b6c9"/><stop offset="0.5717" stop-color="#afc2d7"/><stop offset="0.7244" stop-color="#b6c9df"/><stop offset="1" stop-color="#b8cbe1"/></linearGradient><path clip-path="url(#SVGID_2_)" fill="url(#SVGID_4_)" d="M62.2 299.1L62.3 474.3 158.5 474.3 158.4 299.1 171.7 299.1 171.7 176.7 49.3 176.7 49.3 299.1z"/><path clip-path="url(#SVGID_2_)" fill="#f9b824" d="M171.7 176.7L49.3 176.7 72.8 144.4 146.7 144.4z"/><path clip-path="url(#SVGID_2_)" fill="#c5d2e6" d="M72.8 100H146.6V144.4H72.8z"/><path d="M61.6,238.2c0,26.7,21.6,48.3,48.3,48.3c26.7,0,48.3-21.6,48.3-48.3c0-26.7-21.6-48.3-48.3-48.3
		C83.2,190,61.6,211.6,61.6,238.2z" clip-path="url(#SVGID_2_)" fill="#6b8ba0"/><path class="st1" d="M90.4,236.5c0,12.1,9.8,21.9,21.9,21.9c12.1,0,21.9-9.8,21.9-21.9c0-12.1-9.8-21.9-21.9-21.9
		C100.2,214.6,90.4,224.4,90.4,236.5z"/><path d="M109.8,222.9c0,8.7,7.1,16.1,16.1,16.1h7.9c0,13.3-10.7,24-24,24c-13.3,0-24-10.7-24-24
		c0-13.5,10.7-24.3,24-24.3L109.8,222.9L109.8,222.9z" clip-path="url(#SVGID_2_)" fill="#2b2e31"/><path clip-path="url(#SVGID_2_)" fill="#fdb828" d="M131.5 78.1L111.7 10.8 111.7 -11.7 108 -11.7 108 10.8 88.1 78.1 72.8 100 146.7 100z"/><path class="st13" d="M321.8 224.6c5.3-22.2 25.3-38.8 49.1-38.8 23.9 0 43.8 16.5 49.1 38.8H321.8zM268.1 224.6c2.9-12.1 13.8-21.2 26.9-21.2 13 0 23.9 9 26.8 21.2H268.1z"/><linearGradient id="SVGID_5_" gradientUnits="userSpaceOnUse" x1="109.3714" y1="443.0963" x2="112.0436" y2="298.7275"><stop offset="1.875000e-03" stop-color="#2b2e30" stop-opacity="0"/><stop offset="2.698302e-02" stop-color="#303639" stop-opacity="2.516651e-03"/><stop offset="0.1281" stop-color="#415058" stop-opacity="1.265526e-02"/><stop offset="0.2394" stop-color="#4f6571" stop-opacity="2.380912e-02"/><stop offset="0.3627" stop-color="#5a7585" stop-opacity="3.616232e-02"/><stop offset="0.5044" stop-color="#628193" stop-opacity="5.036831e-02"/><stop offset="0.6809" stop-color="#66889b" stop-opacity="6.805634e-02"/><stop offset="0.9996" stop-color="#688a9d" stop-opacity=".1"/></linearGradient><path clip-path="url(#SVGID_2_)" fill="url(#SVGID_5_)" d="M62.6 299.8H158.8V442.20000000000005H62.6z"/><path class="st3" d="M171.8 176.6L171.7 176.6 146.7 144.4 146.7 100 131.6 78.1 111.7 10.8 111.7 -11.7 109.9 -11.7 109.9 474.6 158.5 474.6 158.5 299.1 171.8 299.1z"/></g></svg>
