<svg xmlns="http://www.w3.org/2000/svg" width="100" height="18" viewBox="0 0 100 18">
    <g fill="#999" fill-rule="nonzero">
        <path d="M.469 1.988h2.248v15.78H.469zM3.841 2.88H6.09v14.89H3.841zM7.214.76h2.248V17.77H7.214zM10.586 1.43h2.249v16.34h-2.249zM13.959.483h2.248V17.77h-2.248zM17.332 1.208h2.248V17.77h-2.248zM20.704 1.932h2.249v15.837h-2.249zM24.077 2.657h2.248V17.77h-2.248zM27.449 3.549h2.249v14.22h-2.249zM30.822 4.33h2.248v13.439h-2.248zM34.195 5.557h2.248V17.77h-2.248zM37.567 5.445h2.249v12.324h-2.249zM40.94 2.992h2.248V17.77H40.94zM44.312 3.605h2.249V17.77h-2.249zM47.685 4.219h2.248v13.55h-2.248zM51.058 4.497h2.248v13.272h-2.248zM54.43 4.609h2.249v13.16H54.43zM57.803 5.223h2.248V17.77h-2.248zM61.177 5.836h2.248V17.77h-2.248zM64.549 6.505h2.249v11.264h-2.249zM67.922 6.56h2.248v11.21h-2.248zM71.294 6.338h2.249V17.77h-2.249zM74.667 6.95h2.248v10.82h-2.248zM78.04 7.62h2.248v10.149H78.04zM81.412 8.067h2.249v9.703h-2.249zM84.785 1.932h2.248v15.837h-2.248zM88.157 2.936h2.249v14.833h-2.249zM91.53 3.215h2.248V17.77H91.53zM94.903 2.713h2.248V17.77h-2.248zM98.275.984h2.249v16.785h-2.249z"/>
    </g>
</svg>
