<?xml version="1.0" encoding="utf-8"?>
<!-- Generator: Adobe Illustrator 15.1.0, SVG Export Plug-In  -->
<!DOCTYPE svg PUBLIC "-//W3C//DTD SVG 1.1//EN" "http://www.w3.org/Graphics/SVG/1.1/DTD/svg11.dtd" [
	<!ENTITY ns_flows "http://ns.adobe.com/Flows/1.0/">
]>
<svg version="1.1"
	 xmlns="http://www.w3.org/2000/svg" xmlns:xlink="http://www.w3.org/1999/xlink" xmlns:a="http://ns.adobe.com/AdobeSVGViewerExtensions/3.0/"
	 x="0px" y="0px" width="117px" height="26px" viewBox="21.761 -0.305 117 26"
	 overflow="visible" enable-background="new 21.761 -0.305 117 26" xml:space="preserve">
<defs>
</defs>
<path display="none" fill="#FFBB00" d="M0.088,27.093h7.194v-1.236l-1.324-0.707v-8.914c0.574-0.264,1.06-0.353,1.545-0.353
	c1.236,0,1.677,0.442,1.677,1.898v7.326l-1.191,0.705v1.281h6.884v-1.236l-1.191-0.707v-8.958c0.441-0.22,1.015-0.309,1.5-0.309
	c1.236,0,1.766,0.442,1.766,1.898v7.326l-1.28,0.75v1.236h7.149v-1.236l-1.412-0.707v-8.384c0-2.471-1.148-3.619-3.399-3.619
	c-1.854,0-3.221,0.662-4.414,1.765h-0.131c-0.442-1.191-1.501-1.765-3.09-1.765c-1.854,0-3.001,0.662-4.237,1.765H5.958v-1.765
	H5.649L0,14.029v1.147l1.545,0.795v9.268l-1.457,0.529V27.093z M27.451,14.956h1.148c1.765,0,2.207,0.882,2.207,2.56v1.765
	l-2.56,0.44c-3.001,0.575-4.854,1.104-4.854,3.973c0,2.205,1.544,3.752,3.972,3.752c1.677,0,3.31-0.75,3.884-1.943h0.132
	c0.221,1.457,1.501,1.898,2.913,1.898c1.059,0,2.074-0.309,2.516-0.529v-1.016l-1.457-0.707v-7.943c0-3.001-2.207-4.06-5.826-4.06
	c-2.383,0-3.972,0.618-5.208,1.059v3.53h2.119l0.882-2.78H27.451z M30.805,24.444c-0.221,0.266-0.75,0.529-1.236,0.529
	c-0.882,0-1.677-0.441-1.677-1.986c0-1.323,0.882-1.985,1.853-2.118l1.06-0.132V24.444z M41.927,27.401
	c4.325,0,6.178-1.941,6.178-4.768c0-2.117-1.059-3.838-3.663-4.412l-1.633-0.353c-1.5-0.31-1.854-0.795-1.854-1.589
	c0-0.883,0.706-1.324,1.765-1.324c0.75,0,1.765,0.177,2.03,0.309l0.573,1.897h1.898v-3.31c-1.06-0.441-2.648-0.706-4.325-0.706
	c-3.973,0-5.738,1.897-5.738,4.501c0,2.029,1.147,3.973,3.663,4.59L42.5,22.59c1.457,0.311,1.766,0.706,1.766,1.766
	c0,1.016-0.883,1.324-2.208,1.324c-0.706,0-1.765-0.178-2.118-0.441l-0.794-2.207h-1.854v3.529c1.236,0.574,3.221,0.885,4.678,0.885
	L41.927,27.401z M50.18,23.339c0,2.916,1.324,4.107,3.972,4.107c1.412,0,2.913-0.354,3.663-0.795v-1.766l-1.457,0.088
	c-1.324,0-1.677-0.66-1.677-1.986v-7.193h2.957V13.5h-2.957v-3.178l-4.502,0.618v2.56l-2.074,0.265v2.03h2.074v7.501V23.339z
	 M70.922,20.693c0-5.737-1.942-7.502-6.047-7.502c-4.06,0-6.708,2.559-6.708,7.061c0,4.634,2.427,7.195,7.061,7.195
	c2.517,0,4.546-1.104,5.208-1.986v-1.324c-0.972,0.309-1.941,0.439-3.663,0.439c-2.516,0-3.795-1.236-3.972-3.882h8.077H70.922z
	 M64.833,14.646c1.104,0,1.765,0.574,1.765,4.193l-3.839,0.221C62.758,15.441,63.64,14.646,64.833,14.646z M71.364,13.985v1.191
	l1.501,0.751v9.267l-1.413,0.617v1.324h7.812v-1.324l-1.897-0.617v-7.502c0.75-0.441,1.765-0.529,3.001-0.529
	c0.354,0,0.883,0,1.147,0.088v-3.972h-0.706c-1.456,0-2.647,0.883-3.53,2.736h-0.089v-2.868h-0.441l-5.429,0.883L71.364,13.985z
	 M88.93,27.401c2.205,0,4.103-1.059,4.853-1.941v-1.236c-0.661,0.176-2.073,0.441-3.31,0.441c-2.206,0-3.884-1.412-3.884-4.634
	c0-3.707,1.147-5.12,2.647-5.12c0.618,0,1.104,0.089,1.324,0.222l0.75,2.648h2.341v-4.105c-0.75-0.309-2.736-0.574-4.283-0.574
	c-4.501,0-7.412,2.647-7.412,7.149c0,4.281,2.383,7.06,6.974,7.06V27.401z M94.489,8.424v1.324l1.5,0.574v14.742l-1.324,0.705v1.324
	h7.416v-1.324l-1.457-0.619V7.585h-0.353l-5.738,0.883L94.489,8.424z M106.582,15h1.147c1.767,0,2.295,0.882,2.295,2.559v1.766
	l-2.647,0.442c-2.957,0.573-4.768,1.103-4.768,3.972c0,2.205,1.501,3.75,3.884,3.75c1.767,0,3.311-0.75,3.973-1.939h0.088
	c0.223,1.455,1.457,1.896,2.87,1.896c1.102,0,2.118-0.311,2.559-0.529v-1.018l-1.457-0.705v-7.943c0-3.001-2.206-4.06-5.825-4.06
	c-2.339,0-3.882,0.617-5.162,1.059v3.531h2.206L106.626,15H106.582z M110.024,24.489c-0.265,0.264-0.75,0.529-1.234,0.529
	c-0.885,0-1.767-0.443-1.767-1.986c0-1.324,0.882-1.986,1.942-2.119l1.059-0.133v3.664V24.489z M121.057,27.446
	c4.414,0,6.18-1.943,6.18-4.768c0-2.117-0.973-3.839-3.62-4.412l-1.588-0.353c-1.501-0.31-1.897-0.795-1.897-1.589
	c0-0.883,0.75-1.324,1.766-1.324c0.795,0,1.764,0.176,2.029,0.309l0.574,1.897h1.896v-3.354c-1.103-0.441-2.736-0.706-4.323-0.706
	c-3.972,0-5.738,1.897-5.738,4.501c0,2.029,1.147,3.973,3.619,4.59l1.677,0.353c1.456,0.311,1.767,0.706,1.767,1.766
	c0,1.016-0.884,1.324-2.207,1.324c-0.752,0-1.855-0.178-2.207-0.441l-0.706-2.207h-1.942v3.529c1.323,0.574,3.266,0.885,4.766,0.885
	H121.057z M132.666,27.446c4.413,0,6.177-1.943,6.177-4.768c0-2.117-1.014-3.839-3.618-4.412l-1.589-0.353
	c-1.5-0.31-1.897-0.795-1.897-1.589c0-0.883,0.706-1.324,1.765-1.324c0.707,0,1.678,0.176,1.986,0.309l0.574,1.897h1.898v-3.354
	c-1.017-0.441-2.648-0.706-4.239-0.706c-3.971,0-5.734,1.897-5.734,4.501c0,2.029,1.102,3.973,3.617,4.59l1.634,0.353
	c1.457,0.311,1.764,0.706,1.764,1.766c0,1.016-0.881,1.324-2.117,1.324c-0.795,0-1.898-0.178-2.206-0.441l-0.796-2.207h-1.896v3.529
	c1.323,0.574,3.265,0.885,4.722,0.885H132.666z M152.259,20.738c0-5.738-1.986-7.503-6.046-7.503s-6.708,2.56-6.708,7.062
	c0,4.634,2.384,7.193,7.062,7.193c2.471,0,4.545-1.104,5.163-1.986v-1.324c-0.884,0.311-1.896,0.441-3.663,0.441
	c-2.517,0-3.752-1.234-3.972-3.882h8.12H152.259z M146.081,14.691c1.148,0,1.767,0.574,1.767,4.192l-3.752,0.221
	C144.095,15.485,144.844,14.691,146.081,14.691z M157.644,27.489c4.324,0,6.091-1.986,6.091-4.856c0-2.028-0.972-3.75-3.62-4.323
	l-1.588-0.354c-1.501-0.309-1.854-0.794-1.854-1.589c0-0.882,0.707-1.324,1.767-1.324c0.75,0,1.676,0.177,1.986,0.309l0.573,1.898
	h1.897v-3.398c-1.104-0.441-2.737-0.706-4.324-0.706c-3.973,0-5.739,1.897-5.739,4.501c0,2.029,1.149,3.973,3.621,4.59l1.675,0.353
	c1.457,0.311,1.767,0.706,1.767,1.766c0,1.016-0.883,1.324-2.207,1.324c-0.75,0-1.765-0.178-2.207-0.441l-0.706-2.207h-1.942v3.529
	c1.324,0.574,3.31,0.885,4.768,0.885L157.644,27.489z"/>
<path fill="#7D0068" d="M81.245,19.25v0.443h-5.521l-3.531-5.742h-0.707v3.799l1.457,0.707v1.236h-7.374v-1.236l1.413-0.707V3.046
	L65.436,2.34V1.147l5.74-0.883h0.309v11.922h0.971l3.711-4.239l-1.459-0.662V6.049h5.74v1.325l-1.766,0.617l-3.09,3.355l4.105,6.358
	l1.457,0.664v-2.781h1.943l0.75,2.205c0.354,0.355,1.414,0.443,2.207,0.443c1.324,0,2.209-0.221,2.209-1.324
	c0-0.974-0.352-1.324-1.768-1.768l-1.764-0.308c-2.432-0.574-3.623-2.562-3.623-4.549c0-2.649,1.768-4.548,5.74-4.548
	c1.633,0,3.268,0.265,4.328,0.706v3.355h-1.854l-0.619-1.854c-0.311-0.176-1.236-0.353-1.986-0.353
	c-1.105,0-1.768,0.529-1.768,1.324c0,0.883,0.311,1.325,1.768,1.633l1.633,0.354c2.65,0.573,3.621,2.34,3.621,4.416
	c0,2.826-1.855,4.768-6.182,4.768c-1.412,0-3.312-0.309-4.637-0.883L81.245,19.25z M26.799,0.265h-0.354l-5.651,0.883V2.34
	l1.502,0.706v15.765c1.191,0.705,3.398,1.234,5.916,1.234c4.239,0,7.33-1.766,7.33-7.417c0-4.989-2.429-6.888-4.725-6.888
	c-1.767,0-3.092,0.795-3.842,1.589h-0.177V0.265z M28.3,18.369c-0.794,0-1.236-0.268-1.501-0.443V8.654
	c0.442-0.177,0.883-0.354,1.634-0.354c1.324,0,2.385,0.972,2.385,4.637c0,3.841-0.884,5.387-2.562,5.387L28.3,18.369z M43.314,5.651
	c-4.151,0-7.065,2.562-7.065,7.153c0,4.637,2.914,7.154,7.065,7.154c4.105,0,6.932-2.518,6.932-7.154
	c0-4.592-2.826-7.153-6.976-7.153H43.314z M43.314,18.016c-1.502,0-2.208-0.707-2.208-5.211s0.706-5.299,2.208-5.299
	c1.501,0,2.207,0.795,2.207,5.299s-0.706,5.297-2.207,5.297V18.016z M57.885,5.651c-4.062,0-6.889,2.562-6.889,7.153
	c0,4.637,2.826,7.154,6.977,7.154c4.107,0,6.933-2.518,6.933-7.154c0-4.592-2.825-7.153-6.977-7.153H57.885z M57.973,18.016
	c-1.501,0-2.207-0.707-2.207-5.211s0.706-5.299,2.207-5.299c1.502,0,2.208,0.795,2.208,5.299s-0.706,5.297-2.208,5.297V18.016z
	 M81.245,19.117v-0.748h-0.09v0.748H81.245z M92.547,19.561h7.506v-1.236l-1.457-0.662V8.831c0.574-0.221,1.193-0.354,1.855-0.354
	c1.191,0,1.766,0.53,1.766,1.899v7.373l-1.414,0.662v1.281h7.42v-1.236l-1.502-0.664V9.404c0-2.517-1.104-3.664-3.4-3.664
	c-1.768,0-3.531,0.662-4.68,1.766H98.42V0h-0.354l-5.609,0.883v1.148l1.547,0.707V17.75l-1.5,0.707v1.236L92.547,19.561z
	 M115.729,5.607c-4.107,0-6.932,2.562-6.932,7.152c0,4.637,2.824,7.152,6.932,7.152c4.15,0,6.977-2.516,6.977-7.152
	C122.706,8.169,119.879,5.607,115.729,5.607z M115.729,17.971c-1.459,0-2.209-0.708-2.209-5.211s0.75-5.298,2.209-5.298
	c1.545,0,2.207,0.795,2.207,5.298s-0.662,5.299-2.207,5.299V17.971z M129.241,7.374V5.607h-0.354L123.28,6.49v1.237l1.502,0.706
	v15.234l-1.502,0.707v1.324h7.639v-1.324l-1.678-0.664v-3.973c0.441,0.131,0.883,0.352,1.986,0.352c3.533,0,6.623-1.854,6.623-7.374
	c0-5.298-2.205-6.888-4.855-6.888c-1.768,0-2.914,0.884-3.666,1.767h-0.176L129.241,7.374z M130.743,17.971
	c-0.619,0-1.104-0.178-1.414-0.441V8.698c0.441-0.221,0.795-0.354,1.59-0.354c1.457,0,2.34,1.324,2.34,4.504
	c0,3.886-1.061,5.167-2.473,5.167L130.743,17.971z"/>
</svg>
