<svg xmlns="http://www.w3.org/2000/svg" width="117" height="26" viewBox="51 23.5 117 26" enable-background="new 51 23.5 117 26"><path fill="#7D0068" d="M111.5 42.7v.4H106l-3.5-5.7h-.7v3.8l1.5.7v1.2h-7.4V42l1.4-.7V26.5l-1.5-.7v-1.2l5.7-.9h.3v11.9h1l3.7-4.2-1.5-.7v-1.2h5.7v1.3l-1.8.6-3.1 3.4 4.1 6.4 1.5.7v-2.8h1.9l.8 2.2c.4.4 1.4.4 2.2.4 1.3 0 2.2-.2 2.2-1.3 0-1-.4-1.3-1.8-1.8l-1.8-.3c-2.4-.6-3.6-2.6-3.6-4.5 0-2.6 1.8-4.5 5.7-4.5 1.6 0 3.3.3 4.3.7v3.4h-1.9l-.6-1.9c-.3-.2-1.2-.4-2-.4-1.1 0-1.8.5-1.8 1.3 0 .9.3 1.3 1.8 1.6l1.6.4c2.7.6 3.6 2.3 3.6 4.4 0 2.8-1.9 4.8-6.2 4.8-1.2 0-3.1-.3-4.3-.9zM57 23.8h-.4l-5.6.8v1.2l1.5.7v15.8c1.2.7 3.4 1.2 5.9 1.2 4.2 0 7.3-1.8 7.3-7.4 0-5-2.4-6.9-4.7-6.9-1.8 0-3.1.8-3.8 1.6H57v-7zm1.5 18.1c-.8 0-1.2-.3-1.5-.4v-9.3c.4-.2.9-.4 1.6-.4 1.3 0 2.4 1 2.4 4.6 0 3.9-.8 5.5-2.5 5.5zm15-12.7c-4.2 0-7.1 2.6-7.1 7.2s2.9 7.2 7.1 7.2c4.1 0 6.9-2.5 6.9-7.2.1-4.7-2.8-7.2-6.9-7.2zm0 12.3c-1.5 0-2.2-.7-2.2-5.2S72 31 73.5 31c1.5 0 2.2.8 2.2 5.3s-.7 5.2-2.2 5.2zm14.6-12.3c-4.1 0-6.9 2.6-6.9 7.2s2.8 7.2 7 7.2c4.1 0 6.9-2.5 6.9-7.2s-2.8-7.2-7-7.2zm.1 12.3c-1.5 0-2.2-.7-2.2-5.2s.7-5.3 2.2-5.3c1.5 0 2.2.8 2.2 5.3s-.7 5.2-2.2 5.2zm42.1 1.7v-1.3l-1.5-.7v-8.8c.6-.2 1.2-.4 1.9-.4 1.2 0 1.8.5 1.8 1.9v7.4l-1.4.7v1.3h7.4V42l-1.5-.7v-8.4c0-2.5-1.1-3.7-3.4-3.7-1.8 0-3.5.7-4.7 1.8h-.2v-7.5h-.4l-5.6.9v1.1l1.5.7v15l-1.5.7v1.2l7.6.1zm15.6-14.1c-4.1 0-6.9 2.6-6.9 7.2s2.8 7.2 6.9 7.2c4.2 0 7-2.5 7-7.2 0-4.6-2.8-7.2-7-7.2zm.1 12.5c-1.5 0-2.2-.8-2.2-5.3s.8-5.3 2.2-5.3c1.5 0 2.2.8 2.2 5.3-.1 4.5-.7 5.3-2.2 5.3zm13.4-10.7v-1.8h-.4l-5.6.9v1.2l1.5.7v15.2l-1.5.7v1.3h7.6v-1.3l-1.7-.7v-4c.4.1.9.4 2 .4 3.5 0 6.6-1.9 6.6-7.4 0-5.3-2.2-6.9-4.9-6.9-1.8 0-2.9.9-3.7 1.8h-.2l.3-.1zm1.6 10.6c-.6 0-1.1-.2-1.4-.4v-8.8c.4-.2.8-.4 1.6-.4 1.5 0 2.3 1.3 2.3 4.5 0 3.8-1.1 5.1-2.5 5.1z"/></svg>
