<svg xmlns="http://www.w3.org/2000/svg" width="152" height="25" viewBox="0 0 152 25">
<path fill="#333333" d="M4.2,19.417h7.309V18.2L10.1,17.532v-8.79c0.549-0.215,1.146-0.359,1.815-0.359
	c1.218,0,1.792,0.502,1.792,1.888v7.261L12.297,18.2v1.218h7.309V18.2l-1.457-0.668V9.268c0-2.46-1.123-3.56-3.344-3.56
	c-1.815,0-3.439,0.646-4.634,1.744h-0.143V0H9.669L4.128,0.884v1.17l1.529,0.692v14.785L4.2,18.2V19.417z M26.962,5.708
	c-4.06,0-6.854,2.484-6.854,7.022c0,4.537,2.794,7.046,6.854,7.046s6.855-2.51,6.855-7.046C33.817,8.192,31.022,5.708,26.962,5.708
	L26.962,5.708z M26.985,17.914c-1.48,0-2.221-0.766-2.221-5.183c0-4.418,0.74-5.184,2.221-5.184c1.481,0,2.174,0.765,2.174,5.184
	C29.16,17.148,28.467,17.914,26.985,17.914L26.985,17.914z M34.414,1.122V2.34l1.504,0.693v14.473l-1.433,0.67v1.241h7.308v-1.241
	l-1.433-0.67V0.239h-0.358L34.414,1.122z M42.225,6.544v1.218l1.504,0.693v9.051l-1.433,0.67v1.241h7.309v-1.241l-1.433-0.67V5.661
	h-0.358L42.225,6.544z M45.878,0.167c-1.313,0-2.364,1.051-2.364,2.365c0,1.289,1.051,2.34,2.364,2.34
	c1.29,0,2.365-1.051,2.365-2.34C48.243,1.218,47.168,0.167,45.878,0.167L45.878,0.167z M58.776,6.305
	c-0.55-0.382-1.41-0.549-2.15-0.549c-3.535,0-6.52,1.935-6.52,7.333c0,5.136,2.914,6.688,5.351,6.688
	c1.671,0,2.817-0.74,3.368-1.458h0.143v1.387h0.382l5.279-0.598v-1.146l-1.41-0.788V0.263H62.86l-5.565,0.884v1.218l1.481,0.668
	V6.305z M58.776,17.125c-0.311,0.119-0.693,0.239-1.362,0.239c-1.768,0-2.604-1.435-2.604-4.729c0-3.774,1.051-5.04,2.46-5.04
	c0.788,0,1.17,0.215,1.505,0.478V17.125z M72.271,16.837c-0.238,0.265-0.74,0.501-1.217,0.501c-0.86,0-1.673-0.475-1.673-1.956
	c0-1.267,0.836-1.959,1.864-2.055l1.027-0.096V16.837z M68.903,7.5c0.287-0.023,0.932-0.048,1.147-0.048
	c1.72,0,2.221,0.86,2.221,2.556v1.792l-2.556,0.43c-2.961,0.501-4.729,1.051-4.729,3.798c0,2.221,1.48,3.75,3.845,3.75
	c1.672,0,3.249-0.718,3.845-1.911h0.119c0.215,1.433,1.458,1.887,2.843,1.887c1.074,0,2.077-0.312,2.508-0.549V18.2l-1.409-0.668
	V9.769c0-3.01-2.149-4.061-5.733-4.061c-2.34,0-3.845,0.621-5.11,1.027v3.488h2.078L68.903,7.5z M80.75,23.36
	c-0.454,0-1.17-0.049-1.696-0.168v1.601c0.598,0.405,1.337,0.691,2.245,0.691c2.174,0,3.653-0.979,4.729-3.916L91.02,7.954
	l1.338-0.669V6.042h-5.184v1.242l1.433,0.621l-2.292,6.998h-0.094l-2.485-6.998l1.434-0.621V6.042h-7.69v1.242l1.24,0.669
	l5.399,12.684l-0.216,0.501C83.233,22.713,82.207,23.36,80.75,23.36L80.75,23.36z M98.854,5.708c-4.06,0-6.854,2.484-6.854,7.022
	c0,4.537,2.795,7.046,6.854,7.046c4.061,0,6.855-2.51,6.855-7.046C105.709,8.192,102.914,5.708,98.854,5.708L98.854,5.708z
	 M98.878,17.914c-1.479,0-2.221-0.766-2.221-5.183c0-4.418,0.741-5.184,2.221-5.184c1.48,0,2.174,0.765,2.174,5.184
	C101.052,17.148,100.358,17.914,98.878,17.914L98.878,17.914z M119.752,17.532V8.335h2.222V6.042h-2.222V4.49
	c0-1.552,0.432-2.293,1.554-2.293c0.167,0,0.334,0.023,0.478,0.048l0.525,1.887h2.293v-3.44c-1.504-0.381-2.508-0.453-3.798-0.453
	c-1.434,0-2.818,0.382-3.846,1.194c-1.193-0.573-2.483-0.716-3.702-0.716c-2.816,0-5.493,1.481-5.493,4.777V6.09l-1.527,0.765v1.48
	h1.527v9.196l-1.456,0.668v1.218h7.236V18.2l-1.338-0.668V8.335h3.106v9.196l-1.028,0.668v1.218h7.285V18.2L119.752,17.532z
	 M112.205,4.968c0-1.552,0.43-2.293,1.553-2.293c0.765,0,1.338,0.406,1.672,1.075c-0.071,0.382-0.118,0.836-0.118,1.266v1.027
	h-3.106V4.968z M128.614,7.189c1.099,0,1.695,0.573,1.695,4.132l-3.702,0.215C126.654,7.978,127.395,7.189,128.614,7.189
	L128.614,7.189z M134.633,13.136c0-5.612-1.935-7.404-5.947-7.404c-3.988,0-6.592,2.555-6.592,6.974c0,4.539,2.365,7.071,6.95,7.071
	c2.461,0,4.466-1.1,5.086-1.96v-1.289c-0.931,0.287-1.885,0.454-3.582,0.454c-2.435,0-3.677-1.242-3.894-3.846H134.633z
	 M135.063,6.544v1.218l1.48,0.693v9.051l-1.41,0.67v1.241h7.691v-1.241l-1.84-0.67v-7.428c0.767-0.357,1.769-0.477,2.962-0.477
	c0.383,0,0.86,0.047,1.124,0.12V5.828c-0.145-0.047-0.431-0.072-0.67-0.072c-1.457,0-2.649,0.955-3.439,2.723h-0.143V5.661h-0.382
	L135.063,6.544z M150.135,19.752c4.25,0,6.019-1.911,6.019-4.706c0-2.03-0.979-3.749-3.56-4.298l-1.575-0.334
	c-1.481-0.31-1.84-0.789-1.84-1.577c0-0.812,0.717-1.313,1.767-1.313c0.717,0,1.648,0.167,1.959,0.334l0.573,1.839h1.864V6.401
	c-1.051-0.454-2.652-0.693-4.229-0.693c-3.939,0-5.685,1.887-5.685,4.443c0,1.982,1.148,3.941,3.606,4.491L150.66,15
	c1.432,0.311,1.767,0.716,1.767,1.696c0,1.05-0.884,1.337-2.149,1.337c-0.766,0-1.839-0.144-2.15-0.429l-0.764-2.222h-1.887v3.534
	C146.767,19.466,148.7,19.752,150.135,19.752L150.135,19.752z"/>
<path display="none" fill="#333333" d="M0.088,24.577h7.194v-1.234l-1.324-0.707V13.72c0.574-0.264,1.06-0.353,1.545-0.353
	c1.236,0,1.677,0.442,1.677,1.898v7.325l-1.191,0.707v1.279h6.884V23.34l-1.191-0.705v-8.959c0.441-0.22,1.015-0.309,1.5-0.309
	c1.236,0,1.766,0.442,1.766,1.898v7.325l-1.28,0.75v1.236h7.149V23.34l-1.412-0.705V14.25c0-2.471-1.148-3.619-3.399-3.619
	c-1.854,0-3.221,0.662-4.414,1.765h-0.131c-0.442-1.191-1.501-1.765-3.09-1.765c-1.854,0-3.001,0.662-4.237,1.765H5.958v-1.765
	H5.649L0,11.514v1.147l1.545,0.795v9.269l-1.457,0.529V24.577z M27.451,12.441h1.148c1.765,0,2.207,0.882,2.207,2.56v1.764
	l-2.56,0.441c-3.001,0.573-4.854,1.104-4.854,3.973c0,2.205,1.544,3.752,3.972,3.752c1.677,0,3.31-0.75,3.884-1.943h0.132
	c0.221,1.457,1.501,1.898,2.913,1.898c1.059,0,2.074-0.311,2.516-0.529v-1.016l-1.457-0.707v-7.944c0-3.001-2.207-4.06-5.826-4.06
	c-2.383,0-3.972,0.618-5.208,1.059v3.53h2.119l0.882-2.78L27.451,12.441L27.451,12.441z M30.805,21.928
	c-0.221,0.266-0.75,0.531-1.236,0.531c-0.882,0-1.677-0.441-1.677-1.986c0-1.323,0.882-1.986,1.853-2.119l1.06-0.132V21.928z
	 M41.927,24.887c4.325,0,6.178-1.943,6.178-4.771c0-2.116-1.059-3.837-3.663-4.412l-1.633-0.353c-1.5-0.31-1.854-0.795-1.854-1.589
	c0-0.883,0.706-1.324,1.765-1.324c0.75,0,1.765,0.177,2.03,0.309l0.573,1.896h1.898v-3.31c-1.06-0.441-2.648-0.706-4.325-0.706
	c-3.973,0-5.738,1.897-5.738,4.501c0,2.029,1.147,3.973,3.663,4.59l1.677,0.354c1.457,0.312,1.766,0.705,1.766,1.768
	c0,1.016-0.883,1.324-2.208,1.324c-0.706,0-1.765-0.18-2.118-0.441l-0.794-2.207H37.29v3.529c1.236,0.572,3.221,0.885,4.678,0.885
	L41.927,24.887z M50.18,20.825c0,2.914,1.324,4.105,3.972,4.105c1.412,0,2.913-0.355,3.663-0.795V22.37l-1.457,0.09
	c-1.324,0-1.677-0.662-1.677-1.986v-7.194h2.957v-2.295h-2.957V7.806L50.18,8.424v2.56l-2.074,0.265v2.03h2.074v7.502V20.825z
	 M70.922,18.178c0-5.737-1.942-7.502-6.047-7.502c-4.06,0-6.708,2.559-6.708,7.061c0,4.635,2.427,7.194,7.061,7.194
	c2.517,0,4.546-1.105,5.208-1.986V21.62c-0.972,0.311-1.941,0.441-3.663,0.441c-2.516,0-3.795-1.236-3.972-3.883h8.077H70.922z
	 M64.833,12.131c1.104,0,1.765,0.574,1.765,4.193l-3.839,0.221C62.758,12.926,63.64,12.131,64.833,12.131z M71.364,11.469v1.191
	l1.501,0.751v9.269l-1.413,0.617v1.322h7.812v-1.322l-1.897-0.617v-7.503c0.75-0.441,1.765-0.529,3.001-0.529
	c0.354,0,0.883,0,1.147,0.088v-3.973h-0.707c-1.456,0-2.646,0.883-3.53,2.736H77.19v-2.868h-0.441l-5.429,0.883L71.364,11.469z
	 M88.93,24.887c2.205,0,4.104-1.062,4.854-1.943v-1.234c-0.661,0.176-2.073,0.439-3.312,0.439c-2.205,0-3.884-1.412-3.884-4.633
	c0-3.708,1.147-5.12,2.647-5.12c0.617,0,1.104,0.089,1.324,0.222l0.75,2.648h2.34V11.16c-0.75-0.309-2.735-0.574-4.282-0.574
	c-4.501,0-7.412,2.647-7.412,7.149c0,4.281,2.383,7.062,6.974,7.062V24.887z M94.488,5.908v1.324l1.5,0.574v14.741l-1.323,0.707
	v1.322h7.416v-1.322l-1.457-0.619V5.07h-0.353l-5.738,0.883L94.488,5.908z M106.582,12.485h1.146c1.768,0,2.295,0.882,2.295,2.559
	v1.766l-2.646,0.441c-2.957,0.572-4.768,1.104-4.768,3.973c0,2.205,1.5,3.75,3.884,3.75c1.767,0,3.312-0.75,3.973-1.939h0.089
	c0.223,1.455,1.457,1.896,2.869,1.896c1.102,0,2.118-0.312,2.559-0.529v-1.018l-1.457-0.705v-7.944c0-3.001-2.205-4.06-5.823-4.06
	c-2.341,0-3.884,0.617-5.162,1.059v3.531h2.206l0.883-2.781H106.582z M110.023,21.973c-0.266,0.266-0.75,0.531-1.233,0.531
	c-0.886,0-1.767-0.443-1.767-1.986c0-1.324,0.881-1.987,1.94-2.12l1.06-0.133v3.663V21.973z M121.057,24.93
	c4.414,0,6.18-1.941,6.18-4.77c0-2.116-0.973-3.838-3.618-4.411l-1.589-0.354c-1.502-0.31-1.896-0.795-1.896-1.589
	c0-0.883,0.75-1.324,1.768-1.324c0.795,0,1.764,0.176,2.029,0.309l0.572,1.897h1.896v-3.352c-1.104-0.441-2.735-0.706-4.322-0.706
	c-3.973,0-5.738,1.897-5.738,4.501c0,2.029,1.146,3.974,3.619,4.591l1.677,0.352c1.456,0.312,1.767,0.707,1.767,1.768
	c0,1.016-0.883,1.324-2.207,1.324c-0.752,0-1.854-0.178-2.207-0.441l-0.704-2.207h-1.942v3.529c1.323,0.574,3.268,0.885,4.768,0.885
	h-0.047V24.93H121.057z M132.666,24.93c4.413,0,6.178-1.941,6.178-4.77c0-2.116-1.015-3.838-3.619-4.411l-1.588-0.354
	c-1.5-0.31-1.898-0.795-1.898-1.589c0-0.883,0.707-1.324,1.767-1.324c0.707,0,1.679,0.176,1.986,0.309l0.573,1.897h1.897v-3.352
	c-1.017-0.441-2.647-0.706-4.239-0.706c-3.971,0-5.734,1.897-5.734,4.501c0,2.029,1.104,3.974,3.617,4.591l1.636,0.352
	c1.456,0.312,1.764,0.707,1.764,1.768c0,1.016-0.881,1.324-2.116,1.324c-0.796,0-1.898-0.178-2.205-0.441l-0.797-2.207h-1.896v3.529
	c1.324,0.574,3.266,0.885,4.723,0.885h-0.045V24.93H132.666z M152.259,18.223c0-5.738-1.985-7.503-6.046-7.503
	s-6.708,2.56-6.708,7.062c0,4.635,2.384,7.192,7.062,7.192c2.473,0,4.545-1.104,5.164-1.984v-1.324
	c-0.885,0.311-1.896,0.439-3.664,0.439c-2.517,0-3.752-1.232-3.971-3.881h8.119H152.259z M146.081,12.175
	c1.147,0,1.767,0.574,1.767,4.192l-3.752,0.221C144.096,12.97,144.844,12.175,146.081,12.175z M157.645,24.973
	c4.324,0,6.09-1.984,6.09-4.855c0-2.028-0.971-3.75-3.618-4.323l-1.589-0.354c-1.502-0.309-1.854-0.794-1.854-1.589
	c0-0.882,0.707-1.324,1.768-1.324c0.75,0,1.677,0.177,1.986,0.309L161,14.735h1.896v-3.398c-1.104-0.441-2.736-0.706-4.324-0.706
	c-3.973,0-5.738,1.897-5.738,4.501c0,2.029,1.148,3.974,3.621,4.591l1.675,0.352c1.457,0.312,1.769,0.707,1.769,1.768
	c0,1.016-0.883,1.324-2.207,1.324c-0.75,0-1.767-0.178-2.207-0.441l-0.707-2.207h-1.941v3.529c1.324,0.574,3.311,0.885,4.768,0.885
	L157.645,24.973z"/>
</svg>
