<svg xmlns="http://www.w3.org/2000/svg" width="152" height="25.5" viewBox="0 0 152 25.5"><path fill="#333" d="M.1 19.4h7.3v-1.2L6 17.5V8.7c.5-.2 1.1-.4 1.8-.4 1.2 0 1.8.5 1.8 1.9v7.3l-1.4.7v1.2h7.3v-1.2l-1.5-.7V9.3c0-2.5-1.1-3.6-3.3-3.6-1.8 0-3.5.7-4.7 1.8h-.1V0h-.4L0 .9v1.2l1.5.7v14.8l-1.5.7v1.1h.1zM22.8 5.7c-4.1 0-6.9 2.5-6.9 7s2.8 7 6.9 7c4.1 0 6.9-2.5 6.9-7s-2.8-7-6.9-7zm.1 12.2c-1.5 0-2.2-.8-2.2-5.2s.7-5.2 2.2-5.2 2.1.8 2.1 5.2-.7 5.2-2.1 5.2zm7.4-16.8v1.2l1.5.7v14.5l-1.4.7v1.2h7.3v-1.2l-1.4-.7V.2h-.4l-5.6.9zm7.8 5.4v1.2l1.5.7v9.1l-1.4.7v1.2h7.3v-1.2l-1.5-.7V5.7h-.4l-5.5.8zM41.8.2c-1.3 0-2.4 1.1-2.4 2.4 0 1.3 1.1 2.3 2.4 2.3 1.3 0 2.4-1.1 2.4-2.3C44.1 1.2 43 .2 41.8.2zm12.8 6.1c-.5-.4-1.4-.5-2.1-.5-3.5 0-6.5 1.9-6.5 7.3 0 5.1 2.9 6.7 5.4 6.7 1.7 0 2.8-.7 3.4-1.5h.1v1.4h.4l5.3-.6V18l-1.4-.8V.3h-.4l-5.6.9v1.2l1.4.6v3.3zm0 10.8c-.3.1-.7.2-1.4.2-1.8 0-2.6-1.4-2.6-4.7 0-3.8 1.1-5 2.5-5 .8 0 1.2.2 1.5.5v9zm13.5-.3c-.2.3-.7.5-1.2.5-.9 0-1.7-.5-1.7-2 0-1.3.8-2 1.9-2.1l1-.1v3.7zm-3.3-9.3h1.1c1.7 0 2.2.9 2.2 2.6v1.8l-2.6.4c-3 .5-4.7 1.1-4.7 3.8 0 2.2 1.5 3.8 3.8 3.8 1.7 0 3.2-.7 3.8-1.9h.1c.2 1.4 1.5 1.9 2.8 1.9 1.1 0 2.1-.3 2.5-.5v-1l-1.4-.7V9.8c0-3-2.1-4.1-5.7-4.1-2.3 0-3.8.6-5.1 1v3.5h2.1l1.1-2.7zm11.8 15.9c-.5 0-1.2 0-1.7-.2v1.6c.6.4 1.3.7 2.2.7 2.2 0 3.7-1 4.7-3.9l5-13.6 1.3-.7V6H83v1.2l1.4.6-2.3 7H82l-2.5-7 1.5-.5V6h-7.7v1.2l1.3.8L80 20.6l-.2.5c-.7 1.6-1.7 2.3-3.2 2.3zM94.7 5.7c-4.1 0-6.9 2.5-6.9 7s2.8 7 6.9 7c4.1 0 6.9-2.5 6.9-7s-2.8-7-6.9-7zm.1 12.2c-1.5 0-2.2-.8-2.2-5.2s.7-5.2 2.2-5.2 2.2.8 2.2 5.2c-.1 4.4-.8 5.2-2.2 5.2zm20.8-.4V8.3h2.2V6h-2.2V4.5c0-1.6.4-2.3 1.6-2.3h.5l.5 1.9h2.3V.7c-1.5-.4-2.5-.5-3.8-.5-1.4 0-2.8.4-3.8 1.2-1.2-.6-2.5-.7-3.7-.7-2.8 0-5.5 1.5-5.5 4.8v.6l-1.5.8v1.5h1.5v9.2l-1.5.7v1.2h7.2v-1.2l-1.3-.7V8.3h3.1v9.2l-1 .7v1.2h7.3v-1.2l-1.9-.7zM108.1 5c0-1.6.4-2.3 1.6-2.3.8 0 1.3.4 1.7 1.1-.1.4-.1.8-.1 1.3v1h-3.1l-.1-1.1zm16.4 2.2c1.1 0 1.7.6 1.7 4.1l-3.7.2c0-3.5.8-4.3 2-4.3zm6 5.9c0-5.6-1.9-7.4-5.9-7.4s-6.6 2.6-6.6 7c0 4.5 2.4 7.1 7 7.1 2.5 0 4.5-1.1 5.1-2v-1.3c-.9.3-1.9.5-3.6.5-2.4 0-3.7-1.2-3.9-3.8l7.9-.1zm.4-6.6v1.2l1.5.7v9.1l-1.4.7v1.2h7.7v-1.2l-1.8-.7v-7.4c.8-.4 1.8-.5 3-.5.4 0 .9 0 1.1.1V5.8c-.1 0-.4-.1-.7-.1-1.5 0-2.6 1-3.4 2.7h-.1V5.7h-.4l-5.5.8zM146 19.8c4.2 0 6-1.9 6-4.7 0-2-1-3.7-3.6-4.3l-1.6-.3c-1.5-.3-1.8-.8-1.8-1.6s.7-1.3 1.8-1.3c.7 0 1.6.2 2 .3l.6 1.8h1.9V6.4c-1.1-.5-2.7-.7-4.2-.7-3.9 0-5.7 1.9-5.7 4.4 0 2 1.1 3.9 3.6 4.5l1.6.4c1.4.3 1.8.7 1.8 1.7 0 1.1-.9 1.3-2.1 1.3-.8 0-1.8-.1-2.1-.4l-.8-2.2h-1.9v3.5c1.1.6 3.1.9 4.5.9z"/></svg>