<?xml version="1.0" encoding="utf-8"?>
<!-- Generator: Adobe Illustrator 15.1.0, SVG Export Plug-In  -->
<!DOCTYPE svg PUBLIC "-//W3C//DTD SVG 1.1//EN" "http://www.w3.org/Graphics/SVG/1.1/DTD/svg11.dtd" [
	<!ENTITY ns_flows "http://ns.adobe.com/Flows/1.0/">
]>
<svg version="1.1"
	 xmlns="http://www.w3.org/2000/svg" xmlns:xlink="http://www.w3.org/1999/xlink" xmlns:a="http://ns.adobe.com/AdobeSVGViewerExtensions/3.0/"
	 x="0px" y="0px" width="50px" height="26px" viewBox="-0.5 0.079 50 26"
	 overflow="visible" enable-background="new -0.5 0.079 50 26" xml:space="preserve">
<defs>
</defs>
<path fill="#197CAA" d="M3.4,8.393v13.516c0,1.149-0.971,1.769-2.075,1.769c-0.442,0-0.884,0-1.325-0.091v1.592
	c0.574,0.353,1.679,0.618,2.827,0.618c3.4,0,5.035-1.768,5.035-4.859V5.565H7.553L1.811,6.449v1.325l1.635,0.618H3.4z M5.61,0
	C4.24,0,3.136,1.059,3.136,2.384c0,1.326,1.104,2.386,2.429,2.386s2.43-1.06,2.43-2.386C7.995,1.059,6.89,0,5.565,0H5.61z
	 M16.388,5.654c-4.108,0-6.935,2.517-6.935,7.067c0,4.683,2.827,7.243,6.979,7.243c4.152,0,7.023-2.561,7.023-7.155
	C23.455,8.216,20.54,5.654,16.388,5.654z M16.388,18.021c-1.458,0-2.209-0.75-2.209-5.301c0-4.328,0.751-5.212,2.209-5.212
	c1.546,0,2.208,0.795,2.208,5.3c0,4.417-0.663,5.3-2.208,5.3V18.021z M29.815,0.132h-0.353l-5.655,0.883v1.325l1.413,0.529v15.814
	c1.193,0.662,3.446,1.237,5.964,1.237c4.195,0,7.374-1.856,7.374-7.422c0-5.035-2.472-6.891-4.855-6.891
	c-1.681,0-2.963,0.751-3.757,1.546h-0.175V0.088L29.815,0.132z M31.317,18.377c-0.795,0-1.237-0.268-1.502-0.445V8.657
	c0.442-0.176,0.884-0.309,1.635-0.309c1.413,0,2.429,0.884,2.429,4.595C33.879,16.829,32.996,18.377,31.317,18.377z M44.128,19.964
	c4.328,0,6.096-1.898,6.096-4.725c0-2.077-0.974-3.843-3.624-4.418l-1.589-0.309c-1.502-0.309-1.855-0.794-1.855-1.59
	c0-0.883,0.707-1.325,1.768-1.325c0.751,0,1.677,0.132,1.988,0.309l0.618,1.855h1.898V6.405C48.323,5.963,46.69,5.697,45.1,5.697
	c-4.064,0-5.831,1.9-5.831,4.506c0,2.032,1.192,3.976,3.667,4.551l1.767,0.441c1.413,0.264,1.766,0.663,1.766,1.678
	c0,1.104-0.882,1.325-2.208,1.325c-0.795,0-1.854-0.089-2.208-0.44l-0.752-2.21h-1.944v3.623c1.326,0.53,3.271,0.883,4.728,0.883
	L44.128,19.964z"/>
</svg>
