<?xml version="1.0" encoding="utf-8"?>
<!-- Generator: Adobe Illustrator 15.1.0, SVG Export Plug-In  -->
<!DOCTYPE svg PUBLIC "-//W3C//DTD SVG 1.1//EN" "http://www.w3.org/Graphics/SVG/1.1/DTD/svg11.dtd" [
	<!ENTITY ns_flows "http://ns.adobe.com/Flows/1.0/">
]>
<svg version="1.1"
	 xmlns="http://www.w3.org/2000/svg" xmlns:xlink="http://www.w3.org/1999/xlink" xmlns:a="http://ns.adobe.com/AdobeSVGViewerExtensions/3.0/"
	 x="0px" y="0px" width="54px" height="54px" viewBox="0 -3.45 54 54" overflow="visible" enable-background="new 0 -3.45 54 54"
	 xml:space="preserve">
<defs>
</defs>
<path fill="#005689" d="M31.95,9.75C31.95,2.4,29.7,1.2,27,1.2s-4.8,1.05-4.8,8.55S24.45,18,27,18C29.7,17.85,31.95,17.1,31.95,9.75
	 M22.2,37.95c-3.45,0-4.35,2.55-4.35,4.35c0,2.7,2.4,5.1,9.45,5.1c7.95,0,10.2-2.25,10.2-5.1c0-2.55-1.95-4.35-5.1-4.35H22.2z
	 M15.75,0.15C6.45,4.35,0,13.65,0,24.6C0,31.95,3,38.7,7.8,43.5v-0.45c0-4.8,4.65-6.6,8.85-7.5c-3.9-0.9-5.85-3.75-5.85-6.6
	c0-3.9,4.35-7.2,6.45-8.7l-0.3-0.15C13.2,18,10.8,14.4,10.8,9.6C10.8,5.55,12.6,2.25,15.75,0.15 M54,24.75
	C54,13.65,47.25,4.05,37.65,0c3.149,2.1,5.1,5.25,5.25,9.45l0.149,0.9c0,8.1-6.6,12.3-16.05,12.3c-2.4,0-4.05-0.15-6.15-0.75
	c-0.9,0.6-1.65,1.65-1.65,2.7c0,1.351,1.2,2.4,2.7,2.4h13.2C43.35,27,47.4,30.3,47.4,37.649c0,2.4-0.45,4.65-1.5,6.45
	C50.85,39,54,32.25,54,24.75"/>
</svg>
