<?xml version="1.0" encoding="utf-8"?>
<!-- Generator: Adobe Illustrator 15.1.0, SVG Export Plug-In  -->
<!DOCTYPE svg PUBLIC "-//W3C//DTD SVG 1.1//EN" "http://www.w3.org/Graphics/SVG/1.1/DTD/svg11.dtd" [
	<!ENTITY ns_flows "http://ns.adobe.com/Flows/1.0/">
]>
<svg version="1.1"
	 xmlns="http://www.w3.org/2000/svg" xmlns:xlink="http://www.w3.org/1999/xlink" xmlns:a="http://ns.adobe.com/AdobeSVGViewerExtensions/3.0/"
	 x="0px" y="0px" width="164px" height="20px" viewBox="-0.167 -0.267 164 20"
	 overflow="visible" enable-background="new -0.167 -0.267 164 20" xml:space="preserve">
<defs>
</defs>
<path fill="#FFBB00" d="M0.088,19.507h7.194v-1.236l-1.324-0.706V8.65c0.574-0.264,1.06-0.353,1.545-0.353
	c1.236,0,1.677,0.442,1.677,1.898v7.325l-1.191,0.706v1.28h6.884v-1.236l-1.191-0.706V8.606c0.441-0.22,1.015-0.309,1.5-0.309
	c1.236,0,1.766,0.442,1.766,1.898v7.325l-1.28,0.75v1.236h7.149v-1.236l-1.412-0.706V9.18c0-2.471-1.148-3.619-3.399-3.619
	c-1.854,0-3.221,0.662-4.414,1.765h-0.131c-0.442-1.191-1.501-1.765-3.09-1.765c-1.854,0-3.001,0.662-4.237,1.765H5.958V5.561H5.649
	L0,6.444v1.147l1.545,0.795v9.268l-1.457,0.53V19.507z M27.451,7.371h1.148c1.765,0,2.207,0.882,2.207,2.56v1.765l-2.56,0.44
	c-3.001,0.575-4.854,1.104-4.854,3.973c0,2.206,1.544,3.752,3.972,3.752c1.677,0,3.31-0.75,3.884-1.942h0.132
	c0.221,1.457,1.501,1.898,2.913,1.898c1.059,0,2.074-0.31,2.516-0.529v-1.017l-1.457-0.706V9.621c0-3.001-2.207-4.06-5.826-4.06
	c-2.383,0-3.972,0.618-5.208,1.059v3.53h2.119l0.882-2.78H27.451z M30.805,16.858c-0.221,0.266-0.75,0.53-1.236,0.53
	c-0.882,0-1.677-0.441-1.677-1.986c0-1.323,0.882-1.985,1.853-2.118l1.06-0.132V16.858z M41.927,19.816
	c4.325,0,6.178-1.942,6.178-4.769c0-2.117-1.059-3.838-3.663-4.412l-1.633-0.353c-1.5-0.31-1.854-0.795-1.854-1.589
	c0-0.883,0.706-1.324,1.765-1.324c0.75,0,1.765,0.177,2.03,0.309l0.573,1.897h1.898v-3.31c-1.06-0.441-2.648-0.706-4.325-0.706
	c-3.973,0-5.738,1.897-5.738,4.501c0,2.029,1.147,3.973,3.663,4.59l1.677,0.353c1.457,0.311,1.766,0.706,1.766,1.767
	c0,1.015-0.883,1.323-2.208,1.323c-0.706,0-1.765-0.177-2.118-0.441l-0.794-2.206h-1.854v3.529c1.236,0.574,3.221,0.884,4.678,0.884
	L41.927,19.816z M50.18,15.754c0,2.915,1.324,4.106,3.972,4.106c1.412,0,2.913-0.354,3.663-0.795v-1.765l-1.457,0.088
	c-1.324,0-1.677-0.661-1.677-1.986V8.209h2.957V5.914h-2.957V2.736L50.18,3.354v2.56l-2.074,0.265v2.03h2.074v7.502V15.754z
	 M70.922,13.107c0-5.737-1.942-7.502-6.047-7.502c-4.06,0-6.708,2.559-6.708,7.061c0,4.635,2.427,7.194,7.061,7.194
	c2.517,0,4.546-1.104,5.208-1.986V16.55c-0.972,0.309-1.941,0.44-3.663,0.44c-2.516,0-3.795-1.236-3.972-3.883h8.077H70.922z
	 M64.833,7.061c1.104,0,1.765,0.574,1.765,4.193l-3.839,0.221C62.758,7.856,63.64,7.061,64.833,7.061z M71.364,6.399v1.191
	l1.501,0.751v9.268l-1.413,0.617v1.324h7.812v-1.324l-1.897-0.617v-7.503c0.75-0.441,1.765-0.529,3.001-0.529
	c0.354,0,0.883,0,1.147,0.088V5.693h-0.706c-1.456,0-2.647,0.883-3.53,2.736h-0.089V5.561h-0.441l-5.429,0.883L71.364,6.399z
	 M88.93,19.816c2.205,0,4.103-1.06,4.853-1.942v-1.235c-0.661,0.176-2.073,0.44-3.31,0.44c-2.206,0-3.884-1.412-3.884-4.634
	c0-3.707,1.147-5.12,2.647-5.12c0.618,0,1.104,0.089,1.324,0.222l0.75,2.648h2.341V6.09c-0.75-0.309-2.736-0.574-4.283-0.574
	c-4.501,0-7.412,2.647-7.412,7.149c0,4.281,2.383,7.061,6.974,7.061V19.816z M94.489,0.838v1.324l1.5,0.574v14.741l-1.324,0.706
	v1.323h7.416v-1.323l-1.457-0.619V0h-0.353l-5.738,0.883L94.489,0.838z M106.582,7.415h1.147c1.767,0,2.295,0.882,2.295,2.559v1.766
	l-2.647,0.442c-2.957,0.573-4.768,1.103-4.768,3.972c0,2.206,1.501,3.75,3.884,3.75c1.767,0,3.311-0.749,3.973-1.939h0.088
	c0.223,1.455,1.457,1.896,2.87,1.896c1.102,0,2.118-0.31,2.559-0.529v-1.017l-1.457-0.705V9.666c0-3.001-2.206-4.06-5.825-4.06
	c-2.339,0-3.882,0.617-5.162,1.059v3.531h2.206l0.883-2.781H106.582z M110.024,16.903c-0.265,0.265-0.75,0.53-1.234,0.53
	c-0.885,0-1.767-0.443-1.767-1.986c0-1.324,0.882-1.986,1.942-2.119l1.059-0.133v3.663V16.903z M121.057,19.86
	c4.414,0,6.18-1.942,6.18-4.768c0-2.117-0.973-3.839-3.62-4.412l-1.588-0.353c-1.501-0.31-1.897-0.795-1.897-1.589
	c0-0.883,0.75-1.324,1.766-1.324c0.795,0,1.764,0.176,2.029,0.309l0.574,1.897h1.896V6.267c-1.103-0.441-2.736-0.706-4.323-0.706
	c-3.972,0-5.738,1.897-5.738,4.501c0,2.029,1.147,3.973,3.619,4.59l1.677,0.353c1.456,0.311,1.767,0.706,1.767,1.767
	c0,1.015-0.884,1.323-2.207,1.323c-0.752,0-1.855-0.177-2.207-0.441l-0.706-2.206h-1.942v3.529c1.323,0.574,3.266,0.884,4.766,0.884
	H121.057z M132.666,19.86c4.413,0,6.177-1.942,6.177-4.768c0-2.117-1.014-3.839-3.618-4.412l-1.589-0.353
	c-1.5-0.31-1.897-0.795-1.897-1.589c0-0.883,0.706-1.324,1.765-1.324c0.707,0,1.678,0.176,1.986,0.309l0.574,1.897h1.898V6.267
	c-1.017-0.441-2.648-0.706-4.239-0.706c-3.971,0-5.734,1.897-5.734,4.501c0,2.029,1.102,3.973,3.617,4.59l1.634,0.353
	c1.457,0.311,1.764,0.706,1.764,1.767c0,1.015-0.881,1.323-2.117,1.323c-0.795,0-1.898-0.177-2.206-0.441l-0.796-2.206h-1.896v3.529
	c1.323,0.574,3.265,0.884,4.722,0.884H132.666z M152.259,13.152c0-5.738-1.986-7.503-6.046-7.503s-6.708,2.56-6.708,7.062
	c0,4.634,2.384,7.192,7.062,7.192c2.471,0,4.545-1.103,5.163-1.985v-1.324c-0.884,0.31-1.896,0.44-3.663,0.44
	c-2.517,0-3.752-1.233-3.972-3.882h8.12H152.259z M146.081,7.105c1.148,0,1.767,0.574,1.767,4.192l-3.752,0.221
	C144.095,7.9,144.844,7.105,146.081,7.105z M157.644,19.903c4.324,0,6.091-1.985,6.091-4.855c0-2.028-0.972-3.75-3.62-4.323
	l-1.588-0.354c-1.501-0.309-1.854-0.794-1.854-1.589c0-0.882,0.707-1.324,1.767-1.324c0.75,0,1.676,0.177,1.986,0.309l0.573,1.898
	h1.897V6.267c-1.104-0.441-2.737-0.706-4.324-0.706c-3.973,0-5.739,1.897-5.739,4.501c0,2.029,1.149,3.973,3.621,4.59l1.675,0.353
	c1.457,0.311,1.767,0.706,1.767,1.767c0,1.015-0.883,1.323-2.207,1.323c-0.75,0-1.765-0.177-2.207-0.441l-0.706-2.206h-1.942v3.529
	c1.324,0.574,3.31,0.884,4.768,0.884L157.644,19.903z"/>
</svg>
