<svg xmlns="http://www.w3.org/2000/svg" width="48" height="37" viewBox="0 0 48 37">
  <path stroke="currentColor" d="M26.3 26.2" style="fill:none;stroke-linecap:round;stroke-linejoin:round;stroke-miterlimit:10;stroke-width:3;"/>
  <path stroke="currentColor" d="m34.8 1.9c-2.8 0-5.7 3-5.7 7.6 0 13.8 17.6 17.3 17.6 17.3M21.5 30.6c-0.1 0.3-0.3 0.6-0.3 0.8-0.1 0.6-0.1 0.8-0.1 1.1 0 1.8 1.3 3.2 2.9 3.2 1.6 0 2.9-1.4 2.9-3.2 0-1.1-0.4-3.8-3.2-5C19 25.5 6.4 20.4 6.4 9.5c0-4.6 3-7.6 5.7-7.6M12.2 1.9c2.8 0 5.7 3 5.7 7.6 0 13.8-16.6 18.3-16.6 18.3" style="fill:none;stroke-linecap:round;stroke-linejoin:round;stroke-miterlimit:10;stroke-width:2.57855272;"/>
  <path stroke="currentColor" d="m23.5 27.5c4.5-1.9 17.1-7 17.1-18 0-4.6-3-7.6-5.7-7.6" style="fill:none;stroke-linecap:round;stroke-linejoin:round;stroke-miterlimit:10;stroke-width:2.57855272;"/>
</svg>
