<svg xmlns="http://www.w3.org/2000/svg" width="220" height="238"><path fill="#995490" d="M0 21.614l22.713 215.386h196.487l-24.499-236.8-194.701 21.414z"/><path fill="#70BACF" d="M18.25.3l-12.85 236.7h189.785l15.815-227.661-192.75-9.039z"/><path fill="#332E2E" d="M212.8 237l-10.3-215.3-195.9 9.5 9.8 205.8h196.4z"/><path fill="#fff" d="M87.8 12.3h-.2l-3.4.5v.8l.8.4v5l-.8.4v.9h4.4v-.9l-.8-.4v-6.7zm17 6.8v-4.7c0-1.4-.7-2.1-2.1-2.1-1.1 0-2 .4-2.7 1v-1h-.2l-3.3.5v.8l.9.4v5.1l-.8.4v.8h4.4v-.8l-.8-.4v-4.9c.3-.1.6-.2 1-.2.7 0 1 .3 1 1.1v4l-.8.4v.8h4.4v-.8l-1-.4zm-21.6-10h-.2l-3.4.5v.8l.9.4v1.8c-.3-.2-.7-.3-1.2-.3-2.1 0-3.9 1.1-3.9 4.3 0 3 1.8 3.9 3.2 3.9 1 0 1.6-.4 2-.8h.1v.8h.2l3.2-.3v-.8l-.8-.5-.1-9.8zm-2.8 9.7c-.2.1-.3.2-.7.2-.9 0-1.4-.7-1.4-2.7 0-2.2.5-2.8 1.3-2.8.5 0 .6.1.8.3v5zm-54.6-1v-3.9h1.6v-1.5h-1.6v-1.8l-2.7.4v1.5l-1.1.1v1.3h1.1v4.2c0 1.6.8 2.3 2.3 2.3.8 0 1.7-.2 2.1-.5v-1.1c-.2 0-.4.1-.7.1-.5 0-1-.3-1-1.1zm14.6-5.5c-2.3 0-3.9 1.5-3.9 4.1 0 2.6 1.5 4.1 4.1 4.1 1.4 0 2.6-.6 3-1.1v-.8c-.5.2-1.1.3-2.1.3-1.3 0-2.2-.7-2.3-2.1h4.6c0-3.5-1.1-4.5-3.4-4.5zm-1.1 3.2c.1-2 .4-2.3 1.1-2.3.5 0 .9.5.9 2.2l-2 .1zm36.1-.7v-2.4h-.4c-.9 0-1.5.6-1.9 1.7h-.1v-1.7h-.2l-3.3.5v.8l.9.4v5.1l-.8.4v.8h4.6v-.8l-1-.4v-4.1c.4-.2.9-.3 1.6-.3.2-.1.5-.1.6 0zm-6.8-.2c0-1.7-1.3-2.4-3.4-2.4-1.4 0-2.3.4-3.1.6v2h1.3l.5-1.4h.7c1 0 1.2.3 1.2 1.3v.9l-1.4.4c-1.7.4-2.8.7-2.8 2.3 0 1.3.8 2.2 2.2 2.2 1 0 2-.4 2.3-1.1h.1c.1.8.8 1.1 1.7 1.1.6 0 1.3-.2 1.5-.3v-.7l-.8-.4v-4.5zm-2.8 4c-.1.2-.3.3-.6.3-.5 0-.8-.2-.8-1.1 0-.7.3-1.1.9-1.2l.5-.1v2.1zm29.7-4c0-1.7-1.3-2.4-3.4-2.4-1.4 0-2.3.4-3.1.6v2h1.3l.5-1.4h.7c1 0 1.2.3 1.2 1.3v.9l-1.3.4c-1.7.4-2.8.7-2.8 2.3 0 1.3.8 2.2 2.2 2.2 1 0 2-.4 2.3-1.1h.1c.1.8.8 1.1 1.7 1.1.6 0 1.3-.2 1.5-.3v-.7l-.8-.4-.1-4.5zm-2.7 4c-.1.2-.3.3-.6.3-.5 0-.8-.2-.8-1.1 0-.7.3-1.1.9-1.2l.5-.1v2.1zm-32-6.3h-.2l-3.4.5v.6l.9.4v4.7c-.2.1-.4.2-.8.2-.7 0-1.1-.2-1.1-1v-5.4h-.2l-3.3.5v.6l.8.4v4.2c0 1.4.8 2.5 2.3 2.5 1.1 0 1.9-.5 2.4-1.1h.1v1.1h.2l3.2-.3v-.7l-.9-.5v-6.7zm-24.8 2.1c0-1.4-.7-2.1-2.1-2.1-1.1 0-1.9.4-2.6 1h-.1v-4.2h-.2l-3.4.5v.8l.9.4v8.3l-.8.4v.8h4.3v-.8l-.8-.4v-4.9c.3-.1.6-.2 1-.2.7 0 1 .3 1 1.1v4l-.8.4v.8h4.4v-.8l-.8-.4v-4.7zm14.2 4.1h-2.6c-.4 0-.6-.1-.6-.4 0-.2.1-.4.3-.6.4.1.8.1 1.2.1 2 0 3.4-.9 3.4-2.6 0-.6-.2-1.2-.7-1.6v-.1l1.1.4h.2v-1.6h-.2l-1.8.6h-.1c-.5-.3-1.1-.5-1.9-.5-2 0-3.4 1-3.4 2.7 0 1 .5 1.8 1.3 2.2v.1c-.7.3-1.3.9-1.3 1.6 0 .8.5 1.4 1.1 1.6v.1c-.9.2-1.7.5-1.7 1.4 0 1 1.4 1.8 3.8 1.8 3 0 4.4-1.2 4.4-3 .1-1.4-.8-2.2-2.5-2.2zm36.3-6.5c.828 0 1.5-.672 1.5-1.5s-.672-1.5-1.5-1.5-1.5.672-1.5 1.5.672 1.5 1.5 1.5zm-38 1.3c.6 0 .8.4.8 1.7 0 1.4-.3 1.6-.8 1.6s-.8-.5-.8-1.6c0-1.2.2-1.7.8-1.7zm-.2 9.5c-1.3 0-1.6-.5-1.6-1 0-.3.1-.5.3-.8h2.6c.6 0 .9.3.9.7.1.7-.6 1.1-2.2 1.1z"/></svg>