<?xml version="1.0" standalone="no"?> <!DOCTYPE svg PUBLIC "-//W3C//DTD SVG 1.0//EN" "http://www.w3.org/TR/2001/REC-SVG-20010904/DTD/svg10.dtd" > <svg xmlns="http://www.w3.org/2000/svg" width="100%" height="100%">
<defs >
<font id="GuardianTextEgyptianWeb-Black" horiz-adv-x="577" ><font-face
    font-family="GuardianTextEgyptianWeb"
    units-per-em="1000"
    panose-1="2 6 10 3 5 5 3 6 8 3"
    ascent="783"
    descent="-217"
    alphabetic="0" />
<missing-glyph horiz-adv-x="500" />
<glyph unicode=" " glyph-name="space" horiz-adv-x="201" />
<glyph unicode="!" glyph-name="exclam" horiz-adv-x="279" d="M42 721H237L191 234H82L42 721ZM139 -12Q97 -12 72 15T46 80Q46 118 71 145T139 173Q180 173 206 146T232 80Q232 43 206 16T139 -12Z" />
<glyph unicode="&quot;" glyph-name="quotedbl" horiz-adv-x="471" d="M43 721H213L190 458H66L43 721ZM259 721H428L405 458H282L259 721Z" />
<glyph unicode="#" glyph-name="numbersign" horiz-adv-x="548" d="M65 522H158L182 670H277L253 522H352L376 670H471L447 522H517V383H425L412 298H481V159H390L365 0H270L295 159H196L171 0H76L101 159H31V298H123L136 383H65V522ZM217 290H316L332 391H233L217 290Z" />
<glyph unicode="$" glyph-name="dollar" horiz-adv-x="600" d="M177 -143L198 -7Q156 -3 118 3T53 21L43 193H156L184 100Q191 96 199 94T219 89L247 271L224 278Q181 290 148 306T93 346T59 402T47 478Q47 524 62 561T109 625T189 667T304 683L317 768H402L388
680Q432 675 462 668T513 654L522 500H411L393 574Q381 579 367 582L342 418L368 411Q414 397 449 381T507 341T542 285T554 206Q554 105 486 48T282 -11L262 -143H177ZM391 167Q391 198 376 216T316 251L291 84Q343 86 367 107T391 167ZM203 517Q203 488 218 471T272
440L295 589Q253 588 228 570T203 517Z" />
<glyph unicode="%" glyph-name="percent" horiz-adv-x="900" d="M217 292Q182 292 150 303T93 337T53 396T38 482Q38 533 53 570T94 631T151 666T217 678Q250 678 282 667T339 633T381 573T397 487Q397 436 382 399T341 338T284 303T217 292ZM681 -11Q646 -11
614 0T558 34T518 93T503 179Q503 230 518 267T559 328T616 363T682 374Q715 374 747 363T804 329T846 270T862 184Q862 133 847 96T806 36T748 1T681 -11ZM630 686H726L263 -37H167L630 686ZM217 367Q245 367 254 395T263 483Q263 544 254 573T217 603Q189 603
181 575T172 487Q172 427 180 397T217 367ZM682 64Q710 64 718 90T727 179Q727 239 719 269T682 299Q654 299 645 271T636 183Q636 123 645 94T682 64Z" />
<glyph unicode="&amp;" glyph-name="ampersand" horiz-adv-x="772" d="M294 -12Q231 -12 181 1T96 41T43 106T24 196Q24 234 36 263T69 316T119 358T182 392Q156 430 144 465T131 540Q131 582 146 617T190 678T261 718T357 733Q405 733 444 721T510 687T553 636T568
570Q568 535 556 510T522 464T471 427T409 396L558 235Q577 272 588 318L542 332V413H760V332L703 317Q678 235 623 165L686 97L740 81V0H532L490 46Q445 19 396 4T294 -12ZM216 225Q216 166 251 134T344 102Q387 102 426 116L240 322Q225 302 221 279T216 225ZM418
565Q418 609 401 625T361 642Q337 642 321 625T304 562Q304 527 318 502T355 453Q391 476 404 503T418 565Z" />
<glyph unicode="&apos;" glyph-name="quotesingle" horiz-adv-x="256" d="M43 721H213L190 458H66L43 721Z" />
<glyph unicode="(" glyph-name="parenleft" horiz-adv-x="365" d="M298 -146Q247 -109 199 -66T113 32T52 156T29 314Q29 395 51 463T111 587T197 690T298 774L350 726Q316 686 289 644T242 554T212 452T201 331Q201 253 211 193T239 82T286 -12T350 -98L298 -146V-146Z" />
<glyph unicode=")" glyph-name="parenright" horiz-adv-x="365" d="M15 -98Q49 -58 76 -16T123 74T153 176T164 297Q164 375 154 435T126 546T79 640T15 726L67 774Q118 737 166 694T252 596T313 472T336 314Q336 233 314 165T254 41T168 -62T67 -146L15 -98Z" />
<glyph unicode="*" glyph-name="asterisk" horiz-adv-x="446" d="M207 515L98 404L38 511L188 544L38 576L98 683L207 572L158 721H288L239 572L348 683L408 576L258 544L408 511L348 404L239 515L288 366H158L207 515Z" />
<glyph unicode="+" glyph-name="plus" horiz-adv-x="600" d="M55 374H246V578H354V374H545V275H354V71H246V275H55V374Z" />
<glyph unicode="," glyph-name="comma" horiz-adv-x="303" d="M28 -126Q88 -90 118 -56T154 26Q143 18 123 18Q94 18 71 39T47 101Q47 142 75 167T145 192Q196 192 227 157T258 61Q258 27 249 -7T217 -72T155 -131T55 -177L28 -126V-126Z" />
<glyph unicode="-" glyph-name="hyphen" horiz-adv-x="369" d="M39 361H330V229H39V361Z" />
<glyph unicode="." glyph-name="period" horiz-adv-x="303" d="M151 -14Q128 -14 109 -6T77 17T56 49T48 89Q48 132 76 162T151 192Q197 192 225 162T254 89Q254 68 247 50T226 17T193 -5T151 -14Z" />
<glyph unicode="/" glyph-name="slash" horiz-adv-x="392" d="M267 762H370L104 -125H1L267 762Z" />
<glyph unicode="0" glyph-name="zero" horiz-adv-x="600" d="M299 -11Q243 -11 194 7T109 63T51 162T30 306Q30 393 53 454T114 555T201 612T303 630Q358 630 406 612T491 556T549 457T570 312Q570 225 548 164T487 64T400 7T299 -11ZM301 85Q319 85 333 93T358
125T375 192T381 304Q381 380 376 425T361 495T335 526T300 534Q282 534 267 525T242 492T225 425T219 314Q219 238 224 193T239 124T265 93T301 85Z" />
<glyph unicode="1" glyph-name="one" horiz-adv-x="600" d="M78 79L209 97V448L77 434V519L307 623H402V97L529 79V0H78V79Z" />
<glyph unicode="2" glyph-name="two" horiz-adv-x="600" d="M230 527Q222 527 214 527T198 525L181 434H64V592Q108 609 166 619T289 629Q408 629 469 581T531 447Q531 406 519 373T481 310T412 248T309 178L228 128V126H536L525 0H56V105L208 235Q272 290 297
334T322 422Q322 471 300 499T230 527Z" />
<glyph unicode="3" glyph-name="three" horiz-adv-x="600" d="M222 532Q215 532 209 532T197 531L179 439H63V597Q105 611 160 620T276 629Q391 629 451 583T512 446Q512 381 474 339T364 280V276Q442 265 490 222T538 97Q538 -1 464 -57T255 -113Q178 -113 129
-98T49 -64V23Q78 13 116 6T197 -1Q266 -1 298 25T331 108Q331 217 218 217H154V315H206Q264 315 292 343T321 421Q321 477 298 504T222 532Z" />
<glyph unicode="4" glyph-name="four" horiz-adv-x="600" d="M307 70H25V162L331 617H501V174H570V70H501V-106H307V70ZM307 174V428H303L140 177V174H307Z" />
<glyph unicode="5" glyph-name="five" horiz-adv-x="600" d="M259 -114Q184 -114 136 -99T55 -65V21Q86 11 122 5T203 -2Q264 -2 299 25T335 119Q335 153 325 176T297 213T252 233T193 239Q137 239 87 228L108 617H504L494 474H209L199 325Q216 334 245 339T311
345Q359 345 400 333T472 294T520 227T537 130Q537 78 520 34T468 -44T381 -95T259 -114Z" />
<glyph unicode="6" glyph-name="six" horiz-adv-x="600" d="M310 -13Q179 -13 108 79T37 340Q37 445 63 519T134 641T235 710T354 732Q418 732 459 721T527 691V600Q504 608 472 611T402 615Q369 615 339 604T286 567T249 500T233 398Q259 423 293 436T371 450Q466
450 517 396T569 242Q569 188 554 142T506 61T425 7T310 -13ZM309 84Q344 84 361 115T378 221Q378 293 359 321T304 350Q281 350 265 345T234 329Q233 320 233 309T233 285Q233 177 250 131T309 84Z" />
<glyph unicode="7" glyph-name="seven" horiz-adv-x="600" d="M441 476V481H177L155 407H51L61 617H552V509L319 -104H111L441 476Z" />
<glyph unicode="8" glyph-name="eight" horiz-adv-x="600" d="M298 -11Q162 -11 96 41T29 185Q29 244 67 284T167 348V352Q108 381 80 424T51 530Q51 575 68 612T118 675T198 715T307 730Q427 730 487 682T547 553Q547 524 536 501T507 459T465 426T413 402V397Q448
383 477 367T527 327T559 274T571 203Q571 100 500 45T298 -11ZM288 83Q342 83 368 106T395 173Q395 198 385 217T355 251T307 280T242 308Q213 288 196 257T179 181Q179 133 208 108T288 83ZM338 443Q362 460 380 484T398 547Q398 572 391 589T372 616T344 631T310
636Q274 636 249 616T224 554Q224 513 252 490T338 443Z" />
<glyph unicode="9" glyph-name="nine" horiz-adv-x="600" d="M290 629Q421 629 492 537T563 276Q563 171 538 97T470 -25T369 -94T246 -116Q177 -116 135 -104T66 -72V19Q89 11 124 6T198 1Q235 1 265 12T318 49T352 116T367 218Q341 193 307 180T229 166Q134
166 83 220T31 374Q31 428 46 474T94 555T175 609T290 629ZM291 532Q256 532 239 501T222 395Q222 323 241 295T296 266Q319 266 335 271T366 287Q367 296 367 307T367 331Q367 439 350 485T291 532Z" />
<glyph unicode=":" glyph-name="colon" horiz-adv-x="311" d="M155 289Q132 289 113 297T81 320T60 352T52 392Q52 435 80 465T155 495Q201 495 229 465T258 392Q258 371 251 353T230 320T197 298T155 289ZM155 -14Q132 -14 113 -6T81 17T60 49T52 89Q52 132 80
162T155 192Q201 192 229 162T258 89Q258 68 251 50T230 17T197 -5T155 -14Z" />
<glyph unicode=";" glyph-name="semicolon" horiz-adv-x="311" d="M32 -126Q92 -90 122 -56T158 26Q147 18 127 18Q98 18 75 39T51 101Q51 142 79 167T149 192Q200 192 231 157T262 61Q262 27 253 -7T221 -72T159 -131T59 -177L32 -126ZM155 289Q132 289 113 297T81
320T60 352T52 392Q52 435 80 465T155 495Q201 495 229 465T258 392Q258 371 251 353T230 320T197 298T155 289Z" />
<glyph unicode="&lt;" glyph-name="less" horiz-adv-x="600" d="M75 262V359L520 550V440L199 311L520 181V71L75 262Z" />
<glyph unicode="=" glyph-name="equal" horiz-adv-x="600" d="M57 436H543V337H57V436ZM57 230H543V131H57V230Z" />
<glyph unicode="&gt;" glyph-name="greater" horiz-adv-x="600" d="M81 181L402 310L81 440V550L526 359V262L81 71V181Z" />
<glyph unicode="?" glyph-name="question" horiz-adv-x="479" d="M181 630Q170 630 161 630T144 628L130 552H19V704Q53 715 104 723T206 732Q259 732 304 724T381 694T432 639T450 552Q450 517 440 491T413 443T373 403T324 367Q278 336 250 315T221 265Q221
259 222 251T225 233H139Q132 247 127 264T122 307Q122 345 138 371T187 427Q214 452 234 480T254 551Q254 596 234 613T181 630ZM192 -13Q149 -13 123 16T97 84Q97 123 123 151T192 180Q236 180 262 152T288 84Q288 45 262 16T192 -13Z" />
<glyph unicode="@" glyph-name="at" horiz-adv-x="949" d="M466 -161Q371 -161 294 -134T162 -55T77 69T47 234Q47 330 81 416T178 566T325 669T513 707Q598 707 669 682T792 609T873 493T902 338Q902 262 880 206T822 114T740 59T645 41Q588 41 558 60T515 111H510Q456
50 377 50Q350 50 327 61T287 93T260 145T250 216Q250 278 267 329T315 417T388 474T479 494Q521 494 547 484T593 460L617 485H706L649 182Q644 153 650 141T680 129Q699 129 723 139T768 174T803 238T818 336Q818 405 798 460T739 553T643 610T513 630Q428 630
358 600T239 516T162 391T135 238Q135 80 222 -2T472 -84Q540 -84 601 -73T698 -49V-117Q653 -137 594 -149T466 -161ZM447 155Q464 155 476 163T500 181L535 376Q530 389 521 399T492 410Q474 410 458 396T430 357T411 297T404 220Q404 155 447 155Z" />
<glyph unicode="A" glyph-name="A" horiz-adv-x="736" d="M12 81L67 99L277 721H462L666 99L724 81V0H386V81L454 99L421 211H218L185 99L253 81V0H12V81ZM243 293H398L365 408Q357 435 350 464T337 519Q331 548 325 577H320Q314 549 307 520Q301 495 294 465T278
408L243 293Z" />
<glyph unicode="B" glyph-name="B" horiz-adv-x="676" d="M21 81L91 99V623L22 640V721H370Q492 721 556 676T620 540Q620 508 613 482T588 434T541 398T466 374V369Q518 363 553 350T611 316T642 264T652 195Q652 103 589 52T387 0H21V81ZM348 96Q396 96 419
121T442 210Q442 273 419 298T348 323H289V96H348ZM341 411Q360 411 375 415T401 432T418 464T424 515Q424 577 402 601T340 625H289V411H341Z" />
<glyph unicode="C" glyph-name="C" horiz-adv-x="673" d="M372 -12Q297 -12 234 8T124 72T51 186T25 355Q25 460 56 532T139 649T256 713T391 733Q424 733 456 731T516 724T568 714T608 701L615 507H495L467 604Q453 610 432 615T385 621Q347 621 320 609T274
569T247 492T238 372Q238 288 246 235T273 152T321 111T391 100Q418 100 440 106T477 120L504 220H622L614 28Q576 11 517 0T372 -12Z" />
<glyph unicode="D" glyph-name="D" horiz-adv-x="734" d="M22 81L91 99V623L23 640V721H359Q440 721 504 702T613 640T682 532T706 372Q706 275 681 205T611 90T502 22T363 0H22V81ZM351 104Q387 104 414 113T459 150T486 227T496 358Q496 448 486 499T456 577T407
609T341 616H293V104H351Z" />
<glyph unicode="E" glyph-name="E" horiz-adv-x="649" d="M22 81L91 99V623L22 640V721H604L612 518H511L483 622H286V414H360L377 483H460V251H377L360 321H286V100H487L526 226H629L619 0H22V81Z" />
<glyph unicode="F" glyph-name="F" horiz-adv-x="645" d="M22 81L91 99V623L22 640V721H613L622 510H517L489 617H292V397H367L384 466H467V229H384L367 300H292V98L371 81V0H22V81Z" />
<glyph unicode="G" glyph-name="G" horiz-adv-x="719" d="M399 -13Q313 -13 244 7T127 72T53 186T27 355Q27 460 58 532T141 649T262 713T408 733Q476 733 534 724T627 700L635 514H518L488 604Q472 612 449 616T394 621Q314 621 277 565T239 377Q239 290 247
235T274 150T321 108T393 96Q412 96 429 99T458 107V252L392 268V350H699V268L645 252V27Q604 12 539 0T399 -13Z" />
<glyph unicode="H" glyph-name="H" horiz-adv-x="785" d="M23 81L92 99V623L23 640V721H353V640L294 624V417H490V624L431 640V721H761V640L692 623V99L762 81V0H431V81L490 97V321H294V97L353 81V0H23V81Z" />
<glyph unicode="I" glyph-name="I" horiz-adv-x="382" d="M20 81L90 99V623L20 640V721H361V640L291 623V99L361 81V0H20V81Z" />
<glyph unicode="J" glyph-name="J" horiz-adv-x="479" d="M175 -8Q142 -8 118 -5T74 4T41 15T15 28V132Q33 127 51 123T101 119Q145 119 170 141T195 218V623L126 640V721H462V640L397 623V215Q397 106 342 49T175 -8Z" />
<glyph unicode="K" glyph-name="K" horiz-adv-x="743" d="M21 81L90 99V623L21 640V721H350V640L291 624V362L509 624L448 640V721H712V640L652 621L488 432L678 98L729 81V0H507L344 293L291 255V97L350 81V0H21V81Z" />
<glyph unicode="L" glyph-name="L" horiz-adv-x="616" d="M22 81L91 99V623L22 640V721H367V640L293 624V101H453L493 247H602L589 0H22V81Z" />
<glyph unicode="M" glyph-name="M" horiz-adv-x="942" d="M23 81L92 99V623L23 640V721H342L400 510Q412 466 422 414T440 315Q449 261 456 207H460Q468 261 478 315Q486 361 497 413T520 510L578 721H919V640L847 623V99L919 81V0H598V81L652 98V356Q652 394
654 441T658 530Q661 578 665 628H660Q648 578 637 530Q627 488 616 442T594 357L500 27H362L267 350Q256 388 244 436T223 527Q212 577 202 628H197Q200 578 203 529Q205 487 207 440T209 355V98L264 81V0H23V81Z" />
<glyph unicode="N" glyph-name="N" horiz-adv-x="733" d="M23 81L93 99V623L23 640V721H292L431 479Q449 448 466 413T497 346Q513 310 527 274H532V622L464 640V721H714V640L653 623V0H488L312 312Q293 344 277 380T247 448Q232 484 219 520H215V98L281 81V0H23V81Z" />
<glyph unicode="O" glyph-name="O" horiz-adv-x="730" d="M362 -12Q290 -12 229 10T124 78T54 193T29 356Q29 455 57 526T133 643T241 711T367 733Q439 733 500 711T606 643T676 528T701 365Q701 267 673 196T597 78T489 10T362 -12ZM364 95Q394 95 417 107T457
149T481 228T490 352Q490 435 483 488T459 572T420 614T364 626Q334 626 311 614T272 571T247 492T238 370Q238 288 245 235T268 151T307 108T364 95Z" />
<glyph unicode="P" glyph-name="P" horiz-adv-x="646" d="M21 81L90 99V623L21 640V721H356Q429 721 481 706T567 662T615 592T631 499Q631 383 568 327T394 271Q359 271 336 274T292 283V98L373 81V0H21V81ZM292 372Q303 370 316 369T345 368Q391 368 411 395T431
493Q431 559 411 587T345 616H292V372Z" />
<glyph unicode="Q" glyph-name="Q" horiz-adv-x="730" d="M284 -12Q235 2 189 26T108 92T51 199T29 356Q29 455 57 526T133 643T241 711T367 733Q439 733 500 711T606 643T676 528T701 365Q701 294 686 240T642 148T567 86T462 50V44L738 17L709 -132L284 -12ZM364
92Q395 92 418 105T458 148T482 228T490 352Q490 435 483 488T459 572T420 614T364 626Q334 626 311 614T272 571T247 492T238 370Q238 288 245 235T268 150T307 105T364 92Z" />
<glyph unicode="R" glyph-name="R" horiz-adv-x="715" d="M21 81L92 99V621L23 640V721H379Q450 721 501 706T585 663T633 595T649 506Q649 470 639 443T611 395T571 359T522 334V330L658 96L703 81V0H493L337 291H294V97L350 81V0H21V81ZM359 385Q407 385 428
413T450 504Q450 564 426 591T352 619H290V385H359Z" />
<glyph unicode="S" glyph-name="S" horiz-adv-x="579" d="M269 -12Q238 -12 207 -10T145 -3T89 8T42 23L32 197H150L176 109Q193 101 214 97T264 92Q312 92 340 113T368 173Q368 193 361 208T338 235T301 258T251 280L210 296Q170 311 139 329T85 372T50 433T38
517Q38 565 54 605T103 673T188 718T310 734Q384 734 431 725T508 705L518 548H400L382 615Q368 622 349 627T304 632Q210 632 210 558Q210 523 234 503T314 463L355 449Q401 432 437 414T499 371T538 310T551 221Q551 112 478 50T269 -12Z" />
<glyph unicode="T" glyph-name="T" horiz-adv-x="673" d="M160 81L235 99V622H151L128 495H16L25 721H647L655 495H543L520 622H436V99L511 81V0H160V81Z" />
<glyph unicode="U" glyph-name="U" horiz-adv-x="724" d="M379 -13Q301 -13 245 4T153 52T100 129T82 231V623L18 640V721H347V640L284 624V248Q284 204 292 176T316 130T354 106T405 99Q433 99 456 106T496 130T522 175T531 248V624L467 640V721H706V640L646
623V243Q646 189 632 143T585 62T502 7T379 -13Z" />
<glyph unicode="V" glyph-name="V" horiz-adv-x="719" d="M66 623L13 640V721H343V640L276 623L341 404Q352 366 362 322T380 237Q390 190 398 144H403Q414 191 425 238Q434 278 445 322T466 404L527 623L460 640V721H706V640L651 623L456 0H271L66 623Z" />
<glyph unicode="W" glyph-name="W" horiz-adv-x="1012" d="M65 623L15 640V721H328V640L268 623L298 476Q306 434 314 381T329 280Q336 225 343 168H348Q357 222 367 277Q375 324 385 377T407 474L465 721H616L677 489Q686 454 697 400T718 293Q729 232 741 167H746Q754
232 763 294Q767 320 771 347T779 401T787 450T795 491L821 623L756 640V721H997V640L943 623L811 0H615L562 232Q554 270 546 316T531 405Q523 453 517 501H512Q505 453 497 405Q490 363 482 317T464 232L407 0H208L65 623Z" />
<glyph unicode="X" glyph-name="X" horiz-adv-x="733" d="M23 81L79 96L244 362L86 623L29 640V721H363V640L314 626L412 445H416L512 626L457 640V721H699V640L646 623L491 365L652 99L710 81V0H378V81L429 95L323 289H319L214 96L264 81V0H23V81Z" />
<glyph unicode="Y" glyph-name="Y" horiz-adv-x="684" d="M174 81L248 99V288L67 623L15 640V721H327V640L275 625L387 391H391L495 626L443 640V721H669V640L615 623L448 291V99L521 81V0H174V81Z" />
<glyph unicode="Z" glyph-name="Z" horiz-adv-x="607" d="M22 102L357 616V621H187L148 507H36L46 721H581V618L246 104V100H432L472 230H584L574 0H22V102Z" />
<glyph unicode="[" glyph-name="bracketleft" horiz-adv-x="383" d="M54 762H342V681L227 663V-27L342 -44V-125H54V762Z" />
<glyph unicode="\" glyph-name="backslash" horiz-adv-x="392" d="M22 762H125L391 -125H288L22 762Z" />
<glyph unicode="]" glyph-name="bracketright" horiz-adv-x="381" d="M41 -44L156 -27V663L41 681V762H328V-125H41V-44Z" />
<glyph unicode="^" glyph-name="asciicircum" horiz-adv-x="473" d="M180 721H292L447 446H356L236 574L117 446H26L180 721Z" />
<glyph unicode="_" glyph-name="underscore" horiz-adv-x="385" d="M-2 -79H387V-170H-2V-79Z" />
<glyph unicode="`" glyph-name="grave" horiz-adv-x="500" d="M92 691L152 823L387 679L358 613L92 691Z" />
<glyph unicode="a" glyph-name="a" horiz-adv-x="552" d="M211 475Q204 475 198 475T184 474L170 386H54V531Q92 543 149 555T279 567Q389 567 437 523T486 385V120Q486 100 496 93T522 86H539V14Q525 4 495 -4T431 -13Q388 -13 362 3T324 59H319Q299 27 262 7T174
-14Q101 -14 59 29T16 141Q16 183 29 211T68 258T129 289T210 310L303 328V358Q303 411 283 443T211 475ZM251 86Q268 86 281 92T303 107V251L256 248Q224 246 210 229T196 169Q196 126 209 106T251 86Z" />
<glyph unicode="b" glyph-name="b" horiz-adv-x="609" d="M293 -13Q215 -13 153 1T55 37V673L-6 690V768L221 793L237 785V504H244Q268 530 302 549T391 568Q427 568 462 556T524 512T568 430T585 300Q585 214 564 155T504 58T412 4T293 -13ZM298 82Q320 82 338
90T368 119T386 178T393 276Q393 325 388 358T371 412T344 440T306 449Q283 449 266 445T237 434V101Q248 94 260 88T298 82Z" />
<glyph unicode="c" glyph-name="c" horiz-adv-x="514" d="M301 -13Q230 -13 177 7T90 64T38 154T21 274Q21 350 42 405T103 497T196 550T318 567Q367 567 412 560T481 544V371H365L352 465Q345 468 337 470T309 473Q287 473 270 464T240 433T221 377T214 291Q214
236 224 201T252 144T298 115T359 107Q398 107 431 114T484 130V44Q472 35 455 25T415 7T364 -7T301 -13Z" />
<glyph unicode="d" glyph-name="d" horiz-adv-x="635" d="M234 -12Q196 -12 159 1T92 46T44 131T25 264Q25 348 45 405T100 499T183 551T285 567Q317 567 336 562T373 544V673L309 689V768L538 793L555 785V107L612 91V15L407 -10L391 -3V58H385Q364 24 325 6T234
-12ZM305 103Q326 103 343 108T373 121V449Q362 457 349 463T311 469Q290 469 273 462T243 435T224 378T217 283Q217 230 222 196T239 141T267 112T305 103Z" />
<glyph unicode="e" glyph-name="e" horiz-adv-x="557" d="M306 -13Q164 -13 93 62T21 279Q21 347 40 400T95 491T180 547T291 567Q352 567 398 550T474 495T519 397T534 249H207Q211 205 222 177T252 132T296 109T355 102Q408 102 443 110T508 127V49Q479 26 431
7T306 -13ZM358 330Q358 375 353 404T339 449T316 471T288 477Q272 477 258 471T233 448T215 403T205 330H358Z" />
<glyph unicode="f" glyph-name="f" horiz-adv-x="386" d="M348 707Q343 708 338 708T328 709Q293 709 276 681T259 604V555H366V460H259V92L330 76V0H19V76L77 92V460H18V531L77 553V608Q77 660 96 695T148 751T221 782T307 791Q347 791 383 787T466 770V632H360L348
707Z" />
<glyph unicode="g" glyph-name="g" horiz-adv-x="584" d="M260 -222Q130 -222 67 -187T3 -95Q3 -49 39 -21T130 21V26Q86 37 67 61T47 118Q47 152 70 184T133 244Q89 261 66 296T42 380Q42 425 59 459T108 518T183 554T280 566Q315 566 348 560T405 545L567 572V464L475
473V469Q495 453 504 432T513 381Q513 297 451 254T280 210Q255 210 234 212T192 220Q181 209 177 199T173 178Q173 164 184 155T221 146H397Q472 146 517 109T563 -9Q563 -53 547 -91T494 -159T401 -205T260 -222ZM270 -134Q342 -134 372 -114T402 -58Q402 -27
387 -15T338 -3H202Q186 -10 172 -26T158 -68Q158 -82 163 -94T180 -115T214 -129T270 -134ZM280 284Q307 284 326 305T345 385Q345 418 340 438T326 470T305 485T280 489Q251 489 234 469T216 388Q216 357 221 337T234 305T254 289T280 284Z" />
<glyph unicode="h" glyph-name="h" horiz-adv-x="644" d="M19 76L77 92V673L16 690V768L243 793L259 785V495H265Q302 529 340 548T434 567Q495 567 534 535T573 430V92L627 76V0H347V76L390 88V381Q390 415 375 427T328 440Q308 440 292 437T259 426V88L302 76V0H19V76Z" />
<glyph unicode="i" glyph-name="i" horiz-adv-x="330" d="M17 76L75 92V446L12 463V541L240 566L256 558V92L312 76V0H17V76ZM163 617Q123 617 94 641T65 707Q65 748 94 772T163 796Q204 796 232 772T260 707Q260 665 232 641T163 617Z" />
<glyph unicode="j" glyph-name="j" horiz-adv-x="315" d="M61 -216Q25 -216 -7 -209T-56 -191V-99Q-44 -101 -29 -102T-2 -103Q33 -103 55 -90T77 -40V446L15 463V541L242 566L259 558V-17Q259 -114 213 -165T61 -216ZM164 617Q124 617 95 641T66 707Q66 748 95
772T164 796Q205 796 233 772T261 707Q261 665 233 641T164 617Z" />
<glyph unicode="k" glyph-name="k" horiz-adv-x="622" d="M291 227L259 232V88L306 76V0H19V76L77 92V673L16 690V768L243 793L259 785V299L309 310L419 465L359 478V555H599V478L536 463L429 320L573 87L611 76V0H423L291 227Z" />
<glyph unicode="l" glyph-name="l" horiz-adv-x="336" d="M19 76L78 92V673L13 690V768L244 793L260 785V92L318 76V0H19V76Z" />
<glyph unicode="m" glyph-name="m" horiz-adv-x="945" d="M20 76L78 92V446L17 463V541L237 566L252 558V494H258Q293 529 333 548T430 567Q472 567 504 550T552 489H557Q590 524 634 545T735 567Q765 567 790 559T833 534T862 490T873 427V92L927 76V0H651V76L691
88V378Q691 413 677 426T630 440Q594 440 565 426Q566 424 566 417T567 402V88L608 76V0H344V76L384 88V378Q384 413 371 426T326 440Q305 440 291 437T260 426V88L301 76V0H20V76Z" />
<glyph unicode="n" glyph-name="n" horiz-adv-x="645" d="M19 76L77 92V446L16 463V541L236 566L251 558V492H257Q296 527 337 547T434 567Q495 567 534 535T573 430V92L627 76V0H347V76L390 88V381Q390 415 375 427T328 440Q308 440 292 437T259 426V88L302 76V0H19V76Z" />
<glyph unicode="o" glyph-name="o" horiz-adv-x="598" d="M299 -14Q233 -14 181 6T94 63T41 154T22 274Q22 345 43 400T102 492T190 548T299 567Q433 567 504 493T576 281Q576 209 555 154T496 62T408 5T299 -14ZM300 83Q319 83 334 90T361 119T378 177T384 274Q384
335 378 373T360 434T333 463T298 471Q279 471 264 464T237 437T220 380T214 282Q214 220 220 181T238 121T265 91T300 83Z" />
<glyph unicode="p" glyph-name="p" horiz-adv-x="630" d="M17 -143L75 -129V442L15 459V541L234 566L249 558V497H255Q278 525 317 546T410 568Q446 568 481 556T543 512T587 430T604 300Q604 214 584 156T529 61T446 8T343 -8Q309 -8 290 -4T257 7V-130L324 -143V-217H17V-143ZM319
84Q341 84 358 91T387 120T405 178T412 276Q412 325 407 358T391 412T364 440T327 449Q304 449 287 445T257 434V102Q267 95 280 90T319 84Z" />
<glyph unicode="q" glyph-name="q" horiz-adv-x="625" d="M302 -143L370 -127V53H364Q344 27 313 11T231 -5Q195 -5 158 7T91 49T42 130T23 262Q23 346 45 404T106 498T199 550T318 567Q358 567 390 565T451 558T503 546T552 528V-129L607 -143V-217H302V-143ZM303
103Q324 103 341 108T370 121V452Q359 460 347 466T308 473Q287 473 270 465T241 436T221 377T214 282Q214 229 220 195T237 140T265 111T303 103Z" />
<glyph unicode="r" glyph-name="r" horiz-adv-x="439" d="M18 76L75 92V446L14 463V541L235 566L250 558V451H256Q305 564 397 564Q404 564 411 564T424 561V400Q416 402 403 403T378 405Q341 405 311 401T257 385V92L333 76V0H18V76Z" />
<glyph unicode="s" glyph-name="s" horiz-adv-x="493" d="M220 -14Q175 -14 125 -5T33 21L25 159H139L157 92Q167 86 185 81T227 76Q267 76 286 91T306 135Q306 161 292 175T233 200L174 215Q100 234 62 271T23 382Q23 422 37 456T80 514T154 553T261 567Q311
567 358 560T438 538V407H328L316 466Q306 471 292 475T254 480Q216 480 196 466T176 425Q176 399 193 386T257 361L323 347Q404 327 438 287T472 183Q472 139 458 103T413 41T335 1T220 -14Z" />
<glyph unicode="t" glyph-name="t" horiz-adv-x="413" d="M250 -11Q209 -11 178 -4T125 21T92 68T81 142V460H15V531L81 555V685H262V555H382V460H262V170Q262 129 278 115T335 100Q349 100 363 102T388 107V27Q364 11 329 0T250 -11Z" />
<glyph unicode="u" glyph-name="u" horiz-adv-x="645" d="M223 -12Q140 -12 104 28T68 141V448L12 466V543L235 565L250 557V178Q250 144 263 128T311 112Q337 112 352 117T382 128V448L330 466V543L548 565L565 557V107L623 91V15L406 -10L389 -3V64H383Q357
31 318 10T223 -12Z" />
<glyph unicode="v" glyph-name="v" horiz-adv-x="598" d="M51 464L8 478V555H286V478L238 467L295 294Q302 273 309 244T321 187Q327 155 333 122H337Q343 154 350 186Q356 213 363 242T378 295L435 467L385 478V555H587V478L543 464L375 0H227L51 464Z" />
<glyph unicode="w" glyph-name="w" horiz-adv-x="830" d="M48 465L7 479V555H269V479L227 467L253 351Q260 322 265 289T276 228Q281 195 286 163H290Q295 193 301 225Q306 252 313 284T328 347L382 555H508L564 347Q571 322 578 291T591 231Q598 198 604 164H608Q612
197 617 230Q621 259 626 291T638 351L664 467L624 479V555H820V479L780 465L658 0H503L445 218Q438 242 434 268T426 316Q422 342 419 366H416Q412 343 408 317Q404 295 399 269T387 218L325 0H170L48 465Z" />
<glyph unicode="x" glyph-name="x" horiz-adv-x="615" d="M19 76L66 91L194 279L75 463L28 478V555H322V478L281 467L360 339H364L436 467L390 478V555H587V478L549 465L430 273L544 91L592 76V0H299V76L342 88L263 220H260L182 88L228 76V0H19V76Z" />
<glyph unicode="y" glyph-name="y" horiz-adv-x="608" d="M184 -221Q141 -221 115 -211T70 -188V-97Q87 -101 101 -103T134 -105Q174 -105 199 -89T239 -34L251 -3L54 464L8 478V555H294V478L244 466L300 314Q310 286 318 255T331 197Q337 166 341 136H345Q351
167 359 198Q365 224 373 255T391 314L438 466L389 478V555H596V478L554 464L365 -65Q336 -145 295 -183T184 -221Z" />
<glyph unicode="z" glyph-name="z" horiz-adv-x="521" d="M24 82L285 464V468H148L125 391H34L44 555H487V470L233 95V91H372L401 178H495L481 0H24V82Z" />
<glyph unicode="{" glyph-name="braceleft" horiz-adv-x="422" d="M378 -125Q302 -123 250 -112T166 -80T120 -32T106 34Q106 52 112 75T127 122T141 166T148 200Q148 215 144 226T127 246T93 261T37 274V364Q71 370 92 376T126 391T143 411T148 438Q148 451 142
471T127 515T113 561T106 604Q106 641 120 669T166 717T250 748T378 762V681Q324 672 305 657T286 611Q286 598 288 576T293 529T298 481T301 444Q301 395 271 367T163 321V316Q240 298 270 270T301 193Q301 179 299 156T294 109T289 62T286 26Q286 -3 305 -19T378
-44V-125V-125Z" />
<glyph unicode="|" glyph-name="bar" horiz-adv-x="240" d="M71 762H169V-125H71V762Z" />
<glyph unicode="}" glyph-name="braceright" horiz-adv-x="422" d="M44 -44Q98 -35 117 -20T136 26Q136 39 134 61T129 108T124 156T121 193Q121 242 151 270T259 316V321Q182 339 152 367T121 444Q121 458 123 481T128 528T133 575T136 611Q136 640 117 656T44
681V762Q120 760 172 749T256 717T302 669T316 603Q316 585 310 562T295 515T281 471T274 437Q274 422 278 411T295 391T329 376T385 363V273Q351 267 330 261T296 246T279 226T274 199Q274 186 280 166T295 122T309 76T316 33Q316 -4 302 -32T256 -80T172 -111T44
-125V-44Z" />
<glyph unicode="~" glyph-name="asciitilde" horiz-adv-x="483" d="M16 264Q43 332 80 371T168 411Q191 411 213 405T257 390T296 375T329 368Q349 368 364 381T394 418L468 375Q442 306 404 267T316 228Q293 228 271 235T227 250T188 265T156 272Q135 272 120
258T89 221L16 264Z" />
<glyph unicode="&#xa0;" glyph-name="uni00A0" horiz-adv-x="201" />
<glyph unicode="&#xa1;" glyph-name="exclamdown" horiz-adv-x="279" d="M237 -125H42L88 362H197L237 -125ZM140 608Q182 608 207 581T233 516Q233 478 208 451T140 423Q99 423 73 450T47 516Q47 553 73 580T140 608Z" />
<glyph unicode="&#xa2;" glyph-name="cent" horiz-adv-x="600" d="M240 -155L261 -5Q158 16 103 88T48 274Q48 347 70 401T131 492T225 546T342 567L354 654H442L429 563Q462 559 491 554T539 542V387H449L433 469L416 473L362 88Q369 87 377 87T393 87Q412 87
434 90T477 97T515 107T543 117V37Q518 20 466 4T348 -13L328 -155H240ZM225 288Q225 213 239 171T285 109L336 477Q312 474 292 464T257 433T234 376T225 288Z" />
<glyph unicode="&#xa3;" glyph-name="sterling" horiz-adv-x="600" d="M404 596Q380 596 364 587T336 557T318 502T306 419L301 367H460V283H292L291 268Q286 213 263 180T202 127V124H549L533 0H57V92Q90 109 108 141T127 231V283H68V367H127V448Q127 506 145
549T196 622T276 666T380 681Q434 681 473 675T543 658V500H433L414 595H411Q409 595 408 595T404 596Z" />
<glyph unicode="&#xa5;" glyph-name="yen" horiz-adv-x="600" d="M50 357H181L66 576L23 593V670H315V593L268 581L348 389H351L429 581L381 593V670H577V593L532 576L426 357H559V290H400V227H559V160H400V96L472 79V0H138V79L210 96V160H50V227H210V290H50V357Z" />
<glyph unicode="&#xa6;" glyph-name="brokenbar" horiz-adv-x="240" d="M71 290H169V-125H71V290ZM71 762H169V386H71V762Z" />
<glyph unicode="&#xa7;" glyph-name="section" horiz-adv-x="571" d="M263 -137Q210 -137 164 -129T82 -104L74 25H185L206 -34Q217 -40 230 -44T267 -48Q301 -48 325 -37T350 8Q350 39 329 56T266 88L175 121Q102 147 64 183T26 280Q26 331 58 366T151 418Q113
443 93 475T73 553Q73 593 88 626T134 683T208 720T309 733Q361 733 408 725T488 702V577H378L364 632Q354 637 340 641T302 646Q268 646 248 632T227 589Q227 560 243 543T304 510L392 480Q467 454 505 415T544 317Q544 263 513 230T424 180Q462 154 482 120T503
46Q503 -36 443 -86T263 -137ZM218 384Q201 374 191 359T180 325Q180 296 199 281T261 250L355 216Q371 226 380 241T390 273Q390 300 374 315T320 345L218 384Z" />
<glyph unicode="&#xa8;" glyph-name="dieresis" horiz-adv-x="500" d="M364 622Q328 622 303 646T278 706Q278 742 303 766T364 790Q401 790 426 766T451 706Q451 670 426 646T364 622ZM135 622Q98 622 73 646T48 706Q48 742 73 766T135 790Q171 790 196 766T221
706Q221 670 196 646T135 622Z" />
<glyph unicode="&#xa9;" glyph-name="copyright" horiz-adv-x="815" d="M407 -15Q329 -15 263 14T147 94T70 213T42 358Q42 435 70 502T147 620T262 699T407 728Q484 728 551 699T667 620T745 503T773 358Q773 281 745 213T668 95T551 15T407 -15ZM407 48Q472
48 525 72T617 139T677 237T699 358Q699 421 678 477T618 575T526 641T407 665Q341 665 287 641T195 575T135 477T114 358Q114 294 135 238T194 139T287 73T407 48ZM411 164Q370 164 336 175T277 210T237 271T223 359Q223 413 239 450T282 511T346 545T421 556Q458
556 490 552T541 540L545 437H469L453 485Q445 489 439 491T418 493Q378 493 367 461T356 369Q356 328 359 302T369 259T388 236T421 229Q435 229 443 231T457 236L475 289H549L543 186Q523 178 491 171T411 164Z" />
<glyph unicode="&#xaa;" glyph-name="ordfeminine" horiz-adv-x="519" d="M206 639Q199 639 193 639T180 638L170 568H59V702Q97 716 150 723T264 731Q362 731 408 691T455 570V352Q455 336 463 331T484 325H502V253Q489 244 466 236T411 228Q317 228 301 291H296Q278
267 245 247T166 227Q100 227 63 264T25 359Q25 395 37 419T72 458T129 483T205 501L279 514V550Q279 592 264 615T206 639ZM237 319Q251 319 262 324T279 334V449L244 448Q221 447 209 430T197 384Q197 355 206 337T237 319Z" />
<glyph unicode="&#xab;" glyph-name="guillemotleft" horiz-adv-x="533" d="M27 238V287L158 502H276L173 263L276 23H158L27 238ZM257 238V287L388 502H506L403 263L506 23H388L257 238Z" />
<glyph unicode="&#xae;" glyph-name="registered" horiz-adv-x="627" d="M313 179Q254 179 203 201T115 260T56 349T34 457Q34 515 55 566T114 654T203 713T313 735Q372 735 423 714T512 655T571 566T593 457Q593 400 572 349T512 261T423 201T313 179ZM313 234Q361
234 400 250T469 296T514 366T530 457Q530 506 514 547T469 617T401 663T313 680Q265 680 225 664T157 618T113 547T97 457Q97 407 112 366T156 296T225 251T313 234ZM185 378L206 385V541L185 547V586H329Q383 586 409 564T436 510Q436 486 426 475T397 457V454L439
382L454 378V339H367L318 433H300V383L316 378V339H185V378ZM319 475Q346 475 346 505Q346 519 339 529T318 540H300V475H319Z" />
<glyph unicode="&#xaf;" glyph-name="macron" horiz-adv-x="500" d="M84 747H416V654H84V747Z" />
<glyph unicode="&#xb0;" glyph-name="degree" horiz-adv-x="444" d="M223 384Q185 384 152 398T95 436T56 491T42 558Q42 593 56 624T94 679T152 716T223 730Q261 730 294 717T351 680T388 625T402 558Q402 523 389 492T351 436T294 398T223 384ZM222 457Q265
457 288 487T311 558Q311 599 288 628T222 657Q179 657 156 628T133 558Q133 517 156 487T222 457Z" />
<glyph unicode="&#xb4;" glyph-name="acute" horiz-adv-x="500" d="M113 679L348 823L408 691L142 613L113 679Z" />
<glyph unicode="&#xb6;" glyph-name="paragraph" horiz-adv-x="625" d="M261 331Q253 329 234 329Q193 329 156 341T91 377T47 439T30 529Q30 626 89 673T260 721H608V640L542 623V-125H457V648H346V-125H261V331Z" />
<glyph unicode="&#xb7;" glyph-name="periodcentered" horiz-adv-x="303" d="M151 245Q128 245 109 253T77 276T56 308T48 348Q48 391 76 421T151 451Q197 451 225 421T254 348Q254 327 247 309T226 276T193 254T151 245Z" />
<glyph unicode="&#xb8;" glyph-name="cedilla" horiz-adv-x="500" d="M173 -184Q208 -181 230 -177T266 -167T285 -154T290 -139Q290 -123 274 -116T213 -107V0H287V-49Q358 -52 384 -72T411 -133Q411 -156 399 -174T358 -206T284 -228T173 -240V-184Z" />
<glyph unicode="&#xba;" glyph-name="ordmasculine" horiz-adv-x="545" d="M273 227Q156 227 92 293T27 476Q27 540 47 587T100 667T178 715T272 731Q389 731 453 667T518 483Q518 419 498 371T444 291T366 243T273 227ZM273 316Q289 316 301 322T323 347T337
396T342 476Q342 527 337 559T323 610T300 635T271 642Q256 642 244 636T222 613T208 565T203 483Q203 431 208 399T222 348T244 323T273 316Z" />
<glyph unicode="&#xbb;" glyph-name="guillemotright" horiz-adv-x="533" d="M131 262L28 502H146L277 287V238L146 23H28L131 262ZM360 262L257 502H375L506 287V238L375 23H257L360 262Z" />
<glyph unicode="&#xbc;" glyph-name="onequarter" horiz-adv-x="925" d="M22 326L98 339V599L17 595V653L173 725H246V339L324 326V267H22V326ZM694 0H492V66L716 347H833V76H897V0H833V-108H694V0ZM694 76V214H691L584 78V76H694ZM714 721H818L275 -71H171L714 721Z" />
<glyph unicode="&#xbd;" glyph-name="onehalf" horiz-adv-x="980" d="M22 326L98 339V599L17 595V653L173 725H246V339L324 326V267H22V326ZM716 273Q713 273 709 273T698 272L688 210H597V326Q664 353 760 353Q847 353 893 318T939 218Q939 188 928 164T897 118T847
75T781 30L722 -8V-10H942L934 -108H596V-25L699 71Q718 89 733 104T759 134T776 165T782 202Q782 273 716 273ZM707 721H811L268 -71H164L707 721Z" />
<glyph unicode="&#xbe;" glyph-name="threequarters" horiz-adv-x="939" d="M707 0H505V66L729 347H846V76H910V0H846V-108H707V0ZM707 76V214H704L597 78V76H707ZM159 655Q154 655 150 655T137 654L126 596H38V707Q66 717 106 722T190 728Q274 728 316 699T358
616Q358 571 332 544T256 506V503Q310 496 342 471T375 393Q375 331 326 296T179 260Q120 260 83 272T25 295V357Q44 351 71 347T128 342Q170 342 196 356T222 404Q222 436 200 449T143 462H100V530H135Q171 530 193 546T215 594Q215 623 202 639T159 655ZM729
721H833L290 -71H186L729 721Z" />
<glyph unicode="&#xbf;" glyph-name="questiondown" horiz-adv-x="479" d="M298 -35Q309 -35 318 -35T335 -33L349 43H460V-109Q426 -120 375 -128T273 -137Q220 -137 175 -129T98 -99T47 -44T29 43Q29 78 39 104T66 152T106 192T155 228Q201 259 229 280T258
330Q258 336 257 344T254 362H340Q347 348 352 331T357 288Q357 250 341 224T292 168Q265 143 245 115T225 44Q225 -1 245 -18T298 -35ZM287 608Q330 608 356 579T382 511Q382 472 356 444T287 415Q243 415 217 443T191 511Q191 550 217 579T287 608Z" />
<glyph unicode="&#xc0;" glyph-name="Agrave" horiz-adv-x="736" d="M209 833L263 967L514 832L488 765L209 833ZM12 81L67 99L277 721H462L666 99L724 81V0H386V81L454 99L421 211H218L185 99L253 81V0H12V81ZM243 293H398L365 408Q357 435 350 464T337 519Q331
548 325 577H320Q314 549 307 520Q301 495 294 465T278 408L243 293Z" />
<glyph unicode="&#xc1;" glyph-name="Aacute" horiz-adv-x="736" d="M259 765L233 832L484 967L538 833L259 765ZM12 81L67 99L277 721H462L666 99L724 81V0H386V81L454 99L421 211H218L185 99L253 81V0H12V81ZM243 293H398L365 408Q357 435 350 464T337 519Q331
548 325 577H320Q314 549 307 520Q301 495 294 465T278 408L243 293Z" />
<glyph unicode="&#xc2;" glyph-name="Acircumflex" horiz-adv-x="736" d="M551 810L523 769L367 829L211 769L183 810L325 951H409L551 810ZM12 81L67 99L277 721H462L666 99L724 81V0H386V81L454 99L421 211H218L185 99L253 81V0H12V81ZM243 293H398L365 408Q357
435 350 464T337 519Q331 548 325 577H320Q314 549 307 520Q301 495 294 465T278 408L243 293Z" />
<glyph unicode="&#xc3;" glyph-name="Atilde" horiz-adv-x="736" d="M165 814Q177 840 190 862T219 902T252 929T291 939Q308 939 331 934T377 923T421 911T453 906Q470 906 483 918T508 947L569 909Q545 854 515 819T443 784Q426 784 403 789T357 800T313 812T281
817Q264 817 251 806T226 776L165 814ZM12 81L67 99L277 721H462L666 99L724 81V0H386V81L454 99L421 211H218L185 99L253 81V0H12V81ZM243 293H398L365 408Q357 435 350 464T337 519Q331 548 325 577H320Q314 549 307 520Q301 495 294 465T278 408L243 293Z" />
<glyph unicode="&#xc4;" glyph-name="Adieresis" horiz-adv-x="736" d="M489 776Q453 776 428 800T403 860Q403 896 428 920T489 944Q526 944 551 920T576 860Q576 824 551 800T489 776ZM246 776Q209 776 184 800T159 860Q159 896 184 920T246 944Q282 944 307
920T332 860Q332 824 307 800T246 776ZM12 81L67 99L277 721H462L666 99L724 81V0H386V81L454 99L421 211H218L185 99L253 81V0H12V81ZM243 293H398L365 408Q357 435 350 464T337 519Q331 548 325 577H320Q314 549 307 520Q301 495 294 465T278 408L243 293Z" />
<glyph unicode="&#xc5;" glyph-name="Aring" horiz-adv-x="736" d="M368 759Q341 759 318 768T278 794T252 831T242 878Q242 902 251 923T278 961T318 986T368 996Q395 996 417 987T456 961T482 924T492 878Q492 853 483 832T457 794T418 769T368 759ZM368 811Q397
811 414 829T431 878Q431 907 414 925T368 944Q339 944 322 926T304 878Q304 848 321 830T368 811ZM12 81L67 99L277 721H462L666 99L724 81V0H386V81L454 99L421 211H218L185 99L253 81V0H12V81ZM243 293H398L365 408Q357 435 350 464T337 519Q331 548 325 577H320Q314
549 307 520Q301 495 294 465T278 408L243 293Z" />
<glyph unicode="&#xc6;" glyph-name="AE" horiz-adv-x="987" d="M6 81L55 99L357 632L289 640V721H942L950 518H849L821 622H629V414H698L715 483H798V251H715L698 321H629V100H825L864 226H967L957 0H368V81L438 99V207H229L169 100L242 81V0H6V81ZM452 643Q439
608 416 555T358 438L278 296H438V411Q438 448 440 488T447 564Q451 604 456 643H452Z" />
<glyph unicode="&#xc7;" glyph-name="Ccedilla" horiz-adv-x="673" d="M248 -184Q283 -181 305 -177T341 -167T360 -154T365 -139Q365 -123 349 -116T288 -107V-5Q229 5 181 30T98 100T44 207T25 355Q25 460 56 532T139 649T256 713T391 733Q424 733 456 731T516
724T568 714T608 701L615 507H495L467 604Q453 610 432 615T385 621Q347 621 320 609T274 569T247 492T238 372Q238 288 246 235T273 152T321 111T391 100Q418 100 440 106T477 120L504 220H622L614 28Q576 11 517 0T372 -12H362V-49Q433 -52 459 -72T486 -133Q486
-156 474 -174T433 -206T359 -228T248 -240V-184Z" />
<glyph unicode="&#xc8;" glyph-name="Egrave" horiz-adv-x="649" d="M185 833L239 967L490 832L464 765L185 833ZM22 81L91 99V623L22 640V721H604L612 518H511L483 622H286V414H360L377 483H460V251H377L360 321H286V100H487L526 226H629L619 0H22V81Z" />
<glyph unicode="&#xc9;" glyph-name="Eacute" horiz-adv-x="649" d="M235 765L209 832L460 967L514 833L235 765ZM22 81L91 99V623L22 640V721H604L612 518H511L483 622H286V414H360L377 483H460V251H377L360 321H286V100H487L526 226H629L619 0H22V81Z" />
<glyph unicode="&#xca;" glyph-name="Ecircumflex" horiz-adv-x="649" d="M527 810L499 769L343 829L187 769L159 810L301 951H385L527 810ZM22 81L91 99V623L22 640V721H604L612 518H511L483 622H286V414H360L377 483H460V251H377L360 321H286V100H487L526 226H629L619
0H22V81Z" />
<glyph unicode="&#xcb;" glyph-name="Edieresis" horiz-adv-x="649" d="M465 776Q429 776 404 800T379 860Q379 896 404 920T465 944Q502 944 527 920T552 860Q552 824 527 800T465 776ZM222 776Q185 776 160 800T135 860Q135 896 160 920T222 944Q258 944 283
920T308 860Q308 824 283 800T222 776ZM22 81L91 99V623L22 640V721H604L612 518H511L483 622H286V414H360L377 483H460V251H377L360 321H286V100H487L526 226H629L619 0H22V81Z" />
<glyph unicode="&#xcc;" glyph-name="Igrave" horiz-adv-x="382" d="M32 833L86 967L337 832L311 765L32 833ZM20 81L90 99V623L20 640V721H361V640L291 623V99L361 81V0H20V81Z" />
<glyph unicode="&#xcd;" glyph-name="Iacute" horiz-adv-x="382" d="M82 765L56 832L307 967L361 833L82 765ZM20 81L90 99V623L20 640V721H361V640L291 623V99L361 81V0H20V81Z" />
<glyph unicode="&#xce;" glyph-name="Icircumflex" horiz-adv-x="382" d="M374 810L346 769L190 829L34 769L6 810L148 951H232L374 810ZM20 81L90 99V623L20 640V721H361V640L291 623V99L361 81V0H20V81Z" />
<glyph unicode="&#xcf;" glyph-name="Idieresis" horiz-adv-x="382" d="M312 776Q276 776 251 800T226 860Q226 896 251 920T312 944Q349 944 374 920T399 860Q399 824 374 800T312 776ZM69 776Q32 776 7 800T-18 860Q-18 896 7 920T69 944Q105 944 130 920T155
860Q155 824 130 800T69 776ZM20 81L90 99V623L20 640V721H361V640L291 623V99L361 81V0H20V81Z" />
<glyph unicode="&#xd0;" glyph-name="Eth" horiz-adv-x="734" d="M30 420H91V623L23 640V721H359Q440 721 504 702T613 640T682 532T706 372Q706 275 681 205T611 90T502 22T363 0H22V81L91 99V317H30V420ZM351 104Q387 104 414 113T459 150T486 227T496 358Q496
448 486 499T456 577T407 609T341 616H289V420H410V317H289V104H351Z" />
<glyph unicode="&#xd1;" glyph-name="Ntilde" horiz-adv-x="733" d="M180 814Q192 840 205 862T234 902T267 929T306 939Q323 939 346 934T392 923T436 911T468 906Q485 906 498 918T523 947L584 909Q560 854 530 819T458 784Q441 784 418 789T372 800T328 812T296
817Q279 817 266 806T241 776L180 814ZM23 81L93 99V623L23 640V721H292L431 479Q449 448 466 413T497 346Q513 310 527 274H532V622L464 640V721H714V640L653 623V0H488L312 312Q293 344 277 380T247 448Q232 484 219 520H215V98L281 81V0H23V81Z" />
<glyph unicode="&#xd2;" glyph-name="Ograve" horiz-adv-x="730" d="M207 833L261 967L512 832L486 765L207 833ZM362 -12Q290 -12 229 10T124 78T54 193T29 356Q29 455 57 526T133 643T241 711T367 733Q439 733 500 711T606 643T676 528T701 365Q701 267 673
196T597 78T489 10T362 -12ZM364 95Q394 95 417 107T457 149T481 228T490 352Q490 435 483 488T459 572T420 614T364 626Q334 626 311 614T272 571T247 492T238 370Q238 288 245 235T268 151T307 108T364 95Z" />
<glyph unicode="&#xd3;" glyph-name="Oacute" horiz-adv-x="730" d="M257 765L231 832L482 967L536 833L257 765ZM362 -12Q290 -12 229 10T124 78T54 193T29 356Q29 455 57 526T133 643T241 711T367 733Q439 733 500 711T606 643T676 528T701 365Q701 267 673
196T597 78T489 10T362 -12ZM364 95Q394 95 417 107T457 149T481 228T490 352Q490 435 483 488T459 572T420 614T364 626Q334 626 311 614T272 571T247 492T238 370Q238 288 245 235T268 151T307 108T364 95Z" />
<glyph unicode="&#xd4;" glyph-name="Ocircumflex" horiz-adv-x="730" d="M549 810L521 769L365 829L209 769L181 810L323 951H407L549 810ZM362 -12Q290 -12 229 10T124 78T54 193T29 356Q29 455 57 526T133 643T241 711T367 733Q439 733 500 711T606 643T676
528T701 365Q701 267 673 196T597 78T489 10T362 -12ZM364 95Q394 95 417 107T457 149T481 228T490 352Q490 435 483 488T459 572T420 614T364 626Q334 626 311 614T272 571T247 492T238 370Q238 288 245 235T268 151T307 108T364 95Z" />
<glyph unicode="&#xd5;" glyph-name="Otilde" horiz-adv-x="730" d="M163 814Q175 840 188 862T217 902T250 929T289 939Q306 939 329 934T375 923T419 911T451 906Q468 906 481 918T506 947L567 909Q543 854 513 819T441 784Q424 784 401 789T355 800T311 812T279
817Q262 817 249 806T224 776L163 814ZM362 -12Q290 -12 229 10T124 78T54 193T29 356Q29 455 57 526T133 643T241 711T367 733Q439 733 500 711T606 643T676 528T701 365Q701 267 673 196T597 78T489 10T362 -12ZM364 95Q394 95 417 107T457 149T481 228T490 352Q490
435 483 488T459 572T420 614T364 626Q334 626 311 614T272 571T247 492T238 370Q238 288 245 235T268 151T307 108T364 95Z" />
<glyph unicode="&#xd6;" glyph-name="Odieresis" horiz-adv-x="730" d="M487 776Q451 776 426 800T401 860Q401 896 426 920T487 944Q524 944 549 920T574 860Q574 824 549 800T487 776ZM244 776Q207 776 182 800T157 860Q157 896 182 920T244 944Q280 944 305
920T330 860Q330 824 305 800T244 776ZM362 -12Q290 -12 229 10T124 78T54 193T29 356Q29 455 57 526T133 643T241 711T367 733Q439 733 500 711T606 643T676 528T701 365Q701 267 673 196T597 78T489 10T362 -12ZM364 95Q394 95 417 107T457 149T481 228T490 352Q490
435 483 488T459 572T420 614T364 626Q334 626 311 614T272 571T247 492T238 370Q238 288 245 235T268 151T307 108T364 95Z" />
<glyph unicode="&#xd7;" glyph-name="multiply" horiz-adv-x="600" d="M68 159L226 320L68 482L143 557L300 396L456 556L531 481L374 320L532 159L457 84L300 244L143 84L68 159Z" />
<glyph unicode="&#xd8;" glyph-name="Oslash" horiz-adv-x="730" d="M626 619Q661 574 681 511T701 365Q701 267 673 196T597 78T489 10T362 -12Q302 -12 250 3T156 50L84 -38L23 7L102 103Q67 148 48 211T29 356Q29 455 57 526T133 643T241 711T367 733Q426 733
477 718T571 672L634 748L695 703L626 619ZM364 90Q395 90 419 102T461 145T486 226T495 352Q495 412 492 457L250 163Q263 121 289 106T364 90ZM233 370Q233 339 233 313T235 264L477 558Q464 600 438 615T364 631Q333 631 309 618T268 575T242 495T233 370Z"
/>
<glyph unicode="&#xd9;" glyph-name="Ugrave" horiz-adv-x="724" d="M246 833L300 967L551 832L525 765L246 833ZM379 -13Q301 -13 245 4T153 52T100 129T82 231V623L18 640V721H347V640L284 624V248Q284 204 292 176T316 130T354 106T405 99Q433 99 456 106T496
130T522 175T531 248V624L467 640V721H706V640L646 623V243Q646 189 632 143T585 62T502 7T379 -13Z" />
<glyph unicode="&#xda;" glyph-name="Uacute" horiz-adv-x="724" d="M296 765L270 832L521 967L575 833L296 765ZM379 -13Q301 -13 245 4T153 52T100 129T82 231V623L18 640V721H347V640L284 624V248Q284 204 292 176T316 130T354 106T405 99Q433 99 456 106T496
130T522 175T531 248V624L467 640V721H706V640L646 623V243Q646 189 632 143T585 62T502 7T379 -13Z" />
<glyph unicode="&#xdb;" glyph-name="Ucircumflex" horiz-adv-x="724" d="M588 810L560 769L404 829L248 769L220 810L362 951H446L588 810ZM379 -13Q301 -13 245 4T153 52T100 129T82 231V623L18 640V721H347V640L284 624V248Q284 204 292 176T316 130T354 106T405
99Q433 99 456 106T496 130T522 175T531 248V624L467 640V721H706V640L646 623V243Q646 189 632 143T585 62T502 7T379 -13Z" />
<glyph unicode="&#xdc;" glyph-name="Udieresis" horiz-adv-x="724" d="M526 776Q490 776 465 800T440 860Q440 896 465 920T526 944Q563 944 588 920T613 860Q613 824 588 800T526 776ZM283 776Q246 776 221 800T196 860Q196 896 221 920T283 944Q319 944 344
920T369 860Q369 824 344 800T283 776ZM379 -13Q301 -13 245 4T153 52T100 129T82 231V623L18 640V721H347V640L284 624V248Q284 204 292 176T316 130T354 106T405 99Q433 99 456 106T496 130T522 175T531 248V624L467 640V721H706V640L646 623V243Q646 189 632
143T585 62T502 7T379 -13Z" />
<glyph unicode="&#xdd;" glyph-name="Yacute" horiz-adv-x="684" d="M268 765L242 832L493 967L547 833L268 765ZM174 81L248 99V288L67 623L15 640V721H327V640L275 625L387 391H391L495 626L443 640V721H669V640L615 623L448 291V99L521 81V0H174V81Z" />
<glyph unicode="&#xde;" glyph-name="Thorn" horiz-adv-x="657" d="M21 81L90 99V623L21 640V721H366V640L292 624V565H355Q433 565 486 551T572 510T619 448T633 368Q633 274 570 224T394 173Q361 173 335 176T292 184V98L367 81V0H21V81ZM292 269Q301 267 316
266T345 265Q391 265 412 289T433 367Q433 423 412 444T342 466H292V269Z" />
<glyph unicode="&#xdf;" glyph-name="germandbls" horiz-adv-x="681" d="M458 -14Q410 -14 372 -7T310 10L305 139H405L417 81Q422 79 431 77T448 74Q479 74 494 89T509 126Q509 150 495 167T445 205L403 230Q357 257 337 285T317 357Q317 391 334 426T372 496T410
565T428 633Q428 662 411 682T359 702Q312 702 286 676T259 581V0H20V76L77 91V460H18V531L77 553V579Q77 633 97 673T155 742T246 784T365 798Q426 798 471 786T547 752T591 700T606 634Q606 596 582 566T530 509T477 462T453 421Q453 412 457 405T469 391T491
377T525 357L564 334Q586 321 605 305T638 269T661 223T669 164Q669 84 617 35T458 -14Z" />
<glyph unicode="&#xe0;" glyph-name="agrave" horiz-adv-x="552" d="M466 475Q459 475 453 475T439 474L425 386H309V531Q347 543 404 555T534 567Q644 567 692 523T741 385V120Q741 100 751 93T777 86H794V14Q780 4 750 -4T686 -13Q643 -13 617 3T579 59H574Q554
27 517 7T429 -14Q356 -14 314 29T271 141Q271 183 284 211T323 258T384 289T465 310L558 328V358Q558 411 538 443T466 475ZM506 86Q523 86 536 92T558 107V251L511 248Q479 246 465 229T451 169Q451 126 464 106T506 86ZM110 691L170 823L405 679L376 613L110
691Z" />
<glyph unicode="&#xe1;" glyph-name="aacute" horiz-adv-x="552" d="M466 475Q459 475 453 475T439 474L425 386H309V531Q347 543 404 555T534 567Q644 567 692 523T741 385V120Q741 100 751 93T777 86H794V14Q780 4 750 -4T686 -13Q643 -13 617 3T579 59H574Q554
27 517 7T429 -14Q356 -14 314 29T271 141Q271 183 284 211T323 258T384 289T465 310L558 328V358Q558 411 538 443T466 475ZM506 86Q523 86 536 92T558 107V251L511 248Q479 246 465 229T451 169Q451 126 464 106T506 86ZM128 679L363 823L423 691L157 613L128
679Z" />
<glyph unicode="&#xe2;" glyph-name="acircumflex" horiz-adv-x="552" d="M466 475Q459 475 453 475T439 474L425 386H309V531Q347 543 404 555T534 567Q644 567 692 523T741 385V120Q741 100 751 93T777 86H794V14Q780 4 750 -4T686 -13Q643 -13 617 3T579 59H574Q554
27 517 7T429 -14Q356 -14 314 29T271 141Q271 183 284 211T323 258T384 289T465 310L558 328V358Q558 411 538 443T466 475ZM506 86Q523 86 536 92T558 107V251L511 248Q479 246 465 229T451 169Q451 126 464 106T506 86ZM84 650L221 803H305L442 650L411 609L263
681L115 609L84 650Z" />
<glyph unicode="&#xe3;" glyph-name="atilde" horiz-adv-x="552" d="M466 475Q459 475 453 475T439 474L425 386H309V531Q347 543 404 555T534 567Q644 567 692 523T741 385V120Q741 100 751 93T777 86H794V14Q780 4 750 -4T686 -13Q643 -13 617 3T579 59H574Q554
27 517 7T429 -14Q356 -14 314 29T271 141Q271 183 284 211T323 258T384 289T465 310L558 328V358Q558 411 538 443T466 475ZM506 86Q523 86 536 92T558 107V251L511 248Q479 246 465 229T451 169Q451 126 464 106T506 86ZM68 664Q80 690 93 712T122 752T155 779T194
789Q211 789 232 784T273 773T312 761T342 756Q359 756 372 768T397 797L458 759Q434 704 404 669T332 634Q315 634 294 639T253 650T214 662T184 667Q167 667 154 656T129 626L68 664Z" />
<glyph unicode="&#xe4;" glyph-name="adieresis" horiz-adv-x="552" d="M466 475Q459 475 453 475T439 474L425 386H309V531Q347 543 404 555T534 567Q644 567 692 523T741 385V120Q741 100 751 93T777 86H794V14Q780 4 750 -4T686 -13Q643 -13 617 3T579 59H574Q554
27 517 7T429 -14Q356 -14 314 29T271 141Q271 183 284 211T323 258T384 289T465 310L558 328V358Q558 411 538 443T466 475ZM506 86Q523 86 536 92T558 107V251L511 248Q479 246 465 229T451 169Q451 126 464 106T506 86ZM378 622Q342 622 317 646T292 706Q292
742 317 766T378 790Q415 790 440 766T465 706Q465 670 440 646T378 622ZM149 622Q112 622 87 646T62 706Q62 742 87 766T149 790Q185 790 210 766T235 706Q235 670 210 646T149 622Z" />
<glyph unicode="&#xe5;" glyph-name="aring" horiz-adv-x="552" d="M466 475Q459 475 453 475T439 474L425 386H309V531Q347 543 404 555T534 567Q644 567 692 523T741 385V120Q741 100 751 93T777 86H794V14Q780 4 750 -4T686 -13Q643 -13 617 3T579 59H574Q554
27 517 7T429 -14Q356 -14 314 29T271 141Q271 183 284 211T323 258T384 289T465 310L558 328V358Q558 411 538 443T466 475ZM506 86Q523 86 536 92T558 107V251L511 248Q479 246 465 229T451 169Q451 126 464 106T506 86ZM264 619Q237 619 214 628T174 654T148
691T138 738Q138 762 147 783T174 821T214 846T264 856Q291 856 313 847T352 821T378 784T388 738Q388 713 379 692T353 654T314 629T264 619ZM264 671Q293 671 310 689T327 738Q327 767 310 785T264 804Q235 804 218 786T200 738Q200 708 217 690T264 671Z" />
<glyph unicode="&#xe6;" glyph-name="ae" horiz-adv-x="838" d="M588 -13Q428 -13 357 84Q333 42 289 14T187 -14Q100 -14 58 27T15 141Q15 183 28 211T67 259T129 289T210 310L305 328V358Q305 412 284 443T210 475Q203 475 197 475T183 474L169 386H53V531Q91
543 146 555T260 567Q323 567 360 549T415 498Q442 531 481 549T573 567Q634 567 679 550T755 495T800 397T815 249H491Q495 205 506 177T535 132T578 109T637 102Q690 102 725 110T789 127V49Q774 38 755 27T712 7T657 -7T588 -13ZM639 330Q639 375 634 404T620
449T598 471T570 477Q554 477 541 471T517 448T499 403T489 330H639ZM328 138Q308 189 305 251L256 248Q224 246 210 229T195 169Q195 126 209 106T257 86Q280 86 297 100T328 138Z" />
<glyph unicode="&#xe7;" glyph-name="ccedilla" horiz-adv-x="514" d="M173 -184Q208 -181 230 -177T266 -167T285 -154T290 -139Q290 -123 274 -116T213 -107V-3Q115 19 68 91T21 274Q21 350 42 405T103 497T196 550T318 567Q367 567 412 560T481 544V371H365L352
465Q345 468 337 470T309 473Q287 473 270 464T240 433T221 377T214 291Q214 236 224 201T252 144T298 115T359 107Q398 107 431 114T484 130V44Q472 35 455 25T415 7T364 -7T301 -13H287V-49Q358 -52 384 -72T411 -133Q411 -156 399 -174T358 -206T284 -228T173
-240V-184Z" />
<glyph unicode="&#xe8;" glyph-name="egrave" horiz-adv-x="557" d="M306 -13Q164 -13 93 62T21 279Q21 347 40 400T95 491T180 547T291 567Q352 567 398 550T474 495T519 397T534 249H207Q211 205 222 177T252 132T296 109T355 102Q408 102 443 110T508 127V49Q479
26 431 7T306 -13ZM358 330Q358 375 353 404T339 449T316 471T288 477Q272 477 258 471T233 448T215 403T205 330H358ZM133 691L193 823L428 679L399 613L133 691Z" />
<glyph unicode="&#xe9;" glyph-name="eacute" horiz-adv-x="557" d="M306 -13Q164 -13 93 62T21 279Q21 347 40 400T95 491T180 547T291 567Q352 567 398 550T474 495T519 397T534 249H207Q211 205 222 177T252 132T296 109T355 102Q408 102 443 110T508 127V49Q479
26 431 7T306 -13ZM358 330Q358 375 353 404T339 449T316 471T288 477Q272 477 258 471T233 448T215 403T205 330H358ZM151 679L386 823L446 691L180 613L151 679Z" />
<glyph unicode="&#xea;" glyph-name="ecircumflex" horiz-adv-x="557" d="M306 -13Q164 -13 93 62T21 279Q21 347 40 400T95 491T180 547T291 567Q352 567 398 550T474 495T519 397T534 249H207Q211 205 222 177T252 132T296 109T355 102Q408 102 443 110T508
127V49Q479 26 431 7T306 -13ZM358 330Q358 375 353 404T339 449T316 471T288 477Q272 477 258 471T233 448T215 403T205 330H358ZM107 650L244 803H328L465 650L434 609L286 681L138 609L107 650Z" />
<glyph unicode="&#xeb;" glyph-name="edieresis" horiz-adv-x="557" d="M306 -13Q164 -13 93 62T21 279Q21 347 40 400T95 491T180 547T291 567Q352 567 398 550T474 495T519 397T534 249H207Q211 205 222 177T252 132T296 109T355 102Q408 102 443 110T508 127V49Q479
26 431 7T306 -13ZM358 330Q358 375 353 404T339 449T316 471T288 477Q272 477 258 471T233 448T215 403T205 330H358ZM401 622Q365 622 340 646T315 706Q315 742 340 766T401 790Q438 790 463 766T488 706Q488 670 463 646T401 622ZM172 622Q135 622 110 646T85
706Q85 742 110 766T172 790Q208 790 233 766T258 706Q258 670 233 646T172 622Z" />
<glyph unicode="&#xec;" glyph-name="igrave" horiz-adv-x="330" d="M17 76L75 92V446L12 463V541L240 566L256 558V92L312 76V0H17V76ZM262 691L322 823L557 679L528 613L262 691Z" />
<glyph unicode="&#xed;" glyph-name="iacute" horiz-adv-x="330" d="M17 76L75 92V446L12 463V541L240 566L256 558V92L312 76V0H17V76ZM280 679L515 823L575 691L309 613L280 679Z" />
<glyph unicode="&#xee;" glyph-name="icircumflex" horiz-adv-x="330" d="M17 76L75 92V446L12 463V541L240 566L256 558V92L312 76V0H17V76ZM236 650L373 803H457L594 650L563 609L415 681L267 609L236 650Z" />
<glyph unicode="&#xef;" glyph-name="idieresis" horiz-adv-x="330" d="M17 76L75 92V446L12 463V541L240 566L256 558V92L312 76V0H17V76ZM530 622Q494 622 469 646T444 706Q444 742 469 766T530 790Q567 790 592 766T617 706Q617 670 592 646T530 622ZM301 622Q264
622 239 646T214 706Q214 742 239 766T301 790Q337 790 362 766T387 706Q387 670 362 646T301 622Z" />
<glyph unicode="&#xf0;" glyph-name="eth" horiz-adv-x="597" d="M159 794Q252 769 328 728L460 793L490 733L394 686Q476 624 524 533T572 315Q572 231 552 170T496 67T410 6T299 -14Q233 -14 181 6T94 64T41 155T22 275Q22 349 44 400T101 482T176 528T255 542Q284
542 303 537T333 527H338Q324 555 305 578T260 621L109 548L79 608L198 665Q157 689 109 714L159 794ZM309 449Q285 449 267 441T238 412T220 359T214 274Q214 219 220 182T238 123T265 91T300 81Q319 81 334 90T361 120T378 178T384 269Q384 366 371 431Q357 439
343 444T309 449Z" />
<glyph unicode="&#xf1;" glyph-name="ntilde" horiz-adv-x="645" d="M19 76L77 92V446L16 463V541L236 566L251 558V492H257Q296 527 337 547T434 567Q495 567 534 535T573 430V92L627 76V0H347V76L390 88V381Q390 415 375 427T328 440Q308 440 292 437T259 426V88L302
76V0H19V76ZM119 664Q131 690 144 712T173 752T206 779T245 789Q262 789 283 784T324 773T363 761T393 756Q410 756 423 768T448 797L509 759Q485 704 455 669T383 634Q366 634 345 639T304 650T265 662T235 667Q218 667 205 656T180 626L119 664Z" />
<glyph unicode="&#xf2;" glyph-name="ograve" horiz-adv-x="598" d="M299 -14Q233 -14 181 6T94 63T41 154T22 274Q22 345 43 400T102 492T190 548T299 567Q433 567 504 493T576 281Q576 209 555 154T496 62T408 5T299 -14ZM300 83Q319 83 334 90T361 119T378
177T384 274Q384 335 378 373T360 434T333 463T298 471Q279 471 264 464T237 437T220 380T214 282Q214 220 220 181T238 121T265 91T300 83ZM146 691L206 823L441 679L412 613L146 691Z" />
<glyph unicode="&#xf3;" glyph-name="oacute" horiz-adv-x="598" d="M299 -14Q233 -14 181 6T94 63T41 154T22 274Q22 345 43 400T102 492T190 548T299 567Q433 567 504 493T576 281Q576 209 555 154T496 62T408 5T299 -14ZM300 83Q319 83 334 90T361 119T378
177T384 274Q384 335 378 373T360 434T333 463T298 471Q279 471 264 464T237 437T220 380T214 282Q214 220 220 181T238 121T265 91T300 83ZM164 679L399 823L459 691L193 613L164 679Z" />
<glyph unicode="&#xf4;" glyph-name="ocircumflex" horiz-adv-x="598" d="M299 -14Q233 -14 181 6T94 63T41 154T22 274Q22 345 43 400T102 492T190 548T299 567Q433 567 504 493T576 281Q576 209 555 154T496 62T408 5T299 -14ZM300 83Q319 83 334 90T361 119T378
177T384 274Q384 335 378 373T360 434T333 463T298 471Q279 471 264 464T237 437T220 380T214 282Q214 220 220 181T238 121T265 91T300 83ZM120 650L257 803H341L478 650L447 609L299 681L151 609L120 650Z" />
<glyph unicode="&#xf5;" glyph-name="otilde" horiz-adv-x="598" d="M299 -14Q233 -14 181 6T94 63T41 154T22 274Q22 345 43 400T102 492T190 548T299 567Q433 567 504 493T576 281Q576 209 555 154T496 62T408 5T299 -14ZM300 83Q319 83 334 90T361 119T378
177T384 274Q384 335 378 373T360 434T333 463T298 471Q279 471 264 464T237 437T220 380T214 282Q214 220 220 181T238 121T265 91T300 83ZM104 664Q116 690 129 712T158 752T191 779T230 789Q247 789 268 784T309 773T348 761T378 756Q395 756 408 768T433 797L494
759Q470 704 440 669T368 634Q351 634 330 639T289 650T250 662T220 667Q203 667 190 656T165 626L104 664Z" />
<glyph unicode="&#xf6;" glyph-name="odieresis" horiz-adv-x="598" d="M299 -14Q233 -14 181 6T94 63T41 154T22 274Q22 345 43 400T102 492T190 548T299 567Q433 567 504 493T576 281Q576 209 555 154T496 62T408 5T299 -14ZM300 83Q319 83 334 90T361 119T378
177T384 274Q384 335 378 373T360 434T333 463T298 471Q279 471 264 464T237 437T220 380T214 282Q214 220 220 181T238 121T265 91T300 83ZM414 622Q378 622 353 646T328 706Q328 742 353 766T414 790Q451 790 476 766T501 706Q501 670 476 646T414 622ZM185 622Q148
622 123 646T98 706Q98 742 123 766T185 790Q221 790 246 766T271 706Q271 670 246 646T185 622Z" />
<glyph unicode="&#xf7;" glyph-name="divide" horiz-adv-x="600" d="M55 374H545V275H55V374ZM300 29Q259 29 233 55T207 120Q207 158 233 185T300 212Q341 212 367 185T393 120Q393 82 367 56T300 29ZM300 437Q259 437 233 463T207 528Q207 566 233 593T300 620Q341
620 367 593T393 528Q393 490 367 464T300 437Z" />
<glyph unicode="&#xf8;" glyph-name="oslash" horiz-adv-x="598" d="M573 541L516 477Q545 441 560 392T575 281Q575 209 554 154T495 62T407 5T299 -14Q192 -14 123 38L58 -34L7 12L75 87Q22 160 22 274Q22 345 43 400T102 492T190 548T299 567Q398 567 465 523L522
587L573 541ZM300 79Q319 79 335 87T364 116T383 176T390 274Q390 291 390 306T389 335L216 143Q225 105 245 92T300 79ZM207 235L377 425Q367 454 349 464T298 475Q278 475 262 468T233 440T214 381T207 282V235Z" />
<glyph unicode="&#xf9;" glyph-name="ugrave" horiz-adv-x="645" d="M223 -12Q140 -12 104 28T68 141V448L12 466V543L235 565L250 557V178Q250 144 263 128T311 112Q337 112 352 117T382 128V448L330 466V543L548 565L565 557V107L623 91V15L406 -10L389 -3V64H383Q357
31 318 10T223 -12ZM152 691L212 823L447 679L418 613L152 691Z" />
<glyph unicode="&#xfa;" glyph-name="uacute" horiz-adv-x="645" d="M223 -12Q140 -12 104 28T68 141V448L12 466V543L235 565L250 557V178Q250 144 263 128T311 112Q337 112 352 117T382 128V448L330 466V543L548 565L565 557V107L623 91V15L406 -10L389 -3V64H383Q357
31 318 10T223 -12ZM170 679L405 823L465 691L199 613L170 679Z" />
<glyph unicode="&#xfb;" glyph-name="ucircumflex" horiz-adv-x="645" d="M223 -12Q140 -12 104 28T68 141V448L12 466V543L235 565L250 557V178Q250 144 263 128T311 112Q337 112 352 117T382 128V448L330 466V543L548 565L565 557V107L623 91V15L406 -10L389
-3V64H383Q357 31 318 10T223 -12ZM126 650L263 803H347L484 650L453 609L305 681L157 609L126 650Z" />
<glyph unicode="&#xfc;" glyph-name="udieresis" horiz-adv-x="645" d="M223 -12Q140 -12 104 28T68 141V448L12 466V543L235 565L250 557V178Q250 144 263 128T311 112Q337 112 352 117T382 128V448L330 466V543L548 565L565 557V107L623 91V15L406 -10L389 -3V64H383Q357
31 318 10T223 -12ZM420 622Q384 622 359 646T334 706Q334 742 359 766T420 790Q457 790 482 766T507 706Q507 670 482 646T420 622ZM191 622Q154 622 129 646T104 706Q104 742 129 766T191 790Q227 790 252 766T277 706Q277 670 252 646T191 622Z" />
<glyph unicode="&#xfd;" glyph-name="yacute" horiz-adv-x="608" d="M184 -221Q141 -221 115 -211T70 -188V-97Q87 -101 101 -103T134 -105Q174 -105 199 -89T239 -34L251 -3L54 464L8 478V555H294V478L244 466L300 314Q310 286 318 255T331 197Q337 166 341 136H345Q351
167 359 198Q365 224 373 255T391 314L438 466L389 478V555H596V478L554 464L365 -65Q336 -145 295 -183T184 -221ZM202 679L437 823L497 691L231 613L202 679Z" />
<glyph unicode="&#xfe;" glyph-name="thorn" horiz-adv-x="613" d="M0 -143L58 -129V666L1 682V764L222 788L238 781V503H245Q269 529 304 548T393 568Q429 568 464 556T526 512T570 430T587 300Q587 214 567 156T512 61T429 8T326 -8Q292 -8 273 -4T240 7V-130L307
-143V-217H0V-143ZM302 84Q324 84 341 91T370 120T388 178T395 276Q395 325 390 358T374 412T347 440T310 449Q287 449 270 445T240 434V102Q250 95 263 90T302 84Z" />
<glyph unicode="&#xff;" glyph-name="ydieresis" horiz-adv-x="608" d="M184 -221Q141 -221 115 -211T70 -188V-97Q87 -101 101 -103T134 -105Q174 -105 199 -89T239 -34L251 -3L54 464L8 478V555H294V478L244 466L300 314Q310 286 318 255T331 197Q337 166 341
136H345Q351 167 359 198Q365 224 373 255T391 314L438 466L389 478V555H596V478L554 464L365 -65Q336 -145 295 -183T184 -221ZM445 622Q409 622 384 646T359 706Q359 742 384 766T445 790Q482 790 507 766T532 706Q532 670 507 646T445 622ZM216 622Q179 622
154 646T129 706Q129 742 154 766T216 790Q252 790 277 766T302 706Q302 670 277 646T216 622Z" />
<glyph unicode="&#x131;" glyph-name="dotlessi" horiz-adv-x="330" d="M17 76L75 92V446L12 463V541L240 566L256 558V92L312 76V0H17V76Z" />
<glyph unicode="&#x141;" glyph-name="Lslash" horiz-adv-x="616" d="M22 81L91 99V248L21 223V325L91 350V623L22 640V721H367V640L293 624V422L506 498V396L293 320V101H453L493 247H602L589 0H22V81Z" />
<glyph unicode="&#x142;" glyph-name="lslash" horiz-adv-x="332" d="M19 76L78 92V314L10 279V373L78 408V673L13 690V768L244 793L260 785V503L329 539V445L260 409V92L318 76V0H19V76Z" />
<glyph unicode="&#x152;" glyph-name="OE" horiz-adv-x="993" d="M375 0Q294 0 229 19T119 81T49 189T25 348Q25 445 50 515T122 631T231 699T371 721H948L956 518H855L827 622H633V414H704L721 483H804V251H721L704 321H633V100H831L870 226H973L963 0H375ZM438
106V616H383Q347 616 320 604T274 563T246 486T236 363Q236 281 246 231T277 153T327 116T393 106H438Z" />
<glyph unicode="&#x153;" glyph-name="oe" horiz-adv-x="917" d="M299 -14Q233 -14 181 6T94 63T41 154T22 274Q22 345 43 400T102 492T190 548T299 567Q367 567 410 547T480 488Q506 526 547 546T651 567Q712 567 758 550T834 495T879 397T894 249H567Q571 205
582 177T612 132T656 109T715 102Q768 102 803 110T868 127V49Q839 26 791 7T666 -13Q592 -13 546 8T474 71Q446 29 403 8T299 -14ZM300 83Q319 83 334 90T360 119T377 177T383 274Q383 335 377 373T359 434T333 463T298 471Q279 471 264 464T237 437T220 380T214
282Q214 220 220 181T238 121T265 91T300 83ZM718 330Q718 375 713 404T699 449T676 471T648 477Q632 477 618 471T593 448T575 403T565 330H718Z" />
<glyph unicode="&#x160;" glyph-name="Scaron" horiz-adv-x="579" d="M111 922L139 963L295 903L451 963L479 922L337 781H253L111 922ZM269 -12Q238 -12 207 -10T145 -3T89 8T42 23L32 197H150L176 109Q193 101 214 97T264 92Q312 92 340 113T368 173Q368 193
361 208T338 235T301 258T251 280L210 296Q170 311 139 329T85 372T50 433T38 517Q38 565 54 605T103 673T188 718T310 734Q384 734 431 725T508 705L518 548H400L382 615Q368 622 349 627T304 632Q210 632 210 558Q210 523 234 503T314 463L355 449Q401 432 437
414T499 371T538 310T551 221Q551 112 478 50T269 -12Z" />
<glyph unicode="&#x161;" glyph-name="scaron" horiz-adv-x="493" d="M220 -14Q175 -14 125 -5T33 21L25 159H139L157 92Q167 86 185 81T227 76Q267 76 286 91T306 135Q306 161 292 175T233 200L174 215Q100 234 62 271T23 382Q23 422 37 456T80 514T154 553T261
567Q311 567 358 560T438 538V407H328L316 466Q306 471 292 475T254 480Q216 480 196 466T176 425Q176 399 193 386T257 361L323 347Q404 327 438 287T472 183Q472 139 458 103T413 41T335 1T220 -14ZM326 774L357 815L505 743L653 815L684 774L547 621H463L326
774Z" />
<glyph unicode="&#x178;" glyph-name="Ydieresis" horiz-adv-x="684" d="M498 776Q462 776 437 800T412 860Q412 896 437 920T498 944Q535 944 560 920T585 860Q585 824 560 800T498 776ZM255 776Q218 776 193 800T168 860Q168 896 193 920T255 944Q291 944 316
920T341 860Q341 824 316 800T255 776ZM174 81L248 99V288L67 623L15 640V721H327V640L275 625L387 391H391L495 626L443 640V721H669V640L615 623L448 291V99L521 81V0H174V81Z" />
<glyph unicode="&#x17d;" glyph-name="Zcaron" horiz-adv-x="607" d="M133 922L161 963L317 903L473 963L501 922L359 781H275L133 922ZM22 102L357 616V621H187L148 507H36L46 721H581V618L246 104V100H432L472 230H584L574 0H22V102Z" />
<glyph unicode="&#x17e;" glyph-name="zcaron" horiz-adv-x="521" d="M24 82L285 464V468H148L125 391H34L44 555H487V470L233 95V91H372L401 178H495L481 0H24V82ZM97 774L128 815L276 743L424 815L455 774L318 621H234L97 774Z" />
<glyph unicode="&#x192;" glyph-name="florin" horiz-adv-x="487" d="M46 425H129L149 542Q166 639 221 683T364 728Q412 728 443 719T490 700V607Q477 610 462 612T426 614Q385 614 367 596T341 534L322 425H425V330H306L243 -36Q236 -77 220 -106T178 -154T122
-181T53 -190Q12 -190 -19 -182T-62 -166V-75Q-53 -77 -42 -78T-16 -80Q11 -80 29 -69T53 -23L113 330H46V425Z" />
<glyph unicode="&#x2c6;" glyph-name="circumflex" horiz-adv-x="500" d="M71 650L208 803H292L429 650L398 609L250 681L102 609L71 650Z" />
<glyph unicode="&#x2c7;" glyph-name="caron" horiz-adv-x="500" d="M71 774L102 815L250 743L398 815L429 774L292 621H208L71 774Z" />
<glyph unicode="&#x2d8;" glyph-name="breve" horiz-adv-x="500" d="M259 626Q184 626 138 671T87 791H181Q186 769 205 754T259 738Q294 738 312 753T335 791H429Q426 753 413 723T378 671T326 638T259 626Z" />
<glyph unicode="&#x2d9;" glyph-name="dotaccent" horiz-adv-x="500" d="M250 617Q210 617 181 641T152 707Q152 748 181 772T250 796Q291 796 319 772T347 707Q347 665 319 641T250 617Z" />
<glyph unicode="&#x2da;" glyph-name="ring" horiz-adv-x="500" d="M251 619Q224 619 201 628T161 654T135 691T125 738Q125 762 134 783T161 821T201 846T251 856Q278 856 300 847T339 821T365 784T375 738Q375 713 366 692T340 654T301 629T251 619ZM251 671Q280
671 297 689T314 738Q314 767 297 785T251 804Q222 804 205 786T187 738Q187 708 204 690T251 671Z" />
<glyph unicode="&#x2db;" glyph-name="ogonek" horiz-adv-x="500" d="M255 -222Q192 -222 155 -197T117 -126Q117 -101 129 -81T161 -46T206 -20T259 0H334Q303 -34 292 -58T281 -103Q281 -137 319 -137H349V-205Q332 -213 311 -217T255 -222Z" />
<glyph unicode="&#x2dc;" glyph-name="tilde" horiz-adv-x="500" d="M55 664Q67 690 80 712T109 752T142 779T181 789Q198 789 219 784T260 773T299 761T329 756Q346 756 359 768T384 797L445 759Q421 704 391 669T319 634Q302 634 281 639T240 650T201 662T171
667Q154 667 141 656T116 626L55 664Z" />
<glyph unicode="&#x2dd;" glyph-name="hungarumlaut" horiz-adv-x="500" d="M107 636L211 829L320 746L150 600L107 636ZM306 636L410 829L519 746L349 600L306 636Z" />
</font>
</defs>
</svg>
