<?xml version="1.0" standalone="no"?> <!DOCTYPE svg PUBLIC "-//W3C//DTD SVG 1.0//EN" "http://www.w3.org/TR/2001/REC-SVG-20010904/DTD/svg10.dtd" > <svg xmlns="http://www.w3.org/2000/svg" width="100%" height="100%">
<defs >
<font id="GuardianAgateSans1Web-BoldItalic" horiz-adv-x="527" ><font-face
    font-family="GuardianAgateSans1Web"
    units-per-em="1000"
    panose-1="2 11 8 3 5 5 3 6 8 3"
    ascent="836"
    descent="-164"
    alphabetic="0" />
<missing-glyph horiz-adv-x="500" />
<glyph unicode=" " glyph-name="space" horiz-adv-x="216" />
<glyph unicode="!" glyph-name="exclam" horiz-adv-x="314" d="M64 129H214L196 0H46L64 129ZM137 691H299L201 225H101L137 691Z" />
<glyph unicode="&quot;" glyph-name="quotedbl" horiz-adv-x="469" d="M82 437Q104 493 117 556T140 693H269Q261 614 235 551T166 437H82ZM280 437Q301 493 315 556T338 693H468Q460 614 434 551T365 437H280Z" />
<glyph unicode="#" glyph-name="numbersign" horiz-adv-x="550" d="M93 117Q96 131 100 145T110 171H25L42 289H132Q132 300 132 313T136 339L141 366Q143 377 147 390T156 414H64L80 532H182Q182 546 183 562T188 595L207 692H290L271 595Q267 576 261 558T249
526H375Q375 540 376 558T381 595L400 692H483L464 595Q460 578 455 562T444 532H527L510 414H422Q423 403 423 392T420 368L414 341Q411 327 407 314T397 289H491L475 171H373Q373 159 372 146T368 117L345 0H262L286 117Q289 134 294 149T305 177H180Q180 165
180 150T175 117L152 0H69L93 117ZM327 279Q327 291 328 306T332 339L337 366Q339 381 344 396T355 424H229Q229 413 229 399T224 368L218 341Q214 324 209 308T199 279H327Z" />
<glyph unicode="$" glyph-name="dollar" horiz-adv-x="550" d="M107 -66Q113 -49 122 -29T143 9Q106 17 78 29T32 56L48 164Q72 150 107 137T181 115L196 178L212 236Q216 251 222 267T237 300L218 309Q156 338 122 381T87 490Q87 542 104 582T151 648T224 688T316
702Q326 702 335 702T354 700Q355 712 356 723T361 744L368 765H458L452 744Q449 733 441 718T422 687Q451 679 471 668T504 648L488 542Q469 553 443 563T384 582Q380 551 373 528L358 477Q352 459 345 440T329 403L339 399Q405 370 443 327T482 211Q482 152 464
112T415 46T342 9T251 -3Q240 -3 230 -3T210 -1Q208 -18 206 -36T198 -69L183 -117H90L107 -66ZM278 425Q281 443 284 460T293 491L306 538Q312 559 325 590H314Q267 590 242 570T216 507Q216 482 229 462T278 425ZM247 109Q295 109 321 130T348 195Q348 221 335
238T288 275Q286 258 283 244T276 218L260 163Q256 151 251 137T239 109H247Z" />
<glyph unicode="%" glyph-name="percent" horiz-adv-x="700" d="M206 439Q254 439 266 528L269 551Q275 596 267 619T227 642Q178 642 167 559L164 536Q158 487 167 463T206 439ZM205 375Q170 375 143 385T97 415T70 466T67 536L70 559Q79 628 121 666T227 705Q302
705 339 665T366 550L363 527Q358 492 345 464T310 417T263 386T205 375ZM343 361L599 692H710L379 330L127 0H16L343 361ZM497 52Q545 52 557 141L560 164Q566 209 558 232T518 255Q469 255 458 172L455 149Q449 100 458 76T497 52ZM496 -12Q461 -12 434 -2T388
28T361 79T358 149L361 172Q370 241 412 279T518 318Q593 318 630 278T657 163L654 140Q649 105 636 77T601 30T554 -1T496 -12Z" />
<glyph unicode="&amp;" glyph-name="ampersand" horiz-adv-x="663" d="M230 -12Q133 -12 80 36T24 170Q23 210 35 245T68 308T121 358T191 394Q169 426 160 453T150 511Q150 560 167 596T213 657T280 693T361 705Q410 705 447 694T508 661T546 612T559 550Q560
475 509 425T366 345Q378 336 390 324T412 296L440 249Q449 233 457 214T472 178Q491 208 505 253T525 349H647Q638 273 609 209T537 104L608 0H448Q437 16 428 33T412 66Q339 -12 230 -12ZM272 90Q298 90 322 99T370 123Q359 134 347 147T325 175L267 268Q255
287 248 307T235 343Q203 317 186 276T169 188Q170 144 193 117T272 90ZM338 402Q383 427 406 464T429 544Q429 575 411 592T364 610Q334 610 311 588T289 521Q290 495 301 466T338 402Z" />
<glyph unicode="&apos;" glyph-name="quotesingle" horiz-adv-x="300" d="M91 437Q112 493 125 556T147 693H288Q280 614 253 551T183 437H91Z" />
<glyph unicode="(" glyph-name="parenleft" horiz-adv-x="392" d="M191 -151Q167 -123 144 -84T102 2T72 103T59 218Q58 310 81 389T141 533T224 649T316 739H449Q403 693 360 637T282 514T227 369T207 202Q207 146 216 95T239 -2T271 -85T307 -151H191Z" />
<glyph unicode=")" glyph-name="parenright" horiz-adv-x="392" d="M-44 -151Q2 -105 45 -49T123 74T177 219T197 386Q197 442 188 493T164 590T133 672T97 739H215Q238 710 261 672T303 586T334 485T346 370Q347 278 324 199T263 55T181 -62T90 -151H-44Z" />
<glyph unicode="*" glyph-name="asterisk" horiz-adv-x="595" d="M309 451L131 325L82 430L297 473L98 543L176 640L315 491L295 692H422L344 489L525 617L573 512L356 469L557 399L480 302L338 449L360 250H233L309 451Z" />
<glyph unicode="+" glyph-name="plus" horiz-adv-x="550" d="M200 214Q202 226 205 239T211 264Q215 277 219 291H60L76 403H234V429Q234 440 234 454T237 480L250 573H371L358 480Q356 468 353 454T347 429Q343 416 339 403H497L482 291H323Q324 281 324 269Q324
258 324 244T321 214L308 121H187L200 214Z" />
<glyph unicode="," glyph-name="comma" horiz-adv-x="277" d="M-2 -126Q20 -66 33 -4T54 133H194Q185 54 157 -9T89 -126H-2Z" />
<glyph unicode="-" glyph-name="hyphen" horiz-adv-x="427" d="M84 344H368L350 216H66L84 344Z" />
<glyph unicode="." glyph-name="period" horiz-adv-x="277" d="M51 133H191L172 0H33L51 133Z" />
<glyph unicode="/" glyph-name="slash" horiz-adv-x="442" d="M370 733H489L73 -149H-45L370 733Z" />
<glyph unicode="0" glyph-name="zero" horiz-adv-x="550" d="M253 93Q276 93 293 102T325 133T349 194T368 290L380 377Q385 410 387 437T390 487Q390 547 371 573T309 599Q286 599 268 589T235 555T209 493T190 397L177 310Q168 250 168 208Q168 148 188 121T253
93ZM247 -12Q142 -12 88 48T33 228Q33 267 39 314L51 402Q63 484 87 541T146 635T223 688T312 705Q415 705 470 644T526 461Q526 439 524 416T518 367L504 280Q492 197 468 142T411 52T337 3T247 -12Z" />
<glyph unicode="1" glyph-name="one" horiz-adv-x="550" d="M71 96H195Q196 112 197 129Q198 143 199 159T203 189L254 556Q244 553 231 549Q220 546 204 542T168 536L120 529L132 611L334 697H413L341 189Q336 158 330 129Q326 112 323 96H445L432 0H57L71 96Z" />
<glyph unicode="2" glyph-name="two" horiz-adv-x="550" d="M29 96L182 240Q222 278 252 310T302 373T333 434T343 500Q343 546 317 570T230 594Q196 594 166 587T106 572L119 670Q148 684 188 694T276 705Q331 705 371 691T436 652T474 592T486 516Q486 472 475
434T440 358T381 283T297 204L282 192Q262 174 242 160T207 135Q189 123 173 113V106H445L430 0H16L29 96Z" />
<glyph unicode="3" glyph-name="three" horiz-adv-x="550" d="M228 -12Q189 -12 159 -8T105 4T63 20T29 38L43 137Q72 124 110 112T205 99Q258 99 292 126T327 218Q327 260 304 282T227 304H158L173 412H228Q353 412 353 516Q353 558 325 577T236 596Q210 596
179 592T122 579L135 677Q169 691 208 698T285 705Q336 705 374 693T437 658T474 605T487 538Q487 463 449 420T326 363V353Q397 339 431 303T466 199Q466 148 449 109T401 43T326 2T228 -12Z" />
<glyph unicode="4" glyph-name="four" horiz-adv-x="550" d="M268 80Q270 93 272 107T278 136Q282 151 286 167H15L31 283L335 692H491L444 356Q442 344 440 330T434 302Q430 287 427 272H512L498 167H412Q411 151 410 136Q409 122 408 108T405 80L394 0H257L268
80ZM304 268Q304 282 305 297Q306 310 307 325T310 355L322 437Q325 459 330 484T342 531Q348 557 356 582H344Q331 555 316 529Q303 506 288 480T256 430L208 362Q197 346 183 331T158 305Q144 292 131 280L130 268H304Z" />
<glyph unicode="5" glyph-name="five" horiz-adv-x="550" d="M217 -12Q178 -12 148 -7T96 6T57 25T29 46L41 143Q67 126 103 113T192 100Q247 100 283 131T319 237Q319 288 293 315T203 343Q180 343 156 338T112 325H93L165 692H499L484 586H244Q244 578 243 568Q242
560 242 550T239 531L230 486Q227 471 223 457T213 432Q208 419 201 407H211Q228 417 249 425T302 433Q380 433 422 384T465 247Q465 189 448 142T399 60T321 7T217 -12Z" />
<glyph unicode="6" glyph-name="six" horiz-adv-x="550" d="M264 -12Q155 -12 99 45T43 227Q43 250 45 275T51 330L55 364Q70 465 100 531T171 635T259 689T352 705Q413 705 450 693T511 664L498 568Q481 576 450 585T371 594Q342 594 316 586T268 556T228 494T197
390H207Q233 409 267 423T346 436Q423 431 458 383T494 256Q494 201 481 152T440 67T369 9T264 -12ZM263 87Q291 87 309 100T339 136T354 188T359 250Q359 302 341 323T284 346Q256 347 234 339T190 318L188 302Q187 299 187 296T187 290Q187 287 186 285Q183 260
181 239T179 198Q179 143 197 115T263 87Z" />
<glyph unicode="7" glyph-name="seven" horiz-adv-x="550" d="M329 468Q342 492 356 512T382 546Q395 563 408 576V586H98L113 692H535L519 579L210 0H70L329 468Z" />
<glyph unicode="8" glyph-name="eight" horiz-adv-x="550" d="M252 -12Q189 -12 145 2T74 42T34 100T21 172Q21 211 34 240T70 290T120 327T178 351V361Q136 385 110 420T83 510Q83 557 100 593T147 654T217 692T302 705Q356 705 396 692T462 655T500 602T513
536Q513 500 503 473T474 426T429 392T373 366V356Q428 329 459 292T491 194Q491 144 473 106T423 42T347 2T252 -12ZM249 82Q299 82 328 108T358 187Q358 231 332 259T246 320Q198 294 171 260T143 179Q143 137 169 110T249 82ZM299 397Q344 420 367 452T391 530Q391
563 371 587T303 612Q264 612 238 587T211 516Q211 478 234 451T299 397Z" />
<glyph unicode="9" glyph-name="nine" horiz-adv-x="550" d="M201 -12Q141 -12 100 1T36 31L49 127Q66 119 101 109T182 99Q216 99 244 107T294 137T333 199T362 303H352Q326 283 295 270T231 256Q186 256 155 270T103 308T74 365T65 437Q65 491 78 540T118 625T189
683T295 705Q402 705 459 649T517 466Q517 443 515 418T509 363L504 329Q489 227 461 161T392 57T304 3T201 -12ZM275 347Q304 346 326 354T369 375L371 391Q372 397 372 402T373 408Q379 456 379 492Q379 549 361 577T296 606Q266 606 248 591T218 551T203 498T199
440Q199 390 218 370T275 347Z" />
<glyph unicode=":" glyph-name="colon" horiz-adv-x="297" d="M61 133H201L182 0H43L61 133ZM105 440H244L225 307H86L105 440Z" />
<glyph unicode=";" glyph-name="semicolon" horiz-adv-x="297" d="M6 -126Q28 -66 41 -4T62 133H203Q192 54 165 -9T97 -126H6ZM105 440H244L225 307H86L105 440Z" />
<glyph unicode="&lt;" glyph-name="less" horiz-adv-x="550" d="M67 284L84 404L505 585L487 456L321 391Q295 380 265 372T209 357Q179 350 149 344V336Q176 329 204 321Q227 314 254 305T305 284L453 212L436 92L67 284Z" />
<glyph unicode="=" glyph-name="equal" horiz-adv-x="550" d="M64 262H469L454 155H50L64 262ZM95 479H500L485 372H80L95 479Z" />
<glyph unicode="&gt;" glyph-name="greater" horiz-adv-x="550" d="M68 221L235 286Q261 296 291 305T347 320Q377 327 407 333V341Q379 348 351 356Q327 363 300 372T250 393L102 465L120 585L488 393L471 273L50 92L68 221Z" />
<glyph unicode="?" glyph-name="question" horiz-adv-x="449" d="M114 296Q118 324 126 343T146 377T174 404T211 428Q229 439 245 449T273 471T291 498T298 533Q298 562 273 578T188 594Q163 594 135 591T79 580L93 677Q162 705 245 705Q347 705 398 666T451
551Q451 514 442 487T416 439T377 402T329 371Q304 357 286 346T256 325T238 303T229 277L221 225H104L114 296ZM76 129H225L207 0H58L76 129Z" />
<glyph unicode="@" glyph-name="at" horiz-adv-x="893" d="M608 -11Q565 -11 537 4T501 47H490Q464 18 436 4T371 -10Q347 -10 325 -2T285 24T257 69T246 136Q245 197 259 248T300 336T365 393T450 413Q483 413 505 402T538 379H550L569 405H652L593 114Q587 84
595 71T623 57Q650 57 673 72T713 118T740 191T749 289Q747 410 681 474T472 538Q402 538 342 514T238 441T168 323T144 163Q145 106 154 69T176 -2H100Q80 30 67 73T53 186Q52 284 85 363T177 497T312 581T476 611Q555 611 621 590T736 528T812 428T840 292Q841
223 825 168T778 72T705 11T608 -11ZM415 64Q434 64 451 72T493 96Q492 113 492 132Q492 149 494 169T501 213L523 316Q514 327 499 333T462 340Q437 340 418 325T387 281T369 216T363 133Q363 96 375 80T415 64Z" />
<glyph unicode="A" glyph-name="A" horiz-adv-x="615" d="M285 692H452L559 0H410L399 78Q396 95 396 115T395 154H178Q173 136 167 117T152 79L118 0H-17L285 692ZM385 250Q380 268 376 287T370 324L359 407Q355 432 354 461T352 517Q351 547 351 577H340Q333
548 325 518Q318 492 309 463T288 408L252 324Q244 306 235 287T216 250H385Z" />
<glyph unicode="B" glyph-name="B" horiz-adv-x="588" d="M139 692H365Q454 692 505 653T558 532Q559 455 524 415T411 361V351Q477 338 508 307T541 213Q541 169 529 131T487 63T411 17T297 0H42L139 692ZM277 101Q337 101 366 132T395 230Q394 313 302 313H221V286Q221
275 221 262T218 238L210 175Q208 164 205 151T199 127Q195 114 192 101H277ZM302 397Q328 397 349 402T386 421T409 457T417 515Q416 551 396 571T333 592H261V567Q261 556 261 544T258 521L251 468Q249 457 247 445T241 422Q237 410 234 397H302Z" />
<glyph unicode="C" glyph-name="C" horiz-adv-x="578" d="M338 -12Q192 -12 126 58T60 265Q60 305 66 352L70 386Q82 484 113 546T189 643T287 692T396 705Q465 705 509 692T580 664L565 549Q535 563 497 573T406 584Q376 584 348 578T295 551T253 490T225 382L220
346Q216 320 215 298T213 257Q213 214 222 186T250 140T298 115T367 108Q411 108 448 116T514 137L498 22Q463 5 422 -3T338 -12Z" />
<glyph unicode="D" glyph-name="D" horiz-adv-x="652" d="M277 110Q313 110 342 117T395 147T435 211T460 321L464 351Q468 380 470 403T472 447Q472 490 463 516T434 557T385 576T315 581H261Q261 565 260 548Q259 534 258 517T255 485L216 206Q214 192 211 175T204
144Q200 127 196 110H277ZM139 692H317Q392 692 449 681T545 641T604 564T624 442Q624 419 623 395T617 343L613 314Q600 222 573 162T503 65T406 15T281 0H42L139 692Z" />
<glyph unicode="E" glyph-name="E" horiz-adv-x="561" d="M139 692H552L536 579H262V556Q262 546 261 536T259 517L252 473Q250 465 248 454T243 433Q240 422 237 410H453L438 302H223Q223 289 222 278Q221 268 221 257T219 236L211 179Q209 169 207 158T201 137Q197
126 194 113H476L460 0H42L139 692Z" />
<glyph unicode="F" glyph-name="F" horiz-adv-x="522" d="M139 692H544L529 579H263Q263 566 262 554Q261 543 261 531T258 509L250 452Q248 441 246 430T241 407Q238 395 235 382H437L421 274H221Q220 256 219 239Q218 225 217 211T215 189L188 0H42L139 692Z" />
<glyph unicode="G" glyph-name="G" horiz-adv-x="656" d="M357 -12Q286 -12 231 3T137 51T78 136T57 265Q57 287 58 311T64 361L68 390Q81 483 114 544T193 640T296 690T410 705Q453 705 485 701T542 690T583 676T614 661L595 544Q574 556 532 571T419 586Q376
586 343 576T286 541T245 478T221 381L217 353Q213 325 211 301T209 254Q209 172 243 134T362 95Q369 95 379 96T401 98T423 102T442 108Q441 115 441 125Q441 133 441 143T443 166L448 203Q450 213 452 223T457 242Q460 252 463 262H348L362 368H603L556 28Q514
10 463 -1T357 -12Z" />
<glyph unicode="H" glyph-name="H" horiz-adv-x="677" d="M139 692H285L260 512Q258 497 255 480T248 448Q244 430 240 413H482Q483 430 484 448Q485 463 486 480T489 512L514 692H661L564 0H417L445 200Q447 215 450 232T458 265Q462 283 466 300H224Q223 283
222 265Q221 250 220 233T216 200L188 0H42L139 692Z" />
<glyph unicode="I" glyph-name="I" horiz-adv-x="309" d="M142 692H289L192 0H45L142 692Z" />
<glyph unicode="J" glyph-name="J" horiz-adv-x="452" d="M157 -12Q100 -12 68 -2T10 23L25 126Q41 119 66 112T128 104Q164 104 189 123T222 191L292 692H439L366 169Q354 81 300 35T157 -12Z" />
<glyph unicode="K" glyph-name="K" horiz-adv-x="605" d="M235 353L486 692H644L481 477Q462 452 443 430T406 391Q387 371 368 353Q381 334 394 313Q405 295 418 273T442 228L554 0H397L235 353ZM134 692H281L254 493Q251 474 246 450T235 404Q229 378 222 352Q222
324 221 298Q220 275 218 250T214 206L184 0H37L134 692Z" />
<glyph unicode="L" glyph-name="L" horiz-adv-x="520" d="M139 692H285L218 213Q216 197 213 180T206 147Q202 129 198 113H458L442 0H42L139 692Z" />
<glyph unicode="M" glyph-name="M" horiz-adv-x="813" d="M139 692H337L371 377Q376 335 376 288T377 201Q376 154 375 109H387Q398 155 410 202Q421 242 435 288T464 373L587 692H797L700 0H567L618 365Q623 399 629 440T643 517Q651 559 659 601H649Q633 550
617 499Q603 455 587 406T553 314L427 0H286L255 312Q250 354 249 404T245 498Q243 549 243 601H232Q228 559 224 517Q220 481 216 440T207 365L156 0H42L139 692Z" />
<glyph unicode="N" glyph-name="N" horiz-adv-x="672" d="M139 692H310L393 461Q407 423 419 375T442 283Q453 233 464 181H476Q477 224 480 267Q482 304 485 345T493 421L533 692H655L558 0H407L312 277Q298 315 286 362T262 452Q250 501 238 552H227Q225 509
222 468Q220 433 217 393T209 320L164 0H42L139 692Z" />
<glyph unicode="O" glyph-name="O" horiz-adv-x="685" d="M332 101Q362 101 387 110T433 144T467 209T490 313L495 351Q499 380 501 405T503 451Q503 527 475 559T380 592Q348 592 321 582T273 548T237 482T218 380L215 342Q213 316 212 294T211 252Q211 211 217
183T237 136T274 110T332 101ZM326 -12Q264 -12 214 3T129 52T76 139T57 268Q57 288 58 309T62 353L66 387Q77 484 108 545T183 642T279 691T383 705Q446 705 497 690T583 642T637 559T656 437Q656 414 654 390T648 339L643 306Q628 207 597 145T523 48T430 1T326
-12Z" />
<glyph unicode="P" glyph-name="P" horiz-adv-x="567" d="M139 692H350Q408 692 449 678T516 639T556 581T569 508Q570 374 504 310T314 245H216Q215 228 214 211Q213 197 212 180T209 149L188 0H42L139 692ZM304 346Q363 346 394 383T424 502Q423 548 401 565T334
583H261Q260 569 260 555Q259 543 259 529T257 504L246 426Q244 415 241 401T235 375Q231 361 228 346H304Z" />
<glyph unicode="Q" glyph-name="Q" horiz-adv-x="685" d="M270 -21Q224 -5 185 14T117 65T72 144T56 263Q56 303 62 353L66 387Q77 484 108 545T183 642T279 691T383 705Q446 705 497 690T583 642T637 559T656 437Q656 414 654 390T648 339L643 306Q632 231 613
183T566 107T502 64T420 42V31L674 -26L633 -148L270 -21ZM331 93Q361 93 386 101T431 134T466 201T490 313L495 351Q499 380 501 405T503 451Q503 527 475 559T380 592Q348 592 321 582T273 548T237 482T218 380L215 342Q213 315 212 291T211 247Q211 205 216
176T236 129T273 102T331 93Z" />
<glyph unicode="R" glyph-name="R" horiz-adv-x="613" d="M139 692H356Q464 692 521 646T580 510Q582 429 546 383T433 315V307Q441 297 450 283Q458 271 466 253T483 211L555 0H404L319 267H220Q219 251 218 234Q217 220 216 204T213 173L188 0H42L139 692ZM320
362Q438 362 437 497Q436 539 414 562T341 585H261V559Q261 534 258 513L247 435Q245 424 243 412T237 388Q233 375 230 362H320Z" />
<glyph unicode="S" glyph-name="S" horiz-adv-x="538" d="M234 -12Q160 -12 110 3T26 41L41 152Q79 133 122 120T229 106Q280 106 309 126T339 194Q339 220 321 241T261 283L210 308Q153 336 120 377T86 487Q86 537 100 577T144 646T219 690T324 705Q400 705 444
689T512 657L496 544Q469 559 430 573T330 588Q275 588 252 564T229 504Q230 479 244 461T297 423L348 398Q378 383 404 367T448 329T478 280T489 214Q490 156 472 114T421 43T340 2T234 -12Z" />
<glyph unicode="T" glyph-name="T" horiz-adv-x="568" d="M241 481Q243 495 246 512T252 544Q256 561 260 578H86L102 692H586L571 578H397Q396 561 395 544Q394 529 393 512T389 481L321 0H173L241 481Z" />
<glyph unicode="U" glyph-name="U" horiz-adv-x="667" d="M328 -12Q191 -12 130 41T69 190Q69 202 70 215T73 242L136 692H283L219 236Q216 215 216 197Q216 141 244 118T331 95Q354 95 373 100T408 120T435 158T451 221L517 692H652L585 210Q569 96 506 42T328 -12Z" />
<glyph unicode="V" glyph-name="V" horiz-adv-x="615" d="M83 692H232L277 326Q281 294 283 256T286 184Q287 145 287 106H298Q306 143 316 181Q324 213 335 250T360 319L512 692H654L356 0H185L83 692Z" />
<glyph unicode="W" glyph-name="W" horiz-adv-x="847" d="M88 692H224L234 409Q236 364 236 309T233 205Q231 148 229 90H239Q252 148 265 204Q276 252 290 306T319 403L416 692H557L573 408Q575 362 575 307T575 203Q574 147 572 90H583Q595 149 607 205Q618
253 631 307T658 403L752 692H880L643 0H478L466 271Q464 314 465 366T468 463Q470 516 473 569H462Q450 517 438 465Q427 420 414 371T387 281L293 0H125L88 692Z" />
<glyph unicode="X" glyph-name="X" horiz-adv-x="598" d="M207 354L98 692H251L288 579Q296 553 302 522T311 464Q315 432 317 400H328Q340 432 352 463Q363 489 376 519T404 573L474 692H621L419 355L533 0H381L336 135Q328 160 322 189T312 245Q308 275 305
305H293Q282 273 270 242Q259 215 245 185T217 131L138 0H-10L207 354Z" />
<glyph unicode="Y" glyph-name="Y" horiz-adv-x="576" d="M217 254L81 692H232L272 548Q280 519 286 483T297 415Q302 378 306 341H317Q328 378 341 414Q352 445 366 480T398 546L477 692H618L367 258L330 0H182L217 254Z" />
<glyph unicode="Z" glyph-name="Z" horiz-adv-x="564" d="M27 110L290 453Q305 473 324 493T361 530Q381 549 403 568L402 578H113L128 692H571L556 581L294 239Q279 219 259 199T222 162Q201 143 180 124V113H487L471 0H12L27 110Z" />
<glyph unicode="[" glyph-name="bracketleft" horiz-adv-x="392" d="M143 739H420L406 645H268L169 -57H307L295 -151H18L143 739Z" />
<glyph unicode="\" glyph-name="backslash" horiz-adv-x="442" d="M88 733H202L374 -149H260L88 733Z" />
<glyph unicode="]" glyph-name="bracketright" horiz-adv-x="392" d="M-5 -57H133L232 645H94L107 739H385L260 -151H-18L-5 -57Z" />
<glyph unicode="^" glyph-name="asciicircum" horiz-adv-x="568" d="M275 692H414L533 362H404L368 464Q358 491 353 518T344 567Q340 593 340 616H329Q323 593 313 568Q305 546 292 520T261 464L198 362H65L275 692Z" />
<glyph unicode="_" glyph-name="underscore" horiz-adv-x="355" d="M-45 -58H317L304 -147H-58L-45 -58Z" />
<glyph unicode="`" glyph-name="grave" horiz-adv-x="450" d="M113 770H255L319 596H216L113 770Z" />
<glyph unicode="a" glyph-name="a" horiz-adv-x="503" d="M156 -12Q95 -12 58 22T20 120Q20 167 35 198T78 250T146 281T235 294L309 299L316 344Q324 394 298 412T211 431Q182 431 151 427T98 416L111 505Q143 516 183 524T271 533Q458 533 458 387Q458 369 455
348L408 0H302L294 56H283Q261 27 231 8T156 -12ZM213 72Q236 72 254 81T286 105L304 236L244 231Q203 227 180 206T156 132Q156 106 167 89T213 72Z" />
<glyph unicode="b" glyph-name="b" horiz-adv-x="554" d="M290 -12Q234 -12 202 6T154 51H143L121 0H27L128 719H270L251 584Q245 543 235 509L225 474H236Q264 502 299 517T372 533Q404 533 431 525T478 496T509 441T520 354Q520 337 519 318T515 277L510 239Q500
165 480 117T432 40T367 0T290 -12ZM259 81Q278 81 295 87T325 110T349 158T365 237L370 277Q372 297 373 313T375 343Q375 394 357 411T301 428Q274 428 255 419T221 402L180 114Q192 101 209 91T259 81Z" />
<glyph unicode="c" glyph-name="c" horiz-adv-x="478" d="M275 -12Q157 -12 101 45T45 204Q45 218 46 233T49 264L53 294Q63 367 89 413T153 486T233 523T319 533Q377 533 409 524T465 502L451 403Q438 409 427 413T402 422T373 428T334 430Q313 430 292 425T253
404T220 361T199 291L194 259Q192 243 191 230T189 204Q189 143 218 117T309 90Q338 90 367 96T416 108L402 15Q381 4 347 -4T275 -12Z" />
<glyph unicode="d" glyph-name="d" horiz-adv-x="557" d="M199 -12Q164 -12 134 -1T82 34T46 94T33 178Q33 213 40 251L47 290Q60 361 82 408T132 482T195 521T268 533Q294 533 312 529T344 518T368 503T387 485H398Q397 505 397 523Q397 539 397 557T400 589L418
719H559L458 0H349L347 55H336Q278 -12 199 -12ZM254 86Q283 86 302 97T335 120L374 400Q363 413 347 421T298 429Q279 429 263 425T233 406T208 363T190 288L184 249Q178 207 178 179Q178 150 183 132T199 104T223 90T254 86Z" />
<glyph unicode="e" glyph-name="e" horiz-adv-x="510" d="M268 -11Q149 -11 93 43T37 203Q37 217 38 231T41 260L45 294Q59 410 121 471T281 533Q333 533 369 519T428 480T461 420T472 343Q472 328 471 312T467 279L460 230H173Q172 221 172 213T171 196Q171 134
200 111T298 88Q333 88 367 96T433 115L421 25Q394 11 355 0T268 -11ZM181 293Q198 297 221 300T273 304H344Q346 320 347 334T349 360Q349 400 334 420T281 441Q263 441 248 434T219 411T197 365T181 293Z" />
<glyph unicode="f" glyph-name="f" horiz-adv-x="365" d="M102 321Q104 332 106 344T111 367Q114 379 118 393H41L55 492H132V509Q132 517 132 525T134 542L140 583Q147 622 163 649T203 693T255 717T314 725Q349 725 374 720T411 709L397 615Q387 617 374 619T341
621Q312 621 297 606T277 564L274 542Q271 526 266 509Q263 500 261 492H375L361 393H247Q246 379 246 367Q245 356 245 344T243 321L179 -132H38L102 321Z" />
<glyph unicode="g" glyph-name="g" horiz-adv-x="554" d="M217 -172Q179 -172 150 -169T98 -159T55 -144T18 -125L30 -35Q56 -46 97 -58T195 -71Q245 -71 277 -54T318 10L320 21Q323 40 327 53T334 74Q338 84 341 89H330Q304 70 275 57T207 43Q170 43 139 53T86
84T52 138T40 220Q40 234 41 249T45 282L48 304Q58 374 79 418T130 488T192 523T261 532Q291 532 312 527T348 514T375 494T397 471H407L426 523H528L456 9Q449 -40 429 -74T378 -130T306 -162T217 -172ZM264 135Q287 135 306 142T339 160L372 399Q359 411 341
418T291 426Q273 426 257 421T229 403T207 364T191 298L188 276Q186 261 185 248T184 223Q184 170 205 153T264 135Z" />
<glyph unicode="h" glyph-name="h" horiz-adv-x="557" d="M128 719H270L250 582Q244 542 234 502Q229 480 223 459H234Q267 492 304 512T392 533Q449 533 482 503T515 407Q515 388 512 366L461 0H319L368 356Q373 394 361 408T313 423Q287 423 265 413T223 388L169
0H27L128 719Z" />
<glyph unicode="i" glyph-name="i" horiz-adv-x="275" d="M104 523H246L172 0H31L104 523ZM129 715H275L259 604H113L129 715Z" />
<glyph unicode="j" glyph-name="j" horiz-adv-x="275" d="M8 -171Q-34 -171 -55 -165T-92 -150L-79 -64Q-71 -66 -62 -68T-35 -70Q-10 -70 7 -57T31 -2L104 523H246L170 -17Q149 -171 8 -171ZM129 715H275L259 604H113L129 715Z" />
<glyph unicode="k" glyph-name="k" horiz-adv-x="511" d="M209 272L379 523H530L412 371Q398 353 383 337T355 307Q340 292 325 278Q335 265 346 249Q355 235 365 218T384 182L467 0H320L209 272ZM130 719H269L230 438Q225 406 219 377T208 324Q202 297 195 273Q195
250 194 224Q193 201 191 171T184 109L168 0H29L130 719Z" />
<glyph unicode="l" glyph-name="l" horiz-adv-x="291" d="M161 -5Q96 -5 67 23T47 115L132 719H272L189 125Q186 103 191 94T217 84Q222 84 230 84T244 86L233 4Q200 -5 161 -5Z" />
<glyph unicode="m" glyph-name="m" horiz-adv-x="845" d="M100 523H223V461H233Q270 494 306 513T386 533Q478 533 503 454H514Q552 491 593 512T678 533Q740 533 772 502T804 406Q804 385 801 363L750 0H608L657 353Q662 391 650 407T600 423Q578 423 555 413T512
389Q512 387 512 382T509 364L458 0H317L366 350Q371 389 359 406T311 423Q287 423 265 414T222 390L168 0H26L100 523Z" />
<glyph unicode="n" glyph-name="n" horiz-adv-x="557" d="M101 523H224L223 459H234Q267 492 304 512T392 533Q449 533 482 503T515 407Q515 388 512 366L461 0H319L368 356Q373 394 361 408T313 423Q287 423 265 413T223 388L169 0H27L101 523Z" />
<glyph unicode="o" glyph-name="o" horiz-adv-x="548" d="M256 84Q276 84 292 90T320 112T341 156T356 228L363 277Q366 296 367 312T368 342Q368 395 350 416T293 437Q252 437 227 406T190 293L183 244Q180 225 179 210T178 180Q178 125 198 105T256 84ZM256
-12Q199 -12 158 3T90 45T51 112T38 199Q38 225 41 252L46 294Q53 357 75 402T130 476T205 519T295 533Q407 533 458 479T509 326Q509 312 508 298T505 269L500 227Q492 164 472 119T419 44T346 2T256 -12Z" />
<glyph unicode="p" glyph-name="p" horiz-adv-x="554" d="M101 523H227L225 474H236Q264 501 298 517T375 533Q407 533 433 524T478 493T507 438T518 353Q518 336 517 318T513 278L509 244Q501 173 481 127T432 55T367 19T289 9Q237 9 212 21T175 45H164V32Q164
26 164 19T165 2Q165 -12 165 -26T162 -54L146 -164H4L101 523ZM258 100Q275 100 291 104T321 124T347 167T365 241L370 276Q376 321 376 350Q376 398 359 413T304 429Q276 429 255 419T220 399L182 125Q195 114 211 107T258 100Z" />
<glyph unicode="q" glyph-name="q" horiz-adv-x="554" d="M307 -42Q309 -25 313 -7T323 26Q328 43 334 58H323Q296 37 269 24T201 10Q166 10 136 19T83 48T49 102T36 185Q36 217 42 258L47 290Q59 368 82 416T134 489T197 523T266 532Q295 532 315 527T351 514T376
495T397 472H408L426 523H528L432 -164H290L307 -42ZM257 102Q283 102 301 109T334 126L372 400Q361 411 343 418T293 426Q276 426 261 422T233 404T208 363T190 288L185 255Q179 216 179 190Q179 164 184 147T200 120T224 106T257 102Z" />
<glyph unicode="r" glyph-name="r" horiz-adv-x="387" d="M102 523H224L223 444H233Q298 530 398 529L379 404Q340 406 297 397T222 367L170 0H28L102 523Z" />
<glyph unicode="s" glyph-name="s" horiz-adv-x="430" d="M182 -12Q123 -12 82 0T13 30L26 127Q53 113 89 102T172 91Q207 91 228 104T250 150Q250 170 241 181T200 206L149 227Q105 245 82 277T57 361Q56 448 106 490T244 533Q301 533 336 524T399 497L385 401Q362
414 328 423T252 433Q221 433 203 421T184 380Q184 358 196 346T230 326L282 306Q336 285 359 253T382 176Q382 123 368 88T327 30T263 -2T182 -12Z" />
<glyph unicode="t" glyph-name="t" horiz-adv-x="381" d="M217 -8Q149 -8 113 21T76 114Q76 131 79 149L103 321Q105 332 107 344T112 367Q115 379 118 393H45L59 492H132Q132 505 133 518Q134 529 135 541T138 565L150 653H291L279 565Q277 554 274 542T268 518Q264
505 261 492H376L362 393H248Q247 379 247 367Q246 356 246 344T244 321L221 156Q216 125 227 111T277 96Q288 96 302 98T328 103L315 14Q298 5 273 -1T217 -8Z" />
<glyph unicode="u" glyph-name="u" horiz-adv-x="553" d="M168 -10Q111 -10 78 20T44 117Q44 135 47 158L98 523H240L189 169Q183 129 196 114T244 99Q270 99 290 109T331 133L385 523H527L454 0H339L336 64H325Q292 31 256 11T168 -10Z" />
<glyph unicode="v" glyph-name="v" horiz-adv-x="521" d="M63 523H204L230 294Q234 262 235 225T237 156Q237 118 236 81H246Q253 117 263 154Q271 185 281 221T304 288L397 523H533L304 0H144L63 523Z" />
<glyph unicode="w" glyph-name="w" horiz-adv-x="756" d="M72 523H205L215 314Q217 279 216 240T213 168Q211 129 209 91H219Q227 129 237 167Q245 199 256 236T278 306L357 523H490L504 314Q506 278 506 239T507 167Q506 128 505 91H515Q522 129 531 168Q539
201 548 238T569 306L643 523H765L570 0H420L410 218Q408 250 408 286T409 351Q410 385 412 419H401Q392 385 382 351Q374 322 364 288T343 223L266 0H116L72 523Z" />
<glyph unicode="x" glyph-name="x" horiz-adv-x="517" d="M166 267L76 523H220L247 430Q252 411 256 389T263 347Q266 324 268 301H278Q285 322 293 344Q300 363 309 384T328 425L379 523H518L358 274L456 0H312L281 102Q275 121 271 143T263 186Q259 209 257
232H246Q238 211 229 189Q221 170 212 148T191 107L130 0H-10L166 267Z" />
<glyph unicode="y" glyph-name="y" horiz-adv-x="503" d="M75 -170Q43 -170 18 -165T-19 -152L-6 -62Q5 -65 18 -68T53 -72Q83 -72 107 -59T143 -10L151 13L55 523H199L227 311Q231 282 231 246T232 176Q231 137 230 98H241Q249 134 259 171Q267 203 278 240T304
310L390 523H526L269 -44Q237 -115 189 -142T75 -170Z" />
<glyph unicode="z" glyph-name="z" horiz-adv-x="463" d="M17 103L202 323Q221 345 239 362T271 391Q288 404 302 414V424H77L90 523H461L448 426L262 206Q243 184 225 167T191 136Q173 121 157 109V99H399L385 0H3L17 103Z" />
<glyph unicode="{" glyph-name="braceleft" horiz-adv-x="446" d="M349 -154Q115 -142 115 -8Q115 15 123 45L152 151Q165 197 134 217T30 245L46 362Q81 363 108 367T153 380T180 404T191 443L194 558Q196 658 268 700T475 740L462 646Q405 644 374 625T334 549L318
437Q314 408 303 385T272 346T219 318T140 303V295Q185 285 213 272T257 240T277 199T278 147L262 39Q261 33 261 26T260 13Q260 -25 285 -40T362 -60L349 -154Z" />
<glyph unicode="|" glyph-name="bar" horiz-adv-x="315" d="M93 733H212L222 -149H102L93 733Z" />
<glyph unicode="}" glyph-name="braceright" horiz-adv-x="446" d="M-5 -59Q52 -58 83 -38T123 38L139 150Q143 179 154 202T185 241T238 268T317 284V292Q272 302 244 315T199 347T179 388T179 440L195 548Q196 556 196 562T197 574Q197 612 172 627T95 647L108
741Q342 729 342 596Q342 572 334 542L305 436Q292 389 323 370T426 342L410 225Q340 223 304 207T266 144L263 29Q261 -72 188 -114T-18 -153L-5 -59Z" />
<glyph unicode="~" glyph-name="asciitilde" horiz-adv-x="445" d="M49 237Q52 279 64 309T93 359T132 388T177 397Q198 397 215 391T248 376T276 361T303 354Q322 354 331 369T346 404H423Q414 319 381 281T301 242Q280 242 262 248T229 263T199 277T173 284Q153
284 142 271T125 237H49Z" />
<glyph unicode="&#xa0;" glyph-name="uni00A0" horiz-adv-x="216" />
<glyph unicode="&#xa1;" glyph-name="exclamdown" horiz-adv-x="314" d="M122 342H222L186 -124H24L122 342ZM127 567H277L259 438H109L127 567Z" />
<glyph unicode="&#xa2;" glyph-name="cent" horiz-adv-x="550" d="M170 -73Q175 -56 184 -37T205 0Q131 20 96 75T61 209Q61 223 62 237T65 267L69 297Q79 369 105 414T168 486T248 523T335 533Q344 533 353 533T370 532Q370 544 371 556T377 581L391 628H487L474
581Q469 566 461 550T443 519Q459 514 471 508T494 495L480 397Q466 404 449 411T407 424Q405 409 403 393T396 361L338 172Q331 151 322 129T303 89Q310 88 318 88T334 88Q364 88 395 95T444 108L432 17Q412 6 376 -3T298 -12Q293 -12 289 -12T279 -11Q277 -28
275 -44T268 -74L254 -117H156L170 -73ZM247 103Q249 120 252 139T261 176L317 363Q322 380 330 397T346 431H342Q315 431 292 426T251 405T221 363T203 293L199 261Q197 246 196 233T195 207Q195 168 207 143T247 103Z" />
<glyph unicode="&#xa3;" glyph-name="sterling" horiz-adv-x="550" d="M15 97Q57 116 80 148T115 242L118 256Q123 281 132 302H53L66 396H147Q146 406 146 418Q146 428 146 441T148 468L153 505Q160 562 184 600T241 661T313 695T393 705Q447 705 484 693T545
662L531 566Q508 576 479 583T407 590Q390 590 371 587T335 573T304 541T286 482L282 453Q280 440 276 425T267 396H428L415 302H256Q257 291 257 281T255 259L253 244Q249 217 240 197T217 162T187 136T153 116V106H467L453 0H1L15 97Z" />
<glyph unicode="&#xa5;" glyph-name="yen" horiz-adv-x="550" d="M170 44Q172 60 175 74T183 99H34L45 176H196Q195 187 195 198T196 218Q197 224 200 234T207 256H57L66 333H193Q185 350 177 368T163 407L79 692H219L254 553Q262 522 267 485T275 414Q279 375
281 336H291Q303 375 316 414Q327 447 341 484T372 552L444 692H575L414 407Q403 387 390 368T365 333H492L482 256H330Q331 245 331 235T331 217Q330 209 327 198T319 176H470L459 99H309Q311 88 311 74T309 45L302 0H164L170 44Z" />
<glyph unicode="&#xa6;" glyph-name="brokenbar" horiz-adv-x="315" d="M98 238H218L222 -149H102L98 238ZM93 733H212L216 386H97L93 733Z" />
<glyph unicode="&#xa7;" glyph-name="section" horiz-adv-x="530" d="M217 -101Q147 -101 107 -88T40 -60L54 36Q79 22 113 9T202 -5Q241 -5 262 9T283 52Q282 72 267 87T214 124L148 161Q96 190 69 221T40 299Q40 330 49 352T74 392T112 420T158 441L159 450Q136
472 130 496T123 541Q123 583 137 613T178 664T241 695T323 705Q386 705 428 691T494 663L480 567Q454 582 418 595T328 609Q293 609 273 596T253 553Q253 533 267 517T320 480L391 442Q442 415 469 383T497 305Q497 273 488 250T463 209T426 179T381 158L380 150Q395
133 403 115T412 68Q413 21 398 -11T355 -64T293 -92T217 -101ZM337 196Q360 210 372 225T383 264Q382 284 372 298T336 327L202 405Q179 392 166 376T153 338Q153 318 166 305T210 272L337 196Z" />
<glyph unicode="&#xa8;" glyph-name="dieresis" horiz-adv-x="450" d="M119 715H247L231 604H103L119 715ZM339 715H467L451 604H323L339 715Z" />
<glyph unicode="&#xa9;" glyph-name="copyright" horiz-adv-x="745" d="M380 177Q314 177 273 214T232 323V353Q232 392 244 419T278 463T326 489T385 497Q412 497 434 492T469 479V415Q452 421 433 424T392 428Q360 428 341 412T321 361V323Q321 285 338 266T398
246Q422 246 441 252T472 264V199Q457 191 433 184T380 177ZM372 70Q428 70 475 90T557 146T611 231T630 340Q630 398 611 447T558 532T476 587T372 607Q315 607 268 587T187 532T134 448T115 340Q115 281 134 232T187 146T268 90T372 70ZM372 17Q303 17 245 42T144
112T77 214T53 340Q53 406 77 464T144 566T245 635T372 660Q440 660 498 635T600 567T667 465T692 340Q692 273 668 215T600 112T499 43T372 17Z" />
<glyph unicode="&#xaa;" glyph-name="ordfeminine" horiz-adv-x="460" d="M170 221Q118 221 89 251T59 336Q59 413 103 450T239 493L298 497L304 536Q309 575 290 590T225 606Q194 606 170 602T122 590L134 678Q166 691 199 698T274 705Q351 705 390 675T430 576Q430
557 427 536L384 231H292L285 282H276Q259 256 232 239T170 221ZM223 300Q242 300 255 308T278 327L293 438L247 434Q211 432 194 413T177 351Q177 300 223 300Z" />
<glyph unicode="&#xab;" glyph-name="guillemotleft" horiz-adv-x="526" d="M48 262L55 311L197 507H297L166 279L231 58H138L48 262ZM261 262L268 311L409 507H510L379 279L444 58H351L261 262Z" />
<glyph unicode="&#xae;" glyph-name="registered" horiz-adv-x="633" d="M219 561H325Q370 561 397 540T425 480Q425 425 370 414V406L380 396Q385 391 392 382T407 360L437 312H365L311 400H281Q282 394 283 388Q284 383 285 377T286 366V312H219V561ZM321 441Q357
441 357 480Q357 500 347 507T320 515H281Q282 509 283 504Q284 499 285 494T286 485V472Q286 467 285 462T283 452Q282 447 281 441H321ZM316 207Q363 207 402 224T470 271T515 342T531 433Q531 482 515 523T471 593T403 639T316 656Q269 656 230 640T162 594T119
523T103 433Q103 384 118 343T162 271T229 224T316 207ZM316 158Q258 158 209 179T123 238T66 326T45 433Q45 489 65 538T122 625T208 683T316 705Q374 705 424 684T510 625T567 539T588 433Q588 376 568 326T511 239T424 180T316 158Z" />
<glyph unicode="&#xaf;" glyph-name="macron" horiz-adv-x="450" d="M149 709H428L415 616H136L149 709Z" />
<glyph unicode="&#xb0;" glyph-name="degree" horiz-adv-x="466" d="M255 418Q297 418 324 449T351 533Q351 552 346 569T329 599T303 621T266 629Q224 629 197 598T169 516Q169 474 191 446T255 418ZM252 343Q211 343 179 357T125 394T90 449T78 515Q78 555 93
590T134 650T195 689T269 704Q309 704 341 690T395 653T430 600T442 537Q442 495 427 459T387 398T326 358T252 343Z" />
<glyph unicode="&#xb2;" glyph-name="twosuperior" horiz-adv-x="425" d="M64 319L177 419Q205 444 226 464T262 505T283 545T291 590Q291 619 274 637T210 655Q184 655 161 651T116 639L127 718Q150 729 180 737T252 746Q294 746 323 735T372 706T401 661T410
605Q410 539 374 490T274 392L262 383Q247 372 234 363T209 347Q197 339 186 333V326H380L369 243H53L64 319Z" />
<glyph unicode="&#xb3;" glyph-name="threesuperior" horiz-adv-x="425" d="M215 231Q185 231 162 234T120 243T88 255T62 269L73 347Q96 337 124 328T196 319Q231 319 256 335T281 395Q281 424 266 439T211 454H154L167 537H213Q299 537 299 605Q299 633 281
647T214 661Q194 661 171 657T127 647L137 725Q189 745 252 745Q334 745 372 711T410 626Q410 572 382 542T293 500V492Q350 479 373 453T397 382Q397 344 384 316T346 269T289 241T215 231Z" />
<glyph unicode="&#xb4;" glyph-name="acute" horiz-adv-x="450" d="M301 770H445L327 596H217L301 770Z" />
<glyph unicode="&#xb6;" glyph-name="paragraph" horiz-adv-x="630" d="M266 340H261Q186 340 136 380T84 498Q82 595 143 644T332 693H602L488 -120H395L485 519Q487 533 490 550T497 583Q501 601 505 618H391Q390 601 389 583Q388 568 387 551T384 519L295 -120H201L266
340Z" />
<glyph unicode="&#xb7;" glyph-name="periodcentered" horiz-adv-x="300" d="M94 381H243L224 249H75L94 381Z" />
<glyph unicode="&#xb8;" glyph-name="cedilla" horiz-adv-x="450" d="M69 -179Q85 -160 101 -136T132 -88T156 -40T172 0H265Q258 -48 243 -96T207 -179H69Z" />
<glyph unicode="&#xb9;" glyph-name="onesuperior" horiz-adv-x="425" d="M89 319H184V343Q184 354 184 365T187 388L221 628Q214 625 204 621Q187 615 154 610L121 605L130 671L283 738H351L302 388Q300 377 297 366T292 343Q288 331 286 319H378L367 242H78L89 319Z" />
<glyph unicode="&#xba;" glyph-name="ordmasculine" horiz-adv-x="460" d="M233 307Q247 307 258 312T279 330T296 368T310 430L316 478Q319 497 320 512T321 541Q321 584 307 601T264 619Q249 619 237 614T216 594T199 555T186 495L179 447Q176 428 175 413T174
384Q174 339 189 323T233 307ZM232 220Q139 220 96 267T53 398Q53 412 54 426T57 455L63 494Q80 607 134 656T268 705Q357 705 400 659T443 528Q443 514 442 500T439 471L434 431Q425 374 407 334T363 268T304 232T232 220Z" />
<glyph unicode="&#xbb;" glyph-name="guillemotright" horiz-adv-x="526" d="M154 286L89 507H183L273 303L266 254L124 58H23L154 286ZM368 286L303 507H395L485 303L478 254L337 58H237L368 286Z" />
<glyph unicode="&#xbc;" glyph-name="onequarter" horiz-adv-x="1096" d="M851 -115Q853 -105 855 -95T860 -74Q863 -63 866 -52H659L673 43L894 327H1027L994 94Q991 75 986 53Q983 42 980 30H1047L1035 -52H970Q970 -63 969 -74Q968 -84 968 -94T966 -115L959
-164H844L851 -115ZM882 25Q882 37 883 48Q884 58 884 70T887 93L893 142Q895 158 899 177T908 213Q913 232 919 251H909Q897 231 886 211Q875 194 863 175T839 138L809 95Q800 84 790 73T770 53Q759 42 748 34V25H882ZM89 319H184V343Q184 354 184 365T187 388L221
628Q214 625 204 621Q187 615 154 610L121 605L130 671L283 738H351L302 388Q300 377 297 366T292 343Q288 331 286 319H378L367 242H78L89 319ZM565 313L913 753H1047L617 276L274 -164H140L565 313Z" />
<glyph unicode="&#xbd;" glyph-name="onehalf" horiz-adv-x="1096" d="M89 319H184V343Q184 354 184 365T187 388L221 628Q214 625 204 621Q187 615 154 610L121 605L130 671L283 738H351L302 388Q300 377 297 366T292 343Q288 331 286 319H378L367 242H78L89
319ZM681 -87L794 13Q822 38 843 58T879 99T900 139T908 184Q908 213 891 231T827 249Q801 249 778 245T733 233L744 312Q767 323 797 331T869 340Q911 340 940 329T989 300T1018 255T1027 199Q1027 133 991 84T891 -14L879 -23Q864 -34 851 -43T826 -59Q814 -67
803 -73V-80H997L986 -163H670L681 -87ZM535 313L883 753H1017L587 276L244 -164H110L535 313Z" />
<glyph unicode="&#xbe;" glyph-name="threequarters" horiz-adv-x="1096" d="M851 -115Q853 -105 855 -95T860 -74Q863 -63 866 -52H659L673 43L894 327H1027L994 94Q991 75 986 53Q983 42 980 30H1047L1035 -52H970Q970 -63 969 -74Q968 -84 968 -94T966 -115L959
-164H844L851 -115ZM882 25Q882 37 883 48Q884 58 884 70T887 93L893 142Q895 158 899 177T908 213Q913 232 919 251H909Q897 231 886 211Q875 194 863 175T839 138L809 95Q800 84 790 73T770 53Q759 42 748 34V25H882ZM215 231Q185 231 162 234T120 243T88 255T62
269L73 347Q96 337 124 328T196 319Q231 319 256 335T281 395Q281 424 266 439T211 454H154L167 537H213Q299 537 299 605Q299 633 281 647T214 661Q194 661 171 657T127 647L137 725Q189 745 252 745Q334 745 372 711T410 626Q410 572 382 542T293 500V492Q350
479 373 453T397 382Q397 344 384 316T346 269T289 241T215 231ZM565 313L913 753H1047L617 276L274 -164H140L565 313Z" />
<glyph unicode="&#xbf;" glyph-name="questiondown" horiz-adv-x="449" d="M210 -138Q110 -138 58 -99T5 16Q5 53 14 80T39 128T78 165T127 196Q152 210 169 221T199 242T218 263T227 290L234 342H352L342 271Q338 243 330 224T310 190T282 163T245 139Q227 128
211 118T183 96T165 69T158 34Q159 5 183 -11T268 -27Q293 -27 321 -24T377 -13L364 -110Q293 -138 210 -138ZM249 567H398L380 438H231L249 567Z" />
<glyph unicode="&#xc0;" glyph-name="Agrave" horiz-adv-x="615" d="M234 886H394L437 750H320L234 886ZM285 692H452L559 0H410L399 78Q396 95 396 115T395 154H178Q173 136 167 117T152 79L118 0H-17L285 692ZM385 250Q380 268 376 287T370 324L359 407Q355
432 354 461T352 517Q351 547 351 577H340Q333 548 325 518Q318 492 309 463T288 408L252 324Q244 306 235 287T216 250H385Z" />
<glyph unicode="&#xc1;" glyph-name="Aacute" horiz-adv-x="615" d="M369 886H531L427 750H306L369 886ZM285 692H452L559 0H410L399 78Q396 95 396 115T395 154H178Q173 136 167 117T152 79L118 0H-17L285 692ZM385 250Q380 268 376 287T370 324L359 407Q355
432 354 461T352 517Q351 547 351 577H340Q333 548 325 518Q318 492 309 463T288 408L252 324Q244 306 235 287T216 250H385Z" />
<glyph unicode="&#xc2;" glyph-name="Acircumflex" horiz-adv-x="615" d="M312 886H466L553 750H438L423 773Q414 787 408 798T398 820Q394 831 390 841H381Q376 832 368 821Q361 812 352 800T329 773L308 750H191L312 886ZM285 692H452L559 0H410L399 78Q396
95 396 115T395 154H178Q173 136 167 117T152 79L118 0H-17L285 692ZM385 250Q380 268 376 287T370 324L359 407Q355 432 354 461T352 517Q351 547 351 577H340Q333 548 325 518Q318 492 309 463T288 408L252 324Q244 306 235 287T216 250H385Z" />
<glyph unicode="&#xc3;" glyph-name="Atilde" horiz-adv-x="615" d="M192 747Q201 817 236 854T320 891Q340 891 358 885T392 870T422 856T451 849Q471 849 480 863T495 898H571Q562 828 529 790T449 752Q429 752 411 758T377 771T346 785T318 792Q298 792 286
780T268 747H192ZM285 692H452L559 0H410L399 78Q396 95 396 115T395 154H178Q173 136 167 117T152 79L118 0H-17L285 692ZM385 250Q380 268 376 287T370 324L359 407Q355 432 354 461T352 517Q351 547 351 577H340Q333 548 325 518Q318 492 309 463T288 408L252
324Q244 306 235 287T216 250H385Z" />
<glyph unicode="&#xc4;" glyph-name="Adieresis" horiz-adv-x="615" d="M213 869H341L325 758H197L213 869ZM433 869H561L545 758H417L433 869ZM285 692H452L559 0H410L399 78Q396 95 396 115T395 154H178Q173 136 167 117T152 79L118 0H-17L285 692ZM385 250Q380
268 376 287T370 324L359 407Q355 432 354 461T352 517Q351 547 351 577H340Q333 548 325 518Q318 492 309 463T288 408L252 324Q244 306 235 287T216 250H385Z" />
<glyph unicode="&#xc5;" glyph-name="Aring" horiz-adv-x="615" d="M377 775Q401 775 414 791T428 832Q428 856 415 872T377 889Q353 889 340 873T326 832Q326 807 339 791T377 775ZM377 724Q351 724 330 732T293 756T270 790T262 832Q262 854 270 873T293 908T329
931T377 940Q403 940 424 932T460 908T483 874T492 832Q492 810 484 791T460 756T424 733T377 724ZM285 692H452L559 0H410L399 78Q396 95 396 115T395 154H178Q173 136 167 117T152 79L118 0H-17L285 692ZM385 250Q380 268 376 287T370 324L359 407Q355 432 354
461T352 517Q351 547 351 577H340Q333 548 325 518Q318 492 309 463T288 408L252 324Q244 306 235 287T216 250H385Z" />
<glyph unicode="&#xc6;" glyph-name="AE" horiz-adv-x="893" d="M440 692H888L872 579H619V556Q619 546 618 536T616 517L609 473Q607 465 605 454T600 433Q597 422 595 410H794L779 302H580Q580 289 579 278Q578 268 578 257T576 236L568 179Q566 169 564 158T559
137Q556 126 553 113H812L796 0H399L420 153H205Q194 123 171 87L114 0H-29L440 692ZM434 249L457 412Q462 451 469 489T484 557Q492 592 500 623H489Q478 591 463 558Q450 529 432 494T392 424L325 318Q313 298 298 281T269 249H434Z" />
<glyph unicode="&#xc7;" glyph-name="Ccedilla" horiz-adv-x="578" d="M146 -179Q162 -161 178 -138T207 -90T231 -43T248 -3Q149 17 105 84T60 265Q60 305 66 352L70 386Q82 484 113 546T189 643T287 692T396 705Q465 705 509 692T580 664L565 549Q535 563 497
573T406 584Q376 584 348 578T295 551T253 490T225 382L220 346Q216 320 215 298T213 257Q213 214 222 186T250 140T298 115T367 108Q411 108 448 116T514 137L498 22Q463 5 423 -3T340 -12Q332 -57 318 -101T284 -179H146Z" />
<glyph unicode="&#xc8;" glyph-name="Egrave" horiz-adv-x="561" d="M223 886H383L426 750H309L223 886ZM139 692H552L536 579H262V556Q262 546 261 536T259 517L252 473Q250 465 248 454T243 433Q240 422 237 410H453L438 302H223Q223 289 222 278Q221 268 221
257T219 236L211 179Q209 169 207 158T201 137Q197 126 194 113H476L460 0H42L139 692Z" />
<glyph unicode="&#xc9;" glyph-name="Eacute" horiz-adv-x="561" d="M354 886H516L412 750H291L354 886ZM139 692H552L536 579H262V556Q262 546 261 536T259 517L252 473Q250 465 248 454T243 433Q240 422 237 410H453L438 302H223Q223 289 222 278Q221 268 221
257T219 236L211 179Q209 169 207 158T201 137Q197 126 194 113H476L460 0H42L139 692Z" />
<glyph unicode="&#xca;" glyph-name="Ecircumflex" horiz-adv-x="561" d="M298 886H452L539 750H424L409 773Q400 787 394 798T384 820Q380 831 376 841H367Q362 832 354 821Q347 812 338 800T315 773L294 750H177L298 886ZM139 692H552L536 579H262V556Q262 546
261 536T259 517L252 473Q250 465 248 454T243 433Q240 422 237 410H453L438 302H223Q223 289 222 278Q221 268 221 257T219 236L211 179Q209 169 207 158T201 137Q197 126 194 113H476L460 0H42L139 692Z" />
<glyph unicode="&#xcb;" glyph-name="Edieresis" horiz-adv-x="561" d="M199 869H327L311 758H183L199 869ZM419 869H547L531 758H403L419 869ZM139 692H552L536 579H262V556Q262 546 261 536T259 517L252 473Q250 465 248 454T243 433Q240 422 237 410H453L438
302H223Q223 289 222 278Q221 268 221 257T219 236L211 179Q209 169 207 158T201 137Q197 126 194 113H476L460 0H42L139 692Z" />
<glyph unicode="&#xcc;" glyph-name="Igrave" horiz-adv-x="309" d="M90 886H250L293 750H176L90 886ZM142 692H289L192 0H45L142 692Z" />
<glyph unicode="&#xcd;" glyph-name="Iacute" horiz-adv-x="309" d="M221 886H383L279 750H158L221 886ZM142 692H289L192 0H45L142 692Z" />
<glyph unicode="&#xce;" glyph-name="Icircumflex" horiz-adv-x="309" d="M165 886H319L406 750H291L276 773Q267 787 261 798T251 820Q247 831 243 841H234Q229 832 221 821Q214 812 205 800T182 773L161 750H44L165 886ZM142 692H289L192 0H45L142 692Z" />
<glyph unicode="&#xcf;" glyph-name="Idieresis" horiz-adv-x="309" d="M66 869H194L178 758H50L66 869ZM286 869H414L398 758H270L286 869ZM142 692H289L192 0H45L142 692Z" />
<glyph unicode="&#xd0;" glyph-name="Eth" horiz-adv-x="677" d="M53 398H133Q133 416 133 434T137 470L168 692H342Q417 692 474 681T570 641T629 564T649 442Q649 419 648 395T642 343L638 314Q625 222 598 162T528 65T431 15T306 0H71L102 219Q104 236 108
255T118 292H38L53 398ZM302 110Q338 110 368 117T421 147T460 211T486 321L490 351Q494 379 496 402T498 446Q498 489 489 515T460 556T410 576T340 581H289Q289 570 288 559Q287 549 287 536T284 508L278 456Q276 442 273 427T264 398H397L382 292H248Q248 277
248 263T246 234L240 190Q238 176 236 162T230 136Q226 122 223 110H302Z" />
<glyph unicode="&#xd1;" glyph-name="Ntilde" horiz-adv-x="672" d="M245 747Q254 817 289 854T373 891Q393 891 411 885T445 870T475 856T504 849Q524 849 533 863T548 898H624Q615 828 582 790T502 752Q482 752 464 758T430 771T399 785T371 792Q351 792 339
780T321 747H245ZM139 692H310L393 461Q407 423 419 375T442 283Q453 233 464 181H476Q477 224 480 267Q482 304 485 345T493 421L533 692H655L558 0H407L312 277Q298 315 286 362T262 452Q250 501 238 552H227Q225 509 222 468Q220 433 217 393T209 320L164 0H42L139
692Z" />
<glyph unicode="&#xd2;" glyph-name="Ograve" horiz-adv-x="685" d="M278 886H438L481 750H364L278 886ZM332 101Q362 101 387 110T433 144T467 209T490 313L495 351Q499 380 501 405T503 451Q503 527 475 559T380 592Q348 592 321 582T273 548T237 482T218 380L215
342Q213 316 212 294T211 252Q211 211 217 183T237 136T274 110T332 101ZM326 -12Q264 -12 214 3T129 52T76 139T57 268Q57 288 58 309T62 353L66 387Q77 484 108 545T183 642T279 691T383 705Q446 705 497 690T583 642T637 559T656 437Q656 414 654 390T648 339L643
306Q628 207 597 145T523 48T430 1T326 -12Z" />
<glyph unicode="&#xd3;" glyph-name="Oacute" horiz-adv-x="685" d="M409 886H571L467 750H346L409 886ZM332 101Q362 101 387 110T433 144T467 209T490 313L495 351Q499 380 501 405T503 451Q503 527 475 559T380 592Q348 592 321 582T273 548T237 482T218 380L215
342Q213 316 212 294T211 252Q211 211 217 183T237 136T274 110T332 101ZM326 -12Q264 -12 214 3T129 52T76 139T57 268Q57 288 58 309T62 353L66 387Q77 484 108 545T183 642T279 691T383 705Q446 705 497 690T583 642T637 559T656 437Q656 414 654 390T648 339L643
306Q628 207 597 145T523 48T430 1T326 -12Z" />
<glyph unicode="&#xd4;" glyph-name="Ocircumflex" horiz-adv-x="685" d="M353 886H507L594 750H479L464 773Q455 787 449 798T439 820Q435 831 431 841H422Q417 832 409 821Q402 812 393 800T370 773L349 750H232L353 886ZM332 101Q362 101 387 110T433 144T467
209T490 313L495 351Q499 380 501 405T503 451Q503 527 475 559T380 592Q348 592 321 582T273 548T237 482T218 380L215 342Q213 316 212 294T211 252Q211 211 217 183T237 136T274 110T332 101ZM326 -12Q264 -12 214 3T129 52T76 139T57 268Q57 288 58 309T62
353L66 387Q77 484 108 545T183 642T279 691T383 705Q446 705 497 690T583 642T637 559T656 437Q656 414 654 390T648 339L643 306Q628 207 597 145T523 48T430 1T326 -12Z" />
<glyph unicode="&#xd5;" glyph-name="Otilde" horiz-adv-x="685" d="M232 747Q241 817 276 854T360 891Q380 891 398 885T432 870T462 856T491 849Q511 849 520 863T535 898H611Q602 828 569 790T489 752Q469 752 451 758T417 771T386 785T358 792Q338 792 326
780T308 747H232ZM332 101Q362 101 387 110T433 144T467 209T490 313L495 351Q499 380 501 405T503 451Q503 527 475 559T380 592Q348 592 321 582T273 548T237 482T218 380L215 342Q213 316 212 294T211 252Q211 211 217 183T237 136T274 110T332 101ZM326 -12Q264
-12 214 3T129 52T76 139T57 268Q57 288 58 309T62 353L66 387Q77 484 108 545T183 642T279 691T383 705Q446 705 497 690T583 642T637 559T656 437Q656 414 654 390T648 339L643 306Q628 207 597 145T523 48T430 1T326 -12Z" />
<glyph unicode="&#xd6;" glyph-name="Odieresis" horiz-adv-x="685" d="M254 869H382L366 758H238L254 869ZM474 869H602L586 758H458L474 869ZM332 101Q362 101 387 110T433 144T467 209T490 313L495 351Q499 380 501 405T503 451Q503 527 475 559T380 592Q348
592 321 582T273 548T237 482T218 380L215 342Q213 316 212 294T211 252Q211 211 217 183T237 136T274 110T332 101ZM326 -12Q264 -12 214 3T129 52T76 139T57 268Q57 288 58 309T62 353L66 387Q77 484 108 545T183 642T279 691T383 705Q446 705 497 690T583 642T637
559T656 437Q656 414 654 390T648 339L643 306Q628 207 597 145T523 48T430 1T326 -12Z" />
<glyph unicode="&#xd7;" glyph-name="multiply" horiz-adv-x="550" d="M50 200L131 272Q148 287 171 304T215 335Q198 349 180 365T149 397L88 469L172 545L232 473Q244 458 258 437T283 398Q298 417 316 437T352 473L433 545L503 469L422 397Q405 382 381 365T337
334Q354 320 372 304T404 272L465 200L381 124L321 196Q308 211 294 232T269 271Q255 252 237 232T201 196L120 124L50 200Z" />
<glyph unicode="&#xd8;" glyph-name="Oslash" horiz-adv-x="685" d="M78 -70Q91 -44 110 -16T150 38Q106 71 82 128T57 272Q57 291 58 311T62 353L66 387Q77 484 108 545T183 642T279 691T383 705Q439 705 489 691Q498 721 509 744L528 781H639L618 742Q609 725
593 702T559 658Q605 626 630 570T655 432Q655 410 654 387T648 339L643 306Q628 207 597 145T523 48T430 1T326 -12Q266 -12 218 3Q211 -18 204 -38T188 -74L165 -117H53L78 -70ZM210 148Q217 165 224 181T239 212L391 501Q401 521 418 546T448 589Q421 596 375
596Q342 596 314 585T264 549T228 483T209 380L206 342Q203 302 201 271T198 214Q198 193 200 177T210 148ZM336 97Q367 97 393 107T440 142T476 208T499 313L504 351Q509 396 512 429T516 489Q516 512 513 528T500 557Q493 539 485 520T469 485L318 197Q307 176
290 150T261 106Q288 97 336 97Z" />
<glyph unicode="&#xd9;" glyph-name="Ugrave" horiz-adv-x="667" d="M275 886H435L478 750H361L275 886ZM328 -12Q191 -12 130 41T69 190Q69 202 70 215T73 242L136 692H283L219 236Q216 215 216 197Q216 141 244 118T331 95Q354 95 373 100T408 120T435 158T451
221L517 692H652L585 210Q569 96 506 42T328 -12Z" />
<glyph unicode="&#xda;" glyph-name="Uacute" horiz-adv-x="667" d="M406 886H568L464 750H343L406 886ZM328 -12Q191 -12 130 41T69 190Q69 202 70 215T73 242L136 692H283L219 236Q216 215 216 197Q216 141 244 118T331 95Q354 95 373 100T408 120T435 158T451
221L517 692H652L585 210Q569 96 506 42T328 -12Z" />
<glyph unicode="&#xdb;" glyph-name="Ucircumflex" horiz-adv-x="667" d="M350 886H504L591 750H476L461 773Q452 787 446 798T436 820Q432 831 428 841H419Q414 832 406 821Q399 812 390 800T367 773L346 750H229L350 886ZM328 -12Q191 -12 130 41T69 190Q69
202 70 215T73 242L136 692H283L219 236Q216 215 216 197Q216 141 244 118T331 95Q354 95 373 100T408 120T435 158T451 221L517 692H652L585 210Q569 96 506 42T328 -12Z" />
<glyph unicode="&#xdc;" glyph-name="Udieresis" horiz-adv-x="667" d="M251 869H379L363 758H235L251 869ZM471 869H599L583 758H455L471 869ZM328 -12Q191 -12 130 41T69 190Q69 202 70 215T73 242L136 692H283L219 236Q216 215 216 197Q216 141 244 118T331
95Q354 95 373 100T408 120T435 158T451 221L517 692H652L585 210Q569 96 506 42T328 -12Z" />
<glyph unicode="&#xdd;" glyph-name="Yacute" horiz-adv-x="576" d="M357 886H519L415 750H294L357 886ZM217 254L81 692H232L272 548Q280 519 286 483T297 415Q302 378 306 341H317Q328 378 341 414Q352 445 366 480T398 546L477 692H618L367 258L330 0H182L217 254Z" />
<glyph unicode="&#xde;" glyph-name="Thorn" horiz-adv-x="567" d="M139 692H285L278 641Q276 627 273 614T268 590Q265 578 262 567H339Q396 567 436 554T501 515T539 456T552 382Q553 258 486 197T299 136H202Q201 121 200 106Q199 93 199 80T196 55L188 0H42L139
692ZM283 237Q345 237 376 268T407 376Q406 424 381 441T313 458H243V433Q243 422 243 409T240 384L229 311Q227 300 225 287T219 263Q215 250 212 237H283Z" />
<glyph unicode="&#xdf;" glyph-name="germandbls" horiz-adv-x="567" d="M104 549Q112 606 135 643T190 704T261 736T336 746Q434 746 487 704T541 591Q542 512 496 470T369 411V401Q521 354 523 221Q523 168 510 126T471 55T409 11T328 -5Q284 -5 266 1T237 12L250
101Q258 99 266 97T295 94Q337 94 359 128T381 232Q380 283 357 313T287 361L300 453Q351 464 380 496T408 582Q407 615 387 632T337 649Q305 649 279 626T244 538L151 -132H9L104 549Z" />
<glyph unicode="&#xe0;" glyph-name="agrave" horiz-adv-x="503" d="M156 -12Q95 -12 58 22T20 120Q20 167 35 198T78 250T146 281T235 294L309 299L316 344Q324 394 298 412T211 431Q182 431 151 427T98 416L111 505Q143 516 183 524T271 533Q458 533 458 387Q458
369 455 348L408 0H302L294 56H283Q261 27 231 8T156 -12ZM213 72Q236 72 254 81T286 105L304 236L244 231Q203 227 180 206T156 132Q156 106 167 89T213 72ZM147 770H289L353 596H250L147 770Z" />
<glyph unicode="&#xe1;" glyph-name="aacute" horiz-adv-x="503" d="M156 -12Q95 -12 58 22T20 120Q20 167 35 198T78 250T146 281T235 294L309 299L316 344Q324 394 298 412T211 431Q182 431 151 427T98 416L111 505Q143 516 183 524T271 533Q458 533 458 387Q458
369 455 348L408 0H302L294 56H283Q261 27 231 8T156 -12ZM213 72Q236 72 254 81T286 105L304 236L244 231Q203 227 180 206T156 132Q156 106 167 89T213 72ZM320 770H464L346 596H236L320 770Z" />
<glyph unicode="&#xe2;" glyph-name="acircumflex" horiz-adv-x="503" d="M156 -12Q95 -12 58 22T20 120Q20 167 35 198T78 250T146 281T235 294L309 299L316 344Q324 394 298 412T211 431Q182 431 151 427T98 416L111 505Q143 516 183 524T271 533Q458 533 458
387Q458 369 455 348L408 0H302L294 56H283Q261 27 231 8T156 -12ZM213 72Q236 72 254 81T286 105L304 236L244 231Q203 227 180 206T156 132Q156 106 167 89T213 72ZM239 770H384L474 596H356L334 642Q321 669 315 694Q311 707 309 721H300Q295 708 289 695Q284
684 276 670T256 642L219 596H104L239 770Z" />
<glyph unicode="&#xe3;" glyph-name="atilde" horiz-adv-x="503" d="M156 -12Q95 -12 58 22T20 120Q20 167 35 198T78 250T146 281T235 294L309 299L316 344Q324 394 298 412T211 431Q182 431 151 427T98 416L111 505Q143 516 183 524T271 533Q458 533 458 387Q458
369 455 348L408 0H302L294 56H283Q261 27 231 8T156 -12ZM213 72Q236 72 254 81T286 105L304 236L244 231Q203 227 180 206T156 132Q156 106 167 89T213 72ZM118 600Q126 670 160 707T243 744Q263 744 280 738T313 723T342 709T370 702Q390 702 399 716T414 751H490Q481
681 450 643T371 605Q351 605 334 611T301 624T271 638T243 645Q223 645 211 633T194 600H118Z" />
<glyph unicode="&#xe4;" glyph-name="adieresis" horiz-adv-x="503" d="M137 715H265L249 604H121L137 715ZM357 715H485L469 604H341L357 715ZM156 -12Q95 -12 58 22T20 120Q20 167 35 198T78 250T146 281T235 294L309 299L316 344Q324 394 298 412T211 431Q182
431 151 427T98 416L111 505Q143 516 183 524T271 533Q458 533 458 387Q458 369 455 348L408 0H302L294 56H283Q261 27 231 8T156 -12ZM213 72Q236 72 254 81T286 105L304 236L244 231Q203 227 180 206T156 132Q156 106 167 89T213 72Z" />
<glyph unicode="&#xe5;" glyph-name="aring" horiz-adv-x="503" d="M308 638Q332 638 345 654T359 695Q359 719 346 735T308 752Q284 752 271 736T257 695Q257 670 270 654T308 638ZM308 587Q282 587 261 595T224 619T201 653T193 695Q193 717 201 736T224 771T260
794T308 803Q334 803 355 795T391 771T414 737T423 695Q423 673 415 654T391 619T355 596T308 587ZM156 -12Q95 -12 58 22T20 120Q20 167 35 198T78 250T146 281T235 294L309 299L316 344Q324 394 298 412T211 431Q182 431 151 427T98 416L111 505Q143 516 183
524T271 533Q458 533 458 387Q458 369 455 348L408 0H302L294 56H283Q261 27 231 8T156 -12ZM213 72Q236 72 254 81T286 105L304 236L244 231Q203 227 180 206T156 132Q156 106 167 89T213 72Z" />
<glyph unicode="&#xe6;" glyph-name="ae" horiz-adv-x="784" d="M165 -12Q97 -12 59 22T20 120Q20 167 35 199T78 251T145 281T234 294L317 299L324 347Q332 397 306 414T210 431Q181 431 151 427T97 416L110 505Q142 516 182 524T270 533Q305 533 328 528T368
513T393 489T410 455H420Q445 491 481 512T569 533Q616 533 650 519T705 480T737 420T747 342Q747 327 746 312T742 279L735 230H444Q443 219 443 210T442 193Q442 134 472 111T573 88Q609 88 643 96T709 115L697 25Q669 11 631 0T543 -11Q462 -11 415 10T345 77H335Q303
37 265 13T165 -12ZM216 72Q251 72 277 88T320 122Q315 139 313 159T310 204Q310 212 310 220T311 236L243 231Q202 228 179 206T155 132Q155 106 167 89T216 72ZM452 293Q468 297 491 300T551 304H620Q622 319 623 332T624 358Q624 399 609 420T556 441Q534 441
518 434T489 409T467 363T452 293Z" />
<glyph unicode="&#xe7;" glyph-name="ccedilla" horiz-adv-x="478" d="M78 -179Q94 -160 110 -136T141 -88T165 -40T181 0Q111 20 78 72T45 204Q45 218 46 233T49 264L53 294Q63 367 89 413T153 486T233 523T319 533Q377 533 409 524T465 502L451 403Q438 409
427 413T402 422T373 428T334 430Q313 430 292 425T253 404T220 361T199 291L194 259Q192 243 191 230T189 204Q189 143 218 117T309 90Q338 90 367 96T416 108L402 15Q381 4 347 -4T275 -12H272Q264 -57 250 -101T216 -179H78Z" />
<glyph unicode="&#xe8;" glyph-name="egrave" horiz-adv-x="510" d="M268 -11Q149 -11 93 43T37 203Q37 217 38 231T41 260L45 294Q59 410 121 471T281 533Q333 533 369 519T428 480T461 420T472 343Q472 328 471 312T467 279L460 230H173Q172 221 172 213T171
196Q171 134 200 111T298 88Q333 88 367 96T433 115L421 25Q394 11 355 0T268 -11ZM181 293Q198 297 221 300T273 304H344Q346 320 347 334T349 360Q349 400 334 420T281 441Q263 441 248 434T219 411T197 365T181 293ZM148 770H290L354 596H251L148 770Z" />
<glyph unicode="&#xe9;" glyph-name="eacute" horiz-adv-x="510" d="M268 -11Q149 -11 93 43T37 203Q37 217 38 231T41 260L45 294Q59 410 121 471T281 533Q333 533 369 519T428 480T461 420T472 343Q472 328 471 312T467 279L460 230H173Q172 221 172 213T171
196Q171 134 200 111T298 88Q333 88 367 96T433 115L421 25Q394 11 355 0T268 -11ZM181 293Q198 297 221 300T273 304H344Q346 320 347 334T349 360Q349 400 334 420T281 441Q263 441 248 434T219 411T197 365T181 293ZM326 770H470L352 596H242L326 770Z" />
<glyph unicode="&#xea;" glyph-name="ecircumflex" horiz-adv-x="510" d="M243 770H388L478 596H360L338 642Q325 669 319 694Q315 707 313 721H304Q299 708 293 695Q288 684 280 670T260 642L223 596H108L243 770ZM268 -11Q149 -11 93 43T37 203Q37 217 38 231T41
260L45 294Q59 410 121 471T281 533Q333 533 369 519T428 480T461 420T472 343Q472 328 471 312T467 279L460 230H173Q172 221 172 213T171 196Q171 134 200 111T298 88Q333 88 367 96T433 115L421 25Q394 11 355 0T268 -11ZM181 293Q198 297 221 300T273 304H344Q346
320 347 334T349 360Q349 400 334 420T281 441Q263 441 248 434T219 411T197 365T181 293Z" />
<glyph unicode="&#xeb;" glyph-name="edieresis" horiz-adv-x="510" d="M268 -11Q149 -11 93 43T37 203Q37 217 38 231T41 260L45 294Q59 410 121 471T281 533Q333 533 369 519T428 480T461 420T472 343Q472 328 471 312T467 279L460 230H173Q172 221 172 213T171
196Q171 134 200 111T298 88Q333 88 367 96T433 115L421 25Q394 11 355 0T268 -11ZM181 293Q198 297 221 300T273 304H344Q346 320 347 334T349 360Q349 400 334 420T281 441Q263 441 248 434T219 411T197 365T181 293ZM148 715H276L260 604H132L148 715ZM368 715H496L480
604H352L368 715Z" />
<glyph unicode="&#xec;" glyph-name="igrave" horiz-adv-x="275" d="M286 770H428L492 596H389L286 770ZM104 523H246L172 0H31L104 523Z" />
<glyph unicode="&#xed;" glyph-name="iacute" horiz-adv-x="275" d="M104 523H246L172 0H31L104 523ZM459 770H603L485 596H375L459 770Z" />
<glyph unicode="&#xee;" glyph-name="icircumflex" horiz-adv-x="275" d="M393 770H538L628 596H510L488 642Q475 669 469 694Q465 707 463 721H454Q449 708 443 695Q438 684 430 670T410 642L373 596H258L393 770ZM104 523H246L172 0H31L104 523Z" />
<glyph unicode="&#xef;" glyph-name="idieresis" horiz-adv-x="275" d="M287 715H415L399 604H271L287 715ZM507 715H635L619 604H491L507 715ZM104 523H246L172 0H31L104 523Z" />
<glyph unicode="&#xf0;" glyph-name="eth" horiz-adv-x="546" d="M255 -12Q140 -10 88 40T35 181Q35 203 38 229L43 268Q50 325 71 364T121 427T184 462T251 473Q280 473 302 468T343 454T375 433T404 408L411 414Q394 436 379 457Q366 475 353 493T334 525Q320
552 312 575L151 523L127 589L263 633Q253 640 243 647T225 662L161 719H316L341 700Q357 685 368 667L486 706L510 640L419 610Q437 596 454 572Q480 531 495 481T511 358Q511 335 510 310T504 257L497 203Q489 146 468 105T415 38T342 0T255 -12ZM257 84Q276
84 291 88T319 105T339 142T354 205L360 248Q363 269 365 293T368 336Q354 360 334 372T284 384Q243 384 220 359T187 266L180 220Q178 206 177 194T176 170Q176 120 197 103T257 84Z" />
<glyph unicode="&#xf1;" glyph-name="ntilde" horiz-adv-x="557" d="M101 523H224L223 459H234Q267 492 304 512T392 533Q449 533 482 503T515 407Q515 388 512 366L461 0H319L368 356Q373 394 361 408T313 423Q287 423 265 413T223 388L169 0H27L101 523ZM155
600Q163 670 197 707T280 744Q300 744 317 738T350 723T379 709T407 702Q427 702 436 716T451 751H527Q518 681 487 643T408 605Q388 605 371 611T338 624T308 638T280 645Q260 645 248 633T231 600H155Z" />
<glyph unicode="&#xf2;" glyph-name="ograve" horiz-adv-x="548" d="M256 84Q276 84 292 90T320 112T341 156T356 228L363 277Q366 296 367 312T368 342Q368 395 350 416T293 437Q252 437 227 406T190 293L183 244Q180 225 179 210T178 180Q178 125 198 105T256
84ZM256 -12Q199 -12 158 3T90 45T51 112T38 199Q38 225 41 252L46 294Q53 357 75 402T130 476T205 519T295 533Q407 533 458 479T509 326Q509 312 508 298T505 269L500 227Q492 164 472 119T419 44T346 2T256 -12ZM161 770H303L367 596H264L161 770Z" />
<glyph unicode="&#xf3;" glyph-name="oacute" horiz-adv-x="548" d="M336 770H480L362 596H252L336 770ZM256 84Q276 84 292 90T320 112T341 156T356 228L363 277Q366 296 367 312T368 342Q368 395 350 416T293 437Q252 437 227 406T190 293L183 244Q180 225 179
210T178 180Q178 125 198 105T256 84ZM256 -12Q199 -12 158 3T90 45T51 112T38 199Q38 225 41 252L46 294Q53 357 75 402T130 476T205 519T295 533Q407 533 458 479T509 326Q509 312 508 298T505 269L500 227Q492 164 472 119T419 44T346 2T256 -12Z" />
<glyph unicode="&#xf4;" glyph-name="ocircumflex" horiz-adv-x="548" d="M261 770H406L496 596H378L356 642Q343 669 337 694Q333 707 331 721H322Q317 708 311 695Q306 684 298 670T278 642L241 596H126L261 770ZM256 84Q276 84 292 90T320 112T341 156T356
228L363 277Q366 296 367 312T368 342Q368 395 350 416T293 437Q252 437 227 406T190 293L183 244Q180 225 179 210T178 180Q178 125 198 105T256 84ZM256 -12Q199 -12 158 3T90 45T51 112T38 199Q38 225 41 252L46 294Q53 357 75 402T130 476T205 519T295 533Q407
533 458 479T509 326Q509 312 508 298T505 269L500 227Q492 164 472 119T419 44T346 2T256 -12Z" />
<glyph unicode="&#xf5;" glyph-name="otilde" horiz-adv-x="548" d="M132 600Q140 670 174 707T257 744Q277 744 294 738T327 723T356 709T384 702Q404 702 413 716T428 751H504Q495 681 464 643T385 605Q365 605 348 611T315 624T285 638T257 645Q237 645 225
633T208 600H132ZM256 84Q276 84 292 90T320 112T341 156T356 228L363 277Q366 296 367 312T368 342Q368 395 350 416T293 437Q252 437 227 406T190 293L183 244Q180 225 179 210T178 180Q178 125 198 105T256 84ZM256 -12Q199 -12 158 3T90 45T51 112T38 199Q38
225 41 252L46 294Q53 357 75 402T130 476T205 519T295 533Q407 533 458 479T509 326Q509 312 508 298T505 269L500 227Q492 164 472 119T419 44T346 2T256 -12Z" />
<glyph unicode="&#xf6;" glyph-name="odieresis" horiz-adv-x="548" d="M256 84Q276 84 292 90T320 112T341 156T356 228L363 277Q366 296 367 312T368 342Q368 395 350 416T293 437Q252 437 227 406T190 293L183 244Q180 225 179 210T178 180Q178 125 198 105T256
84ZM256 -12Q199 -12 158 3T90 45T51 112T38 199Q38 225 41 252L46 294Q53 357 75 402T130 476T205 519T295 533Q407 533 458 479T509 326Q509 312 508 298T505 269L500 227Q492 164 472 119T419 44T346 2T256 -12ZM153 715H281L265 604H137L153 715ZM373 715H501L485
604H357L373 715Z" />
<glyph unicode="&#xf7;" glyph-name="divide" horiz-adv-x="550" d="M196 190H335L316 57H177L196 190ZM85 403H506L491 291H69L85 403ZM259 637H398L379 504H240L259 637Z" />
<glyph unicode="&#xf8;" glyph-name="oslash" horiz-adv-x="548" d="M29 -73Q45 -47 67 -21T110 27Q72 55 55 98T38 199Q38 225 41 252L46 294Q53 357 75 402T130 476T205 519T295 533Q343 533 382 522Q387 539 394 557T410 591L425 618H530L515 591Q502 568 482
543T439 494Q475 467 491 424T508 324Q508 297 505 269L500 227Q492 164 472 119T419 44T346 2T256 -12Q205 -12 166 0Q161 -18 154 -37T135 -74L113 -110H6L29 -73ZM167 125Q173 141 180 159T199 197L287 366Q296 383 310 403T337 439Q319 446 287 446Q242 446
213 411T173 293L167 244Q164 219 162 199T160 162Q160 139 167 125ZM261 76Q283 76 300 83T332 108T356 155T372 228L379 277Q383 303 384 324T386 363Q386 378 385 389T378 410Q373 393 365 371T348 331L261 158Q252 140 238 120T210 83Q220 78 232 77T261 76Z"
/>
<glyph unicode="&#xf9;" glyph-name="ugrave" horiz-adv-x="553" d="M170 770H312L376 596H273L170 770ZM168 -10Q111 -10 78 20T44 117Q44 135 47 158L98 523H240L189 169Q183 129 196 114T244 99Q270 99 290 109T331 133L385 523H527L454 0H339L336 64H325Q292
31 256 11T168 -10Z" />
<glyph unicode="&#xfa;" glyph-name="uacute" horiz-adv-x="553" d="M168 -10Q111 -10 78 20T44 117Q44 135 47 158L98 523H240L189 169Q183 129 196 114T244 99Q270 99 290 109T331 133L385 523H527L454 0H339L336 64H325Q292 31 256 11T168 -10ZM343 770H487L369
596H259L343 770Z" />
<glyph unicode="&#xfb;" glyph-name="ucircumflex" horiz-adv-x="553" d="M168 -10Q111 -10 78 20T44 117Q44 135 47 158L98 523H240L189 169Q183 129 196 114T244 99Q270 99 290 109T331 133L385 523H527L454 0H339L336 64H325Q292 31 256 11T168 -10ZM277 770H422L512
596H394L372 642Q359 669 353 694Q349 707 347 721H338Q333 708 327 695Q322 684 314 670T294 642L257 596H142L277 770Z" />
<glyph unicode="&#xfc;" glyph-name="udieresis" horiz-adv-x="553" d="M171 715H299L283 604H155L171 715ZM391 715H519L503 604H375L391 715ZM168 -10Q111 -10 78 20T44 117Q44 135 47 158L98 523H240L189 169Q183 129 196 114T244 99Q270 99 290 109T331 133L385
523H527L454 0H339L336 64H325Q292 31 256 11T168 -10Z" />
<glyph unicode="&#xfd;" glyph-name="yacute" horiz-adv-x="503" d="M75 -170Q43 -170 18 -165T-19 -152L-6 -62Q5 -65 18 -68T53 -72Q83 -72 107 -59T143 -10L151 13L55 523H199L227 311Q231 282 231 246T232 176Q231 137 230 98H241Q249 134 259 171Q267 203
278 240T304 310L390 523H526L269 -44Q237 -115 189 -142T75 -170ZM324 770H468L350 596H240L324 770Z" />
<glyph unicode="&#xfe;" glyph-name="thorn" horiz-adv-x="554" d="M128 719H270L251 584Q249 567 245 548T236 512Q231 493 226 474H236Q264 501 299 517T372 533Q404 533 430 524T476 493T507 436T518 350Q518 333 517 316T513 278L509 244Q501 173 481 127T432
55T367 19T289 9Q237 9 212 21T175 45H164V32Q164 26 164 19T165 2Q165 -12 165 -26T162 -54L146 -164H4L128 719ZM258 100Q275 100 291 104T321 124T347 167T365 241L370 276Q376 316 376 344Q376 395 357 411T301 428Q274 428 255 419T221 402L182 125Q195 114
211 107T258 100Z" />
<glyph unicode="&#xff;" glyph-name="ydieresis" horiz-adv-x="503" d="M144 715H272L256 604H128L144 715ZM364 715H492L476 604H348L364 715ZM75 -170Q43 -170 18 -165T-19 -152L-6 -62Q5 -65 18 -68T53 -72Q83 -72 107 -59T143 -10L151 13L55 523H199L227 311Q231
282 231 246T232 176Q231 137 230 98H241Q249 134 259 171Q267 203 278 240T304 310L390 523H526L269 -44Q237 -115 189 -142T75 -170Z" />
<glyph unicode="&#x131;" glyph-name="dotlessi" horiz-adv-x="275" d="M104 523H246L172 0H31L104 523Z" />
<glyph unicode="&#x141;" glyph-name="Lslash" horiz-adv-x="540" d="M87 178Q89 192 93 212T103 251L20 220L34 323L118 354Q118 372 118 390T121 423L159 692H305L276 479Q274 463 270 445T260 408L458 482L444 379L245 304Q247 269 242 238L234 189Q232 174
229 161T224 136Q221 124 218 113H478L462 0H62L87 178Z" />
<glyph unicode="&#x142;" glyph-name="lslash" horiz-adv-x="341" d="M44 375L119 410Q119 426 120 443T123 477L157 719H297L274 554Q272 537 267 516T256 475L351 520L337 415L241 370Q242 354 242 338T239 305L214 125Q211 103 216 94T242 84Q247 84 255 84T269
86L258 4Q225 -5 186 -5Q121 -5 92 23T72 115L88 232Q90 251 94 269T104 305L29 270L44 375Z" />
<glyph unicode="&#x152;" glyph-name="OE" horiz-adv-x="879" d="M360 0Q286 0 229 11T133 51T74 128T53 250Q53 273 55 298T61 352L65 380Q78 473 107 533T178 629T276 678T396 692H878L862 579H593V556Q593 546 592 536T590 517L583 473Q581 465 579 454T574
433Q571 422 569 410H779L764 302H554Q554 289 553 278Q552 268 552 257T550 236L542 179Q540 169 538 158T533 137Q530 126 527 113H802L786 0H360ZM395 111Q395 127 396 144Q397 158 398 175T401 207L440 486Q442 500 445 517T452 548Q456 565 461 582H399Q364
582 334 575T280 545T240 482T217 374L214 344Q212 319 211 298T209 258Q209 212 217 183T244 138T292 117T362 111H395Z" />
<glyph unicode="&#x153;" glyph-name="oe" horiz-adv-x="859" d="M250 -12Q140 -12 89 45T37 200Q37 225 40 252L45 294Q52 356 75 401T131 475T207 519T295 533Q419 533 457 440H465Q494 486 531 509T623 533Q676 533 713 519T775 479T810 417T821 338Q821 324
820 309T817 279L810 230H505Q502 189 508 162T531 119T575 95T639 88Q676 88 713 96T783 115L771 25Q744 11 703 0T614 -11Q542 -11 497 13T429 86H421Q370 -12 250 -12ZM264 84Q283 84 300 90T330 112T354 156T371 228L378 277Q380 293 381 307T382 333Q382 390
360 413T300 437Q280 437 262 430T230 406T206 362T189 293L182 244Q180 227 179 213T177 186Q177 127 200 106T264 84ZM513 293Q530 297 554 300T607 304H694Q697 329 697 350Q697 395 680 418T624 441Q605 441 588 434T556 411T530 365T513 293Z" />
<glyph unicode="&#x160;" glyph-name="Scaron" horiz-adv-x="538" d="M174 886H289L304 863Q312 849 318 837T329 815Q333 804 337 795H346Q351 804 359 815Q366 824 375 836T398 863L419 886H536L415 750H261L174 886ZM234 -12Q160 -12 110 3T26 41L41 152Q79
133 122 120T229 106Q280 106 309 126T339 194Q339 220 321 241T261 283L210 308Q153 336 120 377T86 487Q86 537 100 577T144 646T219 690T324 705Q400 705 444 689T512 657L496 544Q469 559 430 573T330 588Q275 588 252 564T229 504Q230 479 244 461T297 423L348
398Q378 383 404 367T448 329T478 280T489 214Q490 156 472 114T421 43T340 2T234 -12Z" />
<glyph unicode="&#x161;" glyph-name="scaron" horiz-adv-x="430" d="M182 -12Q123 -12 82 0T13 30L26 127Q53 113 89 102T172 91Q207 91 228 104T250 150Q250 170 241 181T200 206L149 227Q105 245 82 277T57 361Q56 448 106 490T244 533Q301 533 336 524T399
497L385 401Q362 414 328 423T252 433Q221 433 203 421T184 380Q184 358 196 346T230 326L282 306Q336 285 359 253T382 176Q382 123 368 88T327 30T263 -2T182 -12ZM589 596H444L354 770H472L494 724Q500 711 504 697T512 672Q516 658 519 645H528Q533 658 539
671Q544 682 552 696T572 724L609 770H724L589 596Z" />
<glyph unicode="&#x178;" glyph-name="Ydieresis" horiz-adv-x="576" d="M207 869H335L319 758H191L207 869ZM427 869H555L539 758H411L427 869ZM217 254L81 692H232L272 548Q280 519 286 483T297 415Q302 378 306 341H317Q328 378 341 414Q352 445 366 480T398
546L477 692H618L367 258L330 0H182L217 254Z" />
<glyph unicode="&#x17d;" glyph-name="Zcaron" horiz-adv-x="564" d="M197 886H312L327 863Q335 849 341 837T352 815Q356 804 360 795H369Q374 804 382 815Q389 824 398 836T421 863L442 886H559L438 750H284L197 886ZM27 110L290 453Q305 473 324 493T361 530Q381
549 403 568L402 578H113L128 692H571L556 581L294 239Q279 219 259 199T222 162Q201 143 180 124V113H487L471 0H12L27 110Z" />
<glyph unicode="&#x17e;" glyph-name="zcaron" horiz-adv-x="463" d="M17 103L202 323Q221 345 239 362T271 391Q288 404 302 414V424H77L90 523H461L448 426L262 206Q243 184 225 167T191 136Q173 121 157 109V99H399L385 0H3L17 103ZM362 596H217L127 770H245L267
724Q273 711 277 697T285 672Q289 658 292 645H301Q306 658 312 671Q317 682 325 696T345 724L382 770H497L362 596Z" />
<glyph unicode="&#x192;" glyph-name="florin" horiz-adv-x="440" d="M47 433H140Q139 449 139 465T142 495L148 535Q155 584 172 617T213 669T268 697T334 705Q366 705 385 701T416 691V598Q407 600 395 601T365 602Q327 602 306 585T277 518L274 495Q269 465
258 433H379V334H241Q242 320 242 306Q242 294 242 280T240 255L186 -129H51L108 259Q110 276 115 296T126 334H47V433Z" />
<glyph unicode="&#x2c6;" glyph-name="circumflex" horiz-adv-x="450" d="M226 770H371L461 596H343L321 642Q308 669 302 694Q298 707 296 721H287Q282 708 276 695Q271 684 263 670T243 642L206 596H91L226 770Z" />
<glyph unicode="&#x2c7;" glyph-name="caron" horiz-adv-x="450" d="M344 596H199L109 770H227L249 724Q255 711 259 697T267 672Q271 658 274 645H283Q288 658 294 671Q299 682 307 696T327 724L364 770H479L344 596Z" />
<glyph unicode="&#x2d8;" glyph-name="breve" horiz-adv-x="450" d="M287 595Q218 595 176 635T136 746H224Q227 714 245 701T289 687Q315 687 333 700T358 746H447Q440 678 398 637T287 595Z" />
<glyph unicode="&#x2d9;" glyph-name="dotaccent" horiz-adv-x="450" d="M218 715H364L348 604H202L218 715Z" />
<glyph unicode="&#x2da;" glyph-name="ring" horiz-adv-x="450" d="M286 638Q310 638 323 654T337 695Q337 719 324 735T286 752Q262 752 249 736T235 695Q235 670 248 654T286 638ZM286 587Q260 587 239 595T202 619T179 653T171 695Q171 717 179 736T202 771T238
794T286 803Q312 803 333 795T369 771T392 737T401 695Q401 673 393 654T369 619T333 596T286 587Z" />
<glyph unicode="&#x2db;" glyph-name="ogonek" horiz-adv-x="450" d="M184 -170Q132 -170 106 -149T80 -95Q80 -76 88 -61T110 -34T141 -14T175 0H256Q233 -14 217 -29T201 -64Q201 -91 233 -91Q245 -91 257 -87L247 -158Q237 -163 222 -166T184 -170Z" />
<glyph unicode="&#x2dc;" glyph-name="tilde" horiz-adv-x="450" d="M97 600Q105 670 139 707T222 744Q242 744 259 738T292 723T321 709T349 702Q369 702 378 716T393 751H469Q460 681 429 643T350 605Q330 605 313 611T280 624T250 638T222 645Q202 645 190
633T173 600H97Z" />
<glyph unicode="&#x2dd;" glyph-name="hungarumlaut" horiz-adv-x="450" d="M191 770H309L224 596H124L191 770ZM376 770H494L410 596H309L376 770Z" />
</font>
</defs>
</svg>
