<?xml version="1.0" standalone="no"?> <!DOCTYPE svg PUBLIC "-//W3C//DTD SVG 1.0//EN" "http://www.w3.org/TR/2001/REC-SVG-20010904/DTD/svg10.dtd" > <svg xmlns="http://www.w3.org/2000/svg" width="100%" height="100%">
<defs >
<font id="GuardianAgateSans1Web-Regular" horiz-adv-x="491" ><font-face
    font-family="GuardianAgateSans1Web"
    units-per-em="1000"
    panose-1="2 11 5 3 5 5 3 6 8 3"
    ascent="836"
    descent="-164"
    alphabetic="0" />
<missing-glyph horiz-adv-x="500" />
<glyph unicode=" " glyph-name="space" horiz-adv-x="216" />
<glyph unicode="!" glyph-name="exclam" horiz-adv-x="290" d="M95 103H194V0H95V103ZM95 691H194L177 223H112L95 691Z" />
<glyph unicode="&quot;" glyph-name="quotedbl" horiz-adv-x="435" d="M346 692H435L421 442H360L346 692ZM256 692H345L331 442H270L256 692Z" />
<glyph unicode="#" glyph-name="numbersign" horiz-adv-x="550" d="M71 501H174Q174 511 174 527T179 567L197 692H268L250 567Q247 544 243 526T236 498H360Q360 506 360 524T365 567L383 692H454L436 567Q433 546 430 529T423 501H503V422H410Q411 411 411 397T409
368L405 341Q403 325 399 309T392 281H480V202H380Q379 191 378 172T374 133L355 0H284L303 133Q306 154 310 174T318 205H194Q193 194 192 175T188 133L169 0H98L117 133Q120 153 124 171T131 202H47V281H141Q141 292 142 307T145 339L149 366Q151 380 154 395T161
422H71V501ZM338 366Q340 383 344 400T350 428H225Q225 417 224 401T220 368L216 341Q214 323 210 305T203 275H328Q329 286 330 303T334 339L338 366Z" />
<glyph unicode="$" glyph-name="dollar" horiz-adv-x="550" d="M188 -73Q191 -54 195 -32T203 8Q165 13 132 22T74 43V113Q103 100 139 92T213 80Q214 97 215 115T218 149L229 249Q231 265 235 284T243 320L217 332Q155 358 117 401T79 513Q79 550 92 582T131
639T197 677T292 691Q292 717 295 744L297 765H362L360 744Q358 730 355 715T348 685Q378 680 403 671T444 653V582Q424 592 398 600T339 613Q339 599 338 584T335 555L324 464Q322 445 318 425T310 385L321 381Q352 368 380 353T429 316T462 265T475 194Q475 109
421 58T260 5Q259 -13 258 -34T254 -74L248 -117H182L188 -73ZM386 185Q386 229 363 252T298 296Q297 280 297 264T294 234L283 146Q281 130 277 112T270 78Q386 86 386 185ZM163 520Q163 478 186 453T254 408Q255 425 256 442T260 475L269 556Q271 570 274 586T281
617Q227 615 195 591T163 520Z" />
<glyph unicode="%" glyph-name="percent" horiz-adv-x="700" d="M175 419Q209 419 225 443T242 523V553Q242 608 225 633T175 658Q107 658 107 553V524Q107 470 124 445T175 419ZM175 371Q114 371 76 408T38 522V550Q38 622 74 663T175 705Q240 705 275 665T311
554V526Q311 453 275 412T175 371ZM328 361L566 692H649L359 330L122 0H41L328 361ZM526 35Q560 35 576 60T593 140V170Q593 225 576 250T526 276Q458 276 458 170V140Q458 35 526 35ZM526 -12Q464 -12 427 25T389 139V167Q389 239 425 280T526 321Q591 321 626
281T662 170V143Q662 71 626 30T526 -12Z" />
<glyph unicode="&amp;" glyph-name="ampersand" horiz-adv-x="616" d="M252 -12Q208 -12 171 0T107 38T65 100T50 187Q50 260 84 308T173 388Q145 421 128 456T111 532Q111 574 125 606T164 660T220 693T285 704Q323 704 354 693T406 660T439 610T451 547Q451
482 414 432T303 344Q314 335 328 322T358 289L399 237Q413 218 425 200T445 165Q465 207 474 257T482 364H563Q563 278 547 221T492 118L591 0H486Q468 18 453 39T428 77Q392 26 351 7T252 -12ZM266 57Q301 57 335 72T396 116Q385 125 369 140T336 179L264 272Q243
299 231 319T213 352Q177 319 161 282T145 191Q145 125 177 91T266 57ZM200 537Q200 499 217 461T269 380Q323 417 343 456T363 544Q363 586 342 609T284 633Q246 633 223 608T200 537Z" />
<glyph unicode="&apos;" glyph-name="quotesingle" horiz-adv-x="277" d="M94 692H183L169 442H108L94 692Z" />
<glyph unicode="(" glyph-name="parenleft" horiz-adv-x="363" d="M258 -151Q220 -116 186 -69T125 34T82 156T66 293Q66 365 82 430T124 553T185 657T258 739H337Q304 703 273 658T216 558T176 438T160 296Q160 221 175 155T216 33T272 -69T337 -151H258V-151Z" />
<glyph unicode=")" glyph-name="parenright" horiz-adv-x="363" d="M26 -151Q59 -115 90 -70T147 30T187 150T203 292Q203 367 188 433T147 555T91 657T26 739H105Q143 704 177 657T238 554T281 432T297 295Q297 223 281 158T239 35T178 -69T105 -151H26V-151Z" />
<glyph unicode="*" glyph-name="asterisk" horiz-adv-x="552" d="M262 450L107 324L62 402L248 471L62 540L107 618L262 490L231 692H321L289 490L445 618L490 540L303 471L490 402L445 324L289 450L321 250H231L262 450Z" />
<glyph unicode="+" glyph-name="plus" horiz-adv-x="550" d="M234 229Q234 241 234 255T236 281Q237 295 239 310H72V384H239Q237 398 236 412Q235 424 235 438T234 465V565H316V465Q316 453 315 439T313 412Q312 398 311 384H478V310H311Q312 295 313 281Q314
269 315 255T316 229V129H234V229Z" />
<glyph unicode="," glyph-name="comma" horiz-adv-x="277" d="M46 -138Q58 -111 66 -87T79 -35T86 25T89 103H189Q189 21 168 -36T112 -138H46V-138Z" />
<glyph unicode="-" glyph-name="hyphen" horiz-adv-x="395" d="M74 317H321V238H74V317Z" />
<glyph unicode="." glyph-name="period" horiz-adv-x="277" d="M89 103H188V0H89V103Z" />
<glyph unicode="/" glyph-name="slash" horiz-adv-x="409" d="M295 733H373L100 -149H22L295 733Z" />
<glyph unicode="0" glyph-name="zero" horiz-adv-x="550" d="M276 58Q310 58 335 71T377 115T401 192T409 308V379Q409 514 378 574T276 635Q207 635 175 576T142 383V312Q142 178 174 118T276 58ZM276 -12Q227 -12 186 6T114 62T68 161T51 308V377Q51 465 68
527T117 628T188 686T276 705Q323 705 364 687T435 630T482 530T499 381V312Q499 225 482 164T435 63T365 6T276 -12Z" />
<glyph unicode="1" glyph-name="one" horiz-adv-x="550" d="M116 60H251Q250 75 249 90Q248 103 248 117T247 144V601Q237 598 226 594Q205 587 172 583L113 575V626L298 699H335V144Q335 131 334 117T332 90Q331 75 330 60H465V0H116V60Z" />
<glyph unicode="2" glyph-name="two" horiz-adv-x="550" d="M63 64L215 223Q251 262 278 296T323 362T349 427T358 495Q358 567 327 599T223 631Q184 631 147 624T78 604V666Q108 681 149 693T241 705Q339 705 394 653T450 497Q450 459 440 422T408 348T355 270T279
187L261 169Q241 149 222 133T187 103Q169 88 153 76V71H465V0H63V64Z" />
<glyph unicode="3" glyph-name="three" horiz-adv-x="550" d="M245 -11Q190 -11 145 1T68 30V94Q100 80 140 71T226 62Q300 62 338 96T377 197Q377 259 341 293T229 327H171V398H213Q280 398 317 432T355 520Q355 583 319 607T217 632Q150 632 95 613V674Q160
705 243 705Q287 705 323 695T386 664T428 612T443 540Q443 476 407 431T299 372V362Q337 358 368 347T422 316T457 266T469 195Q469 148 454 110T409 45T338 4T245 -11Z" />
<glyph unicode="4" glyph-name="four" horiz-adv-x="550" d="M330 101Q330 112 330 126T332 153Q333 167 335 181H42V256L319 692H416V329Q416 318 416 304T414 278Q413 264 412 250H514V181H412Q413 167 414 153Q415 141 415 127T416 101V0H330V101ZM335 249Q334
263 333 277Q332 289 332 303T331 329V483Q331 500 332 521T335 559Q337 579 339 600H325L302 554Q291 534 279 511T253 464L180 343Q170 327 159 312T139 286Q128 273 117 261V249H335Z" />
<glyph unicode="5" glyph-name="five" horiz-adv-x="550" d="M238 -11Q181 -11 142 1T75 33V97Q104 81 143 72T224 62Q294 62 334 98T374 210Q374 289 336 325T222 361Q193 361 170 357T126 345H103L126 692H441V621H190Q190 612 191 602Q191 594 191 584T191
563L187 495Q185 478 183 462T177 435Q173 421 170 410H180Q217 427 257 427Q357 427 412 373T468 215Q468 165 453 124T407 52T335 6T238 -11Z" />
<glyph unicode="6" glyph-name="six" horiz-adv-x="550" d="M287 -12Q178 -12 121 65T63 305V332Q63 438 85 509T145 624T232 686T337 705Q379 705 408 698T458 678V617Q440 623 414 627T352 632Q313 632 279 622T219 584T177 505T154 374H164Q191 396 224 413T310
431Q397 431 445 376T493 222Q493 171 480 129T442 55T377 6T287 -12ZM286 56Q350 56 377 94T404 215Q404 257 396 286T372 332T334 357T284 365Q239 365 210 353T154 321V294Q154 240 161 196T184 121T225 73T286 56Z" />
<glyph unicode="7" glyph-name="seven" horiz-adv-x="550" d="M342 511Q351 533 361 551T380 583Q390 599 400 611V621H67V692H469V614L214 0H123L342 511Z" />
<glyph unicode="8" glyph-name="eight" horiz-adv-x="550" d="M272 -13Q166 -13 110 39T54 178Q54 211 67 238T101 287T145 325T192 350V360Q166 373 144 388T106 422T80 468T71 530Q71 567 85 599T125 655T187 691T269 705Q360 705 415 663T470 540Q470 508 460
482T432 434T392 397T346 371V361Q376 347 403 332T451 296T484 247T496 180Q496 137 482 102T439 41T368 1T272 -13ZM270 54Q340 54 372 85T405 168Q405 205 395 229T364 271T315 303T249 333Q231 324 211 309T175 275T148 232T137 181Q137 121 170 88T270 54ZM286
386Q330 409 358 447T386 537Q386 585 357 612T269 639Q217 639 187 611T157 533Q157 505 167 483T194 444T235 413T286 386Z" />
<glyph unicode="9" glyph-name="nine" horiz-adv-x="550" d="M219 -12Q173 -12 138 -3T81 19V80Q100 74 132 68T203 61Q244 61 278 71T337 110T378 189T396 319H386Q359 296 326 279T240 262Q153 262 105 316T57 471Q57 522 70 564T108 638T173 687T263 705Q370
705 428 628T487 388V361Q487 254 467 183T412 68T327 7T219 -12ZM266 327Q311 327 340 339T396 372V399Q396 453 389 497T367 572T326 620T265 637Q202 637 174 599T146 477Q146 393 178 360T266 327Z" />
<glyph unicode=":" glyph-name="colon" horiz-adv-x="297" d="M99 103H198V0H99V103ZM99 431H198V328H99V431Z" />
<glyph unicode=";" glyph-name="semicolon" horiz-adv-x="297" d="M56 -138Q68 -111 76 -87T89 -35T96 25T99 103H198Q198 21 177 -36T122 -138H56ZM99 431H198V328H99V431Z" />
<glyph unicode="&lt;" glyph-name="less" horiz-adv-x="550" d="M72 303V374L468 568V490L272 397Q249 386 225 377T179 359Q154 350 131 342V334Q154 326 179 317Q200 309 224 300T272 280L468 188V109L72 303Z" />
<glyph unicode="=" glyph-name="equal" horiz-adv-x="550" d="M72 251H478V177H72V251ZM72 461H478V387H72V461Z" />
<glyph unicode="&gt;" glyph-name="greater" horiz-adv-x="550" d="M82 187L278 280Q301 291 325 300T371 318Q396 327 419 335V343Q396 350 371 359Q350 367 326 376T278 397L82 489V568L478 374V303L82 109V187Z" />
<glyph unicode="?" glyph-name="question" horiz-adv-x="416" d="M116 277Q116 302 121 321T136 355T160 385T194 416Q208 428 222 440T248 466T267 497T274 538Q274 589 244 609T163 629Q125 629 99 623T43 604V670Q75 687 109 696T186 705Q222 705 255 697T313
670T353 621T368 546Q368 515 360 492T338 450T307 415T272 384Q251 365 236 352T210 328T196 304T191 275V223H116V277ZM103 103H202V0H103V103Z" />
<glyph unicode="@" glyph-name="at" horiz-adv-x="831" d="M576 -13Q535 -13 512 3T483 49H473Q448 20 420 4T352 -12Q330 -12 310 -4T273 23T246 69T236 139Q236 191 248 238T284 322T342 379T422 401Q458 401 480 388T513 362H523L540 393H596L545 107Q538 72
549 56T585 40Q639 40 674 102T709 278Q709 336 694 384T647 468T564 524T442 544Q366 544 307 515T208 434T146 314T124 165Q124 113 133 75T156 -4H100Q80 32 68 77T55 177Q55 263 83 340T162 474T285 566T445 600Q520 600 581 578T685 514T751 413T775 280Q775
211 761 157T721 65T658 7T576 -13ZM380 45Q410 45 432 59T479 97Q478 110 479 128Q480 143 482 165T489 216L506 311Q496 325 477 335T426 346Q397 346 377 330T342 285T322 218T315 135Q315 90 330 68T380 45Z" />
<glyph unicode="A" glyph-name="A" horiz-adv-x="571" d="M237 692H336L551 0H456L426 98Q419 119 414 145T404 192H160Q155 172 149 147T137 99L107 0H20L237 692ZM209 340Q204 321 196 300T181 261H384Q377 278 369 299T356 341L323 459Q315 484 309 512T298
564Q293 592 288 619H278Q273 592 268 564Q263 540 257 512T243 459L209 340Z" />
<glyph unicode="B" glyph-name="B" horiz-adv-x="546" d="M85 692H276Q383 692 427 647T472 520Q472 461 448 423T355 368V358Q424 351 460 310T497 190Q497 150 485 116T447 56T382 15T290 0H85V692ZM281 71Q342 71 374 102T406 199Q406 268 374 297T276 326H166Q167
312 169 297Q170 284 171 270T172 244V151Q172 139 171 125T169 99Q167 85 166 71H281ZM261 389Q288 389 310 395T349 415T375 451T384 507Q384 568 357 594T266 621H166Q167 607 169 593Q170 581 171 567T172 541V470Q172 458 171 444T169 418Q167 404 166 389H261Z"
/>
<glyph unicode="C" glyph-name="C" horiz-adv-x="536" d="M323 -12Q261 -12 211 9T125 74T70 183T51 336V360Q51 457 74 523T137 629T229 687T338 705Q380 705 417 697T482 675V596Q445 610 410 619T333 628Q295 628 261 616T200 573T159 493T144 367V341Q144
198 190 132T341 65Q390 65 426 78T490 112V32Q459 12 418 0T323 -12Z" />
<glyph unicode="D" glyph-name="D" horiz-adv-x="606" d="M257 71Q306 71 344 84T409 128T450 210T464 336V361Q464 443 448 493T403 572T331 610T237 620H168Q169 605 171 590Q172 577 173 563T174 535V156Q174 143 173 129T171 101Q169 86 168 71H257ZM85 692H248Q406
692 481 612T556 371V348Q556 173 482 87T255 0H85V692Z" />
<glyph unicode="E" glyph-name="E" horiz-adv-x="521" d="M85 692H454V619H168Q169 605 171 591Q172 579 173 565T174 540V475Q174 463 173 450T171 424Q169 410 168 396H389V323H168Q169 309 171 295Q172 283 173 269T174 244V152Q174 140 173 127T171 101Q169
87 168 73H455V0H85V692Z" />
<glyph unicode="F" glyph-name="F" horiz-adv-x="484" d="M85 692H442V619H169Q170 604 171 590Q172 578 173 564T174 539V457Q174 445 173 431T171 405Q170 391 169 377H371V304H169Q170 289 171 275Q172 262 173 248T174 221V0H85V692Z" />
<glyph unicode="G" glyph-name="G" horiz-adv-x="609" d="M342 -12Q279 -12 226 7T135 69T75 176T53 335V355Q53 449 77 515T143 624T240 685T357 705Q411 705 448 695T511 672V590Q487 604 449 616T355 628Q300 628 261 609T196 555T158 471T146 361V340Q146
274 156 222T189 134T251 79T347 60Q373 60 404 66T457 82Q455 89 453 100Q450 118 450 148V203Q450 232 453 255Q454 268 456 280H322V352H535V33Q499 12 448 0T342 -12Z" />
<glyph unicode="H" glyph-name="H" horiz-adv-x="629" d="M85 692H174V487Q174 473 173 457T171 427Q169 410 168 394H461Q459 410 458 427Q456 441 456 457T455 487V692H544V0H455V228Q455 242 455 258T458 288Q459 305 461 321H168Q169 305 171 288Q172 274
173 258T174 228V0H85V692Z" />
<glyph unicode="I" glyph-name="I" horiz-adv-x="285" d="M98 692H187V0H98V692Z" />
<glyph unicode="J" glyph-name="J" horiz-adv-x="419" d="M163 -11Q124 -11 96 -4T41 17V89Q61 81 87 73T147 65Q193 65 220 88T248 164V692H336V161Q336 86 293 38T163 -11Z" />
<glyph unicode="K" glyph-name="K" horiz-adv-x="562" d="M204 351L429 692H523L376 472Q363 453 349 433T320 396Q304 376 288 356Q303 336 319 316Q333 299 348 279T375 239L535 0H434L204 351ZM84 692H174V458Q174 439 174 420T172 385Q171 367 171 349Q171
331 172 312Q173 295 173 276T174 238V0H84V692Z" />
<glyph unicode="L" glyph-name="L" horiz-adv-x="482" d="M85 692H174V166Q174 150 173 134T171 104Q169 88 168 73H439V0H85V692Z" />
<glyph unicode="M" glyph-name="M" horiz-adv-x="756" d="M85 692H221L335 264Q343 235 349 201T361 137Q367 102 373 67H383Q389 102 395 137Q400 167 406 201T421 264L536 692H670V0H584V433Q584 460 584 492T587 553Q589 586 591 619H581Q574 578 565 538Q557
503 548 465T531 394L424 0H322L216 393Q208 425 200 464T184 538Q176 578 168 619H157Q158 586 160 553Q161 525 162 493T163 433V0H85V692Z" />
<glyph unicode="N" glyph-name="N" horiz-adv-x="624" d="M85 692H187L370 342Q382 317 397 283T425 218Q440 181 455 143H465Q463 177 461 209Q459 236 459 265T458 316V692H538V0H447L254 378Q242 402 227 435T199 499Q184 534 169 572H158Q159 540 161 509Q163
483 164 454T165 405V0H85V692Z" />
<glyph unicode="O" glyph-name="O" horiz-adv-x="636" d="M318 60Q407 60 449 128T491 327V353Q491 491 452 561T315 632Q228 633 186 564T143 366V340Q143 202 182 131T318 60ZM316 -12Q255 -12 206 9T123 73T69 181T50 334V359Q50 444 69 509T123 617T208 683T319
705Q379 705 428 684T513 620T567 512T586 359V334Q586 248 567 184T512 76T427 10T316 -12Z" />
<glyph unicode="P" glyph-name="P" horiz-adv-x="526" d="M85 692H276Q333 692 373 676T439 633T475 567T487 485Q487 433 472 394T430 327T366 287T283 273H168Q169 258 171 243Q172 230 173 215T174 188V0H85V692ZM268 344Q331 344 363 376T396 479Q396 556
364 588T269 620H168Q169 606 171 591Q172 578 173 564T174 538V425Q174 413 173 399T171 373Q169 359 168 344H268Z" />
<glyph unicode="Q" glyph-name="Q" horiz-adv-x="636" d="M269 -15Q219 3 179 27T110 90T66 187T50 334V359Q50 444 69 509T123 617T208 683T319 705Q379 705 428 684T513 620T567 512T586 359V334Q586 200 536 121T393 17V6L673 -73L645 -155L269 -15ZM318 55Q407
55 449 125T491 326V353Q491 491 452 561T315 632Q228 633 186 564T143 366V339Q143 202 182 129T318 55Z" />
<glyph unicode="R" glyph-name="R" horiz-adv-x="569" d="M85 692H277Q384 692 438 641T492 495Q492 423 459 382T366 321V311Q374 300 383 286Q391 274 400 258T418 222L525 0H431L294 291H168Q169 276 171 261Q172 248 173 234T174 207V0H85V692ZM278 360Q341
360 371 393T402 492Q402 556 374 588T278 620H168Q169 605 171 591Q172 579 173 565T174 540V440Q174 428 173 414T171 388Q169 374 168 360H278Z" />
<glyph unicode="S" glyph-name="S" horiz-adv-x="499" d="M235 -12Q181 -12 138 -1T63 26V99Q100 83 142 74T232 65Q298 65 328 92T358 176Q358 202 352 221T333 254T301 280T254 304L195 330Q133 358 100 403T66 520Q66 558 78 592T114 651T177 690T269 705Q317
705 355 694T418 667V592Q391 607 355 618T270 629Q213 629 182 603T151 526Q151 481 173 455T243 406L303 380Q333 366 360 351T406 313T437 260T449 186Q449 141 437 105T398 42T332 2T235 -12Z" />
<glyph unicode="T" glyph-name="T" horiz-adv-x="527" d="M218 524Q218 538 218 554T221 585Q222 602 224 619H37V692H489V619H302Q303 602 305 585Q306 571 307 555T308 524V0H218V524Z" />
<glyph unicode="U" glyph-name="U" horiz-adv-x="619" d="M312 -13Q194 -13 138 48T82 219V692H170V226Q170 176 181 143T211 91T257 65T316 57Q345 57 370 65T414 93T443 145T454 227V692H536V226Q536 111 480 49T312 -13Z" />
<glyph unicode="V" glyph-name="V" horiz-adv-x="571" d="M26 692H121L247 246Q255 220 261 189T272 132Q277 101 282 70H292Q297 100 303 131Q308 157 314 188T329 246L458 692H545L334 0H233L26 692Z" />
<glyph unicode="W" glyph-name="W" horiz-adv-x="788" d="M28 692H120L194 306Q200 271 205 230T214 153Q218 111 222 69H231Q236 111 242 153Q247 189 253 230T266 306L345 692H447L528 306Q535 271 541 230T552 153Q557 111 561 69H571Q575 111 580 153Q584
189 589 230T602 306L677 692H760L620 0H505L428 382Q421 416 416 455T407 530Q403 570 398 610H389Q385 570 380 530Q375 495 370 456T358 382L282 0H167L28 692Z" />
<glyph unicode="X" glyph-name="X" horiz-adv-x="555" d="M216 353L47 692H147L234 512Q242 494 250 472T265 430Q272 407 278 385H288Q294 407 301 430Q307 450 315 471T332 512L417 692H507L339 353L518 0H418L324 193Q315 211 307 233T291 276Q283 299 277
322H267Q260 299 252 276Q245 256 237 234T219 193L126 0H36L216 353Z" />
<glyph unicode="Y" glyph-name="Y" horiz-adv-x="535" d="M226 266L25 692H121L205 507Q217 480 228 448T249 387Q260 354 270 321H280Q289 354 300 387Q309 415 320 447T342 507L422 692H511L316 267V0H226V266Z" />
<glyph unicode="Z" glyph-name="Z" horiz-adv-x="523" d="M45 67L305 509Q314 525 326 542T350 574Q363 591 377 608V619H70V692H472V625L212 183Q202 166 190 149T167 117Q154 100 140 84V73H462V0H46L45 67Z" />
<glyph unicode="[" glyph-name="bracketleft" horiz-adv-x="363" d="M85 739H318V677H167V-89H318V-151H85V739Z" />
<glyph unicode="\" glyph-name="backslash" horiz-adv-x="409" d="M36 733H114L387 -149H309L36 733Z" />
<glyph unicode="]" glyph-name="bracketright" horiz-adv-x="363" d="M45 -89H196V677H45V739H278V-151H45V-89Z" />
<glyph unicode="^" glyph-name="asciicircum" horiz-adv-x="527" d="M220 693H307L465 362H379L333 461Q319 489 308 518T287 574Q276 603 268 632H258Q248 603 237 574Q228 548 216 519T192 461L147 362H62L220 693Z" />
<glyph unicode="_" glyph-name="underscore" horiz-adv-x="328" d="M-4 -74H332V-139H-4V-74Z" />
<glyph unicode="`" glyph-name="grave" horiz-adv-x="450" d="M98 766H192L263 597H193L98 766Z" />
<glyph unicode="a" glyph-name="a" horiz-adv-x="466" d="M183 -12Q120 -12 81 25T42 135Q42 270 212 285L311 293V354Q311 410 282 431T195 452Q161 452 132 447T81 434V495Q109 506 144 514T224 523Q306 523 351 487T396 371V0H334L323 56H314Q295 32 264 10T183
-12ZM208 49Q237 49 266 63T313 94V241L232 236Q181 233 154 209T127 139Q127 92 147 71T208 49Z" />
<glyph unicode="b" glyph-name="b" horiz-adv-x="514" d="M279 -12Q237 -12 204 4T154 41H145L134 0H73V719H158V549Q158 534 157 518T153 488Q151 472 149 458H158Q184 483 214 503T294 523Q326 523 357 513T412 475T451 402T466 283V245Q466 116 417 52T279
-12ZM267 53Q292 53 312 62T347 93T370 148T378 234V279Q378 330 369 363T345 415T307 442T259 450Q219 450 195 438T156 414V88Q175 73 201 63T267 53Z" />
<glyph unicode="c" glyph-name="c" horiz-adv-x="443" d="M261 -11Q162 -11 106 53T50 233V271Q50 339 68 387T116 465T186 509T270 523Q315 523 341 517T390 498V428Q362 439 337 445T270 452Q242 452 218 443T176 414T148 362T137 281V237Q137 141 175 100T283
58Q325 58 352 67T397 85V24Q379 12 344 1T261 -11Z" />
<glyph unicode="d" glyph-name="d" horiz-adv-x="517" d="M234 -13Q199 -13 166 -1T106 39T64 114T48 229V274Q48 343 63 391T106 468T169 510T247 523Q289 523 314 510T359 475H369Q366 491 364 508Q362 522 361 538T359 567V719H444V0H381L372 53H362Q340 26
309 7T234 -13ZM260 56Q296 56 320 71T361 104V416Q328 454 261 454Q233 454 210 445T170 416T144 361T135 276V235Q135 178 145 143T172 89T211 63T260 56Z" />
<glyph unicode="e" glyph-name="e" horiz-adv-x="473" d="M261 -12Q153 -12 100 54T47 238V274Q47 334 61 380T102 458T165 506T246 523Q297 523 332 506T388 457T418 383T427 290V238H130Q130 187 140 153T168 97T212 67T274 58Q319 58 349 67T410 93V28Q390
14 354 1T261 -12ZM245 457Q220 457 200 448T164 419T140 366T130 285Q146 288 173 292T229 296H345Q345 380 322 418T245 457Z" />
<glyph unicode="f" glyph-name="f" horiz-adv-x="337" d="M104 364Q104 372 104 382T106 402Q107 413 109 423H27V490H109Q107 499 106 509Q105 517 105 526T104 544V574Q104 653 144 689T247 725Q277 725 293 721T320 712V647Q310 649 299 651T267 654Q229 654
209 636T189 574V544Q189 536 188 527T186 509Q185 499 184 490H310V423H184Q185 413 186 402Q187 393 188 383T189 364V0H104V364Z" />
<glyph unicode="g" glyph-name="g" horiz-adv-x="514" d="M238 -172Q184 -172 145 -162T72 -133V-72Q101 -84 141 -93T221 -102Q356 -102 356 6V24Q356 40 357 53T360 77Q362 88 365 99H356Q331 76 301 60T222 44Q189 44 158 54T103 90T63 157T48 264V281Q48 399
97 459T235 519Q277 519 309 504T359 468H368L379 513H441V0Q441 -84 387 -128T238 -172ZM254 109Q294 109 319 121T358 145V418Q339 432 312 441T247 450Q222 450 202 442T167 415T144 365T136 289V267Q136 221 144 191T169 142T206 117T254 109Z" />
<glyph unicode="h" glyph-name="h" horiz-adv-x="517" d="M73 719H158V541Q158 525 157 509T153 479Q151 463 149 448H159Q189 476 230 499T322 523Q382 523 414 491T447 384V0H362V359Q362 407 347 428T288 450Q250 450 217 435T158 404V0H73V719Z" />
<glyph unicode="i" glyph-name="i" horiz-adv-x="253" d="M84 513H169V0H84V513ZM78 708H175V618H78V708Z" />
<glyph unicode="j" glyph-name="j" horiz-adv-x="253" d="M43 -170Q16 -170 -3 -167T-40 -155V-96Q-26 -98 -12 -99T15 -100Q31 -100 44 -97T66 -83T79 -55T84 -9V513H169V-19Q169 -86 140 -128T43 -170ZM78 708H175V618H78V708Z" />
<glyph unicode="k" glyph-name="k" horiz-adv-x="474" d="M193 265L351 513H442L334 353Q325 339 313 325T290 299Q278 285 265 273Q278 260 290 246Q301 234 312 220T333 191L455 0H358L193 265ZM76 719H160V411Q160 386 160 361T159 315Q158 291 158 269Q158
247 159 223Q159 203 159 178T160 127V0H76V719Z" />
<glyph unicode="l" glyph-name="l" horiz-adv-x="268" d="M175 -6Q155 -6 138 -2T107 13T86 40T78 83V719H163V101Q163 78 171 68T202 57Q213 57 225 58T249 63V6Q234 0 215 -3T175 -6Z" />
<glyph unicode="m" glyph-name="m" horiz-adv-x="786" d="M73 513H149V453H159Q197 485 232 504T310 523Q353 523 378 505T417 446H427Q462 475 503 499T590 523Q652 523 684 488T716 376V0H631V356Q631 410 613 429T549 449Q520 449 491 436T435 407Q436 401
436 391T437 366V0H352V356Q352 410 333 430T271 450Q239 450 212 438T158 408V0H73V513Z" />
<glyph unicode="n" glyph-name="n" horiz-adv-x="517" d="M73 513H149V448H159Q189 476 230 499T322 523Q382 523 414 491T447 384V0H362V359Q362 407 347 428T288 450Q250 450 217 435T158 404V0H73V513Z" />
<glyph unicode="o" glyph-name="o" horiz-adv-x="508" d="M255 54Q310 54 341 96T373 231V277Q373 329 364 364T338 419T300 448T253 457Q197 457 166 415T135 280V233Q135 181 144 147T170 92T208 63T255 54ZM253 -12Q157 -12 103 50T48 235V273Q48 334 63 380T105
458T171 506T254 523Q350 523 404 461T459 276V239Q459 177 444 130T402 52T336 4T253 -12Z" />
<glyph unicode="p" glyph-name="p" horiz-adv-x="514" d="M73 513H149V458H159Q184 483 214 503T294 523Q325 523 356 513T411 477T451 406T466 289V260Q466 133 412 71T263 8Q227 8 200 19T158 45H149Q151 32 153 18Q155 6 156 -9T158 -39V-164H73V513ZM259 73Q284
73 305 81T343 110T368 164T378 249V284Q378 335 369 367T345 417T307 443T259 450Q219 450 195 438T156 414V97Q175 86 198 80T259 73Z" />
<glyph unicode="q" glyph-name="q" horiz-adv-x="514" d="M356 -14Q356 2 357 17T360 44Q362 57 365 69H356Q344 57 331 46T301 27T266 13T222 8Q189 8 158 18T103 54T63 125T48 242V271Q48 401 98 460T235 519Q277 519 308 502T359 468H368L379 513H441V-164H356V-14ZM255
78Q295 78 319 90T358 114V418Q339 432 312 441T247 450Q222 450 202 443T167 416T144 364T136 280V245Q136 195 144 163T169 111T207 85T255 78Z" />
<glyph unicode="r" glyph-name="r" horiz-adv-x="358" d="M73 513H149V438H159Q191 476 232 497T326 519V436Q302 437 278 434T231 424T190 408T158 389V0H73V513Z" />
<glyph unicode="s" glyph-name="s" horiz-adv-x="398" d="M183 -12Q144 -12 108 -4T46 18V88Q75 74 106 66T185 57Q231 57 254 77T277 135Q277 168 262 186T206 218L153 234Q104 248 75 281T46 377Q46 440 85 481T205 523Q246 523 278 517T332 499V430Q313 441
281 448T210 456Q124 456 124 386Q124 348 141 333T187 308L240 292Q303 273 331 240T360 143Q360 69 316 29T183 -12Z" />
<glyph unicode="t" glyph-name="t" horiz-adv-x="352" d="M231 -7Q165 -7 133 24T101 122V364Q101 372 101 382T103 402Q104 413 106 423H28V490H106Q104 500 103 511Q102 520 102 530T101 549V653H186V549Q186 541 185 531T183 511Q182 500 181 490H310V423H181Q182
413 183 402Q184 393 185 383T186 364V132Q186 92 199 77T254 62Q271 62 289 65T320 73V13Q306 6 282 0T231 -7Z" />
<glyph unicode="u" glyph-name="u" horiz-adv-x="513" d="M197 -10Q137 -10 104 26T70 138V513H155V154Q155 105 170 84T229 63Q267 63 298 78T354 108V513H439V0H374L364 61H355Q324 32 286 11T197 -10Z" />
<glyph unicode="v" glyph-name="v" horiz-adv-x="483" d="M30 513H120L207 215Q213 191 219 165T230 115Q235 89 240 64H249Q254 89 259 115Q264 138 269 164T282 215L370 513H453L293 0H190L30 513Z" />
<glyph unicode="w" glyph-name="w" horiz-adv-x="703" d="M35 513H123L177 237Q181 215 185 186T194 128Q198 95 202 61H212Q217 95 223 128Q228 156 234 185T245 237L311 513H405L464 237Q468 215 472 185T482 127Q487 94 492 61H502Q507 94 512 127Q517 155
521 185T531 237L592 513H669L550 0H443L391 241Q386 265 381 297T370 358Q365 392 359 428H349Q343 392 337 358Q332 329 326 297T314 241L257 0H151L35 513Z" />
<glyph unicode="x" glyph-name="x" horiz-adv-x="479" d="M183 259L45 513H142L202 399Q210 383 217 364T230 328Q236 308 242 288H252Q258 308 264 328Q269 345 275 364T290 399L344 513H434L299 265L444 0H348L284 119Q276 135 268 155T254 193Q247 213 241
234H231Q225 213 218 193Q212 176 205 156T189 119L127 0H37L183 259Z" />
<glyph unicode="y" glyph-name="y" horiz-adv-x="466" d="M111 -171Q92 -171 74 -167T46 -158V-96Q56 -98 69 -102T98 -106Q133 -106 156 -88T194 -21L203 6L25 513H116L200 255Q208 229 215 197T227 138Q233 105 238 74H248Q254 106 260 138Q265 165 272 196T288
255L366 513H450L270 -32Q257 -71 242 -98T207 -141T164 -164T111 -171Z" />
<glyph unicode="z" glyph-name="z" horiz-adv-x="429" d="M42 65L229 353Q242 373 254 387T276 413Q287 425 298 435V445H55V513H389V451L209 176Q194 153 180 135T155 104Q142 89 131 77V67H388V0H42V65Z" />
<glyph unicode="{" glyph-name="braceleft" horiz-adv-x="413" d="M368 -153Q308 -151 267 -139T202 -103T168 -46T161 33L167 143Q169 173 160 192T134 222T91 239T34 247V340Q65 342 90 347T133 364T159 395T167 444L161 554Q159 599 168 632T202 689T267 725T368
740V678Q327 675 303 668T265 645T248 607T243 547V440Q243 376 209 344T100 298V289Q174 276 208 244T243 147V40Q243 4 247 -19T265 -58T302 -80T368 -91V-153V-153Z" />
<glyph unicode="|" glyph-name="bar" horiz-adv-x="291" d="M106 733H185V-149H106V733Z" />
<glyph unicode="}" glyph-name="braceright" horiz-adv-x="413" d="M45 -91Q85 -88 110 -81T148 -58T165 -20T170 40V147Q170 211 204 243T313 289V298Q239 311 205 343T170 440V547Q170 583 166 606T148 645T110 667T45 678V740Q105 738 146 726T211 690T245
633T252 554L246 444Q244 414 253 395T279 365T322 348T379 340V247Q347 245 322 240T280 223T253 192T246 143L252 33Q254 -12 245 -45T211 -102T146 -138T45 -153V-91Z" />
<glyph unicode="~" glyph-name="asciitilde" horiz-adv-x="412" d="M46 248Q50 310 78 343T145 377Q164 377 181 369T214 352T242 335T269 327Q288 327 296 343T310 384H366Q362 322 337 288T273 253Q253 253 236 260T204 277T175 293T148 301Q129 301 118 287T102
248H46V248Z" />
<glyph unicode="&#xa0;" glyph-name="uni00A0" horiz-adv-x="216" />
<glyph unicode="&#xa1;" glyph-name="exclamdown" horiz-adv-x="290" d="M113 344H178L195 -124H96L113 344ZM96 567H195V464H96V567Z" />
<glyph unicode="&#xa2;" glyph-name="cent" horiz-adv-x="550" d="M241 -73Q243 -57 246 -40T254 -5Q176 12 132 74T88 233V271Q88 339 107 387T158 465T233 509T321 523H322Q323 537 323 552T326 581L332 628H399L393 581Q391 566 387 550T380 519Q430 513 461
496V428Q422 445 372 451Q371 436 371 421T368 392L338 146Q335 124 330 99T320 56H334Q379 56 414 66T468 86V27Q450 14 410 2T314 -11Q313 -27 312 -43T309 -74L303 -117H235L241 -73ZM175 237Q175 165 197 124T265 66Q266 83 267 106T271 149L300 393Q302 407
305 423T311 453Q284 452 259 442T216 412T186 359T175 281V237Z" />
<glyph unicode="&#xa3;" glyph-name="sterling" horiz-adv-x="550" d="M72 384H157Q155 400 154 417T152 452V492Q152 551 171 591T220 657T287 694T360 705Q398 705 433 697T490 674V613Q464 624 437 628T375 632Q351 632 327 626T283 604T252 559T240 486V450Q240
435 239 417T235 384H414V318H236Q238 305 239 292T240 266V241Q240 209 235 185T220 142T195 109T158 81V71H492V0H59V63Q111 88 131 128T152 238V265Q152 277 153 291T156 318H72V384Z" />
<glyph unicode="&#xa5;" glyph-name="yen" horiz-adv-x="550" d="M72 309H215Q204 328 194 352L39 692H135L212 510Q224 481 236 449T257 387Q268 354 277 321H287Q296 354 307 387Q316 416 327 448T349 510L422 692H511L356 352L336 309H485V248H319Q321 239
322 229T323 210Q323 199 322 187T318 164H485V103H318Q323 75 323 50V0H233V49Q233 61 234 75T237 103H72V164H237Q235 175 234 186T233 209Q233 217 234 228T237 248H72V309Z" />
<glyph unicode="&#xa6;" glyph-name="brokenbar" horiz-adv-x="291" d="M106 230H185V-149H106V230ZM106 733H185V394H106V733Z" />
<glyph unicode="&#xa7;" glyph-name="section" horiz-adv-x="492" d="M226 -102Q188 -102 154 -95T90 -74V-1Q119 -15 147 -23T223 -31Q316 -31 316 42Q316 59 313 71T301 94T279 113T242 131L161 165Q105 188 74 223T43 319Q43 363 66 393T134 445V455Q115 475
104 499T93 556Q93 626 137 666T266 706Q304 706 338 699T402 678V605Q373 619 345 627T269 635Q176 635 176 562Q176 545 179 533T191 510T213 491T250 473L331 439Q387 415 418 380T449 280Q449 198 360 154V144Q377 125 388 103T399 48Q399 -21 355 -61T226
-102ZM323 181Q349 200 362 220T376 269Q376 301 358 324T299 365L169 423Q146 406 131 385T115 335Q115 303 134 280T193 239L323 181Z" />
<glyph unicode="&#xa8;" glyph-name="dieresis" horiz-adv-x="450" d="M89 708H178V618H89V708ZM272 708H361V618H272V708Z" />
<glyph unicode="&#xa9;" glyph-name="copyright" horiz-adv-x="745" d="M380 177Q316 177 274 214T232 323V353Q232 392 244 419T278 463T327 489T385 497Q412 497 434 492T469 479V424Q452 430 432 432T390 435Q357 435 333 420T308 360V324Q308 276 330 257T396
238Q421 238 440 243T472 255V199Q457 191 433 184T380 177ZM372 70Q428 70 475 90T557 146T611 231T630 340Q630 398 611 447T558 532T476 587T372 607Q315 607 268 587T187 532T134 448T115 340Q115 281 134 232T187 146T268 90T372 70ZM372 17Q303 17 245 42T144
112T77 214T53 340Q53 406 77 464T144 566T245 635T372 660Q440 660 498 635T600 567T667 465T692 340Q692 273 668 215T600 112T499 43T372 17Z" />
<glyph unicode="&#xaa;" glyph-name="ordfeminine" horiz-adv-x="460" d="M183 222Q126 222 92 256T57 355Q57 480 212 491L298 497V550Q298 600 272 617T195 635Q163 635 137 630T91 619V679Q117 689 149 697T223 705Q298 705 339 672T380 565V233H320L310 283H302Q285
260 256 241T183 222ZM209 281Q234 281 260 293T300 320V449L229 444Q185 441 162 420T138 359Q138 318 156 300T209 281Z" />
<glyph unicode="&#xab;" glyph-name="guillemotleft" horiz-adv-x="488" d="M53 268V297L171 507H245L134 283L245 58H171L53 268ZM243 268V297L361 507H435L324 283L435 58H361L243 268Z" />
<glyph unicode="&#xac;" glyph-name="logicalnot" horiz-adv-x="550" d="M371 279Q371 291 371 305T373 331Q374 345 376 360H72V434H453V159H371V279Z" />
<glyph unicode="&#xae;" glyph-name="registered" horiz-adv-x="633" d="M222 561H325Q370 561 394 540T419 480Q419 452 405 437T365 416V408Q370 403 375 396Q384 384 400 360L431 312H365L309 400H278Q279 394 280 388Q281 383 282 377T283 366V312H222V561ZM321
441Q357 441 357 480Q357 500 347 507T320 515H278Q279 509 280 504Q281 499 282 494T283 485V472Q283 467 282 462T280 452Q279 447 278 441H321ZM316 207Q363 207 402 224T470 271T515 342T531 433Q531 482 515 523T471 593T403 639T316 656Q269 656 230 640T162
594T119 523T103 433Q103 384 118 343T162 271T229 224T316 207ZM316 158Q258 158 209 179T123 238T66 326T45 433Q45 489 65 538T122 625T208 683T316 705Q374 705 424 684T510 625T567 539T588 433Q588 376 568 326T511 239T424 180T316 158Z" />
<glyph unicode="&#xaf;" glyph-name="macron" horiz-adv-x="450" d="M90 697H360V634H90V697Z" />
<glyph unicode="&#xb0;" glyph-name="degree" horiz-adv-x="466" d="M233 412Q281 412 308 445T335 527Q335 577 308 610T233 644Q185 644 158 611T131 527Q131 478 158 445T233 412ZM233 352Q194 352 162 366T106 404T70 460T57 527Q57 563 70 595T106 651T161
690T233 704Q272 704 304 690T360 652T396 595T409 527Q409 492 396 460T360 404T305 366T233 352Z" />
<glyph unicode="&#xb1;" glyph-name="plusminus" horiz-adv-x="550" d="M234 279Q234 291 234 305T236 331Q237 345 239 360H72V434H239Q237 448 236 462Q235 474 235 488T234 515V615H316V515Q316 503 315 489T313 462Q312 448 311 434H478V360H311Q312 345 313
331Q314 319 315 305T316 279V179H234V279ZM72 0V79H478V0H72Z" />
<glyph unicode="&#xb4;" glyph-name="acute" horiz-adv-x="450" d="M258 766H352L257 597H187L258 766Z" />
<glyph unicode="&#xb5;" glyph-name="mu" horiz-adv-x="517" d="M74 513H159V160Q159 111 174 90T233 69Q271 69 300 83T358 114V513H443V0H378L368 67H359Q330 36 300 18T238 0Q208 0 192 9T158 38H149Q151 17 154 -2Q156 -19 157 -38T159 -72V-164H74V513Z" />
<glyph unicode="&#xb6;" glyph-name="paragraph" horiz-adv-x="585" d="M240 356H233Q198 356 165 364T107 391T66 442T50 525Q50 564 61 595T97 648T162 681T262 693H499V-120H428V533Q428 547 428 564T431 597Q432 615 434 632H305Q306 615 308 597Q309 582
310 565T311 533V-120H240V356Z" />
<glyph unicode="&#xb7;" glyph-name="periodcentered" horiz-adv-x="277" d="M89 358H188V255H89V358Z" />
<glyph unicode="&#xb8;" glyph-name="cedilla" horiz-adv-x="450" d="M159 -179Q169 -160 179 -138T198 -92T211 -45T219 0H281Q281 -23 279 -48T273 -96T261 -141T244 -179H159V-179Z" />
<glyph unicode="&#xba;" glyph-name="ordmasculine" horiz-adv-x="460" d="M230 285Q278 285 305 321T332 440V482Q332 528 324 558T302 607T269 632T229 640Q181 640 154 603T127 484V442Q127 397 135 367T157 318T190 293T230 285ZM229 221Q144 221 95 278T45
444V478Q45 533 58 575T97 645T155 689T230 704Q315 704 364 648T414 481V448Q414 392 400 350T362 279T303 236T229 221Z" />
<glyph unicode="&#xbb;" glyph-name="guillemotright" horiz-adv-x="488" d="M354 282L243 507H317L435 297V268L317 58H243L354 282ZM164 282L53 507H127L245 297V268L127 58H53L164 282Z" />
<glyph unicode="&#xbc;" glyph-name="onequarter" horiz-adv-x="1096" d="M85 296H187Q185 308 184 320Q183 331 183 343T182 368V657Q175 654 166 650Q150 643 123 639L80 632V679L222 739H261V368Q261 355 260 343T258 320Q256 308 255 296H356V242H85V296ZM917
-106Q917 -95 917 -84T919 -63Q920 -52 922 -42H710V24L905 328H994V82Q994 71 993 60T991 39Q990 28 989 18H1063V-42H989Q990 -52 991 -63Q992 -72 993 -83T994 -106V-164H917V-106ZM924 17Q922 26 921 37Q919 46 919 58T918 82V160Q918 174 918 191T921 224Q923
242 925 260H914Q907 242 898 224Q890 208 881 190T862 156L823 91Q813 76 804 64T787 43Q778 32 770 25V17H924ZM573 315L879 753H970L599 274L295 -164H204L573 315Z" />
<glyph unicode="&#xbd;" glyph-name="onehalf" horiz-adv-x="1096" d="M85 296H187Q185 308 184 320Q183 331 183 343T182 368V657Q175 654 166 650Q150 643 123 639L80 632V679L222 739H261V368Q261 355 260 343T258 320Q256 308 255 296H356V242H85V296ZM725
-106L835 0Q862 27 882 49T914 93T933 137T939 184Q939 230 916 253T842 276Q813 276 786 271T736 256V310Q757 321 788 330T861 340Q936 340 977 301T1019 189Q1019 161 1013 136T992 85T954 33T899 -23L886 -35Q872 -49 857 -60T831 -79Q817 -89 805 -96V-103H1030V-164H725V-106ZM544
315L850 753H941L570 274L266 -164H175L544 315Z" />
<glyph unicode="&#xbe;" glyph-name="threequarters" horiz-adv-x="1096" d="M191 231Q147 231 113 240T55 260V316Q79 307 108 301T171 295Q224 295 251 316T279 383Q279 468 178 468H130V527H165Q213 527 239 549T265 607Q265 649 240 666T166 683Q140 683 117
679T74 669V722Q98 733 127 739T191 746Q259 746 300 716T341 626Q341 580 317 549T239 506V496Q296 489 327 463T359 378Q359 312 316 272T191 231ZM918 -106Q918 -95 918 -84T920 -63Q921 -52 923 -42H711V24L906 328H995V82Q995 71 994 60T992 39Q991 28 990
18H1064V-42H990Q991 -52 992 -63Q993 -72 994 -83T995 -106V-164H918V-106ZM925 17Q923 26 922 37Q920 46 920 58T919 82V160Q919 174 919 191T922 224Q924 242 926 260H915Q908 242 899 224Q891 208 882 190T863 156L824 91Q814 76 805 64T788 43Q779 32 771
25V17H925ZM574 315L880 753H971L600 274L296 -164H205L574 315Z" />
<glyph unicode="&#xbf;" glyph-name="questiondown" horiz-adv-x="416" d="M230 -138Q194 -138 161 -130T103 -103T63 -54T48 21Q48 52 56 75T77 117T108 152T144 183Q165 202 180 215T206 239T220 263T225 292V344H300V290Q300 265 295 246T280 212T256 182T222
151Q208 139 194 127T168 101T149 70T142 29Q142 -22 172 -42T253 -62Q291 -62 317 -56T373 -37V-103Q341 -120 307 -129T230 -138ZM214 567H313V464H214V567Z" />
<glyph unicode="&#xc0;" glyph-name="Agrave" horiz-adv-x="571" d="M237 692H336L551 0H456L426 98Q419 119 414 145T404 192H160Q155 172 149 147T137 99L107 0H20L237 692ZM209 340Q204 321 196 300T181 261H384Q377 278 369 299T356 341L323 459Q315 484 309
512T298 564Q293 592 288 619H278Q273 592 268 564Q263 540 257 512T243 459L209 340ZM188 886H282L333 750H263L188 886Z" />
<glyph unicode="&#xc1;" glyph-name="Aacute" horiz-adv-x="571" d="M237 692H336L551 0H456L426 98Q419 119 414 145T404 192H160Q155 172 149 147T137 99L107 0H20L237 692ZM209 340Q204 321 196 300T181 261H384Q377 278 369 299T356 341L323 459Q315 484 309
512T298 564Q293 592 288 619H278Q273 592 268 564Q263 540 257 512T243 459L209 340ZM316 750H246L297 886H391L316 750Z" />
<glyph unicode="&#xc2;" glyph-name="Acircumflex" horiz-adv-x="571" d="M229 879H342L435 750H362L347 765Q338 775 328 787T309 811Q298 824 289 838H281Q272 825 262 812Q254 801 244 788T223 765L207 750H134L229 879ZM237 692H336L551 0H456L426 98Q419
119 414 145T404 192H160Q155 172 149 147T137 99L107 0H20L237 692ZM209 340Q204 321 196 300T181 261H384Q377 278 369 299T356 341L323 459Q315 484 309 512T298 564Q293 592 288 619H278Q273 592 268 564Q263 540 257 512T243 459L209 340Z" />
<glyph unicode="&#xc3;" glyph-name="Atilde" horiz-adv-x="571" d="M128 751Q132 810 160 842T225 874Q244 874 260 867T292 850T320 834T347 826Q365 826 373 842T387 881H442Q438 822 413 789T351 756Q332 756 315 763T283 779T255 795T228 802Q210 802 199
788T183 751H128V751ZM237 692H336L551 0H456L426 98Q419 119 414 145T404 192H160Q155 172 149 147T137 99L107 0H20L237 692ZM209 340Q204 321 196 300T181 261H384Q377 278 369 299T356 341L323 459Q315 484 309 512T298 564Q293 592 288 619H278Q273 592 268
564Q263 540 257 512T243 459L209 340Z" />
<glyph unicode="&#xc4;" glyph-name="Adieresis" horiz-adv-x="571" d="M237 692H336L551 0H456L426 98Q419 119 414 145T404 192H160Q155 172 149 147T137 99L107 0H20L237 692ZM209 340Q204 321 196 300T181 261H384Q377 278 369 299T356 341L323 459Q315 484
309 512T298 564Q293 592 288 619H278Q273 592 268 564Q263 540 257 512T243 459L209 340ZM149 852H238V762H149V852ZM332 852H421V762H332V852Z" />
<glyph unicode="&#xc5;" glyph-name="Aring" horiz-adv-x="571" d="M237 692H336L551 0H456L426 98Q419 119 414 145T404 192H160Q155 172 149 147T137 99L107 0H20L237 692ZM209 340Q204 321 196 300T181 261H384Q377 278 369 299T356 341L323 459Q315 484 309
512T298 564Q293 592 288 619H278Q273 592 268 564Q263 540 257 512T243 459L209 340ZM285 770Q312 770 329 787T346 832Q346 859 329 876T285 894Q258 894 241 877T224 832Q224 804 241 787T285 770ZM285 727Q261 727 241 735T207 758T184 791T175 832Q175 853
183 872T206 906T241 928T285 937Q309 937 329 929T363 906T386 873T395 832Q395 811 387 792T364 758T329 736T285 727Z" />
<glyph unicode="&#xc6;" glyph-name="AE" horiz-adv-x="831" d="M364 692H764V619H488Q489 605 491 591Q492 579 493 565T494 540V475Q494 463 493 450T491 424Q489 410 488 396H699V323H488Q489 309 491 295Q492 283 493 269T494 244V152Q494 140 493 127T491
101Q489 87 488 73H765V0H405V192H191Q185 173 177 150T156 102L105 0H15L364 692ZM272 340Q261 318 248 298T224 261H405V442Q405 479 405 514T408 578Q409 611 411 639H401Q393 612 382 582Q373 556 360 524T331 459L272 340Z" />
<glyph unicode="&#xc7;" glyph-name="Ccedilla" horiz-adv-x="536" d="M216 -179Q236 -142 253 -96T275 -8Q171 7 111 93T51 336V360Q51 457 74 523T137 629T229 687T338 705Q380 705 417 697T482 675V596Q445 610 410 619T333 628Q295 628 261 616T200 573T159
493T144 367V341Q144 198 190 132T341 65Q390 65 426 78T490 112V32Q461 13 424 2T338 -12Q336 -57 328 -103T301 -179H216V-179Z" />
<glyph unicode="&#xc8;" glyph-name="Egrave" horiz-adv-x="521" d="M177 886H271L322 750H252L177 886ZM85 692H454V619H168Q169 605 171 591Q172 579 173 565T174 540V475Q174 463 173 450T171 424Q169 410 168 396H389V323H168Q169 309 171 295Q172 283 173
269T174 244V152Q174 140 173 127T171 101Q169 87 168 73H455V0H85V692Z" />
<glyph unicode="&#xc9;" glyph-name="Eacute" horiz-adv-x="521" d="M85 692H454V619H168Q169 605 171 591Q172 579 173 565T174 540V475Q174 463 173 450T171 424Q169 410 168 396H389V323H168Q169 309 171 295Q172 283 173 269T174 244V152Q174 140 173 127T171
101Q169 87 168 73H455V0H85V692ZM305 750H235L286 886H380L305 750Z" />
<glyph unicode="&#xca;" glyph-name="Ecircumflex" horiz-adv-x="521" d="M85 692H454V619H168Q169 605 171 591Q172 579 173 565T174 540V475Q174 463 173 450T171 424Q169 410 168 396H389V323H168Q169 309 171 295Q172 283 173 269T174 244V152Q174 140 173
127T171 101Q169 87 168 73H455V0H85V692ZM219 879H332L425 750H352L337 765Q328 775 318 787T299 811Q288 824 279 838H271Q262 825 252 812Q244 801 234 788T213 765L197 750H124L219 879Z" />
<glyph unicode="&#xcb;" glyph-name="Edieresis" horiz-adv-x="521" d="M85 692H454V619H168Q169 605 171 591Q172 579 173 565T174 540V475Q174 463 173 450T171 424Q169 410 168 396H389V323H168Q169 309 171 295Q172 283 173 269T174 244V152Q174 140 173 127T171
101Q169 87 168 73H455V0H85V692ZM139 852H228V762H139V852ZM322 852H411V762H322V852Z" />
<glyph unicode="&#xcc;" glyph-name="Igrave" horiz-adv-x="285" d="M300 886H394L445 750H375L300 886ZM98 692H187V0H98V692Z" />
<glyph unicode="&#xcd;" glyph-name="Iacute" horiz-adv-x="285" d="M98 692H187V0H98V692ZM428 750H358L409 886H503L428 750Z" />
<glyph unicode="&#xce;" glyph-name="Icircumflex" horiz-adv-x="285" d="M343 879H456L549 750H476L461 765Q452 775 442 787T423 811Q412 824 403 838H395Q386 825 376 812Q368 801 358 788T337 765L321 750H248L343 879ZM98 692H187V0H98V692Z" />
<glyph unicode="&#xcf;" glyph-name="Idieresis" horiz-adv-x="285" d="M98 692H187V0H98V692ZM262 852H351V762H262V852ZM445 852H534V762H445V852Z" />
<glyph unicode="&#xd0;" glyph-name="Eth" horiz-adv-x="626" d="M277 71Q326 71 364 84T429 128T470 210T484 336V361Q484 443 468 493T423 572T351 610T257 620H192Q193 605 195 590Q196 577 197 563T198 535V447Q198 432 197 415T193 382H364V308H193Q195 292
196 275T198 243V156Q198 143 197 129T195 101Q193 86 192 71H277ZM28 382H113Q111 397 110 414T109 447V692H268Q426 692 501 612T576 371V348Q576 173 502 87T275 0H109V243Q109 257 110 274T113 308H28V382Z" />
<glyph unicode="&#xd1;" glyph-name="Ntilde" horiz-adv-x="624" d="M85 692H187L370 342Q382 317 397 283T425 218Q440 181 455 143H465Q463 177 461 209Q459 236 459 265T458 316V692H538V0H447L254 378Q242 402 227 435T199 499Q184 534 169 572H158Q159 540
161 509Q163 483 164 454T165 405V0H85V692ZM166 751Q170 810 198 842T263 874Q282 874 298 867T330 850T358 834T385 826Q403 826 411 842T425 881H480Q476 822 451 789T389 756Q370 756 353 763T321 779T293 795T266 802Q248 802 237 788T221 751H166V751Z" />
<glyph unicode="&#xd2;" glyph-name="Ograve" horiz-adv-x="636" d="M221 886H315L366 750H296L221 886ZM318 60Q407 60 449 128T491 327V353Q491 491 452 561T315 632Q228 633 186 564T143 366V340Q143 202 182 131T318 60ZM316 -12Q255 -12 206 9T123 73T69
181T50 334V359Q50 444 69 509T123 617T208 683T319 705Q379 705 428 684T513 620T567 512T586 359V334Q586 248 567 184T512 76T427 10T316 -12Z" />
<glyph unicode="&#xd3;" glyph-name="Oacute" horiz-adv-x="636" d="M348 750H278L329 886H423L348 750ZM318 60Q407 60 449 128T491 327V353Q491 491 452 561T315 632Q228 633 186 564T143 366V340Q143 202 182 131T318 60ZM316 -12Q255 -12 206 9T123 73T69
181T50 334V359Q50 444 69 509T123 617T208 683T319 705Q379 705 428 684T513 620T567 512T586 359V334Q586 248 567 184T512 76T427 10T316 -12Z" />
<glyph unicode="&#xd4;" glyph-name="Ocircumflex" horiz-adv-x="636" d="M318 60Q407 60 449 128T491 327V353Q491 491 452 561T315 632Q228 633 186 564T143 366V340Q143 202 182 131T318 60ZM316 -12Q255 -12 206 9T123 73T69 181T50 334V359Q50 444 69 509T123
617T208 683T319 705Q379 705 428 684T513 620T567 512T586 359V334Q586 248 567 184T512 76T427 10T316 -12ZM263 879H376L469 750H396L381 765Q372 775 362 787T343 811Q332 824 323 838H315Q306 825 296 812Q288 801 278 788T257 765L241 750H168L263 879Z"
/>
<glyph unicode="&#xd5;" glyph-name="Otilde" horiz-adv-x="636" d="M161 751Q165 810 193 842T258 874Q277 874 293 867T325 850T353 834T380 826Q398 826 406 842T420 881H475Q471 822 446 789T384 756Q365 756 348 763T316 779T288 795T261 802Q243 802 232
788T216 751H161V751ZM318 60Q407 60 449 128T491 327V353Q491 491 452 561T315 632Q228 633 186 564T143 366V340Q143 202 182 131T318 60ZM316 -12Q255 -12 206 9T123 73T69 181T50 334V359Q50 444 69 509T123 617T208 683T319 705Q379 705 428 684T513 620T567
512T586 359V334Q586 248 567 184T512 76T427 10T316 -12Z" />
<glyph unicode="&#xd6;" glyph-name="Odieresis" horiz-adv-x="636" d="M182 852H271V762H182V852ZM365 852H454V762H365V852ZM318 60Q407 60 449 128T491 327V353Q491 491 452 561T315 632Q228 633 186 564T143 366V340Q143 202 182 131T318 60ZM316 -12Q255
-12 206 9T123 73T69 181T50 334V359Q50 444 69 509T123 617T208 683T319 705Q379 705 428 684T513 620T567 512T586 359V334Q586 248 567 184T512 76T427 10T316 -12Z" />
<glyph unicode="&#xd7;" glyph-name="multiply" horiz-adv-x="550" d="M73 177L145 249Q152 256 162 265T184 285T208 305T229 323Q220 331 208 340T185 360T163 379T145 397L73 469L126 522L198 450Q205 443 214 433T234 410T254 387T272 365Q288 385 309 410T346
450L418 522L471 469L399 397Q392 390 382 381T359 361T336 341T314 323Q324 315 335 305T358 285T380 266T399 249L471 177L418 124L346 196Q339 203 330 213T310 235T290 259T272 280Q264 271 254 259T234 236T215 214T198 196L126 124L73 177Z" />
<glyph unicode="&#xd8;" glyph-name="Oslash" horiz-adv-x="636" d="M125 -73Q134 -48 148 -19T172 27Q114 65 82 141T50 334V359Q50 444 69 509T123 617T208 683T319 705Q366 705 408 691Q410 704 413 718T421 744L434 781H513L500 744Q495 725 483 703T461 666Q520
628 553 552T586 359V334Q586 248 567 184T512 76T427 10T316 -12Q291 -12 269 -9T225 1Q221 -16 216 -36T205 -74L189 -117H109L125 -73ZM356 556Q362 573 371 593T389 630Q360 637 315 637Q227 637 185 566T142 366V320Q142 225 152 170T193 88Q198 106 204 125T215
159L356 556ZM318 55Q407 55 450 126T493 327V373Q493 470 482 524T440 605Q435 589 431 573T421 542L279 146Q271 126 262 103T244 62Q272 55 318 55Z" />
<glyph unicode="&#xd9;" glyph-name="Ugrave" horiz-adv-x="619" d="M312 -13Q194 -13 138 48T82 219V692H170V226Q170 176 181 143T211 91T257 65T316 57Q345 57 370 65T414 93T443 145T454 227V692H536V226Q536 111 480 49T312 -13ZM215 886H309L360 750H290L215 886Z" />
<glyph unicode="&#xda;" glyph-name="Uacute" horiz-adv-x="619" d="M312 -13Q194 -13 138 48T82 219V692H170V226Q170 176 181 143T211 91T257 65T316 57Q345 57 370 65T414 93T443 145T454 227V692H536V226Q536 111 480 49T312 -13ZM344 750H274L325 886H419L344 750Z" />
<glyph unicode="&#xdb;" glyph-name="Ucircumflex" horiz-adv-x="619" d="M258 879H371L464 750H391L376 765Q367 775 357 787T338 811Q327 824 318 838H310Q301 825 291 812Q283 801 273 788T252 765L236 750H163L258 879ZM312 -13Q194 -13 138 48T82 219V692H170V226Q170
176 181 143T211 91T257 65T316 57Q345 57 370 65T414 93T443 145T454 227V692H536V226Q536 111 480 49T312 -13Z" />
<glyph unicode="&#xdc;" glyph-name="Udieresis" horiz-adv-x="619" d="M312 -13Q194 -13 138 48T82 219V692H170V226Q170 176 181 143T211 91T257 65T316 57Q345 57 370 65T414 93T443 145T454 227V692H536V226Q536 111 480 49T312 -13ZM177 852H266V762H177V852ZM360
852H449V762H360V852Z" />
<glyph unicode="&#xdd;" glyph-name="Yacute" horiz-adv-x="535" d="M226 266L25 692H121L205 507Q217 480 228 448T249 387Q260 354 270 321H280Q289 354 300 387Q309 415 320 447T342 507L422 692H511L316 267V0H226V266ZM305 750H235L286 886H380L305 750Z" />
<glyph unicode="&#xde;" glyph-name="Thorn" horiz-adv-x="526" d="M85 692H174V639Q174 627 173 614T171 588Q169 574 168 560H276Q333 560 373 544T439 501T475 435T487 353Q487 301 472 262T430 195T366 155T283 141H168Q169 126 171 111Q172 98 173 83T174
56V0H85V692ZM268 212Q331 212 363 244T396 347Q396 424 364 456T269 488H168Q169 474 171 459Q172 446 173 432T174 406V293Q174 281 173 267T171 241Q169 227 168 212H268Z" />
<glyph unicode="&#xdf;" glyph-name="germandbls" horiz-adv-x="526" d="M300 -4Q276 -4 265 -2T242 4V66Q257 62 267 62T292 62Q338 62 366 90T394 191Q394 259 362 303T245 368V445Q271 454 293 465T332 494T358 533T367 585Q367 625 342 651T271 677Q248 677
228 670T192 646T167 602T157 537V0H73V537Q73 594 90 633T135 698T198 734T270 746Q355 746 401 702T447 585Q447 548 436 522T405 476T359 442T303 416V406Q396 382 438 324T481 193Q481 151 471 115T439 53T383 11T300 -4Z" />
<glyph unicode="&#xe0;" glyph-name="agrave" horiz-adv-x="466" d="M183 -12Q120 -12 81 25T42 135Q42 270 212 285L311 293V354Q311 410 282 431T195 452Q161 452 132 447T81 434V495Q109 506 144 514T224 523Q306 523 351 487T396 371V0H334L323 56H314Q295
32 264 10T183 -12ZM208 49Q237 49 266 63T313 94V241L232 236Q181 233 154 209T127 139Q127 92 147 71T208 49ZM109 766H203L274 597H204L109 766Z" />
<glyph unicode="&#xe1;" glyph-name="aacute" horiz-adv-x="466" d="M183 -12Q120 -12 81 25T42 135Q42 270 212 285L311 293V354Q311 410 282 431T195 452Q161 452 132 447T81 434V495Q109 506 144 514T224 523Q306 523 351 487T396 371V0H334L323 56H314Q295
32 264 10T183 -12ZM208 49Q237 49 266 63T313 94V241L232 236Q181 233 154 209T127 139Q127 92 147 71T208 49ZM513 766H607L512 597H442L513 766Z" />
<glyph unicode="&#xe2;" glyph-name="acircumflex" horiz-adv-x="466" d="M183 -12Q120 -12 81 25T42 135Q42 270 212 285L311 293V354Q311 410 282 431T195 452Q161 452 132 447T81 434V495Q109 506 144 514T224 523Q306 523 351 487T396 371V0H334L323 56H314Q295
32 264 10T183 -12ZM208 49Q237 49 266 63T313 94V241L232 236Q181 233 154 209T127 139Q127 92 147 71T208 49ZM178 749H291L390 597H317L286 634Q278 644 270 657T254 681Q246 694 238 708H230Q222 694 214 681Q207 670 199 657T182 634L151 597H78L178 749Z"
/>
<glyph unicode="&#xe3;" glyph-name="atilde" horiz-adv-x="466" d="M183 -12Q120 -12 81 25T42 135Q42 270 212 285L311 293V354Q311 410 282 431T195 452Q161 452 132 447T81 434V495Q109 506 144 514T224 523Q306 523 351 487T396 371V0H334L323 56H314Q295
32 264 10T183 -12ZM208 49Q237 49 266 63T313 94V241L232 236Q181 233 154 209T127 139Q127 92 147 71T208 49ZM76 612Q80 671 108 703T173 735Q192 735 208 728T240 711T268 695T295 687Q313 687 321 703T335 742H390Q386 683 361 650T299 617Q280 617 263 624T231
640T203 656T176 663Q158 663 147 649T131 612H76V612Z" />
<glyph unicode="&#xe4;" glyph-name="adieresis" horiz-adv-x="466" d="M97 708H186V618H97V708ZM280 708H369V618H280V708ZM183 -12Q120 -12 81 25T42 135Q42 270 212 285L311 293V354Q311 410 282 431T195 452Q161 452 132 447T81 434V495Q109 506 144 514T224
523Q306 523 351 487T396 371V0H334L323 56H314Q295 32 264 10T183 -12ZM208 49Q237 49 266 63T313 94V241L232 236Q181 233 154 209T127 139Q127 92 147 71T208 49Z" />
<glyph unicode="&#xe5;" glyph-name="aring" horiz-adv-x="466" d="M233 630Q260 630 277 647T294 692Q294 719 277 736T233 754Q206 754 189 737T172 692Q172 664 189 647T233 630ZM233 587Q209 587 189 595T155 618T132 651T123 692Q123 713 131 732T154 766T189
788T233 797Q257 797 277 789T311 766T334 733T343 692Q343 671 335 652T312 618T277 596T233 587ZM183 -12Q120 -12 81 25T42 135Q42 270 212 285L311 293V354Q311 410 282 431T195 452Q161 452 132 447T81 434V495Q109 506 144 514T224 523Q306 523 351 487T396
371V0H334L323 56H314Q295 32 264 10T183 -12ZM208 49Q237 49 266 63T313 94V241L232 236Q181 233 154 209T127 139Q127 92 147 71T208 49Z" />
<glyph unicode="&#xe6;" glyph-name="ae" horiz-adv-x="729" d="M183 -12Q120 -12 81 25T42 135Q42 202 82 239T208 285L312 293V354Q312 410 281 431T194 452Q160 452 131 447T80 434V495Q108 506 143 514T223 523Q337 523 360 435H369Q388 477 419 500T502 523Q553
523 588 506T644 457T674 383T683 290V238H390Q390 187 399 153T427 97T471 67T530 58Q575 58 605 67T666 93V28Q646 14 610 1T517 -12Q397 -12 356 79H347Q336 65 321 50T286 20T240 -3T183 -12ZM208 49Q247 49 276 68T330 112Q322 137 317 167T311 243L228 236Q127
227 127 139Q127 92 147 71T208 49ZM390 285Q407 288 434 292T491 296H601Q601 380 578 418T501 457Q476 457 456 448T422 419T399 366T390 285Z" />
<glyph unicode="&#xe7;" glyph-name="ccedilla" horiz-adv-x="443" d="M147 -179Q167 -141 184 -94T206 -5Q132 12 91 73T50 233V271Q50 339 68 387T116 465T186 509T270 523Q315 523 341 517T390 498V428Q362 439 337 445T270 452Q242 452 218 443T176 414T148
362T137 281V237Q137 141 175 100T283 58Q325 58 352 67T397 85V24Q380 12 347 2T269 -11Q268 -56 259 -102T232 -179H147V-179Z" />
<glyph unicode="&#xe8;" glyph-name="egrave" horiz-adv-x="473" d="M261 -12Q153 -12 100 54T47 238V274Q47 334 61 380T102 458T165 506T246 523Q297 523 332 506T388 457T418 383T427 290V238H130Q130 187 140 153T168 97T212 67T274 58Q319 58 349 67T410
93V28Q390 14 354 1T261 -12ZM245 457Q220 457 200 448T164 419T140 366T130 285Q146 288 173 292T229 296H345Q345 380 322 418T245 457ZM124 766H218L289 597H219L124 766Z" />
<glyph unicode="&#xe9;" glyph-name="eacute" horiz-adv-x="473" d="M261 -12Q153 -12 100 54T47 238V274Q47 334 61 380T102 458T165 506T246 523Q297 523 332 506T388 457T418 383T427 290V238H130Q130 187 140 153T168 97T212 67T274 58Q319 58 349 67T410
93V28Q390 14 354 1T261 -12ZM245 457Q220 457 200 448T164 419T140 366T130 285Q146 288 173 292T229 296H345Q345 380 322 418T245 457ZM271 766H365L270 597H200L271 766Z" />
<glyph unicode="&#xea;" glyph-name="ecircumflex" horiz-adv-x="473" d="M192 749H305L404 597H331L300 634Q292 644 284 657T268 681Q260 694 252 708H244Q236 694 228 681Q221 670 213 657T196 634L165 597H92L192 749ZM261 -12Q153 -12 100 54T47 238V274Q47
334 61 380T102 458T165 506T246 523Q297 523 332 506T388 457T418 383T427 290V238H130Q130 187 140 153T168 97T212 67T274 58Q319 58 349 67T410 93V28Q390 14 354 1T261 -12ZM245 457Q220 457 200 448T164 419T140 366T130 285Q146 288 173 292T229 296H345Q345
380 322 418T245 457Z" />
<glyph unicode="&#xeb;" glyph-name="edieresis" horiz-adv-x="473" d="M261 -12Q153 -12 100 54T47 238V274Q47 334 61 380T102 458T165 506T246 523Q297 523 332 506T388 457T418 383T427 290V238H130Q130 187 140 153T168 97T212 67T274 58Q319 58 349 67T410
93V28Q390 14 354 1T261 -12ZM245 457Q220 457 200 448T164 419T140 366T130 285Q146 288 173 292T229 296H345Q345 380 322 418T245 457ZM111 708H200V618H111V708ZM294 708H383V618H294V708Z" />
<glyph unicode="&#xec;" glyph-name="igrave" horiz-adv-x="253" d="M258 766H352L423 597H353L258 766ZM84 513H169V0H84V513Z" />
<glyph unicode="&#xed;" glyph-name="iacute" horiz-adv-x="253" d="M84 513H169V0H84V513ZM405 766H499L404 597H334L405 766Z" />
<glyph unicode="&#xee;" glyph-name="icircumflex" horiz-adv-x="253" d="M325 749H438L537 597H464L433 634Q425 644 417 657T401 681Q393 694 385 708H377Q369 694 361 681Q354 670 346 657T329 634L298 597H225L325 749ZM84 513H169V0H84V513Z" />
<glyph unicode="&#xef;" glyph-name="idieresis" horiz-adv-x="253" d="M247 708H336V618H247V708ZM430 708H519V618H430V708ZM84 513H169V0H84V513Z" />
<glyph unicode="&#xf0;" glyph-name="eth" horiz-adv-x="507" d="M109 600L219 642Q209 649 199 656T179 672L120 719H229L258 698Q275 685 288 668L406 713L427 658L333 622Q343 614 353 603T375 577Q417 517 438 443T459 270V239Q459 177 444 130T402 52T336
4T253 -12Q157 -12 103 50T48 235V260Q48 316 63 359T103 432T163 477T237 492Q272 492 302 482T359 448L365 452Q351 470 339 488Q328 502 318 517T300 543Q290 557 282 571T266 597L130 545L109 600ZM255 54Q310 54 341 96T373 231V264Q373 303 371 331T363 383Q343
408 316 419T256 430Q200 430 168 388T135 267V233Q135 181 144 147T170 92T208 63T255 54Z" />
<glyph unicode="&#xf1;" glyph-name="ntilde" horiz-adv-x="517" d="M73 513H149V448H159Q189 476 230 499T322 523Q382 523 414 491T447 384V0H362V359Q362 407 347 428T288 450Q250 450 217 435T158 404V0H73V513ZM102 612Q106 671 134 703T199 735Q218 735
234 728T266 711T294 695T321 687Q339 687 347 703T361 742H416Q412 683 387 650T325 617Q306 617 289 624T257 640T229 656T202 663Q184 663 173 649T157 612H102V612Z" />
<glyph unicode="&#xf2;" glyph-name="ograve" horiz-adv-x="508" d="M255 54Q310 54 341 96T373 231V277Q373 329 364 364T338 419T300 448T253 457Q197 457 166 415T135 280V233Q135 181 144 147T170 92T208 63T255 54ZM253 -12Q157 -12 103 50T48 235V273Q48
334 63 380T105 458T171 506T254 523Q350 523 404 461T459 276V239Q459 177 444 130T402 52T336 4T253 -12ZM130 766H224L295 597H225L130 766Z" />
<glyph unicode="&#xf3;" glyph-name="oacute" horiz-adv-x="508" d="M276 766H370L275 597H205L276 766ZM255 54Q310 54 341 96T373 231V277Q373 329 364 364T338 419T300 448T253 457Q197 457 166 415T135 280V233Q135 181 144 147T170 92T208 63T255 54ZM253
-12Q157 -12 103 50T48 235V273Q48 334 63 380T105 458T171 506T254 523Q350 523 404 461T459 276V239Q459 177 444 130T402 52T336 4T253 -12Z" />
<glyph unicode="&#xf4;" glyph-name="ocircumflex" horiz-adv-x="508" d="M197 749H310L409 597H336L305 634Q297 644 289 657T273 681Q265 694 257 708H249Q241 694 233 681Q226 670 218 657T201 634L170 597H97L197 749ZM255 54Q310 54 341 96T373 231V277Q373
329 364 364T338 419T300 448T253 457Q197 457 166 415T135 280V233Q135 181 144 147T170 92T208 63T255 54ZM253 -12Q157 -12 103 50T48 235V273Q48 334 63 380T105 458T171 506T254 523Q350 523 404 461T459 276V239Q459 177 444 130T402 52T336 4T253 -12Z"
/>
<glyph unicode="&#xf5;" glyph-name="otilde" horiz-adv-x="508" d="M95 612Q99 671 127 703T192 735Q211 735 227 728T259 711T287 695T314 687Q332 687 340 703T354 742H409Q405 683 380 650T318 617Q299 617 282 624T250 640T222 656T195 663Q177 663 166 649T150
612H95V612ZM255 54Q310 54 341 96T373 231V277Q373 329 364 364T338 419T300 448T253 457Q197 457 166 415T135 280V233Q135 181 144 147T170 92T208 63T255 54ZM253 -12Q157 -12 103 50T48 235V273Q48 334 63 380T105 458T171 506T254 523Q350 523 404 461T459
276V239Q459 177 444 130T402 52T336 4T253 -12Z" />
<glyph unicode="&#xf6;" glyph-name="odieresis" horiz-adv-x="508" d="M255 54Q310 54 341 96T373 231V277Q373 329 364 364T338 419T300 448T253 457Q197 457 166 415T135 280V233Q135 181 144 147T170 92T208 63T255 54ZM253 -12Q157 -12 103 50T48 235V273Q48
334 63 380T105 458T171 506T254 523Q350 523 404 461T459 276V239Q459 177 444 130T402 52T336 4T253 -12ZM117 708H206V618H117V708ZM300 708H389V618H300V708Z" />
<glyph unicode="&#xf7;" glyph-name="divide" horiz-adv-x="550" d="M225 201H324V98H225V201ZM72 384H478V310H72V384ZM225 596H324V493H225V596Z" />
<glyph unicode="&#xf8;" glyph-name="oslash" horiz-adv-x="508" d="M88 -73Q99 -48 112 -22T136 21Q94 50 71 103T48 235V273Q48 334 63 380T105 458T171 506T254 523Q291 523 326 512Q328 526 333 545T345 581L355 608H430L420 581Q416 571 410 559T397 535T383
511T370 490Q413 461 436 408T459 276V239Q459 177 444 130T402 52T336 4T253 -12Q217 -12 187 -3Q182 -20 177 -38T164 -74L148 -110H72L88 -73ZM275 393Q280 407 287 424T303 456Q282 462 253 462Q197 462 166 417T135 280V223Q135 170 141 137T161 84Q168 105
176 132T195 185L275 393ZM255 50Q310 50 341 93T373 231V287Q373 340 367 373T347 426Q343 412 339 399T330 373L246 146Q238 124 225 98T204 55Q215 52 227 51T255 50Z" />
<glyph unicode="&#xf9;" glyph-name="ugrave" horiz-adv-x="513" d="M135 766H229L300 597H230L135 766ZM197 -10Q137 -10 104 26T70 138V513H155V154Q155 105 170 84T229 63Q267 63 298 78T354 108V513H439V0H374L364 61H355Q324 32 286 11T197 -10Z" />
<glyph unicode="&#xfa;" glyph-name="uacute" horiz-adv-x="513" d="M197 -10Q137 -10 104 26T70 138V513H155V154Q155 105 170 84T229 63Q267 63 298 78T354 108V513H439V0H374L364 61H355Q324 32 286 11T197 -10ZM280 766H374L279 597H209L280 766Z" />
<glyph unicode="&#xfb;" glyph-name="ucircumflex" horiz-adv-x="513" d="M197 -10Q137 -10 104 26T70 138V513H155V154Q155 105 170 84T229 63Q267 63 298 78T354 108V513H439V0H374L364 61H355Q324 32 286 11T197 -10ZM203 749H316L415 597H342L311 634Q303
644 295 657T279 681Q271 694 263 708H255Q247 694 239 681Q232 670 224 657T207 634L176 597H103L203 749Z" />
<glyph unicode="&#xfc;" glyph-name="udieresis" horiz-adv-x="513" d="M122 708H211V618H122V708ZM305 708H394V618H305V708ZM197 -10Q137 -10 104 26T70 138V513H155V154Q155 105 170 84T229 63Q267 63 298 78T354 108V513H439V0H374L364 61H355Q324 32 286
11T197 -10Z" />
<glyph unicode="&#xfd;" glyph-name="yacute" horiz-adv-x="466" d="M111 -171Q92 -171 74 -167T46 -158V-96Q56 -98 69 -102T98 -106Q133 -106 156 -88T194 -21L203 6L25 513H116L200 255Q208 229 215 197T227 138Q233 105 238 74H248Q254 106 260 138Q265 165
272 196T288 255L366 513H450L270 -32Q257 -71 242 -98T207 -141T164 -164T111 -171ZM268 766H362L267 597H197L268 766Z" />
<glyph unicode="&#xfe;" glyph-name="thorn" horiz-adv-x="514" d="M73 719H158V549Q158 534 157 518T153 488Q151 472 149 458H159Q184 483 214 503T294 523Q325 523 356 513T411 477T451 406T466 289V260Q466 133 412 71T263 8Q227 8 200 19T158 45H149Q151
32 153 18Q155 6 156 -9T158 -39V-164H73V719ZM259 73Q284 73 305 81T343 110T368 164T378 249V284Q378 335 369 367T345 417T307 443T259 450Q219 450 195 438T156 414V97Q175 86 198 80T259 73Z" />
<glyph unicode="&#xff;" glyph-name="ydieresis" horiz-adv-x="466" d="M108 708H197V618H108V708ZM291 708H380V618H291V708ZM111 -171Q92 -171 74 -167T46 -158V-96Q56 -98 69 -102T98 -106Q133 -106 156 -88T194 -21L203 6L25 513H116L200 255Q208 229 215
197T227 138Q233 105 238 74H248Q254 106 260 138Q265 165 272 196T288 255L366 513H450L270 -32Q257 -71 242 -98T207 -141T164 -164T111 -171Z" />
<glyph unicode="&#x100;" glyph-name="Amacron" horiz-adv-x="571" d="M237 692H336L551 0H456L426 98Q419 119 414 145T404 192H160Q155 172 149 147T137 99L107 0H20L237 692ZM209 340Q204 321 196 300T181 261H384Q377 278 369 299T356 341L323 459Q315 484
309 512T298 564Q293 592 288 619H278Q273 592 268 564Q263 540 257 512T243 459L209 340ZM150 837H420V774H150V837Z" />
<glyph unicode="&#x101;" glyph-name="amacron" horiz-adv-x="466" d="M183 -12Q120 -12 81 25T42 135Q42 270 212 285L311 293V354Q311 410 282 431T195 452Q161 452 132 447T81 434V495Q109 506 144 514T224 523Q306 523 351 487T396 371V0H334L323 56H314Q295
32 264 10T183 -12ZM208 49Q237 49 266 63T313 94V241L232 236Q181 233 154 209T127 139Q127 92 147 71T208 49ZM98 697H368V634H98V697Z" />
<glyph unicode="&#x102;" glyph-name="Abreve" horiz-adv-x="571" d="M285 745Q252 745 226 756T181 785T152 827T140 879H206Q214 850 233 834T285 817Q318 817 336 833T363 879H430Q429 852 419 828T390 785T345 756T285 745ZM237 692H336L551 0H456L426 98Q419
119 414 145T404 192H160Q155 172 149 147T137 99L107 0H20L237 692ZM209 340Q204 321 196 300T181 261H384Q377 278 369 299T356 341L323 459Q315 484 309 512T298 564Q293 592 288 619H278Q273 592 268 564Q263 540 257 512T243 459L209 340Z" />
<glyph unicode="&#x103;" glyph-name="abreve" horiz-adv-x="466" d="M183 -12Q120 -12 81 25T42 135Q42 270 212 285L311 293V354Q311 410 282 431T195 452Q161 452 132 447T81 434V495Q109 506 144 514T224 523Q306 523 351 487T396 371V0H334L323 56H314Q295
32 264 10T183 -12ZM208 49Q237 49 266 63T313 94V241L232 236Q181 233 154 209T127 139Q127 92 147 71T208 49ZM234 595Q202 595 175 606T129 637T98 683T85 742H151Q157 702 178 685T234 667Q269 667 289 684T316 742H383Q382 710 371 684T340 637T294 606T234
595Z" />
<glyph unicode="&#x104;" glyph-name="Aogonek" horiz-adv-x="571" d="M501 -170Q462 -170 437 -152T412 -99Q412 -71 426 -51T461 -17L426 98Q419 119 414 145T404 192H160Q155 172 149 147T137 99L107 0H20L237 692H336L551 0Q524 -18 508 -37T492 -77Q492 -94
502 -102T530 -110Q540 -110 546 -110T562 -108V-159Q551 -164 537 -167T501 -170ZM209 340Q204 321 196 300T181 261H384Q377 278 369 299T356 341L323 459Q315 484 309 512T298 564Q293 592 288 619H278Q273 592 268 564Q263 540 257 512T243 459L209 340Z" />
<glyph unicode="&#x105;" glyph-name="aogonek" horiz-adv-x="466" d="M351 -170Q312 -170 287 -152T262 -99Q262 -81 269 -67T286 -42T310 -21T335 -3L323 56H314Q295 32 264 10T183 -12Q120 -12 81 25T42 135Q42 270 212 285L311 293V354Q311 410 282 431T195
452Q161 452 132 447T81 434V495Q109 506 144 514T224 523Q306 523 351 487T396 371V0Q373 -18 358 -37T342 -77Q342 -94 352 -102T380 -110Q390 -110 396 -110T412 -108V-159Q401 -164 387 -167T351 -170ZM208 49Q237 49 266 63T313 94V241L232 236Q181 233 154
209T127 139Q127 92 147 71T208 49Z" />
<glyph unicode="&#x106;" glyph-name="Cacute" horiz-adv-x="536" d="M323 -12Q261 -12 211 9T125 74T70 183T51 336V360Q51 457 74 523T137 629T229 687T338 705Q380 705 417 697T482 675V596Q445 610 410 619T333 628Q295 628 261 616T200 573T159 493T144 367V341Q144
198 190 132T341 65Q390 65 426 78T490 112V32Q459 12 418 0T323 -12ZM341 750H271L322 886H416L341 750Z" />
<glyph unicode="&#x107;" glyph-name="cacute" horiz-adv-x="443" d="M261 -11Q162 -11 106 53T50 233V271Q50 339 68 387T116 465T186 509T270 523Q315 523 341 517T390 498V428Q362 439 337 445T270 452Q242 452 218 443T176 414T148 362T137 281V237Q137 141
175 100T283 58Q325 58 352 67T397 85V24Q379 12 344 1T261 -11ZM273 766H367L272 597H202L273 766Z" />
<glyph unicode="&#x108;" glyph-name="Ccircumflex" horiz-adv-x="536" d="M254 879H367L460 750H387L372 765Q363 775 353 787T334 811Q323 824 314 838H306Q297 825 287 812Q279 801 269 788T248 765L232 750H159L254 879ZM323 -12Q261 -12 211 9T125 74T70
183T51 336V360Q51 457 74 523T137 629T229 687T338 705Q380 705 417 697T482 675V596Q445 610 410 619T333 628Q295 628 261 616T200 573T159 493T144 367V341Q144 198 190 132T341 65Q390 65 426 78T490 112V32Q459 12 418 0T323 -12Z" />
<glyph unicode="&#x109;" glyph-name="ccircumflex" horiz-adv-x="443" d="M261 -11Q162 -11 106 53T50 233V271Q50 339 68 387T116 465T186 509T270 523Q315 523 341 517T390 498V428Q362 439 337 445T270 452Q242 452 218 443T176 414T148 362T137 281V237Q137
141 175 100T283 58Q325 58 352 67T397 85V24Q379 12 344 1T261 -11ZM194 749H307L406 597H333L302 634Q294 644 286 657T270 681Q262 694 254 708H246Q238 694 230 681Q223 670 215 657T198 634L167 597H94L194 749Z" />
<glyph unicode="&#x10a;" glyph-name="Cdotaccent" horiz-adv-x="536" d="M262 852H359V762H262V852ZM323 -12Q261 -12 211 9T125 74T70 183T51 336V360Q51 457 74 523T137 629T229 687T338 705Q380 705 417 697T482 675V596Q445 610 410 619T333 628Q295 628
261 616T200 573T159 493T144 367V341Q144 198 190 132T341 65Q390 65 426 78T490 112V32Q459 12 418 0T323 -12Z" />
<glyph unicode="&#x10b;" glyph-name="cdotaccent" horiz-adv-x="443" d="M201 708H298V618H201V708ZM261 -11Q162 -11 106 53T50 233V271Q50 339 68 387T116 465T186 509T270 523Q315 523 341 517T390 498V428Q362 439 337 445T270 452Q242 452 218 443T176 414T148
362T137 281V237Q137 141 175 100T283 58Q325 58 352 67T397 85V24Q379 12 344 1T261 -11Z" />
<glyph unicode="&#x10c;" glyph-name="Ccaron" horiz-adv-x="536" d="M323 -12Q261 -12 211 9T125 74T70 183T51 336V360Q51 457 74 523T137 629T229 687T338 705Q380 705 417 697T482 675V596Q445 610 410 619T333 628Q295 628 261 616T200 573T159 493T144 367V341Q144
198 190 132T341 65Q390 65 426 78T490 112V32Q459 12 418 0T323 -12ZM366 750H253L160 879H233L248 864Q257 854 267 842T286 818Q296 805 306 791H314Q323 804 333 817Q341 828 351 840T372 864L388 879H461L366 750Z" />
<glyph unicode="&#x10d;" glyph-name="ccaron" horiz-adv-x="443" d="M261 -11Q162 -11 106 53T50 233V271Q50 339 68 387T116 465T186 509T270 523Q315 523 341 517T390 498V428Q362 439 337 445T270 452Q242 452 218 443T176 414T148 362T137 281V237Q137 141
175 100T283 58Q325 58 352 67T397 85V24Q379 12 344 1T261 -11ZM95 749H168L199 712Q207 702 215 689T231 665Q239 652 247 638H255Q263 652 271 665Q278 676 286 689T303 712L334 749H407L307 597H194L95 749Z" />
<glyph unicode="&#x10e;" glyph-name="Dcaron" horiz-adv-x="606" d="M257 71Q306 71 344 84T409 128T450 210T464 336V361Q464 443 448 493T403 572T331 610T237 620H168Q169 605 171 590Q172 577 173 563T174 535V156Q174 143 173 129T171 101Q169 86 168 71H257ZM85
692H248Q406 692 481 612T556 371V348Q556 173 482 87T255 0H85V692ZM342 750H229L136 879H209L224 864Q233 854 243 842T262 818Q272 805 282 791H290Q299 804 309 817Q317 828 327 840T348 864L364 879H437L342 750Z" />
<glyph unicode="&#x10f;" glyph-name="dcaron" horiz-adv-x="537" d="M234 -13Q199 -13 166 -1T106 39T64 114T48 229V274Q48 343 63 391T106 468T169 510T247 523Q289 523 314 510T359 475H369Q366 491 364 508Q362 522 361 538T359 567V719H444V0H381L372 53H362Q340
26 309 7T234 -13ZM260 56Q296 56 320 71T361 104V416Q328 454 261 454Q233 454 210 445T170 416T144 361T135 276V235Q135 178 145 143T172 89T211 63T260 56ZM527 719H614L574 539H511L527 719Z" />
<glyph unicode="&#x110;" glyph-name="Dcroat" horiz-adv-x="626" d="M277 71Q326 71 364 84T429 128T470 210T484 336V361Q484 443 468 493T423 572T351 610T257 620H192Q193 605 195 590Q196 577 197 563T198 535V447Q198 432 197 415T193 382H364V308H193Q195
292 196 275T198 243V156Q198 143 197 129T195 101Q193 86 192 71H277ZM28 382H113Q111 397 110 414T109 447V692H268Q426 692 501 612T576 371V348Q576 173 502 87T275 0H109V243Q109 257 110 274T113 308H28V382Z" />
<glyph unicode="&#x111;" glyph-name="dcroat" horiz-adv-x="527" d="M444 0H381L372 53H362Q340 26 309 7T234 -13Q199 -13 166 -1T106 39T64 114T48 229V258Q48 327 63 375T106 452T169 494T247 507Q289 507 314 494T359 459H369Q367 470 365 481Q363 490 363
500T362 519Q362 530 362 540T363 558Q363 567 364 574H180V630H364Q362 640 361 651Q360 660 360 670T359 689V719H444V689Q444 681 443 671T441 651Q440 640 439 630H529V574H439Q440 565 441 555Q442 547 443 537T444 518V0ZM260 56Q296 56 320 71T361 104V400Q328
438 261 438Q233 438 210 429T170 400T144 345T135 260V235Q135 178 145 143T172 89T211 63T260 56Z" />
<glyph unicode="&#x112;" glyph-name="Emacron" horiz-adv-x="521" d="M85 692H454V619H168Q169 605 171 591Q172 579 173 565T174 540V475Q174 463 173 450T171 424Q169 410 168 396H389V323H168Q169 309 171 295Q172 283 173 269T174 244V152Q174 140 173 127T171
101Q169 87 168 73H455V0H85V692ZM139 837H409V774H139V837Z" />
<glyph unicode="&#x113;" glyph-name="emacron" horiz-adv-x="473" d="M261 -12Q153 -12 100 54T47 238V274Q47 334 61 380T102 458T165 506T246 523Q297 523 332 506T388 457T418 383T427 290V238H130Q130 187 140 153T168 97T212 67T274 58Q319 58 349 67T410
93V28Q390 14 354 1T261 -12ZM245 457Q220 457 200 448T164 419T140 366T130 285Q146 288 173 292T229 296H345Q345 380 322 418T245 457ZM112 697H382V634H112V697Z" />
<glyph unicode="&#x114;" glyph-name="Ebreve" horiz-adv-x="521" d="M275 745Q242 745 216 756T171 785T142 827T130 879H196Q204 850 223 834T275 817Q308 817 326 833T353 879H420Q419 852 409 828T380 785T335 756T275 745ZM85 692H454V619H168Q169 605 171
591Q172 579 173 565T174 540V475Q174 463 173 450T171 424Q169 410 168 396H389V323H168Q169 309 171 295Q172 283 173 269T174 244V152Q174 140 173 127T171 101Q169 87 168 73H455V0H85V692Z" />
<glyph unicode="&#x115;" glyph-name="ebreve" horiz-adv-x="473" d="M247 595Q215 595 188 606T142 637T111 683T98 742H164Q170 702 191 685T247 667Q282 667 302 684T329 742H396Q395 710 384 684T353 637T307 606T247 595ZM261 -12Q153 -12 100 54T47 238V274Q47
334 61 380T102 458T165 506T246 523Q297 523 332 506T388 457T418 383T427 290V238H130Q130 187 140 153T168 97T212 67T274 58Q319 58 349 67T410 93V28Q390 14 354 1T261 -12ZM245 457Q220 457 200 448T164 419T140 366T130 285Q146 288 173 292T229 296H345Q345
380 322 418T245 457Z" />
<glyph unicode="&#x116;" glyph-name="Edotaccent" horiz-adv-x="521" d="M226 852H323V762H226V852ZM85 692H454V619H168Q169 605 171 591Q172 579 173 565T174 540V475Q174 463 173 450T171 424Q169 410 168 396H389V323H168Q169 309 171 295Q172 283 173 269T174
244V152Q174 140 173 127T171 101Q169 87 168 73H455V0H85V692Z" />
<glyph unicode="&#x117;" glyph-name="edotaccent" horiz-adv-x="473" d="M199 708H296V618H199V708ZM261 -12Q153 -12 100 54T47 238V274Q47 334 61 380T102 458T165 506T246 523Q297 523 332 506T388 457T418 383T427 290V238H130Q130 187 140 153T168 97T212
67T274 58Q319 58 349 67T410 93V28Q390 14 354 1T261 -12ZM245 457Q220 457 200 448T164 419T140 366T130 285Q146 288 173 292T229 296H345Q345 380 322 418T245 457Z" />
<glyph unicode="&#x118;" glyph-name="Eogonek" horiz-adv-x="521" d="M85 692H454V619H168Q169 605 171 591Q172 579 173 565T174 540V475Q174 463 173 450T171 424Q169 410 168 396H389V323H168Q169 309 171 295Q172 283 173 269T174 244V152Q174 140 173 127T171
101Q169 87 168 73H455V0H412Q389 -18 374 -37T358 -77Q358 -94 368 -102T396 -110Q406 -110 412 -110T428 -108V-159Q417 -164 403 -167T367 -170Q328 -170 303 -152T278 -99Q278 -80 284 -65T301 -38T325 -16T351 0V10Q338 7 318 4T270 0H85V692Z" />
<glyph unicode="&#x119;" glyph-name="eogonek" horiz-adv-x="473" d="M311 -170Q272 -170 247 -152T222 -99Q222 -67 242 -48T284 -15V-6Q224 -12 179 2T105 49T62 129T47 238V274Q47 334 61 380T102 458T165 506T246 523Q297 523 332 506T388 457T418 383T427
290V238H130Q130 187 140 153T168 97T212 67T274 58Q319 58 349 67T410 93V28Q397 19 379 9T343 -15T314 -43T302 -77Q302 -94 312 -102T340 -110Q350 -110 356 -110T372 -108V-159Q361 -164 347 -167T311 -170ZM245 457Q220 457 200 448T164 419T140 366T130 285Q146
288 173 292T229 296H345Q345 380 322 418T245 457Z" />
<glyph unicode="&#x11a;" glyph-name="Ecaron" horiz-adv-x="521" d="M85 692H454V619H168Q169 605 171 591Q172 579 173 565T174 540V475Q174 463 173 450T171 424Q169 410 168 396H389V323H168Q169 309 171 295Q172 283 173 269T174 244V152Q174 140 173 127T171
101Q169 87 168 73H455V0H85V692ZM330 750H217L124 879H197L212 864Q221 854 231 842T250 818Q260 805 270 791H278Q287 804 297 817Q305 828 315 840T336 864L352 879H425L330 750Z" />
<glyph unicode="&#x11b;" glyph-name="ecaron" horiz-adv-x="473" d="M261 -12Q153 -12 100 54T47 238V274Q47 334 61 380T102 458T165 506T246 523Q297 523 332 506T388 457T418 383T427 290V238H130Q130 187 140 153T168 97T212 67T274 58Q319 58 349 67T410
93V28Q390 14 354 1T261 -12ZM245 457Q220 457 200 448T164 419T140 366T130 285Q146 288 173 292T229 296H345Q345 380 322 418T245 457ZM92 749H165L196 712Q204 702 212 689T228 665Q236 652 244 638H252Q260 652 268 665Q275 676 283 689T300 712L331 749H404L304
597H191L92 749Z" />
<glyph unicode="&#x11c;" glyph-name="Gcircumflex" horiz-adv-x="609" d="M342 -12Q279 -12 226 7T135 69T75 176T53 335V355Q53 449 77 515T143 624T240 685T357 705Q411 705 448 695T511 672V590Q487 604 449 616T355 628Q300 628 261 609T196 555T158 471T146
361V340Q146 274 156 222T189 134T251 79T347 60Q373 60 404 66T457 82Q455 89 453 100Q450 118 450 148V203Q450 232 453 255Q454 268 456 280H322V352H535V33Q499 12 448 0T342 -12ZM269 879H382L475 750H402L387 765Q378 775 368 787T349 811Q338 824 329 838H321Q312
825 302 812Q294 801 284 788T263 765L247 750H174L269 879Z" />
<glyph unicode="&#x11d;" glyph-name="gcircumflex" horiz-adv-x="514" d="M202 749H315L414 597H341L310 634Q302 644 294 657T278 681Q270 694 262 708H254Q246 694 238 681Q231 670 223 657T206 634L175 597H102L202 749ZM238 -172Q184 -172 145 -162T72 -133V-72Q101
-84 141 -93T221 -102Q356 -102 356 6V24Q356 40 357 53T360 77Q362 88 365 99H356Q331 76 301 60T222 44Q189 44 158 54T103 90T63 157T48 264V281Q48 399 97 459T235 519Q277 519 309 504T359 468H368L379 513H441V0Q441 -84 387 -128T238 -172ZM254 109Q294
109 319 121T358 145V418Q339 432 312 441T247 450Q222 450 202 442T167 415T144 365T136 289V267Q136 221 144 191T169 142T206 117T254 109Z" />
<glyph unicode="&#x11e;" glyph-name="Gbreve" horiz-adv-x="609" d="M324 745Q291 745 265 756T220 785T191 827T179 879H245Q253 850 272 834T324 817Q357 817 375 833T402 879H469Q468 852 458 828T429 785T384 756T324 745ZM342 -12Q279 -12 226 7T135 69T75
176T53 335V355Q53 449 77 515T143 624T240 685T357 705Q411 705 448 695T511 672V590Q487 604 449 616T355 628Q300 628 261 609T196 555T158 471T146 361V340Q146 274 156 222T189 134T251 79T347 60Q373 60 404 66T457 82Q455 89 453 100Q450 118 450 148V203Q450
232 453 255Q454 268 456 280H322V352H535V33Q499 12 448 0T342 -12Z" />
<glyph unicode="&#x11f;" glyph-name="gbreve" horiz-adv-x="514" d="M238 -172Q184 -172 145 -162T72 -133V-72Q101 -84 141 -93T221 -102Q356 -102 356 6V24Q356 40 357 53T360 77Q362 88 365 99H356Q331 76 301 60T222 44Q189 44 158 54T103 90T63 157T48 264V281Q48
399 97 459T235 519Q277 519 309 504T359 468H368L379 513H441V0Q441 -84 387 -128T238 -172ZM254 109Q294 109 319 121T358 145V418Q339 432 312 441T247 450Q222 450 202 442T167 415T144 365T136 289V267Q136 221 144 191T169 142T206 117T254 109ZM257 595Q225
595 198 606T152 637T121 683T108 742H174Q180 702 201 685T257 667Q292 667 312 684T339 742H406Q405 710 394 684T363 637T317 606T257 595Z" />
<glyph unicode="&#x120;" glyph-name="Gdotaccent" horiz-adv-x="609" d="M342 -12Q279 -12 226 7T135 69T75 176T53 335V355Q53 449 77 515T143 624T240 685T357 705Q411 705 448 695T511 672V590Q487 604 449 616T355 628Q300 628 261 609T196 555T158 471T146
361V340Q146 274 156 222T189 134T251 79T347 60Q373 60 404 66T457 82Q455 89 453 100Q450 118 450 148V203Q450 232 453 255Q454 268 456 280H322V352H535V33Q499 12 448 0T342 -12ZM276 852H373V762H276V852Z" />
<glyph unicode="&#x121;" glyph-name="gdotaccent" horiz-adv-x="514" d="M209 708H306V618H209V708ZM238 -172Q184 -172 145 -162T72 -133V-72Q101 -84 141 -93T221 -102Q356 -102 356 6V24Q356 40 357 53T360 77Q362 88 365 99H356Q331 76 301 60T222 44Q189
44 158 54T103 90T63 157T48 264V281Q48 399 97 459T235 519Q277 519 309 504T359 468H368L379 513H441V0Q441 -84 387 -128T238 -172ZM254 109Q294 109 319 121T358 145V418Q339 432 312 441T247 450Q222 450 202 442T167 415T144 365T136 289V267Q136 221 144
191T169 142T206 117T254 109Z" />
<glyph unicode="&#x122;" glyph-name="Gcommaaccent" horiz-adv-x="609" d="M342 -12Q279 -12 226 7T135 69T75 176T53 335V355Q53 449 77 515T143 624T240 685T357 705Q411 705 448 695T511 672V590Q487 604 449 616T355 628Q300 628 261 609T196 555T158 471T146
361V340Q146 274 156 222T189 134T251 79T347 60Q373 60 404 66T457 82Q455 89 453 100Q450 118 450 148V203Q450 232 453 255Q454 268 456 280H322V352H535V33Q499 12 448 0T342 -12ZM265 -204Q276 -173 279 -141T283 -71H371Q371 -111 359 -144T327 -204H265V-204Z"
/>
<glyph unicode="&#x123;" glyph-name="gcommaaccent" horiz-adv-x="514" d="M238 -172Q184 -172 145 -162T72 -133V-72Q101 -84 141 -93T221 -102Q356 -102 356 6V24Q356 40 357 53T360 77Q362 88 365 99H356Q331 76 301 60T222 44Q189 44 158 54T103 90T63 157T48
264V281Q48 399 97 459T235 519Q277 519 309 504T359 468H368L379 513H441V0Q441 -84 387 -128T238 -172ZM254 109Q294 109 319 121T358 145V418Q339 432 312 441T247 450Q222 450 202 442T167 415T144 365T136 289V267Q136 221 144 191T169 142T206 117T254 109ZM318
751Q307 720 304 688T300 618H212Q212 658 224 691T256 751H318V751Z" />
<glyph unicode="&#x124;" glyph-name="Hcircumflex" horiz-adv-x="629" d="M85 692H174V487Q174 473 173 457T171 427Q169 410 168 394H461Q459 410 458 427Q456 441 456 457T455 487V692H544V0H455V228Q455 242 455 258T458 288Q459 305 461 321H168Q169 305
171 288Q172 274 173 258T174 228V0H85V692ZM259 879H372L465 750H392L377 765Q368 775 358 787T339 811Q328 824 319 838H311Q302 825 292 812Q284 801 274 788T253 765L237 750H164L259 879Z" />
<glyph unicode="&#x125;" glyph-name="hcircumflex" horiz-adv-x="517" d="M73 719H158V541Q158 525 157 509T153 479Q151 463 149 448H159Q189 476 230 499T322 523Q382 523 414 491T447 384V0H362V359Q362 407 347 428T288 450Q250 450 217 435T158 404V0H73V719ZM205
899H318L411 770H338L323 785Q314 795 304 807T285 831Q274 844 265 858H257Q248 845 238 832Q230 821 220 808T199 785L183 770H110L205 899Z" />
<glyph unicode="&#x126;" glyph-name="Hbar" horiz-adv-x="649" d="M554 0H465V207Q465 221 465 237T468 267Q469 284 471 300H178Q179 284 181 267Q182 253 183 237T184 207V0H95V440Q95 454 96 471T99 505H5V566H100Q98 581 97 598T95 631V692H184V631Q184 616
183 599T179 566H470Q468 581 467 598T465 631V692H554V631Q554 616 553 599T549 566H644V505H550Q552 489 553 472T554 440V0ZM180 505Q182 489 183 472T184 440Q184 426 183 414T181 393Q179 382 178 373H471Q469 382 468 393Q465 411 465 440Q465 455 466 472T469
505H180Z" />
<glyph unicode="&#x127;" glyph-name="hbar" horiz-adv-x="527" d="M165 519Q165 503 164 488T162 459Q160 444 159 431H169Q199 459 240 482T332 506Q392 506 424 474T457 367V0H372V342Q372 390 357 411T298 433Q260 433 227 418T168 387V0H83V518Q83 526 83
536T85 555Q86 565 88 574H-2V630H88Q86 640 85 651Q84 660 84 670T83 689V719H168V689Q168 681 167 671T165 651Q164 640 163 630H347V574H163Q163 567 164 558Q164 550 164 540T165 519Z" />
<glyph unicode="&#x128;" glyph-name="Itilde" horiz-adv-x="285" d="M98 692H187V0H98V692ZM241 751Q245 810 273 842T338 874Q357 874 373 867T405 850T433 834T460 826Q478 826 486 842T500 881H555Q551 822 526 789T464 756Q445 756 428 763T396 779T368 795T341
802Q323 802 312 788T296 751H241V751Z" />
<glyph unicode="&#x129;" glyph-name="itilde" horiz-adv-x="253" d="M84 513H169V0H84V513ZM226 612Q230 671 258 703T323 735Q342 735 358 728T390 711T418 695T445 687Q463 687 471 703T485 742H540Q536 683 511 650T449 617Q430 617 413 624T381 640T353 656T326
663Q308 663 297 649T281 612H226V612Z" />
<glyph unicode="&#x12a;" glyph-name="Imacron" horiz-adv-x="285" d="M263 837H533V774H263V837ZM98 692H187V0H98V692Z" />
<glyph unicode="&#x12b;" glyph-name="imacron" horiz-adv-x="283" d="M17 697H267V634H17V697ZM99 513H184V0H99V513Z" />
<glyph unicode="&#x12c;" glyph-name="Ibreve" horiz-adv-x="285" d="M398 745Q365 745 339 756T294 785T265 827T253 879H319Q327 850 346 834T398 817Q431 817 449 833T476 879H543Q542 852 532 828T503 785T458 756T398 745ZM98 692H187V0H98V692Z" />
<glyph unicode="&#x12d;" glyph-name="ibreve" horiz-adv-x="253" d="M84 513H169V0H84V513ZM381 595Q349 595 322 606T276 637T245 683T232 742H298Q304 702 325 685T381 667Q416 667 436 684T463 742H530Q529 710 518 684T487 637T441 606T381 595Z" />
<glyph unicode="&#x12e;" glyph-name="Iogonek" horiz-adv-x="285" d="M141 -170Q102 -170 77 -152T52 -99Q52 -73 65 -54T98 -20V692H187V0Q162 -18 147 -37T132 -77Q132 -94 142 -102T170 -110Q180 -110 186 -110T202 -108V-159Q191 -164 177 -167T141 -170Z" />
<glyph unicode="&#x12f;" glyph-name="iogonek" horiz-adv-x="253" d="M34 -99Q34 -71 49 -51T84 -17V513H169V0Q145 -18 130 -37T114 -77Q114 -94 124 -102T152 -110Q162 -110 168 -110T184 -108V-159Q173 -164 159 -167T123 -170Q84 -170 59 -152T34 -99ZM81
706H172V620H81V706Z" />
<glyph unicode="&#x130;" glyph-name="Idotaccent" horiz-adv-x="285" d="M350 852H447V762H350V852ZM98 692H187V0H98V692Z" />
<glyph unicode="&#x131;" glyph-name="dotlessi" horiz-adv-x="253" d="M84 513H169V0H84V513Z" />
<glyph unicode="&#x132;" glyph-name="IJ" horiz-adv-x="704" d="M98 692H187V0H98V692ZM448 -11Q409 -11 381 -4T326 17V89Q346 81 372 73T432 65Q478 65 505 88T533 164V692H621V161Q621 86 578 38T448 -11Z" />
<glyph unicode="&#x133;" glyph-name="ij" horiz-adv-x="506" d="M84 513H169V0H84V513ZM78 708H175V618H78V708ZM296 -170Q269 -170 250 -167T213 -155V-96Q227 -98 241 -99T268 -100Q284 -100 297 -97T319 -83T332 -55T337 -9V513H422V-19Q422 -86 393 -128T296
-170ZM331 708H428V618H331V708Z" />
<glyph unicode="&#x134;" glyph-name="Jcircumflex" horiz-adv-x="419" d="M237 879H350L443 750H370L355 765Q346 775 336 787T317 811Q306 824 297 838H289Q280 825 270 812Q262 801 252 788T231 765L215 750H142L237 879ZM163 -11Q124 -11 96 -4T41 17V89Q61
81 87 73T147 65Q193 65 220 88T248 164V692H336V161Q336 86 293 38T163 -11Z" />
<glyph unicode="&#x135;" glyph-name="jcircumflex" horiz-adv-x="253" d="M43 -170Q16 -170 -3 -167T-40 -155V-96Q-26 -98 -12 -99T15 -100Q31 -100 44 -97T66 -83T79 -55T84 -9V513H169V-19Q169 -86 140 -128T43 -170ZM330 749H443L542 597H469L438 634Q430
644 422 657T406 681Q398 694 390 708H382Q374 694 366 681Q359 670 351 657T334 634L303 597H230L330 749Z" />
<glyph unicode="&#x136;" glyph-name="Kcommaaccent" horiz-adv-x="562" d="M204 351L429 692H523L376 472Q363 453 349 433T320 396Q304 376 288 356Q303 336 319 316Q333 299 348 279T375 239L535 0H434L204 351ZM84 692H174V458Q174 439 174 420T172 385Q171
367 171 349Q171 331 172 312Q173 295 173 276T174 238V0H84V692ZM234 -204Q245 -173 248 -141T252 -71H340Q340 -111 328 -144T296 -204H234V-204Z" />
<glyph unicode="&#x137;" glyph-name="kcommaaccent" horiz-adv-x="474" d="M193 265L351 513H442L334 353Q325 339 313 325T290 299Q278 285 265 273Q278 260 290 246Q301 234 312 220T333 191L455 0H358L193 265ZM76 719H160V411Q160 386 160 361T159 315Q158
291 158 269Q158 247 159 223Q159 203 159 178T160 127V0H76V719ZM191 -204Q202 -173 205 -141T209 -71H297Q297 -111 285 -144T253 -204H191V-204Z" />
<glyph unicode="&#x139;" glyph-name="Lacute" horiz-adv-x="482" d="M85 692H174V166Q174 150 173 134T171 104Q169 88 168 73H439V0H85V692ZM420 750H350L401 886H495L420 750Z" />
<glyph unicode="&#x13a;" glyph-name="lacute" horiz-adv-x="268" d="M175 -6Q155 -6 138 -2T107 13T86 40T78 83V719H163V101Q163 78 171 68T202 57Q213 57 225 58T249 63V6Q234 0 215 -3T175 -6ZM409 770H339L390 906H484L409 770Z" />
<glyph unicode="&#x13b;" glyph-name="Lcommaaccent" horiz-adv-x="482" d="M85 692H174V166Q174 150 173 134T171 104Q169 88 168 73H439V0H85V692ZM209 -204Q220 -173 223 -141T227 -71H315Q315 -111 303 -144T271 -204H209V-204Z" />
<glyph unicode="&#x13c;" glyph-name="lcommaaccent" horiz-adv-x="268" d="M175 -6Q155 -6 138 -2T107 13T86 40T78 83V719H163V101Q163 78 171 68T202 57Q213 57 225 58T249 63V6Q234 0 215 -3T175 -6ZM349 -204Q360 -173 363 -141T367 -71H455Q455 -111 443
-144T411 -204H349V-204Z" />
<glyph unicode="&#x13d;" glyph-name="Lcaron" horiz-adv-x="482" d="M308 719H395L351 509H288L308 719ZM85 692H174V166Q174 150 173 134T171 104Q169 88 168 73H439V0H85V692Z" />
<glyph unicode="&#x13e;" glyph-name="lcaron" horiz-adv-x="288" d="M175 -6Q155 -6 138 -2T107 13T86 40T78 83V719H163V101Q163 78 171 68T202 57Q213 57 225 58T249 63V6Q234 0 215 -3T175 -6ZM246 719H333L293 539H230L246 719Z" />
<glyph unicode="&#x13f;" glyph-name="Ldot" horiz-adv-x="492" d="M341 405H440V302H341V405ZM85 692H174V166Q174 150 173 134T171 104Q169 88 168 73H439V0H85V692Z" />
<glyph unicode="&#x140;" glyph-name="ldot" horiz-adv-x="392" d="M267 428H366V325H267V428ZM175 -6Q155 -6 138 -2T107 13T86 40T78 83V719H163V101Q163 78 171 68T202 57Q213 57 225 58T249 63V6Q234 0 215 -3T175 -6Z" />
<glyph unicode="&#x141;" glyph-name="Lslash" horiz-adv-x="502" d="M24 306L110 343Q108 358 107 376T105 411V692H194V445Q194 428 193 410T189 377L397 466V396L189 306Q191 291 192 273T194 239V166Q194 150 193 134T191 104Q189 88 188 73H459V0H105V205Q105
221 106 239T109 272L24 236V306Z" />
<glyph unicode="&#x142;" glyph-name="lslash" horiz-adv-x="318" d="M30 360L108 405Q106 420 105 437T103 471V719H188V515Q188 500 187 483T183 449L289 510V438L182 376Q184 361 186 342T188 305V101Q188 78 196 68T227 57Q238 57 250 58T274 63V6Q259 0 240
-3T200 -6Q180 -6 163 -2T132 13T111 40T103 83V259Q103 277 104 296T108 333L30 288V360Z" />
<glyph unicode="&#x143;" glyph-name="Nacute" horiz-adv-x="624" d="M85 692H187L370 342Q382 317 397 283T425 218Q440 181 455 143H465Q463 177 461 209Q459 236 459 265T458 316V692H538V0H447L254 378Q242 402 227 435T199 499Q184 534 169 572H158Q159 540
161 509Q163 483 164 454T165 405V0H85V692ZM354 750H284L335 886H429L354 750Z" />
<glyph unicode="&#x144;" glyph-name="nacute" horiz-adv-x="517" d="M73 513H149V448H159Q189 476 230 499T322 523Q382 523 414 491T447 384V0H362V359Q362 407 347 428T288 450Q250 450 217 435T158 404V0H73V513ZM282 766H376L281 597H211L282 766Z" />
<glyph unicode="&#x145;" glyph-name="Ncommaaccent" horiz-adv-x="624" d="M85 692H187L370 342Q382 317 397 283T425 218Q440 181 455 143H465Q463 177 461 209Q459 236 459 265T458 316V692H538V0H447L254 378Q242 402 227 435T199 499Q184 534 169 572H158Q159
540 161 509Q163 483 164 454T165 405V0H85V692ZM249 -204Q260 -173 263 -141T267 -71H355Q355 -111 343 -144T311 -204H249V-204Z" />
<glyph unicode="&#x146;" glyph-name="ncommaaccent" horiz-adv-x="517" d="M73 513H149V448H159Q189 476 230 499T322 523Q382 523 414 491T447 384V0H362V359Q362 407 347 428T288 450Q250 450 217 435T158 404V0H73V513ZM202 -204Q213 -173 216 -141T220 -71H308Q308
-111 296 -144T264 -204H202V-204Z" />
<glyph unicode="&#x147;" glyph-name="Ncaron" horiz-adv-x="624" d="M85 692H187L370 342Q382 317 397 283T425 218Q440 181 455 143H465Q463 177 461 209Q459 236 459 265T458 316V692H538V0H447L254 378Q242 402 227 435T199 499Q184 534 169 572H158Q159 540
161 509Q163 483 164 454T165 405V0H85V692ZM380 750H267L174 879H247L262 864Q271 854 281 842T300 818Q310 805 320 791H328Q337 804 347 817Q355 828 365 840T386 864L402 879H475L380 750Z" />
<glyph unicode="&#x148;" glyph-name="ncaron" horiz-adv-x="517" d="M73 513H149V448H159Q189 476 230 499T322 523Q382 523 414 491T447 384V0H362V359Q362 407 347 428T288 450Q250 450 217 435T158 404V0H73V513ZM103 749H176L207 712Q215 702 223 689T239
665Q247 652 255 638H263Q271 652 279 665Q286 676 294 689T311 712L342 749H415L315 597H202L103 749Z" />
<glyph unicode="&#x149;" glyph-name="napostrophe" horiz-adv-x="612" d="M168 513H244V448H254Q284 476 325 499T417 523Q477 523 509 491T542 384V0H457V359Q457 407 442 428T383 450Q345 450 312 435T253 404V0H168V513ZM230 442Q240 468 247 494T260 550T267
614T272 692H364Q364 610 345 548T291 442H230V442Z" />
<glyph unicode="&#x14a;" glyph-name="Eng" horiz-adv-x="624" d="M389 -170Q356 -170 333 -165T286 -149V-83Q303 -88 323 -92T367 -97Q404 -97 428 -79T454 -12L254 378Q242 402 227 435T199 499Q184 534 169 572H158Q159 540 161 509Q163 483 164 454T165 405V0H85V692H187L370
342Q382 317 397 283T425 218Q440 181 455 143H465Q463 177 461 209Q459 236 459 265T458 316V692H538V-9Q538 -44 529 -73T502 -124T455 -158T389 -170Z" />
<glyph unicode="&#x14b;" glyph-name="eng" horiz-adv-x="517" d="M73 513H149V448H159Q189 476 230 499T322 523Q382 523 414 491T447 384V-19Q447 -86 418 -128T321 -170Q294 -170 275 -167T238 -155V-96Q252 -98 266 -99T293 -100Q309 -100 322 -97T344 -83T357
-55T362 -9V359Q362 407 347 428T288 450Q250 450 217 435T158 404V0H73V513Z" />
<glyph unicode="&#x14c;" glyph-name="Omacron" horiz-adv-x="636" d="M318 60Q407 60 449 128T491 327V353Q491 491 452 561T315 632Q228 633 186 564T143 366V340Q143 202 182 131T318 60ZM316 -12Q255 -12 206 9T123 73T69 181T50 334V359Q50 444 69 509T123
617T208 683T319 705Q379 705 428 684T513 620T567 512T586 359V334Q586 248 567 184T512 76T427 10T316 -12ZM182 837H452V774H182V837Z" />
<glyph unicode="&#x14d;" glyph-name="omacron" horiz-adv-x="508" d="M255 54Q310 54 341 96T373 231V277Q373 329 364 364T338 419T300 448T253 457Q197 457 166 415T135 280V233Q135 181 144 147T170 92T208 63T255 54ZM253 -12Q157 -12 103 50T48 235V273Q48
334 63 380T105 458T171 506T254 523Q350 523 404 461T459 276V239Q459 177 444 130T402 52T336 4T253 -12ZM118 697H388V634H118V697Z" />
<glyph unicode="&#x14e;" glyph-name="Obreve" horiz-adv-x="636" d="M318 60Q407 60 449 128T491 327V353Q491 491 452 561T315 632Q228 633 186 564T143 366V340Q143 202 182 131T318 60ZM316 -12Q255 -12 206 9T123 73T69 181T50 334V359Q50 444 69 509T123
617T208 683T319 705Q379 705 428 684T513 620T567 512T586 359V334Q586 248 567 184T512 76T427 10T316 -12ZM317 745Q284 745 258 756T213 785T184 827T172 879H238Q246 850 265 834T317 817Q350 817 368 833T395 879H462Q461 852 451 828T422 785T377 756T317
745Z" />
<glyph unicode="&#x14f;" glyph-name="obreve" horiz-adv-x="508" d="M255 54Q310 54 341 96T373 231V277Q373 329 364 364T338 419T300 448T253 457Q197 457 166 415T135 280V233Q135 181 144 147T170 92T208 63T255 54ZM253 -12Q157 -12 103 50T48 235V273Q48
334 63 380T105 458T171 506T254 523Q350 523 404 461T459 276V239Q459 177 444 130T402 52T336 4T253 -12ZM254 595Q222 595 195 606T149 637T118 683T105 742H171Q177 702 198 685T254 667Q289 667 309 684T336 742H403Q402 710 391 684T360 637T314 606T254
595Z" />
<glyph unicode="&#x150;" glyph-name="Ohungarumlaut" horiz-adv-x="636" d="M241 886H325L275 750H208L241 886ZM392 886H476L426 750H359L392 886ZM318 60Q407 60 449 128T491 327V353Q491 491 452 561T315 632Q228 633 186 564T143 366V340Q143 202 182 131T318
60ZM316 -12Q255 -12 206 9T123 73T69 181T50 334V359Q50 444 69 509T123 617T208 683T319 705Q379 705 428 684T513 620T567 512T586 359V334Q586 248 567 184T512 76T427 10T316 -12Z" />
<glyph unicode="&#x151;" glyph-name="ohungarumlaut" horiz-adv-x="508" d="M191 766H275L207 597H140L191 766ZM342 766H426L358 597H291L342 766ZM255 54Q310 54 341 96T373 231V277Q373 329 364 364T338 419T300 448T253 457Q197 457 166 415T135 280V233Q135
181 144 147T170 92T208 63T255 54ZM253 -12Q157 -12 103 50T48 235V273Q48 334 63 380T105 458T171 506T254 523Q350 523 404 461T459 276V239Q459 177 444 130T402 52T336 4T253 -12Z" />
<glyph unicode="&#x152;" glyph-name="OE" horiz-adv-x="818" d="M358 0Q200 0 125 80T50 321V344Q50 519 124 605T351 692H751V619H485Q486 605 488 591Q489 579 490 565T491 540V475Q491 463 490 450T488 424Q486 410 485 396H686V323H485Q486 309 488 295Q489
283 490 269T491 244V152Q491 140 490 127T488 101Q486 87 485 73H752V0H358ZM408 72Q406 87 405 102Q403 115 403 129T402 157V536Q402 548 402 563T405 591Q406 606 408 621H349Q300 621 262 608T197 564T156 482T142 356V331Q142 249 158 199T203 120T275 82T369
72H408Z" />
<glyph unicode="&#x153;" glyph-name="oe" horiz-adv-x="799" d="M243 -12Q155 -12 102 50T48 235V273Q48 334 63 380T104 458T166 506T244 523Q315 523 354 496T413 415H421Q442 467 479 495T582 523Q630 523 662 506T715 457T744 383T753 290V238H456Q456 187
466 153T494 97T538 67T600 58Q645 58 675 67T736 93V28Q716 14 682 1T597 -12Q520 -12 480 17T419 98H411Q388 43 350 16T243 -12ZM252 54Q307 54 340 96T373 231V277Q373 329 363 364T337 419T298 448T250 457Q194 457 165 415T135 280V233Q135 181 144 147T168
92T205 63T252 54ZM574 457Q549 457 528 448T491 419T466 366T456 285Q472 288 499 292T555 296H671Q671 380 649 418T574 457Z" />
<glyph unicode="&#x154;" glyph-name="Racute" horiz-adv-x="569" d="M85 692H277Q384 692 438 641T492 495Q492 423 459 382T366 321V311Q374 300 383 286Q391 274 400 258T418 222L525 0H431L294 291H168Q169 276 171 261Q172 248 173 234T174 207V0H85V692ZM278
360Q341 360 371 393T402 492Q402 556 374 588T278 620H168Q169 605 171 591Q172 579 173 565T174 540V440Q174 428 173 414T171 388Q169 374 168 360H278ZM305 750H235L286 886H380L305 750Z" />
<glyph unicode="&#x155;" glyph-name="racute" horiz-adv-x="358" d="M73 513H149V438H159Q191 476 232 497T326 519V436Q302 437 278 434T231 424T190 408T158 389V0H73V513ZM487 766H581L486 597H416L487 766Z" />
<glyph unicode="&#x156;" glyph-name="Rcommaaccent" horiz-adv-x="569" d="M85 692H277Q384 692 438 641T492 495Q492 423 459 382T366 321V311Q374 300 383 286Q391 274 400 258T418 222L525 0H431L294 291H168Q169 276 171 261Q172 248 173 234T174 207V0H85V692ZM278
360Q341 360 371 393T402 492Q402 556 374 588T278 620H168Q169 605 171 591Q172 579 173 565T174 540V440Q174 428 173 414T171 388Q169 374 168 360H278ZM227 -204Q238 -173 241 -141T245 -71H333Q333 -111 321 -144T289 -204H227V-204Z" />
<glyph unicode="&#x157;" glyph-name="rcommaaccent" horiz-adv-x="358" d="M73 513H149V438H159Q191 476 232 497T326 519V436Q302 437 278 434T231 424T190 408T158 389V0H73V513ZM308 -204Q319 -173 322 -141T326 -71H414Q414 -111 402 -144T370 -204H308V-204Z" />
<glyph unicode="&#x158;" glyph-name="Rcaron" horiz-adv-x="569" d="M330 750H217L124 879H197L212 864Q221 854 231 842T250 818Q260 805 270 791H278Q287 804 297 817Q305 828 315 840T336 864L352 879H425L330 750ZM85 692H277Q384 692 438 641T492 495Q492
423 459 382T366 321V311Q374 300 383 286Q391 274 400 258T418 222L525 0H431L294 291H168Q169 276 171 261Q172 248 173 234T174 207V0H85V692ZM278 360Q341 360 371 393T402 492Q402 556 374 588T278 620H168Q169 605 171 591Q172 579 173 565T174 540V440Q174
428 173 414T171 388Q169 374 168 360H278Z" />
<glyph unicode="&#x159;" glyph-name="rcaron" horiz-adv-x="358" d="M308 749H381L412 712Q420 702 428 689T444 665Q452 652 460 638H468Q476 652 484 665Q491 676 499 689T516 712L547 749H620L520 597H407L308 749ZM73 513H149V438H159Q191 476 232 497T326
519V436Q302 437 278 434T231 424T190 408T158 389V0H73V513Z" />
<glyph unicode="&#x15a;" glyph-name="Sacute" horiz-adv-x="499" d="M235 -12Q181 -12 138 -1T63 26V99Q100 83 142 74T232 65Q298 65 328 92T358 176Q358 202 352 221T333 254T301 280T254 304L195 330Q133 358 100 403T66 520Q66 558 78 592T114 651T177 690T269
705Q317 705 355 694T418 667V592Q391 607 355 618T270 629Q213 629 182 603T151 526Q151 481 173 455T243 406L303 380Q333 366 360 351T406 313T437 260T449 186Q449 141 437 105T398 42T332 2T235 -12ZM286 750H216L267 886H361L286 750Z" />
<glyph unicode="&#x15b;" glyph-name="sacute" horiz-adv-x="398" d="M183 -12Q144 -12 108 -4T46 18V88Q75 74 106 66T185 57Q231 57 254 77T277 135Q277 168 262 186T206 218L153 234Q104 248 75 281T46 377Q46 440 85 481T205 523Q246 523 278 517T332 499V430Q313
441 281 448T210 456Q124 456 124 386Q124 348 141 333T187 308L240 292Q303 273 331 240T360 143Q360 69 316 29T183 -12ZM483 766H577L482 597H412L483 766Z" />
<glyph unicode="&#x15c;" glyph-name="Scircumflex" horiz-adv-x="499" d="M200 879H313L406 750H333L318 765Q309 775 299 787T280 811Q269 824 260 838H252Q243 825 233 812Q225 801 215 788T194 765L178 750H105L200 879ZM235 -12Q181 -12 138 -1T63 26V99Q100
83 142 74T232 65Q298 65 328 92T358 176Q358 202 352 221T333 254T301 280T254 304L195 330Q133 358 100 403T66 520Q66 558 78 592T114 651T177 690T269 705Q317 705 355 694T418 667V592Q391 607 355 618T270 629Q213 629 182 603T151 526Q151 481 173 455T243
406L303 380Q333 366 360 351T406 313T437 260T449 186Q449 141 437 105T398 42T332 2T235 -12Z" />
<glyph unicode="&#x15d;" glyph-name="scircumflex" horiz-adv-x="398" d="M183 -12Q144 -12 108 -4T46 18V88Q75 74 106 66T185 57Q231 57 254 77T277 135Q277 168 262 186T206 218L153 234Q104 248 75 281T46 377Q46 440 85 481T205 523Q246 523 278 517T332
499V430Q313 441 281 448T210 456Q124 456 124 386Q124 348 141 333T187 308L240 292Q303 273 331 240T360 143Q360 69 316 29T183 -12ZM405 749H518L617 597H544L513 634Q505 644 497 657T481 681Q473 694 465 708H457Q449 694 441 681Q434 670 426 657T409 634L378
597H305L405 749Z" />
<glyph unicode="&#x15e;" glyph-name="Scedilla" horiz-adv-x="499" d="M146 -179Q166 -143 183 -98T205 -11Q161 -8 126 2T63 26V99Q100 83 142 74T232 65Q298 65 328 92T358 176Q358 202 352 221T333 254T301 280T254 304L195 330Q133 358 100 403T66 520Q66
558 78 592T114 651T177 690T269 705Q317 705 355 694T418 667V592Q391 607 355 618T270 629Q213 629 182 603T151 526Q151 481 173 455T243 406L303 380Q333 366 360 351T406 313T437 260T449 186Q449 103 406 51T268 -10Q267 -55 258 -101T231 -179H146V-179Z"
/>
<glyph unicode="&#x15f;" glyph-name="scedilla" horiz-adv-x="398" d="M107 -179Q127 -143 143 -98T165 -11Q131 -9 100 -2T46 18V88Q75 74 106 66T185 57Q231 57 254 77T277 135Q277 168 262 186T206 218L153 234Q104 248 75 281T46 377Q46 440 85 481T205 523Q246
523 278 517T332 499V430Q313 441 281 448T210 456Q124 456 124 386Q124 348 141 333T187 308L240 292Q303 273 331 240T360 143Q360 80 327 41T229 -8Q228 -53 220 -100T192 -179H107V-179Z" />
<glyph unicode="&#x160;" glyph-name="Scaron" horiz-adv-x="499" d="M235 -12Q181 -12 138 -1T63 26V99Q100 83 142 74T232 65Q298 65 328 92T358 176Q358 202 352 221T333 254T301 280T254 304L195 330Q133 358 100 403T66 520Q66 558 78 592T114 651T177 690T269
705Q317 705 355 694T418 667V592Q391 607 355 618T270 629Q213 629 182 603T151 526Q151 481 173 455T243 406L303 380Q333 366 360 351T406 313T437 260T449 186Q449 141 437 105T398 42T332 2T235 -12ZM310 750H197L104 879H177L192 864Q201 854 211 842T230
818Q240 805 250 791H258Q267 804 277 817Q285 828 295 840T316 864L332 879H405L310 750Z" />
<glyph unicode="&#x161;" glyph-name="scaron" horiz-adv-x="398" d="M183 -12Q144 -12 108 -4T46 18V88Q75 74 106 66T185 57Q231 57 254 77T277 135Q277 168 262 186T206 218L153 234Q104 248 75 281T46 377Q46 440 85 481T205 523Q246 523 278 517T332 499V430Q313
441 281 448T210 456Q124 456 124 386Q124 348 141 333T187 308L240 292Q303 273 331 240T360 143Q360 69 316 29T183 -12ZM305 749H378L409 712Q417 702 425 689T441 665Q449 652 457 638H465Q473 652 481 665Q488 676 496 689T513 712L544 749H617L517 597H404L305
749Z" />
<glyph unicode="&#x162;" glyph-name="Tcommaaccent" horiz-adv-x="527" d="M218 524Q218 538 218 554T221 585Q222 602 224 619H37V692H489V619H302Q303 602 305 585Q306 571 307 555T308 524V0H218V524ZM204 -204Q215 -173 218 -141T222 -71H310Q310 -111 298
-144T266 -204H204V-204Z" />
<glyph unicode="&#x163;" glyph-name="tcommaaccent" horiz-adv-x="352" d="M231 -7Q165 -7 133 24T101 122V364Q101 372 101 382T103 402Q104 413 106 423H28V490H106Q104 500 103 511Q102 520 102 530T101 549V653H186V549Q186 541 185 531T183 511Q182 500
181 490H310V423H181Q182 413 183 402Q184 393 185 383T186 364V132Q186 92 199 77T254 62Q271 62 289 65T320 73V13Q306 6 282 0T231 -7ZM399 -204Q410 -173 413 -141T417 -71H505Q505 -111 493 -144T461 -204H399V-204Z" />
<glyph unicode="&#x164;" glyph-name="Tcaron" horiz-adv-x="527" d="M320 750H207L114 879H187L202 864Q211 854 221 842T240 818Q250 805 260 791H268Q277 804 287 817Q295 828 305 840T326 864L342 879H415L320 750ZM218 524Q218 538 218 554T221 585Q222 602
224 619H37V692H489V619H302Q303 602 305 585Q306 571 307 555T308 524V0H218V524Z" />
<glyph unicode="&#x165;" glyph-name="tcaron" horiz-adv-x="362" d="M231 -7Q165 -7 133 24T101 122V364Q101 372 101 382T103 402Q104 413 106 423H28V490H106Q104 500 103 511Q102 520 102 530T101 549V653H186V549Q186 541 185 531T183 511Q182 500 181 490H310V423H181Q182
413 183 402Q184 393 185 383T186 364V132Q186 92 199 77T254 62Q271 62 289 65T320 73V13Q306 6 282 0T231 -7ZM295 739H382L342 559H279L295 739Z" />
<glyph unicode="&#x166;" glyph-name="Tbar" horiz-adv-x="527" d="M219 524Q219 538 219 554T221 585Q222 602 224 619H37V692H489V619H302Q303 602 304 585Q305 571 306 555T307 524V497Q307 482 306 465T302 432H453V368H303Q305 352 306 335T308 303V0H218V303Q218
317 219 334T222 368H71V432H223Q221 447 220 464T219 497V524V524Z" />
<glyph unicode="&#x167;" glyph-name="tbar" horiz-adv-x="352" d="M101 368Q101 376 101 386T103 404Q104 414 106 423H28V490H106Q104 500 103 511Q102 520 102 530T101 549V653H186V549Q186 541 185 531T183 511Q182 500 181 490H310V423H181Q182 414 183 404Q184
396 185 386T186 368Q186 360 185 350T183 332Q182 322 181 312H310V251H181Q182 241 183 230Q184 221 185 211T186 192V132Q186 92 199 77T254 62Q271 62 289 65T320 73V13Q306 6 282 0T231 -7Q165 -7 133 24T101 122V192Q101 200 101 210T103 230Q104 241 106
251H28V312H106Q104 322 103 332Q102 340 102 350T101 368Z" />
<glyph unicode="&#x168;" glyph-name="Utilde" horiz-adv-x="619" d="M156 751Q160 810 188 842T253 874Q272 874 288 867T320 850T348 834T375 826Q393 826 401 842T415 881H470Q466 822 441 789T379 756Q360 756 343 763T311 779T283 795T256 802Q238 802 227
788T211 751H156V751ZM312 -13Q194 -13 138 48T82 219V692H170V226Q170 176 181 143T211 91T257 65T316 57Q345 57 370 65T414 93T443 145T454 227V692H536V226Q536 111 480 49T312 -13Z" />
<glyph unicode="&#x169;" glyph-name="utilde" horiz-adv-x="513" d="M101 612Q105 671 133 703T198 735Q217 735 233 728T265 711T293 695T320 687Q338 687 346 703T360 742H415Q411 683 386 650T324 617Q305 617 288 624T256 640T228 656T201 663Q183 663 172
649T156 612H101V612ZM197 -10Q137 -10 104 26T70 138V513H155V154Q155 105 170 84T229 63Q267 63 298 78T354 108V513H439V0H374L364 61H355Q324 32 286 11T197 -10Z" />
<glyph unicode="&#x16a;" glyph-name="Umacron" horiz-adv-x="619" d="M312 -13Q194 -13 138 48T82 219V692H170V226Q170 176 181 143T211 91T257 65T316 57Q345 57 370 65T414 93T443 145T454 227V692H536V226Q536 111 480 49T312 -13ZM179 837H449V774H179V837Z" />
<glyph unicode="&#x16b;" glyph-name="umacron" horiz-adv-x="513" d="M197 -10Q137 -10 104 26T70 138V513H155V154Q155 105 170 84T229 63Q267 63 298 78T354 108V513H439V0H374L364 61H355Q324 32 286 11T197 -10ZM124 697H394V634H124V697Z" />
<glyph unicode="&#x16c;" glyph-name="Ubreve" horiz-adv-x="619" d="M312 -13Q194 -13 138 48T82 219V692H170V226Q170 176 181 143T211 91T257 65T316 57Q345 57 370 65T414 93T443 145T454 227V692H536V226Q536 111 480 49T312 -13ZM314 745Q281 745 255 756T210
785T181 827T169 879H235Q243 850 262 834T314 817Q347 817 365 833T392 879H459Q458 852 448 828T419 785T374 756T314 745Z" />
<glyph unicode="&#x16d;" glyph-name="ubreve" horiz-adv-x="513" d="M197 -10Q137 -10 104 26T70 138V513H155V154Q155 105 170 84T229 63Q267 63 298 78T354 108V513H439V0H374L364 61H355Q324 32 286 11T197 -10ZM258 595Q226 595 199 606T153 637T122 683T109
742H175Q181 702 202 685T258 667Q293 667 313 684T340 742H407Q406 710 395 684T364 637T318 606T258 595Z" />
<glyph unicode="&#x16e;" glyph-name="Uring" horiz-adv-x="619" d="M313 770Q340 770 357 787T374 832Q374 859 357 876T313 894Q286 894 269 877T252 832Q252 804 269 787T313 770ZM313 727Q289 727 269 735T235 758T212 791T203 832Q203 853 211 872T234 906T269
928T313 937Q337 937 357 929T391 906T414 873T423 832Q423 811 415 792T392 758T357 736T313 727ZM312 -13Q194 -13 138 48T82 219V692H170V226Q170 176 181 143T211 91T257 65T316 57Q345 57 370 65T414 93T443 145T454 227V692H536V226Q536 111 480 49T312 -13Z"
/>
<glyph unicode="&#x16f;" glyph-name="uring" horiz-adv-x="513" d="M197 -10Q137 -10 104 26T70 138V513H155V154Q155 105 170 84T229 63Q267 63 298 78T354 108V513H439V0H374L364 61H355Q324 32 286 11T197 -10ZM259 630Q286 630 303 647T320 692Q320 719 303
736T259 754Q232 754 215 737T198 692Q198 664 215 647T259 630ZM259 587Q235 587 215 595T181 618T158 651T149 692Q149 713 157 732T180 766T215 788T259 797Q283 797 303 789T337 766T360 733T369 692Q369 671 361 652T338 618T303 596T259 587Z" />
<glyph unicode="&#x170;" glyph-name="Uhungarumlaut" horiz-adv-x="619" d="M235 886H319L269 750H202L235 886ZM386 886H470L420 750H353L386 886ZM312 -13Q194 -13 138 48T82 219V692H170V226Q170 176 181 143T211 91T257 65T316 57Q345 57 370 65T414 93T443
145T454 227V692H536V226Q536 111 480 49T312 -13Z" />
<glyph unicode="&#x171;" glyph-name="uhungarumlaut" horiz-adv-x="513" d="M196 766H280L212 597H145L196 766ZM347 766H431L363 597H296L347 766ZM197 -10Q137 -10 104 26T70 138V513H155V154Q155 105 170 84T229 63Q267 63 298 78T354 108V513H439V0H374L364
61H355Q324 32 286 11T197 -10Z" />
<glyph unicode="&#x172;" glyph-name="Uogonek" horiz-adv-x="619" d="M344 -170Q305 -170 280 -152T255 -99Q255 -69 273 -50T313 -16V-7Q253 -9 209 5T137 49T96 122T82 219V692H170V226Q170 176 181 143T211 91T257 65T316 57Q345 57 370 65T414 93T443 145T454
227V692H536V226Q536 146 509 92T430 12Q414 4 397 -4T367 -23T344 -47T335 -77Q335 -94 345 -102T373 -110Q383 -110 389 -110T405 -108V-159Q394 -164 380 -167T344 -170Z" />
<glyph unicode="&#x173;" glyph-name="uogonek" horiz-adv-x="513" d="M393 -170Q354 -170 329 -152T304 -99Q304 -81 310 -67T327 -41T350 -20T375 -4L364 61H355Q324 32 286 11T197 -10Q137 -10 104 26T70 138V513H155V154Q155 105 170 84T229 63Q267 63 298
78T354 108V513H439V0Q415 -18 400 -37T384 -77Q384 -94 394 -102T422 -110Q432 -110 438 -110T454 -108V-159Q443 -164 429 -167T393 -170Z" />
<glyph unicode="&#x174;" glyph-name="Wcircumflex" horiz-adv-x="788" d="M28 692H120L194 306Q200 271 205 230T214 153Q218 111 222 69H231Q236 111 242 153Q247 189 253 230T266 306L345 692H447L528 306Q535 271 541 230T552 153Q557 111 561 69H571Q575
111 580 153Q584 189 589 230T602 306L677 692H760L620 0H505L428 382Q421 416 416 455T407 530Q403 570 398 610H389Q385 570 380 530Q375 495 370 456T358 382L282 0H167L28 692ZM339 879H452L545 750H472L457 765Q448 775 438 787T419 811Q408 824 399 838H391Q382
825 372 812Q364 801 354 788T333 765L317 750H244L339 879Z" />
<glyph unicode="&#x175;" glyph-name="wcircumflex" horiz-adv-x="703" d="M35 513H123L177 237Q181 215 185 186T194 128Q198 95 202 61H212Q217 95 223 128Q228 156 234 185T245 237L311 513H405L464 237Q468 215 472 185T482 127Q487 94 492 61H502Q507 94
512 127Q517 155 521 185T531 237L592 513H669L550 0H443L391 241Q386 265 381 297T370 358Q365 392 359 428H349Q343 392 337 358Q332 329 326 297T314 241L257 0H151L35 513ZM298 749H411L510 597H437L406 634Q398 644 390 657T374 681Q366 694 358 708H350Q342
694 334 681Q327 670 319 657T302 634L271 597H198L298 749Z" />
<glyph unicode="&#x176;" glyph-name="Ycircumflex" horiz-adv-x="535" d="M226 266L25 692H121L205 507Q217 480 228 448T249 387Q260 354 270 321H280Q289 354 300 387Q309 415 320 447T342 507L422 692H511L316 267V0H226V266ZM219 879H332L425 750H352L337
765Q328 775 318 787T299 811Q288 824 279 838H271Q262 825 252 812Q244 801 234 788T213 765L197 750H124L219 879Z" />
<glyph unicode="&#x177;" glyph-name="ycircumflex" horiz-adv-x="466" d="M111 -171Q92 -171 74 -167T46 -158V-96Q56 -98 69 -102T98 -106Q133 -106 156 -88T194 -21L203 6L25 513H116L200 255Q208 229 215 197T227 138Q233 105 238 74H248Q254 106 260 138Q265
165 272 196T288 255L366 513H450L270 -32Q257 -71 242 -98T207 -141T164 -164T111 -171ZM189 749H302L401 597H328L297 634Q289 644 281 657T265 681Q257 694 249 708H241Q233 694 225 681Q218 670 210 657T193 634L162 597H89L189 749Z" />
<glyph unicode="&#x178;" glyph-name="Ydieresis" horiz-adv-x="535" d="M139 852H228V762H139V852ZM322 852H411V762H322V852ZM226 266L25 692H121L205 507Q217 480 228 448T249 387Q260 354 270 321H280Q289 354 300 387Q309 415 320 447T342 507L422 692H511L316
267V0H226V266Z" />
<glyph unicode="&#x179;" glyph-name="Zacute" horiz-adv-x="523" d="M45 67L305 509Q314 525 326 542T350 574Q363 591 377 608V619H70V692H472V625L212 183Q202 166 190 149T167 117Q154 100 140 84V73H462V0H46L45 67ZM301 750H231L282 886H376L301 750Z" />
<glyph unicode="&#x17a;" glyph-name="zacute" horiz-adv-x="429" d="M42 65L229 353Q242 373 254 387T276 413Q287 425 298 435V445H55V513H389V451L209 176Q194 153 180 135T155 104Q142 89 131 77V67H388V0H42V65ZM504 766H598L503 597H433L504 766Z" />
<glyph unicode="&#x17b;" glyph-name="Zdotaccent" horiz-adv-x="523" d="M222 852H319V762H222V852ZM45 67L305 509Q314 525 326 542T350 574Q363 591 377 608V619H70V692H472V625L212 183Q202 166 190 149T167 117Q154 100 140 84V73H462V0H46L45 67Z" />
<glyph unicode="&#x17c;" glyph-name="zdotaccent" horiz-adv-x="429" d="M42 65L229 353Q242 373 254 387T276 413Q287 425 298 435V445H55V513H389V451L209 176Q194 153 180 135T155 104Q142 89 131 77V67H388V0H42V65ZM176 708H273V618H176V708Z" />
<glyph unicode="&#x17d;" glyph-name="Zcaron" horiz-adv-x="523" d="M45 67L305 509Q314 525 326 542T350 574Q363 591 377 608V619H70V692H472V625L212 183Q202 166 190 149T167 117Q154 100 140 84V73H462V0H46L45 67ZM326 750H213L120 879H193L208 864Q217
854 227 842T246 818Q256 805 266 791H274Q283 804 293 817Q301 828 311 840T332 864L348 879H421L326 750Z" />
<glyph unicode="&#x17e;" glyph-name="zcaron" horiz-adv-x="429" d="M42 65L229 353Q242 373 254 387T276 413Q287 425 298 435V445H55V513H389V451L209 176Q194 153 180 135T155 104Q142 89 131 77V67H388V0H42V65ZM69 749H142L173 712Q181 702 189 689T205
665Q213 652 221 638H229Q237 652 245 665Q252 676 260 689T277 712L308 749H381L281 597H168L69 749Z" />
<glyph unicode="&#x192;" glyph-name="florin" horiz-adv-x="440" d="M53 412H153Q153 427 154 444T158 479L166 530Q173 578 189 611T227 665T276 695T334 705Q363 705 380 701T409 691V628Q396 631 383 632T353 634Q312 634 286 608T249 510L244 479Q242 463
238 445T228 412H363V345H219Q219 331 218 316T215 286L151 -129H63L128 286Q130 300 133 315T141 345H53V412Z" />
<glyph unicode="&#x1fa;" glyph-name="Aringacute" horiz-adv-x="571" d="M229 666Q204 680 190 704T175 757Q175 778 183 797T206 831T241 853T285 862Q309 862 329 854T363 831T386 798T395 757Q395 728 381 705T343 667L551 0H456L426 98Q419 119 414 145T404
192H160Q155 172 149 147T137 99L107 0H20L229 666ZM209 340Q204 321 196 300T181 261H384Q377 278 369 299T356 341L323 459Q315 484 309 512T298 564Q293 592 288 619H278Q273 592 268 564Q263 540 257 512T243 459L209 340ZM285 695Q312 695 329 712T346 757Q346
784 329 801T285 819Q258 819 241 802T224 757Q224 729 241 712T285 695ZM316 900H246L297 1036H391L316 900Z" />
<glyph unicode="&#x1fb;" glyph-name="aringacute" horiz-adv-x="466" d="M183 -12Q120 -12 81 25T42 135Q42 270 212 285L311 293V354Q311 410 282 431T195 452Q161 452 132 447T81 434V495Q109 506 144 514T224 523Q306 523 351 487T396 371V0H334L323 56H314Q295
32 264 10T183 -12ZM208 49Q237 49 266 63T313 94V241L232 236Q181 233 154 209T127 139Q127 92 147 71T208 49ZM233 860Q260 860 277 877T294 922Q294 949 277 966T233 984Q206 984 189 967T172 922Q172 894 189 877T233 860ZM233 817Q209 817 189 825T155 848T132
881T123 922Q123 943 131 962T154 996T189 1018T233 1027Q257 1027 277 1019T311 996T334 963T343 922Q343 901 335 882T312 848T277 826T233 817ZM265 810H195L246 946H340L265 810Z" />
<glyph unicode="&#x1fc;" glyph-name="AEacute" horiz-adv-x="831" d="M364 692H764V619H488Q489 605 491 591Q492 579 493 565T494 540V475Q494 463 493 450T491 424Q489 410 488 396H699V323H488Q489 309 491 295Q492 283 493 269T494 244V152Q494 140 493 127T491
101Q489 87 488 73H765V0H405V192H191Q185 173 177 150T156 102L105 0H15L364 692ZM272 340Q261 318 248 298T224 261H405V442Q405 479 405 514T408 578Q409 611 411 639H401Q393 612 382 582Q373 556 360 524T331 459L272 340ZM581 750H511L562 886H656L581 750Z"
/>
<glyph unicode="&#x1fd;" glyph-name="aeacute" horiz-adv-x="729" d="M183 -12Q120 -12 81 25T42 135Q42 202 82 239T208 285L312 293V354Q312 410 281 431T194 452Q160 452 131 447T80 434V495Q108 506 143 514T223 523Q337 523 360 435H369Q388 477 419 500T502
523Q553 523 588 506T644 457T674 383T683 290V238H390Q390 187 399 153T427 97T471 67T530 58Q575 58 605 67T666 93V28Q646 14 610 1T517 -12Q397 -12 356 79H347Q336 65 321 50T286 20T240 -3T183 -12ZM208 49Q247 49 276 68T330 112Q322 137 317 167T311 243L228
236Q127 227 127 139Q127 92 147 71T208 49ZM390 285Q407 288 434 292T491 296H601Q601 380 578 418T501 457Q476 457 456 448T422 419T399 366T390 285ZM398 766H492L397 597H327L398 766Z" />
<glyph unicode="&#x1fe;" glyph-name="Oslashacute" horiz-adv-x="636" d="M125 -73Q134 -48 148 -19T172 27Q114 65 82 141T50 334V359Q50 444 69 509T123 617T208 683T319 705Q366 705 408 691Q410 704 413 718T421 744L434 781H513L500 744Q495 725 483 703T461
666Q520 628 553 552T586 359V334Q586 248 567 184T512 76T427 10T316 -12Q291 -12 269 -9T225 1Q221 -16 216 -36T205 -74L189 -117H109L125 -73ZM356 556Q362 573 371 593T389 630Q360 637 315 637Q227 637 185 566T142 366V320Q142 225 152 170T193 88Q198 106
204 125T215 159L356 556ZM318 55Q407 55 450 126T493 327V373Q493 470 482 524T440 605Q435 589 431 573T421 542L279 146Q271 126 262 103T244 62Q272 55 318 55ZM341 750H271L322 886H416L341 750Z" />
<glyph unicode="&#x1ff;" glyph-name="oslashacute" horiz-adv-x="508" d="M88 -73Q99 -48 112 -22T136 21Q94 50 71 103T48 235V273Q48 334 63 380T105 458T171 506T254 523Q291 523 326 512Q328 526 333 545T345 581L355 608H430L420 581Q416 571 410 559T397
535T383 511T370 490Q413 461 436 408T459 276V239Q459 177 444 130T402 52T336 4T253 -12Q217 -12 187 -3Q182 -20 177 -38T164 -74L148 -110H72L88 -73ZM275 393Q280 407 287 424T303 456Q282 462 253 462Q197 462 166 417T135 280V223Q135 170 141 137T161 84Q168
105 176 132T195 185L275 393ZM255 50Q310 50 341 93T373 231V287Q373 340 367 373T347 426Q343 412 339 399T330 373L246 146Q238 124 225 98T204 55Q215 52 227 51T255 50ZM276 766H370L275 597H205L276 766Z" />
<glyph unicode="&#x218;" glyph-name="Scommaaccent" horiz-adv-x="499" d="M235 -12Q181 -12 138 -1T63 26V99Q100 83 142 74T232 65Q298 65 328 92T358 176Q358 202 352 221T333 254T301 280T254 304L195 330Q133 358 100 403T66 520Q66 558 78 592T114 651T177
690T269 705Q317 705 355 694T418 667V592Q391 607 355 618T270 629Q213 629 182 603T151 526Q151 481 173 455T243 406L303 380Q333 366 360 351T406 313T437 260T449 186Q449 141 437 105T398 42T332 2T235 -12ZM197 -204Q208 -173 211 -141T215 -71H303Q303
-111 291 -144T259 -204H197V-204Z" />
<glyph unicode="&#x219;" glyph-name="scommaaccent" horiz-adv-x="398" d="M183 -12Q144 -12 108 -4T46 18V88Q75 74 106 66T185 57Q231 57 254 77T277 135Q277 168 262 186T206 218L153 234Q104 248 75 281T46 377Q46 440 85 481T205 523Q246 523 278 517T332
499V430Q313 441 281 448T210 456Q124 456 124 386Q124 348 141 333T187 308L240 292Q303 273 331 240T360 143Q360 69 316 29T183 -12ZM392 -204Q403 -173 406 -141T410 -71H498Q498 -111 486 -144T454 -204H392V-204Z" />
<glyph unicode="&#x21a;" glyph-name="uni021A" horiz-adv-x="527" d="M218 524Q218 538 218 554T221 585Q222 602 224 619H37V692H489V619H302Q303 602 305 585Q306 571 307 555T308 524V0H218V524ZM204 -204Q215 -173 218 -141T222 -71H310Q310 -111 298 -144T266
-204H204V-204Z" />
<glyph unicode="&#x21b;" glyph-name="uni021B" horiz-adv-x="352" d="M231 -7Q165 -7 133 24T101 122V364Q101 372 101 382T103 402Q104 413 106 423H28V490H106Q104 500 103 511Q102 520 102 530T101 549V653H186V549Q186 541 185 531T183 511Q182 500 181 490H310V423H181Q182
413 183 402Q184 393 185 383T186 364V132Q186 92 199 77T254 62Q271 62 289 65T320 73V13Q306 6 282 0T231 -7ZM399 -204Q410 -173 413 -141T417 -71H505Q505 -111 493 -144T461 -204H399V-204Z" />
<glyph unicode="&#x237;" glyph-name="uni0237" horiz-adv-x="253" d="M43 -170Q16 -170 -3 -167T-40 -155V-96Q-26 -98 -12 -99T15 -100Q31 -100 44 -97T66 -83T79 -55T84 -9V513H169V-19Q169 -86 140 -128T43 -170Z" />
<glyph unicode="&#x2c6;" glyph-name="circumflex" horiz-adv-x="450" d="M169 749H282L381 597H308L277 634Q269 644 261 657T245 681Q237 694 229 708H221Q213 694 205 681Q198 670 190 657T173 634L142 597H69L169 749Z" />
<glyph unicode="&#x2c7;" glyph-name="caron" horiz-adv-x="450" d="M69 749H142L173 712Q181 702 189 689T205 665Q213 652 221 638H229Q237 652 245 665Q252 676 260 689T277 712L308 749H381L281 597H168L69 749Z" />
<glyph unicode="&#x2d8;" glyph-name="breve" horiz-adv-x="450" d="M225 595Q193 595 166 606T120 637T89 683T76 742H142Q148 702 169 685T225 667Q260 667 280 684T307 742H374Q373 710 362 684T331 637T285 606T225 595Z" />
<glyph unicode="&#x2d9;" glyph-name="dotaccent" horiz-adv-x="450" d="M176 708H273V618H176V708Z" />
<glyph unicode="&#x2da;" glyph-name="ring" horiz-adv-x="450" d="M225 630Q252 630 269 647T286 692Q286 719 269 736T225 754Q198 754 181 737T164 692Q164 664 181 647T225 630ZM225 587Q201 587 181 595T147 618T124 651T115 692Q115 713 123 732T146 766T181
788T225 797Q249 797 269 789T303 766T326 733T335 692Q335 671 327 652T304 618T269 596T225 587Z" />
<glyph unicode="&#x2db;" glyph-name="ogonek" horiz-adv-x="450" d="M229 -170Q190 -170 165 -152T140 -99Q140 -80 147 -65T166 -38T191 -16T218 0H274Q251 -18 236 -37T220 -77Q220 -94 230 -102T258 -110Q268 -110 274 -110T290 -108V-159Q279 -164 265 -167T229
-170Z" />
<glyph unicode="&#x2dc;" glyph-name="tilde" horiz-adv-x="450" d="M68 612Q72 671 100 703T165 735Q184 735 200 728T232 711T260 695T287 687Q305 687 313 703T327 742H382Q378 683 353 650T291 617Q272 617 255 624T223 640T195 656T168 663Q150 663 139 649T123
612H68V612Z" />
<glyph unicode="&#x2dd;" glyph-name="hungarumlaut" horiz-adv-x="450" d="M154 766H238L170 597H103L154 766ZM305 766H389L321 597H254L305 766Z" />
<glyph unicode="&#x3bc;" glyph-name="mu" horiz-adv-x="517" d="M74 513H159V160Q159 111 174 90T233 69Q271 69 300 83T358 114V513H443V0H378L368 67H359Q330 36 300 18T238 0Q208 0 192 9T158 38H149Q151 17 154 -2Q156 -19 157 -38T159 -72V-164H74V513Z" />
</font>
</defs>
</svg>
