<svg xmlns="http://www.w3.org/2000/svg" width="538" height="214" viewBox="0 0 538 214">
    <g fill="none" fill-rule="evenodd" transform="translate(-6)">
        <circle cx="275" cy="275" r="275" fill="#FF6A56"/>
        <g fill="#F0DBBC">
            <path d="M102.667 162.8h14.667v165.733h-14.667zM124.667 127.6h14.667v165.733h-14.667zM146.667 162.8h14.667v165.733h-14.667zM168.667 58.667h14.667v206.8h-14.667zM190.667 181.867h14.667v206.8h-14.667zM212.667 162.8h14.667v206.8h-14.667zM234.667 149.6h14.667v206.8h-14.667zM256.667 86.534h14.667v206.8h-14.667zM278.667 165.734h14.667v206.8h-14.667zM300.667 121.734h14.667v206.8h-14.667zM322.667 137.867h14.667v206.8h-14.667zM344.667 86.534h14.667v206.8h-14.667zM366.667 162.8h14.667v206.8h-14.667zM388.667 127.6h14.667v206.8h-14.667zM410.667 101.2h14.667V308h-14.667zM432.667 162.8h14.667v206.8h-14.667z"/>
        </g>
    </g>
</svg>
