<svg width="538" height="214" xmlns="http://www.w3.org/2000/svg"><g fill-rule="nonzero" fill="none"><path d="M544 275.388C544 123.295 420.878 0 269 0S-6 123.295-6 275.388" fill="#FF6A56"/><g fill="#F0DBBC"><path d="M95.75 179.003h15.813v96.386H95.75zM117.75 144.579h15.813v130.809H117.75zM139.75 179.003h15.813v96.386H139.75zM161.75 75.732h15.813v199.656H161.75zM183.75 199.657h15.813v75.732H183.75zM205.75 179.003h15.813v96.386H205.75zM227.75 165.233h15.813v110.155H227.75zM249.75 103.27h15.813V275.39H249.75zM271.75 183.133h15.813v92.255H271.75zM293.75 137.694h15.813v137.694H293.75zM315.75 151.464h15.813v123.925H315.75zM337.75 103.27h15.813V275.39H337.75zM359.75 179.003h15.813v96.386H359.75zM381.75 144.579h15.813v130.809H381.75zM403.75 117.04h15.813v158.348H403.75zM425.75 183.133h15.813v92.255H425.75z"/></g></g></svg>