<svg xmlns="http://www.w3.org/2000/svg" width="1960" height="400" viewBox="0 0 1960 400"><g fill="#FADB00"><path d="M55.5 100.4l7-1.7V56H57l-2.7 11.3H41.2l.8-24h63l1 24H92.6L90 56h-5.3v42.7l7 1.7v11H55.4v-11zM107.5 101l5.2-1.4V52l-5.6-1.6V40l24-2.3 2 1v25h.4c4.7-3.7 9-6.4 16.7-6.4 7.7 0 13.5 3.7 13.5 12.8v29.6l4.7 1.4v10.3H140V101l3.3-1V77.4c0-3.5-1.6-4.8-5-4.8-2.2 0-3.7.5-5.4 1V100l3.3 1v10.3h-28.8V101zM169.7 85c0-17.5 10.6-27.6 27.3-27.6 16.5 0 24.6 7.5 24.6 31h-31c1 8.2 5.6 10.6 13.4 10.6 6.8 0 11.4-1.2 15-2.4v10.8c-3.8 2.6-10.2 5.3-20.7 5.3-18.5 0-28.6-9.7-28.6-27.8zm21-5.8l11.8-.5c0-7.6-2.5-9.5-5.6-9.5s-5.8 1.7-6.4 10zM239.5 85.3c0-18.5 12.3-28 27.8-28 18.2 0 27.8 10 27.8 27.3 0 18.5-12.2 28-27.7 28-18.2 0-27.8-10.5-27.8-27.3zm34.3 0c0-13-2.4-16-6.6-16-4.2 0-6.5 2.6-6.5 15.3 0 13 2.4 16 6.7 16 4.2-.2 6.4-3.2 6.4-15.3zM297 101l5-1.4v-28l-5.5-1.5V59.8l23.3-2.3 1.7.8v6h.6c5-4.2 10-7 17.4-7 7.6 0 13.4 3.8 13.4 13v29.4l4.7 1.4v10.3h-28.3V101l3.4-1V77.4c0-3.5-1.6-4.8-5-4.8-2.2 0-3.7.5-5.4 1V100l3.4 1v10.3h-28.8V101zM359.2 101l5.4-1.4V52l-6-1.6V40l24.5-2.2 1.8.8v61l5 1.5v10.4h-30.6V101zM398 129.8V117c2.2.5 3.7.7 5.3.7 3.7 0 6.8-1 8-4l1-3L395 70l-4-1.2V58.5h29.5v10.3l-4.3 1 7.7 21.4h.3L431 70l-4.3-1.2V58.5h23.5v10.3l-4 1.3-17.6 46.4c-3.8 10-9 15-20 15-3.8 0-8.4-.7-10.6-1.6zM472 97.4v-27h-5V61l7-2.7 2.4-12.2h16v12.4h10v12h-10V94c0 4.4 2.2 5.5 6 5.5 1.6 0 3.2-.3 4.5-.7v10.8c-2.6 1.5-7.3 2.8-13.3 2.8-11.2 0-17.6-3.5-17.6-15zM505.3 101l5.2-1.4V52l-5.6-1.6V40l24-2.3 1.7 1v25h.5c4.7-3.7 9-6.4 16.7-6.4 7.5 0 13.3 3.7 13.3 12.8v29.6l4.7 1.4v10.3h-28.3V101l3.4-1V77.4c0-3.5-1.5-4.8-5-4.8-2 0-3.6.5-5.3 1V100l3.4 1v10.3h-28.7V101zM567.6 101l5.2-1.4v-28l-5.7-1.5V59.8l24.2-2.3 1.8.8v41.5l4.8 1.4v10.4h-30.2V101zm3.8-55c0-6.2 5-9.7 11-9.7s11 3.5 11 9.6c0 6-5 9.5-11 9.5s-11-3.6-11-9.6zM599.4 101l5.2-1.4v-28l-5.6-1.5V59.8l23.3-2.3 1.7.8v6h.6c5-4.2 9.8-7 17.3-7s13.3 3.8 13.3 13v29.4l4.7 1.4v10.3h-28.3V101l3.4-1V77.4c0-3.5-1.5-4.8-5-4.8-2 0-3.6.5-5.3 1V100l3.4 1v10.3h-28.7V101zM660.2 119.4c0-6 5.4-9 11.3-10.4v-.5c-5-1.4-7.2-4.4-7.2-8.8s3.5-8.6 7.7-11.3c-5-2.6-8.2-7.2-8.2-13.2 0-11.5 9.6-17.7 24-17.7 4.5 0 8.2.6 11.4 1.6l17.2-2.4v11.6L710 68c1 2 1.7 4 1.7 6.2 0 11.5-9.2 17.8-24 17.8-2.4 0-4.6-.2-6.8-.6-.7.7-1 1.6-1 2.4 0 1 1 2.5 3.6 2.5h17c9.4 0 16.6 4.2 16.6 14.7 0 11-8.7 20.3-31.2 20.3-17 0-25.8-4.7-25.8-12zm38.4-4c0-2.5-1.4-3-5.6-3h-11.4c-1.7.6-2.8 1.7-2.8 3.7 0 2.5 2.3 4 8.7 4 8.3 0 11-2 11-4.6zM693 74.8c0-6.5-2.3-7.6-5.2-7.6-2.8 0-5 1.6-5 7.4 0 6 2.2 7.7 5 7.7s5.2-1.8 5.2-7.5zM738.6 97.4v-27h-5.2V61l7-2.7L743 46h16v12.4h10v12h-10V94c0 4.4 2 5.5 6 5.5 1.5 0 3-.3 4.4-.7v10.8c-2.5 1.5-7.2 2.8-13.2 2.8-11.3 0-17.6-3.5-17.6-15zM771.8 101l5.2-1.4V52l-5.6-1.6V40l24-2.3 1.8 1v25h.5c4.7-3.7 9-6.4 16.7-6.4 7.6 0 13.4 3.7 13.4 12.8v29.6l4.7 1.4v10.3h-28.3V101l3.4-1V77.4c0-3.5-1.6-4.8-5-4.8-2.2 0-3.7.5-5.4 1V100l3.4 1v10.3h-28.8V101zM833.7 98c0-10.5 7.4-14 20-16.2l8.2-1.6v-2c0-4.5-2.3-6.4-9.5-6.4-4.8 0-10 .4-13.6 1V61c5.2-2 13.5-3.7 23-3.7 13.8 0 20 5.8 20 17.7v22c0 2.3 1.6 3 3.3 3h1.4v9.8c-2 1.3-6.7 2.7-11.2 2.7-6 0-9.7-2-11.4-6.4h-.4c-2.6 3.6-7.7 6.5-14.4 6.5-9.5 0-15.5-6-15.5-14.4zm28.3 1.6V89l-3.2.2c-3.3.2-5 2-5 6 0 4.3 1.2 6 4.3 6 1.7 0 3.2-1 4-1.6zM893 97.4v-27h-5V61l7-2.7 2.4-12.2h16v12.4h10v12h-10V94c0 4.4 2.2 5.5 6 5.5 1.6 0 3.2-.3 4.5-.7v10.8c-2.6 1.5-7.3 2.8-13.3 2.8-11.2 0-17.6-3.5-17.6-15zM42.6 207.3l-1-14.5h12.8l1.8 5c1 .7 3.3 1.5 6 1.5 4 0 6-1.5 6-4 0-2.3-1.4-3-5.4-4L57 190c-10.2-2-15.6-6.8-15.6-16.5 0-10.8 7.4-18.3 24.7-18.3 6.8 0 13.8 1 18.3 3v14H72l-1-4.7c-1.2-.6-2.8-1.2-5.5-1.2-3.3 0-6 1-6 3.4s1.6 3.2 6.4 4.2l6.5 1.3c11 2.2 15.2 7.7 15.2 16 0 11.7-7.4 19.2-26 19.2-6 0-13.5-1-19-3.2zM89.6 199l5.2-1.4V150l-5.6-1.6V138l24-2.4 1.8 1v25h.5c4.7-3.7 9-6.4 16.7-6.4 7.6 0 13.4 3.7 13.4 12.8v29.5l4.7 1.4V209H122V199l3.4-1v-22.6c0-3.5-1.6-4.8-5-4.8-2.2 0-3.7.5-5.4 1V198l3.4 1v10.3H89.6V199zM152 183.3c0-18.5 12.2-28 27.7-28 18.2 0 27.8 10 27.8 27.3 0 18.5-12.3 28-27.8 28-18.2 0-27.8-10.5-27.8-27.3zm34.2 0c0-13-2.4-16-6.6-16-4.2 0-6.5 2.6-6.5 15.3 0 13 2.5 16 6.8 16 4.2-.2 6.4-3.2 6.4-15.3zM213.7 196v-26.4l-5-1.7v-10.5l23.5-2.2 1.7 1V190c0 3.6 1.2 5.2 4.8 5.2 2.5 0 4-.6 5.6-1.2v-24.5l-4.7-1.7v-10.4l23-2.2 2 1v39.7l5 1.5v10.3l-22.8 2.4-2-.8v-5.7h-.5c-3.3 3.5-8 6.7-15.5 6.7-11 0-15.3-5.2-15.3-14.3zM271.6 199l5.4-1.4V150l-6-1.6V138l24.5-2.3 1.7.8v61l5 1.5v10.3h-30.6V199zM304.3 184.2c0-21.7 11.5-29 25.3-29 4 0 6.3.8 8.3 1.7v-7l-5.8-1.5V138l24-2.3 2 .8V196l5 1.6V208l-21.5 2.3-1.7-.8v-5h-.6c-2.8 3.6-8.3 6-15 6-9.8 0-20-6.2-20-26.3zm33.7 11v-26c-1.2-1-2.4-1.6-4.8-1.6-4.6 0-7.5 2.5-7.5 14.5 0 11 2.5 14.4 7 14.4 2 0 3.8-.4 5.3-1.3zM380.8 199l5.2-1.4v-28l-5.7-1.5v-10.4l24-2.3 2 .8v41.6l4.7 1.4v10.3h-30.2V199zm3.8-55c0-6.2 5-9.7 11-9.7s11 3.5 11 9.6c0 6-5 9.5-11 9.5s-11-3.6-11-9.6zM412.6 199l5.2-1.4v-28l-5.6-1.5v-10.4l23.3-2.3 1.7.8v6h.6c5-4 9.8-6.8 17.3-6.8 7.7 0 13.5 3.7 13.5 12.8v29.5l4.7 1.4V209H445V199l3.4-1v-22.6c0-3.5-1.6-4.8-5-4.8-2.2 0-3.7.5-5.4 1V198l3.4 1v10.3h-28.8V199zM508 199l3.3-1v-48c-1.5-.4-3-.7-5-.7-4 0-6 1-6 5.2v2h7v12h-7V198l3.4 1v10.3H475V199l5.2-1.4v-29.3h-5.5V159l5.5-2.2v-4.4c0-12.6 9.7-16.6 20.8-16.6 5.5 0 11 1.2 14.3 2.2l14.6-2.3 1.6.8V198l5 1v10.3H508V199zM542.7 196v-26.4l-5-1.7v-10.5l23.5-2.2 1.7 1V190c0 3.6 1.2 5.2 4.8 5.2 2.5 0 4-.6 5.6-1.2v-24.5l-4.7-1.7v-10.4l23-2.2 2 1v39.7l5 1.5v10.3l-22.8 2.4-2-.8v-5.7h-.5c-3.3 3.5-8 6.7-15.5 6.7-11 0-15.3-5.2-15.3-14.3zM600.6 183c0-17.5 10.6-27.6 27.3-27.6 16.4 0 24.5 7.5 24.5 31h-31c1 8.2 5.6 10.6 13.4 10.6 6.7 0 11.3-1.2 15-2.4v10.8c-4 2.6-10.3 5.3-20.8 5.3-18.5 0-28.6-9.7-28.6-27.8zm21-5.8l11.8-.5c0-7.6-2.5-9.5-5.6-9.5s-5.7 1.7-6.3 10zM654.7 199l5.2-1.4v-28l-5.7-1.5v-10.4l23.3-2.3 1.7.8v6h.6c5-4 9.7-6.8 17.2-6.8 7.6 0 13.4 3.7 13.4 12.8v29.5l4.7 1.4V209H687V199l3.4-1v-22.6c0-3.5-1.6-4.8-5-4.8-2.2 0-3.7.5-5.4 1V198l3.4 1v10.3h-28.8V199zM717 183.3c0-19.2 11.6-28 29.8-28 7 0 13.7 1.2 16.8 2.3V175h-13l-1.2-7c-.7-.2-1.4-.6-3.3-.6-4.6 0-7.4 3.3-7.4 14.3 0 11.6 4.6 15 13.3 15 4.5 0 9-1 12-2v11c-3.2 2.3-9.5 5-18.6 5-19.5 0-28.4-10.5-28.4-27.4zM767 183c0-17.5 10.7-27.6 27.4-27.6 16.5 0 24.6 7.5 24.6 31h-31c1 8.2 5.6 10.6 13.4 10.6 6.8 0 11.4-1.2 15-2.4v10.8c-3.8 2.6-10.2 5.3-20.7 5.3-18.5 0-28.6-9.7-28.6-27.8zm21-5.8l12-.5c0-7.6-2.6-9.5-5.7-9.5s-5.7 1.7-6.3 10zM841.7 195.4v-27h-5.2V159l7-2.7L846 144h16v12.4h10v12h-10V192c0 4.4 2.2 5.5 6 5.5 1.6 0 3.2-.3 4.5-.7v10.8c-2.5 1.5-7.2 2.8-13.2 2.8-11.3 0-17.6-3.5-17.6-15zM875 199l5-1.4V150l-5.5-1.6V138l24-2.4 1.8 1v25h.5c4.7-3.7 9-6.4 16.7-6.4 7.6 0 13.4 3.7 13.4 12.8v29.5l4.6 1.4V209h-28.3V199l3.4-1v-22.6c0-3.5-1.6-4.8-5-4.8-2.2 0-3.7.5-5.4 1V198l3.4 1v10.3H875V199zM937 183c0-17.5 10.7-27.6 27.4-27.6 16.5 0 24.6 7.5 24.6 31h-31c1 8.2 5.6 10.6 13.4 10.6 6.8 0 11.4-1.2 15-2.4v10.8c-3.8 2.6-10.2 5.3-20.7 5.3-18.5 0-28.6-9.7-28.6-27.8zm21-5.8l12-.5c0-7.6-2.6-9.5-5.7-9.5s-5.6 1.7-6.3 10zM1007 199l5-1.4v-28l-5.5-1.5v-10.4l23.3-2.3 1.7.8v6h.6c5-4 10-6.8 17.4-6.8 7.6 0 13.4 3.7 13.4 12.8v29.5l4.7 1.4V209h-28.3V199l3.4-1v-22.6c0-3.5-1.6-4.8-5-4.8-2.2 0-3.7.5-5.4 1V198l3.4 1v10.3h-28.8V199zM1069.2 183c0-17.5 10.6-27.6 27.3-27.6 16.5 0 24.6 7.5 24.6 31h-31c1.2 8.2 5.7 10.6 13.5 10.6 6.8 0 11.4-1.2 15-2.4v10.8c-3.8 2.6-10.2 5.3-20.7 5.3-18.5 0-28.6-9.7-28.6-27.8zm21-5.8l11.8-.5c0-7.6-2.5-9.5-5.6-9.5-3 0-5.6 1.7-6.3 10zM1126.4 168l-3.7-1.2v-10.3h27.6v10.3l-3.8 1 4.4 18.2h.3l8.5-29.5h14l8.6 29.5h.4l4.3-18-3.5-1.2v-10.3h22.3v10.3l-3.7 1.3-12 41.4h-17.7l-7.8-27.4h-.3l-7.8 27.4h-17.8l-12.2-41.3zM1208.5 207.3l-1-14.5h12.8l1.8 5c1.2.7 3.4 1.5 6.2 1.5 3.8 0 6-1.5 6-4 0-2.3-1.5-3-5.5-4l-5.8-1.2c-10.3-2-15.7-6.7-15.7-16.4 0-10.8 7.4-18.3 24.7-18.3 6.7 0 13.7 1 18.2 3v14h-12.4l-1-4.7c-1-.6-2.7-1.2-5.4-1.2-3.3 0-6 1-6 3.4s1.6 3.2 6.4 4.2l6.6 1.4c11 2.2 15.2 7.7 15.2 16 0 11.7-7.4 19.2-26 19.2-6 0-13.5-1-19-3.3z"/></g><path d="M1021.4 158.7l5.2-1.4v-28l-5.7-1.5v-10.5l24-2.3 1.8.8v41.5l4.8 1.4V169h-30.2v-10.3zm4-55c0-6.2 5-9.7 11-9.7s11 3.5 11 9.6c0 6-5 9.6-11 9.6s-11-3.6-11-9.6zM1054.5 167l-1-14.5h12.8l1.8 5c1.2.7 3.4 1.5 6.2 1.5 3.8 0 6-1.5 6-4 0-2.3-1.5-3-5.5-4l-5.8-1.2c-10.3-2-15.7-6.8-15.7-16.5 0-10.8 7.4-18.3 24.7-18.3 6.7 0 13.7 1 18.2 3v14h-12.4l-1-4.7c-1-.6-2.7-1.2-5.4-1.2-3.3 0-6 1-6 3.5 0 2.4 1.6 3.2 6.4 4.2l6.6 1.4c11 2.3 15.2 7.8 15.2 16 0 11.8-7.4 19.3-26 19.3-6 0-13.6-1-19-3.3zM894 246v-27h-5.3v-9.3l7-2.7 2.5-12.2h16V207h10v12h-10v23.8c0 4.3 2.2 5.4 6 5.4 1.6 0 3.2-.3 4.5-.7v10.8c-2.5 1.5-7.2 2.8-13.2 2.8-11.3 0-17.6-3.5-17.6-15zM927 249.7l5.3-1.4v-47.6l-5.6-1.6v-10.3l24-2.4 1.8 1v25h.5c4.7-3.7 9-6.4 16.7-6.4 7.6 0 13.4 3.6 13.4 12.7v29.5l4.8 1.4V260h-28.3v-10.3l3.4-1V226c0-3.4-1.7-4.7-5-4.7-2.3 0-3.8.5-5.5 1V249l3.4 1V260h-29v-10.3zM989.3 233.5c0-17.4 10.6-27.5 27.3-27.5 16.5 0 24.6 7.5 24.6 31h-31c1 8.2 5.6 10.6 13.4 10.6 6.8 0 11.4-1.2 15-2.4V256c-3.8 2.6-10.2 5.3-20.7 5.3-18.6 0-28.7-9.7-28.7-27.8zm21-5.7l11.8-.5c0-7.6-2.4-9.5-5.5-9.5s-5.6 1.8-6.3 10zM1023 331.3l5.2-1.4v-28l-5.6-1.6V290l23.3-2.4 1.6.8v6h.6c5-4.2 9.8-7 17.3-7 7.6 0 13.4 3.8 13.4 13v29.4l4.6 1.4v10.3h-28.3v-10.3l3.4-1v-22.6c0-3.5-1.6-4.8-5-4.8-2.2 0-3.7.5-5.4 1v26.5l3.4 1v10.3H1023v-10.3zM1085.3 315c0-17.3 10.6-27.4 27.3-27.4 16.5 0 24.6 7.5 24.6 31h-31c1 8.2 5.6 10.6 13.4 10.6 6.8 0 11.4-1.2 15-2.4v10.8c-3.8 2.6-10.2 5.3-20.7 5.3-18.6-.2-28.7-9.8-28.7-28zm21-5.6l11.8-.5c0-7.7-2.4-9.6-5.5-9.6-3 0-5.6 1.8-6.3 10zM1142.5 300.3l-3.7-1.3v-10.3h27.6V299l-3.8 1 4.4 18.2h.4l8.5-29.5h14l8.5 29.5h.4l4.2-18-3.6-1.2v-10.3h22.3V299l-3.8 1.3-12.2 41.3h-17.6l-7.8-27.4h-.3l-7.8 27.4h-17.8l-12.2-41.3zM1224.6 339.5l-1-14.5h12.8l1.8 5c1 .7 3.3 1.5 6 1.5 4 0 6-1.5 6-4 0-2.3-1.4-3-5.4-4l-5.8-1.2c-10.2-2-15.6-6.8-15.6-16.5 0-10.8 7.4-18.3 24.7-18.3 6.8 0 13.8 1 18.3 3v14H1254l-1-4.7c-1.2-.6-2.8-1.2-5.5-1.2-3.3 0-6 1-6 3.4s1.6 3.2 6.4 4.2l6.5 1.4c11 2.2 15.2 7.7 15.2 16 0 11.7-7.4 19.2-26 19.2-6 0-13.5-1-19-3.3z"/><g fill="#333"><path d="M1317.2 82.3l2.8-.6V63.3l-2.8-.6v-1.3h7L1334 78h.2V63.3l-2.8-.6v-1.3h7.6v1.3l-2.5.6v20.3h-2.5l-11.4-19.5v17.5l2.7.6v1.3h-8v-1.3zM1339.3 75.5c0-5.2 3.5-8.6 7.8-8.6 4.8 0 8 3.2 8 8.4s-3.5 8.7-7.8 8.7c-4.8 0-8-3.4-8-8.5zm12.6 0c0-5-2.5-7-5-7-2.4 0-4.7 1.7-4.7 6.8 0 5.2 2.4 7 5 7 2.3 0 4.6-1.7 4.6-6.7zM1357.7 80V69h-2.3v-1l2.6-.8.5-3.8h2.2v3.8h4.3v2h-4.3v10c0 2 .5 2.8 2.6 2.8.7 0 1.4 0 2-.2V83c-.7.5-2 1-3.4 1-3 0-4.3-1-4.3-4zM1371.5 75.5c0-5.2 3.5-8.6 7.8-8.6 4.7 0 8 3.2 8 8.4s-3.6 8.7-8 8.7c-4.6 0-7.8-3.4-7.8-8.5zm12.7 0c0-5-2.4-7-5-7-2.3 0-4.6 1.7-4.6 6.8 0 5.2 2.4 7 5 7 2.3 0 4.6-1.7 4.6-6.7zM1388.7 68.8l-1.7-.5V67h6.8v1.3l-2 .5 3 10.8h.2l4-12.4h2l4 12.4 3-10.8-2-.5V67h6v1.3l-1.8.5-4.6 14.8h-2.2l-3.7-12.2-4.3 12.2h-2.2l-4.5-14.8zM1412.7 82.5l2.4-.5V69.4l-2.3-.5v-1.3l4.8-.8h.4v1.5c1.7-1 3.6-1.7 5.6-1.7 3 0 4.6 1.2 4.6 4.4V82l2.4.5v1h-7.7v-1l2.2-.5V72c0-2.2-1.2-3-3.4-3-1.3 0-2.6.4-3.8.8V82l2.3.5v1h-7.7v-1zM1431 75.2c0-5.2 3.3-8.4 7.4-8.4 4.8 0 6.7 3.3 6.7 8.5h-11c0 4.4 2.2 6.6 5.6 6.6 2.3 0 3.6-.5 4.8-1v1.4c-1 .6-2.7 1.5-5.4 1.5-5.7 0-8-3.7-8-8.8zm10.8-1.7c0-3.4-1.2-5-3.6-5-2.6 0-4 1.7-4.3 5.3l7.8-.3zM1446 82.5l2.4-.5V69.4l-2.4-.5v-1.3l4.8-.8h.4v2.2h.2c1-1 2.4-2.3 4.2-2.3h1v2.6h-1.3c-1.5 0-2.8.3-4 1V82l2.7.5v1h-8v-1zM1457.6 83l-.3-4.3h1.5l1 2.8c.5.3 1.6.7 3 .7 2 0 3.6-.8 3.6-2.5s-.8-2.2-3-3l-2-.5c-2.5-.8-4-2.2-4-4.6 0-2.6 2-4.7 6-4.7 1.8 0 3.5.2 4.5.5v4.2h-1.5l-.8-2.5c-.5-.3-1.3-.5-2.6-.5-1.7 0-3 .6-3 2.3 0 1.4.8 2 3.2 2.8l1.8.6c3 1 4 2.3 4 4.6 0 2.8-2 5-6.3 5-1.7 0-3.6-.4-5-1zM1471.6 80.4h3.3c-.4 2.4-1 4.5-2 6.6h-2c.4-2.2.6-4 .6-6.6zM1482 82.5l2.3-.5V69.4l-2.4-.5v-1.3l4.7-.8h.4v1.5h.3c1.6-1 3.5-1.7 5.5-1.7 3 0 4.6 1.2 4.6 4.4V82l2.4.5v1h-7.7v-1l2.4-.5V72c0-2.2-1.2-3-3.4-3-1.3 0-2.6.4-3.8.8V82l2.3.5v1h-7.7v-1zM1500 75.5c0-5.2 3.6-8.6 8-8.6 4.6 0 7.8 3.2 7.8 8.4s-3.5 8.7-7.8 8.7c-4.7 0-8-3.4-8-8.5zm12.7 0c0-5-2.4-7-5-7-2.3 0-4.6 1.7-4.6 6.8 0 5.2 2.5 7 5 7 2.4 0 4.7-1.7 4.7-6.7zM1518.5 80V69h-2.3v-1l2.6-.8.5-3.8h2.2v3.8h4.3v2h-4.3v10c0 2 .5 2.8 2.6 2.8.8 0 1.5 0 2-.2V83c-.6.5-2 1-3.3 1-2.8 0-4.2-1-4.2-4zM1532.6 83l-.3-4.3h1.5l1 2.8c.5.3 1.6.7 3 .7 2 0 3.6-.8 3.6-2.5s-.8-2.2-3-3l-2-.5c-2.5-.8-4-2.2-4-4.6 0-2.6 2-4.7 6-4.7 1.8 0 3.5.2 4.5.5v4.2h-1.5l-.8-2.5c-.5-.3-1.3-.5-2.6-.5-1.7 0-3 .6-3 2.3 0 1.4.8 2 3.2 2.8l1.8.6c3 1 4 2.3 4 4.6 0 2.8-2 5-6.3 5-1.7 0-3.6-.4-5-1zM1544.8 82.5l2.4-.5V62.2l-2.4-.5v-1.2l5-.7.4.2v8.5h.2c1.6-1 3.4-1.6 5.3-1.6 3 0 4.6 1 4.6 4.3V82l2.4.5v1h-7.7v-1l2.3-.5V72c0-2.2-1.2-3-3.4-3-1.4 0-2.7.5-4 1v12l2.4.5v1h-7.7v-1zM1563.4 79.5c0-2.8 2-3.8 5-4.4l4.2-.8v-1.7c0-2.6-.4-3.5-3.7-3.5-1.4 0-3.3.2-4.3.4V68c1.2-.5 3.6-1.2 5.6-1.2 3.6 0 5.2 1.5 5.2 4.8V81c0 1 .6 1.2 1.5 1.2h.8v1c-.4.3-1.4.6-2.6.6-1.3 0-2-.5-2.4-1.7h-.2c-1 1-2.2 2-4.4 2-2.8 0-4.8-1.7-4.8-4.5zm9.2 1.3V76l-3.3.4c-2.2.2-3 1.2-3 2.8 0 1.7 1 2.8 3 2.8 1.4 0 2.7-.6 3.3-1.2zM1578.8 82.5l2.4-.5V69.4l-2.4-.5v-1.3l4.8-.8h.4v2.2h.2c1-1 2.4-2.3 4.2-2.3h1v2.6h-1.3c-1.4 0-2.7.3-3.8 1V82l2.6.5v1h-8v-1zM1589.7 75.2c0-5.2 3.4-8.4 7.5-8.4 4.8 0 6.7 3.3 6.7 8.5h-11.3c0 4.4 2.2 6.6 5.6 6.6 2.3 0 3.6-.5 4.8-1v1.4c-1 .6-2.6 1.5-5.3 1.5-5.6 0-8-3.7-8-8.8zm10.8-1.7c0-3.4-1.2-5-3.6-5-2.7 0-4.2 1.7-4.4 5.3l8-.3zM1604.7 82.5l2.4-.5V62.2l-2.3-.5v-1.2l5-.7.4.2v8.5h.3c1.6-1 3.4-1.6 5.3-1.6 3 0 4.6 1 4.6 4.3V82l2.4.5v1h-7.7v-1l2.2-.5V72c0-2.2-1.2-3-3.4-3-1.3 0-2.6.5-3.8 1v12l2.3.5v1h-7.7v-1zM1623 75.5c0-5.2 3.4-8.6 7.7-8.6 4.7 0 8 3.2 8 8.4s-3.6 8.7-8 8.7c-4.7 0-7.8-3.4-7.8-8.5zm12.5 0c0-5-2.4-7-5-7-2.3 0-4.6 1.7-4.6 6.8 0 5.2 2.3 7 4.8 7 2.4 0 4.7-1.7 4.7-6.7zM1639 82.5l2.3-.5V62.2l-2.6-.5v-1.2l5.2-.7.3.2v22l2.4.5v1h-7.7v-1zM1647.2 75.8c0-6 3.4-9 8.4-9 1.3 0 2 .3 3 .5v-5l-2.6-.6v-1.2l5.2-.7.4.2v21.7l2.4.5v1l-4.8.8-.4-.2V82h-.2c-1 1.2-2.3 2-4.5 2-3 0-6.8-2-6.8-8.2zm11.4 5V69.6c-.7-.5-1.5-1-3.4-1-3 0-5 1.6-5 6.8 0 4.6 1.7 6.3 4.7 6.3 1.5 0 3-.5 3.6-1zM1664.4 75.2c0-5.2 3.4-8.4 7.5-8.4 4.7 0 6.6 3.3 6.6 8.5h-11.2c0 4.4 2.2 6.6 5.6 6.6 2.3 0 3.6-.5 4.8-1v1.4c-1 .6-2.7 1.5-5.4 1.5-5.6 0-8-3.7-8-8.8zm11-1.7c0-3.4-1.3-5-3.7-5-2.6 0-4 1.7-4.3 5.3l8-.3zM1679.5 82.5l2.4-.5V69.4l-2.5-.5v-1.3l4.8-.8h.4v2.2h.2c.8-1 2.3-2.3 4-2.3h1v2.6h-1.2c-1.5 0-2.8.3-4 1V82l2.7.5v1h-8v-1zM1691 83l-.2-4.3h1.5l1 2.8c.5.3 1.6.7 3 .7 2 0 3.6-.8 3.6-2.5s-1-2.2-3.2-3l-1.8-.5c-2.6-.8-4-2.2-4-4.6 0-2.6 2-4.7 6-4.7 1.7 0 3.4.2 4.4.5v4.2h-1.4l-.8-2.5c-.5-.3-1.3-.5-2.6-.5-1.8 0-3 .6-3 2.3 0 1.4.7 2 3 2.8l2 .6c3 1 4 2.3 4 4.6 0 2.8-2 5-6.4 5-1.8 0-3.6-.4-5-1zM1705 80.4h3.4c-.3 2.4-1 4.5-2 6.6h-2c.5-2.2.7-4 .7-6.6zM1317 118.5l2.4-.5v-12.6l-2.4-.5v-1.3l4.8-.8h.4v1.5h.2c1.6-1 3.5-1.7 5.5-1.7 3 0 4.5 1.2 4.5 4.4V118l2.4.5v1h-7.8v-1l2.3-.5v-10c0-2.2-1.2-3-3.4-3-1.2 0-2.5.4-3.7.8V118l2.3.5v1h-7.7v-1zM1335.2 111.5c0-5.2 3.5-8.6 7.8-8.6 4.7 0 8 3.2 8 8.4s-3.6 8.7-8 8.7c-4.6 0-7.8-3.4-7.8-8.5zm12.7 0c0-5-2.5-7-5-7-2.4 0-4.7 1.7-4.7 6.8 0 5.2 2.4 7 5 7 2.3 0 4.6-1.7 4.6-6.7zM1353.6 116v-11h-2.3v-1l2.6-.8.4-3.8h2.2v3.8h4.3v2h-4.4v10c0 2 .5 2.8 2.6 2.8.7 0 1.4 0 2-.2v1.2c-.7.5-2 1-3.4 1-2.8 0-4.2-1-4.2-4zM1367.2 115.5c0-2.8 2-3.8 5-4.4l4.2-.8v-1.7c0-2.6-.4-3.5-3.7-3.5-1.3 0-3.2.2-4.2.4V104c1.2-.5 3.6-1.2 5.6-1.2 3.7 0 5.3 1.5 5.3 4.8v9.4c0 1 .6 1.2 1.5 1.2h.8v1c-.4.3-1.4.6-2.6.6-1.3 0-2-.5-2.4-1.7h-.2c-1 1-2.2 2-4.4 2-2.7 0-4.8-1.7-4.8-4.5zm9.2 1.3V112l-3.3.4c-2 .2-2.8 1.2-2.8 2.8 0 1.7 1 2.8 3 2.8 1.4 0 2.6-.6 3.2-1.2zM1382 111.8c0-6 3.5-9 8.5-9 1.3 0 2 .3 3 .5v-5l-2.6-.6v-1.2l5-.7.5.2v21.7l2.4.5v1l-5 .8-.3-.2V118h-.2c-1 1.2-2.3 2-4.5 2-3 0-7-2-7-8.2zm11.5 5v-11.2c-.7-.5-1.5-1-3.4-1-3 0-5 1.6-5 6.8 0 4.6 1.8 6.3 4.8 6.3 1.6 0 3-.5 3.7-1zM1400.3 104.8l-1.8-.5V103h7v1.3l-2 .4 4 11.6h.2l4-11.6-2-.4V103h5.8v1.3l-1.8.5-5.5 14.8h-2.3l-5.7-14.8zM1415.3 111.2c0-5.2 3.4-8.4 7.5-8.4 4.8 0 6.7 3.3 6.7 8.5h-11.2c0 4.4 2.2 6.6 5.6 6.6 2.2 0 3.5-.5 4.7-1v1.4c-1 .6-2.7 1.5-5.4 1.5-5.6 0-8-3.7-8-8.8zm11-1.7c0-3.4-1.3-5-3.7-5-2.6 0-4 1.7-4.3 5.3l8-.3zM1430.4 118.5l2.4-.5v-12.6l-2.4-.5v-1.3l4.8-.8h.4v2.2h.2c1-1 2.4-2.3 4.2-2.3h1v2.6h-1.3c-1.5 0-2.8.3-4 1V118l2.7.5v1h-8v-1zM1444.2 116v-11h-2.3v-1l2.5-.8.5-3.8h2.2v3.8h4.3v2h-4.3v10c0 2 .5 2.8 2.6 2.8.7 0 1.4 0 2-.2v1.2c-.7.5-2 1-3.4 1-2.8 0-4.2-1-4.2-4zM1453 118.5l2.3-.5v-12.6l-2.6-.5v-1.3l5.2-.8h.3v15l2.4.5v1h-7.7v-1zm1.8-20c0-1 .8-2 1.8-2s1.8 1 1.8 2c0 .8-.8 1.7-1.8 1.7s-1.8-.8-1.8-1.8zM1462 119l-.3-4.3h1.5l1 2.8c.5.3 1.6.7 3 .7 2 0 3.6-.8 3.6-2.5s-.8-2.2-3-3l-2-.5c-2.5-.8-4-2.2-4-4.6 0-2.6 2-4.7 6-4.7 1.8 0 3.5.2 4.5.5v4.2h-1.4l-1-2.5c-.4-.3-1.2-.5-2.5-.5-1.8 0-3 .6-3 2.3 0 1.4.7 2 3 2.8l2 .6c3 1 4 2.3 4 4.6 0 2.8-2 5-6.4 5-1.7 0-3.5-.4-5-1zM1474.8 111.2c0-5.2 3.4-8.4 7.5-8.4 4.8 0 6.7 3.3 6.7 8.5h-11.2c0 4.4 2.2 6.6 5.6 6.6 2.3 0 3.6-.5 4.8-1v1.4c-1 .6-2.7 1.5-5.4 1.5-5.6 0-8-3.7-8-8.8zm11-1.7c0-3.4-1.3-5-3.7-5-2.5 0-4 1.7-4.2 5.3l8-.3zM1489.8 118.5l2.4-.5v-12.6l-2.4-.5v-1.3l4.8-.8h.4v2.2h.2c1-1 2.4-2.3 4.2-2.3h1v2.6h-1.3c-1.4 0-2.7.3-3.8 1V118l2.6.5v1h-8v-1zM1501.5 119l-.3-4.3h1.5l1 2.8c.5.3 1.6.7 3 .7 2 0 3.6-.8 3.6-2.5s-.8-2.2-3-3l-2-.5c-2.5-.8-4-2.2-4-4.6 0-2.6 2-4.7 6-4.7 1.8 0 3.5.2 4.5.5v4.2h-1.4l-.8-2.5c-.5-.3-1.3-.5-2.6-.5-1.8 0-3 .6-3 2.3 0 1.4.7 2 3 2.8l2 .6c3 1 4 2.3 4 4.6 0 2.8-2 5-6.4 5-1.8 0-3.7-.4-5-1zM1515 118c0-1 .8-2 2-2 1 0 2 1 2 2 0 1.3-1 2-2 2-1.2 0-2-.8-2-2zM1526 118.3l2.8-.6V99.3l-2.8-.6v-1.3h8.8v1.3l-2.8.6v18.4l2.8.6v1.3h-8.8v-1.3zM1536 118.5l2.4-.5v-12.6l-2.4-.5v-1.3l4.8-.8h.4v1.5h.2c1.6-1 3.5-1.7 5.5-1.7 3 0 4.5 1.2 4.5 4.4V118l2.4.5v1h-7.8v-1l2.3-.5v-10c0-2.2-1.2-3-3.4-3-1.2 0-2.5.4-3.7.8V118l2.3.5v1h-7.7v-1zM1554.4 111.8c0-6 3.4-9 8.4-9 1.3 0 2 .3 3 .5v-5l-2.6-.6v-1.2l5.2-.7.4.2v21.7l2.4.5v1l-4.8.8-.4-.2V118h-.2c-1 1.2-2.3 2-4.5 2-3 0-7-2-7-8.2zm11.4 5v-11.2c-.7-.5-1.5-1-3.4-1-3 0-5 1.6-5 6.8 0 4.6 1.7 6.3 4.7 6.3 1.7 0 3-.5 3.8-1zM1571.6 111.2c0-5.2 3.4-8.4 7.5-8.4 5 0 6.8 3.3 6.8 8.5h-11.2c0 4.4 2.2 6.6 5.6 6.6 2.3 0 3.6-.5 4.8-1v1.4c-1 .6-2.7 1.5-5.4 1.5-5.6 0-8-3.7-8-8.8zm11-1.7c0-3.4-1.3-5-3.7-5-2.7 0-4.2 1.7-4.4 5.3l8-.3zM1586.3 125l2.4-.5v-19l-2.4-.5v-1.2l4.8-.8.5.2v1.5h.2c1.3-1 3-1.8 5-1.8 3.2 0 6.4 1.5 6.4 7.8 0 6-3.3 9.2-8.3 9.2-1.3 0-2 0-3-.3v4.7l2.8.5v1h-8v-1zm13.7-13.7c0-4.6-1.8-6.2-4.8-6.2-1.5 0-3 .6-3.6 1v11.3c.7.4 1.5 1 3.4 1 3 0 5-1.7 5-7zM1604.6 111.2c0-5.2 3.4-8.4 7.5-8.4 5 0 6.8 3.3 6.8 8.5h-11.2c0 4.4 2.2 6.6 5.6 6.6 2.3 0 3.6-.5 4.8-1v1.4c-1 .6-2.7 1.5-5.4 1.5-5.6 0-8-3.7-8-8.8zm11-1.7c0-3.4-1.3-5-3.7-5-2.7 0-4.2 1.7-4.4 5.3l8-.3zM1619.7 118.5l2.4-.5v-12.6l-2.3-.5v-1.3l4.8-.8h.4v1.5c1.7-1 3.6-1.7 5.6-1.7 3 0 4.6 1.2 4.6 4.4V118l2.4.5v1h-7.7v-1l2.2-.5v-10c0-2.2-1.2-3-3.4-3-1.3 0-2.6.4-3.8.8V118l2.3.5v1h-7.7v-1zM1638 111.8c0-6 3.4-9 8.4-9 1.3 0 2 .3 3 .5v-5l-2.6-.6v-1.2l5.2-.7.4.2v21.7l2.4.5v1l-4.8.8-.4-.2V118h-.2c-1 1.2-2.3 2-4.5 2-3 0-7-2-7-8.2zm11.5 5v-11.2c-.7-.5-1.5-1-3.4-1-3 0-5 1.6-5 6.8 0 4.6 1.8 6.3 4.8 6.3 1.6 0 3-.5 3.7-1zM1655.3 111.2c0-5.2 3.4-8.4 7.5-8.4 4.8 0 6.7 3.3 6.7 8.5h-11.2c0 4.4 2.2 6.6 5.6 6.6 2.2 0 3.5-.5 4.7-1v1.4c-1 .6-2.7 1.5-5.4 1.5-5.6 0-8-3.7-8-8.8zm10.8-1.7c0-3.4-1-5-3.5-5-2.6 0-4 1.7-4.3 5.3l8-.3zM1670.3 118.5l2.4-.5v-12.6l-2.4-.5v-1.3l4.8-.8h.5v1.5h.2c1.6-1 3.5-1.7 5.5-1.7 3 0 4.6 1.2 4.6 4.4V118l2.4.5v1h-7.7v-1l2.3-.5v-10c0-2.2-1.2-3-3.4-3-1.3 0-2.6.4-3.8.8V118l2.3.5v1h-7.8v-1zM1688.5 111.5c0-6.2 4-8.7 8.6-8.7 1.6 0 3.2.3 4.4.6v4h-1.7l-.6-2.6c-.4-.2-1-.3-2.2-.3-3.2 0-5.2 2-5.2 6.6 0 5 2.6 6.8 5.7 6.8 2.2 0 3.6-.4 4.4-.8v1.5c-1 .7-2.7 1.5-5.2 1.5-5 0-8-3.3-8-8.5zM1702.6 111.2c0-5.2 3.4-8.4 7.5-8.4 5 0 6.8 3.3 6.8 8.5h-11.2c0 4.4 2.2 6.6 5.6 6.6 2.3 0 3.6-.5 4.8-1v1.4c-1 .6-2.7 1.5-5.4 1.5-5.6 0-8-3.7-8-8.8zm10.8-1.7c0-3.4-1.2-5-3.6-5-2.6 0-4 1.7-4.3 5.3l8-.3zM1723 118.5l2.3-.5v-12.6l-2.4-.5v-1.3l4.7-.8h.4v1.5h.3c1.6-1 3.2-1.7 5.4-1.7 2 0 3 .6 3.8 1.8h.2c1.6-1 3.5-1.8 5.7-1.8 3 0 4.4 1.4 4.4 4.5V118l2.4.5v1h-7.6v-1l2.3-.5v-9.8c0-2.4-1.3-3-3.5-3-1.2 0-2.5.3-3.6.6V118l2.3.5v1h-7.6v-1l2.4-.5v-9.8c0-2.4-1-3-3.2-3-1.5 0-2.4.2-3.6.6V118l2.3.5v1h-7.7v-1zM1751 115.5c0-2.8 2-3.8 5-4.4l4-.8v-1.7c0-2.6-.3-3.5-3.6-3.5-1.3 0-3.2.2-4.2.4V104c1.2-.5 3.6-1.2 5.6-1.2 3.6 0 5.2 1.5 5.2 4.8v9.4c0 1 .6 1.2 1.5 1.2h.8v1c-.4.3-1.4.6-2.6.6-1.3 0-2-.5-2.4-1.7h-.2c-.8 1-2 2-4.3 2-2.7 0-4.8-1.7-4.8-4.5zm9.2 1.3V112l-3.3.4c-2.3.2-3 1.2-3 2.8 0 1.7 1 2.8 3 2.8 1.3 0 2.5-.6 3.2-1.2zM1767.3 116v-11h-2.3v-1l2.6-.8.5-3.8h2.3v3.8h4.3v2h-4.3v10c0 2 .5 2.8 2.6 2.8.6 0 1.3 0 2-.2v1.2c-.8.5-2 1-3.5 1-2.8 0-4.2-1-4.2-4zM1778.2 116v-11h-2.3v-1l2.5-.8.5-3.8h2.2v3.8h4.3v2h-4.3v10c0 2 .5 2.8 2.6 2.8.7 0 1.4 0 2-.2v1.2c-.7.5-2 1-3.4 1-2.8 0-4.2-1-4.2-4zM1786.2 111.2c0-5.2 3.4-8.4 7.5-8.4 4.8 0 6.7 3.3 6.7 8.5h-11.2c0 4.4 2.2 6.6 5.6 6.6 2.3 0 3.6-.5 4.8-1v1.4c-1 .6-2.7 1.5-5.4 1.5-5.6 0-8-3.7-8-8.8zm10.8-1.7c0-3.4-1.2-5-3.6-5-2.6 0-4 1.7-4.3 5.3l8-.3zM1801.2 118.5l2.4-.5v-12.6l-2.4-.5v-1.3l4.8-.8h.4v2.2h.2c1-1 2.4-2.3 4.2-2.3h1v2.6h-1.3c-1.5 0-2.8.3-4 1V118l2.7.5v1h-8v-1zM1813 119l-.4-4.3h1.5l1 2.8c.6.3 1.7.7 3.2.7 2 0 3.5-.8 3.5-2.5s-.8-2.2-3-3l-2-.5c-2.5-.8-4-2.2-4-4.6 0-2.6 2-4.7 6-4.7 1.8 0 3.5.2 4.5.5v4.2h-1.4l-.8-2.5c-.5-.3-1.3-.5-2.6-.5-1.8 0-3 .6-3 2.3 0 1.4.7 2 3 2.8l2 .6c3 1 4 2.3 4 4.6 0 2.8-2 5-6.4 5-1.8 0-3.7-.4-5-1zM1826.2 118c0-1 1-2 2-2s2 1 2 2c0 1.3-1 2-2 2s-2-.8-2-2z"/></g><path d="M1317.7 159.8l2.5-.6v-16.7l-2.5-.6v-3.6h12.6c5.8 0 9 2 9 6.3 0 3-1 5-4.6 5.8v.2c4 .5 5.8 2.4 5.8 6 0 4.2-2.8 6.7-9.5 6.7h-13.2v-3.6zm11.5-11c1.8 0 3-.7 3-3 0-2.6-1-3.4-3-3.4h-1.8v6.5h1.8zm.3 10.5c2.2 0 3.3-1 3.3-3.4 0-2.6-1.2-3.6-3.3-3.6h-2v7h2zM1341.5 153.7c0-6.3 4-10 9.7-10 6 0 8.7 3 8.7 11h-11.7c.4 3.4 2.2 4.6 5.2 4.6 2.5 0 4-.5 5.5-1v3.6c-1.4.8-3.6 1.8-7.3 1.8-6.7 0-10.2-3.6-10.2-10zm12-2.2c0-3-1-4-2.4-4s-2.5 1-2.7 4.2l5.2-.2zM1361 154c0-7.2 4.2-10.3 10.6-10.3 2.4 0 4.7.4 6 .8v6h-4.3l-.5-2.6c-.3-.2-.6-.4-1.5-.4-2 0-3.4 1.5-3.4 5.7 0 4.5 1.8 6 5 6 2 0 3.6-.5 4.6-1v3.7c-1.2.8-3.3 1.8-6.6 1.8-6.8 0-10-3.8-10-10zM1378.7 154c0-6.7 4.4-10.3 10-10.3 6.3 0 10 3.6 10 10 0 6.5-4.5 10-10 10-6.5 0-10-3.8-10-9.8zm13 0c0-5-1.3-6.3-3-6.3-2 0-3 1-3 6s1 6.2 3 6.2c1.7-.2 3-1.4 3-6zM1399.3 160l2-.4v-11l-2-.7v-3.4l7.8-.8.7.3v2h.2c1.6-1.2 3.3-2.2 6-2.2 2 0 3.6.8 4.4 2.4h.2c1.6-1.4 3.7-2.4 6.4-2.4 2.8 0 5 1.4 5 4.8v11l2 .5v3.4h-10V160l1.4-.3V151c0-1.8-.6-2.3-2.2-2.3-.8 0-1.5.2-2.3.5v10.5l1.5.4v3.4h-9.5V160l1.5-.3V151c0-1.8-.6-2.3-2-2.3-1 0-1.6.2-2.4.5v10.5l1.6.4v3.4h-10.2V160zM1432.3 153.7c0-6.3 4-10 9.7-10 6 0 8.7 3 8.7 11H1439c.5 3.4 2.3 4.6 5.3 4.6 2.5 0 4-.5 5.5-1v3.6c-1.4.8-3.6 1.8-7.3 1.8-6.7 0-10.2-3.6-10.2-10zm12-2.2c0-3-1-4-2.4-4-1.6 0-2.7 1-3 4.2l5.3-.2zM1456.8 158.5c0-3.8 2.7-5 7-5.8l3.3-.6v-.8c0-2-.6-2.7-3.5-2.7-1.7 0-3.6 0-5 .4v-4c2-.6 5-1.3 8.2-1.3 5 0 7 2 7 6.3v8.6c0 1 .7 1.2 1.4 1.2h.7v3c-.6.5-2.3 1-4 1-2 0-3.2-.6-3.8-2.2h-.3c-1 1.2-2.8 2.3-5.2 2.3-3.4-.2-5.7-2.4-5.7-5.5zm10.4.8v-4h-1.7c-1.5 0-2 1-2 2.4 0 1.6.5 2.4 1.8 2.4.8 0 1.6-.4 2-.7zM1481.8 151c0-9.7 6.4-13 13.7-13 3.2 0 6.3.5 8 1.2l.2 7.3h-4.4l-1.2-3.4c-.7-.2-1.5-.4-3-.4-4 0-5.5 2.7-5.5 7.8 0 6.8 1.5 9 5.5 9 1 0 1.7-.2 2.2-.4v-4l-2.2-.6V151h11v3.4l-2 .6v7.4c-1.8.7-5.2 1.4-8.8 1.4-8.3 0-13.4-3.6-13.4-12.7zM1508.4 158.4v-10l-2-.6v-3.3l8-.8.6.3v12.5c0 1.6.5 2.3 2.2 2.3 1.2 0 2-.3 2.6-.5v-9.8l-2-.6v-3.4l8-.8.6.3v15l2 .6v3.3l-7.7.8-.6-.3v-2c-1.4 1.2-3.2 2.3-6 2.3-4 0-5.6-2-5.6-5.4zM1529.2 158.5c0-3.8 2.7-5 7-5.8l3.3-.6v-.8c0-2-.7-2.7-3.6-2.7-1.8 0-3.7 0-5 .4v-4c1.8-.6 4.8-1.3 8-1.3 5 0 7.2 2 7.2 6.3v8.6c0 1 .6 1.2 1.3 1.2h.6v3c-.5.5-2.2 1-3.8 1-2 0-3.3-.6-4-2.2-1 1.2-3 2.3-5.3 2.3-3.5-.2-5.8-2.4-5.8-5.5zm10.4.8v-4h-1.7c-1.6 0-2.2 1-2.2 2.4 0 1.6.6 2.4 2 2.4.7 0 1.4-.4 1.8-.7zM1549 160l2-.4v-11l-2.2-.7v-3.4l8-.8.5.3v3h.2c1-1.7 2.7-3 5-3h1v5.8l-1.8-.2c-1.8 0-3 .2-4 .7v9.3l2.6.5v3.4H1549V160zM1564 154.2c0-7.7 4-10.5 9.2-10.5 1.5 0 2.3.2 3 .5v-3l-2-.7v-3.3l8-1 .7.4V159l2 .6v3.3l-7.4.8-.6-.3v-2h-.2c-1 1.4-3 2.3-5.4 2.3-3.5 0-7.5-2.3-7.5-9.6zm12.4 4.3v-10.2c-.5-.4-1-.7-2.2-.7-2 0-3.3 1-3.3 5.8 0 4.2 1 5.7 3 5.7 1 .2 1.8 0 2.4-.5zM1586 160l2-.4v-11l-2.2-.7v-3.4l8.2-.8.6.3v15.7l2 .5v3.3h-10.7V160zm1.5-20.7c0-2 1.7-3.2 3.6-3.2 2 0 3.7 1.3 3.7 3.3 0 2-1.6 3.2-3.6 3.2s-3.5-1.2-3.5-3.2zM1597.3 158.5c0-3.8 2.7-5 7-5.8l3.3-.6v-.8c0-2-.7-2.7-3.6-2.7-1.7 0-3.6 0-5 .4v-4c2-.6 5-1.3 8.2-1.3 5 0 7 2 7 6.3v8.6c0 1 .7 1.2 1.4 1.2h.6v3c-.6.5-2.3 1-4 1-2 0-3.2-.6-3.8-2.2h-.2c-1 1.2-2.8 2.3-5.2 2.3-3.4-.2-5.7-2.4-5.7-5.5zm10.4.8v-4h-1.7c-1.5 0-2 1-2 2.4 0 1.6.5 2.4 1.8 2.4.8 0 1.5-.4 2-.7zM1617 160l2-.4v-11l-2-.7v-3.4l7.8-.8.6.3v2.2h.2c1.8-1.4 3.7-2.3 6.3-2.3 3 0 5 1.2 5 4.7v11l1.8.6v3.3h-10v-3.3l1.5-.4v-9c0-1.5-.7-2-2.2-2-.8 0-1.6 0-2.3.4V160l1.5.3v3.3H1617V160zM1645.5 162.5l-.4-6.8h4.6l1 3c.7.5 1.6.7 3 .7 2 0 3.2-1 3.2-2.6s-1.5-2.4-4-3.2l-1.4-.5c-4-1.2-6-3-6-7.3 0-4.6 2.7-7.8 9.7-7.8 3.7 0 6 .4 7.3 1l.4 6h-4.4l-.7-2.3c-.6-.3-1.5-.6-2.7-.6-2 0-3 1-3 2.3 0 1.4 1 2 3.4 3l1.5.4c4.4 1.5 7 3 7 7.7 0 5-3.6 8.3-10.3 8.3-3 0-6.3-.4-8.2-1.2zM1666.5 158.4v-10l-2-.6v-3.3l8-.8.6.3v12.5c0 1.6.6 2.3 2.3 2.3 1.2 0 2-.3 2.6-.5v-9.8l-2-.6v-3.4l8-.8.5.3v15l2 .6v3.3l-7.7.8-.6-.3v-2h-.2c-1.3 1.2-3 2.3-5.8 2.3-4 0-5.7-2-5.7-5.4zM1686.8 167.3l2-.5v-18.4l-2-.6v-3.3l7.8-.8.5.3v2h.3c1-1 3-2.3 5.6-2.3 3.4 0 6.8 2 6.8 9.3 0 8-4.2 10.8-9.8 10.8-1.4 0-2 0-2.7-.2v3.3l2.4.3v3.2h-11v-3.2zm14.2-13.5c0-4-1-5.4-3-5.4-1.2 0-2 .3-2.5.5V159c.5.3 1 .6 2.2.6 2 0 3.3-1 3.3-6zM1708.6 167.3l2-.5v-18.4l-2-.6v-3.3l7.8-.8.5.3v2c1.2-1 3-2.3 5.7-2.3 3.5 0 7 2 7 9.3 0 8-4.3 10.8-10 10.8-1.3 0-2 0-2.6-.2v3.3l2.5.3v3.2h-11v-3.2zm14.2-13.5c0-4-1-5.4-3-5.4-1.2 0-2 .3-2.5.5V159c.5.3 1 .6 2.2.6 2 0 3.3-1 3.3-6zM1730.8 154c0-6.7 4.4-10.3 10-10.3 6.3 0 10 3.6 10 10 0 6.5-4.5 10-10 10-6.5 0-10-3.8-10-9.8zm13 0c0-5-1.3-6.3-3-6.3-2 0-3 1-3 6s1 6.2 3 6.2c1.8-.2 3-1.4 3-6zM1751.4 160l2-.4v-11l-2-.7v-3.4l7.8-.8.6.3v3h.2c1-1.7 2.7-3 5-3h1v5.8l-1.8-.2c-1.8 0-3 .2-4 .7v9.3l2.6.5v3.4h-11.3V160zM1768.6 158.4V148h-2v-3l2.5-1 1-4.5h5v4.5h4v4h-4v9.2c0 1.7 1 2.2 2.4 2.2.6 0 1.3 0 1.8-.3v3.5c-1 .5-2.6 1-4.6 1-3.8.2-6-1-6-5zM1780 153.7c0-6.3 4-10 9.7-10 6 0 8.7 3 8.7 11h-11.6c.4 3.4 2.2 4.6 5.2 4.6 2.5 0 4-.5 5.5-1v3.6c-1.4.8-3.6 1.8-7.3 1.8-6.7 0-10.2-3.6-10.2-10zm12-2.2c0-3-1-4-2.4-4-1.5 0-2.6 1-2.8 4.2l5.2-.2zM1799.4 160l2-.4v-11l-2-.7v-3.4l7.8-.8.6.3v3h.2c1-1.7 2.7-3 5-3h1v5.8l-1.8-.2c-1.8 0-3 .2-4 .7v9.3l2.6.5v3.4h-11.3V160z"/><g><circle fill="#FADB00" cx="1843.7" cy="152.9" r="19"/><path d="M1855.8 152.4l-1.5-1.6-9.5-9.4-1 1 8 9.4h-20.2v2h20l-7.8 9.6 1 1 9.5-9.5 1.5-1.6"/></g><path d="M1906.7 38c0-11-3.3-12.8-7.3-12.8s-7.2 1.5-7.2 12.7c0 11 3.3 12 7.2 12 4 0 7.3-1 7.3-12zm-14.4 42c-5 0-6.5 3.7-6.5 6.5 0 4 3.6 7.7 14 7.7 11.8 0 15-3.3 15-7.7 0-3.8-2.8-6.4-7.6-6.4h-15zm-32.8-20c0 11 4.4 21 11.5 28.4v-.6c0-7.2 7-9.8 13-11-5.8-1.4-8.6-5.6-8.6-10 0-5.7 6.4-10.7 9.6-13h-.4c-5.5-3-9-8.6-9-15.8 0-6.2 2.6-11 7.2-14.4C1869 30 1859.5 44 1859.5 60zm55.8-37c4.8 3.2 7.6 8 8 14v1.5c0 12-9.7 18.4-23.8 18.4-3.6 0-6-.3-9-1.2-1.4 1-2.5 2.6-2.5 4 0 2 1.8 3.5 4 3.5h19.5c12.2 0 18 5 18 15.8 0 3.7-.6 7-2 9.7 7.3-7.3 12-17.5 12-28.7 0-16.5-10-30.7-24.2-37z"/><g><path fill="none" d="M1454.3 302.6l106.5-17 5.6-43.2 145.4 19 248.2-40v-27h-524.2V400h34.2"/><path opacity=".8" fill="#C7C6C6" d="M1566.4 242.4l-5.6 43 151-24"/><path opacity=".7" fill="#FFE42F" d="M1960 293.6v-72.2l-248.2 40M1454.3 302.6L1470 400h76l14.8-114.5"/><path opacity=".8" fill="#C7C6C6" d="M1560.8 285.5l-15 114.5H1960V293.6l-248.2-32.3"/><path opacity=".7" fill="#FFE42F" d="M1560.8 285.5l-15 114.5H1960V293.6l-248.2-32.3"/></g><g><path d="M1763.7 291.6c-2 0-3.4 1.5-3.4 3.4 0 1.8 1.5 3.3 3.4 3.3 1.8 0 3.4-1.5 3.4-3.3 0-2-1.5-3.4-3.3-3.4M1787.8 319h10.4v-1.7l-2-1V304c.7-.5 1.6-.7 2.6-.7 1.7 0 2.5.7 2.5 2.7v10.3l-2 1v1.6h10.4V317l-2-1v-11.6c0-3.5-1.7-5-4.8-5-2.7 0-5.2.8-7 2.4v-2.5h-.4l-8 1.3v1.7l2.3 1v13l-2.2.8v1.7zM1758.5 300.7v1.7l2 1v12.8l-2 1v1.8h10.5v-1.8l-2-1v-16.8h-.6M1749.7 315.4c-.5.4-1 .7-2 .7-2.4 0-3.6-2-3.6-6.6 0-5.4 1.6-7.2 3.6-7.2 1 0 1.7.3 2 1v12.2zm0-15c-.8-.6-2-1-3-1-4.8 0-9.2 2.8-9.2 10.4 0 7.3 4.4 9.6 7.4 9.6 2.3 0 4-1 4.7-2h.2v2h.4l7.5-1V317l-2-1v-24.4h-.6l-8 1.3v1.6l2.2 1v4.7zM1723.5 300.7v1.7l2 1v13l-2 .8v1.8h11v-1.8l-2.6-1v-10c1-1 2.4-1.2 4-1.2.6 0 1.3 0 1.7.2v-5.5h-1c-2 0-4 1.3-5 3.8v-4h-.5l-7.7 1.2zM1710 302.2c.4-.2 1.3-.2 1.6-.2 2.4 0 3.2 1.2 3.2 3.6v2l-3.6.8c-3.7.7-6.5 1.8-6.5 5.7 0 3.3 2.2 5.4 5.2 5.4 2.3 0 4.5-1 5.4-2.7h.2c.3 2 2 2.7 4 2.7 1.5 0 3-.5 3.6-1V317l-2-1v-11c0-4.2-3-5.7-8-5.7-3.4 0-5.6.8-7.4 1.7v4.8h3l1-3.8zm4.8 13c-.4.5-1 .8-1.7.8-1 0-2.3-.7-2.3-2.8 0-1.5 1.4-3 2.8-3l1.3-.3v5.2zM1774 302.2c.5-.2 1.5-.2 1.8-.2 2.4 0 3.2 1.2 3.2 3.6v2l-3.6.8c-3.7.7-6.5 1.8-6.5 5.7 0 3.3 2 5.4 5 5.4 2.5 0 4.7-1 5.6-2.7h.2c.3 2 2 2.7 4 2.7 1.5 0 3-.5 3.6-1V317l-2-1v-11c0-4.2-3-5.7-8-5.7-3.4 0-5.6.8-7.4 1.7v4.8h3l1-3.8zm5 13c-.5.5-1 .8-1.8.8-1.2 0-2.4-.7-2.4-2.8 0-1.5 1.4-3 2.8-3l1.3-.3v5.2z"/><path d="M1685.2 313.4c0 3.3 1.6 6 5.5 6 2.5 0 4.8-1 6-2.6v2.6h.5l7.7-1v-1.3l-2.2-1v-16.5h-.5l-8 1.3v1.7l2.2 1V315c-.7.4-1.2.6-2.3.6-1.6 0-2.6-.5-2.6-2.6v-13.4h-.5l-7.8 1.3v1.6l2 1v9.8zM1677.2 314.8h-6.8c-.7 0-1.4-.5-1.4-1.2 0-.5.4-1 .8-1.4 1 .3 2 .4 3 .4 5 0 8.3-2.2 8.3-6.3 0-2-.7-3-2-4l3.3 1v-3.8l-5 1c-1.3-.5-3-1-4.5-1-5 0-8.3 2.4-8.3 6.5 0 2.5 1.3 4.4 3.2 5.4h.2c-1.2.8-3.4 2.6-3.4 4.6 0 1.5 1 3 3 3.4-2 .4-4.5 1.3-4.5 3.8s3.8 5 9.7 5c7.4 0 10.6-3.4 10.6-8 0-3.7-2-5.4-6-5.4m-4.3-13.2c1.4 0 2.3 1 2.3 4.4 0 3.5-1 4.2-2.3 4.2-1.4 0-2.3-.7-2.3-4.2 0-3.6 1-4.4 2.3-4.4m0 23.8c-3.5 0-4.7-1.4-4.6-2.7 0-1 .5-2 2-2.2h5.5c1.5 0 2.4 1 2.4 2 0 2-1.5 3-5.4 3M1663.5 310c0-8-3.5-10.6-8.4-10.6-5.6 0-9.3 3.7-9.3 10 0 6.4 3.4 10 10 10 3.4 0 6-1.8 7-3v-1.7c-1.2.4-2.6.6-5 .6-3.5 0-5.5-1.8-5.5-5.5h11.3zm-8.5-8.4c1.6 0 2.4 1 2.4 6l-5.3.2c.2-5 1.2-6.2 3-6.2"/><path d="M1625 319h10.5v-1.7l-2-1v-12c.8-.6 1.6-1 2.6-1 1.8 0 2.7 1.2 2.7 2.8v10.4l-2 1v1.6h10.4v-1.7l-2-1v-11.6c0-3.5-2-5-4.8-5-2.6 0-5 .8-6.8 2.4v-10.5h-.5l-8 1.3v1.7l2.2 1v21l-2 1v1.5zM1613.8 313.8c0 3.5 1.7 5.7 5.4 5.7 2 0 4-.5 5.3-1.4V316c-.5.2-1.4.3-2 .3-1.8 0-2.3-.8-2.3-2.7v-10h4V300h-4v-4.4l-6.3 1v3.5l-3 .7v2.7h3v10.4z"/></g><path d="M1657 377.5c-.5 0-1-.2-1.5-.6l-.3-.3c-1-.7-2-1.6-1.5-3.5l5.5-17.4c-.6 1-8.5 7.7-15 11.4-.5.4-2.4 1.5-3.3 1.3-4.5-1-3-5.5-1.8-6.6 0-.2.4-.4.8-.5 2.2-1 8.5-4.2 15.2-10.4 4.5-4 11.3-13 11.8-14 0-.3.2-.6.4-.8.3-.7 1-2.3 2.7-2.2.4 0 .8 0 1 .3 2.2 1 3 2.6 2.3 4.3-.5 1.2-1 2.3-1.7 3.3-.4.7-1 1.5-1.3 2.3l-4.2 9.3-2.2 6.2c0 .4-.2.7-.3 1 0 0 .2 0 .2-.2 1-1.5 4.5-6.7 8.5-12 4-5 11.2-14.2 12.6-15.2 1.8-1.2 4 .8 4.6 2 .6 1.2.7 2.5.3 3.5l-5.5 14.6-1.5 4-.7 2 1-.6 8.7-9.3 15-16c1-1 1.7-1.4 2.6-1.4.4 0 .8.2 1.2.4 1 .6 2.6 1.6 2 3.7l-6.4 21c-.6 2-1.3 4-1.7 6-.2.8-.3 2.4.3 3.5 1.7-.6 9.3-5.4 9.3-5.4s-.3-1-.2-3.5c.5-7.4 3.7-13.2 7-17.2 3.2-3.7 7.5-6.3 10-6 2.4 0 4.7 2 4.5 5-.2 2.2-1 4.8-2.2 7.4-3.3 7-6.7 11.8-11 15.6l-1.5 1.3s.3 1 1.2 1c2 0 3.7-.6 5-1.4 5-2.4 9.4-6 13.7-11.4 2.2-2.7 3.8-5 5-7.2 1-2 2-4 2.8-6 .4-1 .8-1.8 1-2.6.5-1 1.2-2.5 3-2.3l1 .4c1 .5 1.8 1.3 2 2.2.4 1 .3 2-.3 3.2-1.7 3.2-7 15.5-7 15.5-.2.7 0 1.2 0 1.2.3 0 8.7-9.3 12.7-14 0 0 6.6-7 7-7.6.7-1 2.5-2.3 4.2-1.3 1.5 1 2 3.6 1.6 5.2l-4.6 12.8-1.4 4.2 1.2-1.3c6.2-8.4 19.7-21.5 23-21.3 1.4 0 2.4 1.4 3.2 2.8.4.6.8 1.6 0 3-1.7 2.3-6.2 14.4-6.6 15.3l-2.8 8.5c0 .2-.3.8-.2 1 0 0 11.2-8.6 15-13 6.6-8 16.8-33.4 17.3-34.2 1-1.8 2.7-3 4.6-2.7 2 .3 2.5 1.6 2.6 3 0 4-14.4 29.6-14.3 29.8.6-.6 11.2-9.8 17.2-8 2.4.7 2.6 2.5 3 4.8 1 4.3-4.5 30.2-24.3 31-2.5 0-6-1.7-7.3-5.3 0 0-.6.4-1 0-1.2-.5-2-1.2-2.2-1.8-.2-.6 0-1.2.2-2.3.4-1.4 5.4-7.2-1-1.2-5.3 5-10.8 8.6-11.6 9.2-.8.5-1.8 1-2.8 1-1 0-2.2-.7-3-1.6-1-1.3-.5-3 .4-5 .7-1.7 1.8-6 2-7l1.5-4.4c1-3.6 2.3-7 3.4-10.7 0-.4.4-1.4.2-1.5l-7.5 8.3-13.3 16.2c-.7.8-1.5 1.2-2.4 1-.8 0-1.5-.4-2-.7-1.7-.8-2-2-1.5-3.7.7-2 1.2-4 1.7-6l1-4c.5-1.6 1-3.3 1.7-5l.8-2.3.3-1c-.2.4-16.3 19-18.7 21.3-.5.5-1.4 1-2.3 1-.5 0-2.3-1-3.5-2.3-.6-.6-1-1.2.3-3.6.4-.4 1-1.4 1-2l-.2-.4c-.2 0-5.8 6.3-13.3 9.4-2 .8-3.8 1.2-5.6 1-4.4-.4-6.7-3.2-6.7-3.2s-9.3 6.6-15.2 7.6c-1 .2-2.7-.5-3.5-1.6-.8-1 0-5.3.7-8.3 1-4.7 4-13 4.4-14.6l1.8-5.2h-.6l-9 10-9.8 10.8-4.6 5.2c-.6.8-1.5 1.3-2.3 1-2-.4-3.3-2.5-3-3.7.2-2.6.8-5.4 1.7-9 .7-2.6 3.5-11.4 3.8-12.2v-.3s-.2 0-.2.2l-18.2 26c-.8 1-1.5 2-2.3 2.8-.2.7-1 1-1.7 1m72-35.6c-3.6 1.2-8.2 7.8-9.7 15.7 3-3 9.4-13 9.7-15.8m78.8 25.7c15.4-2 22.5-27 14-22-5.7 3.3-13 11.2-16 19.6-.7 1.3-.4 3 2 2.4"/><path d="M1894.2 376.6c-2.7-.3-5-1.7-6.4-4-1.5-2.3-1.8-5.3-1-8 .7-1.8 2.7-3 5-4l7.3-3.7 1.2-2.8 2.8-7.8s-2.4 1.4-6.7 3c-4.4 1.4-11.3 3-14 3.2-2.5.3-3.5 1.2-4.4 2.3-2.6 3-5.7 7-8.4 10.5-.7 1-1.8 2.3-3.4 2-.5 0-2.2-.6-2.8-1.5-.5-.8-.7-1.4 0-3.3l3.7-6.8s.2-.3 0-.4c-2 2.2-15.7 15-23.8 14.4-7.2-.6-8-9.4-8-9.4s-1.8.5-2.2.4c-.8 0-1.7-1-2.4-2.6-.5-1-1.3-3.2-.3-3.4l4.7-1.2c1.2-7.8 5-13 6.5-14.6 3.7-4.4 8-5.6 9-5.8 5-.7 7 2.5 7.2 5.4 0 4.3-1.8 8-3.4 10.3-4.8 7.2-12.6 9.6-12.6 9.6s0 4 2.6 4.3c5.8.4 21-13 26.7-20 1.2-1.6 7.4-9.5 8-10 .3-.4.8-.5 1.8 0 1 .3 4 2.3 2.7 4.5l-5.4 9.2c1-.7 1.8-1.2 3.5-1.3 11.2-1 21-5 24.4-9.5 1.6-2.4 4.3-4.8 6.8-3 2.3 2 2.7 4.3 2 5.8-.6 1-2 2.3-4 3.5l-4 11s19.5-9.8 22.8-11c1-.5 3.2 0 4.4 1.7.7 1 .6 2-.4 2.6-5.7 2.6-29.6 15-29.6 15s-3.7 10-5.4 12.8c-1 1.8-3.3 2.3-4.4 2.2zm2-11.4c-2 1-3.3 2-3.5 2.7 0 .3.2 1.2.8 1.6 1 .5 2.3-2.8 2.7-4.4m-50.8-20.7c-1.8 3.2-2.8 6.6-2.8 7 5.6-3.2 9.5-8 9-12-1.2 0-4.4 2-6.2 5"/></svg>