<svg xmlns="http://www.w3.org/2000/svg" width="2280" height="400" viewBox="0 0 2280 400"><g fill="#FCDD03"><path d="M57.5 102l7.6-2V53h-5.6l-3 12.4H41.8l1-26.4h69.5l1 26.4H98.4l-3-12.4h-5.7v47l7.6 2v12h-40v-12zM114.8 102.6l5.7-1.5V48.7l-6.2-1.7V35.3l26.5-2.6 2 1v27.8h.4c5.2-4.2 10-7 18.4-7 8.4 0 14.8 4 14.8 14V101l5.2 1.6V114h-31.2v-11.4l3.8-1v-25c0-4-1.7-5.4-5.5-5.4-2.4 0-4 .5-6 1.2v29l4 1.2V114h-32v-11.4zM183.3 84.7c0-19.2 11.7-30.3 30-30.3 18.2 0 27.2 8.3 27.2 34.2h-34c1 9 6 11.6 14.7 11.6 7.5 0 12.5-1.3 16.6-2.6v12c-4.3 2.8-11.3 5.7-23 5.7-20.3 0-31.5-10.6-31.5-30.6zm23-6.2l13-.5c0-8.4-2.7-10.5-6-10.5-3.4 0-6.2 2-7 11zM260.2 85.2c0-20.4 13.5-30.8 30.7-30.8 20 0 30.6 10.8 30.6 30 0 20.4-13.6 31-30.7 31-20.2 0-30.8-11.6-30.8-30.2zm37.8 0c0-14.3-2.6-17.5-7.2-17.5s-7 2.8-7 16.7c0 14.3 2.5 17.5 7.2 17.5s7-3.4 7-16.8zM323.5 102.6l5.7-1.5V70.4l-6.2-1.7V57l25.7-2.5 1.8 1v6.4h.6c5.6-4.6 11-7.6 19.2-7.6 8.4 0 14.8 4 14.8 14V101l5.2 1.5v11.3H359v-11.3l3.8-1v-25c0-4-1.7-5.3-5.5-5.3-2.4 0-4 .5-6 1.2v29l4 1.2V114h-32v-11.4zM392.2 102.6l6-1.5V48.8l-6.6-1.8V35.3l27-2.5 1.7.8V101l5.6 1.6V114h-34v-11.4zM435 134.3v-14c2.4.4 4 .7 5.8.7 4 0 7.5-1 8.7-4.3l1.2-3.5-19-44.7L427 67V55.8h32.7V67l-4.8 1.2 8.4 23.4h.4l7.5-23.4-5-1.2V55.7h26V67l-4.3 1.4-19.5 51c-4.2 11-9.8 16.5-22 16.5-4 0-9-.7-11.5-1.7zM516.6 98.6V68.8H511V58.5l7.7-3 2.6-13.4H539v13.7h11v13h-11V95c0 4.8 2.3 6 6.5 6 1.7 0 3.6-.4 5-1v12c-2.7 1.6-8 3-14.6 3-12.4.2-19.4-3.8-19.4-16.4zM553.2 102.6l5.7-1.5V48.7l-6.3-1.7V35.3l26.5-2.6 2 1v27.8h.4c5.2-4.2 10-7 18.4-7 8.4 0 14.8 4 14.8 14V101l5.2 1.6V114h-31.2v-11.4l3.8-1v-25c0-4-1.7-5.4-5.5-5.4-2.3 0-4 .5-5.8 1.2v29l3.8 1.2V114h-31.8v-11.4zM621.8 102.6l5.7-1.5V70.4l-6.3-1.7V57l26.6-2.5 2 1V101l5.2 1.6V114h-33.3v-11.4zm4.2-60.8c0-6.7 5.5-10.6 12-10.6 6.8 0 12.2 4 12.2 10.6 0 6.7-5.4 10.6-12 10.6-6.7 0-12.2-4-12.2-10.6zM657 102.6l5.6-1.5V70.4l-6.2-1.7V57l25.7-2.5 2 1v6.4h.5c5.5-4.6 10.8-7.6 19-7.6 8.5 0 15 4 15 14V101l5 1.5v11.3h-31v-11.3l3.7-1v-25c0-4-1.7-5.3-5.5-5.3-2.4 0-4 .5-6 1.2v29l4 1.2V114h-32v-11.4zM724 122.8c0-6.6 5.8-10 12.3-11.4v-.5c-5.4-1.6-8-5-8-9.8 0-5 4-9.5 8.6-12.4-5.5-3-9.2-8-9.2-14.6 0-12.6 10.6-19.5 26.5-19.5 5 0 9 .6 12.5 1.7l19-2.7v12.7l-7-.2c1 2.2 1.8 4.3 1.8 6.8 0 12.6-10.2 19.7-26.4 19.7-2.8 0-5.2-.2-7.6-.6-.6 1-1 1.8-1 2.7 0 1.2 1 2.8 4 2.8h18.8c10.3 0 18 4.6 18 16.2 0 12.2-9.5 22.4-34.2 22.4C733.5 136 724 131 724 123zm42.2-4.4c0-2.7-1.5-3.5-6.2-3.5h-12.5c-1.8.7-3 1.8-3 4 0 2.7 2.4 4.5 9.5 4.5 9.2 0 12.2-2.3 12.2-5zm-6-44.8c0-7-2.6-8.4-5.8-8.4-3 0-5.6 1.7-5.6 8 0 6.8 2.5 8.6 5.6 8.6 3 0 5.7-1.8 5.7-8.2zM810.3 98.6V68.8h-5.7V58.5l7.8-3L815 42h17.6v13.7h11v13h-11V95c0 4.8 2.4 6 6.6 6 1.7 0 3.6-.4 5-1v12c-2.7 1.6-8 3-14.6 3-12.3.2-19.3-3.8-19.3-16.4zM847 102.6l5.6-1.5V48.7l-6.2-1.7V35.3l26.5-2.6 1.8 1v27.8h.5c5.2-4.2 10-7 18.4-7 8.4 0 14.8 4 14.8 14V101l5.2 1.6V114h-31.2v-11.4l3.8-1v-25c0-4-1.7-5.4-5.5-5.4-2.4 0-4 .5-6 1.2v29l4 1.2V114h-32v-11.4zM915 99.3c0-11.7 8.3-15.4 22-18l9.2-1.6v-2c0-5.2-2.4-7.2-10.4-7.2-5.3 0-11 .4-15 1v-13c5.8-2 15-4 25.5-4 15.2 0 22 6.3 22 19.4v24c0 2.6 1.7 3.4 3.7 3.4h1.5v10.8c-2.2 1.4-7.3 3-12.3 3-6.7 0-10.7-2-12.5-7h-.5c-3 4-8.5 7-16 7-10.5 0-17-6.6-17-16zm31.2 1.6V89.3h-3.6c-3.7.3-5.5 2.3-5.5 6.8 0 4.6 1.4 6.5 5 6.5 1.8 0 3.4-1 4.2-1.8zM980.6 98.6V68.8H975V58.5l7.7-3 2.6-13.4h17.6v13.7h11v13h-11V95c0 4.8 2.3 6 6.5 6 1.7 0 3.6-.4 5-1v12c-2.7 1.6-8 3-14.6 3-12.4.2-19.4-3.8-19.4-16.4zM43.3 219.6l-1-16h14l2 5.5c1 1 3.6 1.7 6.6 1.7 4 0 6.5-1.6 6.5-4.3 0-2.6-1.6-3.5-6-4.4l-6.4-1.4c-11-2.3-17-7.5-17-18 0-12 8-20.3 27-20.3 7.4 0 15.2 1.2 20.2 3.5V181H75.6l-1-5c-1.3-.7-3-1.4-6-1.4-3.7 0-6.7 1-6.7 3.8 0 2.6 1.7 3.6 7 4.6l7.2 1.5C88.2 187 93 193 93 202c0 13-8.3 21.3-28.7 21.3-6.7 0-15-1.2-21-3.7zM95 210.6l5.8-1.5v-52.4l-6.2-1.7v-11.5L121 141l2 1v27.7h.5c5.2-4.2 10-7 18.4-7 8.3 0 14.7 4 14.7 14v32.5l5.2 1.5V222h-31.3v-11.3l3.8-1v-25c0-4-1.7-5.3-5.5-5.3-2.4 0-4 .5-6 1.2v29l4 1.2V222H95v-11.4zM163.7 193.2c0-20.4 13.5-30.8 30.7-30.8 20 0 30.7 10.8 30.7 30 0 20.4-13.5 31-30.6 31-20 0-30.7-11.6-30.7-30.2zm37.8 0c0-14.3-2.6-17.5-7.2-17.5s-7 2.8-7 16.7c0 14.3 2.5 17.5 7.2 17.5 4.6 0 7-3.4 7-16.8zM231.8 207.3V178l-5.5-1.7V165l26-2.5 1.7 1V201c0 3.8 1.4 5.5 5.4 5.5 2.8 0 4.5-.6 6.2-1.3v-27l-5.2-1.8V165l25.5-2.4 1.8 1v43.8l5.7 1.7v11.4l-25.3 2.6-2-1V216h-.5c-3.7 4-9 7.3-17 7.3-12 .2-17-5.6-17-15.7zM295.7 210.6l6-1.5v-52.3L295 155v-11.5l27-2.5 1.8 1V209l5.6 1.5V222h-33.8v-11.4zM331.7 194.3c0-24 12.6-32 28-32 4.4 0 6.8 1 9 1.8v-7.4l-6.2-1.7v-11.7l26.6-2.5 2 1v65.5l5.7 1.7v11.3L373 223l-1.8-1v-5.4h-.6c-3 4-9.2 6.6-16.5 6.6-11 0-22.3-6.8-22.3-29zm37 12v-28.6c-1.2-1-2.5-1.7-5.2-1.7-5 0-8.3 2.8-8.3 16 0 12 2.7 15.8 7.7 15.8 2.3 0 4.2-.6 5.8-1.6zM416 210.6l5.7-1.5v-30.7l-6.3-1.7V165l26.6-2.5 2 1V209l5.2 1.6V222H416v-11.4zm4.2-60.8c0-6.7 5.5-10.6 12-10.6 6.8 0 12.2 4 12.2 10.6 0 6.7-5.4 10.6-12 10.6-6.7 0-12.2-4-12.2-10.6zM451 210.6l5.8-1.5v-30.7l-6.2-1.7V165l25.7-2.5 1.8 1v6.4h.7c5.5-4.6 10.8-7.6 19-7.6 8.5 0 15 4 15 14V209l5 1.5v11.3h-31v-11.3l3.7-1v-25c0-4-1.7-5.3-5.5-5.3-2.5 0-4.2.5-6 1.2v29l3.8 1.2V222H451v-11.4zM556 210.6l3.8-1v-53c-1.6-.4-3.2-.8-5.4-.8-4.5 0-6.7 1-6.7 5.7v2.2h7.7v13h-7.7v32.8l3.8 1V222h-31.8v-11.4l5.7-1.5V177h-6v-10.3l6-2.4v-4.8c0-14 10.7-18.3 23-18.3 6 0 12 1.2 15.7 2.3l16.2-2.5 1.8 1v67.6l5.6 1V222H556v-11.2zM594.4 207.3V178l-5.5-1.7V165l25.8-2.5 1.8 1V201c0 3.8 1.4 5.5 5.4 5.5 2.8 0 4.5-.6 6.2-1.3v-27l-5.2-1.8V165l25.5-2.4 2 1v43.8l5.6 1.7v11.4L631 223l-2-1V216h-.5c-3.7 4-9 7.3-17 7.3-12.2.2-17-5.6-17-15.7zM658.2 192.7c0-19.2 11.7-30.3 30-30.3 18.2 0 27.2 8.3 27.2 34.2h-34c1 9 6 11.6 14.7 11.6 7.6 0 12.6-1.3 16.7-2.6v12c-4.3 2.8-11.3 5.7-23 5.7-20.4 0-31.5-10.6-31.5-30.6zm23-6.2l13-.5c0-8.4-2.7-10.5-6-10.5-3.4 0-6.2 2-7 11zM717.8 210.6l5.7-1.5v-30.7l-6.2-1.7V165l25.7-2.5 1.8 1v6.4h.6c5.5-4.6 10.8-7.6 19-7.6 8.5 0 15 4 15 14V209l5 1.5v11.3h-31v-11.3l3.7-1v-25c0-4-1.6-5.3-5.4-5.3-2.4 0-4 .5-6 1.2v29l4 1.2V222h-32v-11.4zM786.5 193.2c0-21.2 12.7-30.8 32.8-30.8 7.6 0 15 1.2 18.5 2.4v19h-14.4l-1.3-7.4c-.7-.3-1.4-.8-3.6-.8-5.2 0-8.3 3.7-8.3 15.8 0 12.7 5.2 16.6 14.8 16.6 5 0 10.2-1 13.2-2.3v12c-3.5 2.6-10.4 5.5-20.4 5.5-21.3 0-31-11.3-31-30zM841.7 192.7c0-19.2 11.7-30.3 30-30.3 18.2 0 27.2 8.3 27.2 34.2h-34.2c1.2 9 6.2 11.6 14.8 11.6 7.5 0 12.5-1.3 16.6-2.6v12c-4.3 2.8-11.3 5.7-23 5.7-20.4 0-31.5-10.6-31.5-30.6zm23-6.2l13-.5c0-8.4-2.7-10.5-6-10.5-3.4 0-6.2 2-7 11zM924 206.6v-29.8H918v-10.3l7.8-3 2.6-13.4h17.6v13.7h11v13h-11V203c0 4.8 2.4 6 6.6 6 1.7 0 3.6-.4 5-1v12c-2.7 1.6-8 3-14.6 3-12.3.2-19.3-3.8-19.3-16.4zM960.5 210.6l5.7-1.5v-52.4L960 155v-11.5l26.5-2.6 2 1v27.7h.4c5-4.2 10-7 18.3-7 8.4 0 14.8 4 14.8 14v32.5l5.3 1.5V222H996v-11.3l4-1v-25c0-4-1.8-5.3-5.6-5.3-2.4 0-4 .5-6 1.2v29l4 1.2V222h-32v-11.4zM1029 192.7c0-19.2 11.8-30.3 30.2-30.3 18 0 27 8.3 27 34.2h-34c1.2 9 6.2 11.6 14.8 11.6 7.5 0 12.5-1.3 16.6-2.6v12c-4.3 2.8-11.3 5.7-23 5.7-20.4 0-31.5-10.6-31.5-30.6zm23-6.2l13.2-.5c0-8.4-2.8-10.5-6.2-10.5-3.3 0-6.2 2-7 11zM1106 210.6l5.7-1.5v-30.7l-6.2-1.7V165l25.7-2.5 1.8 1v6.4h.6c5.5-4.6 10.8-7.6 19-7.6 8.5 0 15 4 15 14V209l5 1.5v11.3h-31v-11.3l3.7-1v-25c0-4-1.7-5.3-5.5-5.3-2.4 0-4 .5-6 1.2v29l4 1.2V222H1106v-11.4zM1174.7 192.7c0-19.2 11.7-30.3 30-30.3 18.2 0 27.2 8.3 27.2 34.2h-34.2c1.2 9 6.2 11.6 14.8 11.6 7.5 0 12.5-1.3 16.6-2.6v12c-4.3 2.8-11.3 5.7-23 5.7-20.4 0-31.5-10.6-31.5-30.6zm23-6.2l13-.5c0-8.4-2.7-10.5-6-10.5-3.5 0-6.3 2-7 11zM1237.6 176.4l-4-1.4v-11.3h30.4V175l-4.2 1.2 5 20h.3l9.5-32.5h15.6l9.5 32.5h.4l4.7-20-4-1.2v-11.3h24.6V175l-4 1.4-13.5 45.5h-19.4l-8.6-30.3h-.3L1271 222h-20l-13.4-45.6zM1328 219.6l-1-16h14l2 5.5c1.2 1 3.7 1.7 6.7 1.7 4.2 0 6.6-1.6 6.6-4.3 0-2.6-1.6-3.5-6-4.4l-6.4-1.4c-11.3-2.3-17.3-7.5-17.3-18 0-12 8.2-20.3 27.2-20.3 7.2 0 15 1.2 20 3.5V181h-13.7l-1-5c-1.3-.7-3-1.4-6-1.4-3.7 0-6.7 1-6.7 3.8 0 2.6 1.8 3.6 7 4.6l7.3 1.5c12 2.4 16.6 8.5 16.6 17.5 0 13-8.2 21.3-28.6 21.3-6.5 0-14.7-1.2-21-3.7z"/></g><path d="M1137.5 172.5l5.8-1.5v-31.4l-6.4-1.8V126l27-2.5 2 1v46.4l5.4 1.4V184h-34v-11.5zm4.3-62c0-6.8 5.6-10.8 12.3-10.8 7 0 12.4 4 12.4 10.8 0 6.8-5.5 10.8-12.3 10.8-6.6 0-12.2-4-12.2-10.8zM1174.6 181.7l-1-16.3h14.3l2 5.6c1 .8 3.6 1.6 6.7 1.6 4.3 0 6.7-1.6 6.7-4.4 0-2.6-1.7-3.5-6.2-4.5l-6.5-1.4c-11.4-2.3-17.5-7.6-17.5-18.5 0-12 8.4-20.6 27.7-20.6 7.4 0 15.3 1.2 20.4 3.5v15.5h-14l-1-5.2c-1.3-.7-3.2-1.3-6-1.3-3.8 0-7 1-7 4 0 2.5 2 3.5 7.4 4.6l7.4 1.5c12.2 2.4 17 8.7 17 17.8 0 13.2-8.4 21.7-29 21.7-7 0-15.3-1-21.6-3.6zM975 265.3V235h-6v-10.6l8-3 2.6-13.7h18v14h11v13.2h-11v26.6c0 4.8 2.3 6 6.6 6 1.8 0 3.6-.3 5-.8V279c-2.7 1.7-8 3.2-14.8 3.2-12.4 0-19.5-4-19.5-17zM1012.2 269.3l5.8-1.5v-53.5l-6.3-1.8v-11.7l27-2.6 2 1v28.3h.5c5.3-4.3 10.2-7.3 18.7-7.3s15 4.2 15 14.4v33l5.3 1.6v11.5h-31.8v-11.5l4-1v-25.5c0-4-2-5.4-5.7-5.4-2.4 0-4.2.5-6 1.2V268l4 1.2v11.5h-32.4v-11.4zM1082 251.2c0-19.6 12-31 30.7-31 18.5 0 27.6 8.6 27.6 35h-34.8c1.2 9 6.3 11.8 15 11.8 7.7 0 13-1.3 17-2.6v12c-4.4 3-11.6 6-23.3 6-20.8 0-32.2-11-32.2-31.2zm23.5-6.4l13.3-.5c0-8.6-3-10.7-6.3-10.7s-6.3 2-7 11.2zM1139.8 349l5.8-1.5V316l-6.3-1.7v-11.8l26.2-2.5 2 1v6.5h.6c5.7-4.6 11-7.6 19.6-7.6 8.6 0 15 4 15 14.3v33l5.4 1.6v11.4h-31.8V349l4-1v-25.5c0-4-2-5.4-5.7-5.4-2.4 0-4.2.6-6 1.3V348l3.8 1v11.5H1140V349zM1209.8 331c0-19.7 12-31 30.7-31 18.5 0 27.6 8.5 27.6 35h-34.7c1.2 9 6.3 11.7 15 11.7 7.7 0 13-1.3 17-2.6v12.2c-4.4 3-11.5 6-23.3 6-21-.2-32.2-11-32.2-31.3zm23.4-6.5l13.3-.5c0-8.6-3-10.7-6.3-10.7-3.4 0-6.2 2-7 11.2zM1274 314.3l-4.3-1.4v-11.6h31V313l-4.3 1 5 20.5h.4l9.6-33h15.8l9.6 33h.4l4.8-20.4-4-1v-11.6h25V313l-4.2 1.3-13.6 46.3h-19.8l-8.8-30.8h-.3l-8.8 30.8h-20l-13.6-46.3zM1366 358.3l-1-16.3h14.4l2 5.6c1.2.8 3.7 1.7 6.8 1.7 4.3 0 6.7-1.7 6.7-4.4s-1.8-3.6-6.3-4.6l-6.5-1.4c-11.4-2.3-17.5-7.6-17.5-18.5 0-12 8.4-20.6 27.7-20.6 7.5 0 15.4 1 20.5 3.4V319h-14l-1.2-5.3c-1.2-.7-3-1.3-6-1.3-3.7 0-6.8 1-6.8 4 0 2.5 2 3.5 7.3 4.6l7.4 1.5c12.2 2.4 17 8.7 17 17.8 0 13.2-8.4 21.7-29 21.7-7 0-15.3-1.2-21.6-3.7z"/><g fill="#333"><path d="M1467.2 83.7l3.2-.7V62.3l-3.2-.7V60h8l11 18.7V62.3l-3-.7V60h8.4v1.5l-2.8.7V85h-2.8l-13-21.8V83l3 .6V85h-8.8v-1.3zM1492 76c0-5.8 4-9.7 8.7-9.7 5.3 0 9 3.7 9 9.5s-4 9.8-9 9.8c-5.2 0-8.8-3.8-8.8-9.6zm14 0c0-5.8-2.6-7.7-5.4-7.7-2.7 0-5.3 1.8-5.3 7.5 0 5.8 2.7 7.8 5.5 7.8 2.7 0 5.3-1.8 5.3-7.5zM1512.6 81V68.6h-2.6v-1.3l3-1 .5-4.2h2.5v4.3h4.8v2h-4.8v11.6c0 2.2.6 3 3 3 .7 0 1.5 0 2.2-.2V84c-.8.6-2.2 1.2-3.8 1.2-3.3.2-4.8-1-4.8-4.3zM1528.2 76c0-5.8 4-9.7 8.8-9.7 5.3 0 9 3.7 9 9.5s-4 9.8-9 9.8c-5.3 0-8.8-3.8-8.8-9.6zm14.2 0c0-5.8-2.7-7.7-5.5-7.7s-5.4 1.8-5.4 7.5c0 5.8 2.7 7.8 5.5 7.8s5.4-1.8 5.4-7.5zM1547.4 68.4l-2-.5v-1.4h7.7V68l-2.2.4 3.5 12 4.6-14h2l4.5 14 3.6-12-2.2-.5v-1.4h6.5V68l-2 .4-5 16.6h-2.5l-4.2-13.7-4.8 13.7h-2.4l-5-16.6zM1574.5 84l2.7-.7V69l-2.7-.5V67l5.4-.8.3.2V68h.2c1.8-1 4-2 6.2-2 3.4 0 5.2 1.4 5.2 5v12l2.6.7V85h-8.6v-1.3l2.6-.6V72c0-2.5-1.3-3.2-4-3.2-1.4 0-2.8.4-4 .8v13.6l2.5.6V85h-8.5v-1zM1595 75.7c0-6 3.7-9.4 8.4-9.4 5.4 0 7.5 3.7 7.5 9.5h-12.7c0 5 2.4 7.4 6.3 7.4 2.6 0 4-.5 5.4-1v1.6c-1.2.7-3 1.7-6 1.7-6.4 0-9-4-9-9.8zm12-2c0-3.8-1.2-5.5-4-5.5s-4.5 1.8-4.7 5.8l8.8-.3zM1611.8 84l2.7-.7V69l-2.7-.5V67l5.4-.8.4.2v2.3h.2c1-1.3 2.7-2.6 4.8-2.6l1 .2v3c-.5-.2-1-.2-1.4-.2-1.7 0-3.2.5-4.4 1.3v13l3 .5V85h-9v-1zM1625 84.5l-.4-5h1.7l1 3.2c.7.4 2 .8 3.6.8 2.2 0 3.8-1 3.8-2.8 0-2-1-2.5-3.5-3.3l-2-.6c-3-1-4.5-2.4-4.5-5.2 0-3 2.2-5.3 6.7-5.3 2 0 4 .3 5 .7v4.7h-1.5l-1-2.8c-.5-.5-1.4-.7-3-.7-2 0-3.4.7-3.4 2.6 0 1.5 1 2.2 3.6 3l2 .7c3.3 1 4.6 2.6 4.6 5.2 0 3-2.4 5.6-7.2 5.6-2 0-4-.5-5.7-1zM1640.5 81.4h3.7c-.4 2.7-1 5-2.2 7.4h-2.2c.5-2.3.7-4.5.7-7.4zM1652 84l2.8-.7V69l-2.7-.5V67l5.5-.8.4.2V68c2-1 4-2 6.3-2 3.4 0 5.2 1.4 5.2 5v12l2.7.7V85h-8.6v-1.3l2.6-.6V72c0-2.5-1.3-3.2-4-3.2-1.4 0-2.8.4-4 .8v13.6l2.5.6V85h-8.6v-1zM1672.6 76c0-5.8 4-9.7 8.8-9.7 5.3 0 9 3.7 9 9.5s-4 9.8-9 9.8c-5.3 0-8.8-3.8-8.8-9.6zm14.2 0c0-5.8-2.7-7.7-5.5-7.7-2.7 0-5.3 1.8-5.3 7.5 0 5.8 2.7 7.8 5.5 7.8 2.7 0 5.3-1.8 5.3-7.5zM1693.2 81V68.6h-2.6v-1.3l3-1 .5-4.2h2.6v4.3h4.8v2h-4.8v11.6c0 2.2.6 3 3 3 .7 0 1.5 0 2.2-.2V84c-.8.6-2.2 1.2-3.8 1.2-3.2.2-4.8-1-4.8-4.3zM1709 84.5l-.2-5h1.7l1 3.2c.7.4 2 .8 3.6.8 2.4 0 4-1 4-2.8 0-2-1-2.5-3.5-3.3l-2-.6c-3-1-4.5-2.4-4.5-5.2 0-3 2.2-5.3 6.7-5.3 2 0 4 .3 5 .7v4.7h-1.5l-1-2.8c-.5-.5-1.4-.7-3-.7-2 0-3.4.7-3.4 2.6 0 1.5 1 2.2 3.6 3l2 .7c3.3 1 4.6 2.6 4.6 5.2 0 3-2.4 5.6-7.2 5.6-2 0-4-.5-5.7-1zM1722.8 84l2.7-.7V61l-2.7-.6V59l5.6-.8.4.2V68h.2c1.8-1 3.8-1.8 6-1.8 3.4 0 5.2 1.3 5.2 5v12l2.7.6V85h-8.7v-1.2l2.6-.6V72c0-2.5-1.4-3.3-4-3.3-1.5 0-3 .4-4.2 1V83l2.6.6V85h-8.6v-1zM1743.6 80.5c0-3.2 2.3-4.3 5.7-5l4.7-1v-2c0-2.8-.5-3.8-4-3.8-1.6 0-3.7.2-4.8.4v-1.4c1.4-.6 4-1.3 6.3-1.3 4 0 5.8 1.7 5.8 5.4v10.6c0 1.2.6 1.4 1.7 1.4h1V85c-.5 0-1.7.4-3 .4-1.4 0-2.4-.5-2.7-2h-.2c-1 1-2.4 2-4.8 2-3.2 0-5.6-1.8-5.6-5zM1754 82v-5.3l-3.7.3c-2.5.2-3.3 1.3-3.3 3.2 0 2 1 3.2 3.4 3.2 1.5 0 3-.8 3.6-1.4zM1761 84l2.7-.7V69l-2.7-.5V67l5.4-.8.4.2v2.3h.2c1-1.3 2.7-2.6 4.8-2.6l1 .2v3c-.5-.2-1-.2-1.4-.2-1.7 0-3.2.5-4.4 1.3v13l3 .5V85h-9v-1zM1773.2 75.7c0-6 3.8-9.4 8.5-9.4 5.4 0 7.5 3.7 7.5 9.5h-12.6c0 5 2.4 7.4 6.3 7.4 2.5 0 4-.5 5.3-1v1.6c-1.2.7-3 1.7-6 1.7-6.4 0-9-4-9-9.8zm12.2-2c0-3.8-1.3-5.5-4-5.5-3 0-4.6 1.8-4.8 5.8l8.8-.3zM1790 84l2.7-.7V61l-2.7-.6V59l5.6-.8.4.2V68h.2c1.8-1 3.8-1.8 6-1.8 3.4 0 5.2 1.3 5.2 5v12l2.7.6V85h-8.5v-1.2l2.6-.6V72c0-2.5-1.2-3.3-3.8-3.3-1.5 0-3 .4-4.2 1V83l2.6.6V85h-8.6v-1zM1810.4 76c0-5.8 4-9.7 8.8-9.7 5.3 0 9 3.7 9 9.5s-4 9.8-9 9.8c-5.2 0-8.8-3.8-8.8-9.6zm14.3 0c0-5.8-2.7-7.7-5.5-7.7-2.7 0-5.3 1.8-5.3 7.5 0 5.8 2.6 7.8 5.4 7.8 2.7 0 5.3-1.8 5.3-7.5zM1828.5 84l2.7-.7V61l-3-.6V59l6-.8.3.2v24.8l2.7.6V85h-8.7v-1zM1837.7 76.3c0-6.8 3.8-10 9.5-10 1.4 0 2.4.2 3.4.5V61l-3-.6V59l5.8-.8.4.2v24.4l2.7.6v1.2l-5.4.8-.3-.2v-2h-.2c-1 1.3-2.6 2.2-5 2.2-3.4 0-7.8-2-7.8-9zm13 5.6V69.2c-1-.5-1.8-1.2-4-1.2-3.2 0-5.6 2-5.6 7.8 0 5 2 7 5.5 7 1.7.2 3.3-.4 4-1zM1857 75.7c0-6 4-9.4 8.6-9.4 5.4 0 7.5 3.7 7.5 9.5h-12.5c0 5 2.4 7.4 6.3 7.4 2.6 0 4-.5 5.4-1v1.6c-1.2.7-3 1.7-6 1.7-6.4 0-9-4-9-9.8zm12.3-2c0-3.8-1.3-5.5-4-5.5-3 0-4.6 1.8-4.8 5.8l8.8-.3zM1874 84l2.7-.7V69l-2.7-.5V67l5.4-.8.4.2v2.3h.2c1-1.3 2.7-2.6 4.8-2.6l1 .2v3c-.5-.2-1-.2-1.4-.2-1.7 0-3.2.5-4.4 1.3v13l3 .5V85h-9v-1zM1887 84.5l-.3-5h1.7l1 3.2c.7.4 2 .8 3.6.8 2.3 0 4-1 4-2.8 0-2-1-2.5-3.6-3.3l-2-.6c-3-1-4.5-2.4-4.5-5.2 0-3 2-5.3 6.6-5.3 2 0 4 .3 5 .7v4.7h-1.5l-.8-2.8c-.6-.5-1.5-.7-3-.7-2 0-3.5.7-3.5 2.6 0 1.5 1 2.2 3.6 3l2 .7c3.3 1 4.6 2.6 4.6 5.2 0 3-2.5 5.6-7.3 5.6-2 0-4-.5-5.7-1zM1902.7 81.4h3.7c-.4 2.7-1 5-2.2 7.4h-2.2c.5-2.3.7-4.5.7-7.4zM1914.3 84l2.7-.7V69l-2.7-.5V67l5.4-.8.4.2V68h.3c1.8-1 4-2 6.2-2 3.4 0 5.2 1.4 5.2 5v12l2.7.7V85h-8.6v-1.3l2.6-.6V72c0-2.5-1.3-3.2-4-3.2-1.4 0-2.8.4-4 .8v13.6l2.5.6V85h-8.7v-1zM1934.7 76c0-5.8 4-9.7 8.8-9.7 5.3 0 9 3.7 9 9.5s-4 9.8-9 9.8c-5.2 0-8.8-3.8-8.8-9.6zm14.3 0c0-5.8-2.7-7.7-5.5-7.7-2.7 0-5.3 1.8-5.3 7.5 0 5.8 2.7 7.8 5.5 7.8 2.7 0 5.3-1.8 5.3-7.5zM1955.4 81V68.6h-2.6v-1.3l3-1 .5-4.2h2.5v4.3h4.8v2h-4.8v11.6c0 2.2.6 3 3 3 .7 0 1.5 0 2.2-.2V84c-.8.6-2.2 1.2-3.8 1.2-3.2.2-4.8-1-4.8-4.3zM1970.7 80.5c0-3.2 2.3-4.3 5.7-5l4.7-1v-2c0-2.8-.4-3.8-4-3.8-1.5 0-3.6.2-4.7.4v-1.4c1.4-.6 4-1.3 6.3-1.3 4 0 5.8 1.7 5.8 5.4v10.6c0 1.2.6 1.4 1.7 1.4h1V85c-.4 0-1.6.4-3 .4-1.3 0-2.3-.5-2.6-2h-.2c-1 1-2.5 2-5 2-3.2 0-5.5-1.8-5.5-5zM1981 82v-5.3l-3.7.3c-2.5.2-3.3 1.3-3.3 3.2 0 2 1 3.2 3.4 3.2 1.5 0 3-.8 3.6-1.4zM1987.4 76.3c0-6.8 3.8-10 9.5-10 1.3 0 2.3.2 3.3.5V61l-3-.6V59l5.8-.8.5.2v24.4l2.7.6v1.2l-5.4.8-.4-.2v-2h-.2c-1 1.3-2.6 2.2-5 2.2-3.5 0-7.8-2-7.8-9zm13 5.6V69.2c-1-.5-1.8-1.2-4-1.2-3.2 0-5.6 2-5.6 7.8 0 5 2 7 5.4 7 1.7.2 3.2-.4 4-1zM2007.8 68.4l-2-.5v-1.4h8V68l-2.4.3 4.6 13 4.7-13-2.3-.4v-1.4h6.4V68l-2 .4-6.2 16.6h-2.6l-6.2-16.6zM2024.7 75.7c0-6 3.8-9.4 8.5-9.4 5.4 0 7.5 3.7 7.5 9.5H2028c.2 5 2.5 7.4 6.4 7.4 2.6 0 4-.5 5.4-1v1.6c-1.2.7-3 1.7-6 1.7-6.4 0-9-4-9-9.8zm12.2-2c0-3.8-1.4-5.5-4-5.5-3 0-4.7 1.8-5 5.8l9-.3zM2041.6 84l2.7-.7V69l-2.7-.5V67l5.4-.8.4.2v2.3h.2c1-1.3 2.7-2.6 4.8-2.6l1 .2v3c-.5-.2-1-.2-1.4-.2-1.7 0-3.2.5-4.4 1.3v13l3 .5V85h-9v-1zM2057 81V68.6h-2.5v-1.3l3-1 .5-4.2h2.5v4.3h4.8v2h-4.8v11.6c0 2.2.6 3 3 3 .7 0 1.5 0 2.2-.2V84c-.8.6-2.2 1.2-3.8 1.2-3.3.2-5-1-5-4.3zM2067 84l2.6-.7V69l-3-.5V67l6-.8.3.2V83l2.6.7V85h-8.7v-1zm2-22.7c0-1 1-2 2-2 1.3 0 2.2 1 2.2 2s-1 2-2 2c-1.3 0-2.2-1-2.2-2zM2077 84.5l-.2-5h1.7l1 3.2c.7.4 2 .8 3.6.8 2.4 0 4-1 4-2.8 0-2-1-2.5-3.5-3.3l-2-.6c-3-1-4.5-2.4-4.5-5.2 0-3 2.2-5.3 6.7-5.3 2 0 4 .3 5 .7v4.7h-1.5l-1-2.8c-.5-.5-1.4-.7-3-.7-2 0-3.4.7-3.4 2.6 0 1.5 1 2.2 3.6 3l2 .7c3.3 1 4.6 2.6 4.6 5.2 0 3-2.4 5.6-7.2 5.6-2 0-4-.5-5.7-1zM2091.4 75.7c0-6 3.8-9.4 8.5-9.4 5.3 0 7.4 3.7 7.4 9.5h-12.6c0 5 2.4 7.4 6.3 7.4 2.7 0 4.2-.5 5.5-1v1.6c-1.2.7-3 1.7-6 1.7-6.4 0-9-4-9-9.8zm12.3-2c0-3.8-1.3-5.5-4-5.5-3 0-4.6 1.8-4.8 5.8l8.7-.3zM2108.3 84l2.7-.7V69l-2.7-.5V67l5.4-.8.4.2v2.3h.3c1-1.3 2.7-2.6 4.8-2.6l1 .2v3c-.4-.2-1-.2-1.3-.2-1.7 0-3.2.5-4.4 1.3v13l3 .5V85h-9v-1zM2121.4 84.5l-.3-5h1.8l1 3.2c.7.4 2 .8 3.6.8 2.3 0 4-1 4-2.8 0-2-1-2.5-3.6-3.3l-2-.6c-3-1-4.5-2.4-4.5-5.2 0-3 2.2-5.3 6.7-5.3 2 0 4 .3 5 .7v4.7h-1.5l-1-2.8c-.5-.5-1.4-.7-3-.7-2 0-3.4.7-3.4 2.6 0 1.5 1 2.2 3.7 3l2 .7c3.3 1 4.6 2.6 4.6 5.2 0 3-2.4 5.6-7.2 5.6-2 0-4-.5-5.6-1zM2136.4 83.4c0-1.3 1-2.3 2.3-2.3s2.3 1 2.3 2.4c0 1.3-1 2.3-2.3 2.3s-2.3-1-2.3-2.3zM1467.2 123.6l3.2-.6v-20.7l-3.2-.6v-1.5h10v1.5l-3.2.6V123l3 .6v1.5h-9.8v-1.4zM1478.4 124l2.7-.7v-14l-2.6-.7v-1.4l5.4-1 .4.3v1.6h.2c1.8-1 4-1.8 6.2-1.8 3.4 0 5.2 1.3 5.2 5v12l2.7.6v1.2h-8.6v-1.2l2.5-.6V112c0-2.5-1.3-3.2-4-3.2-1.4 0-2.8.4-4 .8v13.6l2.5.6v1.2h-8.6v-1zM1499 116.3c0-6.8 3.8-10 9.5-10 1.4 0 2.4.2 3.4.5V101l-3-.6V99l5.7-.8.4.2v24.4l2.8.6v1.2l-5.4.8-.4-.2v-2h-.2c-1 1.3-2.6 2.2-5 2.2-3.4 0-7.8-2-7.8-9zm13 5.6v-12.7c-1-.5-1.8-1.2-4-1.2-3.2 0-5.6 2-5.6 7.8 0 5 2 7 5.4 7 1.7.2 3.3-.4 4-1zM1518.4 115.7c0-6 3.8-9.4 8.5-9.4 5.3 0 7.4 3.7 7.4 9.5h-12.6c0 5 2.4 7.4 6.3 7.4 2.7 0 4.2-.5 5.5-1v1.6c-1.2.7-3 1.7-6 1.7-6.4 0-9-4-9-9.8zm12.2-2c0-3.8-1.3-5.5-4-5.5-3 0-4.6 1.8-4.8 5.8l8.8-.3zM1534.8 131l2.7-.5V109l-2.7-.5V107l5.4-.8.4.2v1.7h.2c1.5-1 3.2-2 5.8-2 3.5 0 7 2 7 9 0 6.8-3.7 10.4-9.4 10.4-1.4 0-2.4 0-3.4-.3v5.4l3 .6v1.2h-9V131zm15.5-15.2c0-5.2-2-7-5.4-7-1.8 0-3.3.5-4.2 1v12.8c.8.5 1.7 1 3.8 1 3.4 0 5.7-2 5.7-7.8zM1555.4 115.7c0-6 3.8-9.4 8.5-9.4 5.3 0 7.4 3.7 7.4 9.5h-12.6c0 5 2.4 7.4 6.3 7.4 2.7 0 4.2-.5 5.5-1v1.6c-1.2.7-3 1.7-6 1.7-6.4 0-9-4-9-9.8zm12.3-2c0-3.8-1.3-5.5-4-5.5-3 0-4.6 1.8-4.8 5.8l8.7-.3zM1572.3 124l2.7-.7v-14l-2.7-.7v-1.4l5.4-1 .4.3v1.6h.3c1.8-1 4-1.8 6.2-1.8 3.4 0 5.2 1.3 5.2 5v12l2.7.6v1.2h-8.6v-1.2l2.6-.6V112c0-2.5-1.3-3.2-4-3.2-1.4 0-2.8.4-4 .8v13.6l2.5.6v1.2h-8.7v-1zM1593 116.3c0-6.8 3.7-10 9.4-10 1.4 0 2.4.2 3.4.5V101l-3-.6V99l5.8-.8.4.2v24.4l2.7.6v1.2l-5.4.8-.4-.2v-2h-.3c-1 1.3-2.6 2.2-5 2.2-3.4 0-7.8-2-7.8-9zm12.8 5.6v-12.7c-.8-.5-1.7-1.2-3.8-1.2-3.3 0-5.7 2-5.7 7.8 0 5 2 7 5.4 7 1.8.2 3.3-.4 4-1zM1612.3 115.7c0-6 3.8-9.4 8.5-9.4 5.4 0 7.5 3.7 7.5 9.5h-12.6c0 5 2.4 7.4 6.3 7.4 2.6 0 4-.5 5.4-1v1.6c-1.2.7-3 1.7-6 1.7-6.4 0-9-4-9-9.8zm12.2-2c0-3.8-1.3-5.5-4-5.5-3 0-4.6 1.8-4.8 5.8l8.8-.3zM1629.2 124l2.7-.7v-14l-2.8-.7v-1.4l5.4-1 .4.3v1.6h.2c1.8-1 4-1.8 6.2-1.8 3.4 0 5.2 1.3 5.2 5v12l2.7.6v1.2h-8.6v-1.2l2.6-.6V112c0-2.5-1.3-3.2-4-3.2-1.4 0-2.8.4-4 .8v13.6l2.5.6v1.2h-8.6v-1zM1649.6 116c0-7 4.4-9.8 9.7-9.8 1.7 0 3.5.3 4.8.7v4.5h-1.8l-.7-3c-.6-.3-1-.4-2.6-.4-3.7 0-6 2.5-6 7.5 0 5.7 3 7.5 6.4 7.5 2.5 0 4-.5 5-1v1.8c-1.2.8-3 1.7-6 1.7-5.6 0-8.8-3.7-8.8-9.5zM1665.4 115.7c0-6 3.8-9.4 8.5-9.4 5.3 0 7.4 3.7 7.4 9.5h-12.6c0 5 2.4 7.4 6.3 7.4 2.7 0 4.2-.5 5.5-1v1.6c-1.2.7-3 1.7-6 1.7-6.4 0-9-4-9-9.8zm12.2-2c0-3.8-1.3-5.5-4-5.5-3 0-4.6 1.8-4.8 5.8l8.8-.3zM1688.2 124l2.7-.7v-14l-2.8-.7v-1.4l5.4-1 .4.3v1.6h.2c1.8-1 3.6-1.8 6-1.8 2.2 0 3.6.6 4.4 2h.2c1.8-1 4-2 6.4-2 3.3 0 5 1.6 5 5v12l2.7.6v1.2h-8.7v-1.2l2.6-.6v-11c0-2.7-1.4-3.5-4-3.5-1.4 0-2.8.4-4 .8v13.8l2.7.5v1.2h-8.6v-1.2l2.8-.6v-11c0-2.7-1.3-3.5-3.7-3.5-1.6 0-2.6.4-4 .8v13.7l2.6.6v1.2h-8.6v-1zM1719.8 120.5c0-3.2 2.3-4.3 5.7-5l4.7-1v-2c0-2.8-.5-3.8-4-3.8-1.6 0-3.7.2-4.8.4v-1.4c1.4-.6 4-1.3 6.3-1.3 4 0 5.8 1.7 5.8 5.4v10.6c0 1.2.6 1.4 1.7 1.4h1v1.2c-.5 0-1.7.4-3 .4-1.4 0-2.4-.5-2.7-2h-.2c-1 1-2.5 2-5 2-3.2 0-5.5-1.8-5.5-5zm10.3 1.5v-5.3l-3.6.3c-2.5.2-3.3 1.3-3.3 3.2 0 2 1.2 3.2 3.5 3.2 1.6 0 3-.8 3.6-1.4zM1738.2 121v-12.3h-2.6v-1.3l3-1 .5-4.2h2.6v4.3h4.8v2h-4.8v11.6c0 2.2.6 3 3 3 .7 0 1.5 0 2.2-.2v1.3c-.8.6-2.2 1.2-3.8 1.2-3.3.2-4.8-1-4.8-4.3zM1750.4 121v-12.3h-2.6v-1.3l3-1 .5-4.2h2.5v4.3h4.8v2h-4.8v11.6c0 2.2.6 3 3 3 .7 0 1.5 0 2.2-.2v1.3c-.8.6-2.2 1.2-3.8 1.2-3.3.2-4.8-1-4.8-4.3zM1759.3 115.7c0-6 3.8-9.4 8.5-9.4 5.4 0 7.5 3.7 7.5 9.5h-12.6c0 5 2.4 7.4 6.3 7.4 2.6 0 4-.5 5.4-1v1.6c-1.2.7-3 1.7-6 1.7-6.4 0-9-4-9-9.8zm12.2-2c0-3.8-1.3-5.5-4-5.5-3 0-4.6 1.8-4.8 5.8l8.8-.3zM1776.2 124l2.7-.7v-14l-2.8-.7v-1.4l5.4-1 .4.3v2.3h.2c1-1.3 2.7-2.6 4.8-2.6h1v3h-1.4c-1.7 0-3.2.4-4.4 1.2v13l3 .5v1h-9v-1zM1789.3 124.5l-.3-5h1.7l1 3.2c.7.4 2 .8 3.6.8 2.3 0 4-1 4-2.8 0-2-1-2.5-3.6-3.3l-2-.6c-3-1-4.5-2.4-4.5-5.2 0-3 2.2-5.3 6.7-5.3 2 0 3.8.3 5 .7v4.7h-1.6l-1-2.8c-.5-.5-1.4-.7-3-.7-2 0-3.4.7-3.4 2.6 0 1.5 1 2.2 3.6 3l2 .7c3.3 1 4.6 2.6 4.6 5.2 0 3-2.4 5.6-7.2 5.6-2 0-4-.5-5.7-1zM1804.3 123.4c0-1.3 1-2.3 2.3-2.3s2.3 1 2.3 2.4c0 1.3-1 2.3-2.4 2.3s-2.3-1-2.3-2.3z"/></g><g><path d="M1468.6 170.6l2.8-.7v-18.7l-2.8-.7v-4h14c6.4 0 10 2.4 10 7 0 3.4-1.2 5.5-5 6.5v.3c4.4.6 6.3 2.6 6.3 6.7 0 4.7-3.3 7.5-10.7 7.5h-14.6v-4zm12.7-12.2c2 0 3.3-1 3.3-3.6 0-2.8-1.2-3.6-3.4-3.6h-2v7.2h2zm.3 11.7c2.4 0 3.7-1 3.7-3.7 0-2.8-1.3-4-3.7-4h-2.3v7.8h2.3zM1495 163.8c0-7 4.2-11 10.7-11 6.6 0 9.7 3.2 9.7 12h-13c.5 4 2.5 5.2 6 5.2 2.7 0 4.5-.5 6-1v4c-1.5 1-4 2-8 2-7.5 0-11.5-4-11.5-11.2zm13.3-2.5c0-3.3-1-4.3-2.7-4.3-1.6 0-2.8 1-3 4.6l5.7-.3zM1516.5 164c0-7.8 4.8-11.3 12-11.3 2.5 0 5 .4 6.5.8v6.7h-4.7l-.6-3c-.4 0-.7-.2-1.6-.2-2.3 0-3.7 1.6-3.7 6.3 0 5 2.2 6.6 5.8 6.6 2 0 4-.5 5-1v4c-1.2 1-3.6 2-7.3 2-7.5 0-11.2-4.2-11.2-11zM1536.2 164c0-7.4 5-11.3 11-11.3 7 0 11 4 11 11 0 7.3-4.8 11.3-11 11.3-7 0-11-4.3-11-11zm14.4 0c0-5.5-1.4-7-3.4-7s-3.3 1.3-3.3 6.7c0 5.5 1.3 7 3.3 7 2 0 3.3-1.5 3.3-6.7zM1559 171l2.4-.7V158l-2.4-.6v-3.7l8.8-1 .6.4v2.3h.2c1.8-1.5 3.8-2.5 6.8-2.5 2.2 0 4 .8 5 2.7 2-1.5 4.2-2.7 7.2-2.7s5.5 1.6 5.5 5.4v12.2l2.2.6v3.6h-11V171l1.6-.4v-9.8c0-1.8-.7-2.4-2.4-2.4-1 0-1.7.2-2.5.6v11.7l1.6.4v3.7H1572V171l1.6-.3V161c0-2-.7-2.5-2.3-2.5-1 0-1.7.2-2.6.6v11.7l1.6.4v3.7H1559V171zM1595.7 163.8c0-7 4.3-11 10.8-11 6.6 0 9.7 3.2 9.7 12h-13c.5 4 2.5 5.2 6 5.2 2.7 0 4.5-.5 6-1v4c-1.5 1-4 2-8 2-7.6 0-11.5-4-11.5-11.2zm13.4-2.5c0-3.3-1-4.3-2.6-4.3s-2.8 1-3 4.6l5.7-.3zM1623 169.2c0-4.2 3-5.6 7.8-6.4l3.7-.7v-1c0-2-.8-3-4-3-2 0-4 .3-5.5.5v-4.2c2-.7 5.3-1.5 9-1.5 5.4 0 7.8 2.2 7.8 7v9.5c0 1 .6 1.3 1.4 1.3h.6v3.5c-.7.6-2.5 1-4.3 1-2.3 0-3.7-.6-4.3-2.4h-.2c-1 1.4-3 2.5-5.8 2.5-3.7 0-6.2-2.4-6.2-5.8zm11.5.8v-4.6h-2c-1.5.2-2.3 1-2.3 2.8 0 1.8.6 2.6 2.2 2.6 1 0 1.7-.4 2-.8zM1650.8 161c0-11 7-14.7 15.2-14.7 3.6 0 7 .6 8.8 1.3l.3 8.2h-4.7l-1.4-3.8c-1-.4-2-.6-3.5-.6-4.3 0-6.2 3-6.2 8.7 0 7.7 1.6 10 6 10 1 0 2 0 2.5-.3v-4.4l-2.5-.6v-4h12.2v4l-2.2.6v8.2c-2 .8-5.8 1.5-9.8 1.5-9 0-14.7-4-14.7-14zM1680.3 169v-11l-2.2-.7v-3.7l9-.8.6.3v14c0 1.8.6 2.5 2.4 2.5 1.3 0 2-.3 2.8-.6v-11l-2-.7v-3.7l8.7-.8.7.3v16.7l2.3.6v3.6l-8.7 1-.6-.4v-2.3h-.2c-1.4 1.4-3.5 2.7-6.4 2.7-4.6 0-6.3-2.2-6.3-6zM1703.4 169.2c0-4.2 3-5.6 7.8-6.4l3.7-.7v-1c0-2-1-3-4-3-2 0-4 .3-5.6.5v-4.2c2-.7 5.3-1.5 9-1.5 5.4 0 7.8 2.2 7.8 7v9.5c0 1 .6 1.3 1.4 1.3h.6v3.5c-.7.6-2.5 1-4.3 1-2.4 0-3.8-.6-4.4-2.4h-.2c-1 1.4-3 2.5-5.8 2.5-3.7 0-6.2-2.4-6.2-5.8zm11.5.8v-4.6h-2c-1.6.2-2.4 1-2.4 2.8 0 1.8.6 2.6 2.2 2.6 1 0 1.7-.4 2-.8zM1725.2 171l2.3-.7V158l-2.4-.6v-3.7l9-1 .5.4v3.3h.2c1-2 3-3.4 5.4-3.4h1.2v6.5l-2-.2c-2 0-3.2.2-4.4.8v10.4l3 .6v3.6h-12.6V171zM1742 164.3c0-8.6 4.5-11.6 10.3-11.6 1.7 0 2.6.2 3.5.6v-3.5l-2.5-.6v-3.7l9.2-1 .7.4v24.7l2.3.6v3.6l-8.2 1-.6-.4v-2h-.2c-1 1.4-3.3 2.3-6 2.3-4.2 0-8.6-2.5-8.6-10.7zm13.7 5v-11.4c-.6-.5-1-1-2.4-1-2.2 0-3.7 1.3-3.7 6.5 0 4.7 1.2 6.3 3.5 6.3 1.2 0 2-.3 2.7-.6zM1766.3 171l2.3-.7V158l-2.5-.6v-3.7l9.3-1 .7.4v17.4l2.2.6v3.6h-11.8V171zm1.7-23.2c0-2.2 1.8-3.6 4-3.6s4 1.4 4 3.6-1.8 3.6-4 3.6c-2 0-4-1.3-4-3.6zM1779 169.2c0-4.2 3-5.6 7.8-6.4l3.7-.7v-1c0-2-.8-3-4-3-2 0-4 .3-5.5.5v-4.2c2-.7 5.3-1.5 9-1.5 5.4 0 7.8 2.2 7.8 7v9.5c0 1 .6 1.3 1.4 1.3h.6v3.5c-.7.6-2.5 1-4.3 1-2.3 0-3.7-.6-4.3-2.4h-.2c-1 1.4-3 2.5-5.8 2.5-3.8 0-6.2-2.4-6.2-5.8zm11.5.8v-4.6h-2c-1.5.2-2.3 1-2.3 2.8 0 1.8.6 2.6 2.2 2.6 1 0 1.7-.4 2-.8zM1800.8 171l2.3-.7V158l-2.3-.6v-3.7l8.8-1 .6.4v2.4h.3c2-1.6 4-2.6 7-2.6 3.3 0 5.6 1.5 5.6 5.3v12.4l2 .6v3.6h-11.2V171l1.7-.4v-10c0-1.6-.8-2.2-2.5-2.2-1 0-1.8.2-2.7.5v11.5l1.7.4v3.5h-11.3V171zM1832.5 173.6l-.4-7.5h5l1 3.5c1 .4 2 .6 3.4.6 2.5 0 3.7-1 3.7-2.7 0-1.8-1.6-2.6-4.3-3.6l-1.6-.6c-4.2-1.4-6.7-3.2-6.7-8 0-5.2 3-8.8 11-8.8 4 0 6.3.6 8 1l.3 7h-5l-.7-2.7c-.8-.4-1.7-.6-3-.6-2 0-3.5.7-3.5 2.3 0 1.6 1.3 2.3 4 3.2l1.5.6c5 1.8 7.8 3.3 7.8 8.7 0 5.7-4 9.2-11.3 9.2-3.2 0-7-.5-9-1.4zM1855.8 169v-11l-2.2-.7v-3.7l9-.8.5.3v14c0 1.8.7 2.5 2.5 2.5 1.3 0 2-.3 2.8-.6v-11l-2-.7v-3.7l8.7-.8.7.3v16.7l2.3.6v3.6l-8.7 1-.6-.4v-2.3h-.2c-1.4 1.4-3.5 2.7-6.4 2.7-4.5 0-6.2-2.2-6.2-6zM1878.3 179l2.3-.6V158l-2.4-.6v-3.7l8.8-1 .6.4v2.2h.2c1.2-1 3.3-2.4 6.2-2.4 3.8 0 7.7 2.3 7.7 10.3 0 9-4.7 12-11 12h-3v3.6l2.7.5v3.7h-12.2V179zm15.8-15c0-4.6-1-6-3.3-6-1.2 0-2 .2-2.7.5V170c.5.3 1 .6 2.4.6 2.3 0 3.7-1.2 3.7-6.7zM1902.5 179l2.3-.6V158l-2.4-.6v-3.7l8.8-1 .6.4v2.2h.2c1.2-1 3.3-2.4 6.2-2.4 3.8 0 7.7 2.3 7.7 10.3 0 9-4.8 12-11 12h-3v3.6l2.6.5v3.7h-12.2V179zm15.7-15c0-4.6-1.2-6-3.4-6-1.2 0-2 .2-2.7.5V170c.6.3 1.2.6 2.5.6 2.3 0 3.7-1.2 3.7-6.7zM1927 164c0-7.4 5-11.3 11-11.3 7.2 0 11.2 4 11.2 11 0 7.3-5 11.3-11 11.3-7 0-11-4.3-11-11zm14.5 0c0-5.5-1.4-7-3.4-7s-3.2 1.3-3.2 6.7c0 5.5 1.4 7 3.4 7s3.3-1.5 3.3-6.7zM1950 171l2.3-.7V158l-2.4-.6v-3.7l8.7-1 .6.4v3.3h.2c1-2 3-3.4 5.4-3.4h1v6.5l-2-.2c-2 0-3.2.2-4.4.8v10.4l3 .6v3.6H1950V171zM1969 169v-11.5h-2.2v-3.3l3-1 .8-5h5.8v5h4.3v4.3h-4.3v10.3c0 2 .8 2.4 2.6 2.4.7 0 1.4 0 2-.3v3.7c-1 .6-2.8 1.2-5.2 1.2-4.3 0-6.7-1.5-6.7-6zM1981.7 163.8c0-7 4.3-11 10.8-11 6.6 0 9.7 3.2 9.7 12h-13c.5 4 2.5 5.2 6 5.2 2.7 0 4.5-.5 6-1v4c-1.5 1-4 2-8 2-7.6 0-11.5-4-11.5-11.2zm13.4-2.5c0-3.3-1-4.3-2.6-4.3s-2.8 1-3 4.6l5.7-.3zM2003.2 171l2.3-.7V158l-2.4-.6v-3.7l9-1 .5.4v3.3h.2c1-2 3-3.4 5.4-3.4h1.2v6.5l-2-.2c-2 0-3.2.2-4.4.8v10.4l3 .6v3.6h-12.6V171zM2025.8 171l2.3-.7v-12.8h-2.3v-3.3l2.4-1v-1.8c0-5.2 4-6.8 8-6.8 2.2 0 3.8.4 4.6.8v4.4c-.7-.2-1.4-.2-2.4-.2-2 0-2.8.5-2.8 2.7v1h4v4.4h-4v12.8l2.7.6v3.7h-12.3V171z"/><path d="M2039.6 164c0-7.4 5-11.3 11-11.3 7 0 11 4 11 11 0 7.3-4.8 11.3-11 11.3-7 0-11-4.3-11-11zm14.3 0c0-5.5-1.5-7-3.5-7s-3.3 1.3-3.3 6.7c0 5.5 1.4 7 3.4 7s3.3-1.5 3.3-6.7zM2062.5 171l2.3-.7V158l-2.4-.6v-3.7l8.8-1 .6.4v3.3h.2c1-2 3-3.4 5.4-3.4h1v6.5l-1.8-.2c-2 0-3.3.2-4.5.8v10.4l3 .6v3.6h-12.5V171zM1475.6 219c-2.5-.3-5-.7-6.4-1.3l-.4-7h4.7l1.2 3.2 1.6.4 1-7-1-.3c-5-1-7.2-3.3-7.2-8 0-5 3.3-8.4 10.4-8.6l.3-2.4h3.5l-.3 2.5c2.4.2 4.2.7 5.3 1l.4 6.5h-4.6l-.6-2.6-1-.2-.8 6.3 1 .2c5 1.4 7.5 3.4 7.5 8.5 0 5.4-3.6 8.8-10.7 9l-.5 4.2h-3.5l.3-4.5zm2.4-18.7l.7-5.6c-2 .2-3 1.2-3 2.7 0 1.4.5 2.2 2.3 3zm2.5 8l-.8 6c2-.2 3.2-1.3 3.2-3 0-1.4-.8-2.3-2.5-3zM1500 214.6l3-.6v-3.6h-11.7v-3.8l13-16h6.5v15.6h3v4.2h-3v3.6l2.8.6v4H1500v-4zm3-8.4v-7.7h-.2l-6 7.6v.2h6.2zM1516.3 215.3c0-2 1.6-3.8 4-3.8 2.2 0 3.8 1.7 3.8 3.8 0 2-1.5 3.7-3.8 3.7s-4-1.7-4-3.7zM1527.5 217v-4.3c1.6.4 3.7.8 5.8.8 4.3 0 6.8-1.4 7.2-6.6-1.4.8-3.7 1.5-6 1.5-5.6 0-8.6-3.4-8.6-8.4s3.4-9.7 11-9.7c7.5 0 11.8 5 11.8 13.5 0 10.6-5.4 15-13.5 15-3.5.2-6-.7-7.8-1.7zm13-14v-1c0-5-1-7-3.4-7-2 0-3 1.6-3 4.7 0 3 1 4 3.3 4 1.3 0 2.3-.2 3.2-.6zM1551.8 217v-4.3c1.6.4 3.7.8 5.8.8 4.3 0 6.8-1.4 7.2-6.6-1.4.8-3.7 1.5-6 1.5-5.6 0-8.6-3.4-8.6-8.4s3.5-9.7 11-9.7c7.6 0 12 5 12 13.5 0 10.6-5.5 15-13.6 15-3.5.2-6-.7-7.8-1.7zm13-14v-1c0-5-1-7-3.4-7-2 0-3 1.6-3 4.7 0 3 1 4 3.2 4 1.3 0 2.4-.2 3.2-.6zM1580.2 223l2.3-.6V202l-2.4-.6v-3.7l9-1 .5.4v2.2h.2c1.2-1 3.3-2.4 6.2-2.4 3.7 0 7.6 2.3 7.6 10.3 0 9-4.7 12-11 12h-3v3.6l2.7.5v3.7H1580V223zm15.7-15c0-4.6-1.3-6-3.5-6-1.2 0-2 .2-2.7.5V214c.5.3 1 .6 2.4.6 2.3 0 3.7-1.2 3.7-6.7zM1604.8 207.8c0-7 4.3-11 10.8-11 6.6 0 9.7 3.2 9.7 12h-13c.5 4 2.5 5.2 6 5.2 2.7 0 4.5-.5 6-1v4c-1.5 1-4 2-8 2-7.5 0-11.5-4-11.5-11.2zm13.4-2.5c0-3.3-1-4.3-2.7-4.3-1.6 0-2.8 1-3 4.6l5.7-.3zM1626.3 215l2.3-.7V202l-2.4-.6v-3.7l8.8-1 .6.4v3.3h.2c1-2 3-3.4 5.4-3.4h1v6.5l-1.8-.2c-2 0-3.3.2-4.5.8v10.4l3 .6v3.6h-12.7V215zM1649 215l2.2-.7V202l-2.4-.6v-3.7l8.8-1 .6.4v2.3h.2c1.8-1.5 3.8-2.5 6.8-2.5 2.2 0 4 .8 5 2.7 2-1.5 4.2-2.7 7.2-2.7s5.5 1.6 5.5 5.4v12.2l2 .6v3.6h-11V215l1.6-.4v-9.8c0-1.8-.7-2.4-2.4-2.4-1 0-1.7.2-2.5.6v11.7l1.7.4v3.7h-10.6V215l1.6-.3V205c0-2-.7-2.5-2.3-2.5-1 0-1.6.2-2.5.6v11.7l1.6.4v3.7H1649V215zM1685.5 208c0-7.4 5-11.3 11-11.3 7 0 11 4 11 11 0 7.3-4.8 11.3-11 11.3-7 0-11-4.3-11-11zm14.4 0c0-5.5-1.5-7-3.5-7s-3.3 1.3-3.3 6.7c0 5.5 1.4 7 3.4 7s3.3-1.5 3.3-6.7zM1708.4 215l2.3-.7V202l-2.4-.6v-3.7l8.8-1 .7.4v2.4h.2c2-1.6 4-2.6 7-2.6 3.2 0 5.5 1.5 5.5 5.3v12.4l2 .6v3.6h-11V215l1.6-.4v-10c0-1.6-.7-2.2-2.4-2.2-1 0-1.8.2-2.7.5v11.5l1.6.4v3.5h-11.3V215zM1735 213v-11.5h-2.2v-3.3l3-1 .8-5h5.8v5h4.3v4.3h-4.3v10.3c0 2 .8 2.4 2.6 2.4.7 0 1.4 0 2-.3v3.7c-1 .6-2.8 1.2-5.2 1.2-4.3 0-6.7-1.5-6.7-6zM1748 215l2.3-.7v-20.5l-2.4-.6v-3.7l9-1 .7.4v10.3h.2c1.8-1.5 3.7-2.5 6.7-2.5 3.3 0 5.6 1.5 5.6 5.3v12.4l2 .6v3.6h-11V215l1.6-.4v-10c0-1.6-1-2.2-2.6-2.2-1 0-1.8.3-2.7.6v11.6l1.7.4v3.6H1748V215z"/></g><g><circle fill="#FCDD03" cx="1800.9" cy="205.1" r="21"/><path d="M1814.3 204.5l-1.7-1.7-10.5-10.5-1 1.2 8.7 10.4h-22.2v2.2h22.2l-8.7 10.4 1 1.2 10.6-10.5 1.7-1.7"/></g><circle fill="#FFF" cx="2218.5" cy="59.8" r="40"/><path d="M2225.7 37.5c0-11-3.3-12.7-7.3-12.7s-7.2 1.5-7.2 12.7 3.3 12.2 7.2 12.2c4 0 7.3-1.2 7.3-12.2zm-14.5 42c-5 0-6.5 3.7-6.5 6.5 0 4 3.6 7.7 14 7.7 11.8 0 15-3.3 15-7.7 0-3.8-2.8-6.4-7.6-6.4h-14.8zm-32.8-19.8c0 11 4.4 21 11.5 28.3v-.6c0-7.2 7-9.8 13-11-6-1.4-8.7-5.6-8.7-10 0-5.7 6.4-10.7 9.6-13h-.5c-5.5-3-9-8.6-9-15.8 0-6.2 2.6-11 7.2-14.4-13.7 6.2-23.3 20.2-23.3 36.5zm55.8-37c4.8 3 7.7 8 8 14V38c0 12-9.7 18.5-23.8 18.5-3.6 0-6-.2-9-1-1.4 1-2.5 2.5-2.5 4 0 2 1.7 3.4 3.8 3.4h19.6c12.2 0 18 5 18 15.7 0 3.6-.6 6.8-2 9.6 7.3-7.3 12-17.5 12-28.7 0-16.5-10-30.8-24.2-37z"/><g><path fill="none" d="M1718.5 304.7l107.8-18 6-46.7 154 20 293.7-49v-21.4h-592.8V400h47.2"/><path opacity=".8" fill="#C8C7C7" d="M1832.4 240l-6 46.7 160-26.7"/><path opacity=".7" fill="#FFE533" d="M2280 298.2V211l-293.6 49M1718.5 304.7l16 95.3h77l14.8-113.3"/><path opacity=".8" fill="#C8C7C7" d="M1826.3 286.7L1811.6 400H2280V298.2L1986.4 260"/><path opacity=".7" fill="#FFE533" d="M1826.3 286.7L1811.6 400H2280V298.2L1986.4 260"/></g><g><path d="M2077.5 290.6c-2 0-3.4 1.5-3.4 3.4 0 1.8 1.6 3.3 3.5 3.3 1.8 0 3.4-1.5 3.4-3.3 0-2-1.6-3.4-3.5-3.4M2101.7 318h10.4v-1.7l-2-1v-12.2c.8-.4 1.7-.6 2.7-.6 1.7 0 2.5.7 2.5 2.7v10.4l-2 1v1.6h10.4v-1.7l-2-1v-11.6c0-3.5-1.7-5-4.8-5-2.6 0-5 .8-6.8 2.4v-2.4h-.5l-8 1.3v1.6l2.3 1v13l-2 .8v1.6zM2072.3 299.7v1.8l2.2 1v12.8l-2 1v1.7h10.3v-1.8l-2-1v-16.7h-.5M2063.5 314.4c-.5.4-1 .7-2 .7-2.4 0-3.6-2-3.6-6.6 0-5.4 1.4-7.2 3.4-7.2 1 0 1.7.3 2 1v12.2zm0-15c-.8-.5-2-.8-3-.8-4.8 0-9.2 2.7-9.2 10.3 0 7.2 4.4 9.5 7.4 9.5 2.4 0 4-1 4.8-2h.2v2h.5l7.5-1V316l-2-1v-24.3h-.5l-8 1.3v1.7l2.2 1v4.7zM2037.3 299.7v1.7l2 1v13l-2 .8v1.8h11v-1.8l-2.6-1v-10c1-1 2.5-1.2 4.2-1.2.4 0 1 0 1.5.2v-5.5h-1c-2 0-4 1.3-5 3.8v-4h-.5l-7.7 1.2zM2023.8 301.2c.5-.2 1.4-.2 1.7-.2 2.4 0 3.2 1.2 3.2 3.6v2l-3.6.8c-3.6.7-6.4 1.8-6.4 5.7 0 3.3 2.2 5.4 5.2 5.4 2.4 0 4.6-1 5.5-2.7h.2c.3 2 2 2.7 4 2.7 1.5 0 3-.5 3.6-1V316l-2-1v-11c0-4.2-3-5.7-8-5.7-3.3 0-5.5.8-7.3 1.7v4.8h3l1-3.8zm4.8 13c-.4.5-1 .8-1.7.8-1.3 0-2.5-.7-2.5-2.8 0-1.5 1.4-3 2.8-3l1.3-.3v5.2zM2088 301.2c.3-.2 1.3-.2 1.6-.2 2.4 0 3.2 1.2 3.2 3.6v2l-3.6.8c-3.7.7-6.5 1.8-6.5 5.7 0 3.3 2.2 5.4 5.2 5.4 2.3 0 4.5-1 5.4-2.7h.2c.3 2 2 2.7 4 2.7 1.5 0 3-.5 3.6-1V316l-2-1v-11c0-4.2-3-5.7-8-5.7-3.4 0-5.6.8-7.4 1.7v4.8h3l1-3.8zm4.7 13c-.4.5-1 .8-1.7.8-1.2 0-2.4-.7-2.4-2.8 0-1.5 1.4-3 2.8-3l1.3-.3v5.2zM1999 312.5c0 3.3 1.6 6 5.5 6 2.5 0 4.8-1 6-2.6v2.5h.5l7.7-1v-1.3l-2-1v-16.6h-.6l-7.8 1.3v1.6l2 1V314c-.6.5-1 .7-2.2.7-1.6 0-2.6-.5-2.6-2.6v-13.3h-.5l-8 1.3v1.7l2 1v9.8zM1991 313.8h-6.8c-.7 0-1.4-.5-1.4-1.2 0-.5.4-1 .8-1.4 1 .3 2 .4 3 .4 5 0 8.3-2.2 8.3-6.3 0-2-1-3-2-4l3 1v-3.8l-5 1c-1.2-.5-3-1-4.4-1-5 0-8.3 2.4-8.3 6.5 0 2.5 1.3 4.4 3.2 5.4h.2c-1 .8-3.3 2.6-3.3 4.6 0 1.5 1 3 3 3.4-2 .4-4.5 1.3-4.5 3.8s3.6 5 9.5 5c7.4 0 10.6-3.4 10.6-8 .3-3.6-1.8-5.4-6-5.4m-4.2-13c1.4 0 2.3 1 2.3 4.3 0 3.6-1 4.3-2.2 4.3-1.4 0-2.3-.7-2.3-4.2s1-4.3 2.3-4.3m0 23.7c-3.5 0-4.7-1.4-4.6-2.7 0-1 .5-2 2-2.2h5.5c1.6 0 2.5 1 2.5 2 0 2-1.5 3-5.4 3M1977.3 309c0-8-3.5-10.5-8.4-10.5-5.8 0-9.5 3.7-9.5 10 0 6.4 3.4 10 10 10 3.4 0 6-1.8 7-3v-1.7c-1.2.4-2.6.6-5 .6-3.5 0-5.5-1.8-5.5-5.5h11.3zm-8.5-8.4c1.6 0 2.4 1 2.4 6l-5.3.2c0-4.8 1-6.2 2.8-6.2"/><path d="M1939 318h10.4v-1.7l-2-1v-12c.8-.6 1.6-1 2.6-1 1.7 0 2.6 1.2 2.6 2.8v10.4l-2 1v1.6h10.4v-1.7l-2-1v-11.6c0-3.5-2-5-5-5-2.5 0-5 .8-6.7 2.4v-10.5h-.5l-8 1.3v1.7l2.3 1v21l-2 1v1.5zM1927.6 312.8c0 3.5 1.7 5.7 5.4 5.7 2 0 4-.5 5.3-1.4V315c-.5.2-1.4.3-2 .3-1.8 0-2.3-.8-2.3-2.7v-10h4V299h-4v-4.4l-6.3 1v3.5l-3 .7v2.7h3v10.4zM1970.8 376.6c-.5 0-1-.2-1.5-.6l-.3-.2c-1-.7-2-1.6-1.5-3.5l5.5-17.4c-.6.8-8.5 7.6-15 11.3-.5.4-2.4 1.5-3.3 1.3-4.4-1-3-5.5-1.7-6.6l.8-.4c2.2-1 8.5-4.2 15.2-10.4 4.5-4.2 11.3-13 11.8-14 0-.4.2-.7.4-1 .3-.6 1-2.2 2.7-2 .2 0 .6 0 1 .2 2 1 2.8 2.6 2 4.3-.4 1.2-1 2.3-1.6 3.3-.4.8-1 1.6-1.3 2.4l-4 9.3c-1 2-1.7 4.2-2.4 6.2l-.3 1 .2-.3c1-1.5 4.5-6.7 8.5-12 4-5 11.2-14.2 12.6-15.2 1.8-1.2 4 .8 4.6 2 .6 1.2.7 2.5.3 3.5l-5.5 14.7-1.5 4-.7 2 1-.6 8.7-9.2 15-16c1-1 1.7-1.4 2.6-1.4.5 0 1 .2 1.3.4 1 .6 2.6 1.6 2 3.7l-6.4 21c-.8 2-1.5 4-2 6 0 .8-.2 2.4.4 3.5 1.7-.5 9.3-5.3 9.3-5.3s-.2-1 0-3.5c.4-7.5 3.6-13.3 7-17.3 3-3.8 7.4-6.4 10-6.2 2.3.2 4.6 2 4.4 5 0 2.3-.8 5-2 7.5-3.5 7-7 11.8-11 15.6l-1.7 1.2s.3.8 1.2.8c2 .2 3.7-.5 5-1.3 5-2.4 9.4-6 13.7-11.4 2.2-2.7 3.8-5 5-7.2 1-1.8 2-4 2.8-6 .4-.8.8-1.7 1-2.5.5-1 1.2-2.5 3-2.3.2 0 .6 0 1 .3 1 .5 1.8 1.3 2 2.2.4 1 .3 2-.3 3.2-1.6 3-7 15.4-7 15.4 0 .7 0 1.2.2 1.2 0 0 8.5-9.3 12.5-14 0 0 6.6-7 7-7.6.7-1 2.5-2.2 4.2-1.2 1.6 1 2.2 3.6 1.7 5.2l-4.6 13-1.4 4 1.2-1.2c6.2-8.4 19.7-21.5 23-21.3 1.4 0 2.4 1.4 3.2 2.8.4.6.8 1.6 0 3-1.7 2.3-6.2 14.4-6.6 15.3l-2.8 8.5c0 .3-.3 1-.2 1.2 0 0 11.2-8.7 15-13.2 6.6-8 16.8-33.3 17.3-34 1-2 2.7-3 4.6-2.8 2 .2 2.6 1.5 2.7 2.8.2 4.2-14.3 29.7-14.2 30 .6-.7 11.2-10 17.2-8 2.5.6 2.7 2.4 3 4.7 1 4.3-4.4 30.2-24.2 31-2.5 0-6-1.7-7.3-5.3 0 0-.6.4-1 0-1.2-.5-2-1.2-2.2-1.8-.2-.6 0-1.2.2-2.3.4-1.4 5.4-7.2-1-1.2-5.3 5-10.8 8.7-11.6 9.3-.8.5-1.8 1-2.8 1-1 0-2.2-.7-3-1.6-1-1.3-.5-3 .4-5 .7-1.7 1.8-6 2-7l1.5-4.4c1.2-3.6 2.4-7 3.5-10.7 0-.4.4-1.4.2-1.5l-7.5 8.4c-1.2 1.3-11 13-13.5 16.2-.7.8-1.5 1.2-2.4 1-.7 0-1.4-.4-2-.7-1.6-1-2-2.2-1.4-3.8.7-2 1.2-4 1.7-6l1-4c.5-1.7 1-3.4 1.7-5l.8-2.4.3-1c0 .4-16.2 19-18.6 21.3-.5.6-1.4 1.2-2.3 1-.4 0-2.2-1-3.4-2.2-.6-.6-1-1.2.3-3.6.2-.5.7-1.5.7-2v-.5c-.3 0-6 6.3-13.4 9.4-2 1-3.8 1.3-5.6 1-4.3-.3-6.6-3-6.6-3s-9.2 6.5-15 7.5c-1.3.2-3-.5-3.7-1.6-.8-1.2 0-5.4.7-8.4 1-4.7 4-13 4.4-14.6l1.8-5v-.2c-.2 0-.5 0-.6.2l-9 10c-3.3 3.6-6.6 7-9.8 10.7l-4.6 5.2c-.6.7-1.5 1.2-2.3 1-2-.5-3.5-2.6-3.3-3.8.3-2.7 1-5.5 1.8-9 .7-2.7 3.5-11.5 3.8-12.3v-.4s-.2 0-.2.2l-18 26-2.5 2.8c-.2.7-1 1-1.7 1m72-35.6c-3.6 1.3-8.2 8-9.7 15.8 3-3 9.5-13 9.8-15.8m78.8 25.8c15.4-2 22.5-27 14-22-5.7 3.3-13 11.2-16 19.6-.7 1.3-.4 3 2 2.4"/><path d="M2208 375.6c-2.7-.3-5-1.7-6.4-4-1.5-2.3-1.8-5.3-1-8 .7-1.8 2.7-3 5-4l7.3-3.7 1-2.8 2.8-7.8s-2.4 1.4-6.7 3c-4.3 1.4-11.2 3-13.8 3.2-2.6.3-3.6 1.2-4.5 2.3-2.5 3-5.6 7-8.3 10.5-.7 1-1.8 2.3-3.4 2-.5 0-2.2-.6-2.8-1.5-.5-.8-.7-1.4 0-3.3l3.7-6.8v-.4c-2.3 2.2-16 15-24 14.4-7.2-.6-8-9.4-8-9.4s-1.8.5-2.2.4c-.8 0-1.7-1-2.4-2.6-.5-1-1.3-3.2-.3-3.4l4.8-1.2c1.2-7.8 5-13 6.5-14.6 3.7-4.4 8-5.6 9-5.8 5-.7 7 2.5 7.2 5.4 0 4.3-1.8 8-3.4 10.3-4.7 7.2-12.5 9.6-12.5 9.6s0 4 2.6 4.3c6 .4 21-13 26.8-20 1.2-1.6 7.4-9.5 8-10 .3-.4.8-.5 1.8 0 1 .3 4 2.3 2.7 4.5l-5.4 9.2c.7-.7 1.6-1.2 3.3-1.3 11.2-1 21-5 24.4-9.5 1.7-2.4 4.4-4.8 7-3 2.2 2 2.6 4.3 1.8 5.8-.5 1-2 2.3-3.8 3.5l-4 11s19.4-9.8 22.7-11c1-.5 3.2 0 4.4 1.7.7 1 .6 2-.4 2.6-5.7 2.6-29.6 15-29.6 15s-3.7 10-5.4 12.8c-1 1.8-3.3 2.3-4.4 2.2zm2-11.4c-2 1-3.3 2-3.5 2.7 0 .3.2 1.2.8 1.6 1 .6 2.3-2.8 2.7-4.4m-50.8-20.7c-1.8 3.2-2.8 6.6-2.8 7 5.6-3.2 9.5-8 9-12-1 0-4.4 2-6.2 5"/></g></svg>