<svg xmlns="http://www.w3.org/2000/svg" width="91.5" height="24"><path d="M13.037 18.658c0 2.66-1.9 4.342-6.28 4.342-3.522 0-5.683-1.102-5.683-2.602 0-1.46 1.42-1.88 2.682-2.142v-.12c-1.2-.26-1.78-1.12-1.78-2 0-1.18 1.24-2.12 1.88-2.56v-.122c-1.12-.62-1.86-1.72-1.86-3.2 0-2.42 2-3.86 4.882-3.86.9 0 1.88.28 2.582.54h.16l2.858-.56h.222v2.22h-.262l-1.86-.66v.08c.7.642 1.16 1.26 1.16 2.362 0 2.44-1.98 3.74-4.86 3.74-.74 0-1.24-.04-1.84-.22-.28.198-.5.52-.5.818 0 .4.358.72.8.72h4c2.477.004 3.7 1.025 3.7 3.224zm-3.223 1.04c0-.58-.42-.858-1.34-.858h-3.92c-.3.34-.438.72-.438 1.26 0 .78.698 1.502 2.74 1.502 2.32-.002 2.958-.743 2.958-1.903zm-4.26-9.44c0 2.28.522 2.478 1.32 2.478.802 0 1.34-.24 1.34-2.48s-.52-2.58-1.34-2.58c-.798 0-1.32.3-1.32 2.58zm8.784-1.483l-1.26-.58v-1.02l4.662-.74h.318v7.902c0 1.28.62 1.5 1.56 1.5.622 0 .962-.102 1.343-.26V8.775l-1.24-.58v-1.02l4.66-.74h.302v9.582l1.26.66v.96l-4.54.5h-.3V16.66h-.14c-.722.88-1.9 1.54-3.402 1.54-2.26 0-3.222-1.62-3.222-3.562V8.775zm14.463 1.42h-1.74v-2.92c1.062-.34 2.32-.86 4.28-.86 3.002 0 4.803.882 4.803 3.4v6.503l1.182.562v.84c-.36.2-1.2.46-2.103.46-1.16 0-2.2-.38-2.38-1.58h-.102c-.5 1-1.82 1.602-3.222 1.602-1.98 0-3.222-1.28-3.222-3.143 0-2.3 1.48-2.76 3.96-3.182l2.143-.36v-1.5c0-1.42-.42-2.14-1.86-2.14-.18 0-.72.02-.96.04l-.78 2.277zm3.6 2.523l-.86.08c-.858.08-1.56.66-1.56 1.72 0 1.24.682 1.643 1.398 1.643.4 0 .82-.2 1.02-.42v-3.022zm9.735-6.34h.32v2.358h.12c.657-1.48 1.658-2.28 2.88-2.28.2 0 .438.02.56.06V9.78c-.22-.06-.62-.1-.938-.1-1 0-1.842.1-2.48.4v6.22l1.54.562v1.04h-6.44v-1.04l1.182-.562V8.716l-1.24-.58v-1.02l4.495-.74zm11.39-2.202l-1.238-.56v-1.02l4.662-.74h.298v14.162l1.182.66v.96l-4.422.5h-.32v-1.16h-.12c-.46.603-1.42 1.224-2.817 1.224-2.04 0-4.48-1.303-4.48-5.604 0-4.52 2.5-6.14 5.46-6.14.622 0 1.342.14 1.803.458v-2.74h-.007zm0 4.22c-.277-.22-.6-.4-1.26-.4-1.18 0-2.06 1.062-2.06 4.222 0 2.76.7 3.96 2.18 3.96.562 0 .88-.1 1.14-.2V8.397zm9.895-2.02h.3V16.3l1.202.56v1.04H58.8v-1.04l1.2-.562V8.716l-1.26-.58v-1.02l4.68-.74zm.36-2.62c0 1.08-.9 1.96-1.98 1.96-1.1 0-1.98-.88-1.98-1.96 0-1.102.882-1.98 1.98-1.98 1.08-.003 1.98.878 1.98 1.98zm3.94 6.44h-1.74v-2.92c1.062-.34 2.32-.86 4.28-.86 3 0 4.802.88 4.802 3.4v6.502l1.18.562v.84c-.358.2-1.198.46-2.1.46-1.16 0-2.2-.38-2.38-1.58h-.102c-.5 1-1.82 1.602-3.223 1.602-1.98 0-3.22-1.28-3.22-3.143 0-2.3 1.48-2.76 3.96-3.182l2.14-.36v-1.5c0-1.42-.42-2.14-1.858-2.14-.18 0-.72.02-.96.04l-.78 2.277zm3.6 2.522l-.86.08c-.86.08-1.56.66-1.56 1.72 0 1.24.68 1.643 1.4 1.643.4 0 .82-.2 1.02-.42v-3.022zm5.29 4.16l1.224-.56V8.714l-1.28-.58v-.98l4.642-.738h.3v1.46h.12c1.002-.92 2.36-1.46 3.88-1.46 1.86 0 2.802.92 2.802 2.98v6.92l1.222.563v1.02H83.4v-1.02l1.18-.562v-6.082c0-1.158-.48-1.58-1.5-1.58-.562 0-1.062.12-1.52.3v7.362l1.18.562v1.02h-6.12v-1.02h-.01z" fill="#630D4C"/></svg>