<svg xmlns="http://www.w3.org/2000/svg" width="97.5" height="24"><path fill="#E54EAC" d="M6 8.1h.1c.6-.7 1.7-1.3 3.1-1.3 1.9 0 3.9 1.5 3.9 5.7 0 4.6-2.6 6.1-6.1 6.1-2.1 0-3.9-.4-4.9-1v-13l-1.1-.6v-1l4.7-.7h.3v5.8zm3.3 4.7c0-3-.8-3.8-2-3.8-.6 0-1 .1-1.3.3v7.6c.2.2.6.4 1.2.4 1.4-.1 2.1-1.3 2.1-4.5zm16-.1c0 3.8-2.3 5.9-5.7 5.9-3.4 0-5.7-2.1-5.7-5.9 0-3.8 2.3-5.9 5.7-5.9 3.3 0 5.7 2.1 5.7 5.9zm-3.9 0c0-3.7-.6-4.3-1.8-4.3-1.2 0-1.9.6-1.9 4.3 0 3.7.6 4.3 1.9 4.3 1.2 0 1.8-.6 1.8-4.3zm15.9 0c0 3.8-2.3 5.9-5.7 5.9-3.4 0-5.7-2.1-5.7-5.9 0-3.8 2.3-5.9 5.7-5.9 3.4 0 5.7 2.1 5.7 5.9zm-3.9 0c0-3.7-.6-4.3-1.8-4.3-1.2 0-1.9.6-1.9 4.3 0 3.7.6 4.3 1.9 4.3 1.2 0 1.8-.6 1.8-4.3zm12.4-1.3l3.4 5.2 1.3.6v1h-4.5l-2.9-4.7h-.6v3.1l1.2.6v1h-6.1v-1l1.2-.6v-12.1l-1.4-.5v-1l4.7-.7h.3v9.9h.8l3-3.5-1.2-.6v-1h4.7v1l-1.4.6-2.5 2.7zm4.9 6.4v-3h1.6l.6 1.9c.3.2 1.2.4 1.8.4 1.1 0 1.8-.2 1.8-1.1 0-.8-.3-1.2-1.5-1.4l-1.4-.3c-2.1-.5-3-2.1-3-3.8 0-2.1 1.5-3.7 4.8-3.7 1.3 0 2.7.2 3.5.6v2.8h-1.6l-.5-1.5c-.3-.1-1-.3-1.6-.3-.9 0-1.5.4-1.5 1.1 0 .7.3 1.1 1.5 1.3l1.3.3c2.2.5 3 1.9 3 3.6 0 2.3-1.5 3.9-5 3.9-1.1-.1-2.7-.3-3.8-.8zm9.2-.6l1.2-.6v-12.3l-1.3-.6v-1l4.7-.7h.3v6.2h.1c1-.9 2.4-1.5 3.9-1.5 1.9 0 2.8.9 2.8 3v6.9l1.2.6v1h-6.1v-1l1.2-.6v-6.1c0-1.2-.5-1.6-1.5-1.6-.6 0-1.1.1-1.5.3v7.4l1.2.6v1h-6.1l-.1-1zm24.5-4.5c0 3.8-2.3 5.9-5.7 5.9s-5.7-2.1-5.7-5.9c0-3.8 2.3-5.9 5.7-5.9s5.7 2.1 5.7 5.9zm-3.9 0c0-3.7-.6-4.3-1.8-4.3-1.2 0-1.9.6-1.9 4.3 0 3.7.6 4.3 1.9 4.3 1.2 0 1.8-.6 1.8-4.3zm9.1-4.5c.6-.7 1.6-1.5 3-1.5 2.2 0 4 1.2 4 5.7 0 4.6-2.6 6.1-5.5 6.1-.9 0-1.3-.2-1.6-.3v3.4l1.4.6v1h-6.3v-1l1.2-.6v-12.5l-1.3-.6v-1l4.6-.7h.3v1.5l.2-.1zm3.2 4.5c0-2.6-.7-3.7-1.9-3.7-.6 0-1 .1-1.3.3v7.3c.3.2.7.4 1.2.4 1.1 0 2-1.1 2-4.3z"/></svg>