<svg xmlns="http://www.w3.org/2000/svg" width="97.5" height="24" viewBox="0 0 97.5 24"><path fill="#E54EAC" d="M5.961 8.081h.141c.641-.68 1.7-1.301 3.143-1.301 1.92 0 3.938 1.541 3.938 5.702 0 4.562-2.601 6.082-6.062 6.082-2.08 0-3.922-.439-4.881-1.002v-13.022l-1.24-.561v-1.02l4.66-.739h.301v5.861zm3.32 4.68c0-3.021-.82-3.801-1.979-3.801-.601 0-1.021.141-1.341.301v7.583c.22.18.561.379 1.221.379 1.4.001 2.099-1.261 2.099-4.462zm15.989-.099c0 3.8-2.34 5.899-5.74 5.899-3.4 0-5.74-2.103-5.74-5.899 0-3.802 2.34-5.882 5.74-5.882 3.401 0 5.74 2.08 5.74 5.882zm-3.899 0c0-3.701-.58-4.341-1.82-4.341-1.24 0-1.86.64-1.86 4.341 0 3.698.62 4.341 1.86 4.341 1.24 0 1.82-.643 1.82-4.341zm15.941 0c0 3.8-2.34 5.899-5.739 5.899-3.4 0-5.742-2.103-5.742-5.899 0-3.802 2.342-5.882 5.742-5.882s5.739 2.08 5.739 5.882zm-3.9 0c0-3.701-.58-4.341-1.819-4.341-1.24 0-1.86.64-1.86 4.341 0 3.698.62 4.341 1.86 4.341 1.239 0 1.819-.643 1.819-4.341zm12.362-1.24l3.441 5.241 1.26.562v1.039h-4.521l-2.881-4.723h-.642v3.12l1.2.562v1.039h-6.122v-1.037l1.2-.562v-12.124l-1.26-.58v-1.021l4.681-.74h.301v9.941h.819l3.041-3.479-1.2-.562v-1.038h4.681v1.039l-1.396.561-2.602 2.762zm4.937 6.423v-2.963h1.58l.641 1.86c.26.237 1.16.356 1.801.356 1.062 0 1.803-.238 1.803-1.119 0-.817-.279-1.16-1.479-1.422l-1.359-.299c-2.061-.461-3.021-2.101-3.021-3.762 0-2.141 1.463-3.721 4.764-3.721 1.318 0 2.658.199 3.539.58v2.761h-1.561l-.479-1.541c-.264-.14-1.041-.28-1.645-.28-.879 0-1.479.42-1.479 1.102 0 .658.303 1.06 1.541 1.318l1.318.28c2.16.46 2.979 1.897 2.979 3.603 0 2.34-1.479 3.939-5.041 3.939-1.201.006-2.822-.233-3.902-.692zm9.172-.602l1.221-.562v-12.382l-1.279-.579v-.98l4.643-.74h.3v6.242h.121c1-.921 2.358-1.46 3.881-1.46 1.858 0 2.801.92 2.801 2.979v6.921l1.222.562v1.021h-6.121v-1.021l1.183-.562v-6.082c0-1.158-.479-1.58-1.502-1.58-.562 0-1.062.119-1.521.301v7.362l1.183.562v1.021h-6.121v-1.021l-.011-.002zm24.527-4.581c0 3.8-2.34 5.899-5.74 5.899s-5.742-2.103-5.742-5.899c0-3.802 2.342-5.882 5.742-5.882s5.74 2.08 5.74 5.882zm-3.9 0c0-3.701-.58-4.341-1.82-4.341-1.238 0-1.857.64-1.857 4.341 0 3.698.619 4.341 1.857 4.341 1.24 0 1.82-.643 1.82-4.341zm9.101-4.421c.621-.74 1.602-1.461 3.041-1.461 2.201 0 4.021 1.24 4.021 5.682 0 4.562-2.562 6.082-5.502 6.082-.897 0-1.278-.184-1.642-.341v3.358l1.398.562v1.041h-6.32v-1.041l1.199-.562v-12.48l-1.261-.58v-.98l4.644-.738h.302v1.46l.12-.002zm3.162 4.481c0-2.602-.74-3.722-1.939-3.722-.621 0-.98.14-1.301.3v7.321c.26.183.66.358 1.18.358 1.16.002 2.06-1.056 2.06-4.257z"/></svg>