<svg xmlns="http://www.w3.org/2000/svg" width="91.5" height="24" viewBox="0 0 91.5 24"><path d="M13.037 18.658c0 2.66-1.9 4.342-6.281 4.342-3.521 0-5.682-1.102-5.682-2.602 0-1.461 1.42-1.881 2.682-2.142v-.119c-1.2-.26-1.78-1.121-1.78-2 0-1.181 1.239-2.121 1.88-2.562v-.121c-1.12-.619-1.859-1.721-1.859-3.199 0-2.42 2-3.861 4.881-3.861.899 0 1.881.28 2.582.54h.16l2.858-.56h.222v2.221h-.262l-1.859-.66v.08c.699.641 1.16 1.26 1.16 2.361 0 2.439-1.98 3.74-4.861 3.74-.739 0-1.239-.039-1.84-.221-.279.199-.5.52-.5.819 0 .399.358.72.801.72h4c2.476.004 3.698 1.025 3.698 3.224zm-3.223 1.041c0-.58-.42-.859-1.34-.859h-3.92c-.3.34-.438.721-.438 1.26 0 .78.698 1.502 2.739 1.502 2.321-.002 2.959-.743 2.959-1.903zm-4.259-9.442c0 2.28.521 2.479 1.32 2.479.801 0 1.34-.24 1.34-2.479 0-2.241-.52-2.581-1.34-2.581-.799.001-1.32.301-1.32 2.581zm8.783-1.482l-1.26-.58v-1.02l4.662-.74h.318v7.902c0 1.279.62 1.5 1.561 1.5.621 0 .961-.102 1.342-.26v-6.802l-1.24-.58v-1.02l4.66-.74h.301v9.582l1.26.66v.961l-4.541.5h-.3v-1.479h-.14c-.721.881-1.9 1.541-3.401 1.541-2.261 0-3.222-1.621-3.222-3.562v-5.863zm14.463 1.42h-1.74v-2.92c1.061-.34 2.32-.859 4.279-.859 3.002 0 4.803.881 4.803 3.4v6.502l1.182.562v.84c-.361.199-1.201.46-2.103.46-1.16 0-2.2-.38-2.38-1.581h-.102c-.5 1-1.82 1.603-3.222 1.603-1.979 0-3.222-1.28-3.222-3.143 0-2.3 1.479-2.76 3.961-3.181l2.142-.36v-1.5c0-1.42-.42-2.14-1.858-2.14-.182 0-.721.021-.961.04l-.779 2.277zm3.599 2.523l-.859.08c-.859.08-1.562.659-1.562 1.72 0 1.24.683 1.643 1.399 1.643.4 0 .82-.2 1.021-.422v-3.021zm9.735-6.341h.32v2.359h.119c.658-1.479 1.659-2.279 2.881-2.279.199 0 .438.02.561.06v3.261c-.221-.06-.62-.1-.939-.1-1 0-1.842.1-2.479.4v6.221l1.54.561v1.039h-6.441v-1.039l1.182-.562v-7.582l-1.239-.58v-1.021l4.495-.738zm11.391-2.201l-1.239-.561v-1.02l4.662-.739h.299v14.162l1.182.66v.961l-4.422.5h-.319v-1.16h-.12c-.46.602-1.42 1.223-2.818 1.223-2.041 0-4.481-1.303-4.481-5.604 0-4.521 2.501-6.141 5.461-6.141.621 0 1.341.14 1.802.459v-2.741l-.007.001zm0 4.22c-.278-.221-.6-.4-1.26-.4-1.181 0-2.062 1.062-2.062 4.222 0 2.761.701 3.96 2.181 3.96.562 0 .881-.1 1.141-.199v-7.583zm9.894-2.019h.301v9.922l1.201.561v1.039h-6.123v-1.039l1.201-.562v-7.582l-1.26-.58v-1.021l4.68-.738zm.361-2.621c0 1.08-.9 1.96-1.98 1.96-1.102 0-1.98-.88-1.98-1.96 0-1.102.881-1.98 1.98-1.98 1.08-.003 1.98.878 1.98 1.98zm3.939 6.439h-1.74v-2.92c1.062-.34 2.319-.859 4.28-.859 3.001 0 4.802.881 4.802 3.4v6.502l1.181.562v.84c-.359.199-1.199.46-2.102.46-1.16 0-2.2-.38-2.38-1.581h-.101c-.5 1-1.82 1.603-3.223 1.603-1.979 0-3.221-1.28-3.221-3.143 0-2.3 1.48-2.76 3.961-3.181l2.141-.36v-1.5c0-1.42-.42-2.14-1.859-2.14-.18 0-.719.021-.959.04l-.78 2.277zm3.6 2.523l-.859.08c-.86.08-1.562.659-1.562 1.72 0 1.24.682 1.643 1.4 1.643.4 0 .82-.2 1.021-.422v-3.021zm5.291 4.161l1.223-.562v-7.602l-1.28-.58v-.98l4.642-.738h.301v1.459h.119c1.002-.92 2.36-1.459 3.881-1.459 1.859 0 2.801.92 2.801 2.979v6.922l1.222.562v1.02h-6.121v-1.02l1.181-.562v-6.082c0-1.158-.479-1.58-1.5-1.58-.562 0-1.062.119-1.521.301v7.361l1.181.562v1.021h-6.121v-1.02h-.008z" fill="#630D4C"/></svg>