<svg xmlns="http://www.w3.org/2000/svg" width="91.5" height="24"><path fill="#630D4C" d="M13 18.7c0 2.7-1.9 4.3-6.3 4.3C3.2 23 1 21.9 1 20.4s1.4-1.9 2.7-2.1v-.1C2.6 17.9 2 17 2 16.1 2 15 3.2 14 3.9 13.6v-.1C2.7 12.8 2 11.7 2 10.3c0-2.4 2-3.9 4.9-3.9.9 0 1.9.3 2.6.5h.2l2.9-.6h.2v2.2h-.3l-1.9-.7V8c.7.6 1.2 1.3 1.2 2.4 0 2.4-2 3.7-4.9 3.7-.7 0-1.2 0-1.8-.2-.3.2-.5.5-.5.8 0 .4.4.7.8.7h4c2.4 0 3.6 1.1 3.6 3.3zm-3.2 1c0-.6-.4-.9-1.3-.9H4.6c-.3.3-.4.7-.4 1.3 0 .8.7 1.5 2.7 1.5 2.3 0 2.9-.7 2.9-1.9zm-4.2-9.4c0 2.3.5 2.5 1.3 2.5s1.3-.2 1.3-2.5c0-2.2-.5-2.6-1.3-2.6s-1.3.3-1.3 2.6zm8.7-1.5L13 8.2v-1l4.7-.7h.3v7.9c0 1.3.6 1.5 1.6 1.5.6 0 1-.1 1.3-.3V8.8l-1.2-.6v-1l4.7-.7h.3V16l1.3.7v1l-4.5.5h-.3v-1.5H21c-.7.9-1.9 1.5-3.4 1.5-2.3 0-3.2-1.6-3.2-3.6V8.8h-.1zm14.5 1.4h-1.7V7.3c1.1-.3 2.3-.9 4.3-.9 3 0 4.8.9 4.8 3.4v6.5l1.2.6v.8c-.4.2-1.2.5-2.1.5-1.2 0-2.2-.4-2.4-1.6h-.1c-.5 1-1.8 1.6-3.2 1.6-2 0-3.2-1.3-3.2-3.1 0-2.3 1.5-2.8 4-3.2l2.1-.4V10c0-1.4-.4-2.1-1.9-2.1h-1l-.8 2.3zm3.6 2.5l-.9.1c-.9.1-1.6.7-1.6 1.7 0 1.2.7 1.6 1.4 1.6.4 0 .8-.2 1-.4l.1-3zm9.7-6.3h.3v2.4h.1c.7-1.5 1.7-2.3 2.9-2.3.2 0 .4 0 .6.1v3.3c-.2-.1-.6-.1-.9-.1-1 0-1.8.1-2.5.4v6.2l1.5.6v1h-6.4v-1l1.2-.6V8.7l-1.2-.6v-1l4.4-.7zm11.4-2.2l-1.2-.6v-1l4.7-.7h.3V16l1.2.7v1l-4.5.4h-.3V17h-.1c-.5.6-1.4 1.2-2.8 1.2-2 0-4.5-1.3-4.5-5.6 0-4.5 2.5-6.1 5.5-6.1.6 0 1.3.1 1.8.5l-.1-2.8zm0 4.2c-.3-.2-.6-.4-1.2-.4-1.2 0-2.1 1.1-2.1 4.2 0 2.8.7 4 2.2 4 .6 0 .9-.1 1.1-.2V8.4zm9.9-2h.3v9.9l1.2.6v1h-6.1v-1l1.2-.6V8.7l-1.3-.6v-1l4.7-.7zm.4-2.6c0 1.1-.9 2-2 2s-2-.9-2-2 .9-2 2-2 2 .9 2 2zm3.9 6.4H66V7.3c1.1-.3 2.3-.9 4.3-.9 3 0 4.8.9 4.8 3.4v6.5l1.2.6v.8c-.4.2-1.2.5-2.1.5-1.2 0-2.2-.4-2.4-1.6h-.1c-.5 1-1.8 1.6-3.2 1.6-2 0-3.2-1.3-3.2-3.1 0-2.3 1.5-2.8 4-3.2l2.1-.4V10c0-1.4-.4-2.1-1.9-2.1h-1l-.8 2.3zm3.6 2.5l-.9.1c-.9.1-1.6.7-1.6 1.7 0 1.2.7 1.6 1.4 1.6.4 0 .8-.2 1-.4v-3zm5.3 4.2l1.2-.6V8.7l-1.3-.6v-1l4.6-.7h.3v1.5h.1c1-.9 2.4-1.5 3.9-1.5 1.9 0 2.8.9 2.8 3v6.9l1.2.6v1h-6.1v-1l1.2-.6v-6.1c0-1.2-.5-1.6-1.5-1.6-.6 0-1.1.1-1.5.3v7.4l1.2.6v1h-6.1v-1z"/></svg>