<svg xmlns="http://www.w3.org/2000/svg" width="97.5" height="24"><path fill="#E54EAC" d="M5.96 8.08h.142c.64-.68 1.7-1.3 3.143-1.3 1.92 0 3.938 1.54 3.938 5.702 0 4.562-2.6 6.082-6.062 6.082-2.08 0-3.92-.44-4.88-1.002V4.54L1 3.98V2.96l4.66-.74h.3v5.86zm3.32 4.68c0-3.02-.82-3.8-1.978-3.8-.6 0-1.02.14-1.34.3v7.584c.22.18.56.38 1.22.38 1.4 0 2.1-1.262 2.1-4.463zm15.99-.098c0 3.8-2.34 5.9-5.74 5.9-3.4 0-5.74-2.104-5.74-5.9 0-3.802 2.34-5.882 5.74-5.882 3.4 0 5.74 2.08 5.74 5.882zm-3.9 0c0-3.7-.58-4.34-1.82-4.34-1.24 0-1.86.64-1.86 4.34 0 3.698.62 4.34 1.86 4.34 1.24 0 1.82-.642 1.82-4.34zm15.942 0c0 3.8-2.34 5.9-5.74 5.9-3.4 0-5.74-2.104-5.74-5.9 0-3.802 2.34-5.882 5.74-5.882s5.74 2.08 5.74 5.882zm-3.9 0c0-3.7-.58-4.34-1.82-4.34-1.24 0-1.86.64-1.86 4.34 0 3.698.62 4.34 1.86 4.34 1.24 0 1.82-.642 1.82-4.34zm12.362-1.24l3.44 5.24 1.26.563v1.04h-4.52l-2.88-4.724h-.643v3.12l1.2.57v1.04h-6.12v-1.04l1.2-.56V4.54l-1.26-.58V2.937l4.68-.74h.3v9.94h.82l3.04-3.478-1.2-.57V7.06h4.69V8.1l-1.392.56-2.602 2.762zm4.937 6.423v-2.963h1.58l.65 1.86c.26.237 1.16.356 1.8.356 1.067 0 1.808-.238 1.808-1.12 0-.816-.28-1.16-1.48-1.42l-1.36-.3c-2.06-.46-3.02-2.1-3.02-3.762 0-2.14 1.46-3.72 4.764-3.72 1.32 0 2.66.198 3.54.58v2.76h-1.56l-.48-1.54c-.264-.14-1.04-.28-1.645-.28-.88 0-1.48.42-1.48 1.1 0 .66.304 1.06 1.54 1.32l1.318.28c2.16.46 2.98 1.896 2.98 3.602 0 2.34-1.48 3.94-5.04 3.94-1.2.005-2.823-.234-3.903-.693zm9.18-.602l1.22-.562V4.3l-1.28-.58v-.98L64.47 2h.3v6.242h.12c1-.92 2.36-1.46 3.882-1.46 1.86 0 2.8.92 2.8 2.98v6.92l1.224.562v1.02h-6.12v-1.02l1.182-.562V10.6c0-1.158-.48-1.58-1.502-1.58-.562 0-1.062.12-1.52.3v7.363l1.182.562v1.02h-6.12v-1.02l-.012-.002zm24.53-4.58c0 3.8-2.34 5.898-5.74 5.898s-5.74-2.1-5.74-5.89c0-3.8 2.34-5.88 5.74-5.88s5.74 2.08 5.74 5.885zm-3.9 0c0-3.702-.58-4.342-1.82-4.342-1.235 0-1.854.64-1.854 4.35 0 3.7.62 4.34 1.857 4.34 1.24 0 1.82-.64 1.82-4.34zm9.1-4.422c.625-.74 1.606-1.46 3.045-1.46 2.2 0 4.02 1.24 4.02 5.69 0 4.56-2.56 6.08-5.5 6.08-.9 0-1.28-.18-1.643-.34v3.36l1.397.565v1.04h-6.32v-1.04l1.2-.563V9.08l-1.27-.58v-.98l4.644-.737h.3v1.46l.12-.002zm3.166 4.49c0-2.6-.74-3.72-1.94-3.72-.62 0-.98.14-1.3.3v7.32c.26.187.66.36 1.18.36 1.16 0 2.06-1.054 2.06-4.255z"/></svg>