<svg xmlns="http://www.w3.org/2000/svg" width="199" height="20" viewBox="0 0 199 20"><path fill="#214583" d="M8.1 12.8h-3.6c-.4 0-.7-.3-.7-.6s.2-.6.4-.7c.5.2 1 .2 1.7.2 2.6 0 4.4-1.2 4.4-3.4 0-1-.4-1.5-1-2.1v-.2l1.7.6h.2v-2h-.2l-2.6.5h-.2c-.6-.2-1.5-.5-2.3-.5-2.6 0-4.4 1.3-4.4 3.5 0 1.3.7 2.3 1.7 2.9v.1c-.6.4-1.7 1.2-1.7 2.3 0 .8.5 1.6 1.6 1.8v.1c-1.1.2-2.4.6-2.4 1.9 0 1.3 1.9 2.3 5.1 2.3 3.9 0 5.7-1.5 5.7-3.9 0-1.9-1.1-2.8-3.4-2.8zm-2.2 5.5c-1.8 0-2.5-.6-2.5-1.3 0-.5.1-.8.4-1.1h3.5c.8 0 1.2.3 1.2.8.1 1-.5 1.6-2.6 1.6zm0-12.5c.7 0 1.2.3 1.2 2.3s-.5 2.2-1.2 2.2-1.2-.2-1.2-2.2.5-2.3 1.2-2.3zm6.8 6.3c0 1.7.9 3.2 2.9 3.2 1.3 0 2.4-.6 3.1-1.4h.1v1.3h.3l4.1-.5v-.9l-1.2-.5v-8.6h-.3l-4.2.7v.9l1.1.5v6.1c-.3.1-.6.2-1.2.2-.8 0-1.4-.2-1.4-1.4v-7h-.3l-4.2.7v.9l1.1.5v5.3zm14-6.1h.9c1.3 0 1.7.6 1.7 1.9v1.3l-1.9.3c-2.2.4-3.6.8-3.6 2.9 0 1.7 1.1 2.8 2.9 2.8 1.3 0 2.4-.5 2.9-1.4h.1c.2 1.1 1.1 1.4 2.1 1.4.8 0 1.6-.2 1.9-.4v-.8l-1.1-.5v-5.8c0-2.3-1.6-3.1-4.3-3.1-1.8 0-2.9.5-3.9.8v2.6h1.6l.7-2zm2.5 7.1c-.2.2-.6.4-.9.4-.6 0-1.3-.4-1.3-1.5 0-1 .6-1.5 1.4-1.5l.8-.1v2.7zm4.8-7.8v.9l1.1.5v6.8l-1.1.6v.9h5.8v-.9l-1.4-.5v-5.6c.6-.3 1.3-.4 2.2-.4.3 0 .6 0 .8.1v-2.9c-.1 0-.3-.1-.5-.1-1.1 0-2 .7-2.6 2.1h-.1v-2.2h-.2l-4 .7zm14.3-.2c-.4-.3-1.1-.4-1.6-.4-2.7 0-4.9 1.5-4.9 5.5 0 3.9 2.2 5 4 5 1.3 0 2.1-.6 2.5-1.1h.1v1h.3l4-.5v-.9l-1.1-.6v-12.5h-.3l-4.2.7v.9l1.1.5v2.4zm0 8.2c-.2.1-.5.2-1 .2-1.3 0-2-1.1-2-3.6 0-2.8.8-3.8 1.9-3.8.6 0 .9.2 1.1.4v6.8zm4.8-8v.9l1.1.5v6.8l-1.1.5v1h5.5v-.9l-1.1-.5v-9h-.3l-4.1.7zm2.8-4.8c-1 0-1.8.8-1.8 1.8s.8 1.8 1.8 1.8 1.8-.8 1.8-1.8c-.1-1-.9-1.8-1.8-1.8zm6.3 5.5h.9c1.3 0 1.7.6 1.7 1.9v1.3l-1.9.3c-2.2.4-3.6.8-3.6 2.9 0 1.7 1.1 2.8 2.9 2.8 1.3 0 2.4-.5 2.9-1.4h.1c.2 1.1 1.1 1.4 2.1 1.4.8 0 1.6-.2 1.9-.4v-.8l-1.1-.5v-5.8c0-2.3-1.6-3.1-4.3-3.1-1.8 0-2.9.5-3.9.8v2.6h1.6l.7-2zm2.5 7.1c-.2.2-.6.4-.9.4-.6 0-1.3-.4-1.3-1.5 0-1 .6-1.5 1.4-1.5l.8-.1v2.7zm4.9 1.9h5.5v-.9l-1.1-.5v-6.6c.4-.2.9-.3 1.4-.3.9 0 1.4.4 1.4 1.4v5.5l-1.1.5v.9h5.5v-.9l-1.1-.5v-6.2c0-1.9-.8-2.7-2.5-2.7-1.4 0-2.6.5-3.5 1.3h-.1v-1.3h-.3l-4.2.7v.9l1.2.5v6.8l-1.1.5v.9z"/><path fill="#52AEE9" d="M81.7 15h5.5v-.9l-1.1-.5v-6.6c.4-.2.9-.3 1.4-.3.9 0 1.3.4 1.3 1.4v5.5l-1.1.5v.9h5.5v-.9l-1.1-.5v-6.2c0-1.9-.8-2.7-2.5-2.7-1.4 0-2.6.5-3.5 1.3h-.1v-5.6h-.3l-4.1.6v.9l1.2.5v11.1l-1.1.5v1zm17.3-10.3c-3.1 0-5.2 1.9-5.2 5.3s2.1 5.3 5.2 5.3 5.2-1.9 5.2-5.3-2.1-5.3-5.2-5.3zm0 9.2c-1.1 0-1.7-.6-1.7-3.9s.6-3.9 1.7-3.9 1.6.6 1.6 3.9-.5 3.9-1.6 3.9zm5.8-12.7v.9l1.1.5v10.9l-1.1.5v1h5.5v-.9l-1.1-.5v-13h-.2l-4.2.6zm6.1 4.1v.9l1.1.5v6.8l-1.1.5v1h5.5v-.9l-1.1-.5v-9h-.3l-4.1.7zm2.8-4.8c-1 0-1.8.8-1.8 1.8s.8 1.8 1.8 1.8 1.8-.8 1.8-1.8c-.1-1-.9-1.8-1.8-1.8zm9.9 4.6c-.4-.3-1.1-.4-1.6-.4-2.7 0-4.9 1.5-4.9 5.5 0 3.9 2.2 5 4 5 1.3 0 2.1-.6 2.5-1.1h.1v1h.3l4-.5v-.9l-1.1-.6v-12.5h-.3l-4.2.7v.9l1.1.5v2.4zm0 8.2c-.2.1-.5.2-1 .2-1.3 0-2-1.1-2-3.6 0-2.8.8-3.8 1.9-3.8.6 0 .9.2 1.1.4v6.8zm7.8-7.3h.9c1.3 0 1.7.6 1.7 1.9v1.3l-2 .4c-2.2.4-3.6.8-3.6 2.9 0 1.7 1.1 2.8 2.9 2.8 1.3 0 2.4-.5 2.9-1.4h.1c.2 1.1 1.1 1.4 2.1 1.4.8 0 1.6-.2 1.9-.4v-.8l-1.1-.5v-5.9c0-2.3-1.6-3.1-4.3-3.1-1.8 0-2.9.5-3.9.8v2.6h1.6l.8-2zm2.6 7.1c-.2.2-.6.4-.9.4-.6 0-1.3-.4-1.3-1.5 0-1 .6-1.5 1.4-1.5l.8-.1v2.7zm6.5 4.9c-.3 0-.9 0-1.3-.1v1.1c.5.3 1 .5 1.7.5 1.6 0 2.8-.7 3.6-3l3.8-10.3 1-.5v-.8h-3.9v.9l1.1.5-1.7 5.3h-.1l-1.9-5.3 1.1-.5v-.9h-5.8v.9l.9.5 4.1 9.6-.2.4c-.5 1.2-1.3 1.7-2.4 1.7z"/><path fill="#006EC9" d="M154.4 4.7c-3.1 0-5.2 1.9-5.2 5.3s2.1 5.3 5.2 5.3 5.2-1.9 5.2-5.3-2.1-5.3-5.2-5.3zm0 9.2c-1.1 0-1.7-.6-1.7-3.9s.6-3.9 1.7-3.9 1.6.6 1.6 3.9-.5 3.9-1.6 3.9zm15.9-.3v-7h1.7v-1.7h-1.7v-1.1c0-1.2.3-1.7 1.2-1.7h.4l.4 1.4h1.7v-2.6c-1.1-.3-1.9-.3-2.9-.3-1.1 0-2.1.3-2.9.9-.9-.4-1.9-.5-2.8-.5-2.1 0-4.1 1.1-4.1 3.6v.4l-1.2.6v1.1h1.2v6.9l-1.1.5v.9h5.5v-.9l-1-.5v-7h2.3v6.9l-.8.5v1h5.5v-.9l-1.4-.5zm-5.6-9.5c0-1.2.3-1.7 1.2-1.7.6 0 1 .3 1.3.8-.1.3-.1.6-.1 1v.8h-2.3v-.9zm17.3 6.2c0-4.2-1.5-5.6-4.5-5.6s-5 1.9-5 5.3 1.8 5.3 5.2 5.3c1.9 0 3.4-.8 3.8-1.5v-1c-.7.2-1.4.3-2.7.3-1.8 0-2.8-.9-2.9-2.9h6.1zm-4.6-4.5c.8 0 1.3.4 1.3 3.1l-2.8.2c0-2.7.6-3.3 1.5-3.3zm5.1-.5v.9l1.1.5v6.8l-1.1.5v1h5.8v-.9l-1.4-.5v-5.6c.6-.3 1.3-.4 2.2-.4.3 0 .6 0 .8.1v-2.9c-.1 0-.3-.1-.5-.1-1.1 0-2 .7-2.6 2.1h-.1v-2.2h-.3l-3.9.7zm11.5 10c3.2 0 4.5-1.4 4.5-3.5 0-1.5-.7-2.8-2.7-3.2l-1.2-.3c-1.1-.2-1.4-.6-1.4-1.2s.5-1 1.3-1c.5 0 1.2.1 1.5.3l.4 1.4h1.4v-2.6c-.8-.3-2-.5-3.2-.5-3 0-4.3 1.4-4.3 3.3 0 1.5.9 3 2.7 3.4l1.2.3c1.1.2 1.3.5 1.3 1.3s-.7 1-1.6 1c-.6 0-1.4-.1-1.6-.3l-.6-1.7h-1.4v2.7c1.2.3 2.7.6 3.7.6z"/></svg>