<svg width="167" height="20" xmlns="http://www.w3.org/2000/svg"><path d="M124.678 14.645v.355h-4.068l-2.592-4.248h-.576v2.808l1.08.504v.936h-5.508v-.936l1.08-.504v-10.908l-1.134-.522v-.918l4.212-.666h.27v8.946h.738l2.736-3.132-1.08-.504v-.936h4.212v.936l-1.26.504-2.34 2.484 3.096 4.716 1.08.48v-2.082h1.422l.576 1.674c.234.216 1.044.324 1.62.324.954 0 1.62-.216 1.62-1.008 0-.738-.252-1.044-1.332-1.278l-1.224-.27c-1.854-.414-2.718-1.89-2.718-3.384 0-1.926 1.314-3.348 4.284-3.348 1.188 0 2.394.18 3.186.522v2.484h-1.404l-.432-1.386c-.234-.126-.936-.252-1.476-.252-.792 0-1.332.378-1.332.99 0 .594.27.954 1.386 1.188l1.188.252c1.944.414 2.682 1.71 2.682 3.24 0 2.106-1.332 3.546-4.536 3.546-1.06 0-2.485-.208-3.456-.607zm-40.338-14.081h-.27l-4.194.666v.918l1.116.504v11.718c.864.504 2.52.9 4.392.9 3.114 0 5.454-1.368 5.454-5.472 0-3.744-1.818-5.13-3.546-5.13-1.296 0-2.25.558-2.826 1.17h-.126v-5.274zm1.098 13.5c-.594 0-.9-.18-1.098-.342v-6.822c.288-.144.666-.27 1.206-.27 1.044 0 1.782.702 1.782 3.42 0 2.88-.63 4.014-1.89 4.014zm11.106-9.396c-3.06 0-5.166 1.872-5.166 5.292s2.106 5.31 5.166 5.31c3.06 0 5.166-1.89 5.166-5.31s-2.106-5.292-5.166-5.292zm.018 9.198c-1.116 0-1.674-.576-1.674-3.906s.558-3.906 1.674-3.906c1.116 0 1.638.576 1.638 3.906s-.522 3.906-1.638 3.906zm10.854-9.198c-3.06 0-5.166 1.872-5.166 5.292s2.106 5.31 5.166 5.31c3.06 0 5.166-1.89 5.166-5.31s-2.106-5.292-5.166-5.292zm.018 9.198c-1.116 0-1.674-.576-1.674-3.906s.558-3.906 1.674-3.906c1.116 0 1.638.576 1.638 3.906s-.522 3.906-1.638 3.906zm17.244.779v-.581l-.054-.024v.582l.054.023zm8.388.355h5.508v-.918l-1.062-.504v-6.624c.414-.162.864-.27 1.368-.27.918 0 1.35.378 1.35 1.422v5.472l-1.062.504v.918h5.508v-.918l-1.098-.504v-6.228c0-1.854-.846-2.682-2.52-2.682-1.368 0-2.592.486-3.492 1.314h-.108v-5.616h-.27l-4.176.666v.882l1.152.522v11.142l-1.098.504v.918zm17.154-10.332c-3.06 0-5.166 1.872-5.166 5.292s2.106 5.31 5.166 5.31c3.06 0 5.166-1.89 5.166-5.31s-2.106-5.292-5.166-5.292zm.018 9.198c-1.116 0-1.674-.576-1.674-3.906s.558-3.906 1.674-3.906c1.116 0 1.638.576 1.638 3.906s-.522 3.906-1.638 3.906zm9.972-7.884v-1.314h-.27l-4.176.666v.882l1.134.522v11.232l-1.08.504v.936h5.688v-.936l-1.26-.504v-3.024c.324.144.666.306 1.476.306 2.646 0 4.95-1.368 4.95-5.472 0-3.996-1.638-5.112-3.618-5.112-1.296 0-2.178.648-2.736 1.314h-.108zm1.098 7.866c-.468 0-.828-.162-1.062-.324v-6.588c.288-.144.612-.27 1.17-.27 1.08 0 1.746 1.008 1.746 3.348 0 2.88-.81 3.834-1.854 3.834z" fill="#DF4DAE"/><path d="M8.128 12.786h-3.6c-.396 0-.72-.288-.72-.648 0-.27.198-.558.45-.738.54.162.99.198 1.656.198 2.592 0 4.374-1.17 4.374-3.366 0-.99-.414-1.548-1.044-2.124v-.072l1.674.594h.234v-1.998h-.198l-2.574.504h-.144c-.63-.234-1.512-.486-2.322-.486-2.592 0-4.392 1.296-4.392 3.474 0 1.332.666 2.322 1.674 2.88v.108c-.576.396-1.692 1.242-1.692 2.304 0 .792.522 1.566 1.602 1.8v.108c-1.134.234-2.412.612-2.412 1.926 0 1.35 1.944 2.34 5.112 2.34 3.942 0 5.652-1.512 5.652-3.906 0-1.98-1.098-2.898-3.33-2.898zm-2.232 5.544c-1.836 0-2.466-.648-2.466-1.35 0-.486.126-.828.396-1.134h3.528c.828 0 1.206.252 1.206.774 0 1.044-.576 1.71-2.664 1.71zm.018-12.528c.738 0 1.206.306 1.206 2.322s-.486 2.232-1.206 2.232-1.188-.18-1.188-2.232.468-2.322 1.188-2.322zm6.606 6.264c0 1.746.864 3.204 2.898 3.204 1.35 0 2.412-.594 3.06-1.386h.126v1.332h.27l4.086-.45v-.864l-1.134-.594v-8.622h-.27l-4.194.666v.918l1.116.522v6.12c-.342.144-.648.234-1.206.234-.846 0-1.404-.198-1.404-1.35v-7.11h-.288l-4.194.666v.918l1.134.522v5.274zm13.752-6.048c.216-.018.702-.036.864-.036 1.296 0 1.674.648 1.674 1.926v1.35l-1.926.324c-2.232.378-3.564.792-3.564 2.862 0 1.674 1.116 2.826 2.898 2.826 1.26 0 2.448-.54 2.898-1.44h.09c.162 1.08 1.098 1.422 2.142 1.422.81 0 1.566-.234 1.89-.414v-.756l-1.062-.504v-5.85c0-2.268-1.62-3.06-4.32-3.06-1.764 0-2.898.468-3.852.774v2.628h1.566l.702-2.052zm2.538 7.038c-.18.198-.558.378-.918.378-.648 0-1.26-.36-1.26-1.476 0-.954.63-1.476 1.404-1.548l.774-.072v2.718zm4.572-7.758v.918l1.116.522v6.822l-1.062.504v.936h5.796v-.936l-1.386-.504v-5.598c.576-.27 1.332-.36 2.232-.36.288 0 .648.036.846.09v-2.934c-.108-.036-.324-.054-.504-.054-1.098 0-1.998.72-2.592 2.052h-.108v-2.124h-.288l-4.05.666zm14.166-.18c-.414-.288-1.062-.414-1.62-.414-2.664 0-4.914 1.458-4.914 5.526 0 3.87 2.196 5.04 4.032 5.04 1.26 0 2.124-.558 2.538-1.098h.108v1.044h.288l3.978-.45v-.864l-1.062-.594v-12.744h-.27l-4.194.666v.918l1.116.504v2.466zm0 8.154c-.234.09-.522.18-1.026.18-1.332 0-1.962-1.08-1.962-3.564 0-2.844.792-3.798 1.854-3.798.594 0 .882.162 1.134.36v6.822zm4.554-7.974v.918l1.134.522v6.822l-1.08.504v.936h5.508v-.936l-1.08-.504v-8.928h-.27l-4.212.666zm2.754-4.806c-.99 0-1.782.792-1.782 1.782 0 .972.792 1.764 1.782 1.764.972 0 1.782-.792 1.782-1.764 0-.99-.81-1.782-1.782-1.782zm6.138 5.526c.216-.018.702-.036.864-.036 1.296 0 1.674.648 1.674 1.926v1.35l-1.926.324c-2.232.378-3.564.792-3.564 2.862 0 1.674 1.116 2.826 2.898 2.826 1.26 0 2.448-.54 2.898-1.44h.09c.162 1.08 1.098 1.422 2.142 1.422.81 0 1.566-.234 1.89-.414v-.756l-1.062-.504v-5.85c0-2.268-1.62-3.06-4.32-3.06-1.764 0-2.898.468-3.852.774v2.628h1.566l.702-2.052zm2.538 7.038c-.18.198-.558.378-.918.378-.648 0-1.26-.36-1.26-1.476 0-.954.63-1.476 1.404-1.548l.774-.072v2.718zm4.626 1.944h5.508v-.918l-1.062-.504v-6.624c.414-.162.864-.27 1.368-.27.918 0 1.35.378 1.35 1.422v5.472l-1.062.504v.918h5.508v-.918l-1.098-.504v-6.228c0-1.854-.846-2.682-2.52-2.682-1.368 0-2.592.486-3.492 1.314h-.108v-1.314h-.27l-4.176.666v.882l1.152.522v6.84l-1.098.504v.918z" fill="#630040"/></svg>
