<svg xmlns="http://www.w3.org/2000/svg" width="111" height="20" viewBox="0 0 333 60"><path fill="#fff" d="M.6 45h16.8v-2.8l-3.2-1.5v-20.3c1.2-.5 2.6-.8 4-.8 3 0 4.3 1.2 4.3 4.3v16.7l-3.3 1.5v2.9h16.8v-2.8l-3.3-1.5v-19c0-5.7-2.6-8.3-7.7-8.3-4.2 0-8 1.5-10.7 4h-.3v-17h-.8l-12.8 2v2.6l3.6 1.6v34l-3.4 1.6v2.8zm52.4-31.6c-9.4 0-15.8 5.8-15.8 16.2 0 10.5 6.4 16.2 15.8 16.2 9.3 0 15.8-5.7 15.8-16.2 0-10.4-6.5-16.2-15.8-16.2zm0 28c-3.4 0-5-1.6-5-11.8 0-10.2 1.6-12 5-12s5 1.8 5 12-1.6 12-5 12zm17-38.4v2.7l3.6 1.6v33.3l-3.3 1.6v2.8h16.7v-2.8l-3-1.6v-39.6h-1l-13 2zm18 12.4v2.8l3.6 1.6v20.8l-3.3 1.6v2.8h16.7v-2.8l-3.2-1.6v-27.3h-.8l-13 2zm8.6-14.7c-3.1 0-5.6 2.3-5.6 5.3s2.5 5.5 5.5 5.5 5.5-2.5 5.5-5.5-2.5-5.3-5.5-5.3zm29.7 14c-1.2-.8-3.2-1-5-1-8 0-15 4.3-15 16.7 0 12 6.8 15.4 12.4 15.4 3.8 0 6.5-1.7 7.8-3.3h.3v3.2h1l12-1.4v-2.6l-3.2-2v-38.7h-1l-12.6 2v2.7l3.4 1.6v7.5zm0 25c-.7.3-1.6.6-3 .6-4.2 0-6-3.3-6-11 0-8.6 2.3-11.5 5.6-11.5 1.8 0 2.7.5 3.4 1v21zm23.4-22c.6-.2 2-.2 2.6-.2 4 0 5 2 5 5.8v4.2l-5.8 1c-6.8 1-11 2.4-11 8.7 0 5 3.5 8.6 9 8.6 3.8 0 7.5-1.6 8.8-4.4h.3c.5 3.3 3.4 4.4 6.6 4.4 2.5 0 5-.7 5.8-1.3v-2.3l-3.2-1.5v-18c0-6.8-5-9.3-13.2-9.3-5.4 0-9 1.5-11.8 2.4v8h4.8l2.2-6.2zm7.7 21.4c-.5.7-1.7 1.2-2.8 1.2-2 0-3.8-1-3.8-4.5 0-3 2-4.5 4.3-4.7l2.3-.2v8.1zm19.5 15c-1 0-2.7 0-4-.3v3.7c1.5 1 3.2 1.6 5.3 1.6 5 0 8.5-2.3 11-9l11.5-31.4 3-1.5v-2.8h-12v3l3.4 1.3-5.3 16h-.3l-5.7-16 3.2-1.7v-2.8h-17.7v3l3 1.4 12.3 29.2-.6 1.2c-1.4 3.6-3.8 5-7.2 5zm37.6-8.2c9.8 0 14-4.4 14-10.8 0-4.7-2.4-8.7-8.3-10l-3.6-.7c-3.4-.7-4.2-1.8-4.2-3.7 0-1.8 1.7-3 4-3 1.7 0 4 .4 4.6.8l1.3 4.2h4.4v-7.7c-2.4-1-6-1.6-9.7-1.6-9 0-13 4.4-13 10.3 0 4.5 2.5 9 8.2 10.3l3.6.8c3.3.8 4 1.7 4 4 0 2.4-2 3-5 3-1.6 0-4-.3-4.8-1l-1.8-5h-4.3v8c3 1.3 7.4 2 10.7 2zm15-.8h17v-2.8l-3.3-1.5v-20.4c1.3-.5 2.7-.8 4.2-.8 2.8 0 4.2 1.2 4.2 4.3v16.7l-3.3 1.5v2.9h17v-2.8l-3.4-1.5v-19c0-5.7-2.6-8.3-7.7-8.3-4.3 0-8 1.5-10.8 4h-.4v-17h-1l-12.7 2v2.6l3.5 1.6v34l-3.3 1.6v2.8zm52.5-31.7c-9.5 0-16 5.8-16 16.2 0 10.5 6.5 16.2 16 16.2 9.2 0 15.7-5.7 15.7-16.2 0-10.4-6.5-16.2-15.8-16.2zm0 28c-3.5 0-5.2-1.6-5.2-11.8 0-10.2 1.7-12 5-12 3.6 0 5 1.8 5 12s-1.4 12-5 12zm30.4-24v-4h-.8l-12.8 2v2.8l3.5 1.6v34.2l-3.3 1.6v3h17.4v-3l-4-1.5v-9c1 .3 2.2.8 4.6.8 8 0 15.2-4.2 15.2-16.7 0-12-5-15.6-11-15.6-4 0-6.8 2-8.5 4h-.3zm3.4 24c-1.5 0-2.6-.4-3.3-1v-20c1-.5 2-.8 3.6-.8 3.4 0 5.4 3 5.4 10.2 0 8.8-2.4 11.7-5.6 11.7z"/></svg>