<svg xmlns="http://www.w3.org/2000/svg" width="107" height="20" viewBox="0 0 107 20"><path fill="#63007F" d="M1.2 15h5.3v-.9l-.9-.5v-6.6c.4-.2.8-.3 1.2-.3.9 0 1.2.4 1.2 1.4v5.5l-.9.5v.9h5.1v-.9l-.9-.5v-6.7c.4-.2.8-.3 1.1-.3.9 0 1.2.4 1.2 1.4v5.5l-.9.5v1h5.3v-.9l-1-.5v-6.2c0-1.9-.9-2.7-2.6-2.7-1.4 0-2.4.5-3.3 1.3h-.1c-.2-.9-1-1.3-2.2-1.3-1.3 0-2.2.5-3.1 1.3h-.1v-1.3h-.3l-4.2.6v.9l1.2.5v6.8l-1.1.5v1zm22.5-10.3c-3.1 0-5.2 1.9-5.2 5.3s2.1 5.3 5.2 5.3 5.2-1.9 5.2-5.3-2.1-5.3-5.2-5.3zm0 9.2c-1.1 0-1.7-.6-1.7-3.9s.6-3.9 1.7-3.9 1.6.6 1.6 3.9-.5 3.9-1.6 3.9zm5.6 1.1h5.5v-.9l-1.1-.5v-6.6c.4-.2.9-.3 1.4-.3.9 0 1.4.4 1.4 1.4v5.5l-1.1.5v.9h5.5v-.9l-1.1-.5v-6.2c0-1.9-.8-2.7-2.5-2.7-1.4 0-2.6.5-3.5 1.3h-.1v-1.3h-.3l-4.2.7v.9l1.2.5v6.8l-1.1.5v.9zm21.5-4.7c0-4.2-1.5-5.6-4.5-5.6s-5 1.9-5 5.3 1.8 5.3 5.2 5.3c1.9 0 3.4-.8 3.8-1.5v-1c-.7.2-1.4.3-2.7.3-1.8 0-2.8-.9-2.9-2.9h6.1zm-4.6-4.5c.8 0 1.3.4 1.3 3.1l-2.8.2c.1-2.7.6-3.3 1.5-3.3zm6.8 12.2c-.3 0-.9 0-1.3-.1v1.1c.4.3 1 .5 1.7.5 1.6 0 2.8-.7 3.6-3l3.8-10.3 1-.5v-.8h-3.9v.9l1.1.5-1.7 5.3h-.1l-1.9-5.3 1.1-.5v-.9h-5.8v.9l.9.5 4.1 9.6-.2.4c-.5 1.2-1.3 1.7-2.4 1.7z"/><path fill="#BE77D4" d="M68 5.1c-.4-.3-1.1-.4-1.6-.4-2.7 0-4.9 1.5-4.9 5.5 0 3.9 2.2 5 4 5 1.3 0 2.1-.6 2.5-1.1h.1v1h.3l4-.5v-.9l-1.1-.6v-12.5h-.3l-4.2.7v.9l1.2.5v2.4zm0 8.2c-.2.1-.5.2-1 .2-1.3 0-2-1.1-2-3.6 0-2.8.8-3.8 1.9-3.8.6 0 .9.2 1.1.4v6.8zm14.1-3c0-4.2-1.5-5.6-4.5-5.6s-5 1.9-5 5.3 1.8 5.3 5.2 5.3c1.9 0 3.4-.8 3.8-1.5v-1c-.7.2-1.4.3-2.7.3-1.8 0-2.8-.9-2.9-2.9h6.1zm-4.5-4.5c.8 0 1.3.4 1.3 3.1l-2.8.2c0-2.7.6-3.3 1.5-3.3zm7.9.2h.9c1.3 0 1.7.6 1.7 1.9v1.3l-1.9.3c-2.2.4-3.6.8-3.6 2.9 0 1.7 1.1 2.8 2.9 2.8 1.3 0 2.4-.5 2.9-1.4h.1c.2 1.1 1.1 1.4 2.1 1.4.8 0 1.6-.2 1.9-.4v-.8l-1.1-.5v-5.8c0-2.3-1.6-3.1-4.3-3.1-1.8 0-2.9.5-3.9.8v2.6h1.6l.7-2zm2.6 7.1c-.2.2-.6.4-.9.4-.6 0-1.3-.4-1.3-1.5 0-1 .6-1.5 1.4-1.5l.8-.1v2.7zm4.6-11.9v.9l1.1.5v10.9l-1.1.5v1h5.5v-.9l-1.1-.5v-13h-.3l-4.1.6zm9.5 14.1c3.2 0 4.5-1.4 4.5-3.5 0-1.5-.7-2.8-2.7-3.2l-1.2-.3c-1.1-.2-1.4-.6-1.4-1.2s.5-1 1.3-1c.5 0 1.2.1 1.5.3l.4 1.4h1.4v-2.6c-.8-.3-2-.5-3.2-.5-3 0-4.3 1.4-4.3 3.3 0 1.5.9 3 2.7 3.4l1.2.3c1.1.2 1.3.5 1.3 1.3s-.7 1-1.6 1c-.6 0-1.4-.1-1.6-.3l-.6-1.7h-1.4v2.7c1.2.3 2.7.6 3.7.6z"/></svg>