<svg width="107" height="20" xmlns="http://www.w3.org/2000/svg"><path d="M1.198 15h5.328v-.918l-.882-.504v-6.624c.396-.18.756-.27 1.116-.27.918 0 1.242.378 1.242 1.422v5.472l-.882.504v.918h5.112v-.918l-.882-.504v-6.642c.378-.162.774-.252 1.116-.252.9 0 1.242.378 1.242 1.422v5.472l-.882.504v.918h5.31v-.918l-1.098-.504v-6.21c0-1.854-.882-2.7-2.556-2.7-1.368 0-2.358.486-3.258 1.314h-.09c-.36-.9-1.116-1.314-2.304-1.314-1.368 0-2.232.486-3.132 1.314h-.108v-1.314h-.27l-4.176.666v.882l1.152.522v6.84l-1.098.504v.918zm22.5-10.332c-3.06 0-5.166 1.872-5.166 5.292s2.106 5.31 5.166 5.31c3.06 0 5.166-1.89 5.166-5.31s-2.106-5.292-5.166-5.292zm.018 9.198c-1.116 0-1.674-.576-1.674-3.906s.558-3.906 1.674-3.906c1.116 0 1.638.576 1.638 3.906s-.522 3.906-1.638 3.906zm5.616 1.134h5.508v-.918l-1.062-.504v-6.624c.414-.162.864-.27 1.368-.27.918 0 1.35.378 1.35 1.422v5.472l-1.062.504v.918h5.508v-.918l-1.098-.504v-6.228c0-1.854-.846-2.682-2.52-2.682-1.368 0-2.592.486-3.492 1.314h-.108v-1.314h-.27l-4.176.666v.882l1.152.522v6.84l-1.098.504v.918zm21.438-4.734c0-4.23-1.458-5.58-4.482-5.58-3.006 0-4.968 1.926-4.968 5.256 0 3.42 1.782 5.328 5.238 5.328 1.854 0 3.366-.828 3.834-1.476v-.972c-.702.216-1.422.342-2.7.342-1.836 0-2.772-.936-2.934-2.898h6.012zm-4.536-4.482c.828 0 1.278.432 1.278 3.114l-2.79.162c.036-2.682.594-3.276 1.512-3.276zm6.768 12.186c-.342 0-.882-.036-1.278-.126v1.206c.45.306 1.008.522 1.692.522 1.638 0 2.754-.738 3.564-2.952l3.762-10.26 1.008-.504v-.936h-3.906v.936l1.08.468-1.728 5.274h-.072l-1.872-5.274 1.08-.468v-.936h-5.796v.936l.936.504 4.068 9.558-.162.378c-.504 1.188-1.278 1.674-2.376 1.674z" fill="#63007F"/><path d="M68.014 5.118c-.414-.288-1.062-.414-1.62-.414-2.664 0-4.914 1.458-4.914 5.526 0 3.87 2.196 5.04 4.032 5.04 1.26 0 2.124-.558 2.538-1.098h.108v1.044h.288l3.978-.45v-.864l-1.062-.594v-12.744h-.27l-4.194.666v.918l1.116.504v2.466zm0 8.154c-.234.09-.522.18-1.026.18-1.332 0-1.962-1.08-1.962-3.564 0-2.844.792-3.798 1.854-3.798.594 0 .882.162 1.134.36v6.822zm14.13-3.006c0-4.23-1.458-5.58-4.482-5.58-3.006 0-4.968 1.926-4.968 5.256 0 3.42 1.782 5.328 5.238 5.328 1.854 0 3.366-.828 3.834-1.476v-.972c-.702.216-1.422.342-2.7.342-1.836 0-2.772-.936-2.934-2.898h6.012zm-4.536-4.482c.828 0 1.278.432 1.278 3.114l-2.79.162c.036-2.682.594-3.276 1.512-3.276zm7.938.234c.216-.018.702-.036.864-.036 1.296 0 1.674.648 1.674 1.926v1.35l-1.926.324c-2.232.378-3.564.792-3.564 2.862 0 1.674 1.116 2.826 2.898 2.826 1.26 0 2.448-.54 2.898-1.44h.09c.162 1.08 1.098 1.422 2.142 1.422.81 0 1.566-.234 1.89-.414v-.756l-1.062-.504v-5.85c0-2.268-1.62-3.06-4.32-3.06-1.764 0-2.898.468-3.852.774v2.628h1.566l.702-2.052zm2.538 7.038c-.18.198-.558.378-.918.378-.648 0-1.26-.36-1.26-1.476 0-.954.63-1.476 1.404-1.548l.774-.072v2.718zm4.608-11.844v.918l1.134.522v10.908l-1.08.504v.936h5.508v-.936l-1.08-.504v-13.014h-.27l-4.212.666zm9.558 14.04c3.204 0 4.536-1.44 4.536-3.546 0-1.53-.738-2.826-2.682-3.24l-1.188-.252c-1.116-.234-1.386-.594-1.386-1.188 0-.612.54-.99 1.332-.99.54 0 1.242.126 1.476.252l.432 1.386h1.404v-2.484c-.792-.342-1.998-.522-3.186-.522-2.97 0-4.284 1.422-4.284 3.348 0 1.494.864 2.97 2.718 3.384l1.224.27c1.08.234 1.332.54 1.332 1.278 0 .792-.666 1.008-1.62 1.008-.576 0-1.386-.108-1.62-.324l-.576-1.674h-1.422v2.664c.972.414 2.43.63 3.51.63z" fill="#BE77D4"/></svg>