<svg xmlns="http://www.w3.org/2000/svg" width="220" height="238"><path fill="#995490" d="M196.328 1.202L0 24.062l22.917 197.603 196.332-22.858L196.324 1.202z"/><path fill="#70BACF" d="M210.957 11.656L15.953 1.266 5.41 197.522l195.003 10.39 10.544-196.254z"/><path fill="#332E2E" d="M212.817 238L202.53 22.684 6.587 32.178 16.417 238h196.4z"/><g fill="#fff"><path d="M87.76 13.272h-.22l-3.418.517v.794l.868.4V20l-.826.383v.894h4.423v-.894L87.76 20v-6.728zm17.06 6.817v-4.72c0-1.43-.744-2.085-2.053-2.085-1.053 0-1.99.394-2.688 1.028h-.09V13.28h-.22l-3.3.516v.797l.87.4v5.095l-.825.38v.808h4.377v-.806l-.784-.38v-4.94c.312-.125.593-.197.98-.197.7 0 .96.296.96 1.086v4.05l-.787.38v.804h4.385v-.807l-.83-.38zM83.18 10.08h-.218l-3.417.518v.798l.866.4v1.814c-.31-.225-.732-.324-1.16-.324-2.063 0-3.883 1.128-3.883 4.27 0 2.986 1.782 3.888 3.207 3.888.97 0 1.636-.43 1.96-.845h.086v.812h.22l3.167-.346V20.3l-.823-.45v-9.767zm-2.77 9.73c-.176.07-.31.15-.708.15-.895 0-1.426-.747-1.426-2.673 0-2.2.532-2.844 1.343-2.844.47 0 .59.127.79.28v5.085zm-54.592-1.02v-3.86h1.618v-1.473h-1.618v-1.83l-2.754.36v1.47l-1.104.16v1.313h1.104v4.176c0 1.65.81 2.326 2.348 2.326.81 0 1.69-.207 2.11-.45v-1.098c-.186.032-.44.065-.71.065-.55 0-.994-.4-.994-1.16zm14.56-5.506c-2.32 0-3.93 1.495-3.93 4.058 0 2.648 1.468 4.098 4.145 4.098 1.437 0 2.557-.62 3.05-1.112v-.848c-.542.17-1.098.267-2.093.267-1.33 0-2.18-.7-2.27-2.15h4.557c0-3.27-1.125-4.314-3.46-4.314zm-1.094 3.246c.062-2.042.39-2.303 1.052-2.303.505 0 .906.54.906 2.222l-1.958.08zm36.14-.755V13.33c-.085-.028-.255-.043-.383-.043-.85 0-1.46.64-1.913 1.682h-.086v-1.7h-.22l-3.316.522v.797l.87.4v5.095l-.828.384v.804h4.57v-.805l-.973-.385v-4.1c.44-.21.935-.282 1.632-.282.226 0 .496.03.653.072zm-6.865-.13c0-1.745-1.34-2.36-3.42-2.36-1.365 0-2.336.367-3.062.592v2.04h1.34l.49-1.41c.157-.016.453-.033.676-.033.996 0 1.207.32 1.207 1.32v.915l-1.4.252c-1.71.352-2.785.7-2.785 2.292 0 1.295.8 2.182 2.182 2.182.966 0 1.976-.416 2.32-1.113h.07c.12.84.848 1.098 1.66 1.098.627 0 1.29-.173 1.544-.31v-.675l-.824-.384v-4.41zm-2.77 4c-.14.156-.345.297-.63.297-.5 0-.814-.25-.814-1.052 0-.746.333-1.144.933-1.2l.513-.06v2.016zm29.74-4c0-1.745-1.337-2.36-3.416-2.36-1.366 0-2.337.367-3.062.592v2.04h1.34l.49-1.41c.156-.016.45-.033.675-.033.995 0 1.207.32 1.207 1.32v.915l-1.403.252c-1.707.352-2.783.7-2.783 2.292 0 1.295.803 2.182 2.183 2.182.97 0 1.98-.416 2.324-1.113h.07c.12.84.848 1.098 1.66 1.098.625 0 1.288-.173 1.542-.31v-.675l-.824-.384v-4.41zm-2.765 4c-.143.156-.346.297-.633.297-.5 0-.815-.25-.815-1.052 0-.746.335-1.144.934-1.2l.514-.06v2.016zM60.792 13.27h-.218l-3.418.52v.62l.87.4v4.726c-.222.112-.426.183-.772.183-.653 0-1.07-.157-1.07-1.046v-5.4h-.22l-3.327.517v.62l.78.4v4.164c0 1.353.757 2.468 2.324 2.468 1.054 0 1.875-.495 2.374-1.115h.085v1.08h.22l3.237-.348v-.676l-.865-.453v-6.66zm-24.83 2.098c0-1.428-.742-2.082-2.05-2.082-1.055 0-1.903.395-2.6 1.028h-.085v-4.238h-.22l-3.392.516v.798l.87.4v8.297l-.826.38v.806h4.375v-.807l-.784-.38v-4.94c.313-.125.593-.197.977-.197.703 0 .962.294.962 1.084v4.05l-.786.38v.806h4.383v-.806l-.83-.38v-4.72h.002z"/><circle cx="86.321" cy="11.455" r="1.457"/><path d="M50.194 19.488h-2.65c-.39 0-.596-.14-.596-.41 0-.196.136-.404.308-.552.377.09.792.137 1.228.137 1.99 0 3.425-.93 3.425-2.61 0-.644-.23-1.195-.73-1.598v-.104l1.143.39h.174v-1.56h-.15l-1.79.564h-.15c-.51-.288-1.11-.455-1.927-.455-1.995 0-3.44.96-3.44 2.686 0 .992.54 1.775 1.34 2.226v.12c-.684.264-1.31.897-1.31 1.637 0 .762.478 1.427 1.147 1.627v.105c-.877.183-1.684.527-1.684 1.372 0 1.044 1.356 1.765 3.804 1.765 3.044 0 4.42-1.166 4.42-3.02-.002-1.523-.846-2.32-2.566-2.32zm-1.71-5.225c.562 0 .84.355.84 1.71 0 1.358-.283 1.628-.84 1.628s-.83-.494-.83-1.623c0-1.126.266-1.71.83-1.71zm-.144 9.544c-1.302 0-1.598-.453-1.598-.994 0-.337.098-.55.298-.784h2.583c.64 0 .932.26.932.664 0 .668-.666 1.11-2.215 1.11z"/></g></svg>