<svg xmlns="http://www.w3.org/2000/svg" width="220" height="238"><path fill="#995490" d="M196.328 1.202l-196.328 22.86 22.917 197.603 196.332-22.858-22.921-197.605z"/><path fill="#70BACF" d="M210.957 11.656l-195.004-10.389-10.544 196.254 195.004 10.389 10.544-196.254z"/><path fill="#332E2E" d="M212.817 238l-10.286-215.316-195.945 9.494 9.83 205.822h196.401z"/><g fill="#fff"><path d="M87.76 13.272h-.219l-3.419.517v.798l.868.401v5.012l-.826.383v.894h4.423v-.894l-.827-.383v-6.728zm17.059 6.817v-4.718c0-1.429-.743-2.083-2.052-2.083-1.053 0-1.991.394-2.688 1.028h-.085v-1.037h-.219l-3.302.517v.797l.87.401v5.094l-.825.381v.807h4.377v-.806l-.784-.381v-4.937c.312-.125.593-.197.978-.197.703 0 .961.296.961 1.086v4.048l-.786.38v.808h4.384v-.807l-.829-.381zm-21.639-10.006h-.218l-3.417.518v.797l.866.401v1.813c-.313-.225-.736-.324-1.162-.324-2.065 0-3.885 1.128-3.885 4.27 0 2.986 1.782 3.888 3.207 3.888.969 0 1.635-.431 1.959-.845h.086v.812l.22.001 3.168-.347v-.766l-.823-.451-.001-9.767zm-2.77 9.729c-.176.07-.31.152-.708.152-.895 0-1.426-.748-1.426-2.674 0-2.198.532-2.843 1.343-2.843.47 0 .591.127.791.281v5.084zm-54.592-1.02v-3.862h1.618v-1.473h-1.618v-1.831l-2.754.361v1.47l-1.104.16v1.313h1.104v4.176c0 1.649.811 2.326 2.348 2.326.811 0 1.69-.207 2.111-.451v-1.097c-.187.032-.442.065-.712.065-.548 0-.993-.396-.993-1.157zm14.56-5.505c-2.319 0-3.931 1.495-3.931 4.058 0 2.648 1.469 4.098 4.146 4.098 1.437 0 2.557-.62 3.049-1.112v-.849c-.541.169-1.097.267-2.092.267-1.33 0-2.181-.7-2.269-2.15h4.556c0-3.27-1.125-4.312-3.459-4.312zm-1.094 3.246c.062-2.042.39-2.303 1.052-2.303.505 0 .906.542.906 2.223l-1.958.08zm36.141-.755v-2.448c-.086-.028-.256-.043-.384-.043-.854 0-1.462.64-1.917 1.682h-.086v-1.697h-.218l-3.318.524v.797l.869.401v5.094l-.827.384v.805h4.57v-.805l-.973-.384-.001-4.1c.44-.211.935-.282 1.632-.282.226.001.496.029.653.072zm-6.866-.129c0-1.746-1.337-2.362-3.415-2.362-1.366 0-2.337.368-3.063.593v2.042h1.34l.489-1.411c.158-.016.454-.033.677-.033.996 0 1.207.319 1.207 1.32v.915l-1.402.254c-1.709.352-2.785.699-2.785 2.292 0 1.296.801 2.183 2.182 2.183.968 0 1.978-.416 2.323-1.113h.071c.119.84.846 1.099 1.659 1.099.626 0 1.289-.174 1.543-.309v-.677l-.825-.383-.001-4.41zm-2.766 4c-.142.155-.345.296-.632.296-.5 0-.813-.249-.813-1.052 0-.746.333-1.144.933-1.201l.512-.059v2.016zm29.74-4c0-1.746-1.337-2.362-3.416-2.362-1.366 0-2.337.368-3.062.593v2.042h1.339l.49-1.411c.157-.016.452-.033.676-.033.996 0 1.208.319 1.208 1.32v.915l-1.403.254c-1.708.352-2.784.699-2.784 2.292 0 1.296.802 2.183 2.182 2.183.968 0 1.978-.416 2.323-1.113h.071c.12.84.847 1.099 1.658 1.099.626 0 1.289-.174 1.543-.309v-.677l-.824-.383-.001-4.41zm-2.765 4c-.143.155-.346.296-.633.296-.499 0-.815-.249-.815-1.052 0-.746.336-1.144.935-1.201l.513-.059v2.016zm-31.974-6.375h-.218l-3.418.518v.619l.869.401v4.726c-.221.112-.425.183-.771.183-.653 0-1.07-.156-1.07-1.045v-5.4h-.219l-3.328.517v.619l.782.401v4.163c0 1.353.756 2.468 2.323 2.468 1.052 0 1.873-.495 2.372-1.115h.085l.002 1.081.22.001 3.236-.348v-.675l-.864-.453v-6.661h-.001zm-24.829 2.097c0-1.429-.743-2.083-2.052-2.083-1.054 0-1.902.395-2.599 1.028h-.085v-4.238h-.219l-3.392.516v.798l.869.4v8.297l-.825.381v.807h4.377v-.807l-.783-.381v-4.937c.312-.125.592-.197.976-.197.704 0 .963.296.963 1.086v4.048l-.785.38v.808h4.383v-.807l-.831-.381v-4.718h.003z"/><circle cx="86.321" cy="11.455" r="1.457"/><path d="M50.194 19.488h-2.649c-.391 0-.597-.141-.597-.409 0-.197.136-.405.308-.553.377.09.792.137 1.228.137 1.99 0 3.425-.93 3.425-2.609 0-.645-.225-1.196-.728-1.599v-.104l1.145.386h.174v-1.558h-.151l-1.79.564h-.147c-.512-.288-1.11-.455-1.928-.455-1.996 0-3.439.961-3.439 2.687 0 .992.539 1.775 1.338 2.226v.12c-.684.261-1.308.894-1.308 1.634 0 .763.476 1.428 1.145 1.628v.105c-.876.184-1.683.528-1.683 1.373 0 1.043 1.356 1.764 3.804 1.764 3.043 0 4.418-1.165 4.418-3.018-.001-1.522-.845-2.319-2.565-2.319zm-1.71-5.225c.562 0 .839.355.839 1.711 0 1.357-.282 1.627-.839 1.627s-.83-.498-.83-1.627c0-1.126.266-1.711.83-1.711zm-.144 9.544c-1.302 0-1.598-.453-1.598-.994 0-.337.098-.549.298-.784h2.583c.64 0 .932.264.932.668-.001.668-.666 1.11-2.215 1.11z"/></g></svg>