<?xml version="1.0" encoding="utf-8"?>
<!-- Generator: Adobe Illustrator 15.1.0, SVG Export Plug-In . SVG Version: 6.00 Build 0)  -->
<!DOCTYPE svg PUBLIC "-//W3C//DTD SVG 1.1//EN" "http://www.w3.org/Graphics/SVG/1.1/DTD/svg11.dtd">
<svg version="1.1" id="Layer_1" xmlns="http://www.w3.org/2000/svg" xmlns:xlink="http://www.w3.org/1999/xlink" x="0px" y="0px"
	 width="86px" height="18px" viewBox="0 0 86 18" enable-background="new 0 0 86 18" xml:space="preserve">
<path fill="#332E2E" d="M81.379,17.684c-1.9,0-3.15-0.6-3.551-0.799c-0.398-0.201-0.6-0.551-0.648-0.951v-0.049l0.1-2
	c0-0.451,0.35-0.852,0.85-0.852c0.449,0,0.85,0.301,0.9,0.75l0.199,1.451c0.701,0.25,1.35,0.4,2.15,0.4c0.85,0,1.449-0.102,1.85-0.4
	c0.301-0.25,0.451-0.6,0.451-1.15c0-1-0.25-1.301-1.701-1.801c-0.5-0.148-1-0.299-1.6-0.5c-0.85-0.25-1.449-0.549-1.949-1.049
	c-0.551-0.65-0.9-1.451-0.9-2.451c0-2.05,1.549-3.35,4-3.35c1.6,0,2.699,0.449,3.15,0.65c0.398,0.199,0.648,0.549,0.6,1l-0.051,2.1
	c-0.049,0.5-0.449,0.8-0.9,0.8h-0.049c-0.35-0.051-0.65-0.351-0.75-0.75v-0.05l-0.201-1.35c-0.549-0.201-1.148-0.301-1.799-0.301
	c-0.6,0-1.15,0.15-1.5,0.35c-0.301,0.201-0.451,0.5-0.451,0.951c0,0.449,0.102,0.75,0.301,0.949c0.199,0.201,0.449,0.4,1.051,0.6
	c0.648,0.201,1.1,0.352,1.6,0.502c1.549,0.5,3.199,1.148,3.199,3.648c0,1.25-0.35,2.15-1.15,2.801
	C83.828,17.434,82.729,17.684,81.379,17.684L81.379,17.684z"/>
<path fill="#FFFFFF" d="M82.43,10.684c-0.551-0.15-2.201-0.551-2.852-1.1c-0.299-0.301-0.449-0.75-0.449-1.3
	c0-0.6,0.199-0.949,0.65-1.25c0.4-0.3,1.049-0.449,1.75-0.449c1,0,1.699,0.25,2.15,0.399l0.25,1.649
	c0.049,0.201,0.199,0.351,0.398,0.351c0.25,0,0.451-0.2,0.451-0.45l0.049-2c0.051-0.35-0.148-0.5-0.398-0.65
	c-0.4-0.199-1.4-0.6-2.9-0.6c-2.25,0-3.65,1.15-3.65,2.9c0,0.85,0.301,1.699,0.801,2.201c0.648,0.699,1.549,0.949,3.398,1.5
	c1.451,0.5,2.051,0.799,2.051,2.049c0,0.65-0.15,1.201-0.5,1.5c-0.449,0.35-1.15,0.6-2.1,0.6c-1.25,0-2.15-0.299-2.65-0.5
	l-0.199-1.648c0-0.25-0.201-0.451-0.451-0.451s-0.5,0.15-0.5,0.4l-0.1,2c0,0.25,0.199,0.551,0.449,0.65
	c0.5,0.25,1.602,0.75,3.352,0.75c1.25,0,2.25-0.301,2.949-0.85c0.699-0.551,1-1.5,1-2.551C85.328,11.684,83.879,11.135,82.43,10.684
	L82.43,10.684z"/>
<path fill="#332E2E" d="M4.28,17.635c-1.9,0-3.15-0.602-3.55-0.801c-0.4-0.199-0.6-0.551-0.65-0.949v-0.051l0.1-2
	c0-0.449,0.35-0.85,0.85-0.85c0.45,0,0.85,0.299,0.9,0.75l0.2,1.5c0.7,0.25,1.35,0.4,2.15,0.4c0.85,0,1.45-0.102,1.85-0.4
	c0.3-0.25,0.45-0.6,0.45-1.15c0-1-0.25-1.301-1.7-1.801c-0.5-0.148-1-0.299-1.6-0.5c-0.85-0.25-1.45-0.549-1.95-1.049
	c-0.55-0.701-0.95-1.5-0.95-2.5c0-2.05,1.55-3.351,4-3.351c1.6,0,2.7,0.451,3.15,0.65c0.4,0.2,0.65,0.551,0.6,1l-0.05,2.1
	c-0.05,0.5-0.45,0.8-0.9,0.8H7.13c-0.35-0.051-0.65-0.349-0.75-0.75V8.633l-0.2-1.399c-0.55-0.2-1.15-0.3-1.8-0.3
	c-0.6,0-1.15,0.15-1.5,0.35c-0.3,0.2-0.45,0.5-0.45,0.95s0.1,0.75,0.3,0.95c0.2,0.199,0.45,0.4,1.05,0.599
	c0.65,0.201,1.1,0.35,1.6,0.5c1.55,0.5,3.2,1.15,3.2,3.65c0,1.25-0.35,2.15-1.15,2.801C6.73,17.385,5.63,17.635,4.28,17.635z"/>
<path fill="#332E2E" d="M72.379,17.635c-2.15,0-3.699-0.701-4.699-2.051c-0.75-1.051-1.15-2.5-1.15-4.4c0-1.1,0.199-1.949,0.5-2.8
	c0.25-0.799,0.549-1.35,1.1-1.899c0.5-0.55,1.1-0.95,1.75-1.2s1.35-0.4,2.051-0.4c0.85,0,1.699,0.101,2.398,0.451
	c0.65,0.299,1.15,0.75,1.551,1.35c0.801,1.1,1.1,2.3,1.1,3.951c0,0.549-0.35,1.049-1.049,1.049h-6.25
	c-0.551,0-0.852-0.4-0.852-0.949c0-0.551,0.4-0.951,0.852-0.951l5.25-0.15c-0.102-0.75-0.4-1.449-0.602-1.849
	c-0.449-0.65-1.199-0.949-2.299-0.949c-0.65,0-1.5,0.199-2.25,0.949s-1.15,2.05-1.15,3.4c0,3.25,1.15,4.4,3.801,4.4
	c1.648,0,2.799-0.4,2.799-0.4c0.65-0.199,1.25,0.051,1.4,0.35c0.4,0.701-0.15,1.25-0.4,1.352
	C75.979,17.033,74.578,17.635,72.379,17.635z"/>
<path fill="#332E2E" d="M59.779,6.084c-0.65-0.851-1.701-1.301-3.201-1.301c-0.5,0-1.049,0.051-1.6,0.15c-1,0.199-1.6,0.4-1.6,0.4
	c-0.5,0.199-0.85,0.799-0.65,1.35c0.15,0.4,0.551,0.699,0.951,0.699c0.148,0,0.299,0,0.398-0.049c0.15-0.051,0.65-0.201,0.9-0.25
	c0.551-0.101,1.051-0.15,1.5-0.15c0.35,0,0.65,0,0.9,0.05c0.801,0.2,1.15,0.851,1.15,2.149v1.65c-0.1-0.398-0.5-0.75-0.951-0.75
	c-0.699,0-1.75,0.051-3.049,0.4c-0.9,0.25-2.201,0.801-2.701,2.301c-0.5,1.6,0.15,3.449,1.602,4.299
	c0.648,0.4,1.449,0.602,2.299,0.602c1,0,2.051-0.25,2.9-0.951c0.1,0.4,0.5,0.701,0.949,0.701c0.602,0,1.051-0.551,1.051-1.102v-7.4
	C60.629,7.684,60.328,6.784,59.779,6.084z M58.529,14.635c-0.551,0.5-1.4,0.898-2.15,1h-0.551c-0.6,0-1.049-0.102-1.449-0.4
	c-0.449-0.35-0.699-0.801-0.699-1.35c0-0.801,0.398-1.301,1.35-1.602c0.6-0.199,1.85-0.35,2.65-0.398c0.199,0,0.5-0.102,0.648-0.301
	c0.102-0.15,0.201-0.301,0.25-0.449L58.529,14.635z"/>
<path fill="#332E2E" d="M64.979,17.584c-0.949,0-1.699-0.25-2.199-0.801c-0.701-0.699-0.75-1.6-0.75-2.449v-7.25h-0.65
	c-0.551,0-1-0.5-1-1.051c0-0.55,0.4-1,1-1l0.65-0.05V3.334c0-0.551,0.449-1.051,1.049-1.051c0.551,0,1.051,0.45,1.051,1.051v1.649
	h2.25c0.551,0,1,0.45,1,1.05c0,0.551-0.4,1.051-1,1.051h-2.25v7.349c0,0.301,0,0.75,0.15,0.9s0.449,0.301,0.75,0.301
	c0.6,0,1.1-0.15,1.1-0.15c0.1-0.051,0.199-0.051,0.35-0.051c0.4,0,0.801,0.25,0.9,0.65c0.199,0.5-0.051,1.051-0.6,1.25h-0.051
	C66.129,17.484,65.578,17.584,64.979,17.584z"/>
<path fill="#332E2E" d="M50.18,17.484c-0.551,0-1.051-0.451-1.051-1.051l0.051-7.9c0-0.55-0.15-0.949-0.352-1.199
	c-0.25-0.25-0.699-0.4-1.35-0.4c-1.549,0-2.799,0.75-3.4,1.1v8.4c0,0.551-0.449,1.051-1.048,1.051c-0.55,0-1-0.451-1-1.051v-7.9
	c0-0.55-0.15-0.949-0.4-1.199c-0.25-0.301-0.7-0.4-1.35-0.4c-1.45,0-2.65,0.65-3.2,1v8.5c0,0.551-0.5,1.051-1.1,1.051
	c-0.55,0-0.95-0.451-0.95-1.051v-10.4c0-0.55,0.4-1,1-1c0.5,0,0.9,0.301,1,0.75c0.85-0.5,1.85-0.9,3.25-0.9s2.6,0.5,3.199,1.351
	c0.951-0.601,2.349-1.351,3.951-1.351c2.398,0,3.799,1.25,3.799,3.701v7.9C51.229,17.033,50.729,17.484,50.18,17.484z"/>
<path fill="#332E2E" d="M32.68,17.484c-0.55,0-1-0.451-1-1.051V2.883h-0.6c-0.55,0-0.95-0.35-1-0.85c0-0.25,0.05-0.449,0.2-0.65
	c0.15-0.199,0.4-0.299,0.65-0.35l1.65-0.3h0.1c0.25,0,0.55,0.101,0.75,0.3c0.2,0.2,0.3,0.5,0.3,0.75v14.65
	C33.68,16.984,33.23,17.484,32.68,17.484z"/>
<path fill="#FFFFFF" d="M32.68,1.133l-1.7,0.351c-0.3,0-0.5,0.2-0.5,0.5s0.25,0.5,0.6,0.5h1v13.95c0,0.35,0.3,0.65,0.6,0.65
	c0.35,0,0.65-0.301,0.65-0.6V1.734C33.33,1.284,32.83,1.133,32.68,1.133z"/>
<path fill="#FFFFFF" d="M47.529,5.284c-1.701-0.05-3.6,1.051-4.2,1.5c-0.5-1-1.5-1.5-2.95-1.5c-1.7,0-2.85,0.7-3.7,1.25v-0.55
	c0-0.351-0.3-0.601-0.6-0.601c-0.35,0-0.65,0.301-0.65,0.601v10.401c0,0.35,0.3,0.648,0.6,0.648c0.35,0,0.65-0.25,0.65-0.699v-8.6
	c0.65-0.399,2-1.2,3.7-1.2c0.8,0,1.3,0.15,1.6,0.5c0.3,0.301,0.5,0.85,0.5,1.45v7.901c0,0.35,0.3,0.648,0.6,0.648
	c0.351,0,0.649-0.299,0.649-0.6l-0.049-7.95c0-0.25,0-0.45-0.051-0.7c0.4-0.199,1.85-1.25,3.801-1.25c0.799,0,1.35,0.15,1.699,0.5
	c0.301,0.301,0.449,0.801,0.449,1.4v7.951c0,0.35,0.301,0.648,0.602,0.648c0.299,0,0.648-0.199,0.648-0.648V8.484
	C50.828,6.383,49.529,5.334,47.529,5.284z"/>
<path fill="#FFFFFF" d="M5.33,10.635c-0.55-0.15-2.2-0.551-2.85-1.102c-0.35-0.299-0.45-0.75-0.45-1.299c0-0.601,0.2-0.95,0.65-1.25
	c0.4-0.3,1.05-0.45,1.75-0.45c1,0,1.7,0.25,2.15,0.4l0.25,1.65c0.05,0.199,0.2,0.35,0.4,0.35c0.25,0,0.45-0.2,0.45-0.45l0.05-2
	c0.05-0.351-0.15-0.5-0.4-0.649c-0.4-0.201-1.4-0.601-2.9-0.601c-2.25,0-3.65,1.149-3.65,2.899c0,0.851,0.3,1.701,0.8,2.201
	c0.65,0.699,1.55,0.949,3.4,1.5c1.45,0.5,2.05,0.801,2.05,2.051c0,0.648-0.15,1.199-0.5,1.5c-0.45,0.35-1.15,0.6-2.1,0.6
	c-1.25,0-2.15-0.301-2.65-0.5l-0.25-1.6c0-0.25-0.2-0.451-0.45-0.451s-0.5,0.15-0.5,0.4l-0.1,2c0,0.25,0.2,0.551,0.45,0.65
	c0.5,0.25,1.6,0.75,3.35,0.75c1.25,0,2.25-0.301,2.95-0.85c0.7-0.551,1-1.5,1-2.551C8.23,11.684,6.78,11.084,5.33,10.635z"/>
<path fill="#FFFFFF" d="M74.229,5.734c-0.6-0.3-1.35-0.45-2.15-0.45c-0.648,0-1.35,0.1-1.898,0.301
	c-0.65,0.25-1.25,0.699-1.701,1.149c-0.5,0.5-0.85,1-1.1,1.75c-0.301,0.799-0.449,1.7-0.449,2.7c0,1.801,0.35,3.15,1.1,4.15
	c0.9,1.25,2.35,1.9,4.35,1.9c2.051,0,3.449-0.65,3.449-0.65c0.301-0.15,0.551-0.4,0.352-0.801c-0.15-0.35-0.602-0.299-0.951-0.199
	c0,0-1.15,0.4-2.9,0.4c-2.898,0-4.148-1.551-4.148-4.85c0-1.65,0.398-2.751,1.199-3.601c0.85-0.85,1.9-1.1,2.65-1.1
	c1.199,0,2,0.3,2.549,1.1c0.4,0.6,0.701,1.5,0.75,2.5l-5.5,0.1c-0.299,0-0.6,0.201-0.6,0.451c0,0.301,0.1,0.65,0.451,0.65h6.299
	c0.35,0,0.6-0.25,0.6-0.701c0-1.549-0.35-2.75-1-3.65C75.328,6.334,74.229,5.734,74.229,5.734z"/>
<path fill="#FFFFFF" d="M66.328,15.834c0,0-0.6,0.199-1.299,0.199c-0.451,0-0.85-0.199-1.051-0.398
	c-0.299-0.301-0.25-0.852-0.25-1.301v-7.65h2.65c0.35,0,0.6-0.35,0.6-0.65c0-0.35-0.299-0.6-0.6-0.6h-2.65v-2.15
	c0-0.3-0.35-0.55-0.65-0.55c-0.35,0-0.648,0.25-0.648,0.55v2.15h-1.051c-0.301,0-0.6,0.25-0.6,0.55s0.199,0.649,0.5,0.649h1.15v7.55
	c0,0.85,0.049,1.701,0.6,2.25c0.449,0.451,1.15,0.701,2,0.701c0.949,0,1.65-0.25,1.699-0.25c0.301-0.102,0.35-0.5,0.25-0.801
	C66.828,15.885,66.68,15.734,66.328,15.834z"/>
<path fill="#FFFFFF" d="M55.029,5.434c-0.951,0.15-1.5,0.35-1.5,0.35c-0.301,0.1-0.6,0.5-0.451,0.801
	c0.15,0.299,0.5,0.549,0.801,0.399l1.051-0.3c0.85-0.15,1.75-0.25,2.6-0.051c1.049,0.25,1.4,1.351,1.4,2.451v5.75
	c-0.65,0.551-1.551,1-2.4,1.15c-1.551,0.25-3.25-0.4-3.25-2.15c0-1.1,0.799-1.65,1.699-1.949c0.65-0.201,1.9-0.4,2.75-0.451
	c0.25,0,0.4-0.25,0.4-0.549c0-0.301-0.25-0.451-0.551-0.451c-0.75,0-1.648,0-2.799,0.35c-1.1,0.301-2.1,0.75-2.5,1.951
	c-0.5,1.449,0.1,3.1,1.4,3.949c1.6,0.951,3.949,0.6,5.25-0.699v0.449c0,0.35,0.35,0.6,0.648,0.6c0.352,0,0.602-0.299,0.602-0.6v-7.4
	c0-1.15-0.201-2-0.701-2.6C58.529,5.284,56.93,5.133,55.029,5.434z"/>
<path fill="#332E2E" d="M30.005,5.309c-0.201-0.2-0.451-0.3-0.75-0.3c-0.6,0-1.051,0.5-1.051,1.05l0.051,8.601
	c-0.6,0.35-1.9,0.949-3.351,0.949c-0.8,0-1.45-0.15-1.7-0.5c-0.05-0.1-0.25-0.35-0.25-1.1V6.059c0-0.55-0.5-1-1.05-1
	c-0.45,0-0.851,0.3-1,0.7c-0.351,1.1-2.15,2.65-5,2.65c-0.9,0-1.25-0.4-1.25-0.801c0-0.3,0.05-0.6,0.65-0.6
	c0.25,0,0.65,0.15,0.9,0.3c0.2,0.101,0.4,0.101,0.6,0.101c0.4,0,0.65-0.25,0.75-0.45c0.15-0.25,0.2-0.55,0.1-0.8
	c-0.1-0.25-0.25-0.45-0.5-0.601c-0.8-0.45-1.7-0.649-2.75-0.649c-1.45,0-2.8,0.5-3.75,1.449c-0.65,0.65-1.1,1.65-1.3,2.2
	c-0.3,0.851-0.45,1.8-0.45,2.8c0,1.051,0.1,1.949,0.35,2.65c0.2,0.75,0.55,1.449,1.05,2c1,1.1,2.4,1.699,4.05,1.699
	c1.45,0,2.75-0.5,3.8-1.449c0.55-0.5,0.95-1.201,1.25-2c0.3-0.801,0.45-1.801,0.45-2.9c0-0.801-0.1-1.449-0.2-2
	c0.4-0.2,0.85-0.45,1.2-0.7v5.35c0,0.949,0.25,1.699,0.699,2.299c0.7,0.9,1.801,1.352,3.351,1.352c1.5,0,2.7-0.551,3.399-0.951
	c0.15,0.451,0.551,0.801,1,0.801c0.551,0,1-0.5,1-1.1V6.059C30.304,5.759,30.205,5.509,30.005,5.309z M16.705,14.76
	c-0.6,0.6-1.4,0.9-2.35,0.9c-1.1,0-1.95-0.301-2.5-1c-0.55-0.701-0.9-1.951-0.9-3.352c0-1.648,0.35-2.899,1.1-3.599
	c0.2-0.15,0.45-0.3,0.7-0.45v0.3c0,1.65,1.3,2.701,3.3,2.701c0.65,0,1.3-0.1,1.75-0.201c0.05,0.301,0.05,0.75,0.05,1.25
	C17.854,12.76,17.405,14.109,16.705,14.76z"/>
<path fill="#FFFFFF" d="M29.804,6.059c0.102-0.35-0.199-0.649-0.5-0.649c-0.35,0-0.648,0.3-0.648,0.6v8.901
	c-0.551,0.35-2,1.049-3.701,1.049c-1,0-1.75-0.25-2.1-0.699c-0.15-0.201-0.351-0.5-0.351-1.4v-7.85c-0.05-0.35-0.3-0.55-0.6-0.55
	c-0.25,0-0.5,0.149-0.601,0.35c-0.399,1.25-2.399,3-5.45,3c-1.15,0-1.65-0.649-1.65-1.25c0-1.05,1.15-1.2,2.05-0.649
	c0.3,0.199,0.75,0.1,0.9-0.2c0.1-0.25,0.05-0.65-0.25-0.8c-0.75-0.4-1.6-0.601-2.55-0.601c-1.35,0-2.55,0.45-3.45,1.3
	c-0.5,0.5-0.9,1.301-1.2,2.051c-0.3,0.75-0.5,1.649-0.5,2.649c0,1.051,0.1,1.9,0.35,2.602c0.2,0.75,0.55,1.398,1,1.898
	c0.9,1,2.2,1.551,3.75,1.551c1.35,0,2.6-0.551,3.5-1.4c0.5-0.5,0.85-1.15,1.1-1.85c0.3-0.75,0.5-1.65,0.5-2.65
	c0-0.9-0.05-1.6-0.2-2.25c0.95-0.45,2-1.45,2-1.45v6.2c0,0.551,0.1,1.551,0.65,2.201c0.6,0.799,1.649,1.148,3.1,1.148
	c1.5,0,2.801-0.648,3.65-1.25l-0.051,0.4c0,0.35,0.301,0.65,0.65,0.65s0.65-0.4,0.65-0.75L29.804,6.059z M17.004,15.059
	c-0.65,0.65-1.6,1.051-2.65,1.051c-1.2,0-2.15-0.449-2.8-1.199s-1-2.15-1-3.602c0-1.799,0.45-3.099,1.25-3.899
	c0.4-0.4,1.2-0.75,1.75-0.851c-0.3,0.3-0.4,0.65-0.4,0.95c0,1.4,1.05,2.35,2.85,2.35c0.7,0,1.55-0.15,2.15-0.301
	c0.05,0.301,0.1,0.951,0.1,1.75C18.254,12.76,17.854,14.26,17.004,15.059z"/>
</svg>
