<svg xmlns="http://www.w3.org/2000/svg" width="140" height="32" viewBox="39.5 39.465 140 32" enable-background="new 39.5 39.465 140 32"><path fill="#333" d="M39.5 39.465h140v32h-140z"/><path fill="#fff" d="M93.612 42.834l-2.519.479c-.497.033-.852.402-.816.838.036.438.426.737.887.737l1.525-.067v21.606c0 .532.426.957.958.957s.958-.425.958-.957v-22.635c0-.248-.106-.497-.284-.674-.213-.178-.461-.284-.709-.284zm22.839 6.386c-2.838 0-5.463 1.703-6.42 2.378-.746-1.562-2.342-2.378-4.577-2.378-2.59 0-4.435 1.064-5.676 1.916v-.747c0-.531-.425-.957-.958-.957-.533 0-.958.426-.958.957v16.04c0 .532.426.958.958.958s.958-.426.958-.958v-13.485c.993-.603 3.122-1.809 5.676-1.809 1.207 0 2.058.283 2.554.851.463.497.676 1.278.676 2.271v12.171c0 .532.426.958.957.958.532 0 .959-.426.959-.958v-12.17c0-.391-.035-.781-.106-1.136.636-.317 2.903-1.986 5.959-1.986 1.207 0 2.094.283 2.592.851.425.497.638 1.278.638 2.271v12.171c0 .532.428.958.957.958.532 0 .959-.426.959-.958v-12.171c-.001-3.264-1.812-5.038-5.148-5.038zm-27.976.212c-.532 0-.958.426-.958.957v13.661c-.887.532-3.157 1.703-5.748 1.703-1.561 0-2.625-.392-3.157-1.064-.249-.319-.532-.852-.532-2.059v-12.263c0-.52-.423-.935-.953-.935-.422 0-.775.276-.916.622-.646 1.909-3.701 4.562-8.396 4.562-1.742 0-2.47-.987-2.47-1.931 0-1.653 1.833-1.841 3.225-1.01.455.271 1.052.206 1.297-.249.246-.456.07-1.052-.386-1.297-1.122-.596-2.454-.912-3.961-.912-2.068 0-3.961.736-5.329 2.068-.771.771-1.402 2.032-1.823 3.153-.42 1.192-.666 2.561-.666 4.104 0 1.611.176 2.874.526 3.926.315 1.121.841 2.067 1.507 2.84 1.367 1.577 3.365 2.418 5.749 2.418 2.103 0 3.996-.735 5.398-2.067.771-.771 1.368-1.752 1.788-2.874.456-1.192.666-2.698.666-4.241 0-1.362-.101-2.442-.331-3.356 1.483-.68 3.154-2.186 3.157-2.188v9.631c0 .852.106 2.13.923 3.192.922 1.207 2.483 1.846 4.682 1.846 2.342 0 4.506-.988 5.79-1.946v.669c0 .553.417.996.937.996s.937-.464.937-.996v-16.003c.001-.532-.424-.957-.956-.957zm-18.923 14.861c-1.017 1.018-2.454 1.578-4.066 1.578-1.858 0-3.33-.597-4.312-1.788-1.017-1.191-1.578-3.295-1.578-5.573 0-2.771.666-4.812 1.928-6.024.631-.604 1.817-1.229 2.728-1.361-.452.435-.619 1.06-.619 1.563 0 2.157 1.712 3.528 4.481 3.528 1.091 0 2.328-.22 3.233-.452.052.476.133 1.549.133 2.746-.001 2.24-.667 4.556-1.928 5.783zm-18.079-6.772c-.851-.213-1.49-.426-2.554-.781-.922-.318-1.525-.602-1.916-.991-.461-.462-.674-1.102-.674-1.951 0-.888.319-1.562.993-1.987.639-.426 1.597-.674 2.696-.674 1.561 0 2.661.354 3.335.639l.355 2.59c.071.283.319.532.639.567.39 0 .674-.284.71-.639l.106-3.122c.036-.391-.175-.785-.567-.958-.616-.271-2.2-.993-4.577-.993-3.441 0-5.605 1.774-5.605 4.577 0 1.348.425 2.447 1.206 3.264.639.675 1.49 1.171 2.767 1.525.994.284 1.667.496 2.519.78 2.271.744 3.087 1.312 3.087 3.264 0 1.029-.284 1.773-.887 2.271-.71.567-1.774.854-3.229.854-1.916 0-3.264-.462-4.009-.781l-.319-2.59c-.036-.355-.319-.638-.674-.638-.39 0-.745.281-.745.708l-.142 3.123c.036.425.284.743.709.957.746.354 2.484 1.136 5.18 1.136 1.916 0 3.406-.425 4.435-1.277 1.064-.887 1.596-2.164 1.596-3.761 0-3.445-2.2-4.402-4.435-5.112zm118.907 0c-.853-.213-1.491-.426-2.556-.781-.922-.318-1.524-.602-1.915-.991-.462-.462-.675-1.102-.675-1.951 0-.888.32-1.562.994-1.987.639-.426 1.596-.674 2.695-.674 1.561 0 2.66.354 3.336.639l.354 2.59c.07.283.318.532.639.567.391 0 .676-.284.71-.639l.106-3.122c.035-.391-.176-.785-.567-.958-.614-.271-2.2-.993-4.577-.993-3.441 0-5.605 1.774-5.605 4.577 0 1.348.427 2.447 1.207 3.264.639.675 1.49 1.171 2.767 1.525.994.284 1.669.496 2.521.78 2.271.744 3.088 1.312 3.088 3.264 0 1.029-.284 1.773-.889 2.271-.709.567-1.773.854-3.229.854-1.916 0-3.266-.462-4.01-.781l-.319-2.59c-.034-.355-.317-.638-.675-.638-.391 0-.744.281-.744.708l-.143 3.123c.035.425.285.743.711.957.744.354 2.482 1.136 5.18 1.136 1.914 0 3.404-.425 4.436-1.277 1.063-.887 1.596-2.164 1.596-3.761-.002-3.445-2.201-4.402-4.436-5.112zm-12.677-7.592c-.959-.461-2.059-.709-3.336-.709-1.028 0-1.985.177-2.874.497-.992.354-1.845.922-2.554 1.631-.78.782-1.385 1.774-1.774 2.91-.461 1.206-.673 2.59-.673 4.15 0 2.768.566 4.859 1.701 6.386 1.385 1.917 3.656 2.874 6.705 2.874 3.158 0 5.287-.993 5.357-1.028.496-.213.709-.781.461-1.207-.213-.39-.779-.532-1.277-.354 0 0-1.844.675-4.541.675-4.471 0-6.492-2.271-6.492-7.345 0-2.555.64-4.507 1.881-5.782 1.277-1.312 2.908-1.598 4.08-1.598 1.845 0 3.191.568 4.009 1.81.604.923.923 2.2 1.03 3.762l-8.547.187c-.496 0-.852.391-.852.887 0 .461.318.815.852.815l9.539-.009c.533 0 .959-.391.959-.923 0-2.412-.498-4.328-1.455-5.711-.567-.853-1.312-1.492-2.199-1.918zm-12.303 15.608s-.887.282-1.914.282c-.711 0-1.312-.318-1.633-.638-.426-.427-.392-1.32-.392-1.995v-11.841h4.081c.532 0 .958-.461.958-.958 0-.531-.426-.957-.958-.957h-4.081v-3.199c0-.531-.425-.958-.957-.958s-.958.427-.958.958v3.199h-1.632c-.497 0-.958.426-.958.957 0 .497.461.958.958.958h1.632v11.841c0 1.325.092 2.478.958 3.343.675.675 1.668 1.028 2.979 1.028 1.49 0 2.484-.39 2.519-.39.462-.179.711-.674.532-1.137-.138-.423-.671-.671-1.134-.493zm-17.361-16.101c-1.489.248-2.342.567-2.342.567-.496.178-.744.745-.566 1.242.212.497.744.744 1.241.565 0 0 1.022-.345 1.562-.425 1.276-.248 2.696-.39 3.975-.107 1.845.464 2.232 2.2 2.232 3.902v8.797c-.992.887-2.375 1.562-3.725 1.774-2.411.39-5.003-.64-5.003-3.301 0-1.72 1.137-2.571 2.583-3.043.971-.317 2.904-.598 4.212-.665.371-.02.72-.388.685-.825-.035-.452-.418-.752-.844-.752-1.158 0-2.675.094-4.501.613-1.729.492-3.114 1.323-3.729 3.146-.744 2.199.283 4.719 2.164 5.854 2.447 1.489 6.138.958 8.158-1.063v.712c0 .532.428.958.959.958.532 0 .959-.426.959-.958v-11.387c0-1.784-.388-3.08-1.138-4.044-1.37-1.767-3.963-2.055-6.882-1.56z"/></svg>