<svg xmlns="http://www.w3.org/2000/svg" width="220" height="238"><path fill="#995490" d="M196.328 1.202L0 24.062l22.917 197.603 196.332-22.858L196.32 1.202z"/><path fill="#70BACF" d="M210.957 11.656L15.953 1.266 5.41 197.522l195.003 10.39 10.544-196.254z"/><path fill="#332E2E" d="M212.817 238L202.53 22.684 6.587 32.178 16.417 238h196.4z"/><g fill="#fff"><path d="M87.76 13.272h-.22l-3.418.517v.79l.868.4V20l-.826.383v.894h4.423v-.894L87.76 20v-6.728zm17.06 6.817v-4.72c0-1.43-.744-2.09-2.053-2.09-1.053 0-1.99.394-2.688 1.03h-.09v-1.03h-.22l-3.3.514v.797l.87.4v5.096l-.83.38v.808h4.377v-.806l-.784-.38v-4.94c.312-.126.593-.198.98-.198.7 0 .96.296.96 1.086v4.05l-.787.38v.8h4.384v-.806l-.83-.38zM83.18 10.08h-.218l-3.417.518v.798l.866.4v1.814c-.31-.225-.73-.324-1.16-.324-2.06 0-3.88 1.128-3.88 4.27 0 2.986 1.78 3.888 3.21 3.888.97 0 1.635-.43 1.96-.845h.085v.81h.22l3.168-.35v-.76l-.822-.45v-9.767zm-2.77 9.73c-.176.07-.31.15-.708.15-.895 0-1.426-.747-1.426-2.673 0-2.2.532-2.844 1.343-2.844.47 0 .59.127.79.28v5.085zm-54.592-1.02v-3.86h1.618v-1.473h-1.618v-1.83l-2.754.36v1.47l-1.104.16v1.313h1.104v4.176c0 1.65.81 2.326 2.348 2.326.81 0 1.69-.207 2.11-.45v-1.098c-.186.032-.44.065-.71.065-.55 0-.994-.4-.994-1.16zm14.56-5.506c-2.32 0-3.93 1.495-3.93 4.058 0 2.648 1.468 4.098 4.145 4.098 1.437 0 2.557-.62 3.05-1.112v-.848c-.542.17-1.098.267-2.093.267-1.33 0-2.18-.7-2.27-2.15h4.557c0-3.27-1.125-4.314-3.46-4.314zm-1.094 3.246c.062-2.042.39-2.303 1.052-2.303.505 0 .906.54.906 2.222l-1.958.08zm36.14-.755V13.33c-.085-.028-.255-.043-.383-.043-.85 0-1.46.64-1.91 1.682h-.084v-1.7h-.22l-3.316.52v.794l.87.4v5.095l-.83.384v.804h4.57v-.806l-.973-.385v-4.1c.44-.21.935-.28 1.632-.28.224 0 .494.03.65.07zm-6.865-.13c0-1.745-1.34-2.36-3.42-2.36-1.37 0-2.34.367-3.067.592v2.04h1.34l.49-1.41c.157-.016.453-.033.676-.033.996 0 1.207.32 1.207 1.32v.915l-1.4.25c-1.71.35-2.786.7-2.786 2.29 0 1.294.8 2.18 2.183 2.18.966 0 1.976-.415 2.32-1.112h.07c.12.84.848 1.1 1.66 1.1.627 0 1.29-.175 1.544-.31v-.677l-.823-.383v-4.41zm-2.77 4c-.14.156-.35.297-.63.297-.5 0-.82-.25-.82-1.052 0-.746.334-1.144.934-1.2l.513-.06v2.016zm29.74-4c0-1.745-1.34-2.36-3.42-2.36-1.367 0-2.338.367-3.06.592v2.04h1.34l.49-1.41c.154-.016.45-.033.673-.033.995 0 1.207.32 1.207 1.32v.915l-1.402.25c-1.708.35-2.784.7-2.784 2.29 0 1.294.803 2.18 2.183 2.18.97 0 1.98-.415 2.323-1.112h.07c.12.84.848 1.1 1.66 1.1.625 0 1.288-.175 1.542-.31v-.677l-.824-.383v-4.41zm-2.77 4c-.143.156-.346.297-.633.297-.5 0-.815-.25-.815-1.052 0-.746.335-1.144.934-1.2l.513-.06v2.016zM60.79 13.27h-.22l-3.416.52v.62l.87.4v4.726c-.222.112-.426.183-.772.183-.653 0-1.07-.16-1.07-1.05v-5.4h-.22l-3.327.516v.62l.78.4v4.163c0 1.353.757 2.47 2.324 2.47 1.054 0 1.875-.496 2.374-1.116h.085v1.08h.22l3.24-.348v-.677l-.867-.453v-6.66zm-24.83 2.098c0-1.428-.742-2.082-2.05-2.082-1.055 0-1.903.395-2.6 1.028h-.085v-4.238h-.22l-3.392.516v.798l.87.4v8.297l-.826.38v.806h4.373v-.807l-.783-.38v-4.94c.312-.125.592-.197.976-.197.703 0 .962.29.962 1.08v4.05l-.787.38v.805h4.384v-.807l-.83-.38v-4.72h.002z"/><circle cx="86.321" cy="11.455" r="1.457"/><path d="M50.194 19.488h-2.65c-.39 0-.596-.14-.596-.41 0-.196.136-.404.308-.552.377.09.792.137 1.228.137 1.99 0 3.425-.93 3.425-2.61 0-.644-.23-1.195-.73-1.598v-.104l1.14.39h.172v-1.56h-.15l-1.79.57h-.15c-.51-.29-1.11-.456-1.927-.456-1.996 0-3.44.96-3.44 2.687 0 .99.54 1.775 1.34 2.226v.12c-.685.264-1.31.897-1.31 1.637 0 .76.477 1.426 1.146 1.626v.104c-.876.185-1.683.53-1.683 1.374 0 1.044 1.355 1.765 3.803 1.765 3.045 0 4.42-1.167 4.42-3.02 0-1.524-.845-2.32-2.565-2.32zm-1.71-5.225c.562 0 .84.355.84 1.71 0 1.358-.283 1.628-.84 1.628s-.83-.49-.83-1.62c0-1.124.266-1.71.83-1.71zm-.144 9.544c-1.302 0-1.598-.453-1.598-.994 0-.337.098-.55.298-.784h2.583c.64 0 .932.26.932.66 0 .67-.666 1.11-2.215 1.11z"/></g></svg>