<svg xmlns="http://www.w3.org/2000/svg" width="86" height="18" viewBox="0 0 172 36"><path fill="#332E2E" d="M162.7 33.9c-3.8 0-6.3-1.2-7.1-1.6-.8-.4-1.2-1.1-1.3-1.9v-.1l.2-4c0-.9.7-1.7 1.7-1.7.9 0 1.7.6 1.8 1.5l.4 2.9c1.4.5 2.7.8 4.3.8 1.7 0 2.9-.2 3.7-.8.6-.5.9-1.2.9-2.3 0-2-.5-2.6-3.4-3.6-1-.3-2-.6-3.2-1-1.7-.5-2.9-1.1-3.9-2.1-1.1-1.3-1.8-2.9-1.8-4.9 0-4.1 3.1-6.7 8-6.7 3.2 0 5.4.9 6.3 1.3.8.4 1.3 1.1 1.2 2l-.1 4.2c-.1 1-.9 1.6-1.8 1.6h-.1c-.7-.1-1.3-.7-1.5-1.5v-.1l-.4-2.7c-1.1-.4-2.3-.6-3.6-.6-1.2 0-2.3.3-3 .7-.6.4-.9 1-.9 1.9 0 .9.2 1.5.6 1.9.4.4.9.8 2.1 1.2 1.3.4 2.2.7 3.2 1 3.1 1 6.4 2.3 6.4 7.3 0 2.5-.7 4.3-2.3 5.6-1.5 1.2-3.7 1.7-6.4 1.7zm2.1-14c-1.1-.3-4.4-1.1-5.7-2.2-.6-.6-.9-1.5-.9-2.6 0-1.2.4-1.9 1.3-2.5.8-.6 2.1-.9 3.5-.9 2 0 3.4.5 4.3.8l.5 3.3c.1.4.4.7.8.7.5 0 .9-.4.9-.9l.1-4c.1-.7-.3-1-.8-1.3-.8-.4-2.8-1.2-5.8-1.2-4.5 0-7.3 2.3-7.3 5.8 0 1.7.6 3.4 1.6 4.4 1.3 1.4 3.1 1.9 6.8 3 2.9 1 4.1 1.6 4.1 4.1 0 1.3-.3 2.4-1 3-.9.7-2.3 1.2-4.2 1.2-2.5 0-4.3-.6-5.3-1l-.4-3.3c0-.5-.4-.9-.9-.9s-1 .3-1 .8l-.2 4c0 .5.4 1.1.9 1.3 1 .5 3.2 1.5 6.7 1.5 2.5 0 4.5-.6 5.9-1.7 1.4-1.1 2-3 2-5.1-.1-4.3-3-5.4-5.9-6.3zm-136 14c-3.3 0-6.1-1.2-8.1-3.4-1-1.1-1.7-2.5-2.1-4-.5-1.4-.7-3.2-.7-5.3 0-2 .3-3.9.9-5.6.4-1.1 1.3-3.1 2.6-4.4 1.9-1.9 4.6-2.9 7.5-2.9 2.1 0 3.9.4 5.5 1.3.5.3.8.7 1 1.2.2.5.1 1.1-.2 1.6-.2.4-.7.9-1.5.9-.4 0-.8 0-1.2-.2-.5-.3-1.3-.6-1.8-.6-1.2 0-1.3.6-1.3 1.2 0 .8.7 1.6 2.5 1.6 5.7 0 9.3-3.1 10-5.3.3-.8 1.1-1.4 2-1.4 1.1 0 2.1.9 2.1 2v15.9c0 1.5.4 2 .5 2.2.5.7 1.8 1 3.4 1 2.9 0 5.5-1.2 6.7-1.9l-.1-17.2c0-1.1.9-2.1 2.1-2.1.6 0 1.1.2 1.5.6s.6.9.6 1.5v20.7c0 1.2-.9 2.2-2 2.2-.9 0-1.7-.7-2-1.6-1.4.8-3.8 1.9-6.8 1.9-3.1 0-5.3-.9-6.7-2.7-.9-1.2-1.4-2.7-1.4-4.6V15.8c-.7.5-1.6 1-2.4 1.4.2 1.1.4 2.4.4 4 0 2.2-.3 4.2-.9 5.8s-1.4 3-2.5 4c-2.1 1.9-4.7 2.9-7.6 2.9zM25.6 13c-.5.3-1 .6-1.4.9-1.5 1.4-2.2 3.9-2.2 7.2 0 2.8.7 5.3 1.8 6.7 1.1 1.4 2.8 2 5 2 1.9 0 3.5-.6 4.7-1.8 1.4-1.3 2.3-4 2.3-6.9 0-1 0-1.9-.1-2.5-.9.2-2.2.4-3.5.4-4 0-6.6-2.1-6.6-5.4V13zM8.5 33.8c-3.8 0-6.3-1.2-7.1-1.6-.8-.4-1.2-1.1-1.3-1.9v-.1l.2-4c0-.9.7-1.7 1.7-1.7.9 0 1.7.6 1.8 1.5l.4 3c1.4.5 2.7.8 4.3.8 1.7 0 2.9-.2 3.7-.8.6-.5.9-1.2.9-2.3 0-2-.5-2.6-3.4-3.6-1-.3-2-.6-3.2-1-1.7-.5-2.9-1.1-3.9-2.1-1.1-1.4-1.9-3-1.9-5 0-4.1 3.1-6.7 8-6.7 3.2 0 5.4.9 6.3 1.3.8.4 1.3 1.1 1.2 2l-.1 4.2c-.1 1-.9 1.6-1.8 1.6h-.1c-.7-.1-1.3-.7-1.5-1.5v-.1l-.4-2.8c-1.1-.4-2.3-.6-3.6-.6-1.2 0-2.3.3-3 .7-.6.4-.9 1-.9 1.9s.2 1.5.6 1.9.9.8 2.1 1.2c1.3.4 2.2.7 3.2 1 3.1 1 6.4 2.3 6.4 7.3 0 2.5-.7 4.3-2.3 5.6-1.4 1.3-3.6 1.8-6.3 1.8zm136.2 0c-4.3 0-7.4-1.4-9.4-4.1-1.5-2.1-2.3-5-2.3-8.8 0-2.2.4-3.9 1-5.6.5-1.6 1.1-2.7 2.2-3.8 1-1.1 2.2-1.9 3.5-2.4s2.7-.8 4.1-.8c1.7 0 3.4.2 4.8.9 1.3.6 2.3 1.5 3.1 2.7 1.6 2.2 2.2 4.6 2.2 7.9 0 1.1-.7 2.1-2.1 2.1h-12.5c-1.1 0-1.7-.8-1.7-1.9s.8-1.9 1.7-1.9l10.5-.3c-.2-1.5-.8-2.9-1.2-3.7-.9-1.3-2.4-1.9-4.6-1.9-1.3 0-3 .4-4.5 1.9s-2.3 4.1-2.3 6.8c0 6.5 2.3 8.8 7.6 8.8 3.3 0 5.6-.8 5.6-.8 1.3-.4 2.5.1 2.8.7.8 1.4-.3 2.5-.8 2.7-.5.3-3.3 1.5-7.7 1.5zm-33.3 0c-1.7 0-3.3-.4-4.6-1.2-2.9-1.7-4.2-5.4-3.2-8.6 1-3 3.6-4.1 5.4-4.6 2.6-.7 4.7-.8 6.1-.8.9 0 1.7.7 1.9 1.5v-3.3c0-2.6-.7-3.9-2.3-4.3-.5-.1-1.1-.1-1.8-.1-.9 0-1.9.1-3 .3-.5.1-1.5.4-1.8.5-.2.1-.5.1-.8.1-.8 0-1.6-.6-1.9-1.4-.4-1.1.3-2.3 1.3-2.7 0 0 1.2-.4 3.2-.8 1.1-.2 2.2-.3 3.2-.3 3 0 5.1.9 6.4 2.6 1.1 1.4 1.7 3.2 1.7 5.6v14.8c0 1.1-.9 2.2-2.1 2.2-.9 0-1.7-.6-1.9-1.4-1.7 1.4-3.8 1.9-5.8 1.9zm5.7-13c-.1.3-.3.6-.5.9-.3.4-.9.6-1.3.6-1.6.1-4.1.4-5.3.8-1.9.6-2.7 1.6-2.7 3.2 0 1.1.5 2 1.4 2.7.8.6 1.7.8 2.9.8h1.1c1.5-.2 3.2-1 4.3-2l.1-7zm12.8 12.9c-1.9 0-3.4-.5-4.4-1.6-1.4-1.4-1.5-3.2-1.5-4.9V12.7h-1.3c-1.1 0-2-1-2-2.1s.8-2 2-2l1.3-.1V5.2c0-1.1.9-2.1 2.1-2.1 1.1 0 2.1.9 2.1 2.1v3.3h4.5c1.1 0 2 .9 2 2.1 0 1.1-.8 2.1-2 2.1h-4.5v14.7c0 .6 0 1.5.3 1.8s.9.6 1.5.6c1.2 0 2.2-.3 2.2-.3.2-.1.4-.1.7-.1.8 0 1.6.5 1.8 1.3.4 1-.1 2.1-1.2 2.5h-.1c-1.2.3-2.3.5-3.5.5zm-29.6-.2c-1.1 0-2.1-.9-2.1-2.1l.1-15.8c0-1.1-.3-1.9-.7-2.4-.5-.5-1.4-.8-2.7-.8-3.1 0-5.6 1.5-6.8 2.2v16.8c0 1.1-.9 2.1-2.1 2.1-1.1 0-2-.9-2-2.1V15.6c0-1.1-.3-1.9-.8-2.4-.5-.6-1.4-.8-2.7-.8-2.9 0-5.3 1.3-6.4 2v17c0 1.1-1 2.1-2.2 2.1-1.1 0-1.9-.9-1.9-2.1V10.6c0-1.1.8-2 2-2 1 0 1.8.6 2 1.5 1.7-1 3.7-1.8 6.5-1.8s5.2 1 6.4 2.7c1.9-1.2 4.7-2.7 7.9-2.7 4.8 0 7.6 2.5 7.6 7.4v15.8c0 1.1-1 2-2.1 2zm-35 0c-1.1 0-2-.9-2-2.1V4.3h-1.2c-1.1 0-1.9-.7-2-1.7 0-.5.1-.9.4-1.3.3-.4.8-.6 1.3-.7l3.3-.6h.2c.5 0 1.1.2 1.5.6.4.4.6 1 .6 1.5v29.3c-.1 1.1-1 2.1-2.1 2.1zm0-32.7l-3.4.7c-.6 0-1 .4-1 1s.5 1 1.2 1h2v27.9c0 .7.6 1.3 1.2 1.3.7 0 1.3-.6 1.3-1.2V2c0-.9-1-1.2-1.3-1.2zM95 9.1c-3.4-.1-7.2 2.1-8.4 3-1-2-3-3-5.9-3-3.4 0-5.7 1.4-7.4 2.5v-1.1c0-.7-.6-1.2-1.2-1.2-.7 0-1.3.6-1.3 1.2v20.8c0 .7.6 1.3 1.2 1.3.7 0 1.3-.5 1.3-1.4V14c1.3-.8 4-2.4 7.4-2.4 1.6 0 2.6.3 3.2 1 .6.6 1 1.7 1 2.9v15.8c0 .7.6 1.3 1.2 1.3.7 0 1.3-.6 1.3-1.2l-.1-15.9c0-.5 0-.9-.1-1.4.8-.4 3.7-2.5 7.6-2.5 1.6 0 2.7.3 3.4 1 .6.6.9 1.6.9 2.8v15.9c0 .7.6 1.3 1.2 1.3s1.3-.4 1.3-1.3V15.5c0-4.2-2.6-6.3-6.6-6.4zm-36.3.2c-.7 0-1.3.6-1.3 1.2v17.8c-1.1.7-4 2.1-7.4 2.1-2 0-3.5-.5-4.2-1.4-.3-.4-.7-1-.7-2.8V10.5c-.1-.7-.6-1.1-1.2-1.1-.5 0-1 .3-1.2.7-.8 2.5-4.8 6-10.9 6-2.3 0-3.3-1.3-3.3-2.5 0-2.1 2.3-2.4 4.1-1.3.6.4 1.5.2 1.8-.4.2-.5.1-1.3-.5-1.6-1.5-.8-3.2-1.2-5.1-1.2-2.7 0-5.1.9-6.9 2.6-1 1-1.8 2.6-2.4 4.1s-1 3.3-1 5.3c0 2.1.2 3.8.7 5.2.4 1.5 1.1 2.8 2 3.8 1.8 2 4.4 3.1 7.5 3.1 2.7 0 5.2-1.1 7-2.8 1-1 1.7-2.3 2.2-3.7.6-1.5 1-3.3 1-5.3 0-1.8-.1-3.2-.4-4.5 1.9-.9 4-2.9 4-2.9v12.4c0 1.1.2 3.1 1.3 4.4 1.2 1.6 3.3 2.3 6.2 2.3 3 0 5.6-1.3 7.3-2.5l-.1.8c0 .7.6 1.3 1.3 1.3s1.3-.8 1.3-1.5l-.1-20.6c.2-.7-.4-1.3-1-1.3zM34.1 28.6c-1.3 1.3-3.2 2.1-5.3 2.1-2.4 0-4.3-.9-5.6-2.4-1.3-1.5-2-4.3-2-7.2 0-3.6.9-6.2 2.5-7.8.8-.8 2.4-1.5 3.5-1.7-.6.6-.8 1.3-.8 1.9 0 2.8 2.1 4.7 5.7 4.7 1.4 0 3.1-.3 4.3-.6.1.6.2 1.9.2 3.5 0 2.9-.8 5.9-2.5 7.5zm-23.5-8.8c-1.1-.3-4.4-1.1-5.7-2.2C4.2 17 4 16.1 4 15c0-1.2.4-1.9 1.3-2.5.8-.6 2.1-.9 3.5-.9 2 0 3.4.5 4.3.8l.5 3.3c.1.4.4.7.8.7.5 0 .9-.4.9-.9l.1-4c.1-.7-.3-1-.8-1.3-.8-.4-2.8-1.2-5.8-1.2-4.5 0-7.3 2.3-7.3 5.8 0 1.7.6 3.4 1.6 4.4 1.3 1.4 3.1 1.9 6.8 3 2.9 1 4.1 1.6 4.1 4.1 0 1.3-.3 2.4-1 3-.9.7-2.3 1.2-4.2 1.2-2.5 0-4.3-.6-5.3-1L3 26.3c0-.5-.4-.9-.9-.9s-1 .3-1 .8l-.2 4c0 .5.4 1.1.9 1.3C2.8 32 5 33 8.5 33c2.5 0 4.5-.6 5.9-1.7 1.4-1.1 2-3 2-5.1 0-4.3-2.9-5.5-5.8-6.4zM148.4 10c-1.2-.6-2.7-.9-4.3-.9-1.3 0-2.7.2-3.8.6-1.3.5-2.5 1.4-3.4 2.3-1 1-1.7 2-2.2 3.5-.6 1.6-.9 3.4-.9 5.4 0 3.6.7 6.3 2.2 8.3 1.8 2.5 4.7 3.8 8.7 3.8 4.1 0 6.9-1.3 6.9-1.3.6-.3 1.1-.8.7-1.6-.3-.7-1.2-.6-1.9-.4 0 0-2.3.8-5.8.8-5.8 0-8.3-3.1-8.3-9.7 0-3.3.8-5.5 2.4-7.2 1.7-1.7 3.8-2.2 5.3-2.2 2.4 0 4 .6 5.1 2.2.8 1.2 1.4 3 1.5 5l-11 .2c-.6 0-1.2.4-1.2.9 0 .6.2 1.3.9 1.3h12.6c.7 0 1.2-.5 1.2-1.4 0-3.1-.7-5.5-2-7.3-.5-1.1-2.7-2.3-2.7-2.3zm-15.8 20.2s-1.2.4-2.6.4c-.9 0-1.7-.4-2.1-.8-.6-.6-.5-1.7-.5-2.6V11.9h5.3c.7 0 1.2-.7 1.2-1.3 0-.7-.6-1.2-1.2-1.2h-5.3V5.1c0-.6-.7-1.1-1.3-1.1-.7 0-1.3.5-1.3 1.1v4.3h-2.1c-.6 0-1.2.5-1.2 1.1s.4 1.3 1 1.3h2.3v15.1c0 1.7.1 3.4 1.2 4.5.9.9 2.3 1.4 4 1.4 1.9 0 3.3-.5 3.4-.5.6-.2.7-1 .5-1.6-.3-.4-.6-.7-1.3-.5zM110 9.4c-1.9.3-3 .7-3 .7-.6.2-1.2 1-.9 1.6.3.6 1 1.1 1.6.8l2.1-.6c1.7-.3 3.5-.5 5.2-.1 2.1.5 2.8 2.7 2.8 4.9v11.5c-1.3 1.1-3.1 2-4.8 2.3-3.1.5-6.5-.8-6.5-4.3 0-2.2 1.6-3.3 3.4-3.9 1.3-.4 3.8-.8 5.5-.9.5 0 .8-.5.8-1.1 0-.6-.5-.9-1.1-.9-1.5 0-3.3 0-5.6.7-2.2.6-4.2 1.5-5 3.9-1 2.9.2 6.2 2.8 7.9 3.2 1.9 7.9 1.2 10.5-1.4v.9c0 .7.7 1.2 1.3 1.2.7 0 1.2-.6 1.2-1.2V16.6c0-2.3-.4-4-1.4-5.2-1.9-2.3-5.1-2.6-8.9-2z"/></svg>