<svg xmlns="http://www.w3.org/2000/svg" width="86" height="18" viewBox="0 0 172 36"><path fill="#332E2E" d="M28.9 33.9c-3.3 0-6.1-1.2-8.1-3.4-1-1.1-1.7-2.5-2.1-4-.5-1.4-.7-3.2-.7-5.3 0-2 .3-3.9.9-5.6.4-1.1 1.3-3.1 2.6-4.4 1.9-1.9 4.6-2.9 7.5-2.9 2.1 0 3.9.4 5.5 1.3.5.3.8.7 1 1.2.2.5.1 1.1-.2 1.6-.3.6-.9 1-1.7 1-.4 0-.8-.1-1.2-.3-.5-.3-1.2-.5-1.7-.5-1.2 0-1.2.8-1.2 1.1 0 .8.6 1.7 2.4 1.7 5.7 0 9.4-3.2 10.1-5.4.3-.8 1.1-1.4 2-1.4 1.1 0 2.1.9 2.1 2v15.9c0 1.5.4 2 .5 2.2.5.7 1.8 1.1 3.4 1.1 2.9 0 5.4-1.2 6.6-1.9v-17.3c0-1.1.9-2.1 2.1-2.1.6 0 1.1.2 1.5.6s.6.9.6 1.5v20.7c0 1.2-.9 2.1-2 2.1-.9 0-1.7-.6-2-1.5-1.4.8-3.8 1.9-6.8 1.9-3.1 0-5.3-.9-6.7-2.7-.9-1.2-1.4-2.7-1.4-4.6v-10.7c-.7.5-1.5 1.1-2.3 1.5.2 1.1.3 2.3.3 3.9 0 2.2-.3 4.2-.9 5.8-.6 1.6-1.4 3-2.5 4-2.1 1.9-4.7 2.9-7.6 2.9zm-3.2-20.9c-.5.3-1 .6-1.4.9-1.5 1.4-2.2 3.9-2.2 7.2 0 2.8.7 5.3 1.8 6.7 1.1 1.4 2.8 2 5 2 1.9 0 3.5-.6 4.7-1.8 1.4-1.3 2.3-4 2.3-6.9 0-1 0-1.9-.1-2.5-.9.2-2.2.4-3.5.4-4 0-6.6-2.1-6.6-5.4v-.6zm137.1 20.8c-3.8 0-6.3-1.2-7.1-1.6-.8-.4-1.3-1.1-1.4-1.9v-.1l.2-4c0-.9.8-1.7 1.8-1.7.9 0 1.6.7 1.7 1.6l.4 2.9c1.4.5 2.8.8 4.4.8 1.7 0 2.9-.3 3.7-.9.6-.5.8-1.2.8-2.3 0-2-.5-2.5-3.4-3.5-1-.3-1.9-.6-3.2-1-1.7-.5-3-1.2-4-2.2-1.2-1.2-1.8-2.9-1.8-4.8 0-4.1 3.2-6.8 8.1-6.8 3.2 0 5.4 1 6.2 1.3.9.4 1.4 1.2 1.3 2.1l-.1 4c-.1 1-.8 1.6-1.7 1.6h-.1c-.7-.1-1.4-.6-1.5-1.4v-.1l-.4-2.9c-1.1-.4-2.3-.6-3.6-.6-1.2 0-2.3.3-3 .7-.6.4-.9 1-.9 1.9 0 .9.2 1.5.6 1.9.4.4 1 .7 2.2 1.1 1.3.4 2.2.7 3.2 1 3.1 1 6.4 2.4 6.4 7.4 0 2.3-.8 4.2-2.4 5.5-1.6 1.4-3.7 2-6.4 2zm-154.2 0c-3.8 0-6.3-1.2-7.1-1.6-.8-.4-1.3-1.1-1.4-1.9v-.1l.2-4c0-.9.8-1.7 1.8-1.7.9 0 1.6.7 1.7 1.6l.4 2.9c1.4.5 2.8.8 4.4.8 1.7 0 2.9-.3 3.7-.9.6-.5.8-1.2.8-2.3 0-2-.5-2.5-3.4-3.5-1-.3-1.9-.6-3.2-1-1.7-.5-3-1.2-4-2.2-1.1-1.3-1.8-2.9-1.8-4.9 0-4.1 3.2-6.8 8.1-6.8 3.2 0 5.3.9 6.2 1.3.8.4 1.3 1.2 1.2 2.1l-.1 4c-.1 1-.8 1.6-1.7 1.6h-.1c-.7-.1-1.3-.6-1.5-1.4v-.1l-.4-2.7c-1.1-.4-2.3-.6-3.6-.6-1.2 0-2.3.3-3 .7-.6.4-.9 1-.9 1.9 0 .9.2 1.5.6 1.9.4.4 1 .7 2.2 1.1 1.3.4 2.2.7 3.2 1 3.1 1 6.4 2.4 6.4 7.4 0 2.3-.8 4.2-2.4 5.5-1.5 1.3-3.6 1.9-6.3 1.9zm136.2 0c-4.3 0-7.4-1.4-9.4-4.1-1.6-2.1-2.4-5-2.4-8.8 0-2.2.3-4 .9-5.7.5-1.6 1.4-3 2.5-4.1 1-1.1 2.3-1.8 3.6-2.3 1.3-.5 2.6-.7 4-.7 1.7 0 3.3.3 4.7 1 1.3.6 2.4 1.6 3.2 2.8 1.3 1.9 2 4.6 2 7.9 0 1.1-.9 2-2.1 2h-12.4c-1.1 0-1.9-.8-1.9-1.9 0-1.1.8-2 1.9-2l10.2-.2c-.2-1.5-.6-2.8-1.1-3.6-.9-1.3-2.3-2-4.5-2-1.3 0-3.2.3-4.7 1.8s-2.2 3.8-2.2 6.9c0 6.1 2.3 8.7 7.6 8.7 3.3 0 5.6-.8 5.6-.8.3-.1.6-.1.8-.1.8 0 1.5.4 1.8 1 .3.4.3 1 .1 1.5-.2.5-.6 1-1.1 1.2.2.2-2.7 1.5-7.1 1.5zm-33.3 0c-1.7 0-3.3-.4-4.6-1.2-2.9-1.7-4.2-5.4-3.2-8.6 1-3 3.6-4.1 5.4-4.6 2.6-.7 4.7-.8 6.1-.8.9 0 1.7.7 1.9 1.5v-3.3c0-2.6-.7-3.9-2.3-4.3-.5-.1-1.1-.2-1.8-.2-.9 0-1.9.1-3 .3-.5.1-1.6.4-1.9.5-.2.1-.4.1-.6.1-.8 0-1.6-.5-1.9-1.3-.4-1.1.2-2.3 1.2-2.7 0 0 1.2-.4 3.2-.8 1.1-.2 2.2-.3 3.2-.3 3 0 5.2.9 6.5 2.6 1.1 1.4 1.6 3.3 1.6 5.7v14.8c0 1.1-.9 2.1-2.1 2.1-.9 0-1.7-.6-1.9-1.4-1.7 1.3-3.8 1.9-5.8 1.9zm5.5-13c-.1.3-.2.6-.4.9-.3.4-.8.6-1.2.6-1.6.1-4.1.4-5.3.8-1.9.6-2.8 1.6-2.8 3.2 0 1.1.4 2 1.3 2.7.8.6 1.9.9 3.1.9.4 0 .8 0 1.1-.1 1.5-.2 3-.9 4.1-1.9l.1-7.1zm13 12.9c-1.9 0-3.4-.5-4.4-1.6-1.4-1.4-1.5-3.2-1.5-4.9v-14.5h-1.3c-1.1 0-2.1-1-2.1-2.1s.9-2.1 2.1-2.1h1.3v-3.3c0-1.1.9-2.1 2.1-2.1 1.1 0 2.1.9 2.1 2.1v3.3h4.5c1.1 0 2.1.9 2.1 2.1 0 1.1-.9 2.1-2.1 2.1h-4.5v14.7c0 .6 0 1.5.3 1.8.3.3.9.6 1.5.6 1.2 0 2.2-.3 2.2-.3.2-.1.4-.1.7-.1.8 0 1.6.5 1.8 1.3.4 1-.1 2.1-1.2 2.5h-.1c-1.2.3-2.3.5-3.5.5zm-29.6-.2c-1.1 0-2.1-.9-2.1-2.1v-15.8c0-1.1-.2-1.9-.6-2.4-.5-.5-1.4-.8-2.7-.8-3.1 0-5.6 1.5-6.8 2.2h-.1l.1 1v15.8c0 1.1-.9 2.1-2.1 2.1-1.1 0-2.1-.9-2.1-2.1v-15.8c0-1.1-.2-1.9-.7-2.4-.5-.6-1.4-.8-2.7-.8-2.9 0-5.4 1.3-6.5 2v17c0 1.1-.9 2.1-2.1 2.1-1.1 0-2.1-.9-2.1-2.1v-20.8c0-1.1.9-2.1 2.1-2.1 1 0 1.8.7 2 1.6 1.7-1 3.8-1.8 6.6-1.8s5 1 6.2 2.7c1.9-1.2 4.9-2.7 8.1-2.7 4.8 0 7.5 2.7 7.5 7.4v15.8c0 1.1-.9 2-2 2zm-35 0c-1.1 0-2.1-.9-2.1-2.1v-27.1h-1.1c-1.1 0-1.9-.7-2-1.7 0-.5.1-.9.4-1.3.3-.4.8-.6 1.3-.7l3.3-.6h.2c.5 0 1 .2 1.4.6.4.4.7 1 .7 1.5v29.3c-.1 1.1-1 2.1-2.1 2.1z"/><path fill="#fff" d="M65.3.8l-3.3.6c-.6 0-1.1.5-1.1 1.1 0 .6.5 1 1.2 1l2-.1v28c0 .7.6 1.2 1.2 1.2.7 0 1.2-.6 1.2-1.2v-29.3c0-.3-.1-.6-.4-.9-.1-.2-.5-.4-.8-.4zm29.6 8.3c-3.7 0-7.1 2.2-8.3 3.1-1-2-3-3.1-5.9-3.1-3.4 0-5.7 1.4-7.4 2.5v-1c0-.7-.6-1.2-1.2-1.2-.7 0-1.2.6-1.2 1.2v20.8c0 .7.6 1.2 1.2 1.2.7 0 1.2-.6 1.2-1.2v-17.5c1.3-.8 4-2.3 7.4-2.3 1.6 0 2.7.4 3.3 1.1.6.6.9 1.7.9 2.9v15.8c0 .7.6 1.2 1.2 1.2.7 0 1.2-.6 1.2-1.2v-15.8c0-.5 0-1-.1-1.5.8-.4 3.8-2.6 7.7-2.6 1.6 0 2.7.4 3.4 1.1.6.6.8 1.7.8 2.9v15.8c0 .7.6 1.2 1.2 1.2s1.2-.6 1.2-1.2v-15.7c.1-4.2-2.2-6.5-6.6-6.5zm-36.2.3c-.7 0-1.2.6-1.2 1.2v17.7c-1.1.7-4.1 2.2-7.5 2.2-2 0-3.4-.5-4.1-1.4-.3-.4-.7-1.1-.7-2.7v-15.8c0-.7-.5-1.2-1.2-1.2-.5 0-1 .4-1.2.8-.8 2.5-4.8 5.9-10.9 5.9-2.3 0-3.2-1.3-3.2-2.5 0-2.1 2.4-2.4 4.2-1.3.6.4 1.4.3 1.7-.3.3-.6.1-1.4-.5-1.7-1.5-.8-3.2-1.2-5.1-1.2-2.7 0-5.1 1-6.9 2.7-1 1-1.8 2.6-2.4 4.1-.6 1.5-.9 3.3-.9 5.3 0 2.1.2 3.7.7 5.1.4 1.5 1.1 2.7 2 3.7 1.8 2 4.4 3.1 7.5 3.1 2.7 0 5.2-1 7-2.7 1-1 1.8-2.3 2.3-3.7.6-1.5.9-3.5.9-5.5 0-1.8-.1-3.2-.4-4.4 1.9-.9 4.1-2.9 4.1-2.9v12.5c0 1.1.1 2.8 1.2 4.1 1.2 1.6 3.2 2.4 6.1 2.4 3 0 5.8-1.3 7.5-2.5v.9c0 .7.5 1.3 1.2 1.3s1.2-.6 1.2-1.3v-20.7c-.2-.7-.8-1.2-1.4-1.2zm-24.6 19.3c-1.3 1.3-3.2 2-5.3 2-2.4 0-4.3-.8-5.6-2.3-1.3-1.5-2-4.3-2-7.2 0-3.6.9-6.2 2.5-7.8.8-.8 2.4-1.6 3.5-1.8-.6.6-.8 1.4-.8 2 0 2.8 2.2 4.6 5.8 4.6 1.4 0 3-.3 4.2-.6.1.6.2 2 .2 3.6 0 2.9-.8 5.9-2.5 7.5zm-23.4-8.8c-1.1-.3-1.9-.5-3.3-1-1.2-.4-2-.8-2.5-1.3-.6-.6-.9-1.4-.9-2.5 0-1.2.4-2 1.3-2.6.8-.6 2.1-.9 3.5-.9 2 0 3.4.5 4.3.8l.5 3.4c.1.4.4.7.8.7.5 0 .9-.4.9-.8l.1-4c.1-.5-.2-1-.7-1.3-.8-.4-2.9-1.3-5.9-1.3-4.5 0-7.3 2.3-7.3 5.9 0 1.7.6 3.2 1.6 4.2.8.9 1.9 1.5 3.6 2 1.3.4 2.2.6 3.3 1 2.9 1 4 1.7 4 4.2 0 1.3-.4 2.3-1.1 2.9-.9.7-2.3 1.1-4.2 1.1-2.5 0-4.2-.6-5.2-1l-.5-3.2c0-.5-.4-.8-.9-.8s-1 .4-1 .9l-.2 4c0 .5.4 1 .9 1.2 1 .5 3.2 1.5 6.7 1.5 2.5 0 4.4-.6 5.8-1.7 1.4-1.1 2.1-2.8 2.1-4.9 0-4.4-2.8-5.6-5.7-6.5zm154.1 0c-1.1-.3-1.9-.6-3.3-1-1.2-.4-2-.8-2.5-1.3-.6-.6-.9-1.4-.9-2.5 0-1.2.4-2 1.3-2.6.8-.6 2.1-.9 3.5-.9 2 0 3.4.5 4.3.8l.5 3.4c.1.4.4.7.8.7.5 0 .9-.4.9-.8l.1-4c0-.5-.2-1-.7-1.2-.8-.4-2.9-1.3-5.9-1.3-4.5 0-7.3 2.3-7.3 5.9 0 1.7.6 3.2 1.6 4.2.8.9 1.9 1.5 3.6 2 1.3.4 2.2.6 3.3 1 2.9 1 4 1.7 4 4.2 0 1.3-.4 2.3-1.1 2.9-.9.7-2.3 1.1-4.2 1.1-2.5 0-4.2-.6-5.2-1l-.4-3.4c0-.5-.4-.8-.9-.8s-1 .4-1 .9l-.2 4c0 .5.4 1 .9 1.2 1 .5 3.2 1.5 6.7 1.5 2.5 0 4.4-.6 5.8-1.7 1.4-1.1 2.1-2.8 2.1-4.9 0-4.3-2.8-5.5-5.8-6.4zm-16.4-9.9c-1.2-.6-2.7-.9-4.3-.9-1.3 0-2.6.2-3.7.6-1.3.5-2.4 1.2-3.3 2.1-1 1-1.8 2.3-2.3 3.8-.6 1.6-.9 3.4-.9 5.4 0 3.6.7 6.3 2.2 8.3 1.8 2.5 4.7 3.7 8.7 3.7 4.1 0 6.9-1.3 6.9-1.3.6-.3.9-1 .6-1.6-.3-.5-1-.7-1.7-.5 0 0-2.4.9-5.9.9-5.8 0-8.4-2.9-8.4-9.5 0-3.3.8-5.8 2.4-7.5 1.7-1.7 3.8-2.1 5.3-2.1 2.4 0 4.1.7 5.2 2.3.8 1.2 1.2 2.9 1.3 4.9l-11.1.2c-.6 0-1.1.5-1.1 1.1 0 .6.4 1.1 1.1 1.1h12.4c.7 0 1.2-.5 1.2-1.2 0-3.1-.6-5.6-1.9-7.4-.6-1-1.5-1.8-2.7-2.4zm-15.9 20.3s-1.1.4-2.5.4c-.9 0-1.7-.4-2.1-.8-.6-.6-.5-1.7-.5-2.6v-15.4h5.3c.7 0 1.2-.6 1.2-1.2 0-.7-.6-1.2-1.2-1.2h-5.3v-4.3c0-.7-.6-1.2-1.2-1.2-.7 0-1.2.6-1.2 1.2v4.1h-2.1c-.6 0-1.2.6-1.2 1.2s.6 1.2 1.2 1.2h2.1v15.4c0 1.7.1 3.2 1.2 4.3.9.9 2.2 1.3 3.9 1.3 1.9 0 3.2-.5 3.3-.5.6-.2.9-.9.7-1.5-.3-.4-1-.7-1.6-.4zm-22.5-20.9c-1.9.3-3 .7-3 .7-.6.2-1 1-.7 1.6.3.6 1 1 1.6.7 0 0 1.3-.4 2-.6 1.7-.3 3.5-.5 5.2-.1 2.4.6 2.9 2.9 2.9 5.1v11.4c-1.3 1.1-3.1 2-4.8 2.3-3.1.5-6.5-.8-6.5-4.3 0-2.2 1.5-3.3 3.3-3.9 1.3-.4 3.8-.8 5.5-.9.5 0 .9-.5.9-1.1 0-.6-.5-1-1.1-1-1.5 0-3.5.1-5.8.8-2.2.6-4 1.7-4.8 4.1-1 2.9.4 6.1 2.8 7.6 3.2 1.9 8 1.2 10.6-1.4v.9c0 .7.6 1.2 1.2 1.2.7 0 1.2-.6 1.2-1.2v-14.6c0-2.3-.5-4-1.5-5.2-1.9-2.4-5.2-2.7-9-2.1z"/></svg>