<svg xmlns="http://www.w3.org/2000/svg" width="86" height="18" viewBox="0 0 86 18"><path fill="#332E2E" d="M14.5 16.96c-1.67 0-3.07-.59-4.04-1.71-.49-.57-.85-1.24-1.06-2-.24-.71-.35-1.59-.35-2.66 0-1 .15-1.94.45-2.8.21-.55.65-1.57 1.28-2.2.97-.94 2.3-1.46 3.74-1.46 1.03 0 1.96.22 2.76.64.24.13.42.35.5.61.08.27.05.55-.08.79-.16.3-.47.48-.83.48-.2 0-.4-.06-.58-.16-.27-.16-.58-.25-.85-.25-.61 0-.61.42-.61.56 0 .41.31.84 1.19.84 2.83 0 4.69-1.6 5.05-2.68.17-.42.56-.68.98-.68.57 0 1.03.46 1.03 1.02v7.95c0 .75.19.99.26 1.08.27.34.88.53 1.72.53 1.43 0 2.69-.58 3.31-.93v-8.62c0-.57.46-1.03 1.03-1.03.28 0 .54.11.73.3s.3.45.3.73v10.37c0 .58-.46 1.06-1.02 1.06-.46 0-.85-.32-.98-.76-.72.41-1.92.94-3.38.94-1.54 0-2.67-.46-3.36-1.36-.46-.6-.68-1.36-.68-2.32v-5.37c-.33.25-.75.55-1.16.77.1.54.16 1.17.16 1.95 0 1.11-.16 2.11-.46 2.9-.3.8-.72 1.48-1.25 2.01-1 .94-2.34 1.46-3.8 1.46zm-1.59-10.47c-.27.14-.52.3-.69.47-.73.7-1.12 1.95-1.12 3.61 0 1.42.35 2.67.92 3.35.56.68 1.39 1.01 2.48 1.01.93 0 1.76-.32 2.34-.9.69-.67 1.13-2.02 1.13-3.46 0-.48-.02-.93-.04-1.27-.45.1-1.09.2-1.73.2-2.02 0-3.32-1.06-3.32-2.7l.03-.31zm68.56 10.43c-1.9 0-3.13-.58-3.54-.78-.42-.21-.66-.55-.69-.96v-.05l.09-2.02c0-.47.39-.85.89-.85.44 0 .8.34.85.78l.18 1.43c.68.26 1.42.39 2.22.39.83 0 1.45-.15 1.83-.46.29-.23.42-.6.42-1.15 0-.98-.27-1.25-1.72-1.73-.51-.17-.94-.31-1.62-.5-.87-.24-1.5-.59-1.98-1.1-.58-.61-.89-1.44-.89-2.4 0-2.05 1.59-3.38 4.04-3.38 1.6 0 2.69.48 3.11.67.44.19.69.61.65 1.05l-.07 2c-.05.48-.42.81-.87.81h-.04c-.37-.04-.68-.31-.77-.68l-.01-.04-.2-1.44c-.55-.2-1.14-.3-1.79-.3-.61 0-1.17.13-1.52.37-.32.2-.46.5-.46.95 0 .45.1.76.32.97.19.19.5.34 1.09.55.67.22 1.08.36 1.62.5 1.55.49 3.19 1.22 3.18 3.71 0 1.16-.41 2.11-1.18 2.75-.74.6-1.8.91-3.14.91zm-77.09 0c-1.91 0-3.13-.58-3.54-.78-.42-.21-.66-.55-.69-.96v-.05l.09-2.02c0-.47.39-.85.9-.85.44 0 .8.34.85.78l.18 1.43c.68.26 1.42.39 2.22.39.84 0 1.45-.15 1.84-.46.29-.23.42-.6.42-1.15 0-.98-.27-1.25-1.72-1.73-.51-.17-.94-.31-1.62-.5-.87-.24-1.5-.59-1.98-1.1-.58-.61-.89-1.44-.89-2.4 0-2.05 1.59-3.38 4.05-3.38 1.6 0 2.65.47 3.11.67.42.19.66.6.62 1.04l-.07 2c-.04.48-.42.82-.87.82h-.05c-.36-.05-.67-.32-.76-.68l-.01-.05-.2-1.44c-.55-.2-1.13-.3-1.78-.3-.61 0-1.17.13-1.52.37-.32.2-.46.5-.46.95 0 .45.1.76.32.97.18.19.49.35 1.08.55.67.22 1.08.36 1.62.5 1.55.49 3.19 1.22 3.19 3.71 0 1.16-.41 2.11-1.18 2.75-.75.61-1.8.92-3.15.92zm68.09 0c-2.13 0-3.71-.68-4.68-2.03-.79-1.07-1.18-2.5-1.18-4.38 0-1.09.15-2.02.46-2.84.27-.79.69-1.48 1.24-2.03.52-.53 1.13-.91 1.81-1.15.64-.23 1.31-.35 2-.35.86 0 1.65.17 2.34.5.65.31 1.18.78 1.59 1.38.67.97 1.01 2.29 1.01 3.93 0 .57-.45 1.01-1.03 1.01l-6.18.01c-.56 0-.96-.4-.96-.94 0-.55.42-.99.96-.99l5.09-.11c-.09-.77-.28-1.38-.56-1.81-.44-.66-1.17-.99-2.25-.99-.67 0-1.62.16-2.35.91s-1.1 1.92-1.1 3.46c0 3.05 1.14 4.35 3.8 4.35 1.64 0 2.79-.41 2.8-.41.14-.05.28-.07.42-.07.39 0 .74.19.91.49.13.22.15.49.07.75-.09.27-.3.5-.57.61 0 0-1.46.7-3.64.7zm-16.65-.02c-.86 0-1.66-.21-2.32-.61-1.43-.86-2.11-2.7-1.58-4.28.51-1.52 1.78-2.05 2.69-2.3 1.3-.37 2.35-.41 3.03-.41.47 0 .87.33.94.77v-1.65c0-1.28-.35-1.93-1.14-2.13-.26-.06-.57-.09-.9-.09-.44 0-.93.05-1.5.16-.27.04-.78.2-.96.26-.08.04-.2.06-.32.06-.42 0-.8-.26-.97-.65-.2-.57.08-1.16.61-1.36.02-.01.6-.22 1.59-.39.57-.1 1.11-.15 1.6-.15 1.49 0 2.58.44 3.26 1.31.55.71.82 1.65.82 2.87v7.38c0 .57-.46 1.03-1.03 1.03-.45 0-.83-.28-.97-.68-.81.56-1.82.86-2.85.86zm2.78-6.5c-.03.16-.1.31-.21.44-.16.18-.38.29-.61.3-.78.04-2.03.22-2.63.41-.96.31-1.39.8-1.39 1.58 0 .57.21 1.01.63 1.33.39.29.94.45 1.56.45.19 0 .38-.02.57-.05.73-.11 1.49-.46 2.07-.93l.01-3.53zm6.47 6.45c-.95 0-1.7-.26-2.22-.79-.69-.69-.74-1.59-.74-2.46v-7.26h-.65c-.55 0-1.03-.48-1.03-1.03 0-.56.47-1.03 1.03-1.03h.65v-1.67c0-.57.46-1.03 1.03-1.03.57 0 1.03.46 1.03 1.03v1.66h2.23c.57 0 1.03.46 1.03 1.03 0 .56-.47 1.03-1.03 1.03h-2.23v7.36c0 .29 0 .77.13.91.15.15.44.29.77.29.59 0 1.11-.16 1.12-.16.09-.03.21-.06.33-.06.42 0 .8.26.92.64.19.48-.07 1.05-.59 1.25l-.05.02c-.56.19-1.14.27-1.73.27zm-14.81-.11c-.57 0-1.03-.46-1.03-1.03v-7.89c0-.55-.11-.96-.31-1.2-.23-.27-.71-.41-1.37-.41-1.57 0-2.8.73-3.39 1.08l-.03.01c.02.17.03.34.03.52v7.89c0 .57-.46 1.03-1.03 1.03-.57 0-1.03-.46-1.03-1.03v-7.89c0-.55-.11-.96-.33-1.19-.25-.28-.7-.42-1.35-.42-1.44 0-2.68.65-3.27.99v8.51c0 .57-.46 1.03-1.03 1.03s-1.03-.46-1.03-1.03v-10.4c0-.57.46-1.03 1.03-1.03.48 0 .89.34 1 .78.83-.49 1.9-.92 3.3-.92s2.49.48 3.1 1.37c.93-.6 2.43-1.37 4.03-1.37 2.38 0 3.75 1.34 3.75 3.68v7.89c-.01.57-.47 1.03-1.04 1.03zm-17.5 0c-.57 0-1.03-.46-1.03-1.03v-13.58l-.56.02c-.54 0-.96-.37-1-.86-.02-.24.06-.47.21-.65.17-.19.4-.31.67-.34l1.61-.31.08.01c.25 0 .51.1.72.28.22.22.33.49.33.75v14.67c0 .57-.46 1.04-1.03 1.04z"/><path fill="#fff" d="M32.74.41l-1.64.31c-.32.02-.55.26-.53.54.02.28.27.48.58.48l.99-.04v14.01c0 .35.28.62.62.62s.62-.28.62-.62v-14.68c0-.16-.07-.32-.18-.44-.14-.11-.3-.18-.46-.18zm14.8 4.14c-1.84 0-3.54 1.1-4.16 1.54-.48-1.01-1.52-1.54-2.97-1.54-1.68 0-2.87.69-3.68 1.24v-.48c0-.34-.28-.62-.62-.62s-.62.28-.62.62v10.4c0 .34.28.62.62.62.35 0 .62-.28.62-.62v-8.74c.64-.39 2.02-1.17 3.68-1.17.78 0 1.33.18 1.66.55.3.32.44.83.44 1.47v7.89c0 .35.28.62.62.62s.62-.28.62-.62v-7.89c0-.25-.02-.51-.07-.74.41-.21 1.88-1.29 3.86-1.29.78 0 1.36.18 1.68.55.28.32.41.83.41 1.47v7.89c0 .34.28.62.62.62s.62-.28.62-.62v-7.88c.01-2.12-1.16-3.27-3.33-3.27zm-18.13.14c-.34 0-.62.28-.62.62v8.86c-.57.35-2.05 1.1-3.73 1.1-1.01 0-1.7-.25-2.05-.69-.16-.21-.34-.55-.34-1.33v-7.95c0-.34-.27-.6-.62-.6-.27 0-.5.18-.59.4-.42 1.24-2.4 2.96-5.44 2.96-1.13 0-1.6-.64-1.6-1.25 0-1.07 1.19-1.19 2.09-.65.3.18.68.13.84-.16.16-.3.05-.68-.25-.84-.73-.39-1.59-.59-2.57-.59-1.34 0-2.57.48-3.45 1.34-.5.5-.91 1.32-1.18 2.05-.28.75-.44 1.64-.44 2.64 0 1.05.11 1.86.34 2.55.2.73.55 1.34.98 1.84.89 1.02 2.18 1.57 3.73 1.57 1.36 0 2.59-.48 3.5-1.34.5-.5.89-1.14 1.16-1.86.3-.77.43-1.75.43-2.75 0-.88-.07-1.58-.21-2.18.95-.45 2.03-1.43 2.04-1.43v6.24c0 .55.07 1.38.6 2.07.6.78 1.61 1.2 3.04 1.2 1.52 0 2.92-.64 3.75-1.26v.43c0 .36.27.64.61.64s.61-.3.61-.65v-10.36c-.01-.35-.29-.62-.63-.62zm-12.27 9.63c-.66.66-1.59 1.02-2.64 1.02-1.2 0-2.16-.39-2.8-1.16-.66-.77-1.02-2.14-1.02-3.61 0-1.8.43-3.12 1.25-3.9.41-.39 1.18-.8 1.77-.88-.29.28-.4.69-.4 1.01 0 1.4 1.11 2.29 2.9 2.29.71 0 1.51-.14 2.1-.29.03.31.09 1 .09 1.78 0 1.45-.43 2.95-1.25 3.74zm-11.72-4.39c-.55-.13-.97-.27-1.66-.5-.6-.21-.99-.39-1.24-.64-.3-.3-.44-.71-.44-1.26 0-.58.21-1.01.64-1.29.41-.28 1.03-.44 1.75-.44 1.01 0 1.72.23 2.16.41l.23 1.68c.05.18.21.34.41.37.25 0 .44-.18.46-.41l.07-2.02c.03-.27-.1-.52-.36-.63-.4-.18-1.43-.64-2.97-.64-2.23 0-3.63 1.15-3.63 2.97 0 .87.28 1.59.78 2.12.41.44.96.76 1.79.99.64.18 1.08.32 1.63.51 1.47.48 2 .85 2 2.12 0 .67-.18 1.15-.57 1.47-.46.37-1.15.55-2.09.55-1.24 0-2.12-.3-2.6-.51l-.21-1.68c-.02-.23-.21-.41-.44-.41-.25 0-.48.18-.48.46l-.09 2.02c.02.27.18.48.46.62.48.23 1.61.74 3.36.74 1.24 0 2.21-.28 2.88-.83.69-.57 1.03-1.4 1.03-2.44.01-2.25-1.42-2.87-2.87-3.33zm77.08 0c-.55-.14-.97-.28-1.66-.51-.6-.21-.99-.39-1.24-.64-.3-.3-.44-.71-.44-1.26 0-.58.21-1.01.64-1.29.42-.28 1.04-.44 1.75-.44 1.01 0 1.72.23 2.16.41l.23 1.68c.04.18.21.35.41.37.25 0 .44-.18.46-.41l.07-2.02c.02-.25-.11-.51-.37-.62-.4-.18-1.43-.64-2.97-.64-2.23 0-3.63 1.15-3.63 2.97 0 .87.28 1.59.78 2.12.41.44.97.76 1.79.99.64.18 1.08.32 1.63.51 1.47.48 2 .85 2 2.12 0 .67-.18 1.15-.57 1.47-.46.37-1.15.55-2.09.55-1.24 0-2.12-.3-2.6-.51l-.21-1.68c-.02-.23-.21-.41-.44-.41-.25 0-.48.18-.48.46l-.09 2.02c.02.27.18.48.46.62.48.23 1.61.74 3.36.74 1.24 0 2.21-.28 2.88-.83.69-.57 1.03-1.4 1.03-2.44.02-2.25-1.41-2.87-2.86-3.33zm-8.21-4.92c-.62-.3-1.33-.46-2.16-.46-.67 0-1.29.11-1.86.32-.64.23-1.2.6-1.66 1.06-.51.51-.9 1.15-1.15 1.89-.3.78-.44 1.68-.44 2.69 0 1.79.37 3.15 1.11 4.14.9 1.24 2.37 1.86 4.35 1.86 2.05 0 3.43-.64 3.47-.67.32-.14.46-.51.3-.78-.14-.25-.51-.35-.83-.23 0 0-1.19.44-2.94.44-2.9 0-4.21-1.47-4.21-4.76 0-1.66.41-2.92 1.22-3.75.83-.85 1.89-1.03 2.64-1.03 1.2 0 2.07.37 2.6 1.17.39.6.6 1.43.67 2.44l-5.54.12c-.32 0-.55.25-.55.57 0 .3.21.53.55.53l6.18-.01c.35 0 .62-.25.62-.6 0-1.56-.32-2.81-.94-3.7-.38-.55-.86-.96-1.43-1.24zm-7.98 10.12s-.57.19-1.24.19c-.46 0-.85-.21-1.06-.41-.28-.28-.25-.85-.25-1.29v-7.69h2.64c.35 0 .62-.3.62-.62 0-.35-.28-.62-.62-.62h-2.64v-2.07c0-.35-.28-.62-.62-.62-.35 0-.62.28-.62.62v2.07h-1.06c-.32 0-.62.28-.62.62 0 .32.3.62.62.62h1.06v7.68c0 .86.06 1.6.62 2.17.44.44 1.08.67 1.93.67.97 0 1.61-.25 1.63-.25.3-.11.46-.44.35-.74-.09-.29-.44-.45-.74-.33zm-11.25-10.44c-.97.16-1.52.37-1.52.37-.32.11-.48.48-.37.8.14.32.48.48.8.37 0 0 .66-.22 1.01-.28.83-.16 1.75-.25 2.58-.07 1.19.3 1.45 1.43 1.45 2.53v5.7c-.64.57-1.54 1.01-2.41 1.15-1.56.25-3.24-.41-3.24-2.14 0-1.11.74-1.67 1.67-1.97.63-.21 1.88-.39 2.73-.43.24-.01.47-.25.44-.53-.02-.29-.27-.49-.55-.49-.75 0-1.73.06-2.92.4-1.12.32-2.02.86-2.42 2.04-.48 1.43.18 3.06 1.4 3.79 1.59.97 3.98.62 5.29-.69v.46c0 .34.28.62.62.62s.62-.28.62-.62v-7.37c0-1.16-.25-2-.74-2.62-.87-1.15-2.55-1.34-4.44-1.02z"/></svg>