<svg xmlns="http://www.w3.org/2000/svg" width="352" height="380" viewBox="0 0 352 380"><path fill="#995490" d="M315.059 0l-315.059 36.683 36.776 317.101 315.06-36.682z"/><path fill="#70BACF" d="M338.534 16.776l-312.934-16.672-16.921 314.938 312.934 16.672z"/><path fill="#332E2E" d="M341.515 380l-16.505-345.526-314.441 15.235 15.775 330.291z"/><g fill="#fff"><path d="M140.831 19.37h-.35l-5.487.829v1.28l1.393.644v8.042l-1.328.615v1.435h7.099v-1.435l-1.327-.615zm27.376 10.939v-7.572c0-2.292-1.191-3.342-3.294-3.342-1.689 0-3.195.633-4.313 1.65h-.138v-1.665h-.35l-5.298.83v1.28l1.394.643v8.176l-1.325.611v1.295h7.026v-1.295l-1.258-.611v-7.923c.502-.203.952-.316 1.568-.316 1.129 0 1.544.475 1.544 1.743v6.497l-1.262.611v1.295h7.035v-1.296l-1.329-.611zm-34.724-16.057h-.351l-5.482.83v1.28l1.389.642v2.911c-.502-.361-1.182-.52-1.865-.52-3.312 0-6.232 1.809-6.232 6.851 0 4.794 2.859 6.241 5.144 6.241 1.554 0 2.624-.691 3.146-1.356h.137v1.302l.354.002 5.083-.559v-1.227l-1.32-.725-.003-15.672zm-4.445 15.612c-.282.113-.498.242-1.137.242-1.436 0-2.288-1.2-2.288-4.29 0-3.527.853-4.562 2.154-4.562.754 0 .949.204 1.27.452l.001 8.158zm-87.606-1.637v-6.198h2.597v-2.364h-2.597v-2.939l-4.42.58v2.359l-1.772.257v2.107h1.772v6.703c0 2.646 1.3 3.732 3.767 3.732 1.301 0 2.712-.332 3.388-.724v-1.761c-.301.051-.71.104-1.143.104-.878 0-1.592-.635-1.592-1.856zm23.365-8.833c-3.723 0-6.309 2.397-6.309 6.512 0 4.25 2.358 6.577 6.652 6.577 2.307 0 4.104-.996 4.893-1.785v-1.363c-.868.271-1.759.429-3.358.429-2.134 0-3.5-1.125-3.641-3.453h7.312c.001-5.245-1.804-6.917-5.549-6.917zm-1.757 5.207c.102-3.277.627-3.694 1.689-3.694.81 0 1.455.871 1.455 3.566l-3.144.128zm57.997-1.211v-3.928c-.137-.045-.411-.068-.617-.068-1.37 0-2.346 1.025-3.077 2.699h-.137v-2.723h-.35l-5.325.84v1.28l1.393.643v8.176l-1.327.615v1.292h7.334v-1.292l-1.563-.615-.002-6.58c.708-.339 1.501-.452 2.62-.452.366-.001.8.045 1.051.113zm-11.018-.206c0-2.803-2.146-3.79-5.481-3.79-2.191 0-3.75.589-4.915.95v3.279h2.15l.786-2.263c.252-.025.727-.054 1.085-.054 1.598 0 1.938.512 1.938 2.118v1.469l-2.252.407c-2.741.565-4.466 1.122-4.466 3.677 0 2.081 1.285 3.505 3.5 3.505 1.553 0 3.174-.668 3.727-1.787h.114c.192 1.349 1.36 1.764 2.662 1.764 1.005 0 2.069-.279 2.478-.497v-1.087l-1.325-.615v-7.076zm-4.437 6.419c-.228.248-.555.475-1.015.475-.8 0-1.307-.399-1.307-1.688 0-1.197.536-1.836 1.5-1.927l.821-.094v3.234zm47.723-6.419c0-2.803-2.146-3.79-5.481-3.79-2.192 0-3.75.589-4.915.95v3.279h2.15l.786-2.263c.252-.025.727-.054 1.085-.054 1.598 0 1.938.512 1.938 2.118v1.469l-2.252.407c-2.741.565-4.466 1.122-4.466 3.677 0 2.081 1.285 3.505 3.5 3.505 1.553 0 3.174-.668 3.728-1.787h.114c.192 1.349 1.36 1.764 2.661 1.764 1.005 0 2.069-.279 2.477-.497v-1.087l-1.323-.615-.002-7.076zm-4.437 6.419c-.228.248-.555.475-1.015.475-.8 0-1.308-.399-1.308-1.688 0-1.197.537-1.836 1.5-1.927l.822-.094v3.234zm-51.309-10.231h-.35l-5.486.83v.993l1.395.644v7.584c-.353.18-.682.293-1.237.293-1.05 0-1.718-.25-1.718-1.676v-8.667h-.351l-5.34.83v.993l1.254.644v6.681c0 2.17 1.216 3.96 3.728 3.96 1.69 0 3.007-.795 3.808-1.79h.137l.004 1.736.353.002 5.191-.559v-1.083l-1.385-.725v-10.69h-.003zm-39.845 3.364c0-2.292-1.191-3.342-3.294-3.342-1.689 0-3.051.633-4.17 1.65h-.137v-6.803h-.35l-5.441.83v1.28l1.394.643v13.314l-1.326.612v1.295h7.026v-1.295l-1.259-.611v-7.923c.502-.203.952-.316 1.568-.316 1.13 0 1.545.475 1.545 1.743v6.497l-1.26.611v1.295h7.034v-1.296l-1.332-.611v-7.573z"/><circle cx="138.523" cy="16.453" r="2.338"/><path d="M80.548 29.343h-4.252c-.626 0-.956-.225-.956-.655 0-.317.217-.649.492-.889.607.146 1.271.22 1.972.22 3.192 0 5.496-1.491 5.496-4.186 0-1.035-.36-1.92-1.168-2.566v-.166l1.836.618h.279v-2.5h-.242l-2.871.906h-.237c-.822-.461-1.782-.73-3.093-.73-3.202 0-5.521 1.544-5.521 4.311 0 1.591.866 2.849 2.147 3.57v.196c-1.098.418-2.098 1.433-2.098 2.621 0 1.225.765 2.292 1.838 2.612v.169c-1.406.294-2.7.848-2.7 2.203 0 1.673 2.176 2.83 6.104 2.83 4.883 0 7.088-1.869 7.088-4.843 0-2.441-1.355-3.721-4.114-3.721zm-2.744-8.383c.902 0 1.346.568 1.346 2.746s-.452 2.611-1.346 2.611c-.896 0-1.332-.801-1.332-2.611 0-1.809.428-2.746 1.332-2.746zm-.23 15.315c-2.091 0-2.566-.726-2.566-1.595 0-.541.158-.88.479-1.257h4.144c1.028 0 1.497.422 1.497 1.072-.002 1.072-1.068 1.78-3.554 1.78z"/></g></svg>