<svg xmlns="http://www.w3.org/2000/svg" width="224" height="230" viewBox="-0.167 0 224 230" enable-background="new -0.167 0 224 230"><path fill="#332E2E" d="M210.527 86.262l-3.113-65.128-201.141 9.712 2.651 55.416z"/><path fill="#995590" d="M223.667 198.631l-23.575-198.631-200.092 23.296 22.38 194.669z"/><path fill="#71BACF" d="M206.667 205.5l8.333-194.846-198.742-10.589-9.57 198.437z"/><path fill="#332E2E" d="M216.667 220.965l-9.253-199.831-201.141 9.712 10.727 199.119z"/><g fill="#fff"><path d="M89.44 12.301h-.222l-3.485.527v.813l.885.409v5.106l-.843.392v.911h4.508v-.911l-.843-.392zM106.827 19.249v-4.81c0-1.456-.757-2.123-2.092-2.123-1.074 0-2.029.402-2.74 1.048h-.086v-1.057h-.222l-3.365.527v.812l.885.408v5.193l-.841.388v.822h4.462v-.822l-.799-.388v-5.032c.319-.129.604-.201.996-.201.717 0 .981.302.981 1.106v4.126l-.801.388v.822h4.468v-.822l-.846-.385zM84.774 9.051h-.223l-3.482.527v.812l.882.408v1.849c-.319-.229-.75-.33-1.185-.33-2.104 0-3.958 1.149-3.958 4.352 0 3.044 1.816 3.964 3.267 3.964.986 0 1.666-.439 1.998-.861h.087v.827l.224.001 3.228-.354v-.779l-.838-.46v-9.956zm-2.823 9.915c-.179.072-.316.154-.722.154-.912 0-1.453-.763-1.453-2.726 0-2.24.542-2.896 1.369-2.896.479 0 .603.129.806.287v5.181zM26.313 17.927v-3.937h1.649v-1.501h-1.649v-1.865l-2.808.368v1.498l-1.125.163v1.339h1.125v4.257c0 1.68.826 2.37 2.392 2.37.827 0 1.723-.212 2.152-.46v-1.119c-.191.032-.451.065-.726.065-.557 0-1.01-.403-1.01-1.178zM41.152 12.317c-2.364 0-4.007 1.522-4.007 4.137 0 2.698 1.498 4.177 4.225 4.177 1.465 0 2.607-.633 3.107-1.134v-.867c-.551.172-1.117.271-2.132.271-1.355 0-2.223-.714-2.312-2.191h4.644c0-3.332-1.146-4.393-3.525-4.393zm-1.116 3.307c.063-2.081.398-2.347 1.072-2.347.514 0 .924.554.924 2.266l-1.996.081zM76.87 14.854v-2.494c-.087-.027-.261-.043-.392-.043-.871 0-1.49.651-1.954 1.714h-.087v-1.729h-.222l-3.381.533v.812l.884.408v5.193l-.843.39v.82h4.658v-.82l-.993-.39-.001-4.18c.45-.215.954-.286 1.664-.286.232-.001.507.029.667.072zM69.872 14.724c0-1.78-1.363-2.407-3.481-2.407-1.393 0-2.382.374-3.121.604v2.082h1.365l.499-1.438c.16-.016.461-.034.689-.034 1.015 0 1.23.325 1.23 1.346v.933l-1.43.259c-1.741.359-2.837.713-2.837 2.335 0 1.321.816 2.228 2.224 2.228.986 0 2.016-.424 2.367-1.135h.073c.122.855.863 1.12 1.69 1.12.638 0 1.313-.178 1.573-.315v-.692l-.841-.39v-4.496zm-2.818 4.076c-.145.157-.353.301-.644.301-.508 0-.83-.253-.83-1.072 0-.76.341-1.167.952-1.224l.522-.06v2.055zM97.363 14.724c0-1.78-1.363-2.407-3.481-2.407-1.393 0-2.382.374-3.121.604v2.082h1.365l.499-1.438c.16-.016.461-.034.689-.034 1.015 0 1.23.325 1.23 1.346v.933l-1.431.259c-1.741.359-2.836.713-2.836 2.335 0 1.321.815 2.228 2.223 2.228.986 0 2.016-.424 2.367-1.135h.073c.122.855.864 1.12 1.69 1.12.639 0 1.314-.178 1.573-.315v-.692l-.841-.39.001-4.496zm-2.818 4.076c-.145.157-.353.301-.645.301-.508 0-.83-.253-.83-1.072 0-.76.341-1.167.953-1.224l.522-.06v2.055zM61.959 12.303h-.222l-3.485.526v.631l.886.409v4.815c-.224.114-.433.188-.786.188-.667 0-1.091-.159-1.091-1.065v-5.504h-.223l-3.392.526v.631l.796.409v4.242c0 1.378.772 2.516 2.368 2.516 1.073 0 1.91-.505 2.417-1.138h.087l.002 1.104.224.001 3.297-.355v-.688l-.879-.46.001-6.788zM36.654 14.439c0-1.456-.757-2.123-2.092-2.123-1.073 0-1.938.402-2.649 1.048h-.086v-4.32h-.223l-3.456.526v.813l.885.408v8.456l-.841.388v.822h4.463v-.822l-.799-.388v-5.032c.319-.129.604-.201.996-.201.717 0 .981.302.981 1.106v4.126l-.8.388v.822h4.467v-.822l-.846-.388v-4.807z"/><circle cx="87.975" cy="10.449" r="1.485"/><path d="M51.156 18.635h-2.701c-.397 0-.607-.143-.607-.416 0-.202.137-.413.312-.564.386.093.807.141 1.252.141 2.028 0 3.491-.947 3.491-2.658 0-.657-.229-1.219-.742-1.63v-.105l1.167.393h.177v-1.587h-.153l-1.823.576h-.151c-.522-.292-1.131-.464-1.964-.464-2.034 0-3.507.98-3.507 2.738 0 1.01.55 1.81 1.364 2.269v.124c-.696.266-1.332.909-1.332 1.664 0 .778.485 1.456 1.167 1.659v.107c-.894.187-1.715.539-1.715 1.398 0 1.063 1.382 1.798 3.877 1.798 3.101 0 4.501-1.188 4.501-3.076-.001-1.554-.862-2.367-2.613-2.367zm-1.743-5.323c.573 0 .854.361.854 1.744s-.287 1.658-.854 1.658c-.568 0-.846-.509-.846-1.658-.001-1.15.272-1.744.846-1.744zm-.146 9.726c-1.328 0-1.63-.461-1.63-1.014 0-.344.101-.559.304-.798h2.631c.653 0 .951.269.951.682 0 .68-.677 1.13-2.256 1.13z"/></g></svg>