<svg xmlns="http://www.w3.org/2000/svg" width="210" height="42" viewBox="0 0 210 42"><path fill="#332E2E" d="M35.717 42.023c-4.061 0-7.452-1.437-9.808-4.154-1.195-1.383-2.063-3.016-2.58-4.854-.578-1.729-.865-3.854-.865-6.452 0-2.43.372-4.714 1.106-6.792.505-1.347 1.57-3.806 3.106-5.342 2.354-2.292 5.581-3.549 9.097-3.549 2.508 0 4.765.522 6.706 1.553.586.315 1.012.843 1.206 1.49.194.649.127 1.328-.188 1.911-.393.732-1.151 1.171-2.026 1.171-.489 0-.976-.137-1.409-.395-.657-.393-1.411-.618-2.069-.618-1.495 0-1.495 1.016-1.495 1.349 0 .985.759 2.038 2.89 2.038 6.872 0 11.386-3.88 12.272-6.502.414-1.016 1.366-1.659 2.391-1.659 1.378 0 2.5 1.108 2.5 2.469v19.31c0 1.82.456 2.407.627 2.628.655.829 2.141 1.289 4.181 1.289 3.466 0 6.526-1.412 8.05-2.259v-20.933c0-1.383 1.126-2.508 2.51-2.508.672 0 1.303.26 1.775.733s.732 1.104.731 1.776v25.194c0 1.416-1.11 2.567-2.476 2.567-1.123 0-2.073-.779-2.375-1.843-1.749 1.008-4.667 2.286-8.217 2.286-3.747 0-6.495-1.109-8.167-3.297-1.116-1.453-1.659-3.297-1.659-5.635v-13.048c-.804.616-1.809 1.323-2.826 1.874.256 1.318.376 2.85.376 4.741 0 2.693-.386 5.126-1.116 7.035-.728 1.944-1.752 3.588-3.042 4.877-2.416 2.296-5.679 3.549-9.206 3.549zm-3.857-25.431c-.646.332-1.255.74-1.686 1.154-1.785 1.714-2.729 4.745-2.729 8.763 0 3.44.839 6.479 2.245 8.128 1.351 1.639 3.375 2.463 6.028 2.463 2.26 0 4.283-.778 5.696-2.191 1.669-1.624 2.741-4.917 2.741-8.399 0-1.173-.051-2.269-.107-3.09-1.1.228-2.658.478-4.193.478-4.893 0-8.055-2.573-8.055-6.555.002-.256.022-.507.06-.751zm166.507 25.338c-4.629 0-7.606-1.418-8.585-1.885-1.01-.506-1.601-1.329-1.684-2.328l-.003-.129.224-4.917c-.001-1.141.953-2.069 2.172-2.069 1.064 0 1.949.819 2.058 1.904l.428 3.471c1.642.621 3.453.936 5.393.936 2.028 0 3.528-.377 4.458-1.121.693-.571 1.021-1.462 1.021-2.795 0-2.371-.663-3.036-4.172-4.188-1.246-.416-2.286-.747-3.93-1.217-2.104-.585-3.634-1.437-4.809-2.677-1.42-1.485-2.172-3.501-2.172-5.826 0-4.985 3.857-8.206 9.826-8.206 3.875 0 6.543 1.177 7.547 1.621 1.051.462 1.648 1.473 1.55 2.542l-.165 4.858c-.112 1.152-1.021 1.972-2.117 1.972l-.111-.006c-.895-.1-1.644-.761-1.864-1.646l-.021-.106-.479-3.497c-1.337-.486-2.763-.723-4.34-.723-1.493 0-2.839.326-3.691.895-.77.486-1.118 1.212-1.118 2.296 0 1.089.244 1.841.769 2.364.45.45 1.214.835 2.637 1.327 1.629.543 2.619.873 3.938 1.204 3.774 1.196 7.738 2.962 7.736 9.015 0 2.811-.994 5.124-2.874 6.689-1.798 1.488-4.363 2.242-7.622 2.242zm-187.227 0c-4.63 0-7.608-1.418-8.586-1.885-1.008-.505-1.6-1.329-1.683-2.328l-.002-.129.224-4.917c-.001-1.141.954-2.069 2.172-2.069 1.063 0 1.947.818 2.058 1.903l.427 3.472c1.643.621 3.454.936 5.391.936 2.028 0 3.528-.377 4.458-1.121.694-.571 1.022-1.462 1.022-2.795 0-2.371-.663-3.036-4.172-4.188-1.245-.415-2.284-.747-3.929-1.217-2.104-.584-3.634-1.436-4.809-2.677-1.42-1.485-2.172-3.501-2.172-5.826 0-4.985 3.856-8.206 9.825-8.206 3.873 0 6.446 1.135 7.545 1.619 1.051.463 1.649 1.473 1.552 2.542l-.164 4.86c-.115 1.153-1.023 1.972-2.118 1.972l-.111-.006c-.893-.1-1.641-.76-1.863-1.644l-.021-.108-.48-3.497c-1.336-.486-2.762-.723-4.34-.723-1.492 0-2.837.326-3.691.895-.77.486-1.119 1.212-1.119 2.296 0 1.089.244 1.84.769 2.365.45.45 1.213.834 2.638 1.327 1.629.543 2.619.873 3.938 1.204 3.776 1.196 7.74 2.962 7.738 9.015 0 2.811-.994 5.124-2.874 6.689-1.799 1.487-4.363 2.241-7.623 2.241zm165.37-.001c-5.176 0-9.001-1.661-11.369-4.938-1.93-2.593-2.871-6.076-2.871-10.641 0-2.656.369-4.911 1.129-6.894.657-1.918 1.678-3.588 3.02-4.93 1.273-1.275 2.751-2.218 4.392-2.804 1.544-.557 3.181-.84 4.861-.84 2.097 0 4.009.409 5.685 1.215 1.58.761 2.88 1.892 3.863 3.361 1.629 2.354 2.459 5.571 2.459 9.55 0 1.375-1.102 2.452-2.508 2.452l-15.021.014c-1.357 0-2.342-.96-2.342-2.283 0-1.345 1.028-2.397 2.341-2.397l12.361-.269c-.222-1.875-.679-3.352-1.362-4.399-1.06-1.61-2.851-2.395-5.475-2.395-1.622 0-3.93.384-5.707 2.211-1.776 1.827-2.678 4.656-2.678 8.409 0 7.403 2.758 10.562 9.223 10.562 3.996 0 6.779-.992 6.808-1.002.335-.12.679-.18 1.026-.18.957 0 1.802.46 2.205 1.199.306.523.372 1.193.168 1.811-.22.663-.723 1.205-1.379 1.486.004.002-3.531 1.702-8.829 1.702zm-40.429-.054c-2.081 0-4.026-.514-5.625-1.487-3.48-2.101-5.131-6.569-3.836-10.392 1.251-3.701 4.336-4.966 6.548-5.595 3.167-.902 5.718-1.007 7.36-1.007 1.15 0 2.099.791 2.295 1.874v-3.998c0-3.101-.852-4.697-2.762-5.175-.64-.142-1.385-.217-2.188-.217-1.075 0-2.265.13-3.634.396-.665.101-1.905.493-2.33.636-.259.092-.545.142-.834.142-1.021 0-1.946-.625-2.36-1.591-.492-1.375.18-2.826 1.477-3.29.045-.017 1.446-.537 3.861-.939 1.383-.234 2.689-.353 3.88-.353 3.608 0 6.271 1.072 7.91 3.186 1.345 1.731 1.998 4.015 1.998 6.981v17.931c0 1.383-1.125 2.508-2.508 2.508-1.083 0-2.008-.688-2.359-1.651-1.945 1.299-4.401 2.041-6.893 2.041zm6.742-15.793c-.072.389-.249.754-.52 1.062-.385.438-.921.705-1.473.734-1.905.099-4.921.522-6.374.997-2.334.763-3.375 1.947-3.375 3.842 0 1.374.516 2.456 1.532 3.219.949.711 2.295 1.104 3.791 1.104.462-.001.932-.038 1.395-.113 1.763-.279 3.608-1.116 5.023-2.267v-8.578zm15.715 15.676c-2.313 0-4.13-.644-5.399-1.913-1.663-1.662-1.802-3.86-1.802-5.97v-17.644h-1.569c-1.336 0-2.508-1.172-2.508-2.508 0-1.36 1.148-2.509 2.508-2.509h1.569v-4.037c0-1.383 1.125-2.509 2.509-2.509 1.383 0 2.508 1.125 2.508 2.509v4.037h5.425c1.384 0 2.509 1.125 2.509 2.509 0 1.36-1.148 2.508-2.509 2.508h-5.425l-.001 17.875c-.002.7-.006 1.873.323 2.202.354.354 1.067.713 1.862.713 1.433 0 2.7-.396 2.713-.4.217-.085.503-.138.797-.138 1.014 0 1.936.639 2.242 1.554.454 1.175-.179 2.558-1.425 3.04l-.121.038c-1.365.433-2.761.643-4.206.643zm-35.975-.272c-1.383 0-2.508-1.126-2.508-2.51v-19.163c0-1.33-.265-2.341-.765-2.925-.564-.645-1.715-.99-3.319-.99-3.807 0-6.803 1.775-8.242 2.628l-.048.028c.048.41.073.836.073 1.26v19.165c0 1.383-1.125 2.508-2.509 2.508-1.383 0-2.509-1.125-2.509-2.508v-19.165c0-1.334-.274-2.335-.794-2.895-.599-.685-1.698-1.021-3.289-1.021-3.501 0-6.519 1.582-7.938 2.414v20.666c0 1.383-1.125 2.508-2.508 2.508-1.384 0-2.51-1.125-2.51-2.508v-25.255c0-1.383 1.126-2.508 2.51-2.508 1.176 0 2.165.813 2.435 1.907 2.013-1.178 4.62-2.24 8.01-2.24 3.409 0 6.038 1.169 7.532 3.318 2.254-1.45 5.91-3.318 9.784-3.318 5.782 0 9.1 3.255 9.102 8.932v19.163c.002 1.383-1.123 2.509-2.507 2.509zm-42.501-.004c-1.383 0-2.509-1.125-2.509-2.508v-32.975l-1.361.06c-1.311 0-2.337-.894-2.434-2.078-.047-.575.137-1.135.518-1.577.403-.468.98-.757 1.63-.817l3.914-.743.187-.018c.608 0 1.232.241 1.757.678.537.532.806 1.176.806 1.83v35.641c0 1.382-1.125 2.507-2.508 2.507z"/><path fill="#fff" d="M80.006 1.826l-3.966.753c-.782.053-1.341.634-1.285 1.32s.67 1.16 1.396 1.16l2.402-.105v34.021c0 .838.671 1.508 1.509 1.508s1.508-.67 1.508-1.508v-35.641c0-.391-.167-.782-.446-1.062-.334-.278-.727-.446-1.118-.446zm35.964 10.056c-4.468 0-8.602 2.681-10.11 3.743-1.173-2.458-3.687-3.743-7.206-3.743-4.077 0-6.981 1.675-8.938 3.017v-1.176c0-.838-.67-1.508-1.508-1.508-.839 0-1.51.67-1.51 1.508v25.256c0 .838.671 1.508 1.51 1.508.838 0 1.508-.67 1.508-1.508v-21.232c1.563-.95 4.916-2.848 8.938-2.848 1.899 0 3.24.446 4.021 1.34.727.782 1.062 2.011 1.062 3.575v19.165c0 .838.67 1.508 1.509 1.508.838 0 1.509-.67 1.509-1.508v-19.165c0-.614-.057-1.229-.167-1.788 1.001-.501 4.569-3.128 9.384-3.128 1.899 0 3.297.446 4.079 1.34.67.782 1.005 2.011 1.005 3.575v19.164c0 .838.671 1.51 1.508 1.51.838 0 1.509-.67 1.509-1.51v-19.163c-.003-5.139-2.851-7.932-8.103-7.932zm-44.052.332c-.838 0-1.51.67-1.51 1.508v21.511c-1.396.838-4.971 2.682-9.05 2.682-2.458 0-4.133-.614-4.971-1.676-.392-.504-.838-1.342-.838-3.241v-19.31c0-.816-.666-1.469-1.5-1.469-.666 0-1.221.435-1.443.979-1.017 3.006-5.828 7.182-13.22 7.182-2.743 0-3.89-1.554-3.89-3.038 0-2.606 2.887-2.899 5.077-1.59.716.428 1.656.325 2.042-.393.388-.717.11-1.656-.606-2.042-1.768-.938-3.864-1.436-6.237-1.436-3.256 0-6.236 1.159-8.39 3.256-1.214 1.214-2.208 3.202-2.87 4.968-.663 1.877-1.049 4.029-1.049 6.458 0 2.539.275 4.524.828 6.182.496 1.766 1.323 3.256 2.373 4.47 2.152 2.483 5.299 3.81 9.052 3.81 3.312 0 6.292-1.16 8.5-3.256 1.215-1.215 2.153-2.761 2.814-4.527.718-1.877 1.05-4.248 1.05-6.678 0-2.145-.158-3.846-.521-5.285 2.335-1.07 4.965-3.442 4.971-3.448v15.166c0 1.341.168 3.354 1.453 5.027 1.452 1.899 3.91 2.904 7.373 2.904 3.688 0 7.096-1.555 9.116-3.064v1.054c0 .87.656 1.567 1.476 1.567s1.476-.729 1.476-1.567v-25.196c.001-.838-.669-1.508-1.506-1.508zm-29.795 23.401c-1.602 1.602-3.864 2.484-6.403 2.484-2.926 0-5.244-.939-6.789-2.814-1.601-1.877-2.484-5.188-2.484-8.776 0-4.36 1.05-7.577 3.036-9.485.994-.954 2.861-1.935 4.295-2.145-.712.684-.975 1.668-.975 2.463 0 3.397 2.696 5.555 7.055 5.555 1.719 0 3.665-.345 5.091-.711.082.75.209 2.439.209 4.324-.001 3.527-1.05 7.174-3.035 9.105zm-28.467-10.662c-1.34-.336-2.346-.67-4.021-1.229-1.453-.503-2.402-.949-3.018-1.565-.726-.726-1.062-1.731-1.062-3.072 0-1.397.503-2.458 1.564-3.129 1.006-.67 2.514-1.062 4.245-1.062 2.458 0 4.189.56 5.251 1.006l.56 4.078c.112.447.503.838 1.005.894.614 0 1.062-.447 1.118-1.006l.167-4.916c.056-.614-.276-1.236-.895-1.508-.97-.427-3.464-1.563-7.207-1.563-5.418 0-8.825 2.793-8.825 7.206 0 2.122.67 3.854 1.898 5.139 1.006 1.062 2.346 1.844 4.357 2.402 1.563.447 2.625.781 3.966 1.229 3.575 1.174 4.86 2.067 4.86 5.139 0 1.621-.447 2.794-1.397 3.576-1.118.894-2.793 1.34-5.083 1.34-3.017 0-5.139-.727-6.312-1.229l-.502-4.078c-.057-.559-.504-1.004-1.062-1.004-.615 0-1.173.445-1.173 1.115l-.224 4.917c.056.67.446 1.173 1.116 1.509 1.173.559 3.911 1.787 8.156 1.787 3.017 0 5.362-.67 6.983-2.011 1.676-1.396 2.514-3.408 2.514-5.921.004-5.419-3.46-6.927-6.979-8.044zm187.227 0c-1.341-.336-2.347-.67-4.022-1.229-1.452-.503-2.4-.949-3.017-1.565-.727-.726-1.062-1.731-1.062-3.072 0-1.397.503-2.458 1.563-3.129 1.006-.67 2.514-1.062 4.246-1.062 2.457 0 4.188.56 5.251 1.006l.559 4.078c.111.447.503.838 1.005.894.614 0 1.062-.447 1.118-1.006l.168-4.916c.057-.614-.276-1.236-.895-1.508-.969-.427-3.464-1.563-7.206-1.563-5.419 0-8.826 2.793-8.826 7.206 0 2.122.67 3.854 1.898 5.139 1.006 1.062 2.347 1.844 4.356 2.402 1.564.447 2.626.781 3.967 1.229 3.575 1.174 4.86 2.067 4.86 5.139 0 1.621-.447 2.794-1.396 3.576-1.117.894-2.794 1.34-5.083 1.34-3.018 0-5.141-.727-6.312-1.229l-.503-4.078c-.056-.559-.503-1.004-1.062-1.004-.613 0-1.173.445-1.173 1.115l-.224 4.917c.056.67.447 1.173 1.117 1.509 1.173.559 3.91 1.787 8.155 1.787 3.018 0 5.362-.67 6.982-2.011 1.676-1.396 2.514-3.408 2.514-5.921.004-5.419-3.459-6.927-6.978-8.044zm-19.961-11.955c-1.509-.726-3.24-1.116-5.251-1.116-1.62 0-3.128.278-4.525.782-1.562.558-2.904 1.452-4.021 2.569-1.229 1.229-2.18 2.793-2.793 4.581-.728 1.899-1.062 4.079-1.062 6.536 0 4.357.895 7.653 2.682 10.055 2.18 3.017 5.755 4.524 10.559 4.524 4.972 0 8.323-1.563 8.436-1.62.781-.334 1.117-1.229.727-1.898-.335-.614-1.229-.838-2.012-.559 0 0-2.903 1.062-7.149 1.062-7.039 0-10.223-3.575-10.223-11.562 0-4.023 1.006-7.096 2.961-9.106 2.011-2.067 4.58-2.514 6.424-2.514 2.904 0 5.026.894 6.312 2.848.949 1.453 1.452 3.463 1.62 5.922l-13.456.292c-.78 0-1.341.614-1.341 1.397 0 .726.503 1.283 1.341 1.283l15.021-.014c.838 0 1.508-.614 1.508-1.452 0-3.799-.782-6.815-2.29-8.994-.898-1.339-2.072-2.344-3.468-3.016zm-19.368 24.576s-1.396.447-3.017.447c-1.117 0-2.066-.502-2.57-1.006-.67-.671-.614-2.078-.614-3.141v-18.644h6.425c.838 0 1.509-.726 1.509-1.508 0-.838-.671-1.509-1.509-1.509h-6.425v-5.036c0-.838-.67-1.509-1.508-1.509s-1.509.671-1.509 1.509v5.037h-2.569c-.782 0-1.508.671-1.508 1.509 0 .782.726 1.508 1.508 1.508h2.569v18.644c0 2.085.145 3.898 1.509 5.263 1.062 1.062 2.626 1.62 4.692 1.62 2.347 0 3.909-.613 3.966-.613.727-.281 1.118-1.062.838-1.789-.224-.67-1.062-1.061-1.787-.782zm-27.338-25.353c-2.347.391-3.688.894-3.688.894-.78.279-1.173 1.172-.894 1.955.335.783 1.173 1.173 1.955.894 0 0 1.61-.543 2.458-.67 2.011-.391 4.245-.614 6.257-.168 2.904.727 3.519 3.463 3.519 6.145v13.85c-1.562 1.396-3.741 2.457-5.864 2.793-3.798.613-7.877-1.006-7.877-5.196 0-2.707 1.788-4.049 4.064-4.792 1.53-.5 4.575-.939 6.633-1.046.585-.03 1.132-.608 1.077-1.3-.056-.713-.658-1.186-1.328-1.186-1.823 0-4.212.149-7.087.969-2.722.774-4.903 2.082-5.874 4.953-1.173 3.463.447 7.43 3.408 9.217 3.854 2.347 9.663 1.509 12.848-1.676v1.121c0 .838.672 1.508 1.51 1.508s1.508-.67 1.508-1.508v-17.93c0-2.809-.609-4.85-1.788-6.368-2.16-2.783-6.242-3.237-10.837-2.459z"/></svg>