<svg xmlns="http://www.w3.org/2000/svg" width="86" height="18" viewBox="0 0 86 18"><path fill="#332E2E" d="M14.216 16.961c-1.671 0-3.068-.592-4.037-1.71-.493-.569-.85-1.242-1.063-1.999-.238-.712-.355-1.586-.355-2.656 0-1 .153-1.94.455-2.796.208-.555.647-1.567 1.279-2.2.969-.943 2.298-1.461 3.745-1.461 1.033 0 1.962.215 2.761.64.241.13.417.347.497.613.08.267.052.547-.078.787-.162.301-.474.482-.834.482-.202 0-.402-.056-.58-.163-.271-.162-.581-.254-.852-.254-.615 0-.615.418-.615.556 0 .406.312.839 1.19.839 2.83 0 4.688-1.597 5.052-2.677.17-.418.562-.683.984-.683.567 0 1.029.456 1.029 1.017v7.95c0 .749.188.991.259 1.082.27.341.881.531 1.721.531 1.427 0 2.687-.582 3.314-.931v-8.618c0-.57.464-1.033 1.033-1.033.276 0 .537.107.731.302s.301.455.301.731v10.373c0 .583-.457 1.057-1.019 1.057-.463 0-.854-.321-.978-.759-.72.415-1.921.941-3.383.941-1.542 0-2.674-.457-3.362-1.357-.459-.598-.683-1.358-.683-2.32v-5.373c-.331.254-.745.545-1.164.771.105.543.155 1.174.155 1.953 0 1.108-.16 2.109-.459 2.896-.3.8-.722 1.477-1.253 2.008-.995.945-2.338 1.461-3.791 1.461zm-1.588-10.47c-.266.136-.517.304-.694.475-.734.705-1.124 1.953-1.124 3.607 0 1.417.345 2.668.924 3.346.557.675 1.39 1.014 2.482 1.014.931 0 1.764-.32 2.345-.902.687-.668 1.128-2.024 1.128-3.458 0-.483-.021-.934-.044-1.272-.453.095-1.094.197-1.727.197-2.015 0-3.316-1.06-3.316-2.698l.026-.309zm68.553 10.432c-1.905 0-3.131-.583-3.535-.776-.416-.208-.659-.547-.693-.958v-.053l.091-2.024c0-.47.393-.852.895-.852.438 0 .802.337.848.784l.176 1.429c.676.256 1.422.386 2.221.386.835 0 1.452-.155 1.835-.462.286-.235.421-.602.421-1.15 0-.976-.273-1.25-1.718-1.725-.512-.171-.941-.307-1.618-.5-.866-.241-1.496-.592-1.98-1.102-.584-.612-.894-1.442-.894-2.399 0-2.052 1.588-3.378 4.045-3.378 1.595 0 2.694.484 3.107.667.433.19.679.607.639 1.047l-.068 2c-.046.475-.42.812-.872.812l-.045-.002c-.369-.042-.677-.313-.768-.678l-.008-.044-.197-1.439c-.551-.2-1.138-.298-1.787-.298-.615 0-1.169.134-1.52.369-.316.2-.46.499-.46.945 0 .449.101.759.317.974.186.185.5.343 1.086.546.67.223 1.078.359 1.621.496 1.553.492 3.186 1.219 3.185 3.711 0 1.157-.409 2.109-1.184 2.753-.742.61-1.798.921-3.14.921zm-77.083 0c-1.906 0-3.132-.583-3.535-.776-.416-.209-.659-.547-.693-.959l-.001-.053.092-2.024c0-.47.393-.852.895-.852.438 0 .802.337.847.783l.176 1.43c.677.256 1.422.386 2.22.386.835 0 1.452-.155 1.835-.462.286-.235.421-.602.421-1.15 0-.976-.273-1.25-1.718-1.725-.512-.17-.94-.307-1.618-.5-.866-.241-1.496-.591-1.98-1.102-.584-.613-.894-1.443-.894-2.4 0-2.052 1.587-3.378 4.045-3.378 1.595 0 2.654.467 3.106.667.433.191.679.607.639 1.046l-.067 2c-.047.476-.421.813-.872.813l-.046-.003c-.367-.041-.676-.313-.767-.677l-.009-.045-.197-1.439c-.55-.2-1.138-.298-1.787-.298-.614 0-1.168.134-1.52.369-.317.2-.46.499-.46.945 0 .449.1.758.316.974.185.186.5.343 1.086.546.671.224 1.079.359 1.621.496 1.555.493 3.187 1.22 3.186 3.711 0 1.157-.409 2.11-1.183 2.754-.74.612-1.796.923-3.138.923zm68.084 0c-2.131 0-3.706-.685-4.68-2.033-.795-1.067-1.182-2.502-1.182-4.381 0-1.094.151-2.022.465-2.838.271-.79.69-1.477 1.243-2.03.524-.525 1.133-.913 1.808-1.154.636-.229 1.31-.347 2.001-.347.864 0 1.651.169 2.341.501.651.313 1.185.778 1.591 1.383.67.969 1.012 2.293 1.012 3.932 0 .566-.454 1.01-1.033 1.01l-6.184.006c-.559 0-.964-.396-.964-.94 0-.554.423-.987.963-.987l5.089-.11c-.091-.772-.279-1.38-.561-1.812-.437-.663-1.174-.986-2.254-.986-.668 0-1.618.159-2.35.911-.731.752-1.103 1.917-1.103 3.462 0 3.048 1.135 4.349 3.797 4.349 1.645 0 2.791-.409 2.803-.412.138-.05.279-.075.423-.075.394 0 .742.19.907.494.126.215.153.491.07.746-.091.273-.298.496-.568.612.003-.002-1.452.699-3.634.699zm-16.644-.023c-.857 0-1.658-.211-2.316-.612-1.432-.865-2.112-2.705-1.579-4.278.515-1.524 1.785-2.045 2.695-2.304 1.304-.372 2.355-.415 3.03-.415.474 0 .865.326.944.771v-1.645c0-1.277-.351-1.934-1.137-2.131-.263-.058-.57-.089-.9-.089-.443 0-.933.053-1.497.163-.273.042-.784.203-.959.262-.106.038-.225.059-.343.059-.42 0-.802-.258-.972-.655-.202-.566.075-1.164.608-1.355.018-.006.596-.221 1.59-.386.569-.096 1.107-.146 1.598-.146 1.485 0 2.582.441 3.257 1.312.553.712.822 1.653.822 2.874v7.382c0 .569-.463 1.033-1.033 1.033-.446 0-.827-.283-.971-.68-.8.535-1.812.84-2.837.84zm2.774-6.502c-.029.16-.102.31-.213.437-.158.18-.379.291-.606.302-.784.041-2.026.215-2.625.411-.961.314-1.389.802-1.389 1.582 0 .566.212 1.011.631 1.326.391.293.945.455 1.561.455.19-.001.383-.017.574-.047.726-.115 1.485-.46 2.068-.934v-3.532h-.001zm6.471 6.454c-.952 0-1.7-.265-2.223-.787-.685-.685-.742-1.59-.742-2.458v-7.265h-.646c-.55 0-1.033-.482-1.033-1.032 0-.561.473-1.034 1.033-1.034h.646v-1.661c0-.57.463-1.033 1.033-1.033.569 0 1.032.463 1.032 1.033v1.661h2.234c.57 0 1.033.463 1.033 1.034 0 .56-.473 1.032-1.033 1.032h-2.234v7.359c-.001.289-.002.771.132.907.146.146.44.294.767.294.59 0 1.112-.164 1.117-.165.089-.035.208-.057.329-.057.417 0 .797.263.923.64.187.483-.073 1.053-.586 1.251l-.05.016c-.562.179-1.137.265-1.732.265zm-14.811-.112c-.569 0-1.033-.464-1.033-1.033v-7.89c0-.547-.109-.963-.314-1.204-.232-.266-.706-.408-1.367-.408-1.567 0-2.801.731-3.394 1.082l-.019.012c.019.168.03.344.03.519v7.89c0 .569-.463 1.033-1.033 1.033-.569 0-1.033-.463-1.033-1.033v-7.89c0-.549-.112-.961-.327-1.192-.247-.282-.699-.42-1.354-.42-1.441 0-2.683.651-3.268.994v8.509c0 .569-.463 1.033-1.033 1.033-.57 0-1.033-.463-1.033-1.033v-10.399c0-.57.463-1.033 1.033-1.033.484 0 .892.335 1.002.785.829-.485 1.902-.922 3.298-.922 1.403 0 2.486.481 3.101 1.367.928-.597 2.434-1.367 4.028-1.367 2.381 0 3.748 1.341 3.748 3.678v7.89c.001.568-.462 1.032-1.032 1.032zm-17.498-.001c-.569 0-1.033-.463-1.033-1.033v-13.576l-.561.024c-.54 0-.962-.368-1.002-.855-.019-.237.057-.467.213-.649.167-.193.404-.312.671-.337l1.611-.306.078-.007c.25 0 .507.099.723.279.221.219.332.485.332.753v14.674c0 .569-.463 1.033-1.032 1.033z"/><path fill="#fff" d="M32.451.412l-1.633.31c-.322.021-.552.261-.529.543.022.283.275.478.575.478l.989-.044v14.007c0 .345.276.621.621.621s.621-.276.621-.621v-14.674c0-.161-.068-.322-.183-.437-.139-.114-.3-.183-.461-.183zm14.807 4.14c-1.84 0-3.542 1.104-4.163 1.541-.482-1.012-1.518-1.541-2.967-1.541-1.678 0-2.874.689-3.68 1.242v-.484c0-.345-.275-.621-.621-.621s-.622.276-.622.621v10.397c0 .345.276.621.622.621.345 0 .621-.276.621-.621v-8.74c.644-.392 2.024-1.173 3.68-1.173.782 0 1.334.184 1.656.552.299.322.438.828.438 1.472v7.89c0 .345.276.621.621.621s.621-.276.621-.621v-7.89c0-.252-.024-.506-.068-.736.412-.206 1.881-1.288 3.863-1.288.782 0 1.358.184 1.679.552.276.322.414.828.414 1.472v7.89c0 .345.276.622.621.622s.621-.276.621-.622v-7.89c-.002-2.116-1.174-3.266-3.336-3.266zm-18.137.136c-.345 0-.622.275-.622.621v8.856c-.574.345-2.047 1.104-3.726 1.104-1.012 0-1.701-.253-2.046-.69-.161-.208-.345-.553-.345-1.334v-7.95c0-.336-.274-.604-.617-.604-.274 0-.503.179-.594.402-.419 1.238-2.399 2.958-5.443 2.958-1.129 0-1.602-.64-1.602-1.251 0-1.073 1.188-1.193 2.09-.654.295.177.682.134.841-.162.159-.295.045-.681-.25-.84-.728-.386-1.591-.591-2.568-.591-1.34 0-2.567.477-3.454 1.341-.5.5-.909 1.318-1.182 2.045-.272.771-.432 1.657-.432 2.657 0 1.045.113 1.862.341 2.545.204.727.545 1.34.977 1.84.886 1.022 2.182 1.569 3.727 1.569 1.364 0 2.591-.478 3.5-1.341.5-.5.887-1.137 1.159-1.864.296-.773.432-1.75.432-2.75 0-.884-.065-1.583-.214-2.176.961-.44 2.044-1.417 2.047-1.419v6.244c0 .552.069 1.381.598 2.069.599.782 1.61 1.196 3.036 1.196 1.519 0 2.922-.64 3.753-1.262v.434c0 .358.271.645.608.645s.607-.3.607-.645v-10.371c-.001-.345-.276-.622-.621-.622zm-12.267 9.635c-.66.659-1.591 1.023-2.636 1.023-1.205 0-2.159-.387-2.795-1.159-.659-.773-1.022-2.136-1.022-3.613 0-1.795.433-3.119 1.25-3.905.409-.393 1.178-.796 1.769-.883-.293.282-.402.687-.402 1.014 0 1.399 1.11 2.288 2.904 2.288.708 0 1.509-.142 2.096-.293.034.309.086 1.004.086 1.78-.001 1.451-.433 2.953-1.25 3.748zm-11.721-4.389c-.551-.139-.965-.276-1.655-.506-.598-.208-.989-.391-1.242-.645-.299-.299-.437-.713-.437-1.264 0-.576.207-1.013.643-1.289.414-.276 1.035-.437 1.748-.437 1.012 0 1.725.23 2.162.414l.23 1.679c.047.184.208.345.415.368.252 0 .437-.184.46-.414l.068-2.024c.023-.253-.114-.509-.368-.621-.4-.176-1.427-.644-2.967-.644-2.231 0-3.634 1.15-3.634 2.967 0 .873.276 1.586.782 2.116.414.437.965.759 1.793.989.644.184 1.081.321 1.633.506 1.472.483 2.001.851 2.001 2.116 0 .667-.184 1.15-.575 1.473-.461.368-1.15.551-2.093.551-1.242 0-2.116-.299-2.598-.506l-.207-1.679c-.023-.231-.208-.414-.437-.414-.253 0-.483.183-.483.459l-.093 2.024c.023.275.184.483.46.622.483.23 1.61.736 3.357.736 1.242 0 2.208-.276 2.875-.829.689-.575 1.035-1.403 1.035-2.438.003-2.23-1.423-2.85-2.873-3.31zm77.084 0c-.552-.139-.966-.276-1.656-.506-.598-.208-.988-.391-1.242-.645-.299-.299-.437-.713-.437-1.265 0-.576.207-1.013.644-1.289.415-.275 1.035-.437 1.748-.437 1.012 0 1.725.23 2.162.414l.23 1.679c.045.184.207.345.414.368.252 0 .438-.184.46-.414l.069-2.024c.024-.253-.113-.509-.368-.621-.399-.176-1.426-.644-2.967-.644-2.231 0-3.634 1.15-3.634 2.967 0 .873.276 1.586.782 2.116.414.437.966.759 1.793.989.644.184 1.081.321 1.633.506 1.471.483 2 .851 2 2.116 0 .667-.184 1.15-.574 1.473-.46.368-1.15.551-2.093.551-1.242 0-2.116-.299-2.599-.506l-.207-1.679c-.023-.231-.207-.414-.437-.414-.252 0-.483.183-.483.459l-.092 2.024c.022.275.184.483.46.622.482.23 1.609.736 3.357.736 1.242 0 2.208-.276 2.875-.829.689-.575 1.034-1.403 1.034-2.438.003-2.229-1.423-2.849-2.872-3.309zm-8.218-4.923c-.621-.299-1.334-.459-2.162-.459-.667 0-1.288.115-1.862.322-.644.23-1.196.598-1.656 1.058-.506.506-.897 1.15-1.15 1.886-.3.782-.438 1.679-.438 2.691 0 1.794.369 3.151 1.105 4.14.897 1.243 2.369 1.863 4.347 1.863 2.046 0 3.426-.644 3.473-.667.321-.138.459-.506.299-.781-.138-.253-.506-.345-.829-.23 0 0-1.195.438-2.943.438-2.898 0-4.208-1.472-4.208-4.761 0-1.656.414-2.921 1.219-3.749.828-.851 1.886-1.035 2.645-1.035 1.196 0 2.069.368 2.599 1.172.391.599.598 1.426.667 2.438l-5.541.12c-.321 0-.551.253-.551.575 0 .299.207.528.551.528l6.185-.006c.345 0 .621-.253.621-.598 0-1.564-.321-2.806-.942-3.703-.371-.551-.854-.965-1.429-1.242zm-7.974 10.118s-.575.185-1.243.185c-.46 0-.851-.207-1.058-.415-.276-.276-.252-.855-.252-1.293v-7.676h2.645c.345 0 .621-.299.621-.621 0-.346-.276-.622-.621-.622h-2.645v-2.072c0-.346-.276-.622-.621-.622-.346 0-.622.276-.622.622v2.073h-1.057c-.323 0-.621.276-.621.622 0 .321.298.621.621.621h1.057v7.676c0 .858.06 1.605.622 2.167.437.438 1.081.667 1.931.667.967 0 1.609-.253 1.633-.253.299-.115.46-.437.345-.736-.091-.277-.436-.437-.735-.323zm-11.255-10.438c-.966.161-1.519.368-1.519.368-.321.115-.482.483-.368.805.138.322.482.483.804.368 0 0 .664-.224 1.013-.276.828-.161 1.748-.253 2.576-.069 1.195.299 1.448 1.425 1.448 2.53v5.702c-.643.575-1.54 1.012-2.414 1.15-1.563.252-3.243-.414-3.243-2.139 0-1.114.736-1.667 1.674-1.973.629-.206 1.883-.387 2.73-.431.241-.013.466-.25.443-.535-.023-.293-.271-.488-.547-.488-.75 0-1.734.062-2.917.399-1.121.318-2.019.857-2.418 2.04-.483 1.426.184 3.059 1.403 3.794 1.586.966 3.978.621 5.289-.689v.461c0 .345.277.621.622.621s.621-.276.621-.621v-7.383c0-1.156-.25-1.997-.736-2.622-.889-1.145-2.57-1.332-4.461-1.012z"/></svg>