<svg xmlns="http://www.w3.org/2000/svg" width="86" height="18" viewBox="0 0 86 18"><path fill="#332E2E" d="M81.379 17.684c-1.9 0-3.15-.6-3.551-.799-.398-.201-.6-.551-.648-.951v-.049l.1-2c0-.451.35-.852.85-.852.449 0 .85.301.9.75l.199 1.451c.701.25 1.35.4 2.15.4.85 0 1.449-.102 1.85-.4.301-.25.451-.6.451-1.15 0-1-.25-1.301-1.701-1.801-.5-.148-1-.299-1.6-.5-.85-.25-1.449-.549-1.949-1.049-.551-.65-.9-1.451-.9-2.451 0-2.05 1.549-3.35 4-3.35 1.6 0 2.699.449 3.15.65.398.199.648.549.6 1l-.051 2.1c-.049.5-.449.8-.9.8h-.049c-.35-.051-.65-.351-.75-.75v-.05l-.201-1.35c-.549-.201-1.148-.301-1.799-.301-.6 0-1.15.15-1.5.35-.301.201-.451.5-.451.951 0 .449.102.75.301.949.199.201.449.4 1.051.6l1.6.502c1.549.5 3.199 1.148 3.199 3.648 0 1.25-.35 2.15-1.15 2.801-.752.601-1.851.851-3.201.851z"/><path fill="#fff" d="M82.43 10.684c-.551-.15-2.201-.551-2.852-1.1-.299-.301-.449-.75-.449-1.3 0-.6.199-.949.65-1.25.4-.3 1.049-.449 1.75-.449 1 0 1.699.25 2.15.399l.25 1.649c.049.201.199.351.398.351.25 0 .451-.2.451-.45l.049-2c.051-.35-.148-.5-.398-.65-.4-.199-1.4-.6-2.9-.6-2.25 0-3.65 1.15-3.65 2.9 0 .85.301 1.699.801 2.201.648.699 1.549.949 3.398 1.5 1.451.5 2.051.799 2.051 2.049 0 .65-.15 1.201-.5 1.5-.449.35-1.15.6-2.1.6-1.25 0-2.15-.299-2.65-.5l-.199-1.648c0-.25-.201-.451-.451-.451s-.5.15-.5.4l-.1 2c0 .25.199.551.449.65.5.25 1.602.75 3.352.75 1.25 0 2.25-.301 2.949-.85.699-.551 1-1.5 1-2.551-.051-2.15-1.5-2.699-2.949-3.15z"/><path fill="#332E2E" d="M4.28 17.635c-1.9 0-3.15-.602-3.55-.801-.4-.199-.6-.551-.65-.949v-.051l.1-2c0-.449.35-.85.85-.85.45 0 .85.299.9.75l.2 1.5c.7.25 1.35.4 2.15.4.85 0 1.45-.102 1.85-.4.3-.25.45-.6.45-1.15 0-1-.25-1.301-1.7-1.801-.5-.148-1-.299-1.6-.5-.85-.25-1.45-.549-1.95-1.049-.55-.701-.95-1.5-.95-2.5 0-2.05 1.55-3.351 4-3.351 1.6 0 2.7.451 3.15.65.4.2.65.551.6 1l-.05 2.1c-.05.5-.45.8-.9.8h-.05c-.35-.051-.65-.349-.75-.75v-.05l-.2-1.399c-.55-.2-1.15-.3-1.8-.3-.6 0-1.15.15-1.5.35-.3.2-.45.5-.45.95s.1.75.3.95c.2.199.45.4 1.05.599l1.6.5c1.55.5 3.2 1.15 3.2 3.65 0 1.25-.35 2.15-1.15 2.801-.7.651-1.8.901-3.15.901zM72.379 17.635c-2.15 0-3.699-.701-4.699-2.051-.75-1.051-1.15-2.5-1.15-4.4 0-1.1.199-1.949.5-2.8.25-.799.549-1.35 1.1-1.899.5-.55 1.1-.95 1.75-1.2s1.35-.4 2.051-.4c.85 0 1.699.101 2.398.451.65.299 1.15.75 1.551 1.35.801 1.1 1.1 2.3 1.1 3.951 0 .549-.35 1.049-1.049 1.049h-6.25c-.551 0-.852-.4-.852-.949 0-.551.4-.951.852-.951l5.25-.15c-.102-.75-.4-1.449-.602-1.849-.449-.65-1.199-.949-2.299-.949-.65 0-1.5.199-2.25.949s-1.15 2.05-1.15 3.4c0 3.25 1.15 4.4 3.801 4.4 1.648 0 2.799-.4 2.799-.4.65-.199 1.25.051 1.4.35.4.701-.15 1.25-.4 1.352-.251.144-1.652.746-3.851.746zM59.779 6.084c-.65-.851-1.701-1.301-3.201-1.301-.5 0-1.049.051-1.6.15-1 .199-1.6.4-1.6.4-.5.199-.85.799-.65 1.35.15.4.551.699.951.699.148 0 .299 0 .398-.049.15-.051.65-.201.9-.25.551-.101 1.051-.15 1.5-.15.35 0 .65 0 .9.05.801.2 1.15.851 1.15 2.149v1.65c-.1-.398-.5-.75-.951-.75-.699 0-1.75.051-3.049.4-.9.25-2.201.801-2.701 2.301-.5 1.6.15 3.449 1.602 4.299.648.4 1.449.602 2.299.602 1 0 2.051-.25 2.9-.951.1.4.5.701.949.701.602 0 1.051-.551 1.051-1.102v-7.4c.002-1.198-.299-2.098-.848-2.798zm-1.25 8.551c-.551.5-1.4.898-2.15 1h-.551c-.6 0-1.049-.102-1.449-.4-.449-.35-.699-.801-.699-1.35 0-.801.398-1.301 1.35-1.602.6-.199 1.85-.35 2.65-.398.199 0 .5-.102.648-.301.102-.15.201-.301.25-.449l-.049 3.5zM64.979 17.584c-.949 0-1.699-.25-2.199-.801-.701-.699-.75-1.6-.75-2.449v-7.25h-.65c-.551 0-1-.5-1-1.051 0-.55.4-1 1-1l.65-.05v-1.649c0-.551.449-1.051 1.049-1.051.551 0 1.051.45 1.051 1.051v1.649h2.25c.551 0 1 .45 1 1.05 0 .551-.4 1.051-1 1.051h-2.25v7.349c0 .301 0 .75.15.9s.449.301.75.301c.6 0 1.1-.15 1.1-.15.1-.051.199-.051.35-.051.4 0 .801.25.9.65.199.5-.051 1.051-.6 1.25h-.051c-.6.151-1.151.251-1.75.251zM50.18 17.484c-.551 0-1.051-.451-1.051-1.051l.051-7.9c0-.55-.15-.949-.352-1.199-.25-.25-.699-.4-1.35-.4-1.549 0-2.799.75-3.4 1.1v8.4c0 .551-.449 1.051-1.048 1.051-.55 0-1-.451-1-1.051v-7.9c0-.55-.15-.949-.4-1.199-.25-.301-.7-.4-1.35-.4-1.45 0-2.65.65-3.2 1v8.5c0 .551-.5 1.051-1.1 1.051-.55 0-.95-.451-.95-1.051v-10.4c0-.55.4-1 1-1 .5 0 .9.301 1 .75.85-.5 1.85-.9 3.25-.9s2.6.5 3.199 1.351c.951-.601 2.349-1.351 3.951-1.351 2.398 0 3.799 1.25 3.799 3.701v7.9c0 .547-.5.998-1.049.998zM32.68 17.484c-.55 0-1-.451-1-1.051v-13.55h-.6c-.55 0-.95-.35-1-.85 0-.25.05-.449.2-.65.15-.199.4-.299.65-.35l1.65-.3h.1c.25 0 .55.101.75.3.2.2.3.5.3.75v14.65c-.05.551-.5 1.051-1.05 1.051z"/><path fill="#fff" d="M32.68 1.133l-1.7.351c-.3 0-.5.2-.5.5s.25.5.6.5h1v13.95c0 .35.3.65.6.65.35 0 .65-.301.65-.6v-14.75c0-.45-.5-.601-.65-.601zM47.529 5.284c-1.701-.05-3.6 1.051-4.2 1.5-.5-1-1.5-1.5-2.95-1.5-1.7 0-2.85.7-3.7 1.25v-.55c0-.351-.3-.601-.6-.601-.35 0-.65.301-.65.601v10.401c0 .35.3.648.6.648.35 0 .65-.25.65-.699v-8.6c.65-.399 2-1.2 3.7-1.2.8 0 1.3.15 1.6.5.3.301.5.85.5 1.45v7.901c0 .35.3.648.6.648.351 0 .649-.299.649-.6l-.049-7.95c0-.25 0-.45-.051-.7.4-.199 1.85-1.25 3.801-1.25.799 0 1.35.15 1.699.5.301.301.449.801.449 1.4v7.951c0 .35.301.648.602.648.299 0 .648-.199.648-.648v-7.9c.001-2.101-1.298-3.15-3.298-3.2zM5.33 10.635c-.55-.15-2.2-.551-2.85-1.102-.35-.299-.45-.75-.45-1.299 0-.601.2-.95.65-1.25.4-.3 1.05-.45 1.75-.45 1 0 1.7.25 2.15.4l.25 1.65c.05.199.2.35.4.35.25 0 .45-.2.45-.45l.05-2c.05-.351-.15-.5-.4-.649-.4-.201-1.4-.601-2.9-.601-2.25 0-3.65 1.149-3.65 2.899 0 .851.3 1.701.8 2.201.65.699 1.55.949 3.4 1.5 1.45.5 2.05.801 2.05 2.051 0 .648-.15 1.199-.5 1.5-.45.35-1.15.6-2.1.6-1.25 0-2.15-.301-2.65-.5l-.25-1.6c0-.25-.2-.451-.45-.451s-.5.15-.5.4l-.1 2c0 .25.2.551.45.65.5.25 1.6.75 3.35.75 1.25 0 2.25-.301 2.95-.85.7-.551 1-1.5 1-2.551 0-2.149-1.45-2.749-2.9-3.198zM74.229 5.734c-.6-.3-1.35-.45-2.15-.45-.648 0-1.35.1-1.898.301-.65.25-1.25.699-1.701 1.149-.5.5-.85 1-1.1 1.75-.301.799-.449 1.7-.449 2.7 0 1.801.35 3.15 1.1 4.15.9 1.25 2.35 1.9 4.35 1.9 2.051 0 3.449-.65 3.449-.65.301-.15.551-.4.352-.801-.15-.35-.602-.299-.951-.199 0 0-1.15.4-2.9.4-2.898 0-4.148-1.551-4.148-4.85 0-1.65.398-2.751 1.199-3.601.85-.85 1.9-1.1 2.65-1.1 1.199 0 2 .3 2.549 1.1.4.6.701 1.5.75 2.5l-5.5.1c-.299 0-.6.201-.6.451 0 .301.1.65.451.65h6.299c.35 0 .6-.25.6-.701 0-1.549-.35-2.75-1-3.65-.253-.549-1.352-1.149-1.352-1.149zM66.328 15.834s-.6.199-1.299.199c-.451 0-.85-.199-1.051-.398-.299-.301-.25-.852-.25-1.301v-7.65h2.65c.35 0 .6-.35.6-.65 0-.35-.299-.6-.6-.6h-2.65v-2.15c0-.3-.35-.55-.65-.55-.35 0-.648.25-.648.55v2.15h-1.051c-.301 0-.6.25-.6.55s.199.649.5.649h1.15v7.55c0 .85.049 1.701.6 2.25.449.451 1.15.701 2 .701.949 0 1.65-.25 1.699-.25.301-.102.35-.5.25-.801-.15-.198-.298-.349-.65-.249zM55.029 5.434c-.951.15-1.5.35-1.5.35-.301.1-.6.5-.451.801.15.299.5.549.801.399l1.051-.3c.85-.15 1.75-.25 2.6-.051 1.049.25 1.4 1.351 1.4 2.451v5.75c-.65.551-1.551 1-2.4 1.15-1.551.25-3.25-.4-3.25-2.15 0-1.1.799-1.65 1.699-1.949.65-.201 1.9-.4 2.75-.451.25 0 .4-.25.4-.549 0-.301-.25-.451-.551-.451-.75 0-1.648 0-2.799.35-1.1.301-2.1.75-2.5 1.951-.5 1.449.1 3.1 1.4 3.949 1.6.951 3.949.6 5.25-.699v.449c0 .35.35.6.648.6.352 0 .602-.299.602-.6v-7.4c0-1.15-.201-2-.701-2.6-.949-1.15-2.548-1.301-4.449-1z"/><path fill="#332E2E" d="M30.005 5.309c-.201-.2-.451-.3-.75-.3-.6 0-1.051.5-1.051 1.05l.051 8.601c-.6.35-1.9.949-3.351.949-.8 0-1.45-.15-1.7-.5-.05-.1-.25-.35-.25-1.1v-7.95c0-.55-.5-1-1.05-1-.45 0-.851.3-1 .7-.351 1.1-2.15 2.65-5 2.65-.9 0-1.25-.4-1.25-.801 0-.3.05-.6.65-.6.25 0 .65.15.9.3.2.101.4.101.6.101.4 0 .65-.25.75-.45.15-.25.2-.55.1-.8s-.25-.45-.5-.601c-.8-.45-1.7-.649-2.75-.649-1.45 0-2.8.5-3.75 1.449-.65.65-1.1 1.65-1.3 2.2-.3.851-.45 1.8-.45 2.8 0 1.051.1 1.949.35 2.65.2.75.55 1.449 1.05 2 1 1.1 2.4 1.699 4.05 1.699 1.45 0 2.75-.5 3.8-1.449.55-.5.95-1.201 1.25-2 .3-.801.45-1.801.45-2.9 0-.801-.1-1.449-.2-2 .4-.2.85-.45 1.2-.7v5.35c0 .949.25 1.699.699 2.299.7.9 1.801 1.352 3.351 1.352 1.5 0 2.7-.551 3.399-.951.15.451.551.801 1 .801.551 0 1-.5 1-1.1v-10.35c.001-.3-.098-.55-.298-.75zm-13.3 9.451c-.6.6-1.4.9-2.35.9-1.1 0-1.95-.301-2.5-1-.55-.701-.9-1.951-.9-3.352 0-1.648.35-2.899 1.1-3.599.2-.15.45-.3.7-.45v.3c0 1.65 1.3 2.701 3.3 2.701.65 0 1.3-.1 1.75-.201.05.301.05.75.05 1.25-.001 1.451-.45 2.8-1.15 3.451z"/><path fill="#fff" d="M29.804 6.059c.102-.35-.199-.649-.5-.649-.35 0-.648.3-.648.6v8.901c-.551.35-2 1.049-3.701 1.049-1 0-1.75-.25-2.1-.699-.15-.201-.351-.5-.351-1.4v-7.85c-.05-.35-.3-.55-.6-.55-.25 0-.5.149-.601.35-.399 1.25-2.399 3-5.45 3-1.15 0-1.65-.649-1.65-1.25 0-1.05 1.15-1.2 2.05-.649.3.199.75.1.9-.2.1-.25.05-.65-.25-.8-.75-.4-1.6-.601-2.55-.601-1.35 0-2.55.45-3.45 1.3-.5.5-.9 1.301-1.2 2.051-.3.75-.5 1.649-.5 2.649 0 1.051.1 1.9.35 2.602.2.75.55 1.398 1 1.898.9 1 2.2 1.551 3.75 1.551 1.35 0 2.6-.551 3.5-1.4.5-.5.85-1.15 1.1-1.85.3-.75.5-1.65.5-2.65 0-.9-.05-1.6-.2-2.25.95-.45 2-1.45 2-1.45v6.2c0 .551.1 1.551.65 2.201.6.799 1.649 1.148 3.1 1.148 1.5 0 2.801-.648 3.65-1.25l-.051.4c0 .35.301.65.65.65s.65-.4.65-.75l-.048-10.302zm-12.8 9c-.65.65-1.6 1.051-2.65 1.051-1.2 0-2.15-.449-2.8-1.199s-1-2.15-1-3.602c0-1.799.45-3.099 1.25-3.899.4-.4 1.2-.75 1.75-.851-.3.3-.4.65-.4.95 0 1.4 1.05 2.35 2.85 2.35.7 0 1.55-.15 2.15-.301.05.301.1.951.1 1.75 0 1.452-.4 2.952-1.25 3.751z"/></svg>