<svg xmlns="http://www.w3.org/2000/svg" width="14" height="15" viewBox="0 0 18 20">
  <g fill="#FFF">
    <path d="M11.84,17.6244687 C11.867,17.3422156 11.9055,17.1017219 11.9095,16.860725 C11.916,16.4813687 12.1335,16.3178531 12.45,16.15635 C14.7385,14.9840687 16.1915,13.1376 16.7,10.5968187 C17.189,8.142575 16.609,5.92379375 15.034,4.00034687 C13.793,2.48493437 12.184,1.557675 10.2405,1.25630313 C7.8765,0.889525 5.761,1.485225 3.9405,3.02629687 C2.464,4.27505313 1.5405,5.87700312 1.251,7.81403437 C0.8845,10.2486562 1.512,12.3990125 3.101,14.2706375 C3.7919575,15.0768297 4.64239137,15.7291798 5.598,16.1860344 C5.87,16.3188594 6.088,16.4375969 6.073,16.7938094 C6.0645,16.9980781 6.1285,17.2043594 6.1535,17.4106406 C6.175,17.5912625 6.1035,17.6259781 5.9355,17.5640937 C5.03816115,17.2374115 4.19892785,16.7675206 3.45,16.17245 C1.7835,14.8391687 0.7,13.1280406 0.2285,11.0370531 C-0.0066712613,10.0099897 -0.0554551445,8.94861526 0.0845,7.90409375 C0.3,6.291075 0.8845,4.842075 1.874,3.5581 C3.18066666,1.86122708 4.87266666,0.759047918 6.95,0.2515625 C7.9270957,0.00757284284 8.93953745,-0.0595500964 9.94,0.05333125 C11.6805,0.25458125 13.248,0.890028125 14.6185,2.00092813 C16.257,3.33219687 17.328,5.03125 17.773,7.0940625 C18.3475,9.760625 17.8205,12.2214094 16.223,14.4301281 C15.1455,15.9218937 13.7155,16.9563187 11.9945,17.5847219 C11.9735,17.5952875 11.95,17.5988094 11.84,17.6244687 Z"/>
    <path d="M6.809,13.4027469 C6.809,13.1597375 6.785,12.9142125 6.814,12.674725 C6.87,12.2123531 7.135,11.8883406 7.534,11.6579094 C7.9625,11.4103719 8.426,11.3057219 8.9095,11.2986781 C9.541,11.2871063 10.1395,11.4053406 10.6655,11.7962688 C11.0155,12.0553781 11.18,12.4040438 11.1965,12.8216375 C11.2355,13.8278875 11.15,14.8250813 11.007,15.81825 C10.8753333,16.7305833 10.7393333,17.6424136 10.599,18.5537406 C10.511,19.1288125 10.28,19.6012469 9.6805,19.7954531 C9.0255,20.0077719 8.406,19.9539375 7.8465,19.5293 C7.5555,19.3084281 7.469,18.9627813 7.4125,18.6297125 C7.2625,17.7291188 7.1185,16.8265125 7.0045,15.9203844 C6.899,15.0851969 6.8345,14.244475 6.7545,13.4047594 L6.809,13.4027469 Z"/>
    <path d="M15.025,9.0059375 C14.978,11.1034656 14.152,12.7345969 12.541,13.9617187 C12.4695,14.0165594 12.3695,14.0336656 12.283,14.0683812 C12.2715,13.9813406 12.2605,13.8937969 12.2475,13.8067562 C12.143,13.1079156 12.3975,12.5841625 12.865,12.0458187 C13.65,11.1417031 13.9605,10.0121875 13.894,8.81575625 C13.7694683,6.52644402 12.0976315,4.62340771 9.855,4.2182 C7.2405,3.74777812 4.755,5.48456562 4.219,8.05301875 C3.8605,9.77773125 4.3575,11.2840875 5.5605,12.5529687 C5.705,12.7039062 5.772,12.8478 5.7605,13.0591125 C5.7455,13.3252656 5.7775,13.5939344 5.78,13.8615969 C5.77208095,13.9320471 5.75527915,14.0011958 5.73,14.067375 C5.665,14.0457406 5.59,14.0381937 5.5365,13.9999562 C4.2225,13.0571 3.4,11.7922437 3.1,10.195325 C2.7815,8.47765625 3.122,6.89230937 4.1565,5.48758437 C5.1645,4.11858125 6.5145,3.29094062 8.2065,3.06805625 C9.8985,2.84517187 11.417,3.264275 12.7455,4.32586875 C13.9835,5.3150125 14.728,6.61005625 14.948,8.1949 C14.9905,8.4826875 15.0045,8.77550625 15.025,9.0059375 Z"/>
    <path d="M9.0085,6.23573125 C9.5630181,6.22534982 10.0978131,6.44271275 10.489607,6.83771473 C10.8814008,7.23271671 11.0963841,7.77127157 11.085,8.32923438 C11.0755,9.583525 10.097,10.4312906 8.967,10.412675 C7.8545,10.3945625 6.914,9.54830625 6.917,8.31263125 C6.90973415,7.75476056 7.1286659,7.21799134 7.52330945,6.82610265 C7.917953,6.43421396 8.45423905,6.22103728 9.0085,6.23573125 Z"/>
  </g>
</svg>
