<svg width="105" height="61" viewBox="0 0 105 61" fill="none" xmlns="http://www.w3.org/2000/svg">
<path d="M26.519 18.831H105V48.384H88.222V60.116L78.01 48.384H26.52V18.831H26.519Z" fill="white"/>
<path d="M40.0312 37.046C40.0312 39.716 38.1842 40.906 35.4782 40.906C35.0205 40.9052 34.5641 40.8549 34.1172 40.756V44.919L35.4612 45.154V45.439H29.4292V45.154L30.5712 44.902V33.873L29.4292 33.621V33.336H35.1592C38.5862 33.336 40.0312 34.561 40.0312 37.046V37.046ZM36.5022 37.079C36.5022 34.46 35.9482 33.655 34.8222 33.655H34.1172V40.42C34.3692 40.47 34.6042 40.487 34.8732 40.487C35.9652 40.486 36.5032 39.613 36.5032 37.079H36.5022ZM39.8292 40.806C39.8292 37.851 41.7102 36.022 44.5342 36.022C47.3572 36.022 49.2722 37.852 49.2722 40.822C49.2722 43.812 47.3912 45.691 44.5502 45.691C41.7452 45.691 39.8292 43.793 39.8292 40.806V40.806ZM43.1392 40.823C43.1392 44.449 43.6262 45.389 44.5672 45.389C45.4912 45.389 45.9622 44.432 45.9622 40.806C45.9622 37.196 45.5082 36.324 44.5502 36.324C43.6262 36.324 43.1402 37.214 43.1402 40.823H43.1392ZM55.3732 36.341V33.353L54.3652 33V32.715L58.0792 32.178L58.4312 32.228V44.617L59.4562 44.935V45.221L55.7092 45.641L55.4232 45.607V44.567H55.3392C54.8012 45.154 54.1132 45.674 52.9872 45.674C50.9882 45.674 49.5252 44.147 49.5252 41.024C49.5252 37.734 51.2222 36.056 53.7942 36.056C54.5322 36.054 55.0872 36.189 55.3732 36.341V36.341ZM55.3732 44.179V36.743C55.1382 36.625 54.8522 36.524 54.3822 36.524C53.3902 36.524 52.7522 37.682 52.7522 40.654C52.7522 43.324 53.3402 44.38 54.5162 44.38C54.8862 44.38 55.1882 44.296 55.3732 44.18V44.179ZM59.5732 40.806C59.5732 37.868 61.4542 36.022 64.4462 36.022C65.6382 36.022 66.6962 36.122 67.3532 36.324L67.4032 39.43H67.1182L64.8672 36.358C64.8002 36.341 64.7492 36.341 64.6822 36.341C63.3722 36.341 62.6322 37.717 62.6322 40.219C62.6322 42.838 63.5222 44.163 65.6062 44.163C66.3792 44.163 66.9502 44.029 67.4372 43.811V44.096C66.8322 44.919 65.7742 45.657 64.0592 45.657C61.0692 45.657 59.5732 43.676 59.5732 40.806ZM72.8482 40.033V38.808C72.8482 36.945 72.4452 36.34 71.4202 36.34C71.3022 36.34 71.2012 36.357 71.0842 36.373L68.8142 39.446H68.5292L68.5962 36.592C69.4702 36.323 70.5622 36.021 72.0082 36.021C74.4952 36.021 75.9402 36.709 75.9402 38.791V44.766L76.8302 45.001V45.236C76.4782 45.454 75.7722 45.656 75.0002 45.656C73.7732 45.656 73.1852 45.253 72.9162 44.582H72.8322C72.3122 45.287 71.5722 45.689 70.4122 45.689C68.9332 45.689 67.9242 44.766 67.9242 43.171C67.9242 41.627 68.8822 40.787 70.8322 40.418L72.8482 40.033V40.033ZM72.8482 44.163V40.469L72.2262 40.519C71.2522 40.603 70.8992 41.224 70.8992 42.602C70.8992 44.095 71.3862 44.482 72.0752 44.482C72.4612 44.482 72.6802 44.364 72.8482 44.162V44.163ZM84.1222 42.618C84.1222 44.515 82.7952 45.657 80.3422 45.657C79.2322 45.657 78.0892 45.523 77.1982 45.187L77.0982 42.467H77.3832L79.7872 45.271C79.9552 45.321 80.1392 45.355 80.2912 45.355C81.3162 45.355 81.7862 44.801 81.7862 43.945C81.7862 43.19 81.3832 42.905 80.3242 42.401L79.7702 42.15C78.0902 41.361 77.1152 40.539 77.1152 38.994C77.1152 37.114 78.4252 36.005 80.6772 36.005C81.6012 36.005 82.6092 36.089 83.3832 36.307L83.4672 38.843H83.1812L81.3512 36.391C81.1614 36.3265 80.9626 36.2928 80.7622 36.291C79.8552 36.291 79.4522 36.811 79.4522 37.566C79.4522 38.388 79.8382 38.656 80.9642 39.177L81.4842 39.412C83.2152 40.218 84.1222 40.94 84.1222 42.618V42.618ZM84.0042 36.878V36.576L85.3142 36.24V34.428L88.3742 33.941V36.241H90.4072V36.879H88.3732V42.989C88.3732 43.929 88.6592 44.315 89.6672 44.315C89.9872 44.315 90.3052 44.281 90.5072 44.231V44.516C89.9692 45.086 89.0452 45.623 87.9522 45.623C86.2052 45.623 85.3142 44.818 85.3142 42.837V36.878H84.0042V36.878ZM97.9522 42.618C97.9522 44.515 96.6252 45.657 94.1712 45.657C93.0612 45.657 91.9182 45.523 91.0282 45.187L90.9282 42.467H91.2132L93.6162 45.271C93.7842 45.321 93.9692 45.355 94.1202 45.355C95.1452 45.355 95.6152 44.801 95.6152 43.945C95.6152 43.19 95.2122 42.905 94.1542 42.401L93.6002 42.15C91.9202 41.361 90.9442 40.539 90.9442 38.994C90.9442 37.114 92.2542 36.005 94.5072 36.005C95.4312 36.005 96.4392 36.089 97.2132 36.307L97.2972 38.843H97.0112L95.1802 36.39C94.9908 36.3256 94.7923 36.2919 94.5922 36.29C93.6852 36.29 93.2822 36.81 93.2822 37.565C93.2822 38.387 93.6682 38.655 94.7932 39.176L95.3142 39.411C97.0442 40.217 97.9522 40.939 97.9522 42.617V42.618Z" fill="#121212"/>
<path d="M78.481 0H0V29.553H16.778V41.284L26.99 29.553H78.48V0H78.481Z" fill="#071566"/>
<path d="M19.0382 15.24L20.1952 15.005V4.556H19.1002L17.1302 7.524H16.8642L16.9892 4.244H26.6832L26.8082 7.524H26.5432L24.6032 4.556H23.4932V15.005L24.6502 15.24V15.506H19.0372V15.24H19.0382V15.24ZM27.9592 14.96V3.637L26.9642 3.24V2.96L30.5592 2.43L30.9402 2.48V7.46H31.0402C31.8192 6.666 32.9802 6.219 34.1212 6.219C35.6962 6.219 36.3912 6.963 36.3912 8.619V14.959L37.3362 15.223V15.505H32.5322V15.223L33.3762 15.007V8.785C33.3762 7.891 32.9792 7.494 32.2002 7.494C31.7202 7.494 31.3392 7.626 30.9902 7.808V15.008L31.8192 15.224V15.506H27.0142V15.224L27.9592 14.959V14.96ZM40.0552 10.656C40.1722 12.89 40.8852 14.264 43.2042 14.264C43.9662 14.264 44.6132 14.164 45.2262 13.9V14.165C44.7122 14.943 43.4522 15.753 41.6462 15.753C38.5822 15.753 37.0072 13.9 37.0072 10.937C37.0072 8.039 38.7302 6.235 41.5142 6.235C44.3142 6.235 45.4912 7.725 45.4912 10.424V10.654H40.0552V10.656V10.656ZM40.0552 10.324L42.6232 10.208C42.6232 7.378 42.2422 6.566 41.4462 6.566C40.5862 6.567 40.0562 7.726 40.0562 10.324H40.0552ZM3.19824 20.356C3.19824 15.754 6.24724 14.116 9.64424 14.116C11.0852 14.116 12.4282 14.298 13.2072 14.629L13.2732 17.492H12.9912L10.7372 14.48C10.4552 14.446 10.1572 14.446 9.87524 14.446C7.97024 14.446 6.99224 15.969 6.99224 20.123C6.99224 24.757 7.73724 26.132 9.44524 26.132C9.82624 26.132 10.1572 26.066 10.3892 25.967V20.95L9.29624 20.751V20.47H14.3662V20.751L13.5042 20.951V25.783C12.6092 26.131 11.1022 26.462 9.51124 26.462C5.65124 26.462 3.19824 24.675 3.19824 20.355V20.356ZM14.1952 17.824V17.542L17.8242 17.012L18.2212 17.046V23.9C18.2212 24.91 18.6512 25.19 19.3812 25.19C19.7952 25.19 20.1612 25.075 20.5082 24.926V18.222L19.0832 17.825V17.543L23.1432 17.013L23.5082 17.047V25.207L24.4862 25.604V25.886L20.9062 26.449L20.5422 26.416V25.224H20.4422C19.7632 25.903 18.8522 26.482 17.7242 26.482C15.9842 26.482 15.1892 25.456 15.1892 23.9V18.223L14.1952 17.825V17.824ZM29.6102 20.919V19.711C29.6102 17.89 29.2122 17.294 28.0852 17.294C27.9522 17.294 27.8372 17.311 27.7042 17.328L25.6992 20.042H25.4172V17.542C26.2782 17.277 27.3562 16.963 28.7802 16.963C31.2332 16.963 32.6572 17.642 32.6572 19.694V25.587L33.5362 25.818V26.049C33.1882 26.264 32.4922 26.463 31.7302 26.463C30.5202 26.463 29.9402 26.066 29.6752 25.403H29.5932C29.0792 26.098 28.3492 26.496 27.2072 26.496C25.7492 26.496 24.7542 25.586 24.7542 24.014C24.7542 22.492 25.6992 21.664 27.6212 21.299L29.6092 20.919H29.6102ZM29.6102 24.989V21.349L28.9962 21.397C28.0352 21.48 27.6872 22.093 27.6872 23.449C27.6872 24.923 28.1672 25.304 28.8472 25.304C29.2272 25.304 29.4432 25.189 29.6092 24.99L29.6102 24.989ZM37.8542 17.013L38.1522 17.046V19.611H38.2352C38.7002 17.641 39.4622 16.913 40.4892 16.913C40.6542 16.913 40.8372 16.93 40.9352 16.979V19.711C40.7692 19.661 40.4712 19.644 40.1902 19.644C39.3622 19.644 38.7492 19.726 38.2182 19.942V25.718L39.4452 25.967V26.248H34.2422V25.967L35.1862 25.719V18.22L34.1912 17.823V17.541L37.8542 17.011V17.013ZM46.8432 17.277V14.331L45.8502 13.984V13.702L49.5122 13.172L49.8602 13.222V25.437L50.8702 25.751V26.032L47.1762 26.446L46.8942 26.412V25.469H46.8112C46.2812 25.999 45.6012 26.479 44.4912 26.479C42.5202 26.479 41.0792 24.973 41.0792 21.894C41.0792 18.65 42.7522 16.994 45.2872 16.994C46.0142 16.996 46.5612 17.128 46.8432 17.278V17.277ZM46.8432 25.172V17.69C46.6122 17.574 46.3302 17.475 45.8652 17.475C44.8872 17.475 44.2582 18.618 44.2582 21.613C44.2582 24.294 44.8382 25.354 45.9982 25.354C46.3622 25.354 46.6612 25.271 46.8432 25.172ZM54.9152 17.013L55.3292 17.046V25.703L56.2572 25.968V26.25H51.3532V25.968L52.2972 25.703V18.22L51.2872 17.823V17.541L54.9152 17.011V17.013ZM55.3452 14.861C55.3452 15.738 54.6002 16.401 53.7382 16.401C52.8432 16.401 52.1472 15.738 52.1472 14.861C52.1472 13.984 52.8432 13.305 53.7382 13.305C54.6002 13.305 55.3452 13.984 55.3452 14.861ZM61.4362 20.919V19.711C61.4362 17.89 61.0392 17.294 59.9122 17.294C59.7802 17.294 59.6642 17.311 59.5312 17.328L57.5252 20.042H57.2432V17.542C58.1052 17.277 59.1812 16.963 60.6072 16.963C63.0602 16.963 64.4842 17.642 64.4842 19.694V25.587L65.3622 25.818V26.049C65.0142 26.264 64.3182 26.463 63.5562 26.463C62.3462 26.463 61.7672 26.066 61.5022 25.403H61.4192C60.9062 26.098 60.1762 26.496 59.0342 26.496C57.5762 26.496 56.5812 25.586 56.5812 24.014C56.5812 22.492 57.5252 21.664 59.4482 21.299L61.4362 20.919V20.919ZM61.4362 24.989V21.349L60.8232 21.397C59.8622 21.48 59.5132 22.093 59.5132 23.449C59.5132 24.923 59.9952 25.304 60.6742 25.304C61.0542 25.304 61.2702 25.189 61.4362 24.99V24.989ZM66.7532 25.702V18.22L65.7592 17.823V17.541L69.3712 17.011L69.7362 17.045V18.205H69.8362C70.6142 17.409 71.7752 16.963 72.9182 16.963C74.4932 16.963 75.1882 17.708 75.1882 19.363V25.703L76.1332 25.968V26.25H71.3282V25.968L72.1732 25.753V19.53C72.1732 18.636 71.7762 18.239 70.9972 18.239C70.5172 18.239 70.1352 18.372 69.7872 18.553V25.753L70.6152 25.968V26.25H65.8102V25.968L66.7532 25.702V25.702Z" fill="white"/>
</svg>
