<svg width="105" height="61" viewBox="0 0 105 61" fill="none" xmlns="http://www.w3.org/2000/svg">
    <path d="M26.519 18.831H105V48.384H88.2225V60.1164L78.0086 48.384H26.519V18.831Z" fill="white"/>
    <path d="M40.0314 37.0458C40.0314 39.7152 38.1835 40.9067 35.4776 40.9067C34.9232 40.9067 34.5369 40.8396 34.1169 40.7557V44.9186L35.4608 45.1536V45.4388H29.4287V45.1536L30.5711 44.9018V33.873L29.4287 33.6212V33.336H35.1584C38.5855 33.336 40.0314 34.561 40.0314 37.0458ZM36.5024 37.0794C36.5024 34.4603 35.948 33.6548 34.8225 33.6548H34.1169V40.42C34.3689 40.4704 34.6041 40.4872 34.8728 40.4872C35.9648 40.486 36.5024 39.6134 36.5024 37.0794Z" fill="#121212"/>
    <path d="M39.8286 40.806C39.8286 37.8513 41.7101 36.0222 44.5336 36.0222C47.357 36.0222 49.2722 37.8513 49.2722 40.8228C49.2722 43.8111 47.3906 45.6906 44.5504 45.6906C41.7449 45.6906 39.8286 43.7931 39.8286 40.806ZM43.1393 40.8228C43.1393 44.4487 43.6264 45.3885 44.5672 45.3885C45.4911 45.3885 45.9615 44.432 45.9615 40.806C45.9615 37.1968 45.5079 36.3242 44.5504 36.3242C43.6264 36.3242 43.1393 37.2136 43.1393 40.8228Z" fill="#121212"/>
    <path d="M55.3727 36.341V33.3527L54.3648 33.0003V32.7151L58.0786 32.1781L58.4314 32.2284V44.6166L59.4561 44.9354V45.2207L55.7087 45.6402L55.4231 45.6067V44.5662H55.3391C54.8015 45.1536 54.1128 45.6738 52.9872 45.6738C50.9881 45.6738 49.5254 44.1467 49.5254 41.0242C49.5254 37.7338 51.2221 36.0557 53.7936 36.0557C54.5315 36.0545 55.0871 36.1888 55.3727 36.341ZM55.3727 44.1791V36.7426C55.1375 36.6251 54.8519 36.5244 54.3816 36.5244C53.3904 36.5244 52.752 37.6823 52.752 40.6538C52.752 43.3232 53.34 44.3804 54.516 44.3804C54.8855 44.3804 55.1879 44.2965 55.3727 44.1791Z" fill="#121212"/>
    <path d="M59.5728 40.806C59.5728 37.8681 61.4543 36.0222 64.4457 36.0222C65.6385 36.0222 66.6968 36.1228 67.3532 36.3242L67.4036 39.43H67.118L64.8669 36.3578C64.7997 36.341 64.7493 36.341 64.6821 36.341C63.3718 36.341 62.6314 37.7171 62.6314 40.2187C62.6314 42.8377 63.5218 44.1635 65.6061 44.1635C66.3788 44.1635 66.95 44.0292 67.4372 43.8111V44.0963C66.8324 44.9186 65.7741 45.657 64.0593 45.657C61.0691 45.657 59.5728 43.6756 59.5728 40.806Z" fill="#121212"/>
    <path d="M72.8477 40.0329V38.8079C72.8477 36.9451 72.4445 36.3398 71.4197 36.3398C71.3022 36.3398 71.2014 36.3566 71.0838 36.3734L68.8147 39.4455H68.5291L68.5963 36.5915C69.4698 36.323 70.5618 36.021 72.0077 36.021C74.4952 36.021 75.9399 36.709 75.9399 38.7911V44.7664L76.8303 45.0013V45.2363C76.4775 45.4544 75.7719 45.6558 74.9992 45.6558C73.7728 45.6558 73.1849 45.253 72.9161 44.5818H72.8321C72.3113 45.2866 71.5721 45.6894 70.4118 45.6894C68.9335 45.6894 67.9243 44.7664 67.9243 43.171C67.9243 41.6271 68.8819 40.7868 70.8318 40.4177L72.8477 40.0329ZM72.8477 44.1623V40.4692L72.2261 40.5195C71.2518 40.6034 70.899 41.2243 70.899 42.6016C70.899 44.0951 71.3862 44.4811 72.0749 44.4811C72.4613 44.4811 72.6797 44.3636 72.8477 44.1623Z" fill="#121212"/>
    <path d="M84.1221 42.6184C84.1221 44.5147 82.795 45.657 80.3411 45.657C79.2324 45.657 78.0888 45.5227 77.1984 45.1871L77.0977 42.4674H77.3832L79.7867 45.271C79.9547 45.3214 80.1395 45.3549 80.2907 45.3549C81.3155 45.3549 81.7858 44.8012 81.7858 43.9453C81.7858 43.1902 81.3827 42.9049 80.3243 42.4014L79.7699 42.1497C78.09 41.361 77.1145 40.5387 77.1145 38.9936C77.1145 37.1141 78.4248 36.0054 80.6771 36.0054C81.601 36.0054 82.609 36.0893 83.383 36.3074L83.467 38.8426H83.1814L81.3503 36.3913C81.1487 36.3242 80.9471 36.2907 80.7623 36.2907C79.8551 36.2907 79.4519 36.8109 79.4519 37.566C79.4519 38.3883 79.8383 38.6568 80.9639 39.177L81.4846 39.412C83.215 40.2175 84.1221 40.9403 84.1221 42.6184Z" fill="#121212"/>
    <path d="M84.0044 36.878V36.5759L85.3147 36.2403V34.4279L88.3734 33.9413V36.2415H90.4073V36.8792H88.3734V42.9888C88.3734 43.9285 88.659 44.3145 89.6669 44.3145C89.9861 44.3145 90.3053 44.2809 90.5069 44.2306V44.5159C89.9693 45.0864 89.0454 45.6234 87.9522 45.6234C86.2051 45.6234 85.3135 44.8179 85.3135 42.8365V36.878H84.0044Z" fill="#121212"/>
    <path d="M97.9517 42.6184C97.9517 44.5147 96.6246 45.657 94.1707 45.657C93.0619 45.657 91.9184 45.5227 91.028 45.1871L90.9272 42.4674H91.2128L93.6163 45.271C93.7843 45.3214 93.9691 45.3549 94.1203 45.3549C95.145 45.3549 95.6154 44.8012 95.6154 43.9453C95.6154 43.1902 95.2122 42.9049 94.1539 42.4014L93.5995 42.1497C91.9196 41.361 90.944 40.5387 90.944 38.9936C90.944 37.1141 92.2544 36.0054 94.5067 36.0054C95.4306 36.0054 96.4386 36.0893 97.2125 36.3074L97.2965 38.8426H97.011L95.1798 36.3913C94.9783 36.3242 94.7767 36.2907 94.5919 36.2907C93.6847 36.2907 93.2815 36.8109 93.2815 37.566C93.2815 38.3883 93.6679 38.6568 94.7935 39.177L95.3142 39.412C97.0434 40.2175 97.9517 40.9403 97.9517 42.6184Z" fill="#121212"/>
    <path d="M78.481 0H0V29.553H16.7776V41.2843L26.9915 29.553H78.481V0Z" fill="#071566"/>
    <path d="M19.0381 15.2398L20.1948 15.0048V4.55611H19.1005L17.1302 7.52399H16.8638L16.9886 4.24445H26.6829L26.8077 7.52399H26.5425L24.6034 4.55611H23.4935V15.0048L24.6502 15.2398V15.5059H19.0369V15.2398H19.0381Z" fill="white"/>
    <path d="M27.9586 14.9593V3.63793L26.9639 3.24117V2.95949L30.5589 2.42968L30.9405 2.47882V7.46046H31.0401C31.8188 6.66575 32.9792 6.21865 34.1215 6.21865C35.6958 6.21865 36.3918 6.96302 36.3918 8.61837V14.9581L37.3362 15.223V15.5047H32.5316V15.223L33.3764 15.0072V8.78498C33.3764 7.89078 32.9792 7.49402 32.2004 7.49402C31.7204 7.49402 31.3389 7.62587 30.9909 7.80807V15.0084L31.8188 15.2242V15.5059H27.0143V15.2242L27.9586 14.9593Z" fill="white"/>
    <path d="M40.0552 10.6561C40.1716 12.8904 40.8843 14.2641 43.2038 14.2641C43.9658 14.2641 44.6126 14.1646 45.2257 13.8997V14.1646C44.7122 14.9425 43.4522 15.7528 41.6463 15.7528C38.5816 15.7528 37.0073 13.8997 37.0073 10.9366C37.0073 8.03941 38.7304 6.23543 41.5143 6.23543C44.3138 6.23543 45.4909 7.72536 45.4909 10.4236V10.6549H40.0552V10.6561ZM40.0552 10.3241L42.6231 10.2078C42.6231 7.37775 42.2415 6.56626 41.4459 6.56626C40.5856 6.56746 40.0552 7.72656 40.0552 10.3241Z" fill="white"/>
    <path d="M3.19775 20.3557C3.19775 15.754 6.24681 14.1154 9.64385 14.1154C11.085 14.1154 12.4277 14.2976 13.2065 14.6285L13.2725 17.4921H12.9905L10.737 14.4798C10.455 14.4463 10.1574 14.4463 9.87544 14.4463C7.96993 14.4463 6.99197 15.9686 6.99197 20.1231C6.99197 24.7571 7.73714 26.132 9.44466 26.132C9.82624 26.132 10.1574 26.0661 10.389 25.9666V20.9514L9.29586 20.7524V20.4707H14.3656V20.7524L13.5041 20.9514V25.7844C12.6089 26.132 11.1018 26.4628 9.51065 26.4628C5.65044 26.4628 3.19775 24.6756 3.19775 20.3557Z" fill="white"/>
    <path d="M14.1953 17.8241V17.5424L17.8239 17.0126L18.2211 17.0462V23.8989C18.2211 24.9082 18.6519 25.1899 19.3815 25.1899C19.7954 25.1899 20.1602 25.0736 20.5082 24.925V18.2208L19.0827 17.8241V17.5424L23.1433 17.0126L23.5081 17.0462V25.2066L24.486 25.6034V25.8851L20.9066 26.4484L20.5418 26.4149V25.2234H20.4422C19.763 25.9019 18.8511 26.4808 17.7243 26.4808C15.9844 26.4808 15.1889 25.4548 15.1889 23.8989V18.222L14.1953 17.8241Z" fill="white"/>
    <path d="M29.6094 20.919V19.7108C29.6094 17.89 29.2122 17.2943 28.0854 17.2943C27.9522 17.2943 27.837 17.3111 27.7039 17.3278L25.6987 20.0416H25.4168V17.5424C26.2783 17.2775 27.3559 16.9634 28.7802 16.9634C31.2329 16.9634 32.6572 17.6419 32.6572 19.694V25.5866L33.5356 25.818V26.0493C33.1876 26.2639 32.4916 26.4628 31.7297 26.4628C30.5201 26.4628 29.9405 26.0661 29.6754 25.4032H29.5926C29.079 26.0984 28.3494 26.4964 27.2071 26.4964C25.7491 26.4964 24.7544 25.5854 24.7544 24.014C24.7544 22.4917 25.6987 21.6634 27.6211 21.299L29.6094 20.919ZM29.6094 24.9897V21.3481L28.9962 21.3973C28.035 21.48 27.6871 22.0925 27.6871 23.4494C27.6871 24.9226 28.167 25.3037 28.8474 25.3037C29.2278 25.3049 29.4426 25.1887 29.6094 24.9897Z" fill="white"/>
    <path d="M37.8536 17.0126L38.1524 17.0462V19.6113H38.2352C38.6996 17.6419 39.4616 16.9131 40.4887 16.9131C40.6543 16.9131 40.8367 16.9299 40.9351 16.979V19.7108C40.7695 19.6604 40.4707 19.6437 40.1899 19.6437C39.362 19.6437 38.7488 19.7264 38.2184 19.9421V25.7185L39.4448 25.9666V26.2483H34.2418V25.9666L35.1862 25.7185V18.2208L34.1914 17.8241V17.5424L37.8536 17.0126Z" fill="white"/>
    <path d="M46.8431 17.2775V14.3312L45.8496 13.9836V13.7019L49.5118 13.1721L49.8598 13.2212V25.4368L50.8701 25.7508V26.0325L47.1755 26.4461L46.8935 26.4125V25.4691H46.8107C46.2804 25.999 45.6012 26.4784 44.4913 26.4784C42.5197 26.4784 41.0786 24.9729 41.0786 21.8935C41.0786 18.65 42.7525 16.9946 45.2868 16.9946C46.014 16.9958 46.5612 17.1277 46.8431 17.2775ZM46.8431 25.1719V17.6898C46.6116 17.5736 46.3296 17.4753 45.8652 17.4753C44.8872 17.4753 44.2585 18.6176 44.2585 21.6131C44.2585 24.2945 44.838 25.3541 45.9984 25.3541C46.362 25.3541 46.6607 25.2714 46.8431 25.1719Z" fill="white"/>
    <path d="M54.9152 17.0126L55.3292 17.0462V25.7029L56.2568 25.9678V26.2495H51.3526V25.9678L52.297 25.7029V18.2208L51.2866 17.8241V17.5424L54.9152 17.0126ZM55.3448 14.861C55.3448 15.7384 54.5997 16.4001 53.7381 16.4001C52.8429 16.4001 52.147 15.7384 52.147 14.861C52.147 13.9836 52.8429 13.3051 53.7381 13.3051C54.5997 13.3051 55.3448 13.9836 55.3448 14.861Z" fill="white"/>
    <path d="M61.436 20.919V19.7108C61.436 17.89 61.0388 17.2943 59.9121 17.2943C59.7801 17.2943 59.6637 17.3111 59.5305 17.3278L57.5254 20.0416H57.2434V17.5424C58.105 17.2775 59.1813 16.9634 60.6069 16.9634C63.0595 16.9634 64.4839 17.6419 64.4839 19.694V25.5866L65.3622 25.818V26.0493C65.0142 26.2639 64.3183 26.4628 63.5563 26.4628C62.3468 26.4628 61.7672 26.0661 61.502 25.4032H61.4192C60.9056 26.0984 60.1761 26.4964 59.0337 26.4964C57.5758 26.4964 56.5811 25.5854 56.5811 24.014C56.5811 22.4917 57.5254 21.6634 59.4477 21.299L61.436 20.919ZM61.436 24.9897V21.3481L60.8228 21.3973C59.8617 21.48 59.5137 22.0925 59.5137 23.4494C59.5137 24.9226 59.9949 25.3037 60.6741 25.3037C61.0544 25.3049 61.2704 25.1887 61.436 24.9897Z" fill="white"/>
    <path d="M66.7528 25.7017V18.2196L65.7593 17.8229V17.5412L69.3711 17.0114L69.7359 17.045V18.2041H69.8355C70.6142 17.4093 71.7746 16.9634 72.9181 16.9634C74.4925 16.9634 75.1884 17.7078 75.1884 19.3632V25.7029L76.1328 25.9678V26.2495H71.3282V25.9678L72.173 25.7532V19.5298C72.173 18.6356 71.7758 18.2388 70.997 18.2388C70.517 18.2388 70.1355 18.3719 69.7875 18.5529V25.7532L70.6154 25.9678V26.2495H65.8097V25.9678L66.7528 25.7017Z" fill="white"/>
</svg>
