<svg xmlns="http://www.w3.org/2000/svg" width="60" height="41" viewBox="0 0 60 41">
    <g fill="none" fill-rule="nonzero">
        <path fill="#000" d="M12.803 20.127c0 3.67 1.013 6.999 3.04 9.986l-1.523 1.53c-1.486-1.426-2.651-3.125-3.496-5.096-.845-1.97-1.267-4.11-1.265-6.42 0-2.243.421-4.349 1.265-6.317a16.513 16.513 0 0 1 3.496-5.195l1.523 1.53c-2.026 2.983-3.04 6.31-3.04 9.982z" opacity=".95"/>
        <path fill="#000" d="M4.052 20.83c0 3.262.507 6.318 1.522 9.17a28.41 28.41 0 0 0 4.257 7.846l-1.219 1.226c-2.637-2.177-4.731-4.827-6.283-7.95C.778 27.998.001 24.568 0 20.83c0-3.67.776-7.083 2.33-10.24C3.881 7.433 5.976 4.766 8.611 2.59l1.22 1.323a28.41 28.41 0 0 0-4.258 7.846c-1.018 2.854-1.525 5.878-1.522 9.072z" opacity=".7"/>
        <path fill="#000" d="M39.564 0c-11.261 0-20.39 9.177-20.39 20.497s9.129 20.497 20.39 20.497c11.26 0 20.389-9.177 20.389-20.497S50.824 0 39.563 0"/>
        <path fill="#FFF" d="M43.171 5.063c2.641.424 6.003 2.244 7.204 3.536v5.885h-.731L43.17 5.721v-.658zm-2.402.371h-.064c-4.626 0-7.14 6.44-7.14 15.127v.031c0 8.687 2.516 15.126 7.14 15.126h.064v.67c-6.963.479-16.329-4.856-16.089-15.795v-.032c-.24-10.94 9.126-16.274 16.09-15.796v.67zm11.767 16.49l-2.161.953v9.834c-1.2 1.143-4.323 2.924-7.204 3.536V22.663l-2.401-.8v-.62h11.766v.68z"/>
    </g>
</svg>
