<svg xmlns="http://www.w3.org/2000/svg" width="15" height="12" viewBox="0 0 15 12">
  <g fill="#FFF" fill-rule="evenodd">
    <path d="M14.2768138 2.12934454C11.5796073.733915966 8.68149963.0328739496 5.65301982.0328739496 4.08214286.0328739496 2.51340314.232537815.985271129.620773109.485155198.751663866.175254301 1.38393277.301351907 1.90527731.425312266 2.42440336.936114435 2.74386555 1.43623037 2.61519328 2.8126178 2.26023529 4.23175019 2.08719328 5.65943156 2.08719328 8.39083396 2.08719328 11.0025505 2.71946218 13.44115 3.97512605 13.5672476 4.04389916 13.7168549 4.07939496 13.8493642 4.07939496 14.2020101 4.07939496 14.5354207 3.78433613 14.702126 3.4382521 14.926537 2.96127731 14.7427337 2.37115966 14.2768138 2.12934454zM5.65301982 8.28342857C4.38349476 8.28342857 3.13106769 8.48087395 1.92779731 8.86245378 1.55377898 8.98447059 1.34432872 9.80752941 1.46187734 10.1891092 1.57728871 10.579563 1.97054226 10.7947563 2.34669783 10.674958 3.41532162 10.3266555 4.5245531 10.1536134 5.65301982 10.1536134 7.53807218 10.1536134 9.4081638 10.6483361 11.0452954 11.5934118L11.387255 11.6799328C11.637313 11.6799328 11.8809592 11.5401681 12.0049196 11.2983529 12.1887229 10.9522689 12.0711743 10.0937143 11.7292147 9.89405042 9.87622102 8.84470588 7.7817184 8.28342857 5.65301982 8.28342857zM12.9559948 6.14258824C10.7204338 4.93794958 8.19848168 4.29680672 5.65943156 4.29680672 4.24029918 4.29680672 2.82971578 4.48759664 1.47683807 4.87583193 1.03442782 4.99784874.775820868 5.7787563.901918474 6.22910924 1.01946709 6.68833613 1.47042633 6.95677311 1.91283657 6.82588235 3.1225187 6.47979832 4.39204375 6.3067563 5.65943156 6.3067563 7.96552169 6.3067563 10.1690239 6.86137815 12.2058209 7.9617479 12.3233695 8.03052101 12.4558788 8.05714286 12.5819764 8.05714286 12.8811911 8.05714286 13.165445 7.58016807 13.3086406 7.29398319 13.5159536 6.87912605 13.3577973 6.35778151 12.9559948 6.14258824z"/>
  </g>
</svg>
