<svg width="296" height="159.9" viewBox="0 0 296 159.9"><path fill="#DDD" d="M73.2 138V9c0-5.6-5-6-5-6C60.3 1 36.6.7 36.6.7 16.3.8 5 3 5 3 .5 4 0 9 0 9v129c0 8.7 5 7.5 5 7.5 8.8 2 31.6 1.8 31.6 1.8 18.4 0 31.7-2 31.7-2 5.8-1.5 5-7.4 5-7.4zm-3.2-5H2.8L3 13.6l67-.6v120z"/><path fill="#197DAB" d="M2.8 12.5h66.7v119H2.8z"/><circle fill="#4BC6DF" cx="66.6" cy="15.8" r="2.1"/><path fill="#FFF" d="M60 14h3.5v3.5H60zM55.3 14h3.5v3.5h-3.5zM50.5 14H54v3.5h-3.5z"/><path fill="#DCDCDC" d="M34 123h4.2v4.3H34zM62.8 123H67v4.3h-4.2zM6.2 123h4.2v4.3H6.2z"/><path fill="#FFF" d="M23.6 57.8h25v3h-25z"/><path fill="none" d="M9.5 39.5h53.3v14H9.5z"/><text transform="translate(15.048 53.102)" fill="#FFF" font-family="'Roboto-Thin'" font-size="17.8">18:41</text><g><path fill="#FFF" d="M6 71.7h60.5v11H6z"/><path fill="none" d="M18.4 74.7h26.2v1.7H18.4z"/><text transform="translate(18.396 76.408)" fill="#333" font-family="'ArialMT'" font-size="2.4">The Guardian</text><path fill="none" d="M18.4 77.7H65v1.8H18.3z"/><text transform="translate(18.396 79.453)" fill="#767676" font-family="'ArialMT'" font-size="2.4">Obama plan for trade deals with Asia...</text><path fill="none" d="M59 74.8h5.3v1.4H59z"/><text transform="translate(58.904 76.223)" fill="#BDBDBD" font-family="'ArialMT'" font-size="1.9">18:40</text><path fill="#005689" d="M11.2 73.5c-.2 0-.4.4-.6.6l-.2 1c0 .4 0 .7.3 1l.7.7s-.2 0-.3.2l-.2.2-.3.4v1.1l.8.4s-.3 0-.4.2c-.3 0-.5 0-.6.2l-.3.3v.5c-.4-.3-.7-.7-1-1.2-.2-.5-.3-1-.3-1.7 0-.4 0-.8.2-1.2 0-.3.2-.7.4-1l.8-1c.3 0 .6-.4 1-.5zm2.6 6h.6l.2.6c0 .3 0 .5-.3.7L13 81c-.5 0-1-.2-1-.3-.4-.2-.5-.4-.5-.6l.2-.4s.2-.2.5-.2h1.6zm3.4-2.2c0 .6 0 1.2-.4 1.7-.2.5-.5 1-1 1.3.3-.2.4-.6.4-1 0-.5-.2-1-.5-1.2-.3-.2-.8-.3-1.5-.3H12l-.3-.4V77H13c.7 0 1.3-.2 1.8-.5.4-.4.7-1 .7-1.5 0-.4 0-.7-.3-1 0-.2-.3-.4-.6-.6.4.2.8.4 1 .7l1 1c0 .3.3.7.4 1l.2 1.3zM13.7 75v.7c0 .2 0 .3-.2.4 0 .2-.2.2-.2.2H13h-.3-.3c0-.2 0-.3-.2-.5V75v-.7c0-.2 0-.3.2-.4 0-.2.2-.3.3-.3h.6l.2.2.2.3v.7z"/></g><g><path fill="#FFF" d="M23.6 110.2H296v49.6H23.6z"/><path fill="none" d="M79 124h118.3v7.8H79z"/><text transform="translate(79.041 131.636)" fill="#333" font-family="'ArialMT'" font-size="10.8">The Guardian</text><path fill="none" d="M79 137.7h209.7v8H79z"/><text transform="translate(79.041 145.367)" fill="#767676" font-family="'ArialMT'" font-size="10.7">Obama plan for trade deals with Asia...</text><path fill="none" d="M261.7 124.6h24.5v6.4h-24.5z"/><text transform="translate(261.745 130.799)" fill="#BDBDBD" font-family="'ArialMT'" font-size="8.7">18:40</text><path fill="#005689" d="M46.6 118.4c-1 .8-2 1.7-2.6 3-.5 1-.8 2.4-.8 4s.4 3 1 4.3c1 1.3 2 2.3 3.3 3l-1.2 1-1.5 1.5c-.5.6-1 1-1.2 1.8-.4.6-.5 1.2-.5 2 0 1 .4 2 1 2.8.8 1 1.8 1.5 3.3 1.8l-2.3.6-2 1c-.6.4-1 1-1.5 1.5-.3.6-.5 1.3-.5 2.2v.2c-1.7-1.8-3-3.8-4-6-1-2.3-1.5-4.8-1.5-7.4 0-2 .3-3.8.8-5.6.5-1.7 1.3-3.4 2.3-5 1-1.4 2.2-2.7 3.5-4 1.5-1 3-2 4.6-2.8zm11.6 26.8c1 0 2 .3 2.7.8.5.6 1 1.3 1 2.2 0 1-.6 2-1.6 2.6-1 .7-3 1-5.7 1-2.5 0-4.2-.3-5.2-1s-1.4-1.6-1.4-2.5c0-.7.3-1.4.7-2 .4-.7 1.2-1 2.4-1h7.2zm15.4-9.4c0 2.7-.5 5.2-1.5 7.5s-2.4 4.4-4 6c.6-1.2 1-2.7 1-4.5 0-2.5-.8-4.4-2.2-5.6-1.4-1.2-3.6-1.8-6.5-1.8H51c-.6 0-1-.2-1.4-.6-.4-.3-.6-.7-.6-1.2 0-.3.2-.6.4-1l.8-1c.7.4 1.4.5 2 .6h2.4c3.3 0 6-.8 8-2.3 2.2-1.7 3.2-4 3.2-6.8 0-1.6-.4-3-1-4.2-.7-1-1.6-2-2.7-2.8 1.8.8 3.3 1.7 4.7 3 1.4 1 2.7 2.4 3.7 4 1 1.5 1.8 3 2.4 5 .5 1.7.8 3.6.8 5.6zM58 125.3c0 1.3 0 2.3-.3 3-.2.8-.4 1.4-.7 1.8-.4.5-.7.8-1.2 1h-2.6c-.4-.2-.8-.5-1-1-.5-.3-.7-1-1-1.6v-3-3.4c.3-.8.5-1.4 1-1.8.2-.4.6-.7 1-.8l1.3-.2c.5 0 1 0 1.4.2.3.2.7.5 1 1 .3.3.5 1 .7 1.7.2 1 .3 2 .3 3.3z"/></g></svg>
