<svg width="296" height="159.9" viewBox="0 0 752 368"><path fill="#DDD" d="M644 0H508c-17.7 0-32 14.3-32 32v208h200V32c0-17.7-14.3-32-32-32z"/><path fill="#333" d="M488 48h176v192H488z"/><path fill="#FFF" d="M496 192h160v32H496z"/><g fill="#FFF" opacity=".5"><path d="M533.3 132h-1.2V99.4l-9.1 1.8v-1.1l10.4-1.9V132zM566.4 106.9c0 1.9-.6 3.5-1.7 4.9s-2.6 2.4-4.5 2.9c2.1.6 3.8 1.6 5.2 3.1 1.3 1.5 2 3.3 2 5.3 0 2.9-1 5.2-3 6.8-2 1.6-4.5 2.4-7.6 2.4-3.1 0-5.7-.8-7.7-2.4-2-1.6-3-3.8-3-6.8 0-2 .6-3.8 1.9-5.3 1.3-1.5 3-2.5 5.1-3.1-1.9-.6-3.4-1.5-4.5-2.9s-1.7-3-1.7-4.9c0-2.8.9-5 2.7-6.6 1.8-1.6 4.1-2.4 7-2.4 2.8 0 5.1.8 6.9 2.4 2 1.6 2.9 3.8 2.9 6.6zm-.3 16.3c0-2.4-.9-4.3-2.7-5.7s-4-2.2-6.7-2.2-4.9.7-6.7 2.2-2.7 3.4-2.7 5.7c0 2.5.9 4.4 2.6 5.8 1.8 1.4 4 2.1 6.8 2.1 2.7 0 4.9-.7 6.7-2.1 1.9-1.5 2.7-3.4 2.7-5.8zm-.9-16.5c0-2.2-.8-4-2.5-5.4-1.6-1.4-3.6-2.2-6-2.2-2.5 0-4.5.7-6.1 2.1-1.6 1.4-2.4 3.2-2.4 5.5 0 2.2.8 4 2.4 5.3 1.6 1.3 3.6 2 6.1 2 2.4 0 4.4-.7 6-2 1.7-1.3 2.5-3 2.5-5.3zM574.9 110h-2v-3h2v3zm0 21.7h-2v-3h2v3zM597.2 121.4h5.8v1.2h-5.8v9.1H596v-9.1h-16.2v-.6l15.9-23.6h1.5v23zm-15.5 0H596v-21.3h-.1l-1.8 3-12.4 18.3zM627.1 118.6c0 4.4-.9 7.7-2.6 10.1s-4.3 3.6-7.5 3.6-5.7-1.2-7.5-3.6c-1.8-2.4-2.7-5.7-2.7-10.1v-7.1c0-4.3.9-7.7 2.7-10.1 1.8-2.4 4.3-3.6 7.5-3.6s5.7 1.2 7.5 3.6c1.8 2.4 2.7 5.7 2.7 10.1v7.1zm-1.2-7.1c0-3.9-.8-6.9-2.3-9.1s-3.7-3.3-6.6-3.3-5.1 1.1-6.6 3.3-2.3 5.2-2.3 9.1v7c0 3.8.8 6.9 2.3 9.1 1.5 2.2 3.8 3.3 6.7 3.3 2.9 0 5.1-1.1 6.6-3.3s2.3-5.3 2.3-9.1v-7z"/></g><path fill="#999" d="M616 52h12v12h-12zM632 52h12v12h-12zM600 52h12v12h-12z"/><circle fill="#3F7D89" cx="654" cy="58" r="6"/><path fill="#999" d="M544 168h64v8h-64z"/><path fill="#005689" d="M511 196.1c-1.3 1-2.2 2.5-2.2 4.3 0 2.2 1.1 3.6 2.7 4.7l.1.1c-.9.6-2.8 2.1-2.8 3.8 0 1.3.8 2.5 2.6 2.9-1.9.4-4 1.2-4 3.3v.2c-2.1-2.2-3.5-5.1-3.5-8.4.1-4.9 3-9 7.1-10.9zm9.6 18.7c0 1.3-1 2.3-4.5 2.3-3.1 0-4.2-1.1-4.2-2.2 0-.9.4-1.9 1.9-1.9h4.4c1.6-.1 2.4.7 2.4 1.8zm3.8.8c.4-.8.7-1.8.7-2.9 0-3.3-1.7-4.7-5.4-4.7h-5.9c-.6 0-1.2-.5-1.2-1.1 0-.4.3-.9.8-1.2.9.3 1.6.3 2.7.3 4.2 0 7.1-2.1 7.1-5.7 0-2-.9-3.5-2.3-4.4 4.2 1.8 7.3 6 7.3 11-.2 3.5-1.6 6.5-3.8 8.7zm-6.2-15.2c0 3.3-1 3.6-2.2 3.6s-2.2-.3-2.2-3.6 1-3.8 2.2-3.8c1.2 0 2.2.5 2.2 3.8z"/><path fill="#333" d="M532 200h40v4h-40z"/><path fill="#767676" d="M532 208h40v4h-40zM580 208h40v4h-40z"/><path fill="#BDBDBD" d="M640 196h12v4h-12z"/><g><path fill="#FFF" d="M0 228h752v140H0z"/><path fill="#005689" d="M63.2 252.9c-6 4.4-9.6 11-9.6 19.3 0 9.8 5.1 16.2 12.2 21l.4.2c-4.1 2.8-12.7 9.5-12.7 17.2 0 5.9 3.8 11.3 11.7 13.2-8.4 1.6-17.7 5.4-17.7 14.8v.7c-9.4-9.8-15.5-22.7-15.5-37.4 0-22 13-40.3 31.2-49zm43.1 83.6c0 5.9-4.3 10.2-20.1 10.2-13.9 0-18.7-4.8-18.7-10 0-3.9 1.7-8.7 8.5-8.7h19.9c6.7.1 10.4 3.5 10.4 8.5zm16.9 3.4c1.8-3.8 2.9-8 2.9-12.8 0-14.6-7.8-21-24.3-21H75.4c-2.8 0-5.2-2.3-5.2-4.9 0-1.8 1.5-3.9 3.4-5.4 3.9 1.3 7.3 1.5 12.1 1.5 18.9 0 32-9.3 31.7-25.4-.1-9.1-4-15.6-10.5-19.5 18.9 8.2 32.4 27 32.4 49.3 0 15.1-6.2 28.5-16.1 38.2zm-27.9-67.8c0 14.6-4.4 16.2-9.6 16.2s-9.6-1.2-9.6-16.2 4.4-17 9.6-17c5.4.1 9.6 2.4 9.6 17z"/><text transform="translate(152 286)" font-size="32">The Guardian</text><text transform="translate(156 322)" fill="#767676" font-size="28">Obama plan for trade deals with Asia...</text><text transform="translate(664 278)" fill="#CCC" font-size="20">18:40</text></g></svg>
