<svg width="296" height="100.725" viewBox="0 29.589 296 100.725"><path fill="#FFF" d="M20.556 41.923h135.667v78.11H20.556v-78.11z"/><path fill="#EAEAEA" d="M20.556 33.7h135.667v8.223H20.556V33.7zM36.486 45.469H154.68v77.186H36.486V45.469z"/><path fill="#BCBCBC" d="M96.097 36.269v3.084H39.569v-3.084h56.528m.514-.513H39.056v4.111h57.556v-4.111z"/><path fill="#4082F7" d="M96.611 35.756h6.167v4.111h-6.167v-4.111z"/><path fill="#D74934" d="M24.667 43.978h4.111v2.055h-4.111v-2.055z"/><path fill="#DFDFDF" stroke="#BCBCBC" stroke-miterlimit="10" d="M39.056 43.978h8.222v2.055h-8.222v-2.055zm10.277 0h8.222v2.055h-8.222v-2.055zm10.278 0h8.222v2.055h-8.222v-2.055z"/><path fill="#DFDFDF" d="M137.979 44.235h3.597v1.541h-3.597v-1.541z"/><path fill="#BCBCBC" d="M141.319 44.492v1.027h-3.083v-1.027h3.083m.514-.514h-4.111v2.055h4.111v-2.055z"/><path fill="#DFDFDF" d="M142.09 44.235h3.597v1.541h-3.597v-1.541z"/><path fill="#BCBCBC" d="M145.431 44.492v1.027h-3.083v-1.027h3.083m.513-.514h-4.111v2.055h4.111v-2.055z"/><path fill="#DFDFDF" d="M148.257 44.235h3.597v1.541h-3.597v-1.541z"/><path fill="#BCBCBC" d="M151.598 44.492v1.027h-3.084v-1.027h3.084m.513-.514H148v2.055h4.111v-2.055z"/><path fill="#D74934" d="M24.667 48.089h10.278V52.2H24.667v-4.111z"/><path fill="#BCBCBC" d="M24.667 54.256h6.167v2.056h-6.167v-2.056zm0 4.111h6.167v2.056h-6.167v-2.056zm0 4.111h6.167v2.055h-6.167v-2.055zm0 4.111h6.167v2.056h-6.167v-2.056zm0 4.111h6.167v2.056h-6.167V70.7zm0 4.111h6.167v2.056h-6.167v-2.056zm0 4.112h6.167v2.056h-6.167v-2.056zm0 4.11h6.167v2.056h-6.167v-2.056zm4.111 10.278h6.167v2.056h-6.167v-2.056zM24.667 89.2h6.167v2.056h-6.167V89.2z"/><path fill="#AAD8F2" d="M18.449 89.148h12.436v12.437H18.449V89.148z"/><path fill="#BCBCBC" d="M28.778 99.478h6.167v2.055h-6.167v-2.055z"/><path fill="#AAD8F2" d="M18.449 95.315h12.436v12.437H18.449V95.315z"/><path fill="#BCBCBC" d="M28.778 105.644h6.167v2.056h-6.167v-2.056z"/><path fill="#AAD8F2" d="M18.449 101.482h12.436v12.436H18.449v-12.436z"/><path fill="#BCBCBC" d="M28.778 111.811h6.167v2.056h-6.167v-2.056z"/><path fill="#AAD8F2" d="M18.449 107.648h12.436v12.437H18.449v-12.437z"/><path fill="none" stroke="#D74934" stroke-width="2" stroke-miterlimit="10" d="M22.611 54.256v2.056"/><path fill="#757575" d="M42.653 50.658v1.028h-1.028v-1.028h1.028m.514-.514h-2.055V52.2h2.055v-2.056z"/><path fill="#CDB21B" d="M45.222 50.144h2.056V52.2h-2.056v-2.056z"/><path fill="#757575" d="M49.333 50.144h10.278V52.2H49.333v-2.056zm16.445 0h12.333V52.2H65.778v-2.056z"/><path fill="#BCBCBC" d="M80.167 50.144h41.111V52.2H80.167v-2.056z"/><path fill="#757575" d="M145.944 50.144h4.111V52.2h-4.111v-2.056zM42.653 54.769v1.028h-1.028v-1.028h1.028m.514-.513h-2.055v2.056h2.055v-2.056z"/><path fill="#CDB21B" d="M45.222 54.256h2.056v2.056h-2.056v-2.056z"/><path fill="#757575" d="M49.333 54.256h10.278v2.056H49.333v-2.056zm16.445 0h12.333v2.056H65.778v-2.056z"/><path fill="#BCBCBC" d="M80.167 54.256h53.445v2.056H80.167v-2.056z"/><path fill="#757575" d="M145.944 54.256h4.111v2.056h-4.111v-2.056zM42.653 58.881v1.027h-1.028v-1.027h1.028m.514-.514h-2.055v2.056h2.055v-2.056z"/><path fill="#CDB21B" d="M45.222 58.367h2.056v2.056h-2.056v-2.056z"/><path fill="#757575" d="M49.333 58.367h10.278v2.056H49.333v-2.056zm16.445 0h12.333v2.056H65.778v-2.056z"/><path fill="#BCBCBC" d="M80.167 58.367h41.111v2.056H80.167v-2.056z"/><path fill="#757575" d="M145.944 58.367h4.111v2.056h-4.111v-2.056zM42.653 62.992v1.027h-1.028v-1.027h1.028m.514-.514h-2.055v2.055h2.055v-2.055z"/><path fill="#CDB21B" d="M45.222 62.478h2.056v2.055h-2.056v-2.055z"/><path fill="#757575" d="M49.333 62.478h10.278v2.055H49.333v-2.055zm16.445 0h12.333v2.055H65.778v-2.055z"/><path fill="#BCBCBC" d="M80.167 62.478h57.556v2.055H80.167v-2.055z"/><path fill="#757575" d="M145.944 62.478h4.111v2.055h-4.111v-2.055zM42.653 67.103v1.027h-1.028v-1.027h1.028m.514-.514h-2.055v2.056h2.055v-2.056z"/><path fill="#CDB21B" d="M45.222 66.589h2.056v2.056h-2.056v-2.056z"/><path fill="#757575" d="M49.333 66.589h10.278v2.056H49.333v-2.056zm16.445 0h12.333v2.056H65.778v-2.056z"/><path fill="#BCBCBC" d="M80.167 66.589h41.111v2.056H80.167v-2.056z"/><path fill="#757575" d="M145.944 66.589h4.111v2.056h-4.111v-2.056zM42.653 71.214v1.028h-1.028v-1.028h1.028m.514-.514h-2.055v2.056h2.055V70.7z"/><path fill="#CDB21B" d="M45.222 70.7h2.056v2.056h-2.056V70.7z"/><path fill="#757575" d="M49.333 70.7h10.278v2.056H49.333V70.7zm16.445 0h12.333v2.056H65.778V70.7z"/><path fill="#BCBCBC" d="M80.167 70.7h51.389v2.056H80.167V70.7z"/><path fill="#757575" d="M145.944 70.7h4.111v2.056h-4.111V70.7z"/><path fill="#FFF" d="M121.278 35.756h30.833v6.167h-30.833v-6.167z"/><path fill="#025589" d="M121.278 35.756h6.167v6.167h-6.167v-6.167z"/><path fill="#333" d="M129.5 36.269h6.167v1.028H129.5v-1.028zm0 1.799h16.444v.514H129.5v-.514zm0 1.285h16.444v.514H129.5v-.514z"/><path fill="#BCBCBC" d="M129.5 40.637h6.167v.514H129.5v-.514z"/><path fill="#DCDCDC" d="M160.334 124.144V33.7a4.124 4.124 0 0 0-4.111-4.111H20.556a4.124 4.124 0 0 0-4.111 4.111v90.444H0v4.111c3.392 2.21 10.278 2.056 10.278 2.056H166.5c6.578-.052 10.277-2.056 10.277-2.056v-4.111h-16.443zm-4.111-4.111H20.556V33.7h135.667v86.333z"/><path fill="#757575" d="M34.431 89.714v1.028h-1.028v-1.028h1.028m.513-.514h-2.056v2.056h2.056V89.2z"/><path fill="#FFF" d="M96.611 74.811H296v55.5H96.611v-55.5z"/><path fill="#025589" d="M41.111 74.811h55.5v55.5h-55.5v-55.5z"/><path fill="#FFF" d="M61.102 85.038c-2.056 1.49-3.34 3.803-3.34 6.629 0 3.34 1.747 5.602 4.214 7.246l.103.103c-1.439.977-4.368 3.289-4.368 5.909 0 2.005 1.285 3.906 4.06 4.522-2.878.565-6.115 1.851-6.115 5.088v.257c-3.238-3.341-5.345-7.812-5.345-12.898.05-7.555 4.572-13.876 10.791-16.856zm14.851 28.829c0 2.004-1.49 3.546-6.938 3.546-4.779 0-6.423-1.645-6.423-3.443 0-1.336.565-2.98 2.929-2.98h6.834c2.364-.053 3.598 1.13 3.598 2.877zm5.858 1.182a10.173 10.173 0 0 0 1.028-4.419c0-5.036-2.672-7.246-8.376-7.246h-9.147c-.977 0-1.799-.822-1.799-1.696 0-.616.514-1.336 1.182-1.85 1.336.462 2.518.514 4.163.514 6.526 0 10.997-3.186 10.946-8.736-.052-3.135-1.388-5.396-3.597-6.731 6.526 2.826 11.203 9.301 11.203 17.01-.053 5.137-2.211 9.762-5.603 13.154zm-9.61-23.382c0 5.036-1.49 5.602-3.34 5.602-1.799 0-3.34-.411-3.34-5.602s1.49-5.858 3.34-5.858c1.902-.001 3.34.822 3.34 5.858z"/><text transform="translate(108.944 101.51)" fill="#333" font-family="'TS3TextSans'" font-size="8.222">Obama plan for trade deals with Asia and</text><text transform="translate(108.944 110.76)" fill="#333" font-family="'ArialMT'" font-size="8.222">Europe in tatters after Senate vote</text><text transform="translate(108.944 89.175)" fill="#333" font-family="'TS3TextSans'" font-size="10.278">The Guardian</text><text transform="translate(108.944 122.089)" fill="#BCBCBC" font-family="'TS3TextSans'" font-size="7.194">theguardian.com</text></svg>