<svg width="296" height="159.9" viewBox="0 0 688 338"><title>Group 3</title><defs><path id="a" d="M0 0h194v262H0z"/><path id="c" d="M0 368.668h178.98V.1H0z"/></defs><g fill="none" fill-rule="evenodd"><g transform="translate(428 -6)"><mask id="b" fill="#fff"><use xlink:href="#a"/></mask><g mask="url(#b)"><g transform="translate(7 6.8)"><mask id="d" fill="#fff"><use xlink:href="#c"/></mask><path d="M9.746 324.513h159.158V44.015H9.746v280.498zM148.16.101H30.921C0 .101 0 26.371 0 26.371v314.005c0 28.604 30.92 28.292 30.92 28.292h117.241c30.903 0 30.818-29.225 30.818-29.225V25.44C178.98.1 148.161.1 148.161.1z" fill="#DDD" mask="url(#d)"/><g mask="url(#d)"><path fill="#333" d="M9.772 324.568h159.04V44.071H9.772z"/><path d="M166.7 52.78c0 2.771-2.254 5.019-5.034 5.019-2.782 0-5.035-2.248-5.035-5.018a5.026 5.026 0 0 1 5.035-5.02 5.025 5.025 0 0 1 5.033 5.02" fill="#4BC6DF"/><path fill="#FFF" d="M146.102 56.93h8.323v-8.3h-8.323zm-11.306 0h8.325v-8.3h-8.325zm-11.303 0h8.323v-8.3h-8.323z"/><path fill="#DCDCDC" d="M84.068 316.967h10.066v-10.039H84.068zm68.549 0h10.069v-10.039h-10.069zm-134.687 0h10.068v-10.039H17.93z"/><path fill="#FFF" d="M59.24 158.428h59.722v-6.787H59.24zm-6.69-29.186h-1.118V99.819l-8.242 1.61v-.95l9.36-1.734v30.497zm29.945-22.692c0 1.68-.515 3.145-1.543 4.398-1.029 1.253-2.378 2.134-4.049 2.643 1.92.523 3.476 1.459 4.67 2.808 1.194 1.349 1.791 2.932 1.791 4.749 0 2.643-.9 4.68-2.702 6.112-1.802 1.431-4.097 2.147-6.885 2.147-2.844 0-5.16-.716-6.948-2.147-1.788-1.432-2.682-3.47-2.682-6.112 0-1.83.583-3.42 1.75-4.77 1.167-1.349 2.716-2.278 4.649-2.787-1.684-.51-3.03-1.387-4.038-2.633-1.008-1.245-1.512-2.715-1.512-4.408 0-2.533.818-4.511 2.454-5.936 1.636-1.425 3.731-2.137 6.285-2.137 2.527 0 4.618.716 6.275 2.147 1.656 1.432 2.485 3.407 2.485 5.926zm-.27 14.701c0-2.12-.814-3.833-2.443-5.141-1.63-1.308-3.645-1.962-6.047-1.962-2.443 0-4.466.654-6.067 1.962-1.602 1.308-2.403 3.021-2.403 5.141 0 2.216.794 3.944 2.382 5.183 1.588 1.238 3.63 1.858 6.13 1.858 2.43 0 4.445-.623 6.046-1.869 1.602-1.245 2.403-2.97 2.403-5.172zm-.849-14.804c0-1.969-.738-3.603-2.215-4.904-1.477-1.3-3.286-1.951-5.426-1.951-2.223 0-4.048.623-5.477 1.868-1.43 1.246-2.144 2.908-2.144 4.987 0 2.01.718 3.61 2.154 4.8 1.436 1.191 3.272 1.786 5.509 1.786 2.167 0 3.976-.598 5.425-1.796 1.45-1.198 2.174-2.794 2.174-4.79zm8.76 22.526h-1.78v-2.684h1.78v2.684zm0-19.594h-1.78v-2.684h1.78v2.684z"/></g><path fill="#FFF" mask="url(#d)" d="M17.582 201.81h143.93v-26.132H17.581z"/></g><path d="M57.16 188.606h-1.484v3.912h-.151v-3.912H54.04v-.151h3.118v.15zm.786 1.529c.093-.22.23-.39.41-.51.182-.122.403-.182.664-.182.316 0 .555.1.718.298.163.2.245.513.245.94v1.837h-.154v-1.842c0-.396-.073-.676-.22-.838a.75.75 0 0 0-.586-.245c-.327 0-.577.098-.75.292a1.398 1.398 0 0 0-.327.746v1.887h-.152v-4.353h.152v1.97zm4.018 2.441c-.345 0-.643-.139-.894-.417-.25-.278-.376-.623-.376-1.036v-.179c0-.433.121-.792.364-1.076.242-.283.542-.425.898-.425.341 0 .62.111.835.335.216.223.324.522.324.898v.232h-2.27v.215c0 .364.107.673.322.925.214.252.48.378.797.378.226 0 .415-.03.567-.092.152-.062.282-.154.39-.277l.082.118c-.12.132-.265.232-.435.3a1.65 1.65 0 0 1-.604.101zm-.008-2.983c-.3 0-.55.11-.75.328-.2.219-.313.492-.339.82l.009.016h2.088v-.092a1.09 1.09 0 0 0-.28-.766.941.941 0 0 0-.728-.306zm6.185 2.49c-.086.119-.25.23-.494.336-.243.105-.542.157-.897.157-.466 0-.845-.165-1.135-.496-.29-.331-.435-.762-.435-1.292v-.664c0-.51.141-.925.423-1.246.281-.321.648-.482 1.1-.482.43 0 .773.111 1.025.334.253.222.382.509.388.86l-.006.017h-.126a1.056 1.056 0 0 0-.348-.766c-.217-.196-.529-.294-.933-.294-.413 0-.744.147-.995.44-.251.293-.377.67-.377 1.131v.67c0 .483.13.877.39 1.182.259.304.602.456 1.03.456.3 0 .562-.044.787-.131.225-.088.375-.182.452-.282v-1.183h-1.245v-.154h1.396v1.407zm3.02-.107c-.095.192-.231.34-.407.444-.177.104-.39.156-.643.156-.311 0-.555-.11-.731-.33-.177-.22-.265-.562-.265-1.026v-1.72h.151v1.727c0 .41.076.711.227.907a.734.734 0 0 0 .613.293c.315 0 .557-.077.726-.232.169-.154.277-.359.323-.614V189.5h.154v3.019h-.126l-.022-.542zm3.003-.016c-.105.182-.26.33-.467.445a1.536 1.536 0 0 1-.753.171c-.282 0-.503-.076-.664-.23-.16-.153-.24-.36-.24-.62 0-.254.12-.466.36-.637.24-.171.539-.257.9-.257h.864v-.44c0-.252-.08-.447-.242-.588-.162-.14-.389-.21-.682-.21-.274 0-.495.065-.662.198a.622.622 0 0 0-.25.51l-.126-.005-.006-.014a.703.703 0 0 1 .275-.596c.194-.163.45-.244.77-.244.324 0 .584.082.78.245.196.164.294.4.294.71v1.512c0 .106.006.209.018.31.012.1.032.2.06.298h-.168a5.985 5.985 0 0 1-.049-.297 1.696 1.696 0 0 1-.012-.214v-.047zm-1.22.469c.3 0 .554-.066.762-.199.208-.132.36-.32.458-.566v-.678h-.857c-.313 0-.577.072-.793.216-.215.144-.323.322-.323.535 0 .202.068.368.206.498.137.129.319.194.547.194zm3.68-2.822l-.196-.016c-.27 0-.49.087-.66.26a1.28 1.28 0 0 0-.328.688v1.979h-.151v-3.02h.123l.028.525v.103a1.09 1.09 0 0 1 .375-.503 1.019 1.019 0 0 1 .826-.15l-.017.134zm.375 1.398c0-.478.1-.858.302-1.14a.974.974 0 0 1 .84-.422c.237 0 .442.053.614.159.173.106.31.25.413.435v-1.872h.151v4.353h-.145l-.006-.469c-.1.162-.24.29-.416.385a1.283 1.283 0 0 1-.617.142c-.356 0-.635-.135-.835-.407-.2-.272-.301-.64-.301-1.105v-.059zm.157.059c0 .417.082.748.247.993.165.246.409.369.73.369.263 0 .481-.06.656-.179.174-.119.3-.278.379-.477v-1.415a1.256 1.256 0 0 0-.353-.543c-.162-.146-.388-.219-.677-.219a.817.817 0 0 0-.732.392c-.167.262-.25.602-.25 1.02v.059zm3.308 1.454h-.151v-3.02h.15v3.02zm0-3.968h-.151v-.385h.15v.385zm2.894 3.41c-.105.182-.26.33-.468.445a1.536 1.536 0 0 1-.753.171c-.281 0-.502-.076-.663-.23-.16-.153-.24-.36-.24-.62 0-.254.12-.466.359-.637.24-.171.54-.257.9-.257h.865v-.44c0-.252-.081-.447-.243-.588-.16-.14-.388-.21-.681-.21-.274 0-.495.065-.662.198a.622.622 0 0 0-.25.51l-.126-.005-.006-.014a.703.703 0 0 1 .274-.596c.194-.163.451-.244.77-.244.325 0 .585.082.78.245.197.164.295.4.295.71v1.512c0 .106.006.209.018.31.012.1.032.2.06.298h-.168a5.985 5.985 0 0 1-.049-.297 1.696 1.696 0 0 1-.012-.214v-.047zm-1.22.469c.3 0 .554-.066.762-.199.208-.132.36-.32.458-.566v-.678H82.5c-.313 0-.578.072-.793.216-.216.144-.323.322-.323.535 0 .202.068.368.205.498.137.129.32.194.547.194zm2.473-2.93l.02.622c.091-.216.225-.383.4-.501a1.14 1.14 0 0 1 .65-.177c.33 0 .577.103.743.31.165.208.247.537.247.987v1.778h-.15v-1.783c0-.419-.076-.714-.226-.885-.15-.171-.354-.257-.612-.257-.326 0-.573.098-.739.292-.166.194-.27.443-.31.746v1.887h-.151v-3.02h.128z" fill="#333"/><path d="M57.158 195.802v2.727c0 .439-.127.774-.382 1.006-.255.232-.587.348-.995.348-.413 0-.746-.116-1-.35-.254-.232-.38-.567-.38-1.004v-2.727h.149v2.727c0 .378.114.673.344.886.229.213.524.32.887.32.36 0 .655-.107.884-.32.229-.213.343-.508.343-.886v-2.727h.15zm3.282 2.584c0 .46-.1.825-.3 1.094a.972.972 0 0 1-.826.403c-.234 0-.439-.047-.613-.14a1.052 1.052 0 0 1-.41-.382v1.614h-.149v-4.14h.116l.03.536c.1-.184.236-.329.408-.434.172-.105.376-.157.613-.157.353 0 .63.14.83.419.2.279.3.655.3 1.129v.058zm-.153-.058c0-.415-.083-.752-.25-1.01a.811.811 0 0 0-.725-.389c-.29 0-.516.073-.677.218-.16.146-.275.325-.343.537v1.398a.968.968 0 0 0 .371.475c.174.118.392.177.654.177.316 0 .557-.121.722-.365.166-.243.248-.57.248-.983v-.058zm.83 0c0-.474.099-.85.298-1.13a.966.966 0 0 1 .832-.418c.235 0 .437.052.608.157.171.105.308.25.41.432v-1.855h.149v4.311h-.144l-.006-.464c-.1.16-.237.288-.411.381a1.27 1.27 0 0 1-.612.141c-.353 0-.628-.134-.827-.403-.199-.269-.298-.634-.298-1.094v-.058zm.154.058c0 .412.082.74.246.983.163.244.404.365.722.365.26 0 .477-.059.65-.177.172-.118.298-.275.375-.472v-1.401a1.244 1.244 0 0 0-.35-.538c-.16-.145-.383-.217-.67-.217-.318 0-.56.13-.725.388-.165.26-.248.596-.248 1.01v.059zm4.973.887c-.104.18-.258.327-.463.44-.205.114-.454.17-.746.17-.279 0-.498-.076-.657-.228-.159-.152-.238-.357-.238-.614 0-.251.119-.461.356-.63.238-.17.535-.255.891-.255h.857v-.436c0-.25-.08-.443-.24-.582-.16-.14-.385-.209-.675-.209-.272 0-.49.066-.655.196a.616.616 0 0 0-.249.506l-.124-.005-.006-.014a.696.696 0 0 1 .272-.59c.192-.161.446-.242.762-.242.322 0 .58.081.773.243.194.162.291.396.291.702v1.498c0 .105.006.207.018.307.012.1.032.198.06.295h-.166a5.928 5.928 0 0 1-.049-.294 1.68 1.68 0 0 1-.012-.211v-.047zm-1.209.464c.298 0 .55-.065.756-.196a1.14 1.14 0 0 0 .453-.561v-.672h-.848c-.31 0-.573.072-.786.214-.214.143-.32.32-.32.53 0 .2.068.365.203.493.136.128.317.192.542.192zm2.633-3.709v.807h.738v.152h-.738v2.067c0 .245.042.42.125.524a.401.401 0 0 0 .33.156 1.725 1.725 0 0 0 .293-.025l.028.136a.742.742 0 0 1-.144.03 1.44 1.44 0 0 1-.169.008c-.201 0-.354-.065-.458-.196-.105-.13-.157-.342-.157-.633v-2.067h-.554v-.152h.554v-.807h.152zm2.467 3.855c-.342 0-.637-.137-.885-.413-.249-.275-.373-.617-.373-1.026v-.177c0-.43.12-.785.36-1.066.24-.28.537-.421.89-.421.338 0 .614.11.827.332.214.22.32.517.32.89v.229h-2.247v.213c0 .36.106.666.318.916.213.25.476.374.79.374.224 0 .41-.03.561-.091a1 1 0 0 0 .387-.274l.08.116a1.14 1.14 0 0 1-.43.298c-.17.067-.369.1-.598.1zm-.008-2.954a.964.964 0 0 0-.743.325 1.32 1.32 0 0 0-.335.811l.008.017h2.068v-.092a1.08 1.08 0 0 0-.277-.758.932.932 0 0 0-.721-.303zm2.012 2.896h-.238v-.359h.238v.36zm0-2.622h-.238v-.36h.238v.36zm2.897 1.71l.174.633h.017l.174-.633.954-3.111h.166l.948 3.111.172.633h.017l.18-.633.831-3.111h.164l-1.087 4.023h-.169l-1-3.355-.133-.4h-.017l-.128.4-1.008 3.355h-.17l-1.089-4.023h.167l.837 3.111zm4.784.912h-.15v-4.023h.15v4.023zm4.127 0h-.15l-2.589-3.747-.016.005v3.742h-.153v-4.023h.153l2.588 3.739.017-.006v-3.733h.15v4.023zm1.167-1.32h-.15v-2.703h.15v2.702zm.058 1.32h-.264v-.37h.264v.37zm2.342 0v-4.023h1.061c.418 0 .742.085.973.257.231.171.347.429.347.773 0 .24-.062.442-.186.606a.807.807 0 0 1-.524.306c.252.034.463.143.635.33a.92.92 0 0 1 .258.643c0 .352-.114.625-.343.818-.228.194-.53.29-.905.29h-1.316zm.15-1.987v1.838h1.166c.34 0 .608-.084.804-.251.196-.168.294-.402.294-.702a.818.818 0 0 0-.281-.628c-.188-.171-.45-.257-.789-.257h-1.194zm0-.149h.967c.368 0 .645-.071.831-.214.187-.143.28-.36.28-.654 0-.287-.098-.504-.295-.65-.197-.147-.487-.22-.872-.22h-.911v1.738zm4.218 2.194c-.342 0-.637-.137-.885-.413-.249-.275-.373-.617-.373-1.026v-.177c0-.43.12-.785.36-1.066.24-.28.537-.421.89-.421.338 0 .614.11.827.332.214.22.32.517.32.89v.229h-2.248v.213c0 .36.107.666.32.916.212.25.475.374.79.374.223 0 .41-.03.56-.091.15-.06.28-.152.387-.274l.08.116a1.14 1.14 0 0 1-.43.298c-.17.067-.369.1-.598.1zm-.008-2.954a.964.964 0 0 0-.743.325 1.32 1.32 0 0 0-.335.811l.008.017h2.068v-.092a1.08 1.08 0 0 0-.278-.758.932.932 0 0 0-.72-.303zm3.683 2.164a.588.588 0 0 0-.203-.432c-.136-.13-.373-.232-.711-.306-.357-.075-.615-.173-.775-.291-.16-.12-.24-.296-.24-.53a.66.66 0 0 1 .272-.537c.181-.145.425-.217.732-.217.33 0 .59.077.781.232.19.155.281.357.272.605l-.006.017h-.127a.627.627 0 0 0-.248-.499c-.166-.137-.39-.206-.672-.206-.281 0-.494.06-.638.181a.534.534 0 0 0-.216.419c0 .156.06.29.183.4.122.111.364.208.726.29.335.078.588.184.76.317.174.134.26.32.26.56a.682.682 0 0 1-.288.57c-.192.145-.447.217-.765.217-.35 0-.623-.077-.822-.233-.199-.156-.292-.345-.279-.568l.006-.017h.122c.015.236.116.407.305.512.188.105.41.157.668.157.277 0 .497-.064.66-.193.162-.13.243-.278.243-.448zm1.298-3.065v.807h.737v.152h-.737v2.067c0 .245.041.42.124.524a.401.401 0 0 0 .33.156 1.725 1.725 0 0 0 .293-.025l.029.136a.742.742 0 0 1-.145.03 1.44 1.44 0 0 1-.169.008c-.201 0-.354-.065-.458-.196-.105-.13-.157-.342-.157-.633v-2.067h-.554v-.152h.554v-.807h.153zm5.094 2.358c0 .46-.1.825-.3 1.094a.972.972 0 0 1-.825.403c-.235 0-.44-.047-.614-.14a1.052 1.052 0 0 1-.41-.382v1.614h-.149v-4.14h.117l.03.536c.1-.184.236-.329.408-.434.171-.105.376-.157.612-.157.353 0 .63.14.83.419.2.279.3.655.3 1.129v.058zm-.153-.058c0-.415-.083-.752-.25-1.01a.811.811 0 0 0-.725-.389c-.29 0-.516.073-.676.218a1.211 1.211 0 0 0-.344.537v1.398a.968.968 0 0 0 .371.475c.174.118.392.177.654.177.316 0 .557-.121.722-.365.166-.243.248-.57.248-.983v-.058zm1.154 1.497h-.15v-2.99h.15v2.99zm0-3.93h-.15v-.38h.15v.38zm2 3.84c.254 0 .477-.07.671-.208.194-.138.291-.346.291-.622h.128l.006.017a.815.815 0 0 1-.323.7 1.22 1.22 0 0 1-.772.261c-.383 0-.683-.137-.9-.411-.217-.275-.325-.636-.325-1.084v-.116c0-.446.108-.806.324-1.08.216-.275.515-.412.895-.412.31 0 .573.09.789.272.215.182.319.437.312.767l-.006.017h-.128c0-.293-.094-.518-.282-.673a1.04 1.04 0 0 0-.685-.234c-.35 0-.617.125-.798.376-.181.25-.272.573-.272.967v.116c0 .398.09.722.272.972.181.25.449.374.804.374zm2.174-3.707v.807h.737v.152h-.737v2.067c0 .245.041.42.124.524a.401.401 0 0 0 .33.156 1.705 1.705 0 0 0 .294-.025l.028.136a.742.742 0 0 1-.144.03c-.05.006-.107.008-.17.008-.2 0-.354-.065-.458-.196-.105-.13-.157-.342-.157-.633v-2.067h-.554v-.152h.554v-.807h.153zm3.459 3.261c-.094.19-.229.336-.403.44a1.23 1.23 0 0 1-.637.154c-.308 0-.55-.109-.724-.327-.175-.218-.262-.557-.262-1.016v-1.705h.15v1.71c0 .406.074.706.224.899.15.193.352.29.607.29.312 0 .552-.076.72-.23a1.06 1.06 0 0 0 .32-.607v-2.062h.152v2.99h-.125l-.022-.536zm2.414-2.346l-.194-.017a.87.87 0 0 0-.653.259c-.167.172-.276.4-.325.681v1.96h-.15v-2.99h.122l.028.519v.102a1.08 1.08 0 0 1 .371-.499 1.009 1.009 0 0 1 .818-.148l-.017.133zm1.533 2.94c-.342 0-.637-.137-.886-.413-.248-.275-.373-.617-.373-1.026v-.177c0-.43.12-.785.36-1.066.24-.28.537-.421.89-.421.339 0 .614.11.828.332.213.22.32.517.32.89v.229h-2.248v.213c0 .36.106.666.319.916.212.25.476.374.79.374.223 0 .41-.03.561-.091.15-.06.28-.152.387-.274l.08.116a1.14 1.14 0 0 1-.43.298c-.17.067-.37.1-.598.1zm-.009-2.954a.964.964 0 0 0-.742.325 1.32 1.32 0 0 0-.336.811l.009.017h2.067v-.092a1.08 1.08 0 0 0-.277-.758.932.932 0 0 0-.72-.303zm2.013 2.896h-.239v-.359h.239v.36zm0-2.622h-.239v-.36h.239v.36zm2.278 2.622v-4.023h1.062c.417 0 .742.085.972.257.231.171.347.429.347.773 0 .24-.062.442-.186.606a.807.807 0 0 1-.524.306c.252.034.463.143.635.33a.92.92 0 0 1 .258.643c0 .352-.114.625-.342.818-.229.194-.53.29-.905.29h-1.317zm.15-1.987v1.838h1.167c.34 0 .608-.084.803-.251.196-.168.294-.402.294-.702a.818.818 0 0 0-.281-.628c-.188-.171-.45-.257-.789-.257h-1.194zm0-.149h.967c.368 0 .645-.071.832-.214.186-.143.28-.36.28-.654 0-.287-.099-.504-.296-.65-.196-.147-.487-.22-.871-.22h-.912v1.738zm3.381 2.136h-.15v-2.99h.15v2.99zm0-3.93h-.15v-.38h.15v.38zm2.306 1.048l-.194-.017a.87.87 0 0 0-.652.259c-.168.172-.276.4-.326.681v1.96h-.15v-2.99h.122l.028.519v.102a1.08 1.08 0 0 1 .371-.499 1.009 1.009 0 0 1 .818-.148l-.017.133zm.372 1.385c0-.474.1-.85.299-1.13a.966.966 0 0 1 .832-.418c.234 0 .437.052.608.157.17.105.307.25.409.432v-1.855h.15v4.311h-.145l-.005-.464c-.1.16-.237.288-.412.381a1.27 1.27 0 0 1-.611.141c-.353 0-.629-.134-.827-.403-.199-.269-.298-.634-.298-1.094v-.058zm.155.058c0 .412.082.74.245.983.164.244.404.365.722.365.26 0 .477-.059.65-.177.173-.118.298-.275.376-.472v-1.401a1.244 1.244 0 0 0-.35-.538c-.16-.145-.384-.217-.67-.217-.318 0-.56.13-.725.388-.165.26-.248.596-.248 1.01v.059zm3.19-1.55l.02.615c.09-.211.22-.376.39-.494s.377-.177.621-.177c.259 0 .47.066.63.198.162.131.274.334.335.609a1.19 1.19 0 0 1 .39-.596c.18-.142.404-.214.674-.214.33 0 .582.108.754.323.172.216.258.555.258 1.017v1.706h-.153v-1.711c0-.433-.077-.739-.232-.918a.781.781 0 0 0-.621-.268c-.318 0-.558.096-.721.286-.163.191-.264.438-.305.74 0 .037.001.068.003.095l.003.079v1.7h-.153v-1.711c0-.435-.077-.741-.233-.92a.786.786 0 0 0-.623-.266c-.31 0-.546.09-.707.272-.16.182-.263.417-.308.706v1.918h-.152v-2.99h.13zm6.871 2.437c-.103.18-.258.327-.463.44-.205.114-.453.17-.745.17-.28 0-.498-.076-.657-.228-.16-.152-.239-.357-.239-.614 0-.251.12-.461.357-.63.237-.17.534-.255.89-.255h.857v-.436c0-.25-.08-.443-.24-.582-.16-.14-.384-.209-.674-.209-.272 0-.49.066-.656.196a.616.616 0 0 0-.248.506l-.125-.005-.005-.014a.696.696 0 0 1 .271-.59c.193-.161.447-.242.763-.242.321 0 .579.081.773.243.194.162.29.396.29.702v1.498c0 .105.007.207.019.307s.032.198.06.295h-.167a5.927 5.927 0 0 1-.048-.294 1.68 1.68 0 0 1-.013-.211v-.047zm-1.208.464c.297 0 .549-.065.755-.196a1.14 1.14 0 0 0 .453-.561v-.672h-.848c-.31 0-.572.072-.786.214-.213.143-.32.32-.32.53 0 .2.068.365.204.493.136.128.316.192.542.192zm2.45-2.902l.02.616c.09-.213.222-.379.396-.496.173-.117.388-.175.643-.175.327 0 .572.103.736.308.163.205.245.531.245.977v1.76h-.15v-1.766c0-.414-.074-.706-.223-.876-.149-.17-.35-.254-.605-.254-.324 0-.568.096-.732.289a1.399 1.399 0 0 0-.308.74v1.867h-.15v-2.99h.128z" fill="#767676"/><path d="M151.9 191.811h-.12v-3.18l-.891.173v-.102l1.012-.188v3.297zm3.238-2.453c0 .182-.055.34-.166.475a.885.885 0 0 1-.438.286c.207.057.376.158.505.304a.75.75 0 0 1 .194.513c0 .286-.098.506-.293.661-.194.155-.443.232-.744.232-.308 0-.558-.077-.751-.232-.194-.155-.29-.375-.29-.66 0-.199.063-.37.189-.516a.972.972 0 0 1 .503-.302.868.868 0 0 1-.437-.284.735.735 0 0 1-.163-.477c0-.274.088-.488.265-.642.177-.154.403-.23.68-.23a1 1 0 0 1 .678.231c.179.155.268.369.268.64zm-.029 1.59a.679.679 0 0 0-.264-.556 1.011 1.011 0 0 0-.654-.213c-.264 0-.482.071-.656.213a.683.683 0 0 0-.26.555c0 .24.086.427.258.56.172.135.393.202.663.202.263 0 .48-.068.654-.202a.669.669 0 0 0 .26-.56zm-.091-1.601c0-.213-.08-.39-.24-.53a.856.856 0 0 0-.587-.211.868.868 0 0 0-.592.202.68.68 0 0 0-.232.539c0 .217.078.39.233.519a.902.902 0 0 0 .596.193.89.89 0 0 0 .586-.194.638.638 0 0 0 .236-.518zm.947 2.435h-.193v-.29h.193v.29zm0-2.118h-.193v-.29h.193v.29zm2.18 1.112h.565v.12h-.565v.886h-.12v-.886h-1.581v-.067l1.556-2.297h.145v2.244zm-1.513 0h1.392v-2.074l-.013-.005-.175.288-1.204 1.79zm4.437-.275c0 .424-.086.751-.258.982-.173.23-.416.346-.731.346s-.56-.116-.735-.347c-.174-.231-.261-.558-.261-.981v-.688c0-.422.086-.75.26-.98.172-.232.416-.348.731-.348s.56.116.734.347c.174.232.26.559.26.981v.688zm-.12-.688c0-.378-.075-.673-.224-.887-.15-.214-.366-.32-.65-.32-.283 0-.5.106-.648.32-.148.214-.223.51-.223.887v.683c0 .376.075.671.225.888.15.216.367.325.65.325.283 0 .498-.108.647-.324.148-.216.223-.512.223-.889v-.683z" fill="#BDBDBD"/><path d="M42.76 190.384c0 .685-.05 1.227-.143 1.635-.092.404-.224.717-.4.925-.169.21-.37.342-.593.398a3.351 3.351 0 0 1-1.393 0 1.118 1.118 0 0 1-.596-.398c-.171-.208-.306-.512-.397-.903-.094-.398-.14-.947-.14-1.657 0-.704.046-1.273.14-1.693.091-.42.226-.741.397-.965.172-.222.37-.366.596-.433.225-.064.458-.1.698-.1.265 0 .507.041.733.123.227.076.422.23.577.45.158.222.286.546.378.965.093.42.143.973.143 1.653zm8.268 5.555c0 1.417-.278 2.74-.83 3.96a10.713 10.713 0 0 1-2.205 3.206c.37-.68.553-1.483.553-2.4 0-1.364-.374-2.363-1.123-2.993-.75-.63-1.894-.948-3.443-.948h-4.956a.978.978 0 0 1-.692-.274c-.198-.184-.3-.395-.3-.635 0-.18.063-.363.18-.546.12-.189.272-.344.454-.47a4.29 4.29 0 0 0 1.083.232c.352.026.753.04 1.2.04 1.785 0 3.219-.413 4.312-1.244 1.087-.823 1.629-1.999 1.629-3.52-.021-.842-.207-1.57-.547-2.185a3.92 3.92 0 0 0-1.418-1.478c.893.394 1.714.9 2.46 1.514a10.066 10.066 0 0 1 3.189 4.746c.3.946.454 1.944.454 2.995zm-8.151 4.961c.603 0 1.076.145 1.415.433.345.289.513.67.513 1.137 0 .557-.255 1.016-.765 1.383-.513.368-1.517.552-3.014.552-1.312 0-2.223-.192-2.733-.571-.513-.381-.767-.822-.767-1.318 0-.37.11-.728.332-1.086.223-.352.65-.53 1.282-.53h3.737zm-6.14-14.14a4.396 4.396 0 0 0-1.339 1.537c-.315.605-.472 1.299-.472 2.087 0 .922.21 1.71.631 2.36.419.662.97 1.188 1.653 1.58l.078.04c-.21.128-.445.31-.706.53a9.96 9.96 0 0 0-.793.75 4.153 4.153 0 0 0-.646.905 2.19 2.19 0 0 0-.26 1.043c0 .552.18 1.062.539 1.535.348.476.91.787 1.669.948a8.248 8.248 0 0 0-1.18.315c-.398.13-.747.3-1.067.51a2.65 2.65 0 0 0-.766.789c-.196.313-.293.693-.293 1.139v.158a10.676 10.676 0 0 1-2.126-3.168c-.526-1.192-.787-2.493-.787-3.88a9.85 9.85 0 0 1 1.654-5.511 10.86 10.86 0 0 1 1.85-2.13 9.488 9.488 0 0 1 2.361-1.536z" fill="#005689"/></g><text mask="url(#b)" font-family="Roboto-Thin, Roboto" font-size="42" font-style="condensed" font-weight="300" fill="#FFF"><tspan x="100" y="136">40</tspan></text></g><path fill="#FFF" d="M0 337.166h687.038V212.268H0z"/><text font-family="ArialMT, Arial" font-size="27.313" fill="#333" transform="translate(0 212)"><tspan x="139.887" y="48.61">The Guardian</tspan></text><text font-family="ArialMT, Arial" font-size="27.05" fill="#767676" transform="translate(0 212)"><tspan x="139.887" y="82.482">Obama plan for trade deals with</tspan> <tspan x="523.296" y="82.482" letter-spacing="-.279"> </tspan> <tspan x="529.04" y="82.482">Asia...</tspan></text><text font-family="ArialMT, Arial" font-size="21.85" fill="#BDBDBD" transform="translate(0 212)"><tspan x="600.714" y="47.616">18:40</tspan></text><path d="M86.766 250.062c0 3.263-.236 5.865-.677 7.813-.446 1.926-1.075 3.429-1.903 4.427-.817.987-1.773 1.62-2.843 1.888a15.758 15.758 0 0 1-3.316.365c-1.145 0-2.258-.134-3.333-.365-1.075-.268-2.026-.901-2.838-1.888-.822-.998-1.473-2.453-1.908-4.33-.44-1.895-.656-4.524-.656-7.91 0-3.38.215-6.09.656-8.102.435-2.001 1.086-3.541 1.908-4.604.812-1.062 1.763-1.754 2.838-2.07a12.145 12.145 0 0 1 3.333-.484c1.263 0 2.424.193 3.504.596 1.086.36 2 1.094 2.747 2.162.752 1.047 1.365 2.597 1.811 4.599.441 2.001.677 4.652.677 7.903zm39.47 26.534c0 6.782-1.334 13.098-3.973 18.925-2.618 5.821-6.128 10.94-10.514 15.324 1.763-3.251 2.64-7.077 2.64-11.466 0-6.52-1.79-11.284-5.36-14.305-3.579-3.016-9.05-4.513-16.436-4.513h-23.66c-1.27 0-2.366-.44-3.312-1.325-.94-.87-1.413-1.884-1.413-3.032 0-.858.284-1.738.838-2.608a7.706 7.706 0 0 1 2.182-2.248c1.736.601 3.478.987 5.16 1.11 1.688.124 3.602.183 5.735.183 8.52 0 15.368-1.969 20.587-5.934 5.176-3.923 7.772-9.562 7.772-16.822-.108-4.024-.994-7.517-2.618-10.447-1.623-2.946-3.886-5.328-6.761-7.056 4.257 1.884 8.18 4.282 11.744 7.223 3.564 2.967 6.643 6.347 9.197 10.19a48.802 48.802 0 0 1 6.02 12.507c1.435 4.512 2.171 9.277 2.171 14.294zm-38.91 23.727c2.886 0 5.143.692 6.75 2.066 1.64 1.379 2.451 3.192 2.451 5.44 0 2.657-1.214 4.84-3.655 6.6-2.445 1.76-7.24 2.64-14.388 2.64-6.257 0-10.61-.923-13.05-2.73-2.436-1.825-3.65-3.934-3.65-6.3 0-1.76.52-3.482 1.585-5.189 1.059-1.69 3.112-2.527 6.117-2.527h17.84zm-29.321-67.587c-2.741 2.007-4.88 4.46-6.38 7.352-1.51 2.892-2.252 6.208-2.252 9.974 0 4.4 1 8.162 3.01 11.28 2 3.154 4.638 5.665 7.885 7.549l.381.182c-1.01.606-2.128 1.481-3.38 2.538a48.412 48.412 0 0 0-3.768 3.584 19.958 19.958 0 0 0-3.096 4.325 10.562 10.562 0 0 0-1.237 4.98c0 2.64.86 5.075 2.564 7.345 1.666 2.264 4.338 3.756 7.971 4.529-1.886.354-3.751.864-5.633 1.497a21.492 21.492 0 0 0-5.09 2.452 12.356 12.356 0 0 0-3.66 3.761c-.94 1.497-1.403 3.316-1.403 5.447v.75c-4.257-4.372-7.638-9.432-10.143-15.136-2.515-5.704-3.762-11.912-3.762-18.55 0-4.893.688-9.572 2.075-14.025 1.376-4.427 3.305-8.558 5.826-12.31a52.299 52.299 0 0 1 8.837-10.172c3.364-3.01 7.127-5.441 11.255-7.352z" fill="#005689"/></g></svg>
