<svg width="620" height="186.5" viewBox="73.5 206.8 653.1 186.5"><path fill="#FFF" d="M100.5 211.4h202v129.2h-202z"/><path fill="#DDD" d="M299.5 206.8H104c-6.8 0-6.8 6.8-6.8 6.8V344c0 7 7 7 7 7h195.3c7 0 7-7 7-7V213.6c0-6.8-7-6.8-7-6.8zm-.2 131.2H104V215.8h195.3V338z"/><path fill="#DDD" d="M73.5 346.8v4.5c5 3 14 3.4 14 3.4H316c9.5-.2 14-3.4 14-3.4v-4.5H73.5z"/><path fill="#BDBDBD" d="M104 215.8h195.3v6H104z"/><path fill="#F1F1F1" d="M161.3 217H242v3.5h-80.7z"/><g opacity=".5"><path fill="#D84A37" d="M108.3 237.4h15.4v4h-15.4z"/><path fill="#EBEBEB" d="M104 221.8h195.3v7.8H104z"/><path fill="#FFF" stroke="#BDBDBD" stroke-miterlimit="10" d="M131.5 224h80v3.7h-80z"/><path fill="#4683EB" d="M211.4 223.8h8v4h-8z"/><path fill="#197DAB" d="M107 222.6h7.3v6.4H107z"/><path fill="#FFF" d="M104 229.6h195.3V338H104z"/><path fill="#EBEBEB" d="M131.5 236.4h164V338h-164z"/><path fill="#D84A37" d="M104 242.7h.5v3.8h-.5z"/><path fill="#4683EB" d="M131.5 236.4h.5v5h-.5z"/><path fill="#FFF" d="M212.6 224.7h5.8v2h-5.8zM111.5 238.6h9v1.7h-9z"/><path fill="#DFDFDF" stroke="#BDBDBD" stroke-miterlimit="10" d="M131.5 231h9.7v4h-9.7z"/><path fill="#767676" d="M133.2 232.2h6.3v1.7h-6.3z"/><path fill="#DFDFDF" stroke="#BDBDBD" stroke-miterlimit="10" d="M125.3 279.7h3.8v3.7h-3.7z"/><path fill="#767676" d="M126 280.7h2.5v1.5H126z"/><path fill="#DFDFDF" stroke="#BDBDBD" stroke-miterlimit="10" d="M143.3 231h9.7v4h-9.7z"/><path fill="#767676" d="M145 232.2h6.3v1.7H145z"/><path fill="#DFDFDF" stroke="#BDBDBD" stroke-miterlimit="10" d="M155.4 231h9.7v4h-9.6z"/><path fill="#767676" d="M157 232.2h6.4v1.7H157z"/><path fill="#DFDFDF" stroke="#BDBDBD" stroke-miterlimit="10" d="M285.6 231h9.7v4h-9.7z"/><path fill="#767676" d="M287.3 232.2h6.3v1.7h-6.3z"/><path fill="#DFDFDF" stroke="#BDBDBD" stroke-miterlimit="10" d="M273.5 231h9.7v4h-9.7z"/><path fill="#767676" d="M275.2 232.2h6.3v1.7h-6.3z"/><path fill="#DFDFDF" stroke="#BDBDBD" stroke-miterlimit="10" d="M262 231h4.8v4h-5z"/><path fill="#767676" d="M263 232.2h2.7v1.7H263z"/><path fill="#DFDFDF" stroke="#BDBDBD" stroke-miterlimit="10" d="M266.7 231h5v4h-5z"/><path fill="#767676" d="M267.7 232.2h2.8v1.7h-2.8zM250.3 232.2h10.5v1.7h-10.5z"/><path fill="#BDBDBD" d="M265.5 224.7h6v2h-6z"/><path fill="#767676" d="M273.5 224.4h3v2.7h-3zM285.6 224.4h3v2.7h-3z"/><circle fill="#767676" cx="281" cy="225.8" r="1.4"/><circle fill="#FCDD03" cx="293.2" cy="225.8" r="2.2"/><circle fill="#4BC6DF" cx="110.1" cy="281.5" r="1.8"/><path fill="#BDBDBD" d="M108.3 243.5h6v2.2h-6zM108.3 247.2h6v2.2h-6zM108.3 251.2h8.5v2.2h-8.5zM108.3 255h7.5v2h-7.5zM108.3 258.7h9.7v2.2h-9.7zM108.3 262.5h5.8v2.2h-5.7zM108.3 266.3h5.8v2.2h-5.7zM108.3 270.6H124v2.2h-15.7zM108.3 274.4h14v2.2h-14z"/><path fill="#D84A37" d="M108.3 231.6h7.3v3h-7.3z"/><path fill="#767676" d="M144 238h14.8v1.8h-15z"/><path fill="none" stroke="#767676" stroke-miterlimit="10" d="M133 238.2h1.7v1.7H133zM136.2 238.2h1.8v1.7h-1.8z"/><path fill="#CEB41D" d="M139.7 238.2h1.8v1.7h-1.8z"/><path fill="#767676" d="M169.6 238h19v1.8h-19zM288.3 238h4.4v1.8h-4.4z"/><path fill="#BDBDBD" d="M190 238h70v1.8h-70z"/><path fill="#DFDFDF" d="M131.5 241.4h164v.3h-164z"/><path fill="#767676" d="M144 243.5h18.7v1.8H144z"/><path fill="none" stroke="#767676" stroke-miterlimit="10" d="M133 243.7h1.7v1.7H133zM136.2 243.7h1.8v1.7h-1.8z"/><path fill="#CEB41D" d="M139.7 243.7h1.8v1.7h-1.8z"/><path fill="#767676" d="M169.6 243.5H209v1.8h-39.4zM288.3 243.5h4.4v1.8h-4.4z"/><path fill="#BDBDBD" d="M210.3 243.5h73.4v1.8h-73.4z"/><path fill="#DFDFDF" d="M131.5 247h164v.2h-164z"/><path fill="#767676" d="M144 248.6h18.7v1.8H144z"/><path fill="none" stroke="#767676" stroke-miterlimit="10" d="M133 248.8h1.7v1.7H133zM136.2 248.8h1.8v1.7h-1.8z"/><path fill="#CEB41D" d="M139.7 248.8h1.8v1.7h-1.8z"/><path fill="#767676" d="M169.6 248.6H201v1.8h-31.4zM288.3 248.6h4.4v1.8h-4.4z"/><path fill="#BDBDBD" d="M202.2 248.6h81.4v1.8h-81.4z"/><path fill="#DFDFDF" d="M131.5 252h164v.3h-164z"/><path fill="#767676" d="M144 254.5h14.8v1.8h-15z"/><path fill="none" stroke="#767676" stroke-miterlimit="10" d="M133 254.7h1.7v1.7H133zM136.2 254.7h1.8v1.7h-1.8z"/><path fill="#CEB41D" d="M139.7 254.7h1.8v1.7h-1.8z"/><path fill="#767676" d="M169.6 254.5h49v1.8h-49zM288.3 254.5h4.4v1.8h-4.4z"/><path fill="#BDBDBD" d="M219.6 254.5h40.6v1.8h-40.6z"/><path fill="#DFDFDF" d="M131.5 258h164v.2h-164z"/><path fill="#767676" d="M144 259.8h14.8v1.8h-15z"/><path fill="none" stroke="#767676" stroke-miterlimit="10" d="M133 260h1.7v1.7H133zM136.2 260h1.8v1.7h-1.8z"/><path fill="#CEB41D" d="M139.7 260h1.8v1.7h-1.8z"/><path fill="#767676" d="M169.6 259.8h10.2v1.8h-10.2zM288.3 259.8h4.4v1.8h-4.4z"/><path fill="#BDBDBD" d="M181.3 259.8h98.4v1.8h-98.4z"/><path fill="#DFDFDF" d="M131.5 263.2h164v.3h-164z"/><path fill="#767676" d="M144 265.4h18.7v1.8H144z"/><path fill="none" stroke="#767676" stroke-miterlimit="10" d="M133 265.6h1.7v1.7H133zM136.2 265.6h1.8v1.7h-1.8z"/><path fill="#CEB41D" d="M139.7 265.6h1.8v1.7h-1.8z"/><path fill="#767676" d="M169.6 265.4H199v1.8h-29.4zM288.3 265.4h4.4v1.8h-4.4z"/><path fill="#BDBDBD" d="M200.4 265.4h79.2v1.8h-79.2z"/><path fill="#DFDFDF" d="M131.5 269h164v.2h-164z"/><path fill="#767676" d="M144 270.8h20.8v1.8h-21z"/><path fill="none" stroke="#767676" stroke-miterlimit="10" d="M133 271h1.7v1.7H133zM136.2 271h1.8v1.7h-1.8z"/><path fill="#CEB41D" d="M139.7 271h1.8v1.7h-1.8z"/><path fill="#767676" d="M169.6 270.8h42.6v1.8h-42.6zM288.3 270.8h4.4v1.8h-4.4z"/><path fill="#BDBDBD" d="M213.4 270.8h72.2v1.8h-72.2z"/><path fill="#DFDFDF" d="M131.5 274.2h164v.3h-164z"/><path fill="#767676" d="M144 276h14.8v2h-15zM112.7 280.6h7.3v1.8h-7.3z"/><circle fill="#AAD8F1" cx="110.1" cy="287.4" r="1.8"/><path fill="#767676" d="M112.7 285.6h9.3v1.4h-9.3z"/><path fill="#BDBDBD" d="M112.7 288h8.6v1.5h-8.6z"/><circle fill="#AAD8F1" cx="110.1" cy="292.9" r="1.8"/><path fill="#767676" d="M112.7 291h9.3v1.5h-9.3z"/><path fill="#BDBDBD" d="M112.7 293.6h8.6v1.4h-8.6z"/><circle fill="#AAD8F1" cx="110.1" cy="298.4" r="1.8"/><path fill="#767676" d="M112.7 296.6h9.3v1.4h-9.3z"/><path fill="#BDBDBD" d="M112.7 299h8.6v1.5h-8.6z"/><circle fill="#AAD8F1" cx="110.1" cy="303.7" r="1.8"/><path fill="#767676" d="M112.7 302h9.3v1.3h-9.3z"/><path fill="#BDBDBD" d="M112.7 304.4h8.6v1.4h-8.6z"/><circle fill="#AAD8F1" cx="110.1" cy="309.3" r="1.8"/><path fill="#767676" d="M112.7 307.5h9.3v1.4h-9.3z"/><path fill="#BDBDBD" d="M112.7 310h8.6v1.4h-8.6z"/><circle fill="#AAD8F1" cx="110.1" cy="314.5" r="1.8"/><path fill="#767676" d="M112.7 312.7h9.3v1.4h-9.3z"/><path fill="#BDBDBD" d="M112.7 315.2h8.6v1.4h-8.6z"/><circle fill="#AAD8F1" cx="110.1" cy="320.1" r="1.8"/><path fill="#767676" d="M112.7 318.3h9.3v1.4h-9.3z"/><path fill="#BDBDBD" d="M112.7 320.7h8.6v1.4h-8.6z"/><circle fill="#AAD8F1" cx="110.1" cy="325.5" r="1.8"/><path fill="#767676" d="M112.7 323.7h9.3v1.4h-9.3z"/><path fill="#BDBDBD" d="M112.7 326h8.6v1.5h-8.6z"/><circle fill="#AAD8F1" cx="110.1" cy="330.9" r="1.8"/><path fill="#767676" d="M112.7 329.2h9.3v1.4h-9.3z"/><path fill="#BDBDBD" d="M112.7 331.6h8.6v1.4h-8.6z"/><circle fill="#AAD8F1" cx="110.1" cy="336.5" r="1.8"/><path fill="#767676" d="M112.7 334.7h9.3v1.4h-9.3z"/><path fill="#BDBDBD" d="M112.7 337h8.6v1.5h-8.6z"/><path fill="none" stroke="#767676" stroke-miterlimit="10" d="M133 276.2h1.7v1.7H133zM136.2 276.2h1.8v1.7h-1.8z"/><path fill="#CEB41D" d="M139.7 276.2h1.8v1.7h-1.8z"/><path fill="#767676" d="M169.6 276H208v2h-38.4zM288.3 276h4.4v2h-4.4z"/><path fill="#BDBDBD" d="M209.4 276h50.8v2h-50.8z"/><path fill="#DFDFDF" d="M131.5 279.5h164v.3h-164z"/><path fill="#767676" d="M144 281.7h14.8v1.8h-15z"/><path fill="none" stroke="#767676" stroke-miterlimit="10" d="M133 282h1.7v1.6H133zM136.2 282h1.8v1.6h-1.8z"/><path fill="#CEB41D" d="M139.7 282h1.8v1.6h-1.8z"/><path fill="#767676" d="M169.6 281.7H199v1.8h-29.4zM288.3 281.7h4.4v1.8h-4.4z"/><path fill="#BDBDBD" d="M200.4 281.7H260v1.8h-59.6z"/><path fill="#DFDFDF" d="M131.5 285h164v.4h-164z"/><path fill="#767676" d="M144 287h20.8v1.8h-21z"/><path fill="none" stroke="#767676" stroke-miterlimit="10" d="M133 287h1.7v1.8H133zM136.2 287h1.8v1.8h-1.8z"/><path fill="#CEB41D" d="M139.7 287h1.8v1.8h-1.8z"/><path fill="#767676" d="M169.6 287H208v1.8h-38.4zM288.3 287h4.4v1.8h-4.4z"/><path fill="#BDBDBD" d="M209.4 287h50.8v1.8h-50.8z"/><path fill="#DFDFDF" d="M131.5 290.4h164v.3h-164z"/><path fill="#767676" d="M144 292.5h20.8v1.8h-21z"/><path fill="none" stroke="#767676" stroke-miterlimit="10" d="M133 292.7h1.7v1.7H133zM136.2 292.7h1.8v1.7h-1.8z"/><path fill="#CEB41D" d="M139.7 292.7h1.8v1.7h-1.8z"/><path fill="#767676" d="M169.6 292.5H201v1.8h-31.4zM288.3 292.5h4.4v1.8h-4.4z"/><path fill="#BDBDBD" d="M202.2 292.5h58v1.8h-58z"/><path fill="#DFDFDF" d="M131.5 296h164v.2h-164z"/><path fill="#767676" d="M144 298h14.8v1.7h-15z"/><path fill="none" stroke="#767676" stroke-miterlimit="10" d="M133 298h1.7v1.8H133zM136.2 298h1.8v1.8h-1.8z"/><path fill="#CEB41D" d="M139.7 298h1.8v1.8h-1.8z"/><path fill="#767676" d="M169.6 298H209v1.7h-39.4zM288.3 298h4.4v1.7h-4.4z"/><path fill="#BDBDBD" d="M210.3 298h50v1.7h-50z"/><path fill="#DFDFDF" d="M131.5 301.3h164v.3h-164z"/><path fill="#767676" d="M144 303.3h14.8v1.8h-15z"/><path fill="none" stroke="#767676" stroke-miterlimit="10" d="M133 303.5h1.7v1.7H133zM136.2 303.5h1.8v1.7h-1.8z"/><path fill="#CEB41D" d="M139.7 303.5h1.8v1.7h-1.8z"/><path fill="#767676" d="M169.6 303.3H199v1.8h-29.4zM288.3 303.3h4.4v1.8h-4.4z"/><path fill="#BDBDBD" d="M200.4 303.3h76v1.8h-76z"/><path fill="#DFDFDF" d="M131.5 306.7h164v.3h-164z"/><path fill="#767676" d="M144 308.8h14.8v1.8h-15z"/><path fill="none" stroke="#767676" stroke-miterlimit="10" d="M133 309h1.7v1.7H133zM136.2 309h1.8v1.7h-1.8z"/><path fill="#CEB41D" d="M139.7 309h1.8v1.7h-1.8z"/><path fill="#767676" d="M169.6 308.8H199v1.8h-29.4zM288.3 308.8h4.4v1.8h-4.4z"/><path fill="#BDBDBD" d="M200.4 308.8h64v1.8h-64z"/><path fill="#DFDFDF" d="M131.5 312.2h164v.3h-164z"/><path fill="#767676" d="M144 314.2h14.8v1.8h-15z"/><path fill="none" stroke="#767676" stroke-miterlimit="10" d="M133 314.3h1.7v1.7H133zM136.2 314.3h1.8v1.7h-1.8z"/><path fill="#CEB41D" d="M139.7 314.3h1.8v1.7h-1.8z"/><path fill="#767676" d="M169.6 314.2h42.6v1.8h-42.6zM288.3 314.2h4.4v1.8h-4.4z"/><path fill="#BDBDBD" d="M213.4 314.2h52v1.8h-52z"/><path fill="#DFDFDF" d="M131.5 317.6h164v.3h-164z"/><path fill="#767676" d="M144 319.6h14.8v1.8h-15z"/><path fill="none" stroke="#767676" stroke-miterlimit="10" d="M133 319.7h1.7v1.7H133zM136.2 319.7h1.8v1.7h-1.8z"/><path fill="#CEB41D" d="M139.7 319.7h1.8v1.7h-1.8z"/><path fill="#767676" d="M169.6 319.6h10.2v1.8h-10.2zM288.3 319.6h4.4v1.8h-4.4z"/><path fill="#BDBDBD" d="M181.3 319.6h91.3v1.8h-91.3z"/><path fill="#DFDFDF" d="M131.5 323h164v.3h-164z"/><path fill="#767676" d="M144 329.6h14.8v1.8h-15z"/><path fill="none" stroke="#767676" stroke-miterlimit="10" d="M133 329.8h1.7v1.7H133zM136.2 329.8h1.8v1.7h-1.8z"/><path fill="#CEB41D" d="M139.7 329.8h1.8v1.7h-1.8z"/><path fill="#767676" d="M169.6 329.6h10.2v1.8h-10.2zM288.3 329.6h4.4v1.8h-4.4z"/><path fill="#BDBDBD" d="M181.3 329.6h91.3v1.8h-91.3z"/><path fill="#DFDFDF" d="M131.5 333h164v.3h-164z"/><path fill="#767676" d="M144 334.7h14.8v1.8h-15z"/><path fill="none" stroke="#767676" stroke-miterlimit="10" d="M133 335h1.7v1.6H133zM136.2 335h1.8v1.6h-1.8z"/><path fill="#CEB41D" d="M139.7 335h1.8v1.6h-1.8z"/><path fill="#767676" d="M169.6 334.7h10.2v1.8h-10.2zM288.3 334.7h4.4v1.8h-4.4z"/><path fill="#BDBDBD" d="M181.3 334.7h91.3v1.8h-91.3z"/><path fill="#DFDFDF" d="M131.5 328h164v.4h-164z"/><path fill="#767676" d="M144 325h14.8v1.7h-15z"/><path fill="none" stroke="#767676" stroke-miterlimit="10" d="M133 325h1.7v1.8H133zM136.2 325h1.8v1.8h-1.8z"/><path fill="#CEB41D" d="M139.7 325h1.8v1.8h-1.8z"/><path fill="#767676" d="M169.6 325H199v1.7h-29.4zM288.3 325h4.4v1.7h-4.4z"/><path fill="#BDBDBD" d="M200.4 325h79.2v1.7h-79.2z"/></g><g><path fill="#FFF" d="M252 218.8h43.7v9.6H252z"/><path fill="#005689" d="M252 218.8h9.7v9.6H252z"/><path fill="none" d="M263.8 220.4h19v1.4h-19z"/><text transform="translate(263.753 221.621)" fill="#333" font-family="'ArialMT'" font-size="1.7">The Guardian</text><path fill="none" d="M263.8 222.6H293v2.7h-29.2z"/><text transform="translate(263.753 223.592)" fill="#333" font-family="'ArialMT'" font-size="1.4">Obama plan for trade deals with Asia and</text><text transform="translate(263.753 225.268)" fill="#333" font-family="'ArialMT'" font-size="1.4">Europe in tatters after Senate vote</text><path fill="none" d="M263.8 226h11.4v1h-11.4z"/><text transform="translate(263.753 227.016)" fill="#BDBDBD" font-family="'ArialMT'" font-size="1.4">theguardian.com</text><path fill="#767676" d="M294.6 220.7l-.8-.7h.2l.7.6z"/><path fill="#767676" d="M294.8 220l-.7.7.6-.8z"/><path fill="#FFF" d="M255.7 221c-.2 0-.4.2-.5.4v1.4l.6.4-.2.2-.2.2-.2.3v.7l.6.3h-.4l-.3.2s0 .2-.2.3v.3c-.3-.2-.5-.5-.7-1v-1-1l.4-.8c0-.2.3-.4.5-.6 0-.2.4-.4.7-.5zm1.8 4.2c.2 0 .3 0 .5.2v.7c-.3.3-.6.3-1 .3s-.7 0-1-.2v-.3-.3l.4-.2h1zm2.5-1.5c0 .5 0 1-.3 1.2 0 .3-.3.6-.6 1 .2-.3.2-.5.2-.8 0-.4 0-.7-.3-1l-1-.2h-1.7-.2v-.3-.2H257c.5 0 1 0 1.2-.4.4-.2.5-.5.5-1v-.6l-.6-.5c.4 0 .7.2 1 .4 0 .2.3.4.5.6 0 .3.3.5.4.8v1zm-2.5-1.7v.5c0 .2 0 .3-.2.3h-.2v.2h-.3l-.2-.2v-.3-.5-.5-.3h.7v.3c.2.2.2.3.2.5z"/></g><g><path fill="#FFF" d="M227 283.4h499.6v110H227z"/><path fill="#005689" d="M227 283.4h112v110H227z"/><path fill="none" d="M361.5 301.4h217v15.8h-217z"/><text transform="translate(361.519 315.618)" fill="#333" font-family="'ArialMT'" font-size="19.9">The Guardian</text><path fill="none" d="M361.5 326.7h332.8V358H361.5z"/><text transform="translate(361.519 338.088)" fill="#333" font-family="'ArialMT'" font-size="15.9">Obama plan for trade deals with Asia and</text><text transform="translate(361.519 357.185)" fill="#333" font-family="'ArialMT'" font-size="15.9">Europe in tatters after Senate vote</text><path fill="none" d="M361.5 365.7h130.3v12.5H361.5z"/><text transform="translate(361.519 377.127)" fill="#BDBDBD" font-family="'ArialMT'" font-size="15.9">theguardian.com</text><path fill="#767676" d="M713 305.7l-8.5-8.4 1.5-1.5 8.4 8.4z"/><path fill="#767676" d="M714.4 297.3l-8.4 8.4-1.5-1.5 8.4-8.4z"/><path fill="#FFF" d="M269.2 307.7c-2 1.5-3.6 3.3-4.7 5.4-1 2.2-1.6 4.6-1.6 7.3 0 3.2.6 6 2 8.3 1.5 2.2 3.4 4 5.8 5.4l.3.2c-.7.4-1.5 1-2.4 1.8-1 .8-1.8 1.7-2.7 2.6-1 1-1.8 2-2.4 3.2-.6 1-1 2.3-1 3.6 0 2 .8 3.7 2 5.4 1.2 1.6 3 2.7 5.8 3.3-1.4.3-2.7.7-4 1.2-1.5.4-2.7 1-3.8 1.7-1 .7-2 1.6-2.7 2.7-.8 1-1 2.4-1 4v.5c-3.2-3.2-5.7-7-7.5-11-1.8-4.2-2.7-8.7-2.7-13.5 0-3.6.5-7 1.5-10.2 1-3.3 2.4-6.3 4.2-9 2-2.8 4-5.2 6.5-7.4 2.4-2 5-4 8.2-5.3zm21.3 49.2c2 0 3.7.4 5 1.4 1 1 1.7 2.4 1.7 4 0 2-1 3.5-2.7 4.8-1.8 1.3-5.3 2-10.5 2-4.5 0-7.7-.7-9.4-2-1.8-1.4-2.7-3-2.7-4.6 0-1.3.3-2.6 1-3.8.8-1.2 2.3-2 4.5-2h13zm28.3-17.3c0 5-1 9.5-3 13.7-1.8 4.3-4.4 8-7.6 11.2 1.3-2.4 2-5.2 2-8.4 0-4.7-1.4-8.2-4-10.4-2.6-2.2-6.5-3.3-12-3.3h-17c-1 0-1.8-.3-2.5-1-.7-.6-1-1.3-1-2 0-.8.2-1.4.6-2 .4-.7 1-1.2 1.5-1.7 1.3.5 2.6.8 3.8.8l4.2.2c6.2 0 11.2-1.5 15-4.3 3.7-3 5.6-7 5.6-12.3 0-3-.7-5.5-2-7.6-1-2.2-2.7-4-4.8-5.2 3 1.4 6 3.2 8.5 5.3 2.7 2.2 5 4.6 6.8 7.4 2 3 3.3 6 4.4 9.2 1 3.3 1.6 6.8 1.6 10.5zM290 320.3c0 2.4 0 4.3-.4 5.7-.4 1.4-.8 2.5-1.4 3.2-.6.8-1.3 1.2-2 1.4l-2.5.3c-.8 0-1.6-.2-2.4-.4-.8-.2-1.5-.6-2-1.4-.7-.7-1.2-1.7-1.5-3-.3-1.5-.4-3.4-.4-6 0-2.3 0-4.3.4-5.8.3-1.4.8-2.6 1.4-3.3.6-.7 1.3-1.2 2-1.4 1-.3 1.7-.4 2.5-.4 1 0 1.8.2 2.6.4.7.3 1.4.8 2 1.6.5.8 1 2 1.3 3.4.3 1.4.5 3.4.5 5.7z"/></g></svg>
