<svg width="296" height="100.7" viewBox="0 19.6 296 100.7"><path fill="#FFF" d="M20.6 31.9h135.7V110H20.6V31.9z"/><path fill="#EAEAEA" d="M20.6 23.7h135.7v8.2H20.6v-8.2zm15.9 11.8h118.2v77.2H36.5V35.5z"/><path fill="#BCBCBC" d="M96.1 26.3v3.1H39.6v-3.1h56.5m.5-.5H39.1v4.1h57.6l-.1-4.1z"/><path fill="#4082F7" d="M96.6 25.8h6.2v4.1h-6.2v-4.1z"/><path fill="#D74934" d="M24.7 34h4.1v2h-4.1v-2z"/><path fill="#DFDFDF" stroke="#BCBCBC" stroke-miterlimit="10" d="M39.1 34h8.2v2h-8.2v-2zm10.2 0h8.2v2h-8.2v-2zm10.3 0h8.2v2h-8.2v-2z"/><path fill="#DFDFDF" d="M138 34.2h3.6v1.5H138v-1.5z"/><path fill="#BCBCBC" d="M141.3 34.5v1h-3.1v-1h3.1m.5-.5h-4.1v2h4.1v-2z"/><path fill="#DFDFDF" d="M142.1 34.2h3.6v1.5h-3.6v-1.5z"/><path fill="#BCBCBC" d="M145.4 34.5v1h-3.1v-1h3.1m.5-.5h-4.1v2h4.1v-2z"/><path fill="#DFDFDF" d="M148.3 34.2h3.6v1.5h-3.6v-1.5z"/><path fill="#BCBCBC" d="M151.6 34.5v1h-3.1v-1h3.1m.5-.5H148v2h4.1v-2z"/><path fill="#D74934" d="M24.7 38.1H35v4.1H24.7v-4.1z"/><path fill="#BCBCBC" d="M24.7 44.3h6.2v2.1h-6.2v-2.1zm0 4.1h6.2v2.1h-6.2v-2.1zm0 4.1h6.2v2.1h-6.2v-2.1zm0 4.1h6.2v2.1h-6.2v-2.1zm0 4.1h6.2v2.1h-6.2v-2.1zm0 4.1h6.2v2.1h-6.2v-2.1zm0 4.1h6.2V71h-6.2v-2.1zm0 4.1h6.2v2.1h-6.2V73zm4.1 10.3H35v2.1h-6.2v-2.1zm-4.1-4.1h6.2v2.1h-6.2v-2.1z"/><path fill="#AAD8F2" d="M18.4 79.1h12.4v12.4H18.4V79.1z"/><path fill="#BCBCBC" d="M28.8 89.5H35v2.1h-6.2v-2.1z"/><path fill="#AAD8F2" d="M18.4 85.3h12.4v12.4H18.4V85.3z"/><path fill="#BCBCBC" d="M28.8 95.6H35v2.1h-6.2v-2.1z"/><path fill="#AAD8F2" d="M18.4 91.5h12.4v12.4H18.4V91.5z"/><path fill="#BCBCBC" d="M28.8 101.8H35v2.1h-6.2v-2.1z"/><path fill="#AAD8F2" d="M18.4 97.6h12.4V110H18.4V97.6z"/><path fill="none" stroke="#D74934" stroke-width="2" stroke-miterlimit="10" d="M22.6 44.3v2.1"/><path fill="#757575" d="M42.7 40.7v1h-1v-1h1m.5-.6h-2.1v2.1h2.1v-2.1z"/><path fill="#CDB21B" d="M45.2 40.1h2.1v2.1h-2.1v-2.1z"/><path fill="#757575" d="M49.3 40.1h10.3v2.1H49.3v-2.1zm16.5 0h12.3v2.1H65.8v-2.1z"/><path fill="#BCBCBC" d="M80.2 40.1h41.1v2.1H80.2v-2.1z"/><path fill="#757575" d="M145.9 40.1h4.1v2.1h-4.1v-2.1zM42.7 44.8v1h-1v-1h1m.5-.5h-2.1v2.1h2.1v-2.1z"/><path fill="#CDB21B" d="M45.2 44.3h2.1v2.1h-2.1v-2.1z"/><path fill="#757575" d="M49.3 44.3h10.3v2.1H49.3v-2.1zm16.5 0h12.3v2.1H65.8v-2.1z"/><path fill="#BCBCBC" d="M80.2 44.3h53.4v2.1H80.2v-2.1z"/><path fill="#757575" d="M145.9 44.3h4.1v2.1h-4.1v-2.1zM42.7 48.9v1h-1v-1h1m.5-.5h-2.1v2.1h2.1v-2.1z"/><path fill="#CDB21B" d="M45.2 48.4h2.1v2.1h-2.1v-2.1z"/><path fill="#757575" d="M49.3 48.4h10.3v2.1H49.3v-2.1zm16.5 0h12.3v2.1H65.8v-2.1z"/><path fill="#BCBCBC" d="M80.2 48.4h41.1v2.1H80.2v-2.1z"/><path fill="#757575" d="M145.9 48.4h4.1v2.1h-4.1v-2.1zM42.7 53v1h-1v-1h1m.5-.5h-2.1v2.1h2.1v-2.1z"/><path fill="#CDB21B" d="M45.2 52.5h2.1v2.1h-2.1v-2.1z"/><path fill="#757575" d="M49.3 52.5h10.3v2.1H49.3v-2.1zm16.5 0h12.3v2.1H65.8v-2.1z"/><path fill="#BCBCBC" d="M80.2 52.5h57.6v2.1H80.2v-2.1z"/><path fill="#757575" d="M145.9 52.5h4.1v2.1h-4.1v-2.1zM42.7 57.1v1h-1v-1h1m.5-.5h-2.1v2.1h2.1v-2.1z"/><path fill="#CDB21B" d="M45.2 56.6h2.1v2.1h-2.1v-2.1z"/><path fill="#757575" d="M49.3 56.6h10.3v2.1H49.3v-2.1zm16.5 0h12.3v2.1H65.8v-2.1z"/><path fill="#BCBCBC" d="M80.2 56.6h41.1v2.1H80.2v-2.1z"/><path fill="#757575" d="M145.9 56.6h4.1v2.1h-4.1v-2.1zM42.7 61.2v1h-1v-1h1m.5-.5h-2.1v2.1h2.1v-2.1z"/><path fill="#CDB21B" d="M45.2 60.7h2.1v2.1h-2.1v-2.1z"/><path fill="#757575" d="M49.3 60.7h10.3v2.1H49.3v-2.1zm16.5 0h12.3v2.1H65.8v-2.1z"/><path fill="#BCBCBC" d="M80.2 60.7h51.4v2.1H80.2v-2.1z"/><path fill="#757575" d="M145.9 60.7h4.1v2.1h-4.1v-2.1z"/><path fill="#FFF" d="M121.3 25.8h30.8V32h-30.8v-6.2z"/><path fill="#025589" d="M121.3 25.8h6.2V32h-6.2v-6.2z"/><path fill="#333" d="M129.5 26.3h6.2v1h-6.2v-1zm0 1.8h16.4v.5h-16.4v-.5zm0 1.3h16.4v.5h-16.4v-.5z"/><path fill="#BCBCBC" d="M129.5 30.6h6.2v.5h-6.2v-.5z"/><path fill="#DCDCDC" d="M160.3 114.1V23.7c0-2.3-1.8-4.1-4.1-4.1H20.6c-2.3 0-4.1 1.8-4.1 4.1v90.4H0v4.1c3.4 2.2 10.3 2.1 10.3 2.1h156.2c6.6-.1 10.3-2.1 10.3-2.1v-4.1h-16.5zm-4.1-4.1H20.6V23.7h135.7V110h-.1z"/><path fill="#757575" d="M34.4 79.7v1h-1v-1h1m.5-.5h-2.1v2.1h2.1v-2.1z"/><path fill="#FFF" d="M96.6 64.8H296v55.5H96.6V64.8z"/><path fill="#025589" d="M41.1 64.8h55.5v55.5H41.1V64.8z"/><path fill="#FFF" d="M61.1 75c-2.1 1.5-3.3 3.8-3.3 6.6 0 3.3 1.7 5.6 4.2 7.2l.1.1c-1.4 1-4.4 3.3-4.4 5.9 0 2 1.3 3.9 4.1 4.5-2.9.6-6.1 1.9-6.1 5.1v.3c-3.2-3.3-5.3-7.8-5.3-12.9 0-7.5 4.5-13.8 10.7-16.8zM76 103.9c0 2-1.5 3.5-6.9 3.5-4.8 0-6.4-1.6-6.4-3.4 0-1.3.6-3 2.9-3h6.8c2.3-.1 3.6 1.1 3.6 2.9zm5.8 1.1c.7-1.4 1-2.9 1-4.4 0-5-2.7-7.2-8.4-7.2h-9.1c-1 0-1.8-.8-1.8-1.7 0-.6.5-1.3 1.2-1.8 1.3.5 2.5.5 4.2.5 6.5 0 11-3.2 10.9-8.7-.1-3.1-1.4-5.4-3.6-6.7 6.5 2.8 11.2 9.3 11.2 17 0 5-2.2 9.7-5.6 13zm-9.6-23.3c0 5-1.5 5.6-3.3 5.6-1.8 0-3.3-.4-3.3-5.6 0-5.2 1.5-5.9 3.3-5.9 1.9 0 3.3.8 3.3 5.9z"/><text transform="translate(108.944 91.51)" fill="#333" font-size="8">Obama plan for trade deals with Asia and</text><text transform="translate(108.944 100.76)" fill="#333" font-size="8">Europe in tatters after Senate vote</text><text transform="translate(108.944 79.175)" fill="#333" font-size="10">The Guardian</text><text transform="translate(108.944 112.09)" fill="#BCBCBC" font-size="7">theguardian.com</text></svg>