<?xml version="1.0" standalone="no"?> <!DOCTYPE svg PUBLIC "-//W3C//DTD SVG 1.0//EN" "http://www.w3.org/TR/2001/REC-SVG-20010904/DTD/svg10.dtd" > <svg xmlns="http://www.w3.org/2000/svg" width="100%" height="100%">
<defs >
<font id="GuardianTextEgyptianWeb-BoldItalic" horiz-adv-x="586" ><font-face
    font-family="GuardianTextEgyptianWeb"
    units-per-em="1000"
    panose-1="2 6 8 3 5 5 3 13 8 3"
    ascent="783"
    descent="-217"
    alphabetic="0" />
<missing-glyph horiz-adv-x="500" />
<glyph unicode=" " glyph-name="space" horiz-adv-x="212" />
<glyph unicode="!" glyph-name="exclam" horiz-adv-x="272" d="M123 721H299L166 226H70L123 721ZM94 -12Q75 -12 60 -5T33 13T15 40T9 71Q9 90 16 106T35 135T64 154T100 161Q138 161 161 136T184 79Q184 60 177 44T158 15T130 -5T94 -12Z" />
<glyph unicode="&quot;" glyph-name="quotedbl" horiz-adv-x="464" d="M330 721H487L416 461H306L330 721ZM121 721H278L207 461H96L121 721Z" />
<glyph unicode="#" glyph-name="numbersign" horiz-adv-x="554" d="M93 518H189L227 670H311L274 518H383L421 670H506L468 518H543L521 390H437L412 291H496L474 163H381L341 0H256L296 163H186L147 0H62L102 163H26L49 291H133L158 390H72L93 518ZM216 284H325L353
397H244L216 284Z" />
<glyph unicode="$" glyph-name="dollar" horiz-adv-x="600" d="M142 100Q152 93 164 87T194 76L252 283L225 296Q158 327 124 367T89 473Q89 524 108 563T162 629T242 669T342 683H359L382 768H459L433 674Q501 660 539 629T578 553Q578 530 569 513T546 483H448V575Q440
580 430 584T406 593L354 407L382 395Q417 379 444 361T490 321T519 272T529 211Q529 156 509 114T453 44T367 2T256 -12H242L207 -143H130L168 -3Q88 12 48 50T7 127Q7 153 17 170T40 199H142V100ZM378 169Q378 199 363 218T312 255L261 70Q316 72 347 99T378
169ZM233 511Q233 486 247 469T294 435L341 601H338Q293 601 263 580T233 511Z" />
<glyph unicode="%" glyph-name="percent" horiz-adv-x="900" d="M220 294Q185 294 155 304T103 335T68 386T55 457Q55 506 71 546T116 614T182 658T261 674Q295 674 325 664T376 634T410 584T423 514Q423 465 407 425T364 355T299 310T220 294ZM684 682H775L221
-36H130L684 682ZM222 360Q243 360 258 376T283 419T298 479T303 545Q303 574 292 590T257 607Q236 607 222 592T197 551T183 493T178 428Q178 396 187 378T222 360ZM656 -11Q621 -11 591 -1T539 30T505 81T492 152Q492 201 508 241T553 309T619 353T697 369Q731
369 761 359T813 329T847 279T860 209Q860 160 844 120T800 50T735 5T656 -11ZM658 56Q679 56 694 72T719 115T734 175T739 241Q739 270 728 286T693 303Q673 303 658 287T633 246T619 188T614 123Q614 91 623 74T658 56Z" />
<glyph unicode="&amp;" glyph-name="ampersand" horiz-adv-x="746" d="M675 320Q655 278 629 235T568 152L611 90L677 71L665 0H474L444 44Q401 18 354 3T254 -12Q193 -12 147 3T71 44T25 106T9 183Q9 227 22 261T61 322T122 369T203 407Q183 441 173 471T163
530Q163 576 180 614T229 678T303 719T397 734Q445 734 481 722T542 688T579 638T591 579Q591 542 577 514T537 463T477 424T401 392L521 220Q537 243 549 269T572 321L523 338L535 407H750L738 338L675 320ZM305 89Q356 89 400 110L241 348H240Q205 321 194 286T182
209Q182 185 190 163T213 125T252 99T305 89ZM322 556Q322 526 333 501T363 448Q390 461 408 476T436 507T450 543T454 584Q454 617 440 634T399 652Q367 652 345 628T322 556Z" />
<glyph unicode="&apos;" glyph-name="quotesingle" horiz-adv-x="248" d="M121 721H278L207 461H96L121 721Z" />
<glyph unicode="(" glyph-name="parenleft" horiz-adv-x="360" d="M219 -146Q184 -112 151 -72T91 15T49 118T33 239Q33 337 63 419T143 567T255 686T380 776L419 730Q365 682 322 627T249 506T202 365T185 197Q185 103 208 31T272 -106L219 -146V-146Z" />
<glyph unicode=")" glyph-name="parenright" horiz-adv-x="360" d="M148 775Q183 741 216 701T276 614T318 511T334 390Q334 292 304 210T224 62T113 -57T-12 -147L-52 -101Q2 -53 45 2T119 123T166 264T183 432Q183 526 159 598T95 735L148 775V775Z" />
<glyph unicode="*" glyph-name="asterisk" horiz-adv-x="453" d="M253 520L118 418L81 513L242 545L94 595L161 684L260 567L242 721H356L288 565L421 667L459 572L298 540L446 489L378 400L280 518L298 364H184L253 520Z" />
<glyph unicode="+" glyph-name="plus" horiz-adv-x="600" d="M59 370H256V579H354V370H551V279H354V70H256V279H59V370Z" />
<glyph unicode="," glyph-name="comma" horiz-adv-x="306" d="M-43 -123Q25 -93 61 -60T112 21Q107 19 100 17T85 15Q55 15 37 36T19 88Q19 128 48 152T118 177Q162 177 187 147T213 67Q213 36 201 1T161 -67T87 -128T-26 -172L-43 -123V-123Z" />
<glyph unicode="-" glyph-name="hyphen" horiz-adv-x="373" d="M57 357H339L317 235H35L57 357Z" />
<glyph unicode="." glyph-name="period" horiz-adv-x="306" d="M112 -14Q91 -14 74 -7T45 14T26 43T19 77Q19 122 47 149T119 177Q161 177 186 150T211 85Q211 43 183 15T112 -14Z" />
<glyph unicode="/" glyph-name="slash" horiz-adv-x="386" d="M345 762H442L28 -125H-69L345 762Z" />
<glyph unicode="0" glyph-name="zero" horiz-adv-x="600" d="M264 -11Q154 -11 90 57T25 252Q25 332 50 401T118 521T217 601T337 630Q450 630 511 561T573 364Q573 302 554 236T497 115T400 25T264 -11ZM264 75Q297 75 323 107T367 190T394 302T404 421Q404 484
388 513T333 543Q300 543 274 511T230 430T203 320T193 201Q193 137 209 106T264 75Z" />
<glyph unicode="1" glyph-name="one" horiz-adv-x="600" d="M47 69L183 87L249 462L108 447L121 520L372 624H452L357 87L485 69L472 0H34L47 69Z" />
<glyph unicode="2" glyph-name="two" horiz-adv-x="600" d="M21 92L199 223Q287 287 323 340T360 449Q360 542 274 542Q240 542 215 531V424H113Q100 437 90 454T79 496Q79 522 93 546T137 588T211 618T315 629Q370 629 412 615T483 577T526 521T541 451Q541 409
525 373T476 303T393 236T273 166L188 120V117H504L473 0H4L21 92Z" />
<glyph unicode="3" glyph-name="three" horiz-adv-x="600" d="M219 -113Q174 -113 138 -107T75 -90T27 -68T-7 -45L6 31Q34 18 74 3T170 -12Q239 -12 279 22T319 121Q319 170 289 196T199 222H149L165 310H227Q264 310 289 320T331 349T354 391T361 442Q361 493
337 518T268 543Q252 543 238 540T212 531V435H113Q100 447 90 460T80 498Q80 524 94 548T137 590T207 618T302 629Q357 629 399 616T469 579T511 523T526 453Q526 375 480 328T354 266V262Q420 248 459 210T498 108Q498 55 478 14T422 -55T334 -98T219 -113Z"
/>
<glyph unicode="4" glyph-name="four" horiz-adv-x="600" d="M281 76H-14L1 160L402 617H550L471 171H557L540 76H454L422 -106H249L281 76ZM298 171L344 438H340L114 174V171H298Z" />
<glyph unicode="5" glyph-name="five" horiz-adv-x="600" d="M218 -114Q172 -114 138 -109T78 -94T34 -74T0 -52L13 24Q43 10 79 -1T172 -13Q241 -13 281 23T321 128Q321 187 286 217T176 248Q156 248 132 245T82 236L167 617H553L520 487H235L198 324Q216 332
242 336T292 340Q343 340 382 325T447 284T488 220T502 138Q502 80 482 34T425 -46T336 -96T218 -114Z" />
<glyph unicode="6" glyph-name="six" horiz-adv-x="600" d="M276 -13Q210 -13 165 8T92 66T52 149T39 250Q39 328 54 392T93 505Q123 568 161 611T243 682T330 721T417 733Q452 733 479 729T527 718T565 700T597 677L583 597Q562 607 528 617T450 627Q420 627
388 618T326 584T270 515T228 401Q260 425 296 436T368 448Q415 448 450 433T508 392T542 332T554 257Q554 196 534 147T476 62T388 7T276 -13ZM274 74Q298 74 318 88T353 127T376 188T385 265Q385 313 365 336T300 359Q280 359 259 354T217 336Q210 310 205 270T199
193Q199 135 214 105T274 74Z" />
<glyph unicode="7" glyph-name="seven" horiz-adv-x="600" d="M466 487V492H190L154 416H63L107 617H591L573 517L250 -104H59L466 487Z" />
<glyph unicode="8" glyph-name="eight" horiz-adv-x="600" d="M287 -13Q219 -13 169 1T85 41T35 101T18 174Q18 212 31 241T67 293T123 332T195 358V362Q144 391 121 433T98 527Q98 572 116 609T168 674T246 717T346 732Q406 732 450 718T524 680T568 625T583
558Q583 522 570 495T535 449T483 416T419 393V388Q480 358 515 314T551 201Q551 150 531 110T476 43T393 1T287 -13ZM276 74Q328 74 359 103T391 183Q391 228 354 259T248 321Q203 301 178 267T153 183Q153 138 182 106T276 74ZM363 430Q400 450 423 477T447 555Q447
596 423 620T354 644Q314 644 285 619T255 548Q255 508 281 482T363 430Z" />
<glyph unicode="9" glyph-name="nine" horiz-adv-x="600" d="M191 -117Q116 -117 73 -101T0 -61L14 19Q36 9 71 -1T150 -12Q182 -12 215 -4T279 29T333 98T373 214Q341 191 304 180T232 169Q185 169 150 184T92 224T58 284T47 359Q47 420 68 469T125 554T212 609T321
629Q384 629 429 608T503 551T546 466T560 362Q560 270 541 195T491 68Q464 18 430 -17T357 -74T276 -107T191 -117ZM302 258Q321 258 342 263T383 280Q390 306 395 345T401 421Q401 478 384 510T322 542Q299 542 279 528T245 490T223 430T215 353Q215 304 236
281T302 258Z" />
<glyph unicode=":" glyph-name="colon" horiz-adv-x="316" d="M169 288Q148 288 131 295T102 315T83 344T76 378Q76 423 105 451T176 479Q218 479 243 452T268 387Q268 345 240 317T169 288ZM117 -14Q96 -14 79 -7T50 14T31 43T24 77Q24 122 52 149T124 177Q166
177 191 150T216 85Q216 43 188 15T117 -14Z" />
<glyph unicode=";" glyph-name="semicolon" horiz-adv-x="315" d="M169 288Q148 288 131 295T102 315T83 344T76 378Q76 423 105 451T176 479Q218 479 243 452T268 387Q268 345 240 317T169 288ZM-40 -123Q28 -93 64 -60T115 21Q110 19 103 17T88 15Q58 15 40
36T22 88Q22 128 51 152T121 177Q165 177 190 147T216 67Q216 36 204 1T164 -67T90 -128T-23 -172L-40 -123Z" />
<glyph unicode="&lt;" glyph-name="less" horiz-adv-x="600" d="M66 269V359L509 553V451L178 314L509 176V74L66 269Z" />
<glyph unicode="=" glyph-name="equal" horiz-adv-x="600" d="M56 432H541V342H56V432ZM56 230H541V140H56V230Z" />
<glyph unicode="&gt;" glyph-name="greater" horiz-adv-x="600" d="M97 176L429 313L97 451V553L540 358V268L97 74V176Z" />
<glyph unicode="?" glyph-name="question" horiz-adv-x="469" d="M238 644Q227 645 219 645T202 643L174 563H77L96 710Q131 720 173 726T256 733Q360 733 421 691T482 567Q482 526 471 497T440 444T390 401T322 361Q298 347 278 336T242 313T219 285T210 250Q210
245 210 239T212 225H131Q127 235 124 249T120 280Q120 302 125 321T142 357T173 391T219 427Q238 440 255 454T285 484T305 521T313 568Q313 605 293 623T238 644ZM150 -12Q112 -12 89 13T66 71Q66 109 92 135T156 161Q194 161 217 136T240 79Q240 60 233 44T214
15T186 -5T150 -12Z" />
<glyph unicode="@" glyph-name="at" horiz-adv-x="953" d="M470 -161Q373 -161 296 -134T164 -57T81 66T52 230Q52 327 86 413T181 565T328 668T517 707Q602 707 672 682T794 609T873 493T901 339Q901 265 879 210T819 117T734 62T637 43Q582 43 555 62T516 114H511Q482
84 450 68T379 52Q326 52 293 90T260 197Q260 262 279 316T330 408T405 468T499 490Q541 490 565 480T609 456L633 481H714L642 177Q635 148 641 135T670 122Q693 122 720 133T769 170T807 236T822 336Q822 479 744 558T516 637Q429 637 359 606T239 519T162 391T135
233Q135 73 222 -9T474 -91Q508 -91 541 -88T604 -80T659 -68T704 -55V-117Q658 -137 599 -149T470 -161ZM444 143Q464 143 477 152T505 174L553 381Q548 395 538 406T506 417Q486 417 467 401T434 356T411 290T402 208Q402 175 411 159T444 143Z" />
<glyph unicode="A" glyph-name="A" horiz-adv-x="727" d="M417 212H201L141 90L210 72L198 0H-43L-31 72L31 90L360 721H523L619 90L676 72L664 0H344L357 72L432 90L417 212ZM238 288H408L394 413Q390 441 388 473T384 531Q382 562 381 592H376Q365 564 354 534Q343
508 330 478T303 420L238 288Z" />
<glyph unicode="B" glyph-name="B" horiz-adv-x="670" d="M-15 72L64 90L160 632L89 649L101 721H423Q532 721 589 679T647 560Q647 524 639 494T610 441T556 401T472 375V370Q552 361 590 323T629 224Q629 114 553 57T326 0H-27L-15 72ZM315 87Q378 87 412 120T447
230Q447 329 352 329H285L242 87H315ZM356 408Q413 408 443 443T473 551Q473 600 450 617T385 634H338L298 408H356Z" />
<glyph unicode="C" glyph-name="C" horiz-adv-x="664" d="M357 -12Q207 -12 122 61T36 287Q36 389 67 471T154 612T283 701T442 733Q520 733 573 720T662 690L646 506H544L526 611Q511 619 488 626T431 634Q378 634 338 606T271 528T231 407T217 251Q217 167 251
127T357 87Q383 87 405 93T443 107L497 217H601L558 25Q518 8 466 -2T357 -12Z" />
<glyph unicode="D" glyph-name="D" horiz-adv-x="732" d="M-15 72L63 90L159 632L88 649L100 721H407Q480 721 538 704T636 651T698 562T720 436Q720 337 692 257T612 119T487 31T322 0H-28L-15 72ZM321 92Q427 92 482 190T537 472Q537 518 527 548T498 596T451
621T387 628H339L244 92H321Z" />
<glyph unicode="E" glyph-name="E" horiz-adv-x="646" d="M-15 72L63 90L159 632L88 649L100 721H650L636 523H550L527 632H334L295 410H381L411 487H487L453 249H377L370 327H280L238 89H455L518 222H609L565 0H-28L-15 72Z" />
<glyph unicode="F" glyph-name="F" horiz-adv-x="638" d="M-15 72L63 90L159 632L88 649L100 721H660L645 514H553L531 628H339L297 394H387L418 472H492L454 230H380L374 309H282L243 89L324 72L311 0H-27L-15 72Z" />
<glyph unicode="G" glyph-name="G" horiz-adv-x="717" d="M356 -13Q270 -13 210 8T111 67T54 160T36 281Q36 390 70 474T163 616T296 703T453 733Q536 733 593 720T683 690L670 513H570L545 611Q528 622 505 628T444 635Q390 635 348 608T276 531T231 411T215
256Q215 172 251 129T367 85Q384 85 402 88T434 98L462 256L392 272L405 344H706L693 272L631 256L591 22Q570 14 541 8T479 -3T414 -10T356 -13Z" />
<glyph unicode="H" glyph-name="H" horiz-adv-x="784" d="M-15 72L63 90L159 632L88 649L100 721H421L409 649L340 632L302 412H527L565 632L501 649L513 721H834L821 649L745 632L649 90L719 72L707 0H386L398 72L469 88L511 326H286L244 88L307 72L294 0H-27L-15 72Z" />
<glyph unicode="I" glyph-name="I" horiz-adv-x="372" d="M-18 72L59 90L155 632L85 649L97 721H425L413 649L335 632L239 90L310 72L298 0H-30L-18 72Z" />
<glyph unicode="J" glyph-name="J" horiz-adv-x="517" d="M153 -8Q106 -8 74 2T21 28T-9 65T-19 107Q-19 129 -11 145T9 175H118V88Q123 86 128 86T140 86Q179 86 201 113T234 208L309 632L238 649L251 721H573L561 649L490 632L414 202Q396 98 329 45T153 -8Z" />
<glyph unicode="K" glyph-name="K" horiz-adv-x="733" d="M-16 72L62 90L158 632L87 649L99 721H420L408 649L338 633L289 358L568 632L506 649L519 721H778L765 649L702 631L479 419L622 89L681 72L669 0H470L342 304L272 257L242 88L305 72L293 0H-28L-16 72Z" />
<glyph unicode="L" glyph-name="L" horiz-adv-x="613" d="M-15 72L62 90L158 632L87 649L99 721H435L422 649L339 633L244 91H419L486 246H581L534 0H-28L-15 72Z" />
<glyph unicode="M" glyph-name="M" horiz-adv-x="939" d="M-14 72L63 90L159 632L88 649L100 721H396L423 483Q427 442 429 391T431 292Q431 237 430 182H434Q452 235 471 288Q488 333 507 383T547 475L661 721H988L976 649L895 632L799 90L874 72L861 0H551L563
72L626 89L675 367Q682 405 691 452T710 542Q721 590 732 640H727Q706 591 685 543Q667 501 646 455T608 371L445 26H322L279 365Q274 403 271 449T265 538Q262 586 260 636H255Q250 588 244 540Q239 499 233 452T219 367L170 89L227 72L215 0H-27L-14 72Z" />
<glyph unicode="N" glyph-name="N" horiz-adv-x="755" d="M-15 72L64 90L160 632L88 649L100 721H358L483 416Q496 384 507 350T526 286Q536 252 543 220H548L621 631L548 649L560 721H811L799 649L730 632L616 0H472L319 373Q306 405 296 439T278 502Q269 535
262 568H258L173 89L246 72L234 0H-27L-15 72Z" />
<glyph unicode="O" glyph-name="O" horiz-adv-x="723" d="M331 -11Q262 -11 208 10T115 70T56 164T36 289Q36 396 68 478T154 617T275 703T411 733Q481 733 536 712T630 652T689 558T710 433Q710 325 679 242T594 103T473 18T331 -11ZM337 84Q384 84 420 117T480
205T516 332T529 481Q529 562 499 600T408 638Q362 638 326 605T266 517T228 390T215 241Q215 161 244 123T337 84Z" />
<glyph unicode="P" glyph-name="P" horiz-adv-x="637" d="M-16 72L62 90L158 632L87 649L99 721H412Q475 721 521 707T597 668T641 607T656 530Q656 465 637 418T583 340T498 294T387 279Q349 279 324 282T278 292L242 89L327 72L314 0H-28L-16 72ZM293 371Q307
369 324 367T360 365Q478 365 478 530Q478 578 458 602T394 627H338L293 371Z" />
<glyph unicode="Q" glyph-name="Q" horiz-adv-x="723" d="M260 -7Q212 7 171 29T100 86T53 171T36 290Q36 397 68 479T154 618T274 704T411 733Q481 733 536 712T630 652T689 557T710 432Q710 341 688 273T627 158T537 83T427 44V39L699 4L668 -132L260 -7ZM337
84Q384 84 420 117T480 205T516 332T529 481Q529 562 499 600T408 638Q362 638 326 605T266 517T228 390T215 241Q215 161 244 123T337 84Z" />
<glyph unicode="R" glyph-name="R" horiz-adv-x="707" d="M-16 72L64 90L160 630L89 649L102 721H424Q488 721 534 707T611 669T657 610T672 534Q672 487 658 454T621 397T568 359T507 336V332L611 87L658 72L645 0H459L343 299H282L244 88L304 72L291 0H-28L-16
72ZM371 384Q407 384 430 395T468 427T489 476T495 538Q495 629 400 629H337L294 384H371Z" />
<glyph unicode="S" glyph-name="S" horiz-adv-x="570" d="M239 -12Q153 -12 95 2T-5 40L15 201H116L130 110Q147 98 170 90T231 81Q287 81 320 106T354 182Q354 199 350 213T334 240T306 266T261 293L217 316Q153 351 118 395T82 508Q82 560 101 602T155 673T240
717T350 733Q393 733 425 730T483 720T528 706T564 690L550 545H448L435 616Q423 624 403 633T344 642Q297 642 269 620T240 552Q240 537 244 525T257 500T283 476T325 450L369 427Q405 407 433 388T481 347T511 299T522 238Q522 120 450 54T239 -12Z" />
<glyph unicode="T" glyph-name="T" horiz-adv-x="665" d="M122 72L205 90L301 632H205L154 497H54L101 721H708L683 497H584L575 632H481L385 90L461 72L449 0H109L122 72Z" />
<glyph unicode="U" glyph-name="U" horiz-adv-x="727" d="M358 -13Q281 -13 228 3T140 47T91 114T76 197Q76 211 77 225T81 255L147 632L80 649L93 721H413L401 649L328 633L261 252Q258 236 257 223T256 196Q256 139 285 114T378 88Q406 88 430 94T473 116T507
160T530 233L600 632L533 649L545 721H785L772 649L705 632L632 219Q612 110 546 49T358 -13Z" />
<glyph unicode="V" glyph-name="V" horiz-adv-x="711" d="M128 632L75 649L87 721H398L386 649L312 632L342 388Q347 351 349 307T354 223Q356 177 357 130H362Q381 176 400 222Q417 261 435 304T470 383L587 632L519 649L532 721H775L763 649L702 632L388 0H226L128
632Z" />
<glyph unicode="W" glyph-name="W" horiz-adv-x="1010" d="M127 632L78 649L90 721H383L371 649L304 632L311 456Q314 393 313 321T309 154H314Q333 206 352 259Q369 304 388 355T426 450L541 721H673L695 467Q698 430 699 377T703 274Q704 216 705 153H710Q731
214 750 272Q758 297 767 323T785 374T802 422T818 463L885 632L820 649L832 721H1071L1058 649L997 632L743 0H571L555 248Q552 284 552 323T551 398T553 465T555 520H550Q534 473 517 426Q503 386 486 340T451 254L341 0H166L127 632Z" />
<glyph unicode="X" glyph-name="X" horiz-adv-x="730" d="M-15 72L48 88L270 364L153 632L96 649L108 721H419L407 649L348 634L423 438H427L570 634L512 649L524 721H766L754 649L694 632L486 365L607 90L665 72L653 0H344L357 72L417 87L333 296H329L172 88L227
72L215 0H-27L-15 72Z" />
<glyph unicode="Y" glyph-name="Y" horiz-adv-x="676" d="M137 72L219 90L255 293L127 632L76 649L88 721H381L369 649L309 633L391 384H395L558 634L502 649L514 721H739L727 649L670 632L433 291L398 90L471 72L459 0H125L137 72Z" />
<glyph unicode="Z" glyph-name="Z" horiz-adv-x="598" d="M-14 89L427 626V631H236L177 508H80L122 721H647L632 631L192 95V90H401L464 226H563L517 0H-30L-14 89Z" />
<glyph unicode="[" glyph-name="bracketleft" horiz-adv-x="380" d="M144 762H421L409 690L285 672L159 -36L277 -53L265 -125H-12L144 762Z" />
<glyph unicode="\" glyph-name="backslash" horiz-adv-x="386" d="M108 762H199L308 -125H217L108 762Z" />
<glyph unicode="]" glyph-name="bracketright" horiz-adv-x="379" d="M-21 -53L104 -36L229 672L111 690L123 762H400L244 -125H-33L-21 -53Z" />
<glyph unicode="^" glyph-name="asciicircum" horiz-adv-x="475" d="M260 721H360L468 453H386L291 588L147 453H62L260 721Z" />
<glyph unicode="_" glyph-name="underscore" horiz-adv-x="353" d="M-64 -56H294L277 -151H-81L-64 -56Z" />
<glyph unicode="`" glyph-name="grave" horiz-adv-x="500" d="M173 697L235 816L454 674L424 616L173 697Z" />
<glyph unicode="a" glyph-name="a" horiz-adv-x="620" d="M493 90Q512 92 528 96T558 104Q573 108 586 113L566 35Q538 16 498 3T417 -10Q377 -10 356 11T332 74Q332 76 332 78T333 83H329Q288 38 247 13T152 -12Q119 -12 93 0T50 34T23 85T14 149Q14 230 40 302T109
429T208 516T326 548Q363 548 387 540T428 514H434L449 550H580L591 545L493 90ZM235 100Q260 100 287 118T348 171L400 418Q389 437 376 449T335 461Q306 461 279 437T230 374T195 282T182 174Q182 100 235 100Z" />
<glyph unicode="b" glyph-name="b" horiz-adv-x="602" d="M240 -13Q194 -13 159 -7T98 9T52 34T17 66L137 685L73 701L86 770L300 795L315 787L255 466H260Q298 511 341 537T435 563Q500 563 540 518T580 373Q580 299 559 230T495 106T388 20T240 -13ZM255 72Q294
72 322 99T370 169T398 264T408 367Q408 412 392 428T349 445Q319 445 293 428T242 388L187 106Q193 92 209 82T255 72Z" />
<glyph unicode="c" glyph-name="c" horiz-adv-x="490" d="M221 -12Q128 -12 73 41T18 197Q18 274 43 341T113 457T220 534T356 562Q432 562 466 535T500 463Q500 440 488 416T464 379H368V478Q362 480 357 480T344 481Q309 481 281 458T233 397T201 310T190 209Q190
147 214 121T289 95Q324 95 357 104T431 135L410 52Q382 29 335 9T221 -12Z" />
<glyph unicode="d" glyph-name="d" horiz-adv-x="630" d="M511 91Q528 93 544 97T574 105Q589 109 601 113L581 35Q553 16 516 3T440 -10Q393 -10 371 13T347 76H342Q313 41 270 15T166 -12Q97 -12 57 33T16 159Q16 244 43 318T114 446T215 531T335 562Q373 562
391 556T427 541L452 685L384 701L396 770L620 795L634 787L511 91ZM246 99Q278 99 304 114T358 159L409 441Q397 456 384 465T348 474Q316 474 287 450T235 386T199 291T186 178Q186 137 201 118T246 99Z" />
<glyph unicode="e" glyph-name="e" horiz-adv-x="522" d="M229 -12Q126 -12 72 42T18 198Q18 274 42 340T110 455T215 533T349 562Q430 562 479 528T528 433Q528 382 503 346T432 286T324 249T188 231Q188 229 188 221T187 209Q187 146 213 121T297 96Q332 96
370 105T449 135L429 52Q401 29 350 9T229 -12ZM333 480Q307 480 286 467T247 430T217 374T197 305Q281 312 327 339T374 426Q374 480 333 480Z" />
<glyph unicode="f" glyph-name="f" horiz-adv-x="380" d="M57 528L121 550Q135 617 162 663T226 738T308 780T405 793Q482 793 517 768T552 705Q552 688 543 671T523 641H426V714Q420 716 414 717T398 718Q377 718 361 710T331 683T307 631T287 550H402L386 464H272L199
39Q177 -84 113 -139T-42 -194Q-105 -194 -136 -169T-168 -108Q-168 -94 -162 -79T-143 -52H-65V-118Q-60 -119 -57 -119T-51 -119Q-32 -119 -18 -113T9 -89T30 -40T46 39L108 464H45L57 528Z" />
<glyph unicode="g" glyph-name="g" horiz-adv-x="543" d="M213 -222Q70 -222 4 -185T-63 -90Q-63 -63 -48 -43T-7 -6T48 21T109 41Q87 55 77 74T67 114Q67 147 87 177T140 232Q99 251 74 283T49 363Q49 409 67 445T118 508T194 548T287 562Q316 562 344 556T396
537L581 567L563 465L462 475V471Q494 437 494 391Q494 351 478 317T431 259T356 220T256 206Q242 206 228 207T201 211Q195 203 191 195T187 179Q187 165 206 156T253 138L327 117Q402 96 444 59T486 -38Q486 -77 471 -110T422 -169T337 -208T213 -222ZM251 -13Q245
-12 231 -8T201 1T174 10T162 14Q147 7 133 -1T107 -21T88 -45T81 -75Q81 -107 111 -124T208 -141Q273 -141 304 -123T336 -77Q336 -53 313 -39T251 -13ZM257 277Q299 277 321 319T343 424Q343 461 329 475T291 489Q249 489 226 448T203 344Q203 309 217 293T257
277Z" />
<glyph unicode="h" glyph-name="h" horiz-adv-x="641" d="M434 -10Q400 -10 378 8T355 68Q355 87 359 106L415 370Q420 397 415 416T384 436Q349 436 319 415T263 368L185 0H22L167 684L101 701L113 770L333 795L347 787L282 461H288Q326 503 373 532T482 562Q533
562 561 534T590 452Q590 427 584 397L519 90Q537 92 553 96T583 104Q598 108 611 113L591 35Q563 16 522 3T434 -10Z" />
<glyph unicode="i" glyph-name="i" horiz-adv-x="338" d="M211 90Q230 92 247 96T278 104Q294 108 308 113L288 35Q259 16 216 3T127 -10Q94 -10 71 8T47 68Q47 83 52 106L128 442Q109 439 92 435T60 427Q43 423 29 419L46 497Q61 510 82 521T128 542T177 556T223
562Q251 562 273 548T295 493Q295 485 294 476T291 457L211 90ZM233 622Q196 622 171 644T146 702Q146 742 172 765T236 789Q274 789 298 766T323 708Q323 668 297 645T233 622Z" />
<glyph unicode="j" glyph-name="j" horiz-adv-x="319" d="M-43 -216Q-75 -216 -99 -208T-141 -187T-167 -157T-176 -122Q-176 -107 -169 -93T-150 -68H-60V-141H-54Q-37 -141 -24 -137T-1 -120T17 -85T33 -28L129 442Q110 439 93 435T62 427Q46 423 31 419L48
497Q63 510 84 521T130 542T178 556T224 562Q237 562 250 559T273 548T290 527T296 493Q296 476 292 457L198 3Q185 -60 162 -102T108 -169T38 -205T-43 -216ZM236 622Q199 622 174 644T149 702Q149 742 175 765T239 789Q277 789 301 766T326 708Q326 668 300 645T236
622Z" />
<glyph unicode="k" glyph-name="k" horiz-adv-x="611" d="M163 684L97 701L109 770L330 795L343 787L247 310L274 313Q297 315 314 323T346 350T375 398T406 469Q428 523 460 542T531 562Q545 562 558 558T581 547T599 534T609 521L596 442H515Q494 404 468 368T407
311L490 90Q507 92 521 96T547 104Q559 108 570 113L551 35Q523 16 497 3T435 -10Q401 -10 378 6T338 55T308 133T279 239H233L185 0H22L163 684Z" />
<glyph unicode="l" glyph-name="l" horiz-adv-x="332" d="M199 90Q219 92 237 96T269 105Q286 109 300 115L280 37Q252 17 210 4T116 -10Q83 -10 60 8T37 69Q37 87 41 106L161 685L93 702L105 770L326 795L340 787L199 90Z" />
<glyph unicode="m" glyph-name="m" horiz-adv-x="936" d="M729 -10Q695 -10 673 8T650 68Q650 87 654 106L709 370Q714 396 710 416T679 436Q648 436 622 415T572 371L493 0H331L409 370Q414 395 410 415T379 436Q349 436 324 415T272 368L194 0H30L125 442Q107
439 90 435T59 427Q43 423 29 419L46 497Q61 510 81 521T124 542T171 556T216 562Q231 562 245 559T269 546T285 521T288 481Q288 478 286 468Q285 464 285 458H291Q332 503 374 532T477 562Q525 562 552 537T582 462H588Q629 504 673 533T776 562Q828 562 856
534T884 451Q884 427 878 397L813 90Q831 92 847 96T877 104Q892 108 906 113L886 35Q858 16 817 3T729 -10Z" />
<glyph unicode="n" glyph-name="n" horiz-adv-x="648" d="M526 90Q544 92 560 96T590 104Q605 108 618 113L598 35Q570 16 529 3T441 -10Q407 -10 385 8T362 68Q362 87 366 106L422 370Q425 383 425 395T423 416T412 430T391 436Q356 436 327 415T272 368L194
0H30L125 442Q106 439 90 435T59 427Q43 423 29 419L46 497Q61 510 81 521T124 542T171 556T216 562Q231 562 245 559T269 546T285 521T288 481Q288 477 286 467Q285 462 285 457H291Q334 502 380 532T489 562Q540 562 568 534T597 452Q597 427 591 397L526 90Z"
/>
<glyph unicode="o" glyph-name="o" d="M256 -13Q200 -13 156 4T81 53T34 126T18 219Q18 291 41 354T107 463T207 535T336 562Q390 562 433 544T506 494T553 420T569 330Q569 258 548 196T486 87T388 14T256 -13ZM265 74Q294 74 318 93T361 150T389 240T399 359Q399
413 381 444T321 476Q293 476 269 456T226 399T197 309T186 190Q186 134 204 104T265 74Z" />
<glyph unicode="p" glyph-name="p" horiz-adv-x="638" d="M-48 -153L17 -139L123 442Q105 439 88 435T57 427Q41 423 27 419L44 497Q59 510 79 521T123 542T171 556T216 562Q231 562 245 559T269 546T285 522T288 482Q288 480 288 478T287 471Q286 467 286 462H292Q324
503 367 533T463 563Q495 563 522 552T570 516T601 452T613 359Q613 290 594 224T535 105T436 22T296 -10Q264 -10 243 -5T208 7L184 -139L254 -153L243 -217H-59L-48 -153ZM296 74Q335 74 362 100T407 167T433 256T442 349Q442 403 425 424T381 446Q349 446 325
429T276 388L226 107Q236 93 252 84T296 74Z" />
<glyph unicode="q" glyph-name="q" horiz-adv-x="600" d="M217 -153L294 -137L337 69H331Q304 38 263 13T161 -12Q92 -12 54 31T15 151Q15 238 42 313T117 444T230 530T372 562Q410 562 440 559T496 548T544 529T591 501L455 -139L513 -153L499 -217H203L217 -153ZM242
99Q274 99 300 115T355 162L416 446Q407 459 391 466T354 474Q320 474 290 450T236 384T199 289T185 177Q185 99 242 99Z" />
<glyph unicode="r" glyph-name="r" horiz-adv-x="494" d="M361 381V442Q335 428 312 407T269 360L193 0H30L124 442Q106 439 89 435T58 427Q42 423 28 419L45 497Q60 510 80 521T124 542T170 556T215 562Q246 562 267 546T284 483Q284 481 284 477T282 467Q281
461 280 454H286Q324 511 362 536T436 562Q469 562 490 542T511 489Q511 457 497 428T466 381H361Z" />
<glyph unicode="s" glyph-name="s" horiz-adv-x="458" d="M178 -14Q128 -14 91 -4T28 22T-9 60T-21 106Q-21 123 -14 139T5 166H115V82Q128 76 143 72T177 68Q218 68 243 85T268 134Q268 162 250 176T194 210L160 227Q109 253 83 289T56 380Q56 420 71 453T114
511T184 548T278 562Q368 562 410 532T453 457Q453 443 446 426T428 395H321V472Q302 483 277 483Q239 483 217 468T195 422Q195 399 210 383T263 347L297 330Q351 303 383 267T416 173Q416 135 401 101T357 42T283 1T178 -14Z" />
<glyph unicode="t" glyph-name="t" horiz-adv-x="391" d="M201 89Q227 92 252 97T297 109Q320 116 340 124L320 45Q291 25 248 7T142 -11Q97 -11 70 11T43 82Q43 98 48 123L120 464H50L64 527L138 552L166 679H326L298 550H411L393 464H280L201 89Z" />
<glyph unicode="u" glyph-name="u" horiz-adv-x="636" d="M511 90Q529 92 546 96T576 104Q591 108 604 113L584 35Q556 16 516 3T433 -10Q389 -10 369 13T353 81L354 90H348Q327 67 306 49T263 17T216 -4T160 -12Q107 -12 79 17T50 102Q50 127 56 157L116 442Q98
438 81 435T50 427Q34 423 21 419L38 497Q53 510 73 521T115 542T160 556T205 562Q240 562 262 547T285 489Q285 480 284 469T280 446L224 180Q218 152 223 133T257 114Q291 114 315 132T368 179L446 550H610L511 90Z" />
<glyph unicode="v" glyph-name="v" horiz-adv-x="569" d="M156 0Q149 113 139 226T112 441Q94 438 78 434T49 427Q34 423 21 419L38 497Q51 509 67 520T102 541T141 556T181 562Q218 562 238 540T267 470Q275 422 279 368T284 248Q284 219 283 182T275 85H280Q303
122 326 162T368 236Q393 281 415 335T445 440H389L405 532Q419 545 441 554T485 563Q500 563 515 559T543 546T563 520T571 479Q571 438 550 382T490 263T400 132T287 0H156Z" />
<glyph unicode="w" glyph-name="w" horiz-adv-x="823" d="M128 0Q126 121 122 227T107 441Q89 438 74 434T47 427Q34 423 22 419L39 497Q65 520 100 541T175 562Q212 562 231 542T259 472Q264 436 265 388T267 279Q267 242 265 191T258 97H263Q276 139 292 186T322
273Q334 304 345 335T367 400T390 471T414 550H547Q559 484 565 403T573 234Q573 218 573 198T572 158T570 121T568 91H573Q589 127 607 166T640 241Q666 304 681 351T704 440H647L663 532Q677 545 697 554T739 563Q755 563 770 559T798 546T818 521T826 481Q826
444 806 388T752 266T676 131T590 0H446Q448 70 448 129T446 243Q445 281 445 321T448 412H443Q432 367 419 321T391 236Q368 178 340 121T274 0H128Z" />
<glyph unicode="x" glyph-name="x" horiz-adv-x="564" d="M476 444Q450 413 422 370T367 274L443 91Q480 97 504 105Q518 109 530 113L510 35Q482 16 455 3T386 -10Q364 -10 348 -4T318 15T293 51T269 108L235 205H233L189 126Q167 85 150 59T116 18T82 -3T43
-9Q27 -9 8 0T-23 23L0 116H81Q110 148 140 191T197 285L133 442Q115 439 98 435T67 427Q51 423 37 419L54 497Q83 523 120 542T189 562Q206 562 220 559T246 546T268 518T288 471L327 353H330L364 417Q387 463 406 492T442 536T476 557T513 563Q532 563 548 556T578
537L558 444H476V444Z" />
<glyph unicode="y" glyph-name="y" horiz-adv-x="571" d="M45 -217Q9 -217 -18 -206T-58 -183L-38 -101Q-22 -106 -7 -110T30 -114Q72 -114 106 -105T176 -66Q173 -7 167 60T153 195T136 326T117 441Q100 438 84 434T54 427Q39 423 26 419L43 497Q56 509 73 520T108
541T146 556T186 562Q223 562 244 541T273 471Q281 426 286 368T293 240Q294 225 294 204T292 158T290 108T285 60H290Q311 102 336 146T379 229Q405 289 422 340T448 440H390L407 532Q421 545 443 554T486 563Q502 563 517 559T545 546T566 522T574 483Q574 447
561 402T522 302T461 187T382 59Q335 -13 294 -65T213 -150T131 -200T45 -217Z" />
<glyph unicode="z" glyph-name="z" horiz-adv-x="516" d="M-20 58L341 412L154 418Q146 404 142 392T134 370Q130 359 129 349H67Q63 366 62 381T61 410Q61 477 91 518T177 560Q210 560 240 552T299 531T357 507T417 488L480 550H538V493L177 137L373 130Q381
145 385 159T394 185Q398 198 401 211H463Q466 194 467 179T468 149Q468 114 461 85T438 35T402 1T353 -11Q318 -11 287 -2T226 19T165 43T101 63L38 0H-20V58Z" />
<glyph unicode="{" glyph-name="braceleft" horiz-adv-x="425" d="M305 -125Q238 -118 193 -107T119 -78T79 -39T66 13Q66 41 77 71T103 130T128 185T140 231Q140 242 136 251T120 267T88 282T38 296L53 379Q88 382 111 388T150 402T172 422T181 446Q184 462 182
484T176 531T171 580T172 624Q178 657 195 682T247 724T334 751T462 762L450 691Q388 685 363 667T333 617Q330 602 329 580T326 533T324 486T320 448Q317 426 307 408T277 375T227 350T152 332V327Q221 307 249 281T278 219Q278 199 270 171T253 112T236 55T228
12Q228 -13 246 -28T318 -54L305 -125V-125Z" />
<glyph unicode="|" glyph-name="bar" horiz-adv-x="243" d="M79 762H172V-125H79V762Z" />
<glyph unicode="}" glyph-name="braceright" horiz-adv-x="425" d="M127 762Q194 756 239 744T313 715T354 676T367 625Q367 597 356 567T330 508T305 453T293 406Q293 385 313 370T395 342L380 258Q309 252 283 234T252 191Q249 175 251 153T257 106T261 57T260
14Q254 -19 237 -44T185 -87T99 -114T-30 -125L-18 -54Q44 -48 69 -30T100 21Q103 35 104 57T106 104T108 151T112 189Q119 233 156 262T281 305V310Q212 330 183 356T154 418Q154 438 162 466T179 525T197 582T205 625Q205 650 187 665T115 691L127 762V762Z"
/>
<glyph unicode="~" glyph-name="asciitilde" horiz-adv-x="470" d="M16 265Q48 331 86 367T172 404Q194 404 216 397T258 382T295 367T327 360Q347 360 363 372T398 411L463 373Q431 306 393 270T306 234Q283 234 262 241T221 256T184 272T153 279Q132 279 115
265T80 226L16 265Z" />
<glyph unicode="&#xa0;" glyph-name="uni00A0" horiz-adv-x="212" />
<glyph unicode="&#xa1;" glyph-name="exclamdown" horiz-adv-x="272" d="M150 -125H-26L107 370H203L150 -125ZM179 608Q198 608 213 601T240 583T258 556T264 525Q264 506 257 490T238 461T209 442T173 435Q135 435 112 460T89 517Q89 536 96 552T115 581T143
601T179 608Z" />
<glyph unicode="&#xa2;" glyph-name="cent" horiz-adv-x="600" d="M214 -7Q139 8 94 61T48 206Q48 278 72 341T141 451T247 528T383 561L408 649H487L460 557Q517 548 548 522T579 461Q579 438 567 416T543 380H461V470Q456 472 448 474T435 476L321 87H331Q372
87 418 101T506 135L485 52Q456 30 408 11T292 -11L250 -155H171L214 -7ZM209 217Q209 171 220 144T254 104L362 478Q329 470 301 447T252 389T221 310T209 217Z" />
<glyph unicode="&#xa3;" glyph-name="sterling" horiz-adv-x="600" d="M78 367H135L142 440Q148 503 173 549T237 624T324 667T426 681Q506 681 551 655T596 577Q596 555 588 538T567 507H458V592Q446 595 432 595Q405 595 384 587T347 559T319 508T300 429L290
367H465L452 288H277L273 264Q263 205 236 173T166 119V116H522L490 0H8L22 84Q60 102 87 134T121 231L127 288H64L78 367Z" />
<glyph unicode="&#xa5;" glyph-name="yen" horiz-adv-x="600" d="M367 159L354 87L428 70L416 0H93L105 70L185 87L197 159H29L40 222H208L220 291H53L64 354H204L117 584L70 601L81 670H364L353 601L296 588L355 385H358L485 588L434 601L445 670H651L640 601L586
584L425 354H569L558 291H391L378 222H546L535 159H367Z" />
<glyph unicode="&#xa6;" glyph-name="brokenbar" horiz-adv-x="243" d="M80 290H171V-125H80V290ZM80 762H171V386H80V762Z" />
<glyph unicode="&#xa7;" glyph-name="section" horiz-adv-x="562" d="M213 -137Q143 -137 96 -124T17 -94L30 30H127L137 -35Q148 -42 165 -49T215 -56Q259 -56 281 -37T303 16Q303 42 288 61T235 97L150 134Q89 160 60 196T31 281Q31 344 69 379T180 431Q153
454 141 483T128 547Q128 592 145 627T193 686T267 722T361 734Q427 734 469 722T541 694L529 575H433L423 634Q414 640 400 647T355 654Q317 654 293 636T268 580Q268 556 280 538T331 504L413 469Q475 443 504 407T534 318Q534 254 494 219T389 169Q418 144 431
114T445 51Q445 -33 388 -85T213 -137ZM281 373Q264 381 250 387T236 394Q208 386 190 369T171 324Q171 299 190 281T248 245Q271 235 289 227Q304 220 317 214T331 208Q357 216 374 233T392 280Q392 303 376 320T325 353L281 373Z" />
<glyph unicode="&#xa8;" glyph-name="dieresis" horiz-adv-x="500" d="M210 627Q177 627 156 649T134 703Q134 737 158 759T215 781Q249 781 270 760T291 707Q291 672 267 650T210 627ZM429 627Q395 627 374 649T352 703Q352 737 376 759T434 781Q467 781 488
760T509 707Q509 672 485 650T429 627Z" />
<glyph unicode="&#xa9;" glyph-name="copyright" horiz-adv-x="823" d="M422 -15Q344 -15 278 14T162 94T85 213T57 358Q57 435 85 502T162 620T277 699T422 728Q499 728 566 699T682 620T760 503T788 358Q788 281 760 213T683 95T566 15T422 -15ZM422 43Q488
43 542 68T636 136T696 236T718 358Q718 422 697 479T636 578T543 645T422 670Q356 670 301 646T207 579T147 479T125 358Q125 293 146 236T207 136T301 68T422 43ZM428 167Q388 167 354 178T295 213T256 272T242 358Q242 410 258 447T301 508T363 542T438 553Q474
553 505 549T554 537L558 434H492L474 486Q465 490 457 492T434 495Q392 495 379 462T365 368Q365 329 368 302T379 258T402 234T438 226Q452 226 461 228T477 234L497 293H562L556 188Q536 180 505 174T428 167Z" />
<glyph unicode="&#xaa;" glyph-name="ordfeminine" horiz-adv-x="566" d="M540 271Q515 254 479 242T406 230Q370 230 351 250T331 309H327Q290 269 254 248T169 227Q112 227 81 266T50 369Q50 443 72 507T131 620T218 695T322 723Q386 723 415 692H420L434 724H553L563
720L477 321Q493 323 507 327T533 334Q546 338 557 341L540 271ZM391 608Q381 625 367 634T328 644Q304 644 281 623T241 567T213 486T202 391Q202 327 243 327Q267 327 290 341T344 388L391 608Z" />
<glyph unicode="&#xab;" glyph-name="guillemotleft" horiz-adv-x="530" d="M247 242L255 287L431 501H539L384 252L444 24H345L247 242ZM24 249L32 294L208 501H316L161 259L221 24H121L24 249Z" />
<glyph unicode="&#xae;" glyph-name="registered" horiz-adv-x="631" d="M344 179Q285 179 234 201T146 260T87 349T65 457Q65 515 86 566T145 654T234 713T344 735Q403 735 454 714T543 655T602 566T624 457Q624 400 603 349T543 261T454 201T344 179ZM344 231Q392
231 432 247T502 294T548 365T564 457Q564 506 548 548T503 620T433 666T344 683Q295 683 255 667T186 620T141 548T125 457Q125 407 141 366T185 294T254 248T344 231ZM218 372L243 379V546L218 553V588H356Q410 588 437 568T465 514Q465 488 454 475T422 455V452L468
377L486 372V337H403L349 433H327V378L346 372V337H218V372ZM352 474Q369 474 375 483T382 509Q382 526 374 536T349 546H327V474H352Z" />
<glyph unicode="&#xaf;" glyph-name="macron" horiz-adv-x="500" d="M165 740H488L473 653H150L165 740Z" />
<glyph unicode="&#xb0;" glyph-name="degree" horiz-adv-x="444" d="M269 388Q231 388 199 402T143 439T106 494T92 560Q92 595 105 626T143 680T199 716T269 730Q307 730 339 717T394 680T431 626T445 560Q445 525 432 494T395 440T339 402T269 388ZM269 455Q314
455 338 486T363 560Q363 603 339 633T269 663Q224 663 199 633T174 560Q174 517 199 486T269 455Z" />
<glyph unicode="&#xb1;" glyph-name="plusminus" horiz-adv-x="600" d="M54 423H251V598H349V423H546V332H349V157H251V332H54V423ZM54 91H546V0H54V91Z" />
<glyph unicode="&#xb4;" glyph-name="acute" horiz-adv-x="500" d="M190 674L429 816L477 696L211 616L190 674Z" />
<glyph unicode="&#xb6;" glyph-name="paragraph" horiz-adv-x="622" d="M267 335Q258 332 239 332Q204 332 173 343T118 375T80 427T66 501Q66 609 131 665T328 721H676L663 649L593 632L453 -125H373L516 650H405L263 -125H183L267 335Z" />
<glyph unicode="&#xb7;" glyph-name="periodcentered" horiz-adv-x="306" d="M158 250Q137 250 120 257T91 278T72 307T65 341Q65 386 93 413T165 441Q207 441 232 414T257 349Q257 307 229 279T158 250Z" />
<glyph unicode="&#xb8;" glyph-name="cedilla" horiz-adv-x="500" d="M87 -190Q125 -189 150 -186T191 -177T212 -163T218 -144Q218 -131 203 -123T143 -109L167 0H233L219 -58Q281 -65 307 -84T333 -135Q333 -159 322 -179T281 -212T203 -233T79 -241L87 -190Z" />
<glyph unicode="&#xba;" glyph-name="ordmasculine" horiz-adv-x="534" d="M267 227Q218 227 179 243T112 286T70 352T55 434Q55 498 76 552T136 646T225 708T336 731Q384 731 422 715T488 670T529 604T544 524Q544 460 525 406T469 312T381 250T267 227ZM274
307Q324 307 357 370T391 552Q391 599 376 625T325 651Q301 651 279 635T241 587T216 509T206 405Q206 307 274 307Z" />
<glyph unicode="&#xbb;" glyph-name="guillemotright" horiz-adv-x="530" d="M276 283L268 238L92 24H-16L139 273L79 501H178L276 283ZM499 276L491 231L315 24H207L362 266L302 501H402L499 276Z" />
<glyph unicode="&#xbc;" glyph-name="onequarter" horiz-adv-x="925" d="M35 325L112 338L161 606L78 600L87 652L254 725H320L250 338L323 325L313 271H26L35 325ZM769 721H865L202 -71H106L769 721ZM644 1H439L450 61L726 343H832L783 70H847L834 1H770L751
-108H624L644 1ZM657 70L685 218H682L542 73V70H657Z" />
<glyph unicode="&#xbd;" glyph-name="onehalf" horiz-adv-x="970" d="M35 325L112 338L161 606L78 600L87 652L254 725H320L250 338L323 325L313 271H26L35 325ZM763 721H859L196 -71H100L763 721ZM538 -32L660 62Q686 82 707 100T743 136T766 175T774 220Q774
277 715 277Q693 277 678 272V195H594Q585 203 578 215T570 245Q570 266 582 285T618 318T673 341T744 349Q830 349 872 314T915 220Q915 188 901 162T862 112T802 68T725 23L658 -14V-17H881L858 -108H524L538 -32Z" />
<glyph unicode="&#xbe;" glyph-name="threequarters" horiz-adv-x="949" d="M190 264Q156 264 131 268T86 279T54 293T32 308L43 365Q60 357 88 349T154 340Q196 340 220 358T245 412Q245 467 179 467H132L143 530H178Q226 530 250 553T275 611Q275 662 217 662Q193
662 174 651V588H101Q92 596 85 606T77 633Q77 654 89 671T123 701T174 721T238 728Q319 728 360 698T402 617Q402 594 393 576T367 545T329 522T283 506V502Q330 494 358 471T386 405Q386 342 333 303T190 264ZM788 721H884L221 -71H125L788 721ZM668 1H463L474
61L750 343H856L807 70H871L858 1H794L775 -108H648L668 1ZM681 70L709 218H706L566 73V70H681Z" />
<glyph unicode="&#xbf;" glyph-name="questiondown" horiz-adv-x="469" d="M231 -49Q242 -50 250 -50T267 -48L295 32H392L373 -115Q338 -125 296 -131T213 -138Q109 -138 48 -96T-13 28Q-13 69 -2 98T29 151T79 194T147 234Q171 248 191 259T227 282T250 310T259
345Q259 350 259 356T257 370H338Q342 360 345 346T349 315Q349 293 344 274T327 238T296 204T250 168Q231 155 214 141T184 111T164 74T156 27Q156 -10 176 -28T231 -49ZM319 607Q357 607 380 582T403 524Q403 486 377 460T313 434Q275 434 252 459T229 516Q229
535 236 551T255 580T283 600T319 607Z" />
<glyph unicode="&#xc0;" glyph-name="Agrave" horiz-adv-x="727" d="M417 212H201L141 90L210 72L198 0H-43L-31 72L31 90L360 721H523L619 90L676 72L664 0H344L357 72L432 90L417 212ZM238 288H408L394 413Q390 441 388 473T384 531Q382 562 381 592H376Q365
564 354 534Q343 508 330 478T303 420L238 288ZM296 839L353 960L580 826L553 767L296 839Z" />
<glyph unicode="&#xc1;" glyph-name="Aacute" horiz-adv-x="727" d="M417 212H201L141 90L210 72L198 0H-43L-31 72L31 90L360 721H523L619 90L676 72L664 0H344L357 72L432 90L417 212ZM238 288H408L394 413Q390 441 388 473T384 531Q382 562 381 592H376Q365
564 354 534Q343 508 330 478T303 420L238 288ZM325 826L569 962L612 841L345 767L325 826Z" />
<glyph unicode="&#xc2;" glyph-name="Acircumflex" horiz-adv-x="727" d="M417 212H201L141 90L210 72L198 0H-43L-31 72L31 90L360 721H523L619 90L676 72L664 0H344L357 72L432 90L417 212ZM238 288H408L394 413Q390 441 388 473T384 531Q382 562 381 592H376Q365
564 354 534Q343 508 330 478T303 420L238 288ZM265 808L426 946H502L622 806L589 769L455 835L290 769L265 808Z" />
<glyph unicode="&#xc3;" glyph-name="Atilde" horiz-adv-x="727" d="M417 212H201L141 90L210 72L198 0H-43L-31 72L31 90L360 721H523L619 90L676 72L664 0H344L357 72L432 90L417 212ZM238 288H408L394 413Q390 441 388 473T384 531Q382 562 381 592H376Q365
564 354 534Q343 508 330 478T303 420L238 288ZM254 811Q281 864 313 897T387 930Q404 930 425 925T467 912T506 900T535 894Q552 894 566 905T595 937L648 904Q621 851 590 820T516 788Q499 788 478 793T437 805T398 816T367 822Q350 822 336 810T307 778L254
811Z" />
<glyph unicode="&#xc4;" glyph-name="Adieresis" horiz-adv-x="727" d="M331 778Q298 778 277 800T255 854Q255 888 279 910T336 933Q370 933 391 911T412 858Q412 823 388 801T331 778ZM565 778Q532 778 511 800T489 854Q489 888 513 910T570 933Q604 933 625
911T646 858Q646 823 622 801T565 778ZM417 212H201L141 90L210 72L198 0H-43L-31 72L31 90L360 721H523L619 90L676 72L664 0H344L357 72L432 90L417 212ZM238 288H408L394 413Q390 441 388 473T384 531Q382 562 381 592H376Q365 564 354 534Q343 508 330 478T303
420L238 288Z" />
<glyph unicode="&#xc5;" glyph-name="Aring" horiz-adv-x="727" d="M417 212H201L141 90L210 72L198 0H-43L-31 72L31 90L360 721H523L619 90L676 72L664 0H344L357 72L432 90L417 212ZM238 288H408L394 413Q390 441 388 473T384 531Q382 562 381 592H376Q365
564 354 534Q343 508 330 478T303 420L238 288ZM451 760Q424 760 402 769T363 794T337 831T327 876Q327 901 337 923T364 962T405 987T455 997Q482 997 504 988T542 963T568 926T577 882Q577 856 568 834T541 796T501 770T451 760ZM452 809Q482 809 500 828T519
881Q519 910 502 929T454 948Q424 948 405 929T386 877Q386 847 404 828T452 809Z" />
<glyph unicode="&#xc6;" glyph-name="AE" horiz-adv-x="998" d="M989 523H902L879 632H692L652 410H733L763 487H839L805 249H729L722 327H638L596 89H807L870 222H962L918 0H333L345 72L424 90L445 206H228L145 91L216 72L204 0H-39L-26 72L35 90L446 641L378
649L390 721H1003L989 523ZM536 650Q518 615 487 564T413 456L288 287H458L485 433Q491 468 500 506T519 577Q530 614 541 650H536Z" />
<glyph unicode="&#xc7;" glyph-name="Ccedilla" horiz-adv-x="664" d="M163 -190Q201 -189 226 -186T267 -177T288 -163T294 -144Q294 -131 279 -123T219 -109L243 0Q144 24 90 94T36 287Q36 389 67 471T154 612T283 701T442 733Q520 733 573 720T662 690L646
506H544L526 611Q511 619 488 626T431 634Q378 634 338 606T271 528T231 407T217 251Q217 167 251 127T357 87Q383 87 405 93T443 107L497 217H601L558 25Q518 8 466 -2T357 -12Q343 -12 331 -12T306 -10L295 -58Q357 -65 383 -84T409 -135Q409 -159 398 -179T357
-212T279 -233T155 -241L163 -190Z" />
<glyph unicode="&#xc8;" glyph-name="Egrave" horiz-adv-x="646" d="M-15 72L63 90L159 632L88 649L100 721H650L636 523H550L527 632H334L295 410H381L411 487H487L453 249H377L370 327H280L238 89H455L518 222H609L565 0H-28L-15 72ZM253 839L310 960L537 826L510
767L253 839Z" />
<glyph unicode="&#xc9;" glyph-name="Eacute" horiz-adv-x="646" d="M-15 72L63 90L159 632L88 649L100 721H650L636 523H550L527 632H334L295 410H381L411 487H487L453 249H377L370 327H280L238 89H455L518 222H609L565 0H-28L-15 72ZM283 826L527 962L570 841L303
767L283 826Z" />
<glyph unicode="&#xca;" glyph-name="Ecircumflex" horiz-adv-x="646" d="M-15 72L63 90L159 632L88 649L100 721H650L636 523H550L527 632H334L295 410H381L411 487H487L453 249H377L370 327H280L238 89H455L518 222H609L565 0H-28L-15 72ZM221 808L382 946H458L578
806L545 769L411 835L246 769L221 808Z" />
<glyph unicode="&#xcb;" glyph-name="Edieresis" horiz-adv-x="646" d="M-15 72L63 90L159 632L88 649L100 721H650L636 523H550L527 632H334L295 410H381L411 487H487L453 249H377L370 327H280L238 89H455L518 222H609L565 0H-28L-15 72ZM291 778Q258 778 237
800T215 854Q215 888 239 910T296 933Q330 933 351 911T372 858Q372 823 348 801T291 778ZM525 778Q492 778 471 800T449 854Q449 888 473 910T530 933Q564 933 585 911T606 858Q606 823 582 801T525 778Z" />
<glyph unicode="&#xcc;" glyph-name="Igrave" horiz-adv-x="372" d="M-18 72L59 90L155 632L85 649L97 721H425L413 649L335 632L239 90L310 72L298 0H-30L-18 72ZM377 839L434 960L661 826L634 767L377 839Z" />
<glyph unicode="&#xcd;" glyph-name="Iacute" horiz-adv-x="372" d="M-18 72L59 90L155 632L85 649L97 721H425L413 649L335 632L239 90L310 72L298 0H-30L-18 72ZM150 826L394 962L437 841L170 767L150 826Z" />
<glyph unicode="&#xce;" glyph-name="Icircumflex" horiz-adv-x="372" d="M-18 72L59 90L155 632L85 649L97 721H425L413 649L335 632L239 90L310 72L298 0H-30L-18 72ZM345 808L506 946H582L702 806L669 769L535 835L370 769L345 808Z" />
<glyph unicode="&#xcf;" glyph-name="Idieresis" horiz-adv-x="372" d="M-18 72L59 90L155 632L85 649L97 721H425L413 649L335 632L239 90L310 72L298 0H-30L-18 72ZM157 778Q124 778 103 800T81 854Q81 888 105 910T162 933Q196 933 217 911T238 858Q238 823
214 801T157 778ZM391 778Q358 778 337 800T315 854Q315 888 339 910T396 933Q430 933 451 911T472 858Q472 823 448 801T391 778Z" />
<glyph unicode="&#xd0;" glyph-name="Eth" horiz-adv-x="732" d="M-15 72L63 90L104 321H37L53 414H120L159 632L88 649L100 721H407Q480 721 538 704T636 651T698 562T720 436Q720 337 692 257T612 119T487 31T322 0H-28L-15 72ZM321 92Q427 92 482 190T537 472Q537
518 527 548T498 596T451 621T387 628H335L297 414H433L416 321H280L240 92H321Z" />
<glyph unicode="&#xd1;" glyph-name="Ntilde" horiz-adv-x="755" d="M-15 72L64 90L160 632L88 649L100 721H358L483 416Q496 384 507 350T526 286Q536 252 543 220H548L621 631L548 649L560 721H811L799 649L730 632L616 0H472L319 373Q306 405 296 439T278 502Q269
535 262 568H258L173 89L246 72L234 0H-27L-15 72ZM284 811Q311 864 343 897T417 930Q434 930 455 925T497 912T536 900T565 894Q582 894 596 905T625 937L678 904Q651 851 620 820T546 788Q529 788 508 793T467 805T428 816T397 822Q380 822 366 810T337 778L284
811Z" />
<glyph unicode="&#xd2;" glyph-name="Ograve" horiz-adv-x="723" d="M331 -11Q262 -11 208 10T115 70T56 164T36 289Q36 396 68 478T154 617T275 703T411 733Q481 733 536 712T630 652T689 558T710 433Q710 325 679 242T594 103T473 18T331 -11ZM337 84Q384 84
420 117T480 205T516 332T529 481Q529 562 499 600T408 638Q362 638 326 605T266 517T228 390T215 241Q215 161 244 123T337 84ZM290 839L347 960L574 826L547 767L290 839Z" />
<glyph unicode="&#xd3;" glyph-name="Oacute" horiz-adv-x="723" d="M331 -11Q262 -11 208 10T115 70T56 164T36 289Q36 396 68 478T154 617T275 703T411 733Q481 733 536 712T630 652T689 558T710 433Q710 325 679 242T594 103T473 18T331 -11ZM337 84Q384 84
420 117T480 205T516 332T529 481Q529 562 499 600T408 638Q362 638 326 605T266 517T228 390T215 241Q215 161 244 123T337 84ZM321 826L565 962L608 841L341 767L321 826Z" />
<glyph unicode="&#xd4;" glyph-name="Ocircumflex" horiz-adv-x="723" d="M331 -11Q262 -11 208 10T115 70T56 164T36 289Q36 396 68 478T154 617T275 703T411 733Q481 733 536 712T630 652T689 558T710 433Q710 325 679 242T594 103T473 18T331 -11ZM337 84Q384
84 420 117T480 205T516 332T529 481Q529 562 499 600T408 638Q362 638 326 605T266 517T228 390T215 241Q215 161 244 123T337 84ZM259 808L420 946H496L616 806L583 769L449 835L284 769L259 808Z" />
<glyph unicode="&#xd5;" glyph-name="Otilde" horiz-adv-x="723" d="M331 -11Q262 -11 208 10T115 70T56 164T36 289Q36 396 68 478T154 617T275 703T411 733Q481 733 536 712T630 652T689 558T710 433Q710 325 679 242T594 103T473 18T331 -11ZM337 84Q384 84
420 117T480 205T516 332T529 481Q529 562 499 600T408 638Q362 638 326 605T266 517T228 390T215 241Q215 161 244 123T337 84ZM247 811Q274 864 306 897T380 930Q397 930 418 925T460 912T499 900T528 894Q545 894 559 905T588 937L641 904Q614 851 583 820T509
788Q492 788 471 793T430 805T391 816T360 822Q343 822 329 810T300 778L247 811Z" />
<glyph unicode="&#xd6;" glyph-name="Odieresis" horiz-adv-x="723" d="M331 -11Q262 -11 208 10T115 70T56 164T36 289Q36 396 68 478T154 617T275 703T411 733Q481 733 536 712T630 652T689 558T710 433Q710 325 679 242T594 103T473 18T331 -11ZM337 84Q384
84 420 117T480 205T516 332T529 481Q529 562 499 600T408 638Q362 638 326 605T266 517T228 390T215 241Q215 161 244 123T337 84ZM328 778Q295 778 274 800T252 854Q252 888 276 910T333 933Q367 933 388 911T409 858Q409 823 385 801T328 778ZM562 778Q529 778
508 800T486 854Q486 888 510 910T567 933Q601 933 622 911T643 858Q643 823 619 801T562 778Z" />
<glyph unicode="&#xd7;" glyph-name="multiply" horiz-adv-x="600" d="M73 154L237 320L73 487L141 555L304 389L466 554L535 486L371 320L535 154L468 86L304 251L142 86L73 154Z" />
<glyph unicode="&#xd8;" glyph-name="Oslash" horiz-adv-x="723" d="M656 620Q682 583 696 537T710 433Q710 325 679 242T594 103T473 18T331 -11Q271 -11 222 5T136 50L55 -38L1 8L87 102Q62 139 49 185T36 289Q36 396 68 478T154 617T275 703T411 733Q471 733
520 717T608 672L677 748L731 702L656 620ZM332 81Q381 81 419 115T483 205T523 335T537 486V489L221 143Q233 112 259 97T332 81ZM208 234L524 580Q512 612 487 626T417 641Q369 641 331 608T265 519T223 391T208 240V234Z" />
<glyph unicode="&#xd9;" glyph-name="Ugrave" horiz-adv-x="727" d="M358 -13Q281 -13 228 3T140 47T91 114T76 197Q76 211 77 225T81 255L147 632L80 649L93 721H413L401 649L328 633L261 252Q258 236 257 223T256 196Q256 139 285 114T378 88Q406 88 430 94T473
116T507 160T530 233L600 632L533 649L545 721H785L772 649L705 632L632 219Q612 110 546 49T358 -13ZM319 839L376 960L603 826L576 767L319 839Z" />
<glyph unicode="&#xda;" glyph-name="Uacute" horiz-adv-x="727" d="M358 -13Q281 -13 228 3T140 47T91 114T76 197Q76 211 77 225T81 255L147 632L80 649L93 721H413L401 649L328 633L261 252Q258 236 257 223T256 196Q256 139 285 114T378 88Q406 88 430 94T473
116T507 160T530 233L600 632L533 649L545 721H785L772 649L705 632L632 219Q612 110 546 49T358 -13ZM350 826L594 962L637 841L370 767L350 826Z" />
<glyph unicode="&#xdb;" glyph-name="Ucircumflex" horiz-adv-x="727" d="M358 -13Q281 -13 228 3T140 47T91 114T76 197Q76 211 77 225T81 255L147 632L80 649L93 721H413L401 649L328 633L261 252Q258 236 257 223T256 196Q256 139 285 114T378 88Q406 88 430
94T473 116T507 160T530 233L600 632L533 649L545 721H785L772 649L705 632L632 219Q612 110 546 49T358 -13ZM288 808L449 946H525L645 806L612 769L478 835L313 769L288 808Z" />
<glyph unicode="&#xdc;" glyph-name="Udieresis" horiz-adv-x="727" d="M358 -13Q281 -13 228 3T140 47T91 114T76 197Q76 211 77 225T81 255L147 632L80 649L93 721H413L401 649L328 633L261 252Q258 236 257 223T256 196Q256 139 285 114T378 88Q406 88 430
94T473 116T507 160T530 233L600 632L533 649L545 721H785L772 649L705 632L632 219Q612 110 546 49T358 -13ZM362 778Q329 778 308 800T286 854Q286 888 310 910T367 933Q401 933 422 911T443 858Q443 823 419 801T362 778ZM596 778Q563 778 542 800T520 854Q520
888 544 910T601 933Q635 933 656 911T677 858Q677 823 653 801T596 778Z" />
<glyph unicode="&#xdd;" glyph-name="Yacute" horiz-adv-x="676" d="M137 72L219 90L255 293L127 632L76 649L88 721H381L369 649L309 633L391 384H395L558 634L502 649L514 721H739L727 649L670 632L433 291L398 90L471 72L459 0H125L137 72ZM321 826L565 962L608
841L341 767L321 826Z" />
<glyph unicode="&#xde;" glyph-name="Thorn" horiz-adv-x="641" d="M-16 72L62 90L157 632L87 649L99 721H420L408 649L338 632L327 565H388Q455 565 501 553T577 519T619 467T632 401Q632 341 612 299T556 229T469 188T357 175Q324 175 301 179T259 188L243 89L327
72L314 0H-28L-16 72ZM273 264Q297 258 332 258Q395 258 424 291T453 397Q453 439 433 457T369 476H311L273 264Z" />
<glyph unicode="&#xdf;" glyph-name="germandbls" horiz-adv-x="684" d="M-85 -118Q-81 -119 -78 -119T-71 -119Q-52 -119 -38 -113T-13 -89T8 -41T26 39L126 555Q139 622 167 667T234 741T324 781T432 793Q490 793 530 781T596 747T633 699T645 641Q645 611 631
585T594 537T547 496T500 461T464 432T449 407Q449 392 465 379T509 344L537 323Q559 306 579 289T613 253T635 212T644 159Q644 124 632 93T593 38T526 0T429 -14Q385 -14 352 -4T296 22T262 60T251 105Q251 122 258 136T277 161H375V78Q399 67 427 67Q459 67
478 82T497 127Q497 154 480 171T436 208L409 229Q364 262 344 291T324 360Q324 387 337 410T369 455T412 498T454 540T487 586T500 638Q500 673 478 689T423 706Q400 706 380 699T343 674T313 629T291 557L180 39Q154 -84 92 -139T-62 -194Q-125 -194 -156 -168T-187
-108Q-187 -94 -181 -79T-163 -52H-85V-118Z" />
<glyph unicode="&#xe0;" glyph-name="agrave" horiz-adv-x="620" d="M493 90Q512 92 528 96T558 104Q573 108 586 113L566 35Q538 16 498 3T417 -10Q377 -10 356 11T332 74Q332 76 332 78T333 83H329Q288 38 247 13T152 -12Q119 -12 93 0T50 34T23 85T14 149Q14
230 40 302T109 429T208 516T326 548Q363 548 387 540T428 514H434L449 550H580L591 545L493 90ZM235 100Q260 100 287 118T348 171L400 418Q389 437 376 449T335 461Q306 461 279 437T230 374T195 282T182 174Q182 100 235 100ZM221 697L283 816L502 674L472 616L221
697Z" />
<glyph unicode="&#xe1;" glyph-name="aacute" horiz-adv-x="620" d="M493 90Q512 92 528 96T558 104Q573 108 586 113L566 35Q538 16 498 3T417 -10Q377 -10 356 11T332 74Q332 76 332 78T333 83H329Q288 38 247 13T152 -12Q119 -12 93 0T50 34T23 85T14 149Q14
230 40 302T109 429T208 516T326 548Q363 548 387 540T428 514H434L449 550H580L591 545L493 90ZM235 100Q260 100 287 118T348 171L400 418Q389 437 376 449T335 461Q306 461 279 437T230 374T195 282T182 174Q182 100 235 100ZM257 674L496 816L544 696L278 616L257
674Z" />
<glyph unicode="&#xe2;" glyph-name="acircumflex" horiz-adv-x="620" d="M493 90Q512 92 528 96T558 104Q573 108 586 113L566 35Q538 16 498 3T417 -10Q377 -10 356 11T332 74Q332 76 332 78T333 83H329Q288 38 247 13T152 -12Q119 -12 93 0T50 34T23 85T14
149Q14 230 40 302T109 429T208 516T326 548Q363 548 387 540T428 514H434L449 550H580L591 545L493 90ZM235 100Q260 100 287 118T348 171L400 418Q389 437 376 449T335 461Q306 461 279 437T230 374T195 282T182 174Q182 100 235 100ZM188 651L349 802H426L537
650L504 613L375 690L213 613L188 651Z" />
<glyph unicode="&#xe3;" glyph-name="atilde" horiz-adv-x="620" d="M493 90Q512 92 528 96T558 104Q573 108 586 113L566 35Q538 16 498 3T417 -10Q377 -10 356 11T332 74Q332 76 332 78T333 83H329Q288 38 247 13T152 -12Q119 -12 93 0T50 34T23 85T14 149Q14
230 40 302T109 429T208 516T326 548Q363 548 387 540T428 514H434L449 550H580L591 545L493 90ZM235 100Q260 100 287 118T348 171L400 418Q389 437 376 449T335 461Q306 461 279 437T230 374T195 282T182 174Q182 100 235 100ZM177 662Q204 715 236 747T310 780Q327
780 347 775T386 763T423 751T451 745Q468 745 482 756T511 788L564 755Q537 702 506 670T432 638Q415 638 395 643T356 655T319 667T290 673Q273 673 259 661T230 628L177 662Z" />
<glyph unicode="&#xe4;" glyph-name="adieresis" horiz-adv-x="620" d="M493 90Q512 92 528 96T558 104Q573 108 586 113L566 35Q538 16 498 3T417 -10Q377 -10 356 11T332 74Q332 76 332 78T333 83H329Q288 38 247 13T152 -12Q119 -12 93 0T50 34T23 85T14 149Q14
230 40 302T109 429T208 516T326 548Q363 548 387 540T428 514H434L449 550H580L591 545L493 90ZM235 100Q260 100 287 118T348 171L400 418Q389 437 376 449T335 461Q306 461 279 437T230 374T195 282T182 174Q182 100 235 100ZM264 627Q231 627 210 649T188 703Q188
737 212 759T269 781Q303 781 324 760T345 707Q345 672 321 650T264 627ZM483 627Q449 627 428 649T406 703Q406 737 430 759T488 781Q521 781 542 760T563 707Q563 672 539 650T483 627Z" />
<glyph unicode="&#xe5;" glyph-name="aring" horiz-adv-x="620" d="M493 90Q512 92 528 96T558 104Q573 108 586 113L566 35Q538 16 498 3T417 -10Q377 -10 356 11T332 74Q332 76 332 78T333 83H329Q288 38 247 13T152 -12Q119 -12 93 0T50 34T23 85T14 149Q14
230 40 302T109 429T208 516T326 548Q363 548 387 540T428 514H434L449 550H580L591 545L493 90ZM235 100Q260 100 287 118T348 171L400 418Q389 437 376 449T335 461Q306 461 279 437T230 374T195 282T182 174Q182 100 235 100ZM371 616Q344 616 322 625T283 650T257
687T247 732Q247 757 257 779T284 818T325 843T375 853Q402 853 424 844T462 819T488 782T497 738Q497 712 488 690T461 652T421 626T371 616ZM372 665Q402 665 420 684T439 737Q439 766 422 785T374 804Q344 804 325 785T306 733Q306 703 323 684T372 665Z" />
<glyph unicode="&#xe6;" glyph-name="ae" horiz-adv-x="803" d="M263 562Q330 562 372 540T433 483H437Q476 521 523 541T630 562Q711 562 760 528T809 433Q809 382 784 347T713 289T605 254T468 235Q468 233 468 223T467 209Q467 146 493 121T577 96Q612 96 650
105T730 135L710 52Q681 29 630 9T510 -12Q386 -12 334 66H328Q316 53 301 39T264 13T217 -6T158 -14Q88 -14 45 22T1 129Q1 178 22 212T84 268T183 300T314 314L321 351Q333 418 312 448T240 479Q221 479 209 475T186 466V375H84Q73 386 65 400T56 436Q56 461
69 484T109 524T174 552T263 562ZM300 198Q300 223 303 247Q258 242 230 234T187 213T167 183T161 144Q161 109 176 92T218 75Q251 75 272 89T308 124Q303 141 302 159T300 198ZM616 480Q591 480 569 467T530 431T499 377T477 309Q519 313 552 320T609 342T644
376T657 426Q657 480 616 480Z" />
<glyph unicode="&#xe7;" glyph-name="ccedilla" horiz-adv-x="490" d="M61 -190Q99 -189 124 -186T165 -177T186 -163T192 -144Q192 -131 177 -123T117 -109L141 0Q84 20 51 69T18 197Q18 274 43 341T113 457T220 534T356 562Q432 562 466 535T500 463Q500 440
488 416T464 379H368V478Q362 480 357 480T344 481Q309 481 281 458T233 397T201 310T190 209Q190 147 214 121T289 95Q324 95 357 104T431 135L410 52Q382 29 335 9T221 -12Q216 -12 213 -12T204 -11L193 -58Q255 -65 281 -84T307 -135Q307 -159 296 -179T255
-212T177 -233T53 -241L61 -190Z" />
<glyph unicode="&#xe8;" glyph-name="egrave" horiz-adv-x="522" d="M229 -12Q126 -12 72 42T18 198Q18 274 42 340T110 455T215 533T349 562Q430 562 479 528T528 433Q528 382 503 346T432 286T324 249T188 231Q188 229 188 221T187 209Q187 146 213 121T297
96Q332 96 370 105T449 135L429 52Q401 29 350 9T229 -12ZM333 480Q307 480 286 467T247 430T217 374T197 305Q281 312 327 339T374 426Q374 480 333 480ZM193 697L255 816L474 674L444 616L193 697Z" />
<glyph unicode="&#xe9;" glyph-name="eacute" horiz-adv-x="522" d="M229 -12Q126 -12 72 42T18 198Q18 274 42 340T110 455T215 533T349 562Q430 562 479 528T528 433Q528 382 503 346T432 286T324 249T188 231Q188 229 188 221T187 209Q187 146 213 121T297
96Q332 96 370 105T449 135L429 52Q401 29 350 9T229 -12ZM333 480Q307 480 286 467T247 430T217 374T197 305Q281 312 327 339T374 426Q374 480 333 480ZM231 674L470 816L518 696L252 616L231 674Z" />
<glyph unicode="&#xea;" glyph-name="ecircumflex" horiz-adv-x="522" d="M229 -12Q126 -12 72 42T18 198Q18 274 42 340T110 455T215 533T349 562Q430 562 479 528T528 433Q528 382 503 346T432 286T324 249T188 231Q188 229 188 221T187 209Q187 146 213 121T297
96Q332 96 370 105T449 135L429 52Q401 29 350 9T229 -12ZM333 480Q307 480 286 467T247 430T217 374T197 305Q281 312 327 339T374 426Q374 480 333 480ZM170 651L331 802H408L519 650L486 613L357 690L195 613L170 651Z" />
<glyph unicode="&#xeb;" glyph-name="edieresis" horiz-adv-x="522" d="M229 -12Q126 -12 72 42T18 198Q18 274 42 340T110 455T215 533T349 562Q430 562 479 528T528 433Q528 382 503 346T432 286T324 249T188 231Q188 229 188 221T187 209Q187 146 213 121T297
96Q332 96 370 105T449 135L429 52Q401 29 350 9T229 -12ZM333 480Q307 480 286 467T247 430T217 374T197 305Q281 312 327 339T374 426Q374 480 333 480ZM240 627Q207 627 186 649T164 703Q164 737 188 759T245 781Q279 781 300 760T321 707Q321 672 297 650T240
627ZM459 627Q425 627 404 649T382 703Q382 737 406 759T464 781Q497 781 518 760T539 707Q539 672 515 650T459 627Z" />
<glyph unicode="&#xec;" glyph-name="igrave" horiz-adv-x="338" d="M211 92Q230 94 247 98T278 106Q294 110 308 115L288 37Q259 18 216 5T127 -8Q94 -8 71 9T47 68Q47 83 52 106L128 442Q109 439 92 435T60 427Q43 423 29 419L46 497Q61 510 82 521T128 542T177
556T223 562Q251 562 273 548T295 493Q295 485 294 476T291 457L211 92ZM329 697L391 816L610 674L580 616L329 697Z" />
<glyph unicode="&#xed;" glyph-name="iacute" horiz-adv-x="338" d="M211 92Q230 94 247 98T278 106Q294 110 308 115L288 37Q259 18 216 5T127 -8Q94 -8 71 9T47 68Q47 83 52 106L128 442Q109 439 92 435T60 427Q43 423 29 419L46 497Q61 510 82 521T128 542T177
556T223 562Q251 562 273 548T295 493Q295 485 294 476T291 457L211 92ZM375 674L614 816L662 696L396 616L375 674Z" />
<glyph unicode="&#xee;" glyph-name="icircumflex" horiz-adv-x="338" d="M211 92Q230 94 247 98T278 106Q294 110 308 115L288 37Q259 18 216 5T127 -8Q94 -8 71 9T47 68Q47 83 52 106L128 442Q109 439 92 435T60 427Q43 423 29 419L46 497Q61 510 82 521T128
542T177 556T223 562Q251 562 273 548T295 493Q295 485 294 476T291 457L211 92ZM305 651L466 802H543L654 650L621 613L492 690L330 613L305 651Z" />
<glyph unicode="&#xef;" glyph-name="idieresis" horiz-adv-x="338" d="M211 92Q230 94 247 98T278 106Q294 110 308 115L288 37Q259 18 216 5T127 -8Q94 -8 71 9T47 68Q47 83 52 106L128 442Q109 439 92 435T60 427Q43 423 29 419L46 497Q61 510 82 521T128 542T177
556T223 562Q251 562 273 548T295 493Q295 485 294 476T291 457L211 92ZM382 627Q349 627 328 649T306 703Q306 737 330 759T387 781Q421 781 442 760T463 707Q463 672 439 650T382 627ZM601 627Q567 627 546 649T524 703Q524 737 548 759T606 781Q639 781 660
760T681 707Q681 672 657 650T601 627Z" />
<glyph unicode="&#xf0;" glyph-name="eth" horiz-adv-x="592" d="M302 546Q328 546 345 541T376 527H382Q370 558 354 583T317 629L160 559L134 616L264 674Q244 688 221 700T174 725L229 796Q311 771 379 726L511 785L538 728L435 682Q498 625 534 548T570 375Q570
291 548 220T484 97T384 16T252 -13Q193 -13 149 5T76 55T33 128T18 214Q18 287 41 348T104 453T195 521T302 546ZM401 374Q401 397 400 415T397 447Q384 455 369 460T334 465Q301 465 274 446T227 390T196 301T185 181Q185 74 261 74Q293 74 319 95T363 156T391
251T401 374Z" />
<glyph unicode="&#xf1;" glyph-name="ntilde" horiz-adv-x="648" d="M526 90Q544 92 560 96T590 104Q605 108 618 113L598 35Q570 16 529 3T441 -10Q407 -10 385 8T362 68Q362 87 366 106L422 370Q425 383 425 395T423 416T412 430T391 436Q356 436 327 415T272
368L194 0H30L125 442Q106 439 90 435T59 427Q43 423 29 419L46 497Q61 510 81 521T124 542T171 556T216 562Q231 562 245 559T269 546T285 521T288 481Q288 477 286 467Q285 462 285 457H291Q334 502 380 532T489 562Q540 562 568 534T597 452Q597 427 591 397L526
90ZM177 662Q204 715 236 747T310 780Q327 780 347 775T386 763T423 751T451 745Q468 745 482 756T511 788L564 755Q537 702 506 670T432 638Q415 638 395 643T356 655T319 667T290 673Q273 673 259 661T230 628L177 662Z" />
<glyph unicode="&#xf2;" glyph-name="ograve" d="M256 -13Q200 -13 156 4T81 53T34 126T18 219Q18 291 41 354T107 463T207 535T336 562Q390 562 433 544T506 494T553 420T569 330Q569 258 548 196T486 87T388 14T256 -13ZM265 74Q294 74 318 93T361 150T389 240T399
359Q399 413 381 444T321 476Q293 476 269 456T226 399T197 309T186 190Q186 134 204 104T265 74ZM193 697L255 816L474 674L444 616L193 697Z" />
<glyph unicode="&#xf3;" glyph-name="oacute" d="M256 -13Q200 -13 156 4T81 53T34 126T18 219Q18 291 41 354T107 463T207 535T336 562Q390 562 433 544T506 494T553 420T569 330Q569 258 548 196T486 87T388 14T256 -13ZM265 74Q294 74 318 93T361 150T389 240T399
359Q399 413 381 444T321 476Q293 476 269 456T226 399T197 309T186 190Q186 134 204 104T265 74ZM239 674L478 816L526 696L260 616L239 674Z" />
<glyph unicode="&#xf4;" glyph-name="ocircumflex" d="M256 -13Q200 -13 156 4T81 53T34 126T18 219Q18 291 41 354T107 463T207 535T336 562Q390 562 433 544T506 494T553 420T569 330Q569 258 548 196T486 87T388 14T256 -13ZM265 74Q294 74 318 93T361 150T389
240T399 359Q399 413 381 444T321 476Q293 476 269 456T226 399T197 309T186 190Q186 134 204 104T265 74ZM170 651L331 802H408L519 650L486 613L357 690L195 613L170 651Z" />
<glyph unicode="&#xf5;" glyph-name="otilde" d="M256 -13Q200 -13 156 4T81 53T34 126T18 219Q18 291 41 354T107 463T207 535T336 562Q390 562 433 544T506 494T553 420T569 330Q569 258 548 196T486 87T388 14T256 -13ZM265 74Q294 74 318 93T361 150T389 240T399
359Q399 413 381 444T321 476Q293 476 269 456T226 399T197 309T186 190Q186 134 204 104T265 74ZM159 662Q186 715 218 747T292 780Q309 780 329 775T368 763T405 751T433 745Q450 745 464 756T493 788L546 755Q519 702 488 670T414 638Q397 638 377 643T338 655T301
667T272 673Q255 673 241 661T212 628L159 662Z" />
<glyph unicode="&#xf6;" glyph-name="odieresis" d="M256 -13Q200 -13 156 4T81 53T34 126T18 219Q18 291 41 354T107 463T207 535T336 562Q390 562 433 544T506 494T553 420T569 330Q569 258 548 196T486 87T388 14T256 -13ZM265 74Q294 74 318 93T361 150T389
240T399 359Q399 413 381 444T321 476Q293 476 269 456T226 399T197 309T186 190Q186 134 204 104T265 74ZM247 627Q214 627 193 649T171 703Q171 737 195 759T252 781Q286 781 307 760T328 707Q328 672 304 650T247 627ZM466 627Q432 627 411 649T389 703Q389
737 413 759T471 781Q504 781 525 760T546 707Q546 672 522 650T466 627Z" />
<glyph unicode="&#xf7;" glyph-name="divide" horiz-adv-x="600" d="M59 370H551V279H59V370ZM305 35Q267 35 243 60T218 120Q218 138 224 153T242 180T270 199T305 206Q324 206 340 199T367 181T385 154T392 120Q392 85 368 60T305 35ZM305 443Q267 443 243 468T218
528Q218 546 224 561T242 588T270 607T305 614Q324 614 340 607T367 589T385 562T392 528Q392 493 368 468T305 443Z" />
<glyph unicode="&#xf8;" glyph-name="oslash" d="M256 -13Q160 -13 98 37L28 -34L-17 11L55 84Q18 143 18 219Q18 291 41 354T107 463T207 535T336 562Q381 562 417 550T482 515L549 582L594 538L526 469Q569 409 569 330Q569 258 548 196T486 87T388 14T256 -13ZM264
70Q294 70 320 89T367 145T398 234T411 353L183 123Q203 70 264 70ZM321 478Q292 478 266 459T220 405T188 318T174 204L399 431Q377 478 321 478Z" />
<glyph unicode="&#xf9;" glyph-name="ugrave" horiz-adv-x="636" d="M511 90Q529 92 546 96T576 104Q591 108 604 113L584 35Q556 16 516 3T433 -10Q389 -10 369 13T353 81L354 90H348Q327 67 306 49T263 17T216 -4T160 -12Q107 -12 79 17T50 102Q50 127 56 157L116
442Q98 438 81 435T50 427Q34 423 21 419L38 497Q53 510 73 521T115 542T160 556T205 562Q240 562 262 547T285 489Q285 480 284 469T280 446L224 180Q218 152 223 133T257 114Q291 114 315 132T368 179L446 550H610L511 90ZM215 697L277 816L496 674L466 616L215
697Z" />
<glyph unicode="&#xfa;" glyph-name="uacute" horiz-adv-x="636" d="M511 90Q529 92 546 96T576 104Q591 108 604 113L584 35Q556 16 516 3T433 -10Q389 -10 369 13T353 81L354 90H348Q327 67 306 49T263 17T216 -4T160 -12Q107 -12 79 17T50 102Q50 127 56 157L116
442Q98 438 81 435T50 427Q34 423 21 419L38 497Q53 510 73 521T115 542T160 556T205 562Q240 562 262 547T285 489Q285 480 284 469T280 446L224 180Q218 152 223 133T257 114Q291 114 315 132T368 179L446 550H610L511 90ZM261 674L500 816L548 696L282 616L261
674Z" />
<glyph unicode="&#xfb;" glyph-name="ucircumflex" horiz-adv-x="636" d="M511 90Q529 92 546 96T576 104Q591 108 604 113L584 35Q556 16 516 3T433 -10Q389 -10 369 13T353 81L354 90H348Q327 67 306 49T263 17T216 -4T160 -12Q107 -12 79 17T50 102Q50 127
56 157L116 442Q98 438 81 435T50 427Q34 423 21 419L38 497Q53 510 73 521T115 542T160 556T205 562Q240 562 262 547T285 489Q285 480 284 469T280 446L224 180Q218 152 223 133T257 114Q291 114 315 132T368 179L446 550H610L511 90ZM192 651L353 802H430L541
650L508 613L379 690L217 613L192 651Z" />
<glyph unicode="&#xfc;" glyph-name="udieresis" horiz-adv-x="636" d="M511 90Q529 92 546 96T576 104Q591 108 604 113L584 35Q556 16 516 3T433 -10Q389 -10 369 13T353 81L354 90H348Q327 67 306 49T263 17T216 -4T160 -12Q107 -12 79 17T50 102Q50 127 56
157L116 442Q98 438 81 435T50 427Q34 423 21 419L38 497Q53 510 73 521T115 542T160 556T205 562Q240 562 262 547T285 489Q285 480 284 469T280 446L224 180Q218 152 223 133T257 114Q291 114 315 132T368 179L446 550H610L511 90ZM269 627Q236 627 215 649T193
703Q193 737 217 759T274 781Q308 781 329 760T350 707Q350 672 326 650T269 627ZM488 627Q454 627 433 649T411 703Q411 737 435 759T493 781Q526 781 547 760T568 707Q568 672 544 650T488 627Z" />
<glyph unicode="&#xfd;" glyph-name="yacute" horiz-adv-x="571" d="M45 -217Q9 -217 -18 -206T-58 -183L-38 -101Q-22 -106 -7 -110T30 -114Q72 -114 106 -105T176 -66Q173 -7 167 60T153 195T136 326T117 441Q100 438 84 434T54 427Q39 423 26 419L43 497Q56
509 73 520T108 541T146 556T186 562Q223 562 244 541T273 471Q281 426 286 368T293 240Q294 225 294 204T292 158T290 108T285 60H290Q311 102 336 146T379 229Q405 289 422 340T448 440H390L407 532Q421 545 443 554T486 563Q502 563 517 559T545 546T566 522T574
483Q574 447 561 402T522 302T461 187T382 59Q335 -13 294 -65T213 -150T131 -200T45 -217ZM240 674L479 816L527 696L261 616L240 674Z" />
<glyph unicode="&#xfe;" glyph-name="thorn" horiz-adv-x="616" d="M-70 -153L-5 -139L148 679L84 695L97 766L314 790L328 783L270 467H275Q313 509 355 536T448 563Q513 563 552 516T591 367Q591 294 572 226T513 104T415 19T274 -13Q242 -13 221 -8T186 5L162
-139L232 -153L221 -217H-81L-70 -153ZM274 72Q313 72 340 99T385 169T411 264T420 366Q420 411 404 428T363 446Q332 446 305 429T255 388L204 105Q214 91 231 82T274 72Z" />
<glyph unicode="&#xff;" glyph-name="ydieresis" horiz-adv-x="571" d="M45 -217Q9 -217 -18 -206T-58 -183L-38 -101Q-22 -106 -7 -110T30 -114Q72 -114 106 -105T176 -66Q173 -7 167 60T153 195T136 326T117 441Q100 438 84 434T54 427Q39 423 26 419L43 497Q56
509 73 520T108 541T146 556T186 562Q223 562 244 541T273 471Q281 426 286 368T293 240Q294 225 294 204T292 158T290 108T285 60H290Q311 102 336 146T379 229Q405 289 422 340T448 440H390L407 532Q421 545 443 554T486 563Q502 563 517 559T545 546T566 522T574
483Q574 447 561 402T522 302T461 187T382 59Q335 -13 294 -65T213 -150T131 -200T45 -217ZM247 627Q214 627 193 649T171 703Q171 737 195 759T252 781Q286 781 307 760T328 707Q328 672 304 650T247 627ZM466 627Q432 627 411 649T389 703Q389 737 413 759T471
781Q504 781 525 760T546 707Q546 672 522 650T466 627Z" />
<glyph unicode="&#x100;" glyph-name="Amacron" horiz-adv-x="727" d="M417 212H201L141 90L210 72L198 0H-43L-31 72L31 90L360 721H523L619 90L676 72L664 0H344L357 72L432 90L417 212ZM238 288H408L394 413Q390 441 388 473T384 531Q382 562 381 592H376Q365
564 354 534Q343 508 330 478T303 420L238 288ZM302 885H625L610 798H287L302 885Z" />
<glyph unicode="&#x101;" glyph-name="amacron" horiz-adv-x="620" d="M493 90Q512 92 528 96T558 104Q573 108 586 113L566 35Q538 16 498 3T417 -10Q377 -10 356 11T332 74Q332 76 332 78T333 83H329Q288 38 247 13T152 -12Q119 -12 93 0T50 34T23 85T14 149Q14
230 40 302T109 429T208 516T326 548Q363 548 387 540T428 514H434L449 550H580L591 545L493 90ZM235 100Q260 100 287 118T348 171L400 418Q389 437 376 449T335 461Q306 461 279 437T230 374T195 282T182 174Q182 100 235 100ZM226 740H549L534 653H211L226 740Z"
/>
<glyph unicode="&#x102;" glyph-name="Abreve" horiz-adv-x="727" d="M417 212H201L141 90L210 72L198 0H-43L-31 72L31 90L360 721H523L619 90L676 72L664 0H344L357 72L432 90L417 212ZM238 288H408L394 413Q390 441 388 473T384 531Q382 562 381 592H376Q365
564 354 534Q343 508 330 478T303 420L238 288ZM451 781Q416 781 387 792T338 825T306 875T295 938H377Q380 916 399 900T455 883Q493 883 514 897T544 938H627Q616 862 570 822T451 781Z" />
<glyph unicode="&#x103;" glyph-name="abreve" horiz-adv-x="620" d="M493 90Q512 92 528 96T558 104Q573 108 586 113L566 35Q538 16 498 3T417 -10Q377 -10 356 11T332 74Q332 76 332 78T333 83H329Q288 38 247 13T152 -12Q119 -12 93 0T50 34T23 85T14 149Q14
230 40 302T109 429T208 516T326 548Q363 548 387 540T428 514H434L449 550H580L591 545L493 90ZM235 100Q260 100 287 118T348 171L400 418Q389 437 376 449T335 461Q306 461 279 437T230 374T195 282T182 174Q182 100 235 100ZM368 627Q299 627 259 670T218 788H300Q304
762 320 746T372 729Q407 729 427 745T456 788H539Q527 713 483 670T368 627Z" />
<glyph unicode="&#x104;" glyph-name="Aogonek" horiz-adv-x="727" d="M417 212H201L141 90L210 72L198 0H-43L-31 72L31 90L360 721H523L619 90L676 72L664 0H598Q562 0 532 -8T481 -32T447 -66T435 -108Q435 -145 475 -145Q489 -145 498 -143T517 -137L507 -202Q491
-211 467 -216T419 -222Q387 -222 364 -215T325 -195T303 -166T296 -133Q296 -109 307 -88T337 -49T383 -16T441 14L417 212ZM238 288H408L394 413Q390 441 388 473T384 531Q382 562 381 592H376Q365 564 354 534Q343 508 330 478T303 420L238 288Z" />
<glyph unicode="&#x105;" glyph-name="aogonek" horiz-adv-x="620" d="M425 -222Q360 -222 332 -197T303 -137Q303 -115 312 -96T338 -61T376 -32T422 -10Q377 -11 356 11T332 74Q332 76 332 78T333 83H329Q288 38 247 13T152 -12Q119 -12 93 0T50 34T23 85T14
149Q14 230 40 302T109 429T208 516T326 548Q363 548 387 540T428 514H434L449 550H580L591 545L493 90Q512 92 528 96T558 104Q573 108 586 113L566 35Q549 23 528 7T488 -29T456 -69T443 -111Q443 -145 482 -145Q495 -145 504 -143T524 -137L514 -202Q498 -211
474 -216T425 -222ZM235 100Q260 100 287 118T348 171L400 418Q389 437 376 449T335 461Q306 461 279 437T230 374T195 282T182 174Q182 100 235 100Z" />
<glyph unicode="&#x106;" glyph-name="Cacute" horiz-adv-x="664" d="M357 -12Q207 -12 122 61T36 287Q36 389 67 471T154 612T283 701T442 733Q520 733 573 720T662 690L646 506H544L526 611Q511 619 488 626T431 634Q378 634 338 606T271 528T231 407T217 251Q217
167 251 127T357 87Q383 87 405 93T443 107L497 217H601L558 25Q518 8 466 -2T357 -12ZM327 826L571 962L614 841L347 767L327 826Z" />
<glyph unicode="&#x107;" glyph-name="cacute" horiz-adv-x="490" d="M221 -12Q128 -12 73 41T18 197Q18 274 43 341T113 457T220 534T356 562Q432 562 466 535T500 463Q500 440 488 416T464 379H368V478Q362 480 357 480T344 481Q309 481 281 458T233 397T201
310T190 209Q190 147 214 121T289 95Q324 95 357 104T431 135L410 52Q382 29 335 9T221 -12ZM232 674L471 816L519 696L253 616L232 674Z" />
<glyph unicode="&#x108;" glyph-name="Ccircumflex" horiz-adv-x="664" d="M357 -12Q207 -12 122 61T36 287Q36 389 67 471T154 612T283 701T442 733Q520 733 573 720T662 690L646 506H544L526 611Q511 619 488 626T431 634Q378 634 338 606T271 528T231 407T217
251Q217 167 251 127T357 87Q383 87 405 93T443 107L497 217H601L558 25Q518 8 466 -2T357 -12ZM265 808L426 946H502L622 806L589 769L455 835L290 769L265 808Z" />
<glyph unicode="&#x109;" glyph-name="ccircumflex" horiz-adv-x="490" d="M221 -12Q128 -12 73 41T18 197Q18 274 43 341T113 457T220 534T356 562Q432 562 466 535T500 463Q500 440 488 416T464 379H368V478Q362 480 357 480T344 481Q309 481 281 458T233 397T201
310T190 209Q190 147 214 121T289 95Q324 95 357 104T431 135L410 52Q382 29 335 9T221 -12ZM162 651L323 802H400L511 650L478 613L349 690L187 613L162 651Z" />
<glyph unicode="&#x10a;" glyph-name="Cdotaccent" horiz-adv-x="664" d="M357 -12Q207 -12 122 61T36 287Q36 389 67 471T154 612T283 701T442 733Q520 733 573 720T662 690L646 506H544L526 611Q511 619 488 626T431 634Q378 634 338 606T271 528T231 407T217
251Q217 167 251 127T357 87Q383 87 405 93T443 107L497 217H601L558 25Q518 8 466 -2T357 -12ZM444 776Q407 776 382 798T357 857Q357 897 383 920T447 943Q485 943 509 921T534 863Q534 822 508 799T444 776Z" />
<glyph unicode="&#x10b;" glyph-name="cdotaccent" horiz-adv-x="490" d="M221 -12Q128 -12 73 41T18 197Q18 274 43 341T113 457T220 534T356 562Q432 562 466 535T500 463Q500 440 488 416T464 379H368V478Q362 480 357 480T344 481Q309 481 281 458T233 397T201
310T190 209Q190 147 214 121T289 95Q324 95 357 104T431 135L410 52Q382 29 335 9T221 -12ZM341 622Q303 622 279 644T254 702Q254 742 280 765T344 789Q382 789 406 766T431 708Q431 668 405 645T341 622Z" />
<glyph unicode="&#x10c;" glyph-name="Ccaron" horiz-adv-x="664" d="M357 -12Q207 -12 122 61T36 287Q36 389 67 471T154 612T283 701T442 733Q520 733 573 720T662 690L646 506H544L526 611Q511 619 488 626T431 634Q378 634 338 606T271 528T231 407T217 251Q217
167 251 127T357 87Q383 87 405 93T443 107L497 217H601L558 25Q518 8 466 -2T357 -12ZM638 919L477 781H401L281 921L314 958L448 892L613 958L638 919Z" />
<glyph unicode="&#x10d;" glyph-name="ccaron" horiz-adv-x="490" d="M221 -12Q128 -12 73 41T18 197Q18 274 43 341T113 457T220 534T356 562Q432 562 466 535T500 463Q500 440 488 416T464 379H368V478Q362 480 357 480T344 481Q309 481 281 458T233 397T201
310T190 209Q190 147 214 121T289 95Q324 95 357 104T431 135L410 52Q382 29 335 9T221 -12ZM534 771L373 621H296L185 773L218 810L347 732L509 810L534 771Z" />
<glyph unicode="&#x10e;" glyph-name="Dcaron" horiz-adv-x="732" d="M-15 72L63 90L159 632L88 649L100 721H407Q480 721 538 704T636 651T698 562T720 436Q720 337 692 257T612 119T487 31T322 0H-28L-15 72ZM321 92Q427 92 482 190T537 472Q537 518 527 548T498
596T451 621T387 628H339L244 92H321ZM606 919L445 781H369L249 921L282 958L416 892L581 958L606 919Z" />
<glyph unicode="&#x10f;" glyph-name="dcaron" horiz-adv-x="630" d="M511 91Q528 93 544 97T574 105Q589 109 601 113L581 35Q553 16 516 3T440 -10Q393 -10 371 13T347 76H342Q313 41 270 15T166 -12Q97 -12 57 33T16 159Q16 244 43 318T114 446T215 531T335
562Q373 562 391 556T427 541L452 685L384 701L396 770L620 795L634 787L511 91ZM246 99Q278 99 304 114T358 159L409 441Q397 456 384 465T348 474Q316 474 287 450T235 386T199 291T186 178Q186 137 201 118T246 99ZM643 595Q657 635 670 689T692 791H827Q810
731 784 684T722 595H643Z" />
<glyph unicode="&#x110;" glyph-name="Dcroat" horiz-adv-x="732" d="M-15 72L63 90L104 321H37L53 414H120L159 632L88 649L100 721H407Q480 721 538 704T636 651T698 562T720 436Q720 337 692 257T612 119T487 31T322 0H-28L-15 72ZM321 92Q427 92 482 190T537
472Q537 518 527 548T498 596T451 621T387 628H335L297 414H433L416 321H280L240 92H321Z" />
<glyph unicode="&#x111;" glyph-name="dcroat" horiz-adv-x="630" d="M617 690H697L684 622H605L511 91Q528 93 544 97T574 105Q589 109 601 113L581 35Q553 16 516 3T440 -10Q393 -10 371 13T347 76H342Q313 41 270 15T166 -12Q97 -12 57 33T16 159Q16 244 42
317T113 444T215 527T334 558Q372 558 390 552T426 537L441 622H277L289 690H452L468 779L620 795L634 787L617 690ZM246 99Q278 99 304 114T358 159L409 439Q397 455 383 464T346 473Q314 473 286 449T235 385T199 291T186 178Q186 137 201 118T246 99Z" />
<glyph unicode="&#x112;" glyph-name="Emacron" horiz-adv-x="646" d="M-15 72L63 90L159 632L88 649L100 721H650L636 523H550L527 632H334L295 410H381L411 487H487L453 249H377L370 327H280L238 89H455L518 222H609L565 0H-28L-15 72ZM260 885H583L568 798H245L260
885Z" />
<glyph unicode="&#x113;" glyph-name="emacron" horiz-adv-x="522" d="M229 -12Q126 -12 72 42T18 198Q18 274 42 340T110 455T215 533T349 562Q430 562 479 528T528 433Q528 382 503 346T432 286T324 249T188 231Q188 229 188 221T187 209Q187 146 213 121T297
96Q332 96 370 105T449 135L429 52Q401 29 350 9T229 -12ZM333 480Q307 480 286 467T247 430T217 374T197 305Q281 312 327 339T374 426Q374 480 333 480ZM208 740H531L516 653H193L208 740Z" />
<glyph unicode="&#x114;" glyph-name="Ebreve" horiz-adv-x="646" d="M-15 72L63 90L159 632L88 649L100 721H650L636 523H550L527 632H334L295 410H381L411 487H487L453 249H377L370 327H280L238 89H455L518 222H609L565 0H-28L-15 72ZM409 781Q374 781 345 792T296
825T264 875T253 938H335Q338 916 357 900T413 883Q451 883 472 897T502 938H585Q574 862 528 822T409 781Z" />
<glyph unicode="&#x115;" glyph-name="ebreve" horiz-adv-x="522" d="M229 -12Q126 -12 72 42T18 198Q18 274 42 340T110 455T215 533T349 562Q430 562 479 528T528 433Q528 382 503 346T432 286T324 249T188 231Q188 229 188 221T187 209Q187 146 213 121T297
96Q332 96 370 105T449 135L429 52Q401 29 350 9T229 -12ZM333 480Q307 480 286 467T247 430T217 374T197 305Q281 312 327 339T374 426Q374 480 333 480ZM348 627Q279 627 239 670T198 788H280Q284 762 300 746T352 729Q387 729 407 745T436 788H519Q507 713 463
670T348 627Z" />
<glyph unicode="&#x116;" glyph-name="Edotaccent" horiz-adv-x="646" d="M-15 72L63 90L159 632L88 649L100 721H650L636 523H550L527 632H334L295 410H381L411 487H487L453 249H377L370 327H280L238 89H455L518 222H609L565 0H-28L-15 72ZM408 776Q371 776 346
798T321 857Q321 897 347 920T411 943Q449 943 473 921T498 863Q498 822 472 799T408 776Z" />
<glyph unicode="&#x117;" glyph-name="edotaccent" horiz-adv-x="522" d="M229 -12Q126 -12 72 42T18 198Q18 274 42 340T110 455T215 533T349 562Q430 562 479 528T528 433Q528 382 503 346T432 286T324 249T188 231Q188 229 188 221T187 209Q187 146 213 121T297
96Q332 96 370 105T449 135L429 52Q401 29 350 9T229 -12ZM333 480Q307 480 286 467T247 430T217 374T197 305Q281 312 327 339T374 426Q374 480 333 480ZM342 622Q304 622 280 644T255 702Q255 742 281 765T345 789Q383 789 407 766T432 708Q432 668 406 645T342
622Z" />
<glyph unicode="&#x118;" glyph-name="Eogonek" horiz-adv-x="646" d="M-15 72L63 90L159 632L88 649L100 721H650L636 523H550L527 632H334L295 410H381L411 487H487L453 249H377L370 327H280L238 89H455L518 222H609L565 0H496Q455 -29 435 -58T415 -111Q415
-145 453 -145Q467 -145 476 -143T495 -137L485 -202Q470 -211 446 -216T397 -222Q332 -222 303 -197T274 -137Q274 -114 285 -93T314 -55T357 -23T406 0H-28L-15 72Z" />
<glyph unicode="&#x119;" glyph-name="eogonek" horiz-adv-x="522" d="M265 -222Q201 -222 172 -197T143 -137Q143 -115 153 -96T180 -61T219 -32T266 -10Q258 -11 249 -11T229 -12Q126 -12 72 42T18 198Q18 274 42 340T110 455T215 533T349 562Q430 562 479 528T528
433Q528 382 503 346T432 286T324 249T188 231Q188 229 188 221T187 209Q187 146 213 121T297 96Q332 96 370 105T449 135L429 52Q407 34 382 16T334 -23T298 -65T283 -111Q283 -145 322 -145Q335 -145 344 -143T364 -137L354 -202Q338 -211 314 -216T265 -222ZM333
480Q307 480 286 467T247 430T217 374T197 305Q281 312 327 339T374 426Q374 480 333 480Z" />
<glyph unicode="&#x11a;" glyph-name="Ecaron" horiz-adv-x="646" d="M-15 72L63 90L159 632L88 649L100 721H650L636 523H550L527 632H334L295 410H381L411 487H487L453 249H377L370 327H280L238 89H455L518 222H609L565 0H-28L-15 72ZM604 919L443 781H367L247
921L280 958L414 892L579 958L604 919Z" />
<glyph unicode="&#x11b;" glyph-name="ecaron" horiz-adv-x="522" d="M229 -12Q126 -12 72 42T18 198Q18 274 42 340T110 455T215 533T349 562Q430 562 479 528T528 433Q528 382 503 346T432 286T324 249T188 231Q188 229 188 221T187 209Q187 146 213 121T297
96Q332 96 370 105T449 135L429 52Q401 29 350 9T229 -12ZM333 480Q307 480 286 467T247 430T217 374T197 305Q281 312 327 339T374 426Q374 480 333 480ZM546 771L385 621H308L197 773L230 810L359 732L521 810L546 771Z" />
<glyph unicode="&#x11c;" glyph-name="Gcircumflex" horiz-adv-x="717" d="M356 -13Q270 -13 210 8T111 67T54 160T36 281Q36 390 70 474T163 616T296 703T453 733Q536 733 593 720T683 690L670 513H570L545 611Q528 622 505 628T444 635Q390 635 348 608T276
531T231 411T215 256Q215 172 251 129T367 85Q384 85 402 88T434 98L462 256L392 272L405 344H706L693 272L631 256L591 22Q570 14 541 8T479 -3T414 -10T356 -13ZM278 808L439 946H515L635 806L602 769L468 835L303 769L278 808Z" />
<glyph unicode="&#x11d;" glyph-name="gcircumflex" horiz-adv-x="543" d="M213 -222Q70 -222 4 -185T-63 -90Q-63 -63 -48 -43T-7 -6T48 21T109 41Q87 55 77 74T67 114Q67 147 87 177T140 232Q99 251 74 283T49 363Q49 409 67 445T118 508T194 548T287 562Q316
562 344 556T396 537L581 567L563 465L462 475V471Q494 437 494 391Q494 351 478 317T431 259T356 220T256 206Q242 206 228 207T201 211Q195 203 191 195T187 179Q187 165 206 156T253 138L327 117Q402 96 444 59T486 -38Q486 -77 471 -110T422 -169T337 -208T213
-222ZM251 -13Q245 -12 231 -8T201 1T174 10T162 14Q147 7 133 -1T107 -21T88 -45T81 -75Q81 -107 111 -124T208 -141Q273 -141 304 -123T336 -77Q336 -53 313 -39T251 -13ZM257 277Q299 277 321 319T343 424Q343 461 329 475T291 489Q249 489 226 448T203 344Q203
309 217 293T257 277ZM145 651L306 802H383L494 650L461 613L332 690L170 613L145 651Z" />
<glyph unicode="&#x11e;" glyph-name="Gbreve" horiz-adv-x="717" d="M356 -13Q270 -13 210 8T111 67T54 160T36 281Q36 390 70 474T163 616T296 703T453 733Q536 733 593 720T683 690L670 513H570L545 611Q528 622 505 628T444 635Q390 635 348 608T276 531T231
411T215 256Q215 172 251 129T367 85Q384 85 402 88T434 98L462 256L392 272L405 344H706L693 272L631 256L591 22Q570 14 541 8T479 -3T414 -10T356 -13ZM455 781Q420 781 391 792T342 825T310 875T299 938H381Q384 916 403 900T459 883Q497 883 518 897T548 938H631Q620
862 574 822T455 781Z" />
<glyph unicode="&#x11f;" glyph-name="gbreve" horiz-adv-x="543" d="M213 -222Q70 -222 4 -185T-63 -90Q-63 -63 -48 -43T-7 -6T48 21T109 41Q87 55 77 74T67 114Q67 147 87 177T140 232Q99 251 74 283T49 363Q49 409 67 445T118 508T194 548T287 562Q316 562
344 556T396 537L581 567L563 465L462 475V471Q494 437 494 391Q494 351 478 317T431 259T356 220T256 206Q242 206 228 207T201 211Q195 203 191 195T187 179Q187 165 206 156T253 138L327 117Q402 96 444 59T486 -38Q486 -77 471 -110T422 -169T337 -208T213
-222ZM251 -13Q245 -12 231 -8T201 1T174 10T162 14Q147 7 133 -1T107 -21T88 -45T81 -75Q81 -107 111 -124T208 -141Q273 -141 304 -123T336 -77Q336 -53 313 -39T251 -13ZM257 277Q299 277 321 319T343 424Q343 461 329 475T291 489Q249 489 226 448T203 344Q203
309 217 293T257 277ZM325 627Q256 627 216 670T175 788H257Q261 762 277 746T329 729Q364 729 384 745T413 788H496Q484 713 440 670T325 627Z" />
<glyph unicode="&#x120;" glyph-name="Gdotaccent" horiz-adv-x="717" d="M356 -13Q270 -13 210 8T111 67T54 160T36 281Q36 390 70 474T163 616T296 703T453 733Q536 733 593 720T683 690L670 513H570L545 611Q528 622 505 628T444 635Q390 635 348 608T276 531T231
411T215 256Q215 172 251 129T367 85Q384 85 402 88T434 98L462 256L392 272L405 344H706L693 272L631 256L591 22Q570 14 541 8T479 -3T414 -10T356 -13ZM461 776Q424 776 399 798T374 857Q374 897 400 920T464 943Q502 943 526 921T551 863Q551 822 525 799T461
776Z" />
<glyph unicode="&#x121;" glyph-name="gdotaccent" horiz-adv-x="543" d="M213 -222Q70 -222 4 -185T-63 -90Q-63 -63 -48 -43T-7 -6T48 21T109 41Q87 55 77 74T67 114Q67 147 87 177T140 232Q99 251 74 283T49 363Q49 409 67 445T118 508T194 548T287 562Q316
562 344 556T396 537L581 567L563 465L462 475V471Q494 437 494 391Q494 351 478 317T431 259T356 220T256 206Q242 206 228 207T201 211Q195 203 191 195T187 179Q187 165 206 156T253 138L327 117Q402 96 444 59T486 -38Q486 -77 471 -110T422 -169T337 -208T213
-222ZM251 -13Q245 -12 231 -8T201 1T174 10T162 14Q147 7 133 -1T107 -21T88 -45T81 -75Q81 -107 111 -124T208 -141Q273 -141 304 -123T336 -77Q336 -53 313 -39T251 -13ZM257 277Q299 277 321 319T343 424Q343 461 329 475T291 489Q249 489 226 448T203 344Q203
309 217 293T257 277ZM327 622Q289 622 265 644T240 702Q240 742 266 765T330 789Q368 789 392 766T417 708Q417 668 391 645T327 622Z" />
<glyph unicode="&#x122;" glyph-name="Gcommaaccent" horiz-adv-x="717" d="M356 -13Q270 -13 210 8T111 67T54 160T36 281Q36 390 70 474T163 616T296 703T453 733Q536 733 593 720T683 690L670 513H570L545 611Q528 622 505 628T444 635Q390 635 348 608T276
531T231 411T215 256Q215 172 251 129T367 85Q384 85 402 88T434 98L462 256L392 272L405 344H706L693 272L631 256L591 22Q570 14 541 8T479 -3T414 -10T356 -13ZM180 -243Q220 -238 246 -230T288 -211T310 -187T318 -158Q310 -166 299 -172T268 -179Q241 -179
225 -163T208 -121Q208 -103 216 -90T236 -67T265 -53T299 -48Q344 -48 371 -72T399 -141Q399 -176 384 -202T340 -247T273 -276T188 -289L180 -243Z" />
<glyph unicode="&#x123;" glyph-name="gcommaaccent" horiz-adv-x="543" d="M213 -222Q70 -222 4 -185T-63 -90Q-63 -63 -48 -43T-7 -6T48 21T109 41Q87 55 77 74T67 114Q67 147 87 177T140 232Q99 251 74 283T49 363Q49 409 67 445T118 508T194 548T287 562Q316
562 344 556T396 537L581 567L563 465L462 475V471Q494 437 494 391Q494 351 478 317T431 259T356 220T256 206Q242 206 228 207T201 211Q195 203 191 195T187 179Q187 165 206 156T253 138L327 117Q402 96 444 59T486 -38Q486 -77 471 -110T422 -169T337 -208T213
-222ZM251 -13Q245 -12 231 -8T201 1T174 10T162 14Q147 7 133 -1T107 -21T88 -45T81 -75Q81 -107 111 -124T208 -141Q273 -141 304 -123T336 -77Q336 -53 313 -39T251 -13ZM257 277Q299 277 321 319T343 424Q343 461 329 475T291 489Q249 489 226 448T203 344Q203
309 217 293T257 277ZM445 811Q405 806 379 798T338 779T316 755T308 726Q316 735 327 741T357 748Q384 748 400 732T417 689Q417 671 410 658T389 635T360 622T327 617Q282 617 255 641T227 710Q227 745 242 771T285 816T352 845T438 858L445 811Z" />
<glyph unicode="&#x124;" glyph-name="Hcircumflex" horiz-adv-x="784" d="M-15 72L63 90L159 632L88 649L100 721H421L409 649L340 632L302 412H527L565 632L501 649L513 721H834L821 649L745 632L649 90L719 72L707 0H386L398 72L469 88L511 326H286L244 88L307
72L294 0H-27L-15 72ZM296 808L457 946H533L653 806L620 769L486 835L321 769L296 808Z" />
<glyph unicode="&#x125;" glyph-name="hcircumflex" horiz-adv-x="641" d="M434 -10Q400 -10 378 8T355 68Q355 87 359 106L415 370Q420 397 415 416T384 436Q349 436 319 415T263 368L185 0H22L167 684L101 701L113 770L333 795L347 787L282 461H288Q326 503
373 532T482 562Q533 562 561 534T590 452Q590 427 584 397L519 90Q537 92 553 96T583 104Q598 108 611 113L591 35Q563 16 522 3T434 -10ZM236 865L397 1003H473L593 863L560 826L426 892L261 826L236 865Z" />
<glyph unicode="&#x126;" glyph-name="Hbar" horiz-adv-x="784" d="M55 558H146L160 635L89 653L100 721H421L410 653L341 636L327 558H552L566 636L501 653L513 721H834L822 653L746 635L732 558H823L812 495H721L649 90L719 72L707 0H386L398 72L469 88L510
322H285L244 88L307 72L294 0H-27L-15 72L63 90L135 495H43L55 558ZM525 404L541 495H316L300 404H525Z" />
<glyph unicode="&#x127;" glyph-name="hbar" horiz-adv-x="641" d="M87 690H168L187 779L333 795L347 787L327 690H491L478 622H314L282 461H288Q307 480 328 498T373 529T424 551T482 559Q533 559 561 532T590 452Q590 427 584 397L519 90Q537 92 553 96T583
104Q598 108 611 113L591 35Q563 16 522 3T434 -10Q400 -10 378 8T355 68Q355 87 359 106L415 370Q418 383 418 395T416 416T405 430T384 436Q349 436 319 415T263 368L185 0H22L153 622H75L87 690Z" />
<glyph unicode="&#x128;" glyph-name="Itilde" horiz-adv-x="372" d="M-18 72L59 90L155 632L85 649L97 721H425L413 649L335 632L239 90L310 72L298 0H-30L-18 72ZM334 811Q361 864 393 897T467 930Q484 930 505 925T547 912T586 900T615 894Q632 894 646 905T675
937L728 904Q701 851 670 820T596 788Q579 788 558 793T517 805T478 816T447 822Q430 822 416 810T387 778L334 811Z" />
<glyph unicode="&#x129;" glyph-name="itilde" horiz-adv-x="338" d="M211 92Q230 94 247 98T278 106Q294 110 308 115L288 37Q259 18 216 5T127 -8Q94 -8 71 9T47 68Q47 83 52 106L128 442Q109 439 92 435T60 427Q43 423 29 419L46 497Q61 510 82 521T128 542T177
556T223 562Q251 562 273 548T295 493Q295 485 294 476T291 457L211 92ZM39 662Q66 715 98 747T172 780Q189 780 209 775T248 763T285 751T313 745Q330 745 344 756T373 788L426 755Q399 702 368 670T294 638Q277 638 257 643T218 655T181 667T152 673Q135 673
121 661T92 628L39 662Z" />
<glyph unicode="&#x12a;" glyph-name="Imacron" horiz-adv-x="372" d="M-18 72L59 90L155 632L85 649L97 721H425L413 649L335 632L239 90L310 72L298 0H-30L-18 72ZM384 885H707L692 798H369L384 885Z" />
<glyph unicode="&#x12b;" glyph-name="imacron" horiz-adv-x="338" d="M103 740H380L364 653H88L103 740ZM211 92Q230 94 247 98T278 106Q294 110 308 115L288 37Q259 18 216 5T127 -8Q94 -8 71 9T47 68Q47 83 52 106L128 442Q109 439 92 435T60 427Q43 423 29
419L46 497Q61 510 82 521T128 542T177 556T223 562Q251 562 273 548T295 493Q295 485 294 476T291 457L211 92Z" />
<glyph unicode="&#x12c;" glyph-name="Ibreve" horiz-adv-x="372" d="M-18 72L59 90L155 632L85 649L97 721H425L413 649L335 632L239 90L310 72L298 0H-30L-18 72ZM276 781Q241 781 212 792T163 825T131 875T120 938H202Q205 916 224 900T280 883Q318 883 339
897T369 938H452Q441 862 395 822T276 781Z" />
<glyph unicode="&#x12d;" glyph-name="ibreve" horiz-adv-x="338" d="M211 92Q230 94 247 98T278 106Q294 110 308 115L288 37Q259 18 216 5T127 -8Q94 -8 71 9T47 68Q47 83 52 106L128 442Q109 439 92 435T60 427Q43 423 29 419L46 497Q61 510 82 521T128 542T177
556T223 562Q251 562 273 548T295 493Q295 485 294 476T291 457L211 92ZM484 627Q415 627 375 670T334 788H416Q420 762 436 746T488 729Q523 729 543 745T572 788H655Q643 713 599 670T484 627Z" />
<glyph unicode="&#x12e;" glyph-name="Iogonek" horiz-adv-x="372" d="M-18 72L59 90L155 632L85 649L97 721H425L413 649L335 632L239 90L310 72L298 0H213Q182 -29 165 -58T147 -111Q147 -145 186 -145Q199 -145 208 -143T228 -137L218 -202Q202 -211 178 -216T129
-222Q65 -222 36 -196T7 -134Q7 -111 17 -91T45 -53T84 -23T128 0H-30L-18 72Z" />
<glyph unicode="&#x12f;" glyph-name="iogonek" horiz-adv-x="338" d="M140 -222Q75 -222 46 -197T17 -137Q17 -115 27 -96T54 -61T93 -32T139 -10H127Q94 -10 71 8T47 68Q47 83 52 106L128 442Q109 439 92 435T60 427Q43 423 29 419L46 497Q61 510 82 521T128
542T177 556T223 562Q251 562 273 548T295 493Q295 485 294 476T291 457L211 90Q230 92 247 96T278 104Q294 108 308 113L288 35Q264 18 241 1T199 -35T169 -73T158 -111Q158 -145 196 -145Q210 -145 219 -143T238 -137L228 -202Q213 -211 189 -216T140 -222ZM233
622Q196 622 171 644T146 702Q146 742 172 765T236 789Q274 789 298 766T323 708Q323 668 297 645T233 622Z" />
<glyph unicode="&#x130;" glyph-name="Idotaccent" horiz-adv-x="372" d="M-18 72L59 90L155 632L85 649L97 721H425L413 649L335 632L239 90L310 72L298 0H-30L-18 72ZM528 776Q491 776 466 798T441 857Q441 897 467 920T531 943Q569 943 593 921T618 863Q618
822 592 799T528 776Z" />
<glyph unicode="&#x131;" glyph-name="dotlessi" horiz-adv-x="338" d="M211 92Q230 94 247 98T278 106Q294 110 308 115L288 37Q259 18 216 5T127 -8Q94 -8 71 9T47 68Q47 83 52 106L128 442Q109 439 92 435T60 427Q43 423 29 419L46 497Q61 510 82 521T128 542T177
556T223 562Q251 562 273 548T295 493Q295 485 294 476T291 457L211 92Z" />
<glyph unicode="&#x132;" glyph-name="IJ" horiz-adv-x="859" d="M-18 72L59 90L155 632L85 649L97 721H425L413 649L335 632L239 90L310 72L298 0H-30L-18 72ZM505 -8Q458 -8 426 2T375 28T346 65T337 107Q337 129 345 145T366 175H470V87Q475 86 479 86T487
86Q522 86 543 112T576 201L652 632L581 649L593 721H916L903 649L833 632L755 192Q738 95 675 44T505 -8Z" />
<glyph unicode="&#x133;" glyph-name="ij" horiz-adv-x="645" d="M211 90Q230 92 247 96T278 104Q294 108 308 113L288 35Q259 16 216 3T127 -10Q94 -10 71 8T47 68Q47 83 52 106L128 442Q109 439 92 435T60 427Q43 423 29 419L46 497Q61 510 82 521T128 542T177
556T223 562Q251 562 273 548T295 493Q295 485 294 476T291 457L211 90ZM233 622Q196 622 171 644T146 702Q146 742 172 765T236 789Q274 789 298 766T323 708Q323 668 297 645T233 622ZM282 -216Q250 -216 226 -208T184 -187T158 -157T149 -122Q149 -107 156 -93T175
-68H265V-141H271Q288 -141 301 -137T324 -120T342 -85T358 -28L454 442Q435 439 418 435T387 427Q371 423 356 419L373 497Q388 510 409 521T455 542T503 556T549 562Q562 562 575 559T598 548T615 527T621 493Q621 476 617 457L523 3Q510 -60 487 -102T433 -169T363
-205T282 -216ZM561 622Q524 622 499 644T474 702Q474 742 500 765T564 789Q602 789 626 766T651 708Q651 668 625 645T561 622Z" />
<glyph unicode="&#x134;" glyph-name="Jcircumflex" horiz-adv-x="517" d="M153 -8Q106 -8 74 2T21 28T-9 65T-19 107Q-19 129 -11 145T9 175H118V88Q123 86 128 86T140 86Q179 86 201 113T234 208L309 632L238 649L251 721H573L561 649L490 632L414 202Q396 98
329 45T153 -8ZM241 808L402 946H478L598 806L565 769L431 835L266 769L241 808Z" />
<glyph unicode="&#x135;" glyph-name="jcircumflex" horiz-adv-x="319" d="M-43 -216Q-75 -216 -99 -208T-141 -187T-167 -157T-176 -122Q-176 -107 -169 -93T-150 -68H-60V-141H-54Q-37 -141 -24 -137T-1 -120T17 -85T33 -28L127 442Q109 439 92 435T61 427Q45
423 31 419L48 497Q63 510 84 521T130 542T178 556T224 562Q237 562 250 559T273 548T290 527T296 493Q296 476 292 457L198 3Q185 -60 162 -102T108 -169T38 -205T-43 -216ZM301 651L462 802H539L650 650L617 613L488 690L326 613L301 651Z" />
<glyph unicode="&#x136;" glyph-name="Kcommaaccent" horiz-adv-x="733" d="M-16 72L62 90L158 632L87 649L99 721H420L408 649L338 633L289 358L568 632L506 649L519 721H778L765 649L702 631L479 419L622 89L681 72L669 0H470L342 304L272 257L242 88L305 72L293
0H-28L-16 72ZM193 -243Q233 -238 259 -230T301 -211T323 -187T331 -158Q323 -166 312 -172T281 -179Q254 -179 238 -163T221 -121Q221 -103 229 -90T249 -67T278 -53T312 -48Q357 -48 384 -72T412 -141Q412 -176 397 -202T353 -247T286 -276T201 -289L193 -243Z"
/>
<glyph unicode="&#x137;" glyph-name="kcommaaccent" horiz-adv-x="611" d="M163 684L97 701L109 770L330 795L343 787L247 310L274 313Q297 315 314 323T346 350T375 398T406 469Q428 523 460 542T531 562Q545 562 558 558T581 547T599 534T609 521L596 442H515Q494
404 468 368T407 311L490 90Q507 92 521 96T547 104Q559 108 570 113L551 35Q523 16 497 3T435 -10Q401 -10 378 6T338 55T308 133T279 239H233L185 0H22L163 684ZM381 -243Q421 -238 447 -230T489 -211T511 -187T519 -158Q511 -166 500 -172T469 -179Q442 -179
426 -163T409 -121Q409 -103 417 -90T437 -67T466 -53T500 -48Q545 -48 572 -72T600 -141Q600 -176 585 -202T541 -247T474 -276T389 -289L381 -243Z" />
<glyph unicode="&#x139;" glyph-name="Lacute" horiz-adv-x="613" d="M-15 72L62 90L158 632L87 649L99 721H435L422 649L339 633L244 91H419L486 246H581L534 0H-28L-15 72ZM138 826L382 962L425 841L158 767L138 826Z" />
<glyph unicode="&#x13a;" glyph-name="lacute" horiz-adv-x="332" d="M199 90Q219 92 237 96T269 105Q286 109 300 115L280 37Q252 17 210 4T116 -10Q83 -10 60 8T37 69Q37 87 41 106L161 685L93 702L105 770L326 795L340 787L199 90ZM139 883L383 1019L426 898L159
824L139 883Z" />
<glyph unicode="&#x13b;" glyph-name="Lcommaaccent" horiz-adv-x="613" d="M-15 72L62 90L158 632L87 649L99 721H435L422 649L339 633L244 91H419L486 246H581L534 0H-28L-15 72ZM395 -243Q435 -238 461 -230T503 -211T525 -187T533 -158Q525 -166 514 -172T483
-179Q456 -179 440 -163T423 -121Q423 -103 431 -90T451 -67T480 -53T514 -48Q559 -48 586 -72T614 -141Q614 -176 599 -202T555 -247T488 -276T403 -289L395 -243Z" />
<glyph unicode="&#x13c;" glyph-name="lcommaaccent" horiz-adv-x="332" d="M199 90Q219 92 237 96T269 105Q286 109 300 115L280 37Q252 17 210 4T116 -10Q83 -10 60 8T37 69Q37 87 41 106L161 685L93 702L105 770L326 795L340 787L199 90ZM-14 -243Q26 -238
52 -230T94 -211T116 -187T124 -158Q116 -166 105 -172T74 -179Q47 -179 31 -163T14 -121Q14 -103 22 -90T42 -67T71 -53T105 -48Q150 -48 177 -72T205 -141Q205 -176 190 -202T146 -247T79 -276T-6 -289L-14 -243Z" />
<glyph unicode="&#x13d;" glyph-name="Lcaron" horiz-adv-x="613" d="M-15 72L62 90L158 632L87 649L99 721H435L422 649L339 633L244 91H419L486 246H581L534 0H-28L-15 72ZM460 545Q474 585 487 639T509 741H644Q627 681 601 634T539 545H460Z" />
<glyph unicode="&#x13e;" glyph-name="lcaron" horiz-adv-x="332" d="M199 90Q219 92 237 96T269 105Q286 109 300 115L280 37Q252 17 210 4T116 -10Q83 -10 60 8T37 69Q37 87 41 106L161 685L93 702L105 770L326 795L340 787L199 90ZM347 595Q361 635 374 689T396
791H531Q514 731 488 684T426 595H347Z" />
<glyph unicode="&#x13f;" glyph-name="Ldot" horiz-adv-x="629" d="M543 316Q504 316 480 341T456 401Q456 442 482 467T548 493Q587 493 611 468T635 407Q635 368 609 342T543 316ZM-15 72L62 90L158 632L87 649L99 721H435L422 649L339 633L244 91H419L481 221H577L534
0H-28L-15 72Z" />
<glyph unicode="&#x140;" glyph-name="ldot" horiz-adv-x="468" d="M410 298Q374 298 351 322T328 379Q328 414 351 438T412 463Q448 463 471 439T494 381Q494 346 471 322T410 298ZM199 90Q219 92 237 96T269 105Q286 109 300 115L280 37Q252 17 210 4T116 -10Q83
-10 60 8T37 69Q37 87 41 106L161 685L93 702L105 770L326 795L340 787L199 90Z" />
<glyph unicode="&#x141;" glyph-name="Lslash" horiz-adv-x="613" d="M-15 72L62 90L91 253L9 225L25 317L107 345L158 632L87 649L99 721H435L422 649L339 633L300 413L504 484L487 391L284 320L244 91H419L486 246H581L534 0H-28L-15 72Z" />
<glyph unicode="&#x142;" glyph-name="lslash" horiz-adv-x="335" d="M282 497L368 537L350 446L264 406L200 90Q220 92 238 96T270 105Q287 109 301 115L281 37Q253 17 211 4T117 -10Q84 -10 61 8T38 69Q38 87 42 106L87 324L11 289L28 379L106 415L162 685L94
702L106 770L327 795L341 787L282 497Z" />
<glyph unicode="&#x143;" glyph-name="Nacute" horiz-adv-x="755" d="M-15 72L64 90L160 632L88 649L100 721H358L483 416Q496 384 507 350T526 286Q536 252 543 220H548L621 631L548 649L560 721H811L799 649L730 632L616 0H472L319 373Q306 405 296 439T278
502Q269 535 262 568H258L173 89L246 72L234 0H-27L-15 72ZM357 826L601 962L644 841L377 767L357 826Z" />
<glyph unicode="&#x144;" glyph-name="nacute" horiz-adv-x="648" d="M526 90Q544 92 560 96T590 104Q605 108 618 113L598 35Q570 16 529 3T441 -10Q407 -10 385 8T362 68Q362 87 366 106L422 370Q425 383 425 395T423 416T412 430T391 436Q356 436 327 415T272
368L194 0H30L125 442Q106 439 90 435T59 427Q43 423 29 419L46 497Q61 510 81 521T124 542T171 556T216 562Q231 562 245 559T269 546T285 521T288 481Q288 477 286 467Q285 462 285 457H291Q334 502 380 532T489 562Q540 562 568 534T597 452Q597 427 591 397L526
90ZM270 674L509 816L557 696L291 616L270 674Z" />
<glyph unicode="&#x145;" glyph-name="Ncommaaccent" horiz-adv-x="755" d="M-15 72L64 90L160 632L88 649L100 721H358L483 416Q496 384 507 350T526 286Q536 252 543 220H548L621 631L548 649L560 721H811L799 649L730 632L616 0H472L319 373Q306 405 296 439T278
502Q269 535 262 568H258L173 89L246 72L234 0H-27L-15 72ZM212 -243Q252 -238 278 -230T320 -211T342 -187T350 -158Q342 -166 331 -172T300 -179Q273 -179 257 -163T240 -121Q240 -103 248 -90T268 -67T297 -53T331 -48Q376 -48 403 -72T431 -141Q431 -176 416
-202T372 -247T305 -276T220 -289L212 -243Z" />
<glyph unicode="&#x146;" glyph-name="ncommaaccent" horiz-adv-x="648" d="M526 90Q544 92 560 96T590 104Q605 108 618 113L598 35Q570 16 529 3T441 -10Q407 -10 385 8T362 68Q362 87 366 106L422 370Q425 383 425 395T423 416T412 430T391 436Q356 436 327
415T272 368L194 0H30L125 442Q106 439 90 435T59 427Q43 423 29 419L46 497Q61 510 81 521T124 542T171 556T216 562Q231 562 245 559T269 546T285 521T288 481Q288 477 286 467Q285 462 285 457H291Q334 502 380 532T489 562Q540 562 568 534T597 452Q597 427
591 397L526 90ZM155 -243Q195 -238 221 -230T263 -211T285 -187T293 -158Q285 -166 274 -172T243 -179Q216 -179 200 -163T183 -121Q183 -103 191 -90T211 -67T240 -53T274 -48Q319 -48 346 -72T374 -141Q374 -176 359 -202T315 -247T248 -276T163 -289L155 -243Z"
/>
<glyph unicode="&#x147;" glyph-name="Ncaron" horiz-adv-x="755" d="M-15 72L64 90L160 632L88 649L100 721H358L483 416Q496 384 507 350T526 286Q536 252 543 220H548L621 631L548 649L560 721H811L799 649L730 632L616 0H472L319 373Q306 405 296 439T278
502Q269 535 262 568H258L173 89L246 72L234 0H-27L-15 72ZM680 919L519 781H443L323 921L356 958L490 892L655 958L680 919Z" />
<glyph unicode="&#x148;" glyph-name="ncaron" horiz-adv-x="648" d="M526 90Q544 92 560 96T590 104Q605 108 618 113L598 35Q570 16 529 3T441 -10Q407 -10 385 8T362 68Q362 87 366 106L422 370Q425 383 425 395T423 416T412 430T391 436Q356 436 327 415T272
368L194 0H30L125 442Q106 439 90 435T59 427Q43 423 29 419L46 497Q61 510 81 521T124 542T171 556T216 562Q231 562 245 559T269 546T285 521T288 481Q288 477 286 467Q285 462 285 457H291Q334 502 380 532T489 562Q540 562 568 534T597 452Q597 427 591 397L526
90ZM577 771L416 621H339L228 773L261 810L390 732L552 810L577 771Z" />
<glyph unicode="&#x149;" glyph-name="napostrophe" horiz-adv-x="704" d="M581 90Q599 92 615 96T645 104Q660 108 673 113L653 35Q625 16 584 3T496 -10Q462 -10 440 8T417 68Q417 87 421 106L477 370Q480 383 480 395T478 416T467 430T446 436Q411 436 382
415T327 368L249 0H85L180 442Q161 439 145 435T114 427Q98 423 84 419L101 497Q116 510 136 521T179 542T226 556T271 562Q286 562 300 559T324 546T340 521T343 481Q343 477 341 467Q340 462 340 457H346Q389 502 435 532T544 562Q595 562 623 534T652 452Q652
427 646 397L581 90ZM-8 733Q37 733 63 704T90 629Q90 597 79 563T42 496T-29 438T-139 395L-155 443Q-85 472 -49 507T-5 589Q-19 577 -43 577Q-68 579 -85 597T-103 646Q-103 666 -95 682T-74 709T-44 727T-8 733Z" />
<glyph unicode="&#x14a;" glyph-name="Eng" horiz-adv-x="747" d="M-17 72L62 90L158 632L86 649L99 721H356L481 425Q495 392 506 358T526 296Q536 263 544 233H549L619 631L549 649L561 721H809L797 649L728 632L614 2Q597 -88 547 -137T412 -186Q373 -186 345
-177T300 -152T274 -118T266 -79Q266 -58 273 -43T292 -15H396V-97Q400 -98 412 -98Q439 -98 459 -83T492 -30L320 376Q306 408 295 442T276 505Q267 538 260 568H256L171 89L240 72L228 0H-29L-17 72Z" />
<glyph unicode="&#x14b;" glyph-name="eng" horiz-adv-x="629" d="M422 370Q427 396 423 416T391 436Q356 436 327 415T272 368L194 0H30L125 442Q106 439 90 435T59 427Q43 423 29 419L46 497Q61 510 81 521T124 542T171 556T216 562Q231 562 245 559T269 546T285
521T288 481Q288 477 286 467Q285 462 285 457H291Q334 503 380 532T489 562Q540 562 568 534T597 452Q597 427 591 397L519 35Q504 -39 480 -87T423 -164T353 -204T272 -216Q210 -216 178 -187T146 -122Q146 -107 153 -93T172 -68H258V-141H264Q280 -141 292 -136T315
-117T334 -78T350 -13L422 370Z" />
<glyph unicode="&#x14c;" glyph-name="Omacron" horiz-adv-x="723" d="M331 -11Q262 -11 208 10T115 70T56 164T36 289Q36 396 68 478T154 617T275 703T411 733Q481 733 536 712T630 652T689 558T710 433Q710 325 679 242T594 103T473 18T331 -11ZM337 84Q384
84 420 117T480 205T516 332T529 481Q529 562 499 600T408 638Q362 638 326 605T266 517T228 390T215 241Q215 161 244 123T337 84ZM297 885H620L605 798H282L297 885Z" />
<glyph unicode="&#x14d;" glyph-name="omacron" d="M256 -13Q200 -13 156 4T81 53T34 126T18 219Q18 291 41 354T107 463T207 535T336 562Q390 562 433 544T506 494T553 420T569 330Q569 258 548 196T486 87T388 14T256 -13ZM265 74Q294 74 318 93T361 150T389
240T399 359Q399 413 381 444T321 476Q293 476 269 456T226 399T197 309T186 190Q186 134 204 104T265 74ZM208 740H531L516 653H193L208 740Z" />
<glyph unicode="&#x14e;" glyph-name="Obreve" horiz-adv-x="723" d="M331 -11Q262 -11 208 10T115 70T56 164T36 289Q36 396 68 478T154 617T275 703T411 733Q481 733 536 712T630 652T689 558T710 433Q710 325 679 242T594 103T473 18T331 -11ZM337 84Q384 84
420 117T480 205T516 332T529 481Q529 562 499 600T408 638Q362 638 326 605T266 517T228 390T215 241Q215 161 244 123T337 84ZM446 781Q411 781 382 792T333 825T301 875T290 938H372Q375 916 394 900T450 883Q488 883 509 897T539 938H622Q611 862 565 822T446
781Z" />
<glyph unicode="&#x14f;" glyph-name="obreve" d="M256 -13Q200 -13 156 4T81 53T34 126T18 219Q18 291 41 354T107 463T207 535T336 562Q390 562 433 544T506 494T553 420T569 330Q569 258 548 196T486 87T388 14T256 -13ZM265 74Q294 74 318 93T361 150T389
240T399 359Q399 413 381 444T321 476Q293 476 269 456T226 399T197 309T186 190Q186 134 204 104T265 74ZM347 627Q278 627 238 670T197 788H279Q283 762 299 746T351 729Q386 729 406 745T435 788H518Q506 713 462 670T347 627Z" />
<glyph unicode="&#x150;" glyph-name="Ohungarumlaut" horiz-adv-x="723" d="M331 -11Q262 -11 208 10T115 70T56 164T36 289Q36 396 68 478T154 617T275 703T411 733Q481 733 536 712T630 652T689 558T710 433Q710 325 679 242T594 103T473 18T331 -11ZM337 84Q384
84 420 117T480 205T516 332T529 481Q529 562 499 600T408 638Q362 638 326 605T266 517T228 390T215 241Q215 161 244 123T337 84ZM302 797L405 974L503 895L341 764L302 797ZM500 797L602 974L701 895L538 764L500 797Z" />
<glyph unicode="&#x151;" glyph-name="ohungarumlaut" d="M256 -13Q200 -13 156 4T81 53T34 126T18 219Q18 291 41 354T107 463T207 535T336 562Q390 562 433 544T506 494T553 420T569 330Q569 258 548 196T486 87T388 14T256 -13ZM265 74Q294 74 318 93T361 150T389
240T399 359Q399 413 381 444T321 476Q293 476 269 456T226 399T197 309T186 190Q186 134 204 104T265 74ZM208 635L315 825L417 750L249 603L208 635ZM409 635L516 825L618 750L450 603L409 635Z" />
<glyph unicode="&#x152;" glyph-name="OE" horiz-adv-x="993" d="M414 93L509 629H433Q327 629 273 532T219 250Q219 203 229 173T258 125T304 100T368 93H414ZM352 0Q278 0 219 17T119 70T56 159T34 284Q34 383 62 463T142 601T268 689T433 721H997L983 523H897L874
632H683L643 410H727L757 487H833L798 249H723L716 327H629L587 89H802L865 222H956L912 0H352Z" />
<glyph unicode="&#x153;" glyph-name="oe" horiz-adv-x="889" d="M613 -12Q544 -12 503 13T442 83Q407 38 359 13T250 -13Q194 -13 151 4T79 53T34 126T18 219Q18 291 41 354T105 463T202 535T326 562Q396 562 440 532T505 448Q544 501 599 531T726 562Q763 562
794 553T847 528T882 487T895 433Q895 382 870 346T799 286T691 249T555 230Q555 228 555 220T554 209Q554 146 580 121T664 96Q699 96 737 105T816 135L796 52Q768 29 720 9T613 -12ZM263 74Q291 74 315 93T357 150T384 240T394 359Q394 413 377 444T318 476Q291
476 267 456T225 399T197 309T186 190Q186 134 203 104T263 74ZM700 480Q675 480 653 467T614 430T584 374T564 304Q648 312 694 339T741 426Q741 480 700 480Z" />
<glyph unicode="&#x154;" glyph-name="Racute" horiz-adv-x="707" d="M-16 72L64 90L160 630L89 649L102 721H424Q488 721 534 707T611 669T657 610T672 534Q672 487 658 454T621 397T568 359T507 336V332L611 87L658 72L645 0H459L343 299H282L244 88L304 72L291
0H-28L-16 72ZM371 384Q407 384 430 395T468 427T489 476T495 538Q495 629 400 629H337L294 384H371ZM276 826L520 962L563 841L296 767L276 826Z" />
<glyph unicode="&#x155;" glyph-name="racute" horiz-adv-x="494" d="M361 381V442Q335 428 312 407T269 360L193 0H30L124 442Q106 439 89 435T58 427Q42 423 28 419L45 497Q60 510 80 521T124 542T170 556T215 562Q246 562 267 546T284 483Q284 481 284 477T282
467Q281 461 280 454H286Q324 511 362 536T436 562Q469 562 490 542T511 489Q511 457 497 428T466 381H361ZM202 674L441 816L489 696L223 616L202 674Z" />
<glyph unicode="&#x156;" glyph-name="Rcommaaccent" horiz-adv-x="707" d="M-16 72L64 90L160 630L89 649L102 721H424Q488 721 534 707T611 669T657 610T672 534Q672 487 658 454T621 397T568 359T507 336V332L611 87L658 72L645 0H459L343 299H282L244 88L304
72L291 0H-28L-16 72ZM371 384Q407 384 430 395T468 427T489 476T495 538Q495 629 400 629H337L294 384H371ZM203 -243Q243 -238 269 -230T311 -211T333 -187T341 -158Q333 -166 322 -172T291 -179Q264 -179 248 -163T231 -121Q231 -103 239 -90T259 -67T288 -53T322
-48Q367 -48 394 -72T422 -141Q422 -176 407 -202T363 -247T296 -276T211 -289L203 -243Z" />
<glyph unicode="&#x157;" glyph-name="rcommaaccent" horiz-adv-x="494" d="M361 381V442Q335 428 312 407T269 360L193 0H30L124 442Q106 439 89 435T58 427Q42 423 28 419L45 497Q60 510 80 521T124 542T170 556T215 562Q246 562 267 546T284 483Q284 481 284
477T282 467Q281 461 280 454H286Q324 511 362 536T436 562Q469 562 490 542T511 489Q511 457 497 428T466 381H361ZM-30 -243Q10 -238 36 -230T78 -211T100 -187T108 -158Q100 -166 89 -172T58 -179Q31 -179 15 -163T-2 -121Q-2 -103 6 -90T26 -67T55 -53T89 -48Q134
-48 161 -72T189 -141Q189 -176 174 -202T130 -247T63 -276T-22 -289L-30 -243Z" />
<glyph unicode="&#x158;" glyph-name="Rcaron" horiz-adv-x="707" d="M-16 72L64 90L160 630L89 649L102 721H424Q488 721 534 707T611 669T657 610T672 534Q672 487 658 454T621 397T568 359T507 336V332L611 87L658 72L645 0H459L343 299H282L244 88L304 72L291
0H-28L-16 72ZM371 384Q407 384 430 395T468 427T489 476T495 538Q495 629 400 629H337L294 384H371ZM595 919L434 781H358L238 921L271 958L405 892L570 958L595 919Z" />
<glyph unicode="&#x159;" glyph-name="rcaron" horiz-adv-x="494" d="M361 381V442Q335 428 312 407T269 360L193 0H30L124 442Q106 439 89 435T58 427Q42 423 28 419L45 497Q60 510 80 521T124 542T170 556T215 562Q246 562 267 546T284 483Q284 481 284 477T282
467Q281 461 280 454H286Q324 511 362 536T436 562Q469 562 490 542T511 489Q511 457 497 428T466 381H361ZM509 771L348 621H271L160 773L193 810L322 732L484 810L509 771Z" />
<glyph unicode="&#x15a;" glyph-name="Sacute" horiz-adv-x="570" d="M239 -12Q153 -12 95 2T-5 40L15 201H116L130 110Q147 98 170 90T231 81Q287 81 320 106T354 182Q354 199 350 213T334 240T306 266T261 293L217 316Q153 351 118 395T82 508Q82 560 101 602T155
673T240 717T350 733Q393 733 425 730T483 720T528 706T564 690L550 545H448L435 616Q423 624 403 633T344 642Q297 642 269 620T240 552Q240 537 244 525T257 500T283 476T325 450L369 427Q405 407 433 388T481 347T511 299T522 238Q522 120 450 54T239 -12ZM244
826L488 962L531 841L264 767L244 826Z" />
<glyph unicode="&#x15b;" glyph-name="sacute" horiz-adv-x="458" d="M178 -14Q128 -14 91 -4T28 22T-9 60T-21 106Q-21 123 -14 139T5 166H115V82Q128 76 143 72T177 68Q218 68 243 85T268 134Q268 162 250 176T194 210L160 227Q109 253 83 289T56 380Q56 420
71 453T114 511T184 548T278 562Q368 562 410 532T453 457Q453 443 446 426T428 395H321V472Q302 483 277 483Q239 483 217 468T195 422Q195 399 210 383T263 347L297 330Q351 303 383 267T416 173Q416 135 401 101T357 42T283 1T178 -14ZM432 674L671 816L719
696L453 616L432 674Z" />
<glyph unicode="&#x15c;" glyph-name="Scircumflex" horiz-adv-x="570" d="M239 -12Q153 -12 95 2T-5 40L15 201H116L130 110Q147 98 170 90T231 81Q287 81 320 106T354 182Q354 199 350 213T334 240T306 266T261 293L217 316Q153 351 118 395T82 508Q82 560 101
602T155 673T240 717T350 733Q393 733 425 730T483 720T528 706T564 690L550 545H448L435 616Q423 624 403 633T344 642Q297 642 269 620T240 552Q240 537 244 525T257 500T283 476T325 450L369 427Q405 407 433 388T481 347T511 299T522 238Q522 120 450 54T239
-12ZM182 808L343 946H419L539 806L506 769L372 835L207 769L182 808Z" />
<glyph unicode="&#x15d;" glyph-name="scircumflex" horiz-adv-x="458" d="M178 -14Q128 -14 91 -4T28 22T-9 60T-21 106Q-21 123 -14 139T5 166H115V82Q128 76 143 72T177 68Q218 68 243 85T268 134Q268 162 250 176T194 210L160 227Q109 253 83 289T56 380Q56
420 71 453T114 511T184 548T278 562Q368 562 410 532T453 457Q453 443 446 426T428 395H321V472Q302 483 277 483Q239 483 217 468T195 422Q195 399 210 383T263 347L297 330Q351 303 383 267T416 173Q416 135 401 101T357 42T283 1T178 -14ZM362 651L523 802H600L711
650L678 613L549 690L387 613L362 651Z" />
<glyph unicode="&#x15e;" glyph-name="Scedilla" horiz-adv-x="570" d="M82 -190Q120 -189 145 -186T186 -177T207 -163T213 -144Q213 -131 198 -123T138 -109L160 -8Q106 -2 67 10T-5 40L15 201H116L130 110Q147 98 170 90T231 81Q287 81 320 106T354 182Q354
199 350 213T334 240T306 266T261 293L217 316Q153 351 118 395T82 508Q82 560 101 602T155 673T240 717T350 733Q393 733 425 730T483 720T528 706T564 690L550 545H448L435 616Q423 624 403 633T344 642Q297 642 269 620T240 552Q240 537 244 525T257 500T283
476T325 450L369 427Q405 407 433 388T481 347T511 299T522 238Q522 120 450 54T239 -12H225L214 -58Q276 -65 302 -84T328 -135Q328 -159 317 -179T276 -212T198 -233T74 -241L82 -190Z" />
<glyph unicode="&#x15f;" glyph-name="scedilla" horiz-adv-x="458" d="M25 -190Q63 -189 88 -186T129 -177T150 -163T156 -144Q156 -131 141 -123T81 -109L103 -7Q40 6 10 37T-21 106Q-21 123 -14 139T5 166H115V82Q128 76 143 72T177 68Q218 68 243 85T268 134Q268
162 250 176T194 210L160 227Q109 253 83 289T56 380Q56 420 71 453T114 511T184 548T278 562Q368 562 410 532T453 457Q453 443 446 426T428 395H321V472Q302 483 277 483Q239 483 217 468T195 422Q195 399 210 383T263 347L297 330Q351 303 383 267T416 173Q416
135 401 101T357 42T283 1T178 -14H167L157 -58Q219 -65 245 -84T271 -135Q271 -159 260 -179T219 -212T141 -233T17 -241L25 -190Z" />
<glyph unicode="&#x160;" glyph-name="Scaron" horiz-adv-x="570" d="M239 -12Q153 -12 95 2T-5 40L15 201H116L130 110Q147 98 170 90T231 81Q287 81 320 106T354 182Q354 199 350 213T334 240T306 266T261 293L217 316Q153 351 118 395T82 508Q82 560 101 602T155
673T240 717T350 733Q393 733 425 730T483 720T528 706T564 690L550 545H448L435 616Q423 624 403 633T344 642Q297 642 269 620T240 552Q240 537 244 525T257 500T283 476T325 450L369 427Q405 407 433 388T481 347T511 299T522 238Q522 120 450 54T239 -12ZM552
919L391 781H315L195 921L228 958L362 892L527 958L552 919Z" />
<glyph unicode="&#x161;" glyph-name="scaron" horiz-adv-x="458" d="M178 -14Q128 -14 91 -4T28 22T-9 60T-21 106Q-21 123 -14 139T5 166H115V82Q128 76 143 72T177 68Q218 68 243 85T268 134Q268 162 250 176T194 210L160 227Q109 253 83 289T56 380Q56 420
71 453T114 511T184 548T278 562Q368 562 410 532T453 457Q453 443 446 426T428 395H321V472Q302 483 277 483Q239 483 217 468T195 422Q195 399 210 383T263 347L297 330Q351 303 383 267T416 173Q416 135 401 101T357 42T283 1T178 -14ZM738 771L577 621H500L389
773L422 810L551 732L713 810L738 771Z" />
<glyph unicode="&#x162;" glyph-name="Tcommaaccent" horiz-adv-x="665" d="M122 72L205 90L301 632H205L154 497H54L101 721H708L683 497H584L575 632H481L385 90L461 72L449 0H109L122 72ZM397 -243Q437 -238 463 -230T505 -211T527 -187T535 -158Q527 -166
516 -172T485 -179Q458 -179 442 -163T425 -121Q425 -103 433 -90T453 -67T482 -53T516 -48Q561 -48 588 -72T616 -141Q616 -176 601 -202T557 -247T490 -276T405 -289L397 -243Z" />
<glyph unicode="&#x163;" glyph-name="tcommaaccent" horiz-adv-x="391" d="M201 89Q227 92 252 97T297 109Q320 116 340 124L320 45Q291 25 248 7T142 -11Q97 -11 70 11T43 82Q43 98 48 123L120 464H50L64 527L138 552L166 679H326L298 550H411L393 464H280L201
89ZM1 -243Q41 -238 67 -230T109 -211T131 -187T139 -158Q131 -166 120 -172T89 -179Q62 -179 46 -163T29 -121Q29 -103 37 -90T57 -67T86 -53T120 -48Q165 -48 192 -72T220 -141Q220 -176 205 -202T161 -247T94 -276T9 -289L1 -243Z" />
<glyph unicode="&#x164;" glyph-name="Tcaron" horiz-adv-x="665" d="M122 72L205 90L301 632H205L154 497H54L101 721H708L683 497H584L575 632H481L385 90L461 72L449 0H109L122 72ZM606 919L445 781H369L249 921L282 958L416 892L581 958L606 919Z" />
<glyph unicode="&#x165;" glyph-name="tcaron" horiz-adv-x="391" d="M201 89Q227 92 252 97T297 109Q320 116 340 124L320 45Q291 25 248 7T142 -11Q97 -11 70 11T43 82Q43 98 48 123L120 464H50L64 527L138 552L166 679H326L298 550H411L393 464H280L201 89ZM360
609Q374 649 387 703T409 805H544Q527 745 501 698T439 609H360Z" />
<glyph unicode="&#x166;" glyph-name="Tbar" horiz-adv-x="665" d="M132 419H263L301 632H205L154 497H54L101 721H708L683 497H584L575 632H481L443 419H575L562 340H429L385 90L461 72L449 0H109L122 72L205 90L249 340H118L132 419Z" />
<glyph unicode="&#x167;" glyph-name="tbar" horiz-adv-x="391" d="M260 371H375L359 292H244L201 89Q227 92 252 97T297 109Q320 116 340 124L320 45Q291 25 248 7T142 -11Q97 -11 70 11T43 82Q43 98 48 123L83 292H17L33 371H100L120 464H50L64 527L138 552L166
679H326L298 550H411L393 464H280L260 371Z" />
<glyph unicode="&#x168;" glyph-name="Utilde" horiz-adv-x="727" d="M358 -13Q281 -13 228 3T140 47T91 114T76 197Q76 211 77 225T81 255L147 632L80 649L93 721H413L401 649L328 633L261 252Q258 236 257 223T256 196Q256 139 285 114T378 88Q406 88 430 94T473
116T507 160T530 233L600 632L533 649L545 721H785L772 649L705 632L632 219Q612 110 546 49T358 -13ZM283 811Q310 864 342 897T416 930Q433 930 454 925T496 912T535 900T564 894Q581 894 595 905T624 937L677 904Q650 851 619 820T545 788Q528 788 507 793T466
805T427 816T396 822Q379 822 365 810T336 778L283 811Z" />
<glyph unicode="&#x169;" glyph-name="utilde" horiz-adv-x="636" d="M511 90Q529 92 546 96T576 104Q591 108 604 113L584 35Q556 16 516 3T433 -10Q389 -10 369 13T353 81L354 90H348Q327 67 306 49T263 17T216 -4T160 -12Q107 -12 79 17T50 102Q50 127 56 157L116
442Q98 438 81 435T50 427Q34 423 21 419L38 497Q53 510 73 521T115 542T160 556T205 562Q240 562 262 547T285 489Q285 480 284 469T280 446L224 180Q218 152 223 133T257 114Q291 114 315 132T368 179L446 550H610L511 90ZM181 662Q208 715 240 747T314 780Q331
780 351 775T390 763T427 751T455 745Q472 745 486 756T515 788L568 755Q541 702 510 670T436 638Q419 638 399 643T360 655T323 667T294 673Q277 673 263 661T234 628L181 662Z" />
<glyph unicode="&#x16a;" glyph-name="Umacron" horiz-adv-x="727" d="M358 -13Q281 -13 228 3T140 47T91 114T76 197Q76 211 77 225T81 255L147 632L80 649L93 721H413L401 649L328 633L261 252Q258 236 257 223T256 196Q256 139 285 114T378 88Q406 88 430 94T473
116T507 160T530 233L600 632L533 649L545 721H785L772 649L705 632L632 219Q612 110 546 49T358 -13ZM329 885H652L637 798H314L329 885Z" />
<glyph unicode="&#x16b;" glyph-name="umacron" horiz-adv-x="636" d="M511 90Q529 92 546 96T576 104Q591 108 604 113L584 35Q556 16 516 3T433 -10Q389 -10 369 13T353 81L354 90H348Q327 67 306 49T263 17T216 -4T160 -12Q107 -12 79 17T50 102Q50 127 56
157L116 442Q98 438 81 435T50 427Q34 423 21 419L38 497Q53 510 73 521T115 542T160 556T205 562Q240 562 262 547T285 489Q285 480 284 469T280 446L224 180Q218 152 223 133T257 114Q291 114 315 132T368 179L446 550H610L511 90ZM230 740H553L538 653H215L230
740Z" />
<glyph unicode="&#x16c;" glyph-name="Ubreve" horiz-adv-x="727" d="M358 -13Q281 -13 228 3T140 47T91 114T76 197Q76 211 77 225T81 255L147 632L80 649L93 721H413L401 649L328 633L261 252Q258 236 257 223T256 196Q256 139 285 114T378 88Q406 88 430 94T473
116T507 160T530 233L600 632L533 649L545 721H785L772 649L705 632L632 219Q612 110 546 49T358 -13ZM481 781Q446 781 417 792T368 825T336 875T325 938H407Q410 916 429 900T485 883Q523 883 544 897T574 938H657Q646 862 600 822T481 781Z" />
<glyph unicode="&#x16d;" glyph-name="ubreve" horiz-adv-x="636" d="M511 90Q529 92 546 96T576 104Q591 108 604 113L584 35Q556 16 516 3T433 -10Q389 -10 369 13T353 81L354 90H348Q327 67 306 49T263 17T216 -4T160 -12Q107 -12 79 17T50 102Q50 127 56 157L116
442Q98 438 81 435T50 427Q34 423 21 419L38 497Q53 510 73 521T115 542T160 556T205 562Q240 562 262 547T285 489Q285 480 284 469T280 446L224 180Q218 152 223 133T257 114Q291 114 315 132T368 179L446 550H610L511 90ZM375 627Q306 627 266 670T225 788H307Q311
762 327 746T379 729Q414 729 434 745T463 788H546Q534 713 490 670T375 627Z" />
<glyph unicode="&#x16e;" glyph-name="Uring" horiz-adv-x="727" d="M358 -13Q281 -13 228 3T140 47T91 114T76 197Q76 211 77 225T81 255L147 632L80 649L93 721H413L401 649L328 633L261 252Q258 236 257 223T256 196Q256 139 285 114T378 88Q406 88 430 94T473
116T507 160T530 233L600 632L533 649L545 721H785L772 649L705 632L632 219Q612 110 546 49T358 -13ZM478 744Q451 744 429 753T390 778T364 815T354 860Q354 885 364 907T391 946T432 971T482 981Q509 981 531 972T569 947T595 910T604 866Q604 840 595 818T568
780T528 754T478 744ZM479 793Q509 793 527 812T546 865Q546 894 529 913T481 932Q451 932 432 913T413 861Q413 831 431 812T479 793Z" />
<glyph unicode="&#x16f;" glyph-name="uring" horiz-adv-x="636" d="M511 90Q529 92 546 96T576 104Q591 108 604 113L584 35Q556 16 516 3T433 -10Q389 -10 369 13T353 81L354 90H348Q327 67 306 49T263 17T216 -4T160 -12Q107 -12 79 17T50 102Q50 127 56 157L116
442Q98 438 81 435T50 427Q34 423 21 419L38 497Q53 510 73 521T115 542T160 556T205 562Q240 562 262 547T285 489Q285 480 284 469T280 446L224 180Q218 152 223 133T257 114Q291 114 315 132T368 179L446 550H610L511 90ZM376 616Q349 616 327 625T288 650T262
687T252 732Q252 757 262 779T289 818T330 843T380 853Q407 853 429 844T467 819T493 782T502 738Q502 712 493 690T466 652T426 626T376 616ZM377 665Q407 665 425 684T444 737Q444 766 427 785T379 804Q349 804 330 785T311 733Q311 703 328 684T377 665Z" />
<glyph unicode="&#x170;" glyph-name="Uhungarumlaut" horiz-adv-x="727" d="M358 -13Q281 -13 228 3T140 47T91 114T76 197Q76 211 77 225T81 255L147 632L80 649L93 721H413L401 649L328 633L261 252Q258 236 257 223T256 196Q256 139 285 114T378 88Q406 88
430 94T473 116T507 160T530 233L600 632L533 649L545 721H785L772 649L705 632L632 219Q612 110 546 49T358 -13ZM338 797L441 974L539 895L377 764L338 797ZM536 797L638 974L737 895L574 764L536 797Z" />
<glyph unicode="&#x171;" glyph-name="uhungarumlaut" horiz-adv-x="636" d="M511 90Q529 92 546 96T576 104Q591 108 604 113L584 35Q556 16 516 3T433 -10Q389 -10 369 13T353 81L354 90H348Q327 67 306 49T263 17T216 -4T160 -12Q107 -12 79 17T50 102Q50 127
56 157L116 442Q98 438 81 435T50 427Q34 423 21 419L38 497Q53 510 73 521T115 542T160 556T205 562Q240 562 262 547T285 489Q285 480 284 469T280 446L224 180Q218 152 223 133T257 114Q291 114 315 132T368 179L446 550H610L511 90ZM230 635L337 825L439 750L271
603L230 635ZM431 635L538 825L640 750L472 603L431 635Z" />
<glyph unicode="&#x172;" glyph-name="Uogonek" horiz-adv-x="727" d="M349 -13Q275 -12 223 4T139 49T91 115T76 197Q76 211 77 225T81 255L147 632L80 649L93 721H413L401 649L328 633L261 252Q258 236 257 223T256 196Q256 139 285 114T378 88Q406 88 430 94T473
116T507 160T530 233L600 632L533 649L545 721H785L772 649L705 632L632 219Q621 159 597 113T531 37Q509 21 482 5T432 -29T392 -67T376 -111Q376 -145 415 -145Q428 -145 437 -143T457 -137L447 -202Q431 -211 407 -216T358 -222Q294 -222 265 -197T236 -137Q236
-116 245 -98T271 -64T308 -36T352 -13H349V-13Z" />
<glyph unicode="&#x173;" glyph-name="uogonek" horiz-adv-x="636" d="M441 -222Q376 -222 347 -197T318 -137Q318 -115 328 -96T354 -61T393 -32T439 -10Q390 -12 369 13T353 81L354 90H348Q327 67 306 49T263 17T216 -4T160 -12Q107 -12 79 17T50 102Q50 127
56 157L116 442Q98 438 81 435T50 427Q34 423 21 419L38 497Q53 510 73 521T115 542T160 556T205 562Q240 562 262 547T285 489Q285 480 284 469T280 446L224 180Q218 152 223 133T257 114Q291 114 315 132T368 179L446 550H610L511 90Q529 92 546 96T576 104Q591
108 604 113L584 35Q564 20 542 2T502 -35T471 -73T459 -111Q459 -145 497 -145Q511 -145 520 -143T539 -137L529 -202Q514 -211 490 -216T441 -222Z" />
<glyph unicode="&#x174;" glyph-name="Wcircumflex" horiz-adv-x="1010" d="M127 632L78 649L90 721H383L371 649L304 632L311 456Q314 393 313 321T309 154H314Q333 206 352 259Q369 304 388 355T426 450L541 721H673L695 467Q698 430 699 377T703 274Q704 216
705 153H710Q731 214 750 272Q758 297 767 323T785 374T802 422T818 463L885 632L820 649L832 721H1071L1058 649L997 632L743 0H571L555 248Q552 284 552 323T551 398T553 465T555 520H550Q534 473 517 426Q503 386 486 340T451 254L341 0H166L127 632ZM427 808L588
946H664L784 806L751 769L617 835L452 769L427 808Z" />
<glyph unicode="&#x175;" glyph-name="wcircumflex" horiz-adv-x="823" d="M128 0Q126 121 122 227T107 441Q89 438 74 434T47 427Q34 423 22 419L39 497Q65 520 100 541T175 562Q212 562 231 542T259 472Q264 436 265 388T267 279Q267 242 265 191T258 97H263Q276
139 292 186T322 273Q334 304 345 335T367 400T390 471T414 550H547Q559 484 565 403T573 234Q573 218 573 198T572 158T570 121T568 91H573Q589 127 607 166T640 241Q666 304 681 351T704 440H647L663 532Q677 545 697 554T739 563Q755 563 770 559T798 546T818
521T826 481Q826 444 806 388T752 266T676 131T590 0H446Q448 70 448 129T446 243Q445 281 445 321T448 412H443Q432 367 419 321T391 236Q368 178 340 121T274 0H128ZM314 651L475 802H552L663 650L630 613L501 690L339 613L314 651Z" />
<glyph unicode="&#x176;" glyph-name="Ycircumflex" horiz-adv-x="676" d="M137 72L219 90L255 293L127 632L76 649L88 721H381L369 649L309 633L391 384H395L558 634L502 649L514 721H739L727 649L670 632L433 291L398 90L471 72L459 0H125L137 72ZM259 808L420
946H496L616 806L583 769L449 835L284 769L259 808Z" />
<glyph unicode="&#x177;" glyph-name="ycircumflex" horiz-adv-x="571" d="M45 -217Q9 -217 -18 -206T-58 -183L-38 -101Q-22 -106 -7 -110T30 -114Q72 -114 106 -105T176 -66Q173 -7 167 60T153 195T136 326T117 441Q100 438 84 434T54 427Q39 423 26 419L43
497Q56 509 73 520T108 541T146 556T186 562Q223 562 244 541T273 471Q281 426 286 368T293 240Q294 225 294 204T292 158T290 108T285 60H290Q311 102 336 146T379 229Q405 289 422 340T448 440H390L407 532Q421 545 443 554T486 563Q502 563 517 559T545 546T566
522T574 483Q574 447 561 402T522 302T461 187T382 59Q335 -13 294 -65T213 -150T131 -200T45 -217ZM170 651L331 802H408L519 650L486 613L357 690L195 613L170 651Z" />
<glyph unicode="&#x178;" glyph-name="Ydieresis" horiz-adv-x="676" d="M137 72L219 90L255 293L127 632L76 649L88 721H381L369 649L309 633L391 384H395L558 634L502 649L514 721H739L727 649L670 632L433 291L398 90L471 72L459 0H125L137 72ZM328 778Q295
778 274 800T252 854Q252 888 276 910T333 933Q367 933 388 911T409 858Q409 823 385 801T328 778ZM562 778Q529 778 508 800T486 854Q486 888 510 910T567 933Q601 933 622 911T643 858Q643 823 619 801T562 778Z" />
<glyph unicode="&#x179;" glyph-name="Zacute" horiz-adv-x="598" d="M-14 89L427 626V631H236L177 508H80L122 721H647L632 631L192 95V90H401L464 226H563L517 0H-30L-14 89ZM260 826L504 962L547 841L280 767L260 826Z" />
<glyph unicode="&#x17a;" glyph-name="zacute" horiz-adv-x="516" d="M-20 58L341 412L154 418Q146 404 142 392T134 370Q130 359 129 349H67Q63 366 62 381T61 410Q61 477 91 518T177 560Q210 560 240 552T299 531T357 507T417 488L480 550H538V493L177 137L373
130Q381 145 385 159T394 185Q398 198 401 211H463Q466 194 467 179T468 149Q468 114 461 85T438 35T402 1T353 -11Q318 -11 287 -2T226 19T165 43T101 63L38 0H-20V58ZM205 674L444 816L492 696L226 616L205 674Z" />
<glyph unicode="&#x17b;" glyph-name="Zdotaccent" horiz-adv-x="598" d="M-14 89L427 626V631H236L177 508H80L122 721H647L632 631L192 95V90H401L464 226H563L517 0H-30L-14 89ZM385 776Q348 776 323 798T298 857Q298 897 324 920T388 943Q426 943 450 921T475
863Q475 822 449 799T385 776Z" />
<glyph unicode="&#x17c;" glyph-name="zdotaccent" horiz-adv-x="516" d="M-20 58L341 412L154 418Q146 404 142 392T134 370Q130 359 129 349H67Q63 366 62 381T61 410Q61 477 91 518T177 560Q210 560 240 552T299 531T357 507T417 488L480 550H538V493L177 137L373
130Q381 145 385 159T394 185Q398 198 401 211H463Q466 194 467 179T468 149Q468 114 461 85T438 35T402 1T353 -11Q318 -11 287 -2T226 19T165 43T101 63L38 0H-20V58ZM314 622Q276 622 252 644T227 702Q227 742 253 765T317 789Q355 789 379 766T404 708Q404
668 378 645T314 622Z" />
<glyph unicode="&#x17d;" glyph-name="Zcaron" horiz-adv-x="598" d="M-14 89L427 626V631H236L177 508H80L122 721H647L632 631L192 95V90H401L464 226H563L517 0H-30L-14 89ZM583 919L422 781H346L226 921L259 958L393 892L558 958L583 919Z" />
<glyph unicode="&#x17e;" glyph-name="zcaron" horiz-adv-x="516" d="M-20 58L341 412L154 418Q146 404 142 392T134 370Q130 359 129 349H67Q63 366 62 381T61 410Q61 477 91 518T177 560Q210 560 240 552T299 531T357 507T417 488L480 550H538V493L177 137L373
130Q381 145 385 159T394 185Q398 198 401 211H463Q466 194 467 179T468 149Q468 114 461 85T438 35T402 1T353 -11Q318 -11 287 -2T226 19T165 43T101 63L38 0H-20V58ZM519 771L358 621H281L170 773L203 810L332 732L494 810L519 771Z" />
<glyph unicode="&#x192;" glyph-name="florin" horiz-adv-x="447" d="M278 341L223 62Q212 5 192 -41T141 -121T69 -172T-26 -190Q-86 -190 -118 -165T-150 -106Q-150 -92 -144 -77T-126 -51H-45V-113Q-40 -114 -36 -114T-27 -115Q3 -115 18 -93T43 -20L112 341H35L51
427H128L140 488Q163 612 231 670T402 729Q476 729 511 704T547 642Q547 625 539 608T521 579H423V653Q418 654 414 654T404 655Q369 655 348 623T315 530L295 427H412L396 341H278Z" />
<glyph unicode="&#x1fa;" glyph-name="Aringacute" horiz-adv-x="727" d="M417 212H201L141 90L210 72L198 0H-43L-31 72L31 90L360 721H523L619 90L676 72L664 0H344L357 72L432 90L417 212ZM238 288H408L394 413Q390 441 388 473T384 531Q382 562 381 592H376Q365
564 354 534Q343 508 330 478T303 420L238 288ZM448 753Q421 753 399 762T360 787T334 824T324 869Q324 894 334 916T361 955T402 980T452 990Q479 990 501 981T539 956T565 919T574 875Q574 849 565 827T538 789T498 763T448 753ZM449 802Q479 802 497 821T516
874Q516 903 499 922T451 941Q421 941 402 922T383 870Q383 840 401 821T449 802ZM331 1056L575 1192L618 1071L351 997L331 1056Z" />
<glyph unicode="&#x1fb;" glyph-name="aringacute" horiz-adv-x="620" d="M493 90Q512 92 528 96T558 104Q573 108 586 113L566 35Q538 16 498 3T417 -10Q377 -10 356 11T332 74Q332 76 332 78T333 83H329Q288 38 247 13T152 -12Q119 -12 93 0T50 34T23 85T14
149Q14 230 40 302T109 429T208 516T326 548Q363 548 387 540T428 514H434L449 550H580L591 545L493 90ZM235 100Q260 100 287 118T348 171L400 418Q389 437 376 449T335 461Q306 461 279 437T230 374T195 282T182 174Q182 100 235 100ZM386 869Q359 869 337 878T298
903T272 940T262 985Q262 1010 272 1032T299 1071T340 1096T390 1106Q417 1106 439 1097T477 1072T503 1035T512 991Q512 965 503 943T476 905T436 879T386 869ZM387 918Q417 918 435 937T454 990Q454 1019 437 1038T389 1057Q359 1057 340 1038T321 986Q321 956
338 937T387 918ZM270 931L514 1067L557 946L290 872L270 931Z" />
<glyph unicode="&#x1fc;" glyph-name="AEacute" horiz-adv-x="998" d="M989 523H902L879 632H692L652 410H733L763 487H839L805 249H729L722 327H638L596 89H807L870 222H962L918 0H333L345 72L424 90L445 206H228L145 91L216 72L204 0H-39L-26 72L35 90L446 641L378
649L390 721H1003L989 523ZM536 650Q518 615 487 564T413 456L288 287H458L485 433Q491 468 500 506T519 577Q530 614 541 650H536ZM604 826L848 962L891 841L624 767L604 826Z" />
<glyph unicode="&#x1fd;" glyph-name="aeacute" horiz-adv-x="803" d="M267 562Q334 562 376 540T437 483H441Q480 521 527 541T634 562Q715 562 764 528T813 433Q813 382 788 347T717 289T609 254T472 235Q472 233 472 223T471 209Q471 146 497 121T581 96Q616
96 654 105T734 135L714 52Q685 29 634 9T514 -12Q390 -12 338 66H332Q320 53 305 39T268 13T221 -6T162 -14Q92 -14 49 22T5 129Q5 178 26 212T88 268T187 300T318 314L325 351Q337 418 316 448T244 479Q225 479 213 475T190 466V375H88Q77 386 69 400T60 436Q60
461 73 484T113 524T178 552T267 562ZM304 198Q304 223 307 247Q262 242 234 234T191 213T171 183T165 144Q165 109 180 92T222 75Q255 75 276 89T312 124Q307 141 306 159T304 198ZM620 480Q595 480 573 467T534 431T503 377T481 309Q523 313 556 320T613 342T648
376T661 426Q661 480 620 480ZM353 674L592 816L640 696L374 616L353 674Z" />
<glyph unicode="&#x1fe;" glyph-name="Oslashacute" horiz-adv-x="723" d="M656 620Q682 583 696 537T710 433Q710 325 679 242T594 103T473 18T331 -11Q271 -11 222 5T136 50L55 -38L1 8L87 102Q62 139 49 185T36 289Q36 396 68 478T154 617T275 703T411 733Q471
733 520 717T608 672L677 748L731 702L656 620ZM332 81Q381 81 419 115T483 205T523 335T537 486V489L221 143Q233 112 259 97T332 81ZM208 234L524 580Q512 612 487 626T417 641Q369 641 331 608T265 519T223 391T208 240V234ZM321 826L565 962L608 841L341 767L321
826Z" />
<glyph unicode="&#x1ff;" glyph-name="oslashacute" d="M256 -13Q160 -13 98 37L28 -34L-17 11L55 84Q18 143 18 219Q18 291 41 354T107 463T207 535T336 562Q381 562 417 550T482 515L549 582L594 538L526 469Q569 409 569 330Q569 258 548 196T486 87T388 14T256
-13ZM264 70Q294 70 320 89T367 145T398 234T411 353L183 123Q203 70 264 70ZM321 478Q292 478 266 459T220 405T188 318T174 204L399 431Q377 478 321 478ZM239 674L478 816L526 696L260 616L239 674Z" />
<glyph unicode="&#x218;" glyph-name="Scommaaccent" horiz-adv-x="570" d="M239 -12Q153 -12 95 2T-5 40L15 201H116L130 110Q147 98 170 90T231 81Q287 81 320 106T354 182Q354 199 350 213T334 240T306 266T261 293L217 316Q153 351 118 395T82 508Q82 560
101 602T155 673T240 717T350 733Q393 733 425 730T483 720T528 706T564 690L550 545H448L435 616Q423 624 403 633T344 642Q297 642 269 620T240 552Q240 537 244 525T257 500T283 476T325 450L369 427Q405 407 433 388T481 347T511 299T522 238Q522 120 450 54T239
-12ZM346 -243Q386 -238 412 -230T454 -211T476 -187T484 -158Q476 -166 465 -172T434 -179Q407 -179 391 -163T374 -121Q374 -103 382 -90T402 -67T431 -53T465 -48Q510 -48 537 -72T565 -141Q565 -176 550 -202T506 -247T439 -276T354 -289L346 -243Z" />
<glyph unicode="&#x219;" glyph-name="scommaaccent" horiz-adv-x="458" d="M178 -14Q128 -14 91 -4T28 22T-9 60T-21 106Q-21 123 -14 139T5 166H115V82Q128 76 143 72T177 68Q218 68 243 85T268 134Q268 162 250 176T194 210L160 227Q109 253 83 289T56 380Q56
420 71 453T114 511T184 548T278 562Q368 562 410 532T453 457Q453 443 446 426T428 395H321V472Q302 483 277 483Q239 483 217 468T195 422Q195 399 210 383T263 347L297 330Q351 303 383 267T416 173Q416 135 401 101T357 42T283 1T178 -14ZM293 -243Q333 -238
359 -230T401 -211T423 -187T431 -158Q423 -166 412 -172T381 -179Q354 -179 338 -163T321 -121Q321 -103 329 -90T349 -67T378 -53T412 -48Q457 -48 484 -72T512 -141Q512 -176 497 -202T453 -247T386 -276T301 -289L293 -243Z" />
<glyph unicode="&#x21a;" glyph-name="uni021A" horiz-adv-x="665" d="M122 72L205 90L301 632H205L154 497H54L101 721H708L683 497H584L575 632H481L385 90L461 72L449 0H109L122 72ZM397 -243Q437 -238 463 -230T505 -211T527 -187T535 -158Q527 -166 516 -172T485
-179Q458 -179 442 -163T425 -121Q425 -103 433 -90T453 -67T482 -53T516 -48Q561 -48 588 -72T616 -141Q616 -176 601 -202T557 -247T490 -276T405 -289L397 -243Z" />
<glyph unicode="&#x21b;" glyph-name="uni021B" horiz-adv-x="391" d="M201 89Q227 92 252 97T297 109Q320 116 340 124L320 45Q291 25 248 7T142 -11Q97 -11 70 11T43 82Q43 98 48 123L120 464H50L64 527L138 552L166 679H326L298 550H411L393 464H280L201 89ZM1
-243Q41 -238 67 -230T109 -211T131 -187T139 -158Q131 -166 120 -172T89 -179Q62 -179 46 -163T29 -121Q29 -103 37 -90T57 -67T86 -53T120 -48Q165 -48 192 -72T220 -141Q220 -176 205 -202T161 -247T94 -276T9 -289L1 -243Z" />
<glyph unicode="&#x237;" glyph-name="uni0237" horiz-adv-x="319" d="M-43 -216Q-75 -216 -99 -208T-141 -187T-167 -157T-176 -122Q-176 -107 -169 -93T-150 -68H-60V-141H-54Q-37 -141 -24 -137T-1 -120T17 -85T33 -28L127 442Q109 439 92 435T61 427Q45 423
31 419L48 497Q63 510 84 521T130 542T178 556T224 562Q237 562 250 559T273 548T290 527T296 493Q296 476 292 457L198 3Q185 -60 162 -102T108 -169T38 -205T-43 -216Z" />
<glyph unicode="&#x2c6;" glyph-name="circumflex" horiz-adv-x="500" d="M138 651L299 802H376L487 650L454 613L325 690L163 613L138 651Z" />
<glyph unicode="&#x2c7;" glyph-name="caron" horiz-adv-x="500" d="M501 771L340 621H263L152 773L185 810L314 732L476 810L501 771Z" />
<glyph unicode="&#x2d8;" glyph-name="breve" horiz-adv-x="500" d="M320 627Q251 627 211 670T170 788H252Q256 762 272 746T324 729Q359 729 379 745T408 788H491Q479 713 435 670T320 627Z" />
<glyph unicode="&#x2d9;" glyph-name="dotaccent" horiz-adv-x="500" d="M311 622Q273 622 249 644T224 702Q224 742 250 765T314 789Q352 789 376 766T401 708Q401 668 375 645T311 622Z" />
<glyph unicode="&#x2da;" glyph-name="ring" horiz-adv-x="500" d="M324 616Q297 616 275 625T236 650T210 687T200 732Q200 757 210 779T237 818T278 843T328 853Q355 853 377 844T415 819T441 782T450 738Q450 712 441 690T414 652T374 626T324 616ZM325 665Q355
665 373 684T392 737Q392 766 375 785T327 804Q297 804 278 785T259 733Q259 703 276 684T325 665Z" />
<glyph unicode="&#x2db;" glyph-name="ogonek" horiz-adv-x="500" d="M188 -222Q123 -222 94 -197T65 -137Q65 -112 78 -91T112 -52T159 -22T214 0H287Q246 -29 226 -58T205 -111Q205 -145 244 -145Q258 -145 267 -143T286 -137L276 -202Q260 -211 236 -216T188 -222Z" />
<glyph unicode="&#x2dc;" glyph-name="tilde" horiz-adv-x="500" d="M131 662Q158 715 190 747T264 780Q281 780 301 775T340 763T377 751T405 745Q422 745 436 756T465 788L518 755Q491 702 460 670T386 638Q369 638 349 643T310 655T273 667T244 673Q227 673
213 661T184 628L131 662Z" />
<glyph unicode="&#x2dd;" glyph-name="hungarumlaut" horiz-adv-x="500" d="M175 635L282 825L384 750L216 603L175 635ZM376 635L483 825L585 750L417 603L376 635Z" />
</font>
</defs>
</svg>
