<?xml version="1.0" encoding="utf-8"?>
<!-- Generator: Adobe Illustrator 16.0.1, SVG Export Plug-In . SVG Version: 6.00 Build 0)  -->
<!DOCTYPE svg PUBLIC "-//W3C//DTD SVG 1.1//EN" "http://www.w3.org/Graphics/SVG/1.1/DTD/svg11.dtd">
<svg version="1.1" id="Layer_1" xmlns="http://www.w3.org/2000/svg" xmlns:xlink="http://www.w3.org/1999/xlink" x="0px" y="0px"
	 width="50px" height="25.375px" viewBox="0 0 50 25.375" enable-background="new 0 0 50 25.375" xml:space="preserve">
<path fill="#6FA19A" d="M38.374,25.195c6.439,0,11.259-3.588,11.259-9.077c0-5.594-4.011-8.725-10.062-8.725
	c-4.82,0-7.952,1.899-9.922,5.453c-0.281-6.685,5.524-11.505,15.34-12.068V0.18c-10.379,0.176-19.14,4.117-19.14,13.441
	C25.849,20.692,30.423,25.195,38.374,25.195 M12.831,25.195c6.438,0,11.259-3.588,11.259-9.077c0-5.594-4.011-8.725-10.063-8.725
	c-4.82,0-7.952,1.899-9.922,5.453C3.823,6.162,9.628,1.341,19.445,0.778V0.18C9.065,0.356,0.305,4.296,0.305,13.621
	C0.305,20.692,4.879,25.195,12.831,25.195"/>
</svg>
