<svg width="400pt" height="317pt" viewBox="0 0 400 317">
<g transform="translate(0,317) scale(0.1,-0.1)" stroke="none">
<path d="M0 3063 l0 -108 105 105 c58 58 105 106 105 107 0 2 -47 3 -105 3
l-105 0 0 -107z"/>
<path d="M3890 3065 c58 -58 106 -105 107 -105 2 0 3 47 3 105 l0 105 -107 0
-108 0 105 -105z"/>
<path d="M3893 685 l-98 -105 -1404 -2 -1404 -3 -128 -283 c-71 -156 -129
-285 -129 -288 0 -2 736 -4 1635 -4 l1635 0 0 395 c0 217 -2 395 -4 395 -3 0
-49 -47 -103 -105z"/>
<path d="M0 392 l0 -392 275 0 275 0 0 290 0 290 -172 0 -173 0 -102 102 -103
103 0 -393z"/>
</g>
</svg>
