<?xml version="1.0" standalone="no"?> <!DOCTYPE svg PUBLIC "-//W3C//DTD SVG 1.0//EN" "http://www.w3.org/TR/2001/REC-SVG-20010904/DTD/svg10.dtd" > <svg xmlns="http://www.w3.org/2000/svg" width="100%" height="100%">
<defs >
<font id="GuardianEgyptianWeb-Semibold" horiz-adv-x="542" ><font-face
    font-family="GuardianEgyptianWeb"
    units-per-em="1000"
    panose-1="2 6 7 3 5 5 3 6 8 3"
    ascent="790"
    descent="-210"
    alphabetic="0" />
<missing-glyph horiz-adv-x="497" />
<glyph unicode=" " glyph-name="space" horiz-adv-x="179" />
<glyph unicode="!" glyph-name="exclam" horiz-adv-x="267" d="M133 -12Q98 -12 75 11T51 66Q51 98 74 121T133 145Q169 145 192 122T215 66Q215 34 192 11T133 -12ZM49 693H216L182 209H80L49 693Z" />
<glyph unicode="&quot;" glyph-name="quotedbl" horiz-adv-x="430" d="M46 693H195L170 471H70L46 693ZM235 693H383L359 471H259L235 693Z" />
<glyph unicode="#" glyph-name="numbersign" horiz-adv-x="528" d="M59 525H156L182 693H269L242 525H342L368 693H455L428 525H505V399H408L393 305H471V179H373L345 0H258L286 179H187L159 0H72L100 179H24V305H121L136 399H59V525ZM207 305H306L322 399H222L207 305Z" />
<glyph unicode="$" glyph-name="dollar" horiz-adv-x="552" d="M191 -9Q146 -5 106 3T36 22L27 192H123L152 103Q173 92 203 88L228 294L196 305Q157 316 127 332T75 372T43 428T32 503Q32 546 47 582T92 646T168 689T278 706L285 765H364L356 703Q401 698 432
691T483 676L492 524H398L377 596Q370 598 363 600T344 605L322 421L346 413Q388 400 421 384T478 344T514 287T526 208Q526 161 510 122T462 53T382 7T270 -12L257 -117H178L191 -9ZM378 175Q378 210 361 230T304 268L281 84Q330 89 354 114T378 175ZM171 533Q171
501 188 482T246 446L266 612Q224 610 198 590T171 533Z" />
<glyph unicode="%" glyph-name="percent" horiz-adv-x="889" d="M206 380Q241 380 252 410T263 504Q263 569 252 602T207 635Q172 635 161 604T149 508Q149 445 160 413T206 380ZM206 310Q170 310 137 321T78 357T37 417T22 504Q22 556 37 593T79 656T138 693T207
705Q241 705 274 694T333 658T375 597T391 509Q391 458 376 421T335 359T276 322T206 310ZM631 713H724L250 -40H156L631 713ZM682 58Q716 58 727 87T738 182Q738 247 727 280T682 313Q647 313 636 281T625 186Q625 123 636 91T682 58ZM681 -12Q645 -12 612 -1T553
35T512 95T497 182Q497 234 512 271T554 334T613 371T682 383Q716 383 749 372T809 336T851 275T867 187Q867 136 852 99T810 37T751 0T681 -12Z" />
<glyph unicode="&amp;" glyph-name="ampersand" horiz-adv-x="731" d="M270 -12Q152 -12 85 38T18 183Q18 219 29 248T60 301T109 344T171 381Q144 418 132 451T119 523Q119 563 134 596T176 654T243 691T331 705Q418 705 468 664T518 554Q518 521 506 496T474
450T425 414T365 381L515 214Q539 255 550 301L492 316V392H714V316L657 301Q646 260 626 221T576 146L618 99L695 80V0H503L463 45Q421 18 373 3T270 -12ZM309 87Q361 87 407 109L227 315Q203 292 193 266T183 206Q183 154 215 121T309 87ZM267 537Q267 506 280
483T314 437Q356 461 371 486T386 549Q386 584 371 600T330 617Q301 617 284 596T267 537Z" />
<glyph unicode="&apos;" glyph-name="quotesingle" horiz-adv-x="241" d="M46 693H195L170 471H70L46 693Z" />
<glyph unicode="(" glyph-name="parenleft" horiz-adv-x="345" d="M275 -148Q229 -113 185 -71T107 26T51 148T30 302Q30 380 51 447T107 570T186 672T275 752L330 702Q298 664 271 623T223 535T192 435T180 319Q180 243 191 184T221 75T269 -17T330 -98L275 -148V-148Z" />
<glyph unicode=")" glyph-name="parenright" horiz-adv-x="345" d="M15 -98Q47 -61 74 -20T122 69T153 169T165 285Q165 361 154 420T124 529T77 621T15 702L70 752Q116 717 160 675T238 578T294 456T315 302Q315 224 294 157T238 34T159 -68T70 -148L15 -98Z" />
<glyph unicode="*" glyph-name="asterisk" horiz-adv-x="384" d="M166 484L76 402L24 494L139 528L24 563L76 655L166 572L136 693H248L217 572L308 655L360 563L245 528L360 494L308 402L217 484L248 365H136L166 484Z" />
<glyph unicode="+" glyph-name="plus" horiz-adv-x="536" d="M49 390H216V564H320V390H487V290H320V116H216V290H49V390Z" />
<glyph unicode="," glyph-name="comma" horiz-adv-x="246" d="M40 -88Q47 -34 50 20T53 142H205Q193 13 144 -88H40V-88Z" />
<glyph unicode="-" glyph-name="hyphen" horiz-adv-x="321" d="M36 344H285V226H36V344Z" />
<glyph unicode="." glyph-name="period" horiz-adv-x="246" d="M122 -14Q84 -14 60 10T36 70Q36 105 60 129T122 154Q160 154 184 130T209 70Q209 35 185 11T122 -14Z" />
<glyph unicode="/" glyph-name="slash" horiz-adv-x="368" d="M239 733H348L108 -120H-1L239 733Z" />
<glyph unicode="0" glyph-name="zero" horiz-adv-x="651" d="M326 85Q388 85 417 145T446 340Q446 482 418 544T326 607Q264 607 235 545T205 350Q205 209 233 147T326 85ZM325 -12Q261 -12 207 9T113 73T51 183T28 342Q28 437 52 505T118 618T213 684T328 705Q390
705 444 684T537 620T600 509T623 349Q623 255 599 187T535 75T440 9T325 -12Z" />
<glyph unicode="1" glyph-name="one" horiz-adv-x="410" d="M32 80L126 97V541L24 533V612L221 700H297V97L389 80V0H32V80Z" />
<glyph unicode="2" glyph-name="two" horiz-adv-x="532" d="M12 90L174 249Q204 279 228 306T271 360T298 414T308 470Q308 524 278 551T182 579Q144 579 106 572T36 553V647Q74 668 130 686T251 704Q362 704 423 650T485 495Q485 454 471 417T429 343T363 270T275
196L178 119V117H378L415 195H501L486 0H12V90Z" />
<glyph unicode="3" glyph-name="three" horiz-adv-x="518" d="M218 -10Q146 -10 98 4T18 37V126Q49 115 87 109T170 102Q238 102 274 126T311 205Q311 264 280 286T182 309H122V406H171Q295 406 295 498Q295 546 268 569T177 592Q136 592 106 587T45 572V660Q78
678 129 691T238 704Q344 704 403 660T462 530Q462 467 425 427T330 369V365Q362 360 391 347T441 313T476 262T489 191Q489 97 418 44T218 -10Z" />
<glyph unicode="4" glyph-name="four" horiz-adv-x="593" d="M236 80L317 95V200H17V284L342 694H482V294H568V200H482V95L559 80V0H236V80ZM317 294V522H313L138 297V294H317Z" />
<glyph unicode="5" glyph-name="five" horiz-adv-x="526" d="M217 -10Q146 -10 101 4T20 38V126Q54 115 90 108T171 101Q237 101 276 129T316 220Q316 280 276 307T162 334Q133 334 106 331T55 322L78 693H466L456 569H175L164 430Q179 433 201 435T247 438Q302
438 348 424T426 383T476 316T494 224Q494 174 476 131T423 57T336 8T217 -10Z" />
<glyph unicode="6" glyph-name="six" horiz-adv-x="603" d="M311 -12Q244 -12 192 11T103 78T48 183T29 322Q29 424 56 496T129 615T235 682T360 704Q420 704 462 693T531 665V575Q508 583 472 587T398 591Q361 591 328 583T268 552T225 491T203 393Q232 410 273
424T361 438Q412 438 452 423T519 381T562 314T577 227Q577 178 561 135T511 59T428 7T311 -12ZM309 86Q359 86 381 119T404 218Q404 283 378 309T305 336Q273 336 248 329T203 310Q202 304 202 300T202 287Q202 190 225 138T309 86Z" />
<glyph unicode="7" glyph-name="seven" horiz-adv-x="527" d="M398 565V569H136L109 497H19L29 693H509V594L279 0H89L398 565Z" />
<glyph unicode="8" glyph-name="eight" horiz-adv-x="605" d="M301 -13Q164 -13 95 37T26 176Q26 206 37 231T68 278T114 315T171 343Q109 372 81 413T52 515Q52 556 69 591T119 651T199 691T307 705Q426 705 488 659T551 534Q551 505 541 481T513 439T472 406T422
381Q494 355 536 312T578 197Q578 99 507 43T301 -13ZM291 82Q355 82 385 107T415 175Q415 199 405 216T373 247T321 273T247 300Q210 280 190 250T170 179Q170 132 200 107T291 82ZM338 420Q367 436 388 460T409 525Q409 571 382 591T311 611Q266 611 239 590T212
533Q212 489 241 466T338 420Z" />
<glyph unicode="9" glyph-name="nine" horiz-adv-x="603" d="M239 -12Q181 -12 138 0T65 30V120Q92 112 127 107T201 101Q244 101 279 110T339 141T379 202T399 299Q371 282 330 268T240 254Q190 254 150 269T83 311T41 378T26 465Q26 514 42 557T92 633T175 685T292
704Q427 704 500 616T573 370Q573 269 549 197T481 79T376 10T239 -12ZM297 357Q329 357 354 363T400 382V405Q400 502 377 554T293 606Q244 606 221 573T198 474Q198 409 224 383T297 357Z" />
<glyph unicode=":" glyph-name="colon" horiz-adv-x="251" d="M126 -14Q88 -14 63 10T38 70Q38 105 63 129T126 154Q164 154 188 130T213 70Q213 35 189 11T126 -14ZM126 280Q88 280 63 304T38 364Q38 399 63 423T126 448Q164 448 188 424T213 364Q213 329 189
305T126 280Z" />
<glyph unicode=";" glyph-name="semicolon" horiz-adv-x="251" d="M39 -88Q45 -34 48 20T52 142H204Q197 78 182 21T142 -88H39ZM126 280Q88 280 64 304T39 364Q39 399 63 423T126 448Q164 448 188 424T212 364Q212 329 188 305T126 280Z" />
<glyph unicode="&lt;" glyph-name="less" horiz-adv-x="502" d="M50 284V378L445 552V438L177 331L445 223V110L50 284Z" />
<glyph unicode="=" glyph-name="equal" horiz-adv-x="531" d="M51 259H481V159H51V259ZM51 451H481V351H51V451Z" />
<glyph unicode="&gt;" glyph-name="greater" horiz-adv-x="502" d="M57 223L325 330L57 438V552L452 378V284L57 110V223Z" />
<glyph unicode="?" glyph-name="question" horiz-adv-x="435" d="M123 208Q116 222 111 239T105 282Q105 322 125 347T183 403Q213 427 228 449T244 511Q244 556 218 579T140 602Q102 602 76 598T20 584V666Q52 683 94 693T188 704Q236 704 276 695T345 663T391
607T408 521Q408 488 400 463T377 417T341 379T292 343Q251 316 228 298T204 251Q204 235 210 208H123ZM170 -12Q135 -12 112 11T88 66Q88 98 111 121T170 145Q206 145 229 122T252 66Q252 34 229 11T170 -12Z" />
<glyph unicode="@" glyph-name="at" horiz-adv-x="892" d="M441 -155Q345 -155 270 -130T143 -56T64 61T37 216Q37 310 69 394T160 542T302 643T487 680Q571 680 639 656T755 585T830 473T857 325Q857 254 838 199T786 107T709 49T614 29Q559 29 531 48T492 96H486Q458
67 426 52T354 37Q328 37 305 47T265 77T237 128T226 197Q226 257 243 308T291 398T364 457T458 479Q502 479 527 469T574 444L599 470H675L613 157Q608 128 614 116T643 103Q668 103 692 116T736 157T767 226T779 323Q779 459 706 536T486 614Q399 614 331 583T216
498T143 372T118 219Q118 68 199 -10T444 -88Q477 -88 510 -85T572 -77T627 -66T672 -53V-112Q627 -131 569 -143T441 -155ZM415 126Q437 126 452 135T482 157L521 369Q514 384 502 395T467 406Q443 406 424 390T391 346T370 281T362 200Q362 161 375 144T415 126Z"
/>
<glyph unicode="A" glyph-name="A" horiz-adv-x="707" d="M4 80L64 97L278 693H435L643 97L703 80V0H389V80L459 97L423 211H220L182 97L254 80V0H4V80ZM246 293H397L326 517H321L246 293Z" />
<glyph unicode="B" glyph-name="B" horiz-adv-x="644" d="M18 80L93 97V596L18 614V693H346Q468 693 530 651T593 520Q593 461 565 420T463 361V356Q551 345 589 304T627 187Q627 101 565 51T366 0H18V80ZM335 94Q392 94 420 118T448 202Q448 262 420 287T336
313H261V94H335ZM324 397Q369 397 396 418T424 495Q424 556 398 577T323 599H261V397H324Z" />
<glyph unicode="C" glyph-name="C" horiz-adv-x="636" d="M363 -12Q289 -12 227 7T119 69T49 178T23 340Q23 442 53 512T134 624T248 686T380 705Q446 705 501 696T589 676L595 481H498L463 582Q447 590 425 595T373 601Q283 601 244 538T204 360Q204 286 214
235T245 153T299 107T380 92Q409 92 431 98T471 114L505 221H603L594 26Q556 9 500 -1T363 -12Z" />
<glyph unicode="D" glyph-name="D" horiz-adv-x="706" d="M18 80L93 97V596L19 614V693H337Q506 693 594 613T683 360Q683 268 660 201T592 89T485 22T343 0H18V80ZM334 98Q376 98 408 109T461 149T493 225T504 346Q504 427 492 476T456 552T398 586T319 595H264V98H334Z" />
<glyph unicode="E" glyph-name="E" horiz-adv-x="624" d="M18 80L93 97V596L18 614V693H578L588 495H496L458 600H261V399H345L366 473H441V235H366L345 311H261V94H464L514 223H606L595 0H18V80Z" />
<glyph unicode="F" glyph-name="F" horiz-adv-x="619" d="M18 80L93 97V596L18 614V693H586L595 482H503L464 596H264V387H351L371 462H446V223H370L351 298H264V96L347 80V0H18V80Z" />
<glyph unicode="G" glyph-name="G" horiz-adv-x="691" d="M386 -12Q302 -12 235 7T120 69T48 178T23 340Q23 442 53 512T135 624T252 686T392 705Q460 705 515 696T605 675L613 482H515L479 582Q461 590 438 595T380 601Q289 601 246 539T203 360Q203 288 212
237T243 153T298 105T380 90Q404 90 423 93T457 102V239L386 255V335H679V255L619 239V24Q577 9 517 -1T386 -12Z" />
<glyph unicode="H" glyph-name="H" horiz-adv-x="756" d="M18 80L93 97V596L18 614V693H331V614L264 597V400H494V597L425 614V693H738V614L664 596V97L738 80V0H425V80L494 96V309H264V96L331 80V0H18V80Z" />
<glyph unicode="I" glyph-name="I" horiz-adv-x="357" d="M18 80L94 97V596L18 614V693H340V614L264 596V97L340 80V0H18V80Z" />
<glyph unicode="J" glyph-name="J" horiz-adv-x="452" d="M153 -9Q97 -9 66 0T12 21V119Q32 114 51 110T104 105Q147 105 172 125T197 202V596L122 614V693H440V614L368 596V191Q368 94 315 43T153 -9Z" />
<glyph unicode="K" glyph-name="K" horiz-adv-x="711" d="M295 296V362L487 596L423 614V693H684V614L622 595L434 375L635 96L697 80V0H502L295 296ZM18 80L93 97V596L18 614V693H333V614L264 597V96L333 80V0H18V80Z" />
<glyph unicode="L" glyph-name="L" horiz-adv-x="589" d="M18 80L93 97V596L18 614V693H344V614L264 597V96H438L487 246H579L566 0H18V80Z" />
<glyph unicode="M" glyph-name="M" horiz-adv-x="920" d="M18 79L93 97V596L18 614V693H323L452 258H456L589 693H902V614L823 596V97L902 80V0H594V80L658 96V557H654L486 15H374L208 553H204V96L269 80V0H18V79Z" />
<glyph unicode="N" glyph-name="N" horiz-adv-x="727" d="M18 79L93 97V596L18 614V693H282L531 262H536V595L460 614V693H715V614L648 596V0H500L211 507H206V96L282 79V0H18V79Z" />
<glyph unicode="O" glyph-name="O" horiz-adv-x="703" d="M352 90Q426 90 464 151T502 338Q502 410 493 460T465 542T418 588T351 603Q202 603 202 355Q202 217 236 154T352 90ZM350 -12Q280 -12 221 10T117 76T48 188T23 344Q23 438 51 506T125 619T232 684T355
705Q424 705 483 683T586 617T655 507T680 351Q680 256 652 188T578 75T473 10T350 -12Z" />
<glyph unicode="P" glyph-name="P" horiz-adv-x="618" d="M18 80L93 97V596L18 614V693H335Q408 693 460 679T544 640T591 577T606 493Q606 437 589 397T541 330T468 292T375 279Q362 279 349 280T325 282T307 285T300 287V367Q301 367 313 366T339 365Q435 365
435 481Q435 541 411 567T334 593H264V96L352 80V0H18V80Z" />
<glyph unicode="Q" glyph-name="Q" horiz-adv-x="703" d="M269 -10Q226 3 183 27T104 91T46 193T23 344Q23 438 51 506T125 619T232 684T355 705Q424 705 483 683T586 617T655 507T680 351Q680 280 664 228T620 138T553 77T472 42V39L695 0L659 -131L269 -10ZM354
90Q432 90 467 151T502 338Q502 410 493 460T465 542T418 588T351 603Q202 603 202 355Q202 217 236 154T354 90Z" />
<glyph unicode="R" glyph-name="R" horiz-adv-x="685" d="M18 80L94 97V595L20 614V693H355Q491 693 553 640T615 494Q615 458 605 431T578 385T538 352T489 328V324L624 95L681 79V0H490L331 287H265V96L332 80V0H18V80ZM340 375Q398 375 420 408T443 492Q443
546 418 570T335 595H265V375H340Z" />
<glyph unicode="S" glyph-name="S" horiz-adv-x="551" d="M257 -12Q196 -12 138 -3T40 22L31 200H131L158 110Q178 100 201 94T257 88Q311 88 337 113T364 176Q364 216 333 238T250 280L196 302Q159 315 130 331T81 371T49 425T38 500Q38 544 52 582T98 647T178
690T294 706Q363 706 409 698T484 679L493 515H394L373 588Q359 595 339 601T287 607Q245 607 218 589T190 534Q190 499 214 480T289 441L344 420Q386 404 420 388T478 348T514 293T527 212Q527 162 511 121T460 51T376 5T257 -12Z" />
<glyph unicode="T" glyph-name="T" horiz-adv-x="643" d="M157 80L236 97V597H139L107 470H11L20 693H623L632 470H537L504 597H407V97L486 80V0H157V80Z" />
<glyph unicode="U" glyph-name="U" horiz-adv-x="705" d="M363 -12Q217 -12 148 50T79 218V596L8 614V693H321V614L251 597V233Q251 156 286 124T386 91Q451 91 485 123T520 233V597L449 613V693H697V614L631 596V229Q631 175 616 131T568 55T484 6T363 -12Z" />
<glyph unicode="V" glyph-name="V" horiz-adv-x="697" d="M65 596L9 614V693H315V614L245 596L376 179H381L513 596L442 614V693H688V614L632 596L427 0H270L65 596Z" />
<glyph unicode="W" glyph-name="W" horiz-adv-x="987" d="M62 596L10 614V693H301V614L237 596L329 205H334L461 693H579L707 215H712L800 596L733 614V693H978V614L920 596L769 0H610L496 446H492L375 0H215L62 596Z" />
<glyph unicode="X" glyph-name="X" horiz-adv-x="705" d="M18 80L77 95L249 354L87 596L24 614V693H343V614L288 598L389 431L486 598L428 614V693H675V614L616 596L456 350L624 97L687 80V0H372V80L430 94L316 277L207 95L265 79V0H18V80Z" />
<glyph unicode="Y" glyph-name="Y" horiz-adv-x="654" d="M171 80L248 97V287L63 596L7 614V693H300V614L242 597L361 384H365L478 597L419 614V693H647V614L591 596L419 290V97L495 80V0H171V80Z" />
<glyph unicode="Z" glyph-name="Z" horiz-adv-x="578" d="M16 96L364 592V596H169L126 479H30L41 693H560V597L211 101V97H425L470 228H564L553 0H16V96Z" />
<glyph unicode="[" glyph-name="bracketleft" horiz-adv-x="340" d="M54 733H313V654L201 636V-23L313 -41V-120H54V733Z" />
<glyph unicode="\" glyph-name="backslash" horiz-adv-x="368" d="M20 733H129L369 -120H260L20 733Z" />
<glyph unicode="]" glyph-name="bracketright" horiz-adv-x="340" d="M27 -41L139 -23V636L27 654V733H286V-120H27V-41Z" />
<glyph unicode="^" glyph-name="asciicircum" horiz-adv-x="422" d="M165 693H256L401 444H314L211 570L108 444H21L165 693Z" />
<glyph unicode="_" glyph-name="underscore" horiz-adv-x="333" d="M-7 -54H340V-144H-7V-54Z" />
<glyph unicode="`" glyph-name="grave" horiz-adv-x="495" d="M114 649L169 759L369 637L340 574L114 649Z" />
<glyph unicode="a" glyph-name="a" horiz-adv-x="523" d="M171 -13Q99 -13 56 26T13 131Q13 168 26 194T62 237T120 266T196 285L301 306V341Q301 364 297 380T282 406T250 420T197 425Q162 425 125 423T62 415V501Q97 515 152 526T270 538Q367 538 411 497T456
371V115Q456 95 467 88T496 81H515V11Q502 3 475 -4T416 -12Q376 -12 352 2T318 48H313Q293 23 258 5T171 -13ZM235 79Q256 79 273 87T301 105V230L237 226Q199 223 184 205T168 152Q168 116 184 98T235 79Z" />
<glyph unicode="b" glyph-name="b" horiz-adv-x="582" d="M276 -13Q204 -13 147 0T54 32V631L-9 647V725L193 748L209 742V484H214Q240 504 275 521T364 539Q400 539 435 527T497 486T542 408T559 284Q559 205 539 149T481 57T391 4T276 -13ZM283 79Q309 79 330
87T366 117T389 173T397 263Q397 355 370 391T291 427Q264 427 244 421T209 408V101Q221 93 236 86T283 79Z" />
<glyph unicode="c" glyph-name="c" horiz-adv-x="490" d="M289 -13Q154 -13 87 60T19 260Q19 333 40 385T100 472T191 522T307 538Q352 538 393 532T461 517V362H365L349 438Q341 441 331 443T298 446Q244 446 213 406T182 273Q182 222 193 188T224 134T274 104T338
95Q380 95 413 102T467 118V36Q442 19 399 3T289 -13Z" />
<glyph unicode="d" glyph-name="d" horiz-adv-x="603" d="M234 -12Q197 -12 160 0T92 43T42 124T23 251Q23 329 43 383T98 472T180 522T284 538Q315 538 335 534T373 523V633L304 649V725L513 748L528 741V103L591 87V14L402 -10L388 -3V48H382Q361 21 323 5T234
-12ZM292 98Q318 98 338 104T373 119V422Q361 430 345 437T299 445Q273 445 252 437T216 409T193 355T185 268Q185 221 192 189T213 136T246 107T292 98Z" />
<glyph unicode="e" glyph-name="e" horiz-adv-x="531" d="M293 -13Q155 -13 87 61T19 266Q19 330 38 381T91 466T173 519T278 538Q398 538 454 468T510 245H179Q185 164 224 129T333 94Q387 94 422 102T485 119V38Q458 21 412 4T293 -13ZM356 325Q356 393 334
420T274 448Q234 448 209 420T179 319L356 325Z" />
<glyph unicode="f" glyph-name="f" horiz-adv-x="348" d="M17 73L79 88V434H16V502L79 526V576Q79 624 94 657T136 711T196 740T267 749Q309 749 336 743T378 728V639Q364 642 350 644T315 646Q275 646 255 629T234 562V527H340V434H234V88L309 73V0H17V73Z" />
<glyph unicode="g" glyph-name="g" horiz-adv-x="547" d="M242 -204Q180 -204 135 -195T61 -169T18 -130T3 -82Q3 -40 34 -13T110 29V34Q45 54 45 114Q45 146 65 174T118 226Q83 246 62 279T40 360Q40 403 56 436T102 492T173 526T263 538Q325 538 371 521L536
544V449L457 452Q470 435 477 416T485 371Q485 328 469 295T423 239T353 205T262 193Q220 193 183 202Q166 183 166 163Q166 153 174 144T203 135H376Q409 135 438 128T490 105T525 62T538 -4Q538 -45 521 -81T467 -145T375 -188T242 -204ZM254 -117Q331 -117 364
-94T397 -41Q397 -15 380 -5T326 6H187Q168 -2 157 -18T146 -56Q146 -82 170 -99T254 -117ZM262 270Q296 270 317 291T339 364Q339 419 317 439T262 460Q229 460 208 439T187 367Q187 314 208 292T262 270Z" />
<glyph unicode="h" glyph-name="h" horiz-adv-x="616" d="M14 73L77 88V633L12 649V725L217 748L232 741V479H237Q274 505 313 521T406 538Q470 538 508 508T546 405V88L606 73V0H339V73L391 86V353Q391 392 372 406T315 421Q292 421 272 416T232 404V86L284 73V0H14V73Z" />
<glyph unicode="i" glyph-name="i" horiz-adv-x="305" d="M14 73L77 88V422L9 438V514L217 537L232 530V88L292 73V0H14V73ZM150 586Q114 586 88 608T62 665Q62 701 88 722T150 744Q186 744 211 723T237 665Q237 630 212 608T150 586Z" />
<glyph unicode="j" glyph-name="j" horiz-adv-x="292" d="M46 -198Q19 -198 -3 -193T-42 -181V-95Q-31 -97 -20 -98T3 -99Q38 -99 59 -83T80 -21V422L12 438V514L219 537L234 530V-22Q234 -108 190 -153T46 -198ZM152 586Q117 586 91 608T65 665Q65 701 91 722T152
744Q189 744 214 723T240 665Q240 630 215 608T152 586Z" />
<glyph unicode="k" glyph-name="k" horiz-adv-x="582" d="M257 226V276L384 440L326 453V527H563V453L498 439L383 297L527 88L576 73V0H413L257 226ZM14 73L77 87V633L12 649V725L216 748L232 741V85L288 73V0H14V73Z" />
<glyph unicode="l" glyph-name="l" horiz-adv-x="308" d="M14 73L78 88V633L9 649V725L218 748L233 741V88L295 73V0H14V73Z" />
<glyph unicode="m" glyph-name="m" horiz-adv-x="914" d="M14 73L77 88V422L12 438V514L211 537L225 530V479H231Q267 505 306 521T401 538Q444 538 475 523T522 474H527Q562 501 606 519T705 538Q767 538 805 506T843 401V88L902 73V0H638V73L688 86V349Q688
391 670 406T613 421Q592 421 573 417T535 405Q536 400 536 392T537 373V86L588 73V0H332V73L383 86V349Q383 391 365 406T311 421Q285 421 269 417T232 405V86L283 73V0H14V73Z" />
<glyph unicode="n" glyph-name="n" horiz-adv-x="617" d="M14 73L77 88V422L12 438V514L211 537L225 530V477H231Q269 504 310 521T406 538Q470 538 508 508T546 405V88L606 73V0H339V73L391 86V353Q391 392 372 406T315 421Q292 421 272 416T232 404V86L284 73V0H14V73Z" />
<glyph unicode="o" glyph-name="o" horiz-adv-x="571" d="M287 80Q309 80 327 88T359 117T381 172T389 259Q389 314 381 350T358 407T325 437T284 446Q263 446 244 438T212 410T190 355T182 267Q182 213 190 177T212 120T246 89T287 80ZM286 -13Q223 -13 173 6T89
60T37 146T19 260Q19 326 39 378T96 465T180 519T285 538Q412 538 482 467T552 266Q552 200 531 148T474 61T390 6T286 -13Z" />
<glyph unicode="p" glyph-name="p" horiz-adv-x="602" d="M12 -128L75 -115V422L10 438V514L208 537L222 530V479H228Q254 501 292 520T384 539Q420 539 455 527T517 486T562 408T579 284Q579 205 559 149T503 57T418 4T310 -13Q281 -13 264 -11T229 -6V-114L302
-128V-200H12V-128ZM304 79Q330 79 351 87T386 117T409 173T417 263Q417 355 390 391T311 427Q285 427 264 421T229 408V100Q241 92 257 86T304 79Z" />
<glyph unicode="q" glyph-name="q" horiz-adv-x="589" d="M300 -124L373 -109V40H367Q341 16 312 2T236 -12Q198 -12 160 0T92 42T42 122T23 248Q23 325 44 380T102 470T192 521T307 538Q379 538 430 530T528 503V-111L589 -124V-200H300V-124ZM292 98Q318 98
338 104T373 119V422Q361 430 345 437T296 445Q272 445 252 437T217 409T194 355T185 268Q185 221 192 189T213 136T246 107T292 98Z" />
<glyph unicode="r" glyph-name="r" horiz-adv-x="402" d="M14 73L77 88V422L12 438V514L211 537L225 530V455H231Q252 488 286 512T365 537Q372 537 379 536T392 533V397Q383 399 371 400T348 401Q311 401 283 395T232 377V88L309 73V0H14V73Z" />
<glyph unicode="s" glyph-name="s" horiz-adv-x="464" d="M208 -13Q164 -13 116 -5T30 18L21 162H114L136 94Q147 87 167 82T215 76Q253 76 275 90T297 133Q297 160 281 172T223 197L166 212Q96 229 59 265T22 369Q22 405 35 436T76 490T145 526T244 539Q292 539
336 532T410 512V376H320L304 437Q293 443 278 447T237 452Q204 452 182 440T159 400Q159 375 176 362T240 337L301 321Q379 301 411 264T444 166Q444 127 430 94T388 37T314 0T208 -13Z" />
<glyph unicode="t" glyph-name="t" horiz-adv-x="373" d="M230 -11Q192 -11 163 -4T114 19T84 63T73 130V434H11V502L87 528L107 651H228V527H344V434H228V157Q228 119 244 104T298 89Q312 89 326 91T352 96V19Q334 8 303 -1T230 -11Z" />
<glyph unicode="u" glyph-name="u" horiz-adv-x="617" d="M220 -11Q139 -11 104 28T68 137V425L6 442V517L208 537L223 529V181Q223 141 237 123T295 104Q327 104 346 110T383 124V425L324 442V517L523 537L538 529V103L600 87V14L404 -10L389 -3V54H383Q355 26
315 8T220 -11Z" />
<glyph unicode="v" glyph-name="v" horiz-adv-x="577" d="M50 439L3 453V527H265V453L214 442L311 156H315L413 442L361 453V527H572V453L525 439L359 0H217L50 439Z" />
<glyph unicode="w" glyph-name="w" horiz-adv-x="825" d="M48 439L3 453V527H253V453L203 441L272 187H276L380 527H486L590 187H594L662 441L613 453V527H820V453L775 439L642 0H512L416 325H413L311 0H180L48 439Z" />
<glyph unicode="x" glyph-name="x" horiz-adv-x="583" d="M13 73L65 87L198 265L72 439L21 453V527H299V453L252 442L329 323H333L409 442L360 453V527H565V453L521 440L395 262L521 87L572 73V0H295V73L344 84L263 203H260L180 84L229 73V0H13V73Z" />
<glyph unicode="y" glyph-name="y" horiz-adv-x="579" d="M157 -202Q132 -202 106 -197T64 -185V-90Q81 -94 93 -95T118 -97Q153 -97 176 -85T213 -39L232 10L52 439L3 453V527H270V453L216 441L317 172H321L410 441L356 453V527H574V453L527 439L336 -62Q310
-132 271 -167T157 -202Z" />
<glyph unicode="z" glyph-name="z" horiz-adv-x="496" d="M21 82L289 438V442H139L111 350H33L42 527H466V444L204 92V88H358L392 190H472L459 0H21V82Z" />
<glyph unicode="{" glyph-name="braceleft" horiz-adv-x="388" d="M361 -120Q289 -118 240 -107T162 -78T119 -34T106 25Q106 44 111 66T122 109T134 150T139 184Q139 198 135 209T120 230T87 245T31 257V356Q65 361 86 367T119 383T135 403T139 429Q139 442 134
461T123 503T111 547T106 588Q106 621 119 646T161 690T240 720T361 733V654Q332 649 313 643T282 629T265 610T260 582Q260 568 262 548T268 507T274 465T277 428Q277 406 271 389T251 357T211 330T146 309V304Q185 295 210 283T250 257T271 225T277 185Q277 169
275 148T269 106T263 66T260 32Q260 15 265 4T281 -16T312 -30T361 -41V-120V-120Z" />
<glyph unicode="|" glyph-name="bar" horiz-adv-x="239" d="M69 733H170V-120H69V733Z" />
<glyph unicode="}" glyph-name="braceright" horiz-adv-x="388" d="M27 -41Q86 -31 107 -16T128 32Q128 46 126 65T120 106T114 148T111 185Q111 207 117 224T138 256T178 283T243 304V309Q204 318 179 330T138 356T117 388T111 428Q111 444 113 465T119 507T125
548T128 582Q128 614 107 629T27 654V733Q99 731 148 720T227 691T270 647T283 588Q283 569 278 547T267 503T255 462T250 429Q250 415 254 404T269 383T302 367T358 356V257Q323 252 302 246T270 230T254 210T250 184Q250 170 255 151T266 110T278 66T283 25Q283
-8 270 -33T227 -77T148 -107T27 -120V-41Z" />
<glyph unicode="~" glyph-name="asciitilde" horiz-adv-x="455" d="M16 266Q41 323 75 355T157 387Q179 387 198 381T236 366T269 351T299 344Q337 344 369 394L439 346Q415 288 381 256T298 224Q276 224 257 230T219 245T186 260T156 267Q118 267 86 217L16 266Z" />
<glyph unicode="&#xa0;" glyph-name="uni00A0" horiz-adv-x="179" />
<glyph unicode="&#xa1;" glyph-name="exclamdown" horiz-adv-x="267" d="M85 364H187L218 -120H51L85 364ZM134 428Q98 428 75 451T52 507Q52 539 75 562T134 585Q170 585 193 562T216 507Q216 475 193 452T134 428Z" />
<glyph unicode="&#xa2;" glyph-name="cent" horiz-adv-x="506" d="M229 -7Q127 10 74 80T21 260Q21 329 41 380T97 465T182 516T289 537L296 602H375L368 535Q400 533 428 528T477 516V362H395L380 440L358 446L318 88H339Q360 88 381 90T422 97T457 106T483 116V36Q459
19 414 4T307 -13L296 -120H217L229 -7ZM174 273Q174 207 190 168T242 108L279 446Q231 437 203 396T174 273Z" />
<glyph unicode="&#xa3;" glyph-name="sterling" horiz-adv-x="548" d="M46 385H109V469Q109 529 126 573T175 646T248 689T341 704Q404 704 444 692T513 657V563Q487 572 461 577T400 582Q374 582 352 577T312 557T284 516T270 450L266 385H430V293H260L259 267Q254
208 235 177T182 122V119H522L508 0H30V87Q68 107 88 139T109 235V293H46V385Z" />
<glyph unicode="&#xa5;" glyph-name="yen" horiz-adv-x="631" d="M78 383H199L60 596L9 614V693H298V614L242 598L351 410H355L457 598L399 614V693H622V614L571 596L439 383H566V309H405V248H566V174H405V97L483 80V0H161V80L239 97V174H78V248H239V309H78V383Z" />
<glyph unicode="&#xa6;" glyph-name="brokenbar" horiz-adv-x="239" d="M69 279H170V-120H69V279ZM69 733H170V371H69V733Z" />
<glyph unicode="&#xa7;" glyph-name="section" horiz-adv-x="543" d="M254 -132Q200 -132 156 -124T78 -101L70 39H162L184 -26Q197 -32 213 -37T258 -42Q294 -42 318 -29T342 14Q342 41 323 58T259 90L183 116Q104 142 64 178T24 278Q24 329 53 361T135 410Q103
431 86 462T69 539Q69 614 123 659T293 705Q344 705 387 698T461 678V544H371L354 602Q343 608 328 612T286 616Q250 616 228 603T206 560Q206 534 222 519T283 489L360 463Q436 438 477 402T519 302Q519 251 490 219T408 168Q443 146 462 115T482 39Q482 2 469
-29T427 -83T355 -119T254 -132ZM228 368Q199 363 182 348T164 309Q164 280 184 265T248 233L315 210Q343 215 360 230T378 271Q378 297 361 312T302 343L228 368Z" />
<glyph unicode="&#xa8;" glyph-name="dieresis" horiz-adv-x="495" d="M149 588Q117 588 95 608T72 661Q72 695 94 714T149 734Q182 734 205 715T228 661Q228 628 205 608T149 588ZM345 588Q313 588 290 608T267 661Q267 695 290 714T345 734Q377 734 400 715T423
661Q423 628 400 608T345 588Z" />
<glyph unicode="&#xa9;" glyph-name="copyright" horiz-adv-x="772" d="M393 158Q352 158 318 169T259 203T219 261T205 344Q205 395 221 431T264 491T327 524T402 535Q437 535 468 531T518 520L522 409H458L439 462Q431 466 422 468T397 471Q354 471 339 440T324
354Q324 281 340 252T401 223Q431 223 442 231L463 289H526L520 178Q500 170 469 164T393 158ZM385 46Q448 46 500 69T590 133T649 228T670 344Q670 405 649 459T591 553T501 617T385 640Q322 640 270 617T180 554T122 459T101 344Q101 282 121 228T179 134T269
70T385 46ZM385 -14Q310 -14 245 14T133 91T58 205T31 344Q31 418 58 483T132 596T245 672T385 700Q460 700 525 672T638 596T713 483T741 344Q741 270 714 205T638 91T525 14T385 -14Z" />
<glyph unicode="&#xaa;" glyph-name="ordfeminine" horiz-adv-x="483" d="M161 219Q98 219 61 254T24 346Q24 379 35 402T68 441T121 467T190 484L275 500V527Q275 564 257 580T185 597Q155 597 125 594T71 588V671Q103 683 149 693T252 703Q339 703 379 666T420
553V340Q420 323 429 317T452 311H468V241Q457 234 435 227T383 220Q347 220 324 232T291 273H286Q269 251 238 235T161 219ZM219 305Q236 305 251 311T275 324V430L224 427Q167 425 167 365Q167 305 219 305Z" />
<glyph unicode="&#xab;" glyph-name="guillemotleft" horiz-adv-x="465" d="M32 232V273L139 447H238L160 253L238 58H139L32 232ZM225 232V273L332 447H431L353 253L431 58H332L225 232Z" />
<glyph unicode="&#xae;" glyph-name="registered" horiz-adv-x="462" d="M133 431L152 437V557L133 562V594H238Q279 594 299 578T319 536Q319 516 310 507T287 493V491L321 436L335 431V401H273L231 474H216V437L231 431V401H133V431ZM233 508Q256 508 256 533Q256
557 232 557H216V508H233ZM230 328Q266 328 296 341T347 377T381 430T393 495Q393 529 381 559T348 612T296 648T230 661Q194 661 165 648T114 613T81 560T69 495Q69 460 80 430T113 378T164 342T230 328ZM230 286Q185 286 147 302T80 347T35 414T19 495Q19 538
35 576T79 642T146 687T230 703Q275 703 313 687T380 643T425 576T442 495Q442 452 426 414T381 348T314 303T230 286Z" />
<glyph unicode="&#xaf;" glyph-name="macron" horiz-adv-x="495" d="M110 694H385V599H110V694Z" />
<glyph unicode="&#xb0;" glyph-name="degree" horiz-adv-x="363" d="M182 465Q220 465 240 491T260 552Q260 588 240 614T182 640Q144 640 124 614T104 552Q104 517 124 491T182 465ZM182 403Q149 403 121 415T72 447T40 495T28 552Q28 583 39 610T72 657T121
690T182 702Q215 702 243 690T291 658T323 610T335 552Q335 522 324 495T292 448T243 415T182 403Z" />
<glyph unicode="&#xb4;" glyph-name="acute" horiz-adv-x="495" d="M126 637L325 759L380 649L155 574L126 637Z" />
<glyph unicode="&#xb6;" glyph-name="paragraph" horiz-adv-x="598" d="M271 323Q265 323 257 322T237 321Q197 321 160 332T95 367T51 426T34 511Q34 601 91 647T266 693H594V614L524 596V-120H432V602H363V-120H271V323Z" />
<glyph unicode="&#xb7;" glyph-name="periodcentered" horiz-adv-x="245" d="M123 248Q85 248 60 272T35 332Q35 367 60 391T123 416Q161 416 185 392T210 332Q210 297 186 273T123 248Z" />
<glyph unicode="&#xb8;" glyph-name="cedilla" horiz-adv-x="495" d="M192 -169Q251 -163 272 -153T293 -125Q293 -110 276 -102T216 -93V0H279V-43Q344 -46 371 -63T399 -119Q399 -160 351 -186T192 -219V-169Z" />
<glyph unicode="&#xba;" glyph-name="ordmasculine" horiz-adv-x="515" d="M258 307Q276 307 291 314T317 338T334 384T341 458Q341 504 335 534T317 583T290 608T256 615Q238 615 223 609T197 585T180 539T174 464Q174 417 180 387T198 339T225 314T258 307ZM258
219Q146 219 85 283T24 458Q24 517 42 563T92 640T166 687T256 703Q368 703 429 641T491 464Q491 405 473 360T422 283T348 235T258 219Z" />
<glyph unicode="&#xbb;" glyph-name="guillemotright" horiz-adv-x="465" d="M112 252L34 447H134L240 273V232L134 58H34L112 252ZM305 252L227 447H327L433 273V232L327 58H227L305 252Z" />
<glyph unicode="&#xbc;" glyph-name="onequarter" horiz-adv-x="851" d="M37 339L98 350V588L33 585V641L163 704H223V350L284 339V282H37V339ZM619 713H713L228 -40H134L619 713ZM602 57L649 67V120H466V178L668 418H767V184H818V120H767V67L816 57V0H602V57ZM649
184V303H646L551 186V184H649Z" />
<glyph unicode="&#xbd;" glyph-name="onehalf" horiz-adv-x="887" d="M615 713H709L224 -40H130L615 713ZM37 339L98 350V588L33 585V641L163 704H223V350L284 339V282H37V339ZM541 68L637 158Q669 187 691 216T714 276Q714 305 696 320T643 336Q620 336 597 332T555
321V388Q581 403 615 413T694 424Q767 424 806 391T845 298Q845 246 812 207T718 125L661 83V82H770L793 124L854 125L844 0H541V68Z" />
<glyph unicode="&#xbe;" glyph-name="threequarters" horiz-adv-x="871" d="M159 276Q111 276 81 284T31 303V366Q49 361 73 357T124 353Q204 353 204 408Q204 439 186 451T132 463H91V529H126Q196 529 196 579Q196 630 129 630Q103 630 84 627T48 619V681Q68
692 101 699T172 706Q241 706 278 680T316 603Q316 562 292 539T232 504V502Q274 495 303 471T332 398Q332 341 288 309T159 276ZM636 712H730L245 -41H151L636 712ZM622 56L669 66V119H486V177L688 417H787V183H838V119H787V66L836 56V-1H622V56ZM669 183V302H666L571
185V183H669Z" />
<glyph unicode="&#xbf;" glyph-name="questiondown" horiz-adv-x="435" d="M247 -131Q199 -131 159 -122T90 -90T44 -34T27 52Q27 85 35 110T58 156T94 194T143 230Q184 257 207 275T231 322Q231 338 225 365H312Q319 351 324 334T330 291Q330 271 325 255T309
226T285 199T252 170Q222 146 207 124T191 62Q191 17 217 -6T295 -29Q333 -29 359 -25T415 -11V-93Q383 -110 341 -120T247 -131ZM265 428Q229 428 206 451T183 507Q183 539 206 562T265 585Q300 585 323 562T347 507Q347 475 324 452T265 428Z" />
<glyph unicode="&#xc0;" glyph-name="Agrave" horiz-adv-x="707" d="M217 780L263 893L471 789L446 724L217 780ZM4 80L64 97L278 693H435L643 97L703 80V0H389V80L459 97L423 211H220L182 97L254 80V0H4V80ZM246 293H397L326 517H321L246 293Z" />
<glyph unicode="&#xc1;" glyph-name="Aacute" horiz-adv-x="707" d="M259 724L235 789L443 893L489 780L259 724ZM4 80L64 97L278 693H435L643 97L703 80V0H389V80L459 97L423 211H220L182 97L254 80V0H4V80ZM246 293H397L326 517H321L246 293Z" />
<glyph unicode="&#xc2;" glyph-name="Acircumflex" horiz-adv-x="707" d="M196 770L317 882H390L510 770L482 725L353 778L225 725L196 770ZM4 80L64 97L278 693H435L643 97L703 80V0H389V80L459 97L423 211H220L182 97L254 80V0H4V80ZM246 293H397L326 517H321L246 293Z" />
<glyph unicode="&#xc3;" glyph-name="Atilde" horiz-adv-x="707" d="M180 766Q200 811 229 839T299 868Q315 868 331 864T361 854T388 844T412 839Q429 839 441 847T467 874L526 837Q506 792 476 764T407 735Q390 735 375 739T345 749T318 759T294 764Q277 764
264 756T239 729L180 766ZM4 80L64 97L278 693H435L643 97L703 80V0H389V80L459 97L423 211H220L182 97L254 80V0H4V80ZM246 293H397L326 517H321L246 293Z" />
<glyph unicode="&#xc4;" glyph-name="Adieresis" horiz-adv-x="707" d="M255 730Q223 730 201 750T178 803Q178 837 200 856T255 876Q288 876 311 857T334 803Q334 770 311 750T255 730ZM451 730Q419 730 396 750T373 803Q373 837 396 856T451 876Q483 876 506
857T529 803Q529 770 506 750T451 730ZM4 80L64 97L278 693H435L643 97L703 80V0H389V80L459 97L423 211H220L182 97L254 80V0H4V80ZM246 293H397L326 517H321L246 293Z" />
<glyph unicode="&#xc5;" glyph-name="Aring" horiz-adv-x="707" d="M353 771Q375 771 388 784T401 820Q401 841 388 854T353 868Q331 868 319 855T306 820Q306 797 318 784T353 771ZM353 716Q329 716 309 724T275 746T252 780T244 820Q244 841 252 860T274 893T309
915T353 923Q377 923 397 915T431 893T454 860T463 820Q463 799 455 780T432 747T397 724T353 716ZM4 80L64 97L278 693H435L643 97L703 80V0H389V80L459 97L423 211H220L182 97L254 80V0H4V80ZM246 293H397L326 517H321L246 293Z" />
<glyph unicode="&#xc6;" glyph-name="AE" horiz-adv-x="973" d="M261 80V0H4V80L62 98L372 605L312 614V693H930L939 495H847L809 600H617V399H695L715 473H791V235H715L695 311H617V94H815L865 223H957L946 0H374V80L450 97V206H245L182 98L261 80ZM450 289V554H447L294
289H450Z" />
<glyph unicode="&#xc7;" glyph-name="Ccedilla" horiz-adv-x="636" d="M251 -169Q310 -163 331 -153T352 -125Q352 -110 335 -102T275 -93V-4Q219 6 173 31T93 98T42 200T23 340Q23 442 53 512T134 624T248 686T380 705Q446 705 501 696T589 676L595 481H498L463
582Q447 590 425 595T373 601Q283 601 244 538T204 360Q204 286 214 235T245 153T299 107T380 92Q409 92 431 98T471 114L505 221H603L594 26Q556 9 500 -1T363 -12Q358 -12 353 -12T338 -11V-43Q403 -46 430 -63T458 -119Q458 -160 410 -186T251 -219V-169Z" />
<glyph unicode="&#xc8;" glyph-name="Egrave" horiz-adv-x="624" d="M186 780L232 893L440 789L415 724L186 780ZM18 80L93 97V596L18 614V693H578L588 495H496L458 600H261V399H345L366 473H441V235H366L345 311H261V94H464L514 223H606L595 0H18V80Z" />
<glyph unicode="&#xc9;" glyph-name="Eacute" horiz-adv-x="624" d="M228 724L204 789L412 893L458 780L228 724ZM18 80L93 97V596L18 614V693H578L588 495H496L458 600H261V399H345L366 473H441V235H366L345 311H261V94H464L514 223H606L595 0H18V80Z" />
<glyph unicode="&#xca;" glyph-name="Ecircumflex" horiz-adv-x="624" d="M164 770L285 882H358L478 770L450 725L321 778L193 725L164 770ZM18 80L93 97V596L18 614V693H578L588 495H496L458 600H261V399H345L366 473H441V235H366L345 311H261V94H464L514 223H606L595
0H18V80Z" />
<glyph unicode="&#xcb;" glyph-name="Edieresis" horiz-adv-x="624" d="M223 730Q191 730 169 750T146 803Q146 837 168 856T223 876Q256 876 279 857T302 803Q302 770 279 750T223 730ZM419 730Q387 730 364 750T341 803Q341 837 364 856T419 876Q451 876 474
857T497 803Q497 770 474 750T419 730ZM18 80L93 97V596L18 614V693H578L588 495H496L458 600H261V399H345L366 473H441V235H366L345 311H261V94H464L514 223H606L595 0H18V80Z" />
<glyph unicode="&#xcc;" glyph-name="Igrave" horiz-adv-x="357" d="M42 780L88 893L296 789L271 724L42 780ZM18 80L94 97V596L18 614V693H340V614L264 596V97L340 80V0H18V80Z" />
<glyph unicode="&#xcd;" glyph-name="Iacute" horiz-adv-x="357" d="M81 724L57 789L265 893L311 780L81 724ZM18 80L94 97V596L18 614V693H340V614L264 596V97L340 80V0H18V80Z" />
<glyph unicode="&#xce;" glyph-name="Icircumflex" horiz-adv-x="357" d="M21 770L142 882H215L335 770L307 725L178 778L50 725L21 770ZM18 80L94 97V596L18 614V693H340V614L264 596V97L340 80V0H18V80Z" />
<glyph unicode="&#xcf;" glyph-name="Idieresis" horiz-adv-x="357" d="M80 730Q48 730 26 750T3 803Q3 837 25 856T80 876Q113 876 136 857T159 803Q159 770 136 750T80 730ZM276 730Q244 730 221 750T198 803Q198 837 221 856T276 876Q308 876 331 857T354 803Q354
770 331 750T276 730ZM18 80L94 97V596L18 614V693H340V614L264 596V97L340 80V0H18V80Z" />
<glyph unicode="&#xd0;" glyph-name="Eth" horiz-adv-x="706" d="M26 403H93V596L19 614V693H337Q506 693 594 613T683 360Q683 268 660 201T592 89T485 22T343 0H18V80L93 97V303H26V403ZM334 98Q376 98 408 109T461 149T493 225T504 346Q504 427 492 476T456
552T398 586T319 595H264V403H400V303H264V98H334Z" />
<glyph unicode="&#xd1;" glyph-name="Ntilde" horiz-adv-x="727" d="M215 766Q235 811 264 839T334 868Q350 868 366 864T396 854T423 844T447 839Q464 839 476 847T502 874L561 837Q541 792 511 764T442 735Q425 735 410 739T380 749T353 759T329 764Q312 764
299 756T274 729L215 766ZM18 79L93 97V596L18 614V693H282L531 262H536V595L460 614V693H715V614L648 596V0H500L211 507H206V96L282 79V0H18V79Z" />
<glyph unicode="&#xd2;" glyph-name="Ograve" horiz-adv-x="703" d="M215 780L261 893L469 789L444 724L215 780ZM352 90Q426 90 464 151T502 338Q502 410 493 460T465 542T418 588T351 603Q202 603 202 355Q202 217 236 154T352 90ZM350 -12Q280 -12 221 10T117
76T48 188T23 344Q23 438 51 506T125 619T232 684T355 705Q424 705 483 683T586 617T655 507T680 351Q680 256 652 188T578 75T473 10T350 -12Z" />
<glyph unicode="&#xd3;" glyph-name="Oacute" horiz-adv-x="703" d="M258 724L234 789L442 893L488 780L258 724ZM352 90Q426 90 464 151T502 338Q502 410 493 460T465 542T418 588T351 603Q202 603 202 355Q202 217 236 154T352 90ZM350 -12Q280 -12 221 10T117
76T48 188T23 344Q23 438 51 506T125 619T232 684T355 705Q424 705 483 683T586 617T655 507T680 351Q680 256 652 188T578 75T473 10T350 -12Z" />
<glyph unicode="&#xd4;" glyph-name="Ocircumflex" horiz-adv-x="703" d="M194 770L315 882H388L508 770L480 725L351 778L223 725L194 770ZM352 90Q426 90 464 151T502 338Q502 410 493 460T465 542T418 588T351 603Q202 603 202 355Q202 217 236 154T352 90ZM350
-12Q280 -12 221 10T117 76T48 188T23 344Q23 438 51 506T125 619T232 684T355 705Q424 705 483 683T586 617T655 507T680 351Q680 256 652 188T578 75T473 10T350 -12Z" />
<glyph unicode="&#xd5;" glyph-name="Otilde" horiz-adv-x="703" d="M179 766Q199 811 228 839T298 868Q314 868 330 864T360 854T387 844T411 839Q428 839 440 847T466 874L525 837Q505 792 475 764T406 735Q389 735 374 739T344 749T317 759T293 764Q276 764
263 756T238 729L179 766ZM352 90Q426 90 464 151T502 338Q502 410 493 460T465 542T418 588T351 603Q202 603 202 355Q202 217 236 154T352 90ZM350 -12Q280 -12 221 10T117 76T48 188T23 344Q23 438 51 506T125 619T232 684T355 705Q424 705 483 683T586 617T655
507T680 351Q680 256 652 188T578 75T473 10T350 -12Z" />
<glyph unicode="&#xd6;" glyph-name="Odieresis" horiz-adv-x="703" d="M253 730Q221 730 199 750T176 803Q176 837 198 856T253 876Q286 876 309 857T332 803Q332 770 309 750T253 730ZM449 730Q417 730 394 750T371 803Q371 837 394 856T449 876Q481 876 504
857T527 803Q527 770 504 750T449 730ZM352 90Q426 90 464 151T502 338Q502 410 493 460T465 542T418 588T351 603Q202 603 202 355Q202 217 236 154T352 90ZM350 -12Q280 -12 221 10T117 76T48 188T23 344Q23 438 51 506T125 619T232 684T355 705Q424 705 483
683T586 617T655 507T680 351Q680 256 652 188T578 75T473 10T350 -12Z" />
<glyph unicode="&#xd7;" glyph-name="multiply" horiz-adv-x="536" d="M479 478L336 334L479 189L411 121L268 265L125 121L57 189L200 334L57 479L125 547L268 402L410 546L479 478Z" />
<glyph unicode="&#xd8;" glyph-name="Oslash" horiz-adv-x="703" d="M36 11L101 94Q64 139 44 201T23 344Q23 438 51 506T125 619T232 684T355 705Q408 705 455 692T542 653L591 716L655 673L600 603Q638 558 659 496T680 351Q680 256 652 188T578 75T473 10T350
-12Q295 -12 247 1T158 42L100 -31L36 11ZM352 90Q428 90 467 151T507 338Q507 378 504 411T496 471L237 143Q274 90 352 90ZM196 355Q196 317 198 285T206 226L462 553Q443 579 416 591T351 603Q275 603 236 541T196 355Z" />
<glyph unicode="&#xd9;" glyph-name="Ugrave" horiz-adv-x="705" d="M241 780L287 893L495 789L470 724L241 780ZM363 -12Q217 -12 148 50T79 218V596L8 614V693H321V614L251 597V233Q251 156 286 124T386 91Q451 91 485 123T520 233V597L449 613V693H697V614L631
596V229Q631 175 616 131T568 55T484 6T363 -12Z" />
<glyph unicode="&#xda;" glyph-name="Uacute" horiz-adv-x="705" d="M284 724L260 789L468 893L514 780L284 724ZM363 -12Q217 -12 148 50T79 218V596L8 614V693H321V614L251 597V233Q251 156 286 124T386 91Q451 91 485 123T520 233V597L449 613V693H697V614L631
596V229Q631 175 616 131T568 55T484 6T363 -12Z" />
<glyph unicode="&#xdb;" glyph-name="Ucircumflex" horiz-adv-x="705" d="M220 770L341 882H414L534 770L506 725L377 778L249 725L220 770ZM363 -12Q217 -12 148 50T79 218V596L8 614V693H321V614L251 597V233Q251 156 286 124T386 91Q451 91 485 123T520 233V597L449
613V693H697V614L631 596V229Q631 175 616 131T568 55T484 6T363 -12Z" />
<glyph unicode="&#xdc;" glyph-name="Udieresis" horiz-adv-x="705" d="M279 730Q247 730 225 750T202 803Q202 837 224 856T279 876Q312 876 335 857T358 803Q358 770 335 750T279 730ZM475 730Q443 730 420 750T397 803Q397 837 420 856T475 876Q507 876 530
857T553 803Q553 770 530 750T475 730ZM363 -12Q217 -12 148 50T79 218V596L8 614V693H321V614L251 597V233Q251 156 286 124T386 91Q451 91 485 123T520 233V597L449 613V693H697V614L631 596V229Q631 175 616 131T568 55T484 6T363 -12Z" />
<glyph unicode="&#xdd;" glyph-name="Yacute" horiz-adv-x="654" d="M258 724L234 789L442 893L488 780L258 724ZM171 80L248 97V287L63 596L7 614V693H300V614L242 597L361 384H365L478 597L419 614V693H647V614L591 596L419 290V97L495 80V0H171V80Z" />
<glyph unicode="&#xde;" glyph-name="Thorn" horiz-adv-x="622" d="M18 80L93 97V596L18 614V693H331V614L264 597V545H339Q413 545 463 531T545 492T589 432T603 355Q603 310 587 275T541 216T471 180T381 168Q352 168 331 170T300 175V253Q303 252 313 252T335
251Q433 251 433 352Q433 406 410 427T333 448H264V96L352 80V0H18V80Z" />
<glyph unicode="&#xdf;" glyph-name="germandbls" horiz-adv-x="648" d="M437 -13Q392 -13 355 -6T293 12L285 146H372L389 85Q397 82 407 79T432 76Q458 76 475 87T493 123Q493 136 487 147T471 167T447 185T419 204L378 229Q344 251 321 278T297 352Q297 387
314 416T353 473T391 527T409 582Q409 614 392 635T335 656Q284 656 259 623T234 526V0H17V73L79 88V434H16V502L79 526V540Q79 585 97 623T149 689T232 732T343 748Q398 748 439 737T508 705T549 657T563 598Q563 563 542 535T496 483T449 439T428 398Q428 378
441 366T487 333L528 307Q547 295 565 282T599 250T623 208T632 152Q632 80 585 34T437 -13Z" />
<glyph unicode="&#xe0;" glyph-name="agrave" horiz-adv-x="523" d="M171 -13Q99 -13 56 26T13 131Q13 168 26 194T62 237T120 266T196 285L301 306V341Q301 364 297 380T282 406T250 420T197 425Q162 425 125 423T62 415V501Q97 515 152 526T270 538Q367 538
411 497T456 371V115Q456 95 467 88T496 81H515V11Q502 3 475 -4T416 -12Q376 -12 352 2T318 48H313Q293 23 258 5T171 -13ZM235 79Q256 79 273 87T301 105V230L237 226Q199 223 184 205T168 152Q168 116 184 98T235 79ZM124 649L179 759L379 637L350 574L124 649Z"
/>
<glyph unicode="&#xe1;" glyph-name="aacute" horiz-adv-x="523" d="M171 -13Q99 -13 56 26T13 131Q13 168 26 194T62 237T120 266T196 285L301 306V341Q301 364 297 380T282 406T250 420T197 425Q162 425 125 423T62 415V501Q97 515 152 526T270 538Q367 538
411 497T456 371V115Q456 95 467 88T496 81H515V11Q502 3 475 -4T416 -12Q376 -12 352 2T318 48H313Q293 23 258 5T171 -13ZM235 79Q256 79 273 87T301 105V230L237 226Q199 223 184 205T168 152Q168 116 184 98T235 79ZM143 637L342 759L397 649L172 574L143 637Z"
/>
<glyph unicode="&#xe2;" glyph-name="acircumflex" horiz-adv-x="523" d="M171 -13Q99 -13 56 26T13 131Q13 168 26 194T62 237T120 266T196 285L301 306V341Q301 364 297 380T282 406T250 420T197 425Q162 425 125 423T62 415V501Q97 515 152 526T270 538Q367
538 411 497T456 371V115Q456 95 467 88T496 81H515V11Q502 3 475 -4T416 -12Q376 -12 352 2T318 48H313Q293 23 258 5T171 -13ZM235 79Q256 79 273 87T301 105V230L237 226Q199 223 184 205T168 152Q168 116 184 98T235 79ZM105 618L224 748H297L415 618L384 575L260
643L137 575L105 618Z" />
<glyph unicode="&#xe3;" glyph-name="atilde" horiz-adv-x="523" d="M171 -13Q99 -13 56 26T13 131Q13 168 26 194T62 237T120 266T196 285L301 306V341Q301 364 297 380T282 406T250 420T197 425Q162 425 125 423T62 415V501Q97 515 152 526T270 538Q367 538
411 497T456 371V115Q456 95 467 88T496 81H515V11Q502 3 475 -4T416 -12Q376 -12 352 2T318 48H313Q293 23 258 5T171 -13ZM235 79Q256 79 273 87T301 105V230L237 226Q199 223 184 205T168 152Q168 116 184 98T235 79ZM90 623Q110 668 140 696T209 725Q226 725
240 721T268 711T294 701T317 696Q334 696 346 704T372 731L431 693Q411 648 381 620T312 592Q295 592 281 596T253 606T227 616T204 621Q187 621 175 613T149 586L90 623Z" />
<glyph unicode="&#xe4;" glyph-name="adieresis" horiz-adv-x="523" d="M171 -13Q99 -13 56 26T13 131Q13 168 26 194T62 237T120 266T196 285L301 306V341Q301 364 297 380T282 406T250 420T197 425Q162 425 125 423T62 415V501Q97 515 152 526T270 538Q367 538
411 497T456 371V115Q456 95 467 88T496 81H515V11Q502 3 475 -4T416 -12Q376 -12 352 2T318 48H313Q293 23 258 5T171 -13ZM235 79Q256 79 273 87T301 105V230L237 226Q199 223 184 205T168 152Q168 116 184 98T235 79ZM162 588Q130 588 108 608T85 661Q85 695
107 714T162 734Q195 734 218 715T241 661Q241 628 218 608T162 588ZM358 588Q326 588 303 608T280 661Q280 695 303 714T358 734Q390 734 413 715T436 661Q436 628 413 608T358 588Z" />
<glyph unicode="&#xe5;" glyph-name="aring" horiz-adv-x="523" d="M171 -13Q99 -13 56 26T13 131Q13 168 26 194T62 237T120 266T196 285L301 306V341Q301 364 297 380T282 406T250 420T197 425Q162 425 125 423T62 415V501Q97 515 152 526T270 538Q367 538 411
497T456 371V115Q456 95 467 88T496 81H515V11Q502 3 475 -4T416 -12Q376 -12 352 2T318 48H313Q293 23 258 5T171 -13ZM235 79Q256 79 273 87T301 105V230L237 226Q199 223 184 205T168 152Q168 116 184 98T235 79ZM260 630Q282 630 295 643T308 679Q308 700 295
713T260 727Q238 727 226 714T213 679Q213 656 225 643T260 630ZM260 575Q236 575 216 583T182 605T159 639T151 679Q151 700 159 718T181 751T216 774T260 782Q284 782 304 774T338 752T361 719T370 679Q370 658 362 639T339 606T304 583T260 575Z" />
<glyph unicode="&#xe6;" glyph-name="ae" horiz-adv-x="806" d="M178 -13Q101 -13 57 26T13 131Q13 168 25 194T62 239T120 269T196 288L301 308V341Q301 364 297 380T282 406T250 420T197 425Q162 425 125 423T62 415V501Q97 515 150 526T263 538Q363 538 403
482Q461 538 557 538Q675 538 730 467T785 243H458Q464 162 502 128T610 94Q663 94 697 102T760 119V38Q733 21 688 4T569 -13Q494 -13 440 10T353 76Q323 35 278 11T178 -13ZM325 125Q305 170 300 234L237 229Q199 227 184 207T168 152Q168 79 237 79Q258 79 280
89T325 125ZM630 324Q630 392 610 420T551 448Q511 448 487 419T458 317L630 324Z" />
<glyph unicode="&#xe7;" glyph-name="ccedilla" horiz-adv-x="490" d="M173 -169Q232 -163 253 -153T274 -125Q274 -110 257 -102T197 -93V-2Q107 21 63 89T19 260Q19 333 40 385T100 472T191 522T307 538Q352 538 393 532T461 517V362H365L349 438Q341 441 331
443T298 446Q244 446 213 406T182 273Q182 222 193 188T224 134T274 104T338 95Q380 95 413 102T467 118V36Q442 19 399 3T289 -13Q281 -13 276 -13T260 -12V-43Q325 -46 352 -63T380 -119Q380 -160 332 -186T173 -219V-169Z" />
<glyph unicode="&#xe8;" glyph-name="egrave" horiz-adv-x="531" d="M293 -13Q155 -13 87 61T19 266Q19 330 38 381T91 466T173 519T278 538Q398 538 454 468T510 245H179Q185 164 224 129T333 94Q387 94 422 102T485 119V38Q458 21 412 4T293 -13ZM356 325Q356
393 334 420T274 448Q234 448 209 420T179 319L356 325ZM139 649L194 759L394 637L365 574L139 649Z" />
<glyph unicode="&#xe9;" glyph-name="eacute" horiz-adv-x="531" d="M159 637L358 759L413 649L188 574L159 637ZM293 -13Q155 -13 87 61T19 266Q19 330 38 381T91 466T173 519T278 538Q398 538 454 468T510 245H179Q185 164 224 129T333 94Q387 94 422 102T485
119V38Q458 21 412 4T293 -13ZM356 325Q356 393 334 420T274 448Q234 448 209 420T179 319L356 325Z" />
<glyph unicode="&#xea;" glyph-name="ecircumflex" horiz-adv-x="531" d="M120 618L239 748H312L430 618L399 575L275 643L152 575L120 618ZM293 -13Q155 -13 87 61T19 266Q19 330 38 381T91 466T173 519T278 538Q398 538 454 468T510 245H179Q185 164 224 129T333
94Q387 94 422 102T485 119V38Q458 21 412 4T293 -13ZM356 325Q356 393 334 420T274 448Q234 448 209 420T179 319L356 325Z" />
<glyph unicode="&#xeb;" glyph-name="edieresis" horiz-adv-x="531" d="M177 588Q145 588 123 608T100 661Q100 695 122 714T177 734Q210 734 233 715T256 661Q256 628 233 608T177 588ZM373 588Q341 588 318 608T295 661Q295 695 318 714T373 734Q405 734 428
715T451 661Q451 628 428 608T373 588ZM293 -13Q155 -13 87 61T19 266Q19 330 38 381T91 466T173 519T278 538Q398 538 454 468T510 245H179Q185 164 224 129T333 94Q387 94 422 102T485 119V38Q458 21 412 4T293 -13ZM356 325Q356 393 334 420T274 448Q234 448
209 420T179 319L356 325Z" />
<glyph unicode="&#xec;" glyph-name="igrave" horiz-adv-x="305" d="M14 73L77 88V422L9 438V514L217 537L232 530V88L292 73V0H14V73ZM267 649L322 759L522 637L493 574L267 649Z" />
<glyph unicode="&#xed;" glyph-name="iacute" horiz-adv-x="305" d="M287 637L486 759L541 649L316 574L287 637ZM14 73L77 88V422L9 438V514L217 537L232 530V88L292 73V0H14V73Z" />
<glyph unicode="&#xee;" glyph-name="icircumflex" horiz-adv-x="305" d="M249 618L368 748H441L559 618L528 575L404 643L281 575L249 618ZM14 73L77 88V422L9 438V514L217 537L232 530V88L292 73V0H14V73Z" />
<glyph unicode="&#xef;" glyph-name="idieresis" horiz-adv-x="305" d="M306 588Q274 588 252 608T229 661Q229 695 251 714T306 734Q339 734 362 715T385 661Q385 628 362 608T306 588ZM502 588Q470 588 447 608T424 661Q424 695 447 714T502 734Q534 734 557
715T580 661Q580 628 557 608T502 588ZM14 73L77 88V422L9 438V514L217 537L232 530V88L292 73V0H14V73Z" />
<glyph unicode="&#xf0;" glyph-name="eth" horiz-adv-x="570" d="M377 644Q456 584 502 501T549 301Q549 222 530 163T475 65T391 7T285 -13Q222 -13 173 6T89 61T37 145T19 254Q19 320 38 369T89 452T161 501T243 517Q275 517 295 511T330 496H336Q319 522 298
544T250 586L125 530L100 585L192 627Q173 639 153 650T111 674L176 751Q214 737 249 720T318 683L427 733L452 678L377 644ZM286 79Q307 79 325 86T357 114T379 169T387 262Q387 315 381 349T366 409Q352 419 333 425T287 432Q263 432 244 424T211 397T190 344T182
261Q182 207 190 172T212 116T245 87T286 79Z" />
<glyph unicode="&#xf1;" glyph-name="ntilde" horiz-adv-x="617" d="M14 73L77 88V422L12 438V514L211 537L225 530V477H231Q269 504 310 521T406 538Q470 538 508 508T546 405V88L606 73V0H339V73L391 86V353Q391 392 372 406T315 421Q292 421 272 416T232 404V86L284
73V0H14V73ZM142 623Q162 668 192 696T261 725Q278 725 292 721T320 711T346 701T369 696Q386 696 398 704T424 731L483 693Q463 648 433 620T364 592Q347 592 333 596T305 606T279 616T256 621Q239 621 227 613T201 586L142 623Z" />
<glyph unicode="&#xf2;" glyph-name="ograve" horiz-adv-x="571" d="M287 80Q309 80 327 88T359 117T381 172T389 259Q389 314 381 350T358 407T325 437T284 446Q263 446 244 438T212 410T190 355T182 267Q182 213 190 177T212 120T246 89T287 80ZM286 -13Q223
-13 173 6T89 60T37 146T19 260Q19 326 39 378T96 465T180 519T285 538Q412 538 482 467T552 266Q552 200 531 148T474 61T390 6T286 -13ZM149 649L204 759L404 637L375 574L149 649Z" />
<glyph unicode="&#xf3;" glyph-name="oacute" horiz-adv-x="571" d="M168 637L367 759L422 649L197 574L168 637ZM287 80Q309 80 327 88T359 117T381 172T389 259Q389 314 381 350T358 407T325 437T284 446Q263 446 244 438T212 410T190 355T182 267Q182 213 190
177T212 120T246 89T287 80ZM286 -13Q223 -13 173 6T89 60T37 146T19 260Q19 326 39 378T96 465T180 519T285 538Q412 538 482 467T552 266Q552 200 531 148T474 61T390 6T286 -13Z" />
<glyph unicode="&#xf4;" glyph-name="ocircumflex" horiz-adv-x="571" d="M130 618L249 748H322L440 618L409 575L285 643L162 575L130 618ZM287 80Q309 80 327 88T359 117T381 172T389 259Q389 314 381 350T358 407T325 437T284 446Q263 446 244 438T212 410T190
355T182 267Q182 213 190 177T212 120T246 89T287 80ZM286 -13Q223 -13 173 6T89 60T37 146T19 260Q19 326 39 378T96 465T180 519T285 538Q412 538 482 467T552 266Q552 200 531 148T474 61T390 6T286 -13Z" />
<glyph unicode="&#xf5;" glyph-name="otilde" horiz-adv-x="571" d="M287 80Q309 80 327 88T359 117T381 172T389 259Q389 314 381 350T358 407T325 437T284 446Q263 446 244 438T212 410T190 355T182 267Q182 213 190 177T212 120T246 89T287 80ZM286 -13Q223
-13 173 6T89 60T37 146T19 260Q19 326 39 378T96 465T180 519T285 538Q412 538 482 467T552 266Q552 200 531 148T474 61T390 6T286 -13ZM115 623Q135 668 165 696T234 725Q251 725 265 721T293 711T319 701T342 696Q359 696 371 704T397 731L456 693Q436 648
406 620T337 592Q320 592 306 596T278 606T252 616T229 621Q212 621 200 613T174 586L115 623Z" />
<glyph unicode="&#xf6;" glyph-name="odieresis" horiz-adv-x="571" d="M187 588Q155 588 133 608T110 661Q110 695 132 714T187 734Q220 734 243 715T266 661Q266 628 243 608T187 588ZM383 588Q351 588 328 608T305 661Q305 695 328 714T383 734Q415 734 438
715T461 661Q461 628 438 608T383 588ZM287 80Q309 80 327 88T359 117T381 172T389 259Q389 314 381 350T358 407T325 437T284 446Q263 446 244 438T212 410T190 355T182 267Q182 213 190 177T212 120T246 89T287 80ZM286 -13Q223 -13 173 6T89 60T37 146T19 260Q19
326 39 378T96 465T180 519T285 538Q412 538 482 467T552 266Q552 200 531 148T474 61T390 6T286 -13Z" />
<glyph unicode="&#xf7;" glyph-name="divide" horiz-adv-x="536" d="M268 71Q231 71 208 95T184 151Q184 184 207 207T268 231Q304 231 327 208T351 151Q351 119 328 95T268 71ZM49 390H487V290H49V390ZM268 449Q231 449 208 472T184 528Q184 561 207 585T268
609Q304 609 327 585T351 528Q351 496 328 473T268 449Z" />
<glyph unicode="&#xf8;" glyph-name="oslash" horiz-adv-x="571" d="M20 10L76 75Q19 147 19 260Q19 326 39 378T96 465T180 519T285 538Q330 538 368 528T438 500L485 555L542 513L492 454Q552 383 552 266Q552 200 531 148T474 61T390 6T286 -13Q238 -13 200
-3T129 28L78 -32L20 10ZM287 79Q310 79 330 87T364 116T387 171T396 259Q396 282 395 300T391 336L204 116Q218 96 239 88T287 79ZM174 268Q174 247 175 229T178 195L363 413Q349 432 330 439T284 447Q261 447 241 439T206 411T183 357T174 268Z" />
<glyph unicode="&#xf9;" glyph-name="ugrave" horiz-adv-x="617" d="M220 -11Q139 -11 104 28T68 137V425L6 442V517L208 537L223 529V181Q223 141 237 123T295 104Q327 104 346 110T383 124V425L324 442V517L523 537L538 529V103L600 87V14L404 -10L389 -3V54H383Q355
26 315 8T220 -11ZM166 649L221 759L421 637L392 574L166 649Z" />
<glyph unicode="&#xfa;" glyph-name="uacute" horiz-adv-x="617" d="M185 637L384 759L439 649L214 574L185 637ZM220 -11Q139 -11 104 28T68 137V425L6 442V517L208 537L223 529V181Q223 141 237 123T295 104Q327 104 346 110T383 124V425L324 442V517L523 537L538
529V103L600 87V14L404 -10L389 -3V54H383Q355 26 315 8T220 -11Z" />
<glyph unicode="&#xfb;" glyph-name="ucircumflex" horiz-adv-x="617" d="M147 618L266 748H339L457 618L426 575L302 643L179 575L147 618ZM220 -11Q139 -11 104 28T68 137V425L6 442V517L208 537L223 529V181Q223 141 237 123T295 104Q327 104 346 110T383 124V425L324
442V517L523 537L538 529V103L600 87V14L404 -10L389 -3V54H383Q355 26 315 8T220 -11Z" />
<glyph unicode="&#xfc;" glyph-name="udieresis" horiz-adv-x="617" d="M204 588Q172 588 150 608T127 661Q127 695 149 714T204 734Q237 734 260 715T283 661Q283 628 260 608T204 588ZM400 588Q368 588 345 608T322 661Q322 695 345 714T400 734Q432 734 455
715T478 661Q478 628 455 608T400 588ZM220 -11Q139 -11 104 28T68 137V425L6 442V517L208 537L223 529V181Q223 141 237 123T295 104Q327 104 346 110T383 124V425L324 442V517L523 537L538 529V103L600 87V14L404 -10L389 -3V54H383Q355 26 315 8T220 -11Z" />
<glyph unicode="&#xfd;" glyph-name="yacute" horiz-adv-x="579" d="M157 -202Q132 -202 106 -197T64 -185V-90Q81 -94 93 -95T118 -97Q153 -97 176 -85T213 -39L232 10L52 439L3 453V527H270V453L216 441L317 172H321L410 441L356 453V527H574V453L527 439L336
-62Q310 -132 271 -167T157 -202ZM194 637L393 759L448 649L223 574L194 637Z" />
<glyph unicode="&#xfe;" glyph-name="thorn" horiz-adv-x="591" d="M0 -128L63 -115V631L0 647V725L202 748L217 742V484H223Q249 504 284 521T373 539Q409 539 444 527T506 486T550 408T567 284Q567 205 547 149T491 57T406 4T298 -13Q269 -13 252 -11T218 -6V-114L290
-128V-200H0V-128ZM292 79Q318 79 339 87T374 117T397 173T405 263Q405 355 378 391T300 427Q273 427 252 421T217 408V101Q229 93 245 86T292 79Z" />
<glyph unicode="&#xff;" glyph-name="ydieresis" horiz-adv-x="579" d="M157 -202Q132 -202 106 -197T64 -185V-90Q81 -94 93 -95T118 -97Q153 -97 176 -85T213 -39L232 10L52 439L3 453V527H270V453L216 441L317 172H321L410 441L356 453V527H574V453L527 439L336
-62Q310 -132 271 -167T157 -202ZM213 588Q181 588 159 608T136 661Q136 695 158 714T213 734Q246 734 269 715T292 661Q292 628 269 608T213 588ZM409 588Q377 588 354 608T331 661Q331 695 354 714T409 734Q441 734 464 715T487 661Q487 628 464 608T409 588Z"
/>
<glyph unicode="&#x131;" glyph-name="dotlessi" horiz-adv-x="305" d="M14 73L77 88V422L9 438V514L217 537L232 530V88L292 73V0H14V73Z" />
<glyph unicode="&#x141;" glyph-name="Lslash" horiz-adv-x="589" d="M20 312L93 338V596L18 614V693H343V614L264 597V397L428 459V358L264 296V96H438L487 246H579L566 0H18V80L93 97V238L20 212V312Z" />
<glyph unicode="&#x142;" glyph-name="lslash" horiz-adv-x="308" d="M8 358L78 395V633L9 649V725L218 748L233 741V479L306 518V423L233 384V88L295 73V0H14V73L78 88V300L8 263V358Z" />
<glyph unicode="&#x152;" glyph-name="OE" horiz-adv-x="962" d="M375 0Q204 0 114 80T23 333Q23 424 47 492T116 604T225 671T369 693H918L927 495H836L798 600H604V399H683L704 473H779V235H704L683 311H604V94H803L853 223H946L935 0H375ZM377 595Q334 595
302 584T247 544T214 468T202 347Q202 266 215 217T252 141T311 107T392 98H435V595H377Z" />
<glyph unicode="&#x153;" glyph-name="oe" horiz-adv-x="901" d="M663 -13Q591 -13 544 9T467 73Q435 31 389 9T286 -13Q223 -13 173 6T89 60T37 146T19 260Q19 326 39 378T96 465T180 519T285 538Q348 538 395 517T472 455Q501 496 546 517T648 538Q768 538 824
468T881 245H550Q556 164 595 129T703 94Q757 94 792 102T856 119V38Q828 21 782 4T663 -13ZM287 80Q309 80 327 88T359 117T381 172T389 259Q389 314 381 350T358 407T325 437T284 446Q263 446 244 438T212 410T190 355T182 267Q182 213 190 177T212 120T246 89T287
80ZM645 448Q605 448 580 420T549 319L726 325Q726 393 704 420T645 448Z" />
<glyph unicode="&#x160;" glyph-name="Scaron" horiz-adv-x="551" d="M441 843L321 731H248L127 843L156 887L284 834L413 887L441 843ZM257 -12Q196 -12 138 -3T40 22L31 200H131L158 110Q178 100 201 94T257 88Q311 88 337 113T364 176Q364 216 333 238T250
280L196 302Q159 315 130 331T81 371T49 425T38 500Q38 544 52 582T98 647T178 690T294 706Q363 706 409 698T484 679L493 515H394L373 588Q359 595 339 601T287 607Q245 607 218 589T190 534Q190 499 214 480T289 441L344 420Q386 404 420 388T478 348T514 293T527
212Q527 162 511 121T460 51T376 5T257 -12Z" />
<glyph unicode="&#x161;" glyph-name="scaron" horiz-adv-x="464" d="M337 710L369 754L492 686L616 754L647 710L529 580H456L337 710ZM208 -13Q164 -13 116 -5T30 18L21 162H114L136 94Q147 87 167 82T215 76Q253 76 275 90T297 133Q297 160 281 172T223 197L166
212Q96 229 59 265T22 369Q22 405 35 436T76 490T145 526T244 539Q292 539 336 532T410 512V376H320L304 437Q293 443 278 447T237 452Q204 452 182 440T159 400Q159 375 176 362T240 337L301 321Q379 301 411 264T444 166Q444 127 430 94T388 37T314 0T208 -13Z"
/>
<glyph unicode="&#x178;" glyph-name="Ydieresis" horiz-adv-x="654" d="M254 730Q222 730 200 750T177 803Q177 837 199 856T254 876Q287 876 310 857T333 803Q333 770 310 750T254 730ZM450 730Q418 730 395 750T372 803Q372 837 395 856T450 876Q482 876 505
857T528 803Q528 770 505 750T450 730ZM171 80L248 97V287L63 596L7 614V693H300V614L242 597L361 384H365L478 597L419 614V693H647V614L591 596L419 290V97L495 80V0H171V80Z" />
<glyph unicode="&#x17d;" glyph-name="Zcaron" horiz-adv-x="578" d="M455 843L335 731H262L141 843L170 887L298 834L427 887L455 843ZM16 96L364 592V596H169L126 479H30L41 693H560V597L211 101V97H425L470 228H564L553 0H16V96Z" />
<glyph unicode="&#x17e;" glyph-name="zcaron" horiz-adv-x="496" d="M97 710L129 754L252 686L376 754L407 710L289 580H216L97 710ZM21 82L289 438V442H139L111 350H33L42 527H466V444L204 92V88H358L392 190H472L459 0H21V82Z" />
<glyph unicode="&#x192;" glyph-name="florin" horiz-adv-x="462" d="M44 416H130L149 528Q166 620 218 660T349 701Q391 701 417 695T460 680V590Q446 593 433 594T400 596Q358 596 338 577T309 507L292 416H399V324H276L211 -39Q197 -117 151 -150T31 -183Q-1
-183 -27 -176T-63 -164V-76Q-54 -78 -43 -79T-17 -81Q12 -81 29 -65T54 -13L113 324H44V416Z" />
<glyph unicode="&#x2c6;" glyph-name="circumflex" horiz-adv-x="495" d="M92 618L211 748H284L402 618L371 575L247 643L124 575L92 618Z" />
<glyph unicode="&#x2c7;" glyph-name="caron" horiz-adv-x="495" d="M92 710L124 754L247 686L371 754L402 710L284 580H211L92 710Z" />
<glyph unicode="&#x2d8;" glyph-name="breve" horiz-adv-x="495" d="M259 584Q225 584 198 595T151 625T120 670T108 726H198Q207 680 259 680Q283 680 299 691T319 726H409Q408 696 397 670T367 625T320 595T259 584Z" />
<glyph unicode="&#x2d9;" glyph-name="dotaccent" horiz-adv-x="495" d="M247 586Q212 586 187 608T162 665Q162 701 187 722T247 744Q282 744 307 723T332 665Q332 630 307 608T247 586Z" />
<glyph unicode="&#x2da;" glyph-name="ring" horiz-adv-x="495" d="M247 630Q269 630 282 643T295 679Q295 700 282 713T247 727Q225 727 213 714T200 679Q200 656 212 643T247 630ZM247 575Q223 575 203 583T169 605T146 639T138 679Q138 700 146 718T168 751T203
774T247 782Q271 782 291 774T325 752T348 719T357 679Q357 658 349 639T326 606T291 583T247 575Z" />
<glyph unicode="&#x2db;" glyph-name="ogonek" horiz-adv-x="522" d="M257 -198Q194 -198 166 -174T138 -114Q138 -74 167 -46T241 0H312Q289 -27 276 -47T262 -91Q262 -126 305 -126Q313 -126 320 -126T333 -124V-186Q319 -191 301 -194T257 -198Z" />
<glyph unicode="&#x2dc;" glyph-name="tilde" horiz-adv-x="495" d="M78 623Q98 668 128 696T197 725Q214 725 228 721T256 711T282 701T305 696Q322 696 334 704T360 731L419 693Q399 648 369 620T300 592Q283 592 269 596T241 606T215 616T192 621Q175 621 163
613T137 586L78 623Z" />
<glyph unicode="&#x2dd;" glyph-name="hungarumlaut" horiz-adv-x="495" d="M106 604L214 772L307 703L156 569L106 604ZM291 609L408 772L496 697L339 570L291 609Z" />
</font>
</defs>
</svg>
