<?xml version="1.0" standalone="no"?> <!DOCTYPE svg PUBLIC "-//W3C//DTD SVG 1.0//EN" "http://www.w3.org/TR/2001/REC-SVG-20010904/DTD/svg10.dtd" > <svg xmlns="http://www.w3.org/2000/svg" width="100%" height="100%">
<defs >
<font id="GuardianTitlepieceWeb-Regular" horiz-adv-x="599" ><font-face
    font-family="GuardianTitlepieceWeb"
    units-per-em="1000"
    panose-1="2 0 5 7 8 0 0 2 0 3"
    ascent="755"
    descent="-245"
    alphabetic="0" />
<missing-glyph horiz-adv-x="260" />
<glyph unicode=" " glyph-name="space" horiz-adv-x="260" />
<glyph unicode="!" glyph-name="exclam" horiz-adv-x="268" d="M35 732H233L186 238H76L35 732ZM133 -12Q91 -12 65 16T39 81Q39 100 46 117T65 148T95 168T133 176Q154 176 171 169T201 148T221 118T228 81Q228 63 221 46T201 16T171 -4T133 -12Z" />
<glyph unicode="&quot;" glyph-name="quotedbl" horiz-adv-x="525" d="M278 429Q337 463 366 497T400 579Q394 574 386 570T363 566Q336 566 312 587T288 646Q288 684 316 708T385 733Q436 733 468 699T500 607Q500 575 491 542T460 479T401 424T305 379L278 429ZM30
429Q89 463 118 497T152 579Q146 574 138 570T115 566Q88 566 64 587T40 646Q40 684 68 708T137 733Q188 733 220 699T252 607Q252 575 243 542T212 479T153 424T57 379L30 429Z" />
<glyph unicode="#" glyph-name="numbersign" horiz-adv-x="548" d="M65 522H158L182 670H277L253 522H352L376 670H471L447 522H517V383H425L412 298H481V159H390L365 0H270L295 159H196L171 0H76L101 159H31V298H123L136 383H65V522ZM217 290H316L332 391H233L217 290Z" />
<glyph unicode="$" glyph-name="dollar" horiz-adv-x="563" d="M185 -5Q136 0 97 7T38 23L28 211H118L156 96Q160 94 170 91T197 84L223 283Q219 285 216 285T208 288Q163 301 129 318T72 360T37 417T25 494Q25 539 39 576T83 641T162 685T279 705L292 801H378L365
703Q415 698 448 690T499 676L508 498H421L381 604Q376 606 369 608T353 613L329 432Q335 430 341 429T356 425Q401 414 437 397T497 356T535 296T548 214Q548 110 479 51T270 -9L253 -143H167L185 -5ZM379 175Q379 207 363 225T306 258L282 78Q337 82 358 105T379
175ZM185 535Q185 509 198 491T246 458L267 617Q226 612 206 593T185 535Z" />
<glyph unicode="%" glyph-name="percent" horiz-adv-x="919" d="M698 -11Q662 -11 628 0T568 34T526 94T510 182Q510 234 526 271T569 333T630 368T699 380Q733 380 767 369T828 335T872 275T889 187Q889 135 873 98T830 36T769 1T698 -11ZM646 697H734L264 -37H176L646
697ZM699 56Q729 56 738 87T747 182Q747 243 738 278T699 314Q669 314 660 280T650 186Q650 125 659 91T699 56ZM218 298Q182 298 148 309T88 343T46 403T30 491Q30 543 46 580T89 642T150 677T219 689Q253 689 287 678T348 644T392 584T409 496Q409 444 393 407T350
345T289 310T218 298ZM219 365Q249 365 258 396T267 491Q267 552 258 587T219 623Q189 623 180 589T170 495Q170 434 179 400T219 365Z" />
<glyph unicode="&amp;" glyph-name="ampersand" horiz-adv-x="740" d="M668 332Q656 294 637 247T591 164L661 79L725 51V0H494L462 39Q427 16 381 2T292 -12Q165 -12 92 43T18 202Q18 238 29 267T61 319T109 361T173 395Q149 428 133 465T117 548Q117 590 131
626T172 688T241 729T336 744Q385 744 423 732T487 698T527 646T541 579Q541 543 528 516T494 468T447 431T395 400L533 234Q544 254 556 283T573 333L514 347V399H725V347L668 332ZM343 94Q366 94 381 97T409 105L228 329Q218 312 211 291T204 232Q204 202 214
177T242 134T285 105T343 94ZM290 579Q290 544 305 515T344 461Q369 484 378 515T388 581Q388 626 376 644T340 662Q319 662 305 644T290 579Z" />
<glyph unicode="&apos;" glyph-name="quotesingle" horiz-adv-x="277" d="M30 429Q89 463 118 497T152 579Q146 574 138 570T115 566Q88 566 64 587T40 646Q40 684 68 708T137 733Q188 733 220 699T252 607Q252 575 243 542T212 479T153 424T57 379L30 429Z" />
<glyph unicode="(" glyph-name="parenleft" horiz-adv-x="376" d="M318 -146Q266 -109 217 -65T130 34T68 160T45 321Q45 403 68 472T129 598T216 703T318 788L371 739Q336 698 309 656T261 565T231 461T220 338Q220 259 230 198T259 85T306 -10T371 -97L318 -146V-146Z" />
<glyph unicode=")" glyph-name="parenright" horiz-adv-x="376" d="M5 -97Q39 -57 67 -14T114 77T145 181T156 304Q156 383 146 444T117 557T70 652T5 739L58 788Q110 750 159 706T246 607T307 481T331 321Q331 238 308 169T247 43T160 -61T58 -146L5 -97Z" />
<glyph unicode="*" glyph-name="asterisk" horiz-adv-x="452" d="M210 522L99 410L38 518L190 552L38 584L99 693L210 580L160 731H292L242 580L353 693L414 584L261 552L414 518L353 410L242 522L292 371H160L210 522Z" />
<glyph unicode="+" glyph-name="plus" horiz-adv-x="590" d="M50 374H241V578H349V374H540V275H349V71H241V275H50V374Z" />
<glyph unicode="," glyph-name="comma" horiz-adv-x="303" d="M28 -126Q88 -90 118 -56T154 26Q143 18 123 18Q94 18 71 39T47 101Q47 142 75 167T145 192Q196 192 227 157T258 61Q258 27 249 -7T217 -72T155 -131T55 -177L28 -126V-126Z" />
<glyph unicode="-" glyph-name="hyphen" horiz-adv-x="369" d="M39 361H330V229H39V361Z" />
<glyph unicode="." glyph-name="period" horiz-adv-x="306" d="M153 -14Q130 -14 111 -6T79 17T58 49T50 89Q50 132 78 162T153 192Q199 192 227 162T256 89Q256 68 249 50T228 17T195 -5T153 -14Z" />
<glyph unicode="/" glyph-name="slash" horiz-adv-x="392" d="M271 775H376L106 -125H1L271 775Z" />
<glyph unicode="0" glyph-name="zero" horiz-adv-x="653" d="M326 -11Q263 -11 209 7T115 65T51 163T28 306Q28 391 53 452T120 553T216 611T330 630Q391 630 445 612T539 554T602 455T625 312Q625 227 600 166T534 66T438 8T326 -11ZM328 85Q350 85 366 94T394
128T411 195T417 304Q417 377 412 422T397 492T369 525T327 534Q304 534 287 524T259 489T243 422T237 314Q237 241 242 196T257 127T285 94T328 85Z" />
<glyph unicode="1" glyph-name="one" horiz-adv-x="473" d="M30 63L141 97V448L29 438V516L239 623H342V97L449 63V0H30V63Z" />
<glyph unicode="2" glyph-name="two" horiz-adv-x="538" d="M196 532Q188 532 180 532T164 530L121 424H30V592Q74 609 132 619T255 629Q374 629 437 581T501 447Q501 406 489 373T451 310T382 248T279 178L198 128V126H512L501 0H22V105L170 235Q234 290 259
334T284 422Q284 471 264 501T196 532Z" />
<glyph unicode="3" glyph-name="three" horiz-adv-x="535" d="M189 537Q182 537 172 537T157 536L119 439H30V597Q72 611 127 620T243 629Q358 629 418 583T479 446Q479 381 441 339T331 280V276Q409 265 457 222T505 97Q505 -1 431 -57T222 -113Q145 -113 96
-98T16 -64V16Q45 6 83 -1T164 -8Q233 -8 261 21T290 108Q290 163 266 193T185 223H121V315H173Q231 315 255 343T280 421Q280 477 261 507T189 537Z" />
<glyph unicode="4" glyph-name="four" horiz-adv-x="626" d="M315 77H18V162L353 617H517V174H598V77H517V-106H315V77ZM315 174V432H311L126 177V174H315Z" />
<glyph unicode="5" glyph-name="five" horiz-adv-x="538" d="M228 -114Q153 -114 105 -99T24 -65V14Q55 4 91 -2T172 -9Q233 -9 264 21T296 119Q296 188 262 216T162 245Q103 245 53 234L77 617H473L463 474H178L168 325Q185 334 214 339T280 345Q328 345 369
333T441 294T489 227T506 130Q506 78 489 34T437 -44T350 -95T228 -114Z" />
<glyph unicode="6" glyph-name="six" horiz-adv-x="622" d="M318 -13Q249 -13 195 12T104 84T48 196T28 340Q28 443 55 517T129 639T236 709T362 732Q428 732 473 721T545 691V607Q522 615 485 618T410 622Q375 622 345 612T290 575T252 506T235 398Q261 423 298
436T379 450Q482 450 538 395T594 242Q594 191 577 145T526 63T440 8T318 -13ZM317 77Q356 77 374 111T393 221Q393 292 373 321T312 350Q286 350 268 345T236 329Q235 320 235 309T235 285Q235 176 253 127T317 77Z" />
<glyph unicode="7" glyph-name="seven" horiz-adv-x="523" d="M398 476V481H136L94 397H16L26 617H509V509L294 -104H78L398 476Z" />
<glyph unicode="8" glyph-name="eight" horiz-adv-x="622" d="M309 -14Q167 -14 98 39T29 185Q29 244 71 283T183 345V349Q114 377 83 422T52 530Q52 575 69 612T121 676T204 718T318 733Q443 733 505 683T568 553Q568 524 557 502T527 461T482 430T424 406V401Q502
376 547 332T593 210Q593 101 519 44T309 -14ZM296 88Q353 88 378 114T403 184Q403 206 393 223T364 255T315 282T247 309Q214 287 200 258T185 189Q185 144 214 116T296 88ZM356 442Q381 459 397 481T413 541Q413 584 387 607T323 630Q285 630 262 609T239 552Q239
531 245 515T266 487T303 464T356 442Z" />
<glyph unicode="9" glyph-name="nine" horiz-adv-x="616" d="M255 -116Q190 -116 142 -103T66 -69V17Q91 8 130 2T207 -4Q243 -4 275 6T332 41T369 109T383 217Q357 193 321 180T241 166Q138 166 82 221T26 374Q26 425 43 471T94 553T179 608T301 629Q370 629
424 604T514 534T570 423T590 276Q590 173 564 99T492 -23T385 -93T255 -116ZM307 266Q333 266 350 271T382 287Q383 296 383 307T383 331Q383 440 366 487T302 534Q264 534 246 503T228 395Q228 322 247 294T307 266Z" />
<glyph unicode=":" glyph-name="colon" horiz-adv-x="311" d="M155 289Q132 289 113 297T81 320T60 352T52 392Q52 435 80 465T155 495Q201 495 229 465T258 392Q258 371 251 353T230 320T197 298T155 289ZM155 -14Q132 -14 113 -6T81 17T60 49T52 89Q52 132 80
162T155 192Q201 192 229 162T258 89Q258 68 251 50T230 17T197 -5T155 -14Z" />
<glyph unicode=";" glyph-name="semicolon" horiz-adv-x="311" d="M32 -126Q92 -90 122 -56T158 26Q147 18 127 18Q98 18 75 39T51 101Q51 142 79 167T149 192Q200 192 231 157T262 61Q262 27 253 -7T221 -72T159 -131T59 -177L32 -126ZM155 289Q132 289 113 297T81
320T60 352T52 392Q52 435 80 465T155 495Q201 495 229 465T258 392Q258 371 251 353T230 320T197 298T155 289Z" />
<glyph unicode="&lt;" glyph-name="less" horiz-adv-x="563" d="M56 262V359L501 550V440L180 311L501 181V71L56 262Z" />
<glyph unicode="=" glyph-name="equal" horiz-adv-x="594" d="M54 436H540V337H54V436ZM54 230H540V131H54V230Z" />
<glyph unicode="&gt;" glyph-name="greater" horiz-adv-x="563" d="M62 181L383 310L62 440V550L507 359V262L62 71V181Z" />
<glyph unicode="?" glyph-name="question" horiz-adv-x="491" d="M193 650Q182 650 173 650T156 648L122 540H36V715Q71 726 119 734T219 743Q273 743 318 734T396 704T447 648T466 560Q466 525 457 497T430 447T390 406T339 373Q291 347 263 323T234 269Q234
263 235 255T238 237H151Q144 251 139 268T134 312Q134 351 150 377T200 434Q227 459 247 487T268 559Q268 605 250 627T193 650ZM205 -13Q183 -13 165 -5T135 16T115 47T108 85Q108 125 134 154T205 183Q249 183 275 154T302 85Q302 65 295 48T275 17T245 -5T205
-13Z" />
<glyph unicode="@" glyph-name="at" horiz-adv-x="900" d="M440 -161Q344 -161 266 -133T132 -54T46 72T15 240Q15 337 48 423T143 572T289 673T478 710Q564 710 637 686T765 615T849 500T880 345Q880 268 857 212T796 118T710 62T612 44Q555 44 524 66T482 125H475Q454
91 418 72T340 53Q313 53 288 64T244 96T213 149T201 222Q201 285 220 336T272 425T349 483T443 504Q486 504 512 494T559 469L584 495H684L626 187Q621 158 627 146T657 133Q677 133 701 144T746 179T781 244T795 343Q795 413 774 468T711 562T611 620T478 640Q392
640 323 609T205 524T130 398T104 244Q104 84 192 1T446 -82Q480 -82 514 -79T578 -71T633 -59T676 -46V-116Q630 -136 571 -148T440 -161ZM408 147Q441 147 462 173L504 403Q499 416 490 427T461 438Q443 438 426 421T396 375T375 307T367 226Q367 191 376 169T408
147Z" />
<glyph unicode="A" glyph-name="A" horiz-adv-x="736" d="M419 214H206Q198 185 190 157T171 94L240 66V0H0V66L56 94L269 732H470L677 94L736 66V0H383V66L452 94L419 214ZM316 576Q308 555 297 516Q286 483 270 429T229 290H398L321 576H316Z" />
<glyph unicode="B" glyph-name="B" horiz-adv-x="696" d="M20 66L91 94V638L21 666V732H384Q509 732 573 687T638 548Q638 515 631 488T605 440T554 403T472 380V375Q529 370 567 357T628 321T661 268T671 198Q671 104 607 52T402 0H20V66ZM352 91Q400 91 423
120T447 213Q447 277 424 304T352 331H302V91H352ZM345 414Q383 414 406 436T429 523Q429 586 408 613T344 640H302V414H345Z" />
<glyph unicode="C" glyph-name="C" horiz-adv-x="652" d="M382 -12Q306 -12 240 8T125 74T48 189T20 361Q20 468 53 541T141 659T263 724T402 744Q470 744 524 735T612 712L619 515H527L479 628Q464 635 443 640T396 646Q357 646 328 632T280 585T251 502T241
378Q241 292 250 236T280 145T330 98T402 84Q429 84 452 90T489 105L536 223H626L618 29Q579 11 524 0T382 -12Z" />
<glyph unicode="D" glyph-name="D" horiz-adv-x="749" d="M20 66L90 94V638L20 666V732H372Q454 732 519 712T630 650T700 540T724 378Q724 280 699 209T627 91T517 22T376 0H20V66ZM354 99Q390 99 417 109T463 149T491 229T501 363Q501 454 491 507T460 588T411
623T344 631H305V99H354Z" />
<glyph unicode="E" glyph-name="E" horiz-adv-x="675" d="M20 66L90 94V638L20 666V732H625L633 526H547L508 637H308V417H389L407 490H485V255H407L389 329H308V95H512L562 229H650L640 0H20V66Z" />
<glyph unicode="F" glyph-name="F" horiz-adv-x="643" d="M20 66L90 94V637L20 665V732H624L633 523H553L504 631H304V400H380L408 473H476V232H408L381 307H304V93L384 66V0H20V66Z" />
<glyph unicode="G" glyph-name="G" horiz-adv-x="727" d="M408 -13Q320 -13 249 7T126 73T48 189T20 361Q20 468 53 541T141 659T267 724T417 744Q486 744 545 735T639 711L647 512H556L505 629Q489 638 462 642T403 646Q321 646 283 582T245 383Q245 294 253
237T280 147T329 100T402 87Q421 87 437 90T465 99V263L401 289V355H712V289L657 263V28Q616 12 550 0T408 -13Z" />
<glyph unicode="H" glyph-name="H" horiz-adv-x="807" d="M20 66L90 94V638L20 666V732H365V666L305 639V419H503V639L442 666V732H786V666L717 638V94L787 66V0H442V66L503 92V329H305V92L365 66V0H20V66Z" />
<glyph unicode="I" glyph-name="I" horiz-adv-x="391" d="M20 66L91 94V638L20 666V732H376V666L305 638V94L376 66V0H20V66Z" />
<glyph unicode="J" glyph-name="J" horiz-adv-x="487" d="M177 -8Q144 -8 119 -5T75 4T42 16T15 29V134Q33 129 51 125T102 121Q147 121 172 143T198 221V640L128 667V732H479V667L413 640V218Q413 108 353 50T177 -8Z" />
<glyph unicode="K" glyph-name="K" horiz-adv-x="749" d="M484 462L691 99L749 72V0H507L340 300L294 249V95L354 69V0H20V69L90 97V639L20 667V732H354V667L294 640V367L515 640L453 667V732H701V667L640 637L484 462Z" />
<glyph unicode="L" glyph-name="L" horiz-adv-x="612" d="M20 65L90 93V639L20 667V732H370V667L295 640V95H457L508 251H602L588 0H20V65Z" />
<glyph unicode="M" glyph-name="M" horiz-adv-x="970" d="M20 65L90 93V639L20 667V732H354L413 515Q424 470 434 422T452 332Q462 284 470 238H474Q483 284 493 332Q501 373 512 421T535 515L593 732H950V667L877 639V93L950 65V0H614V65L669 92V358Q669 397
671 445T675 535Q678 584 682 634H677Q665 584 654 535Q644 493 632 445T610 359L514 7H364L268 352Q257 391 246 439T224 529Q213 578 202 629H197Q200 580 203 532Q205 490 207 443T209 357V92L265 65V0H20V65Z" />
<glyph unicode="N" glyph-name="N" horiz-adv-x="731" d="M20 65L91 93V638L20 666V732H293L434 486Q452 454 469 420T501 356Q517 322 532 288H537V637L468 666V732H711V666L649 638V0H482L303 317Q299 324 293 336T280 364T264 397T248 432Q230 472 209 518H205V92L272
65V0H20V65Z" />
<glyph unicode="O" glyph-name="O" horiz-adv-x="752" d="M373 -12Q300 -12 236 11T123 80T48 197T20 362Q20 462 51 534T133 653T248 722T378 744Q451 744 515 722T628 653T704 536T732 371Q732 271 701 199T620 80T505 11T373 -12ZM375 86Q406 86 430 99T472
143T498 226T507 357Q507 445 499 501T474 589T433 634T375 646Q345 646 321 633T279 589T252 506T242 376Q242 289 250 233T275 144T317 99T375 86Z" />
<glyph unicode="P" glyph-name="P" horiz-adv-x="654" d="M20 65L90 93V639L20 667V732H360Q435 732 487 717T574 672T623 601T639 506Q639 389 575 332T399 275Q364 275 340 278T295 287V92L377 65V0H20V65ZM295 370Q306 368 314 367T340 366Q388 366 407 397T426
500Q426 567 405 599T339 632H295V370Z" />
<glyph unicode="Q" glyph-name="Q" horiz-adv-x="744" d="M289 -11Q239 3 191 28T105 95T44 203T20 363Q20 463 50 535T130 655T243 724T373 746Q446 746 511 727T626 665T704 555T733 392Q733 247 670 161T490 42V36L740 9L720 -112L289 -11ZM374 85Q446 85 477
161T508 379Q508 463 499 515T471 597T428 637T370 647Q340 647 316 633T276 586T251 503T242 377Q242 294 250 238T274 148T316 100T374 85Z" />
<glyph unicode="R" glyph-name="R" horiz-adv-x="727" d="M20 65L92 93V637L22 667V732H383Q455 732 507 717T592 674T641 605T657 514Q657 477 647 449T619 400T578 364T529 339V335L667 90L722 75V0H491L333 295H297V91L354 65V0H20V65ZM353 384Q402 384 423
416T445 512Q445 635 346 635H293V384H353Z" />
<glyph unicode="S" glyph-name="S" horiz-adv-x="573" d="M263 -12Q231 -12 199 -10T137 -3T79 8T32 24L22 210H105L151 101Q168 92 198 88T257 83Q305 83 336 104T367 166Q367 190 359 206T334 235T295 256T244 277L203 294Q120 325 74 377T28 515Q28 564 44
606T94 679T180 727T304 745Q379 745 427 736T505 716L515 536H433L394 635Q380 642 352 647T298 652Q251 652 228 632T205 575Q205 540 228 520T308 479L350 465Q397 447 435 430T499 387T540 326T555 236Q555 180 535 134T478 56T386 6T263 -12Z" />
<glyph unicode="T" glyph-name="T" horiz-adv-x="675" d="M154 66L230 94V641H145L112 502H15L24 732H651L660 502H563L530 641H444V94L520 66V0H154V66Z" />
<glyph unicode="U" glyph-name="U" horiz-adv-x="744" d="M395 -13Q237 -13 160 53T83 235V640L18 667V732H362V667L298 641V242Q298 198 307 169T334 122T374 98T426 91Q454 91 478 98T521 122T549 168T559 242V641L494 667V732H726V667L666 640V247Q666 193
651 146T604 63T520 7T395 -13Z" />
<glyph unicode="V" glyph-name="V" horiz-adv-x="719" d="M62 638L8 666V732H353V666L285 638L409 146H414L540 638L472 666V732H711V666L656 638L477 0H260L62 638Z" />
<glyph unicode="W" glyph-name="W" horiz-adv-x="1047" d="M61 639L10 667V732H338V667L272 639L353 187H358L477 732H650L777 186H782L865 639L793 667V732H1037V667L982 639L848 0H629L530 475H525L418 0H206L61 639Z" />
<glyph unicode="X" glyph-name="X" horiz-adv-x="707" d="M232 364L61 639L3 667V732H362V667L313 642L413 478L507 642L452 667V732H694V667L640 639L472 382L649 93L707 65V0H350V66L403 90L291 270L190 90L241 65V0H0V65L57 90L232 364Z" />
<glyph unicode="Y" glyph-name="Y" horiz-adv-x="644" d="M146 66L221 94V292L38 639L-15 667V732H312V667L259 641L373 397H377L482 642L430 667V732H659V667L604 639L435 295V94L509 66V0H146V66Z" />
<glyph unicode="Z" glyph-name="Z" horiz-adv-x="628" d="M22 104L362 632V637H173L114 504H36L46 732H600V627L260 98V94H465L526 244H603L592 0H22V104Z" />
<glyph unicode="[" glyph-name="bracketleft" horiz-adv-x="377" d="M55 775H347V703L231 685V-36L347 -53V-125H55V775Z" />
<glyph unicode="\" glyph-name="backslash" horiz-adv-x="392" d="M22 775H127L397 -125H292L22 775Z" />
<glyph unicode="]" glyph-name="bracketright" horiz-adv-x="376" d="M30 -53L147 -36V685L30 703V775H321V-125H30V-53Z" />
<glyph unicode="^" glyph-name="asciicircum" horiz-adv-x="473" d="M180 721H292L447 446H386L236 584L87 446H26L180 721Z" />
<glyph unicode="_" glyph-name="underscore" horiz-adv-x="355" d="M-2 -50H357V-161H-2V-50Z" />
<glyph unicode="`" glyph-name="grave" horiz-adv-x="500" d="M92 681L152 813L387 669L362 620L92 681Z" />
<glyph unicode="a" glyph-name="a" horiz-adv-x="566" d="M320 259L277 255Q245 252 222 231T199 169Q199 146 205 130T220 105T242 91T269 87Q284 87 298 93T320 108V259ZM140 385H53V531Q73 537 95 544T143 558T199 569T267 574Q323 574 367 565T443 536T490
484T507 404V79L566 51V9Q552 1 524 -6T461 -14Q417 -14 383 3T342 65H337Q318 27 274 6T176 -15Q101 -15 58 28T15 142Q15 185 28 212T67 257T129 283T213 301L320 319V394Q320 448 301 474T227 501Q220 501 204 501T179 499L140 385Z" />
<glyph unicode="b" glyph-name="b" horiz-adv-x="624" d="M309 52Q361 52 387 103T414 275Q414 332 407 368T386 426T355 456T315 465Q292 465 276 461T248 450V71Q256 64 270 58T309 52ZM248 509H255Q279 535 318 554T412 574Q448 574 483 559T546 510T591 422T609
289Q609 203 586 145T523 52T427 1T306 -15Q228 -15 163 -1T62 35V686L0 714V765L233 802H248V509Z" />
<glyph unicode="c" glyph-name="c" horiz-adv-x="522" d="M303 -14Q232 -14 178 7T88 66T34 159T15 280Q15 349 36 403T98 496T194 554T320 574Q344 574 370 572T421 567T466 560T498 551V383H401L369 493Q362 496 348 498T315 501Q292 501 272 490T238 453T215
388T206 290Q206 240 218 205T251 147T302 113T366 102Q405 102 443 107T502 118V66Q491 52 471 38T425 13T368 -6T303 -14Z" />
<glyph unicode="d" glyph-name="d" horiz-adv-x="623" d="M378 686L316 714V765L549 802H564V94L623 61V13L402 -12H386V46H380Q363 23 328 4T239 -15Q201 -15 161 -2T89 44T36 130T15 265Q15 350 37 408T96 503T182 556T288 572Q311 572 336 567T378 549V686ZM378
475Q367 483 354 489T315 495Q293 495 274 484T242 449T220 384T212 284Q212 180 238 133T321 86Q342 86 355 89T378 96V475Z" />
<glyph unicode="e" glyph-name="e" horiz-adv-x="550" d="M288 512Q269 512 254 505T228 477T211 422T204 330L359 339Q359 395 355 429T341 481T319 506T288 512ZM206 263Q213 181 252 142T369 102Q422 102 456 107T519 121V67Q509 53 489 39T442 12T380 -7T306
-15Q161 -15 88 61T15 281Q15 350 34 404T90 496T177 553T291 573Q354 573 401 558T478 506T524 411T540 263H206Z" />
<glyph unicode="f" glyph-name="f" horiz-adv-x="350" d="M333 51V0H10V51L71 79V464H7V526L71 558V603Q71 655 90 692T142 754T215 791T301 803Q341 803 377 800T460 784V640H364L342 719Q337 720 332 720T322 721Q287 721 272 698T257 625V560H350V464H257V79L333 51Z" />
<glyph unicode="g" glyph-name="g" horiz-adv-x="571" d="M272 -185Q315 -185 344 -179T389 -160T413 -130T420 -90Q420 -47 353 -47H157Q135 -72 135 -110Q135 -125 142 -138T165 -162T207 -179T272 -185ZM273 511Q258 511 246 507T225 490T212 451T207 382Q207
339 211 315T225 278T246 262T273 258Q288 258 300 261T321 278T335 315T340 382Q340 424 336 449T322 488T301 506T273 511ZM396 123Q490 123 535 84T581 -38Q581 -138 506 -196T267 -255Q201 -255 149 -245T59 -218T3 -177T-17 -125Q-17 -98 -5 -80T26 -49T69
-30T117 -18V-12Q72 -2 50 26T28 88Q28 110 38 129T63 165T94 195T122 216V222Q80 245 55 285T29 382Q29 427 47 463T97 524T174 562T273 575Q307 575 341 567T402 548H410L553 576H564V465H551L458 498V494Q484 470 500 444T516 376Q516 330 499 295T449 237T372
201T273 189Q245 189 225 191T181 200Q170 192 163 181T156 159Q156 144 167 134T196 123H396Z" />
<glyph unicode="h" glyph-name="h" horiz-adv-x="661" d="M10 51L71 79V698L7 727V776L239 813H254V501H260Q298 536 347 555T454 574Q524 574 559 539T594 425V79L655 51V0H349V51L408 79V383Q408 427 390 444T333 462Q312 462 293 458T257 447V79L316 51V0H10V51Z" />
<glyph unicode="i" glyph-name="i" horiz-adv-x="323" d="M242 576H257V80L317 52V0H11V52L71 80V459L8 488V539L242 576ZM161 806Q181 806 199 799T230 778T252 746T260 707Q260 687 252 669T231 638T199 617T161 609Q119 609 91 637T62 707Q62 749 90 777T161 806Z" />
<glyph unicode="j" glyph-name="j" horiz-adv-x="287" d="M-10 488V539L224 576H239V-56Q239 -153 188 -204T32 -255Q-4 -255 -36 -248T-85 -230V-165Q-73 -167 -58 -168T-32 -169Q3 -169 28 -151T53 -96V459L-10 488ZM142 806Q162 806 180 799T211 778T233 746T241
707Q241 687 233 669T212 638T180 617T142 609Q100 609 72 637T43 707Q43 749 71 777T142 806Z" />
<glyph unicode="k" glyph-name="k" horiz-adv-x="637" d="M422 342L594 80L657 52V0H431L287 236H255V80L315 52V0H9V52L69 80V686L6 715V766L240 803H255V306H296L448 480L388 508V560H622V508L552 480L422 342Z" />
<glyph unicode="l" glyph-name="l" horiz-adv-x="329" d="M244 803H259V80L319 52V0H13V52L73 80V686L10 715V766L244 803Z" />
<glyph unicode="m" glyph-name="m" horiz-adv-x="959" d="M11 51L72 79V459L8 488V537L240 574H255V501H261Q299 536 338 555T435 574Q534 574 563 501H568Q606 536 649 555T749 574Q819 574 855 538T891 424V79L952 51V0H657V51L706 79V383Q706 427 691 444T637
462Q608 462 575 448V79L624 51V0H340V51L389 79V383Q389 427 374 444T320 462Q291 462 258 447V79L307 51V0H11V51Z" />
<glyph unicode="n" glyph-name="n" horiz-adv-x="662" d="M11 51L72 79V459L8 488V537L240 574H255V501H261Q299 536 348 555T455 574Q525 574 560 539T595 425V79L656 51V0H350V51L409 79V383Q409 427 391 444T334 462Q313 462 294 458T258 447V79L317 51V0H11V51Z" />
<glyph unicode="o" glyph-name="o" horiz-adv-x="604" d="M302 574Q366 574 418 555T509 499T568 406T589 280Q589 209 568 154T509 62T419 5T302 -15Q238 -15 186 4T95 61T36 154T15 280Q15 351 36 406T95 498T185 555T302 574ZM303 63Q326 63 343 71T371 102T388
168T394 280Q394 349 389 392T372 458T343 489T303 497Q280 497 263 489T234 458T216 392T210 280Q210 211 216 168T233 102T262 71T303 63Z" />
<glyph unicode="p" glyph-name="p" horiz-adv-x="627" d="M314 64Q336 64 354 75T387 110T409 176T417 277Q417 375 391 419T320 463Q297 463 282 459T255 448V82Q265 75 279 70T314 64ZM259 501Q282 529 319 551T411 574Q452 574 488 561T552 516T596 428T612
290Q612 204 590 146T530 53T442 2T337 -14Q303 -14 286 -9T255 3V-165L325 -193V-245H9V-193L69 -165V459L6 488V537L238 574H253V501H259Z" />
<glyph unicode="q" glyph-name="q" horiz-adv-x="619" d="M311 88Q332 88 349 93T378 106V473Q370 481 356 487T315 494Q294 494 276 483T243 447T221 382T212 284Q212 231 219 194T240 134T271 99T311 88ZM381 41H375Q355 15 323 0T239 -15Q203 -15 164 -2T91
44T37 130T15 263Q15 347 39 405T106 499T204 551T326 567Q406 567 461 558T564 528V-165L624 -193V-245H311V-193L381 -165V41Z" />
<glyph unicode="r" glyph-name="r" horiz-adv-x="427" d="M233 576H249V458H255Q280 514 316 543T399 572Q407 572 414 572T427 569V406Q419 408 406 409T380 411Q342 411 311 407T256 391V80L333 52V0H11V52L70 80V459L8 488V539L233 576Z" />
<glyph unicode="s" glyph-name="s" horiz-adv-x="476" d="M212 -14Q189 -14 164 -12T112 -6T62 5T17 21V169H96L128 76Q133 71 143 68T166 63T192 59T218 58Q258 58 283 69T308 114Q308 145 294 160T234 185L166 200Q127 209 99 227T52 271T24 327T15 388Q15 428
29 462T72 521T146 560T253 574Q303 574 350 567T430 545V407H352L328 484Q318 489 294 493T246 498Q213 498 193 484T172 443Q172 418 187 403T249 377L315 363Q355 354 383 337T430 297T456 244T464 183Q464 139 450 103T405 41T327 1T212 -14Z" />
<glyph unicode="t" glyph-name="t" horiz-adv-x="401" d="M86 464H0V548L86 560V665L272 691V560H394V464H272V169Q272 127 286 107T341 86Q356 86 373 87T401 90V18Q389 11 372 5T335 -5T293 -12T249 -15Q165 -15 126 24T86 153V464Z" />
<glyph unicode="u" glyph-name="u" horiz-adv-x="654" d="M69 456L6 485V536L239 573H255V178Q255 154 260 140T276 117T301 106T333 103Q356 103 371 106T400 116V456L338 485V536L571 573H586V94L649 61V13L422 -12H407V62H400Q373 29 330 7T230 -15Q188 -15
158 -1T108 37T79 94T69 163V456Z" />
<glyph unicode="v" glyph-name="v" horiz-adv-x="585" d="M339 172H343L440 480L380 508V560H600V508L540 480L371 0H210L45 480L-15 508V560H310V508L250 480L339 172Z" />
<glyph unicode="w" glyph-name="w" horiz-adv-x="866" d="M644 183H648L716 480L666 508V560H876V508L816 480L679 0H516L432 308H426L338 0H185L50 480L-10 508V560H295V508L245 480L313 203H317L414 555H538L644 183Z" />
<glyph unicode="x" glyph-name="x" horiz-adv-x="594" d="M356 365L419 481L380 508V560H576V508L528 481L400 295L536 80L594 51V0H271V51L314 79L241 192L165 80L211 51V0H1V51L58 80L197 262L57 480L0 508V560H324V508L283 482L356 365Z" />
<glyph unicode="y" glyph-name="y" horiz-adv-x="595" d="M124 -165Q170 -165 202 -144T256 -72L265 -51L39 480L-13 508V560H309V508L249 482L353 189H357L453 482L393 508V560H610V508L554 480L345 -90Q311 -182 263 -218T147 -254Q118 -254 95 -246T53 -225V-158Q70
-162 90 -163T124 -165Z" />
<glyph unicode="z" glyph-name="z" horiz-adv-x="495" d="M6 82L295 478V482H140L107 381H16V555H491V470L212 81V77H364L403 188H487V0H6V82Z" />
<glyph unicode="{" glyph-name="braceleft" horiz-adv-x="391" d="M376 -125Q300 -123 248 -112T164 -80T118 -32T104 34Q104 52 110 75T125 122T139 166T146 200Q146 215 142 226T125 246T91 261T35 274V364Q69 370 90 376T124 391T141 411T146 438Q146 451 140
471T125 515T111 561T104 604Q104 641 118 669T164 717T248 748T376 762V701Q322 692 303 677T284 631Q284 618 286 593T291 539T296 484T299 444Q299 395 269 367T161 321V316Q238 298 268 270T299 193Q299 179 297 153T292 99T287 45T284 6Q284 -23 303 -39T376
-64V-125V-125Z" />
<glyph unicode="|" glyph-name="bar" horiz-adv-x="218" d="M60 762H158V-125H60V762Z" />
<glyph unicode="}" glyph-name="braceright" horiz-adv-x="391" d="M15 -44Q69 -35 88 -20T107 26Q107 39 105 61T100 108T95 156T92 193Q92 242 122 270T230 316V321Q153 339 123 367T92 444Q92 458 94 481T99 528T104 575T107 611Q107 640 88 656T15 681V762Q91
760 143 749T227 717T273 669T287 603Q287 585 281 562T266 515T252 471T245 437Q245 422 249 411T266 391T300 376T356 363V273Q322 267 301 261T267 246T250 226T245 199Q245 186 251 166T266 122T280 76T287 33Q287 -4 273 -32T227 -80T143 -111T15 -125V-44Z"
/>
<glyph unicode="~" glyph-name="asciitilde" horiz-adv-x="484" d="M16 264Q43 332 80 371T168 411Q191 411 215 405T262 390T305 375T339 368Q359 368 379 375T414 406L468 375Q442 306 404 267T316 228Q293 228 268 235T220 250T176 265T141 272Q120 272 102
264T69 232L16 264Z" />
<glyph unicode="&#xa0;" glyph-name="uni00A0" horiz-adv-x="500" />
<glyph unicode="&#xa1;" glyph-name="exclamdown" horiz-adv-x="279" d="M88 362H197L237 -125H42L88 362ZM140 423Q99 423 73 450T47 516Q47 553 73 580T140 608Q182 608 207 581T233 516Q233 478 208 451T140 423Z" />
<glyph unicode="&#xa2;" glyph-name="cent" horiz-adv-x="546" d="M402 565Q437 561 467 556T513 546V378H426L404 488Q399 489 392 491L337 98Q355 95 375 95Q394 95 415 97T455 103T491 111T517 118V63Q506 49 487 36T442 11T385 -7T321 -14L301 -155H213L234
-5Q130 17 75 92T20 280Q20 347 41 400T100 490T192 547T315 569L327 654H415L402 565ZM204 290Q204 237 217 200T254 138L304 493Q284 488 266 474T234 436T212 375T204 290Z" />
<glyph unicode="&#xa3;" glyph-name="sterling" horiz-adv-x="537" d="M98 367V448Q98 506 116 549T167 622T247 666T351 681Q405 681 444 675T514 658V500H434L395 596H375Q351 596 336 587T311 557T296 502T285 419L280 367H431V289H272L270 268Q265 213 242
180T181 127V124H520L504 0H28V92Q61 109 79 141T98 231V289H39V367H98Z" />
<glyph unicode="&#xa5;" glyph-name="yen" horiz-adv-x="631" d="M49 357H191L54 583L5 610V670H320V610L268 588L368 391H371L469 588L416 610V670H626V610L575 583L447 357H593V301H420V237H593V180H420V90L492 63V0H150V63L222 90V180H49V237H222V301H49V357Z" />
<glyph unicode="&#xa6;" glyph-name="brokenbar" horiz-adv-x="240" d="M71 290H169V-125H71V290ZM71 762H169V386H71V762Z" />
<glyph unicode="&#xa7;" glyph-name="section" horiz-adv-x="571" d="M263 -137Q210 -137 164 -129T82 -104L74 25H175L196 -44Q207 -50 225 -54T267 -58Q301 -58 327 -42T353 8Q353 39 331 54T266 84L175 117Q102 143 64 181T26 280Q26 331 58 366T151 418Q113
443 93 475T73 553Q73 593 88 626T134 683T208 720T309 733Q361 733 408 725T488 702V577H388L374 642Q364 647 345 651T302 656Q268 656 246 637T224 589Q224 560 242 545T304 515L392 485Q467 459 505 418T544 317Q544 263 513 230T424 180Q462 154 482 120T503
46Q503 -36 443 -86T263 -137ZM218 384Q201 374 191 359T180 325Q180 296 199 281T261 250L355 216Q371 226 380 241T390 273Q390 300 374 315T320 345L218 384Z" />
<glyph unicode="&#xa8;" glyph-name="dieresis" horiz-adv-x="500" d="M361 605Q326 605 302 628T277 687Q277 722 301 745T361 769Q396 769 420 746T445 687Q445 652 421 629T361 605ZM138 605Q103 605 79 628T54 687Q54 722 78 745T138 769Q173 769 197 746T222
687Q222 652 198 629T138 605Z" />
<glyph unicode="&#xa9;" glyph-name="copyright" horiz-adv-x="815" d="M407 -15Q329 -15 263 14T147 94T70 213T42 358Q42 435 70 502T147 620T262 699T407 728Q484 728 551 699T667 620T745 503T773 358Q773 281 745 213T668 95T551 15T407 -15ZM407 48Q472
48 525 72T617 139T677 237T699 358Q699 421 678 477T618 575T526 641T407 666Q341 666 287 642T195 575T135 477T114 358Q114 294 135 238T194 139T287 73T407 48ZM411 164Q370 164 335 175T275 210T234 271T219 359Q219 413 236 450T281 511T345 545T421 556Q458
556 490 552T541 540L545 437H474L458 491Q450 495 441 497T418 499Q398 499 386 490T367 464T358 423T356 369Q356 288 369 257T421 225Q450 225 462 232L480 289H549L543 186Q523 178 491 171T411 164Z" />
<glyph unicode="&#xaa;" glyph-name="ordfeminine" horiz-adv-x="519" d="M206 659Q195 659 180 658T159 656L130 566H59V692Q97 706 150 718T264 731Q362 731 408 691T455 570V322L502 295V253Q489 244 463 236T406 228Q360 228 333 246T298 297H293Q276 264
244 246T166 227Q100 227 63 264T25 359Q25 391 37 413T72 450T129 474T205 491L279 504V570Q279 612 264 635T206 659ZM241 319Q255 319 264 325T279 336V451L251 448Q228 446 213 430T197 384Q197 355 208 337T241 319Z" />
<glyph unicode="&#xab;" glyph-name="guillemotleft" horiz-adv-x="533" d="M256 248V277L418 502H505L403 263L505 23H418L256 248ZM27 248V277L188 502H276L173 263L276 23H188L27 248Z" />
<glyph unicode="&#xae;" glyph-name="registered" horiz-adv-x="815" d="M407 -15Q329 -15 263 14T147 94T70 213T42 358Q42 435 70 502T147 620T262 699T407 728Q484 728 551 699T667 620T745 503T773 358Q773 281 745 213T668 95T551 15T407 -15ZM407 48Q472
48 525 72T617 139T677 237T699 358Q699 421 678 477T618 575T526 641T407 666Q341 666 287 642T195 575T135 477T114 358Q114 294 135 238T194 139T287 73T407 48ZM239 233L270 242V480L239 488V533H427Q496 533 531 503T566 427Q566 398 552 377T514 347V343L575
241L608 233V186H479L407 319H385V241L408 233V186H239V233ZM411 364Q434 364 443 378T453 421Q453 447 443 462T410 478H385V364H411Z" />
<glyph unicode="&#xaf;" glyph-name="macron" horiz-adv-x="500" d="M96 756H404V633H96V756Z" />
<glyph unicode="&#xb0;" glyph-name="degree" horiz-adv-x="444" d="M223 384Q185 384 152 398T95 436T56 491T42 558Q42 593 56 624T94 679T152 716T223 730Q261 730 294 717T351 680T388 625T402 558Q402 523 389 492T351 436T294 398T223 384ZM222 447Q246
447 264 456T294 480T313 516T320 558Q320 603 295 635T222 667Q174 667 149 635T124 558Q124 536 130 516T149 481T180 456T222 447Z" />
<glyph unicode="&#xb2;" glyph-name="twosuperior" horiz-adv-x="400" d="M157 635Q152 635 143 635T129 634L109 562H38V678Q105 705 201 705Q288 705 334 670T380 570Q380 540 369 516T338 470T288 427T222 382L153 344V342H383L375 244H27V327L140 423Q159
441 174 456T200 486T217 517T223 554Q223 590 206 612T157 635Z" />
<glyph unicode="&#xb3;" glyph-name="threesuperior" horiz-adv-x="404" d="M153 632Q148 632 138 632T121 631L100 566H32V680Q60 690 100 697T184 705Q268 705 310 676T352 593Q352 548 326 521T250 483V480Q304 473 336 448T369 370Q369 308 320 273T173 237Q114
237 77 249T19 272V324Q38 318 65 314T122 309Q164 309 190 323T216 371Q216 411 194 426T137 442H94V503H129Q165 503 187 521T209 571Q209 600 196 616T153 632Z" />
<glyph unicode="&#xb4;" glyph-name="acute" horiz-adv-x="500" d="M113 669L348 813L408 681L138 620L113 669Z" />
<glyph unicode="&#xb6;" glyph-name="paragraph" horiz-adv-x="603" d="M251 331Q243 329 224 329Q183 329 146 341T81 377T37 439T20 529Q20 626 79 673T250 721H588V640L522 623V-125H444V654H330V-125H251V331Z" />
<glyph unicode="&#xb7;" glyph-name="periodcentered" horiz-adv-x="303" d="M151 245Q128 245 109 253T77 276T56 308T48 348Q48 391 76 421T151 451Q197 451 225 421T254 348Q254 327 247 309T226 276T193 254T151 245Z" />
<glyph unicode="&#xb8;" glyph-name="cedilla" horiz-adv-x="500" d="M173 -194Q207 -194 230 -189T266 -175T284 -157T290 -139Q290 -123 274 -111T213 -97V0H287V-49Q344 -52 377 -72T411 -133Q411 -156 399 -174T358 -207T285 -229T173 -240V-194Z" />
<glyph unicode="&#xb9;" glyph-name="onesuperior" horiz-adv-x="356" d="M35 293L111 316V586L30 582V630L186 702H259V316L337 293V244H35V293Z" />
<glyph unicode="&#xba;" glyph-name="ordmasculine" horiz-adv-x="545" d="M273 227Q156 227 92 293T27 476Q27 540 47 587T100 667T178 715T272 731Q389 731 453 667T518 483Q518 419 498 371T444 291T366 243T273 227ZM273 316Q289 316 301 322T323 347T337
396T342 476Q342 527 337 559T323 610T300 635T271 642Q256 642 244 636T222 613T208 565T203 483Q203 431 208 399T222 348T244 323T273 316Z" />
<glyph unicode="&#xbb;" glyph-name="guillemotright" horiz-adv-x="533" d="M115 23H28L130 263L28 502H115L277 277V248L115 23ZM345 23H257L360 263L257 502H345L506 277V248L345 23Z" />
<glyph unicode="&#xbc;" glyph-name="onequarter" horiz-adv-x="1002" d="M778 34H586V101L800 382H917V111H981V34H917V-73H778V34ZM778 111V259H775L668 113V111H778ZM35 293L111 316V586L30 582V630L186 702H259V316L337 293V244H35V293ZM719 713H805L329 -40H243L719
713Z" />
<glyph unicode="&#xbd;" glyph-name="onehalf" horiz-adv-x="1020" d="M771 318Q766 318 757 318T743 317L723 245H652V361Q719 388 815 388Q902 388 948 353T994 253Q994 223 983 199T952 153T902 110T836 65L767 27V25H997L989 -73H641V10L754 106Q773 124 788
139T814 169T831 200T837 237Q837 273 820 295T771 318ZM35 293L111 316V586L30 582V630L186 702H259V316L337 293V244H35V293ZM719 713H805L329 -40H243L719 713Z" />
<glyph unicode="&#xbe;" glyph-name="threequarters" horiz-adv-x="985" d="M153 632Q148 632 138 632T121 631L100 566H32V680Q60 690 100 697T184 705Q268 705 310 676T352 593Q352 548 326 521T250 483V480Q304 473 336 448T369 370Q369 308 320 273T173 237Q114
237 77 249T19 272V324Q38 318 65 314T122 309Q164 309 190 323T216 371Q216 411 194 426T137 442H94V503H129Q165 503 187 521T209 571Q209 600 196 616T153 632ZM778 34H586V101L800 382H917V111H981V34H917V-73H778V34ZM778 111V259H775L668 113V111H778ZM719
713H805L329 -40H243L719 713Z" />
<glyph unicode="&#xbf;" glyph-name="questiondown" horiz-adv-x="479" d="M303 -42Q314 -42 323 -42T340 -40L374 68H460V-107Q425 -118 377 -126T277 -135Q223 -135 178 -126T100 -96T49 -40T30 48Q30 83 39 110T66 160T106 201T157 235Q205 261 233 285T262
339Q262 345 261 353T258 371H345Q352 357 357 340T362 296Q362 257 346 231T296 174Q269 149 249 121T228 49Q228 3 246 -19T303 -42ZM291 621Q313 621 330 613T361 592T381 560T388 523Q388 483 362 454T291 425Q247 425 221 454T194 523Q194 542 201 560T220
591T251 613T291 621Z" />
<glyph unicode="&#xc0;" glyph-name="Agrave" horiz-adv-x="736" d="M419 214H206Q198 185 190 157T171 94L240 66V0H0V66L56 94L269 732H470L677 94L736 66V0H383V66L452 94L419 214ZM316 576Q308 555 297 516Q286 483 270 429T229 290H398L321 576H316ZM210
841L270 973L505 829L480 780L210 841Z" />
<glyph unicode="&#xc1;" glyph-name="Aacute" horiz-adv-x="736" d="M419 214H206Q198 185 190 157T171 94L240 66V0H0V66L56 94L269 732H470L677 94L736 66V0H383V66L452 94L419 214ZM316 576Q308 555 297 516Q286 483 270 429T229 290H398L321 576H316ZM231
824L466 968L526 836L256 775L231 824Z" />
<glyph unicode="&#xc2;" glyph-name="Acircumflex" horiz-adv-x="736" d="M419 214H206Q198 185 190 157T171 94L240 66V0H0V66L56 94L269 732H470L677 94L736 66V0H383V66L452 94L419 214ZM316 576Q308 555 297 516Q286 483 270 429T229 290H398L321 576H316ZM189
820L326 973H410L547 820L516 783L368 855L220 783L189 820Z" />
<glyph unicode="&#xc3;" glyph-name="Atilde" horiz-adv-x="736" d="M419 214H206Q198 185 190 157T171 94L240 66V0H0V66L56 94L269 732H470L677 94L736 66V0H383V66L452 94L419 214ZM316 576Q308 555 297 516Q286 483 270 429T229 290H398L321 576H316ZM177
822Q197 877 227 910T299 944Q316 944 337 939T378 928T417 916T447 911Q464 911 483 922T514 950L561 917Q539 862 509 829T437 795Q420 795 399 800T358 811T319 823T289 828Q272 828 257 819T229 792L177 822Z" />
<glyph unicode="&#xc4;" glyph-name="Adieresis" horiz-adv-x="736" d="M419 214H206Q198 185 190 157T171 94L240 66V0H0V66L56 94L269 732H470L677 94L736 66V0H383V66L452 94L419 214ZM316 576Q308 555 297 516Q286 483 270 429T229 290H398L321 576H316ZM479
780Q444 780 420 803T395 862Q395 897 419 920T479 944Q514 944 538 921T563 862Q563 827 539 804T479 780ZM256 780Q221 780 197 803T172 862Q172 897 196 920T256 944Q291 944 315 921T340 862Q340 827 316 804T256 780Z" />
<glyph unicode="&#xc5;" glyph-name="Aring" horiz-adv-x="736" d="M419 214H206Q198 185 190 157T171 94L240 66V0H0V66L56 94L269 732H470L677 94L736 66V0H383V66L452 94L419 214ZM316 576Q308 555 297 516Q286 483 270 429T229 290H398L321 576H316ZM369 772Q342
772 319 781T279 807T253 844T243 891Q243 915 252 936T279 974T319 999T369 1009Q396 1009 418 1000T457 974T483 937T493 891Q493 866 484 845T458 807T419 782T369 772ZM369 821Q399 821 417 840T435 891Q435 922 417 941T369 960Q339 960 321 941T302 891Q302
859 320 840T369 821Z" />
<glyph unicode="&#xc6;" glyph-name="AE" horiz-adv-x="1010" d="M365 66L435 94V214H226L159 94L235 66V0H-16V66L44 94L351 639L275 666V732H960L968 526H872L843 637H653V417H734L752 490H830V255H752L734 329H653V95H847L887 229H985L975 0H365V66ZM438 619Q422
577 406 541T367 463L276 303H435V475Q435 501 436 541T443 619H438Z" />
<glyph unicode="&#xc7;" glyph-name="Ccedilla" horiz-adv-x="652" d="M269 -194Q303 -194 326 -189T362 -175T380 -157T386 -139Q386 -123 370 -111T309 -97V-7Q247 2 194 27T103 97T42 207T20 361Q20 468 53 541T141 659T263 724T402 744Q470 744 524 735T612
712L619 515H527L479 628Q464 635 443 640T396 646Q357 646 328 632T280 585T251 502T241 378Q241 292 250 236T280 145T330 98T402 84Q429 84 452 90T489 105L536 223H626L618 29Q579 11 524 0T383 -12V-49Q440 -52 473 -72T507 -133Q507 -156 495 -174T454 -207T381
-229T269 -240V-194Z" />
<glyph unicode="&#xc8;" glyph-name="Egrave" horiz-adv-x="675" d="M20 66L90 94V638L20 666V732H625L633 526H547L508 637H308V417H389L407 490H485V255H407L389 329H308V95H512L562 229H650L640 0H20V66ZM180 836L240 968L475 824L450 775L180 836Z" />
<glyph unicode="&#xc9;" glyph-name="Eacute" horiz-adv-x="675" d="M20 66L90 94V638L20 666V732H625L633 526H547L508 637H308V417H389L407 490H485V255H407L389 329H308V95H512L562 229H650L640 0H20V66ZM201 829L436 973L496 841L226 780L201 829Z" />
<glyph unicode="&#xca;" glyph-name="Ecircumflex" horiz-adv-x="675" d="M20 66L90 94V638L20 666V732H625L633 526H547L508 637H308V417H389L407 490H485V255H407L389 329H308V95H512L562 229H650L640 0H20V66ZM159 820L296 973H380L517 820L486 783L338 855L190
783L159 820Z" />
<glyph unicode="&#xcb;" glyph-name="Edieresis" horiz-adv-x="675" d="M20 66L90 94V638L20 666V732H625L633 526H547L508 637H308V417H389L407 490H485V255H407L389 329H308V95H512L562 229H650L640 0H20V66ZM449 780Q414 780 390 803T365 862Q365 897 389 920T449
944Q484 944 508 921T533 862Q533 827 509 804T449 780ZM226 780Q191 780 167 803T142 862Q142 897 166 920T226 944Q261 944 285 921T310 862Q310 827 286 804T226 780Z" />
<glyph unicode="&#xcc;" glyph-name="Igrave" horiz-adv-x="391" d="M20 66L91 94V638L20 666V732H376V666L305 638V94L376 66V0H20V66ZM39 841L99 973L334 829L309 780L39 841Z" />
<glyph unicode="&#xcd;" glyph-name="Iacute" horiz-adv-x="391" d="M20 66L91 94V638L20 666V732H376V666L305 638V94L376 66V0H20V66ZM59 829L294 973L354 841L84 780L59 829Z" />
<glyph unicode="&#xce;" glyph-name="Icircumflex" horiz-adv-x="391" d="M20 66L91 94V638L20 666V732H376V666L305 638V94L376 66V0H20V66ZM17 820L154 973H238L375 820L344 783L196 855L48 783L17 820Z" />
<glyph unicode="&#xcf;" glyph-name="Idieresis" horiz-adv-x="391" d="M20 66L91 94V638L20 666V732H376V666L305 638V94L376 66V0H20V66ZM307 780Q272 780 248 803T223 862Q223 897 247 920T307 944Q342 944 366 921T391 862Q391 827 367 804T307 780ZM84 780Q49
780 25 803T0 862Q0 897 24 920T84 944Q119 944 143 921T168 862Q168 827 144 804T84 780Z" />
<glyph unicode="&#xd0;" glyph-name="Eth" horiz-adv-x="749" d="M20 66L90 94V327H30V430H90V638L20 666V732H372Q454 732 519 712T630 650T700 540T724 378Q724 280 699 209T627 91T517 22T376 0H20V66ZM354 99Q390 99 417 109T463 149T491 229T501 363Q501
454 491 507T460 588T411 623T344 631H305V430H410V327H305V99H354Z" />
<glyph unicode="&#xd1;" glyph-name="Ntilde" horiz-adv-x="731" d="M20 65L91 93V638L20 666V732H293L434 486Q452 454 469 420T501 356Q517 322 532 288H537V637L468 666V732H711V666L649 638V0H482L303 317Q299 324 293 336T280 364T264 397T248 432Q230 472
209 518H205V92L272 65V0H20V65ZM179 823Q199 878 229 911T301 945Q318 945 339 940T380 929T419 917T449 912Q466 912 485 923T516 951L563 918Q541 863 511 830T439 796Q422 796 401 801T360 812T321 824T291 829Q274 829 259 820T231 793L179 823Z" />
<glyph unicode="&#xd2;" glyph-name="Ograve" horiz-adv-x="752" d="M373 -12Q300 -12 236 11T123 80T48 197T20 362Q20 462 51 534T133 653T248 722T378 744Q451 744 515 722T628 653T704 536T732 371Q732 271 701 199T620 80T505 11T373 -12ZM375 86Q406 86
430 99T472 143T498 226T507 357Q507 445 499 501T474 589T433 634T375 646Q345 646 321 633T279 589T252 506T242 376Q242 289 250 233T275 144T317 99T375 86ZM218 841L278 973L513 829L488 780L218 841Z" />
<glyph unicode="&#xd3;" glyph-name="Oacute" horiz-adv-x="752" d="M373 -12Q300 -12 236 11T123 80T48 197T20 362Q20 462 51 534T133 653T248 722T378 744Q451 744 515 722T628 653T704 536T732 371Q732 271 701 199T620 80T505 11T373 -12ZM375 86Q406 86
430 99T472 143T498 226T507 357Q507 445 499 501T474 589T433 634T375 646Q345 646 321 633T279 589T252 506T242 376Q242 289 250 233T275 144T317 99T375 86ZM239 829L474 973L534 841L264 780L239 829Z" />
<glyph unicode="&#xd4;" glyph-name="Ocircumflex" horiz-adv-x="752" d="M373 -12Q300 -12 236 11T123 80T48 197T20 362Q20 462 51 534T133 653T248 722T378 744Q451 744 515 722T628 653T704 536T732 371Q732 271 701 199T620 80T505 11T373 -12ZM375 86Q406
86 430 99T472 143T498 226T507 357Q507 445 499 501T474 589T433 634T375 646Q345 646 321 633T279 589T252 506T242 376Q242 289 250 233T275 144T317 99T375 86ZM197 820L334 973H418L555 820L524 783L376 855L228 783L197 820Z" />
<glyph unicode="&#xd5;" glyph-name="Otilde" horiz-adv-x="752" d="M373 -12Q300 -12 236 11T123 80T48 197T20 362Q20 462 51 534T133 653T248 722T378 744Q451 744 515 722T628 653T704 536T732 371Q732 271 701 199T620 80T505 11T373 -12ZM375 86Q406 86
430 99T472 143T498 226T507 357Q507 445 499 501T474 589T433 634T375 646Q345 646 321 633T279 589T252 506T242 376Q242 289 250 233T275 144T317 99T375 86ZM185 822Q205 877 235 910T307 944Q324 944 345 939T386 928T425 916T455 911Q472 911 491 922T522
950L569 917Q547 862 517 829T445 795Q428 795 407 800T366 811T327 823T297 828Q280 828 265 819T237 792L185 822Z" />
<glyph unicode="&#xd6;" glyph-name="Odieresis" horiz-adv-x="752" d="M373 -12Q300 -12 236 11T123 80T48 197T20 362Q20 462 51 534T133 653T248 722T378 744Q451 744 515 722T628 653T704 536T732 371Q732 271 701 199T620 80T505 11T373 -12ZM375 86Q406
86 430 99T472 143T498 226T507 357Q507 445 499 501T474 589T433 634T375 646Q345 646 321 633T279 589T252 506T242 376Q242 289 250 233T275 144T317 99T375 86ZM487 780Q452 780 428 803T403 862Q403 897 427 920T487 944Q522 944 546 921T571 862Q571 827
547 804T487 780ZM264 780Q229 780 205 803T180 862Q180 897 204 920T264 944Q299 944 323 921T348 862Q348 827 324 804T264 780Z" />
<glyph unicode="&#xd7;" glyph-name="multiply" horiz-adv-x="590" d="M63 159L221 320L63 482L138 557L295 396L451 556L526 481L369 320L527 159L452 84L295 244L138 84L63 159Z" />
<glyph unicode="&#xd8;" glyph-name="Oslash" horiz-adv-x="752" d="M373 -12Q300 -12 235 11Q211 19 190 31L141 -42H36L121 82Q74 128 47 197Q20 267 20 362Q20 462 51 534T133 653T248 722T378 744Q451 744 515 721Q533 715 549 707L580 752H684L621 659Q624
655 628 652Q676 606 704 536T732 371Q732 271 701 199T620 80T505 11T373 -12ZM375 86Q406 86 430 99T472 143T498 226T507 357Q507 432 501 483L269 157Q272 150 275 144Q292 111 317 99T375 86ZM473 589Q457 622 433 634T375 646Q345 646 321 633T279 589T252
506T242 376Q242 312 246 264L475 586Q474 587 473 589Z" />
<glyph unicode="&#xd9;" glyph-name="Ugrave" horiz-adv-x="744" d="M395 -13Q237 -13 160 53T83 235V640L18 667V732H362V667L298 641V242Q298 198 307 169T334 122T374 98T426 91Q454 91 478 98T521 122T549 168T559 242V641L494 667V732H726V667L666 640V247Q666
193 651 146T604 63T520 7T395 -13ZM214 841L274 973L509 829L484 780L214 841Z" />
<glyph unicode="&#xda;" glyph-name="Uacute" horiz-adv-x="744" d="M395 -13Q237 -13 160 53T83 235V640L18 667V732H362V667L298 641V242Q298 198 307 169T334 122T374 98T426 91Q454 91 478 98T521 122T549 168T559 242V641L494 667V732H726V667L666 640V247Q666
193 651 146T604 63T520 7T395 -13ZM275 829L510 973L570 841L300 780L275 829Z" />
<glyph unicode="&#xdb;" glyph-name="Ucircumflex" horiz-adv-x="744" d="M395 -13Q237 -13 160 53T83 235V640L18 667V732H362V667L298 641V242Q298 198 307 169T334 122T374 98T426 91Q454 91 478 98T521 122T549 168T559 242V641L494 667V732H726V667L666 640V247Q666
193 651 146T604 63T520 7T395 -13ZM231 820L368 973H452L589 820L558 783L410 855L262 783L231 820Z" />
<glyph unicode="&#xdc;" glyph-name="Udieresis" horiz-adv-x="744" d="M395 -13Q237 -13 160 53T83 235V640L18 667V732H362V667L298 641V242Q298 198 307 169T334 122T374 98T426 91Q454 91 478 98T521 122T549 168T559 242V641L494 667V732H726V667L666 640V247Q666
193 651 146T604 63T520 7T395 -13ZM513 780Q478 780 454 803T429 862Q429 897 453 920T513 944Q548 944 572 921T597 862Q597 827 573 804T513 780ZM290 780Q255 780 231 803T206 862Q206 897 230 920T290 944Q325 944 349 921T374 862Q374 827 350 804T290 780Z"
/>
<glyph unicode="&#xdd;" glyph-name="Yacute" horiz-adv-x="644" d="M146 66L221 94V292L38 639L-15 667V732H312V667L259 641L373 397H377L482 642L430 667V732H659V667L604 639L435 295V94L509 66V0H146V66ZM215 829L450 973L510 841L240 780L215 829Z" />
<glyph unicode="&#xde;" glyph-name="Thorn" horiz-adv-x="666" d="M20 66L90 94V638L20 666V732H375V666L305 639V573H369Q448 573 502 559T589 518T636 455T651 374Q651 326 633 290T582 228T503 189T399 176Q365 176 344 179T305 187V93L388 66V0H20V66ZM305
263Q315 261 330 260T359 259Q406 259 427 288T448 373Q448 430 427 456T356 483H305V263Z" />
<glyph unicode="&#xdf;" glyph-name="germandbls" horiz-adv-x="679" d="M458 -14Q410 -14 372 -7T310 10L305 139H395L407 71Q412 69 426 67T448 64Q479 64 496 80T513 126Q513 150 497 162T445 195L403 220Q357 247 337 280T317 357Q317 391 334 426T372 496T410
565T428 633Q428 647 424 661T411 686T389 703T359 710Q312 710 288 684T263 589V0H16V51L77 79V470H14V531L77 553V579Q77 633 97 673T155 742T246 784T365 798Q426 798 471 786T547 752T591 700T606 634Q606 596 582 566T530 509T477 462T453 421Q453 412 457
405T469 391T491 377T525 357L564 334Q586 321 605 305T638 269T661 223T669 164Q669 84 617 35T458 -14Z" />
<glyph unicode="&#xe0;" glyph-name="agrave" horiz-adv-x="566" d="M320 259L277 255Q245 252 222 231T199 169Q199 146 205 130T220 105T242 91T269 87Q284 87 298 93T320 108V259ZM140 385H53V531Q73 537 95 544T143 558T199 569T267 574Q323 574 367 565T443
536T490 484T507 404V79L566 51V9Q552 1 524 -6T461 -14Q417 -14 383 3T342 65H337Q318 27 274 6T176 -15Q101 -15 58 28T15 142Q15 185 28 212T67 257T129 283T213 301L320 319V394Q320 448 301 474T227 501Q220 501 204 501T179 499L140 385ZM125 681L185 813L420
669L395 620L125 681Z" />
<glyph unicode="&#xe1;" glyph-name="aacute" horiz-adv-x="566" d="M320 259L277 255Q245 252 222 231T199 169Q199 146 205 130T220 105T242 91T269 87Q284 87 298 93T320 108V259ZM140 385H53V531Q73 537 95 544T143 558T199 569T267 574Q323 574 367 565T443
536T490 484T507 404V79L566 51V9Q552 1 524 -6T461 -14Q417 -14 383 3T342 65H337Q318 27 274 6T176 -15Q101 -15 58 28T15 142Q15 185 28 212T67 257T129 283T213 301L320 319V394Q320 448 301 474T227 501Q220 501 204 501T179 499L140 385ZM146 669L381 813L441
681L171 620L146 669Z" />
<glyph unicode="&#xe2;" glyph-name="acircumflex" horiz-adv-x="566" d="M320 259L277 255Q245 252 222 231T199 169Q199 146 205 130T220 105T242 91T269 87Q284 87 298 93T320 108V259ZM140 385H53V531Q73 537 95 544T143 558T199 569T267 574Q323 574 367
565T443 536T490 484T507 404V79L566 51V9Q552 1 524 -6T461 -14Q417 -14 383 3T342 65H337Q318 27 274 6T176 -15Q101 -15 58 28T15 142Q15 185 28 212T67 257T129 283T213 301L320 319V394Q320 448 301 474T227 501Q220 501 204 501T179 499L140 385ZM104 645L241
798H325L462 645L431 608L283 680L135 608L104 645Z" />
<glyph unicode="&#xe3;" glyph-name="atilde" horiz-adv-x="566" d="M320 259L277 255Q245 252 222 231T199 169Q199 146 205 130T220 105T242 91T269 87Q284 87 298 93T320 108V259ZM140 385H53V531Q73 537 95 544T143 558T199 569T267 574Q323 574 367 565T443
536T490 484T507 404V79L566 51V9Q552 1 524 -6T461 -14Q417 -14 383 3T342 65H337Q318 27 274 6T176 -15Q101 -15 58 28T15 142Q15 185 28 212T67 257T129 283T213 301L320 319V394Q320 448 301 474T227 501Q220 501 204 501T179 499L140 385ZM92 648Q112 703
142 736T214 770Q231 770 252 765T293 754T332 742T362 737Q379 737 398 748T429 776L476 743Q454 688 424 655T352 621Q335 621 314 626T273 637T234 649T204 654Q187 654 172 645T144 618L92 648Z" />
<glyph unicode="&#xe4;" glyph-name="adieresis" horiz-adv-x="566" d="M320 259L277 255Q245 252 222 231T199 169Q199 146 205 130T220 105T242 91T269 87Q284 87 298 93T320 108V259ZM140 385H53V531Q73 537 95 544T143 558T199 569T267 574Q323 574 367 565T443
536T490 484T507 404V79L566 51V9Q552 1 524 -6T461 -14Q417 -14 383 3T342 65H337Q318 27 274 6T176 -15Q101 -15 58 28T15 142Q15 185 28 212T67 257T129 283T213 301L320 319V394Q320 448 301 474T227 501Q220 501 204 501T179 499L140 385ZM394 615Q359 615
335 638T310 697Q310 732 334 755T394 779Q429 779 453 756T478 697Q478 662 454 639T394 615ZM171 615Q136 615 112 638T87 697Q87 732 111 755T171 779Q206 779 230 756T255 697Q255 662 231 639T171 615Z" />
<glyph unicode="&#xe5;" glyph-name="aring" horiz-adv-x="566" d="M320 259L277 255Q245 252 222 231T199 169Q199 146 205 130T220 105T242 91T269 87Q284 87 298 93T320 108V259ZM140 385H53V531Q73 537 95 544T143 558T199 569T267 574Q323 574 367 565T443
536T490 484T507 404V79L566 51V9Q552 1 524 -6T461 -14Q417 -14 383 3T342 65H337Q318 27 274 6T176 -15Q101 -15 58 28T15 142Q15 185 28 212T67 257T129 283T213 301L320 319V394Q320 448 301 474T227 501Q220 501 204 501T179 499L140 385ZM273 607Q246 607
223 616T183 642T157 679T147 726Q147 750 156 771T183 809T223 834T273 844Q300 844 322 835T361 809T387 772T397 726Q397 701 388 680T362 642T323 617T273 607ZM273 656Q303 656 321 675T339 726Q339 757 321 776T273 795Q243 795 225 776T206 726Q206 694
224 675T273 656Z" />
<glyph unicode="&#xe6;" glyph-name="ae" horiz-adv-x="825" d="M597 -13Q434 -13 362 85Q338 43 293 15T190 -14Q102 -14 59 28T15 143Q15 186 29 213T68 258T131 285T213 304L310 323V402Q310 456 289 478T213 500Q206 500 200 500T186 499L145 390H54V537Q93
549 148 561T264 574Q328 574 365 556T421 503Q449 537 488 555T582 574Q703 574 765 503T827 268H498Q506 179 543 142T647 104Q701 104 736 110T801 125V64Q789 52 770 39T726 14T668 -5T597 -13ZM649 344Q649 402 644 436T630 487T607 508T579 513Q563 513 549
506T523 479T504 424T496 335L649 344ZM333 140Q313 193 310 255L260 252Q227 250 213 232T198 172Q198 128 212 108T261 87Q284 87 302 102T333 140Z" />
<glyph unicode="&#xe7;" glyph-name="ccedilla" horiz-adv-x="522" d="M175 -194Q209 -194 232 -189T268 -175T286 -157T292 -139Q292 -123 276 -111T215 -97V-4Q115 19 65 94T15 280Q15 349 36 403T98 496T194 554T320 574Q344 574 370 572T421 567T466 560T498
551V383H401L369 493Q362 496 348 498T315 501Q292 501 272 490T238 453T215 388T206 290Q206 240 218 205T251 147T302 113T366 102Q405 102 443 107T502 118V66Q491 52 471 38T425 13T368 -6T303 -14H289V-49Q346 -52 379 -72T413 -133Q413 -156 401 -174T360
-207T287 -229T175 -240V-194Z" />
<glyph unicode="&#xe8;" glyph-name="egrave" horiz-adv-x="550" d="M288 512Q269 512 254 505T228 477T211 422T204 330L359 339Q359 395 355 429T341 481T319 506T288 512ZM206 263Q213 181 252 142T369 102Q422 102 456 107T519 121V67Q509 53 489 39T442 12T380
-7T306 -15Q161 -15 88 61T15 281Q15 350 34 404T90 496T177 553T291 573Q354 573 401 558T478 506T524 411T540 263H206ZM119 681L179 813L414 669L389 620L119 681Z" />
<glyph unicode="&#xe9;" glyph-name="eacute" horiz-adv-x="550" d="M288 512Q269 512 254 505T228 477T211 422T204 330L359 339Q359 395 355 429T341 481T319 506T288 512ZM206 263Q213 181 252 142T369 102Q422 102 456 107T519 121V67Q509 53 489 39T442 12T380
-7T306 -15Q161 -15 88 61T15 281Q15 350 34 404T90 496T177 553T291 573Q354 573 401 558T478 506T524 411T540 263H206ZM138 669L373 813L433 681L163 620L138 669Z" />
<glyph unicode="&#xea;" glyph-name="ecircumflex" horiz-adv-x="550" d="M288 512Q269 512 254 505T228 477T211 422T204 330L359 339Q359 395 355 429T341 481T319 506T288 512ZM206 263Q213 181 252 142T369 102Q422 102 456 107T519 121V67Q509 53 489 39T442
12T380 -7T306 -15Q161 -15 88 61T15 281Q15 350 34 404T90 496T177 553T291 573Q354 573 401 558T478 506T524 411T540 263H206ZM96 645L233 798H317L454 645L423 608L275 680L127 608L96 645Z" />
<glyph unicode="&#xeb;" glyph-name="edieresis" horiz-adv-x="550" d="M288 512Q269 512 254 505T228 477T211 422T204 330L359 339Q359 395 355 429T341 481T319 506T288 512ZM206 263Q213 181 252 142T369 102Q422 102 456 107T519 121V67Q509 53 489 39T442
12T380 -7T306 -15Q161 -15 88 61T15 281Q15 350 34 404T90 496T177 553T291 573Q354 573 401 558T478 506T524 411T540 263H206ZM386 615Q351 615 327 638T302 697Q302 732 326 755T386 779Q421 779 445 756T470 697Q470 662 446 639T386 615ZM163 615Q128 615
104 638T79 697Q79 732 103 755T163 779Q198 779 222 756T247 697Q247 662 223 639T163 615Z" />
<glyph unicode="&#xec;" glyph-name="igrave" horiz-adv-x="323" d="M242 576H257V80L317 52V0H11V52L71 80V459L8 488V539L242 576ZM260 681L320 813L555 669L530 620L260 681Z" />
<glyph unicode="&#xed;" glyph-name="iacute" horiz-adv-x="323" d="M242 576H257V80L317 52V0H11V52L71 80V459L8 488V539L242 576ZM281 669L516 813L576 681L306 620L281 669Z" />
<glyph unicode="&#xee;" glyph-name="icircumflex" horiz-adv-x="323" d="M242 576H257V80L317 52V0H11V52L71 80V459L8 488V539L242 576ZM239 645L376 798H460L597 645L566 608L418 680L270 608L239 645Z" />
<glyph unicode="&#xef;" glyph-name="idieresis" horiz-adv-x="323" d="M242 576H257V80L317 52V0H11V52L71 80V459L8 488V539L242 576ZM529 615Q494 615 470 638T445 697Q445 732 469 755T529 779Q564 779 588 756T613 697Q613 662 589 639T529 615ZM306 615Q271
615 247 638T222 697Q222 732 246 755T306 779Q341 779 365 756T390 697Q390 662 366 639T306 615Z" />
<glyph unicode="&#xf0;" glyph-name="eth" horiz-adv-x="605" d="M114 632L210 678Q172 710 130 737L176 802Q216 786 253 767T325 726L466 799V724L389 680Q432 645 468 606T529 521T569 423T583 312Q583 231 563 170T505 68T416 7T303 -14Q236 -14 184 7T95
64T41 152T22 263Q22 338 43 389T97 473T173 520T258 535Q281 535 301 530T336 517Q319 546 303 575T263 628L114 557V632ZM304 62Q323 62 338 70T365 102T383 165T389 268Q389 332 383 372T364 434T336 465T301 473Q282 473 267 464T240 431T223 368T217 270Q217
206 223 166T241 102T269 71T304 62Z" />
<glyph unicode="&#xf1;" glyph-name="ntilde" horiz-adv-x="662" d="M11 51L72 79V459L8 488V537L240 574H255V501H261Q299 536 348 555T455 574Q525 574 560 539T595 425V79L656 51V0H350V51L409 79V383Q409 427 391 444T334 462Q313 462 294 458T258 447V79L317
51V0H11V51ZM129 648Q149 703 179 736T251 770Q268 770 289 765T330 754T369 742T399 737Q416 737 435 748T466 776L513 743Q491 688 461 655T389 621Q372 621 351 626T310 637T271 649T241 654Q224 654 209 645T181 618L129 648Z" />
<glyph unicode="&#xf2;" glyph-name="ograve" horiz-adv-x="604" d="M302 574Q366 574 418 555T509 499T568 406T589 280Q589 209 568 154T509 62T419 5T302 -15Q238 -15 186 4T95 61T36 154T15 280Q15 351 36 406T95 498T185 555T302 574ZM303 63Q326 63 343
71T371 102T388 168T394 280Q394 349 389 392T372 458T343 489T303 497Q280 497 263 489T234 458T216 392T210 280Q210 211 216 168T233 102T262 71T303 63ZM144 681L204 813L439 669L414 620L144 681Z" />
<glyph unicode="&#xf3;" glyph-name="oacute" horiz-adv-x="604" d="M302 574Q366 574 418 555T509 499T568 406T589 280Q589 209 568 154T509 62T419 5T302 -15Q238 -15 186 4T95 61T36 154T15 280Q15 351 36 406T95 498T185 555T302 574ZM303 63Q326 63 343
71T371 102T388 168T394 280Q394 349 389 392T372 458T343 489T303 497Q280 497 263 489T234 458T216 392T210 280Q210 211 216 168T233 102T262 71T303 63ZM165 669L400 813L460 681L190 620L165 669Z" />
<glyph unicode="&#xf4;" glyph-name="ocircumflex" horiz-adv-x="604" d="M302 574Q366 574 418 555T509 499T568 406T589 280Q589 209 568 154T509 62T419 5T302 -15Q238 -15 186 4T95 61T36 154T15 280Q15 351 36 406T95 498T185 555T302 574ZM303 63Q326 63
343 71T371 102T388 168T394 280Q394 349 389 392T372 458T343 489T303 497Q280 497 263 489T234 458T216 392T210 280Q210 211 216 168T233 102T262 71T303 63ZM123 645L260 798H344L481 645L450 608L302 680L154 608L123 645Z" />
<glyph unicode="&#xf5;" glyph-name="otilde" horiz-adv-x="604" d="M302 574Q366 574 418 555T509 499T568 406T589 280Q589 209 568 154T509 62T419 5T302 -15Q238 -15 186 4T95 61T36 154T15 280Q15 351 36 406T95 498T185 555T302 574ZM303 63Q326 63 343
71T371 102T388 168T394 280Q394 349 389 392T372 458T343 489T303 497Q280 497 263 489T234 458T216 392T210 280Q210 211 216 168T233 102T262 71T303 63ZM111 648Q131 703 161 736T233 770Q250 770 271 765T312 754T351 742T381 737Q398 737 417 748T448 776L495
743Q473 688 443 655T371 621Q354 621 333 626T292 637T253 649T223 654Q206 654 191 645T163 618L111 648Z" />
<glyph unicode="&#xf6;" glyph-name="odieresis" horiz-adv-x="604" d="M302 574Q366 574 418 555T509 499T568 406T589 280Q589 209 568 154T509 62T419 5T302 -15Q238 -15 186 4T95 61T36 154T15 280Q15 351 36 406T95 498T185 555T302 574ZM303 63Q326 63 343
71T371 102T388 168T394 280Q394 349 389 392T372 458T343 489T303 497Q280 497 263 489T234 458T216 392T210 280Q210 211 216 168T233 102T262 71T303 63ZM413 615Q378 615 354 638T329 697Q329 732 353 755T413 779Q448 779 472 756T497 697Q497 662 473 639T413
615ZM190 615Q155 615 131 638T106 697Q106 732 130 755T190 779Q225 779 249 756T274 697Q274 662 250 639T190 615Z" />
<glyph unicode="&#xf7;" glyph-name="divide" horiz-adv-x="590" d="M50 374H540V275H50V374ZM295 29Q254 29 228 55T202 120Q202 158 228 185T295 212Q336 212 362 185T388 120Q388 82 362 56T295 29ZM295 437Q254 437 228 463T202 528Q202 566 228 593T295 620Q336
620 362 593T388 528Q388 490 362 464T295 437Z" />
<glyph unicode="&#xf8;" glyph-name="oslash" horiz-adv-x="615" d="M476 591H585L516 497Q554 459 574 404T595 280Q595 209 574 154T515 62T425 5T308 -15Q242 -15 191 4L171 13L130 -42H20L98 64Q21 144 21 280Q21 352 42 406T101 498T191 555T308 574Q338
572 368 569T424 555L443 547L476 591ZM309 63Q332 63 349 71T377 102T394 168T400 280Q400 296 400 310T399 337L233 116L239 102Q251 79 268 71T309 63ZM377 458Q366 481 349 489T309 497Q286 497 269 489T240 458T222 392T216 280Q216 265 216 252T217 225L382
447Q381 453 377 458Z" />
<glyph unicode="&#xf9;" glyph-name="ugrave" horiz-adv-x="654" d="M69 456L6 485V536L239 573H255V178Q255 154 260 140T276 117T301 106T333 103Q356 103 371 106T400 116V456L338 485V536L571 573H586V94L649 61V13L422 -12H407V62H400Q373 29 330 7T230 -15Q188
-15 158 -1T108 37T79 94T69 163V456ZM169 681L229 813L464 669L439 620L169 681Z" />
<glyph unicode="&#xfa;" glyph-name="uacute" horiz-adv-x="654" d="M69 456L6 485V536L239 573H255V178Q255 154 260 140T276 117T301 106T333 103Q356 103 371 106T400 116V456L338 485V536L571 573H586V94L649 61V13L422 -12H407V62H400Q373 29 330 7T230 -15Q188
-15 158 -1T108 37T79 94T69 163V456ZM190 669L425 813L485 681L215 620L190 669Z" />
<glyph unicode="&#xfb;" glyph-name="ucircumflex" horiz-adv-x="654" d="M69 456L6 485V536L239 573H255V178Q255 154 260 140T276 117T301 106T333 103Q356 103 371 106T400 116V456L338 485V536L571 573H586V94L649 61V13L422 -12H407V62H400Q373 29 330 7T230
-15Q188 -15 158 -1T108 37T79 94T69 163V456ZM148 645L285 798H369L506 645L475 608L327 680L179 608L148 645Z" />
<glyph unicode="&#xfc;" glyph-name="udieresis" horiz-adv-x="654" d="M69 456L6 485V536L239 573H255V178Q255 154 260 140T276 117T301 106T333 103Q356 103 371 106T400 116V456L338 485V536L571 573H586V94L649 61V13L422 -12H407V62H400Q373 29 330 7T230
-15Q188 -15 158 -1T108 37T79 94T69 163V456ZM438 615Q403 615 379 638T354 697Q354 732 378 755T438 779Q473 779 497 756T522 697Q522 662 498 639T438 615ZM215 615Q180 615 156 638T131 697Q131 732 155 755T215 779Q250 779 274 756T299 697Q299 662 275
639T215 615Z" />
<glyph unicode="&#xfd;" glyph-name="yacute" horiz-adv-x="608" d="M124 -165Q170 -165 202 -144T256 -72L265 -51L39 480L-13 508V560H309V508L249 482L353 189H357L453 482L393 508V560H610V508L554 480L345 -90Q311 -182 263 -218T147 -254Q118 -254 95 -246T53
-225V-158Q70 -162 90 -163T124 -165ZM197 669L432 813L492 681L222 620L197 669Z" />
<glyph unicode="&#xfe;" glyph-name="thorn" horiz-adv-x="613" d="M0 -143L58 -129V666L1 682V764L222 788L238 781V503H245Q269 529 304 548T393 568Q429 568 464 556T526 512T570 430T587 300Q587 214 567 156T512 61T429 8T326 -8Q292 -8 273 -4T240 7V-130L307
-143V-217H0V-143ZM302 84Q324 84 341 91T370 120T388 178T395 276Q395 325 390 358T374 412T347 440T310 449Q287 449 270 445T240 434V102Q250 95 263 90T302 84Z" />
<glyph unicode="&#xff;" glyph-name="ydieresis" horiz-adv-x="608" d="M124 -165Q170 -165 202 -144T256 -72L265 -51L39 480L-13 508V560H309V508L249 482L353 189H357L453 482L393 508V560H610V508L554 480L345 -90Q311 -182 263 -218T147 -254Q118 -254 95
-246T53 -225V-158Q70 -162 90 -163T124 -165ZM435 615Q400 615 376 638T351 697Q351 732 375 755T435 779Q470 779 494 756T519 697Q519 662 495 639T435 615ZM212 615Q177 615 153 638T128 697Q128 732 152 755T212 779Q247 779 271 756T296 697Q296 662 272
639T212 615Z" />
<glyph unicode="&#x131;" glyph-name="dotlessi" horiz-adv-x="323" d="M242 576H257V80L317 52V0H11V52L71 80V459L8 488V539L242 576Z" />
<glyph unicode="&#x141;" glyph-name="Lslash" horiz-adv-x="612" d="M90 350V639L20 667V732H370V667L295 640V426L452 484V382L295 324V95H457L508 251H602L588 0H20V65L90 93V248L21 223V325L90 350Z" />
<glyph unicode="&#x142;" glyph-name="lslash" horiz-adv-x="330" d="M255 406V80L315 52V0H9V52L69 80V309L10 279V373L69 403V686L6 715V766L240 803H255V500L329 539V445L255 406Z" />
<glyph unicode="&#x152;" glyph-name="OE" horiz-adv-x="992" d="M389 0Q306 0 239 19T123 81T49 191T23 353Q23 452 50 523T126 641T241 710T385 732H960L968 526H886L837 641H640V420H713L735 500H814V255H735L713 336H640V91H841L901 229H986L975 0H389ZM443
97V635H397Q361 635 332 622T281 577T249 494T238 368Q238 285 250 233T285 150T338 109T407 97H443Z" />
<glyph unicode="&#x153;" glyph-name="oe" horiz-adv-x="917" d="M661 574Q782 574 844 503T907 268H578Q586 179 623 142T727 104Q781 104 816 110T881 125V64Q869 52 850 39T805 14T747 -5T676 -13Q601 -13 554 8T481 72Q424 -14 303 -14Q236 -14 184 6T95 65T41
157T22 278Q22 350 44 405T104 498T193 555T303 574Q372 574 416 553T487 493Q513 531 555 552T661 574ZM304 64Q327 64 343 75T369 111T384 177T389 278Q389 341 384 382T369 449T342 485T302 496Q279 496 263 486T237 452T222 388T217 286Q217 223 222 181T237
112T264 75T304 64ZM729 344Q729 402 724 436T710 487T687 508T659 513Q643 513 629 506T603 479T584 424T576 335L729 344Z" />
<glyph unicode="&#x160;" glyph-name="Scaron" horiz-adv-x="573" d="M263 -12Q231 -12 199 -10T137 -3T79 8T32 24L22 210H105L151 101Q168 92 198 88T257 83Q305 83 336 104T367 166Q367 190 359 206T334 235T295 256T244 277L203 294Q120 325 74 377T28 515Q28
564 44 606T94 679T180 727T304 745Q379 745 427 736T505 716L515 536H433L394 635Q380 642 352 647T298 652Q251 652 228 632T205 575Q205 540 228 520T308 479L350 465Q397 447 435 430T499 387T540 326T555 236Q555 180 535 134T478 56T386 6T263 -12ZM470 940L333
787H249L112 940L143 977L291 904L439 977L470 940Z" />
<glyph unicode="&#x161;" glyph-name="scaron" horiz-adv-x="476" d="M212 -14Q189 -14 164 -12T112 -6T62 5T17 21V169H96L128 76Q133 71 143 68T166 63T192 59T218 58Q258 58 283 69T308 114Q308 145 294 160T234 185L166 200Q127 209 99 227T52 271T24 327T15
388Q15 428 29 462T72 521T146 560T253 574Q303 574 350 567T430 545V407H352L328 484Q318 489 294 493T246 498Q213 498 193 484T172 443Q172 418 187 403T249 377L315 363Q355 354 383 337T430 297T456 244T464 183Q464 139 450 103T405 41T327 1T212 -14ZM683
765L546 612H462L325 765L356 802L504 729L652 802L683 765Z" />
<glyph unicode="&#x178;" glyph-name="Ydieresis" horiz-adv-x="644" d="M146 66L221 94V292L38 639L-15 667V732H312V667L259 641L373 397H377L482 642L430 667V732H659V667L604 639L435 295V94L509 66V0H146V66ZM453 780Q418 780 394 803T369 862Q369 897 393
920T453 944Q488 944 512 921T537 862Q537 827 513 804T453 780ZM230 780Q195 780 171 803T146 862Q146 897 170 920T230 944Q265 944 289 921T314 862Q314 827 290 804T230 780Z" />
<glyph unicode="&#x17d;" glyph-name="Zcaron" horiz-adv-x="628" d="M22 104L362 632V637H173L114 504H36L46 732H600V627L260 98V94H465L526 244H603L592 0H22V104ZM493 940L356 787H272L135 940L166 977L314 904L462 977L493 940Z" />
<glyph unicode="&#x17e;" glyph-name="zcaron" horiz-adv-x="495" d="M6 82L295 478V482H140L107 381H16V555H491V470L212 81V77H364L403 188H487V0H6V82ZM683 765L546 612H462L325 765L356 802L504 729L652 802L683 765Z" />
<glyph unicode="&#x192;" glyph-name="florin" horiz-adv-x="487" d="M46 425H129L149 542Q166 639 221 683T364 728Q412 728 443 719T490 700V627Q477 630 463 632T429 634Q388 634 370 616T344 554L322 425H425V330H306L243 -36Q236 -77 220 -106T178 -154T122
-181T53 -190Q12 -190 -19 -182T-62 -166V-95Q-53 -97 -43 -98T-19 -100Q8 -100 26 -89T50 -43L113 330H46V425Z" />
<glyph unicode="&#x2c6;" glyph-name="circumflex" horiz-adv-x="500" d="M71 645L208 798H292L429 645L398 608L250 680L102 608L71 645Z" />
<glyph unicode="&#x2c7;" glyph-name="caron" horiz-adv-x="500" d="M429 765L292 612H208L71 765L102 802L250 729L398 802L429 765Z" />
<glyph unicode="&#x2d8;" glyph-name="breve" horiz-adv-x="500" d="M259 626Q186 626 142 670T92 789H173Q178 768 197 748T259 728Q301 728 319 748T343 789H424Q419 714 375 670T259 626Z" />
<glyph unicode="&#x2d9;" glyph-name="dotaccent" horiz-adv-x="500" d="M250 617Q210 617 181 641T152 707Q152 748 181 772T250 796Q291 796 319 772T347 707Q347 665 319 641T250 617Z" />
<glyph unicode="&#x2da;" glyph-name="ring" horiz-adv-x="500" d="M251 607Q224 607 201 616T161 642T135 679T125 726Q125 750 134 771T161 809T201 834T251 844Q278 844 300 835T339 809T365 772T375 726Q375 701 366 680T340 642T301 617T251 607ZM251 656Q281
656 299 675T317 726Q317 757 299 776T251 795Q221 795 203 776T184 726Q184 694 202 675T251 656Z" />
<glyph unicode="&#x2db;" glyph-name="ogonek" horiz-adv-x="500" d="M273 -202Q207 -202 176 -177T145 -115Q145 -96 155 -79T184 -47T226 -20T277 0H317Q291 -26 276 -49T260 -99Q260 -120 273 -132T316 -145Q326 -145 337 -143T361 -138V-183Q345 -190 322
-196T273 -202Z" />
<glyph unicode="&#x2dc;" glyph-name="tilde" horiz-adv-x="500" d="M59 648Q79 703 109 736T181 770Q198 770 219 765T260 754T299 742T329 737Q346 737 365 748T396 776L443 743Q421 688 391 655T319 621Q302 621 281 626T240 637T201 649T171 654Q154 654 139
645T111 618L59 648Z" />
<glyph unicode="&#x2dd;" glyph-name="hungarumlaut" horiz-adv-x="500" d="M112 627L215 821L324 738L149 596L112 627ZM306 629L423 817L526 730L343 598L306 629Z" />
</font>
</defs>
</svg>
