<svg xmlns="http://www.w3.org/2000/svg" xmlns:xlink="http://www.w3.org/1999/xlink" width="20" height="20"><defs><path id="a" d="M0 0h20v20H0z"/></defs><clipPath id="b"><use xlink:href="#a" overflow="visible"/></clipPath><path clip-path="url(#b)" fill="#FF7104" d="M10.697 12.25H9.303l-1.39-7.693.695-.743h2.785l.695.743-1.39 7.693zM10 16.392c-.768 0-1.392-.624-1.392-1.394 0-.768.624-1.39 1.392-1.39s1.393.622 1.393 1.39c0 .77-.625 1.394-1.393 1.394M10 1c-4.97 0-9 4.03-9 9s4.03 9 9 9 9-4.03 9-9-4.03-9-9-9"/></svg>