<svg xmlns="http://www.w3.org/2000/svg" xmlns:xlink="http://www.w3.org/1999/xlink" width="20" height="20"><defs><path id="a" d="M0 0h20v20h-20z"/></defs><clipPath id="b"><use xlink:href="#a" overflow="visible"/></clipPath><path clip-path="url(#b)" fill="#FF7104" d="M10.697 12.25h-1.394l-1.391-7.693.696-.743h2.785l.695.743-1.391 7.693zm-.697 4.142c-.768 0-1.392-.624-1.392-1.394 0-.768.624-1.391 1.392-1.391s1.393.623 1.393 1.391c0 .77-.625 1.394-1.393 1.394m0-15.392c-4.971 0-9 4.029-9 9s4.029 9 9 9 9-4.029 9-9-4.029-9-9-9"/></svg>