<?xml version="1.0" encoding="utf-8"?>
<!-- Generator: Adobe Illustrator 16.0.1, SVG Export Plug-In . SVG Version: 6.00 Build 0)  -->
<!DOCTYPE svg PUBLIC "-//W3C//DTD SVG 1.1//EN" "http://www.w3.org/Graphics/SVG/1.1/DTD/svg11.dtd">
<svg version="1.1" id="Layer_1" xmlns="http://www.w3.org/2000/svg" xmlns:xlink="http://www.w3.org/1999/xlink" x="0px" y="0px"
	 width="54px" height="35px" viewBox="0 0 54 35" enable-background="new 0 0 54 35" xml:space="preserve">
<rect fill="#00C0F4" width="54" height="35"/>
<g>
	<path fill="#FFFFFF" d="M4.889,12.479L3.851,9.949l-1.032,2.529 M27.752,11.472c-0.209,0.126-0.455,0.13-0.75,0.13H25.16v-1.409
		h1.867c0.264,0,0.542,0.013,0.719,0.115c0.197,0.092,0.318,0.289,0.318,0.561C28.064,11.146,27.949,11.369,27.752,11.472z
		 M40.893,12.479l-1.049-2.529l-1.043,2.529H40.893z M16.397,15.216h-1.554l-0.006-4.969l-2.199,4.969h-1.332l-2.204-4.974v4.974
		H6.019l-0.583-1.415H2.279L1.69,15.216H0.043l2.715-6.344h2.253l2.579,6.006V8.872h2.475l1.984,4.304l1.823-4.304h2.524V15.216
		L16.397,15.216z M22.593,15.216h-5.065V8.872h5.065v1.32h-3.549v1.144h3.464v1.301h-3.464v1.267h3.549V15.216z M29.736,10.58
		c0,1.012-0.676,1.534-1.07,1.691c0.332,0.126,0.615,0.349,0.75,0.534c0.215,0.315,0.252,0.597,0.252,1.163v1.247h-1.529
		l-0.006-0.801c0-0.381,0.037-0.93-0.24-1.235c-0.221-0.224-0.559-0.271-1.105-0.271H25.16v2.308h-1.516V8.872h3.487
		c0.775,0,1.347,0.021,1.835,0.304C29.447,9.459,29.736,9.872,29.736,10.58z M32.162,15.216h-1.549V8.872h1.549V15.216z
		 M50.111,15.216h-2.15l-2.873-4.762v4.762H42l-0.59-1.415h-3.15l-0.572,1.415h-1.773c-0.738,0-1.67-0.163-2.199-0.702
		c-0.533-0.538-0.811-1.269-0.811-2.421c0-0.941,0.166-1.802,0.818-2.481c0.488-0.506,1.258-0.739,2.303-0.739h1.467v1.359h-1.438
		c-0.553,0-0.865,0.082-1.166,0.375c-0.258,0.268-0.436,0.772-0.436,1.438c0,0.68,0.135,1.17,0.416,1.49
		c0.234,0.251,0.658,0.327,1.057,0.327h0.682l2.137-4.989h2.271l2.568,6v-6h2.309l2.666,4.418V8.872h1.553V15.216L50.111,15.216z
		 M0.026,16.462h2.591l0.584-1.409h1.308l0.582,1.409h5.098v-1.077l0.455,1.081h2.646l0.455-1.098v1.094h12.668l-0.005-2.313h0.245
		c0.172,0.006,0.222,0.021,0.222,0.306v2.008h6.551v-0.539c0.529,0.283,1.352,0.539,2.434,0.539h2.756l0.59-1.409h1.307l0.578,1.409
		h5.312v-1.339l0.803,1.339h4.258V7.614H47.25v1.045l-0.59-1.045h-4.322v1.045l-0.541-1.045h-5.84c-0.977,0-1.836,0.136-2.531,0.517
		V7.614h-4.029v0.517c-0.441-0.393-1.043-0.517-1.711-0.517H12.964l-0.987,2.285l-1.014-2.285H6.326v1.045L5.816,7.614H1.862
		L0.026,11.82V16.462L0.026,16.462z"/>
	<path fill="#FFFFFF" d="M53.975,21.141h-2.764c-0.275,0-0.461,0.011-0.615,0.114c-0.158,0.104-0.221,0.255-0.221,0.457
		c0,0.239,0.135,0.402,0.332,0.473c0.16,0.056,0.332,0.072,0.584,0.072l0.822,0.022c0.828,0.021,1.383,0.162,1.721,0.51
		c0.061,0.048,0.098,0.103,0.141,0.157 M53.975,25.324c-0.369,0.539-1.088,0.812-2.059,0.812h-2.928v-1.361h2.916
		c0.289,0,0.492-0.038,0.613-0.157c0.105-0.099,0.18-0.241,0.18-0.414c0-0.185-0.074-0.332-0.186-0.42
		c-0.109-0.097-0.27-0.141-0.533-0.141c-1.424-0.049-3.201,0.044-3.201-1.964c0-0.92,0.584-1.89,2.176-1.89h3.02v-1.262h-2.805
		c-0.848,0-1.463,0.202-1.898,0.519v-0.519h-4.15c-0.664,0-1.443,0.164-1.812,0.519v-0.519h-7.41v0.519
		c-0.592-0.427-1.586-0.519-2.047-0.519h-4.889v0.519c-0.467-0.453-1.504-0.519-2.137-0.519h-5.472l-1.252,1.354l-1.173-1.354
		h-8.173v8.854h8.02l1.29-1.377l1.215,1.377l4.943,0.004v-2.083h0.486c0.656,0.011,1.43-0.015,2.111-0.311v2.39h4.078v-2.309h0.197
		c0.25,0,0.275,0.012,0.275,0.262v2.047h12.387c0.787,0,1.607-0.201,2.064-0.567v0.567h3.928c0.818,0,1.615-0.114,2.225-0.408
		V25.324L53.975,25.324z M47.926,22.789c0.295,0.305,0.453,0.691,0.453,1.344c0,1.366-0.854,2.004-2.381,2.004h-2.955v-1.361h2.941
		c0.289,0,0.492-0.038,0.619-0.157c0.105-0.099,0.18-0.241,0.18-0.414c0-0.185-0.08-0.332-0.184-0.42
		c-0.117-0.097-0.277-0.141-0.541-0.141c-1.418-0.049-3.193,0.044-3.193-1.964c0-0.92,0.578-1.89,2.168-1.89h3.039v1.351h-2.781
		c-0.275,0-0.455,0.011-0.607,0.114c-0.166,0.104-0.229,0.256-0.229,0.457c0,0.24,0.141,0.402,0.332,0.473
		c0.16,0.056,0.332,0.072,0.59,0.072l0.816,0.022C47.016,22.3,47.582,22.441,47.926,22.789z M34.242,22.397
		c-0.203,0.12-0.453,0.13-0.748,0.13h-1.842v-1.425h1.867c0.27,0,0.539,0.007,0.723,0.114c0.197,0.104,0.314,0.3,0.314,0.571
		S34.439,22.278,34.242,22.397z M35.158,23.187c0.338,0.125,0.613,0.348,0.742,0.533c0.215,0.31,0.246,0.598,0.252,1.158v1.259
		h-1.521v-0.795c0-0.382,0.035-0.946-0.246-1.242c-0.221-0.228-0.559-0.281-1.111-0.281h-1.621v2.318h-1.523V19.79h3.5
		c0.768,0,1.326,0.034,1.824,0.3c0.479,0.289,0.781,0.685,0.781,1.409C36.232,22.512,35.557,23.028,35.158,23.187z M37.074,19.79
		h5.061v1.312h-3.551v1.153h3.465v1.295h-3.465v1.263l3.551,0.005v1.318h-5.061V19.79z M26.844,22.719h-1.959v-1.616h1.977
		c0.547,0,0.928,0.223,0.928,0.778C27.789,22.43,27.426,22.719,26.844,22.719z M23.374,25.559l-2.328-2.585l2.328-2.502V25.559z
		 M17.362,24.813h-3.729v-1.263h3.33v-1.295h-3.33v-1.153h3.802l1.658,1.85L17.362,24.813z M29.416,21.881
		c0,1.763-1.314,2.126-2.64,2.126h-1.892v2.13h-2.948l-1.867-2.102l-1.94,2.102h-6.006V19.79h6.099l1.865,2.081l1.929-2.081h4.846
		C28.064,19.79,29.416,20.124,29.416,21.881z"/>
</g>
</svg>
