<?xml version="1.0" encoding="utf-8"?>
<!-- Generator: Adobe Illustrator 16.0.0, SVG Export Plug-In . SVG Version: 6.00 Build 0)  -->
<!DOCTYPE svg PUBLIC "-//W3C//DTD SVG 1.1//EN" "http://www.w3.org/Graphics/SVG/1.1/DTD/svg11.dtd">
<svg version="1.1" id="Layer_1" xmlns="http://www.w3.org/2000/svg" xmlns:xlink="http://www.w3.org/1999/xlink" x="0px" y="0px"
	 width="12.667px" height="7px" viewBox="0 0 12.667 7" enable-background="new 0 0 12.667 7" xml:space="preserve">
<rect x="23.667" y="-1.834" fill="#FFFFFF" width="18" height="2"/>
<rect x="23.667" y="3.166" fill="#FFFFFF" width="18" height="2"/>
<rect x="23.667" y="8.166" fill="#FFFFFF" width="18" height="2"/>
<g>
	<path fill="#94B1CA" d="M-110.534,4.414h-1.549V2.901l1.549-0.216V0.795l3.349-0.468v2.358h2.196v1.729h-2.196v5.312
		c0,0.99,0.271,1.494,1.242,1.494c0.36,0,0.828-0.036,1.08-0.071v1.296c-0.558,0.324-1.692,0.595-2.736,0.595
		c-1.999,0-2.935-0.883-2.935-3.025V4.414z"/>
	<path fill="#94B1CA" d="M-104.686,11.851l1.099-0.505V0.201l-1.152-0.522v-0.882l4.178-0.667h0.27v5.618h0.108
		c0.9-0.828,2.124-1.314,3.493-1.314c1.674,0,2.521,0.828,2.521,2.683v6.229l1.099,0.505v0.918h-5.51v-0.918l1.062-0.505V5.872
		c0-1.044-0.432-1.422-1.35-1.422c-0.505,0-0.955,0.108-1.369,0.27v6.626l1.062,0.505v0.918h-5.51V11.851z"/>
	<path fill="#94B1CA" d="M-89.259,8.033c0.162,1.963,1.099,2.898,2.935,2.898c1.279,0,1.999-0.126,2.701-0.342v0.973
		c-0.468,0.647-1.98,1.477-3.835,1.477c-3.457,0-5.239-1.909-5.239-5.33c0-3.331,1.962-5.258,4.969-5.258
		c3.025,0,4.483,1.351,4.483,5.582H-89.259z M-89.295,6.827l2.791-0.162c0-2.683-0.45-3.115-1.278-3.115
		C-88.7,3.55-89.259,4.144-89.295,6.827z"/>
	<path fill="#FFFFFF" d="M-72.787,13.453c0,2.395-1.71,3.907-5.653,3.907c-3.169,0-5.113-0.991-5.113-2.341
		c0-1.314,1.278-1.692,2.412-1.927v-0.108c-1.08-0.233-1.603-1.008-1.603-1.801c0-1.062,1.116-1.908,1.692-2.305V8.771
		c-1.008-0.559-1.674-1.549-1.674-2.881c0-2.179,1.8-3.476,4.393-3.476c0.811,0,1.693,0.253,2.323,0.486h0.144l2.575-0.504h0.198
		v1.999h-0.234l-1.675-0.595v0.072c0.631,0.576,1.045,1.134,1.045,2.124c0,2.197-1.783,3.367-4.376,3.367
		c-0.666,0-1.116-0.036-1.656-0.197c-0.252,0.18-0.45,0.468-0.45,0.737c0,0.36,0.324,0.648,0.721,0.648h3.601
		C-73.885,10.554-72.787,11.473-72.787,13.453z M-75.686,14.389c0-0.521-0.378-0.773-1.207-0.773h-3.528
		c-0.271,0.306-0.396,0.647-0.396,1.134c0,0.702,0.63,1.351,2.467,1.351C-76.262,16.1-75.686,15.434-75.686,14.389z M-79.521,5.891
		c0,2.053,0.468,2.232,1.188,2.232c0.721,0,1.207-0.216,1.207-2.232s-0.469-2.323-1.207-2.323
		C-79.053,3.567-79.521,3.838-79.521,5.891z"/>
	<path fill="#FFFFFF" d="M-71.728,4.559l-1.134-0.522V3.117l4.195-0.666h0.288v7.112c0,1.152,0.558,1.351,1.404,1.351
		c0.558,0,0.864-0.09,1.206-0.234V4.559l-1.116-0.522V3.117l4.195-0.666h0.27v8.625l1.135,0.594v0.864l-4.087,0.45h-0.271v-1.332
		h-0.126c-0.648,0.792-1.711,1.387-3.061,1.387c-2.035,0-2.899-1.459-2.899-3.205V4.559z"/>
	<path fill="#FFFFFF" d="M-58.678,5.837h-1.566V3.208c0.954-0.307,2.089-0.774,3.854-0.774c2.7,0,4.321,0.792,4.321,3.061v5.852
		l1.062,0.505v0.756c-0.324,0.18-1.081,0.414-1.891,0.414c-1.045,0-1.98-0.342-2.143-1.422h-0.091
		c-0.449,0.899-1.638,1.44-2.898,1.44c-1.782,0-2.898-1.152-2.898-2.827c0-2.07,1.332-2.485,3.564-2.863l1.927-0.324v-1.35
		c0-1.278-0.378-1.927-1.675-1.927c-0.162,0-0.647,0.018-0.864,0.036L-58.678,5.837z M-55.437,8.105l-0.774,0.071
		c-0.774,0.072-1.404,0.595-1.404,1.549c0,1.116,0.612,1.477,1.261,1.477c0.359,0,0.738-0.18,0.918-0.378V8.105z"/>
	<path fill="#FFFFFF" d="M-46.815,2.397h0.288v2.125h0.108c0.594-1.333,1.494-2.053,2.593-2.053c0.18,0,0.396,0.018,0.504,0.054
		v2.935c-0.198-0.054-0.559-0.09-0.847-0.09c-0.9,0-1.656,0.09-2.232,0.36v5.6l1.387,0.504v0.937h-5.798v-0.937l1.062-0.504V4.504
		l-1.117-0.521V3.063L-46.815,2.397z"/>
	<path fill="#FFFFFF" d="M-36.699,0.417l-1.116-0.504v-0.919l4.195-0.666h0.271v12.748l1.062,0.594v0.864l-3.979,0.45h-0.288V11.94
		h-0.108c-0.414,0.54-1.278,1.099-2.538,1.099c-1.837,0-4.033-1.171-4.033-5.042c0-4.069,2.25-5.527,4.915-5.527
		c0.559,0,1.206,0.126,1.62,0.414V0.417z M-36.699,4.216c-0.252-0.198-0.54-0.36-1.134-0.36c-1.062,0-1.854,0.955-1.854,3.8
		c0,2.484,0.63,3.564,1.962,3.564c0.505,0,0.793-0.09,1.026-0.18V4.216z"/>
	<path fill="#FFFFFF" d="M-27.934,2.397h0.27v8.931l1.081,0.504v0.937h-5.51v-0.937l1.08-0.504V4.504l-1.134-0.521V3.063
		L-27.934,2.397z M-27.609,0.039c0,0.972-0.811,1.765-1.783,1.765c-0.99,0-1.782-0.793-1.782-1.765c0-0.99,0.792-1.783,1.782-1.783
		C-28.42-1.744-27.609-0.951-27.609,0.039z"/>
	<path fill="#FFFFFF" d="M-23.956,5.837h-1.566V3.208c0.954-0.307,2.089-0.774,3.854-0.774c2.7,0,4.321,0.792,4.321,3.061v5.852
		l1.062,0.505v0.756c-0.324,0.18-1.081,0.414-1.891,0.414c-1.045,0-1.98-0.342-2.143-1.422h-0.091
		c-0.45,0.899-1.638,1.44-2.898,1.44c-1.782,0-2.898-1.152-2.898-2.827c0-2.07,1.332-2.485,3.564-2.863l1.927-0.324v-1.35
		c0-1.278-0.378-1.927-1.675-1.927c-0.162,0-0.647,0.018-0.864,0.036L-23.956,5.837z M-20.715,8.105l-0.774,0.071
		c-0.774,0.072-1.404,0.595-1.404,1.549c0,1.116,0.612,1.477,1.261,1.477c0.359,0,0.738-0.18,0.918-0.378V8.105z"/>
	<path fill="#FFFFFF" d="M-16.091,11.851l1.099-0.505V4.504l-1.152-0.521V3.1l4.177-0.666h0.271v1.314h0.107
		c0.9-0.828,2.125-1.314,3.493-1.314c1.675,0,2.521,0.828,2.521,2.683v6.229l1.099,0.505v0.918h-5.51v-0.918l1.062-0.505V5.872
		c0-1.044-0.433-1.422-1.351-1.422c-0.504,0-0.954,0.108-1.368,0.27v6.626l1.062,0.505v0.918h-5.51V11.851z"/>
</g>
<polyline fill="none" stroke="#FFFFFF" stroke-miterlimit="10" points="0.354,0.385 6.261,6.291 12.167,0.385 "/>
</svg>
