<?xml version="1.0" encoding="utf-8"?>
<!-- Generator: Adobe Illustrator 15.0.2, SVG Export Plug-In . SVG Version: 6.00 Build 0)  -->
<!DOCTYPE svg PUBLIC "-//W3C//DTD SVG 1.1//EN" "http://www.w3.org/Graphics/SVG/1.1/DTD/svg11.dtd">
<svg version="1.1" id="Layer_1" xmlns="http://www.w3.org/2000/svg" xmlns:xlink="http://www.w3.org/1999/xlink" x="0px" y="0px"
	 width="54px" height="28px" viewBox="0 0 54 28" enable-background="new 0 0 54 28" xml:space="preserve">
<g>
	<path fill="#F52C16" d="M0.393,14.717C0.393,4.95,9.704,0.47,20.905,0.26v0.386C10.264,1.205,4.068,6.735,4.348,13.911
		c2.065-3.85,5.531-5.915,10.711-5.915c6.545,0,10.851,3.396,10.851,9.451c0,5.915-5.216,9.766-12.146,9.766
		C5.188,27.213,0.393,22.383,0.393,14.717z M27.976,14.717c0-9.767,9.276-14.247,20.512-14.457v0.386
		c-10.641,0.56-16.836,6.09-16.592,13.266c2.101-3.85,5.566-5.915,10.712-5.915c6.58,0,10.886,3.396,10.886,9.451
		c0,5.915-5.216,9.766-12.146,9.766C32.736,27.213,27.976,22.383,27.976,14.717z"/>
</g>
</svg>
