<?xml version="1.0" encoding="utf-8"?>
<!-- Generator: Adobe Illustrator 15.0.2, SVG Export Plug-In . SVG Version: 6.00 Build 0)  -->
<!DOCTYPE svg PUBLIC "-//W3C//DTD SVG 1.1//EN" "http://www.w3.org/Graphics/SVG/1.1/DTD/svg11.dtd">
<svg version="1.1" id="Layer_1" xmlns="http://www.w3.org/2000/svg" xmlns:xlink="http://www.w3.org/1999/xlink" x="0px" y="0px"
	 width="54px" height="28px" viewBox="0 0 54 28" enable-background="new 0 0 54 28" xml:space="preserve">
<g>
	<path fill="#F52C16" d="M53.493,12.756c0,9.767-9.311,14.247-20.512,14.457v-0.386c10.641-0.56,16.837-6.09,16.557-13.266
		c-2.065,3.85-5.531,5.915-10.711,5.915c-6.545,0-10.851-3.396-10.851-9.451c0-5.915,5.216-9.766,12.146-9.766
		C48.698,0.26,53.493,5.09,53.493,12.756z M25.91,12.756c0,9.767-9.276,14.247-20.512,14.457v-0.386
		c10.641-0.56,16.836-6.09,16.592-13.266c-2.101,3.85-5.566,5.915-10.712,5.915c-6.58,0-10.886-3.396-10.886-9.451
		c0-5.915,5.216-9.766,12.146-9.766C21.149,0.26,25.91,5.09,25.91,12.756z"/>
</g>
</svg>
