<?xml version="1.0" encoding="utf-8"?>
<!-- Generator: Adobe Illustrator 15.0.2, SVG Export Plug-In . SVG Version: 6.00 Build 0)  -->
<!DOCTYPE svg PUBLIC "-//W3C//DTD SVG 1.1//EN" "http://www.w3.org/Graphics/SVG/1.1/DTD/svg11.dtd">
<svg version="1.1" id="Layer_1" xmlns="http://www.w3.org/2000/svg" xmlns:xlink="http://www.w3.org/1999/xlink" x="0px" y="0px"
	 width="24px" height="12px" viewBox="0 0 24 12" enable-background="new 0 0 24 12" xml:space="preserve">
<g>
	<path fill="#A5A5A5" d="M0,6.589c0-4.23,4.033-6.17,8.884-6.262v0.168c-4.609,0.242-7.292,2.638-7.17,5.744
		c0.895-1.667,2.394-2.562,4.638-2.562c2.835,0,4.7,1.471,4.7,4.093c0,2.562-2.26,4.229-5.261,4.229C2.077,12,0,9.908,0,6.589z
		 M11.946,6.589c0-4.23,4.015-6.17,8.882-6.262v0.168c-4.607,0.242-7.291,2.638-7.186,5.744c0.91-1.667,2.41-2.562,4.639-2.562
		c2.85,0,4.715,1.471,4.715,4.093c0,2.562-2.258,4.229-5.26,4.229C14.006,12,11.946,9.908,11.946,6.589z"/>
</g>
</svg>
