<?xml version="1.0" encoding="utf-8"?>
<!-- Generator: Adobe Illustrator 16.0.0, SVG Export Plug-In . SVG Version: 6.00 Build 0)  -->
<!DOCTYPE svg PUBLIC "-//W3C//DTD SVG 1.1//EN" "http://www.w3.org/Graphics/SVG/1.1/DTD/svg11.dtd">
<svg version="1.1" id="Layer_1" xmlns="http://www.w3.org/2000/svg" xmlns:xlink="http://www.w3.org/1999/xlink" x="0px" y="0px"
	 width="29.5px" height="30.875px" viewBox="0 0 29.5 30.875" enable-background="new 0 0 29.5 30.875" xml:space="preserve">
<g>
	<path d="M16.188,15.698V9.327c0-0.625-0.506-1.131-1.131-1.131s-1.131,0.506-1.131,1.131v7.287l3.507,3.621
		c0.222,0.229,0.518,0.344,0.812,0.344c0.283,0,0.566-0.105,0.787-0.318c0.448-0.436,0.459-1.15,0.025-1.6L16.188,15.698z"/>
	<path d="M15.058,3.028c-7.25,0-13.128,5.877-13.128,13.128c0,7.25,5.878,13.128,13.128,13.128c7.251,0,13.128-5.878,13.128-13.128
		C28.186,8.906,22.309,3.028,15.058,3.028z M15.058,25.299c-5.042,0-9.143-4.102-9.143-9.143c0-5.042,4.102-9.144,9.143-9.144
		c5.042,0,9.144,4.102,9.144,9.144C24.201,21.197,20.1,25.299,15.058,25.299z"/>
</g>
</svg>
