<?xml version="1.0" encoding="utf-8"?>
<!-- Generator: Adobe Illustrator 16.0.0, SVG Export Plug-In . SVG Version: 6.00 Build 0)  -->
<!DOCTYPE svg PUBLIC "-//W3C//DTD SVG 1.1//EN" "http://www.w3.org/Graphics/SVG/1.1/DTD/svg11.dtd">
<svg version="1.1" id="Layer_1" xmlns="http://www.w3.org/2000/svg" xmlns:xlink="http://www.w3.org/1999/xlink" x="0px" y="0px"
	 width="17px" height="17px" viewBox="0 0 17 17" enable-background="new 0 0 17 17" xml:space="preserve">
<g>
	<path fill="#545454" d="M9.23,8.2V4.08c0-0.41-0.33-0.73-0.73-0.73S7.77,3.67,7.77,4.08V8.8l2.27,2.34
		c0.14,0.15,0.33,0.22,0.52,0.22s0.37-0.07,0.51-0.2c0.29-0.28,0.3-0.75,0.02-1.04L9.23,8.2z"/>
	<path fill-rule="evenodd" clip-rule="evenodd" fill="#545454" d="M8.5,14.42c-3.26,0-5.92-2.66-5.92-5.92S5.24,2.58,8.5,2.58
		s5.92,2.66,5.92,5.92S11.76,14.42,8.5,14.42z M8.5,0C3.81,0,0,3.81,0,8.5S3.81,17,8.5,17S17,13.19,17,8.5S13.19,0,8.5,0z"/>
</g>
</svg>
