<svg xmlns="http://www.w3.org/2000/svg" width="15" height="15"><g fill="#929497"><rect x="-22" width="3.693" height="3.692"/><rect x="-16.346" width="3.693" height="3.692"/><rect x="-22" y="5.739" width="3.693" height="3.692"/><rect x="-16.346" y="5.739" width="3.693" height="3.692"/><rect x="-10.692" width="3.692" height="3.692"/><rect x="-10.692" y="5.739" width="3.692" height="3.692"/><rect x="-22" y="11.193" width="3.693" height="3.692"/><rect x="-16.346" y="11.193" width="3.693" height="3.692"/><rect x="-10.692" y="11.193" width="3.692" height="3.692"/></g><rect x="23.707" y="-.76" fill="#929497" width="13.128" height="13.129"/><text transform="translate(26.352 6.526)" fill="#fff" font-family="'DS4DisplaySansMedium'" font-size="2.304">#929497</text><text transform="translate(24.836 17.063)"><tspan x="0" y="0" fill="#404040" font-family="'DS3DisplaySans'" font-size="2.13">R</tspan><tspan x="6.911" y="0" fill="#737373" font-family="'DS3DisplaySans'" font-size="2.13">146</tspan><tspan x="0" y="2.75" fill="#404040" font-family="'DS3DisplaySans'" font-size="2.13">G</tspan><tspan x="6.911" y="2.75" fill="#737373" font-family="'DS3DisplaySans'" font-size="2.13">148</tspan><tspan x="0" y="5.502" fill="#404040" font-family="'DS3DisplaySans'" font-size="2.13">B</tspan><tspan x="6.91" y="5.502" fill="#737373" font-family="'DS3DisplaySans'" font-size="2.13">151</tspan></text><text transform="translate(23.888 -3.875)" fill="#737373" font-family="'DS3DisplaySans'" font-size="2.304">G_Neutral #4</text><g fill="#929699"><polygon points="8.752,8.752 14.876,0.875 14.001,0 6.125,6.129 0,14.006 0.875,14.881"/><polygon points="8.751,6.129 0.875,0.003 0,0.877 6.125,8.754 14.001,14.881 14.875,14.006"/></g></svg>