<svg width="18" height="18" viewBox="0 0 18 18" xmlns="http://www.w3.org/2000/svg"><title/><desc/><g fill="none"><path d="M9.001 30.313c-11.752 0-21.314-9.561-21.314-21.313 0-11.751 9.562-21.312 21.314-21.312 11.751 0 21.313 9.561 21.313 21.312 0 11.752-9.562 21.313-21.313 21.313m0-43.313c-12.151 0-22.001 9.849-22.001 22s9.85 22.001 22.001 22.001c12.15 0 21.999-9.85 21.999-22.001 0-12.151-9.849-22-21.999-22" fill="#707070"/><path d="M8.999 10.661l-7.199 6.538-1-.999 6.539-7.2-6.538-7.2.998-1 7.201 6.54 7.2-6.539.999.999-6.539 7.2 6.539 7.2-1 .999-7.2-6.538z" fill="#fff"/></g></svg>