<svg xmlns="http://www.w3.org/2000/svg" width="10" height="10"><g fill="#545454"><path d="M5.432 4.823v-2.436c0-.243-.195-.432-.432-.432s-.432.19-.432.432v2.79l1.342 1.383c.083.089.195.13.307.13s.219-.041.301-.118c.172-.165.179-.443.013-.614l-1.099-1.135z"/><path fill-rule="evenodd" clip-rule="evenodd" d="M5 8.5c-1.927 0-3.5-1.573-3.5-3.5s1.573-3.5 3.5-3.5 3.5 1.573 3.5 3.5-1.573 3.5-3.5 3.5zm0-8.525c-2.772 0-5.025 2.253-5.025 5.025s2.253 5.025 5.025 5.025 5.025-2.253 5.025-5.025-2.253-5.025-5.025-5.025z"/></g></svg>