<svg xmlns="http://www.w3.org/2000/svg" width="54" height="47" overflow="visible" enable-background="new -0.375 -0.5 54 47"><path fill="#237FB2" d="M52.768 43.732c0 1.252-1.015 2.268-2.268 2.268H2.268C1.015 46 0 44.984 0 43.732V2.268C0 1.015 1.015 0 2.268 0H50.5c1.252 0 2.268 1.015 2.268 2.268v41.464z"/><path fill="#fff" d="M28.07 29.403c0 .84-.68 1.522-1.52 1.522-.842 0-1.523-.682-1.523-1.522v-13.74c0-.842.682-1.523 1.522-1.523s1.52.682 1.52 1.522v13.74zm-8.392-5.347c-.84 0-1.522-.682-1.522-1.52 0-.843.682-1.524 1.522-1.524h13.74c.842 0 1.523.682 1.523 1.523 0 .84-.68 1.52-1.52 1.52H19.68z"/></svg>