<svg xmlns="http://www.w3.org/2000/svg" width="54" height="47" overflow="visible" enable-background="new -0.375 -0.5 54 47"><path fill="#237FB2" d="M52.768 43.732c0 1.252-1.015 2.268-2.268 2.268h-48.232c-1.253 0-2.268-1.016-2.268-2.268v-41.464c0-1.253 1.015-2.268 2.268-2.268h48.232c1.252 0 2.268 1.015 2.268 2.268v41.464z"/><path fill="#fff" d="M28.071 29.403c0 .841-.682 1.522-1.522 1.522-.841 0-1.522-.682-1.522-1.522v-13.741c0-.841.682-1.522 1.522-1.522.841 0 1.522.682 1.522 1.522v13.741zm-8.393-5.347c-.841 0-1.522-.682-1.522-1.521 0-.842.682-1.523 1.522-1.523h13.741c.841 0 1.522.682 1.522 1.523 0 .84-.682 1.521-1.522 1.521h-13.741z"/></svg>