<svg width="22" height="22" viewBox="0 0 22 22" xmlns="http://www.w3.org/2000/svg"><title/><desc/><g fill="none"><path d="M11.001 32.313c-11.752 0-21.314-9.561-21.314-21.313 0-11.751 9.562-21.312 21.314-21.312 11.751 0 21.313 9.561 21.313 21.312 0 11.752-9.562 21.313-21.313 21.313m0-43.313c-12.151 0-22.001 9.849-22.001 22s9.85 22.001 22.001 22.001c12.15 0 21.999-9.85 21.999-22.001 0-12.151-9.849-22-21.999-22" fill="#707070"/><path d="M3.4 20.2l5.6-5.7-1.5-1.5-5.7 5.6-.8-4.6h-1v7.52l.48.48h7.52v-1l-4.6-.8m15.274-18.27l-5.674 5.675 1.396 1.395 5.673-5.673.579 4.673h1.233v-7.401l-.48-.48h-7.401l.001 1.233 4.673.578" fill="#fb0"/></g></svg>