<svg xmlns="http://www.w3.org/2000/svg" width="18" height="18"><path d="M5.842 10.633l-3.43 3.431-.075-.162c-.568-1.202-1.135-2.651-1.135-2.651h-1.135v6.749h6.683v-1.122s-1.37-.567-2.572-1.135l-.16-.075 3.429-3.43-1.605-1.605zm1.538-4.945l-3.431-3.428.162-.076 2.407-1.135v-1.049h-6.518v6.433h1.135l1.135-2.407.075-.16 3.43 3.429 1.605-1.607zm4.913 4.945l3.428 3.431.076-.162c.567-1.202 1.135-2.651 1.135-2.651h1.068v6.749h-6.75v-1.122s1.503-.567 2.706-1.135l.16-.075-3.429-3.43 1.606-1.605zm-1.539-4.945l3.43-3.428-.161-.076c-1.203-.567-2.773-1.135-2.773-1.135v-1.049h6.75v6.75h-1.001s-.567-1.522-1.136-2.725l-.075-.16-3.429 3.429-1.605-1.606z" fill="#fff"/></svg>