<?xml version="1.0" encoding="utf-8"?>
<!-- Generator: Adobe Illustrator 15.0.2, SVG Export Plug-In . SVG Version: 6.00 Build 0)  -->
<!DOCTYPE svg PUBLIC "-//W3C//DTD SVG 1.1//EN" "http://www.w3.org/Graphics/SVG/1.1/DTD/svg11.dtd">
<svg version="1.1" id="Layer_1" xmlns="http://www.w3.org/2000/svg" xmlns:xlink="http://www.w3.org/1999/xlink" x="0px" y="0px"
	 width="12px" height="12px" viewBox="0 0 12 12" enable-background="new 0 0 12 12" xml:space="preserve">
<g>
	<path fill="#545454" d="M4.686,0L0,0.027l0.002,4.636L1.561,3.11L3.64,5.18l1.604-1.597L3.165,1.514L4.686,0z M3.64,6.809
		l-2.079,2.07L0.002,7.327L0,12l4.686-0.01l-1.521-1.514l2.079-2.069L3.64,6.809z M8.359,5.181l2.08-2.07l1.559,1.553L12,0.027
		L7.314,0l1.521,1.514L6.756,3.583L8.359,5.181z M10.439,8.879l-2.08-2.07L6.756,8.407l2.079,2.069L7.314,11.99L12,12l-0.002-4.673
		L10.439,8.879z"/>
</g>
</svg>
