<svg xmlns="http://www.w3.org/2000/svg" height="36" width="36"><path fill="#fff" d="M21.3 8.75c0-4.92-1.48-5.68-3.28-5.68-1.76 0-3.24.66-3.24 5.68s1.48 5.46 3.24 5.46c1.78 0 3.28-.52 3.28-5.46m-6.5 18.8c-2.26 0-2.92 1.66-2.92 2.9 0 1.78 1.6 3.42 6.28 3.42 5.32 0 6.76-1.5 6.76-3.44 0-1.7-1.28-2.88-3.42-2.88h-6.82zm-4.3-25.2c-6.2 2.86-10.5 9.11-10.5 16.4 0 4.92 1.98 9.38 5.18 12.6v-.28c0-3.2 3.12-4.38 5.9-4.96-2.64-.58-3.92-2.46-3.92-4.4 0-2.6 2.9-4.84 4.32-5.8l-.18-.1c-2.46-1.36-4.1-3.78-4.1-7.02 0-2.8 1.22-5 3.3-6.46m25.5 16.5c0-7.42-4.48-13.8-10.9-16.5 2.14 1.4 3.44 3.54 3.54 6.28l.06.6c0 5.36-4.36 8.22-10.7 8.22-1.64 0-2.74-.08-4.06-.48-.62.44-1.1 1.14-1.1 1.8 0 .88.8 1.58 1.76 1.58h8.84c5.48 0 8.16 2.24 8.16 7.08 0 1.62-.32 3.06-.98 4.32 3.3-3.4 5.4-7.9 5.4-12.9"/></svg>