<svg xmlns="http://www.w3.org/2000/svg" width="24.4" height="20.5"><path fill="#fff" d="M6.5 19.5c-2.4 0-4.2-1.5-4.2-3.4 0-1.8 2.2-3.3 4.6-3.3.6 0 1.1.1 1.6.2 1.3.9 2.3 1.4 2.6 2.5.1.2.1.4.1.7-.1 1.9-1.3 3.3-4.7 3.3m.6-10.9c-1.6 0-3.2-1.8-3.5-4C3.4 2.5 4.5.9 6.1.9c1.7.1 3.2 1.8 3.5 3.9.3 2.2-.8 3.9-2.5 3.8m3.4 3.2c-.6-.4-1.7-1.4-1.7-2 0-.7.2-1 1.2-1.8 1.1-.8 1.8-1.9 1.8-3.3 0-1.6-.7-3.3-2.1-3.6h2L13.3 0H6.9C4.1 0 1.4 2.2 1.4 4.7c0 2.6 1.9 4.6 4.8 4.6h.6c-.2.3-.3.7-.3 1.1 0 .7.4 1.3.8 1.8H6.2c-3.5 0-6.2 2.3-6.2 4.6s3 3.7 6.5 3.7c4 0 6.3-2.3 6.3-4.6 0-1.8-.6-2.9-2.3-4.1"/><path fill="#fff" d="M24.4 4.1h-4.3V0h-.9v4.1h-4.1v1.1h4.1v4.1h.9V5.2h4.3V4.1z"/></svg>