<svg xmlns="http://www.w3.org/2000/svg" width="24.361" height="20.535"><path fill="#fff" d="M6.5 19.52c-2.44 0-4.2-1.54-4.2-3.4 0-1.82 2.18-3.33 4.62-3.3.57 0 1.1.1 1.58.24 1.33.93 2.28 1.45 2.55 2.5.05.2.08.43.08.65 0 1.87-1.2 3.32-4.63 3.32m.64-10.9c-1.64-.03-3.2-1.83-3.48-3.97-.28-2.16.82-3.81 2.44-3.76 1.65.05 3.2 1.78 3.5 3.93.28 2.15-.82 3.85-2.46 3.8m3.4 3.2c-.58-.42-1.68-1.4-1.68-2 0-.67.2-1 1.22-1.8 1.06-.83 1.8-1.94 1.8-3.3 0-1.6-.7-3.25-2.05-3.62h2.02l1.42-1.11h-6.37c-2.83 0-5.5 2.16-5.5 4.66 0 2.56 1.94 4.62 4.84 4.62h.6c-.24.32-.36.72-.36 1.15 0 .7.37 1.3.85 1.76l-1.1.02c-3.51.01-6.23 2.26-6.23 4.59 0 2.3 2.98 3.74 6.5 3.74 4.04 0 6.26-2.3 6.26-4.6 0-1.83-.54-2.93-2.22-4.12"/><path fill="#fff" d="M24.36 4.08h-4.26v-4.08h-.93v4.08h-4.07v1.1h4.07v4.08h.93v-4.06h4.26z"/></svg>