<svg xmlns="http://www.w3.org/2000/svg" width="24.361" height="20.535"><path fill="#676767" d="M6.498 19.52c-2.44 0-4.203-1.545-4.203-3.399 0-1.82 2.187-3.334 4.627-3.31.57.006 1.101.101 1.582.254 1.325.922 2.276 1.443 2.544 2.492.051.213.078.435.078.656 0 1.855-1.196 3.307-4.628 3.307m.642-10.886c-1.639-.049-3.196-1.833-3.478-3.984-.283-2.151.815-3.798 2.453-3.75 1.638.05 3.196 1.776 3.479 3.927.282 2.152-.816 3.857-2.454 3.807m3.397 3.186c-.575-.406-1.674-1.396-1.674-1.979 0-.682.195-1.017 1.221-1.819 1.052-.822 1.796-1.936 1.796-3.28 0-1.599-.713-3.261-2.05-3.631h2.017l1.423-1.111h-6.36c-2.851 0-5.534 2.16-5.534 4.663 0 2.556 1.943 4.62 4.845 4.62.2 0 .396-.004.589-.018-.188.361-.323.767-.323 1.188 0 .71.383 1.288.866 1.757l-1.103.011c-3.532 0-6.25 2.25-6.25 4.582 0 2.297 2.98 3.733 6.512 3.733 4.025 0 6.25-2.285 6.25-4.582-.001-1.843-.545-2.946-2.225-4.134"/><polygon fill="#676767" points="24.361,4.076 20.1,4.076 20.1,0 19.174,0 19.174,4.076 15.098,4.076 15.098,5.188 19.174,5.188 19.174,9.264 20.1,9.264 20.1,5.188 24.361,5.188"/></svg>