<svg xmlns="http://www.w3.org/2000/svg" width="24.361" height="20.535"><path fill="#fff" d="M6.498 19.52c-2.44 0-4.203-1.545-4.203-3.4 0-1.82 2.187-3.333 4.627-3.31.57.007 1.1.102 1.582.255 1.325.922 2.276 1.443 2.544 2.492.05.213.078.435.078.656 0 1.855-1.196 3.307-4.628 3.307M7.14 8.634C5.5 8.584 3.944 6.8 3.662 4.65 3.38 2.5 4.477.852 6.115.9c1.638.05 3.196 1.776 3.48 3.927.28 2.152-.817 3.857-2.455 3.807m3.397 3.186c-.575-.406-1.674-1.396-1.674-1.98 0-.68.195-1.016 1.22-1.818 1.053-.822 1.797-1.936 1.797-3.28 0-1.6-.713-3.26-2.05-3.63h2.017L13.27 0H6.91C4.06 0 1.376 2.16 1.376 4.663c0 2.556 1.943 4.62 4.845 4.62.2 0 .4-.004.59-.018-.185.36-.32.767-.32 1.188 0 .71.383 1.288.866 1.757l-1.103.01C2.72 12.22 0 14.47 0 16.804c0 2.297 2.98 3.733 6.512 3.733 4.025 0 6.25-2.285 6.25-4.582 0-1.843-.545-2.946-2.225-4.134"/><path fill="#fff" d="M24.36 4.076H20.1V0h-.926v4.076h-4.076v1.112h4.076v4.076h.926V5.188h4.26z"/></svg>