<svg xmlns="http://www.w3.org/2000/svg" width="160" height="30"><path fill="#9bd5e0" d="M2.3 11.2H0V9.1l2.3-.3V6.1l5-.7v3.3h3.3v2.4H7.3v7.5c0 1.4.4 2.1 1.8 2.1.5 0 1.2-.1 1.6-.1v1.8c-.8.5-2.5.8-4.1.8-3 0-4.4-1.3-4.4-4.3l.1-7.7zM11 21.8l1.6-.7V5.3l-1.7-.7V3.3l6.2-.9h.4v8h.2c1.3-1.2 3.2-1.9 5.2-1.9 2.5 0 3.7 1.2 3.7 3.8v8.8l1.6.7v1.3H20v-1.3l1.6-.7v-7.8c0-1.5-.6-2-2-2-.8 0-1.4.2-2 .4v9.4l1.6.7v1.3H11v-1.3zm22.9-5.4c.2 2.8 1.6 4.1 4.4 4.1 1.9 0 3-.2 4-.5v1.4c-.7.9-2.9 2.1-5.7 2.1-5.1 0-7.8-2.7-7.8-7.6 0-4.7 2.9-7.4 7.4-7.4s6.7 1.9 6.7 7.9h-9zm-.1-1.8l4.1-.2c0-3.8-.7-4.4-1.9-4.4-1.3 0-2.1.8-2.2 4.6z"/><path fill="#fff" d="M58.4 24c0 3.4-2.5 5.5-8.4 5.5-4.7 0-7.6-1.4-7.6-3.3s1.9-2.4 3.6-2.7v-.2c-1.6-.3-2.4-1.4-2.4-2.6 0-1.5 1.7-2.7 2.5-3.3v-.2c-1.5-.8-2.5-2.2-2.5-4.1 0-3.1 2.7-4.9 6.5-4.9 1.2 0 2.5.4 3.5.7h.2l3.8-.7h.3V11h-.3l-2.5-.8v.1c.9.8 1.6 1.6 1.6 3 0 3.1-2.6 4.8-6.5 4.8-1 0-1.7-.1-2.5-.3-.4.3-.7.7-.7 1 0 .5.5.9 1.1.9h5.3c3.3.2 5 1.5 5 4.3zm-4.3 1.4c0-.7-.6-1.1-1.8-1.1H47c-.4.4-.6.9-.6 1.6 0 1 .9 1.9 3.7 1.9 3.1 0 4-1 4-2.4zm-5.7-12.1c0 2.9.7 3.2 1.8 3.2s1.8-.3 1.8-3.2-.8-3.3-1.9-3.3c-1 0-1.7.4-1.7 3.3zm11.5-1.9l-1.7-.7V9.4l6.2-.9h.4v10.1c0 1.6.8 1.9 2.1 1.9.8 0 1.3-.1 1.8-.3v-8.7l-1.7-.7V9.4l6.2-.9h.4v12.2l1.7.8v1.2l-6.1.6H69v-1.9h-.2c-1 1.1-2.5 2-4.5 2-3 0-4.3-2.1-4.3-4.5l-.1-7.5zm19.4 1.8H77V9.5c1.4-.4 3.1-1.1 5.7-1.1 4 0 6.4 1.1 6.4 4.3V21l1.6.7v1.1c-.5.3-1.6.6-2.8.6-1.6 0-2.9-.5-3.2-2h-.1c-.7 1.3-2.4 2-4.3 2-2.6 0-4.3-1.6-4.3-4 0-2.9 2-3.5 5.3-4.1l2.9-.5V13c0-1.8-.6-2.7-2.5-2.7-.2 0-1 0-1.3.1l-1.1 2.8zm4.8 3.3l-1.1.1c-1.2.1-2.1.8-2.1 2.2 0 1.6.9 2.1 1.9 2.1.5 0 1.1-.3 1.4-.5l-.1-3.9zm12.8-8.1h.4v3h.2c.9-1.9 2.2-2.9 3.9-2.9.3 0 .6 0 .7.1v4.2c-.3-.1-.8-.1-1.3-.1-1.3 0-2.5.1-3.3.5V21l2.1.7V23H91v-1.3l1.6-.7v-9.7l-1.7-.7V9.3l6-.9zM112 5.6l-1.7-.7V3.6l6.2-.9h.4v18.1l1.6.8v1.2l-5.9.6h-.4v-1.5h-.2c-.6.8-1.9 1.6-3.8 1.6-2.7 0-6-1.7-6-7.1 0-5.8 3.3-7.8 7.3-7.8.8 0 1.8.2 2.4.6l.1-3.6zm0 5.3c-.4-.3-.8-.5-1.7-.5-1.6 0-2.8 1.4-2.8 5.4 0 3.5.9 5 2.9 5 .8 0 1.2-.1 1.5-.3.1.1.1-9.6.1-9.6zm13-2.5h.4V21l1.6.7V23h-8.2v-1.3l1.6-.7v-9.7l-1.7-.7V9.3l6.3-.9zm.5-3.4c0 1.4-1.2 2.5-2.6 2.5-1.5 0-2.6-1.1-2.6-2.5s1.2-2.5 2.6-2.5c1.4 0 2.6 1.1 2.6 2.5zm5.4 8.2h-2.3V9.5c1.4-.4 3.1-1.1 5.7-1.1 4 0 6.4 1.1 6.4 4.3V21l1.6.7v1.1c-.5.3-1.6.6-2.8.6-1.6 0-2.9-.5-3.2-2h-.1c-.7 1.3-2.4 2-4.3 2-2.6 0-4.3-1.6-4.3-4 0-2.9 2-3.5 5.3-4.1l2.9-.5V13c0-1.8-.6-2.7-2.5-2.7-.2 0-1 0-1.3.1l-1.1 2.8zm4.8 3.3l-1.1.1c-1.1.1-2.1.8-2.1 2.2 0 1.6.9 2.1 1.9 2.1.5 0 1.1-.3 1.4-.5l-.1-3.9zm6.9 5.3l1.6-.7v-9.7l-1.7-.7V9.4l6.2-.9h.4v1.9h.2c1.3-1.2 3.2-1.9 5.2-1.9 2.5 0 3.7 1.2 3.7 3.8v8.8l1.6.7v1.3h-8.2v-1.3l1.6-.7v-7.8c0-1.5-.6-2-2-2-.7 0-1.4.2-2 .4v9.4l1.6.7v1.3h-8.2v-1.3z"/></svg>