<svg xmlns="http://www.w3.org/2000/svg" height="61" width="340"><path d="M4.894 19.934h-4.894v-4.8l4.894-.682v-5.998l10.582-1.484v7.483h6.938v5.484h-6.942v16.851c0 3.14.857 4.739 3.925 4.739 1.138 0 2.616-.114 3.412-.225v4.111c-1.763 1.028-5.346 1.888-8.645 1.888-6.316 0-9.274-2.802-9.274-9.596v-17.771zm18.478 23.592l3.473-1.602v-35.354l-3.64-1.656v-2.798l13.201-2.116h.853v17.821h.341c2.844-2.626 6.712-4.168 11.036-4.168 5.289 0 7.965 2.626 7.965 8.511v19.76l3.473 1.602v2.912h-17.409v-2.912l3.356-1.602v-17.365c0-3.312-1.365-4.511-4.266-4.511-1.596 0-3.017.342-4.326.856v21.019l3.356 1.602v2.912h-17.409v-2.912zm48.744-12.111c.512 6.227 3.473 9.193 9.274 9.193 4.041 0 6.316-.4 8.534-1.084v3.086c-1.479 2.053-6.256 4.686-12.118 4.686-10.923 0-16.554-6.056-16.554-16.907 0-10.567 6.199-16.679 15.7-16.679 9.557 0 14.164 4.286 14.164 17.707h-19.003zm-.113-3.826l8.819-.514c0-8.511-1.422-9.881-4.038-9.881-2.9 0-4.667 1.884-4.78 10.395z" fill="#94b1ca"/><path d="M124.162 48.607c0 7.597-5.403 12.393-17.861 12.393-10.013 0-16.156-3.144-16.156-7.426 0-4.168 4.038-5.367 7.621-6.113v-.342c-3.412-.739-5.065-3.198-5.065-5.713 0-3.369 3.526-6.053 5.346-7.312v-.339c-3.185-1.774-5.289-4.914-5.289-9.139 0-6.912 5.687-11.027 13.88-11.027 2.562 0 5.349.802 7.34 1.542h.454l8.136-1.598h.626v6.344h-.739l-5.293-1.888v.228c1.994 1.827 3.301 3.597 3.301 6.737 0 6.969-5.634 10.681-13.827 10.681-2.105 0-3.526-.114-5.233-.625-.797.57-1.422 1.484-1.422 2.338 0 1.142 1.023 2.056 2.278 2.056h11.378c7.053.007 10.522 2.921 10.522 9.202zm-9.16 2.969c0-1.653-1.195-2.452-3.814-2.452h-11.148c-.857.97-1.251 2.053-1.251 3.597 0 2.227 1.99 4.286 7.795 4.286 6.597-.004 8.417-2.116 8.417-5.43zm-12.118-26.957c0 6.512 1.479 7.081 3.754 7.081 2.278 0 3.814-.686 3.814-7.081 0-6.395-1.482-7.369-3.814-7.369-2.275-.004-3.754.856-3.754 7.369zm24.623-4.225l-3.58-1.659v-2.916l13.254-2.112h.91v22.56c0 3.654 1.763 4.286 4.436 4.286 1.763 0 2.73-.286 3.81-.742v-19.416l-3.526-1.659v-2.916l13.254-2.112h.853v27.36l3.586 1.884v2.741l-12.913 1.428h-.857v-4.225h-.398c-2.048 2.512-5.406 4.4-9.672 4.4-6.429 0-9.16-4.628-9.16-10.167v-16.734zm41.233 4.054h-4.948v-8.34c3.015-.974 6.601-2.455 12.178-2.455 8.531 0 13.653 2.512 13.653 9.71v18.564l3.356 1.602v2.398c-1.023.57-3.416 1.314-5.975 1.314-3.301 0-6.256-1.084-6.772-4.511h-.288c-1.419 2.851-5.176 4.568-9.156 4.568-5.63 0-9.156-3.654-9.156-8.968 0-6.567 4.209-7.883 11.261-9.082l6.088-1.028v-4.282c0-4.054-1.195-6.113-5.293-6.113-.512 0-2.045.058-2.73.114l-2.218 6.509zm10.241 7.195l-2.446.225c-2.446.228-4.436 1.888-4.436 4.914 0 3.54 1.933 4.686 3.985 4.686 1.134 0 2.332-.57 2.9-1.199v-8.625zm27.242-18.107h.91v6.741h.341c1.877-4.228 4.72-6.512 8.193-6.512.569 0 1.251.058 1.592.172v9.311c-.626-.172-1.766-.286-2.676-.286-2.844 0-5.233.286-7.053 1.142v17.764l4.383 1.598v2.972h-18.319v-2.972l3.356-1.598v-21.647l-3.529-1.653v-2.918l12.803-2.112zm31.964-6.281l-3.526-1.598v-2.916l13.254-2.112h.857v40.439l3.356 1.884v2.741l-12.572 1.428h-.91v-3.312h-.345c-1.308 1.713-4.038 3.486-8.02 3.486-5.804 0-12.743-3.714-12.743-15.995 0-12.907 7.109-17.532 15.53-17.532 1.766 0 3.81.4 5.118 1.314v-7.826zm0 12.051c-.797-.628-1.706-1.142-3.584-1.142-3.356 0-5.858 3.03-5.858 12.054 0 7.879 1.99 11.306 6.199 11.306 1.596 0 2.506-.286 3.241-.57v-21.648zm27.694-5.77h.853v28.33l3.416 1.598v2.972h-17.409v-2.972l3.412-1.598v-21.647l-3.584-1.653v-2.918l13.312-2.112zm1.027-7.481c0 3.083-2.562 5.599-5.634 5.599-3.128 0-5.63-2.516-5.63-5.599 0-3.14 2.502-5.656 5.63-5.656 3.071 0 5.634 2.516 5.634 5.656zm11.542 18.392h-4.948v-8.34c3.015-.974 6.601-2.455 12.178-2.455 8.531 0 13.653 2.512 13.653 9.71v18.564l3.356 1.602v2.398c-1.023.57-3.416 1.314-5.975 1.314-3.301 0-6.256-1.084-6.772-4.511h-.288c-1.422 2.851-5.176 4.568-9.156 4.568-5.63 0-9.156-3.654-9.156-8.968 0-6.567 4.209-7.883 11.261-9.082l6.088-1.028v-4.283c0-4.054-1.195-6.113-5.293-6.113-.512 0-2.045.058-2.73.114l-2.218 6.509zm10.241 7.195l-2.446.225c-2.446.228-4.436 1.888-4.436 4.914 0 3.54 1.933 4.686 3.985 4.686 1.134 0 2.331-.57 2.9-1.199v-8.625zm14.61 11.883l3.473-1.602v-21.704l-3.64-1.653v-2.802l13.198-2.112h.857v4.168h.338c2.844-2.626 6.714-4.168 11.036-4.168 5.293 0 7.965 2.626 7.965 8.511v19.76l3.473 1.602v2.912h-17.409v-2.912l3.356-1.602v-17.365c0-3.312-1.368-4.511-4.268-4.511-1.592 0-3.015.342-4.323.856v21.019l3.356 1.602v2.912h-17.409v-2.912z" fill="#214583"/></svg>