<svg xmlns="http://www.w3.org/2000/svg" height="30" width="160"><path d="M2.301 11.23h-2.301v-2.143l2.301-.305v-2.679l4.975-.663v3.342h3.262v2.449h-3.263v7.525c0 1.402.403 2.116 1.845 2.116.535 0 1.23-.051 1.604-.101v1.836c-.829.459-2.513.843-4.064.843-2.969 0-4.36-1.251-4.36-4.285v-7.936zm8.687 10.535l1.632-.715v-15.788l-1.711-.739v-1.249l6.206-.945h.401v7.958h.16c1.337-1.173 3.155-1.861 5.189-1.861 2.487 0 3.745 1.173 3.745 3.801v8.824l1.632.715v1.3h-8.185v-1.3l1.577-.715v-7.754c0-1.479-.642-2.014-2.005-2.014-.75 0-1.419.153-2.034.382v9.386l1.577.715v1.3h-8.185v-1.3zm22.915-5.409c.241 2.781 1.632 4.105 4.36 4.105 1.9 0 2.969-.178 4.012-.484v1.378c-.695.917-2.941 2.092-5.697 2.092-5.135 0-7.782-2.704-7.782-7.55 0-4.719 2.914-7.448 7.381-7.448 4.493 0 6.659 1.914 6.659 7.907h-8.933zm-.053-1.708l4.146-.229c0-3.801-.668-4.413-1.898-4.413-1.364 0-2.194.841-2.247 4.642z" fill="#94b1ca"/><path d="M58.37 24.034c0 3.393-2.54 5.535-8.397 5.535-4.707 0-7.595-1.404-7.595-3.316 0-1.861 1.898-2.397 3.583-2.73v-.153c-1.604-.33-2.381-1.428-2.381-2.551 0-1.504 1.658-2.703 2.513-3.265v-.152c-1.497-.792-2.487-2.194-2.487-4.081 0-3.087 2.674-4.924 6.525-4.924 1.205 0 2.515.358 3.451.688h.214l3.825-.714h.294v2.833h-.348l-2.488-.843v.102c.937.816 1.552 1.606 1.552 3.009 0 3.112-2.648 4.77-6.5 4.77-.989 0-1.658-.051-2.46-.279-.374.255-.668.663-.668 1.044 0 .51.481.918 1.071.918h5.349c3.315.003 4.946 1.305 4.946 4.11zm-4.306 1.326c0-.738-.561-1.095-1.793-1.095h-5.241c-.403.433-.588.917-.588 1.606 0 .994.936 1.914 3.664 1.914 3.102-.001 3.957-.945 3.957-2.425zm-5.697-12.038c0 2.908.695 3.162 1.765 3.162 1.071 0 1.793-.306 1.793-3.162s-.697-3.291-1.793-3.291c-1.069-.002-1.765.382-1.765 3.291zm11.576-1.887l-1.683-.741v-1.302l6.231-.943h.428v10.075c0 1.632.829 1.914 2.086 1.914.829 0 1.283-.127 1.791-.331v-8.671l-1.658-.741v-1.302l6.231-.943h.401v12.218l1.686.841v1.224l-6.071.637h-.403v-1.887h-.187c-.963 1.122-2.542 1.965-4.547 1.965-3.023 0-4.306-2.067-4.306-4.54v-7.473zm19.385 1.81h-2.326v-3.724c1.417-.435 3.103-1.096 5.725-1.096 4.011 0 6.418 1.122 6.418 4.336v8.29l1.577.715v1.071c-.481.255-1.606.586-2.809.586-1.552 0-2.941-.484-3.183-2.014h-.135c-.667 1.274-2.433 2.04-4.305 2.04-2.647 0-4.305-1.632-4.305-4.005 0-2.932 1.979-3.52 5.294-4.056l2.862-.459v-1.912c0-1.81-.561-2.73-2.488-2.73-.241 0-.961.025-1.283.051l-1.043 2.907zm4.814 3.213l-1.15.101c-1.15.102-2.086.843-2.086 2.194 0 1.581.909 2.092 1.873 2.092.533 0 1.096-.255 1.364-.535v-3.852zm12.807-8.086h.428v3.01h.16c.882-1.888 2.219-2.908 3.852-2.908.267 0 .588.025.749.076v4.158c-.294-.076-.83-.127-1.258-.127-1.337 0-2.46.127-3.315.51v7.933l2.06.714v1.327h-8.612v-1.327l1.577-.714v-9.667l-1.659-.738v-1.303l6.019-.943zm15.026-2.805l-1.658-.714v-1.302l6.231-.943h.403v18.059l1.578.841v1.224l-5.91.637h-.428v-1.479h-.162c-.615.765-1.898 1.557-3.77 1.557-2.729 0-5.991-1.659-5.991-7.142 0-5.764 3.342-7.83 7.301-7.83.83 0 1.791.178 2.406.586v-3.495zm0 5.382c-.374-.28-.802-.51-1.684-.51-1.577 0-2.754 1.353-2.754 5.383 0 3.519.936 5.049 2.914 5.049.75 0 1.178-.127 1.524-.255v-9.667zm13.02-2.577h.401v12.652l1.606.714v1.327h-8.185v-1.327l1.604-.714v-9.667l-1.684-.738v-1.303l6.258-.943zm.483-3.34c0 1.377-1.205 2.5-2.648 2.5-1.471 0-2.647-1.123-2.647-2.5 0-1.402 1.176-2.526 2.647-2.526 1.444 0 2.648 1.123 2.648 2.526zm5.426 8.213h-2.326v-3.724c1.417-.435 3.103-1.096 5.725-1.096 4.011 0 6.418 1.122 6.418 4.336v8.29l1.577.715v1.071c-.481.255-1.606.586-2.809.586-1.552 0-2.941-.484-3.183-2.014h-.135c-.668 1.274-2.433 2.04-4.305 2.04-2.647 0-4.305-1.632-4.305-4.005 0-2.932 1.979-3.52 5.294-4.056l2.862-.459v-1.912c0-1.81-.561-2.73-2.488-2.73-.241 0-.961.025-1.283.051l-1.043 2.907zm4.814 3.213l-1.15.101c-1.15.102-2.086.843-2.086 2.194 0 1.581.909 2.092 1.873 2.092.533 0 1.096-.255 1.364-.535v-3.852zm6.869 5.307l1.632-.715v-9.692l-1.711-.738v-1.251l6.205-.943h.403v1.861h.159c1.337-1.173 3.156-1.861 5.189-1.861 2.488 0 3.745 1.173 3.745 3.801v8.824l1.632.715v1.3h-8.185v-1.3l1.577-.715v-7.754c0-1.479-.643-2.014-2.007-2.014-.749 0-1.417.153-2.032.382v9.386l1.578.715v1.3h-8.185v-1.3z" fill="#214583"/></svg>