<svg xmlns="http://www.w3.org/2000/svg" height="20.125" width="107.67"><path d="M1.55 6.748H0V5.235l1.55-.215V3.13l3.348-.47v2.36h2.196v1.73H4.897v5.31c0 .99.27 1.495 1.242 1.495.36 0 .82-.036 1.08-.07v1.295c-.56.324-1.7.595-2.74.595-2 0-2.94-.883-2.94-3.025V6.748zm5.847 7.437l1.1-.505V2.535l-1.153-.522V1.13l4.178-.666h.27v5.618h.108c.9-.828 2.124-1.314 3.493-1.314 1.674 0 2.52.828 2.52 2.683v6.23l1.1.51v.92h-5.51v-.92l1.062-.503v-5.48c0-1.043-.432-1.42-1.35-1.42-.505 0-.955.107-1.37.27v6.625l1.063.51v.92h-5.51v-.92zm15.427-3.818c.162 1.963 1.1 2.898 2.935 2.898 1.27 0 1.99-.126 2.7-.342v.973c-.47.647-1.98 1.477-3.84 1.477-3.46 0-5.24-1.91-5.24-5.33 0-3.33 1.96-5.258 4.97-5.258 3.022 0 4.48 1.35 4.48 5.582h-6.01zm-.036-1.206l2.79-.16c0-2.68-.45-3.11-1.277-3.11-.91 0-1.47.596-1.51 3.28z" fill="#94B1CA"/><path d="M39.296 15.787c0 2.395-1.71 3.907-5.653 3.907-3.17 0-5.113-.99-5.113-2.34 0-1.315 1.278-1.693 2.412-1.928v-.108c-1.08-.233-1.603-1.008-1.603-1.8 0-1.063 1.11-1.91 1.69-2.306v-.107c-1.01-.56-1.68-1.55-1.68-2.88 0-2.18 1.8-3.477 4.392-3.477.81 0 1.692.253 2.322.486h.143l2.575-.504h.2v2h-.236l-1.676-.595v.072c.63.576 1.046 1.134 1.046 2.124 0 2.2-1.784 3.37-4.377 3.37-.67 0-1.12-.03-1.66-.19-.252.18-.45.47-.45.737 0 .36.324.65.72.65h3.6c2.234 0 3.33.92 3.33 2.9zm-2.9.936c0-.52-.377-.773-1.206-.773h-3.528c-.27.306-.396.647-.396 1.134 0 .702.63 1.35 2.467 1.35 2.088 0 2.664-.666 2.664-1.71zm-3.834-8.498c0 2.053.468 2.232 1.188 2.232s1.207-.216 1.207-2.232-.47-2.323-1.207-2.323c-.72 0-1.188.27-1.188 2.323zm7.793-1.332l-1.133-.523v-.92l4.195-.665h.288v7.112c0 1.152.558 1.35 1.404 1.35.55 0 .86-.09 1.2-.233v-6.12L45.2 6.37v-.92l4.194-.665h.27v8.625l1.135.594v.864l-4.09.45h-.27v-1.332h-.13c-.65.792-1.71 1.387-3.06 1.387-2.04 0-2.9-1.46-2.9-3.205V6.893zm13.05 1.278H51.84V5.55c.953-.307 2.088-.774 3.853-.774 2.7 0 4.32.79 4.32 3.06v5.853l1.063.504v.756c-.324.18-1.08.414-1.89.414-1.046 0-1.98-.343-2.144-1.423h-.09c-.45.9-1.64 1.44-2.9 1.44-1.78 0-2.897-1.15-2.897-2.826 0-2.07 1.332-2.487 3.564-2.865l1.92-.325V8.01c0-1.278-.38-1.927-1.677-1.927-.16 0-.647.018-.864.036l-.7 2.05zm3.24 2.27l-.773.07c-.774.08-1.404.6-1.404 1.55 0 1.12.612 1.48 1.26 1.48.36 0 .74-.18.92-.38v-2.72zm8.623-5.71h.288v2.13h.108c.594-1.33 1.494-2.05 2.593-2.05.18 0 .396.02.504.056V7.8c-.19-.055-.55-.09-.84-.09-.9 0-1.654.09-2.23.36v5.6l1.387.503v.937h-5.8v-.938l1.064-.505v-6.83l-1.117-.52v-.92l4.05-.666zm10.116-1.98l-1.116-.5v-.92l4.195-.66h.27v12.74l1.063.595v.864l-3.98.45h-.287v-1.045h-.11c-.42.54-1.28 1.1-2.54 1.1-1.84 0-4.04-1.172-4.04-5.043 0-4.06 2.25-5.52 4.915-5.52.56 0 1.206.127 1.62.415V2.75zm0 3.8c-.252-.19-.54-.36-1.134-.36-1.062 0-1.854.96-1.854 3.8 0 2.49.63 3.57 1.962 3.57.505 0 .793-.09 1.026-.18V6.55zm8.765-1.82h.27v8.94l1.08.504v.937h-5.51v-.937l1.08-.506v-6.83l-1.14-.52v-.92l4.21-.666zm.32-2.35c0 .97-.81 1.766-1.787 1.766-.99 0-1.78-.793-1.78-1.765 0-.99.79-1.783 1.78-1.783.972 0 1.783.795 1.783 1.785zm3.65 5.8h-1.56V5.55c.953-.307 2.09-.774 3.853-.774 2.7 0 4.32.79 4.32 3.06v5.853l1.063.505v.756c-.324.18-1.08.414-1.89.414-1.046 0-1.98-.343-2.144-1.423h-.09c-.45.9-1.64 1.44-2.9 1.44-1.78 0-2.897-1.152-2.897-2.827 0-2.07 1.332-2.487 3.564-2.865l1.93-.324V8.01c0-1.278-.38-1.927-1.67-1.927-.164 0-.65.018-.866.036l-.702 2.05zm3.24 2.27l-.774.07c-.774.07-1.404.594-1.404 1.55 0 1.114.61 1.475 1.26 1.475.36 0 .74-.18.92-.38v-2.72zm4.624 3.744l1.1-.505V6.84l-1.153-.52v-.884l4.177-.666h.27v1.313h.11c.9-.828 2.124-1.314 3.492-1.314 1.674 0 2.52.826 2.52 2.68v6.23l1.1.51v.92h-5.51v-.92l1.06-.504v-5.48c0-1.044-.433-1.422-1.35-1.422-.505 0-.955.108-1.37.27v6.626l1.063.51v.92h-5.51v-.92z" fill="#fff"/></svg>