<svg xmlns="http://www.w3.org/2000/svg" height="46.624" width="15"><path fill="#005689" d="M0 0v46.62l7.4-4.87 7.6 4.87v-46.62z"/><path d="M8.9 8.48h-2.74c-.3 0-.54-.22-.54-.5 0-.2.15-.4.34-.55.4.12.75.15 1.25.15 1.96 0 3.3-.88 3.3-2.54 0-.75-.3-1.17-.78-1.6v-.07l1.27.46h.18v-1.5h-.15l-1.95.37h-.1c-.48-.18-1.16-.37-1.78-.37-1.96 0-3.32.98-3.32 2.63 0 1 .5 1.75 1.27 2.17v.07c-.42.3-1.25.96-1.25 1.76 0 .6.38 1.2 1.2 1.36v.1c-.86.17-1.82.46-1.82 1.45 0 1.02 1.46 1.77 3.86 1.77 2.98 0 4.27-1.14 4.27-2.95 0-1.5-.82-2.2-2.5-2.2m-1.71-5.29c.56 0 .9.23.9 1.76s-.36 1.68-.9 1.68-.9-.13-.9-1.68c0-1.56.36-1.76.9-1.76m0 9.47c-1.4 0-1.88-.5-1.88-1.02 0-.37.1-.63.3-.86h2.68c.63 0 .92.18.92.57 0 .8-.44 1.3-2 1.3" fill="#fff"/><path d="M10.9 16.7v3.24c0 .63-.17 1.15-.54 1.54-.36.4-.87.6-1.52.6-.56 0-1.05-.2-1.47-.54-.42-.35-.63-.88-.63-1.6v-2.26h-3.04v-.97h7.2zm-1 3.8c.12-.22.17-.5.17-.9v-1.9h-2.5v1.93c0 .45.1.8.28 1.07.18.27.5.4.98.4.53 0 .9-.2 1.08-.57zm1 3.04v1h-7.2v-1h7.2zm-.5 7.66c-.48.5-1.03.8-1.64.84v-.94c.46-.12.83-.33 1.1-.65.28-.3.4-.76.4-1.33 0-.7-.24-1.25-.74-1.68-.52-.44-1.28-.64-2.32-.64-.84 0-1.53.2-2.05.57-.53.4-.8.97-.8 1.73 0 .7.28 1.25.84 1.62.28.2.66.34 1.14.44v.95c-.76-.07-1.4-.35-1.9-.82-.63-.57-.94-1.33-.94-2.3 0-.82.25-1.5.76-2.08.67-.74 1.7-1.1 3.1-1.1 1.08 0 1.95.27 2.63.83.73.6 1.1 1.43 1.1 2.48 0 .92-.24 1.62-.72 2.1zm.53 2.38v.95h-3.55l3.54 3.6v1.37l-2.92-3.08-4.3 3.15v-1.27l3.62-2.6-1.1-1.17h-2.54v-.95h7.2z" fill="#fff"/></svg>