<svg xmlns="http://www.w3.org/2000/svg" height="20.125" width="107.67"><path d="M1.549 6.748h-1.549v-1.513l1.549-.215v-1.891l3.349-.468v2.359h2.196v1.729h-2.197v5.312c0 .99.271 1.494 1.242 1.494.36 0 .828-.036 1.08-.071v1.296c-.558.324-1.692.595-2.736.595-1.999 0-2.935-.883-2.935-3.025v-5.602zm5.848 7.437l1.099-.505v-11.145l-1.152-.522v-.882l4.178-.667h.27v5.618h.108c.9-.828 2.124-1.314 3.493-1.314 1.674 0 2.521.828 2.521 2.683v6.229l1.099.505v.918h-5.51v-.918l1.062-.505v-5.474c0-1.044-.432-1.422-1.35-1.422-.505 0-.955.108-1.369.27v6.626l1.062.505v.918h-5.51v-.918zm15.427-3.818c.162 1.963 1.099 2.898 2.935 2.898 1.279 0 1.999-.126 2.701-.342v.973c-.468.647-1.98 1.477-3.835 1.477-3.457 0-5.239-1.909-5.239-5.33 0-3.331 1.962-5.258 4.969-5.258 3.025 0 4.483 1.351 4.483 5.582h-6.014zm-.036-1.206l2.791-.162c0-2.683-.45-3.115-1.278-3.115-.918 0-1.477.594-1.513 3.277z" fill="#94B1CA"/><path d="M39.296 15.787c0 2.395-1.71 3.907-5.653 3.907-3.169 0-5.113-.991-5.113-2.341 0-1.314 1.278-1.692 2.412-1.927v-.108c-1.08-.233-1.603-1.008-1.603-1.801 0-1.062 1.116-1.908 1.692-2.305v-.107c-1.008-.559-1.674-1.549-1.674-2.881 0-2.179 1.8-3.476 4.393-3.476.811 0 1.693.253 2.323.486h.144l2.575-.504h.198v2h-.234l-1.675-.595v.072c.631.576 1.045 1.134 1.045 2.124 0 2.197-1.783 3.367-4.376 3.367-.666 0-1.116-.036-1.656-.197-.252.18-.45.468-.45.737 0 .36.324.648.721.648h3.601c2.232.002 3.33.921 3.33 2.901zm-2.899.936c0-.521-.378-.773-1.207-.773h-3.528c-.271.306-.396.647-.396 1.134 0 .702.63 1.351 2.467 1.351 2.088-.001 2.664-.667 2.664-1.712zm-3.835-8.498c0 2.053.468 2.232 1.188 2.232.721 0 1.207-.216 1.207-2.232s-.469-2.323-1.207-2.323c-.72-.001-1.188.27-1.188 2.323zm7.793-1.332l-1.133-.523v-.919l4.195-.666h.288v7.112c0 1.152.558 1.351 1.404 1.351.558 0 .864-.09 1.206-.234v-6.121l-1.116-.523v-.919l4.195-.666h.27v8.625l1.135.594v.864l-4.087.45h-.271v-1.332h-.126c-.648.792-1.711 1.387-3.061 1.387-2.035 0-2.899-1.459-2.899-3.205v-5.275zm13.05 1.278h-1.566v-2.629c.954-.307 2.089-.774 3.854-.774 2.7 0 4.321.792 4.321 3.061v5.852l1.062.505v.756c-.324.18-1.081.414-1.891.414-1.045 0-1.98-.342-2.143-1.422h-.091c-.449.899-1.638 1.44-2.898 1.44-1.782 0-2.898-1.152-2.898-2.827 0-2.07 1.332-2.485 3.564-2.863l1.927-.324v-1.35c0-1.278-.378-1.927-1.675-1.927-.162 0-.647.018-.864.036l-.702 2.052zm3.241 2.268l-.774.071c-.774.072-1.404.595-1.404 1.549 0 1.116.612 1.477 1.261 1.477.359 0 .738-.18.918-.378v-2.719zm8.622-5.708h.288v2.125h.108c.594-1.333 1.494-2.053 2.593-2.053.18 0 .396.018.504.054v2.935c-.198-.054-.559-.09-.847-.09-.9 0-1.656.09-2.232.36v5.6l1.387.504v.937h-5.798v-.937l1.062-.504v-6.824l-1.117-.521v-.92l4.052-.666zm10.116-1.98l-1.116-.504v-.919l4.195-.666h.271v12.748l1.062.594v.864l-3.979.45h-.288v-1.044h-.109c-.414.54-1.278 1.099-2.538 1.099-1.837 0-4.033-1.171-4.033-5.042 0-4.069 2.25-5.527 4.915-5.527.559 0 1.206.126 1.62.414v-2.467zm0 3.799c-.252-.198-.54-.36-1.134-.36-1.062 0-1.854.955-1.854 3.8 0 2.484.63 3.564 1.962 3.564.505 0 .793-.09 1.026-.18v-6.824zm8.765-1.819h.27v8.931l1.081.504v.937h-5.51v-.937l1.08-.504v-6.824l-1.134-.521v-.92l4.213-.666zm.325-2.358c0 .972-.811 1.765-1.783 1.765-.99 0-1.782-.793-1.782-1.765 0-.99.792-1.783 1.782-1.783.972 0 1.783.793 1.783 1.783zm3.653 5.798h-1.566v-2.629c.954-.307 2.089-.774 3.854-.774 2.7 0 4.321.792 4.321 3.061v5.852l1.062.505v.756c-.324.18-1.081.414-1.891.414-1.045 0-1.98-.342-2.143-1.422h-.091c-.45.899-1.638 1.44-2.898 1.44-1.782 0-2.898-1.152-2.898-2.827 0-2.07 1.332-2.485 3.564-2.863l1.927-.324v-1.35c0-1.278-.378-1.927-1.675-1.927-.162 0-.647.018-.864.036l-.702 2.052zm3.241 2.268l-.774.071c-.774.072-1.404.595-1.404 1.549 0 1.116.612 1.477 1.261 1.477.359 0 .738-.18.918-.378v-2.719zm4.624 3.746l1.099-.505v-6.842l-1.152-.521v-.883l4.177-.666h.271v1.314h.107c.9-.828 2.125-1.314 3.493-1.314 1.675 0 2.521.828 2.521 2.683v6.229l1.099.505v.918h-5.51v-.918l1.062-.505v-5.474c0-1.044-.433-1.422-1.351-1.422-.504 0-.954.108-1.368.27v6.626l1.062.505v.918h-5.51v-.918z" fill="#fff"/></svg>