<svg xmlns="http://www.w3.org/2000/svg" width="234" height="20"><path d="M1.548 12.246c0 2.142.936 3.024 2.934 3.024 1.044 0 2.178-.27 2.736-.594v-1.296c-.252.036-.72.072-1.08.072-.972 0-1.242-.504-1.242-1.494v-5.31h2.196v-1.728h-2.196v-2.358l-3.348.468v1.89l-1.548.216v1.512h1.548v5.598zm6.05 2.754h5.508v-.918l-1.062-.504v-6.624c.414-.162.864-.27 1.368-.27.918 0 1.35.378 1.35 1.422v5.472l-1.062.504v.918h5.508v-.918l-1.098-.504v-6.228c0-1.854-.846-2.682-2.52-2.682-1.368 0-2.592.486-3.492 1.314h-.108v-5.616h-.27l-4.176.666v.882l1.152.522v11.142l-1.098.504v.918zm21.638-4.734c0-4.23-1.458-5.58-4.482-5.58-3.006 0-4.968 1.926-4.968 5.256 0 3.42 1.782 5.328 5.238 5.328 1.854 0 3.366-.828 3.834-1.476v-.972c-.702.216-1.422.342-2.7.342-1.836 0-2.772-.936-2.934-2.898h6.012zm-4.536-4.482c.828 0 1.278.432 1.278 3.114l-2.79.162c.036-2.682.594-3.276 1.512-3.276zm11.864 7.002h-3.6c-.396 0-.72-.288-.72-.648 0-.27.198-.558.45-.738.54.162.99.198 1.656.198 2.592 0 4.374-1.17 4.374-3.366 0-.99-.414-1.548-1.044-2.124v-.072l1.674.594h.234v-1.998h-.198l-2.574.504h-.144c-.63-.234-1.512-.486-2.322-.486-2.592 0-4.392 1.296-4.392 3.474 0 1.332.666 2.322 1.674 2.88v.108c-.576.396-1.692 1.242-1.692 2.304 0 .792.522 1.566 1.602 1.8v.108c-1.134.234-2.412.612-2.412 1.926 0 1.35 1.944 2.34 5.112 2.34 3.942 0 5.652-1.512 5.652-3.906 0-1.98-1.098-2.898-3.33-2.898zm-2.232 5.544c-1.836 0-2.466-.648-2.466-1.35 0-.486.126-.828.396-1.134h3.528c.828 0 1.206.252 1.206.774 0 1.044-.576 1.71-2.664 1.71zm.018-12.528c.738 0 1.206.306 1.206 2.322s-.486 2.232-1.206 2.232-1.188-.18-1.188-2.232.468-2.322 1.188-2.322zm6.806 6.264c0 1.746.864 3.204 2.898 3.204 1.35 0 2.412-.594 3.06-1.386h.126v1.332h.27l4.086-.45v-.864l-1.134-.594v-8.622h-.27l-4.194.666v.918l1.116.522v6.12c-.342.144-.648.234-1.206.234-.846 0-1.404-.198-1.404-1.35v-7.11h-.288l-4.194.666v.918l1.134.522v5.274zm13.952-6.048c.216-.018.702-.036.864-.036 1.296 0 1.674.648 1.674 1.926v1.35l-1.926.324c-2.232.378-3.564.792-3.564 2.862 0 1.674 1.116 2.826 2.898 2.826 1.26 0 2.448-.54 2.898-1.44h.09c.162 1.08 1.098 1.422 2.142 1.422.81 0 1.566-.234 1.89-.414v-.756l-1.062-.504v-5.85c0-2.268-1.62-3.06-4.32-3.06-1.764 0-2.898.468-3.852.774v2.628h1.566l.702-2.052zm2.538 7.038c-.18.198-.558.378-.918.378-.648 0-1.26-.36-1.26-1.476 0-.954.63-1.476 1.404-1.548l.774-.072v2.718zm4.772-7.758v.918l1.116.522v6.822l-1.062.504v.936h5.796v-.936l-1.386-.504v-5.598c.576-.27 1.332-.36 2.232-.36.288 0 .648.036.846.09v-2.934c-.108-.036-.324-.054-.504-.054-1.098 0-1.998.72-2.592 2.052h-.108v-2.124h-.288l-4.05.666zm14.366-.18c-.414-.288-1.062-.414-1.62-.414-2.664 0-4.914 1.458-4.914 5.526 0 3.87 2.196 5.04 4.032 5.04 1.26 0 2.124-.558 2.538-1.098h.108v1.044h.288l3.978-.45v-.864l-1.062-.594v-12.744h-.27l-4.194.666v.918l1.116.504v2.466zm0 8.154c-.234.09-.522.18-1.026.18-1.332 0-1.962-1.08-1.962-3.564 0-2.844.792-3.798 1.854-3.798.594 0 .882.162 1.134.36v6.822zm4.754-7.974v.918l1.134.522v6.822l-1.08.504v.936h5.508v-.936l-1.08-.504v-8.928h-.27l-4.212.666zm2.754-4.806c-.99 0-1.782.792-1.782 1.782 0 .972.792 1.764 1.782 1.764.972 0 1.782-.792 1.782-1.764 0-.99-.81-1.782-1.782-1.782zm6.338 5.526c.216-.018.702-.036.864-.036 1.296 0 1.674.648 1.674 1.926v1.35l-1.926.324c-2.232.378-3.564.792-3.564 2.862 0 1.674 1.116 2.826 2.898 2.826 1.26 0 2.448-.54 2.898-1.44h.09c.162 1.08 1.098 1.422 2.142 1.422.81 0 1.566-.234 1.89-.414v-.756l-1.062-.504v-5.85c0-2.268-1.62-3.06-4.32-3.06-1.764 0-2.898.468-3.852.774v2.628h1.566l.702-2.052zm2.538 7.038c-.18.198-.558.378-.918.378-.648 0-1.26-.36-1.26-1.476 0-.954.63-1.476 1.404-1.548l.774-.072v2.718zm4.826 1.944h5.508v-.918l-1.062-.504v-6.624c.414-.162.864-.27 1.368-.27.918 0 1.35.378 1.35 1.422v5.472l-1.062.504v.918h5.508v-.918l-1.098-.504v-6.228c0-1.854-.846-2.682-2.52-2.682-1.368 0-2.592.486-3.492 1.314h-.108v-1.314h-.27l-4.176.666v.882l1.152.522v6.84l-1.098.504v.918z" fill="#1A3370"/><path d="M110.11 15h5.328v-.918l-.882-.504v-6.624c.396-.18.756-.27 1.116-.27.918 0 1.242.378 1.242 1.422v5.472l-.882.504v.918h5.112v-.918l-.882-.504v-6.642c.378-.162.774-.252 1.116-.252.9 0 1.242.378 1.242 1.422v5.472l-.882.504v.918h5.31v-.918l-1.098-.504v-6.21c0-1.854-.882-2.7-2.556-2.7-1.368 0-2.358.486-3.258 1.314h-.09c-.36-.9-1.116-1.314-2.304-1.314-1.368 0-2.232.486-3.132 1.314h-.108v-1.314h-.27l-4.176.666v.882l1.152.522v6.84l-1.098.504v.918zm20.486-8.982c.216-.018.702-.036.864-.036 1.296 0 1.674.648 1.674 1.926v1.35l-1.926.324c-2.232.378-3.564.792-3.564 2.862 0 1.674 1.116 2.826 2.898 2.826 1.26 0 2.448-.54 2.898-1.44h.09c.162 1.08 1.098 1.422 2.142 1.422.81 0 1.566-.234 1.89-.414v-.756l-1.062-.504v-5.85c0-2.268-1.62-3.06-4.32-3.06-1.764 0-2.898.468-3.852.774v2.628h1.566l.702-2.052zm2.538 7.038c-.18.198-.558.378-.918.378-.648 0-1.26-.36-1.26-1.476 0-.954.63-1.476 1.404-1.548l.774-.072v2.718zm8.444 2.196c3.204 0 4.536-1.44 4.536-3.546 0-1.53-.738-2.826-2.682-3.24l-1.188-.252c-1.116-.234-1.386-.594-1.386-1.188 0-.612.54-.99 1.332-.99.54 0 1.242.126 1.476.252l.432 1.386h1.404v-2.484c-.792-.342-1.998-.522-3.186-.522-2.97 0-4.284 1.422-4.284 3.348 0 1.494.864 2.97 2.718 3.384l1.224.27c1.08.234 1.332.54 1.332 1.278 0 .792-.666 1.008-1.62 1.008-.576 0-1.386-.108-1.62-.324l-.576-1.674h-1.422v2.664c.972.414 2.43.63 3.51.63zm6.32-3.006c0 2.142.936 3.024 2.934 3.024 1.044 0 2.178-.27 2.736-.594v-1.296c-.252.036-.72.072-1.08.072-.972 0-1.242-.504-1.242-1.494v-5.31h2.196v-1.728h-2.196v-2.358l-3.348.468v1.89l-1.548.216v1.512h1.548v5.598zm15.59-1.98c0-4.23-1.458-5.58-4.482-5.58-3.006 0-4.968 1.926-4.968 5.256 0 3.42 1.782 5.328 5.238 5.328 1.854 0 3.366-.828 3.834-1.476v-.972c-.702.216-1.422.342-2.7.342-1.836 0-2.772-.936-2.934-2.898h6.012zm-4.536-4.482c.828 0 1.278.432 1.278 3.114l-2.79.162c.036-2.682.594-3.276 1.512-3.276zm5.06-.486v.918l1.116.522v6.822l-1.062.504v.936h5.796v-.936l-1.386-.504v-5.598c.576-.27 1.332-.36 2.232-.36.288 0 .648.036.846.09v-2.934c-.108-.036-.324-.054-.504-.054-1.098 0-1.998.72-2.592 2.052h-.108v-2.124h-.288l-4.05.666zm13.196 9.954c1.638 0 3.042-.792 3.582-1.44v-.936c-.486.144-1.512.288-2.448.288-1.638 0-2.88-1.008-2.88-3.384 0-2.754.846-3.798 1.962-3.798.45 0 .81.072.972.144l.576 1.98h1.746v-3.024c-.576-.216-2.034-.414-3.204-.414-3.33 0-5.49 1.98-5.49 5.292 0 3.186 1.764 5.292 5.184 5.292zm4.322-14.04v.918l1.134.522v10.908l-1.08.504v.936h5.508v-.936l-1.08-.504v-13.014h-.27l-4.212.666zm9.164 4.806c.216-.018.702-.036.864-.036 1.296 0 1.674.648 1.674 1.926v1.35l-1.926.324c-2.232.378-3.564.792-3.564 2.862 0 1.674 1.116 2.826 2.898 2.826 1.26 0 2.448-.54 2.898-1.44h.09c.162 1.08 1.098 1.422 2.142 1.422.81 0 1.566-.234 1.89-.414v-.756l-1.062-.504v-5.85c0-2.268-1.62-3.06-4.32-3.06-1.764 0-2.898.468-3.852.774v2.628h1.566l.702-2.052zm2.538 7.038c-.18.198-.558.378-.918.378-.648 0-1.26-.36-1.26-1.476 0-.954.63-1.476 1.404-1.548l.774-.072v2.718zm8.444 2.196c3.204 0 4.536-1.44 4.536-3.546 0-1.53-.738-2.826-2.682-3.24l-1.188-.252c-1.116-.234-1.386-.594-1.386-1.188 0-.612.54-.99 1.332-.99.54 0 1.242.126 1.476.252l.432 1.386h1.404v-2.484c-.792-.342-1.998-.522-3.186-.522-2.97 0-4.284 1.422-4.284 3.348 0 1.494.864 2.97 2.718 3.384l1.224.27c1.08.234 1.332.54 1.332 1.278 0 .792-.666 1.008-1.62 1.008-.576 0-1.386-.108-1.62-.324l-.576-1.674h-1.422v2.664c.972.414 2.43.63 3.51.63zm8.768 0c3.204 0 4.536-1.44 4.536-3.546 0-1.53-.738-2.826-2.682-3.24l-1.188-.252c-1.116-.234-1.386-.594-1.386-1.188 0-.612.54-.99 1.332-.99.54 0 1.242.126 1.476.252l.432 1.386h1.404v-2.484c-.792-.342-1.998-.522-3.186-.522-2.97 0-4.284 1.422-4.284 3.348 0 1.494.864 2.97 2.718 3.384l1.224.27c1.08.234 1.332.54 1.332 1.278 0 .792-.666 1.008-1.62 1.008-.576 0-1.386-.108-1.62-.324l-.576-1.674h-1.422v2.664c.972.414 2.43.63 3.51.63zm14.672-4.986c0-4.23-1.458-5.58-4.482-5.58-3.006 0-4.968 1.926-4.968 5.256 0 3.42 1.782 5.328 5.238 5.328 1.854 0 3.366-.828 3.834-1.476v-.972c-.702.216-1.422.342-2.7.342-1.836 0-2.772-.936-2.934-2.898h6.012zm-4.536-4.482c.828 0 1.278.432 1.278 3.114l-2.79.162c.036-2.682.594-3.276 1.512-3.276zm8.732 9.468c3.204 0 4.536-1.44 4.536-3.546 0-1.53-.738-2.826-2.682-3.24l-1.188-.252c-1.116-.234-1.386-.594-1.386-1.188 0-.612.54-.99 1.332-.99.54 0 1.242.126 1.476.252l.432 1.386h1.404v-2.484c-.792-.342-1.998-.522-3.186-.522-2.97 0-4.284 1.422-4.284 3.348 0 1.494.864 2.97 2.718 3.384l1.224.27c1.08.234 1.332.54 1.332 1.278 0 .792-.666 1.008-1.62 1.008-.576 0-1.386-.108-1.62-.324l-.576-1.674h-1.422v2.664c.972.414 2.43.63 3.51.63z" fill="#951C55"/></svg>