<svg xmlns="http://www.w3.org/2000/svg" width="295" height="53" viewBox="0 0 295 53"><path d="M5 18H0v-5l5-.6V7.2L14 6v7h6v5h-6v13.9c.1 2.6.7 4 3.3 4 .9 0 2.7-.1 2.7-.2v3.6c-.9.9-4.2 1.7-7.1 1.7C7.3 41 5 38.6 5 32.8V17.9v.1zm16 19.5l3-1.4V5.7l-3-1.5V1.8L32.3 0h.7v16h.4c2.4-3.1 5.9-4 9.8-4 4.3 0 6.8 2.1 6.8 7.1v17l3 1.4V41H38v-3.4l3-1.4V21.3c.3-2.8-1.3-3.8-3.8-3.8-1.6 0-3.2.3-4.2.8v18l3 1.4V41H21v-3.5zm41-10.7c.4 6 3.2 8.1 8.3 8.1 3.1 0 5.2-.2 7.2-.8v2.6c-1.5 1.8-5.2 4.1-10.3 4.1-9.5 0-14.6-5.3-14.6-14.6 0-9.1 5.4-14.5 13.6-14.5 8.4.2 12.3 4.4 12.3 15.3H62v-.2zm0-3l7.6-.4c0-7.3-1.2-8.5-3.5-8.5-2.5-.1-4.1 1.6-4.1 8.9z" fill="#9bd5e0"/><path d="M108 42c0 6.7-5 11-15.8 11-8.7 0-14.2-2.7-14.2-6.4-.4-3.7 3-4.8 6-5.4v-.3c-2.6-.6-4.1-2.8-4.1-5-.4-3 3.1-5.3 4.1-6.3v-.3c-1.6-1.6-4-4.4-4-8 0-6 5.1-9.7 12.2-9.7 2.3.2 4.7 1.4 6.4 1.4h.4l7-1v5l-5-1.6v.2c2 1.6 3 3.1 3 5.8 0 6.2-5 9.4-11.8 9.4-1.8 0-3-.1-4.5-.5-.7.5-1.2 1.2-1.2 1.9 0 1.1.9 1.8 2 1.8h9.9c6.6-.1 9.6 2.6 9.6 8zm-8 3c0-1.5-1.2-2-3.5-2h-9.7c-.8.9-1.1 1.6-1.1 2.9 0 1.9 1.7 3.7 6.8 3.7 5.8.1 7.5-1.7 7.5-4.6zM89.3 21.2c0 5.7 1.3 6.3 3.3 6.3 2 0 3.3-.6 3.3-6.3 0-5.6-1.3-6.4-3.3-6.4-2-.1-3.3.7-3.3 6.4zM107 16v-2.5l12-1.5h1v19.4c0 3.2 2 3.7 4 3.7 1 0 2-.3 3-.6v-17l-3-1.5v-2.5l12-1.5v23.6l3 1.7v2.3L128 41h-1v-4c-1 2.9-5 3.8-8 3.8-6 0-8-4-8-8.9V17.8l-4-1.8zm39 5h-4v-7.2c2-.9 6-2.2 11-2.2 7 0 11 2.2 11 8.4v16.3l3 1.4v2.1c-1 .5-3 1-5 1-3 .2-5-.8-6-3.8-1 2.8-4 3.8-8 3.8-5 0-8-3.2-8-7.8 0-5.7 4-7 10-8l5-.9v-3.7c0-3.2-1-4.4-4-4.4h-3l-2 4.8v.2zm9 6.4l-2 .2c-2 .2-4 1.7-4 4.3 0 3 2 4.1 4 4.1 1 0 2-.5 2-1v-7.6zM179 12h1v6h1c2-4.1 3-6 6-6 0 0 1-.1 1 0v8c0-.2-1-.3-2-.3-2 0-5 .3-6 1v16.6l4 1.4V41h-16v-2.3l3-1.4V17.4l-3-1.5v-2.5l11-1.6v.2zm28-6.3l-4-1.1V2l12-1h1v34.5l3 1.7v2.3L208 41h-1v-3c-1 1.4-3 2.9-7 2.9-5 0-11-3.2-11-13.9 0-11.3 6-15.3 14-15.3 1 0 3 .3 4 1.1V5.7zm0 11.1c0-.5-2-1.2-4-1.2-3 0-5 2.6-5 10.5 0 7 2 9.9 5 9.9 2 0 4-.9 4-1.1V16.8zm24-4.8v25.2l3 1.4V41h-15v-2.4l3-1.4V17.4l-3-1.5v-2.5l12-1.6v.2zm.5-6.9c0 2.7-3 4.9-5 4.9-3 0-5-2.2-5-4.9s2-5 5-5c2-.1 5 2.1 5 5zm10.5 16h-5v-7.2c3-.9 6-2.2 11-2.2 7 0 12 2.2 12 8.4v16.3l3 1.4v2.1c-1 .5-3 1-5 1-3 .2-6-.8-6-3.8h-1c-1 2.8-4 3.8-8 3.8s-8-3.2-8-7.8c0-5.7 4-7 10-8l6-.4v-4c0-3.2-2-4.6-5-4.6h-3l-1 4.8v.2zm6 6.6c-2 .2-4 1.7-4 4.3 0 3 2 4.1 4 4.1 1 0 3-.6 3-1.1v-8l-3 .7zm15 11.2l3-1.6V17.5l-3-1.5v-2.4l11-1.5h1v4h1c2-3.2 5-4.1 9-4.1 5 0 7 2.1 7 7.1v18.2l3 1.4V41h-15v-2.2l3-1.4v-16c0-2.9-1-3.9-3-3.9s-4 .9-5 1.4v18l4 2V41h-16v-2.1z" fill="#fff"/></svg>