<svg xmlns="http://www.w3.org/2000/svg" xmlns:xlink="http://www.w3.org/1999/xlink" width="107.67" height="20.12" viewBox="0 0 107.67 20.120001" enable-background="new 0 0 142.25 27.125"><path fill="#fff" d="M79.897 5.322v.984l1.117.495-.001 6.181-1.064.472v1.103h5.687v-1.103l-1.063-.472v-8.296h-.28l-4.397.637"/><path d="M95.833 13.561l1.062-.471v-6.283l-1.117-.495v-.983l4.245-.637h.281v1.279h.11c.897-.781 2.102-1.268 3.457-1.268 1.684 0 2.639.807 2.639 2.568v5.819l1.067.471v.995h-5.637v-.995l1.009-.471v-4.993c0-.974-.333-1.339-1.237-1.339-.494 0-.854.087-1.257.243v6.089l1.008.471v.995h-5.63v-.996zM75.125 12.749v-6.269c-.256-.191-.414-.348-1.017-.348-1.043 0-1.726.795-1.726 3.505 0 2.374.683 3.297 1.833 3.297.512.001.685-.098.911-.185m.001-9.883l-1.112-.493v-.984l4.393-.637h.281v12.044l1.057.557v.943l-4.072.429-.282-.002v-1.001h-.11c-.419.511-1.276 1.042-2.521 1.042-1.83 0-4.121-1.112-4.121-4.796 0-3.874 2.341-5.265 4.994-5.265.547 0 1.092.122 1.494.399v-2.237zM1.392 11.879v-5.151h-1.42v-1.619l1.42-.198v-1.813l3.542-.446v2.259h2.081v1.817h-2.081v4.763c0 .939.572 1.426 1.275 1.426.347 0 .675-.04.916-.079v1.353c-.542.301-1.672.557-2.715.557-1.976-.001-3.018-.836-3.018-2.869" fill="#fff"/><path d="M22.242 10.02h5.859c0-4.032-1.446-5.316-4.446-5.316-2.982 0-5.055 1.842-5.055 5.004 0 3.266 1.889 5.054 5.329 5.054 1.848 0 3.288-.765 3.921-1.371v-1.048c-.695.209-1.41.329-2.69.329-1.71 0-2.805-.865-2.917-2.653zm1.357-4.154c.648 0 1.166.67 1.166 2.741l-2.519.099c.08-2.519.502-2.839 1.353-2.839zM61.099 5.33v.984l1.116.495v6.283l-1.065.473v.993h5.877v-.993l-1.252-.473-.002-5.056c.567-.26 1.203-.348 2.099-.348.294 0 .641.035.842.087v-3.019c-.11-.035-.33-.052-.494-.052-1.098 0-1.879.788-2.465 2.074h-.109v-2.092h-.28l-4.266.645M53.909 6.214l-.629 1.739h-1.723v-2.52c.933-.278 2.181-.73 3.937-.73 2.671 0 4.391.758 4.391 2.912v5.437l1.061.473v.836c-.327.168-1.179.382-1.984.382-1.042 0-1.978-.319-2.132-1.356h-.091c-.443.86-1.742 1.373-2.986 1.373-1.775 0-2.805-1.094-2.805-2.693 0-1.963 1.383-2.392 3.579-2.826l1.804-.312v-1.129c0-1.234-.271-1.628-1.552-1.628-.287 0-.668.022-.87.042zm2.421 6.334v-2.486l-.658.072c-.772.07-1.202.562-1.202 1.481 0 .991.406 1.297 1.047 1.297.369 0 .63-.174.812-.364M88.59 6.214l-.629 1.739h-1.722v-2.52c.933-.278 2.181-.73 3.937-.73 2.672 0 4.391.758 4.391 2.912v5.437l1.062.473v.836c-.327.168-1.179.382-1.984.382-1.042 0-1.978-.319-2.132-1.356h-.091c-.443.86-1.742 1.373-2.986 1.373-1.774 0-2.804-1.094-2.804-2.693 0-1.963 1.382-2.392 3.578-2.826l1.804-.312v-1.129c0-1.234-.271-1.628-1.552-1.628-.288 0-.668.022-.871.042zm2.423 6.334v-2.486l-.658.072c-.772.07-1.201.562-1.201 1.481 0 .991.405 1.297 1.047 1.297.367 0 .629-.174.812-.364" fill="#fff"/><path d="M40.421 6.581l-1.005-.495v-.763l4.279-.637h.281v6.66c0 1.096.534 1.289 1.376 1.289.445 0 .708-.087.991-.226v-5.828l-1.118-.495v-.763l4.397-.637h.28v8.214l1.11.557v.832l-4.159.43-.283-.002-.003-1.334h-.11c-.64.765-1.695 1.376-3.05 1.376-2.013 0-2.987-1.375-2.987-3.043v-5.134zM7.303 13.561l1.062-.471v-10.232l-1.117-.494v-.984l4.36-.637h.281v5.228h.11c.896-.781 1.988-1.268 3.341-1.268 1.684 0 2.639.807 2.639 2.568v5.819l1.067.471v.995h-5.636v-.995l1.009-.471v-4.993c0-.974-.333-1.339-1.238-1.339-.494 0-.854.087-1.257.243v6.089l1.009.471v.995h-5.63v-.995zM82.724.646c1.036 0 1.873.805 1.873 1.798s-.839 1.797-1.873 1.797c-1.035 0-1.874-.804-1.874-1.797 0-.993.839-1.798 1.874-1.798" fill="#fff"/><g transform="matrix(.766 0 0 .735 -.695 -.137)"><defs><path id="a" d="M48.231 16.982h-4.444c-.654 0-1-.234-1-.684 0-.332.226-.679.515-.93.635.152 1.328.23 2.061.23 3.337 0 5.745-1.559 5.745-4.375 0-1.082-.377-2.006-1.221-2.682v-.173l1.92.646h.292v-2.613h-.253l-3.001.948h-.249c-.859-.482-1.862-.764-3.233-.764-3.347 0-5.771 1.614-5.771 4.507 0 1.663.905 2.978 2.244 3.732v.205c-1.146.437-2.192 1.498-2.192 2.739 0 1.28.799 2.396 1.921 2.73v.178c-1.471.307-2.824.885-2.824 2.303 0 1.748 2.275 2.957 6.381 2.957 5.104 0 7.409-1.953 7.409-5.062 0-2.553-1.416-3.892-4.3-3.892zm-2.868-8.761c.944 0 1.407.595 1.407 2.871s-.472 2.729-1.407 2.729-1.393-.837-1.393-2.729c0-1.892.448-2.871 1.393-2.871zm-.241 16.008c-2.186 0-2.683-.759-2.683-1.666 0-.566.166-.92.501-1.314h4.331c1.074 0 1.564.441 1.564 1.121.001 1.12-1.114 1.859-3.713 1.859z"/></defs><clipPath id="b"><use xlink:href="#a" overflow="visible" width="142.25" height="27.125"/></clipPath><g clip-path="url(#b)"><path fill="#e21e26" d="M32.02 5.293h24.755v3.625h-24.755z"/><path fill="#f68b1f" d="M32.02 8.918h24.755v3.625h-24.755z"/><path fill="#fdd106" d="M32.02 12.543h24.755v3.625h-24.755z"/><path fill="#098040" d="M32.02 16.168h24.755v3.625h-24.755z"/><path fill="#3f5eab" d="M32.02 19.793h24.755v3.625h-24.755z"/><path fill="#722982" d="M32.02 23.418h24.755v3.625h-24.755z"/></g></g><path d="M36.274 12.348h-3.406c-.501 0-.766-.172-.766-.503 0-.244.173-.499.395-.684.487.112 1.018.169 1.58.169 2.558 0 4.404-1.146 4.404-3.216 0-.795-.289-1.475-.936-1.972v-.127l1.472.475h.224v-1.921h-.194l-2.3.697h-.191c-.658-.354-1.427-.562-2.478-.562-2.565 0-4.423 1.187-4.423 3.314 0 1.223.694 2.189 1.72 2.744v.151c-.878.321-1.68 1.101-1.68 2.014 0 .941.612 1.762 1.472 2.007v.131c-1.128.226-2.165.651-2.165 1.693 0 1.285 1.744 2.174 4.891 2.174 3.912 0 5.679-1.436 5.679-3.722 0-1.877-1.085-2.861-3.296-2.861zm-2.198-6.441c.724 0 1.078.437 1.078 2.111 0 1.673-.362 2.006-1.078 2.006-.717 0-1.068-.615-1.068-2.006 0-1.391.343-2.111 1.068-2.111zm-.185 11.769c-1.676 0-2.057-.558-2.057-1.225 0-.416.127-.676.384-.966h3.32c.823 0 1.199.324 1.199.824.001.823-.854 1.367-2.846 1.367z" opacity=".5" fill="#fff"/></svg>