<svg xmlns="http://www.w3.org/2000/svg" height="20.125" width="107.67"><path d="M1.55 6.75h-1.55v-1.5l1.55-.25v-1.9l3.35-.43v2.36h2.2v1.73h-2.2v5.3c0 1 .27 1.5 1.24 1.5.36 0 .83-.03 1.08-.07v1.3c-.56.32-1.7.6-2.74.6-2 0-2.93-.9-2.93-3.03v-5.6zm5.85 7.45l1.1-.52v-11.14l-1.16-.54v-.86l4.18-.67h.27v5.62h.1c.9-.83 2.12-1.3 3.5-1.3 1.67 0 2.5.82 2.5 2.67v6.23l1.1.5v.92h-5.5v-.9l1.07-.52v-5.49c0-1.04-.44-1.42-1.35-1.42-.5 0-.96.1-1.37.27v6.63l1.06.5v.92h-5.5v-.9zm15.42-3.83c.17 1.96 1.1 2.9 2.94 2.9 1.28 0 2-.13 2.7-.35v.98c-.47.64-1.98 1.47-3.84 1.47-3.45 0-5.23-1.9-5.23-5.33 0-3.33 1.95-5.25 4.95-5.25 3.03 0 4.5 1.34 4.5 5.57h-6.04zm-.03-1.2l2.78-.17c0-2.68-.45-3.12-1.28-3.12-.92 0-1.48.6-1.5 3.28z" fill="#AAD8F1"/><path d="M39.3 15.8c0 2.38-1.7 3.9-5.66 3.9-3.17 0-5.1-1-5.1-2.35 0-1.3 1.27-1.7 2.4-1.92v-.1c-1.08-.24-1.6-1.02-1.6-1.8 0-1.07 1.1-1.92 1.7-2.32v-.1c-1.02-.55-1.68-1.54-1.68-2.88 0-2.17 1.8-3.47 4.4-3.47.8 0 1.68.25 2.3.48h.16l2.57-.5h.21v2h-.24l-1.68-.6v.08c.63.58 1.05 1.14 1.05 2.13 0 2.2-1.8 3.37-4.38 3.37-.67 0-1.12-.04-1.66-.2-.26.18-.46.47-.46.74 0 .36.33.65.73.65h3.6c2.23 0 3.33.9 3.33 2.9zm-2.9.92c0-.52-.38-.77-1.2-.77h-3.54c-.27.3-.4.65-.4 1.13 0 .7.64 1.36 2.47 1.36 2.1 0 2.67-.67 2.67-1.72zm-3.84-8.5c0 2.06.47 2.24 1.2 2.24.7 0 1.2-.22 1.2-2.23s-.46-2.33-1.2-2.33-1.2.27-1.2 2.33zm7.8-1.33l-1.16-.53v-.91l4.2-.66h.28v7.1c0 1.15.56 1.35 1.4 1.35.57 0 .87-.1 1.2-.24v-6.1l-1.1-.53v-.92l4.2-.66h.26v8.6l1.14.6v.87l-4.1.45h-.26v-1.31h-.12c-.65.78-1.72 1.37-3.07 1.37-2.03 0-2.9-1.46-2.9-3.2v-5.27zm13.04 1.27h-1.56v-2.62c.95-.3 2.1-.77 3.85-.77 2.7 0 4.3.8 4.3 3.06v5.85l1.08.5v.76c-.33.18-1.1.42-1.9.42-1.04 0-1.98-.35-2.14-1.43h-.1c-.44.9-1.63 1.44-2.9 1.44-1.77 0-2.9-1.15-2.9-2.82 0-2.07 1.35-2.5 3.58-2.87l1.93-.32v-1.36c0-1.27-.38-1.92-1.68-1.92-.16 0-.65.02-.86.04l-.7 2.05zm3.25 2.27l-.78.07c-.77.08-1.4.6-1.4 1.56 0 1.12.6 1.48 1.26 1.48.36 0 .74-.18.92-.38v-2.72zm8.62-5.7h.3v2.12h.1c.6-1.34 1.5-2.06 2.6-2.06.17 0 .38.02.5.06v2.95c-.2-.06-.57-.1-.86-.1-.9 0-1.64.1-2.22.36v5.6l1.4.5v.94h-5.8v-.93l1.05-.5v-6.84l-1.1-.52v-.91l4.04-.67zm10.1-2l-1.1-.5v-.9l4.2-.68h.26v12.75l1.07.6v.87l-3.98.45h-.3v-1.05h-.1c-.4.54-1.28 1.1-2.54 1.1-1.83 0-4.03-1.17-4.03-5.04 0-4.07 2.25-5.53 4.9-5.53.57 0 1.22.13 1.63.42v-2.47zm0 3.8c-.24-.2-.53-.35-1.12-.35-1.06 0-1.85.95-1.85 3.8 0 2.47.63 3.55 1.96 3.55.5 0 .8-.1 1.02-.18v-6.8zm8.78-1.8h.27v8.92l1.08.5v.94h-5.5v-.93l1.07-.5v-6.83l-1.13-.52v-.91l4.2-.67zm.32-2.37c0 .98-.8 1.77-1.78 1.77-1 0-1.8-.8-1.8-1.77 0-1 .8-1.78 1.8-1.78.96 0 1.77.78 1.77 1.77zm3.66 5.8h-1.57v-2.62c.96-.3 2.1-.77 3.86-.77 2.7 0 4.32.8 4.32 3.06v5.85l1.06.5v.76c-.33.18-1.08.42-1.9.42-1.04 0-1.97-.35-2.14-1.43h-.1c-.44.9-1.62 1.44-2.88 1.44-1.8 0-2.9-1.15-2.9-2.82 0-2.07 1.33-2.5 3.56-2.87l1.93-.32v-1.36c0-1.27-.38-1.92-1.68-1.92l-.87.04-.7 2.05zm3.24 2.27l-.78.07c-.78.08-1.4.6-1.4 1.56 0 1.12.6 1.48 1.25 1.48.36 0 .74-.18.92-.38v-2.72zm4.63 3.77l1.1-.52v-6.84l-1.16-.52v-.9l4.18-.65h.27v1.3h.1c.9-.82 2.12-1.3 3.5-1.3 1.66 0 2.5.83 2.5 2.68v6.23l1.1.5v.92h-5.5v-.9l1.06-.52v-5.48c0-1.04-.43-1.42-1.35-1.42-.5 0-.95.1-1.36.27v6.63l1.06.5v.92h-5.5v-.9z" fill="#fff"/></svg>