<svg xmlns="http://www.w3.org/2000/svg" height="46.624" width="15"><polygon points="0,0,0,46.624,7.412,41.75,15,46.624,15,0" fill="#005689"/><path d="M8.892 8.477h-2.72c-.299 0-.544-.217-.544-.489 0-.204.15-.422.34-.558.408.122.748.15 1.252.15 1.958 0 3.304-.884 3.304-2.544 0-.748-.312-1.169-.787-1.604v-.055l1.263.449h.177v-1.51h-.149l-1.945.381h-.109c-.475-.177-1.141-.367-1.754-.367-1.959 0-3.319.979-3.319 2.625 0 1.006.503 1.754 1.265 2.176v.081c-.435.3-1.278.939-1.278 1.741 0 .599.394 1.183 1.21 1.36v.082c-.857.177-1.822.462-1.822 1.455 0 1.02 1.468 1.768 3.862 1.768 2.978 0 4.271-1.142 4.271-2.951 0-1.496-.83-2.19-2.517-2.19m-1.672-5.277c.558 0 .911.232.911 1.755s-.367 1.686-.911 1.686-.898-.136-.898-1.686c0-1.551.354-1.755.898-1.755m-.014 9.466c-1.387 0-1.863-.49-1.863-1.02 0-.367.095-.626.299-.857h2.666c.625 0 .911.191.911.585 0 .789-.435 1.292-2.013 1.292" fill="#fff"/><path d="M10.906 16.706v3.229c0 .637-.181 1.153-.542 1.545-.362.393-.87.589-1.525.589-.562 0-1.054-.174-1.471-.525-.418-.35-.626-.886-.626-1.607v-2.252h-3.05v-.977h7.214zm-.992 3.791c.103-.215.152-.509.152-.883v-1.931h-2.501v1.931c0 .435.093.789.281 1.06.187.271.516.407.987.407.531 0 .891-.196 1.081-.584zm.992 3.044v.987h-7.215v-.987h7.215zm-.526 7.672c-.481.498-1.028.775-1.641.83v-.952c.465-.106.834-.318 1.105-.636.271-.315.408-.761.408-1.333 0-.694-.252-1.257-.75-1.686-.5-.43-1.266-.645-2.3-.645-.844 0-1.529.194-2.056.582-.526.387-.789.964-.789 1.73 0 .707.276 1.245.83 1.614.29.196.673.344 1.149.44v.952c-.76-.084-1.397-.363-1.91-.834-.617-.564-.926-1.328-.926-2.29 0-.825.253-1.52.762-2.083.671-.741 1.708-1.112 3.11-1.112 1.066 0 1.94.279 2.622.835.739.601 1.11 1.431 1.11 2.485-.001.905-.242 1.605-.724 2.103zm.526 2.362v.952h-3.532l3.532 3.608v1.368l-2.911-3.083-4.304 3.146v-1.278l3.625-2.586-1.111-1.175h-2.514v-.952h7.215z" fill="#fff"/></svg>