<svg xmlns="http://www.w3.org/2000/svg" xmlns:xlink="http://www.w3.org/1999/xlink" width="107.67" height="20.125" viewBox="0 0 107.67 20.125"><path fill="#fff" d="M79.884 5.462v1.025l1.115.516v6.44l-1.064.493v1.148h5.685v-1.148l-1.062-.493v-8.645h-.281l-4.393.664m15.928 8.586l1.061-.49v-6.547l-1.117-.516v-1.025l4.243-.664h.28v1.333h.109c.896-.814 2.101-1.321 3.454-1.321 1.684 0 2.639.842 2.639 2.676v6.064l1.066.49v1.036h-5.633v-1.036l1.008-.49v-5.204c0-1.015-.332-1.395-1.234-1.395-.495 0-.855.091-1.257.253v6.345l1.008.49v1.036h-5.627v-1.035zm-20.698-.847v-6.532c-.257-.199-.415-.362-1.019-.362-1.043 0-1.724.828-1.724 3.652 0 2.474.681 3.436 1.832 3.436.514.001.686-.103.911-.194m0-10.299l-1.112-.513v-1.025l4.393-.664h.279v12.55l1.058.58v.983l-4.071.447-.282-.002v-1.043h-.109c-.417.532-1.274 1.086-2.521 1.086-1.828 0-4.118-1.159-4.118-4.998 0-4.038 2.339-5.486 4.99-5.486.549 0 1.093.127 1.494.417v-2.332zm-73.695 9.392v-5.367h-1.419v-1.687l1.419-.206v-1.89l3.54-.464v2.354h2.08v1.893h-2.08v4.963c0 .979.571 1.486 1.274 1.486.347 0 .674-.043.916-.083v1.409c-.542.314-1.671.581-2.713.581-1.976.001-3.017-.87-3.017-2.989m20.839-1.937h5.856c0-4.201-1.445-5.54-4.444-5.54-2.981 0-5.052 1.919-5.052 5.216 0 3.403 1.888 5.267 5.327 5.267 1.847 0 3.287-.798 3.918-1.43v-1.092c-.695.219-1.409.344-2.689.344-1.709 0-2.803-.9-2.916-2.765zm1.357-4.329c.648 0 1.165.698 1.165 2.856l-2.518.102c.081-2.623.503-2.958 1.353-2.958zm37.481-.558v1.024l1.116.516v6.547l-1.064.492v1.034h5.873v-1.033l-1.25-.492-.004-5.27c.567-.271 1.203-.362 2.098-.362.294 0 .64.036.844.091v-3.145c-.111-.036-.331-.054-.495-.054-1.097 0-1.879.821-2.465 2.161h-.109v-2.181h-.279l-4.265.672m-7.186.922l-.63 1.812h-1.721v-2.626c.933-.289 2.179-.761 3.935-.761 2.67 0 4.389.791 4.389 3.035v5.666l1.061.492v.871c-.325.174-1.178.398-1.982.398-1.041 0-1.977-.333-2.132-1.413h-.092c-.442.896-1.74 1.431-2.984 1.431-1.773 0-2.803-1.141-2.803-2.806 0-2.046 1.381-2.493 3.575-2.945l1.804-.326v-1.176c0-1.286-.271-1.696-1.55-1.696-.288.001-.67.024-.87.044zm2.42 6.601v-2.591l-.657.075c-.771.073-1.202.585-1.202 1.544 0 1.032.405 1.35 1.047 1.35.368 0 .628-.181.812-.378m32.244-6.601l-.631 1.812h-1.72v-2.626c.932-.289 2.18-.761 3.934-.761 2.672 0 4.39.791 4.39 3.035v5.666l1.062.492v.871c-.327.174-1.179.398-1.983.398-1.043 0-1.979-.333-2.133-1.413h-.09c-.444.896-1.742 1.431-2.987 1.431-1.771 0-2.801-1.141-2.801-2.806 0-2.046 1.38-2.493 3.576-2.945l1.805-.327v-1.175c0-1.286-.272-1.696-1.553-1.696-.288.001-.668.024-.869.044zm2.421 6.601v-2.591l-.66.075c-.771.073-1.201.585-1.201 1.544 0 1.032.407 1.35 1.049 1.35.368 0 .628-.181.812-.378m-50.566-6.219l-1.004-.516v-.794l4.276-.665h.281v6.94c0 1.143.534 1.343 1.375 1.343.444 0 .708-.091.991-.235v-6.073l-1.117-.516v-.794l4.395-.665h.279v8.559l1.11.581v.866l-4.157.448-.283-.002-.003-1.391h-.111c-.639.796-1.693 1.434-3.047 1.434-2.011 0-2.985-1.433-2.985-3.171v-5.349zm-33.101 7.274l1.061-.49v-10.662l-1.117-.516v-1.025l4.358-.665h.28v5.448h.11c.896-.814 1.986-1.321 3.34-1.321 1.683 0 2.638.842 2.638 2.676v6.064l1.066.49v1.036h-5.633v-1.036l1.009-.49v-5.203c0-1.015-.333-1.395-1.237-1.395-.494 0-.854.091-1.256.253v6.345l1.008.49v1.036h-5.627v-1.035zm75.382-13.458c1.035 0 1.873.839 1.873 1.873s-.838 1.872-1.873 1.872-1.873-.838-1.873-1.872.838-1.873 1.873-1.873"/><defs><path id="a" d="M36.284 12.783h-3.405c-.501 0-.766-.179-.766-.523 0-.254.173-.52.395-.711.487.116 1.017.176 1.579.176 2.557 0 4.401-1.194 4.401-3.353 0-.828-.29-1.536-.936-2.054v-.133l1.471.494h.224v-2.001h-.194l-2.299.726h-.191c-.658-.369-1.427-.585-2.477-.585-2.564 0-4.421 1.236-4.421 3.453 0 1.274.693 2.281 1.719 2.86v.156c-.878.334-1.679 1.146-1.679 2.099 0 .98.611 1.834 1.472 2.092v.136c-1.127.235-2.163.678-2.163 1.764 0 1.34 1.743 2.266 4.888 2.266 3.911 0 5.676-1.496 5.676-3.878 0-1.957-1.085-2.984-3.294-2.984zm-2.198-6.711c.723 0 1.078.456 1.078 2.199 0 1.744-.362 2.09-1.078 2.09-.716 0-1.067-.641-1.067-2.09 0-1.449.344-2.199 1.067-2.199zm-.185 12.263c-1.674 0-2.055-.581-2.055-1.276 0-.434.127-.704.384-1.007h3.317c.823 0 1.199.338 1.199.858.001.86-.854 1.425-2.845 1.425z"/></defs><clipPath id="b"><use xlink:href="#a" overflow="visible"/></clipPath><g clip-path="url(#b)"><path fill="#E21E26" d="M23.864 3.829h18.964v2.777h-18.964z"/><path fill="#F58A1F" d="M23.864 6.606h18.964v2.778h-18.964z"/><path fill="#FDD103" d="M23.864 9.384h18.964v2.776h-18.964z"/><path fill="#098040" d="M23.864 12.16h18.964v2.777h-18.964z"/><path fill="#3F5EAA" d="M23.864 14.938h18.964v2.776h-18.964z"/><path fill="#722A82" d="M23.864 17.714h18.964v2.777h-18.964z"/></g><path opacity=".5" fill="#fff" d="M36.284 12.783h-3.405c-.501 0-.766-.179-.766-.523 0-.254.173-.52.395-.711.487.116 1.017.176 1.579.176 2.557 0 4.401-1.194 4.401-3.353 0-.828-.29-1.536-.936-2.054v-.133l1.471.494h.224v-2.001h-.194l-2.299.726h-.191c-.658-.369-1.427-.585-2.477-.585-2.564 0-4.421 1.236-4.421 3.453 0 1.274.693 2.281 1.719 2.86v.156c-.878.334-1.679 1.146-1.679 2.099 0 .98.611 1.834 1.472 2.092v.136c-1.127.235-2.163.678-2.163 1.764 0 1.34 1.743 2.266 4.888 2.266 3.911 0 5.676-1.496 5.676-3.878 0-1.957-1.085-2.984-3.294-2.984zm-2.198-6.711c.723 0 1.078.456 1.078 2.199 0 1.744-.362 2.09-1.078 2.09-.716 0-1.067-.641-1.067-2.09 0-1.449.344-2.199 1.067-2.199zm-.185 12.263c-1.674 0-2.055-.581-2.055-1.276 0-.434.127-.704.384-1.007h3.317c.823 0 1.199.338 1.199.858.001.86-.854 1.425-2.845 1.425z"/></svg>