<?xml version="1.0" encoding="utf-8"?>
<!-- Generator: Adobe Illustrator 16.0.0, SVG Export Plug-In . SVG Version: 6.00 Build 0)  -->
<!DOCTYPE svg PUBLIC "-//W3C//DTD SVG 1.1//EN" "http://www.w3.org/Graphics/SVG/1.1/DTD/svg11.dtd">
<svg version="1.1" id="Layer_1" xmlns="http://www.w3.org/2000/svg" xmlns:xlink="http://www.w3.org/1999/xlink" x="0px" y="0px"
	 width="40.88px" height="56.94px" viewBox="0 0 40.88 56.94" enable-background="new 0 0 40.88 56.94" xml:space="preserve">
<g>
	<path fill-rule="evenodd" clip-rule="evenodd" fill="#333333" d="M28.46,30.1H14.14c-1.06,0-2.36-1.05-2.36-2.35
		c0-0.98,0.79-2.03,1.8-2.71c2.15,0.61,3.95,0.75,6.61,0.75c9.57,0,15.69-4.42,15.69-12.52c0-3.65-1.42-5.71-3.59-7.83V5.18
		l5.97,2.18h0.88V0h-0.75l-9.06,1.86h-0.5c-2.16-0.83-5.41-1.68-8.64-1.68C9.94,0.18,3.1,4.59,3.1,12.74c0,4.99,2.53,8.69,6.36,10.8
		v0.41c-2.19,1.5-6.43,4.58-6.43,8.55c0,3.03,1.98,5.98,6.09,6.88v0.41C4.62,40.68,0,42.16,0,47.66c0,5.54,7.02,9.28,19.2,9.28
		c15.26,0,21.68-5.81,21.68-15.78c0-7.56-4.12-11.06-12.57-11.06H28.46z M19.62,4.05c3.4,0,5.38,1.15,5.38,8.69
		c0,7.55-2.05,8.35-5.1,8.35c-3.04,0-5.02-0.67-5.02-8.35c0-7.68,1.98-8.69,5.02-8.69H19.62z M19.55,52.18
		c-7.2,0-9.67-2.71-9.67-5.65c0-2.03,0.49-3.46,1.55-4.75h13.84c3.25,0,4.73,1.06,4.73,3.24C30,49.39,27.74,52.18,19.55,52.18z"/>
</g>
</svg>
