<svg xmlns="http://www.w3.org/2000/svg" width="96" height="18" viewBox="0 0 320 60"><path d="M284 45h16v-2.95l-3.04-1.55v-20c1.2-.87 2.76-1.14 4.27-1.14 2.76 0 3.77.94 3.77 4.14v17l-3 1.55v2.95h16v-2.95l-3-1.55v-19c0-5.7-2.2-8.32-7.22-8.32-4.1 0-8.1 1.5-10.82 4.03v-4.21h-.96l-12.4 2.22v2.7l3.4 1.58v21l-3 1.54v2.96zm-38.73-44.63c-2.97 0-5.35 2.43-5.35 5.47 0 2.98 2.38 5.4 5.35 5.4 2.92 0 5.36-2.42 5.36-5.4 0-3.04-2.44-5.47-5.36-5.47zm-8.27 14.73v2.83l3 1.57v20.95l-3 1.55v3h16v-3l-3-1.55v-27.38h-1l-12 2.04zm-14.07 23.95c-.73.6-1.56 1.07-3.08 1.07-4 0-5.9-3.3-5.9-10.93 0-8.73 2.4-11.66 5.58-11.66 1.78 0 2.67.57 3.4 1.4v20.1zm0-24.5c-1.24-.87-3.2-1.37-4.86-1.37-7.45 0-14.48 4.35-14.48 16.83 0 11.87 7.07 15.7 11.82 15.7 3.78 0 6.38-1.72 7.62-3.38h.33v3.26h.86l11.95-1.43v-2.26l-3.2-1.82v-39.48h-.8l-12.6 2.04v2.8l3.36 1.56v7.56zm-41.93 3.45l3.02 1.53v20.92l-3.02 1.55v3h17v-3l-3.93-1.55v-16.4c1.78-1.42 4-1.87 6.7-1.87.87 0 1.63.16 2.23.32v-9c-.33-.1-.66-.2-1.2-.2-3.3 0-5.94 2.14-7.73 6.23v-6.46h-1.07l-12 1.93v3zm-19.26-.8c3.9 0 5.03 2 5.03 5.92v3.48l-5.78 1.1c-5.9 1.12-10.36 2.95-10.36 9.3 0 5.13 3.53 8.7 8.34 8.7 3.78 0 7.35-1.67 8.7-4.43h.27c.5 3.32 3.3 4.36 6.44 4.36 2.42 0 4.77-.6 5.66-1.63v-2l-3.04-1.5v-18c0-6.95-5-9.43-13.1-9.43-5.3 0-8.76 1.35-11.57 2.7v7.84h4.7l2.04-6.05c.7-.33 2.18-.34 2.67-.34zm2.26 22.87c-1.94 0-4-1.14-4-4.56 0-2.44 2.4-4.65 4.75-5.02l2.25-.49v8.5s-1.9 1.56-3 1.56zm100.75-22.87c3.9 0 5.03 2 5.03 5.92v3.48l-5.78 1.1c-5.9 1.12-10.36 2.95-10.36 9.3 0 5.13 3.53 8.7 8.34 8.7 3.78 0 7.35-1.67 8.7-4.43h.27c.5 3.32 3.3 4.36 6.44 4.36 2.42 0 4.77-.6 5.66-1.63v-2l-3.05-1.5v-18c0-6.95-5-9.43-13.1-9.43-5.3 0-8.76 1.35-11.57 2.7v7.84h4.7l2.04-6.05c.7-.33 2.18-.34 2.67-.34zm2.25 22.87c-1.94 0-4-1.14-4-4.56 0-2.44 2.4-4.65 4.75-5.02l2.25-.49v8.5s-1.9 1.56-3 1.56zm-138.7 5.63c.44 0 .87-.03 1.3-.07 3.54-.34 6.68-2.02 8.42-4.2v4.07l12-1.5v-2l-3-2v-27h-1l-11.88 2.28v2.8l3.88 1.6v18.32c-1.12.76-2.42 1.34-4.2 1.34-2.54 0-4.8-.8-4.8-4.34v-22h-1l-12 2.5v2.6l4 1.6v16.3c0 5.36 2.17 9.7 8.28 9.7zm-32.3-7.7c-1.2 0-2.54-.8-2.54-1.9 0-.84.6-1.72 1.35-2.28 1.64.5 3 .6 5 .6 7.77 0 13.2-3.68 13.2-10.42 0-3.03-1.32-4.64-3.2-6.4l5.19 1.4v-6l-8.24 1.62c-1.9-.72-4.54-1.6-6.97-1.6-7.8 0-13.2 4.08-13.2 10.76 0 4.08 2 7.12 5.02 8.83l.25.16c-1.73 1.22-5.27 3.98-5.27 7.24 0 2.43 1.5 4.8 4.75 5.53-3.39.71-7.34 2.43-7.34 6.46 0 4.14 5.95 8 15.46 8 11.84 0 16.54-5.66 16.54-13 0-6.07-2.8-9-9.5-9h-10.5zm7.5-14c0 5.7-1.34 6.5-3.5 6.5s-4-.8-4-6.5c0-5.82 1.84-7.5 4-7.5 2.22 0 3.5 1.96 3.5 7.5zm-11.5 26.93c.06-1.48 1.1-3.4 3.7-3.58h8.6c2.48 0 3.7 1.98 3.7 3.58 0 3.2-2 4.37-8.26 4.37-5.52 0-7.83-2.2-7.74-4.37zm-9-20.93c0-12.97-5.14-16.88-12.96-16.88-9.04 0-15.04 6.18-15.04 16.38 0 10.5 5.47 16.2 15.85 16.2 5.57 0 9.75-2.7 11.15-4.7v-3c-2.1.66-3.9 1.23-7.75 1.23-5.5 0-9.25-3.23-9.25-9.23h18zm-13.13-13.4c2.5 0 3.84 1.85 3.84 9.55l-8.37.5c.12-7.87 1.8-10.05 4.55-10.05zm-32.87 28.4v-2.95l-3-1.55v-19.5c1.2-.85 3.25-1.73 4.76-1.73 2.76 0 4.3 1.55 4.24 4.23v17l-3 1.55v2.95h16v-2.95l-3-1.55v-19c0-5.7-3.32-8.32-7.68-8.32-4.1 0-8.62 1.28-11.32 3.82v-17h-1l-12 2v3l4 1.5v34l-3 1.55v2.95h15zm-33-8.58c0 5.68 2.85 9.27 8.85 9.27 3.13 0 6.48-.84 8.4-2.3v-3.8c-.8.27-2.18.5-3.26.5-2.93 0-4-1.57-4-4.6v-16.49h7v-5.05h-7v-7.45l-9.99 1.5v5.95l-4 1.05v4h4v17.4z" fill="#fff"/></svg>