<svg xmlns="http://www.w3.org/2000/svg" height="20.125" width="107.67"><path d="M1.55 6.748H0V5.235l1.55-.215V3.13l3.348-.47v2.36h2.196v1.73H4.897v5.31c0 .99.27 1.495 1.242 1.495.36 0 .824-.036 1.08-.07v1.295c-.56.324-1.696.595-2.74.595-2 0-2.935-.883-2.935-3.025V6.748zm5.847 7.437l1.1-.505V2.535l-1.153-.522V1.13l4.178-.666h.27v5.618h.108c.9-.828 2.124-1.314 3.493-1.314 1.674 0 2.52.828 2.52 2.683v6.23l1.1.508v.918h-5.51v-.918l1.062-.505V8.207c0-1.044-.432-1.422-1.35-1.422-.505 0-.955.108-1.37.27v6.626l1.063.507v.918h-5.51v-.918zm15.427-3.818c.162 1.963 1.1 2.898 2.935 2.898 1.275 0 1.995-.126 2.7-.342v.973c-.47.647-1.98 1.477-3.838 1.477-3.457 0-5.24-1.91-5.24-5.33 0-3.33 1.963-5.258 4.97-5.258 3.025 0 4.483 1.35 4.483 5.582H22.82zm-.036-1.206l2.79-.16c0-2.68-.45-3.113-1.277-3.113-.914 0-1.473.594-1.51 3.277z" fill="#94B1CA"/><path d="M39.296 15.787c0 2.395-1.71 3.907-5.653 3.907-3.17 0-5.113-.99-5.113-2.34 0-1.315 1.278-1.693 2.412-1.928v-.108c-1.08-.233-1.603-1.008-1.603-1.8 0-1.063 1.112-1.91 1.69-2.306v-.107c-1.01-.56-1.676-1.55-1.676-2.88 0-2.18 1.8-3.477 4.393-3.477.81 0 1.692.253 2.322.486h.143l2.575-.504h.2v2h-.236l-1.675-.595v.072c.63.576 1.045 1.134 1.045 2.124 0 2.2-1.783 3.37-4.376 3.37-.667 0-1.117-.035-1.657-.196-.253.18-.45.47-.45.738 0 .36.323.65.72.65h3.6c2.233 0 3.33.92 3.33 2.9zm-2.9.936c0-.52-.377-.773-1.206-.773h-3.528c-.27.306-.396.647-.396 1.134 0 .702.63 1.35 2.467 1.35 2.088 0 2.664-.666 2.664-1.71zm-3.834-8.498c0 2.053.468 2.232 1.188 2.232s1.207-.216 1.207-2.232-.47-2.323-1.207-2.323c-.72 0-1.188.27-1.188 2.323zm7.793-1.332l-1.133-.523v-.92l4.195-.665h.288v7.112c0 1.152.558 1.35 1.404 1.35.554 0 .86-.09 1.202-.233v-6.12L45.2 6.37v-.92l4.194-.665h.27v8.625l1.135.594v.864l-4.09.45h-.27v-1.332h-.128c-.648.792-1.71 1.387-3.06 1.387-2.036 0-2.9-1.46-2.9-3.205V6.893zm13.05 1.278H51.84V5.546c.953-.307 2.088-.774 3.853-.774 2.7 0 4.32.79 4.32 3.06v5.853l1.063.506v.755c-.324.18-1.08.414-1.89.414-1.046 0-1.98-.343-2.144-1.423h-.09c-.45.9-1.64 1.44-2.9 1.44-1.78 0-2.897-1.152-2.897-2.827 0-2.07 1.332-2.487 3.564-2.865l1.923-.324V8.01c0-1.278-.378-1.927-1.675-1.927-.16 0-.647.018-.864.036l-.702 2.05zm3.24 2.27l-.773.07c-.774.075-1.404.598-1.404 1.55 0 1.118.612 1.48 1.26 1.48.36 0 .74-.18.92-.38v-2.72zm8.623-5.71h.288v2.13h.108c.594-1.333 1.494-2.053 2.593-2.053.18 0 .396.018.504.054v2.935c-.194-.054-.555-.09-.843-.09-.9 0-1.656.09-2.232.36v5.6l1.387.504v.936h-5.8v-.937l1.064-.505V6.838l-1.117-.52v-.92l4.05-.667zm10.116-1.98l-1.116-.5v-.92l4.195-.665h.27V13.41l1.063.594v.864l-3.98.45h-.287v-1.044h-.11c-.417.54-1.28 1.1-2.54 1.1-1.838 0-4.034-1.172-4.034-5.043 0-4.065 2.25-5.523 4.914-5.523.56 0 1.207.126 1.62.414V2.75zm0 3.8c-.252-.195-.54-.36-1.134-.36-1.062 0-1.854.958-1.854 3.8 0 2.487.63 3.567 1.962 3.567.505 0 .793-.09 1.026-.18V6.55zm8.765-1.82h.27v8.935l1.08.504v.936h-5.51v-.937l1.08-.505V6.838l-1.137-.52v-.92l4.213-.667zm.32-2.354c0 .972-.81 1.765-1.782 1.765-.99 0-1.78-.793-1.78-1.765 0-.99.79-1.783 1.78-1.783.972 0 1.783.795 1.783 1.785zm3.654 5.798H86.56v-2.63c.955-.306 2.09-.773 3.855-.773 2.7 0 4.32.79 4.32 3.06v5.853l1.063.506v.755c-.324.18-1.08.414-1.89.414-1.046 0-1.98-.343-2.144-1.423h-.09c-.45.9-1.64 1.44-2.9 1.44-1.78 0-2.897-1.152-2.897-2.827 0-2.07 1.332-2.487 3.564-2.865l1.93-.324V8.01c0-1.278-.38-1.927-1.674-1.927-.162 0-.647.018-.864.036l-.702 2.05zm3.24 2.27l-.773.07c-.773.072-1.403.595-1.403 1.55 0 1.115.61 1.476 1.26 1.476.36 0 .74-.18.92-.38v-2.72zm4.625 3.745l1.1-.506V6.838l-1.153-.52v-.884l4.176-.666h.27v1.314h.108c.9-.828 2.126-1.314 3.494-1.314 1.675 0 2.52.828 2.52 2.683v6.23l1.1.508v.918h-5.51v-.918l1.062-.505V8.207c0-1.044-.434-1.422-1.352-1.422-.504 0-.954.108-1.368.27v6.626l1.062.507v.918h-5.51v-.918z" fill="#fff"/></svg>