<?xml version="1.0" encoding="utf-8"?>
<!-- Generator: Adobe Illustrator 15.0.2, SVG Export Plug-In . SVG Version: 6.00 Build 0)  -->
<!DOCTYPE svg PUBLIC "-//W3C//DTD SVG 1.1//EN" "http://www.w3.org/Graphics/SVG/1.1/DTD/svg11.dtd">
<svg version="1.1" id="Layer_1" xmlns="http://www.w3.org/2000/svg" xmlns:xlink="http://www.w3.org/1999/xlink" x="0px" y="0px"
	 width="115px" height="21px" viewBox="-0.358 0.775 115 21" enable-background="new -0.358 0.775 115 21" xml:space="preserve">
<path fill="#73C273" d="M1.284,7.441h-1.643V5.837l1.643-0.229V3.583l3.553-0.497v2.521h2.33v1.833h-2.33v5.635
	c0,1.051,0.286,1.585,1.318,1.585c0.381,0,0.878-0.038,1.146-0.076v1.375c-0.592,0.344-1.795,0.63-2.903,0.63
	c-2.12,0-3.113-0.936-3.113-3.209V7.441L1.284,7.441z M7.568,15.33l1.165-0.535V2.972L7.511,2.418V1.482l4.431-0.707h0.286v5.959
	h0.115c0.955-0.879,2.254-1.395,3.706-1.395c1.776,0,2.674,0.879,2.674,2.846v6.609l1.165,0.535v0.974h-5.845V15.33l1.127-0.535
	V8.988c0-1.107-0.458-1.509-1.433-1.509c-0.535,0-1.012,0.114-1.452,0.287v7.029l1.127,0.535v0.974H7.568V15.33z M25.121,6.524
	c0.879,0,1.356,0.172,1.356,3.304L23.516,10C23.555,7.155,23.994,6.524,25.121,6.524z M29.934,11.28
	c0-4.488-1.546-5.921-4.756-5.921c-3.189,0-5.271,2.044-5.271,5.578c0,3.629,1.891,5.654,5.558,5.654
	c1.967,0,3.572-0.879,4.068-1.567v-1.031c-0.745,0.229-1.509,0.363-2.865,0.363c-1.948,0-2.941-0.994-3.113-3.076H29.934
	L29.934,11.28z"/>
<path fill="#0D3D00" d="M88.17,0.909c1.031,0,1.89,0.84,1.89,1.891c0,1.032-0.859,1.872-1.89,1.872c-1.051,0-1.891-0.84-1.891-1.872
	C86.279,1.749,87.119,0.909,88.17,0.909z M85.247,6.008v0.975l1.203,0.554v7.239l-1.146,0.535v0.993h5.844v-0.993l-1.146-0.535
	V5.302h-0.287L85.247,6.008z M80.301,3.201l-1.184-0.535V1.692l4.45-0.707h0.287v13.522l1.126,0.631v0.917l-4.221,0.478h-0.306
	v-1.108h-0.114c-0.439,0.573-1.356,1.166-2.693,1.166c-1.949,0-4.279-1.242-4.279-5.348c0-4.316,2.387-5.864,5.214-5.864
	c0.592,0,1.28,0.133,1.719,0.439V3.201L80.301,3.201z M80.301,7.231c-0.267-0.21-0.573-0.382-1.204-0.382
	c-1.126,0-1.967,1.012-1.967,4.03c0,2.636,0.668,3.782,2.082,3.782c0.534,0,0.84-0.096,1.088-0.191V7.231z M65.326,6.008v0.975
	l1.184,0.554v7.239l-1.127,0.535v0.993h6.15v-0.993l-1.471-0.535v-5.94c0.611-0.287,1.414-0.382,2.369-0.382
	c0.306,0,0.688,0.038,0.897,0.095V5.436c-0.114-0.038-0.344-0.057-0.535-0.057c-1.165,0-2.12,0.764-2.75,2.177h-0.115V5.302h-0.306
	L65.326,6.008z M102.323,15.33l1.165-0.535V7.537l-1.222-0.554V6.047l4.431-0.707h0.287v1.395h0.114
	c0.955-0.879,2.254-1.395,3.706-1.395c1.776,0,2.674,0.879,2.674,2.846v6.609l1.165,0.535v0.974h-5.845V15.33l1.127-0.535V8.988
	c0-1.107-0.458-1.509-1.433-1.509c-0.535,0-1.012,0.114-1.452,0.287v7.029l1.127,0.535v0.974h-5.844L102.323,15.33L102.323,15.33z
	 M36.161,19.837c-1.948,0-2.617-0.688-2.617-1.432c0-0.516,0.134-0.879,0.42-1.204h3.744c0.878,0,1.279,0.268,1.279,0.821
	C38.988,19.13,38.376,19.837,36.161,19.837z M36.18,6.543c0.783,0,1.28,0.325,1.28,2.464s-0.516,2.368-1.28,2.368
	c-0.764,0-1.261-0.19-1.261-2.368C34.919,6.83,35.416,6.543,36.18,6.543z M38.529,13.954h-3.82c-0.42,0-0.764-0.305-0.764-0.687
	c0-0.287,0.21-0.592,0.478-0.783c0.573,0.172,1.051,0.21,1.757,0.21c2.75,0,4.641-1.242,4.641-3.572c0-1.05-0.438-1.643-1.107-2.254
	V6.792l1.776,0.63h0.249v-2.12h-0.21l-2.731,0.535h-0.153c-0.669-0.249-1.604-0.516-2.464-0.516c-2.75,0-4.661,1.375-4.661,3.686
	c0,1.413,0.707,2.464,1.777,3.056v0.114c-0.611,0.42-1.795,1.318-1.795,2.445c0,0.84,0.554,1.662,1.7,1.91v0.114
	c-1.203,0.248-2.56,0.649-2.56,2.043c0,1.433,2.063,2.483,5.424,2.483c4.183,0,5.997-1.604,5.997-4.146
	C42.062,14.928,40.897,13.954,38.529,13.954z M43.247,7.594L42.044,7.04V6.066l4.45-0.707H46.8v7.545
	c0,1.222,0.592,1.433,1.49,1.433c0.592,0,0.917-0.096,1.279-0.248V7.594L48.385,7.04V6.066l4.45-0.707h0.287v9.149l1.203,0.63v0.917
	l-4.336,0.478h-0.286V15.12h-0.134c-0.687,0.84-1.814,1.471-3.247,1.471c-2.158,0-3.075-1.547-3.075-3.4V7.594L43.247,7.594z
	 M60.398,11.357l-0.821,0.076c-0.822,0.077-1.49,0.631-1.49,1.643c0,1.185,0.649,1.567,1.337,1.567c0.381,0,0.783-0.191,0.974-0.402
	V11.357z M57.152,8.95h-1.853V6.161c1.012-0.324,2.215-0.821,4.087-0.821c2.865,0,4.584,0.84,4.584,3.247v6.208l1.127,0.535v0.802
	c-0.344,0.191-1.146,0.439-2.005,0.439c-1.108,0-2.101-0.363-2.273-1.509h-0.096c-0.477,0.955-1.737,1.528-3.075,1.528
	c-1.891,0-3.075-1.222-3.075-2.999c0-2.196,1.413-2.635,3.782-3.037l2.043-0.344V8.778c0-1.356-0.4-2.043-1.776-2.043
	c-0.172,0-0.497,0.019-0.726,0.038L57.152,8.95z M97.338,11.357l-0.821,0.076c-0.821,0.077-1.49,0.631-1.49,1.643
	c0,1.185,0.649,1.567,1.337,1.567c0.381,0,0.783-0.191,0.974-0.402V11.357L97.338,11.357z M94.091,8.95h-1.853V6.161
	c1.012-0.324,2.216-0.821,4.088-0.821c2.865,0,4.583,0.84,4.583,3.247v6.208l1.126,0.535v0.802
	c-0.343,0.191-1.146,0.439-2.005,0.439c-1.108,0-2.101-0.363-2.272-1.509h-0.096c-0.478,0.955-1.738,1.528-3.075,1.528
	c-1.891,0-3.076-1.222-3.076-2.999c0-2.196,1.413-2.635,3.782-3.037l2.043-0.344V8.778c0-1.356-0.401-2.043-1.776-2.043
	c-0.172,0-0.497,0.019-0.726,0.038L94.091,8.95z"/>
</svg>
