<svg xmlns="http://www.w3.org/2000/svg" width="15" height="46.6"><path fill="#005689" d="M0 0v46.6l7.4-4.9 7.6 4.9V0H0z"/><path fill="#fff" d="M8.9 8.5H6.2c-.3 0-.6-.2-.6-.5 0-.2.2-.4.3-.6.4.1.8.2 1.3.2 2 0 3.3-.9 3.3-2.5 0-.8-.3-1.2-.8-1.6v-.1l1.3.4h.2V2.3H11l-1.9.4H9c-.5-.2-1.2-.4-1.8-.4-2 0-3.3 1-3.3 2.6 0 1 .5 1.8 1.3 2.2v.1c-.5.3-1.3 1-1.3 1.8 0 .6.4 1.2 1.2 1.4v.1c-.9.2-1.8.5-1.8 1.4 0 1 1.5 1.8 3.9 1.8 3 0 4.3-1.1 4.3-2.9-.1-1.6-.9-2.3-2.6-2.3M7.2 3.2c.6 0 .9.2.9 1.8s-.4 1.6-.9 1.6-.9-.1-.9-1.6c0-1.6.4-1.8.9-1.8m0 9.5c-1.4 0-1.9-.5-1.9-1 0-.4.1-.6.3-.9h2.7c.6 0 .9.2.9.6 0 .8-.4 1.3-2 1.3"/><path fill="#fff" d="M10.9 16.7v3.2c0 .6-.2 1.1-.5 1.5-.4.4-.9.6-1.5.6s-1.1-.2-1.5-.5c-.4-.4-.6-.9-.6-1.6v-2.3h-3v-1l7.1.1zm-1 3.8c.1-.2.2-.5.2-.9v-1.9H7.6v1.9c0 .5.1.8.3 1.1.2.3.5.4 1 .4s.8-.2 1-.6zm1 3v1H3.7v-1h7.2zm-.5 7.7c-.5.5-1 .8-1.6.8v-.9c.5-.1.8-.3 1.1-.6.3-.3.4-.8.4-1.3 0-.7-.2-1.3-.7-1.7-.6-.5-1.4-.7-2.4-.7-.8 0-1.5.2-2.1.6-.5.4-.8 1-.8 1.7s.3 1.3.8 1.6c.3.2.7.3 1.1.4v.9c-.8-.1-1.4-.4-1.9-.8-.5-.5-.8-1.2-.8-2.2 0-.8.3-1.5.8-2.1.7-.7 1.7-1.1 3.1-1.1 1.1 0 2 .3 2.6.8.7.6 1.1 1.4 1.1 2.5 0 .9-.3 1.6-.7 2.1zm.5 2.4v1H7.4l3.5 3.6v1.4L8 36.4l-4.3 3.2v-1.3l3.6-2.6-1.1-1.2H3.7v-1h7.2v.1z"/></svg>