<?xml version="1.0" encoding="utf-8"?>
<!-- Generator: Adobe Illustrator 16.0.0, SVG Export Plug-In . SVG Version: 6.00 Build 0)  -->
<!DOCTYPE svg PUBLIC "-//W3C//DTD SVG 1.1//EN" "http://www.w3.org/Graphics/SVG/1.1/DTD/svg11.dtd">
<svg version="1.1" id="Layer_1" xmlns="http://www.w3.org/2000/svg" xmlns:xlink="http://www.w3.org/1999/xlink" x="0px" y="0px"
	 width="20px" height="28px" viewBox="0 0 20 28" enable-background="new 0 0 20 28" xml:space="preserve">
<g>
	<path fill-rule="evenodd" clip-rule="evenodd" fill="#333333" d="M13.94,14.777H6.905c-0.521,0-1.16-0.516-1.16-1.155
		c0-0.481,0.388-0.998,0.884-1.332c1.056,0.3,1.941,0.369,3.248,0.369c4.702,0,7.709-2.172,7.709-6.151
		c0-1.793-0.698-2.806-1.764-3.848V2.533l2.933,1.071h0.433v-3.616h-0.369l-4.451,0.914h-0.246
		c-1.061-0.408-2.658-0.826-4.245-0.826c-5.037,0-8.397,2.167-8.397,6.171c0,2.452,1.243,4.269,3.125,5.306v0.201
		c-1.076,0.737-3.159,2.25-3.159,4.201c0,1.488,0.973,2.938,2.993,3.38v0.202c-2.211,0.438-4.481,1.165-4.481,3.867
		c0,2.721,3.449,4.559,9.434,4.559c7.498,0,10.652-2.854,10.652-7.753c0-3.714-2.024-5.434-6.176-5.434H13.94z M9.597,1.978
		c1.671,0,2.644,0.565,2.644,4.27c0,3.709-1.007,4.102-2.506,4.102c-1.494,0-2.466-0.329-2.466-4.102c0-3.774,0.972-4.27,2.466-4.27
		H9.597z M9.563,25.625c-3.538,0-4.751-1.331-4.751-2.776c0-0.998,0.241-1.7,0.761-2.334h6.8c1.596,0,2.323,0.521,2.323,1.592
		C14.697,24.255,13.586,25.625,9.563,25.625z"/>
</g>
</svg>
