<svg xmlns="http://www.w3.org/2000/svg" width="300" height="53" viewBox="0 0 300 53"><path fill="#9BD5E0" d="M5.5 18h-5v-4.9l5-.6v-5.2l9-1.2v6.9h6v5h-6v14.1c0 2.7.6 4.1 3.2 4.1 1 0 2.8-.1 2.8-.2v3.6c-1 .9-4.3 1.7-7.2 1.7-5.5 0-7.8-2.4-7.8-8.3v-15zm16 19.8l3-1.4v-30.7l-3-1.5v-2.4l11.1-1.8h.9v16h.2c2.4-3 5.9-3.9 9.7-3.9 4.6 0 7.1 2.1 7.1 7.1v17.2l3 1.4v3.2h-15v-3.1l3-1.4v-15c0-2.9-1.5-3.9-4-3.9-1.4 0-3 .3-4 .8v18.2l3 1.4v3h-15v-3.2zm42.1-10.8c.4 6 3.2 8.2 8.3 8.2 3.5 0 5.6-.2 7.6-.9v2.7c-2 1.8-5.7 4.1-10.7 4.1-9.5 0-14.5-5.3-14.5-14.7 0-9.2 5.3-14.6 13.5-14.6 8.3 0 12.2 4.2 12.2 15.2h-16.4zm0-3l7.6-.4c0-7.4-1.2-8.6-3.5-8.6-2.5-.1-4.1 1.6-4.1 9z"/><path fill="#fff" d="M108.9 42.1c0 6.6-4.7 10.9-15.6 10.9-8.7 0-14.2-2.7-14.2-6.4 0-3.6 3.4-4.7 6.4-5.3v-.3c-3-.6-4.5-2.8-4.5-5 0-3 3.5-5.3 4.5-6.3v-.3c-2-1.6-4.4-4.3-4.4-7.9 0-6 5.1-9.7 12.2-9.7 2.3 0 4.7 1.2 6.4 1.2h.4l7-1h.3v5h-.4l-4.6-1.4v.2c1.7 1.6 2.9 3.1 2.9 5.8 0 6.1-4.9 9.3-12 9.3-1.8 0-3-.1-4.5-.5-.7.5-1.2 1.2-1.2 1.9 0 1 .9 1.7 2 1.7h9.9c6.4 0 9.4 2.7 9.4 8.1zm-8 2.9c0-1.5-1-2-3.3-2h-9.7c-.8 1-1.1 1.6-1.1 2.9 0 1.9 1.7 3.7 6.8 3.7 5.8.1 7.3-1.7 7.3-4.6zm-10.5-23.6c0 5.6 1.3 6.2 3.3 6.2s3.3-.6 3.3-6.2-1.3-6.4-3.3-6.4c-2-.1-3.3.7-3.3 6.4zm18.1-5.2v-2.5l11.8-1.7h1.2v19.5c0 3.2 1.6 3.7 3.7 3.7 1.6 0 2.3-.3 3.3-.6v-16.9l-3-1.5v-2.5l11.3-1.7h.7v23.7l3 1.7v2.3l-11 1.3h-1v-4h-.1c-1.7 3-4.9 3.9-8.6 3.9-5.6 0-7.2-4-7.2-8.9v-14l-4.1-1.8zm39.1 4.8h-4.1v-7c2-.9 5.5-2.2 10.3-2.2 7.4 0 11.7 2.2 11.7 8.4v16.2l3 1.4v2.1c-1 .5-2.8 1-5.1 1-2.9 0-5.3-1-5.7-4h-.3c-1.2 3-4.5 4-8 4-4.9 0-8-3.2-8-7.8 0-5.7 3.6-6.9 9.8-7.9l5.3-.9v-3.7c0-3.6-1-4.8-4.6-4.8h-2.3l-2 5.2zm8.9 6.5l-2.1.2c-2.1.2-3.8 1.7-3.8 4.3 0 3 1.7 4.1 3.5 4.1 1 0 2-.5 2.5-1l-.1-7.6zm23.7-15.5h1.3v6h.6c1.7-4 3.2-5.9 6.2-5.9.5 0 1.2-.1 1.2 0v8.1c0-.2-1.3-.3-2-.3-2.4 0-5 .3-6 1v16.5l4 1.4v2.2h-16v-2.2l3-1.4v-19.8l-3-1.5v-2.5l10.7-1.6zm28.3-6l-4-1.1v-2.6l12.1-1.3h.9v34.6l3 1.7v2.3l-11 1.4h-1v-3h-.1c-1.1 1.5-3.5 3-7 3-5 0-11-3.2-11-13.9 0-11.2 6.2-15.2 13.5-15.2 1.6 0 3.5.3 4.6 1.1v-7zm0 11c0-.5-2.2-1.2-3.9-1.2-3 0-5 2.6-5 10.5 0 6.9 1.5 9.8 5.2 9.8 1.4 0 3.6-.9 3.6-1.1v-18zm23.5-5h.5v25.3l3 1.4v2.3h-15v-2.3l3-1.4v-19.7l-3-1.5v-2.5l11.5-1.6zm.9-6.7c0 2.7-2.3 4.9-4.9 4.9-2.7 0-4.9-2.2-4.9-4.9s2.2-5 4.9-5c2.6 0 4.9 2.2 4.9 5zm10.1 15.7h-4.5v-7c3-.9 5.9-2.2 10.8-2.2 7.4 0 12.2 2.2 12.2 8.4v16.2l3 1.4v2.1c-1 .5-3.2 1-5.3 1-2.9 0-5.7-1-6.1-4h-.3c-1.2 3-4.5 4-8 4-4.9 0-8-3.2-8-7.8 0-5.7 3.4-6.9 9.6-7.9l6.1-.4v-4c0-3.6-1.8-5-5.4-5h-2.2l-1.9 5.2zm6.7 6.7c-2.1.2-3.8 1.7-3.8 4.3 0 3 1.7 4.1 3.5 4.1 1 0 2.6-.6 3.1-1.1v-8l-2.8.7zm14.8 11.3l3-1.6v-19.8l-3-1.5v-2.4l11.4-1.7h.6v4h.5c2.4-3 5.8-3.9 9.5-3.9 4.6 0 7 2.1 7 7.1v18.2l3 1.4v2.2h-15v-2.1l3-1.4v-16c0-2.9-1-3.9-3.5-3.9-1.4 0-3.5.9-4.5 1.4v18l4 2v2h-16v-2z"/></svg>