<?xml version="1.0" encoding="utf-8"?>
<!-- Generator: Adobe Illustrator 16.0.0, SVG Export Plug-In . SVG Version: 6.00 Build 0)  -->
<!DOCTYPE svg PUBLIC "-//W3C//DTD SVG 1.1//EN" "http://www.w3.org/Graphics/SVG/1.1/DTD/svg11.dtd">
<svg version="1.1" id="Layer_1" xmlns="http://www.w3.org/2000/svg" xmlns:xlink="http://www.w3.org/1999/xlink" x="0px" y="0px"
	 width="99.514px" height="28px" viewBox="0 0 99.514 28" enable-background="new 0 0 99.514 28" xml:space="preserve">
<g enable-background="new    ">
	<path fill="#004179" d="M19.591,20.278c0,4.256-3.04,6.943-10.047,6.943c-5.632,0-9.087-1.76-9.087-4.159
		c0-2.336,2.272-3.008,4.288-3.424v-0.192c-1.92-0.416-2.848-1.792-2.848-3.199c0-1.889,1.984-3.393,3.008-4.096v-0.192
		C3.112,10.967,1.928,9.207,1.928,6.84c0-3.872,3.2-6.176,7.808-6.176c1.44,0,3.008,0.448,4.128,0.864h0.256l4.576-0.896h0.352
		v3.552h-0.416l-2.976-1.056v0.128c1.12,1.024,1.856,2.016,1.856,3.775c0,3.904-3.167,5.983-7.775,5.983
		c-1.184,0-1.984-0.063-2.944-0.352c-0.448,0.32-0.8,0.832-0.8,1.312c0,0.641,0.576,1.152,1.28,1.152h6.399
		C17.639,15.127,19.591,16.759,19.591,20.278z M14.439,21.942c0-0.928-0.672-1.376-2.144-1.376H6.024
		c-0.48,0.544-0.704,1.152-0.704,2.016c0,1.248,1.12,2.4,4.383,2.4C13.415,24.982,14.439,23.798,14.439,21.942z M7.624,6.84
		c0,3.647,0.832,3.967,2.112,3.967s2.144-0.384,2.144-3.967c0-3.584-0.832-4.128-2.144-4.128C8.456,2.712,7.624,3.191,7.624,6.84z"
		/>
</g>
<g enable-background="new    ">
	<path fill="#95B3CD" d="M47.815,23.132V4.848l-2.268-0.336V3.7l3.752-0.476l0.252,0.112v7.756h0.112
		c1.232-0.896,2.66-1.652,4.648-1.652c2.828,0,5.628,1.512,5.628,6.944c0,5.265-2.744,7.896-7,7.896
		C50.755,24.28,48.99,23.72,47.815,23.132z M58.034,16.748c0-4.452-1.848-5.852-4.535-5.852c-1.568,0-2.912,0.588-3.893,1.147v10.08
		c0.756,0.504,1.736,1.008,3.557,1.008C56.074,23.132,58.034,21.452,58.034,16.748z"/>
	<path fill="#95B3CD" d="M61.591,16.776c0-4.62,2.771-7.336,6.299-7.336c3.864,0,5.685,2.688,5.685,7.168H63.466
		c0.028,4.06,1.596,6.327,5.236,6.327c2.1,0,3.276-0.447,4.284-0.867v0.951c-0.896,0.532-2.324,1.261-4.62,1.261
		C63.41,24.28,61.591,21.06,61.591,16.776z M71.558,15.376c-0.027-3.248-1.344-4.788-3.779-4.788c-2.549,0-4.088,1.736-4.284,4.956
		L71.558,15.376z"/>
	<path fill="#95B3CD" d="M76.823,20.92v-9.968h-2.1v-0.756l2.212-0.504l0.336-3.388h1.344v3.388h3.92v1.26h-3.92v9.604
		c0,1.736,0.616,2.408,2.324,2.408c0.672,0,1.315-0.112,1.904-0.28v0.812c-0.589,0.364-1.624,0.728-2.633,0.728
		C78.055,24.224,76.823,23.384,76.823,20.92z"/>
	<path fill="#95B3CD" d="M84.074,20.444c0-2.437,1.736-3.444,4.368-3.864l3.892-0.616v-1.848c0-2.38-0.56-3.22-3.22-3.22
		c-1.372,0-2.828,0.224-3.948,0.504v-0.98c1.093-0.476,2.912-0.98,4.677-0.98c2.968,0,4.312,1.316,4.312,4.172V21.9
		c0,1.035,0.532,1.26,1.4,1.26c0.168,0,0.728-0.028,0.812-0.057v0.757c-0.308,0.168-1.063,0.363-1.848,0.363
		c-1.148,0-1.849-0.531-1.988-1.596h-0.112c-0.896,0.952-2.212,1.68-4.031,1.68C85.782,24.308,84.074,22.824,84.074,20.444z
		 M92.334,21.62v-4.368l-3.332,0.252c-2.268,0.168-3.052,1.148-3.052,2.744c0,1.764,1.008,2.771,3.052,2.771
		C90.347,23.02,91.635,22.404,92.334,21.62z"/>
</g>
<line fill="none" stroke="#95B3CD" stroke-miterlimit="10" x1="32.591" y1="0" x2="32.591" y2="28"/>
</svg>
