<?xml version="1.0" encoding="utf-8"?>
<!-- Generator: Adobe Illustrator 15.1.0, SVG Export Plug-In . SVG Version: 6.00 Build 0)  -->
<!DOCTYPE svg PUBLIC "-//W3C//DTD SVG 1.1//EN" "http://www.w3.org/Graphics/SVG/1.1/DTD/svg11.dtd">
<svg version="1.1" id="Layer_1" xmlns="http://www.w3.org/2000/svg" xmlns:xlink="http://www.w3.org/1999/xlink" x="0px" y="0px"
	 width="175px" height="31px" viewBox="0 0 175 31" enable-background="new 0 0 175 31" xml:space="preserve">
<polyline fill="#00528C" points="129.986,7.928 129.986,9.594 131.801,10.433 131.801,20.912 130.07,21.713 130.07,23.583 
	139.321,23.583 139.321,21.713 137.591,20.912 137.591,6.846 137.136,6.846 129.986,7.928 "/>
<path fill="#00528C" d="M155.903,21.896l1.726-0.796V10.446l-1.816-0.839V7.939l6.903-1.081h0.457v2.169h0.177
	c1.459-1.324,3.419-2.149,5.623-2.149c2.739,0,4.292,1.368,4.292,4.355v9.866L175,21.896v1.687h-9.167v-1.687l1.643-0.796v-8.466
	c0-1.651-0.542-2.271-2.013-2.271c-0.803,0-1.39,0.148-2.044,0.413v10.324l1.64,0.796v1.687h-9.155V21.896z"/>
<path fill="#00528C" d="M122.225,20.519V9.891c-0.417-0.324-0.673-0.59-1.654-0.59c-1.696,0-2.808,1.348-2.808,5.944
	c0,4.026,1.11,5.59,2.98,5.59C121.575,20.835,121.858,20.667,122.225,20.519 M122.226,3.762l-1.809-0.835V1.26l7.146-1.081h0.455
	v20.419l1.719,0.944v1.598l-6.622,0.729l-0.459-0.002V22.17h-0.181c-0.679,0.866-2.075,1.766-4.099,1.766
	c-2.975,0-6.704-1.885-6.704-8.132c0-6.569,3.809-8.926,8.123-8.926c0.89,0,1.776,0.206,2.431,0.677V3.762z"/>
<path fill="#A9C2D9" d="M2.31,19.044v-8.733H0V7.566l2.31-0.334V4.157l5.759-0.755v3.83h3.385v3.08H8.069v8.076
	c0,1.591,0.929,2.417,2.073,2.417c0.566,0,1.098-0.067,1.491-0.134v2.293c-0.881,0.511-2.72,0.942-4.415,0.942
	C4.003,23.905,2.31,22.49,2.31,19.044"/>
<path fill="#A9C2D9" d="M36.218,15.892h9.529c0-6.835-2.352-9.014-7.232-9.014c-4.851,0-8.221,3.123-8.221,8.484
	c0,5.539,3.073,8.568,8.668,8.568c3.005,0,5.349-1.296,6.375-2.324v-1.776c-1.131,0.353-2.293,0.559-4.376,0.559
	C38.182,20.39,36.401,18.925,36.218,15.892z M38.426,8.849c1.056,0,1.896,1.135,1.896,4.647l-4.097,0.166
	C36.356,9.393,37.042,8.849,38.426,8.849z"/>
<path fill="#00528C" d="M99.414,7.939v1.668l1.814,0.839v10.653l-1.73,0.8v1.683h9.559v-1.683l-2.038-0.8l-0.002-8.573
	c0.922-0.442,1.956-0.589,3.413-0.589c0.477,0,1.042,0.059,1.369,0.147V6.967c-0.179-0.058-0.535-0.088-0.804-0.088
	c-1.785,0-3.056,1.335-4.009,3.516h-0.179V6.846h-0.455L99.414,7.939"/>
<path fill="#00528C" d="M87.721,9.439l-1.023,2.948h-2.801V8.116c1.517-0.471,3.547-1.238,6.404-1.238
	c4.345,0,7.142,1.285,7.142,4.938v9.217l1.725,0.803v1.417c-0.53,0.283-1.917,0.646-3.226,0.646c-1.697,0-3.217-0.54-3.467-2.298
	h-0.149c-0.721,1.458-2.833,2.329-4.857,2.329c-2.887,0-4.561-1.856-4.561-4.567c0-3.327,2.248-4.053,5.819-4.79l2.936-0.53v-1.914
	c0-2.091-0.443-2.759-2.525-2.759C88.668,9.369,88.049,9.406,87.721,9.439z M91.661,20.179v-4.213l-1.072,0.122
	c-1.254,0.119-1.953,0.952-1.953,2.51c0,1.68,0.659,2.199,1.703,2.199C90.937,20.797,91.362,20.503,91.661,20.179"/>
<path fill="#00528C" d="M144.125,9.439l-1.025,2.948h-2.8V8.116c1.517-0.471,3.547-1.238,6.404-1.238
	c4.344,0,7.141,1.285,7.141,4.938v9.217l1.726,0.803v1.417c-0.531,0.283-1.917,0.646-3.227,0.646c-1.696,0-3.218-0.54-3.468-2.298
	h-0.149c-0.721,1.458-2.833,2.329-4.857,2.329c-2.887,0-4.561-1.856-4.561-4.567c0-3.327,2.249-4.053,5.82-4.79l2.935-0.53v-1.914
	c0-2.091-0.441-2.759-2.525-2.759C145.073,9.369,144.453,9.406,144.125,9.439z M148.064,20.179v-4.213l-1.071,0.122
	c-1.254,0.119-1.953,0.952-1.953,2.51c0,1.68,0.661,2.199,1.702,2.199C147.341,20.797,147.766,20.503,148.064,20.179"/>
<path fill="#00528C" d="M65.784,10.062L64.15,9.223V7.929l6.959-1.08h0.458v11.292c0,1.857,0.87,2.184,2.239,2.184
	c0.723,0,1.152-0.148,1.613-0.381v-9.882L73.6,9.223V7.929l7.151-1.08h0.454v13.926l1.805,0.944v1.411l-6.764,0.728l-0.459-0.003
	l-0.005-2.262h-0.178c-1.042,1.296-2.758,2.333-4.961,2.333c-3.273,0-4.858-2.331-4.858-5.16V10.062z"/>
<path fill="#A9C2D9" d="M11.924,21.896l1.726-0.796V3.75l-1.816-0.837V1.245l7.091-1.081h0.456v8.864h0.179
	c1.457-1.324,3.231-2.149,5.433-2.149c2.74,0,4.293,1.368,4.293,4.355v9.866l1.734,0.796v1.687h-9.167v-1.687l1.643-0.796v-8.466
	c0-1.651-0.541-2.271-2.012-2.271c-0.804,0-1.39,0.148-2.044,0.413v10.324l1.64,0.796v1.687h-9.155V21.896z"/>
<path fill="#00528C" d="M134.585,0c1.682,0,3.046,1.365,3.046,3.046c0,1.684-1.365,3.047-3.046,3.047
	c-1.685,0-3.049-1.363-3.049-3.047C131.536,1.365,132.901,0,134.585,0"/>
<path fill="#00528C" d="M59.04,19.84H53.5c-0.816,0-1.247-0.293-1.247-0.853c0-0.414,0.282-0.846,0.642-1.158
	c0.792,0.19,1.655,0.286,2.568,0.286c4.161,0,7.163-1.942,7.163-5.453c0-1.348-0.471-2.501-1.523-3.343V9.102l2.393,0.806h0.364
	V6.65h-0.315l-3.74,1.181h-0.31c-1.071-0.6-2.322-0.952-4.031-0.952c-4.172,0-7.194,2.012-7.194,5.618
	c0,2.072,1.128,3.712,2.797,4.652v0.256c-1.429,0.543-2.732,1.866-2.732,3.413c0,1.597,0.996,2.986,2.396,3.404v0.22
	c-1.834,0.383-3.521,1.105-3.521,2.871c0,2.181,2.837,3.687,7.955,3.687c6.363,0,9.236-2.434,9.236-6.309
	C64.4,21.508,62.635,19.84,59.04,19.84z M55.464,8.919c1.176,0,1.754,0.741,1.754,3.578s-0.588,3.401-1.754,3.401
	s-1.736-1.044-1.736-3.401S54.287,8.919,55.464,8.919z M55.164,28.872c-2.726,0-3.344-0.945-3.344-2.078
	c0-0.706,0.206-1.147,0.624-1.638h5.4c1.338,0,1.95,0.551,1.95,1.396C59.794,27.951,58.404,28.872,55.164,28.872z"/>
</svg>
