<?xml version="1.0" encoding="utf-8"?>
<!-- Generator: Adobe Illustrator 16.0.0, SVG Export Plug-In . SVG Version: 6.00 Build 0)  -->
<!DOCTYPE svg PUBLIC "-//W3C//DTD SVG 1.1//EN" "http://www.w3.org/Graphics/SVG/1.1/DTD/svg11.dtd">
<svg version="1.1" id="Layer_1" xmlns="http://www.w3.org/2000/svg" xmlns:xlink="http://www.w3.org/1999/xlink" x="0px" y="0px"
	 width="107.667px" height="20.125px" viewBox="0 0 107.667 20.125" enable-background="new 0 0 107.667 20.125"
	 xml:space="preserve">
<rect x="289" y="3.5" fill="#FFFFFF" width="18" height="2"/>
<rect x="289" y="8.5" fill="#FFFFFF" width="18" height="2"/>
<rect x="289" y="13.5" fill="#FFFFFF" width="18" height="2"/>
<g>
	<path fill="#94B1CA" d="M1.549,6.748H0V5.235L1.549,5.02V3.129l3.349-0.468V5.02h2.196v1.729H4.897v5.312
		c0,0.99,0.271,1.494,1.242,1.494c0.36,0,0.828-0.036,1.08-0.071v1.296c-0.558,0.324-1.692,0.595-2.736,0.595
		c-1.999,0-2.935-0.883-2.935-3.025V6.748z"/>
	<path fill="#94B1CA" d="M7.397,14.185l1.099-0.505V2.535L7.344,2.013V1.131l4.178-0.667h0.27v5.618h0.108
		c0.9-0.828,2.124-1.314,3.493-1.314c1.674,0,2.521,0.828,2.521,2.683v6.229l1.099,0.505v0.918h-5.51v-0.918l1.062-0.505V8.206
		c0-1.044-0.432-1.422-1.35-1.422c-0.505,0-0.955,0.108-1.369,0.27v6.626l1.062,0.505v0.918h-5.51V14.185z"/>
	<path fill="#94B1CA" d="M22.824,10.367c0.162,1.963,1.099,2.898,2.935,2.898c1.279,0,1.999-0.126,2.701-0.342v0.973
		c-0.468,0.647-1.98,1.477-3.835,1.477c-3.457,0-5.239-1.909-5.239-5.33c0-3.331,1.962-5.258,4.969-5.258
		c3.025,0,4.483,1.351,4.483,5.582H22.824z M22.788,9.161l2.791-0.162c0-2.683-0.45-3.115-1.278-3.115
		C23.383,5.884,22.824,6.478,22.788,9.161z"/>
	<path fill="#FFFFFF" d="M39.296,15.787c0,2.395-1.71,3.907-5.653,3.907c-3.169,0-5.113-0.991-5.113-2.341
		c0-1.314,1.278-1.692,2.412-1.927v-0.108c-1.08-0.233-1.603-1.008-1.603-1.801c0-1.062,1.116-1.908,1.692-2.305v-0.107
		c-1.008-0.559-1.674-1.549-1.674-2.881c0-2.179,1.8-3.476,4.393-3.476c0.811,0,1.693,0.253,2.323,0.486h0.144l2.575-0.504h0.198
		V6.73h-0.234l-1.675-0.595v0.072c0.631,0.576,1.045,1.134,1.045,2.124c0,2.197-1.783,3.367-4.376,3.367
		c-0.666,0-1.116-0.036-1.656-0.197c-0.252,0.18-0.45,0.468-0.45,0.737c0,0.36,0.324,0.648,0.721,0.648h3.601
		C38.198,12.888,39.296,13.807,39.296,15.787z M36.397,16.723c0-0.521-0.378-0.773-1.207-0.773h-3.528
		c-0.271,0.306-0.396,0.647-0.396,1.134c0,0.702,0.63,1.351,2.467,1.351C35.821,18.434,36.397,17.768,36.397,16.723z M32.562,8.225
		c0,2.053,0.468,2.232,1.188,2.232c0.721,0,1.207-0.216,1.207-2.232s-0.469-2.323-1.207-2.323
		C33.03,5.901,32.562,6.172,32.562,8.225z"/>
	<path fill="#FFFFFF" d="M40.355,6.893L39.222,6.37V5.451l4.195-0.666h0.288v7.112c0,1.152,0.558,1.351,1.404,1.351
		c0.558,0,0.864-0.09,1.206-0.234V6.893L45.199,6.37V5.451l4.195-0.666h0.27v8.625l1.135,0.594v0.864l-4.087,0.45h-0.271v-1.332
		h-0.126c-0.648,0.792-1.711,1.387-3.061,1.387c-2.035,0-2.899-1.459-2.899-3.205V6.893z"/>
	<path fill="#FFFFFF" d="M53.405,8.171h-1.566V5.542c0.954-0.307,2.089-0.774,3.854-0.774c2.7,0,4.321,0.792,4.321,3.061v5.852
		l1.062,0.505v0.756c-0.324,0.18-1.081,0.414-1.891,0.414c-1.045,0-1.98-0.342-2.143-1.422h-0.091
		c-0.449,0.899-1.638,1.44-2.898,1.44c-1.782,0-2.898-1.152-2.898-2.827c0-2.07,1.332-2.485,3.564-2.863l1.927-0.324v-1.35
		c0-1.278-0.378-1.927-1.675-1.927c-0.162,0-0.647,0.018-0.864,0.036L53.405,8.171z M56.646,10.439l-0.774,0.071
		c-0.774,0.072-1.404,0.595-1.404,1.549c0,1.116,0.612,1.477,1.261,1.477c0.359,0,0.738-0.18,0.918-0.378V10.439z"/>
	<path fill="#FFFFFF" d="M65.268,4.731h0.288v2.125h0.108c0.594-1.333,1.494-2.053,2.593-2.053c0.18,0,0.396,0.018,0.504,0.054
		v2.935c-0.198-0.054-0.559-0.09-0.847-0.09c-0.9,0-1.656,0.09-2.232,0.36v5.6l1.387,0.504v0.937h-5.798v-0.937l1.062-0.504V6.838
		l-1.117-0.521V5.397L65.268,4.731z"/>
	<path fill="#FFFFFF" d="M75.384,2.751l-1.116-0.504V1.328l4.195-0.666h0.271V13.41l1.062,0.594v0.864l-3.979,0.45h-0.288v-1.044
		H75.42c-0.414,0.54-1.278,1.099-2.538,1.099c-1.837,0-4.033-1.171-4.033-5.042c0-4.069,2.25-5.527,4.915-5.527
		c0.559,0,1.206,0.126,1.62,0.414V2.751z M75.384,6.55c-0.252-0.198-0.54-0.36-1.134-0.36c-1.062,0-1.854,0.955-1.854,3.8
		c0,2.484,0.63,3.564,1.962,3.564c0.505,0,0.793-0.09,1.026-0.18V6.55z"/>
	<path fill="#FFFFFF" d="M84.149,4.731h0.27v8.931l1.081,0.504v0.937h-5.51v-0.937l1.08-0.504V6.838l-1.134-0.521V5.397
		L84.149,4.731z M84.474,2.373c0,0.972-0.811,1.765-1.783,1.765c-0.99,0-1.782-0.793-1.782-1.765c0-0.99,0.792-1.783,1.782-1.783
		C83.663,0.59,84.474,1.383,84.474,2.373z"/>
	<path fill="#FFFFFF" d="M88.127,8.171h-1.566V5.542c0.954-0.307,2.089-0.774,3.854-0.774c2.7,0,4.321,0.792,4.321,3.061v5.852
		l1.062,0.505v0.756c-0.324,0.18-1.081,0.414-1.891,0.414c-1.045,0-1.98-0.342-2.143-1.422h-0.091
		c-0.45,0.899-1.638,1.44-2.898,1.44c-1.782,0-2.898-1.152-2.898-2.827c0-2.07,1.332-2.485,3.564-2.863l1.927-0.324v-1.35
		c0-1.278-0.378-1.927-1.675-1.927c-0.162,0-0.647,0.018-0.864,0.036L88.127,8.171z M91.368,10.439l-0.774,0.071
		c-0.774,0.072-1.404,0.595-1.404,1.549c0,1.116,0.612,1.477,1.261,1.477c0.359,0,0.738-0.18,0.918-0.378V10.439z"/>
	<path fill="#FFFFFF" d="M95.992,14.185l1.099-0.505V6.838l-1.152-0.521V5.434l4.177-0.666h0.271v1.314h0.107
		c0.9-0.828,2.125-1.314,3.493-1.314c1.675,0,2.521,0.828,2.521,2.683v6.229l1.099,0.505v0.918h-5.51v-0.918l1.062-0.505V8.206
		c0-1.044-0.433-1.422-1.351-1.422c-0.504,0-0.954,0.108-1.368,0.27v6.626l1.062,0.505v0.918h-5.51V14.185z"/>
</g>
<polyline fill="none" stroke="#FFFFFF" stroke-miterlimit="10" points="247.688,-0.281 253.594,5.625 259.5,-0.281 "/>
</svg>
