<svg xmlns="http://www.w3.org/2000/svg" height="46.624" width="15"><path fill="#005689" d="M0 0v46.624l7.412-4.874L15 46.624V0z"/><path d="M8.892 8.477h-2.72c-.3 0-.544-.217-.544-.49 0-.203.15-.42.34-.557.408.122.748.15 1.252.15 1.958 0 3.304-.884 3.304-2.544 0-.748-.312-1.17-.787-1.604v-.055l1.263.45h.177v-1.51h-.15l-1.944.38h-.11C8.5 2.52 7.833 2.33 7.22 2.33c-1.96 0-3.32.98-3.32 2.625 0 1.006.504 1.754 1.266 2.176v.09c-.435.3-1.278.94-1.278 1.74 0 .6.394 1.184 1.21 1.36v.083c-.857.177-1.822.46-1.822 1.455 0 1.02 1.468 1.77 3.862 1.77 2.978 0 4.27-1.143 4.27-2.95 0-1.498-.83-2.19-2.516-2.19M7.22 3.2c.558 0 .91.232.91 1.755S7.765 6.64 7.22 6.64s-.898-.135-.898-1.685S6.676 3.2 7.22 3.2m-.014 9.466c-1.387 0-1.863-.49-1.863-1.02 0-.367.095-.626.3-.857h2.665c.625 0 .91.19.91.58 0 .79-.434 1.29-2.012 1.29" fill="#fff"/><path d="M10.906 16.706v3.23c0 .636-.18 1.152-.542 1.544-.362.393-.87.59-1.525.59-.57 0-1.06-.175-1.48-.526-.418-.35-.626-.886-.626-1.607v-2.252H3.69v-.977h7.215zm-.992 3.79c.103-.214.152-.508.152-.882v-1.93h-2.5v1.93c0 .435.092.79.28 1.06.187.27.516.407.987.407.53 0 .89-.19 1.08-.58zm.992 3.045v.99H3.69v-.98h7.216zm-.526 7.68c-.48.5-1.028.776-1.64.83v-.95c.464-.105.833-.317 1.104-.635.27-.315.408-.76.408-1.333 0-.695-.252-1.258-.75-1.687-.5-.43-1.266-.645-2.3-.645-.844 0-1.53.195-2.056.583-.526.39-.79.966-.79 1.73 0 .71.277 1.247.83 1.616.29.2.674.346 1.15.44v.954c-.76-.084-1.397-.363-1.91-.834C3.81 30.725 3.5 29.96 3.5 29c0-.826.253-1.52.762-2.084.67-.74 1.708-1.11 3.11-1.11 1.066 0 1.94.28 2.622.834.74.6 1.11 1.43 1.11 2.484 0 .905-.242 1.605-.724 2.103zm.526 2.36v.95H7.374l3.532 3.61v1.37l-2.91-3.084L3.69 39.57v-1.28l3.628-2.587-1.11-1.175H3.69v-.952h7.216z" fill="#fff"/></svg>