<svg xmlns="http://www.w3.org/2000/svg" width="160" height="30" viewBox="0 0 320 60"><path d="M284 45h16v-2.954l-3.037-1.545v-20.001c1.191-.873 2.758-1.139 4.271-1.139 2.758 0 3.765.938 3.765 4.139v17.001l-3 1.545v2.954h16v-2.954l-3-1.545v-19.001c0-5.685-2.196-8.321-7.224-8.321-4.108 0-8.11 1.49-10.813 4.029v-4.208h-.963l-12.391 2.221v2.704l3.391 1.574v21.001l-3 1.545v2.954zm-38.726-44.626c-2.973 0-5.352 2.429-5.352 5.465 0 2.981 2.379 5.409 5.352 5.409 2.92 0 5.353-2.428 5.353-5.409 0-3.036-2.433-5.465-5.353-5.465zm-8.272 14.738v2.815l2.998 1.574v20.946l-2.998 1.545v3.009h15.998v-3.009l-3-1.545v-27.377h-1l-11.998 2.043zm-14.069 23.937c-.73.615-1.568 1.067-3.081 1.067-4.001 0-5.893-3.311-5.893-10.929 0-8.72 2.379-11.645 5.568-11.645 1.785 0 2.676.569 3.406 1.389v20.119zm0-24.489c-1.243-.884-3.189-1.384-4.866-1.384-7.443 0-14.479 4.356-14.479 16.831 0 11.867 7.086 15.683 11.831 15.683 3.784 0 6.379-1.711 7.623-3.366h.324v3.259h.866l11.948-1.437v-2.25l-3.19-1.821v-39.479h-.811l-12.596 2.042v2.816l3.351 1.545v7.562zm-41.933 3.441l3.018 1.527v20.919l-3.018 1.545v3.009h17v-3.009l-3.927-1.545v-16.389c1.779-1.429 4.001-1.881 6.703-1.881.865 0 1.628.158 2.223.324v-9c-.325-.11-.655-.21-1.196-.21-3.298 0-5.947 2.153-7.731 6.237v-6.458h-1.073l-12 1.931v3zm-19.263-.792c3.892 0 5.028 1.987 5.028 5.906l-.008 3.488-5.765 1.105c-5.902 1.112-10.354 2.942-10.354 9.29 0 5.133 3.531 8.691 8.341 8.691 3.785 0 7.353-1.655 8.704-4.416h.271c.487 3.312 3.298 4.361 6.433 4.361 2.433 0 4.785-.602 5.677-1.634v-2l-3.065-1.5v-18c0-6.954-4.99-9.435-13.1-9.435-5.299 0-8.761 1.35-11.569 2.717v7.829h4.703l2.032-6.062c.715-.325 2.186-.341 2.672-.341zm2.271 22.851c-1.947 0-4.008-1.137-4.008-4.559 0-2.442 2.386-4.656 4.753-5.026l2.247-.474v8.5s-1.911 1.559-2.992 1.559zm100.729-22.851c3.892 0 5.028 1.987 5.028 5.906l-.008 3.488-5.765 1.105c-5.902 1.112-10.354 2.942-10.354 9.29 0 5.133 3.531 8.691 8.341 8.691 3.785 0 7.353-1.655 8.704-4.416h.271c.487 3.312 3.298 4.361 6.433 4.361 2.433 0 4.785-.602 5.677-1.634v-2l-3.065-1.5v-18c0-6.954-4.99-9.435-13.1-9.435-5.299 0-8.761 1.35-11.569 2.717v7.829h4.703l2.032-6.062c.715-.325 2.186-.341 2.672-.341zm2.271 22.851c-1.947 0-4.008-1.137-4.008-4.559 0-2.442 2.386-4.656 4.753-5.026l2.247-.474v8.5s-1.911 1.559-2.992 1.559zm-138.731 5.63c.44 0 .875-.021 1.305-.063 3.536-.339 6.682-2.022 8.418-4.187v4.061l12-1.5v-2l-3-2v-27h-1l-11.884 2.277v2.814l3.884 1.601v18.308c-1.122.758-2.424 1.339-4.199 1.339-2.541 0-4.801-.807-4.801-4.339v-22h-1l-12 2.5v2.591l4 1.601v16.308c0 5.355 2.168 9.689 8.277 9.689zm-32.277-7.689c-1.189 0-2.538-.811-2.538-1.915 0-.828.594-1.711 1.351-2.263 1.622.497 2.974.607 4.974.607 7.785 0 13.213-3.695 13.213-10.429 0-3.036-1.319-4.639-3.211-6.406l5.211 1.406v-5.99l-8.239 1.605c-1.892-.719-4.541-1.605-6.974-1.605-7.785 0-13.191 4.088-13.191 10.766 0 4.085 2.001 7.12 5.028 8.832l.241.153c-1.73 1.215-5.27 3.982-5.27 7.239 0 2.428 1.514 4.806 4.758 5.524-3.406.726-7.353 2.446-7.353 6.476 0 4.14 5.947 7.994 15.463 7.994 11.84 0 16.537-5.652 16.537-12.994 0-6.071-2.796-9-9.5-9h-10.5zm7.5-14c0 5.685-1.337 6.5-3.5 6.5-2.162 0-4-.815-4-6.5 0-5.823 1.838-7.5 4-7.5 2.217 0 3.5 1.959 3.5 7.5zm-11.5 26.933c.06-1.489 1.108-3.416 3.697-3.585h8.595c2.487 0 3.708 1.983 3.708 3.585 0 3.201-1.993 4.365-8.264 4.365-5.515 0-7.824-2.199-7.736-4.365z" fill="#fff"/><path d="M83 30c0-12.971-5.137-16.88-12.962-16.88-9.029 0-15.038 6.169-15.038 16.38 0 10.486 5.468 16.189 15.849 16.189 5.569 0 9.746-2.702 11.151-4.689v-3c-2.109.662-3.907 1.232-7.746 1.232-5.515 0-9.26-3.223-9.254-9.232h18zm-13.125-13.399c2.487 0 3.839 1.845 3.839 9.55l-8.38.497c.113-7.869 1.784-10.046 4.541-10.046zm-32.875 28.399v-2.954l-3-1.545v-19.501c1.208-.85 3.249-1.73 4.764-1.73 2.757 0 4.287 1.555 4.236 4.23v17.001l-3 1.545v2.954h16v-2.954l-3-1.545v-19.001c0-5.685-3.322-8.321-7.68-8.321-4.109 0-8.617 1.282-11.32 3.821v-17h-1l-12 2v3l4 1.5v34.001l-3 1.545v2.954h15zm-33-8.584c0 5.682 2.849 9.272 8.85 9.272 3.135 0 6.48-.827 8.386-2.278v-3.803c-.792.261-2.163.507-3.244.507-2.919 0-3.991-1.58-3.991-4.615v-16.5h7v-5.048h-7v-7.452l-10 1.5v5.952l-4 1.048v4h4v17.416z" fill="#AAD8F1"/></svg>