<svg xmlns="http://www.w3.org/2000/svg" height="56" width="300"><path d="M4.318 19.094h-4.318v-4.249l4.318-.604v-5.31l9.337-1.314v6.624h6.122v4.855h-6.125v14.917c0 2.78.756 4.195 3.463 4.195 1.004 0 2.308-.101 3.011-.199v3.639c-1.556.91-4.717 1.671-7.628 1.671-5.573 0-8.183-2.48-8.183-8.495v-15.731zm16.304 20.884l3.064-1.418v-31.296l-3.212-1.466v-2.477l11.648-1.873h.753v15.776h.301c2.509-2.325 5.922-3.69 9.738-3.69 4.667 0 7.028 2.325 7.028 7.534v17.492l3.064 1.418v2.578h-15.361v-2.578l2.961-1.418v-15.372c0-2.932-1.204-3.993-3.764-3.993-1.408 0-2.662.303-3.817.758v18.607l2.961 1.418v2.578h-15.361v-2.578zm43.009-10.721c.452 5.512 3.064 8.138 8.183 8.138 3.566 0 5.573-.354 7.53-.96v2.732c-1.305 1.817-5.52 4.148-10.692 4.148-9.638 0-14.606-5.361-14.606-14.967 0-9.354 5.47-14.765 13.853-14.765 8.433 0 12.498 3.794 12.498 15.675h-16.767zm-.1-3.387l7.781-.455c0-7.534-1.255-8.747-3.563-8.747-2.559 0-4.118 1.668-4.218 9.202z" fill="#94b1ca"/><path d="M109.554 44.476c0 6.725-4.767 10.971-15.76 10.971-8.835 0-14.255-2.783-14.255-6.574 0-3.69 3.563-4.751 6.724-5.411v-.303c-3.011-.654-4.469-2.831-4.469-5.057 0-2.982 3.111-5.358 4.717-6.473v-.3c-2.81-1.57-4.667-4.35-4.667-8.09 0-6.119 5.018-9.761 12.247-9.761 2.261 0 4.72.71 6.476 1.365h.401l7.179-1.415h.552v5.616h-.652l-4.67-1.671v.202c1.759 1.617 2.913 3.184 2.913 5.964 0 6.169-4.971 9.455-12.2 9.455-1.857 0-3.111-.101-4.617-.553-.703.505-1.255 1.314-1.255 2.07 0 1.011.903 1.82 2.01 1.82h10.039c6.223.006 9.284 2.586 9.284 8.146zm-8.082 2.628c0-1.463-1.054-2.171-3.365-2.171h-9.836c-.756.859-1.104 1.817-1.104 3.184 0 1.971 1.756 3.794 6.878 3.794 5.821-.003 7.427-1.873 7.427-4.807zm-10.692-23.863c0 5.765 1.305 6.268 3.312 6.268 2.01 0 3.365-.607 3.365-6.268s-1.308-6.523-3.365-6.523c-2.007-.003-3.312.758-3.312 6.523zm21.726-3.74l-3.159-1.469v-2.581l11.695-1.87h.803v19.971c0 3.235 1.556 3.794 3.914 3.794 1.556 0 2.409-.253 3.362-.657v-17.188l-3.111-1.469v-2.581l11.695-1.87h.753v24.22l3.164 1.668v2.426l-11.394 1.264h-.756v-3.74h-.351c-1.807 2.224-4.77 3.895-8.534 3.895-5.673 0-8.082-4.097-8.082-9v-14.813zm36.382 3.589h-4.366v-7.383c2.66-.862 5.824-2.173 10.745-2.173 7.527 0 12.047 2.224 12.047 8.596v16.433l2.961 1.418v2.123c-.903.505-3.014 1.163-5.272 1.163-2.913 0-5.52-.96-5.975-3.993h-.254c-1.252 2.524-4.567 4.044-8.079 4.044-4.968 0-8.079-3.235-8.079-7.939 0-5.813 3.714-6.978 9.936-8.04l5.372-.91v-3.791c0-3.589-1.054-5.411-4.67-5.411-.452 0-1.804.051-2.409.101l-1.957 5.762zm9.036 6.369l-2.158.199c-2.158.202-3.914 1.671-3.914 4.35 0 3.134 1.706 4.148 3.516 4.148 1.001 0 2.058-.505 2.559-1.061v-7.635zm24.037-16.029h.803v5.967h.301c1.656-3.743 4.165-5.765 7.229-5.765.502 0 1.104.051 1.405.152v8.242c-.552-.152-1.558-.253-2.361-.253-2.509 0-4.617.253-6.223 1.011v15.725l3.867 1.415v2.631h-16.164v-2.631l2.961-1.415v-19.163l-3.114-1.463v-2.583l11.297-1.87zm28.203-5.56l-3.111-1.415v-2.581l11.695-1.87h.756v35.798l2.961 1.668v2.426l-11.093 1.264h-.803v-2.932h-.304c-1.154 1.516-3.563 3.086-7.076 3.086-5.121 0-11.244-3.288-11.244-14.159 0-11.426 6.273-15.52 13.703-15.52 1.558 0 3.362.354 4.516 1.163v-6.928zm0 10.668c-.703-.556-1.505-1.011-3.162-1.011-2.961 0-5.169 2.682-5.169 10.671 0 6.975 1.756 10.008 5.47 10.008 1.408 0 2.211-.253 2.86-.505v-19.163zm24.436-5.108h.753v25.079l3.014 1.415v2.631h-15.361v-2.631l3.011-1.415v-19.163l-3.162-1.463v-2.583l11.746-1.87zm.906-6.622c0 2.729-2.261 4.956-4.971 4.956-2.76 0-4.968-2.227-4.968-4.956 0-2.78 2.208-5.007 4.968-5.007 2.71 0 4.971 2.227 4.971 5.007zm10.184 16.281h-4.366v-7.383c2.66-.862 5.824-2.173 10.745-2.173 7.527 0 12.047 2.224 12.047 8.596v16.433l2.961 1.418v2.123c-.903.505-3.014 1.163-5.272 1.163-2.913 0-5.52-.96-5.975-3.993h-.254c-1.255 2.524-4.567 4.044-8.079 4.044-4.968 0-8.079-3.235-8.079-7.939 0-5.813 3.714-6.978 9.936-8.04l5.372-.91v-3.791c0-3.589-1.054-5.411-4.67-5.411-.452 0-1.804.051-2.409.101l-1.957 5.762zm9.036 6.369l-2.158.199c-2.158.202-3.914 1.671-3.914 4.35 0 3.134 1.706 4.148 3.516 4.148 1.001 0 2.057-.505 2.559-1.061v-7.635zm12.891 10.519l3.064-1.418v-19.213l-3.212-1.463v-2.48l11.645-1.87h.756v3.69h.298c2.509-2.325 5.924-3.69 9.738-3.69 4.67 0 7.028 2.325 7.028 7.534v17.492l3.064 1.418v2.578h-15.361v-2.578l2.961-1.418v-15.372c0-2.932-1.207-3.993-3.766-3.993-1.405 0-2.66.303-3.814.758v18.607l2.961 1.418v2.578h-15.361v-2.578z" fill="#214583"/></svg>