<svg xmlns="http://www.w3.org/2000/svg" width="340" height="61"><path fill="#94B1CA" d="M4.9 19.9h-4.9v-4.8l4.9-.7v-6l10.6-1.4v7.5h6.9v5.5h-6.9v16.9c0 3.1.9 4.7 3.9 4.7 1.1 0 2.6-.1 3.4-.2v4.1c-1.8 1-5.3 1.9-8.6 1.9-6.3 0-9.3-2.8-9.3-9.6v-17.9zm18.5 23.6l3.5-1.6v-35.3l-3.6-1.7v-2.8l13.1-2.1h.9v17.8h.3c2.8-2.6 6.7-4.2 11-4.2 5.3 0 8 2.6 8 8.5v19.8l3.5 1.6v2.9h-17.4v-2.9l3.4-1.6v-17.3c0-3.3-1.4-4.5-4.3-4.5-1.6 0-3 .3-4.3.9v21l3.4 1.6v2.9h-17.5v-3zm48.7-12.1c.5 6.2 3.5 9.2 9.3 9.2 4 0 6.3-.4 8.5-1.1v3.1c-1.5 2.1-6.3 4.7-12.1 4.7-10.9 0-16.6-6.1-16.6-16.9 0-10.6 6.2-16.7 15.7-16.7 9.6 0 14.2 4.3 14.2 17.7h-19zm-.1-3.8l8.8-.5c0-8.5-1.4-9.9-4-9.9-2.9 0-4.7 1.9-4.8 10.4z"/><path fill="#214583" d="M124.2 48.6c0 7.6-5.4 12.4-17.9 12.4-10 0-16.2-3.1-16.2-7.4 0-4.2 4-5.4 7.6-6.1v-.3c-3.4-.7-5.1-3.2-5.1-5.7 0-3.4 3.5-6.1 5.3-7.3v-.3c-3.2-1.8-5.3-4.9-5.3-9.1 0-6.9 5.7-11 13.9-11 2.6 0 5.3.8 7.3 1.5h.5l8.1-1.6h.6v6.3h-.7l-5.3-1.9v.2c2 1.8 3.3 3.6 3.3 6.7 0 7-5.6 10.7-13.8 10.7-2.1 0-3.5-.1-5.2-.6-.8.6-1.4 1.5-1.4 2.3 0 1.1 1 2.1 2.3 2.1h11.4c7.1-.1 10.6 2.8 10.6 9.1zm-9.2 3c0-1.7-1.2-2.5-3.8-2.5h-11.2c-.9 1-1.3 2.1-1.3 3.6 0 2.2 2 4.3 7.8 4.3 6.7 0 8.5-2.1 8.5-5.4zm-12.1-27c0 6.5 1.5 7.1 3.8 7.1s3.8-.7 3.8-7.1-1.5-7.4-3.8-7.4-3.8.9-3.8 7.4zm24.6-4.2l-3.6-1.7v-2.9l13.3-2.1h.9v22.6c0 3.7 1.8 4.3 4.4 4.3 1.8 0 2.7-.3 3.8-.7v-19.5l-3.5-1.7v-2.9l13.3-2.1h.9v27.4l3.6 1.9v2.7l-12.9 1.4h-.9v-4.2h-.4c-2 2.5-5.4 4.4-9.7 4.4-6.4 0-9.2-4.6-9.2-10.2v-16.7zm41.2 4h-4.9v-8.3c3-1 6.6-2.5 12.2-2.5 8.5 0 13.7 2.5 13.7 9.7v18.6l3.4 1.6v2.4c-1 .6-3.4 1.3-6 1.3-3.3 0-6.3-1.1-6.8-4.5h-.3c-1.4 2.9-5.2 4.6-9.2 4.6-5.6 0-9.2-3.7-9.2-9 0-6.6 4.2-7.9 11.3-9.1l6.1-1v-4.3c0-4.1-1.2-6.1-5.3-6.1-.5 0-2 .1-2.7.1l-2.3 6.5zm10.3 7.2l-2.4.2c-2.4.2-4.4 1.9-4.4 4.9 0 3.5 1.9 4.7 4 4.7 1.1 0 2.3-.6 2.9-1.2l-.1-8.6zm27.2-18.1h.9v6.7h.3c1.9-4.2 4.7-6.5 8.2-6.5.6 0 1.3.1 1.6.2v9.3c-.6-.2-1.8-.3-2.7-.3-2.8 0-5.2.3-7.1 1.1v17.8l4.4 1.6v3h-18.3v-3l3.4-1.6v-21.6l-3.5-1.7v-2.9l12.8-2.1zm32-6.2l-3.5-1.6v-3l13.3-2.1h.9v40.4l3.4 1.9v2.7l-12.6 1.4h-.9v-3.3h-.3c-1.3 1.7-4 3.5-8 3.5-5.8 0-12.7-3.7-12.7-16 0-12.9 7.1-17.5 15.5-17.5 1.8 0 3.8.4 5.1 1.3l-.2-7.7zm0 12c-.8-.6-1.7-1.1-3.6-1.1-3.4 0-5.9 3-5.9 12.1 0 7.9 2 11.3 6.2 11.3 1.6 0 2.5-.3 3.2-.6l.1-21.7zm27.7-5.8h.9v28.3l3.4 1.6v3h-17.4v-3l3.4-1.6v-21.6l-3.6-1.7v-2.9l13.3-2.1zm1-7.4c0 3.1-2.6 5.6-5.6 5.6-3.1 0-5.6-2.5-5.6-5.6s2.5-5.7 5.6-5.7c3 0 5.6 2.5 5.6 5.7zm11.6 18.3h-4.9v-8.3c3-1 6.6-2.5 12.2-2.5 8.5 0 13.7 2.5 13.7 9.7v18.6l3.4 1.6v2.4c-1 .6-3.4 1.3-6 1.3-3.3 0-6.3-1.1-6.8-4.5h-.3c-1.4 2.9-5.2 4.6-9.2 4.6-5.6 0-9.2-3.7-9.2-9 0-6.6 4.2-7.9 11.3-9.1l6.1-1v-4.3c0-4.1-1.2-6.1-5.3-6.1-.5 0-2 .1-2.7.1l-2.3 6.5zm10.2 7.2l-2.4.2c-2.4.2-4.4 1.9-4.4 4.9 0 3.5 1.9 4.7 4 4.7 1.1 0 2.3-.6 2.9-1.2l-.1-8.6zm14.6 11.9l3.5-1.6v-21.7l-3.6-1.7v-2.8l13.2-2.1h.9v4.2h.3c2.8-2.6 6.7-4.2 11-4.2 5.3 0 8 2.6 8 8.5v19.8l3.4 1.6v2.9h-17.3v-2.9l3.4-1.6v-17.3c0-3.3-1.4-4.5-4.3-4.5-1.6 0-3 .3-4.3.9v21l3.4 1.6v2.8h-17.6v-2.9z"/></svg>