<svg xmlns="http://www.w3.org/2000/svg" xmlns:xlink="http://www.w3.org/1999/xlink" width="18" height="18"><defs><rect id="a" width="18" height="18"/></defs><clipPath id="b"><use xlink:href="#a" overflow="visible"/></clipPath><path clip-path="url(#b)" fill="#E21B39" d="M9.697 11.25h-1.394l-1.391-7.693.696-.744h2.785l.695.744-1.391 7.693zm-.697 4.142c-.768 0-1.392-.624-1.392-1.394 0-.768.624-1.391 1.392-1.391.768 0 1.393.623 1.393 1.391 0 .77-.625 1.394-1.393 1.394m0-15.392c-4.971 0-9 4.029-9 9s4.029 9 9 9 9-4.029 9-9-4.029-9-9-9"/></svg>