<svg xmlns="http://www.w3.org/2000/svg" xmlns:xlink="http://www.w3.org/1999/xlink" width="18" height="18"><defs><path id="a" d="M0 0h18v18H0z"/></defs><clipPath id="b"><use xlink:href="#a" overflow="visible"/></clipPath><path clip-path="url(#b)" fill="#E21B39" d="M9.697 11.25H8.303l-1.39-7.693.695-.744h2.785l.695.744-1.39 7.693zM9 15.392c-.768 0-1.392-.624-1.392-1.394 0-.768.624-1.39 1.392-1.39.768 0 1.393.622 1.393 1.39 0 .77-.625 1.394-1.393 1.394M9 0C4.03 0 0 4.03 0 9s4.03 9 9 9 9-4.03 9-9-4.03-9-9-9"/></svg>