<svg xmlns="http://www.w3.org/2000/svg" width="12" height="9"><g fill="#545454"><path d="M7.558 3.359c-.771 0-1.395.618-1.395 1.391 0 .775.635 1.402 1.403 1.402.771 0 1.395-.627 1.395-1.402 0-.773-.634-1.391-1.403-1.391z"/><path d="M11.589 1.175l-1.233.002-.552-1.177h-4.354l-.537 1.177h-1.644v-.621h-2.466l-.001.621h-.381l-.011-.002c-.226 0-.41.187-.41.416v6.356c0 .227.184.416.41.623h11.179c.226-.207.411-.396.411-.623v-6.356c0-.229-.185-.416-.411-.416zm-4.023 6.405c-1.561 0-2.831-1.27-2.831-2.83 0-1.554 1.266-2.819 2.822-2.819 1.561 0 2.831 1.265 2.831 2.819.001 1.561-1.265 2.83-2.822 2.83z"/></g></svg>