<svg version="1" xmlns="http://www.w3.org/2000/svg" width="12.613" height="9"><g fill="#929497"><path d="M7.941 3.528c-.811 0-1.464.649-1.464 1.461 0 .813.667 1.472 1.472 1.472.811 0 1.466-.658 1.466-1.472 0-.812-.666-1.461-1.474-1.461z"/><path d="M12.175 1.235l-1.295.002-.58-1.237h-4.572l-.564 1.237h-1.727v-.652h-2.59v.652h-.4l-.011-.002c-.238 0-.43.197-.43.437v6.674c0 .239.192.437.43.654h11.739c.238-.218.433-.415.433-.654v-6.674c-.001-.24-.195-.437-.433-.437zm-4.226 6.725c-1.637 0-2.972-1.333-2.972-2.971 0-1.632 1.329-2.961 2.964-2.961 1.639 0 2.973 1.329 2.973 2.961 0 1.638-1.328 2.971-2.965 2.971z"/></g></svg>