<svg width="9" height="23" viewBox="0 0 9 23" xmlns="http://www.w3.org/2000/svg" xmlns:sketch="http://www.bohemiancoding.com/sketch/ns"><title>Fill 13</title><desc>Created with Sketch.</desc><g sketch:type="MSPage" fill="none"><path d="M3.71 33.173c-11.699 0-21.217-9.518-21.217-21.216 0-11.699 9.518-21.217 21.217-21.217 11.698 0 21.216 9.518 21.216 21.217 0 11.698-9.518 21.216-21.216 21.216m0-42.926c-11.99 0-21.71 9.72-21.71 21.71 0 11.989 9.72 21.709 21.71 21.709 11.989 0 21.709-9.72 21.709-21.709 0-11.99-9.72-21.71-21.709-21.71" fill="#707070" sketch:type="MSShapeGroup"/><path d="M.5 21l2.5-.6v-11.575l-3-.825v-.903l5.439-.768.561.192v13.879l2.5.6v1h-8v-1zm1.868-19.15c0-.993.832-1.792 1.823-1.792 1.025 0 1.825.799 1.825 1.792 0 .927-.8 1.792-1.825 1.792-.991 0-1.823-.865-1.823-1.792z" fill="#fff" sketch:type="MSShapeGroup"/></g></svg>