<svg width="23" height="23" viewBox="0 0 23 23" xmlns="http://www.w3.org/2000/svg" xmlns:sketch="http://www.bohemiancoding.com/sketch/ns"><title>Fill 3</title><desc>Created with Sketch.</desc><g sketch:type="MSPage" fill="none"><path d="M0 11.5l10.296 10.099.959-.959-8.055-8.64h19.8v-2h-19.8l8.055-9.04-.959-.96-10.296 10.5v1" fill="#fff" sketch:type="MSShapeGroup"/><path d="M11.001 32.313c-11.752 0-21.313-9.561-21.313-21.313 0-11.751 9.561-21.312 21.313-21.312 11.751 0 21.312 9.561 21.312 21.312 0 11.752-9.561 21.313-21.312 21.313m0-43.313c-12.151 0-22.001 9.849-22.001 22s9.85 22.001 22.001 22.001c12.15 0 21.999-9.85 21.999-22.001 0-12.151-9.849-22-21.999-22" fill="#707070" sketch:type="MSShapeGroup"/></g></svg>