<svg xmlns="http://www.w3.org/2000/svg" width="38" height="20" viewBox="-0.291 -0.458 38 20" enable-background="new -0.291 -0.458 38 20"><path fill="#333" d="M.208 10.173c0-6.806 6.488-9.927 14.293-10.073v.269c-7.415.39-11.732 4.244-11.537 9.243 1.439-2.683 3.854-4.122 7.463-4.122 4.56 0 7.561 2.367 7.561 6.585 0 4.121-3.634 6.805-8.463 6.805-5.976 0-9.317-3.365-9.317-8.707zm19.22 0c0-6.806 6.464-9.927 14.293-10.073v.269c-7.415.39-11.731 4.244-11.562 9.244 1.464-2.683 3.879-4.122 7.464-4.122 4.586 0 7.586 2.367 7.586 6.586 0 4.122-3.635 6.804-8.463 6.804-6-.001-9.318-3.366-9.318-8.708z"/></svg>