<svg xmlns="http://www.w3.org/2000/svg" width="37" height="20"><path fill="#676767" d="M.016 10.956c0-6.816 6.499-9.942 14.315-10.089v.269c-7.427.39-11.75 4.251-11.555 9.258 1.441-2.687 3.859-4.128 7.476-4.128 4.566 0 7.571 2.37 7.571 6.596 0 4.128-3.639 6.816-8.476 6.816-5.984 0-9.331-3.372-9.331-8.722zm19.249 0c0-6.816 6.474-9.942 14.315-10.089v.269c-7.426.39-11.751 4.251-11.58 9.258 1.466-2.687 3.885-4.128 7.476-4.128 4.593 0 7.597 2.37 7.597 6.596 0 4.128-3.639 6.816-8.476 6.816-6.01 0-9.332-3.372-9.332-8.722z"/></svg>