<svg xmlns="http://www.w3.org/2000/svg" width="37" height="20"><path fill="#676767" d="M.016 10.956c0-6.816 6.5-9.942 14.315-10.09v.27c-7.426.39-11.75 4.25-11.554 9.258 1.44-2.687 3.86-4.128 7.476-4.128 4.566 0 7.57 2.37 7.57 6.596 0 4.128-3.638 6.816-8.475 6.816-5.984 0-9.33-3.372-9.33-8.722zm19.25 0c0-6.816 6.473-9.942 14.314-10.09v.27c-7.426.39-11.75 4.25-11.58 9.258 1.466-2.687 3.885-4.128 7.476-4.128 4.593 0 7.597 2.37 7.597 6.596 0 4.128-3.64 6.816-8.476 6.816-6.01 0-9.332-3.372-9.332-8.722z"/></svg>