<?xml version="1.0" encoding="utf-8"?>
<!-- Generator: Adobe Illustrator 13.0.2, SVG Export Plug-In . SVG Version: 6.00 Build 14948)  -->
<!DOCTYPE svg PUBLIC "-//W3C//DTD SVG 1.1//EN" "http://www.w3.org/Graphics/SVG/1.1/DTD/svg11.dtd">
<svg version="1.1" id="Layer_1" xmlns="http://www.w3.org/2000/svg" xmlns:xlink="http://www.w3.org/1999/xlink" x="0px" y="0px"
	 width="37px" height="20px" viewBox="0 0 37 20" enable-background="new 0 0 37 20" xml:space="preserve">
<g>
	<path fill="#660054" d="M0.016,10.956c0-6.816,6.499-9.942,14.315-10.089v0.269C6.904,1.526,2.581,5.387,2.776,10.394
		c1.441-2.687,3.859-4.128,7.476-4.128c4.566,0,7.571,2.37,7.571,6.596c0,4.128-3.639,6.816-8.476,6.816
		C3.363,19.678,0.016,16.306,0.016,10.956z M19.265,10.956c0-6.816,6.474-9.942,14.315-10.089v0.269
		C26.154,1.526,21.829,5.387,22,10.394c1.466-2.687,3.885-4.128,7.476-4.128c4.593,0,7.597,2.37,7.597,6.596
		c0,4.128-3.639,6.816-8.476,6.816C22.587,19.678,19.265,16.306,19.265,10.956z"/>
</g>
</svg>
