<?xml version="1.0" encoding="utf-8"?>
<!-- Generator: Adobe Illustrator 13.0.2, SVG Export Plug-In . SVG Version: 6.00 Build 14948)  -->
<!DOCTYPE svg PUBLIC "-//W3C//DTD SVG 1.1//EN" "http://www.w3.org/Graphics/SVG/1.1/DTD/svg11.dtd">
<svg version="1.1" id="Layer_1" xmlns="http://www.w3.org/2000/svg" xmlns:xlink="http://www.w3.org/1999/xlink" x="0px" y="0px"
	 width="37px" height="20px" viewBox="0 0 37 20" enable-background="new 0 0 37 20" xml:space="preserve">
<g>
	<path fill="#660054" d="M37.072,9.586c0,6.816-6.499,9.942-14.315,10.089v-0.269c7.427-0.391,11.75-4.251,11.555-9.258
		c-1.441,2.687-3.859,4.128-7.476,4.128c-4.566,0-7.571-2.37-7.571-6.596c0-4.128,3.639-6.816,8.476-6.816
		C33.725,0.865,37.072,4.237,37.072,9.586z M17.823,9.586c0,6.816-6.473,9.942-14.315,10.089v-0.269
		c7.426-0.391,11.75-4.251,11.58-9.258c-1.466,2.687-3.885,4.128-7.475,4.128c-4.593,0-7.597-2.37-7.597-6.596
		c0-4.128,3.639-6.816,8.476-6.816C14.501,0.865,17.823,4.237,17.823,9.586z"/>
</g>
</svg>
