<?xml version="1.0" encoding="utf-8"?><!-- Generator: Adobe Illustrator 16.0.0, SVG Export Plug-In . SVG Version: 6.00 Build 0)  --><!DOCTYPE svg PUBLIC "-//W3C//DTD SVG 1.1//EN" "http://www.w3.org/Graphics/SVG/1.1/DTD/svg11.dtd"><svg version="1.1" id="Layer_1" xmlns="http://www.w3.org/2000/svg" xmlns:xlink="http://www.w3.org/1999/xlink" x="0px" y="0px" width="18px" height="12px" viewBox="0 0.5 18 12" enable-background="new 0 0.5 18 12" xml:space="preserve"><rect y="0.5" fill="#FFFFFF" width="18" height="2"></rect><rect y="5.5" fill="#FFFFFF" width="18" height="2"></rect><rect y="10.5" fill="#FFFFFF" width="18" height="2"></rect><g><path fill="#94B1CA" d="M-109.201,6.748h-1.549V5.235l1.549-0.216v-1.89l3.349-0.468V5.02h2.196v1.729h-2.196v5.312
		c0,0.99,0.271,1.494,1.242,1.494c0.36,0,0.828-0.035,1.08-0.07v1.295c-0.558,0.324-1.692,0.596-2.736,0.596
		c-1.999,0-2.935-0.883-2.935-3.025V6.748z"></path><path fill="#94B1CA" d="M-103.353,14.186l1.099-0.506V2.535l-1.152-0.522V1.131l4.178-0.667h0.27v5.618h0.108
		c0.9-0.828,2.124-1.314,3.493-1.314c1.674,0,2.521,0.828,2.521,2.683v6.229l1.099,0.506v0.918h-5.51v-0.918l1.062-0.506V8.206
		c0-1.044-0.432-1.422-1.35-1.422c-0.505,0-0.955,0.108-1.369,0.271v6.625l1.062,0.506v0.918h-5.51L-103.353,14.186L-103.353,14.186
		z"></path><path fill="#94B1CA" d="M-87.926,10.367c0.162,1.963,1.099,2.898,2.935,2.898c1.279,0,1.999-0.127,2.701-0.343v0.974
		c-0.468,0.646-1.98,1.477-3.835,1.477c-3.457,0-5.239-1.909-5.239-5.33c0-3.331,1.962-5.258,4.969-5.258
		c3.025,0,4.483,1.351,4.483,5.582H-87.926z M-87.962,9.161l2.791-0.162c0-2.683-0.45-3.115-1.278-3.115
		C-87.367,5.884-87.926,6.478-87.962,9.161z"></path><path fill="#FFFFFF" d="M-71.454,15.787c0,2.395-1.71,3.906-5.653,3.906c-3.169,0-5.113-0.99-5.113-2.34
		c0-1.314,1.278-1.692,2.412-1.928v-0.107c-1.08-0.233-1.603-1.008-1.603-1.801c0-1.062,1.116-1.908,1.692-2.306v-0.106
		c-1.008-0.56-1.674-1.549-1.674-2.881c0-2.18,1.8-3.477,4.393-3.477c0.811,0,1.693,0.253,2.323,0.486h0.144l2.575-0.504h0.198v2
		h-0.234l-1.675-0.595v0.072c0.631,0.576,1.045,1.134,1.045,2.124c0,2.196-1.783,3.367-4.376,3.367
		c-0.666,0-1.116-0.036-1.656-0.197c-0.252,0.181-0.45,0.468-0.45,0.737c0,0.359,0.324,0.647,0.721,0.647h3.601
		C-72.552,12.889-71.454,13.807-71.454,15.787z M-74.353,16.723c0-0.521-0.378-0.772-1.207-0.772h-3.528
		c-0.271,0.306-0.396,0.647-0.396,1.134c0,0.702,0.63,1.352,2.467,1.352C-74.929,18.434-74.353,17.768-74.353,16.723z
		 M-78.188,8.225c0,2.053,0.468,2.232,1.188,2.232c0.721,0,1.207-0.216,1.207-2.232c0-2.016-0.469-2.324-1.207-2.324
		C-77.72,5.901-78.188,6.172-78.188,8.225z"></path><path fill="#FFFFFF" d="M-70.395,6.893l-1.134-0.521v-0.92l4.195-0.666h0.288v7.111c0,1.152,0.558,1.352,1.404,1.352
		c0.558,0,0.864-0.09,1.206-0.234V6.893l-1.116-0.521v-0.92l4.195-0.666h0.27v8.625l1.135,0.594v0.864l-4.087,0.45h-0.271v-1.332
		h-0.126c-0.648,0.791-1.711,1.387-3.061,1.387c-2.035,0-2.899-1.459-2.899-3.205L-70.395,6.893L-70.395,6.893z"></path><path fill="#FFFFFF" d="M-57.345,8.171h-1.566V5.542c0.954-0.307,2.089-0.774,3.854-0.774c2.7,0,4.321,0.792,4.321,3.061v5.853
		l1.062,0.504v0.756c-0.324,0.181-1.081,0.414-1.891,0.414c-1.045,0-1.98-0.342-2.143-1.422h-0.091
		c-0.449,0.899-1.638,1.44-2.898,1.44c-1.782,0-2.898-1.151-2.898-2.827c0-2.07,1.332-2.484,3.564-2.863l1.927-0.324V8.01
		c0-1.278-0.378-1.927-1.675-1.927c-0.162,0-0.647,0.018-0.864,0.036L-57.345,8.171z M-54.104,10.439l-0.774,0.07
		c-0.774,0.072-1.404,0.596-1.404,1.549c0,1.116,0.612,1.478,1.261,1.478c0.359,0,0.738-0.181,0.918-0.378L-54.104,10.439
		L-54.104,10.439z"></path><path fill="#FFFFFF" d="M-45.482,4.731h0.288v2.125h0.108c0.594-1.333,1.494-2.052,2.593-2.052c0.18,0,0.396,0.018,0.504,0.054
		v2.935c-0.198-0.054-0.559-0.09-0.847-0.09c-0.9,0-1.656,0.09-2.232,0.36v5.6l1.387,0.504v0.938h-5.798v-0.938l1.062-0.504V6.838
		l-1.117-0.521v-0.92L-45.482,4.731z"></path><path fill="#FFFFFF" d="M-35.366,2.751l-1.116-0.504V1.328l4.195-0.666h0.271V13.41l1.062,0.594v0.864l-3.979,0.45h-0.288v-1.045
		h-0.108c-0.414,0.541-1.278,1.1-2.538,1.1c-1.837,0-4.033-1.171-4.033-5.042c0-4.069,2.25-5.527,4.915-5.527
		c0.559,0,1.206,0.126,1.62,0.414L-35.366,2.751L-35.366,2.751z M-35.366,6.55c-0.252-0.198-0.54-0.36-1.134-0.36
		c-1.062,0-1.854,0.955-1.854,3.8c0,2.484,0.63,3.564,1.962,3.564c0.505,0,0.793-0.091,1.026-0.181V6.55z"></path><path fill="#FFFFFF" d="M-26.601,4.731h0.27v8.931l1.081,0.504v0.938h-5.51v-0.938l1.08-0.504V6.838l-1.134-0.521v-0.92
		L-26.601,4.731z M-26.276,2.373c0,0.972-0.811,1.765-1.783,1.765c-0.99,0-1.782-0.793-1.782-1.765c0-0.99,0.792-1.783,1.782-1.783
		C-27.087,0.59-26.276,1.383-26.276,2.373z"></path><path fill="#FFFFFF" d="M-22.623,8.171h-1.566V5.542c0.954-0.307,2.089-0.774,3.854-0.774c2.7,0,4.321,0.792,4.321,3.061v5.853
		l1.062,0.504v0.756c-0.324,0.181-1.081,0.414-1.891,0.414c-1.045,0-1.98-0.342-2.143-1.422h-0.091
		c-0.45,0.899-1.638,1.44-2.898,1.44c-1.782,0-2.898-1.151-2.898-2.827c0-2.07,1.332-2.484,3.564-2.863l1.927-0.324V8.01
		c0-1.278-0.378-1.927-1.675-1.927c-0.162,0-0.647,0.018-0.864,0.036L-22.623,8.171z M-19.382,10.439l-0.774,0.07
		c-0.774,0.072-1.404,0.596-1.404,1.549c0,1.116,0.612,1.478,1.261,1.478c0.359,0,0.738-0.181,0.918-0.378L-19.382,10.439
		L-19.382,10.439z"></path><path fill="#FFFFFF" d="M-14.758,14.186l1.099-0.506V6.838l-1.152-0.521V5.434l4.177-0.666h0.271v1.314h0.107
		c0.9-0.828,2.125-1.314,3.493-1.314c1.675,0,2.521,0.828,2.521,2.683v6.229l1.099,0.506v0.918h-5.51v-0.918l1.062-0.506V8.206
		c0-1.044-0.433-1.422-1.351-1.422c-0.504,0-0.954,0.108-1.368,0.271v6.625l1.062,0.506v0.918h-5.51V14.186z"></path></g><polyline fill="none" stroke="#FFFFFF" stroke-miterlimit="10" points="247.688,-0.281 253.594,5.625 259.5,-0.281 "></polyline></svg>