<svg xmlns="http://www.w3.org/2000/svg" width="18" height="12" viewBox="0 0.5 18 12" enable-background="new 0 0.5 18 12"><rect y=".5" fill="#004179" width="18" height="2"/><rect y="5.5" fill="#004179" width="18" height="2"/><polygon fill="#004179" points="0,10.5 18,10.5 18,12.5 2.563,12.5 0,12.5"/><path fill="#94B1CA" d="M-109.201 6.748h-1.549v-1.513l1.549-.216v-1.89l3.349-.468v2.359h2.196v1.729h-2.196v5.312c0 .99.271 1.494 1.242 1.494.36 0 .828-.035 1.08-.07v1.295c-.558.324-1.692.597-2.736.597-1.999 0-2.935-.883-2.935-3.024v-5.605z"/><path fill="#94B1CA" d="M-103.353 14.186l1.099-.506v-11.145l-1.152-.522v-.882l4.178-.667h.27v5.618h.108c.9-.828 2.124-1.314 3.493-1.314 1.674 0 2.521.828 2.521 2.683v6.229l1.099.506v.918h-5.51v-.918l1.062-.506v-5.474c0-1.044-.432-1.422-1.35-1.422-.505 0-.955.108-1.369.271v6.625l1.062.506v.918h-5.51l-.001-.918z"/><path fill="#94B1CA" d="M-87.926 10.367c.162 1.963 1.099 2.898 2.935 2.898 1.279 0 1.999-.127 2.701-.344v.975c-.468.646-1.98 1.477-3.835 1.477-3.457 0-5.239-1.909-5.239-5.33 0-3.331 1.962-5.258 4.969-5.258 3.025 0 4.483 1.351 4.483 5.582h-6.014zm-.036-1.206l2.791-.162c0-2.683-.45-3.115-1.278-3.115-.918 0-1.477.594-1.513 3.277z"/><path fill="#fff" d="M-71.454 15.787c0 2.395-1.71 3.906-5.653 3.906-3.169 0-5.113-.99-5.113-2.34 0-1.314 1.278-1.692 2.412-1.929v-.106c-1.08-.233-1.603-1.008-1.603-1.801 0-1.062 1.116-1.908 1.692-2.307v-.105c-1.008-.561-1.674-1.549-1.674-2.881 0-2.181 1.8-3.478 4.393-3.478.811 0 1.693.253 2.323.486h.144l2.575-.504h.198v2h-.234l-1.675-.595v.072c.631.576 1.045 1.134 1.045 2.124 0 2.195-1.783 3.367-4.376 3.367-.666 0-1.116-.036-1.656-.197-.252.182-.45.468-.45.736 0 .359.324.647.721.647h3.601c2.232.007 3.33.925 3.33 2.905zm-2.899.936c0-.521-.378-.771-1.207-.771h-3.528c-.271.306-.396.646-.396 1.134 0 .702.63 1.353 2.467 1.353 2.088-.005 2.664-.671 2.664-1.716zm-3.835-8.498c0 2.053.468 2.232 1.188 2.232.721 0 1.207-.216 1.207-2.232s-.469-2.324-1.207-2.324c-.72 0-1.188.271-1.188 2.324z"/><path fill="#fff" d="M-70.395 6.893l-1.134-.521v-.92l4.195-.666h.288v7.11c0 1.152.558 1.353 1.404 1.353.558 0 .864-.09 1.206-.233v-6.123l-1.116-.521v-.92l4.195-.666h.27v8.625l1.135.594v.864l-4.087.449h-.271v-1.332h-.126c-.648.791-1.711 1.388-3.061 1.388-2.035 0-2.899-1.459-2.899-3.205l.001-5.276z"/><path fill="#fff" d="M-57.345 8.171h-1.566v-2.629c.954-.307 2.089-.774 3.854-.774 2.7 0 4.321.792 4.321 3.061v5.853l1.062.504v.756c-.324.182-1.081.414-1.891.414-1.045 0-1.98-.342-2.143-1.422h-.091c-.449.899-1.638 1.44-2.898 1.44-1.782 0-2.898-1.151-2.898-2.827 0-2.07 1.332-2.484 3.564-2.863l1.927-.324v-1.35c0-1.277-.378-1.927-1.675-1.927-.162 0-.647.018-.864.036l-.702 2.052zm3.241 2.268l-.774.069c-.774.072-1.404.597-1.404 1.55 0 1.115.612 1.478 1.261 1.478.359 0 .738-.181.918-.378l-.001-2.719z"/><path fill="#fff" d="M-45.482 4.731h.288v2.125h.108c.594-1.333 1.494-2.051 2.593-2.051.18 0 .396.018.504.054v2.935c-.198-.054-.559-.09-.847-.09-.9 0-1.656.09-2.232.359v5.601l1.387.504v.938h-5.798v-.938l1.062-.504v-6.826l-1.117-.521v-.92l4.052-.666z"/><path fill="#fff" d="M-35.366 2.751l-1.116-.504v-.919l4.195-.666h.271v12.748l1.062.594v.864l-3.979.45h-.288v-1.045h-.108c-.414.541-1.278 1.1-2.538 1.1-1.837 0-4.033-1.171-4.033-5.042 0-4.069 2.25-5.527 4.915-5.527.559 0 1.206.126 1.62.414l-.001-2.467zm0 3.799c-.252-.198-.54-.36-1.134-.36-1.062 0-1.854.955-1.854 3.8 0 2.484.63 3.564 1.962 3.564.505 0 .793-.092 1.026-.182v-6.822z"/><path fill="#fff" d="M-26.601 4.731h.27v8.931l1.081.504v.938h-5.51v-.938l1.08-.504v-6.824l-1.134-.521v-.92l4.213-.666zm.325-2.358c0 .972-.811 1.765-1.783 1.765-.99 0-1.782-.793-1.782-1.765 0-.99.792-1.783 1.782-1.783.972 0 1.783.793 1.783 1.783z"/><path fill="#fff" d="M-22.623 8.171h-1.566v-2.629c.954-.307 2.089-.774 3.854-.774 2.7 0 4.321.792 4.321 3.061v5.853l1.062.504v.756c-.324.182-1.081.414-1.891.414-1.045 0-1.98-.342-2.143-1.422h-.091c-.45.899-1.638 1.44-2.898 1.44-1.782 0-2.898-1.151-2.898-2.827 0-2.07 1.332-2.484 3.564-2.863l1.927-.324v-1.35c0-1.277-.378-1.927-1.675-1.927-.162 0-.647.018-.864.036l-.702 2.052zm3.241 2.268l-.774.069c-.774.072-1.404.597-1.404 1.55 0 1.115.612 1.478 1.261 1.478.359 0 .738-.181.918-.378l-.001-2.719z"/><path fill="#fff" d="M-14.758 14.186l1.099-.506v-6.842l-1.152-.521v-.883l4.177-.666h.271v1.314h.107c.9-.828 2.125-1.314 3.493-1.314 1.675 0 2.521.828 2.521 2.683v6.229l1.099.506v.918h-5.51v-.918l1.062-.506v-5.474c0-1.044-.433-1.422-1.351-1.422-.504 0-.954.108-1.368.271v6.625l1.062.506v.918h-5.51v-.918z"/><polyline stroke="#fff" stroke-miterlimit="10" points="247.688,-0.281 253.594,5.625 259.5,-0.281" fill="none"/></svg>