<svg xmlns="http://www.w3.org/2000/svg" width="340" height="61" viewBox="0 0 340 61"><path fill="#fff" d="M12 13h-12v-11h35v11h-12v34h-11v-34zm25-11h12v12.1c1.1-1.8 3.6-2.7 9-2.7 8.3 0 10 5.5 10 12.7v22.9h-12v-19.9c.2-3.2-.1-4.6-3-4.6-3.4 0-4 1.4-4 4.7v19.8h-12v-45zm51.8 24h-8.7c.2-3.5 1.4-5.1 4.8-5 3.3.1 3.8 1.5 3.9 5zm-3.9 21c5.9 0 10.4-1.1 14.1-3.1l-4.3-8.7c-2.4 1-4.7 2-9.4 2-3.6-.3-4.8-1.1-5.1-4.2h18.8c.2-13 .7-22-14-22-12.2 0-16 6.7-16 18 .3 11.6 3.2 18 15.9 18zm30.2-22.5c0-7.3.9-11.9 7.5-11.9 6.5 0 7.4 4.5 7.4 11.9s-.7 11.7-7.2 11.7c-6.8 0-7.7-4.4-7.7-11.7zm7.9 22.5c16.1 0 19-11 19-23 0-12.1-2.9-23-19.5-23s-19.5 11-19.5 23c.5 12 3.4 23 20 23zm32.5-17.3c0-5.5.9-7.7 4.8-7.7 3.6 0 4.1 2 4.1 7.7s-.9 7.3-4.3 7.3c-3.8.1-4.6-1.9-4.6-7.3zm-11.5 16.5l8.3.8 1.8-2.6c2.2 1.8 3.3 2.6 9.8 2.6 10.4 0 12.1-8.1 12.1-17.8 0-9.5-1.3-17.9-11.6-17.9-4.7 0-7.6.5-9.4 3.2v-12.5h-11v44.2zm32-2.2l4.2-8.5c2.6 1.3 6.8 2.4 10.7 2.4 1.9 0 2.5-.7 2.5-1.7 0-1.5-1.9-1.6-6.4-3-6.3-1.8-9.7-3.7-9.7-10.7 0-8.9 6.1-11.5 14.1-11.5 5.3 0 8.1.7 11.5 2.1l-4.3 9.2c-2.2-.9-5-1.5-7.7-1.5-2.3 0-2.8.5-2.8 1.5 0 1.4 1.9 1.5 5.4 2.5 7.1 1.9 10.4 4.1 10.4 11.2 0 7.6-5.6 10.9-13.2 10.9-5.3.1-10.7-.6-14.7-2.9zm44.9 3c5.9 0 10.4-1.1 14.1-3.1l-4.3-8.7c-2.4 1-4.7 2-9.4 2-3.6-.3-4.8-1.1-5.1-4.2h18.8c.2-13 .7-22-14-22-12.2 0-16 6.7-16 18 .3 11.6 3.2 18 15.9 18zm16.1-35l9.2-.8 1 3c1.7-2 4.1-3.3 9.8-3.3v10.9c-7.3 0-8 2.5-8 6.6v17.6h-12v-34zm20 0h12.1l5.2 20.2 5.3-20.2h11.4l-10.5 35h-13l-10.5-35zm47.9 35c5.9 0 10.4-1.1 14.1-3.1l-4.3-8.7c-2.4 1-4.7 2-9.4 2-3.6-.3-4.8-1.1-5.1-4.2h18.8c.2-13 .7-22-14-22-12.2 0-16 6.7-16 18 .3 11.6 3.2 18 15.9 18zm15.1-35l9.2-.8 1 3c1.7-2 4.1-3.3 9.8-3.3v10.9c-7.3 0-8 2.5-8 6.6v17.6h-12v-34zm-95.2 14h-8.7c.2-3.5 1.4-5.1 4.8-5 3.3.1 3.8 1.5 3.9 5zm84 0h-8.7c.2-3.5 1.4-5.1 4.8-5 3.3.1 3.8 1.5 3.9 5z"/></svg>