<svg xmlns="http://www.w3.org/2000/svg" width="160" height="30" viewBox="0 0 320 60"><path d="M11 12h-11v-10.04h32.94v10.04h-10.94v33h-11v-33zm35-10.04v11.54c1.03-1.72 3.5-2.55 8.6-2.55 7.8 0 9.4 5.26 9.4 12.15v21.9h-11v-19.04c.2-3.06-.4-4.4-3.12-4.4-3.2 0-3.88 1.25-3.88 4.4v19.04h-11v-43.04h11zm62.33 21.52c0-6.98.85-11.38 7.06-11.38 6.1 0 6.95 4.3 6.95 11.38 0 7.08-.66 11.2-6.77 11.2-6.4 0-7.25-4.22-7.25-11.2zm7.43 21.52c15.16 0 17.9-10.52 17.9-22 0-11.57-2.74-22-18.37-22s-18.36 10.52-18.36 22c.47 11.48 3.2 22 18.82 22zm30.6-16.55c0-5.26.84-7.36 4.5-7.36 3.4 0 3.87 1.9 3.87 7.35s-.85 7-4.05 7c-3.57.08-4.33-1.83-4.33-7zm-3.03 16.55l1.7-2.5c2.06 1.74 3.1 2.5 9.22 2.5 9.8 0 10.74-7.72 10.74-17 0-9.1-.58-17.15-10.27-17.15-4.43 0-7 .57-8.7 3.15v-12.04h-10.02v42.54l7.34.5zm22.3-2.87l3.97-8.13c2.45 1.24 6.4 2.3 10.07 2.3 1.8 0 2.35-.67 2.35-1.63 0-1.43-1.78-1.53-6.02-2.87-5.93-1.72-9.13-3.54-9.13-10.23 0-8.52 5.74-11 13.27-11 5 0 7.63.67 10.83 2l-4.05 8.8c-2.07-.86-4.7-1.43-7.25-1.43-2.16 0-2.63.48-2.63 1.44 0 1.33 1.78 1.43 5.08 2.4 6.68 1.8 9.8 3.9 9.8 10.7 0 7.27-5.28 10.43-12.44 10.43-5 .1-10.07-.57-13.83-2.77zm65.87-31.63l1.16 3.13c1.6-1.92 3.97-3.13 9.34-3.13v10.5c-6.87 0-8 2.08-8 6v17.04h-10.94v-32.54l8.44-1zm10.38 1.5h11.62l4.66 18.84 4.84-18.84h11l-10 33h-12.24l-9.88-33zm68.12-1.53l.78 3.16c1.6-1.9 3.85-3.16 9.22-3.16v10.53c-6.87 0-8 2.08-8 6v17.04h-11v-32.54l9-1.03zm-9.77 31.57l-4.04-8.33c-2.27.97-4.28 2.3-8.7 2.3-3.4-.3-4.72-1.03-5-4h17.51c0-12.5 1-21-12.94-21.43-11.48-.36-15.06 6.4-15.06 17.2.28 11.1 3 17.23 14.96 17.23 5.56 0 9.8-1.05 13.28-2.96zm-9.6-17.13h-8.18c.18-3.33 1.3-4.86 4.5-4.77 3.12.1 3.6 1.44 3.7 4.78zm-69.4 17.14l-4.04-8.33c-2.27.97-4.28 2.3-8.7 2.3-3.4-.3-4.72-1.03-5-4h17.51c0-12.5.5-21-12.94-21.43-11.48-.38-15.06 6.4-15.06 17.2.28 11.1 3 17.23 14.96 17.23 5.56 0 9.8-1.05 13.28-2.96zm-9.6-17.13h-8.18c.18-3.33 1.3-4.86 4.5-4.77 3.12.1 3.6 1.44 3.7 4.78zm-118.4 17.13l-4.03-8.35c-2.27.97-4.28 2.3-8.7 2.3-3.4-.3-4.72-1.03-5-4h17.5c0-12 .5-21-12.94-21.43-11.48-.37-15.06 6.4-15.06 17.2.28 11.11 3 17.23 14.96 17.23 5.56 0 9.8-1.05 13.28-2.96zm-9.6-17.13h-8.18c.18-3.33 1.3-4.86 4.5-4.77 3.12.1 3.6 1.44 3.7 4.78z" fill="#fff"/></svg>