<svg xmlns="http://www.w3.org/2000/svg" width="160" height="30" viewBox="0 0 160 30"><path fill="#214583" d="M8.6 7.5h-5.5v-5.1h16.2v5.1h-5.5v15.7h-5.2v-15.7zm11.5-5.1h5.5v5.6c.5-.8 1.7-1.3 4.1-1.3 3.8 0 4.6 2.5 4.6 5.9v10.6h-5.5v-9.2c.1-1.5 0-2.1-1.4-2.1-1.6 0-1.9.6-1.9 2.2v9.1h-5.5v-20.8zm23.9 11.1h-4c.1-1.6.7-2.3 2.2-2.3 1.6 0 1.8.7 1.8 2.3zm-1.8 9.7c2.7 0 4.8-.5 6.5-1.4l-2-4c-1.1.5-2.2.9-4.3.9-1.7-.1-2.2-.5-2.4-1.9h8.7c.1-6 .3-10.2-6.5-10.2-5.6 0-7.4 3.1-7.4 8.3.2 5.3 1.6 8.3 7.4 8.3zm14-10.4c0-3.4.4-5.5 3.4-5.5s3.4 2.1 3.4 5.5-.3 5.4-3.3 5.4c-3.1 0-3.5-2-3.5-5.4zm3.6 10.4c7.4 0 8.8-5.1 8.8-10.6 0-5.6-1.3-10.6-9-10.6s-9 5.1-9 10.6c.2 5.5 1.6 10.6 9.2 10.6zm15-8c0-2.6.4-3.6 2.2-3.6 1.7 0 1.9.9 1.9 3.6 0 2.6-.4 3.4-2 3.4-1.7 0-2.1-.9-2.1-3.4zm-5.3 7.6l3.8.4.8-1.2c1 .8 1.5 1.2 4.5 1.2 4.8 0 5.6-3.7 5.6-8.2 0-4.4-.6-8.2-5.3-8.2-2.2 0-3.5.2-4.3 1.5v-5.9h-5.1v20.4zm14.8-1l1.9-3.9c1.2.6 3.1 1.1 4.9 1.1.9 0 1.2-.3 1.2-.8 0-.7-.9-.8-3-1.4-2.9-.8-4.5-1.7-4.5-4.9 0-4.1 2.8-5.3 6.5-5.3 2.5 0 3.7.3 5.3 1l-2 4.3c-1-.4-2.3-.7-3.6-.7-1.1 0-1.3.3-1.3.7 0 .6.9.7 2.5 1.1 3.3.9 4.8 1.9 4.8 5.2 0 3.5-2.6 5-6.1 5-2.3 0-4.8-.3-6.6-1.4zm20.7 1.4c2.7 0 4.8-.5 6.5-1.4l-2-4c-1.1.5-2.2.9-4.3.9-1.7-.1-2.2-.5-2.4-1.9h8.7c.1-6 .3-10.2-6.5-10.2-5.6 0-7.4 3.1-7.4 8.3.2 5.3 1.5 8.3 7.4 8.3zm7.4-16.2l4.3-.3.4 1.4c.8-.9 1.9-1.5 4.5-1.5v5c-3.4 0-3.7 1.2-3.7 3v8.1h-5.5v-15.7zm9.2 0h5.6l2.4 9.3 2.4-9.3h5.2l-4.9 16.1h-6l-4.7-16.1zm22.2 16.2c2.7 0 4.8-.5 6.5-1.4l-2-4c-1.1.5-2.2.9-4.3.9-1.7-.1-2.2-.5-2.4-1.9h8.7c.1-6 .3-10.2-6.5-10.2-5.6 0-7.4 3.1-7.4 8.3.2 5.3 1.5 8.3 7.4 8.3zm6.9-16.2l4.3-.3.4 1.4c.8-.9 1.9-1.5 4.5-1.5v5c-3.4 0-3.7 1.2-3.7 3v8.1h-5.5v-15.7zm-43.9 6.5h-4c.1-1.6.7-2.3 2.2-2.3 1.5 0 1.7.7 1.8 2.3zm38.7 0h-4c.1-1.6.7-2.3 2.2-2.3 1.6 0 1.8.7 1.8 2.3z"/></svg>