<svg xmlns="http://www.w3.org/2000/svg" height="30" width="160"><g fill="#005689"><path d="M8.59 7.487h-5.537v-5.076h16.15v5.076h-5.537v15.688h-5.076v-15.688zM20.126 2.411h5.537v5.583c.508-.84 1.657-1.26 4.148-1.26 3.834 0 4.614 2.552 4.614 5.86v10.567h-5.537v-9.182c.185-1.467-.046-2.113-1.384-2.113-1.569 0-1.846.646-1.846 2.169v9.136h-5.537v-20.764zM42.274 11.178c1.527.066 1.698.683 1.753 2.307h-4.005c.084-1.629.503-2.27 2.132-2.27zm-.046 11.997c2.769 0 4.799-.508 6.506-1.43l-1.984-4.014c-1.107.461-2.169.923-4.337.923-1.707-.138-2.215-.554-2.353-1.938h8.675c.092-5.999.323-10.151-6.46-10.151-5.629 0-7.383 3.092-7.383 8.306.138 5.353 1.477 8.306 7.383 8.306zM59.808 18.099c-3.239.182-3.654-1.915-3.654-5.306 0-3.382.416-5.491 3.438-5.491 2.995 0 3.41 2.099 3.41 5.491 0 3.41-.416 5.491-3.41 5.491zm0 5.076c7.383 0 8.767-5.076 8.767-10.613s-1.384-10.613-8.767-10.613c-7.844 0-9.228 5.076-9.228 10.613.217 5.537 1.573 10.613 9.228 10.613zM76.881 18.561c-1.758.061-2.09-.854-2.09-3.35 0-2.556.415-3.553 2.215-3.553 1.661 0 1.91.941 1.91 3.553 0 2.607-.333 3.415-1.91 3.415zm-7.383 4.254l3.821.361.831-1.223c.997.831 1.523 1.223 4.517 1.223 4.799 0 5.583-3.747 5.583-8.213 0-4.388-.609-8.259-5.353-8.259-2.155 0-3.511.25-4.342 1.472v-5.768h-5.076v20.395zM84.264 21.791l1.933-3.941c1.214.591 3.119 1.121 4.891 1.121.854 0 1.158-.308 1.158-.784 0-.701-.886-.757-2.953-1.375-2.898-.84-4.471-1.707-4.471-4.937 0-4.088 2.815-5.306 6.506-5.306 2.455 0 3.728.336 5.306.978l-1.989 4.259c-.992-.419-2.289-.674-3.562-.674-1.075 0-1.269.252-1.269.701 0 .646.881.701 2.51 1.149 3.258.895 4.799 1.878 4.799 5.168 0 3.53-2.566 5.03-6.091 5.03-2.482.017-4.983-.32-6.829-1.384zM105.028 11.178c1.527.066 1.698.683 1.753 2.307h-4.005c.084-1.629.503-2.27 2.132-2.27zm-.028 11.997c2.732 0 4.799-.503 6.506-1.43l-1.989-4.033c-1.094.475-2.187.923-4.342.923-1.68-.129-2.215-.521-2.353-1.92h8.306c0-5.999.461-10.151-6.46-10.151-5.537 0-7.383 3.092-7.383 8.306 0 5.353 1.384 8.306 7.383 8.306zM112.411 7.025l4.264-.35.449 1.393c.784-.918 1.878-1.504 4.517-1.504v5.03c-3.382 0-3.691 1.172-3.691 3.036v8.075h-5.537v-15.688zM121.639 7.025h5.583l2.307 9.321 2.769-9.321h5.076l-5.076 16.15h-5.768l-4.845-16.15zM143.787 11.178c1.527.066 1.698.683 1.753 2.307h-4.005c.084-1.629.503-2.27 2.132-2.27zm-.028 11.997c2.732 0 4.799-.503 6.506-1.43l-1.989-4.033c-1.094.475-2.187.923-4.342.923-1.68-.129-2.215-.521-2.353-1.92h8.306c0-5.999.461-10.151-6.46-10.151-5.537 0-7.383 3.092-7.383 8.306 0 5.353 1.384 8.306 7.383 8.306zM150.709 7.025l4.264-.35.449 1.393c.784-.918 1.878-1.504 4.517-1.504v5.03c-3.382 0-3.691 1.172-3.691 3.036v8.075h-5.537v-15.688z"/></g></svg>