<svg xmlns="http://www.w3.org/2000/svg" width="320" height="60"><path fill="#fff" d="M11 12H0V2h32.9v10H22v33H11V12zM46 2v11.5c1-1.7 3.5-2.6 8.6-2.6 7.8 0 9.4 5.3 9.4 12.1v22H53V26c.2-3.1-.4-4.4-3.1-4.4-3.2 0-3.9 1.3-3.9 4.4v19H35V2h11zm62.3 21.5c0-7 .8-11.4 7.1-11.4 6.1 0 6.9 4.3 6.9 11.4s-.7 11.2-6.8 11.2c-6.3 0-7.2-4.2-7.2-11.2zm7.5 21.5c15.2 0 17.9-10.5 17.9-22 0-11.6-2.7-22-18.4-22S96.9 11.5 96.9 23c.5 11.5 3.2 22 18.9 22zm30.6-16.5c0-5.3.8-7.4 4.5-7.4 3.4 0 3.9 1.9 3.9 7.4s-.9 7-4.1 7c-3.6 0-4.4-1.9-4.3-7zM143.3 45l1.7-2.5c2.1 1.7 3.1 2.5 9.2 2.5 9.8 0 10.7-7.7 10.7-17 0-9.1-.6-17.1-10.3-17.1-4.4 0-7 .6-8.7 3.1V2h-10v42.5l7.4.5zm22.3-2.9l4-8.1c2.4 1.2 6.4 2.3 10.1 2.3 1.8 0 2.4-.7 2.4-1.6 0-1.4-1.8-1.5-6-2.9-5.9-1.7-9.1-3.5-9.1-10.2 0-8.5 5.7-11 13.3-11 5 0 7.6.7 10.8 2l-4.1 8.8c-2.1-.9-4.7-1.4-7.3-1.4-2.2 0-2.6.5-2.6 1.4 0 1.3 1.8 1.4 5.1 2.4 6.7 1.8 9.8 3.9 9.8 10.7 0 7.3-5.3 10.4-12.4 10.4-5.1.1-10.2-.6-14-2.8zm65.9-31.6l1.2 3.1c1.6-1.9 4-3.1 9.3-3.1V21c-6.9 0-8 2.1-8 6v17h-10.9V11.5l8.4-1zm10.4 1.5h11.6l4.7 18.8L263 12h11l-10 33h-12.2l-9.9-33zm68.1-1.5l.8 3.2c1.6-1.9 3.9-3.2 9.2-3.2V21c-6.9 0-8 2.1-8 6v17h-11V11.5l9-1zM300.2 42l-4-8.3c-2.3 1-4.3 2.3-8.7 2.3-3.4-.3-4.7-1-5-4H300c0-12.5 1-21-12.9-21.4-11.5-.4-15.1 6.4-15.1 17.2.3 11.1 3 17.2 15 17.2 5.5 0 9.8-1 13.2-3zm-9.6-17h-8.2c.2-3.3 1.3-4.9 4.5-4.9 3.2.1 3.7 1.5 3.7 4.9zm-69.4 17.1l-4-8.3c-2.3 1-4.3 2.3-8.7 2.3-3.4-.3-4.7-1-5-4H221c0-12.5.5-21-12.9-21.4-11.5-.5-15.1 6.3-15.1 17.1.3 11.1 3 17.2 15 17.2 5.5 0 9.8-1 13.2-2.9zM211.6 25h-8.2c.2-3.3 1.3-4.9 4.5-4.8 4.2-.1 3.7 4.8 3.7 4.8zM93.2 42.1l-4-8.3c-2.3 1-4.3 2.3-8.7 2.3-3.4-.3-4.7-1-5-4H93c0-12 .5-21-12.9-21.4C68.6 10.2 65 17 65 27.8 65.3 38.9 68 45 80 45c5.5 0 9.8-1 13.2-2.9zM83.6 25h-8.2c.2-3.3 1.3-4.9 4.5-4.8 3.2.1 3.7 1.4 3.7 4.8z"/></svg>