<svg xmlns="http://www.w3.org/2000/svg" width="340" height="61"><path d="M12 13h-12v-11h35v11h-12v34h-11v-34zm25-11h12v12.145c1.103-1.822 3.591-2.732 8.99-2.732 8.311 0 10.01 5.526 10.01 12.692v22.895h-12v-19.92c.353-3.158-.071-4.555-2.984-4.555-3.409 0-4.016 1.397-4.016 4.676v19.799h-12v-45zm48 19c3.312.144 3.676 1.479 3.797 5h-8.684c.182-3.526 1.093-4.923 4.615-4.923zm-.061 26c5.923 0 10.356-1.093 14.061-3.097l-4.312-8.741c-2.368 1.031-4.736 2.003-9.413 2.003-3.644-.279-4.798-1.13-5.102-4.165h18.827c.243-13.016.668-22-14.029-22-12.206 0-15.971 6.678-15.971 18.029.331 11.534 3.186 17.971 16 17.971zm38.061-11c-7.02.394-7.921-4.152-7.921-11.545 0-7.333.901-11.879 7.451-11.879 6.489 0 7.391 4.547 7.391 11.879-.001 7.393-.902 11.939-7.391 11.939zm0 11c16.056 0 19-10.97 19-22.97 0-12.061-2.884-23.03-19.47-23.03s-19.53 10.97-19.53 23.03c.47 12 3.414 22.97 20 22.97zm37-10c-3.812.133-4.532-1.852-4.532-7.265 0-5.535.9-7.7 4.803-7.7 3.602 0 4.143 2.045 4.143 7.7 0 5.654-.721 7.399-4.143 7.399zm-15.999 9.218l8.285.782 1.801-2.648c2.162 1.804 3.302 2.648 9.786 2.648 10.387 0 12.128-8.122 12.128-17.809 0-9.506-1.32-17.867-11.587-17.867-4.669 0-7.612.542-9.413 3.188v-12.512h-11v44.218zm31.999-2.218l4.189-8.535c2.632 1.275 6.761 2.428 10.65 2.428 1.854 0 2.513-.667 2.513-1.7 0-1.518-1.916-1.639-6.402-2.975-6.282-1.821-9.692-3.702-9.692-10.684 0-8.863 6.102-11.534 14.118-11.534 5.325 0 8.077.728 11.547 2.124l-4.307 9.227c-2.154-.909-4.965-1.457-7.718-1.457-2.333 0-2.751.547-2.751 1.518 0 1.396 1.914 1.518 5.444 2.489 7.06 1.942 10.41 4.066 10.41 11.23 0 7.649-5.564 10.867-13.222 10.867-5.385.037-10.769-.694-14.778-3zm45-23c3.312.144 3.676 1.479 3.798 5h-8.684c.182-3.526 1.093-4.923 4.615-4.923zm-.06 26c5.923 0 10.357-1.093 14.06-3.097l-4.312-8.741c-2.368 1.031-4.735 2.003-9.412 2.003-3.644-.279-4.798-1.13-5.102-4.165h18.826c.244-13.016.669-22-14.028-22-12.208 0-15.972 6.678-15.972 18.029.331 11.534 3.186 17.971 16 17.971zm16.06-35l9.24-.758.973 3.018c1.702-1.991 4.072-3.259 9.786-3.259v10.922c-7.332 0-8 2.535-8 6.577v17.501h-12v-34zm20 0h12.097l5.234 20.241 5.296-20.241h11.373l-10.531 35h-12.998l-10.471-35zm48 9c3.313.144 3.677 1.479 3.798 5h-8.684c.182-3.526 1.093-4.923 4.615-4.923zm-.06 26c5.925 0 10.357-1.093 14.06-3.097l-4.311-8.741c-2.368 1.031-4.736 2.003-9.412 2.003-3.644-.279-4.798-1.13-5.102-4.165h18.825c.244-13.016.669-22-14.028-22-12.206 0-15.972 6.678-15.972 18.029.33 11.534 3.186 17.971 16 17.971zm15.06-35l9.24-.758.973 3.018c1.703-1.991 4.072-3.259 9.786-3.259v10.922c-7.331 0-8 2.535-8 6.577v17.501h-12v-34z" fill="#005689"/></svg>