<svg xmlns="http://www.w3.org/2000/svg" width="320" height="60" viewBox="0 0 320 60"><path d="M11 12h-11v-10.043h32.941v10.043h-10.941v33h-11v-33zm35-10.043v11.543c1.035-1.722 3.506-2.552 8.588-2.552 7.812 0 9.412 5.261 9.412 12.148v21.904h-11v-19.035c.188-3.061-.388-4.4-3.118-4.4-3.2 0-3.882 1.243-3.882 4.4v19.035h-11v-43.043h11zm62.329 21.522c0-6.983.847-11.383 7.059-11.383 6.118 0 6.965 4.304 6.965 11.383 0 7.078-.659 11.191-6.776 11.191-6.4 0-7.247-4.209-7.247-11.191zm7.435 21.522c15.153 0 17.882-10.522 17.882-22 0-11.574-2.729-22-18.353-22-15.624 0-18.353 10.522-18.353 22 .471 11.478 3.2 22 18.824 22zm30.588-16.548c0-5.261.847-7.365 4.518-7.365 3.388 0 3.859 1.913 3.859 7.365s-.847 6.983-4.047 6.983c-3.576.096-4.329-1.817-4.329-6.983zm-3.012 16.548l1.694-2.487c2.071 1.722 3.106 2.487 9.224 2.487 9.788 0 10.741-7.722 10.741-17 0-9.087-.576-17.148-10.271-17.148-4.424 0-7 .565-8.694 3.148v-12.043h-10.035v42.543l7.341.5zm22.306-2.87l3.953-8.13c2.447 1.243 6.4 2.296 10.071 2.296 1.788 0 2.353-.67 2.353-1.626 0-1.435-1.788-1.53-6.024-2.87-5.929-1.722-9.129-3.539-9.129-10.235 0-8.513 5.741-11 13.271-11 4.988 0 7.624.67 10.824 2.009l-4.047 8.8c-2.071-.861-4.706-1.435-7.247-1.435-2.165 0-2.635.478-2.635 1.435 0 1.339 1.788 1.435 5.082 2.391 6.682 1.817 9.788 3.922 9.788 10.713 0 7.27-5.271 10.426-12.424 10.426-4.988.096-10.071-.574-13.835-2.774zm65.853-31.63l1.159 3.126c1.6-1.913 3.976-3.126 9.341-3.126v10.5c-6.871 0-8 2.078-8 6v17.043h-10.941v-32.543l8.441-1zm10.382 1.5h11.618l4.665 18.843 4.835-18.843h11l-10 33h-12.235l-9.882-33zm68.118-1.53l.776 3.157c1.6-1.913 3.859-3.157 9.224-3.157v10.53c-6.871 0-8 2.078-8 6v17.043h-11v-32.543l9-1.03zm-9.765 31.565l-4.047-8.322c-2.259.957-4.265 2.287-8.688 2.287-3.388-.287-4.718-1.035-5-4h17.5c0-12.5 1-21-12.941-21.435-11.479-.358-15.059 6.409-15.059 17.217.282 11.096 3.012 17.217 14.965 17.217 5.553 0 9.788-1.052 13.271-2.965zm-9.6-17.122h-8.188c.188-3.348 1.318-4.878 4.518-4.783 3.106.096 3.576 1.435 3.671 4.783zm-69.4 17.122l-4.047-8.322c-2.259.957-4.265 2.287-8.688 2.287-3.388-.287-4.718-1.035-5-4h17.5c0-12.5.5-21-12.941-21.435-11.478-.371-15.059 6.409-15.059 17.217.282 11.096 3.012 17.217 14.965 17.217 5.553 0 9.788-1.052 13.271-2.965zm-9.6-17.122h-8.188c.188-3.348 1.318-4.878 4.518-4.783 3.106.096 3.576 1.435 3.671 4.783zm-118.4 17.122l-4.047-8.322c-2.259.957-4.265 2.287-8.688 2.287-3.388-.287-4.718-1.035-5-4h17.5c0-12 .5-21-12.941-21.435-11.478-.371-15.059 6.409-15.059 17.217.282 11.096 3.012 17.217 14.965 17.217 5.553 0 9.788-1.052 13.271-2.965zm-9.6-17.122h-8.188c.188-3.348 1.318-4.878 4.518-4.783 3.106.096 3.576 1.435 3.671 4.783z" fill="#fff"/></svg>