<svg xmlns="http://www.w3.org/2000/svg" width="70" height="70"><title>Post it</title><title>Layer 1</title><g><g transform="matrix(1.008 0 0 1.217 817.792 101.641)"><g><line x1="-745.726" y1="-73.155" x2="-745.726" y2="-73.155" fill="#2E3436"/><line x1="-745.726" y1="-73.155" x2="-745.726" y2="-73.155" stroke="#000" fill="none"/></g><g><path d="M-808.095-35.445" fill="#2E3436"/><path d="M-808.095-35.445" stroke="#000" fill="none"/></g><linearGradient id="a" gradientUnits="userSpaceOnUse" x1="-1092.743" y1="142.957" x2="-1092.7" y2="143.138" gradientTransform="matrix(389.347 50.215 62.074 -330.387 415799.688 102063.781)"><stop offset="0" stop-color="#FAE74F"/><stop offset="1" stop-color="#F1EA57" stop-opacity=".961"/></linearGradient><path d="M-801.975-80.221l59.438 5.552c-1.261 15.305-2.383 30.655-3.586 45.626-16.32-.19-42.046-3.772-64.113-5.637 3.873-15.025 6.554-30.215 8.261-45.541z" fill="url(#a)"/></g><g fill="#626366"><path d="M28.397 18.756c-.275 2.879-1.459 5.271-3.547 7.173-.365.334-.858.629-1.48.884-.693.285-1.339.432-1.938.439-.354-.002-.641-.015-.861-.04-.46-.051-.884-.148-1.268-.292-1.99-.746-2.903-1.972-2.739-3.678.152-1.594 1.141-3.407 2.964-5.439 1.824-2.032 3.874-3.589 6.15-4.671.233-.124.62-.224 1.159-.302l.025.078c-.812.372-1.42.71-1.826 1.014-1.799 1.423-3.304 2.904-4.515 4.442-1.414 1.79-2.188 3.396-2.324 4.817-.054.556.051 1.086.313 1.59.148.304.44.602.878.895.437.292.875.462 1.314.511.109.012.242.015.398.008.534-.016 1.062-.219 1.588-.61l.754-.59c1.8-1.66 2.83-3.85 3.09-6.568.008-.087.011-.461.008-1.124l-.045-.567c-.024-.439-.112-.905-.265-1.397-.034-.117-.114-.313-.243-.59-.129-.276-.192-.427-.189-.452.019-.197.193-.279.521-.241l.196.04.623.444c1.038.742 1.458 2.15 1.259 4.226z"/><path d="M36.017 23.55c-.058.597-.561 1.327-1.507 2.188-.874.794-1.726 1.365-2.557 1.712-.579.25-1.361.319-2.348.209-1.447-.162-2.128-.701-2.041-1.615.061-.63.551-1.402 1.47-2.318.919-.916 1.869-1.53 2.853-1.846l.3-.003.025.078c-2.001 1.687-3.048 3.026-3.144 4.014-.045.469.164.73.624.781.153.017.411-.01.772-.083.862-.204 1.638-.672 2.329-1.407.81-.821 1.229-1.367 1.254-1.64l.042-.445c.021.015-.286-.014-.921-.084-.461-.052-.678-.218-.65-.499.02-.218.31-.36.871-.427.405-.058.76-.069 1.067-.036 1.119.127 1.64.601 1.561 1.421z"/><path d="M43.682 26.124c-.113 1.198-1.182 1.941-3.205 2.227-.811.123-1.291.174-1.445.157-.154-.018-.225-.081-.214-.193.007-.073.033-.114.077-.122 1.236-.398 2.097-.755 2.581-1.069.482-.314.748-.707.794-1.177.023-.247-.035-.547-.179-.9-.195-.484-.477-.747-.847-.788-.979-.11-1.782.238-2.409 1.042-.522.641-.743 1.11-.662 1.406l-.48 5.023c-.312 1.177-.613 2.012-.905 2.503-.55.888-1.38 1.457-2.491 1.708l.01-.093c1.293-.768 2.038-2.177 2.233-4.229l.06-4.434c.066-.692.236-1.312.511-1.863.273-.55.772-1.01 1.495-1.379.838-.43 1.72-.595 2.64-.492.571.063 1.023.192 1.358.386.337.194.611.521.82.982.21.462.297.896.258 1.305z"/><path d="M51.585 24.477c-.764.102-1.597.349-2.498.741s-1.549.78-1.94 1.161l-.002.037c.383-.07.943-.139 1.681-.206.179-.004.389.006.628.034 1.186.132 1.747.507 1.688 1.125-.018.186-.103.382-.257.589-.146.159-.363.322-.645.491-.28.168-.714.345-1.297.529-.583.185-1.257.323-2.018.412-.27.033-.459.042-.569.031-.416-.047-.611-.193-.588-.44.02-.198.633-.491 1.846-.881 1.211-.389 1.825-.645 1.836-.769l.012-.13-.194-.04c-.623.029-1.749.085-3.374.166-.605-.167-.898-.35-.88-.548.011-.099.271-.335.785-.708.512-.374 1.148-.725 1.911-1.052.879-.389 1.643-.609 2.292-.662.647-.052 1.058-.068 1.233-.049l.328.055.022.114z"/><path d="M55.493 17.7l-.432 2.425c-.155.919-.401 3.034-.741 6.343l-.09 3.382c-.146-.116-.242-.251-.294-.407-.298-.833-.499-1.861-.603-3.084-.026-.641-.048-1.717-.057-3.229.092-.952.174-1.679.243-2.184.106-1.1.238-2.259.399-3.478.1-.813.332-1.481.689-2.002l.176-.056c.178-.03.312-.04.398-.03.461.051.668.331.618.837l-.306 1.483zm-.987 12.724c-.483-.054-.738.067-.766.364-.018.173.123.313.425.422l.191.096c.139.153.329.243.571.271.481.054.737-.067.767-.364.023-.248-.266-.485-.862-.715-.108-.038-.217-.062-.326-.074z"/><path d="M26.311 35.311l-.112.475c-.15-.291-.324-.501-.521-.629-.199-.129-.539-.22-1.021-.273-2.216-.248-3.409.53-3.583 2.335-.066.692.084 1.896.452 3.609.336 1.575.459 2.837.369 3.789-.104 1.076-.504 2.019-1.202 2.826-.323.364-.982.89-1.979 1.578-.308.202-.841.442-1.599.72-.823.271-1.356.393-1.597.365-.373-.041-.549-.175-.528-.397.012-.124.157-.243.434-.362.812-.383 1.535-.747 2.166-1.09.234-.135.578-.364 1.03-.688 1.049-.771 1.64-1.847 1.772-3.231.082-.84-.026-2.096-.32-3.766-.294-1.669-.41-2.831-.348-3.485.206-2.138 1.744-3.047 4.617-2.726 1.14.127 1.796.443 1.97.95z"/><path d="M31.12 45.488c-.057.596-.559 1.325-1.506 2.188-.875.794-1.727 1.365-2.558 1.712-.578.25-1.361.318-2.348.208-1.447-.16-2.126-.699-2.039-1.612.061-.631.55-1.403 1.469-2.318.92-.916 1.87-1.531 2.854-1.848l.299-.004.026.077c-2.001 1.689-3.049 3.028-3.144 4.018-.046.467.162.729.623.779.153.019.411-.009.772-.082.862-.202 1.638-.67 2.33-1.406.81-.821 1.228-1.369 1.253-1.641l.043-.444c.02.013-.288-.015-.923-.085-.46-.051-.677-.219-.65-.5.021-.216.311-.357.872-.425.404-.06.76-.071 1.068-.037 1.118.123 1.638.599 1.559 1.42z"/><path d="M40.008 46.066c-.017.17-.202.233-.55.194l-.396-.044-.429-.048c-.788-.089-1.436-.055-1.937.102-.597.208-1.231.701-1.904 1.474-.276.331-.571.767-.889 1.306-.377.682-.617 1.105-.721 1.269-.076.117-.247.161-.51.131-.418-.049-.64-.266-.669-.656l.115-1.896c.001-.238-.019-.621-.055-1.149l-.063-.738c.005-.049.084-.066.237-.049.238.526.473 1.196.705 2.01 1.302-2.027 3.019-2.925 5.146-2.687.395.045.785.132 1.172.26.516.165.765.34.748.521z"/><path d="M46.52 46.793c-.016.17-.198.234-.549.198l-.396-.047-.427-.048c-.79-.087-1.437-.053-1.939.103-.598.209-1.229.7-1.903 1.473-.276.333-.571.766-.891 1.305-.376.685-.615 1.106-.72 1.271-.076.114-.246.158-.51.129-.417-.046-.641-.265-.67-.656l.116-1.897c0-.238-.019-.619-.056-1.148l-.063-.738c.006-.049.085-.065.238-.049.237.527.473 1.197.704 2.01 1.302-2.028 3.019-2.923 5.145-2.687.396.046.786.131 1.173.26.517.166.765.34.748.521z"/><path d="M51.62 47.695l-.102.364c-.155.468-.266.812-.331 1.029-.281.619-.669 1.537-1.162 2.758-.028.07-.032.16-.009.27.023.108.009.204-.044.284l-.183.187c-.098.325-.168.699-.209 1.119-.074.766.072 1.61.439 2.532.366.922.544 1.424.536 1.511-.02.211-.219.294-.597.253-.244-.027-.507-.225-.786-.594-.654-.886-.925-1.945-.805-3.182.037-.408.209-1.044.514-1.911-.616-.268-1.029-.607-1.232-1.018-.076-.133-.163-.479-.266-1.041l.283-2.253c-.018-.289-.139-.527-.363-.716.281.044.467.097.549.154.415.299.646.66.695 1.089.011.352.031.695.066 1.03l.106.977c.076.358.235.675.473.952l2.55-5.073-.122 1.279z"/></g></g></svg>