<svg xmlns="http://www.w3.org/2000/svg" height="31" viewBox="-0.19 -0.9 68 31" width="68" enable-background="new -0.19 -0.9 68 31" overflow="visible"><path d="M59 0c-4.7 0-8.3 3.8-8.3 8.2 0 3.9 2.6 6.1 2.6 6.1.26.22.19.34.01.52 0 0-2.6 2.3-2.6 6 0 5 4 8.3 8.3 8.3 4.8 0 8.3-3.9 8.3-8.3 0-3.7-2.5-5.9-2.5-5.9-.35-.34-.35-.39 0-.7 0 0 2.5-2.1 2.5-6 .001-4.4-3.5-8.2-8.3-8.2zm-1.8 4.3c.24 0 .44.12.56.31.12-.18.33-.31.57-.31.27 0 .51.16.61.39.11-.23.34-.39.61-.39s.51.16.61.39c.11-.23.34-.39.61-.39.37 0 .67.3.67.68s-.3.68-.67.68c-.27 0-.5-.16-.61-.39-.11.23-.34.39-.61.39s-.5-.16-.61-.39c-.11.23-.34.39-.61.39-.24 0-.44-.12-.57-.31-.048.073-.11.14-.18.19.18.12.29.32.29.56 0 .23-.12.43-.29.55.17.12.29.32.29.55s-.12.43-.29.55l.14.13c.12-.15.32-.25.53-.25.25 0 .46.13.58.33.12-.2.33-.33.58-.33.24 0 .46.13.58.32.12-.19.33-.32.58-.32.37 0 .68.3.68.68 0 .37-.3.68-.68.68-.25 0-.46-.13-.58-.32-.12.2-.33.32-.58.32s-.46-.13-.58-.33c-.12.2-.33.33-.58.33-.21 0-.4-.1-.53-.25l-.14.13c.18.12.29.32.29.56 0 .23-.12.43-.29.56.18.12.29.32.29.56s-.12.43-.29.56c.073.05.13.11.18.18.12-.18.33-.31.57-.31.27 0 .51.16.61.39.11-.23.34-.39.61-.39s.51.16.61.39c.11-.23.34-.39.61-.39.37 0 .67.3.67.68s-.3.68-.67.68c-.27 0-.5-.16-.61-.39-.11.23-.34.39-.61.39s-.5-.16-.61-.39c-.11.23-.34.39-.61.39-.24 0-.44-.12-.56-.3-.12.19-.33.31-.56.31-.37 0-.68-.3-.68-.68 0-.23.12-.43.29-.56-.18-.12-.29-.32-.29-.56s.12-.43.29-.56c-.18-.12-.29-.33-.29-.56s.12-.43.29-.56c-.18-.12-.29-.33-.29-.56s.11-.43.29-.55c-.18-.12-.29-.32-.29-.55s.11-.43.29-.55c-.18-.12-.29-.32-.29-.55s.12-.43.29-.56c-.18-.12-.29-.32-.29-.56 0-.37.3-.67.68-.67zm0 13c.24 0 .44.12.56.31.12-.18.33-.31.57-.31.27 0 .51.16.61.39.11-.23.34-.39.61-.39s.51.16.61.39c.11-.23.34-.39.61-.39.37 0 .67.3.67.68s-.3.67-.67.67c-.27 0-.5-.16-.61-.39-.11.23-.34.39-.61.39s-.5-.16-.61-.39c-.11.23-.34.39-.61.39-.24 0-.44-.12-.57-.3-.048.073-.11.14-.18.19.18.12.29.32.29.56 0 .23-.12.43-.29.55.17.12.29.32.29.56 0 .23-.12.43-.29.55l.14.14c.12-.16.32-.26.53-.26.25 0 .46.13.58.33.12-.2.33-.33.58-.33.24 0 .46.13.58.32.12-.19.33-.32.58-.32.37 0 .68.3.68.68s-.3.68-.68.68c-.25 0-.46-.13-.58-.33-.12.2-.33.33-.58.33s-.46-.14-.58-.33c-.12.2-.33.33-.58.33-.21 0-.4-.1-.53-.26l-.14.14c.18.12.29.32.29.56 0 .23-.12.43-.29.55.18.12.29.33.29.56s-.12.43-.29.56c.073.05.13.11.18.18.12-.18.33-.31.57-.31.27 0 .51.16.61.39.11-.23.34-.39.61-.39s.51.16.61.39c.11-.23.34-.39.61-.39.37 0 .67.3.67.68s-.3.68-.67.68c-.27 0-.5-.16-.61-.39-.11.23-.34.39-.61.39s-.5-.16-.61-.39c-.11.23-.34.39-.61.39-.24 0-.44-.12-.56-.3-.12.18-.33.31-.56.31-.37 0-.68-.3-.68-.68 0-.23.12-.43.29-.56-.18-.12-.29-.32-.29-.56 0-.23.12-.43.29-.56-.18-.12-.29-.32-.29-.55s.12-.44.29-.56c-.18-.12-.29-.32-.29-.56 0-.23.11-.43.29-.56-.18-.12-.29-.32-.29-.55s.11-.43.29-.56c-.18-.12-.29-.32-.29-.55s.12-.43.29-.56c-.18-.12-.29-.32-.29-.56 0-.37.3-.68.68-.68z" fill="#059098"/><path d="M5.1 10c-.062.73-.31 1.3-.75 1.7-.44.41-1 .61-1.8.61-.3 0-.58-.04-.86-.12-.28-.078-.52-.16-.72-.26v2c0 .13-.047.25-.14.34-.09.097-.2.15-.33.15s-.25-.049-.34-.15c-.096-.097-.14-.21-.14-.34v-6.9l.033-.2c.027-.054.076-.11.15-.16.07-.055.18-.12.34-.2.16-.077.34-.16.55-.23.21-.078.44-.14.69-.2.25-.055.52-.082.79-.082.76 0 1.4.21 1.8.64.43.42.68 1 .74 1.7l.016.37.007.45-.007.45-.016.38zm-.96-1.6c-.093-1-.62-1.5-1.6-1.5-.15 0-.3.017-.46.047-.16.031-.31.071-.46.12-.15.047-.28.099-.4.16l-.28.16v3.6l.26.13.37.14c.14.043.28.08.44.11.16.032.32.047.48.047.54 0 .93-.13 1.2-.38.26-.25.4-.62.44-1.1l.019-.33.005-.42-.006-.43-.018-.36zm5.2-2.4c.36 0 .69.057 1 .17.31.12.58.27.81.47s.41.45.55.73.22.6.24.94c.018.24.026.52.026.83 0 .32-.009.59-.026.82-.022.34-.1.66-.24.95s-.32.54-.55.75-.5.37-.81.49-.65.18-1 .18-.69-.059-1-.18c-.31-.12-.58-.28-.81-.49s-.42-.46-.56-.75-.22-.6-.24-.95l-.019-.39-.005-.44.005-.44.019-.39c.024-.34.1-.66.24-.94s.32-.53.56-.73c.23-.2.5-.36.81-.47s.64-.17 1-.17zm0 .89c-.49 0-.88.14-1.2.42-.29.28-.46.64-.48 1.1l-.018.36-.005.41.006.41.018.35c.039.46.21.83.5 1.1.3.28.68.42 1.2.42s.86-.14 1.2-.42c.3-.28.46-.65.5-1.1l.01-.35v-.82l-.01-.36c-.032-.44-.2-.79-.49-1.1-.29-.28-.68-.42-1.2-.42zm8.2.28l-.058-.046-.059.046-1.2 4.5c-.061.25-.17.44-.31.56-.15.12-.32.18-.52.18s-.38-.058-.54-.17c-.16-.12-.27-.3-.33-.55l-1.4-4.9c-.046-.18-.027-.34.06-.47.085-.14.21-.2.37-.2.1 0 .19.03.27.088.077.059.13.14.16.25l1.3 4.9.059.059.058-.059 1.2-4.6c.056-.22.16-.39.32-.51s.33-.18.53-.18.38.061.52.18c.15.12.25.29.31.52l1.2 4.6.06.059.058-.059 1.3-4.9c.026-.12.079-.21.16-.28.085-.066.19-.099.3-.099.17 0 .3.071.38.21s.1.3.053.47l-1.4 4.9c-.07.25-.18.43-.33.55s-.33.17-.53.17-.38-.058-.54-.17c-.16-.12-.27-.3-.33-.55l-1.2-4.5zm11 1.7c0 .2-.056.37-.16.49-.11.12-.29.19-.52.19h-3.5v.19c0 .55.16.98.48 1.3.32.3.74.44 1.3.44.21 0 .43-.028.67-.083s.49-.13.76-.22c.1-.04.19-.055.28-.047l.22.07.13.15.048.2c0 .078-.019.15-.053.22-.034.069-.1.14-.2.2-.093.055-.21.1-.36.15-.14.046-.3.085-.47.12-.17.032-.34.058-.52.077-.18.02-.35.029-.52.029-.4 0-.77-.061-1.1-.18s-.59-.29-.82-.51c-.23-.22-.4-.49-.52-.79-.13-.31-.2-.65-.22-1-.015-.23-.022-.47-.019-.74.006-.26.015-.49.03-.67.03-.38.12-.71.26-1 .14-.3.32-.55.55-.76.22-.21.49-.37.79-.48s.63-.16.99-.16c.38 0 .73.063 1 .19.31.12.58.3.79.53.22.22.38.49.5.8s.18.65.18 1v.35zm-1.1-.12c.086 0 .14-.046.15-.14.016-.26-.011-.51-.074-.72-.068-.22-.17-.4-.31-.56s-.31-.28-.51-.36c-.2-.085-.43-.13-.68-.13-.58 0-1 .17-1.3.52-.28.35-.41.81-.4 1.4h3.1zm5.7-2.6c.25.062.38.21.38.44 0 .094-.038.19-.11.29-.074.098-.19.15-.36.15-.12 0-.25-.017-.4-.046-.15-.032-.32-.047-.53-.047-.33.008-.56.096-.72.26-.15.17-.23.43-.23.79v3.8c0 .13-.049.25-.14.34-.092.092-.2.14-.34.14-.13 0-.25-.047-.34-.14s-.14-.21-.14-.34v-3.9c0-.58.16-1 .49-1.4.32-.33.8-.5 1.4-.5.2 0 .4.012.58.036s.33.055.44.094zm6.4 2.8c0 .2-.055.37-.16.49-.11.12-.28.19-.52.19h-3.5v.19c0 .55.16.98.48 1.3.32.3.74.44 1.3.44.21 0 .43-.028.67-.083s.49-.13.75-.22c.1-.04.2-.055.28-.047l.22.07.14.15.044.2c0 .078-.016.15-.052.22-.037.069-.1.14-.2.2-.093.055-.21.1-.36.15-.14.046-.3.085-.47.12-.17.032-.34.058-.52.077-.18.02-.35.029-.52.029-.4 0-.76-.061-1.1-.18-.32-.12-.59-.29-.82-.51s-.4-.49-.53-.79c-.12-.31-.2-.65-.22-1-.015-.23-.02-.47-.016-.74.003-.26.013-.49.028-.67.032-.38.12-.71.26-1 .14-.3.32-.55.55-.76.22-.21.49-.37.79-.48s.63-.16.98-.16c.38 0 .73.063 1 .19.31.12.58.3.79.53.22.22.39.49.5.8.12.31.18.65.18 1v.35zm-1.1-.12c.087 0 .14-.046.15-.14.017-.26-.008-.51-.074-.72-.066-.22-.17-.4-.31-.56s-.31-.28-.51-.36c-.2-.085-.43-.13-.68-.13-.58 0-1 .17-1.3.52-.28.35-.41.81-.4 1.4h3.1zm2.7-.44c.062-.73.3-1.3.71-1.7.41-.41.99-.61 1.7-.61.32 0 .63.04.92.12.3.078.55.16.76.26v-2c0-.13.044-.25.13-.34.09-.097.2-.15.34-.15s.25.049.34.15c.089.098.14.21.14.34v6.8l-.036.21c-.022.054-.077.11-.16.18l-.33.19c-.15.083-.32.16-.53.23-.2.075-.43.14-.68.19-.24.055-.5.083-.76.083-.78 0-1.4-.21-1.8-.64-.44-.42-.69-1-.75-1.7l-.018-.37-.006-.45.006-.45.017-.38zm.95 1.6c.093 1 .64 1.5 1.6 1.5.14 0 .29-.015.44-.047.16-.031.31-.07.44-.12.14-.047.27-.099.38-.16l.27-.16v-3.7c-.14-.085-.36-.18-.67-.27-.3-.093-.63-.14-.98-.14-.51 0-.88.13-1.1.38-.24.25-.38.62-.42 1.1l-.019.33-.006.42.006.43.018.36zm-20 10l.018.38.006.45-.006.45-.018.38c-.062.72-.31 1.3-.75 1.7-.44.42-1 .64-1.8.64-.27 0-.52-.026-.77-.08-.25-.055-.47-.12-.68-.19-.21-.074-.39-.15-.54-.23l-.33-.19c-.084-.062-.14-.12-.16-.18l-.028-.21v-6.8c0-.13.047-.25.14-.34s.2-.15.33-.15.24.049.34.15c.094.097.14.21.14.34v2c.21-.094.46-.18.75-.26.29-.078.6-.12.93-.12.75 0 1.3.2 1.7.61.41.4.65.97.71 1.7zm-.96 1.6l.019-.36.005-.42-.005-.41-.019-.33c-.032-.49-.17-.86-.41-1.1-.24-.25-.61-.38-1.1-.38-.35 0-.68.047-.98.14-.3.094-.53.18-.67.27v3.7l.27.16c.12.059.24.11.39.16l.44.12c.16.031.3.047.44.047 1-.001 1.5-.52 1.6-1.5zm2.1-3.1c-.07-.18-.058-.34.034-.47.095-.14.23-.21.41-.21.12 0 .21.033.27.096.064.061.12.14.17.24l1.8 4.2c.027.062.061.062.092 0l1.6-4.1c.037-.11.095-.2.18-.27.076-.07.18-.11.29-.11.18 0 .32.073.41.22.094.14.1.3.034.46l-2.2 5.3c-.22.54-.49 1-.79 1.4-.3.39-.58.67-.84.82-.16.094-.3.14-.42.14s-.23-.039-.33-.12c-.094-.082-.14-.19-.14-.32 0-.079.018-.16.057-.23.038-.077.095-.14.16-.17.25-.14.5-.35.75-.64.25-.28.45-.66.61-1.1l-2.2-5.1zm15-2.7c.13 0 .24.045.34.14s.14.2.14.33-.048.24-.14.33c-.099.086-.21.13-.33.13h-3.9v2.7h3.8c.13 0 .24.041.33.13.089.084.14.19.14.33 0 .12-.05.23-.14.32-.093.089-.2.13-.32.13h-3.8v2.7h3.9c.12 0 .24.042.33.13s.15.2.15.33-.045.24-.14.33-.21.14-.34.14h-4.1c-.27 0-.47-.077-.61-.23s-.21-.34-.21-.56v-6.6c0-.23.068-.41.21-.57.14-.15.34-.23.61-.23h4zm7.3 0c.13 0 .25.045.34.14s.14.2.14.33-.048.24-.14.33c-.097.086-.21.13-.33.13h-3.9v2.7h3.8c.13 0 .24.041.33.13.091.084.14.19.14.33 0 .12-.048.23-.14.32-.096.089-.2.13-.33.13h-3.8v2.7h3.9c.13 0 .24.042.33.13s.15.2.15.33-.047.24-.14.33c-.094.09-.21.14-.34.14h-4.1c-.26 0-.47-.077-.61-.23s-.21-.34-.21-.56v-6.6c0-.23.07-.41.21-.57.14-.15.34-.23.61-.23h4z" fill="#676868"/></svg>
