<svg xmlns="http://www.w3.org/2000/svg" overflow="visible" height="31" width="68" enable-background="new -0.19 -0.9 68 31" viewBox="-0.19 -0.9 68 31"><path d="M59.359 0c-4.676 0-8.304 3.8-8.304 8.243 0 3.937 2.57 6.058 2.57 6.058.256.224.191.34.01.524 0 0-2.58 2.346-2.58 5.974 0 4.973 3.98 8.332 8.304 8.332 4.835 0 8.273-3.931 8.273-8.272 0-3.736-2.476-5.944-2.476-5.944-.351-.335-.349-.391 0-.698 0 0 2.476-2.081 2.476-5.973.001-4.395-3.53-8.244-8.273-8.244zm-1.847 4.276c.236 0 .443.123.563.306.121-.184.328-.306.566-.306.271 0 .506.161.612.391.106-.23.34-.391.611-.391s.506.161.612.391c.108-.23.342-.391.613-.391.372 0 .674.302.674.675s-.302.675-.674.675c-.271 0-.505-.16-.613-.39-.106.23-.342.39-.612.39-.271 0-.505-.16-.611-.392-.106.231-.341.392-.612.392-.238 0-.445-.122-.566-.306-.048.073-.107.137-.181.186.175.122.292.325.292.556 0 .229-.115.432-.289.554.174.123.289.324.289.554 0 .229-.115.431-.289.554l.142.132c.123-.154.315-.254.527-.254.249 0 .463.133.581.332.117-.199.334-.332.582-.332.245 0 .46.13.577.324.117-.194.332-.324.578-.324.373 0 .675.301.675.675 0 .373-.302.675-.675.675-.246 0-.461-.13-.578-.325-.117.195-.332.325-.577.325-.248 0-.465-.134-.582-.333-.118.199-.332.333-.581.333-.212 0-.404-.1-.527-.254l-.145.134c.175.121.292.325.292.556 0 .23-.117.434-.292.556.175.122.292.324.292.555s-.117.434-.292.556c.073.05.133.112.181.183.12-.184.328-.307.566-.307.271 0 .506.16.612.391.106-.231.34-.391.611-.391s.506.159.612.39c.108-.231.342-.39.613-.39.372 0 .674.303.674.675s-.302.675-.674.675c-.271 0-.505-.16-.613-.39-.106.23-.342.39-.612.39-.271 0-.505-.161-.611-.391-.106.23-.341.391-.612.391-.237 0-.442-.121-.564-.304-.12.186-.327.308-.565.308-.373 0-.675-.302-.675-.675 0-.231.116-.434.292-.555-.176-.122-.292-.325-.292-.556s.116-.433.292-.555c-.176-.123-.292-.326-.292-.557 0-.23.116-.434.292-.555-.176-.122-.292-.326-.292-.555s.114-.432.289-.554c-.175-.123-.289-.325-.289-.554 0-.23.114-.431.289-.554-.175-.122-.289-.325-.289-.554 0-.23.116-.434.292-.556-.176-.121-.292-.325-.292-.556 0-.37.302-.673.675-.673zm0 12.572c.236 0 .443.123.563.307.121-.184.328-.307.566-.307.271 0 .506.161.612.393.106-.231.34-.393.611-.393s.506.16.612.392c.108-.231.342-.392.613-.392.372 0 .674.303.674.676s-.302.674-.674.674c-.271 0-.505-.158-.613-.389-.106.229-.342.389-.612.389-.271 0-.505-.159-.611-.391-.106.231-.341.391-.612.391-.238 0-.445-.119-.566-.305-.048.073-.107.139-.18.187.176.122.291.325.291.556 0 .229-.115.431-.289.553.174.123.289.324.289.555 0 .229-.115.432-.289.553l.142.135c.123-.156.315-.256.527-.256.249 0 .463.134.581.332.117-.198.334-.332.582-.332.245 0 .46.131.577.324.117-.193.332-.324.578-.324.373 0 .675.303.675.676s-.302.676-.675.676c-.246 0-.461-.131-.578-.326-.117.195-.332.326-.577.326-.248 0-.465-.135-.582-.334-.118.199-.332.334-.581.334-.212 0-.404-.101-.527-.256l-.145.135c.175.122.292.325.292.557 0 .23-.115.433-.291.554.176.122.291.326.291.556s-.117.434-.292.556c.073.05.133.112.181.185.12-.185.328-.308.566-.308.271 0 .506.161.612.392.106-.23.34-.392.611-.392s.506.161.612.391c.108-.229.342-.391.613-.391.372 0 .674.302.674.675s-.302.676-.674.676c-.271 0-.505-.161-.613-.392-.106.23-.342.392-.612.392-.271 0-.505-.161-.611-.392-.106.23-.341.392-.612.392-.237 0-.442-.121-.564-.305-.12.185-.327.308-.565.308-.373 0-.675-.302-.675-.675 0-.231.116-.434.292-.556-.176-.122-.292-.325-.292-.556 0-.229.116-.434.291-.556-.175-.121-.291-.323-.291-.554s.116-.435.292-.557c-.176-.121-.292-.324-.292-.555 0-.229.114-.433.289-.555-.175-.121-.289-.324-.289-.553 0-.23.114-.432.289-.555-.175-.122-.289-.324-.289-.553 0-.23.116-.434.291-.556-.175-.121-.291-.325-.291-.556 0-.373.302-.676.675-.676z" fill="#059098"/><path d="M5.091 10.197c-.062.73-.312 1.301-.748 1.71-.435.408-1.044.613-1.821.613-.296 0-.582-.04-.857-.118-.277-.078-.518-.162-.718-.256v2.043c0 .133-.047.248-.136.345-.09.097-.199.146-.331.146-.133 0-.247-.049-.34-.146-.096-.097-.14-.212-.14-.345v-6.924l.033-.199c.027-.054.076-.108.154-.163.07-.055.183-.121.338-.199.157-.077.339-.155.55-.233.209-.078.441-.144.693-.199.254-.055.516-.082.788-.082.763 0 1.36.212 1.793.637.433.424.68.999.742 1.723l.016.372.007.451-.007.449-.016.375zm-.958-1.578c-.093-1.027-.622-1.542-1.589-1.542-.146 0-.301.017-.459.047-.16.031-.314.071-.462.118-.149.047-.281.099-.397.157l-.279.157v3.644l.256.134.368.14c.136.043.284.08.443.111.16.032.321.047.485.047.536 0 .931-.126 1.19-.379.258-.253.405-.621.444-1.104l.019-.328.005-.42-.006-.426-.018-.356zm5.15-2.429c.357 0 .692.057 1.004.169.313.115.582.271.813.474.229.202.411.446.549.73.136.285.215.598.237.941.018.24.026.518.026.834 0 .315-.009.589-.026.823-.022.342-.102.658-.237.946-.138.288-.32.537-.549.748-.23.209-.5.374-.812.49-.312.117-.646.176-1.004.176s-.691-.059-.999-.176c-.309-.116-.578-.281-.811-.49-.234-.211-.42-.459-.556-.748-.137-.288-.215-.604-.239-.946l-.019-.391-.005-.437.005-.438.019-.392c.024-.343.103-.656.239-.941.136-.284.321-.528.556-.73.232-.202.502-.358.81-.473.308-.112.641-.169.999-.169zm0 .887c-.489 0-.883.141-1.173.421-.293.281-.455.639-.485 1.074l-.018.357-.005.414.006.409.018.351c.039.459.207.829.503 1.109.295.279.68.419 1.155.419s.86-.141 1.155-.419c.296-.281.463-.65.504-1.109l.01-.351v-.823l-.01-.357c-.032-.435-.195-.792-.486-1.074-.292-.28-.684-.421-1.174-.421zm8.209.281l-.058-.046-.059.046-1.192 4.46c-.061.25-.166.436-.314.555-.148.12-.322.181-.525.181-.204 0-.383-.058-.543-.174-.159-.118-.271-.3-.333-.55l-1.355-4.905c-.046-.179-.027-.336.06-.472.085-.137.21-.205.373-.205.101 0 .189.03.269.088.077.059.131.142.163.251l1.32 4.928.059.059.058-.059 1.18-4.578c.056-.217.16-.387.315-.507.157-.121.33-.182.526-.182.201 0 .377.061.525.182.147.121.252.293.313.52l1.18 4.565.06.059.058-.059 1.271-4.892c.026-.118.079-.208.165-.275.085-.066.188-.099.305-.099.171 0 .296.071.379.211s.1.295.053.466l-1.367 4.905c-.07.25-.181.432-.332.55-.152.116-.328.174-.531.174-.202 0-.381-.058-.537-.174-.157-.118-.267-.3-.327-.55l-1.159-4.473zm10.568 1.717c0 .202-.056.366-.162.491-.109.124-.286.186-.525.186h-3.493v.186c0 .554.161.979.485 1.274.321.295.741.444 1.255.444.209 0 .433-.028.67-.083.238-.055.489-.129.755-.221.1-.04.193-.055.279-.047l.216.07.134.152.048.199c0 .078-.019.151-.053.223-.034.069-.104.136-.204.198-.093.055-.212.104-.356.152-.144.046-.301.085-.467.116-.168.032-.34.058-.52.077-.179.02-.35.029-.515.029-.405 0-.766-.061-1.085-.182s-.592-.292-.818-.513c-.226-.222-.401-.487-.523-.794-.126-.308-.199-.649-.224-1.022-.015-.227-.022-.471-.019-.735.006-.265.015-.487.03-.666.03-.375.117-.711.257-1.011.14-.299.323-.554.551-.765.224-.21.487-.37.787-.479.299-.109.627-.164.987-.164.382 0 .729.063 1.039.188.312.124.578.3.794.526.219.225.385.492.502.799.116.309.175.649.175 1.022v.35zm-1.074-.117c.086 0 .135-.046.151-.14.016-.264-.011-.506-.074-.724-.068-.217-.172-.404-.312-.56-.139-.156-.311-.277-.513-.363-.202-.085-.427-.128-.678-.128-.576 0-1.004.173-1.283.52-.28.346-.412.812-.397 1.395h3.106zm5.71-2.639c.249.062.375.209.375.443 0 .094-.038.189-.111.286-.074.098-.192.146-.355.146-.118 0-.252-.017-.398-.046-.147-.032-.324-.047-.526-.047-.326.008-.565.096-.718.262-.152.168-.226.431-.226.789v3.83c0 .133-.049.247-.144.339-.092.092-.203.14-.337.14-.133 0-.247-.047-.34-.14s-.139-.207-.139-.339v-3.935c0-.576.162-1.03.49-1.361.325-.331.798-.497 1.412-.497.202 0 .395.012.577.036.183.024.331.055.44.094zm6.387 2.756c0 .202-.055.366-.163.491-.109.124-.284.186-.524.186h-3.493v.186c0 .554.163.979.485 1.274.324.295.741.444 1.257.444.21 0 .433-.028.671-.083.236-.055.487-.129.751-.221.102-.04.195-.055.281-.047l.216.07.137.152.044.199c0 .078-.016.151-.052.223-.037.069-.103.136-.204.198-.093.055-.211.104-.358.152-.142.046-.299.085-.466.116-.166.032-.34.058-.519.077-.18.02-.351.029-.516.029-.403 0-.765-.061-1.085-.182-.318-.121-.592-.292-.816-.513-.226-.222-.4-.487-.527-.794-.124-.308-.198-.649-.222-1.022-.015-.227-.02-.471-.016-.735.003-.265.013-.487.028-.666.032-.375.115-.711.257-1.011.141-.299.324-.554.55-.765.225-.209.489-.369.788-.479.299-.109.627-.164.985-.164.383 0 .728.063 1.04.188.312.124.575.3.794.526.218.225.386.492.502.799.115.309.175.649.175 1.022v.35zm-1.074-.117c.087 0 .137-.046.151-.14.017-.264-.008-.506-.074-.724-.066-.217-.169-.404-.311-.56-.14-.156-.312-.277-.513-.363-.204-.085-.429-.128-.678-.128-.576 0-1.004.173-1.285.52-.28.346-.413.812-.397 1.395h3.107zm2.663-.443c.062-.733.298-1.303.713-1.711.412-.409.991-.614 1.74-.614.317 0 .627.04.921.117.297.078.551.164.76.258v-1.963c0-.132.044-.247.133-.344.09-.097.201-.146.335-.146.14 0 .253.049.343.146.089.098.136.212.136.344v6.832l-.036.21c-.022.054-.077.113-.164.175l-.326.193c-.147.083-.325.16-.532.234-.204.075-.431.138-.676.192-.244.055-.5.083-.764.083-.78 0-1.388-.213-1.83-.637-.438-.423-.689-.998-.752-1.722l-.018-.368-.006-.45.006-.449.017-.38zm.947 1.576c.093 1.028.641 1.541 1.645 1.541.142 0 .288-.015.443-.047.155-.031.306-.07.444-.117.14-.047.27-.099.384-.157l.271-.159v-3.665c-.139-.085-.362-.175-.666-.269-.303-.093-.63-.141-.98-.141-.506 0-.88.127-1.122.38-.24.253-.382.621-.418 1.104l-.019.327-.006.42.006.427.018.356zm-19.707 10.425l.018.385.006.449-.006.449-.018.375c-.062.724-.314 1.298-.754 1.723-.439.424-1.047.635-1.825.635-.267 0-.52-.026-.766-.08-.246-.055-.473-.119-.677-.193-.208-.074-.387-.152-.538-.233l-.334-.192c-.084-.062-.137-.121-.158-.176l-.028-.211v-6.83c0-.133.047-.248.136-.345s.2-.146.334-.146c.131 0 .241.049.336.146.094.097.142.212.142.345v1.961c.209-.094.461-.179.752-.256.292-.078.602-.117.929-.117.747 0 1.328.201 1.739.607.413.403.651.972.712 1.704zm-.958 1.588l.019-.356.005-.421-.005-.414-.019-.327c-.032-.491-.166-.862-.409-1.114-.24-.254-.613-.381-1.12-.381-.352 0-.677.047-.979.141-.304.094-.526.184-.666.268v3.668l.269.158c.115.059.244.11.386.157.14.046.288.085.442.116.156.031.303.047.444.047.995-.001 1.54-.516 1.633-1.542zm2.079-3.13c-.07-.179-.058-.337.034-.472.095-.137.229-.207.41-.207.116 0 .207.033.274.096.064.061.123.143.168.244l1.812 4.17c.027.062.061.062.092 0l1.647-4.135c.037-.108.095-.199.175-.269.076-.07.176-.106.292-.106.179 0 .315.073.408.217.094.145.104.299.034.462l-2.195 5.325c-.225.537-.489 1.002-.787 1.395-.301.393-.578.668-.835.824-.157.094-.297.139-.421.139-.125 0-.234-.039-.327-.121-.094-.082-.139-.189-.139-.321 0-.079.018-.155.057-.234.038-.077.095-.136.163-.174.25-.142.498-.354.748-.638.249-.283.451-.658.607-1.127l-2.217-5.068zm14.865-2.733c.131 0 .245.045.339.135s.139.201.139.334-.048.241-.144.326c-.099.086-.209.129-.334.129h-3.887v2.686h3.783c.131 0 .241.041.331.129.089.084.137.193.137.326 0 .125-.05.232-.143.322-.093.089-.201.133-.325.133h-3.783v2.745h3.91c.125 0 .235.042.333.128s.146.195.146.326c0 .133-.045.244-.138.333-.095.09-.209.136-.341.136h-4.051c-.267 0-.468-.077-.607-.234-.141-.154-.209-.343-.209-.561v-6.598c0-.226.068-.414.209-.566.14-.151.341-.229.607-.229h4.028zm7.298 0c.132 0 .246.045.34.135s.139.201.139.334-.048.241-.145.326c-.097.086-.211.129-.334.129h-3.886v2.686h3.781c.133 0 .245.041.334.129.091.084.135.193.135.326 0 .125-.048.232-.139.322-.096.089-.205.133-.33.133h-3.781v2.745h3.91c.126 0 .236.042.334.128s.146.195.146.326c0 .133-.047.244-.141.333-.094.09-.206.136-.34.136h-4.051c-.265 0-.468-.077-.607-.234-.141-.154-.211-.343-.211-.561v-6.598c0-.226.07-.414.211-.566.14-.151.343-.229.607-.229h4.028z" fill="#676868"/></svg>