<svg xmlns="http://www.w3.org/2000/svg" xmlns:xlink="http://www.w3.org/1999/xlink" width="68" height="31" viewBox="0 0 136 62"><symbol id="c" viewBox="-5.1 -6.3 10.2 12.7"><path fill="#676868" d="M5.1.6c0-.4-.1-.7-.3-1-.2-.2-.6-.4-1-.4h-7v-.4c0-1.1.3-2 1-2.5.6-.6 1.5-.9 2.5-.9.4 0 .9.1 1.3.2l1.5.4c.2.1.4.1.6.1l.4-.1.3-.3.1-.4c0-.2 0-.3-.1-.4-.1-.2-.3-.4-.5-.5-.2-.1-.4-.2-.7-.3-.3-.1-.6-.2-.9-.2-.3-.1-.7-.1-1.1-.2-.4 0-.7-.1-1-.1-.8.1-1.5.2-2.2.4s-1.2.6-1.6 1c-.5.4-.8 1-1 1.6-.3.6-.4 1.3-.4 2v1.5c0 .5 0 1 .1 1.3.1.8.2 1.4.5 2 .1.7.5 1.2 1 1.6.4.4 1 .7 1.6 1 .6.2 1.3.3 2 .3.8 0 1.5-.1 2.1-.4.6-.2 1.2-.6 1.6-1.1.4-.4.8-1 1-1.6.1-.5.2-1.2.2-1.9v-.7zm-2.1.2c.2 0 .3.1.3.3 0 .5 0 1-.1 1.4-.2.5-.4.8-.7 1.1-.3.4-.6.6-1 .8-.4.1-.9.2-1.4.2-1.2 0-2-.3-2.6-1-.5-.7-.8-1.6-.7-2.8h6.2z"/></symbol><symbol id="b" viewBox="-5.3 -8.2 10.7 16.4"><path fill="#676868" d="M4.3 8.2c.3 0 .5-.1.7-.3.2-.2.3-.4.3-.7s-.1-.4-.3-.6c-.2-.2-.4-.3-.7-.3h-7.8v-5.3h7.6c.3 0 .5-.1.7-.3.2-.2.3-.4.3-.6 0-.3-.1-.5-.3-.6-.2-.3-.4-.4-.7-.4h-7.6v-5.5h7.8c.3 0 .5-.1.7-.3s.3-.3.3-.6-.1-.5-.3-.7c-.1-.1-.3-.2-.6-.2h-8.1c-.5 0-.9.2-1.2.5-.3.3-.4.7-.4 1.1v13.2c0 .5.1.8.4 1.1.3.3.7.5 1.2.5h8z"/></symbol><symbol id="a" viewBox="-4.9 -8 9.9 16"><path fill="#fff" d="M-3.6 8c.5 0 .9-.2 1.1-.6.3.4.7.6 1.2.6s1-.3 1.2-.8c.2.5.7.8 1.2.8s1-.3 1.2-.8c.3.5.7.8 1.3.8.7 0 1.3-.6 1.3-1.4s-.6-1.3-1.3-1.3c-.5 0-1 .3-1.2.8-.3-.5-.7-.8-1.3-.8-.5 0-1 .3-1.2.8-.2-.5-.7-.8-1.2-.8s-.9.2-1.1.6c-.1-.1-.2-.3-.4-.4.3-.2.6-.6.6-1.1 0-.5-.2-.9-.6-1.1.3-.2.6-.6.6-1.1 0-.5-.2-.9-.6-1.1l.3-.3c.2.3.6.5 1.1.5.5 0 .9-.3 1.2-.7.2.4.7.7 1.2.7s.9-.3 1.2-.6c.2.4.7.6 1.2.6.7 0 1.3-.6 1.3-1.3 0-.7-.6-1.4-1.3-1.4-.7.1-1.2.3-1.4.7-.2-.4-.7-.6-1.1-.6-.5 0-.9.3-1.2.7-.2-.5-.7-.7-1.2-.7-.4 0-.8.2-1.1.5l-.3-.3c.3-.2.6-.6.6-1.1 0-.5-.2-.9-.6-1.1.4-.3.7-.7.7-1.1s-.2-.9-.6-1.1c.1-.1.3-.2.4-.4.2.4.7.6 1.1.6.5 0 1-.3 1.2-.8.2.5.7.8 1.2.8s1-.3 1.2-.8c.3.5.7.8 1.3.8.7 0 1.3-.6 1.3-1.4s-.6-1.3-1.3-1.3c-.6 0-1 .3-1.2.8-.3-.5-.7-.8-1.3-.8-.5 0-1 .3-1.2.8-.2-.5-.7-.8-1.2-.8s-.9.2-1.1.6c-.3-.4-.7-.6-1.2-.6-.7 0-1.3.6-1.3 1.4 0 .5.2.9.6 1.1-.4.2-.6.6-.6 1.1s.2.9.6 1.1c-.4.2-.6.7-.6 1.1 0 .5.2.9.6 1.1-.4.2-.6.6-.6 1.1s.2.9.6 1.1c-.3.2-.6.6-.6 1.1 0 .5.2.9.6 1.1-.4.3-.6.7-.6 1.1 0 .5.2.9.6 1.1-.4.2-.6.6-.6 1.1 0 .8.6 1.4 1.3 1.4z"/></symbol><path fill="#059098" d="M118.7 0c-9.4 0-16.6 7.6-16.6 16.5 0 7.9 5.1 12.1 5.1 12.1.5.4.4.7 0 1 0 0-5.2 4.7-5.2 11.9 0 9.9 8 16.7 16.6 16.7 9.7 0 16.5-7.9 16.5-16.5 0-7.5-5-11.9-5-11.9-.7-.7-.7-.8 0-1.4 0 0 5-4.2 5-11.9.2-8.8-6.9-16.5-16.4-16.5z"/><use xlink:href="#a" width="9.9" height="16" x="-4.9" y="-8" transform="matrix(1 0 0 -1 118.6 16.561)" overflow="visible"/><use xlink:href="#a" width="9.9" height="16" x="-4.9" y="-8" transform="matrix(1 0 0 -1 118.6 41.686)" overflow="visible"/><path fill="#676868" d="M10.2 20.4c-.1 1.5-.6 2.6-1.5 3.4-1.4 1.3-3.6 1.5-5.4 1-.6-.2-1-.3-1.4-.5v4.1c0 .3-.1.5-.3.7-.4.4-1 .4-1.3 0-.2-.2-.3-.5-.3-.7v-12c0-.7-.1-1.5.1-2.2l.3-.3c2.1-1.7 6.3-2.2 8.3-.2.9.8 1.4 2 1.5 3.4v3.3zm-1.9-3.2c-.3-3.5-3.9-3.7-6.4-2.1v7.3c1.5.9 4.1 1.5 5.5.1.5-.5.8-1.2.9-2.2 0-.8.3-2.4 0-3.1zm10.3-4.8c.7 0 1.4.1 2 .3.6.2 1.2.5 1.6.9.5.4.8.9 1.1 1.5.3.6.4 1.2.5 1.9.1 1.1.1 2.2 0 3.3 0 .7-.2 1.3-.5 1.9-.3.6-.6 1.1-1.1 1.5-.5.4-1 .7-1.6 1-1.3.5-2.7.5-4 0-.6-.2-1.2-.6-1.6-1-.5-.4-.8-.9-1.1-1.5-.3-.6-.4-1.2-.5-1.9-.1-1.1-.1-2.2 0-3.3 0-.7.2-1.3.5-1.9.3-.6.6-1.1 1.1-1.5.5-.4 1-.7 1.6-.9.6-.2 1.3-.3 2-.3zm0 1.8c-1 0-1.8.3-2.3.8-.6.6-.9 1.3-1 2.1-.1 1-.1 2 0 3.1.1.9.4 1.7 1 2.2 1.2 1.1 3.4 1.1 4.6 0 .6-.6.9-1.3 1-2.2v-3.1c-.1-.9-.4-1.6-1-2.1-.6-.6-1.4-.8-2.3-.8zm16.4.5l-.1-.1-.1.1-2.4 8.9c-.1.5-.3.9-.6 1.1-.6.5-1.5.5-2.1 0-.3-.2-.5-.6-.7-1.1l-2.7-9.8c-.1-.4-.1-.7.1-.9.3-.4.9-.5 1.3-.2.2.1.3.3.3.5l2.6 9.9.1.1.1-.1 2.4-9.2c.1-.4.3-.8.6-1 .6-.5 1.5-.5 2.1 0 .3.2.5.6.6 1l2.4 9.1.1.1.1-.1 2.5-9.8.3-.6c.8-.7 1.7.3 1.5 1.2l-2.7 9.8c-.1.5-.4.9-.7 1.1-.6.5-1.5.5-2.1 0-.3-.2-.5-.6-.7-1.1.1.1-2.2-8.9-2.2-8.9zm30.4-2.1c.7.2 1 .9.5 1.5-.5.7-1.9.1-2.6.1-.7 0-1.1.2-1.4.5-.3.3-.5.9-.5 1.6v7.7c0 .3-.1.5-.3.7-.6.6-1.6.2-1.6-.7v-7.9c0-1.2.3-2.1 1-2.7 1.2-1.2 3.4-1.3 4.9-.8.5.2-.2 0 0 0zm15.9 4.4c.1-1.5.6-2.6 1.4-3.4 1.4-1.3 3.6-1.5 5.3-1 .6.2 1.1.3 1.5.5v-3.9c0-.3.1-.5.3-.7.4-.4 1-.4 1.4 0 .2.2.3.4.3.7v11.8c0 .7.1 1.5-.1 2.3l-.3.4c-2.4 1.4-6 2.3-8.3.1-.9-.8-1.4-2-1.5-3.4 0-.3-.1-3.4 0-3.4zm1.9 3.2c.3 3.4 3.9 3.7 6.4 2.1v-7.3c-.3-.2-.7-.4-1.3-.5-1.3-.4-3.2-.6-4.2.5-.5.5-.8 1.2-.8 2.2-.1.9-.1 2-.1 3zm-39.4 20.8c.1 1.1.1 2.2 0 3.3-.1 1.4-.6 2.6-1.5 3.4-2.2 2.3-5.9 1.3-8.3 0-.2-.1-.3-.2-.3-.4-.4-2.1-.1-4.6-.1-6.7v-7.4c0-.8 1-1.3 1.6-.7.2.2.3.4.3.7v3.9c.4-.2.9-.4 1.5-.5 1.7-.5 4-.4 5.3 1 .9.8 1.4 2 1.5 3.4zm-1.9 3.2c.1-1 .1-2 0-3s-.3-1.7-.8-2.2c-1-1.1-2.9-.9-4.2-.5-.6.2-1.1.4-1.3.5v7.3c.9.6 2 1 3.1 1 1.9 0 3-1 3.2-3.1zm4.2-6.3c-.1-.4-.1-.7.1-.9.3-.4 1-.6 1.4-.2.1.1.2.3.3.5l3.6 8.3c.1.1.1.1.2 0l3.3-8.3c.1-.2.2-.4.3-.5.4-.4 1.1-.2 1.4.2.2.3.2.6.1.9l-2.5 6.1c-1 2.4-1.8 5.2-3.5 7.3-.6.8-1.2 1.3-1.7 1.6-.5.3-1.1.4-1.5 0-1.1-1 1.2-2.2 1.7-2.7.5-.6.9-1.3 1.2-2.3 0 .2-4.4-10-4.4-10z"/><use xlink:href="#b" width="10.7" height="16.4" x="-5.3" y="-8.2" transform="matrix(1 0 0 -1 71.454 40.67)" overflow="visible"/><use xlink:href="#b" width="10.7" height="16.4" x="-5.3" y="-8.2" transform="matrix(1 0 0 -1 86.16 40.67)" overflow="visible"/><use xlink:href="#c" width="10.2" height="12.7" x="-5.1" y="-6.3" transform="matrix(1 0 0 -1 50.997 18.711)" overflow="visible"/><use xlink:href="#c" width="10.2" height="12.7" x="-5.1" y="-6.3" transform="matrix(1 0 0 -1 73.122 18.711)" overflow="visible"/></svg>