<svg width="29" height="25" viewBox="0 0 29 25" xmlns="http://www.w3.org/2000/svg"><title/><desc/><path d="M21.926 11.807c-1.172 0-2.387.345-3.299 1.036l-.217-.216 7.683-11.651-.738-.69c-6.034 3.582-10.288 10.702-10.288 15.966 0 3.495 2.605 7.034 6.728 7.034 3.212 0 5.947-2.546 5.947-5.782 0-3.107-2.561-5.696-5.817-5.696zm-14.325 0c-1.172 0-2.387.345-3.299 1.036l-.217-.216 7.683-11.651-.738-.69c-6.034 3.582-10.288 10.702-10.288 15.966 0 3.495 2.605 7.034 6.728 7.034 3.212 0 5.947-2.546 5.947-5.782 0-3.107-2.561-5.696-5.817-5.696z" fill="#767676"/></svg>