<svg xmlns="http://www.w3.org/2000/svg" width="34" height="20"><path fill="#CCCBCB" d="M26.558 5.998c-2.023 0-3.845.859-5.124 2.232-.077-.469-.118-.957-.118-1.459 0-3.507 2.451-6.352 6.055-6.352 1.615 0 3.128.589 4.267 1.533h.512c-1.621-1.344-2.723-1.865-5.202-1.947-5.669-.187-9.595 4.476-9.595 9.997s3.376 9.998 9.049 9.998v-.004l.156.004c3.867 0 7.001-3.135 7.001-7.001.001-3.867-3.134-7.001-7.001-7.001zm-17.354 0c-2.023 0-3.845.859-5.123 2.232-.078-.469-.118-.957-.118-1.459 0-3.507 2.451-6.352 6.056-6.352 1.615 0 3.127.589 4.267 1.533h.512c-1.621-1.344-2.722-1.865-5.201-1.947-5.671-.187-9.597 4.476-9.597 9.997 0 5.522 3.376 9.998 9.049 9.998v-.004l.155.004c3.867 0 7.002-3.135 7.002-7.001 0-3.867-3.135-7.001-7.002-7.001z"/></svg>