<svg xmlns="http://www.w3.org/2000/svg" width="38.5" height="24"><path fill="#676767" d="M29.273 7.498c-2.192 0-4.166.933-5.552 2.418-.08-.507-.12-1.036-.12-1.58 0-3.8 2.657-6.88 6.56-6.88 1.75 0 3.39.638 4.62 1.66h.56c-1.755-1.457-2.95-2.02-5.636-2.11-6.143-.2-10.396 4.85-10.396 10.83 0 5.983 3.657 10.834 9.802 10.834v-.006l.17.006c4.19 0 7.585-3.396 7.585-7.586S33.47 7.498 29.28 7.498zm-18.802 0c-2.19 0-4.16.933-5.55 2.42-.08-.51-.12-1.037-.12-1.582 0-3.8 2.657-6.88 6.56-6.88 1.75 0 3.39.638 4.625 1.66h.555c-1.757-1.457-2.95-2.02-5.636-2.11C4.75.806.5 5.856.5 11.836c0 5.983 3.658 10.834 9.803 10.834v-.006l.168.006c4.19 0 7.59-3.396 7.59-7.586s-3.4-7.586-7.59-7.586z"/></svg>