<svg xmlns="http://www.w3.org/2000/svg" width="24" height="20" viewBox="0 0 24 20"><path fill="#E6711B" d="M7.7 10.7c.6.2 1.1.6 1.6 1s.8.9 1 1.5.4 1.2.4 1.9c0 1.3-.5 2.5-1.5 3.4s-2.2 1.5-3.6 1.5c-.9 0-1.7-.2-2.3-.5-.7-.3-1.3-.8-1.8-1.3-.5-.6-.8-1.2-1.1-1.9s-.4-1.5-.4-2.2c0-1.1.2-2.3.6-3.6.4-1.3 1-2.5 1.8-3.7.8-1.2 1.7-2.3 2.8-3.4 1.1-1.1 2.2-2 3.5-2.8l.6.6-6.5 9.8.2.2c.8-.6 1.7-.9 2.7-.9.7 0 1.3.1 2 .4zm10.1-.4c.7 0 1.3.1 1.9.4.6.2 1.1.6 1.6 1 .4.4.8.9 1 1.5s.4 1.2.4 1.9c0 1.3-.5 2.5-1.5 3.4s-2.2 1.5-3.6 1.5c-.9 0-1.6-.2-2.3-.5-.7-.3-1.3-.8-1.8-1.3-.5-.6-.9-1.2-1.1-1.9s-.4-1.5-.4-2.2c0-1.1.2-2.3.6-3.6.4-1.3 1-2.5 1.8-3.7.8-1.2 1.7-2.3 2.7-3.4 1.1-1.1 2.2-2 3.5-2.8l.6.6-6.4 9.8.2.2c.8-.6 1.7-.9 2.8-.9z"/></svg>