<svg xmlns="http://www.w3.org/2000/svg" width="30" height="19"><path fill="#B3B2B3" d="M23.367 6.051c-1.703 0-3.238.725-4.314 1.88-.065-.395-.1-.806-.1-1.229 0-2.953 2.064-5.349 5.1-5.349 1.361 0 2.635.495 3.594 1.292h.433c-1.365-1.133-2.294-1.572-4.382-1.641-4.774-.157-8.081 3.77-8.081 8.42s2.843 8.42 7.62 8.42l.001-.004.13.004c3.258 0 5.898-2.641 5.898-5.896 0-3.259-2.641-5.897-5.899-5.897z"/><path fill="#B3B2B3" d="M8.752 6.051c-1.704 0-3.239.725-4.315 1.881-.064-.396-.099-.806-.099-1.23 0-2.953 2.064-5.349 5.1-5.349 1.361 0 2.635.495 3.594 1.292h.432c-1.365-1.133-2.293-1.572-4.382-1.641-4.775-.157-8.082 3.769-8.082 8.42s2.843 8.42 7.621 8.42v-.004l.131.004c3.257 0 5.897-2.641 5.897-5.896 0-3.259-2.64-5.897-5.897-5.897z"/></svg>