<svg xmlns="http://www.w3.org/2000/svg" width="34" height="21"><path fill="#B3B2B3" d="M26.023 6.651c-1.906 0-3.623.811-4.827 2.103-.073-.441-.11-.901-.11-1.374 0-3.305 2.309-5.984 5.705-5.984 1.521 0 2.947.555 4.02 1.445h.483c-1.527-1.268-2.566-1.758-4.901-1.836-5.342-.175-9.041 4.218-9.041 9.42 0 5.203 3.181 9.42 8.525 9.42l.001-.004.146.004c3.644 0 6.598-2.953 6.598-6.596-.001-3.645-2.955-6.598-6.599-6.598z"/><path fill="#B3B2B3" d="M9.672 6.651c-1.906 0-3.623.811-4.827 2.104-.073-.443-.111-.901-.111-1.375 0-3.305 2.31-5.984 5.705-5.984 1.522 0 2.947.555 4.021 1.445h.483c-1.527-1.268-2.565-1.758-4.901-1.836-5.343-.175-9.042 4.218-9.042 9.42 0 5.203 3.181 9.42 8.526 9.42v-.004l.146.004c3.644 0 6.598-2.953 6.598-6.596 0-3.645-2.955-6.598-6.598-6.598z"/></svg>