<svg xmlns="http://www.w3.org/2000/svg" width="38.5" height="24"><path fill="#676767" d="M29.273 7.498c-2.192 0-4.166.933-5.552 2.418-.083-.507-.126-1.036-.126-1.58 0-3.8 2.654-6.88 6.56-6.88 1.75 0 3.39.638 4.622 1.661h.556c-1.755-1.458-2.949-2.021-5.636-2.111-6.142-.201-10.395 4.85-10.395 10.831 0 5.982 3.657 10.833 9.802 10.833l.001-.006.168.006c4.19 0 7.587-3.396 7.587-7.586-.001-4.191-3.397-7.586-7.587-7.586zm-18.802 0c-2.191 0-4.166.933-5.55 2.419-.084-.509-.128-1.036-.128-1.581 0-3.8 2.656-6.88 6.56-6.88 1.75 0 3.388.638 4.624 1.661h.555c-1.756-1.458-2.949-2.021-5.635-2.111-6.144-.201-10.397 4.85-10.397 10.831 0 5.982 3.658 10.833 9.803 10.833v-.006l.168.006c4.19 0 7.586-3.396 7.586-7.586.001-4.191-3.397-7.586-7.586-7.586z"/></svg>