<svg xmlns="http://www.w3.org/2000/svg" width="26.848" height="16"><path fill="#CCCBCB" d="M21.247 4.798c-1.619 0-3.076.688-4.099 1.786-.062-.375-.094-.765-.094-1.167 0-2.806 1.961-5.082 4.844-5.082 1.292 0 2.502.471 3.414 1.227h.41c-1.297-1.075-2.178-1.492-4.162-1.557-4.535-.15-7.676 3.581-7.676 7.998s2.7 7.997 7.239 7.997v-.003l.124.003c3.093 0 5.601-2.508 5.601-5.601s-2.508-5.601-5.601-5.601z"/><path fill="#CCCBCB" d="M7.363 4.798c-1.619 0-3.076.688-4.099 1.786-.061-.376-.094-.766-.094-1.167 0-2.806 1.961-5.082 4.844-5.082 1.292 0 2.502.471 3.414 1.227h.409c-1.296-1.075-2.177-1.492-4.16-1.558-4.536-.15-7.677 3.581-7.677 7.998s2.701 7.998 7.239 7.998v-.003l.124.003c3.094 0 5.602-2.508 5.602-5.601s-2.508-5.601-5.602-5.601z"/></svg>