<svg xmlns="http://www.w3.org/2000/svg" height="24" width="28" viewBox="1 1 27 23"><path fill="#fff" d="M0 0v25c10.957.043 16.799 0 29 0v-25zm7.728 24c-4.124 0-6.728-3.538-6.728-7.033 0-5.265 4.254-12.385 10.288-15.967l.738.69-7.684 11.652.217.216c.912-.69 2.127-1.036 3.299-1.036 3.256 0 5.817 2.589 5.817 5.696 0 3.236-2.735 5.782-5.947 5.782zm14.325 0c-4.123 0-6.729-3.538-6.729-7.033 0-5.265 4.254-12.385 10.289-15.967l.738.69-7.684 11.651.217.216c.912-.69 2.127-1.036 3.299-1.036 3.256 0 5.816 2.589 5.816 5.696.001 3.237-2.733 5.783-5.946 5.783z"/></svg>