<svg xmlns="http://www.w3.org/2000/svg" width="56" height="28"><g fill="#6CA940"><path d="M52.391 1.83c-10.621.67-17.371 6.2-17.112 13.609 1.381-2.979 4.532-5.879 10.461-5.879 6.21 0 10.26 2.63 10.26 8.87 0 6.12-5.38 9.57-12.57 9.57-8.88 0-14.39-5.02-14.39-12.91 0-10.83 10.97-14.87 23.351-15.07v1.81z"/><path d="M23.35 1.81c-10.65.67-17.37 6.2-17.1 13.61 1.38-2.98 4.52-5.89 10.46-5.88 6.21 0 10.25 2.63 10.25 8.86 0 6.119-5.38 9.57-12.58 9.58-8.87 0-14.38-5.03-14.38-12.919 0-10.821 10.97-14.871 23.35-15.061v1.81z"/></g></svg>