<svg xmlns="http://www.w3.org/2000/svg" width="64" height="32" viewBox="-0.909 -0.058 64 32" overflow="visible" enable-background="new -0.909 -0.058 64 32"><path fill="#F5F5F5" d="M0 17.016c0-12.23 11.742-16.794 24.814-17.016v1.329c-11.033.665-18.699 6.292-18.389 14.446 1.993-3.812 5.495-6.603 11.876-6.603 7.311 0 12.097 3.943 12.097 10.989 0 6.913-6.071 11.432-14.18 11.432-10.015.001-16.218-5.67-16.218-14.577zm32.171 0c0-12.23 11.741-16.794 24.814-17.016v1.329c-11.035.665-18.7 6.292-18.39 14.446 1.993-3.812 5.494-6.603 11.876-6.603 7.311 0 12.097 3.943 12.097 10.989 0 6.913-6.071 11.432-14.18 11.432-10.014.001-16.217-5.67-16.217-14.577z"/></svg>