<svg xmlns="http://www.w3.org/2000/svg" width="24" height="20"><path fill="#767676" d="M7.656 10.688c.604.25 1.125.594 1.563 1.031.438.438.781.948 1.031 1.531.25.583.375 1.208.375 1.875 0 1.333-.5 2.479-1.5 3.438-1 .958-2.167 1.438-3.5 1.438-.875 0-1.656-.167-2.344-.5-.688-.333-1.271-.781-1.75-1.344-.479-.563-.854-1.198-1.125-1.906s-.406-1.437-.406-2.188c0-1.125.208-2.312.625-3.563.417-1.25 1.01-2.479 1.781-3.688.771-1.208 1.687-2.354 2.75-3.438 1.063-1.083 2.219-2 3.469-2.75l.625.563-6.438 9.813.188.188c.792-.583 1.708-.875 2.75-.875.667 0 1.302.125 1.906.375zm10.094-.375c.667 0 1.302.125 1.906.375.604.25 1.125.594 1.563 1.031.438.438.781.948 1.031 1.531.25.583.375 1.208.375 1.875 0 1.333-.5 2.479-1.5 3.438-1 .958-2.167 1.438-3.5 1.438-.875 0-1.656-.167-2.344-.5-.688-.333-1.271-.781-1.75-1.344-.479-.563-.854-1.198-1.125-1.906s-.406-1.437-.406-2.188c0-1.125.208-2.312.625-3.563.417-1.25 1.01-2.479 1.781-3.688.771-1.208 1.687-2.354 2.75-3.438 1.063-1.083 2.219-2 3.469-2.75l.625.563-6.438 9.813.188.188c.792-.583 1.708-.875 2.75-.875z"/></svg>