<svg xmlns="http://www.w3.org/2000/svg" width="24" height="20"><path fill="#767676" d="M7.66 10.7c.6.24 1.12.58 1.56 1.02.44.44.78.95 1.03 1.53.25.58.38 1.2.38 1.88 0 1.33-.5 2.47-1.5 3.43s-2.17 1.44-3.5 1.44c-.88 0-1.66-.17-2.35-.5-.7-.33-1.27-.78-1.75-1.34-.48-.57-.85-1.2-1.12-1.9s-.41-1.46-.41-2.21c0-1.12.2-2.3.63-3.56.4-1.25 1-2.48 1.78-3.7.78-1.2 1.7-2.34 2.76-3.43 1.06-1.08 2.22-2 3.47-2.75l.62.57-6.46 9.82.2.2c.8-.6 1.7-.9 2.75-.9.67 0 1.3.14 1.9.4zm10.1-.4c.66 0 1.3.14 1.9.4.6.24 1.12.58 1.56 1.02.44.44.78.95 1.03 1.53.25.58.37 1.2.37 1.88 0 1.33-.5 2.47-1.5 3.43s-2.16 1.44-3.5 1.44c-.87 0-1.65-.17-2.34-.5-.7-.33-1.27-.78-1.75-1.34-.48-.57-.85-1.2-1.12-1.9s-.41-1.46-.41-2.21c0-1.12.2-2.3.62-3.56.42-1.25 1-2.48 1.8-3.7.76-1.2 1.67-2.34 2.74-3.43 1.06-1.08 2.2-2 3.46-2.75l.63.57-6.45 9.82.2.2c.8-.6 1.7-.9 2.75-.9z"/></svg>