<svg xmlns="http://www.w3.org/2000/svg" height="24" width="28" viewBox="1 1 27 23"><path fill="#fff" d="M0 0v25c10.957.043 16.8 0 29 0V0zm7.728 24C3.604 24 1 20.462 1 16.967 1 11.702 5.254 4.582 11.288 1l.738.69-7.684 11.652.217.216c.91-.69 2.12-1.036 3.29-1.036 3.252 0 5.813 2.59 5.813 5.696C13.663 21.454 10.93 24 7.72 24zm14.325 0c-4.123 0-6.73-3.538-6.73-7.033 0-5.265 4.255-12.385 10.29-15.967l.738.69-7.68 11.65.22.217c.91-.69 2.13-1.036 3.3-1.036 3.26 0 5.82 2.59 5.82 5.7 0 3.24-2.734 5.78-5.947 5.78z"/></svg>