<svg xmlns="http://www.w3.org/2000/svg" width="18" height="18"><path fill="#DCDCDC" d="M11.762 10.387c.78-.754 1.36-1.693 1.65-2.765.418-1.562.203-3.193-.605-4.593C11.997 1.627 10.693.626 9.13.21 7.577-.21 5.944.003 4.543.812c-1.4.81-2.402 2.113-2.82 3.675-.86 3.224 1.06 6.55 4.28 7.41l.244-.91-.243.91 1.77.474.26-.973-1.51-1.45C4.376 9.376 3.096 7.16 3.67 5.01c.278-1.04.945-1.91 1.88-2.45.932-.54 2.02-.684 3.06-.403 1.04.28 1.91.946 2.45 1.88.54.935.683 2.022.404 3.062-.277 1.03-.942 1.896-1.864 2.437l-.494.285 4.034 6.986.687 1.192.874-.504.187-1.695-3.125-5.413z"/></svg>