<svg xmlns="http://www.w3.org/2000/svg" width="18" height="18"><path fill="#DCDCDC" d="M11.762 10.387c.781-.754 1.361-1.693 1.649-2.765.419-1.562.204-3.193-.604-4.593-.809-1.401-2.114-2.402-3.676-2.82-1.555-.418-3.188-.205-4.589.604-1.4.809-2.402 2.113-2.821 3.675-.86 3.224 1.06 6.549 4.281 7.411l.244-.912-.243.912 1.77.473.26-.973-1.509-1.448h-.001c-2.147-.576-3.427-2.793-2.854-4.942.279-1.04.946-1.91 1.881-2.449.932-.539 2.019-.684 3.06-.403 1.04.279 1.911.946 2.45 1.881.539.934.683 2.021.404 3.061-.277 1.031-.942 1.897-1.864 2.438l-.494.285 4.034 6.986.687 1.192.874-.504.186-1.695-3.125-5.414z"/></svg>