<svg xmlns="http://www.w3.org/2000/svg" width="14" height="14" viewBox="3 3 14 14" enable-background="new 3 3 14 14"><g fill="#fff"><path d="M4.679 4.678c-2.238 2.237-2.238 5.862 0 8.1 2.236 2.236 5.863 2.236 8.102 0 2.238-2.237 2.237-5.863-.001-8.1-2.237-2.237-5.865-2.237-8.101 0zm6.897 6.896c-1.571 1.574-4.123 1.574-5.695.002-1.572-1.575-1.572-4.123 0-5.697 1.573-1.572 4.125-1.572 5.697 0 1.571 1.574 1.571 4.122-.002 5.695z"/><polygon points="17.007,15.353 15.355,17.004 11.081,12.734 12.735,11.079"/></g></svg>