<svg xmlns="http://www.w3.org/2000/svg" width="32" height="32" viewBox="-2 -2 32 32" enable-background="new -2 -2 36 36"><path d="M21.255 10.484l.012.457c0 4.68-3.505 10.06-9.92 10.06-1.97 0-3.8-.58-5.347-1.59.272.04.55.05.83.05 1.637 0 3.14-.56 4.332-1.51-1.525-.025-2.812-1.05-3.252-2.45.21.04.43.06.65.06.32 0 .63-.04.92-.12-1.6-.324-2.8-1.754-2.8-3.47v-.042c.472.264 1.01.424 1.58.44-.934-.63-1.553-1.714-1.553-2.94 0-.648.177-1.256.474-1.78 1.72 2.14 4.29 3.546 7.19 3.696-.06-.26-.09-.53-.09-.805C14.28 8.58 15.84 7 17.77 7c1 0 1.91.43 2.545 1.117.793-.16 1.54-.453 2.214-.86-.26.827-.81 1.52-1.53 1.958.705-.084 1.38-.276 2-.557-.47.706-1.06 1.33-1.745 1.826z" fill="#fff"/></svg>