<svg xmlns="http://www.w3.org/2000/svg" width="32" height="32"><g fill="#CFCFCD"><ellipse transform="matrix(-.965 .262 -.262 -.965 30.085 20.84)" cx="13.651" cy="12.428" rx="1.907" ry="2.671"/><path d="M16.059.941c-8.317 0-15.059 6.742-15.059 15.059 0 8.316 6.742 15.059 15.059 15.059 8.318 0 15.059-6.74 15.059-15.059-.001-8.317-6.741-15.059-15.059-15.059zm1.445 11.538c0 2.264-2.122 2.543-2.122 3.507 0 .963 2.813 1.733 2.813 4.124 0 3.988-4.93 3.763-4.93 3.763s-4.265.15-4.265-3.059c0-3.211 4.838-3.084 5.086-3.084-.062-.733-.552-.612-.552-.976v-.899s-3.66.411-3.66-3.134c0-3.544 4.188-3.647 4.188-3.647h4.133c0 .629-1.887.407-1.887.745 1.07.483 1.196 1.302 1.196 2.66zm8.496.521h-3v3h-1v-3h-3v-1h3v-2.926h1v2.926h3v1z"/><ellipse transform="matrix(.068 .998 -.998 .068 33.386 5.45)" cx="13.776" cy="20.592" rx="2.259" ry="3.097"/></g></svg>