<svg xmlns="http://www.w3.org/2000/svg" width="32" height="32" viewBox="-2 -2 32 32" enable-background="new -2 -2 36 36"><path fill="#767676" d="M21.25 10.48l.02.46c0 4.67-3.5 10.06-9.92 10.06-1.97 0-3.8-.58-5.35-1.6.27.05.55.06.83.06 1.64 0 3.14-.57 4.33-1.52-1.52-.02-2.8-1.04-3.25-2.45.22.04.44.06.66.06.32 0 .63-.05.92-.13-1.6-.32-2.8-1.75-2.8-3.47v-.04c.48.27 1 .43 1.58.44-.93-.63-1.55-1.7-1.55-2.94 0-.65.2-1.25.48-1.78 1.72 2.14 4.3 3.55 7.2 3.7-.07-.26-.1-.53-.1-.8 0-1.96 1.56-3.54 3.5-3.54 1 0 1.9.43 2.54 1.1.8-.14 1.54-.44 2.2-.84-.25.82-.8 1.52-1.52 1.95.7-.07 1.38-.26 2-.54-.47.7-1.06 1.33-1.75 1.82z"/></svg>