<svg xmlns="http://www.w3.org/2000/svg" width="32" height="32"><path fill="#676767" d="M16.059.941c-8.317 0-15.059 6.742-15.059 15.059 0 8.316 6.742 15.059 15.059 15.059 8.318 0 15.059-6.74 15.059-15.059 0-8.317-6.74-15.059-15.059-15.059zm6.836 11.48l.01.417c0 4.256-3.237 9.162-9.161 9.162-1.818 0-3.509-.533-4.938-1.448.252.031.509.046.767.046 1.511 0 2.898-.517 3.999-1.38-1.408-.026-2.597-.956-3.004-2.233.195.037.399.058.604.058.295 0 .58-.04.849-.114-1.476-.295-2.584-1.597-2.584-3.158v-.04c.436.241.934.386 1.458.403-.862-.577-1.433-1.563-1.433-2.68 0-.59.162-1.143.436-1.62 1.59 1.95 3.961 3.231 6.639 3.366-.055-.236-.083-.482-.083-.734 0-1.778 1.439-3.22 3.222-3.22.925 0 1.763.392 2.351 1.018.731-.145 1.422-.413 2.045-.782-.24.752-.752 1.384-1.416 1.782.652-.077 1.271-.252 1.85-.507-.436.644-.983 1.211-1.611 1.664z"/></svg>