<svg xmlns="http://www.w3.org/2000/svg" width="36" height="36" viewBox="-2 -2 36 36" enable-background="new -2 -2 36 36"><path stroke="#CFCFCD" stroke-miterlimit="10" d="M16.059-1c-9.39 0-17 7.61-17 17 0 9.389 7.611 16.999 17 16.999 9.39 0 17-7.608 17-16.999 0-9.39-7.609-17-17-17z" fill="none"/><path fill="#CFCFCD" d="M23.652 12.023l.012.462c0 4.72-3.59 10.162-10.16 10.162-2.018 0-3.893-.591-5.478-1.606.279.035.564.05.851.05 1.676 0 3.214-.571 4.436-1.531-1.562-.025-2.881-1.058-3.332-2.474.216.041.443.062.67.062.327 0 .643-.043.94-.122-1.637-.328-2.865-1.773-2.865-3.506v-.043c.483.267 1.036.428 1.617.446-.956-.639-1.59-1.733-1.59-2.972 0-.654.18-1.268.484-1.797 1.763 2.162 4.393 3.582 7.363 3.734-.061-.262-.091-.536-.091-.814 0-1.972 1.595-3.571 3.573-3.571 1.026 0 1.956.434 2.608 1.129.812-.161 1.577-.458 2.268-.868-.267.834-.833 1.535-1.57 1.977.724-.085 1.411-.279 2.051-.563-.483.713-1.088 1.343-1.787 1.845z"/></svg>