<svg xmlns="http://www.w3.org/2000/svg" width="36" height="36" viewBox="-2 -2 36 36" enable-background="new -2 -2 36 36"><path fill="#CFCFCD" d="M16.059 33.499c-9.65 0-17.5-7.85-17.5-17.499s7.851-17.5 17.5-17.5c9.649 0 17.5 7.851 17.5 17.5s-7.851 17.499-17.5 17.499z"/><path fill="#fff" d="M19.406 16.476h-3v8.024h-2.906v-8.024h-2v-2.891h2v-2.469c0-1.938 1.105-3.72 3.996-3.72 1.168 0 2.031.113 2.031.113l-.068 2.998s-.883-.007-1.844-.007c-1.041 0-1.209.48-1.209 1.277v1.809h3.137l-.137 2.89z"/></svg>