<svg xmlns="http://www.w3.org/2000/svg" width="32" height="32" viewBox="-2 -2 32 32" enable-background="new -2 -2 36 36"><path d="M21.255 10.484l.012.457c0 4.674-3.505 10.06-9.92 10.06-1.97 0-3.8-.584-5.347-1.59.272.036.55.05.83.05 1.637 0 3.14-.565 4.332-1.515-1.525-.025-2.813-1.047-3.253-2.45.21.042.43.062.652.062.32 0 .628-.043.918-.12-1.597-.326-2.796-1.756-2.796-3.47v-.044c.472.264 1.01.424 1.58.44-.934-.63-1.553-1.714-1.553-2.94 0-.648.178-1.256.475-1.78 1.72 2.14 4.29 3.546 7.188 3.696-.06-.26-.09-.53-.09-.807 0-1.952 1.558-3.535 3.49-3.535 1 0 1.91.43 2.545 1.118.793-.16 1.54-.453 2.214-.86-.26.827-.812 1.52-1.532 1.958.707-.084 1.378-.276 2.002-.557-.472.706-1.062 1.33-1.745 1.826z" fill="#767676"/></svg>