<svg xmlns="http://www.w3.org/2000/svg" width="32" height="32" viewBox="-2 -2 32 32" enable-background="new -2 -2 36 36"><path d="M21.647 8.761v-3.261h-1.117v3.261h-3.352v1.115h3.352v3.345h1.117v-3.345h3.353v-1.115zm-5.368-3.261h-4.62s-4.681.115-4.681 4.065c0 3.952 4.091 3.493 4.091 3.493v1.002c0 .406.547.272.617 1.088-.277 0-5.685-.142-5.685 3.438 0 3.578 4.767 3.411 4.767 3.411s5.51.249 5.51-4.197c0-2.664-3.146-3.522-3.146-4.597 0-1.074 2.372-1.385 2.372-3.909 0-1.514-.14-2.428-1.336-2.966.001-.376 2.111-.128 2.111-.829zm-1.486 12.605c.095 1.388-1.374 2.617-3.283 2.746-1.907.131-3.53-.89-3.624-2.277-.095-1.388 1.374-2.617 3.282-2.748 1.908-.129 3.532.891 3.625 2.279zm-2.81-5.994c-1.136.308-2.407-.729-2.839-2.316-.433-1.587.137-3.122 1.274-3.431 1.136-.309 2.407.729 2.839 2.315.433 1.588-.137 3.123-1.274 3.432z" fill="#767676"/></svg>