<svg xmlns="http://www.w3.org/2000/svg" width="32" height="32" viewBox="-2 -2 32 32" enable-background="new -2 -2 36 36"><path d="M21.255 10.484l.012.457c0 4.676-3.505 10.06-9.92 10.06-1.97 0-3.8-.582-5.347-1.59.272.038.55.05.83.05 1.637 0 3.14-.563 4.332-1.513-1.525-.025-2.813-1.047-3.253-2.45.21.042.43.062.65.062.32 0 .63-.044.92-.12-1.6-.327-2.798-1.757-2.798-3.47v-.045c.472.264 1.01.424 1.58.44-.934-.63-1.553-1.714-1.553-2.94 0-.648.177-1.256.474-1.78 1.72 2.14 4.29 3.546 7.188 3.696-.06-.26-.09-.53-.09-.806C14.282 8.582 15.84 7 17.772 7c1 0 1.91.43 2.545 1.117.793-.16 1.54-.453 2.214-.86-.26.827-.81 1.52-1.53 1.958.706-.084 1.377-.276 2-.557-.47.706-1.06 1.33-1.744 1.826z" fill="#fff"/></svg>