<svg width="18" height="18" xmlns="http://www.w3.org/2000/svg"><path d="M10.412 3.786l-1.477-1.452c-2.032-2.039-5.36-2.043-7.398-.011-2.037 2.03-2.044 5.358-.011 7.397l1.781 1.787c2.032 2.037 5.361 2.043 7.398.012l-1.847-1.852c-1.02 1.018-2.682 1.015-3.699-.006l-1.783-1.786c-1.018-1.022-1.014-2.682.006-3.699 1.022-1.017 2.681-1.017 3.7.005l.923.926 2.405-1.32zm-3.636 11.239l1.257 1.256c2.031 2.039 5.361 2.042 7.398.011 2.036-2.03 2.108-5.293.075-7.331l-1.846-1.854c-2.03-2.036-5.359-2.043-7.397-.011l1.846 1.852c1.021-1.017 2.683-1.014 3.698.007l1.782 1.785c1.02 1.022 1.015 2.682-.006 3.699-1.022 1.018-2.68 1.017-3.698-.005l-.923-.928-2.187 1.518z"/></svg>