<svg xmlns="http://www.w3.org/2000/svg" width="32" height="32" viewBox="-2 -2 32 32" enable-background="new -2 -2 36 36"><path d="M21.647 8.76V5.5H20.53v3.26h-3.352v1.116h3.352v3.345h1.117V9.877H25V8.76zM16.28 5.5h-4.62s-4.682.115-4.682 4.065c0 3.952 4.09 3.493 4.09 3.493v1.002c0 .406.548.272.618 1.088-.277 0-5.685-.142-5.685 3.438 0 3.578 4.768 3.41 4.768 3.41s5.51.25 5.51-4.196c0-2.664-3.146-3.522-3.146-4.597 0-1.074 2.372-1.385 2.372-3.91 0-1.513-.14-2.427-1.336-2.965 0-.376 2.11-.128 2.11-.83zm-1.487 12.605c.095 1.388-1.374 2.617-3.283 2.746-1.907.132-3.53-.89-3.624-2.276-.095-1.388 1.374-2.617 3.282-2.748 1.908-.13 3.532.89 3.625 2.28zm-2.81-5.994c-1.136.31-2.407-.728-2.84-2.315-.432-1.587.138-3.122 1.275-3.43 1.136-.31 2.407.728 2.84 2.314.432 1.587-.138 3.122-1.275 3.43z" fill="#fff"/></svg>