<svg xmlns="http://www.w3.org/2000/svg" width="32" height="32" viewBox="-2 -2 32 32" enable-background="new -2 -2 36 36"><path d="M21.255 10.484l.012.457c0 4.672-3.505 10.059-9.919 10.059-1.97 0-3.801-.585-5.348-1.59.272.035.551.049.831.049 1.636 0 3.138-.565 4.331-1.515-1.525-.025-2.813-1.047-3.253-2.449.211.041.432.061.654.061.319 0 .628-.043.918-.121-1.598-.325-2.797-1.755-2.797-3.47v-.043c.472.264 1.011.424 1.579.441-.933-.632-1.552-1.715-1.552-2.942 0-.647.176-1.255.473-1.779 1.721 2.14 4.289 3.546 7.188 3.696-.06-.259-.089-.531-.089-.806 0-1.952 1.557-3.535 3.488-3.535 1.002 0 1.91.43 2.546 1.118.793-.159 1.54-.453 2.214-.859-.261.826-.813 1.519-1.533 1.957.707-.084 1.378-.276 2.002-.557-.472.706-1.062 1.329-1.745 1.826z" fill="#fff"/></svg>