<svg xmlns="http://www.w3.org/2000/svg" width="36" height="36" viewBox="-2 -2 36 36" enable-background="new -2 -2 36 36"><g fill="#CFCFCD"><path d="M16.059 33.499c-9.65 0-17.5-7.85-17.5-17.499s7.851-17.5 17.5-17.5c9.649 0 17.5 7.851 17.5 17.5s-7.851 17.499-17.5 17.499zm0-33.999c-9.099 0-16.5 7.402-16.5 16.5 0 9.098 7.402 16.499 16.5 16.499 9.098 0 16.5-7.401 16.5-16.499 0-9.098-7.402-16.5-16.5-16.5z"/><polygon points="23.5,11.421 23.5,8.176 22.391,8.176 22.391,11.421 19.064,11.421 19.064,12.53 22.391,12.53 22.391,15.858 23.5,15.858 23.5,12.53 26.828,12.53 26.828,11.421"/><path d="M18.172 8.176h-4.585s-4.646.114-4.646 4.045c0 3.932 4.06 3.476 4.06 3.476v.997c0 .404.543.271.612 1.083-.275 0-5.642-.141-5.642 3.421 0 3.56 4.731 3.394 4.731 3.394s5.469.248 5.469-4.176c0-2.651-3.122-3.505-3.122-4.574s2.354-1.378 2.354-3.89c0-1.507-.139-2.416-1.326-2.951.001-.374 2.095-.127 2.095-.825zm-1.475 12.543c.094 1.381-1.364 2.604-3.258 2.732-1.893.13-3.503-.886-3.597-2.266-.094-1.381 1.364-2.604 3.257-2.734 1.894-.128 3.505.887 3.598 2.268zm-2.789-5.964c-1.127.306-2.389-.725-2.818-2.305-.43-1.579.136-3.107 1.264-3.414 1.127-.307 2.389.725 2.818 2.304.43 1.58-.136 3.108-1.264 3.415z"/></g></svg>