<svg xmlns="http://www.w3.org/2000/svg" width="36" height="36" viewBox="-2 -2 36 36" enable-background="new -2 -2 36 36"><path d="M16.059 33.499c-9.65 0-17.5-7.85-17.5-17.499s7.851-17.5 17.5-17.5c9.649 0 17.5 7.851 17.5 17.5s-7.851 17.499-17.5 17.499zm0-33.999c-9.099 0-16.5 7.402-16.5 16.5 0 9.098 7.402 16.499 16.5 16.499 9.098 0 16.5-7.401 16.5-16.499 0-9.098-7.402-16.5-16.5-16.5zm5.793 14.351l-.332-.413-5.35 2.466-5.419-2.466-.251.412 5.663 4.534zm1.137-4.33l-14.042-.021-1.447 2.312v8.579l1.524 1.109h14.021l1.455-1.108v-8.58l-1.511-2.291zm-.489 9.979h-13v-8h13v8z" fill="#767676"/></svg>