<svg xmlns="http://www.w3.org/2000/svg" width="177" height="31" viewBox="0 0 177 31"><path fill="#D80F56" d="M1.07 28.605v-5.224h2.789l1.129 3.282c.46.425 2.049.637 3.178.637 1.871 0 3.177-.424 3.177-1.977 0-1.447-.494-2.048-2.612-2.507l-2.401-.529c-3.636-.812-5.33-3.707-5.33-6.637 0-3.777 2.577-6.566 8.401-6.566 2.33 0 4.695.353 6.249 1.023v4.872h-2.753l-.847-2.718c-.459-.248-1.836-.494-2.895-.494-1.553 0-2.612.741-2.612 1.941 0 1.165.529 1.871 2.718 2.33l2.33.494c3.812.812 5.26 3.354 5.26 6.355 0 4.129-2.612 6.954-8.896 6.954-2.119.001-4.978-.423-6.885-1.236zm37.7-9.143c0 6.708-4.13 10.415-10.131 10.415s-10.132-3.707-10.132-10.415c0-6.707 4.13-10.378 10.131-10.378s10.132 3.671 10.132 10.378zm-6.884 0c0-6.53-1.024-7.66-3.212-7.66s-3.283 1.129-3.283 7.66c0 6.531 1.094 7.661 3.283 7.661s3.212-1.13 3.212-7.661zm9.14-6.212l-2.225-1.023v-1.801l8.226-1.306h.564v13.944c0 2.26 1.095 2.647 2.753 2.647 1.095 0 1.695-.177 2.366-.459v-12.002l-2.189-1.023v-1.801l8.225-1.306h.529v16.909l2.224 1.165v1.695l-8.013.882h-.529v-2.612h-.247c-1.271 1.554-3.354 2.719-6.001 2.719-3.989 0-5.683-2.86-5.683-6.284v-10.344zm29.967-12.25h.53v25.522l2.118.988v1.837h-10.802v-1.837l2.118-.988v-21.392l-2.224-1.024v-1.8l8.26-1.306z"/><path fill="#191473" d="M75.086 27.546l2.153-.988v-13.414l-2.259-1.024v-1.73l8.189-1.306h.53v2.577h.212c1.765-1.625 3.459-2.577 6.142-2.577 2.33 0 3.812.812 4.519 2.577h.177c1.765-1.625 3.706-2.577 6.39-2.577 3.283 0 5.013 1.659 5.013 5.295v12.179l2.153.988v1.802h-10.414v-1.802l1.73-.988v-10.731c0-2.047-.671-2.789-2.436-2.789-.671 0-1.447.177-2.188.494v13.026l1.729.988v1.802h-10.026v-1.802l1.73-.988v-10.731c0-2.047-.636-2.789-2.436-2.789-.706 0-1.412.177-2.188.529v12.991l1.729.988v1.802h-10.449v-1.802zm37.697-11.79h-3.07v-5.154c1.87-.601 4.095-1.518 7.554-1.518 5.295 0 8.473 1.553 8.473 6.001v11.473l2.082.988v1.483c-.635.354-2.117.812-3.706.812-2.048 0-3.883-.672-4.201-2.79h-.176c-.883 1.766-3.213 2.825-5.684 2.825-3.495 0-5.684-2.26-5.684-5.542 0-4.061 2.612-4.873 6.989-5.613l3.777-.636v-2.648c0-2.506-.741-3.777-3.283-3.777-.317 0-1.271.035-1.694.071l-1.377 4.025zm6.355 4.448l-1.518.142c-1.519.141-2.754 1.164-2.754 3.036 0 2.188 1.2 2.895 2.472 2.895.705 0 1.446-.354 1.8-.742v-5.331zm10.658-7.237h-3.036v-2.965l3.036-.423v-3.707l6.566-.918v4.625h4.307v3.389h-4.307v10.415c0 1.941.529 2.93 2.436 2.93.706 0 1.624-.071 2.118-.142v2.542c-1.095.636-3.318 1.165-5.366 1.165-3.918 0-5.754-1.73-5.754-5.931v-10.98zm17.683 7.095c.317 3.849 2.153 5.684 5.754 5.684 2.506 0 3.919-.247 5.295-.671v1.906c-.917 1.271-3.883 2.896-7.519 2.896-6.778 0-10.272-3.742-10.272-10.449 0-6.531 3.848-10.309 9.742-10.309 5.931 0 8.79 2.648 8.79 10.943h-11.79zm-.071-2.364l5.473-.317c0-5.261-.883-6.107-2.507-6.107-1.8-.001-2.895 1.164-2.966 6.424zm12.813 10.907v-5.224h2.789l1.129 3.282c.459.424 2.048.636 3.177.636 1.871 0 3.178-.424 3.178-1.977 0-1.447-.494-2.048-2.612-2.507l-2.4-.529c-3.637-.812-5.331-3.707-5.331-6.637 0-3.777 2.577-6.566 8.401-6.566 2.33 0 4.695.353 6.249 1.023v4.872h-2.753l-.848-2.718c-.459-.248-1.836-.494-2.896-.494-1.553 0-2.611.741-2.611 1.941 0 1.165.529 1.871 2.718 2.33l2.33.494c3.812.812 5.26 3.354 5.26 6.355 0 4.129-2.612 6.954-8.896 6.954-2.119.002-4.978-.422-6.884-1.235z"/></svg>