<svg xmlns="http://www.w3.org/2000/svg" height="25" width="49" xmlns:xlink="http://www.w3.org/1999/xlink"><defs><path id="a" d="M0 0h49v25H0z"/></defs><clipPath id="b"><use overflow="visible" xlink:href="#a"/></clipPath><path d="M37.792 25C44.188 25 49 21.43 49 15.94c0-5.615-3.972-8.765-10.045-8.765-4.748 0-7.946 1.915-9.884 5.487C28.845 6.007 34.563.877 44.38.357V0C34.013.195 25.453 4.35 25.453 13.41c0 7.11 4.393 11.59 12.34 11.59m-25.455 0c6.396 0 11.21-3.57 11.21-9.06 0-5.615-3.975-8.765-10.014-8.765-4.78 0-7.98 1.915-9.884 5.487C3.392 6.007 9.11.877 18.928.357V0C8.592.195 0 4.35 0 13.41 0 20.52 4.425 25 12.338 25" clip-path="url(#b)"/></svg>