<svg xmlns="http://www.w3.org/2000/svg" height="25" width="49" xmlns:xlink="http://www.w3.org/1999/xlink"><defs><rect id="a" width="49" height="25"/></defs><clipPath id="b"><use overflow="visible" xlink:href="#a"/></clipPath><path d="M37.792 25c6.396 0 11.208-3.571 11.208-9.059 0-5.616-3.972-8.766-10.045-8.766-4.748 0-7.946 1.915-9.884 5.487-.227-6.655 5.491-11.785 15.309-12.305v-.357c-10.367.195-18.927 4.351-18.927 13.41 0 7.11 4.393 11.59 12.339 11.59m-25.454 0c6.396 0 11.209-3.571 11.209-9.059 0-5.616-3.974-8.766-10.013-8.766-4.781 0-7.979 1.915-9.884 5.487-.258-6.655 5.459-11.785 15.278-12.305v-.357c-10.336.195-18.928 4.351-18.928 13.41 0 7.11 4.425 11.59 12.338 11.59" clip-path="url(#b)"/></svg>