<?xml version="1.0" encoding="utf-8"?>
<!-- Generator: Adobe Illustrator 16.0.0, SVG Export Plug-In . SVG Version: 6.00 Build 0)  -->
<!DOCTYPE svg PUBLIC "-//W3C//DTD SVG 1.1//EN" "http://www.w3.org/Graphics/SVG/1.1/DTD/svg11.dtd">
<svg version="1.1" id="Layer_1" xmlns="http://www.w3.org/2000/svg" xmlns:xlink="http://www.w3.org/1999/xlink" x="0px" y="0px"
	 width="36.66px" height="17.88px" viewBox="0 0 36.66 17.88" enable-background="new 0 0 36.66 17.88" xml:space="preserve">
<g>
	<path fill-rule="evenodd" clip-rule="evenodd" fill="#FF8000" d="M28.33,17.88c4.76,0,8.33-2.56,8.33-6.48
		c0-4.01-2.95-6.26-7.46-6.26c-3.53,0-5.91,1.37-7.351,3.92C21.69,4.3,25.93,0.63,33.23,0.26V0C25.53,0.15,19.17,3.12,19.17,9.59
		C19.17,14.67,22.43,17.88,28.33,17.88z M9.27,17.88c4.83,0,8.461-2.56,8.461-6.48c0-4.01-3-6.26-7.561-6.26
		c-3.61,0-6.02,1.37-7.46,3.92C2.52,4.3,6.83,0.63,14.24,0.26V0C6.44,0.15,0,3.12,0,9.59C0,14.67,3.3,17.88,9.27,17.88z"/>
</g>
</svg>
