<svg xmlns="http://www.w3.org/2000/svg" width="36.66" height="17.88"><path fill-rule="evenodd" clip-rule="evenodd" fill="#FF8000" d="M28.33 17.88c4.76 0 8.33-2.56 8.33-6.48 0-4.01-2.95-6.26-7.46-6.26-3.53 0-5.91 1.37-7.351 3.92-.159-4.76 4.081-8.43 11.381-8.8v-.26c-7.7.15-14.06 3.12-14.06 9.59 0 5.08 3.26 8.29 9.16 8.29zm-19.06 0c4.83 0 8.461-2.56 8.461-6.48 0-4.01-3-6.26-7.561-6.26-3.61 0-6.02 1.37-7.46 3.92-.19-4.76 4.12-8.43 11.53-8.8v-.26c-7.8.15-14.24 3.12-14.24 9.59 0 5.08 3.3 8.29 9.27 8.29z"/></svg>