<svg xmlns="http://www.w3.org/2000/svg" width="32" height="32" viewBox="1.417 1 32 32" enable-background="new 1.417 1 32 32"><path fill="#E3E3DB" d="M17.417 1.444c8.577 0 15.556 6.978 15.556 15.555 0 8.578-6.979 15.556-15.556 15.556s-15.556-6.978-15.556-15.555c0-8.578 6.979-15.556 15.556-15.556m0-.444c-8.836 0-16 7.163-16 16 0 8.836 7.164 16 16 16 8.837 0 16-7.164 16-16 0-8.837-7.163-16-16-16z"/><path fill="#999" d="M24.547 16.528l-5.927-.741-.741-5.926h-.889l-.74 5.927-5.926.74v.889l5.926.74.741 5.926h.889l.74-5.926 5.927-.74z"/></svg>