<svg xmlns="http://www.w3.org/2000/svg" width="32" height="32" viewBox="20 20 32 32" enable-background="new 20 20 32 32"><path d="M36 51.777c-8.7 0-15.778-7.078-15.778-15.778s7.078-15.777 15.778-15.777 15.777 7.078 15.777 15.778-7.077 15.777-15.777 15.777zm0-31.333c8.577 0 15.556 6.978 15.556 15.555 0 8.578-6.979 15.556-15.556 15.556s-15.556-6.978-15.556-15.555c0-8.578 6.979-15.556 15.556-15.556m0-.444c-8.836 0-16 7.163-16 16 0 8.836 7.164 16 16 16 8.837 0 16-7.164 16-16 0-8.837-7.163-16-16-16z" fill="#E3E3DB"/><path fill="#fff" d="M34.833 37.157l-5.925-.741v-.889l5.925-.74h2.37l5.927.741v.889l-5.927.741c.07-.01-2.37-.001-2.37-.001z"/></svg>