<svg xmlns="http://www.w3.org/2000/svg" width="32" height="32"><path d="M16 31.777c-8.7 0-15.777-7.078-15.777-15.778s7.077-15.776 15.777-15.776 15.777 7.077 15.777 15.777-7.077 15.777-15.777 15.777zm0-31.334c8.577 0 15.557 6.979 15.557 15.556 0 8.578-6.979 15.556-15.557 15.556s-15.557-6.978-15.557-15.555c0-8.578 6.98-15.557 15.557-15.557m0-.443c-8.836 0-16 7.163-16 16 0 8.836 7.164 16 16 16 8.837 0 16-7.164 16-16 0-8.837-7.163-16-16-16z" fill="#fff"/><path fill="#676767" d="M14.833 17.157l-5.925-.741v-.889l5.925-.74h2.37l5.927.74v.89l-5.927.741c.07-.01-2.37-.001-2.37-.001z"/></svg>