<?xml version="1.0" encoding="utf-8"?>
<!-- Generator: Adobe Illustrator 15.0.2, SVG Export Plug-In . SVG Version: 6.00 Build 0)  -->
<!DOCTYPE svg PUBLIC "-//W3C//DTD SVG 1.1//EN" "http://www.w3.org/Graphics/SVG/1.1/DTD/svg11.dtd">
<svg version="1.1" id="Layer_1" xmlns="http://www.w3.org/2000/svg" xmlns:xlink="http://www.w3.org/1999/xlink" x="0px" y="0px"
	 width="27.527px" height="27.527px" viewBox="0 0 27.527 27.527" enable-background="new 0 0 27.527 27.527" xml:space="preserve">
<path fill="#333333" d="M16.646,15.304c0.349,0.35,0.952,0.35,1.3,0l1.21-1.209l7.867-7.864c0.349-0.349,0.349-0.936,0-1.283
	l-2.604-2.604c-0.329-0.35-0.935-0.35-1.283,0l-7.863,7.863l-1.21,1.212c-0.185,0.183-0.275,0.401-0.275,0.659
	c0,0.237,0.091,0.458,0.275,0.641l0.642,0.643l-3.19,3.19L6.36,21.703l-2.658,0.294l-1.844,4.251l1.266,1.279l4.245-1.864
	l0.293-2.658l5.152-5.15l3.189-3.19L16.646,15.304z M10.064,15.104l0.146,0.146l2.018-1.996c-0.184-0.367-0.274-0.771-0.274-1.174
	c0-0.734,0.293-1.43,0.806-1.962l2.696-2.695c-0.074-1.87-0.808-3.722-2.239-5.169C11.439,0.491,9.019-0.241,6.689,0.07l4.381,4.363
	L9.659,9.64l-5.206,1.413L0.07,6.669c-0.312,2.312,0.423,4.75,2.202,6.528C4.379,15.304,7.403,15.948,10.064,15.104z M26.067,21.007
	l-5.607-5.609l-1.229,1.211c-0.81,0.806-2.107,1.025-3.118,0.529l-1.999,2.019l6.894,6.893c0.111,0.146,0.24,0.294,0.369,0.422
	c1.41,1.412,3.702,1.412,5.095,0c1.411-1.411,1.411-3.703,0-5.113C26.342,21.227,26.213,21.116,26.067,21.007z"/>
</svg>
