<?xml version="1.0" encoding="utf-8"?>
<!-- Generator: Adobe Illustrator 15.0.2, SVG Export Plug-In . SVG Version: 6.00 Build 0)  -->
<!DOCTYPE svg PUBLIC "-//W3C//DTD SVG 1.1//EN" "http://www.w3.org/Graphics/SVG/1.1/DTD/svg11.dtd">
<svg version="1.1" id="Layer_1" xmlns="http://www.w3.org/2000/svg" xmlns:xlink="http://www.w3.org/1999/xlink" x="0px" y="0px"
	 width="27.528px" height="27.528px" viewBox="0 0 27.528 27.528" enable-background="new 0 0 27.528 27.528" xml:space="preserve">
<path fill-rule="evenodd" clip-rule="evenodd" fill="#231F20" d="M16.646,15.304c0.348,0.35,0.952,0.35,1.3,0l1.21-1.209
	l7.867-7.864c0.348-0.349,0.348-0.936,0-1.284l-2.605-2.603c-0.329-0.35-0.934-0.35-1.283,0l-7.863,7.863l-1.21,1.212
	c-0.185,0.183-0.276,0.402-0.276,0.659c0,0.238,0.091,0.458,0.276,0.641l0.641,0.643l-3.19,3.19L6.36,21.703l-2.659,0.294
	l-1.833,5.5l5.5-1.834l0.293-2.658l5.153-5.15l3.189-3.191L16.646,15.304z M10.064,15.104l0.145,0.145l2.018-1.996
	c-0.184-0.367-0.275-0.77-0.275-1.174c0-0.734,0.293-1.429,0.806-1.962l2.696-2.695C15.38,5.552,14.647,3.7,13.215,2.253
	C11.439,0.491,9.019-0.241,6.689,0.07l4.381,4.363L9.659,9.64l-5.206,1.413L0.07,6.669c-0.312,2.312,0.422,4.75,2.202,6.528
	C4.379,15.304,7.403,15.947,10.064,15.104z M24.563,24.544c-0.604,0.605-1.595,0.605-2.199,0c-0.605-0.603-0.605-1.574,0-2.18
	c0.604-0.605,1.595-0.605,2.199,0C25.169,22.97,25.169,23.941,24.563,24.544z M26.067,21.007l-5.608-5.609l-1.229,1.211
	c-0.81,0.805-2.108,1.025-3.118,0.529l-1.999,2.018l6.893,6.893c0.111,0.147,0.24,0.294,0.369,0.422c1.41,1.412,3.702,1.412,5.095,0
	c1.411-1.411,1.411-3.703,0-5.113C26.342,21.227,26.213,21.116,26.067,21.007z"/>
</svg>
