<svg xmlns="http://www.w3.org/2000/svg" width="13" height="13"><path fill="#333" d="M7.86 7.227c.165.165.45.165.614 0l.571-.572 3.715-3.712c.165-.165.165-.442 0-.606l-1.229-1.23c-.156-.165-.441-.165-.606 0l-3.713 3.713-.571.572c-.088.087-.13.189-.13.311 0 .112.042.217.13.303l.303.304-1.506 1.506-2.435 2.433-1.255.138-.871 2.008.598.604 2.005-.88.138-1.255 2.433-2.432 1.505-1.506.304.301zm-3.107-.094l.069.068.953-.942c-.088-.173-.13-.364-.13-.555 0-.347.138-.675.38-.926l1.273-1.273c-.036-.883-.381-1.757-1.058-2.44-.838-.833-1.981-1.179-3.081-1.032l2.069 2.061-.667 2.458-2.459.667-2.069-2.07c-.147 1.092.2 2.243 1.04 3.083.995.995 2.423 1.299 3.68.901zm7.556 2.787l-2.648-2.649-.58.572c-.383.381-.995.484-1.473.25l-.943.953 3.255 3.255.174.199c.666.667 1.749.667 2.406 0 .666-.666.666-1.748 0-2.414l-.191-.166z"/></svg>