<svg xmlns="http://www.w3.org/2000/svg" width="25" height="20"><path fill="#676767" d="M24.537 2.36c-.902.401-1.873.671-2.891.793 1.038-.623 1.837-1.61 2.213-2.786-.974.577-2.05.996-3.197 1.222-.918-.978-2.225-1.589-3.675-1.589-2.779 0-5.033 2.254-5.033 5.034 0 .395.044.778.13 1.147-4.184-.21-7.894-2.214-10.376-5.26-.434.744-.682 1.609-.682 2.532 0 1.746.889 3.287 2.239 4.189-.825-.026-1.601-.252-2.28-.629l-.001.063c0 2.44 1.736 4.475 4.038 4.937-.421.115-.866.177-1.325.177-.324 0-.64-.031-.947-.091.641 1.999 2.5 3.456 4.703 3.497-1.724 1.35-3.893 2.155-6.252 2.155-.407 0-.807-.024-1.201-.071 2.228 1.427 4.873 2.262 7.717 2.262 9.259 0 14.323-7.671 14.323-14.324l-.015-.651c.984-.71 1.838-1.597 2.512-2.607z"/></svg>