<svg xmlns="http://www.w3.org/2000/svg" width="23.28" height="18.99"><path fill="#fff" d="M23.275 2.24c-.855.38-1.777.637-2.743.752.986-.591 1.743-1.527 2.101-2.642-.923.547-1.944.945-3.031 1.159-.873-.928-2.115-1.509-3.488-1.509-2.637 0-4.775 2.138-4.775 4.775 0 .374.042.739.123 1.088-3.968-.199-7.486-2.1-9.842-4.989-.411.706-.645 1.526-.645 2.401 0 1.656.843 3.118 2.125 3.974-.785-.024-1.52-.238-2.163-.597l-.001.06c0 2.313 1.646 4.244 3.831 4.682-.401.11-.823.168-1.259.168-.308 0-.606-.029-.898-.086.607 1.896 2.371 3.278 4.461 3.317-1.634 1.278-3.693 2.044-5.931 2.044-.386 0-.766-.023-1.139-.066 2.113 1.354 4.623 2.145 7.319 2.145 8.784 0 13.587-7.275 13.587-13.585l-.014-.618c.932-.674 1.744-1.515 2.382-2.473"/></svg>