<svg xmlns="http://www.w3.org/2000/svg" width="32" height="32" viewBox="0 0 32 32"><path d="M15.271 9.453l-3.896 3.896h-2.672l-.703.696v3.935l.635.635h2.707l3.931 3.93h.727v-13.09zm7.438 6.529c0 1.963-.672 3.764-1.789 5.201l.393.395c1.615-1.328 2.646-3.342 2.646-5.596s-1.03-4.268-2.646-5.596l-.393.394c1.117 1.438 1.789 3.24 1.789 5.202zm-3.745 0c0 1.135-.344 2.188-.933 3.062l.469.469c.904-.904 1.463-2.152 1.463-3.531s-.559-2.628-1.463-3.532l-.469.469c.589.875.933 1.929.933 3.063z" fill="#fff"/></svg>