<?xml version="1.0" encoding="utf-8"?>
<!-- Generator: Adobe Illustrator 16.0.0, SVG Export Plug-In . SVG Version: 6.00 Build 0)  -->
<!DOCTYPE svg PUBLIC "-//W3C//DTD SVG 1.1//EN" "http://www.w3.org/Graphics/SVG/1.1/DTD/svg11.dtd">
<svg version="1.1"
	 xmlns="http://www.w3.org/2000/svg" xmlns:xlink="http://www.w3.org/1999/xlink" xmlns:a="http://ns.adobe.com/AdobeSVGViewerExtensions/3.0/"
	 x="0px" y="0px" width="119px" height="16px" viewBox="-1 -0.067 119 16" enable-background="new -1 -0.067 119 16"
	 xml:space="preserve">
<defs>
</defs>
<g>
	<defs>
		<rect id="SVGID_1_" width="118" height="15.437"/>
	</defs>
	<clipPath id="SVGID_2_">
		<use xlink:href="#SVGID_1_"  overflow="visible"/>
	</clipPath>
	<path clip-path="url(#SVGID_2_)" fill="#247EB3" d="M8.701,12.279c0,1.936-1.382,3.157-4.569,3.157c-2.561,0-4.132-0.8-4.132-1.892
		c0-1.062,1.033-1.367,1.95-1.556v-0.088c-0.873-0.188-1.295-0.814-1.295-1.454c0-0.859,0.903-1.543,1.368-1.864V8.497
		C1.208,8.046,0.669,7.246,0.669,6.169c0-1.761,1.455-2.809,3.55-2.809c0.655,0,1.368,0.205,1.877,0.393h0.116l2.081-0.406h0.16
		v1.615H8.264l-1.353-0.48V4.54C7.42,5.005,7.755,5.456,7.755,6.256c0,1.775-1.44,2.722-3.536,2.722
		c-0.538,0-0.902-0.03-1.338-0.161C2.677,8.962,2.517,9.194,2.517,9.413c0,0.292,0.262,0.523,0.582,0.523h2.91
		C7.813,9.937,8.701,10.679,8.701,12.279 M6.358,13.036c0-0.422-0.306-0.626-0.975-0.626H2.532
		c-0.219,0.248-0.321,0.523-0.321,0.916c0,0.568,0.51,1.092,1.993,1.092C5.893,14.418,6.358,13.88,6.358,13.036 M3.259,6.169
		c0,1.658,0.378,1.804,0.96,1.804c0.583,0,0.975-0.175,0.975-1.804c0-1.63-0.378-1.877-0.975-1.877
		C3.638,4.292,3.259,4.51,3.259,6.169"/>
	<path clip-path="url(#SVGID_2_)" fill="#247EB3" d="M9.559,5.092L8.642,4.67V3.928l3.39-0.539h0.233v5.747
		c0,0.931,0.451,1.092,1.135,1.092c0.451,0,0.698-0.073,0.975-0.189V5.092L13.472,4.67V3.928l3.391-0.539h0.217v6.97l0.917,0.48
		v0.697l-3.303,0.364h-0.218v-1.076h-0.102c-0.524,0.64-1.382,1.119-2.474,1.119c-1.644,0-2.342-1.178-2.342-2.589V5.092z"/>
	<path clip-path="url(#SVGID_2_)" fill="#247EB3" d="M19.814,6.125h-1.265V4.001c0.771-0.247,1.688-0.626,3.113-0.626
		c2.183,0,3.492,0.641,3.492,2.473v4.728l0.858,0.409v0.611c-0.263,0.145-0.873,0.333-1.528,0.333c-0.844,0-1.6-0.276-1.731-1.148
		h-0.074c-0.364,0.728-1.324,1.163-2.342,1.163c-1.441,0-2.343-0.931-2.343-2.284c0-1.673,1.076-2.008,2.88-2.313l1.557-0.262V5.994
		c0-1.034-0.306-1.557-1.353-1.557c-0.13,0-0.524,0.015-0.699,0.029L19.814,6.125z M22.434,7.958l-0.625,0.058
		c-0.626,0.058-1.135,0.48-1.135,1.251c0,0.902,0.495,1.194,1.018,1.194c0.292,0,0.597-0.146,0.742-0.307V7.958z"/>
	<path clip-path="url(#SVGID_2_)" fill="#247EB3" d="M29.693,3.347h0.233v1.716h0.087c0.48-1.077,1.208-1.659,2.096-1.659
		c0.145,0,0.32,0.015,0.407,0.043V5.82c-0.16-0.043-0.451-0.073-0.684-0.073c-0.728,0-1.338,0.073-1.805,0.292v4.524l1.121,0.408
		v0.756h-4.685v-0.756l0.858-0.408V5.049l-0.902-0.422V3.885L29.693,3.347z"/>
	<path clip-path="url(#SVGID_2_)" fill="#247EB3" d="M38.16,1.746l-0.902-0.408V0.597l3.39-0.539h0.219v10.301l0.859,0.48v0.697
		l-3.216,0.364h-0.232v-0.844h-0.087c-0.334,0.437-1.033,0.887-2.052,0.887c-1.484,0-3.259-0.945-3.259-4.073
		c0-3.289,1.819-4.467,3.972-4.467c0.451,0,0.975,0.102,1.31,0.335V1.746z M38.16,4.816c-0.204-0.161-0.437-0.292-0.916-0.292
		c-0.858,0-1.499,0.772-1.499,3.07c0,2.008,0.509,2.881,1.586,2.881c0.407,0,0.64-0.073,0.829-0.146V4.816z"/>
	<path clip-path="url(#SVGID_2_)" fill="#247EB3" d="M45.536,3.347h0.217v7.216l0.873,0.408v0.756h-4.452v-0.756l0.873-0.408V5.048
		l-0.917-0.421V3.885L45.536,3.347z M45.798,1.44c0,0.787-0.655,1.426-1.44,1.426c-0.801,0-1.44-0.64-1.44-1.426
		c0-0.8,0.64-1.44,1.44-1.44C45.143,0,45.798,0.64,45.798,1.44"/>
	<path clip-path="url(#SVGID_2_)" fill="#247EB3" d="M48.46,6.125h-1.266V4.001c0.772-0.247,1.688-0.626,3.114-0.626
		c2.183,0,3.492,0.641,3.492,2.473v4.728l0.858,0.409v0.611c-0.262,0.145-0.873,0.333-1.528,0.333c-0.843,0-1.6-0.276-1.731-1.148
		h-0.072c-0.364,0.728-1.325,1.163-2.343,1.163c-1.44,0-2.343-0.931-2.343-2.284c0-1.673,1.077-2.008,2.881-2.313l1.557-0.262V5.994
		c0-1.034-0.306-1.557-1.354-1.557c-0.131,0-0.523,0.015-0.698,0.029L48.46,6.125z M51.079,7.958l-0.626,0.058
		c-0.625,0.058-1.135,0.48-1.135,1.251c0,0.902,0.495,1.194,1.019,1.194c0.291,0,0.596-0.146,0.742-0.307V7.958z"/>
	<path clip-path="url(#SVGID_2_)" fill="#247EB3" d="M55.108,10.985l0.888-0.409V5.049l-0.932-0.422V3.913l3.375-0.538h0.219v1.062
		h0.087c0.728-0.669,1.717-1.062,2.822-1.062c1.354,0,2.037,0.67,2.037,2.168v5.033l0.888,0.409v0.741h-4.452v-0.741l0.858-0.409
		V6.154c0-0.844-0.35-1.149-1.091-1.149c-0.408,0-0.771,0.087-1.106,0.219v5.353l0.859,0.409v0.741h-4.452V10.985z"/>
	<polygon clip-path="url(#SVGID_2_)" fill="#666666" points="73.439,9.063 73.498,9.063 74.488,4.743 73.759,4.335 73.759,3.579 
		76.814,3.579 76.814,4.335 75.942,4.743 73.948,11.727 71.577,11.727 70.355,7.246 70.267,7.246 68.987,11.727 66.762,11.727 
		64.797,4.743 63.924,4.335 63.924,3.579 68.362,3.579 68.362,4.335 67.634,4.743 68.624,8.773 68.682,8.773 70.093,3.651 
		71.897,3.651 	"/>
	<path clip-path="url(#SVGID_2_)" fill="#666666" d="M80.481,3.347h0.218v7.216l0.873,0.408v0.756H77.12v-0.756l0.873-0.408V5.048
		l-0.917-0.421V3.885L80.481,3.347z M80.744,1.44c0,0.787-0.656,1.426-1.441,1.426c-0.8,0-1.44-0.64-1.44-1.426
		c0-0.8,0.641-1.44,1.44-1.44C80.087,0,80.744,0.64,80.744,1.44"/>
	<path clip-path="url(#SVGID_2_)" fill="#666666" d="M82.401,4.977h-1.252V3.754l1.252-0.175V2.051l2.707-0.378v1.905h1.774v1.398
		h-1.774v4.291c0,0.8,0.217,1.208,1.004,1.208c0.289,0,0.668-0.028,0.871-0.059v1.048c-0.45,0.262-1.368,0.479-2.21,0.479
		c-1.616,0-2.372-0.712-2.372-2.443V4.977z"/>
	<path clip-path="url(#SVGID_2_)" fill="#666666" d="M87.434,10.985l0.888-0.409V5.049l-0.931-0.422V3.913l3.375-0.538h0.218v1.062
		h0.088c0.727-0.669,1.717-1.062,2.822-1.062c1.353,0,2.036,0.67,2.036,2.168v5.033l0.888,0.409v0.741h-4.45v-0.741l0.857-0.409
		V6.154c0-0.844-0.351-1.149-1.093-1.149c-0.407,0-0.77,0.087-1.106,0.219v5.353l0.861,0.409v0.741h-4.453V10.985z"/>
	<path clip-path="url(#SVGID_2_)" fill="#666666" d="M99.03,7.9c0.131,1.586,0.887,2.343,2.37,2.343
		c1.034,0,1.615-0.103,2.184-0.276v0.785c-0.378,0.523-1.601,1.194-3.1,1.194c-2.793,0-4.234-1.544-4.234-4.308
		c0-2.692,1.586-4.249,4.016-4.249c2.444,0,3.623,1.092,3.623,4.511H99.03z M99,6.925l2.254-0.131c0-2.167-0.363-2.517-1.033-2.517
		C99.48,4.277,99.03,4.758,99,6.925"/>
	<path clip-path="url(#SVGID_2_)" fill="#666666" d="M104.28,11.421V9.268h1.15l0.465,1.354c0.19,0.174,0.844,0.262,1.311,0.262
		c0.771,0,1.309-0.174,1.309-0.815c0-0.596-0.203-0.843-1.076-1.032l-0.989-0.218c-1.499-0.334-2.197-1.527-2.197-2.735
		c0-1.557,1.062-2.707,3.464-2.707c0.96,0,1.934,0.146,2.575,0.422v2.008h-1.137l-0.348-1.12c-0.189-0.103-0.757-0.204-1.193-0.204
		c-0.641,0-1.077,0.305-1.077,0.8c0,0.48,0.218,0.771,1.12,0.96l0.961,0.204c1.571,0.336,2.167,1.383,2.167,2.619
		c0,1.703-1.076,2.866-3.666,2.866C106.245,11.93,105.066,11.756,104.28,11.421"/>
	<path clip-path="url(#SVGID_2_)" fill="#666666" d="M111.497,11.421V9.268h1.149l0.466,1.354c0.188,0.174,0.844,0.262,1.309,0.262
		c0.771,0,1.311-0.174,1.311-0.815c0-0.596-0.205-0.843-1.077-1.032l-0.99-0.218c-1.498-0.334-2.196-1.527-2.196-2.735
		c0-1.557,1.062-2.707,3.462-2.707c0.961,0,1.936,0.146,2.575,0.422v2.008h-1.134l-0.35-1.12c-0.188-0.103-0.757-0.204-1.192-0.204
		c-0.64,0-1.077,0.305-1.077,0.8c0,0.48,0.219,0.771,1.121,0.96l0.96,0.204C117.404,6.781,118,7.828,118,9.063
		c0,1.703-1.077,2.866-3.667,2.866C113.461,11.93,112.282,11.756,111.497,11.421"/>
</g>
</svg>
