<svg xmlns="http://www.w3.org/2000/svg" xmlns:xlink="http://www.w3.org/1999/xlink" width="119" height="16" viewBox="-1 -0.067 119 16" enable-background="new -1 -0.067 119 16"><defs><rect id="a" width="118" height="15.437"/></defs><clipPath id="b"><use xlink:href="#a" overflow="visible"/></clipPath><path clip-path="url(#b)" fill="#247EB3" d="M8.701 12.279c0 1.936-1.382 3.157-4.569 3.157-2.561 0-4.132-.8-4.132-1.892 0-1.062 1.033-1.367 1.95-1.556v-.088c-.873-.188-1.295-.814-1.295-1.454 0-.859.903-1.543 1.368-1.864v-.085c-.815-.451-1.354-1.251-1.354-2.328 0-1.761 1.455-2.809 3.55-2.809.655 0 1.368.205 1.877.393h.116l2.081-.406h.16v1.615h-.189l-1.353-.48v.058c.509.465.844.916.844 1.716 0 1.775-1.44 2.722-3.536 2.722-.538 0-.902-.03-1.338-.161-.204.145-.364.377-.364.596 0 .292.262.523.582.523h2.91c1.804.001 2.692.743 2.692 2.343m-2.343.757c0-.422-.306-.626-.975-.626h-2.851c-.219.248-.321.523-.321.916 0 .568.51 1.092 1.993 1.092 1.689 0 2.154-.538 2.154-1.382m-3.099-6.867c0 1.658.378 1.804.96 1.804.583 0 .975-.175.975-1.804 0-1.63-.378-1.877-.975-1.877-.581 0-.96.218-.96 1.877"/><path clip-path="url(#b)" fill="#247EB3" d="M9.559 5.092l-.917-.422v-.742l3.39-.539h.233v5.747c0 .931.451 1.092 1.135 1.092.451 0 .698-.073.975-.189v-4.947l-.903-.422v-.742l3.391-.539h.217v6.97l.917.48v.697l-3.303.364h-.218v-1.076h-.102c-.524.64-1.382 1.119-2.474 1.119-1.644 0-2.342-1.178-2.342-2.589v-4.262z"/><path clip-path="url(#b)" fill="#247EB3" d="M19.814 6.125h-1.265v-2.124c.771-.247 1.688-.626 3.113-.626 2.183 0 3.492.641 3.492 2.473v4.728l.858.409v.611c-.263.145-.873.333-1.528.333-.844 0-1.6-.276-1.731-1.148h-.074c-.364.728-1.324 1.163-2.342 1.163-1.441 0-2.343-.931-2.343-2.284 0-1.673 1.076-2.008 2.88-2.313l1.557-.262v-1.091c0-1.034-.306-1.557-1.353-1.557-.13 0-.524.015-.699.029l-.565 1.659zm2.62 1.833l-.625.058c-.626.058-1.135.48-1.135 1.251 0 .902.495 1.194 1.018 1.194.292 0 .597-.146.742-.307v-2.196z"/><path clip-path="url(#b)" fill="#247EB3" d="M29.693 3.347h.233v1.716h.087c.48-1.077 1.208-1.659 2.096-1.659.145 0 .32.015.407.043v2.373c-.16-.043-.451-.073-.684-.073-.728 0-1.338.073-1.805.292v4.524l1.121.408v.756h-4.685v-.756l.858-.408v-5.514l-.902-.422v-.742l3.274-.538z"/><path clip-path="url(#b)" fill="#247EB3" d="M38.16 1.746l-.902-.408v-.741l3.39-.539h.219v10.301l.859.48v.697l-3.216.364h-.232v-.844h-.087c-.334.437-1.033.887-2.052.887-1.484 0-3.259-.945-3.259-4.073 0-3.289 1.819-4.467 3.972-4.467.451 0 .975.102 1.31.335v-1.992zm0 3.07c-.204-.161-.437-.292-.916-.292-.858 0-1.499.772-1.499 3.07 0 2.008.509 2.881 1.586 2.881.407 0 .64-.073.829-.146v-5.513z"/><path clip-path="url(#b)" fill="#247EB3" d="M45.536 3.347h.217v7.216l.873.408v.756h-4.452v-.756l.873-.408v-5.515l-.917-.421v-.742l3.406-.538zm.262-1.907c0 .787-.655 1.426-1.44 1.426-.801 0-1.44-.64-1.44-1.426 0-.8.64-1.44 1.44-1.44.785 0 1.44.64 1.44 1.44"/><path clip-path="url(#b)" fill="#247EB3" d="M48.46 6.125h-1.266v-2.124c.772-.247 1.688-.626 3.114-.626 2.183 0 3.492.641 3.492 2.473v4.728l.858.409v.611c-.262.145-.873.333-1.528.333-.843 0-1.6-.276-1.731-1.148h-.072c-.364.728-1.325 1.163-2.343 1.163-1.44 0-2.343-.931-2.343-2.284 0-1.673 1.077-2.008 2.881-2.313l1.557-.262v-1.091c0-1.034-.306-1.557-1.354-1.557-.131 0-.523.015-.698.029l-.567 1.659zm2.619 1.833l-.626.058c-.625.058-1.135.48-1.135 1.251 0 .902.495 1.194 1.019 1.194.291 0 .596-.146.742-.307v-2.196z"/><path clip-path="url(#b)" fill="#247EB3" d="M55.108 10.985l.888-.409v-5.527l-.932-.422v-.714l3.375-.538h.219v1.062h.087c.728-.669 1.717-1.062 2.822-1.062 1.354 0 2.037.67 2.037 2.168v5.033l.888.409v.741h-4.452v-.741l.858-.409v-4.422c0-.844-.35-1.149-1.091-1.149-.408 0-.771.087-1.106.219v5.353l.859.409v.741h-4.452v-.742z"/><polygon clip-path="url(#b)" fill="#666" points="73.439,9.063 73.498,9.063 74.488,4.743 73.759,4.335 73.759,3.579 76.814,3.579 76.814,4.335 75.942,4.743 73.948,11.727 71.577,11.727 70.355,7.246 70.267,7.246 68.987,11.727 66.762,11.727 64.797,4.743 63.924,4.335 63.924,3.579 68.362,3.579 68.362,4.335 67.634,4.743 68.624,8.773 68.682,8.773 70.093,3.651 71.897,3.651"/><path clip-path="url(#b)" fill="#666" d="M80.481 3.347h.218v7.216l.873.408v.756h-4.452v-.756l.873-.408v-5.515l-.917-.421v-.742l3.405-.538zm.263-1.907c0 .787-.656 1.426-1.441 1.426-.8 0-1.44-.64-1.44-1.426 0-.8.641-1.44 1.44-1.44.784 0 1.441.64 1.441 1.44"/><path clip-path="url(#b)" fill="#666" d="M82.401 4.977h-1.252v-1.223l1.252-.175v-1.528l2.707-.378v1.905h1.774v1.398h-1.774v4.291c0 .8.217 1.208 1.004 1.208.289 0 .668-.028.871-.059v1.048c-.45.262-1.368.479-2.21.479-1.616 0-2.372-.712-2.372-2.443v-4.523z"/><path clip-path="url(#b)" fill="#666" d="M87.434 10.985l.888-.409v-5.527l-.931-.422v-.714l3.375-.538h.218v1.062h.088c.727-.669 1.717-1.062 2.822-1.062 1.353 0 2.036.67 2.036 2.168v5.033l.888.409v.741h-4.45v-.741l.857-.409v-4.422c0-.844-.351-1.149-1.093-1.149-.407 0-.77.087-1.106.219v5.353l.861.409v.741h-4.453v-.742z"/><path clip-path="url(#b)" fill="#666" d="M99.03 7.9c.131 1.586.887 2.343 2.37 2.343 1.034 0 1.615-.103 2.184-.276v.785c-.378.523-1.601 1.194-3.1 1.194-2.793 0-4.234-1.544-4.234-4.308 0-2.692 1.586-4.249 4.016-4.249 2.444 0 3.623 1.092 3.623 4.511h-4.859zm-.03-.975l2.254-.131c0-2.167-.363-2.517-1.033-2.517-.741 0-1.191.481-1.221 2.648"/><path clip-path="url(#b)" fill="#666" d="M104.28 11.421v-2.153h1.15l.465 1.354c.19.174.844.262 1.311.262.771 0 1.309-.174 1.309-.815 0-.596-.203-.843-1.076-1.032l-.989-.218c-1.499-.334-2.197-1.527-2.197-2.735 0-1.557 1.062-2.707 3.464-2.707.96 0 1.934.146 2.575.422v2.008h-1.137l-.348-1.12c-.189-.103-.757-.204-1.193-.204-.641 0-1.077.305-1.077.8 0 .48.218.771 1.12.96l.961.204c1.571.336 2.167 1.383 2.167 2.619 0 1.703-1.076 2.866-3.666 2.866-.874-.002-2.053-.176-2.839-.511"/><path clip-path="url(#b)" fill="#666" d="M111.497 11.421v-2.153h1.149l.466 1.354c.188.174.844.262 1.309.262.771 0 1.311-.174 1.311-.815 0-.596-.205-.843-1.077-1.032l-.99-.218c-1.498-.334-2.196-1.527-2.196-2.735 0-1.557 1.062-2.707 3.462-2.707.961 0 1.936.146 2.575.422v2.008h-1.134l-.35-1.12c-.188-.103-.757-.204-1.192-.204-.64 0-1.077.305-1.077.8 0 .48.219.771 1.121.96l.96.204c1.57.334 2.166 1.381 2.166 2.616 0 1.703-1.077 2.866-3.667 2.866-.872.001-2.051-.173-2.836-.508"/></svg>