<svg width="29" height="40" xmlns="http://www.w3.org/2000/svg"><path d="M29 29.5C29 35.9 23.7 40 14.1 40 4.5 40 0 36.3 0 30.5c0-5 4.2-8.3 9.1-9.3-5-3-8-6.4-8-11C1.2 3.8 6.2 0 14.8 0c9.2 0 13 3.5 13 8.2 0 5-4.2 7.6-9.2 8.6l1.6.9c5.5 3 8.9 5.8 8.9 11.8zM15 14.7l2.2 1.3c1.6-1.9 2.6-4.3 2.6-7.7 0-4.8-2-7.2-5.3-7.2-3.7 0-5.7 2.3-5.7 6 0 3.8 2.6 5.7 6.1 7.6zM8.1 30.4c0 5.2 2.1 8.5 6.4 8.5 4 0 6.4-2.6 6.4-6.9 0-3.7-2.7-5.5-6.2-7.5l-4-2.4a12.8 12.8 0 0 0-2.6 8.3z" fill="#333" fill-rule="evenodd"/></svg>
