<svg xmlns="http://www.w3.org/2000/svg" width="54" height="35"><path fill="#00C0F4" d="M0 0h54v35h-54z"/><path d="M4.889 12.479l-1.038-2.53-1.032 2.5m24.933-.977c-.209.126-.455.13-.75.13h-1.842v-1.409h1.867c.264 0 .5 0 .7.115.197.1.3.3.3.561.037.231-.127.531-.227.603zm13.141 1.007l-1.049-2.529-1.043 2.529h2.092zm-24.496 2.737h-1.554l-.006-4.969-2.199 4.969h-1.332l-2.204-4.974v4.974h-3.083l-.583-1.415h-3.157l-.589 1.415h-1.647l2.715-6.344h2.253l2.579 6.006v-6.006h2.475l1.984 4.304 1.823-4.304h2.524v6.344h.001zm6.196 0h-5.065v-6.344h5.065v1.32h-3.549v1.144h3.464v1.301h-3.464v1.267h3.549v1.312zm7.143-4.616c0 1.012-.676 1.534-1.07 1.691.332.1.6.3.8.534.215.3.3.6.3 1.163v1.247h-1.529l-.006-.801c0-.381.037-.93-.24-1.235-.221-.224-.559-.271-1.105-.271h-1.726v2.308h-1.516v-6.364h3.487c.775 0 1.3 0 1.8.304.516.324.769.724.769 1.404zm2.426 4.616h-1.549v-6.344h1.549v6.344zm17.949 0h-2.15l-2.873-4.762v4.762h-3.088l-.59-1.415h-3.15l-.572 1.415h-1.773c-.738 0-1.67-.163-2.199-.702-.533-.538-.811-1.269-.811-2.421 0-.941.166-1.802.818-2.481.488-.506 1.258-.739 2.303-.739h1.467v1.359h-1.438c-.553 0-.865.082-1.166.375-.258.268-.436.772-.436 1.438 0 .7.1 1.2.4 1.5.234.3.7.3 1.1.327h.682l2.137-4.989h2.271l2.568 6v-6h2.309l2.666 4.418v-4.429h1.553v6.344h-.028zm-50.085 1.246h2.591l.584-1.409h1.308l.582 1.409h5.098v-1.077l.455 1.081h2.646l.455-1.098v1.094h12.668l-.005-2.313h.245c.172 0 .2 0 .2.306v2.008h6.551v-.539c.529.3 1.4.5 2.4.539h2.756l.59-1.409h1.307l.578 1.4h5.312v-1.339l.803 1.339h4.258v-8.84h-4.158v1.045l-.59-1.045h-4.322v1.045l-.541-1.045h-5.84c-.977 0-1.836.136-2.531.5v-.5h-4.029v.517c-.441-.393-1.043-.517-1.711-.517h-14.722l-.987 2.285-1.014-2.285h-4.637v1.045l-.51-1.045h-3.954l-1.836 4.206v4.642zm53.949 4.679h-2.764c-.275 0-.461.011-.615.114-.158.104-.221.255-.221.5 0 .2.1.4.3.473.16.1.3.1.6.072l.822.022c.828 0 1.4.2 1.7.5.061 0 .1.1.1.2m.078 2.302c-.369.539-1.088.812-2.059.812h-2.928v-1.361h2.916c.289 0 .492-.038.613-.157.105-.099.18-.241.18-.414 0-.185-.074-.332-.186-.42-.109-.097-.27-.141-.533-.141-1.424-.049-3.201.044-3.201-1.964 0-.92.584-1.89 2.176-1.89h3.02v-1.262h-2.805c-.848 0-1.463.202-1.898.519v-.519h-4.15c-.664 0-1.443.164-1.812.519v-.519h-7.41v.519c-.592-.427-1.586-.519-2.047-.519h-4.889v.519c-.467-.453-1.504-.519-2.137-.519h-5.472l-1.252 1.354-1.173-1.354h-8.173v8.854h8.02l1.29-1.377 1.215 1.377 4.943.004v-2.083h.486c.656 0 1.43-.015 2.111-.311v2.39h4.078v-2.309h.197c.25 0 .3 0 .3.262v2.047h12.387c.787 0 1.607-.201 2.064-.567v.567h3.928c.818 0 1.615-.114 2.225-.408v-1.649h-.024zm-6.049-2.535c.295.3.5.7.5 1.344 0 1.366-.854 2.004-2.381 2.004h-2.955v-1.361h2.941c.289 0 .492-.038.619-.157.105-.099.18-.241.18-.414 0-.185-.08-.332-.184-.42-.117-.097-.277-.141-.541-.141-1.418-.049-3.193.044-3.193-1.964 0-.92.578-1.89 2.168-1.89h3.039v1.351h-2.781c-.275 0-.455.011-.607.114-.166.104-.229.256-.229.457 0 .2.1.4.3.5.16.1.3.1.6.072l.816.022c.798-.006 1.382.094 1.682.483zm-13.684-.389c-.203.12-.453.13-.748.13h-1.842v-1.425h1.867c.27 0 .5 0 .7.114.197.1.3.3.3.6s-.08.481-.319.578zm.916.787c.338.1.6.3.7.533.215.3.2.6.3 1.158v1.259h-1.521v-.795c0-.382.035-.946-.246-1.242-.221-.228-.559-.281-1.111-.281h-1.621v2.318h-1.523v-6.347h3.5c.768 0 1.3 0 1.8.3.479.3.8.7.8 1.409-.004 1.001-.636 1.501-1.036 1.688zm1.916-3.387h5.061v1.312h-3.551v1.153h3.465v1.295h-3.465v1.263l3.551.005v1.318h-5.061v-6.356zm-10.23 2.919h-1.959v-1.616h1.977c.547 0 .9.2.9.778.027.519-.362.819-.962.838zm-3.47 2.84l-2.328-2.585 2.328-2.502v5.087zm-6.012-.746h-3.729v-1.263h3.33v-1.295h-3.33v-1.153h3.802l1.658 1.85-1.731 1.861zm12.054-2.913c0 1.763-1.314 2.126-2.64 2.126h-1.892v2.13h-2.948l-1.867-2.102-1.94 2.102h-6.006v-6.366h6.099l1.865 2.081 1.929-2.081h4.846c1.202.01 2.538.31 2.538 2.091z" fill="#fff"/></svg>