<svg xmlns="http://www.w3.org/2000/svg" width="54" height="35"><path fill="#00C0F4" d="M0 0h54v35H0z"/><path d="M4.89 12.48L3.85 9.95l-1.03 2.5m24.932-.978c-.21.126-.455.13-.75.13H25.16v-1.41h1.867c.264 0 .5 0 .7.116.197.1.3.3.3.56.037.232-.127.532-.227.604zm13.14 1.007l-1.048-2.53-1.043 2.53h2.1zm-24.495 2.73h-1.554l-.006-4.97-2.2 4.97h-1.33L9.1 10.24v4.974H6.02L5.435 13.8H2.28l-.59 1.416H.043l2.715-6.344H5.01l2.58 6.006V8.872h2.475l1.984 4.304 1.82-4.304h2.52v6.344zm6.196 0h-5.065V8.87h5.065v1.32h-3.55v1.143h3.465v1.3h-3.464V13.9h3.55v1.313zm7.143-4.62c0 1.01-.676 1.532-1.07 1.69.332.1.6.3.8.533.215.3.3.6.3 1.164v1.247h-1.53l-.005-.8c0-.38.04-.93-.24-1.235-.22-.226-.55-.273-1.1-.273h-1.73v2.31h-1.51V8.87h3.49c.78 0 1.3 0 1.8.305.52.324.77.724.77 1.404zm2.426 4.614h-1.55V8.87h1.55v6.344zm17.95 0h-2.15l-2.874-4.76v4.76H42l-.59-1.414h-3.15l-.572 1.417h-1.773c-.738 0-1.67-.164-2.2-.703-.532-.537-.81-1.27-.81-2.42 0-.94.166-1.802.818-2.48.488-.507 1.258-.74 2.303-.74h1.467v1.36h-1.438c-.553 0-.865.08-1.166.374-.26.27-.44.772-.44 1.44 0 .7.1 1.2.4 1.5.23.3.7.3 1.1.325h.68l2.132-4.99h2.27l2.57 6v-6h2.31l2.664 4.42V8.87h1.553v6.344h-.03zM.025 16.462h2.59l.585-1.41h1.31l.58 1.41h5.1v-1.077l.454 1.08h2.646l.455-1.097v1.093h12.668l-.005-2.31h.245c.172 0 .2 0 .2.3v2.01h6.55v-.54c.53.3 1.4.5 2.4.54h2.757l.59-1.41h1.307l.578 1.4h5.312v-1.34l.803 1.34h4.258V7.61H47.25v1.044l-.59-1.046h-4.322v1.05l-.54-1.045h-5.84c-.978 0-1.837.136-2.532.5v-.5h-4.03v.517c-.44-.39-1.042-.514-1.71-.514H12.964L11.977 9.9l-1.014-2.286H6.326V8.66l-.51-1.046H1.862L.026 11.82v4.642zm53.95 4.68H51.21c-.274 0-.46.01-.614.113-.158.104-.22.255-.22.5 0 .2.1.4.3.473.16.1.3.1.6.07l.82.023c.83 0 1.4.2 1.7.5.062 0 .1.1.1.2m.08 2.307c-.37.54-1.09.812-2.06.812h-2.928v-1.36h2.916c.29 0 .492-.04.613-.16.105-.1.18-.24.18-.415 0-.185-.074-.332-.186-.42-.1-.097-.27-.14-.53-.14-1.42-.05-3.2.043-3.2-1.965 0-.92.59-1.89 2.18-1.89h3.02v-1.27h-2.81c-.85 0-1.46.2-1.9.52v-.52h-4.15c-.66 0-1.44.163-1.81.52v-.52H35.9v.52c-.593-.43-1.587-.52-2.048-.52h-4.888v.52c-.467-.455-1.504-.52-2.137-.52h-5.472L20.1 19.88l-1.172-1.353h-8.173v8.854h8.02l1.29-1.37 1.215 1.38 4.943.006V25.31h.486c.65 0 1.43-.016 2.11-.31v2.39h4.07v-2.31h.195c.25 0 .3 0 .3.26v2.047h12.39c.787 0 1.607-.2 2.064-.566v.57h3.93c.816 0 1.613-.113 2.223-.407v-1.65h-.025zm-6.05-2.535c.295.3.5.7.5 1.34 0 1.365-.854 2.003-2.38 2.003H43.09v-1.36h2.94c.29 0 .493-.04.62-.157.105-.1.18-.242.18-.415 0-.183-.08-.33-.184-.42-.117-.095-.277-.14-.54-.14-1.42-.05-3.194.045-3.194-1.963 0-.92.578-1.89 2.168-1.89h3.04v1.35h-2.782c-.275 0-.455.012-.607.115-.16.108-.22.26-.22.46s.1.4.3.5c.16.1.3.1.6.07l.818.024c.798-.006 1.38.094 1.68.483zm-13.684-.39c-.203.12-.453.13-.748.13h-1.842V21.1h1.867c.27 0 .5 0 .7.114.19.1.3.3.3.6s-.08.48-.32.577zm.916.783c.338.1.6.3.7.534.215.3.2.6.3 1.156v1.26h-1.52v-.795c0-.38.034-.946-.247-1.24-.22-.23-.55-.28-1.11-.28h-1.62v2.315h-1.52v-6.34h3.5c.77 0 1.3 0 1.8.3.48.3.8.7.8 1.41 0 1-.63 1.5-1.03 1.687zm1.916-3.386h5.06v1.31h-3.55v1.153h3.465v1.297h-3.47v1.262l3.55.003v1.318h-5.06v-6.35zm-10.23 2.92h-1.96V21.1h1.978c.547 0 .9.2.9.778.027.52-.362.82-.962.84zm-3.47 2.84l-2.328-2.588 2.328-2.5v5.083zm-6.012-.75h-3.73v-1.26h3.33v-1.3h-3.33V21.1h3.803l1.658 1.85-1.73 1.86zm12.054-2.91c0 1.76-1.314 2.125-2.64 2.125h-1.892v2.13h-2.948l-1.866-2.1-1.94 2.103h-6.01V19.79h6.1l1.862 2.08 1.93-2.08h4.845c1.202.01 2.54.31 2.54 2.09z" fill="#fff"/></svg>