<svg xmlns="http://www.w3.org/2000/svg" width="54" height="35"><path fill="#00C0F4" d="M0 0h54v35H0z"/><path d="M4.89 12.48L3.85 9.95l-1.03 2.5m24.932-.978c-.21.126-.455.13-.75.13H25.16v-1.41h1.867c.264 0 .5 0 .7.116.197.1.3.3.3.56.037.232-.127.532-.227.604zm13.14 1.007l-1.048-2.53-1.043 2.53h2.093zm-24.495 2.736h-1.554l-.006-4.97-2.2 4.97h-1.33L9.1 10.242v4.974H6.02L5.435 13.8H2.28l-.59 1.416H.043l2.715-6.344H5.01l2.58 6.006V8.872h2.475l1.984 4.304 1.822-4.304h2.524v6.344zm6.196 0h-5.065V8.872h5.065v1.32h-3.55v1.144h3.465v1.3h-3.464v1.268h3.55v1.312zm7.143-4.616c0 1.012-.676 1.534-1.07 1.69.332.1.6.3.8.535.215.3.3.6.3 1.163v1.247h-1.53l-.005-.8c0-.382.038-.93-.24-1.236-.22-.225-.558-.272-1.104-.272H25.16v2.308h-1.516V8.872h3.487c.776 0 1.3 0 1.8.304.517.324.77.724.77 1.404zm2.426 4.616h-1.55V8.872h1.55v6.344zm17.95 0h-2.15l-2.874-4.762v4.762H42l-.59-1.415h-3.15l-.572 1.416h-1.773c-.738 0-1.67-.163-2.2-.702-.532-.538-.81-1.27-.81-2.42 0-.942.166-1.803.818-2.482.488-.506 1.258-.74 2.303-.74h1.467v1.36h-1.438c-.553 0-.865.082-1.166.375-.26.268-.437.772-.437 1.438 0 .7.1 1.2.4 1.5.234.3.7.3 1.1.327h.682l2.137-4.99h2.27l2.57 6v-6h2.308l2.666 4.42V8.87h1.553v6.344h-.03zM.025 16.462h2.59l.585-1.41h1.31l.58 1.41h5.1v-1.077l.454 1.08h2.646l.455-1.097v1.094h12.668l-.005-2.313h.245c.172 0 .2 0 .2.305v2.008h6.55v-.54c.53.3 1.4.5 2.4.54h2.757l.59-1.41h1.307l.578 1.4h5.312v-1.338l.803 1.34h4.258v-8.84H47.25v1.044l-.59-1.046h-4.322V8.66l-.54-1.046h-5.84c-.978 0-1.837.136-2.532.5v-.5h-4.03v.517c-.44-.392-1.042-.516-1.71-.516H12.964L11.977 9.9l-1.014-2.286H6.326V8.66l-.51-1.046H1.862L.026 11.82v4.642zm53.95 4.68H51.21c-.274 0-.46.01-.614.113-.158.104-.22.255-.22.5 0 .2.1.4.3.473.16.1.3.1.6.072l.82.022c.83 0 1.4.2 1.7.5.062 0 .1.1.1.2m.08 2.302c-.37.54-1.09.812-2.06.812h-2.928v-1.36h2.916c.29 0 .492-.04.613-.158.105-.1.18-.24.18-.414 0-.185-.074-.332-.186-.42-.108-.097-.27-.14-.532-.14-1.424-.05-3.2.043-3.2-1.965 0-.92.583-1.89 2.175-1.89h3.02v-1.263h-2.805c-.848 0-1.463.202-1.898.52v-.52h-4.15c-.664 0-1.443.164-1.812.52v-.52h-7.41v.52c-.592-.428-1.586-.52-2.047-.52h-4.888v.52c-.467-.454-1.504-.52-2.137-.52h-5.472L20.1 19.88l-1.172-1.353h-8.173v8.854h8.02l1.29-1.376 1.215 1.377 4.943.005v-2.083h.486c.655 0 1.43-.015 2.11-.31v2.39h4.078v-2.31h.197c.25 0 .3 0 .3.262v2.047h12.387c.787 0 1.607-.2 2.064-.566v.567h3.928c.818 0 1.615-.113 2.225-.407v-1.65h-.025zm-6.05-2.535c.295.3.5.7.5 1.343 0 1.366-.854 2.004-2.38 2.004H43.09v-1.36h2.94c.29 0 .493-.04.62-.158.105-.1.18-.242.18-.415 0-.185-.08-.332-.184-.42-.117-.097-.277-.14-.54-.14-1.42-.05-3.194.043-3.194-1.965 0-.92.578-1.89 2.168-1.89h3.04v1.35h-2.782c-.275 0-.455.012-.607.115-.165.104-.228.256-.228.457 0 .2.1.4.3.5.16.1.3.1.6.072l.816.022c.798-.006 1.382.094 1.682.483zm-13.684-.39c-.203.12-.453.13-.748.13h-1.842v-1.425h1.867c.27 0 .5 0 .7.114.196.1.3.3.3.6s-.08.48-.32.577zm.916.787c.338.1.6.3.7.533.215.3.2.6.3 1.158v1.26h-1.52v-.796c0-.382.034-.946-.247-1.242-.22-.228-.558-.28-1.11-.28h-1.62v2.317h-1.524V19.79h3.5c.768 0 1.3 0 1.8.3.48.3.8.7.8 1.41-.004 1-.636 1.5-1.036 1.687zm1.916-3.387h5.06v1.312h-3.55v1.153h3.465v1.295h-3.466v1.263l3.55.005v1.318h-5.06V19.79zm-10.23 2.92h-1.96v-1.617h1.978c.547 0 .9.2.9.778.027.52-.362.82-.962.84zm-3.47 2.84l-2.328-2.586 2.328-2.502v5.087zm-6.012-.747h-3.73V23.55h3.33v-1.295h-3.33v-1.153h3.803l1.658 1.85-1.73 1.86zM29.416 21.9c0 1.763-1.314 2.126-2.64 2.126h-1.892v2.13h-2.948l-1.867-2.102-1.94 2.102h-6.007V19.79h6.1l1.864 2.08 1.93-2.08h4.845c1.202.01 2.538.31 2.538 2.09z" fill="#fff"/></svg>