<svg xmlns="http://www.w3.org/2000/svg" width="54" height="35"><path fill="#DCDBDB" d="M0 0h54v35H0z"/><path fill="#2E368F" d="M33.512 21.235c4.43 0 8.04-3.61 8.04-8.04 0-4.433-3.61-8.053-8.04-8.053H23.114c-4.44 0-8.052 3.62-8.052 8.052 0 4.43 3.61 8.04 8.052 8.04h10.398z"/><path fill="#fff" d="M23.114 5.403c4.286 0 7.79 3.495 7.79 7.79 0 4.287-3.504 7.79-7.79 7.79-4.297 0-7.79-3.503-7.79-7.79 0-4.295 3.493-7.79 7.79-7.79zm1.564 2.945v9.684c2.047-.657 3.523-2.588 3.523-4.837 0-2.26-1.475-4.18-3.522-4.847zm-3.022 9.72V8.31c-2.095.627-3.64 2.577-3.64 4.885 0 2.297 1.546 4.246 3.64 4.874z"/><path fill="#231F20" d="M16.646 23.91c.106 0 .193.04.27.115.067.077.106.164.106.28 0 .106-.04.203-.116.28-.067.076-.154.115-.26.115-.097 0-.184-.04-.26-.115-.08-.077-.108-.174-.108-.28 0-.116.03-.203.107-.28.067-.076.155-.115.26-.115zm.116 1.863L16 28.543c-.126.445.02.677.337.387.154-.135.29-.328.377-.482l.115.097c-.155.29-.618 1.023-1.17.994-.095 0-.183-.04-.24-.116-.058-.068-.077-.137-.097-.242-.01-.087 0-.31.058-.53l.465-1.767.106-.435c.05-.193-.038-.387-.212-.396l-.24.01.02-.164 1.177-.23c.067-.003.086.036.067.103zm1.91.02l-.442 1.62c.24-.51 1.303-1.87 1.998-1.698.443.116.27.898.184 1.188l-.453 1.68c-.147.54.095.52.21.425.165-.145.377-.512.445-.618l.105.078c-.135.348-.598 1.178-1.158 1.11-.087-.01-.145-.048-.203-.106-.05-.068-.088-.136-.088-.242 0-.125.048-.356.126-.676l.415-1.65c.077-.3.116-.646-.087-.666-.89.04-1.612 1.747-1.844 2.568l-.193.676h-.59l.704-2.578.107-.492c.058-.24-.135-.348-.328-.328l-.153.01.027-.154 1.158-.213.058.065zm5.755.184c.377-.05.772-.164 1.14-.262.067-.01.106.03.097.077l-.377 1.478c.154-.357.59-1.14 1.004-1.43.31-.212.647.02.56.426-.075.366-.54.676-.732.106-.617.598-1.1 1.998-1.255 2.587l-.126.52h-.55l.666-2.56c.087-.317.212-.83-.405-.78l-.02-.163zm4.673-.233l-.154 1.226h-.135c-.01-.415-.145-1.032-.685-1.032-.426 0-.513.453-.377.715l.23.376c.272.424.455.752.56.944.368.705-.134 1.603-.974 1.623-.31 0-.58-.106-.772-.174-.077-.03-.146.028-.202.153h-.136l.164-1.33h.136c.02.51.174 1.128.78 1.128.62-.116.62-.782.263-1.332l-.493-.772c-.26-.367-.25-.984.028-1.256.55-.53 1.024-.26 1.47-.115.065.01.153-.04.163-.155h.135zm6.564-1.9l-.29 1.65h-.154c-.028-.734-.058-1.45-1.09-1.46-.425-.01-.85.214-1.14.513-.754.782-1.158 1.863-1.158 2.926 0 .54.135.965.414 1.293.86 1.004 2.096.348 2.665-.54l.146.163c-.454.704-1.148 1.226-2.075 1.216-.395-.01-.752-.097-1.06-.29-.3-.192-.54-.453-.696-.8-.164-.35-.24-.715-.24-1.12 0-.61.174-1.188.463-1.768.473-.927 1.467-1.834 2.645-1.854.803-.01.898.223 1.14.25.106.01.212-.057.3-.182h.132zm1.863-.117l-1.207 4.798c-.213.84.328.53.666-.048l.116.125c-.396.695-1.023 1.16-1.342.87-.126-.117-.155-.358-.03-.85l.986-3.862c.125-.502.212-.83-.406-.792v-.154l1.11-.202c.088-.02.137.028.107.115zm3.312 2.055l-.64 2.588c-.086.367-.086.425-.086.52l.03.106c.173.26.49-.23.684-.52l.107.096c-.184.338-.444.685-.657.85-.154.125-.52.24-.676.058-.058-.058-.097-.174-.097-.27 0-.474.193-1.044.328-1.517l-.028-.01c-.33.608-1.08 1.902-1.815 1.892-.328-.01-.434-.327-.434-.56 0-.212.038-.425.145-.85l.31-1.273.097-.444c.03-.213-.048-.396-.444-.396l.01-.145c.3-.03.802-.126 1.033-.193.106-.02.184 0 .154.116l-.617 2.394c-.03.106-.223.812.076.86.366.048 1.157-.985 1.505-1.845.242-.59.387-1.19.464-1.46h.55zm2.316-2.094l-.696 2.78c.31-.357.705-.754 1.217-.754.27 0 .483.146.646.338.175.203.25.473.25.82 0 1.284-1.03 2.694-2.22 2.703-.685 0-1.158-.115-.984-.85l.926-3.92c.106-.472.175-.78-.366-.714v-.153c.434-.038.81-.23 1.11-.338.058 0 .145-.02.116.088zm-.696 5.696c.222-.01.377-.135.608-.31.6-.5 1.178-2.095.676-2.713-.115-.143-.24-.21-.387-.21-.607 0-.945.713-1.05 1.157l-.34 1.323c-.134.522-.144.734.493.754zm-31.732-5.33l.04-.153h1.592c.667 0 1.304.098 1.622.272s.59.434.77.802c.358.704.358 1.516.128 2.258-.474 1.496-1.854 2.25-3.35 2.25H9.424l.05-.155c.19-.01.317-.028.384-.058.097-.05.163-.116.212-.193.068-.116.145-.35.232-.695l.86-3.37c.065-.26.104-.473.104-.627 0-.106-.04-.184-.097-.24-.066-.06-.182-.088-.365-.088h-.077v-.002zm1.246.56l-.946 3.64c-.077.31-.106.502-.116.58-.04.154.116.25.242.28 2.413.598 3.784-2.926 2.605-4.52-.24-.337-.657-.463-1.18-.473-.385-.008-.51.11-.606.494zm9.846 3.167c-.26 1.835 1.023 1.633 1.767.705l.068.126c-.474.687-.928.966-1.45.966-.347 0-.636-.125-.81-.376-.184-.25-.24-.53-.24-.84 0-.405.105-.88.327-1.303.222-.435.492-.764.83-1.005.338-.23.676-.347 1.033-.347.638-.01.84.58.444 1.148-.53.677-1.178.832-1.97.928zm.02-.202c.356-.038.646-.125.868-.23.377-.194.695-.59.695-1.054 0-.752-.676-.26-.975.06-.27.298-.453.645-.588 1.224z"/></svg>