<svg xmlns="http://www.w3.org/2000/svg" width="54" height="35" viewBox="0 0 108 70" enable-background="new 0 0 108 70"><path fill="#DCDBDB" d="M0 0h108v70H0V0z"/><path fill="#2E368F" d="M67 42.5c8.9 0 16.1-7.2 16.1-16.1 0-8.9-7.2-16.1-16.1-16.1H46.2c-8.9 0-16.1 7.2-16.1 16.1 0 8.9 7.2 16.1 16.1 16.1H67z"/><path fill="#fff" d="M46.2 10.8c8.6 0 15.6 7 15.6 15.6S54.8 42 46.2 42s-15.6-7-15.6-15.6 7-15.6 15.6-15.6zm3.2 5.9v19.4c4.1-1.3 7-5.2 7-9.7 0-4.5-2.9-8.4-7-9.7zm-6.1 19.4V16.6c-4.2 1.3-7.3 5.2-7.3 9.8 0 4.6 3.1 8.5 7.3 9.7z"/><path fill="#231F20" d="M33.3 47.8c.2 0 .4.1.5.2.3.4.3.8 0 1.1-.7.8-1.7-.5-1-1.1.1-.1.3-.2.5-.2zm.2 3.7L32 57.1c-.2.9 0 1.4.7.8.3-.3.6-.7.8-1l.2.2c-.3.6-1.2 2-2.3 2-.2 0-.4-.1-.5-.2-.1-.1-.2-.3-.2-.5s0-.6.1-1.1c.4-1.5.8-2.9 1.1-4.4.1-.4-.1-.8-.4-.8H31v-.3l2.4-.5c.1 0 .2.1.1.2zm3.8.1l-.9 3.2c.5-1 2.6-3.7 4-3.4.9.2.5 1.8.4 2.4l-.9 3.4c-.3 1.1.2 1 .4.8.3-.3.8-1 .9-1.2l.2.2c-.3.7-1.2 2.4-2.3 2.2-.2 0-.3-.1-.4-.2-.4-.5-.1-1.3.1-1.8l.8-3.3c.2-.6.2-1.3-.2-1.3-1.8.1-3.2 3.5-3.7 5.1l-.3 1.3h-1.2l1.4-5.2.2-1c.1-.5-.3-.7-.7-.7h-.3l.1-.3 2.3-.4.1.2zm11.6.4c.8-.1 1.5-.3 2.3-.5.1 0 .2.1.2.2l-.8 3c.3-.7 1.2-2.3 2-2.9.6-.4 1.3 0 1.1.8-.2.7-1.1 1.4-1.5.2-1.2 1.2-2.2 4-2.5 5.2l-.3 1h-1.1l1.3-5.1c.2-.6.4-1.7-.8-1.6l.1-.3zm9.3-.5l-.3 2.5h-.3c0-.7-.2-1.7-1-2-.9-.3-1.6.5-1.2 1.4L57 56c.7 1.4-.3 3.2-1.9 3.2-.6 0-1.2-.2-1.5-.3-.2-.1-.3.1-.4.3h-.3l.3-2.7h.3c0 1 .3 2.3 1.6 2.3 1.2-.2 1.2-1.6.5-2.7l-1-1.5c-.5-.7-.5-2 .1-2.5 1.1-1.1 2-.5 2.9-.2.1 0 .3-.1.3-.3l.3-.1zm13.1-3.8l-.5 3.3h-.3c-.1-1.5-.1-2.9-2.2-2.9-.8 0-1.7.4-2.3 1-1.8 1.9-3.5 6.1-1.5 8.4 1.7 2 4.2.7 5.3-1.1l.3.3c-.9 1.4-2.3 2.5-4.2 2.4-.8 0-1.5-.2-2.1-.6-.6-.4-1.1-.9-1.4-1.6-.9-1.9-.4-4 .4-5.8.9-1.9 2.9-3.7 5.3-3.7 1.6 0 1.8.4 2.3.5.2 0 .4-.1.6-.4l.3.2zm3.8-.2l-2.4 9.6c-.4 1.7.7 1.1 1.3-.1l.2.2c-.8 1.4-2 2.3-2.7 1.7-.3-.2-.3-.7-.1-1.7l2-7.7c.2-1 .4-1.7-.8-1.6v-.3l2.2-.4c.2 0 .3.1.3.3zm6.6 4.1l-1.3 5.2c-.2.7-.2.8-.2 1l.1.2c.3.5 1-.5 1.4-1l.2.2c-.4.7-.9 1.4-1.3 1.7-.3.2-1 .5-1.4.1-.7-.7.2-2.8.5-3.6h-.1c-.7 1.2-2.2 3.8-3.6 3.8s-.8-2.1-.6-2.8c.3-1.1.6-2.3.8-3.4.1-.4-.1-.8-.9-.8v-.3c.6-.1 1.6-.3 2.1-.4.2 0 .4 0 .3.2l-1.2 4.8c-.1.2-.4 1.6.2 1.7.7.1 2.3-2 3-3.7.5-1.2.8-2.4.9-2.9h1.1zm4.6-4.2L84.9 53c.9-1.1 2.5-2.3 3.7-.8 2 2.4-1.2 7-3.9 7-1.4 0-2.3-.2-2-1.7l1.9-7.8c.2-.9.3-1.6-.7-1.4V48c.9-.1 1.6-.5 2.2-.7.1-.1.3-.1.2.1zm-1.4 11.4c.4 0 .8-.3 1.2-.6 1.2-1 2.4-4.2 1.4-5.4-1.2-1.5-2.6.9-2.9 1.9l-.7 2.6c-.2 1-.3 1.4 1 1.5.5-.1-1.3-.1 0 0zM21.5 48.1l.1-.3h3.2c1.9 0 3.9.3 4.8 2.1.7 1.4.7 3 .3 4.5-.9 3-3.7 4.5-6.7 4.5H19l.1-.3c.4 0 .6-.1.8-.1.2-.1.3-.2.4-.4.1-.2.3-.7.5-1.4l1.7-6.7c.1-.4.4-1.3 0-1.7-.1-.1-.4-.2-.7-.2h-.3zm2.4 1.1L22 56.5c-.2.6-.2 1-.2 1.2-.1.3.2.5.5.6 4.8 1.2 7.6-5.9 5.2-9-.5-.7-1.3-.9-2.4-.9-.7-.2-1 .1-1.2.8zM47.2 57l.1.3c-.9 1.3-3.2 3.1-4.5 1.2-.9-1.2-.5-3.1.2-4.3.4-.9 1-1.5 1.7-2s1.4-.7 2.1-.7c1.3 0 1.7 1.2.9 2.3-1.1 1.4-2.4 1.7-3.9 1.9-.7 3.5 1.9 3.1 3.4 1.3zm-1.8-2.3c2-1 1.5-4.2-.6-2-.5.6-.9 1.3-1.2 2.4.8 0 1.4-.2 1.8-.4z"/></svg>