<svg xmlns="http://www.w3.org/2000/svg" width="54" height="35"><path fill="#DCDBDB" d="M0 0h54v35H0z"/><path fill="#2E368F" d="M33.512 21.235c4.43 0 8.04-3.61 8.04-8.04 0-4.433-3.61-8.053-8.04-8.053H23.114c-4.44 0-8.052 3.62-8.052 8.052 0 4.43 3.61 8.04 8.052 8.04h10.398z"/><path fill="#fff" d="M23.114 5.403c4.286 0 7.79 3.495 7.79 7.79 0 4.287-3.504 7.79-7.79 7.79-4.297 0-7.79-3.503-7.79-7.79 0-4.295 3.493-7.79 7.79-7.79zm1.564 2.945v9.684c2.047-.657 3.523-2.588 3.523-4.837 0-2.26-1.472-4.18-3.52-4.847zm-3.022 9.72V8.31c-2.095.627-3.64 2.577-3.64 4.885 0 2.297 1.546 4.246 3.64 4.874z"/><path fill="#231F20" d="M16.646 23.91c.106 0 .193.04.27.115.067.077.106.164.106.28 0 .106-.04.203-.116.28-.067.076-.154.115-.26.115-.097 0-.184-.04-.26-.115-.08-.077-.108-.174-.108-.28 0-.116.03-.203.107-.28.067-.076.155-.115.26-.115zm.116 1.863L16 28.543c-.126.445.02.677.337.387.154-.135.29-.328.377-.482l.115.097c-.158.29-.62 1.023-1.17.994-.098 0-.186-.04-.24-.12-.06-.067-.08-.136-.1-.24-.01-.087 0-.31.06-.53l.463-1.767.106-.435c.05-.195-.038-.39-.21-.398l-.24.01.02-.164 1.175-.23c.067-.004.086.035.067.102zm1.91.02l-.442 1.62c.24-.51 1.303-1.87 1.998-1.698.443.116.27.898.184 1.188l-.453 1.68c-.15.54.092.52.21.425.162-.145.374-.512.442-.618l.105.078c-.136.348-.6 1.178-1.16 1.11-.086-.01-.144-.048-.202-.106-.05-.068-.088-.136-.088-.242 0-.125.048-.356.126-.676l.415-1.65c.077-.3.116-.646-.087-.666-.89.04-1.61 1.747-1.843 2.568l-.194.676h-.59l.704-2.578.108-.492c.058-.24-.135-.348-.328-.328l-.153.01.027-.154 1.16-.213.057.065zm5.755.184c.377-.05.772-.164 1.14-.262.067-.01.106.03.097.077l-.377 1.478c.154-.357.59-1.14 1.004-1.43.31-.212.65.02.56.426-.072.366-.54.676-.73.106-.616.598-1.1 1.998-1.254 2.587l-.126.52h-.55l.665-2.56c.087-.32.212-.83-.405-.78l-.02-.166zm4.673-.233l-.154 1.226h-.135c-.01-.415-.142-1.032-.682-1.032-.426 0-.513.453-.377.715l.23.376c.27.42.455.75.56.94.368.706-.134 1.604-.974 1.624-.31 0-.58-.106-.772-.174-.077-.03-.146.03-.202.154h-.134l.164-1.33h.135c.02.51.174 1.128.78 1.128.62-.116.62-.782.263-1.332l-.493-.77c-.26-.368-.25-.985.028-1.257.55-.53 1.024-.26 1.47-.115.065.01.153-.04.163-.155h.135zm6.564-1.9l-.29 1.65h-.154c-.028-.734-.058-1.45-1.09-1.46-.425-.01-.85.214-1.14.513-.754.782-1.158 1.863-1.158 2.926 0 .54.135.965.414 1.293.86 1.004 2.096.348 2.665-.54l.15.163c-.455.7-1.15 1.223-2.076 1.213-.395-.01-.752-.097-1.06-.29-.3-.192-.54-.453-.696-.8-.164-.35-.24-.715-.24-1.12 0-.61.174-1.188.463-1.768.473-.927 1.467-1.834 2.645-1.854.803-.01.898.224 1.14.25.106.01.212-.056.3-.18h.132zm1.863-.117l-1.207 4.798c-.213.84.328.53.666-.048l.116.125c-.396.695-1.023 1.16-1.342.87-.126-.117-.155-.358-.03-.85l.986-3.862c.125-.502.212-.83-.406-.792v-.154l1.11-.202c.088-.02.137.028.107.115zm3.312 2.055l-.64 2.588c-.09.367-.09.425-.09.52l.03.106c.174.26.49-.23.685-.52l.107.096c-.184.338-.444.685-.657.85-.154.125-.52.24-.676.058-.058-.058-.097-.174-.097-.27 0-.474.193-1.044.328-1.517l-.027-.01c-.33.608-1.08 1.902-1.815 1.892-.33-.01-.436-.327-.436-.56 0-.212.038-.425.145-.85l.31-1.273.096-.444c.03-.213-.048-.396-.444-.396l.01-.145c.3-.03.8-.126 1.032-.193.106-.02.184 0 .154.116l-.618 2.394c-.03.106-.223.812.076.86.365.048 1.156-.985 1.504-1.845.242-.59.387-1.19.464-1.46h.55zm2.313-2.094l-.696 2.78c.31-.357.704-.754 1.216-.754.27 0 .483.146.646.338.174.203.25.473.25.82 0 1.284-1.03 2.694-2.22 2.703-.686 0-1.16-.115-.985-.85l.926-3.92c.107-.472.176-.78-.365-.714v-.15c.434-.04.81-.23 1.11-.34.058 0 .145-.02.116.09zm-.696 5.696c.22-.01.376-.135.607-.31.6-.5 1.178-2.095.676-2.713-.114-.14-.24-.21-.386-.21-.607 0-.945.716-1.05 1.16l-.34 1.323c-.134.523-.144.735.493.755zm-31.733-5.33l.04-.153h1.592c.666 0 1.303.1 1.62.275s.59.434.77.802c.36.704.36 1.516.13 2.258-.475 1.496-1.855 2.25-3.35 2.25H9.423l.05-.155c.19-.01.317-.03.384-.06.097-.05.163-.115.212-.192.066-.116.143-.35.23-.695l.86-3.37c.065-.26.104-.473.104-.627 0-.106-.04-.184-.097-.24-.067-.06-.183-.088-.366-.088h-.076v-.002zm1.246.56l-.945 3.64c-.077.31-.106.502-.116.58-.04.154.115.25.24.28 2.414.598 3.785-2.926 2.606-4.52-.24-.337-.657-.463-1.18-.473-.385-.005-.51.11-.606.497zm9.847 3.167c-.26 1.838 1.022 1.636 1.766.708l.068.126c-.472.687-.926.966-1.45.966-.345 0-.634-.126-.81-.377-.182-.25-.24-.53-.24-.84 0-.405.107-.88.33-1.303.222-.436.492-.765.83-1.006.34-.23.676-.347 1.033-.347.638-.01.84.58.444 1.148-.53.677-1.178.832-1.97.928zm.02-.2c.355-.04.645-.124.867-.23.377-.193.695-.59.695-1.053 0-.752-.678-.26-.977.06-.27.298-.453.645-.588 1.224z"/></svg>