<svg xmlns="http://www.w3.org/2000/svg" width="54" height="35"><path fill="#DCDBDB" d="M0 0h54v35h-54z"/><path fill="#2E368F" d="M33.512 21.235c4.431 0 8.041-3.61 8.041-8.041 0-4.432-3.61-8.052-8.041-8.052h-10.398c-4.441 0-8.052 3.62-8.052 8.052 0 4.431 3.61 8.041 8.052 8.041h10.398z"/><path fill="#fff" d="M23.114 5.403c4.286 0 7.79 3.495 7.79 7.791 0 4.286-3.504 7.79-7.79 7.79-4.297 0-7.791-3.504-7.791-7.79 0-4.296 3.494-7.791 7.791-7.791zm1.564 2.945v9.684c2.047-.657 3.523-2.588 3.523-4.837 0-2.259-1.476-4.18-3.523-4.847zm-3.022 9.721v-9.759c-2.095.627-3.64 2.577-3.64 4.885.001 2.297 1.546 4.246 3.64 4.874z"/><path fill="#231F20" d="M16.646 23.91c.106 0 .193.039.271.115.066.077.105.164.105.28 0 .106-.039.203-.116.28-.067.076-.154.115-.261.115-.096 0-.183-.039-.26-.115-.078-.077-.107-.174-.107-.28 0-.116.029-.203.107-.28.067-.076.155-.115.261-.115zm.116 1.863l-.763 2.771c-.125.444.02.676.338.386.154-.135.29-.328.377-.482l.115.097c-.154.289-.617 1.023-1.168.994-.096 0-.184-.039-.241-.115-.058-.068-.077-.137-.097-.242-.01-.087 0-.309.058-.531l.464-1.766.106-.435c.048-.193-.039-.387-.213-.396l-.241.01.02-.164 1.178-.231c.067-.002.086.037.067.104zm1.911.019l-.443 1.622c.241-.512 1.303-1.872 1.998-1.699.443.116.271.898.184 1.188l-.453 1.68c-.146.541.096.521.211.425.165-.145.377-.512.445-.618l.105.078c-.135.348-.598 1.178-1.158 1.109-.087-.009-.145-.047-.203-.105-.048-.068-.087-.136-.087-.242 0-.125.048-.356.126-.676l.415-1.65c.077-.299.116-.646-.087-.666-.889.039-1.612 1.747-1.844 2.568l-.193.676h-.589l.704-2.578.107-.492c.057-.241-.136-.348-.329-.328l-.153.01.028-.154 1.158-.213.058.065zm5.754.185c.377-.049.772-.164 1.14-.262.067-.009.106.029.097.077l-.377 1.478c.154-.357.589-1.14 1.004-1.429.31-.213.646.02.56.425-.076.366-.54.676-.733.106-.617.598-1.101 1.998-1.255 2.587l-.126.521h-.55l.666-2.559c.087-.318.212-.83-.405-.782l-.021-.162zm4.673-.233l-.154 1.226h-.135c-.01-.415-.146-1.032-.686-1.032-.426 0-.513.453-.377.715l.231.376c.271.425.454.753.56.945.367.705-.135 1.603-.975 1.623-.309 0-.58-.106-.772-.174-.077-.029-.146.028-.202.153h-.136l.164-1.331h.136c.02.511.174 1.129.781 1.129.618-.116.618-.782.262-1.332l-.493-.772c-.261-.367-.251-.984.028-1.256.551-.53 1.024-.26 1.469-.115.066.01.154-.038.164-.154h.135zm6.564-1.901l-.289 1.65h-.155c-.028-.733-.058-1.448-1.091-1.458-.424-.01-.85.213-1.139.512-.754.782-1.158 1.863-1.158 2.926 0 .54.135.965.414 1.293.859 1.004 2.096.348 2.665-.541l.145.164c-.454.705-1.148 1.227-2.075 1.217-.396-.009-.753-.097-1.062-.289-.299-.193-.54-.454-.695-.802-.164-.348-.24-.714-.24-1.119 0-.609.174-1.188.463-1.768.473-.927 1.467-1.834 2.645-1.854.803-.01.898.223 1.141.251.105.01.211-.058.299-.183h.132zm1.863-.116l-1.207 4.798c-.213.84.328.531.666-.048l.116.125c-.396.695-1.023 1.159-1.342.869-.126-.116-.155-.357-.029-.85l.985-3.861c.125-.502.212-.831-.406-.792v-.154l1.11-.202c.088-.021.137.028.107.115zm3.312 2.055l-.638 2.588c-.087.367-.087.425-.087.521l.029.105c.174.261.492-.231.685-.521l.107.097c-.184.338-.444.685-.657.85-.154.125-.521.241-.676.058-.058-.058-.097-.174-.097-.271 0-.473.193-1.043.328-1.516l-.028-.01c-.329.608-1.081 1.902-1.815 1.892-.328-.009-.434-.327-.434-.56 0-.212.038-.425.145-.85l.309-1.273.097-.444c.029-.213-.048-.396-.444-.396l.01-.145c.299-.029.802-.126 1.033-.193.106-.019.184 0 .154.116l-.617 2.394c-.029.106-.223.812.076.86.367.048 1.158-.985 1.506-1.845.242-.588.387-1.188.464-1.458h.55zm2.317-2.094l-.696 2.779c.31-.356.705-.753 1.217-.753.271 0 .483.146.646.338.175.203.251.473.251.821 0 1.283-1.032 2.693-2.22 2.702-.686 0-1.159-.115-.985-.85l.927-3.919c.106-.473.175-.782-.366-.715v-.154c.434-.038.811-.231 1.109-.338.059.002.146-.018.117.089zm-.696 5.696c.222-.01.377-.135.608-.309.599-.502 1.178-2.096.676-2.714-.115-.144-.241-.212-.387-.212-.607 0-.945.714-1.051 1.158l-.338 1.323c-.135.522-.145.734.492.754zm-31.732-5.329l.039-.154h1.593c.667 0 1.304.097 1.622.271s.589.434.771.802c.357.704.357 1.516.127 2.258-.474 1.496-1.854 2.25-3.351 2.25h-2.104l.049-.155c.192-.009.318-.028.385-.058.098-.048.164-.115.213-.192.068-.116.145-.349.232-.695l.859-3.37c.066-.26.105-.473.105-.627 0-.106-.039-.184-.097-.241-.067-.059-.183-.087-.366-.087h-.077v-.002zm1.246.559l-.946 3.64c-.077.309-.106.502-.116.579-.039.155.116.252.242.28 2.413.599 3.784-2.925 2.605-4.519-.24-.337-.656-.463-1.178-.473-.386-.009-.512.108-.607.493zm9.846 3.167c-.261 1.834 1.023 1.632 1.767.704l.068.126c-.474.686-.928.965-1.449.965-.348 0-.637-.125-.811-.376-.184-.251-.241-.531-.241-.84 0-.405.106-.879.328-1.303.222-.435.492-.764.83-1.005.338-.231.676-.347 1.033-.347.638-.01.84.579.444 1.148-.53.677-1.177.832-1.969.928zm.02-.203c.356-.038.646-.125.868-.231.377-.193.695-.589.695-1.053 0-.752-.676-.26-.975.059-.27.299-.453.646-.588 1.225z"/></svg>