<svg xmlns="http://www.w3.org/2000/svg" width="54" height="35"><path fill="#DCDBDB" d="M0 0h54v35H0z"/><path fill="#2E368F" d="M33.512 21.235c4.43 0 8.04-3.61 8.04-8.04 0-4.433-3.61-8.053-8.04-8.053H23.114c-4.44 0-8.052 3.62-8.052 8.052 0 4.43 3.61 8.04 8.052 8.04h10.398z"/><path fill="#fff" d="M23.114 5.403c4.286 0 7.79 3.495 7.79 7.79 0 4.287-3.504 7.79-7.79 7.79-4.297 0-7.79-3.503-7.79-7.79 0-4.295 3.493-7.79 7.79-7.79zm1.564 2.945v9.684c2.047-.657 3.523-2.588 3.523-4.837 0-2.26-1.47-4.18-3.52-4.847zm-3.022 9.72V8.31c-2.095.627-3.64 2.577-3.64 4.885 0 2.297 1.546 4.246 3.64 4.874z"/><path fill="#231F20" d="M16.646 23.91c.106 0 .193.04.27.115.067.077.106.164.106.28 0 .106-.04.203-.116.28-.067.076-.154.115-.26.115-.097 0-.184-.04-.26-.115-.08-.077-.108-.174-.108-.28 0-.116.03-.203.107-.28.067-.076.155-.115.26-.115zm.116 1.863L16 28.543c-.126.445.02.677.337.387.154-.135.29-.328.377-.482l.115.097c-.16.29-.62 1.023-1.17.994-.1 0-.19-.04-.24-.12-.06-.07-.08-.14-.1-.24-.01-.09 0-.31.06-.53l.46-1.77.1-.44c.05-.196-.038-.39-.21-.4l-.24.01.02-.164 1.175-.23c.067-.004.086.035.067.102zm1.91.02l-.442 1.62c.24-.51 1.303-1.87 1.998-1.698.443.116.27.898.184 1.188l-.453 1.68c-.15.54.09.52.21.425.16-.145.37-.512.44-.618l.1.078c-.138.348-.6 1.178-1.16 1.11-.088-.01-.146-.048-.2-.106-.05-.068-.09-.136-.09-.242 0-.125.05-.356.125-.676l.414-1.65c.077-.3.116-.646-.087-.666-.89.04-1.61 1.747-1.845 2.568l-.196.676h-.59l.704-2.578.107-.492c.058-.24-.135-.348-.328-.328l-.154.01.028-.154 1.16-.213.057.065zm5.755.184c.377-.05.772-.164 1.14-.262.067-.01.106.03.097.077l-.377 1.478c.154-.357.59-1.14 1.004-1.43.31-.212.65.02.56.426-.07.366-.54.676-.73.106-.61.598-1.1 1.998-1.25 2.587l-.12.52h-.55l.665-2.56c.087-.32.21-.83-.405-.78l-.02-.17zm4.673-.233l-.154 1.226h-.135c-.01-.415-.14-1.032-.68-1.032-.42 0-.51.453-.37.715l.23.376c.27.42.455.75.56.94.368.7-.134 1.6-.974 1.62-.31 0-.58-.11-.772-.18-.076-.03-.145.03-.2.154h-.135l.165-1.33h.136c.02.51.174 1.13.78 1.13.62-.117.62-.78.263-1.33l-.494-.77c-.26-.37-.25-.988.025-1.26.55-.53 1.024-.26 1.47-.115.065.01.153-.04.163-.155h.133zm6.564-1.9l-.29 1.65h-.154c-.028-.734-.058-1.45-1.09-1.46-.425-.01-.85.214-1.14.513-.754.782-1.158 1.863-1.158 2.926 0 .54.135.965.414 1.293.86 1.004 2.096.348 2.665-.54l.15.163c-.45.7-1.15 1.22-2.07 1.21-.392-.01-.75-.1-1.06-.29-.3-.19-.54-.46-.693-.8-.164-.35-.24-.72-.24-1.12 0-.61.174-1.19.463-1.77.472-.93 1.466-1.838 2.644-1.858.804-.01.9.223 1.14.25.107.01.213-.057.3-.18h.133zm1.863-.117l-1.207 4.798c-.213.84.328.53.666-.048l.116.125c-.396.695-1.023 1.16-1.342.87-.126-.117-.155-.358-.03-.85l.986-3.862c.125-.502.212-.83-.406-.792v-.154l1.11-.202c.088-.02.137.028.107.115zm3.312 2.055l-.64 2.588c-.09.367-.09.425-.09.52l.03.106c.17.26.49-.23.68-.52l.103.096c-.184.338-.444.685-.657.85-.154.125-.52.24-.676.058-.057-.058-.096-.174-.096-.27 0-.474.195-1.044.33-1.517l-.027-.01c-.33.608-1.08 1.902-1.813 1.892-.33-.01-.436-.327-.436-.56 0-.212.04-.425.147-.85l.31-1.273.096-.444c.03-.213-.046-.396-.442-.396l.01-.145c.3-.03.8-.126 1.03-.193.106-.02.184 0 .154.116l-.617 2.394c-.03.106-.223.812.076.86.365.048 1.156-.985 1.504-1.845.242-.59.387-1.19.464-1.46h.55zm2.31-2.094l-.7 2.78c.31-.357.702-.754 1.214-.754.27 0 .483.146.646.338.175.203.25.473.25.82 0 1.284-1.03 2.694-2.22 2.703-.685 0-1.16-.115-.984-.85l.926-3.92c.106-.472.175-.78-.366-.714v-.15c.435-.04.81-.23 1.11-.34.06 0 .146-.02.117.09zm-.7 5.696c.22-.01.374-.135.605-.31.6-.5 1.18-2.095.676-2.713-.114-.14-.24-.21-.386-.21-.607 0-.945.72-1.05 1.16l-.34 1.33c-.134.525-.144.737.493.757zm-31.735-5.33l.04-.153h1.592c.665 0 1.302.1 1.62.28s.59.438.77.8c.36.71.36 1.52.13 2.26-.476 1.5-1.856 2.25-3.35 2.25h-2.1l.05-.152c.19-.01.315-.03.382-.06.096-.05.162-.114.21-.19.065-.117.14-.35.23-.696l.86-3.37c.064-.26.103-.473.103-.627 0-.107-.04-.185-.098-.24-.068-.06-.184-.09-.367-.09h-.077v-.002zm1.246.56l-.945 3.64c-.075.31-.104.502-.114.58-.04.154.116.25.24.28 2.415.598 3.786-2.926 2.607-4.52-.24-.337-.657-.463-1.18-.473-.385 0-.51.11-.606.5zm9.847 3.167c-.26 1.84 1.02 1.64 1.765.71l.066.13c-.47.69-.926.97-1.45.97-.345 0-.634-.126-.81-.377-.18-.25-.24-.53-.24-.84 0-.405.107-.88.33-1.303.222-.436.492-.765.83-1.006.34-.23.676-.346 1.033-.346.64-.01.84.58.445 1.15-.53.676-1.178.83-1.97.927zm.02-.2c.354-.04.644-.12.866-.23.377-.19.695-.59.695-1.05 0-.75-.678-.26-.977.06-.27.3-.454.65-.59 1.23z"/></svg>