<svg xmlns="http://www.w3.org/2000/svg" width="54" height="35"><path fill="#EAEAEA" d="M0 0h54v35h-54z"/><linearGradient id="a" gradientUnits="userSpaceOnUse" x1="29.98" y1="35.752" x2="29.98" y2="18.666"><stop offset="0" stop-color="#F26722"/><stop offset="1" stop-color="#EC8023"/></linearGradient><path fill="url(#a)" d="M54 35v-15.699c-5.43 4.949-20.021 14.562-48.04 15.699h48.04z"/><linearGradient id="b" gradientUnits="userSpaceOnUse" x1="25.003" y1="17.5" x2="32.143" y2="17.5"><stop offset="0" stop-color="#F26722"/><stop offset="1" stop-color="#EC8023"/></linearGradient><ellipse fill="url(#b)" cx="28.573" cy="17.5" rx="3.57" ry="3.707"/><path fill="#0B1720" d="M9.347 19.275c-.421.392-.963.561-1.824.561h-.359v-4.653h.358c.861 0 1.383.158 1.824.569.461.422.736 1.075.736 1.751s-.274 1.351-.735 1.772zm-1.558-5.284h-1.958v7.036h1.947c1.035 0 1.782-.252 2.438-.812.778-.664 1.239-1.667 1.239-2.702.001-2.078-1.505-3.522-3.666-3.522m4.282 7.036h1.332v-7.036h-1.332v7.036m4.591-4.337c-.8-.306-1.036-.508-1.036-.886 0-.443.42-.78.994-.78.4 0 .728.168 1.077.568l.695-.938c-.573-.519-1.26-.781-2.009-.781-1.207 0-2.13.865-2.13 2.014 0 .972.43 1.467 1.681 1.933.522.188.788.315.922.401.266.18.4.432.4.727 0 .57-.441.992-1.037.992-.635 0-1.146-.327-1.454-.938l-.859.855c.613.927 1.351 1.34 2.366 1.34 1.383 0 2.355-.951 2.355-2.312.001-1.118-.448-1.624-1.965-2.195m2.386.823c0 2.069 1.578 3.673 3.607 3.673.574 0 1.066-.116 1.671-.41v-1.616c-.534.549-1.005.77-1.609.77-1.343 0-2.296-1.002-2.296-2.427 0-1.35.983-2.416 2.234-2.416.635 0 1.117.232 1.671.791v-1.615c-.584-.305-1.066-.431-1.64-.431-2.019 0-3.638 1.636-3.638 3.681m16.076 1.205l-1.823-4.727h-1.455l2.9 7.216h.717l2.951-7.216h-1.445l-1.845 4.727m3.896 2.309h3.779v-1.191h-2.447v-1.9h2.353v-1.192h-2.353v-1.561h2.447v-1.192h-3.779v7.036m6.38-3.798h-.388v-2.133h.409c.832 0 1.282.36 1.282 1.045.001.708-.449 1.088-1.303 1.088zm2.674-1.162c0-1.318-.879-2.076-2.418-2.076h-1.976v7.036h1.333v-2.828h.175l1.843 2.828h1.64l-2.153-2.964c1.004-.211 1.556-.918 1.556-1.996"/></svg>