<svg xmlns="http://www.w3.org/2000/svg" width="54" height="35"><path fill="#EAEAEA" d="M0 0h54v35H0z"/><linearGradient id="a" gradientUnits="userSpaceOnUse" x1="29.98" y1="35.752" x2="29.98" y2="18.666"><stop offset="0" stop-color="#F26722"/><stop offset="1" stop-color="#EC8023"/></linearGradient><path fill="url(#a)" d="M54 35V19.3C48.57 24.25 33.98 33.864 5.96 35H54z"/><linearGradient id="b" gradientUnits="userSpaceOnUse" x1="25.003" y1="17.5" x2="32.143" y2="17.5"><stop offset="0" stop-color="#F26722"/><stop offset="1" stop-color="#EC8023"/></linearGradient><ellipse fill="url(#b)" cx="28.573" cy="17.5" rx="3.57" ry="3.707"/><path fill="#0B1720" d="M9.347 19.275c-.42.392-.963.56-1.824.56h-.36v-4.652h.36c.86 0 1.382.158 1.823.57.46.42.736 1.074.736 1.75s-.274 1.35-.735 1.772zM7.79 13.99H5.83v7.037H7.78c1.035 0 1.782-.252 2.438-.812.778-.664 1.24-1.667 1.24-2.702 0-2.078-1.506-3.522-3.667-3.522m4.28 7.037h1.333V13.99H12.07v7.037m4.592-4.337c-.8-.306-1.036-.508-1.036-.886 0-.443.42-.78.994-.78.4 0 .728.168 1.077.568l.695-.938c-.573-.52-1.26-.78-2.01-.78-1.206 0-2.13.864-2.13 2.013 0 .972.43 1.467 1.682 1.933.522.188.788.315.922.4.266.18.4.433.4.728 0 .57-.44.992-1.037.992-.636 0-1.147-.327-1.455-.938l-.86.855c.614.927 1.352 1.34 2.367 1.34 1.383 0 2.355-.95 2.355-2.312 0-1.118-.448-1.624-1.965-2.195m2.386.823c0 2.07 1.578 3.673 3.607 3.673.574 0 1.066-.116 1.67-.41V19.16c-.533.55-1.004.77-1.608.77-1.343 0-2.296-1.002-2.296-2.427 0-1.35.984-2.416 2.235-2.416.635 0 1.117.232 1.67.79v-1.614c-.583-.305-1.065-.43-1.64-.43-2.018 0-3.637 1.635-3.637 3.68m16.076 1.205L33.3 13.99h-1.454l2.9 7.217h.717l2.95-7.216H36.97l-1.846 4.728m3.896 2.31h3.78v-1.192H40.35v-1.9h2.353v-1.192h-2.353v-1.56H42.8V13.99h-3.78v7.037m6.38-3.798h-.388v-2.134h.41c.83 0 1.28.36 1.28 1.045.002.71-.448 1.09-1.302 1.09zm2.674-1.163c0-1.318-.88-2.076-2.418-2.076H43.68v7.037h1.333V18.2h.175l1.843 2.827h1.64l-2.152-2.964c1.004-.21 1.556-.918 1.556-1.996"/></svg>