<svg xmlns="http://www.w3.org/2000/svg" width="54" height="35"><path fill="#EAEAEA" d="M0 0h54v35H0z"/><linearGradient id="a" gradientUnits="userSpaceOnUse" x1="29.98" y1="35.752" x2="29.98" y2="18.666"><stop offset="0" stop-color="#F26722"/><stop offset="1" stop-color="#EC8023"/></linearGradient><path fill="url(#a)" d="M54 35V19.3C48.57 24.25 33.98 33.864 5.96 35H54z"/><linearGradient id="b" gradientUnits="userSpaceOnUse" x1="25.003" y1="17.5" x2="32.143" y2="17.5"><stop offset="0" stop-color="#F26722"/><stop offset="1" stop-color="#EC8023"/></linearGradient><ellipse fill="url(#b)" cx="28.573" cy="17.5" rx="3.57" ry="3.707"/><path fill="#0B1720" d="M9.347 19.275c-.42.392-.963.56-1.824.56h-.36v-4.652h.36c.86 0 1.382.158 1.823.57.46.42.736 1.074.736 1.75s-.274 1.35-.735 1.772zM7.79 13.99H5.83v7.037h1.95c1.035 0 1.782-.252 2.438-.812.778-.664 1.24-1.667 1.24-2.702 0-2.078-1.506-3.522-3.667-3.522m4.28 7.04h1.34v-7.04h-1.34v7.04m4.594-4.334c-.8-.305-1.036-.507-1.036-.885 0-.443.42-.78.994-.78.4 0 .73.168 1.078.568l.695-.938c-.573-.52-1.26-.78-2.01-.78-1.206 0-2.13.862-2.13 2.01 0 .974.43 1.47 1.682 1.935.522.19.788.316.922.4.265.18.4.434.4.73 0 .57-.44.99-1.038.99-.64 0-1.15-.326-1.46-.937l-.86.854c.613.928 1.35 1.34 2.366 1.34 1.383 0 2.355-.95 2.355-2.31 0-1.12-.446-1.625-1.963-2.196m2.388.824c0 2.07 1.578 3.673 3.607 3.673.575 0 1.067-.115 1.67-.41v-1.62c-.532.55-1.003.77-1.607.77-1.343 0-2.296-1.002-2.296-2.427 0-1.35.984-2.416 2.235-2.416.635 0 1.117.232 1.67.79v-1.614c-.583-.305-1.065-.43-1.64-.43-2.018 0-3.637 1.635-3.637 3.68m16.07 1.204l-1.82-4.73h-1.454l2.9 7.217h.717l2.95-7.216H36.97l-1.846 4.73m3.896 2.31h3.78v-1.19h-2.45v-1.9h2.353v-1.19H40.35v-1.56h2.45v-1.2h-3.78v7.04m6.38-3.8h-.388v-2.14h.41c.83 0 1.28.36 1.28 1.048.002.71-.448 1.09-1.302 1.09zm2.674-1.164c0-1.318-.88-2.076-2.418-2.076H43.68v7.035h1.333V18.2h.175l1.843 2.827h1.64l-2.15-2.964c1.01-.21 1.56-.918 1.56-1.996"/></svg>