<svg xmlns="http://www.w3.org/2000/svg" width="54" height="35" viewBox="0 0 54 35"><path fill="#EAEAEA" d="M0 0h54v35h-54v-35z"/><linearGradient id="a" gradientUnits="userSpaceOnUse" x1="227.481" y1="-320.752" x2="227.481" y2="-303.666" gradientTransform="matrix(1 0 0 -1 -197.5 -285)"><stop offset="0" stop-color="#F26722"/><stop offset="1" stop-color="#EC8023"/></linearGradient><path fill="url(#a)" d="M54 35v-15.7c-5.4 4.9-20 14.6-48 15.7h48z"/><linearGradient id="b" gradientUnits="userSpaceOnUse" x1="222.503" y1="-302.5" x2="229.643" y2="-302.5" gradientTransform="matrix(1 0 0 -1 -197.5 -285)"><stop offset="0" stop-color="#F26722"/><stop offset="1" stop-color="#EC8023"/></linearGradient><ellipse fill="url(#b)" cx="28.6" cy="17.5" rx="3.6" ry="3.7"/><path fill="#0B1720" d="M9.3 19.3c-.4.4-1 .6-1.8.6h-.3v-4.7h.4c.9 0 1.4.2 1.8.6.5.4.7 1.1.7 1.8 0 .6-.3 1.3-.8 1.7zm-1.5-5.3h-2v7h1.9c1 0 1.8-.3 2.4-.8.8-.7 1.2-1.7 1.2-2.7.2-2.1-1.3-3.5-3.5-3.5m4.3 7h1.3v-7h-1.3v7m4.6-4.3c-.8-.3-1-.5-1-.9s.4-.8 1-.8c.4 0 .7.2 1.1.6l.7-.9c-.6-.5-1.3-.8-2-.8-1.2 0-2.1.9-2.1 2 0 1 .4 1.5 1.7 1.9.5.2.8.3.9.4.3.2.4.4.4.7 0 .6-.4 1-1 1s-1.1-.3-1.5-.9l-.9.9c.6.9 1.4 1.3 2.4 1.3 1.4 0 2.4-1 2.4-2.3-.2-1.1-.6-1.6-2.1-2.2m2.3.8c0 2.1 1.6 3.7 3.6 3.7.6 0 1.1-.1 1.7-.4v-1.6c-.5.5-1 .8-1.6.8-1.3 0-2.3-1-2.3-2.4s1-2.4 2.2-2.4c.6 0 1.1.2 1.7.8v-1.6c-.6-.3-1.1-.4-1.6-.4-2-.2-3.7 1.5-3.7 3.5m16.1 1.2l-1.8-4.7h-1.5l2.9 7.2h.7l3-7.2h-1.4l-1.9 4.7m3.9 2.3h3.8v-1.2h-2.4v-1.9h2.4v-1.2h-2.4v-1.6h2.4v-1.1h-3.8v7m6.4-3.8h-.4v-2.1h.4c.8 0 1.3.4 1.3 1 0 .7-.4 1.1-1.3 1.1zm2.7-1.1c0-1.3-.9-2.1-2.4-2.1h-2v7h1.3v-2.8h.2l1.8 2.8h1.6l-2.2-3c1.1-.1 1.7-.9 1.7-1.9"/></svg>