<svg xmlns="http://www.w3.org/2000/svg" width="40" height="40" viewBox="0 0 40 40"><path d="M12.752 16.897l-.186-.102c-2.746-1.512-4.56-4.2-4.56-7.818 0-3.1 1.35-5.54 3.65-7.16C4.78 4.98 0 11.93 0 20c0 5.474 2.2 10.433 5.764 14.045l-.014-.294c0-3.56 3.48-4.88 6.57-5.52-2.94-.63-4.363-2.73-4.363-4.88 0-2.88 3.226-5.37 4.795-6.44zm7.222-1.857c1.964 0 3.65-.586 3.65-6.062 0-5.475-1.637-6.306-3.65-6.306-1.964 0-3.6.733-3.6 6.306s1.636 6.062 3.6 6.062zM40 20c0-8.242-4.985-15.318-12.104-18.38 2.38 1.55 3.826 3.93 3.937 6.978.038.234.06.46.06.673 0 5.97-4.854 9.14-11.918 9.14-1.816 0-3.043-.1-4.516-.53-.69.488-1.23 1.27-1.23 2.005 0 .98.88 1.763 1.96 1.763H26c6.08 0 9.07 2.49 9.07 7.863 0 1.79-.356 3.4-1.094 4.79C37.696 30.664 40 25.6 40 20zm-16.147 9.86H16.41c-2.5 0-3.24 1.848-3.24 3.218 0 1.98 1.783 3.806 6.98 3.806 5.91 0 7.515-1.664 7.515-3.83 0-1.888-1.423-3.194-3.812-3.194z" fill="#333"/></svg>