<svg xmlns="http://www.w3.org/2000/svg" width="40" height="40" viewBox="0 0 40 40"><path d="M12.752 16.897l-.186-.102c-2.746-1.512-4.559-4.2-4.559-7.818 0-3.101 1.35-5.541 3.65-7.16-6.879 3.162-11.657 10.114-11.657 18.182 0 5.475 2.2 10.434 5.764 14.046l-.014-.294c0-3.569 3.48-4.887 6.569-5.523v-.002c-2.94-.636-4.362-2.737-4.362-4.886.001-2.882 3.226-5.37 4.795-6.443zm7.222-1.857c1.964 0 3.649-.586 3.649-6.062 0-5.475-1.636-6.306-3.649-6.306-1.964 0-3.599.733-3.599 6.306s1.635 6.062 3.599 6.062zm20.026 4.959c0-8.241-4.985-15.317-12.104-18.38 2.381 1.552 3.826 3.931 3.937 6.979.038.234.06.46.06.673 0 5.964-4.854 9.134-11.918 9.134-1.816 0-3.043-.098-4.516-.537-.687.488-1.227 1.271-1.227 2.005 0 .979.883 1.763 1.963 1.763h9.816c6.08 0 9.07 2.49 9.07 7.862 0 1.793-.356 3.402-1.094 4.794 3.709-3.63 6.013-8.692 6.013-14.293zm-16.147 9.861h-7.443c-2.501 0-3.241 1.848-3.241 3.218 0 1.979 1.784 3.806 6.981 3.806 5.911 0 7.515-1.664 7.515-3.83-.001-1.888-1.423-3.194-3.812-3.194z" fill="#005689"/></svg>