<svg xmlns="http://www.w3.org/2000/svg" width="54" height="35"><path fill="#EAEAEA" d="M0 0h54v35h-54z"/><linearGradient id="a" gradientUnits="userSpaceOnUse" x1="-156.357" y1="-341.147" x2="-153.129" y2="-341.147" gradientTransform="matrix(2.835 0 0 2.835 476.228 984.702)"><stop offset="0" stop-color="#047C40"/><stop offset="1" stop-color="#57B347"/></linearGradient><path fill="url(#a)" d="M34.82 18l2.33.01c.39.11.69.33.78.74l.03.23-.03.23c-.09.39-.46.71-.86.73l-2.25.02v-1.96zm2.88-2.21l.02.21-.02.21c-.08.37-.35.57-.68.67l-2.19.02v-1.8l2.16.02c.28.05.71.33.71.67zm4.44-9.35h.01c-.01 0 .02 18.45.02 18.45-.02 1.39-.76 2.58-1.49 3.03-.55.34-1.14.64-1.78.72l-5.88.03v-7.55h5.85c1.16-.02 2.26-.74 2.25-1.88-.01-1.03-1.11-1.69-2.14-1.76v-.04c1.06-.16 1.98-1.08 1.6-2.23-.28-.85-1.21-1.18-2.03-1.21h-.03l-5.51-.01v-3.85c.08-1.64.86-2.6 1.79-3.16.51-.31 1.08-.49 1.67-.53l5.67-.01z"/><linearGradient id="b" gradientUnits="userSpaceOnUse" x1="-163.588" y1="-341.148" x2="-160.355" y2="-341.148" gradientTransform="matrix(2.835 0 0 2.835 476.228 984.702)"><stop offset="0" stop-color="#2A2F6F"/><stop offset="1" stop-color="#116EB7"/></linearGradient><path fill="url(#b)" d="M12.6 19.33l-.08-.04v-7.45c0-1.28-.13-2.62.61-3.74.99-1.51 2.34-1.67 3.8-1.67h4.72v14.96s.36 5.18-1.59 6.6c-.51.37-1.12.58-1.74.65l-5.79.02v-7.8c2.27.53 5.55.89 7.38-.41.55-.39.85-1 .94-1.66.04-1.58.04-3.23.04-4.79h-3.17v2.63c0 .69-.01 1.83-.06 2.18-.14.58-.56 1.01-1.12 1.2-.9.32-2.02.05-2.89-.25h-.04c-.33-.11-.65-.25-.96-.4l-.05-.03z"/><linearGradient id="c" gradientUnits="userSpaceOnUse" x1="-159.971" y1="-341.147" x2="-156.743" y2="-341.147" gradientTransform="matrix(2.835 0 0 2.835 476.228 984.702)"><stop offset="0" stop-color="#6F2C30"/><stop offset="1" stop-color="#E21D3B"/></linearGradient><path fill="url(#c)" d="M22.85 14.93l-.08.06v-3.47c.01-1.58 0-2.11.24-2.68.27-.72.77-1.34 1.41-1.77.52-.35 1.12-.59 1.75-.62 0 0 3.83-.01 5.72-.01l.01 18.45c-.1 2.83-2.43 3.69-3.34 3.76l-5.79.02v-8.55c.94.79 2.19 1.07 3.38 1.18l.05-.01c1.75.08 2.74-.03 4.03-.28.22-.03.43-.09.64-.15v-1.57c-.65.34-1.34.6-2.06.73h-.04c-1.25.23-2.85.14-3.56-1.09-.9-1.66-.1-3.74 1.99-3.93h.03c1.25-.13 2.52.26 3.62.83v-1.57c-.68-.17-1.37-.29-2.06-.38l-.03-.01c-1.85-.22-4.05-.17-5.67.89l-.04.01c-.06.04-.16.1-.2.16z"/></svg>