<svg xmlns="http://www.w3.org/2000/svg" width="54" height="35"><path fill="#EAEAEA" d="M0 0h54v35h-54zm44 25.206c0 2.863-2.32 5.184-5.184 5.184h-28.143v-20.492c0-2.863 2.32-5.186 5.184-5.186h28.143v20.494z"/><linearGradient id="a" gradientUnits="userSpaceOnUse" x1="-163.477" y1="374.488" x2="-160.254" y2="374.488" gradientTransform="matrix(2.835 0 0 -2.835 496.413 1079.092)"><stop offset="0" stop-color="#047C40"/><stop offset="1" stop-color="#57B347"/></linearGradient><path fill="url(#a)" d="M34.824 18.002h2.155l.036.002.035.002.036.002.036.004.035.004.036.006.021.004.015.004.035.01.035.01.036.012.036.014.035.016.036.018.036.02.035.021.035.023.037.025.035.027.035.031.036.035.036.039.035.043.036.049.036.057.035.066.035.086.036.119.025.229-.025.229-.036.121-.035.084-.035.068-.036.057-.036.049-.035.043-.036.039-.036.033-.035.031-.035.029-.037.025-.035.023-.035.02-.036.02-.036.018-.035.016-.036.014-.036.012-.035.01-.035.01-.015.002-.021.006-.036.006-.035.004-.036.004-.036.002-.035.002-.036.002h-2.15v-1.957h-.005zm2.879-2.21l.021.207-.021.209-.037.121-.035.082-.035.064-.036.053-.036.047-.035.041-.036.035-.036.031-.035.029-.035.025-.037.023-.035.021-.035.018-.036.018-.036.016-.035.012-.036.012-.036.01-.035.01-.035.006-.01.002-.026.004-.036.004-.035.004-.036.002-.036.002-.035.002h-1.95v-1.803h1.978l.036.002.036.002.035.004.036.004.026.004h.01l.035.008.035.01.036.01.036.012.035.014.036.014.036.018.035.02.035.02.037.023.035.025.035.029.036.031.036.037.035.039.036.047.036.053.035.064.035.082.044.121zm4.432-9.351h.014v18.516l-.014.328-.036.283-.036.186-.035.148-.035.127-.037.113-.035.1-.035.094-.036.086-.036.08-.035.076-.036.07-.036.068-.035.064-.035.061-.037.061-.035.057-.035.055-.036.051-.036.051-.035.049-.036.049-.036.045-.035.045-.035.043-.037.041-.035.041-.035.039-.036.039-.036.037-.035.035-.036.035-.036.035-.035.033-.036.031-.036.033-.035.031-.035.029-.036.029-.036.029-.035.027-.036.027-.036.025-.035.027-.036.025-.036.023-.035.023-.035.023-.036.023-.036.023-.035.021-.036.021-.036.02-.035.02-.036.02-.036.02-.035.02-.035.018-.036.018-.036.018-.035.016-.036.016-.036.018-.035.014-.036.016-.036.014-.035.014-.035.014-.036.014-.036.014-.035.012-.036.012-.036.012-.035.012-.036.01-.036.01-.035.01-.035.01-.036.01-.036.008-.035.01-.036.008-.036.008-.035.006-.036.008-.036.006-.035.006-.035.006-.036.006-.036.006-.035.004-.036.004-.036.004-.035.004-.036.004-.036.004-.035.002-.035.002-.036.002-.036.002-.035.002h-5.56v-7.549h5.782l.035-.002h.036l.036-.002.035-.002.036-.002.036-.002.035-.002.035-.004.036-.004.036-.004.035-.004.036-.006.036-.004.035-.006.036-.006.036-.008.035-.006.035-.008.036-.008.036-.008.035-.008.036-.01.036-.01.035-.01.036-.012.036-.01.035-.012.035-.014.036-.012.036-.014.035-.014.036-.016.036-.016.035-.016.036-.018.036-.016.035-.02.035-.02.036-.02.036-.02.035-.021.036-.023.036-.023.035-.025.036-.025.036-.027.035-.029.035-.029.036-.031.036-.033.035-.035.036-.037.036-.041.035-.041.036-.045.036-.049.035-.053.035-.057.036-.062.036-.07.035-.08.036-.096.036-.123.035-.186.016-.238-.016-.232-.035-.18-.036-.117-.036-.094-.035-.078-.036-.068-.036-.061-.035-.055-.035-.051-.036-.047-.036-.043-.035-.039-.036-.039-.036-.035-.035-.035-.036-.031-.036-.031-.035-.029-.035-.027-.036-.025-.036-.025-.035-.023-.036-.023-.036-.021-.035-.021-.036-.02-.036-.02-.035-.02-.035-.018-.036-.016-.036-.018-.035-.016-.036-.014-.036-.016-.035-.014-.036-.014-.036-.012-.035-.012-.035-.012-.036-.012-.036-.01-.035-.01-.036-.01-.036-.01-.035-.008-.036-.008-.036-.008-.035-.008-.035-.006-.036-.008-.036-.006-.035-.006-.036-.004-.036-.006-.035-.004-.036-.004-.036-.004-.035-.004-.035-.002-.033-.004v-.041l.033-.006.035-.006.035-.006.036-.008.036-.008.035-.008.036-.008.036-.008.035-.01.036-.01.036-.012.035-.01.035-.012.036-.014.036-.012.035-.016.036-.014.036-.016.035-.016.036-.016.036-.02.035-.018.035-.02.036-.02.036-.021.035-.023.036-.023.036-.025.035-.025.036-.027.036-.029.035-.029.035-.033.037-.035.035-.035.035-.039.036-.041.036-.045.035-.047.036-.053.036-.057.035-.062.035-.072.037-.082.035-.098.035-.125.036-.213.009-.172-.009-.18-.036-.215-.035-.127-.035-.098-.037-.08-.035-.07-.035-.062-.036-.055-.036-.051-.035-.047-.036-.043-.036-.039-.035-.037-.035-.035-.037-.033-.035-.031-.035-.029-.036-.029-.036-.025-.035-.025-.036-.023-.036-.023-.035-.021-.036-.021-.036-.02-.035-.018-.035-.018-.036-.018-.036-.018-.035-.016-.036-.014-.036-.014-.035-.014-.036-.014-.036-.012-.035-.012-.035-.012-.036-.01-.036-.012-.035-.008-.036-.01-.036-.008-.035-.01-.036-.006-.036-.008-.035-.008-.035-.006-.036-.006-.036-.006-.035-.004-.036-.006-.036-.004-.035-.004-.036-.004-.036-.002-.035-.004-.035-.002-.036-.002h-.015l-.021-.002-.035-.002-.024.011-.036-.002-.035-.002-.036-.002h-.036l-.035-.002h-.035l-.036-.002h-5.26v-3.846c0-.258.027-.51.078-.754l.035-.156.036-.131.036-.115.035-.104.035-.096.037-.086.035-.082.035-.076.036-.072.036-.068.035-.066.036-.062.036-.061.035-.057.035-.055.037-.053.036-.05.035-.049.036-.049.036-.047.035-.043.036-.045.036-.041.035-.041.035-.039.037-.039.035-.037.035-.037.036-.035.036-.035.035-.033.036-.033.036-.031.035-.031.035-.029.037-.031.035-.027.035-.029.036-.027.036-.025.035-.027.036-.025.036-.023.035-.025.035-.023.037-.023.035-.021.035-.021.036-.021.036-.021.035-.02.036-.02.036-.02.035-.02.035-.018.037-.018.035-.018.035-.016.036-.018.036-.016.035-.016.036-.014.036-.016.035-.014.035-.014.037-.014.035-.012.035-.014.036-.012.036-.012.035-.012.036-.01.036-.012.035-.01.035-.008.037-.01.035-.01.035-.008.036-.008.036-.008.035-.008.036-.006.036-.008.035-.006.035-.006.037-.006.035-.004.035-.006.036-.004.036-.004.035-.004.036-.004.036-.004.035-.002.035-.002.037-.002.035-.002.035-.002h.036l.036-.002h5.481v.004z"/><linearGradient id="b" gradientUnits="userSpaceOnUse" x1="-170.705" y1="374.488" x2="-167.482" y2="374.488" gradientTransform="matrix(2.835 0 0 -2.835 496.413 1079.092)"><stop offset="0" stop-color="#2A2F6F"/><stop offset="1" stop-color="#116EB7"/></linearGradient><path fill="url(#b)" d="M12.601 19.329l-.076-.037v-9.147c0-.258.025-.51.076-.752l.035-.156.036-.131.036-.115.035-.104.035-.096.036-.086.036-.082.035-.076.036-.072.036-.068.035-.066.035-.062.036-.061.036-.057.035-.055.035-.053.036-.051.036-.049.035-.049.035-.047.037-.043.035-.045.035-.041.036-.041.036-.039.035-.039.035-.037.036-.037.036-.035.035-.035.035-.033.036-.033.036-.031.035-.031.036-.029.036-.031.035-.027.035-.029.036-.027.036-.025.035-.027.035-.025.036-.023.036-.025.035-.023.035-.023.036-.021.036-.021.035-.021.036-.021.036-.02.035-.02.035-.02.036-.02.036-.018.035-.018.035-.018.036-.018.036-.016.035-.016.036-.016.035-.016.036-.014.035-.014.045-.015.036-.014.035-.014.035-.012.036-.012.036-.012.035-.012.035-.01.036-.012.036-.01.035-.01.036-.01.036-.008.035-.008.035-.01.036-.008.036-.006.035-.008.035-.006.036-.008.036-.006.035-.006.035-.004.036-.006.036-.004.035-.004.036-.004.036-.004.035-.002.035-.004.036-.002.036-.002.035-.002.035-.002h.036l.036-.002h5.492v18.516c0 .162-.011.32-.03.477l-.036.223-.036.166-.035.139-.035.119-.036.105-.036.098-.035.09-.035.082-.036.078-.036.074-.035.07-.035.066-.037.062-.035.061-.035.059-.036.055-.036.055-.035.051-.035.051-.036.047-.036.047-.035.045-.035.045-.036.041-.036.041-.035.041-.035.039-.037.037-.035.037-.035.035-.036.035-.036.033-.035.033-.035.033-.036.031-.036.029-.035.031-.035.027-.036.029-.036.027-.035.027-.036.025-.036.027-.035.023-.035.025-.036.023-.036.023-.035.021-.035.023-.036.021-.036.02-.035.021-.035.02-.036.02-.036.018-.035.02-.036.018-.036.018-.035.018-.035.016-.036.016-.036.016-.035.016-.035.014-.036.016-.036.014-.035.014-.035.012-.037.014-.035.012-.035.012-.036.012-.036.01-.035.012-.035.01-.036.01-.036.01-.035.008-.035.01-.036.008-.036.008-.035.008-.036.006-.036.008-.035.006-.035.006-.036.006-.036.006-.035.004-.035.006-.036.004-.036.004-.035.004-.035.002-.037.004-.035.002-.035.002-.036.002-.036.002-.035.002h-5.543v-7.803l.076.02.035.008.036.01.036.008.035.01.035.008.036.008.036.008.035.008.036.008.036.008.035.008.035.008.036.008.036.006.035.008.035.008.036.006.036.008.035.006.035.008.037.006.035.008.035.006.036.006.036.008.035.006.035.006.036.006.036.006.035.006.035.006.036.006.036.006.035.006.036.006.036.006.035.004.035.006.036.006.036.004.035.006.035.006.036.004.036.006.035.004.035.004.036.006.036.004.035.004.036.006.036.004.035.004.035.004.036.004.036.004.035.004.035.004.036.004.036.004.035.004.036.004.035.002.036.004.035.004.036.002.036.004.035.004.035.002.036.004.036.002.035.002.035.004.036.002.036.004.035.002.036.002.036.002.035.002.035.002.036.002.036.002.035.002.035.002.036.002.036.002.035.002.035.002h.036l.036.002.035.002h.036l.036.002h.035l.035.002h.036l.036.002h.07l.036.002h.355l.036-.002h.071l.035-.002h.036l.036-.002h.035l.036-.002h.036l.035-.002.035-.002.036-.002.036-.002.035-.002.035-.002.036-.002.036-.002.035-.002.035-.002.036-.004.036-.002.035-.002.036-.004.036-.004.035-.002.035-.004.036-.004.036-.004.035-.004.035-.004.036-.004.036-.004.035-.004.035-.004.036-.006.036-.004.035-.006.036-.004.036-.006.035-.006.035-.006.036-.006.036-.006.035-.006.035-.006.036-.008.036-.006.035-.008.035-.008.037-.006.035-.008.035-.008.036-.008.036-.01.035-.008.035-.01.036-.008.036-.01.035-.01.035-.01.036-.01.036-.01.035-.01.036-.012.057-.016.035-.01.035-.014.036-.012.036-.012.035-.014.035-.012.036-.014.036-.014.035-.014.035-.016.037-.014.035-.016.035-.016.036-.016.036-.018.035-.018.035-.018.036-.018.036-.018.035-.02.035-.02.036-.021.036-.02.035-.021.036-.023.036-.021.035-.023.035-.025.036-.025.036-.025.035-.027.035-.027.036-.029.036-.029.035-.031.035-.031.036-.033.036-.035.035-.035.036-.039.036-.039.035-.041.035-.043.036-.045.036-.049.035-.051.035-.053.036-.057.036-.062.035-.064.035-.072.037-.076.035-.086.035-.098.036-.109.036-.133.035-.168.035-.256.018-.369v-4.297h-3.175v4.297l-.01.199-.035.242-.035.141-.036.111-.036.09-.035.078-.035.068-.036.062-.036.057-.035.051-.035.049-.036.045-.036.041-.035.037-.036.037-.036.033-.035.033-.035.029-.036.027-.036.027-.035.025-.035.025-.036.021-.036.021-.035.021-.035.018-.036.02-.036.018-.035.016-.036.016-.036.016-.035.014-.035.012-.036.014-.036.012-.035.01-.035.01-.036.01-.036.01-.035.008-.035.008-.037.008-.035.006-.035.006-.036.006-.036.004-.035.006-.035.004-.036.002-.036.004-.035.002-.035.002-.036.002-.036.002h-.213l-.036-.002-.035-.002h-.035l-.036-.002-.036-.002-.035-.002-.035-.002-.036-.004-.036-.002-.046-.003-.036-.002-.036-.004-.035-.004-.035-.004-.036-.004-.036-.004-.035-.004-.035-.006-.036-.004-.036-.006-.035-.006-.036-.006-.035-.006-.036-.006-.035-.006-.036-.006-.036-.006-.035-.008-.035-.008-.036-.006-.036-.008-.035-.008-.035-.008-.036-.008-.036-.008-.035-.01-.036-.008-.036-.01-.035-.008-.035-.01-.036-.01-.036-.01-.035-.01-.035-.01-.036-.01-.036-.01-.035-.012-.035-.01-.036-.012-.036-.012-.035-.01-.036-.012-.036-.012-.035-.012-.035-.012-.042-.005-.036-.012-.035-.012-.035-.014-.036-.014-.036-.012-.035-.014-.035-.014-.037-.014-.035-.014-.035-.014-.036-.014-.036-.016-.035-.014-.035-.016-.036-.014-.036-.016-.035-.016-.035-.014-.036-.016-.036-.016-.035-.016-.036-.018-.036-.016-.035-.016-.035-.018-.036-.016-.036-.018-.039-.006z"/><linearGradient id="c" gradientUnits="userSpaceOnUse" x1="-167.091" y1="374.488" x2="-163.868" y2="374.488" gradientTransform="matrix(2.835 0 0 -2.835 496.413 1079.092)"><stop offset="0" stop-color="#6F2C30"/><stop offset="1" stop-color="#E21D3B"/></linearGradient><path fill="url(#c)" d="M22.846 14.93l-.077.064v-4.85c0-.258.027-.51.077-.752l.036-.154.035-.133.036-.115.036-.104.035-.093.035-.088.036-.082.036-.076.035-.072.035-.068.036-.066.036-.062.035-.059.035-.059.036-.055.036-.053.035-.051.036-.049.036-.049.035-.045.035-.045.036-.043.036-.043.035-.041.035-.039.036-.039.036-.037.035-.037.039-.035.037-.035.035-.033.035-.031.036-.033.036-.031.035-.029.035-.029.036-.029.036-.027.035-.027.035-.027.036-.027.036-.025.035-.023.036-.025.036-.023.035-.023.035-.021.036-.021.036-.021.035-.021.035-.02.036-.02.036-.02.035-.02.035-.018.037-.018.035-.018.035-.016.036-.018.036-.016.035-.016.035-.016.036-.014.036-.014.035-.014.035-.014.036-.014.036-.012.035-.012.036-.012.036-.012.035-.01.035-.012.036-.01.036-.01.035-.01.035-.008.036-.008.036-.01.042-.006.035-.006.037-.008.035-.006.035-.008.036-.006.036-.006.035-.004.035-.006.036-.004.036-.004.035-.004.035-.004.036-.002.036-.004.035-.002.036-.002.036-.002.035-.002h.035l.036-.002h5.469v18.516c0 .162-.011.32-.031.477l-.035.223-.036.166-.036.137-.035.121-.035.105-.036.098-.036.09-.035.082-.035.078-.036.074-.036.07-.035.066-.035.062-.036.061-.036.059-.035.055-.036.055-.036.051-.035.051-.035.047-.036.047-.036.045-.035.045-.035.041-.036.041-.036.041-.035.039-.036.037-.036.037-.035.035-.035.035-.036.033-.036.033-.035.033-.035.031-.036.029-.036.031-.035.027-.035.029-.036.027-.036.027-.035.025-.036.025-.036.025-.035.025-.035.023-.036.023-.036.021-.035.023-.035.02-.036.021-.036.021-.035.02-.036.02-.036.018-.035.02-.035.018-.036.018-.036.018-.035.016-.035.016-.036.016-.036.016-.035.014-.035.016-.036.014-.036.014-.035.012-.036.014-.036.012-.035.012-.035.012-.036.01-.036.012-.035.01-.035.01-.036.01-.036.008-.035.01-.036.008-.036.008-.035.008-.035.006-.024.006-.036.006-.035.006-.035.006-.036.006-.036.004-.035.006-.035.004-.036.004-.036.004-.035.002-.036.004-.036.002-.035.002-.035.002-.036.002-.036.002h-5.537v-8.549l.077.062.036.029.035.027.036.027.036.025.035.027.035.023.036.025.036.023.035.023.035.023.036.021.036.021.035.021.035.021.036.02.036.02.035.02.036.02.036.018.035.018.035.018.036.018.036.018.035.016.035.018.036.016.036.016.035.016.035.014.037.016.035.014.035.014.036.014.036.014.035.014.035.012.036.014.036.012.035.012.035.012.036.012.036.012.035.012.036.01.036.012.035.01.035.01.036.01.036.01.035.01.035.01.036.01.036.008.035.01.035.008.037.008.035.008.035.01.036.008.036.006.035.008.035.008.036.008.036.006.035.008.035.006.036.006.036.006.035.008.036.006.036.006.035.006.035.004.036.006.036.006.035.004.035.006.036.004.036.006.035.004.035.004.037.006.035.004.035.004.036.004.036.004.035.004.035.002.036.004.036.004.035.002.035.004.036.004.048-.011.035.002.036.004.036.002.035.002.035.002.036.002.036.002.035.004h.036l.035.002.035.002.036.002.036.002h.035l.036.002.036.002h.035l.035.002h.036l.036.002h.07l.036.002h.391l.036-.002h.07l.036-.002h.036l.035-.002h.072l.035-.002.035-.002h.036l.036-.002.035-.002h.035l.036-.002.018-.002h.019l.035-.002.035-.002.036-.002.036-.002.035-.002.036-.002.036-.004.035-.002.035-.002.036-.004.036-.002.035-.004.035-.002.036-.004.036-.004.035-.004.036-.002.036-.004.035-.004.035-.004.036-.004.036-.004.035-.004.035-.004.036-.006.036-.004.035-.004.035-.006.036-.004.036-.004.035-.006.036-.004.036-.006.035-.004.035-.006.036-.006.036-.004.035-.006.035-.006.036-.006.036-.006.035-.006.036-.006.036-.004.035-.008.035-.006.036-.006.036-.006.035-.006.035-.006.036-.006.036-.008.035-.006.035-.006.036-.008.036-.006.035-.008.036-.006.036-.008.035-.006.035-.008.036-.006.051-.002.035-.008.035-.008.036-.006.036-.008.035-.008.036-.008.036-.008.035-.008.035-.008.036-.008.036-.008.035-.008.035-.008.036-.008.036-.01.035-.008.035-.008.036-.01v-1.566l-.036.018-.035.018-.035.018-.036.018-.036.018-.035.016-.035.018-.036.016-.036.018-.035.016-.035.016-.036.018-.035.014-.035.016-.036.014-.036.016-.035.016-.035.014-.037.014-.036.014-.035.016-.035.014-.036.014-.036.014-.035.014-.036.012-.036.014-.035.014-.035.012-.036.012-.036.014-.035.012-.035.012-.036.012-.036.012-.035.01-.035.012-.036.012-.036.01-.035.01-.036.01-.036.012-.035.01-.035.008-.036.01-.036.01-.035.01-.035.008-.036.008-.036.01-.035.008-.036.008-.036.008-.035.008-.035.008-.036.006-.036.008-.035.006-.04-.002-.036.006-.036.006-.035.006-.035.006-.036.006-.036.006-.035.004-.036.006-.036.004-.035.006-.035.004-.036.004-.036.004-.037.002-.035.004-.036.004-.037.002-.035.004-.036.004h-.021l-.015.002-.035.002-.035.002-.036.002-.036.002-.035.002-.035.002h-.036l-.036.002h-.177l-.036-.002h-.038l-.035-.002-.035-.002-.036-.002-.036-.002-.035-.002-.035-.002-.036-.004-.036-.004-.037-.002-.036-.006-.036-.004-.035-.004-.035-.006-.036-.006-.036-.006-.035-.006-.035-.006-.036-.006-.036-.008-.035-.008-.035-.008-.036-.01-.036-.008-.035-.01-.036-.01-.036-.01-.035-.012-.035-.01-.036-.012-.035-.014-.036-.012-.036-.014-.035-.014-.035-.014-.036-.016-.036-.016-.035-.018-.036-.016-.036-.018-.035-.02-.035-.018-.036-.021-.036-.02-.035-.021-.035-.023-.036-.021-.036-.025-.035-.025-.035-.025-.037-.027-.035-.029-.035-.029-.036-.031-.036-.033-.035-.033-.035-.035-.036-.039-.036-.039-.035-.041-.035-.043-.036-.047-.036-.049-.035-.053-.036-.055-.036-.061-.035-.064-.035-.07-.036-.076-.036-.084-.035-.096-.035-.109-.036-.131-.036-.168-.035-.262-.015-.32.015-.322.035-.262.036-.168.036-.131.035-.109.035-.096.036-.084.036-.076.035-.07.035-.064.036-.061.036-.055.035-.053.036-.049.036-.047.035-.043.035-.041.036-.041.036-.037.035-.035.035-.035.036-.031.036-.031.035-.029.035-.029.037-.027.035-.027.035-.025.036-.023.036-.023.035-.021.035-.021.036-.021.036-.02.035-.02.035-.018.036-.018.036-.018.035-.016.036-.016.036-.016.035-.014.035-.014.036-.014.036-.014.035-.012.036-.012.035-.012.035-.01.036-.01.036-.01.035-.01.036-.01.036-.008.035-.008.035-.008.036-.008.036-.006.035-.008.035-.006.036-.006.036-.006.035-.004.035-.006.036-.004.036-.004.035.004.036-.004.036-.002.035-.004.035-.002.036-.002.036-.002.035-.002h.035l.036-.002h.036l.035-.002h.072l.035.002h.071l.036.002h.035l.035.002.036.002.036.002.035.002.035.004h.015l.021.002.036.002.035.004.036.004.036.002.035.004.035.004.036.004.036.004.035.006.035.004.036.004.036.006.035.006.036.004.036.006.035.006.035.006.036.006.036.006.035.008.035.006.036.008.036.006.035.008.035.008.036.008.036.008.035.008.036.008.036.01.035.008.035.01.036.008.036.01.035.01.035.01.036.01.036.01.035.012.036.01.036.01.035.012.035.012.036.012.036.012.035.012.035.012.036.012.036.012.035.014.035.012.036.014.036.014.035.014.036.014.036.014.035.014.035.014.036.016.036.014.035.016.035.016.036.016.036.014.035.016.036.018.036.016.035.016.035.016.036.018.036.018.035.016.035.018.036.018.036.018.035.018.035.018.036.018v-1.568l-.036-.008-.035-.008-.035-.01-.036-.008-.036-.008-.035-.008-.035-.01-.036-.008-.036-.008-.035-.008-.035-.008-.036-.008-.036-.006-.035-.008-.036-.008-.036-.008-.035-.008-.035-.006-.036-.008-.036-.008-.035-.006-.035-.008-.036-.006-.036-.008-.035-.006-.036-.008-.036-.006-.035-.006-.035-.008-.036-.006-.036-.006-.035-.006-.035-.008-.036-.006-.036-.006-.035-.006-.035-.006-.036-.006-.036-.006-.035-.006-.036-.006-.036-.004-.035-.006-.035-.006-.036-.006-.036-.004-.035-.006-.035-.004-.036-.006-.036-.004-.035-.006-.036-.004-.036-.006-.035-.004-.035-.004-.036-.006-.036-.004-.035-.004-.028-.014-.036-.004-.036-.004-.035-.004-.035-.004-.036-.004-.036-.004-.035-.002-.036-.004-.036-.004-.035-.002-.035-.004-.036-.002-.036-.004-.035-.002-.035-.004-.036-.002-.036-.002-.035-.002-.036-.002-.036-.002-.035-.002-.035-.002h-.019l-.018-.002-.036-.002h-.035l-.035-.002-.036-.002h-.039l-.035-.002-.035-.002h-.036l-.036-.002h-.178l-.036-.002h-.391l-.036.002h-.07l-.036.002h-.036l-.035.002h-.035l-.036.002-.036.002h-.035l-.036.002-.036.002-.035.002-.035.002h-.036l-.035.004-.036.002-.036.002-.035.002-.035.002-.036.002-.036.004-.041.001-.036.002-.036.004-.035.004-.035.002-.036.004-.036.004-.035.002-.035.004-.036.004-.036.004-.035.004-.035.004-.037.006-.037.002-.035.004-.036.006-.036.004-.035.006-.035.004-.036.006-.036.006-.035.004-.036.005-.036.006-.036.006-.035.008-.036.006-.037.006-.035.006-.035.008-.036.006-.036.008-.035.008-.035.008-.036.008-.036.008-.035.008-.035.008-.037.008-.035.008-.035.01-.036.008-.036.01-.035.01-.035.01-.036.01-.036.01-.035.01-.035.01-.036.012-.036.01-.035.012-.036.012-.036.012-.035.012-.035.012-.036.012-.036.014-.035.012-.035.014-.036.014-.036.014-.035.014-.035.014-.037.016-.035.016-.035.014-.036.016-.036.016-.035.018-.035.016-.036.018-.036.018-.035.018-.035.018-.036.02-.036.018-.035.02-.036.02-.036.021-.035.02-.035.021-.036.021-.036.023-.035.021-.035.023-.036.023-.044.013-.035.025-.035.025-.036.025-.036.027-.035.027-.037.031z"/></svg>