<svg xmlns="http://www.w3.org/2000/svg" width="54" height="35"><path fill="#21205F" d="M0 0h54v35H0z"/><path fill="#941B1E" d="M19.188 5.816c-6.334.04-11.46 5.206-11.46 11.563 0 6.38 5.168 11.56 11.535 11.56 2.988 0 5.713-1.142 7.764-3.014h-.002.003c.42-.383.81-.797 1.172-1.237h-2.364c-.316-.385-.603-.78-.86-1.192h4.076c.246-.397.474-.81.67-1.24h-5.42c-.185-.396-.345-.802-.48-1.213h6.384c.386-1.152.594-2.385.594-3.667 0-.85-.09-1.677-.265-2.476H23.48c.088-.41.198-.815.33-1.214h6.387c-.142-.425-.308-.838-.498-1.24H24.3c.194-.415.415-.82.66-1.213h4.073c-.27-.433-.57-.846-.896-1.238h-2.27c.35-.415.736-.805 1.156-1.168-2.05-1.873-4.774-3.015-7.765-3.015h-.072z"/><path fill="#F26722" d="M46.272 17.38c.003 6.386-5.16 11.563-11.533 11.566-6.372 0-11.537-5.174-11.54-11.56v-.005c0-6.384 5.163-11.56 11.535-11.564 6.37 0 11.537 5.174 11.537 11.56v.005z"/><path fill="#F8991D" d="M46.272 17.51c.003 6.384-5.16 11.56-11.533 11.564-6.372 0-11.537-5.174-11.54-11.558v-.007c0-6.385 5.163-11.563 11.535-11.564 6.37 0 11.537 5.172 11.537 11.56v.003z"/><path fill="#CB2026" d="M19.188 5.95c-6.334.04-11.462 5.204-11.462 11.56 0 6.38 5.17 11.56 11.536 11.56 2.988 0 5.713-1.14 7.764-3.01l-.002-.002h.003c.42-.383.81-.796 1.172-1.236h-2.365c-.316-.383-.603-.78-.86-1.19h4.076c.247-.4.475-.813.672-1.24h-5.42c-.186-.396-.346-.803-.482-1.213h6.385c.386-1.153.594-2.387.594-3.67 0-.848-.092-1.676-.266-2.475H23.48c.088-.41.198-.816.33-1.215h6.387c-.142-.424-.308-.836-.498-1.237H24.3c.194-.418.415-.823.66-1.215h4.073c-.27-.433-.57-.846-.896-1.238h-2.27c.35-.415.736-.805 1.156-1.168-2.05-1.87-4.774-3.012-7.765-3.012h-.072z"/><path d="M23.09 20.826l.155-1.045-.316.036c-.43 0-.483-.228-.448-.395l.42-2.104h.65l.134-1.188h-.612l.125-.72h-1.282c-.027.026-.726 4.048-.726 4.538 0 .725.407 1.047.98 1.04.446-.002.796-.127.92-.16zm.39-1.993c0 1.74 1.146 2.15 2.122 2.15.9 0 1.374-.208 1.374-.208l.216-1.188s-.76.31-1.38.31c-1.318 0-1.088-.984-1.088-.984l2.534.008s.16-.797.16-1.123c0-.81-.44-1.805-1.788-1.805-1.235 0-2.15 1.333-2.15 2.84zm2.154-1.74c.693 0 .566.782.566.846h-1.365c0-.082.13-.846.8-.846zm7.78 3.733l.218-1.343s-.603.305-1.016.305c-.873 0-1.223-.668-1.223-1.385 0-1.453.75-2.25 1.585-2.25.626 0 1.128.35 1.128.35l.2-1.304s-.592-.43-1.23-.433c-1.92-.008-3.018 1.333-3.018 3.648 0 1.533.812 2.58 2.278 2.58.415 0 1.077-.17 1.077-.17zm-17.08-4.817c-.84 0-1.487.272-1.487.272l-.178 1.06s.532-.217 1.337-.217c.458 0 .793.05.793.426 0 .225-.04.31-.04.31s-.362-.03-.53-.03c-1.198 0-2.177.453-2.177 1.824 0 1.08.73 1.327 1.186 1.327.865 0 1.21-.547 1.228-.55l-.01.456h1.082l.482-3.39c0-1.44-1.25-1.487-1.687-1.487zm.19 2.754c.022.206-.055 1.184-.794 1.184-.382 0-.48-.292-.48-.465 0-.337.183-.74 1.082-.74l.19.02zm2.647 2.19c.278 0 1.86.07 1.86-1.565 0-1.53-1.465-1.228-1.465-1.842 0-.306.24-.402.676-.402.174 0 .84.056.84.056l.155-1.087s-.432-.097-1.133-.097c-.91 0-1.832.363-1.832 1.608 0 1.41 1.538 1.266 1.538 1.86 0 .397-.43.43-.76.43-.573 0-1.09-.198-1.09-.187l-.165 1.074c.03.008.348.15 1.378.15zm24.373-5.93l-.222 1.66s-.462-.64-1.186-.64c-1.36 0-2.062 1.358-2.062 2.92 0 1.01.5 1.997 1.523 1.997.735 0 1.142-.51 1.142-.51l-.053.438h1.194l.94-5.855-1.275-.01zm-.527 3.223c0 .65-.322 1.52-.986 1.52-.443 0-.65-.372-.65-.956 0-.955.43-1.584.968-1.584.442 0 .668.305.668 1.02zm-33.33 2.645l.747-4.42.11 4.42h.845l1.58-4.42-.7 4.42h1.257l.97-5.86-2-.016-1.187 3.59-.032-3.576H9.444l-.982 5.86h1.223v.002zm18.92.008c.36-2.037.487-3.646 1.53-3.312.15-.79.506-1.474.668-1.808 0 0-.05-.078-.372-.078-.55 0-1.286 1.12-1.286 1.12l.11-.693H28.11l-.764 4.77h1.26zm7.378-4.89c-.843 0-1.49.272-1.49.272l-.177 1.06s.534-.217 1.34-.217c.457 0 .79.05.79.426 0 .225-.04.31-.04.31s-.36-.03-.528-.03c-1.2 0-2.18.453-2.18 1.824 0 1.08.733 1.327 1.188 1.327.865 0 1.208-.547 1.228-.55l-.01.454h1.082l.483-3.39c.002-1.437-1.252-1.485-1.686-1.485zm.188 2.754c.022.206-.053 1.184-.793 1.184-.385 0-.482-.292-.482-.465 0-.337.183-.74 1.082-.74l.192.02zm2.745 2.136c.196-1.498.56-3.603 1.525-3.312.15-.79.007-.787-.315-.787-.55 0-.674.022-.674.022l.112-.692H38.42l-.768 4.77h1.265z" fill="#21205F"/><path d="M23.41 20.454l.155-1.047-.317.037c-.427 0-.475-.23-.447-.397l.347-2.134h.65l.155-1.158h-.61l.123-.72h-1.228c-.027.028-.726 4.05-.726 4.537 0 .726.406 1.05.98 1.043.448-.004.798-.128.92-.16zm.39-1.996c0 1.74 1.146 2.153 2.123 2.153.9 0 1.297-.2 1.297-.2l.217-1.19s-.686.304-1.305.304c-1.32 0-1.088-.986-1.088-.986h2.496s.16-.798.16-1.122c0-.81-.402-1.8-1.75-1.8-1.235 0-2.15 1.335-2.15 2.842zm2.154-1.738c.693 0 .565.78.565.844h-1.364c0-.08.128-.844.798-.844zm7.778 3.732l.22-1.34s-.604.303-1.017.303c-.873 0-1.223-.668-1.223-1.383 0-1.455.752-2.253 1.585-2.253.627 0 1.13.352 1.13.352l.2-1.303s-.744-.304-1.384-.304c-1.42 0-2.798 1.232-2.798 3.55 0 1.532.744 2.548 2.21 2.548.417-.002 1.077-.172 1.077-.172zm-17.077-4.815c-.842 0-1.488.27-1.488.27l-.178 1.062s.532-.218 1.337-.218c.458 0 .793.053.793.425 0 .226-.04.31-.04.31s-.362-.03-.53-.03c-1.06 0-2.178.455-2.178 1.823 0 1.08.732 1.328 1.187 1.328.865 0 1.24-.563 1.26-.565l-.04.47h1.08l.482-3.39c0-1.44-1.25-1.486-1.687-1.486zm.264 2.76c.022.207-.13 1.177-.87 1.177-.38 0-.48-.293-.48-.464 0-.338.183-.743 1.082-.743.208 0 .232.024.267.03zm2.57 2.185c.278 0 1.86.07 1.86-1.565 0-1.53-1.465-1.228-1.465-1.843 0-.305.24-.4.676-.4.173 0 .84.054.84.054l.155-1.087s-.432-.096-1.134-.096c-.908 0-1.83.364-1.83 1.608 0 1.41 1.538 1.27 1.538 1.862 0 .395-.43.43-.76.43-.574 0-1.09-.197-1.092-.19l-.163 1.075c.03.01.348.152 1.378.152zm24.416-5.92l-.265 1.647s-.463-.642-1.185-.642c-1.126 0-2.064 1.36-2.064 2.923 0 1.01.502 1.997 1.524 1.997.735 0 1.144-.514 1.144-.514l-.054.44h1.193l.938-5.854-1.23.002zm-.57 3.212c0 .65-.32 1.52-.986 1.52-.443 0-.65-.373-.65-.957 0-.954.43-1.584.967-1.584.442 0 .67.303.67 1.02zm-33.33 2.645l.747-4.42.11 4.42h.846l1.578-4.42-.7 4.42h1.257l.97-5.863H12.87l-1.21 3.596-.064-3.596H9.803L8.82 20.52h1.185zm18.924.006c.356-2.038.423-3.69 1.276-3.39.148-.788.293-1.093.457-1.427l-.237-.017c-.55 0-.957.753-.957.753l.108-.692h-1.144l-.768 4.77h1.264zm7.637-4.89c-.843 0-1.49.272-1.49.272l-.178 1.06s.534-.216 1.337-.216c.46 0 .793.053.793.425 0 .226-.04.31-.04.31s-.362-.03-.528-.03c-1.062 0-2.18.455-2.18 1.823 0 1.08.734 1.328 1.188 1.328.866 0 1.24-.563 1.26-.565l-.04.47h1.08l.482-3.39c.002-1.44-1.25-1.486-1.685-1.486zm.262 2.76c.02.208-.13 1.178-.868 1.178-.384 0-.482-.293-.482-.464 0-.338.183-.743 1.082-.743.21 0 .233.024.267.03zm2.41 2.13c.36-2.038.426-3.69 1.277-3.39.15-.788.294-1.093.456-1.427l-.234-.017c-.552 0-.96.753-.96.753l.108-.692h-1.14l-.77 4.77h1.263z" fill="#fff"/></svg>