<svg xmlns="http://www.w3.org/2000/svg" width="54" height="35"><path fill="#21205F" d="M0 0h54v35H0z"/><path fill="#941B1E" d="M19.188 5.816c-6.334.04-11.46 5.206-11.46 11.563 0 6.38 5.168 11.56 11.535 11.56 2.988 0 5.713-1.15 7.764-3.02h-.002.003c.42-.387.81-.8 1.172-1.24h-2.364c-.316-.386-.603-.78-.86-1.19h4.076c.246-.4.474-.81.67-1.24h-5.42c-.185-.398-.345-.8-.48-1.215h6.384c.386-1.15.594-2.385.594-3.667 0-.85-.09-1.676-.265-2.475H23.48c.088-.41.198-.816.33-1.215h6.387c-.142-.423-.308-.836-.498-1.24h-5.4c.19-.413.41-.82.66-1.21h4.07c-.27-.435-.57-.848-.9-1.24h-2.27c.35-.415.734-.805 1.154-1.168-2.05-1.872-4.774-3.014-7.765-3.014h-.07z"/><path fill="#F26722" d="M46.272 17.38c.003 6.386-5.16 11.563-11.533 11.566-6.38 0-11.54-5.174-11.54-11.56v-.005c0-6.38 5.16-11.56 11.53-11.56 6.37 0 11.53 5.18 11.53 11.56v.01z"/><path fill="#F8991D" d="M46.272 17.51c.003 6.384-5.16 11.56-11.533 11.564-6.38 0-11.54-5.174-11.54-11.558v-.007c0-6.39 5.16-11.57 11.53-11.57 6.37 0 11.532 5.17 11.532 11.56z"/><path fill="#CB2026" d="M19.188 5.95c-6.334.04-11.462 5.204-11.462 11.56 0 6.38 5.17 11.56 11.536 11.56 2.988 0 5.713-1.14 7.764-3.01l-.002-.002h.003c.42-.383.81-.796 1.172-1.236h-2.37c-.32-.383-.61-.78-.86-1.19h4.07c.246-.4.474-.813.67-1.24H24.3c-.185-.396-.345-.803-.48-1.213h6.384c.386-1.16.594-2.39.594-3.67 0-.85-.093-1.68-.267-2.48h-7.05c.09-.41.2-.82.33-1.22h6.39c-.14-.425-.302-.837-.492-1.238h-5.4c.193-.42.414-.824.66-1.216h4.072c-.27-.433-.57-.846-.897-1.238h-2.27c.35-.417.736-.807 1.156-1.17-2.05-1.87-4.776-3.01-7.767-3.01h-.072z"/><path d="M23.09 20.826l.155-1.045-.316.04c-.43 0-.49-.23-.45-.39l.42-2.103h.65l.13-1.19h-.61l.12-.72h-1.28c-.027.028-.726 4.05-.726 4.54 0 .725.406 1.047.98 1.04.445-.002.795-.127.92-.16zm.39-1.993c0 1.74 1.146 2.15 2.122 2.15.9 0 1.374-.208 1.374-.208l.216-1.188s-.76.31-1.38.31c-1.318 0-1.088-.984-1.088-.984l2.534.008s.16-.79.16-1.12c0-.81-.44-1.8-1.788-1.8-1.235 0-2.15 1.335-2.15 2.84zm2.154-1.74c.693 0 .566.782.566.846h-1.365c0-.09.13-.85.8-.85zm7.78 3.733l.218-1.343s-.603.305-1.016.305c-.873 0-1.223-.668-1.223-1.385 0-1.453.75-2.25 1.585-2.25.626 0 1.128.35 1.128.35l.2-1.304s-.592-.43-1.23-.44c-1.92-.01-3.018 1.33-3.018 3.65 0 1.53.812 2.58 2.278 2.58.415 0 1.077-.17 1.077-.17zm-17.08-4.817c-.84 0-1.487.27-1.487.27l-.178 1.06s.53-.22 1.33-.22c.46 0 .79.05.79.42 0 .225-.04.31-.04.31s-.363-.03-.53-.03c-1.2 0-2.178.453-2.178 1.824 0 1.08.73 1.327 1.185 1.327.865 0 1.21-.545 1.23-.55l-.01.458h1.08l.483-3.39c0-1.44-1.25-1.487-1.686-1.487zm.19 2.75c.022.2-.055 1.18-.794 1.18-.382 0-.48-.29-.48-.467 0-.337.183-.74 1.082-.74l.19.02zm2.647 2.19c.28 0 1.86.07 1.86-1.57 0-1.53-1.46-1.23-1.46-1.84 0-.308.24-.4.68-.4.175 0 .84.053.84.053l.156-1.088s-.432-.1-1.133-.1c-.91 0-1.832.364-1.832 1.61 0 1.41 1.54 1.266 1.54 1.86 0 .397-.43.43-.76.43-.573 0-1.09-.198-1.09-.187l-.165 1.075c.03.01.35.15 1.38.15zm24.38-5.93l-.22 1.66s-.46-.64-1.185-.64c-1.36 0-2.062 1.36-2.062 2.92 0 1.01.5 1.99 1.524 1.99.735 0 1.14-.51 1.14-.51l-.052.438h1.195l.94-5.855-1.273-.01zm-.524 3.22c0 .65-.322 1.52-.986 1.52-.443 0-.65-.37-.65-.96 0-.955.43-1.584.97-1.584.44 0 .666.305.666 1.02zM9.688 20.89l.746-4.42.11 4.42h.845l1.58-4.42-.7 4.42h1.25l.97-5.86-2-.015-1.188 3.59-.033-3.576H9.44l-.982 5.86h1.22zm18.92.01c.36-2.038.486-3.647 1.53-3.313.15-.79.505-1.474.667-1.808 0 0-.05-.08-.372-.08-.55 0-1.286 1.12-1.286 1.12l.11-.7H28.11l-.764 4.77h1.26zm7.377-4.89c-.843 0-1.49.27-1.49.27l-.177 1.06s.534-.216 1.34-.216c.457 0 .79.05.79.426 0 .225-.04.31-.04.31s-.36-.03-.528-.03c-1.2 0-2.18.453-2.18 1.824 0 1.08.73 1.327 1.186 1.327.865 0 1.208-.54 1.228-.55l-.01.46h1.082l.483-3.39c0-1.433-1.25-1.48-1.69-1.48zm.188 2.753c.022.206-.053 1.184-.793 1.184-.387 0-.484-.292-.484-.465 0-.337.183-.74 1.082-.74l.19.02zm2.745 2.136c.196-1.5.56-3.61 1.525-3.32.15-.79.007-.79-.315-.79-.55 0-.674.02-.674.02l.112-.69H38.42l-.768 4.77h1.265z" fill="#21205F"/><path d="M23.41 20.454l.155-1.047-.317.037c-.427 0-.475-.23-.447-.397l.35-2.134h.65l.16-1.158h-.61l.125-.72h-1.23c-.027.028-.726 4.05-.726 4.537 0 .726.405 1.05.98 1.043.447-.004.797-.128.92-.16zm.39-1.996c0 1.74 1.146 2.153 2.123 2.153.9 0 1.297-.2 1.297-.2l.217-1.19s-.686.31-1.305.31c-1.32 0-1.088-.982-1.088-.982h2.496s.16-.8.16-1.122c0-.81-.402-1.8-1.75-1.8-1.235 0-2.15 1.336-2.15 2.843zm2.154-1.738c.693 0 .565.78.565.844h-1.37c0-.08.123-.844.793-.844zm7.778 3.732l.22-1.34s-.604.303-1.017.303c-.873 0-1.223-.668-1.223-1.383 0-1.455.752-2.253 1.585-2.253.627 0 1.13.35 1.13.35l.2-1.31s-.744-.305-1.384-.305c-1.42 0-2.798 1.232-2.798 3.55 0 1.532.744 2.55 2.21 2.55.417 0 1.077-.17 1.077-.17zm-17.077-4.815c-.842 0-1.488.27-1.488.27l-.178 1.062s.53-.22 1.33-.22c.46 0 .79.05.79.42 0 .223-.04.31-.04.31s-.363-.03-.53-.03c-1.06 0-2.18.452-2.18 1.82 0 1.08.733 1.327 1.19 1.327.864 0 1.24-.563 1.26-.565l-.04.47h1.08l.48-3.39c0-1.44-1.25-1.487-1.686-1.487zm.264 2.76c.02.207-.13 1.177-.87 1.177-.38 0-.48-.293-.48-.464 0-.338.18-.743 1.08-.743.21 0 .23.024.26.03zm2.57 2.185c.27 0 1.86.07 1.86-1.565 0-1.53-1.47-1.228-1.47-1.843 0-.305.24-.4.67-.4.173 0 .84.054.84.054l.155-1.087s-.43-.09-1.134-.09c-.906 0-1.83.368-1.83 1.61 0 1.41 1.54 1.27 1.54 1.86 0 .398-.43.43-.76.43-.574 0-1.09-.194-1.092-.19l-.163 1.078c.03.01.35.153 1.38.153zm24.41-5.92l-.27 1.647s-.463-.65-1.185-.65c-1.126 0-2.064 1.36-2.064 2.92 0 1.01.504 1.997 1.526 1.997.735 0 1.144-.514 1.144-.514l-.055.44h1.193l.94-5.855H43.9zm-.57 3.212c0 .65-.32 1.52-.99 1.52-.444 0-.65-.373-.65-.957 0-.954.43-1.584.966-1.584.442 0 .67.303.67 1.02zM10 20.52l.748-4.42.11 4.42h.846l1.578-4.42-.7 4.42h1.257l.97-5.868h-1.94l-1.21 3.596-.07-3.596H9.8l-.98 5.868h1.185zm18.925 0c.355-2.037.422-3.69 1.275-3.39.15-.787.294-1.092.458-1.426l-.238-.017c-.55 0-.957.753-.957.753l.108-.69h-1.14l-.762 4.77h1.264zm7.636-4.89c-.84 0-1.49.273-1.49.273l-.172 1.06s.534-.216 1.337-.216c.46 0 .795.053.795.425 0 .226-.04.31-.04.31s-.363-.03-.53-.03c-1.062 0-2.18.455-2.18 1.823 0 1.08.734 1.326 1.188 1.326.866 0 1.24-.56 1.26-.56l-.04.47h1.08l.482-3.39c0-1.44-1.25-1.485-1.687-1.485zm.268 2.76c.02.21-.13 1.18-.868 1.18-.385 0-.483-.293-.483-.464 0-.34.183-.744 1.082-.744.21 0 .23.024.265.03zm2.41 2.13c.36-2.037.426-3.69 1.277-3.39.15-.787.296-1.092.458-1.426l-.233-.017c-.553 0-.96.753-.96.753l.107-.69h-1.14l-.77 4.77h1.265z" fill="#fff"/></svg>