<svg xmlns="http://www.w3.org/2000/svg" width="54" height="35"><path fill="#21205F" d="M0 0h54v35h-54v-35z"/><path fill="#941B1E" d="M19.2 5.8c-6.3.1-11.5 5.2-11.5 11.6 0 6.4 5.2 11.6 11.5 11.6 3 0 5.7-1.1 7.8-3l1.2-1.2h-2.4l-.9-1.2h4.1l.7-1.2h-5.4l-.5-1.2h6.4c.4-1.2.6-2.4.6-3.7 0-.8-.1-1.7-.3-2.5h-7.1l.3-1.2h6.4c-.1-.4-.3-.8-.5-1.2h-5.4c.2-.4.4-.8.7-1.2h4.1l-.9-1.2h-2.3c.4-.4.7-.8 1.2-1.2-2-2-4.7-3.2-7.8-3.2z"/><path fill="#F26722" d="M46.3 17.4c0 6.4-5.2 11.6-11.5 11.6-6.4 0-11.5-5.2-11.5-11.6 0-6.4 5.2-11.6 11.5-11.6s11.5 5.2 11.5 11.6z"/><path fill="#F8991D" d="M46.3 17.5c0 6.4-5.2 11.6-11.5 11.6-6.4 0-11.5-5.2-11.5-11.6 0-6.4 5.2-11.6 11.5-11.6s11.5 5.2 11.5 11.6z"/><path fill="#CB2026" d="M19.2 5.9c-6.3.1-11.5 5.3-11.5 11.6 0 6.4 5.2 11.6 11.5 11.6 3 0 5.7-1.1 7.8-3l1.2-1.2h-2.4l-.9-1.2h4.1l.7-1.2h-5.4l-.5-1.2h6.4c.4-1.2.6-2.4.6-3.7 0-.8-.1-1.7-.3-2.5h-7.1l.3-1.2h6.4c-.1-.4-.3-.8-.5-1.2h-5.4c.2-.4.4-.8.7-1.2h4.1l-.9-1.2h-2.3c.4-.6.8-1 1.2-1.3-2-1.9-4.7-3-7.8-3.1z"/><path fill="#21205F" d="M23.1 20.8l.2-1h-.3c-.4 0-.5-.2-.4-.4l.4-2.1h.6l.1-1.2h-.6l.1-.7h-1.3s-.7 4-.7 4.5c0 .7.4 1 1 1 .4.1.8 0 .9-.1zm.4-2c0 1.7 1.1 2.2 2.1 2.2.9 0 1.4-.2 1.4-.2l.2-1.2s-.8.3-1.4.3c-1.3 0-1.1-1-1.1-1h2.5s.2-.8.2-1.1c0-.8-.4-1.8-1.8-1.8-1.2 0-2.1 1.3-2.1 2.8zm2.1-1.7c.7 0 .6.8.6.8h-1.4s.2-.8.8-.8zm7.8 3.7l.2-1.3s-.6.3-1 .3c-.9 0-1.2-.7-1.2-1.4 0-1.5.8-2.3 1.6-2.3.6 0 1.1.4 1.1.4l.2-1.3s-.6-.4-1.2-.4c-1.9 0-3 1.3-3 3.6 0 1.5.8 2.6 2.3 2.6.4 0 1-.2 1-.2zm-17.1-4.8c-.8 0-1.5.3-1.5.3l-.2 1.1s.5-.2 1.3-.2c.5 0 .8.1.8.4v.3h-.5c-1.2 0-2.2.5-2.2 1.8 0 1.1.7 1.3 1.2 1.3.9 0 1.2-.5 1.2-.6v.5h1.1l.5-3.4c0-1.4-1.2-1.5-1.7-1.5zm.2 2.8c0 .2-.1 1.2-.8 1.2-.4 0-.5-.3-.5-.5 0-.3.2-.7 1.1-.7h.2zm2.7 2.2c.3 0 1.9.1 1.9-1.6 0-1.5-1.5-1.2-1.5-1.8 0-.3.2-.4.7-.4.2 0 .8.1.8.1l.2-1.1s-.4-.1-1.1-.1c-.9 0-1.8.4-1.8 1.6 0 1.4 1.5 1.3 1.5 1.9 0 .4-.4.4-.8.4-.6 0-1.1-.2-1.1-.2l-.2 1.1c0-.1.3.1 1.4.1zm24.3-6l-.2 1.7s-.5-.6-1.2-.6c-1.4 0-2.1 1.4-2.1 2.9 0 1 .5 2 1.5 2 .7 0 1.1-.5 1.1-.5l-.1.4h1.2l.9-5.9h-1.1zm-.5 3.2c0 .7-.3 1.5-1 1.5-.4 0-.6-.4-.6-1 0-1 .4-1.6 1-1.6.4.1.6.4.6 1.1zm-33.3 2.7l.7-4.4.1 4.4h.8l1.6-4.4-.7 4.4h1.3l1-5.9h-2l-1.2 3.6v-3.6h-1.9l-1 5.9h1.3zm18.9 0c.4-2 .5-3.6 1.5-3.3.2-.8.5-1.5.7-1.8 0 0-.1-.1-.4-.1-.6 0-1.3 1.1-1.3 1.1l.1-.7h-1.1l-.8 4.8h1.3zm7.4-4.9c-.8 0-1.5.3-1.5.3l-.2 1.1s.5-.2 1.3-.2c.5 0 .8.1.8.4v.3h-.5c-1.2 0-2.2.5-2.2 1.8 0 1.1.7 1.3 1.2 1.3.9 0 1.2-.5 1.2-.6v.5h1.1l.5-3.4c0-1.4-1.3-1.5-1.7-1.5zm.2 2.8c0 .2-.1 1.2-.8 1.2-.4 0-.5-.3-.5-.5 0-.3.2-.7 1.1-.7h.2zm2.7 2.1c.2-1.5.6-3.6 1.5-3.3.2-.8 0-.8-.3-.8h-.7l.1-.7h-1.1l-.8 4.8h1.3z"/><path fill="#fff" d="M23.4 20.5l.2-1h-.3c-.4 0-.5-.2-.4-.4l.3-2.1h.6l.2-1.2h-.6l.1-.7h-1.2s-.7 4-.7 4.5c0 .7.4 1 1 1 .3 0 .7-.1.8-.1zm.4-2c0 1.7 1.1 2.2 2.1 2.2.9 0 1.3-.2 1.3-.2l.2-1.2s-.7.3-1.3.3c-1.3 0-1.1-1-1.1-1h2.5s.2-.8.2-1.1c0-.8-.4-1.8-1.8-1.8-1.2-.1-2.1 1.3-2.1 2.8zm2.2-1.8c.7 0 .6.8.6.8h-1.4s.1-.8.8-.8zm7.7 3.8l.2-1.3s-.6.3-1 .3c-.9 0-1.2-.7-1.2-1.4 0-1.5.8-2.3 1.6-2.3.6 0 1.1.4 1.1.4l.2-1.3s-.7-.3-1.4-.3c-1.4 0-2.8 1.2-2.8 3.5 0 1.5.7 2.5 2.2 2.5.5 0 1.1-.1 1.1-.1zm-17-4.9c-.8 0-1.5.3-1.5.3l-.2 1.1s.5-.2 1.3-.2c.5 0 .8.1.8.4v.3h-.5c-1.1 0-2.2.5-2.2 1.8 0 1.1.7 1.3 1.2 1.3.9 0 1.2-.6 1.3-.6v.5h1.1l.5-3.4c-.2-1.4-1.4-1.5-1.8-1.5zm.2 2.8c0 .2-.1 1.2-.9 1.2-.4 0-.5-.3-.5-.5 0-.3.2-.7 1.1-.7h.3zm2.6 2.2c.3 0 1.9.1 1.9-1.6 0-1.5-1.5-1.2-1.5-1.8 0-.3.2-.4.7-.4.2 0 .8.1.8.1l.2-1.1s-.4-.1-1.1-.1c-.9 0-1.8.4-1.8 1.6 0 1.4 1.5 1.3 1.5 1.9 0 .4-.4.4-.8.4-.6 0-1.1-.2-1.1-.2l-.2 1.1c0-.1.4.1 1.4.1zm24.4-5.9l-.3 1.6s-.5-.6-1.2-.6c-1.1 0-2.1 1.4-2.1 2.9 0 1 .5 2 1.5 2 .7 0 1.1-.5 1.1-.5l.1.4h1.2l.9-5.9-1.2.1zm-.6 3.2c0 .6-.3 1.5-1 1.5-.4 0-.6-.4-.6-1 0-1 .4-1.6 1-1.6.4.1.6.4.6 1.1zm-33.3 2.6l.7-4.4.1 4.4h.8l1.6-4.4-.7 4.4h1.3l1-5.9h-1.9l-1.2 3.6-.1-3.6h-1.8l-1 5.9h1.2zm18.9 0c.4-2 .4-3.7 1.3-3.4.1-.8.3-1.1.5-1.4h-.2c-.6 0-1 .8-1 .8l.1-.7h-1.1l-.8 4.8h1.2v-.1zm7.7-4.9c-.8 0-1.5.3-1.5.3l-.2 1.1s.5-.2 1.3-.2c.5 0 .8.1.8.4v.3h-.5c-1.1 0-2.2.5-2.2 1.8 0 1.1.7 1.3 1.2 1.3.9 0 1.2-.6 1.3-.6v.5h1.1l.5-3.4c-.1-1.4-1.4-1.5-1.8-1.5zm.2 2.8c0 .2-.1 1.2-.9 1.2-.4 0-.5-.3-.5-.5 0-.3.2-.7 1.1-.7h.3zm2.4 2.1c.4-2 .4-3.7 1.3-3.4.1-.8.3-1.1.5-1.4h-.2c-.6 0-1 .8-1 .8l.1-.7h-1.1l-.8 4.7h1.2z"/></svg>