<svg xmlns="http://www.w3.org/2000/svg" width="54" height="35"><path fill="#21205F" d="M0 0h54v35h-54z"/><path fill="#941B1E" d="M19.188 5.816c-6.334.041-11.461 5.206-11.461 11.563 0 6.38 5.169 11.561 11.536 11.561 2.988 0 5.713-1.142 7.764-3.014h-.002.003c.42-.383.811-.797 1.172-1.237h-2.364c-.316-.384-.603-.78-.86-1.191h4.076c.246-.397.474-.809.671-1.239h-5.42c-.186-.397-.346-.803-.482-1.214h6.385c.386-1.152.594-2.385.594-3.667 0-.849-.091-1.677-.265-2.476h-7.055c.088-.411.198-.815.33-1.214h6.387c-.142-.425-.308-.838-.498-1.239h-5.397c.194-.416.415-.822.661-1.214h4.072c-.27-.433-.571-.846-.896-1.238h-2.27c.351-.415.737-.805 1.157-1.168-2.05-1.872-4.774-3.014-7.765-3.014l-.073.001z"/><path fill="#F26722" d="M46.272 17.381c.003 6.385-5.161 11.562-11.533 11.565-6.371.001-11.536-5.174-11.538-11.561v-.004c-.001-6.385 5.162-11.562 11.534-11.565 6.371-.001 11.537 5.174 11.537 11.559v.006z"/><path fill="#F8991D" d="M46.272 17.509c.003 6.385-5.161 11.562-11.533 11.565-6.371.001-11.536-5.174-11.538-11.558v-.007c-.001-6.384 5.162-11.562 11.534-11.563 6.371-.001 11.537 5.172 11.537 11.559v.004z"/><path fill="#CB2026" d="M19.188 5.949c-6.334.04-11.462 5.205-11.462 11.56 0 6.382 5.169 11.562 11.536 11.562 2.988 0 5.713-1.141 7.764-3.011l-.002-.002h.003c.42-.383.811-.796 1.172-1.236h-2.364c-.316-.383-.603-.78-.86-1.191h4.076c.246-.399.474-.812.671-1.238h-5.42c-.186-.397-.346-.804-.482-1.214h6.385c.386-1.152.594-2.386.594-3.668 0-.849-.091-1.677-.265-2.476h-7.054c.088-.411.198-.816.33-1.215h6.387c-.142-.424-.308-.836-.498-1.237h-5.397c.194-.418.415-.823.661-1.215h4.072c-.27-.433-.571-.846-.896-1.238h-2.27c.351-.415.737-.805 1.157-1.168-2.05-1.87-4.774-3.012-7.765-3.012l-.073-.001z"/><path d="M23.091 20.826l.154-1.045-.316.035c-.429 0-.482-.228-.447-.395l.42-2.105h.65l.134-1.188h-.612l.125-.72h-1.281c-.027.026-.726 4.048-.726 4.538 0 .725.407 1.047.979 1.041.447-.003.797-.128.92-.161zm.389-1.993c0 1.739 1.146 2.151 2.122 2.151.901 0 1.374-.209 1.374-.209l.216-1.188s-.761.311-1.38.311c-1.318 0-1.088-.985-1.088-.985l2.534.008s.161-.798.161-1.124c0-.811-.44-1.805-1.789-1.805-1.235 0-2.15 1.333-2.15 2.841zm2.154-1.739c.693 0 .566.781.566.845h-1.365c0-.081.13-.845.799-.845zm7.779 3.732l.219-1.343s-.603.305-1.016.305c-.873 0-1.223-.668-1.223-1.385 0-1.453.749-2.251 1.585-2.251.626 0 1.128.351 1.128.351l.199-1.304s-.591-.428-1.23-.432c-1.919-.008-3.017 1.333-3.017 3.648 0 1.533.812 2.579 2.278 2.579.415.001 1.077-.168 1.077-.168zm-17.078-4.817c-.842 0-1.488.273-1.488.273l-.178 1.061s.533-.218 1.338-.218c.458 0 .793.051.793.426 0 .224-.041.309-.041.309s-.361-.03-.528-.03c-1.199 0-2.178.453-2.178 1.824 0 1.08.731 1.327 1.186 1.327.866 0 1.21-.548 1.229-.551l-.01.456h1.082l.482-3.389c.001-1.44-1.251-1.488-1.687-1.488zm.188 2.755c.023.206-.054 1.184-.793 1.184-.382 0-.48-.292-.48-.465 0-.337.183-.741 1.082-.741l.191.022zm2.648 2.19c.277 0 1.858.071 1.858-1.565 0-1.528-1.464-1.227-1.464-1.841 0-.306.239-.402.676-.402.173 0 .839.056.839.056l.155-1.087s-.432-.097-1.133-.097c-.91 0-1.832.363-1.832 1.608 0 1.409 1.538 1.266 1.538 1.86 0 .397-.429.431-.761.431-.572 0-1.089-.199-1.09-.188l-.164 1.075c.029.008.348.15 1.378.15zm24.372-5.93l-.222 1.659s-.463-.64-1.187-.64c-1.361 0-2.062 1.359-2.062 2.921 0 1.011.5 1.997 1.523 1.997.735 0 1.142-.512 1.142-.512l-.053.439h1.194l.939-5.855-1.274-.009zm-.527 3.223c0 .651-.322 1.519-.986 1.519-.443 0-.65-.371-.65-.955 0-.956.429-1.585.968-1.585.442 0 .668.305.668 1.021zm-33.331 2.645l.748-4.419.109 4.419h.846l1.579-4.419-.699 4.419h1.257l.969-5.861-1.998-.015-1.188 3.589-.032-3.575h-1.832l-.982 5.861h1.223v.001zm18.922.008c.359-2.037.486-3.646 1.528-3.312.15-.789.507-1.474.669-1.808 0 0-.05-.078-.372-.078-.551 0-1.286 1.119-1.286 1.119l.11-.692h-1.145l-.765 4.771h1.261zm7.377-4.891c-.843 0-1.489.273-1.489.273l-.178 1.061s.534-.218 1.339-.218c.458 0 .792.051.792.426 0 .224-.042.309-.042.309s-.36-.03-.527-.03c-1.199 0-2.179.453-2.179 1.824 0 1.08.733 1.327 1.188 1.327.865 0 1.208-.548 1.228-.551l-.009.454h1.081l.483-3.389c.001-1.438-1.253-1.486-1.687-1.486zm.188 2.755c.022.206-.053 1.184-.793 1.184-.384 0-.481-.292-.481-.465 0-.337.183-.741 1.082-.741l.192.022zm2.745 2.136c.196-1.498.559-3.603 1.525-3.312.15-.789.007-.787-.315-.787-.551 0-.674.021-.674.021l.112-.692h-1.145l-.768 4.771h1.265v-.001z" fill="#21205F"/><path d="M23.411 20.454l.154-1.047-.317.037c-.427 0-.475-.229-.447-.397l.346-2.134h.649l.156-1.158h-.611l.124-.721h-1.228c-.027.029-.726 4.05-.726 4.538 0 .726.405 1.049.979 1.043.448-.004.798-.128.921-.161zm.389-1.996c0 1.741 1.146 2.153 2.123 2.153.9 0 1.297-.202 1.297-.202l.217-1.188s-.686.303-1.305.303c-1.319 0-1.088-.986-1.088-.986h2.496s.161-.798.161-1.122c0-.811-.403-1.8-1.751-1.8-1.235.001-2.15 1.335-2.15 2.842zm2.154-1.738c.693 0 .565.78.565.844h-1.363c0-.081.128-.844.798-.844zm7.778 3.732l.22-1.34s-.604.303-1.017.303c-.873 0-1.223-.668-1.223-1.383 0-1.455.752-2.253 1.585-2.253.627 0 1.129.353 1.129.353l.2-1.303s-.743-.303-1.383-.303c-1.419 0-2.798 1.232-2.798 3.549 0 1.533.744 2.549 2.211 2.549.416-.002 1.076-.172 1.076-.172zm-17.077-4.815c-.842 0-1.488.271-1.488.271l-.178 1.061s.533-.217 1.338-.217c.458 0 .793.053.793.425 0 .226-.041.31-.041.31s-.361-.031-.528-.031c-1.062 0-2.179.456-2.179 1.824 0 1.081.732 1.328 1.187 1.328.866 0 1.24-.563 1.261-.565l-.041.471h1.081l.482-3.39c0-1.442-1.251-1.487-1.687-1.487zm.264 2.759c.023.208-.13 1.178-.869 1.178-.381 0-.48-.293-.48-.464 0-.338.183-.743 1.082-.743.208.001.232.024.267.029zm2.572 2.186c.277 0 1.859.07 1.859-1.565 0-1.53-1.465-1.228-1.465-1.843 0-.305.239-.4.676-.4.172 0 .839.054.839.054l.155-1.087s-.432-.097-1.134-.097c-.909 0-1.831.364-1.831 1.608 0 1.409 1.538 1.269 1.538 1.862 0 .395-.43.429-.761.429-.573 0-1.089-.196-1.091-.188l-.163 1.074c.031.01.348.153 1.378.153zm24.415-5.92l-.265 1.647s-.464-.641-1.186-.641c-1.126 0-2.064 1.36-2.064 2.923 0 1.008.501 1.996 1.523 1.996.735 0 1.144-.514 1.144-.514l-.054.439h1.193l.938-5.853-1.229.003zm-.57 3.212c0 .65-.32 1.519-.986 1.519-.443 0-.649-.372-.649-.956 0-.954.428-1.584.966-1.584.442 0 .669.303.669 1.021zm-33.331 2.645l.748-4.42.109 4.42h.847l1.579-4.42-.7 4.42h1.257l.969-5.862h-1.944l-1.211 3.596-.063-3.596h-1.793l-.983 5.862h1.185zm18.925.007c.356-2.038.423-3.691 1.276-3.389.148-.789.293-1.094.457-1.428l-.237-.016c-.551 0-.957.753-.957.753l.109-.692h-1.144l-.768 4.771h1.264zm7.637-4.889c-.843 0-1.49.271-1.49.271l-.178 1.061s.535-.217 1.338-.217c.459 0 .793.053.793.425 0 .226-.041.31-.041.31s-.361-.031-.527-.031c-1.062 0-2.179.456-2.179 1.824 0 1.081.733 1.328 1.187 1.328.866 0 1.241-.563 1.26-.565l-.04.471h1.08l.482-3.39c.002-1.442-1.251-1.487-1.685-1.487zm.262 2.759c.022.208-.13 1.178-.867 1.178-.384 0-.482-.293-.482-.464 0-.338.183-.743 1.082-.743.209.001.233.024.267.029zm2.412 2.13c.358-2.038.425-3.691 1.276-3.389.15-.789.294-1.094.456-1.428l-.234-.016c-.551 0-.96.753-.96.753l.109-.692h-1.141l-.768 4.771h1.262z" fill="#fff"/></svg>