<svg xmlns="http://www.w3.org/2000/svg" width="54" height="35"><path fill="#EAEAEA" d="M0 0h54v35h-54z"/><path fill="#293689" d="M21.354 23.434l2.01-11.868h3.253l-2.01 11.868zm14.837-11.561c-.645-.241-1.655-.498-2.917-.498-3.216 0-5.481 1.609-5.5 3.916-.019 1.706 1.617 2.657 2.852 3.225 1.267.581 1.692.952 1.687 1.472-.008.796-1.012 1.159-1.947 1.159-1.303 0-1.994-.18-3.063-.623l-.419-.188-.457 2.657c.76.331 2.166.618 3.625.633 3.422 0 5.643-1.591 5.668-4.055.012-1.35-.855-2.377-2.732-3.225-1.138-.549-1.835-.915-1.827-1.471 0-.493.589-1.021 1.863-1.021 1.064-.018 1.835.214 2.436.454l.292.137.439-2.572zm5.547-.307c-.779 0-1.342.237-1.685 1.011l-4.823 10.857h3.445l.67-1.818h4.115l.383 1.818h3.062l-2.68-11.867h-2.487zm-1.478 7.676c.27-.685 1.297-3.318 1.297-3.318l.431-1.132.221 1.022.753 3.428h-2.702zm-24.84.459l-.287-1.627c-.593-1.896-2.437-3.947-4.502-4.977l2.875 10.336h3.445l5.168-11.867h-3.445l-3.254 8.135z"/><path fill="#F8991D" d="M7.094 11.566v.191c4.083.982 6.917 3.464 8.039 6.316l-1.18-5.495c-.196-.751-.793-.985-1.5-1.013h-5.359z"/></svg>