<svg xmlns="http://www.w3.org/2000/svg" width="54" height="35"><path fill="#EAEAEA" d="M0 0h54v35H0z"/><path fill="#293689" d="M21.354 23.434l2.01-11.868h3.253l-2.01 11.868zm14.837-11.56c-.644-.242-1.654-.5-2.916-.5-3.216 0-5.48 1.61-5.5 3.917-.02 1.707 1.617 2.658 2.852 3.226 1.267.58 1.692.952 1.687 1.472-.008.796-1.012 1.16-1.947 1.16-1.303 0-1.994-.18-3.063-.624l-.42-.188-.456 2.657c.76.33 2.166.618 3.625.633 3.422 0 5.643-1.59 5.668-4.055.012-1.35-.855-2.376-2.732-3.224-1.138-.55-1.835-.915-1.827-1.47 0-.494.59-1.022 1.864-1.022 1.064-.018 1.835.214 2.436.454l.292.137.44-2.572zm5.548-.308c-.78 0-1.342.237-1.685 1.01L35.23 23.435h3.445l.67-1.818h4.115l.383 1.818h3.062l-2.68-11.867h-2.487zm-1.478 7.676c.27-.685 1.297-3.318 1.297-3.318l.43-1.132.222 1.022.752 3.428H40.26zm-24.84.46l-.287-1.628c-.593-1.896-2.437-3.947-4.502-4.977l2.876 10.336h3.445l5.17-11.867h-3.446L15.42 19.7z"/><path fill="#F8991D" d="M7.094 11.566v.19c4.083.983 6.917 3.465 8.04 6.317l-1.18-5.495c-.197-.75-.794-.985-1.5-1.013h-5.36z"/></svg>