<svg xmlns="http://www.w3.org/2000/svg" width="54" height="35"><path fill="#EAEAEA" d="M0 0h54v35H0z"/><path fill="#293689" d="M21.354 23.434l2.01-11.868h3.253l-2.01 11.868zm14.837-11.56c-.64-.242-1.65-.5-2.91-.5-3.21 0-5.48 1.61-5.5 3.917-.02 1.71 1.62 2.66 2.85 3.23 1.27.58 1.69.95 1.69 1.47-.01.8-1.01 1.16-1.943 1.16-1.304 0-1.995-.18-3.064-.62l-.42-.19-.46 2.66c.76.33 2.164.62 3.623.636 3.422 0 5.643-1.59 5.668-4.056.015-1.35-.852-2.377-2.73-3.225-1.14-.55-1.834-.918-1.826-1.47 0-.497.59-1.025 1.864-1.025 1.063-.02 1.834.213 2.435.453l.293.14.44-2.575zm5.55-.308c-.78 0-1.34.237-1.68 1.01l-4.82 10.86h3.447l.67-1.82h4.115l.384 1.82h3.06l-2.68-11.868h-2.49zm-1.48 7.676c.27-.685 1.3-3.318 1.3-3.318l.43-1.132.22 1.022.76 3.428h-2.71zm-24.84.46l-.28-1.628c-.59-1.896-2.432-3.947-4.5-4.977l2.88 10.336h3.444l5.17-11.867h-3.45L15.42 19.7z"/><path fill="#F8991D" d="M7.094 11.566v.19c4.083.983 6.917 3.465 8.04 6.317l-1.18-5.495c-.197-.75-.794-.985-1.5-1.013h-5.36z"/></svg>