<svg xmlns="http://www.w3.org/2000/svg" width="54" height="35"><path fill="#EAEAEA" d="M0 0h54v35H0z"/><path fill="#293689" d="M21.354 23.434l2.01-11.868h3.253l-2.01 11.868zm14.837-11.56c-.643-.242-1.653-.5-2.915-.5-3.216 0-5.48 1.61-5.5 3.917-.02 1.708 1.617 2.66 2.852 3.227 1.267.58 1.692.952 1.687 1.472-.008.795-1.012 1.16-1.947 1.16-1.303 0-1.994-.18-3.063-.625l-.42-.188-.456 2.657c.76.33 2.166.618 3.625.633 3.422 0 5.643-1.59 5.668-4.055.013-1.35-.854-2.376-2.73-3.224-1.14-.55-1.836-.915-1.828-1.47 0-.494.59-1.022 1.864-1.022 1.064-.018 1.835.214 2.436.454l.292.137.44-2.572zm5.55-.308c-.78 0-1.343.237-1.686 1.01l-4.824 10.86h3.445l.67-1.82h4.115l.383 1.82h3.062l-2.68-11.868h-2.487zm-1.48 7.676c.27-.685 1.298-3.318 1.298-3.318l.43-1.132.222 1.022.752 3.428H40.26zm-24.84.46l-.286-1.628c-.593-1.896-2.437-3.947-4.502-4.977l2.876 10.336h3.445l5.17-11.867h-3.446L15.42 19.7z"/><path fill="#F8991D" d="M7.094 11.566v.19c4.083.983 6.917 3.465 8.04 6.317l-1.18-5.495c-.197-.75-.794-.985-1.5-1.013h-5.36z"/></svg>