<svg xmlns="http://www.w3.org/2000/svg" width="54" height="35"><path fill="#EAEAEA" d="M0 0h54v35h-54v-35z"/><path fill="#293689" d="M21.4 23.4l2-11.9h3.3l-2 11.9h-3.3zm14.8-11.5c-.6-.2-1.7-.5-2.9-.5-3.2 0-5.5 1.6-5.5 3.9 0 1.7 1.6 2.7 2.9 3.2 1.3.6 1.7 1 1.7 1.5 0 .8-1 1.2-1.9 1.2-1.3 0-2-.2-3.1-.6l-.4-.2-.6 2.6c.8.3 2.2.6 3.6.6 3.4 0 5.6-1.6 5.7-4.1 0-1.3-.9-2.4-2.7-3.2-1.1-.5-1.8-.9-1.8-1.5 0-.5.6-1 1.9-1 1.1 0 1.8.2 2.4.5l.3.1.4-2.5zm5.5-.3c-.8 0-1.3.2-1.7 1l-4.8 10.9h3.4l.7-1.8h4.1l.4 1.8h3.1l-2.7-11.9h-2.5zm-1.4 7.6c.3-.7 1.3-3.3 1.3-3.3l.4-1.1.2 1 .8 3.4h-2.7zm-24.9.5l-.3-1.6c-.6-1.9-2.4-3.9-4.5-5l2.9 10.3h3.5l5.2-11.9h-3.4l-3.4 8.2z"/><path fill="#F8991D" d="M7.1 11.6v.2c4.1 1 6.9 3.5 8 6.3l-1.1-5.5c-.2-.8-.8-1-1.5-1h-5.4z"/></svg>