<svg width="30" height="29" viewBox="0 0 30 29" xmlns="http://www.w3.org/2000/svg"><g fill="none" fill-rule="evenodd"><path d="M2.115 27.857v-8.1l-1.755.165v-1.365l2.85-1.155h1.2v10.455H2.115zm6.705.18c-1.41 0-2.34-.3-3-.66v-1.635c.66.27 1.44.465 2.37.465 1.44 0 2.25-.48 2.25-1.65 0-1.2-.75-1.605-2.25-1.605-.795 0-1.395.09-1.95.24l.36-5.73h5.865v1.725H8.28l-.165 2.205c.33-.075.645-.12 1.155-.12 2.31 0 3.585 1.02 3.585 3.3 0 2.13-1.485 3.465-4.035 3.465z" fill="#FFF"/><path d="M17.357 24.957c5.925 0 10.728-4.403 10.728-9.834 0-5.432-4.803-9.835-10.728-9.835H5.008" stroke="#FFF" stroke-width="2"/><path fill="#FFF" d="M.308 5.288l11.538 5.289V0z"/></g></svg>