<svg width="29" height="27" viewBox="0 0 29 27" xmlns="http://www.w3.org/2000/svg"><g fill="none" fill-rule="evenodd"><path d="M15.893 26.837v-8.1l-1.755.165v-1.365l2.85-1.155h1.2v10.455h-2.295zm6.705.18c-1.41 0-2.34-.3-3-.66v-1.635c.66.27 1.44.465 2.37.465 1.44 0 2.25-.48 2.25-1.65 0-1.2-.75-1.605-2.25-1.605-.795 0-1.395.09-1.95.24l.36-5.73h5.865v1.725h-4.185l-.165 2.205c.33-.075.645-.12 1.155-.12 2.31 0 3.585 1.02 3.585 3.3 0 2.13-1.485 3.465-4.035 3.465z" /><path d="M11.739 24.957c-5.896 0-10.675-4.403-10.675-9.834 0-5.432 4.78-9.835 10.675-9.835h12.288" stroke-width="2" class="arrow-line" /><path d="M28.704 5.288l-11.482 5.289V0z"/></g></svg>
