<?xml version="1.0" encoding="UTF-8"?>
<svg width="533px" height="30px" viewBox="0 0 533 30" version="1.1" xmlns="http://www.w3.org/2000/svg" xmlns:xlink="http://www.w3.org/1999/xlink">
    <!-- Generator: Sketch 52.1 (67048) - http://www.bohemiancoding.com/sketch -->
    <title>waveform</title>
    <desc>Created with Sketch.</desc>
    <defs>
        <rect id="path-1" x="0" y="0" width="533" height="30"></rect>
    </defs>
    <g id="Page-4" stroke="none" stroke-width="1" fill="none" fill-rule="evenodd">
        <g id="Podcast-Front-V2-episode-art-Copy-2" transform="translate(-388.000000, -436.000000)">
            <g id="waveform" transform="translate(388.000000, 436.000000)">
                <mask id="mask-2" fill="white">
                    <use xlink:href="#path-1"></use>
                </mask>
                <g id="Mask"></g>
                <g mask="url(#mask-2)" fill="#767676" fill-rule="nonzero" id="Rectangle-path">
                    <g transform="translate(-61.000000, -3.266788)">
                        <polygon points="61.704 10.8349624 63.953 10.8349624 63.953 46.843985 61.704 46.843985"></polygon>
                        <polygon points="65.077 12.4827068 67.325 12.4827068 67.325 46.843985 65.077 46.843985"></polygon>
                        <polygon points="68.449 14.5116541 70.698 14.5116541 70.698 46.843985 68.449 46.843985"></polygon>
                        <polygon points="71.822 16.2868421 74.07 16.2868421 74.07 46.843985 71.822 46.843985"></polygon>
                        <polygon points="75.195 19.0759398 77.443 19.0759398 77.443 46.843985 75.195 46.843985"></polygon>
                        <polygon points="78.567 18.8221805 80.816 18.8221805 80.816 46.843985 78.567 46.843985"></polygon>
                        <polygon points="81.94 13.243985 84.188 13.243985 84.188 46.843985 81.94 46.843985"></polygon>
                        <polygon points="85.312 14.6379699 87.561 14.6379699 87.561 46.843985 85.312 46.843985"></polygon>
                        <polygon points="88.685 16.0342105 90.933 16.0342105 90.933 46.843985 88.685 46.843985"></polygon>
                        <polygon points="92.058 16.6669173 94.306 16.6669173 94.306 46.843985 92.058 46.843985"></polygon>
                        <polygon points="95.43 16.9206767 97.679 16.9206767 97.679 46.843985 95.43 46.843985"></polygon>
                        <polygon points="98.803 18.3157895 101.051 18.3157895 101.051 46.843985 98.803 46.843985"></polygon>
                        <polygon points="102.177 19.7109023 104.425 19.7109023 104.425 46.8451128 102.177 46.8451128"></polygon>
                        <polygon points="105.549 21.2323308 107.798 21.2323308 107.798 46.843985 105.549 46.843985"></polygon>
                        <polygon points="108.922 21.3586466 111.17 21.3586466 111.17 46.843985 108.922 46.843985"></polygon>
                        <polygon points="112.294 20.8511278 114.543 20.8511278 114.543 46.843985 112.294 46.843985"></polygon>
                        <polygon points="115.667 22.2462406 117.915 22.2462406 117.915 46.8451128 115.667 46.8451128"></polygon>
                        <polygon points="119.04 23.7676692 121.288 23.7676692 121.288 46.843985 119.04 46.843985"></polygon>
                        <polygon points="122.412 24.7827068 124.661 24.7827068 124.661 46.8451128 122.412 46.8451128"></polygon>
                        <polygon points="125.785 10.8349624 128.033 10.8349624 128.033 46.843985 125.785 46.843985"></polygon>
                        <polygon points="129.157 13.1176692 131.406 13.1176692 131.406 46.843985 129.157 46.843985"></polygon>
                        <polygon points="132.53 13.7503759 134.778 13.7503759 134.778 46.843985 132.53 46.843985"></polygon>
                        <polygon points="135.903 12.6101504 138.151 12.6101504 138.151 46.843985 135.903 46.843985"></polygon>
                        <polygon points="139.275 8.67969925 141.524 8.67969925 141.524 46.843985 139.275 46.843985"></polygon>
                        <polygon points="142.648 9.82105263 144.896 9.82105263 144.896 46.843985 142.648 46.843985"></polygon>
                        <polygon points="146.02 11.0887218 148.269 11.0887218 148.269 46.843985 146.02 46.843985"></polygon>
                        <polygon points="149.393 12.6101504 151.641 12.6101504 151.641 46.843985 149.393 46.843985"></polygon>
                        <polygon points="152.766 14.2590226 155.014 14.2590226 155.014 46.8451128 152.766 46.8451128"></polygon>
                        <polygon points="156.138 14.8928571 158.387 14.8928571 158.387 46.843985 156.138 46.843985"></polygon>
                        <polygon points="159.511 5.76315789 161.759 5.76315789 161.759 46.843985 159.511 46.843985"></polygon>
                        <polygon points="162.884 6.77819549 165.133 6.77819549 165.133 46.843985 162.884 46.843985"></polygon>
                        <polygon points="166.257 6.01691729 168.505 6.01691729 168.505 46.843985 166.257 46.843985"></polygon>
                        <polygon points="169.63 8.04586466 171.878 8.04586466 171.878 46.843985 169.63 46.843985"></polygon>
                        <polygon points="173.002 9.43984962 175.251 9.43984962 175.251 46.843985 173.002 46.843985"></polygon>
                        <polygon points="176.375 11.7236842 178.623 11.7236842 178.623 46.8451128 176.375 46.8451128"></polygon>
                        <polygon points="179.747 9.82105263 181.996 9.82105263 181.996 46.843985 179.747 46.843985"></polygon>
                        <polygon points="183.12 5.76315789 185.368 5.76315789 185.368 46.843985 183.12 46.843985"></polygon>
                        <polygon points="186.493 5.00300752 188.741 5.00300752 188.741 46.8451128 186.493 46.8451128"></polygon>
                        <polygon points="189.865 6.39699248 192.114 6.39699248 192.114 46.843985 189.865 46.843985"></polygon>
                        <polygon points="193.238 4.11428571 195.486 4.11428571 195.486 46.843985 193.238 46.843985"></polygon>
                        <polygon points="196.61 5.51052632 198.859 5.51052632 198.859 46.843985 196.61 46.843985"></polygon>
                        <polygon points="199.983 5.00300752 202.231 5.00300752 202.231 46.8451128 199.983 46.8451128"></polygon>
                        <polygon points="203.356 6.77819549 205.604 6.77819549 205.604 46.843985 203.356 46.843985"></polygon>
                        <polygon points="206.728 8.17218045 208.977 8.17218045 208.977 46.843985 206.728 46.843985"></polygon>
                        <polygon points="210.101 10.4548872 212.349 10.4548872 212.349 46.8451128 210.101 46.8451128"></polygon>
                        <polygon points="213.474 11.9763158 215.722 11.9763158 215.722 46.843985 213.474 46.843985"></polygon>
                        <polygon points="216.846 15.2729323 219.095 15.2729323 219.095 46.843985 216.846 46.843985"></polygon>
                        <polygon points="220.219 17.4281955 222.467 17.4281955 222.467 46.843985 220.219 46.843985"></polygon>
                        <polygon points="223.592 15.5266917 225.841 15.5266917 225.841 46.8451128 223.592 46.8451128"></polygon>
                        <polygon points="226.965 7.28458647 229.213 7.28458647 229.213 46.843985 226.965 46.843985"></polygon>
                        <polygon points="230.338 9.82105263 232.586 9.82105263 232.586 46.843985 230.338 46.843985"></polygon>
                        <polygon points="233.71 11.85 235.959 11.85 235.959 46.843985 233.71 46.843985"></polygon>
                        <polygon points="237.083 13.1176692 239.331 13.1176692 239.331 46.843985 237.083 46.843985"></polygon>
                        <polygon points="240.455 13.8789474 242.704 13.8789474 242.704 46.843985 240.455 46.843985"></polygon>
                        <polygon points="243.828 14.3853383 246.076 14.3853383 246.076 46.843985 243.828 46.843985"></polygon>
                        <polygon points="247.201 16.0342105 249.449 16.0342105 249.449 46.843985 247.201 46.843985"></polygon>
                        <polygon points="250.573 6.27067669 252.822 6.27067669 252.822 46.8451128 250.573 46.8451128"></polygon>
                        <polygon points="253.946 6.65075188 256.194 6.65075188 256.194 46.843985 253.946 46.843985"></polygon>
                        <polygon points="257.318 8.17218045 259.567 8.17218045 259.567 46.843985 257.318 46.843985"></polygon>
                        <polygon points="260.691 9.82105263 262.939 9.82105263 262.939 46.843985 260.691 46.843985"></polygon>
                        <polygon points="264.064 11.5951128 266.312 11.5951128 266.312 46.843985 264.064 46.843985"></polygon>
                        <polygon points="267.436 10.962406 269.685 10.962406 269.685 46.843985 267.436 46.843985"></polygon>
                        <polygon points="270.809 12.6101504 273.057 12.6101504 273.057 46.843985 270.809 46.843985"></polygon>
                        <polygon points="274.181 12.1026316 276.43 12.1026316 276.43 46.843985 274.181 46.843985"></polygon>
                        <polygon points="277.554 13.3703008 279.802 13.3703008 279.802 46.843985 277.554 46.843985"></polygon>
                        <polygon points="280.927 14.5116541 283.175 14.5116541 283.175 46.843985 280.927 46.843985"></polygon>
                        <polygon points="284.3 16.0342105 286.549 16.0342105 286.549 46.843985 284.3 46.843985"></polygon>
                        <polygon points="287.673 16.9206767 289.921 16.9206767 289.921 46.843985 287.673 46.843985"></polygon>
                        <polygon points="291.045 18.1894737 293.294 18.1894737 293.294 46.843985 291.045 46.843985"></polygon>
                        <polygon points="294.418 17.5545113 296.666 17.5545113 296.666 46.843985 294.418 46.843985"></polygon>
                        <polygon points="297.791 16.5406015 300.039 16.5406015 300.039 46.843985 297.791 46.843985"></polygon>
                        <polygon points="301.163 17.9345865 303.412 17.9345865 303.412 46.843985 301.163 46.843985"></polygon>
                        <polygon points="304.536 19.3308271 306.784 19.3308271 306.784 46.8451128 304.536 46.8451128"></polygon>
                        <polygon points="307.908 21.1048872 310.157 21.1048872 310.157 46.843985 307.908 46.843985"></polygon>
                        <polygon points="311.281 23.006391 313.53 23.006391 313.53 46.843985 311.281 46.843985"></polygon>
                        <polygon points="314.654 14.6379699 316.902 14.6379699 316.902 46.843985 314.654 46.843985"></polygon>
                        <polygon points="318.026 16.0342105 320.275 16.0342105 320.275 46.843985 318.026 46.843985"></polygon>
                        <polygon points="321.399 15.2729323 323.647 15.2729323 323.647 46.843985 321.399 46.843985"></polygon>
                        <polygon points="324.772 16.6669173 327.02 16.6669173 327.02 46.843985 324.772 46.843985"></polygon>
                        <polygon points="328.144 18.0631579 330.393 18.0631579 330.393 46.8451128 328.144 46.8451128"></polygon>
                        <polygon points="331.517 19.2033835 333.765 19.2033835 333.765 46.843985 331.517 46.843985"></polygon>
                        <polygon points="334.889 4.87556391 337.138 4.87556391 337.138 46.843985 334.889 46.843985"></polygon>
                        <polygon points="338.262 8.29849624 340.51 8.29849624 340.51 46.843985 338.262 46.843985"></polygon>
                        <polygon points="341.635 7.66578947 343.883 7.66578947 343.883 46.843985 341.635 46.843985"></polygon>
                        <polygon points="345.008 9.31353383 347.257 9.31353383 347.257 46.843985 345.008 46.843985"></polygon>
                        <polygon points="348.381 10.8349624 350.629 10.8349624 350.629 46.843985 348.381 46.843985"></polygon>
                        <polygon points="351.753 6.52443609 354.002 6.52443609 354.002 46.843985 351.753 46.843985"></polygon>
                        <polygon points="355.126 9.05977444 357.374 9.05977444 357.374 46.843985 355.126 46.843985"></polygon>
                        <polygon points="358.499 11.9763158 360.747 11.9763158 360.747 46.843985 358.499 46.843985"></polygon>
                        <polygon points="361.871 13.6240602 364.12 13.6240602 364.12 46.843985 361.871 46.843985"></polygon>
                        <polygon points="365.244 15.2729323 367.492 15.2729323 367.492 46.843985 365.244 46.843985"></polygon>
                        <polygon points="368.616 16.6669173 370.865 16.6669173 370.865 46.843985 368.616 46.843985"></polygon>
                        <polygon points="371.989 16.5406015 374.237 16.5406015 374.237 46.843985 371.989 46.843985"></polygon>
                        <polygon points="375.362 18.4432331 377.61 18.4432331 377.61 46.8451128 375.362 46.8451128"></polygon>
                        <polygon points="378.734 18.0631579 380.983 18.0631579 380.983 46.8451128 378.734 46.8451128"></polygon>
                        <polygon points="382.107 8.17218045 384.355 8.17218045 384.355 46.843985 382.107 46.843985"></polygon>
                        <polygon points="385.479 9.05977444 387.728 9.05977444 387.728 46.843985 385.479 46.843985"></polygon>
                        <polygon points="388.852 10.3274436 391.1 10.3274436 391.1 46.843985 388.852 46.843985"></polygon>
                        <polygon points="392.225 11.0887218 394.473 11.0887218 394.473 46.843985 392.225 46.843985"></polygon>
                        <polygon points="395.597 12.9913534 397.846 12.9913534 397.846 46.8451128 395.597 46.8451128"></polygon>
                        <polygon points="398.97 13.4977444 401.218 13.4977444 401.218 46.843985 398.97 46.843985"></polygon>
                        <polygon points="402.343 14.5116541 404.592 14.5116541 404.592 46.843985 402.343 46.843985"></polygon>
                        <polygon points="405.716 16.1605263 407.964 16.1605263 407.964 46.843985 405.716 46.843985"></polygon>
                        <polygon points="409.089 15.0191729 411.337 15.0191729 411.337 46.843985 409.089 46.843985"></polygon>
                        <polygon points="412.461 16.5406015 414.71 16.5406015 414.71 46.843985 412.461 46.843985"></polygon>
                        <polygon points="415.834 12.8639098 418.082 12.8639098 418.082 46.843985 415.834 46.843985"></polygon>
                        <polygon points="419.206 14.5116541 421.455 14.5116541 421.455 46.843985 419.206 46.843985"></polygon>
                        <polygon points="422.579 15.9067669 424.827 15.9067669 424.827 46.8451128 422.579 46.8451128"></polygon>
                        <polygon points="425.952 12.8639098 428.2 12.8639098 428.2 46.843985 425.952 46.843985"></polygon>
                        <polygon points="429.324 14.3853383 431.573 14.3853383 431.573 46.843985 429.324 46.843985"></polygon>
                        <polygon points="432.697 15.2729323 434.945 15.2729323 434.945 46.843985 432.697 46.843985"></polygon>
                        <polygon points="436.069 11.468797 438.318 11.468797 438.318 46.843985 436.069 46.843985"></polygon>
                        <polygon points="439.442 13.4977444 441.69 13.4977444 441.69 46.843985 439.442 46.843985"></polygon>
                        <polygon points="442.815 8.67969925 445.063 8.67969925 445.063 46.843985 442.815 46.843985"></polygon>
                        <polygon points="446.187 8.29849624 448.436 8.29849624 448.436 46.843985 446.187 46.843985"></polygon>
                        <polygon points="449.56 9.69473684 451.808 9.69473684 451.808 46.843985 449.56 46.843985"></polygon>
                        <polygon points="452.932 11.0887218 455.181 11.0887218 455.181 46.843985 452.932 46.843985"></polygon>
                        <polygon points="456.305 11.2150376 458.553 11.2150376 458.553 46.843985 456.305 46.843985"></polygon>
                        <polygon points="459.678 6.52443609 461.926 6.52443609 461.926 46.843985 459.678 46.843985"></polygon>
                        <polygon points="463.051 1.95902256 465.3 1.95902256 465.3 46.843985 463.051 46.843985"></polygon>
                        <polygon points="466.424 5.8906015 468.672 5.8906015 468.672 46.843985 466.424 46.843985"></polygon>
                        <polygon points="469.796 7.41090226 472.045 7.41090226 472.045 46.843985 469.796 46.843985"></polygon>
                        <polygon points="473.169 8.55338346 475.417 8.55338346 475.417 46.843985 473.169 46.843985"></polygon>
                        <polygon points="476.542 10.8349624 478.79 10.8349624 478.79 46.843985 476.542 46.843985"></polygon>
                        <polygon points="479.914 1.95902256 482.163 1.95902256 482.163 46.843985 479.914 46.843985"></polygon>
                        <polygon points="483.287 3.22669173 485.535 3.22669173 485.535 46.843985 483.287 46.843985"></polygon>
                        <polygon points="486.659 7.15827068 488.908 7.15827068 488.908 46.843985 486.659 46.843985"></polygon>
                        <polygon points="490.032 9.94736842 492.28 9.94736842 492.28 46.843985 490.032 46.843985"></polygon>
                        <polygon points="493.405 8.04586466 495.653 8.04586466 495.653 46.843985 493.405 46.843985"></polygon>
                        <polygon points="496.777 9.94736842 499.026 9.94736842 499.026 46.843985 496.777 46.843985"></polygon>
                        <polygon points="500.15 10.7086466 502.398 10.7086466 502.398 46.843985 500.15 46.843985"></polygon>
                        <polygon points="503.522 12.356391 505.771 12.356391 505.771 46.843985 503.522 46.843985"></polygon>
                        <polygon points="506.895 13.6240602 509.143 13.6240602 509.143 46.843985 506.895 46.843985"></polygon>
                        <polygon points="510.268 15.1466165 512.516 15.1466165 512.516 46.843985 510.268 46.843985"></polygon>
                        <polygon points="513.64 17.1755639 515.889 17.1755639 515.889 46.8451128 513.64 46.8451128"></polygon>
                        <polygon points="517.013 16.1605263 519.261 16.1605263 519.261 46.843985 517.013 46.843985"></polygon>
                        <polygon points="520.385 15.7793233 522.634 15.7793233 522.634 46.843985 520.385 46.843985"></polygon>
                        <polygon points="523.759 16.7943609 526.007 16.7943609 526.007 46.8451128 523.759 46.8451128"></polygon>
                        <polygon points="527.132 17.0481203 529.38 17.0481203 529.38 46.843985 527.132 46.843985"></polygon>
                        <polygon points="530.504 4.87556391 532.753 4.87556391 532.753 46.843985 530.504 46.843985"></polygon>
                        <polygon points="533.877 6.14323308 536.125 6.14323308 536.125 46.843985 533.877 46.843985"></polygon>
                        <polygon points="537.249 8.42593985 539.498 8.42593985 539.498 46.843985 537.249 46.843985"></polygon>
                        <polygon points="540.622 9.56616541 542.87 9.56616541 542.87 46.843985 540.622 46.843985"></polygon>
                        <polygon points="543.995 10.8349624 546.243 10.8349624 546.243 46.843985 543.995 46.843985"></polygon>
                        <polygon points="547.367 10.4548872 549.616 10.4548872 549.616 46.8451128 547.367 46.8451128"></polygon>
                        <polygon points="550.74 2.46766917 552.988 2.46766917 552.988 46.8451128 550.74 46.8451128"></polygon>
                        <polygon points="554.112 4.11428571 556.361 4.11428571 556.361 46.843985 554.112 46.843985"></polygon>
                        <polygon points="557.485 5.51052632 559.733 5.51052632 559.733 46.843985 557.485 46.843985"></polygon>
                        <polygon points="560.858 8.55338346 563.106 8.55338346 563.106 46.843985 560.858 46.843985"></polygon>
                        <polygon points="564.23 0.565037594 566.479 0.565037594 566.479 46.843985 564.23 46.843985"></polygon>
                        <polygon points="567.603 3.35526316 569.851 3.35526316 569.851 46.8451128 567.603 46.8451128"></polygon>
                        <polygon points="570.976 4.49548872 573.224 4.49548872 573.224 46.843985 570.976 46.843985"></polygon>
                        <polygon points="574.348 5.76315789 576.597 5.76315789 576.597 46.843985 574.348 46.843985"></polygon>
                        <polygon points="577.721 6.39699248 579.969 6.39699248 579.969 46.843985 577.721 46.843985"></polygon>
                        <polygon points="581.094 4.36917293 583.343 4.36917293 583.343 46.843985 581.094 46.843985"></polygon>
                        <polygon points="584.467 5.8906015 586.715 5.8906015 586.715 46.843985 584.467 46.843985"></polygon>
                        <polygon points="587.84 7.15827068 590.088 7.15827068 590.088 46.843985 587.84 46.843985"></polygon>
                        <polygon points="591.212 10.074812 593.463 10.074812 593.463 46.8451128 591.212 46.8451128"></polygon>
                    </g>
                </g>
            </g>
        </g>
    </g>
</svg>