<svg viewBox="0 0 704 84" preserveAspectRatio="xMidYMax slice" xmlns="http://www.w3.org/2000/svg" xmlns:xlink="http://www.w3.org/1999/xlink"><g transform="translate(0,42)"><path d="M-.004 35.914h2.249v5.621H-.004zM3.369 20.287h2.248v21.248H3.369zM6.742 1.288H8.99v40.247H6.742zM10.114 1.963h2.249v39.572h-2.249zM13.487 2.749h2.248v38.786h-2.248zM16.859 4.436h2.249v37.1h-2.249zM20.232 6.347h2.248v35.188h-2.248zM23.605 8.37h2.248v33.165h-2.248zM26.977 9.382h2.249v32.153h-2.249zM30.35 6.685h2.248v34.851H30.35zM33.722 7.809h2.249v33.727h-2.249zM37.095 7.921h2.248v33.614h-2.248zM40.469 9.72h2.248v31.815h-2.248zM43.841 11.519h2.249v30.017h-2.249zM47.214 7.246h2.248v34.289h-2.248zM50.586 8.596h2.249v32.939h-2.249zM53.959 6.685h2.248v34.851h-2.248zM57.332 8.146h2.248v33.39h-2.248zM60.704 9.607h2.249v31.928h-2.249zM64.077 11.068h2.248v30.467h-2.248zM67.449 12.867h2.249v28.668h-2.249zM70.822 14.441h2.248v27.094h-2.248zM74.195 16.914h2.248v24.621h-2.248zM77.567 16.689h2.249v24.846h-2.249zM80.94 11.743h2.248v29.792H80.94zM84.312 12.979h2.249v28.556h-2.249zM87.685 14.217h2.248v27.318h-2.248zM91.058 14.778h2.248v26.757h-2.248zM94.43 15.003h2.249v26.532H94.43zM97.803 16.24h2.248v25.295h-2.248zM101.177 17.477h2.248v24.059h-2.248zM104.549 18.826h2.249v22.709h-2.249zM107.922 18.938h2.248v22.597h-2.248zM111.294 18.488h2.249v23.047h-2.249zM114.667 19.725h2.248v21.811h-2.248zM118.04 21.074h2.248v20.461h-2.248zM121.412 21.974h2.249v19.562h-2.249zM124.785 9.607h2.248v31.928h-2.248zM128.157 11.631h2.249v29.904h-2.249zM131.53 12.192h2.248v29.343h-2.248zM134.903 11.181h2.248v30.354h-2.248zM138.275 7.696h2.249v33.839h-2.249zM141.648 8.708h2.248v32.827h-2.248zM145.02 9.832h2.249v31.703h-2.249zM148.393 11.181h2.248v30.354h-2.248zM151.766 12.643h2.248v28.893h-2.248zM155.138 13.205h2.249v28.33h-2.249zM158.511 5.11h2.248v36.425h-2.248zM161.884 6.01h2.249v35.525h-2.249zM165.257 5.335h2.248v36.2h-2.248zM168.63 7.134h2.248v34.401h-2.248zM172.002 8.37h2.249v33.165h-2.249zM175.375 10.395h2.248v31.141h-2.248zM178.747 8.708h2.249v32.827h-2.249zM182.12 5.11h2.248v36.425h-2.248zM185.493 4.436h2.248v37.1h-2.248zM188.865 5.672h2.249v35.863h-2.249zM192.238 3.648h2.248v37.887h-2.248zM195.61 4.886h2.249v36.649h-2.249zM198.983 4.436h2.248v37.1h-2.248zM202.356 6.01h2.248v35.525h-2.248zM205.728 7.246h2.249v34.289h-2.249zM209.101 9.27h2.248v32.266h-2.248zM212.474 10.619h2.248v30.916h-2.248zM215.846 13.542h2.249v27.993h-2.249zM219.219 15.453h2.248v26.082h-2.248zM222.592 13.767h2.249v27.769h-2.249zM225.965 6.459h2.248v35.076h-2.248zM229.338 8.708h2.248v32.827h-2.248zM232.71 10.507h2.249v31.028h-2.249zM236.083 11.631h2.248v29.904h-2.248zM239.455 12.306h2.249v29.229h-2.249zM242.828 12.755h2.248v28.78h-2.248zM246.201 14.217h2.248v27.318h-2.248zM249.573 5.56h2.249v35.976h-2.249zM252.946 5.897h2.248v35.638h-2.248zM256.318 7.246h2.249v34.289h-2.249zM259.691 8.708h2.248v32.827h-2.248zM263.064 10.281h2.248v31.254h-2.248zM266.436 9.72h2.249v31.815h-2.249zM269.809 11.181h2.248v30.354h-2.248zM273.181 10.731h2.249v30.804h-2.249zM276.554 11.855h2.248v29.68h-2.248zM279.927 12.867h2.248v28.668h-2.248zM283.3 14.217h2.249v27.318H283.3zM286.673 15.003h2.248v26.532h-2.248zM290.045 16.128h2.249v25.407h-2.249zM293.418 15.565h2.248v25.97h-2.248zM296.791 14.666h2.248v26.869h-2.248zM300.163 15.902h2.249v25.633h-2.249zM303.536 17.14h2.248v24.396h-2.248zM306.908 18.713h2.249v22.822h-2.249zM310.281 20.399h2.249v21.136h-2.249zM313.654 12.979h2.248v28.556h-2.248zM317.026 14.217h2.249v27.318h-2.249zM320.399 13.542h2.248v27.993h-2.248zM323.772 14.778h2.248v26.757h-2.248zM327.144 16.016h2.249v25.52h-2.249zM330.517 17.027h2.248v24.508h-2.248zM333.889 4.323h2.249v37.212h-2.249zM337.262 7.358h2.248v34.177h-2.248zM340.635 6.797h2.248v34.738h-2.248zM344.008 8.258h2.249v33.277h-2.249zM347.381 9.607h2.248v31.928h-2.248zM350.753 5.785h2.249v35.75h-2.249zM354.126 8.033h2.248v33.502h-2.248zM357.499 10.619h2.248v30.916h-2.248zM360.871 12.08h2.249v29.455h-2.249zM364.244 13.542h2.248v27.993h-2.248zM367.616 14.778h2.249v26.757h-2.249zM370.989 14.666h2.248v26.869h-2.248zM374.362 16.353h2.248v25.183h-2.248zM377.734 16.016h2.249v25.52h-2.249zM381.107 7.246h2.248v34.289h-2.248zM384.479 8.033h2.249v33.502h-2.249zM387.852 9.157h2.248v32.378h-2.248zM391.225 9.832h2.248v31.703h-2.248zM394.597 11.519h2.249v30.017h-2.249zM397.97 11.968h2.248v29.567h-2.248zM401.343 12.867h2.249v28.668h-2.249zM404.716 14.329h2.248v27.206h-2.248zM408.089 13.317h2.248v28.218h-2.248zM411.461 14.666h2.249v26.869h-2.249zM414.834 11.406h2.248v30.129h-2.248zM418.206 12.867h2.249v28.668h-2.249zM421.579 14.104h2.248v27.432h-2.248zM424.952 11.406h2.248v30.129h-2.248zM428.324 12.755h2.249v28.78h-2.249zM431.697 13.542h2.248v27.993h-2.248zM435.069 10.169h2.249v31.366h-2.249zM438.442 11.968h2.248v29.567h-2.248zM441.815 7.696h2.248v33.839h-2.248zM445.187 7.358h2.249v34.177h-2.249zM448.56 8.596h2.248v32.939h-2.248zM451.932 9.832h2.249v31.703h-2.249zM455.305 9.944h2.248v31.591h-2.248zM458.678 5.785h2.248v35.75h-2.248zM462.051 1.737h2.249v39.798h-2.249zM465.424 5.223h2.248v36.312h-2.248zM468.796 6.571h2.249v34.964h-2.249zM472.169 7.584h2.248v33.951h-2.248zM475.542 9.607h2.248v31.928h-2.248zM478.914 1.737h2.249v39.798h-2.249zM482.287 2.861h2.248v38.674h-2.248zM485.659 6.347h2.249v35.188h-2.249zM489.032 8.82h2.248v32.715h-2.248zM492.405 7.134h2.248v34.401h-2.248zM495.777 8.82h2.249v32.715h-2.249zM499.15 9.495h2.248v32.04h-2.248zM502.522 10.956h2.249v30.579h-2.249zM505.895 12.08h2.248v29.455h-2.248zM509.268 13.43h2.248v28.105h-2.248zM512.64 15.229h2.249v26.307h-2.249zM516.013 14.329h2.248v27.206h-2.248zM519.385 13.991h2.249v27.544h-2.249zM522.759 14.891h2.248v26.645h-2.248zM526.132 15.116h2.248v26.419h-2.248zM529.504 4.323h2.249v37.212h-2.249zM532.877 5.447h2.248v36.088h-2.248zM536.249 7.471h2.249v34.064h-2.249zM539.622 8.482h2.248v33.053h-2.248zM542.995 9.607h2.248v31.928h-2.248zM546.367 9.27h2.249v32.266h-2.249zM549.74 2.188h2.248v39.348h-2.248zM553.112 3.648h2.249v37.887h-2.249zM556.485 4.886h2.248v36.649h-2.248zM559.858 7.584h2.248v33.951h-2.248zM563.23.501h2.249v41.034h-2.249zM566.603 2.975h2.248v38.561h-2.248zM569.976 3.986h2.248v37.549h-2.248zM573.348 5.11h2.249v36.425h-2.249zM576.721 5.672h2.248v35.863h-2.248zM580.094 3.874h2.249v37.661h-2.249zM583.467 5.223h2.248v36.312h-2.248zM586.84 6.347h2.248v35.188h-2.248zM590.212 8.933h2.251v32.603h-2.251zM593.587 8.482h2.248v33.053h-2.248zM596.959 9.72h2.249v31.815h-2.249zM600.332 12.08h2.248v29.455h-2.248zM603.705 13.317h2.248v28.218h-2.248zM607.077 9.944h2.249v31.591h-2.249zM610.45 11.406h2.248v30.129h-2.248zM613.823 11.855h2.249v29.68h-2.249zM617.196 12.867h2.248v28.668h-2.248zM620.569 14.104h2.248v27.432h-2.248zM623.941 15.003h2.249v26.532h-2.249zM627.314 15.229h2.248v26.307h-2.248zM630.686 16.465h2.249v25.07h-2.249zM634.059 17.927h2.248v23.608h-2.248zM637.432 19.051h2.248v22.484h-2.248zM640.804 20.399h2.249v21.136h-2.249zM644.177 14.329h2.248v27.206h-2.248zM647.55 6.347h2.248v35.188h-2.248zM650.922 7.809h2.249v33.727h-2.249zM654.295 8.146h2.248v33.39h-2.248zM657.667 10.169h2.249v31.366h-2.249zM661.04 11.968h2.248v29.567h-2.248zM664.413 14.217h2.248v27.318h-2.248zM667.785 15.678h2.249v25.857h-2.249zM671.158 15.229h2.248v26.307h-2.248zM674.531 15.79h2.249v25.745h-2.249zM677.904 15.565h2.248v25.97h-2.248zM681.277 17.252h2.248v24.283h-2.248zM684.649 13.092h2.249v28.443h-2.249zM688.022 10.507h2.248v31.028h-2.248zM691.394 11.519h2.249v30.017h-2.249zM694.767 12.418h2.248v29.117h-2.248zM698.14 13.767h2.248v27.769h-2.248zM701.512 16.016h2.249v25.52h-2.249z"/></g></svg>
