<?xml version="1.0" standalone="no"?> <!DOCTYPE svg PUBLIC "-//W3C//DTD SVG 1.0//EN" "http://www.w3.org/TR/2001/REC-SVG-20010904/DTD/svg10.dtd" > <svg xmlns="http://www.w3.org/2000/svg" width="100%" height="100%">
<defs >
<font id="GuardianEgyptianWeb-Light" horiz-adv-x="515" ><font-face
    font-family="GuardianEgyptianWeb"
    units-per-em="1000"
    panose-1="2 6 4 3 5 5 3 6 8 3"
    ascent="790"
    descent="-210"
    alphabetic="0" />
<missing-glyph horiz-adv-x="494" />
<glyph unicode=" " glyph-name="space" horiz-adv-x="193" />
<glyph unicode="!" glyph-name="exclam" horiz-adv-x="221" d="M113 -11Q93 -11 81 2T68 34Q68 53 80 66T113 79Q132 79 145 66T158 34Q158 16 145 3T113 -11ZM75 693H149L132 178H92L75 693Z" />
<glyph unicode="&quot;" glyph-name="quotedbl" horiz-adv-x="309" d="M54 693H128L112 503H68L54 693ZM182 693H255L239 503H196L182 693Z" />
<glyph unicode="#" glyph-name="numbersign" horiz-adv-x="485" d="M64 480H157L190 693H235L201 480H326L360 693H405L371 480H454V419H361L340 286H425V225H330L295 0H250L285 225H161L125 0H80L116 225H34V286H126L147 419H64V480ZM170 286H295L316 419H192L170 286Z" />
<glyph unicode="$" glyph-name="dollar" horiz-adv-x="501" d="M189 -9Q143 -4 107 5T44 26L38 172H75L98 65Q116 56 138 48T193 35L224 337L196 349Q164 361 137 376T91 413T60 463T49 530Q49 566 61 597T99 653T164 691T257 705H262L268 765H312L305 702Q345
698 374 690T424 673L430 544H394L374 636Q363 641 345 647T301 657L273 387L294 379Q329 365 360 350T414 313T450 261T463 188Q463 147 450 111T408 48T337 5T234 -11H233L222 -117H178L189 -9ZM400 168Q400 199 393 221T369 261T328 293T267 321L237 33H240Q322
33 361 71T400 168ZM108 544Q108 489 138 459T231 404L257 661H251Q185 661 147 631T108 544Z" />
<glyph unicode="%" glyph-name="percent" horiz-adv-x="796" d="M189 369Q285 369 285 517Q285 591 262 630T190 669Q142 669 118 631T93 519Q93 446 117 408T189 369ZM189 333Q156 333 128 345T78 380T45 437T33 516Q33 562 45 597T79 656T129 692T190 704Q221
704 249 692T299 657T333 600T346 520Q346 475 334 440T301 382T251 346T189 333ZM612 713H664L174 -40H123L612 713ZM606 26Q702 26 702 174Q702 248 678 287T607 326Q558 326 534 288T509 176Q509 103 533 65T606 26ZM606 -10Q573 -10 544 2T494 37T461 94T449
173Q449 219 461 254T495 313T546 349T607 361Q638 361 666 349T716 314T750 257T763 177Q763 132 751 97T718 39T668 3T606 -10Z" />
<glyph unicode="&amp;" glyph-name="ampersand" horiz-adv-x="664" d="M240 -11Q192 -11 153 2T85 40T41 97T25 172Q25 244 68 293T191 384Q163 419 146 456T128 539Q128 578 142 608T179 660T234 693T299 704Q328 704 355 696T402 670T435 629T448 571Q448 536
435 510T398 461T342 420T274 382L459 161Q482 199 497 239T520 318L444 332V363H639V332L570 318Q559 273 539 223T487 127L555 46L644 32V0H509L445 76Q407 38 357 14T240 -11ZM254 34Q307 34 348 54T419 107L214 355Q154 321 125 280T96 180Q96 149 106 122T137
76T187 45T254 34ZM192 546Q192 506 208 474T251 410Q283 427 307 443T349 477T375 517T384 568Q384 616 359 639T296 663Q251 663 222 633T192 546Z" />
<glyph unicode="&apos;" glyph-name="quotesingle" horiz-adv-x="182" d="M54 693H128L112 503H68L54 693Z" />
<glyph unicode="(" glyph-name="parenleft" horiz-adv-x="302" d="M257 -140Q223 -110 185 -70T115 24T62 146T41 302Q41 381 62 449T115 572T185 671T257 744L281 720Q251 688 221 646T166 552T126 442T110 316Q110 235 125 169T166 51T221 -43T281 -116L257 -140Z" />
<glyph unicode=")" glyph-name="parenright" horiz-adv-x="302" d="M21 -116Q51 -84 81 -42T136 52T176 162T192 288Q192 370 177 435T136 553T81 647T21 720L46 744Q79 714 117 674T187 580T241 458T262 302Q262 223 241 155T188 32T117 -67T46 -140L21 -116Z" />
<glyph unicode="*" glyph-name="asterisk" horiz-adv-x="333" d="M156 521L58 453L32 497L143 547L32 598L57 642L156 573L142 693H198L184 573L283 642L308 598L197 547L308 497L282 453L184 521L198 403H142L156 521Z" />
<glyph unicode="+" glyph-name="plus" horiz-adv-x="511" d="M60 368H231V547H280V368H451V322H280V144H231V322H60V368Z" />
<glyph unicode="," glyph-name="comma" horiz-adv-x="184" d="M43 -108Q51 -65 55 -21T60 77H134Q129 25 118 -20T86 -108H43Z" />
<glyph unicode="-" glyph-name="hyphen" horiz-adv-x="280" d="M36 309H244V253H36V309Z" />
<glyph unicode="." glyph-name="period" horiz-adv-x="185" d="M92 -12Q72 -12 58 2T44 36Q44 56 58 69T92 83Q112 83 126 70T140 36Q140 16 126 2T92 -12Z" />
<glyph unicode="/" glyph-name="slash" horiz-adv-x="324" d="M248 733H296L56 -120H8L248 733Z" />
<glyph unicode="0" glyph-name="zero" horiz-adv-x="620" d="M311 30Q509 30 509 343Q509 497 461 580T311 663Q210 663 161 583T112 348Q112 195 160 113T311 30ZM311 -12Q251 -12 201 10T116 76T61 187T41 343Q41 434 61 502T117 615T202 682T311 704Q369 704
418 683T504 617T560 506T580 348Q580 258 561 191T506 78T421 11T311 -12Z" />
<glyph unicode="1" glyph-name="one" horiz-adv-x="358" d="M43 32L150 44V629L31 604V635L198 702H219V44L326 32V0H43V32Z" />
<glyph unicode="2" glyph-name="two" horiz-adv-x="503" d="M16 38L189 210Q226 247 258 282T313 352T350 424T364 502Q364 571 327 612T203 653Q155 653 119 642T47 617V655Q83 675 129 689T228 704Q323 704 379 656T436 509Q436 465 421 425T377 346T310 266T222
181L91 60V58H390L422 155H457L448 0H16V38Z" />
<glyph unicode="3" glyph-name="three" horiz-adv-x="489" d="M215 -11Q153 -11 107 2T26 35V72Q64 57 106 48T198 38Q285 38 331 78T378 191Q378 272 333 307T195 342H147V387H189Q264 387 307 422T351 523Q351 588 314 622T201 656Q154 656 121 649T54 629V665Q89
682 130 693T218 704Q312 704 365 661T418 533Q418 500 408 473T379 426T338 392T287 370V367Q318 362 347 350T398 317T434 265T448 188Q448 95 387 42T215 -11Z" />
<glyph unicode="4" glyph-name="four" horiz-adv-x="551" d="M249 32L344 44V204H18V247L354 693H411V252H527V204H411V44L505 32V0H249V32ZM344 252V604H341L78 254V252H344Z" />
<glyph unicode="5" glyph-name="five" horiz-adv-x="493" d="M202 -11Q145 -11 102 2T24 36V72Q62 57 101 48T187 39Q280 39 329 83T378 206Q378 291 331 334T188 377Q153 377 123 372T68 362L94 693H435L429 634H136L119 413Q136 418 160 421T213 425Q328 425
389 370T450 212Q450 162 434 121T387 51T309 6T202 -11Z" />
<glyph unicode="6" glyph-name="six" horiz-adv-x="554" d="M291 -12Q169 -12 106 73T42 310Q42 417 67 492T135 614T233 682T350 704Q397 704 429 695T482 672V635Q461 644 429 650T359 657Q311 657 268 642T192 592T138 499T113 356Q148 379 195 398T307 418Q351
418 389 405T456 366T501 302T518 215Q518 164 502 123T457 51T385 5T291 -12ZM290 30Q367 30 407 77T448 208Q448 251 436 281T402 332T350 361T285 371Q225 371 185 355T113 317V304Q113 246 122 196T151 109T206 51T290 30Z" />
<glyph unicode="7" glyph-name="seven" horiz-adv-x="481" d="M421 631V634H76L55 552H19L27 693H466V642L181 0H104L421 631Z" />
<glyph unicode="8" glyph-name="eight" horiz-adv-x="558" d="M280 -13Q165 -13 102 36T38 170Q38 209 53 239T93 292T149 331T210 358Q143 385 104 426T65 536Q65 572 80 603T122 656T189 692T275 705Q321 705 360 695T428 663T472 612T488 542Q488 506 476 479T443
432T396 397T343 371Q380 357 412 340T469 299T506 246T520 177Q520 136 505 101T459 41T383 1T280 -13ZM278 29Q366 29 409 66T453 166Q453 203 440 228T400 273T336 307T250 340Q223 329 197 315T150 280T117 233T104 173Q104 107 146 68T278 29ZM301 387Q325
397 347 410T386 442T413 483T424 538Q424 571 413 595T381 634T334 656T276 664Q212 664 171 633T129 545Q129 512 140 488T173 446T227 414T301 387Z" />
<glyph unicode="9" glyph-name="nine" horiz-adv-x="554" d="M204 -12Q158 -12 126 -3T72 21V58Q93 49 125 42T195 35Q249 35 293 50T368 101T418 194T440 338Q410 317 363 296T246 274Q202 274 164 287T97 327T52 391T36 480Q36 531 52 572T99 642T171 688T266
704Q327 704 373 682T450 618T497 517T513 384Q513 279 491 204T429 81T331 11T204 -12ZM269 323Q328 323 368 339T442 379V390Q442 447 434 497T405 583T351 641T267 663Q192 663 150 617T107 487Q107 401 151 362T269 323Z" />
<glyph unicode=":" glyph-name="colon" horiz-adv-x="192" d="M98 -12Q78 -12 64 2T50 36Q50 56 64 69T98 83Q118 83 132 70T146 36Q146 16 132 2T98 -12ZM98 295Q78 295 64 308T50 342Q50 362 64 375T98 389Q118 389 132 376T146 342Q146 322 132 309T98 295Z" />
<glyph unicode=";" glyph-name="semicolon" horiz-adv-x="192" d="M44 -108Q52 -65 56 -21T61 77H135Q130 25 119 -20T87 -108H44ZM96 295Q76 295 62 308T48 342Q48 362 62 375T96 389Q116 389 130 376T144 342Q144 322 130 309T96 295Z" />
<glyph unicode="&lt;" glyph-name="less" horiz-adv-x="487" d="M60 323V362L417 530V478L117 343L417 207V155L60 323Z" />
<glyph unicode="=" glyph-name="equal" horiz-adv-x="493" d="M62 258H431V212H62V258ZM62 415H431V369H62V415Z" />
<glyph unicode="&gt;" glyph-name="greater" horiz-adv-x="487" d="M70 207L370 342L70 477V529L427 362V322L70 155V207Z" />
<glyph unicode="?" glyph-name="question" horiz-adv-x="396" d="M138 177Q130 193 124 214T118 263Q118 284 124 301T142 333T173 364T217 398Q236 412 251 425T276 455T291 490T296 534Q296 568 286 591T257 629T214 650T161 657Q119 657 90 651T25 632V669Q60
686 96 695T179 704Q215 704 248 696T306 667T347 615T362 535Q362 503 354 479T331 434T294 395T243 358Q206 333 184 312T162 254Q162 237 165 218T174 177H138ZM158 -11Q138 -11 126 2T113 34Q113 53 125 66T158 79Q177 79 190 66T203 34Q203 16 190 3T158 -11Z"
/>
<glyph unicode="@" glyph-name="at" horiz-adv-x="867" d="M436 -149Q244 -149 144 -55T43 215Q43 307 74 390T162 537T299 638T478 676Q557 676 622 653T732 584T803 475T828 329Q828 263 811 208T762 114T687 54T593 32Q548 32 527 50T501 97H496Q464 66 434
52T368 37Q343 37 321 46T281 74T254 121T244 189Q244 246 259 299T302 392T372 457T466 482Q509 482 533 471T580 445L602 473H634L566 135Q560 106 567 89T602 71Q641 71 674 89T731 140T768 221T781 327Q781 400 761 458T702 556T607 617T477 639Q386 639 315
605T194 513T118 378T92 216Q92 54 177 -28T436 -110Q502 -110 559 -100T662 -72V-106Q617 -126 561 -137T436 -149ZM391 81Q422 81 449 95T503 135L554 399Q541 418 521 430T466 443Q426 443 397 422T348 365T320 284T310 190Q310 132 331 107T391 81Z" />
<glyph unicode="A" glyph-name="A" horiz-adv-x="640" d="M-4 32L64 46L294 693H351L577 46L644 32V0H420V32L503 45L442 227H179L116 45L200 32V0H-4V32ZM193 266H429L314 604H311L193 266Z" />
<glyph unicode="B" glyph-name="B" horiz-adv-x="598" d="M27 32L116 45V649L27 662V693H300Q412 693 471 654T530 523Q530 496 523 471T501 424T461 388T401 365V362Q490 348 528 305T567 185Q567 100 506 50T330 0H27V32ZM319 43Q404 43 449 77T494 190Q494
272 449 306T320 340H185V43H319ZM306 379Q340 379 367 386T415 408T446 449T457 511Q457 554 446 581T413 624T362 645T294 651H185V379H306Z" />
<glyph unicode="C" glyph-name="C" horiz-adv-x="602" d="M354 -12Q279 -12 220 9T120 74T57 184T35 343Q35 440 60 509T130 621T233 685T361 705Q430 705 475 696T551 676L557 518H522L492 635Q470 645 435 654T355 663Q230 663 170 582T109 355Q109 198 169
115T361 32Q406 32 439 41T497 62L527 186H563L557 24Q521 9 474 -1T354 -12Z" />
<glyph unicode="D" glyph-name="D" horiz-adv-x="663" d="M24 32L113 45V648L25 662V693H289Q382 693 447 671T552 606T611 501T629 359Q629 273 611 206T552 93T450 24T299 0H24V32ZM298 42Q364 42 412 58T492 110T539 205T555 349Q555 442 538 500T486 592T400
638T280 651H182V42H298Z" />
<glyph unicode="E" glyph-name="E" horiz-adv-x="577" d="M24 32L113 45V648L25 662V693H524L534 530H498L466 651H182V377H345L364 472H397V242H364L345 337H182V42H478L516 186H552L541 0H24V32Z" />
<glyph unicode="F" glyph-name="F" horiz-adv-x="565" d="M24 32L113 45V648L25 662V693H528L538 526H502L470 651H182V366H344L361 460H395V230H361L344 326H182V45L283 32V0H24V32Z" />
<glyph unicode="G" glyph-name="G" horiz-adv-x="660" d="M369 -12Q290 -12 228 9T123 74T58 184T35 343Q35 440 61 509T132 621T237 685T366 705Q438 705 485 697T563 676L571 520H536L506 633Q480 647 445 655T359 663Q297 663 251 642T173 582T125 485T109
355Q109 198 171 115T366 31Q408 31 440 38T499 54V259L404 272V303H646V272L569 259V20Q528 6 480 -3T369 -12Z" />
<glyph unicode="H" glyph-name="H" horiz-adv-x="716" d="M24 32L112 45V648L24 662V693H273V662L182 648V376H536V648L444 662V693H694V662L606 648V45L694 32V0H444V32L536 45V337H182V45L273 32V0H24V32Z" />
<glyph unicode="I" glyph-name="I" horiz-adv-x="296" d="M24 32L114 45V649L24 662V693H272V662L183 649V45L272 32V0H24V32Z" />
<glyph unicode="J" glyph-name="J" horiz-adv-x="389" d="M123 -8Q85 -8 57 -1T9 17V58Q34 50 58 45T114 39Q171 39 196 67T221 158V648L131 662V693H378V662L290 648V151Q290 77 250 35T123 -8Z" />
<glyph unicode="K" glyph-name="K" horiz-adv-x="636" d="M231 332V349L484 649L412 662V693H611V662L546 649L295 358L546 45L623 32V0H495L231 332ZM24 32L112 45V649L24 662V693H276V662L182 649V45L276 32V0H24V32Z" />
<glyph unicode="L" glyph-name="L" horiz-adv-x="545" d="M24 32L112 45V649L24 662V693H279V662L182 649V42H455L490 197H526L514 0H24V32Z" />
<glyph unicode="M" glyph-name="M" horiz-adv-x="848" d="M24 31L113 45V649L24 662V693H215L418 144H421L627 693H824V662L731 649V45L824 32V0H578V32L662 45V640H660L432 38H390L167 640H164V45L249 32V0H24V31Z" />
<glyph unicode="N" glyph-name="N" horiz-adv-x="703" d="M24 31L113 45V648L24 662V693H207L552 123H555V648L464 662V693H687V662L606 648V0H549L167 634H164V45L259 31V0H24V31Z" />
<glyph unicode="O" glyph-name="O" horiz-adv-x="682" d="M340 32Q394 32 437 53T509 115T554 212T570 340Q570 501 509 581T338 662Q283 662 241 641T169 579T124 482T109 354Q109 202 166 117T340 32ZM339 -11Q274 -11 219 12T122 81T58 193T35 347Q35 438 60
505T127 616T225 682T341 704Q405 704 460 681T557 613T621 502T644 349Q644 258 619 191T552 78T454 11T339 -11Z" />
<glyph unicode="P" glyph-name="P" horiz-adv-x="545" d="M24 32L112 45V649L24 662V693H285Q353 693 399 680T474 642T515 582T528 501Q528 449 512 412T466 351T398 316T314 305Q288 305 266 308T234 313V346Q244 344 261 343T303 342Q378 342 417 380T456 496Q456
575 420 612T294 649H182V45L285 32V0H24V32Z" />
<glyph unicode="Q" glyph-name="Q" horiz-adv-x="682" d="M267 -5Q222 8 180 33T106 101T55 203T35 347Q35 438 60 505T127 616T225 682T341 704Q405 704 460 681T557 613T621 502T644 349Q644 271 626 211T575 109T499 40T405 5V3L672 -53L656 -114L267 -5ZM340
32Q394 32 437 53T509 115T554 212T570 340Q570 501 509 581T338 662Q283 662 241 641T169 579T124 482T109 354Q109 202 166 117T340 32Z" />
<glyph unicode="R" glyph-name="R" horiz-adv-x="623" d="M24 32L114 45V648L26 662V693H303Q366 693 409 681T481 644T521 586T534 509Q534 436 494 394T385 335V332L553 45L625 31V0H500L317 319H183V45L270 32V0H24V32ZM306 359Q349 359 378 370T426 402T453
449T462 508Q462 543 454 569T427 613T377 640T300 649H183V359H306Z" />
<glyph unicode="S" glyph-name="S" horiz-adv-x="519" d="M246 -11Q186 -11 137 0T53 26L47 173H83L106 67Q135 53 168 43T250 33Q336 33 375 72T415 169Q415 200 407 222T381 262T338 293T274 321L210 347Q176 360 149 376T102 413T71 463T60 530Q60 566 72 597T111
653T177 691T273 705Q330 705 369 697T440 677L446 541H411L390 634Q375 642 346 651T268 661Q196 661 159 631T121 544Q121 493 149 463T245 406L308 381Q347 366 378 350T432 312T467 259T479 185Q479 146 466 111T425 48T353 5T246 -11Z" />
<glyph unicode="T" glyph-name="T" horiz-adv-x="583" d="M163 32L256 45V651H76L48 512H12L22 693H561L570 512H534L507 651H326V45L420 32V0H163V32Z" />
<glyph unicode="U" glyph-name="U" horiz-adv-x="677" d="M346 -12Q221 -12 158 47T95 213V649L9 662V693H256V662L165 649V223Q165 126 213 81T354 35Q446 35 492 80T539 223V648L450 661V693H668V662L590 649V219Q590 110 528 49T346 -12Z" />
<glyph unicode="V" glyph-name="V" horiz-adv-x="635" d="M66 648L2 662V693H223V662L140 648L328 92H331L522 648L439 662V693H639V662L575 648L348 0H293L66 648Z" />
<glyph unicode="W" glyph-name="W" horiz-adv-x="919" d="M65 648L4 662V693H214V662L134 648L273 108H277L442 693H486L652 108H655L792 648L712 662V693H911V662L845 648L674 0H618L458 571H455L292 0H235L65 648Z" />
<glyph unicode="X" glyph-name="X" horiz-adv-x="671" d="M21 32L96 45L298 357L113 649L37 662V693H270V662L193 649L346 400L499 649L418 662V693H628V662L553 649L372 361L576 45L651 32V0H420V32L499 45L324 320L151 45L232 31V0H21V32Z" />
<glyph unicode="Y" glyph-name="Y" horiz-adv-x="605" d="M182 32L271 45V310L66 648L4 662V693H215V662L140 648L316 354H319L487 648L409 662V693H599V662L538 648L340 309V45L428 32V0H182V32Z" />
<glyph unicode="Z" glyph-name="Z" horiz-adv-x="534" d="M17 35L430 647V650H106L76 513H39L48 693H514V658L101 47V43H447L479 179H515L506 0H17V35Z" />
<glyph unicode="[" glyph-name="bracketleft" horiz-adv-x="298" d="M70 734H262V702L133 689V-76L262 -89V-120H70V734Z" />
<glyph unicode="\" glyph-name="backslash" horiz-adv-x="324" d="M29 733H77L317 -120H269L29 733Z" />
<glyph unicode="]" glyph-name="bracketright" horiz-adv-x="298" d="M35 -89L164 -76V689L35 702V734H227V-120H35V-89Z" />
<glyph unicode="^" glyph-name="asciicircum" horiz-adv-x="378" d="M168 693H210L352 463H312L189 632L66 463H26L168 693Z" />
<glyph unicode="_" glyph-name="underscore" horiz-adv-x="304" d="M-10 -81H314V-120H-10V-81Z" />
<glyph unicode="`" glyph-name="grave" horiz-adv-x="489" d="M135 672L166 722L332 608L317 581L135 672Z" />
<glyph unicode="a" glyph-name="a" horiz-adv-x="467" d="M178 -11Q108 -11 66 26T24 127Q24 192 66 223T180 265L319 287V354Q319 385 315 407T297 443T262 463T204 469Q167 469 130 464T63 451V485Q92 498 137 509T230 520Q309 520 346 484T384 371V75Q384 47
397 39T434 30Q438 30 449 30T462 32V5Q454 0 436 -4T397 -8Q333 -8 326 49H322Q298 23 263 6T178 -11ZM199 35Q236 35 268 49T319 85V242L200 233Q138 228 114 203T90 134Q90 86 117 61T199 35Z" />
<glyph unicode="b" glyph-name="b" horiz-adv-x="532" d="M251 -10Q192 -10 146 3T68 32V685L-14 696V726L123 742L132 738V462H136Q169 486 207 503T299 520Q337 520 373 509T438 469T483 393T500 272Q500 201 483 149T433 61T354 8T251 -10ZM259 31Q298 31 330
43T385 82T420 152T433 259Q433 319 421 359T388 423T337 458T271 468Q229 468 194 455T132 427V67Q152 53 181 42T259 31Z" />
<glyph unicode="c" glyph-name="c" horiz-adv-x="452" d="M271 -10Q212 -10 167 8T91 61T45 144T29 252Q29 324 49 375T105 458T186 505T284 520Q322 520 355 515T418 499V378H379L365 465Q348 472 329 475T276 479Q236 479 203 466T146 427T109 359T96 260Q96
143 146 91T288 38Q339 38 374 48T429 69V33Q404 17 367 4T271 -10Z" />
<glyph unicode="d" glyph-name="d" horiz-adv-x="556" d="M245 -10Q207 -10 169 2T101 44T51 122T32 245Q32 316 50 368T101 453T180 503T282 520Q323 520 350 513T400 497V685L313 696V726L456 742L464 738V48L542 36V9L412 -8L404 -3V52H400Q372 26 335 8T245
-10ZM264 41Q305 41 339 55T400 86V441Q389 448 377 455T351 467T318 476T275 479Q236 479 204 468T149 430T112 361T99 254Q99 195 110 155T143 89T195 52T264 41Z" />
<glyph unicode="e" glyph-name="e" horiz-adv-x="484" d="M270 -10Q204 -10 158 10T84 67T42 152T29 258Q29 321 46 369T94 451T165 502T253 520Q357 520 406 453T456 265H95Q96 155 140 97T282 38Q338 38 373 48T435 69V35Q411 21 372 6T270 -10ZM384 308Q383
396 349 437T249 479Q180 479 141 434T96 302L384 308Z" />
<glyph unicode="f" glyph-name="f" horiz-adv-x="297" d="M18 27L95 39V466H19V494L95 511V580Q95 625 107 656T140 707T189 736T251 745Q283 745 303 740T340 726V692Q324 695 308 697T269 700Q243 700 223 695T189 675T167 636T159 576V511H290V466H159V39L250
27V0H18V27Z" />
<glyph unicode="g" glyph-name="g" horiz-adv-x="490" d="M217 -203Q162 -203 123 -192T58 -163T22 -123T10 -77Q10 -32 40 -3T113 47V50Q88 58 72 76T56 120Q56 147 71 171T114 220Q83 240 66 272T48 350Q48 390 62 421T101 474T161 507T236 519Q285 519 322
505L471 519V470L370 474Q396 454 411 426T426 358Q426 318 412 287T371 234T310 201T235 189Q183 189 141 206Q108 175 108 141Q108 124 120 112T158 100H319Q353 100 381 94T430 73T462 35T474 -22Q474 -58 459 -90T411 -148T331 -188T217 -203ZM222 -161Q274
-161 310 -151T370 -123T404 -83T415 -37Q415 5 390 23T309 41H153Q117 25 95 -3T72 -66Q72 -86 80 -103T106 -134T152 -154T222 -161ZM235 227Q292 227 326 259T361 353Q361 418 326 449T235 481Q178 481 145 449T112 355Q112 290 145 259T235 227Z" />
<glyph unicode="h" glyph-name="h" horiz-adv-x="571" d="M15 27L92 39V685L11 697V726L148 743L156 738V464H160Q201 487 246 503T341 520Q412 520 448 489T484 385V39L562 27V0H343V27L420 39V368Q420 423 393 446T307 469Q267 469 229 458T156 429V39L234 27V0H15V27Z" />
<glyph unicode="i" glyph-name="i" horiz-adv-x="250" d="M15 27L94 39V458L10 470V499L150 516L158 512V39L237 27V0H15V27ZM121 620Q103 620 91 633T78 663Q78 680 90 692T121 705Q140 705 152 693T164 663Q164 646 152 633T121 620Z" />
<glyph unicode="j" glyph-name="j" horiz-adv-x="241" d="M27 -196Q9 -196 -6 -193T-38 -183V-151Q-19 -155 9 -155Q28 -155 44 -151T73 -135T91 -104T98 -55V458L15 470V499L154 516L162 512V-63Q162 -129 127 -162T27 -196ZM126 620Q108 620 96 633T83 663Q83
680 95 692T126 705Q144 705 156 693T169 663Q169 646 157 633T126 620Z" />
<glyph unicode="k" glyph-name="k" horiz-adv-x="510" d="M195 259V271L368 472L305 483V511H489V483L422 472L253 284L440 39L510 27V0H393L195 259ZM15 27L92 38V685L11 697V726L148 743L156 738V38L237 27V0H15V27Z" />
<glyph unicode="l" glyph-name="l" horiz-adv-x="250" d="M15 27L94 39V685L7 697V726L150 743L158 738V39L237 27V0H15V27Z" />
<glyph unicode="m" glyph-name="m" horiz-adv-x="872" d="M15 27L92 39V458L14 470V499L145 516L153 512V464H157Q199 488 240 504T335 520Q382 520 411 505T456 459H460Q501 484 547 502T646 520Q712 520 747 487T782 384V39L861 27V0H640V27L718 39V366Q718
423 692 446T611 469Q571 469 536 458T465 430Q467 422 468 411T469 383V39L547 27V0H327V27L406 39V366Q406 422 380 445T301 469Q257 469 225 459T156 431V39L234 27V0H15V27Z" />
<glyph unicode="n" glyph-name="n" horiz-adv-x="573" d="M15 27L92 39V458L14 470V499L145 516L153 512V462H157Q198 486 244 503T341 520Q412 520 448 489T484 385V39L562 27V0H343V27L420 39V368Q420 423 393 445T307 468Q267 468 229 457T156 429V39L234 27V0H15V27Z" />
<glyph unicode="o" glyph-name="o" horiz-adv-x="532" d="M267 31Q300 31 330 43T384 81T422 149T436 251Q436 312 422 355T383 425T329 465T265 478Q232 478 202 466T148 428T110 359T96 257Q96 197 110 154T149 84T203 44T267 31ZM267 -11Q217 -11 174 6T98
58T48 141T29 252Q29 314 48 364T99 448T174 501T265 520Q315 520 358 502T434 451T484 368T503 257Q503 195 484 145T433 61T358 8T267 -11Z" />
<glyph unicode="p" glyph-name="p" horiz-adv-x="554" d="M13 -170L90 -160V458L11 470V499L142 516L150 512V460H154Q189 486 228 503T321 520Q359 520 395 509T460 469T505 393T522 272Q522 200 504 147T454 59T376 7T275 -10Q233 -10 206 -6T154 7V-159L241
-170V-197H13V-170ZM282 31Q321 31 352 43T407 82T442 152T455 259Q455 318 444 358T411 422T359 457T292 468Q250 468 215 455T154 427V64Q176 51 204 41T282 31Z" />
<glyph unicode="q" glyph-name="q" horiz-adv-x="542" d="M314 -171L401 -159V50H396Q364 25 328 8T240 -10Q202 -10 165 2T98 42T50 119T32 240Q32 310 50 362T100 450T177 502T279 519Q335 519 379 511T465 486V-160L542 -171V-197H314V-171ZM263 41Q304 41
339 54T401 85V444Q380 457 352 468T272 479Q234 479 202 468T147 429T112 359T99 253Q99 193 110 153T143 88T195 52T263 41Z" />
<glyph unicode="r" glyph-name="r" horiz-adv-x="344" d="M15 27L92 39V458L14 470V499L145 516L153 512V445H157Q182 474 218 496T299 518Q305 518 314 517T328 514V458Q320 460 309 460T291 461Q250 461 218 448T156 409V39L241 27V0H15V27Z" />
<glyph unicode="s" glyph-name="s" horiz-adv-x="415" d="M194 -11Q147 -11 108 -2T39 18L31 142H67L88 56Q107 46 134 38T198 30Q258 30 290 53T322 122Q322 144 317 159T299 186T268 207T221 224L160 242Q101 260 70 292T38 379Q38 409 49 434T82 478T136 508T210
519Q257 519 291 513T352 498L354 382H320L301 457Q286 466 263 472T204 478Q156 478 126 458T96 394Q96 357 117 336T195 297L256 279Q322 259 352 227T383 138Q383 106 371 79T336 32T277 1T194 -11Z" />
<glyph unicode="t" glyph-name="t" horiz-adv-x="323" d="M208 -8Q151 -8 120 18T88 110V466H13V494L92 511L104 632H152V511H292V466H152V123Q152 76 170 57T235 37Q253 37 270 39T303 47V18Q286 8 261 0T208 -8Z" />
<glyph unicode="u" glyph-name="u" horiz-adv-x="569" d="M229 -9Q154 -9 120 29T85 136V463L7 475V504L141 516L149 511V150Q149 94 172 68T258 41Q306 41 342 53T410 81V463L334 475V504L466 516L474 511V48L552 36V9L422 -8L414 -3V52H410Q372 25 328 8T229 -9Z" />
<glyph unicode="v" glyph-name="v" horiz-adv-x="527" d="M58 472L2 482V511H195V482L127 474L274 75H277L425 474L356 482V511H526V482L470 472L291 0H239L58 472Z" />
<glyph unicode="w" glyph-name="w" horiz-adv-x="764" d="M58 472L2 482V511H191V482L123 472L234 92H237L373 511H416L550 92H553L664 472L597 482V511H768V482L712 472L569 0H519L390 413H387L249 0H200L58 472Z" />
<glyph unicode="x" glyph-name="x" horiz-adv-x="517" d="M10 27L69 38L220 256L72 472L14 482V511H209V482L144 473L266 292H268L388 473L320 482V511H494V482L438 472L292 265L445 38L504 27V0H307V27L374 36L248 225H246L118 36L187 27V0H10V27Z" />
<glyph unicode="y" glyph-name="y" horiz-adv-x="524" d="M122 -197Q104 -197 86 -193T55 -182V-143Q71 -147 82 -149T106 -151Q150 -151 173 -130T213 -65L245 16L58 472L2 482V511H199V482L127 472L276 95H279L417 472L347 482V511H524V482L468 472L257 -81Q236
-136 207 -166T122 -197Z" />
<glyph unicode="z" glyph-name="z" horiz-adv-x="459" d="M28 36L348 470V473H103L81 368H45L52 511H422V476L103 41V38H358L385 155H421L410 0H28V36Z" />
<glyph unicode="{" glyph-name="braceleft" horiz-adv-x="355" d="M320 -120Q262 -118 224 -109T164 -84T132 -47T123 2Q123 23 127 50T138 104T148 156T153 201Q153 216 150 228T134 251T97 269T32 282V331Q73 336 97 343T133 361T149 385T153 413Q153 431 149
456T138 509T128 563T123 611Q123 638 132 659T163 696T224 721T320 733V702Q282 697 257 691T217 676T196 652T189 616Q189 597 193 573T202 524T211 472T215 424Q215 406 212 389T196 358T158 331T88 309V305Q133 296 158 284T196 256T212 225T215 190Q215 167
211 142T202 90T193 40T189 -3Q189 -25 195 -39T217 -62T257 -78T320 -89V-120Z" />
<glyph unicode="|" glyph-name="bar" horiz-adv-x="206" d="M81 733H126V-120H81V733Z" />
<glyph unicode="}" glyph-name="braceright" horiz-adv-x="355" d="M35 -89Q73 -84 98 -78T138 -63T159 -39T166 -3Q166 16 162 40T153 90T144 141T140 190Q140 208 143 224T159 256T197 283T267 305V309Q222 318 197 330T159 357T143 389T140 424Q140 446 144
472T153 523T162 573T166 616Q166 638 160 652T138 675T98 691T35 702V733Q93 731 131 722T191 697T223 660T232 611Q232 590 228 563T217 509T207 457T202 413Q202 398 205 385T221 362T258 343T323 331V282Q282 277 258 270T222 252T206 229T202 201Q202 182
206 157T217 104T227 50T232 2Q232 -25 223 -46T192 -84T131 -109T35 -120V-89Z" />
<glyph unicode="~" glyph-name="asciitilde" horiz-adv-x="380" d="M25 259Q45 308 69 330T131 352Q149 352 166 345T199 330T229 315T257 308Q278 308 294 320T327 362L359 347Q339 298 314 276T253 254Q235 254 218 261T185 276T155 291T127 298Q106 298 90
286T57 244L25 259Z" />
<glyph unicode="&#xa0;" glyph-name="uni00A0" horiz-adv-x="193" />
<glyph unicode="&#xa1;" glyph-name="exclamdown" horiz-adv-x="221" d="M94 395H134L151 -120H77L94 395ZM113 495Q94 495 81 508T68 539Q68 557 81 570T113 584Q133 584 145 571T158 539Q158 521 146 508T113 495Z" />
<glyph unicode="&#xa2;" glyph-name="cent" horiz-adv-x="452" d="M211 -5Q121 12 75 80T29 252Q29 321 48 371T100 453T176 502T270 520L277 584H320L313 519Q342 517 368 512T418 498V378H379L365 467Q343 475 308 478L259 39Q266 38 273 38T288 38Q339 38 374
48T430 69V34Q405 17 367 4T271 -10Q266 -10 262 -10T254 -9L242 -119H199L211 -5ZM95 260Q95 167 126 116T217 47L265 479Q189 475 142 422T95 260Z" />
<glyph unicode="&#xa3;" glyph-name="sterling" d="M56 369H128V486Q128 545 146 586T193 654T260 692T336 704Q363 704 383 702T420 694T450 682T477 667V628Q450 639 422 645T354 652Q324 652 296 645T247 619T211 568T196 483L193 369H387V324H192L190 239Q189
204 184 178T170 130T147 93T118 62V60H483L476 0H34V37Q81 65 104 107T128 222V324H56V369Z" />
<glyph unicode="&#xa5;" glyph-name="yen" horiz-adv-x="572" d="M87 362H243L64 648L7 662V693H214V662L139 648L307 373H310L468 648L391 662V693H573V662L519 648L349 362H507V323H331V241H507V202H331V45L420 32V0H173V32L262 45V202H87V241H262V323H87V362Z" />
<glyph unicode="&#xa6;" glyph-name="brokenbar" horiz-adv-x="207" d="M81 279H127V-120H81V279ZM81 733H127V371H81V733Z" />
<glyph unicode="&#xa7;" glyph-name="section" horiz-adv-x="485" d="M235 -129Q181 -129 145 -121T76 -100L68 22H104L126 -62Q146 -72 171 -80T238 -88Q263 -88 285 -82T323 -64T348 -35T358 6Q358 46 334 72T258 118L171 151Q107 175 67 209T27 302Q27 353
60 386T151 437Q117 457 100 487T82 561Q82 625 129 664T258 704Q305 704 337 697T395 682V570H360L344 644Q329 652 309 657T252 663Q204 663 172 641T139 573Q139 533 159 510T230 467L312 435Q344 423 371 409T417 378T447 339T458 287Q458 233 424 199T333
148Q371 126 395 95T419 20Q419 -11 407 -38T372 -85T314 -117T235 -129ZM277 384Q256 393 238 399Q223 404 211 408T198 414Q152 406 121 381T89 313Q89 291 97 275T120 246T157 222T206 201L283 172Q330 179 363 205T396 275Q396 319 364 341T277 384Z" />
<glyph unicode="&#xa8;" glyph-name="dieresis" horiz-adv-x="489" d="M168 619Q151 619 139 631T127 660Q127 677 139 689T168 702Q186 702 198 690T210 660Q210 644 198 632T168 619ZM320 619Q303 619 291 631T278 660Q278 677 290 689T320 702Q338 702 350
690T362 660Q362 644 350 632T320 619Z" />
<glyph unicode="&#xa9;" glyph-name="copyright" horiz-adv-x="787" d="M402 158Q362 158 329 169T271 203T234 260T220 342Q220 393 235 430T275 491T335 526T408 537Q441 537 468 532T514 521L519 428H491L471 492Q459 497 443 501T404 505Q344 505 314 465T283
349Q283 272 312 231T406 189Q450 189 472 200L493 274H523L516 177Q495 169 467 164T402 158ZM392 20Q461 20 518 45T617 115T682 218T706 345Q706 412 683 471T618 574T519 643T392 669Q323 669 266 644T167 574T102 471T79 345Q79 277 102 218T166 115T265 46T392
20ZM392 -13Q317 -13 252 15T140 92T66 206T39 345Q39 419 66 484T140 597T252 673T392 701Q467 701 532 673T645 597T720 484T748 345Q748 271 721 206T645 92T532 15T392 -13Z" />
<glyph unicode="&#xaa;" glyph-name="ordfeminine" horiz-adv-x="449" d="M173 225Q110 225 72 259T34 350Q34 409 73 437T178 477L301 496V553Q301 608 278 630T192 653Q160 653 126 648T68 638V671Q96 683 135 693T218 703Q363 703 363 570V307Q363 283 374
275T408 266Q412 266 421 266T433 267V240Q426 237 412 233T374 228Q348 228 330 240T307 280H304Q281 257 250 241T173 225ZM193 270Q225 270 253 281T301 313V452L195 445Q145 441 121 418T96 356Q96 315 120 293T193 270Z" />
<glyph unicode="&#xab;" glyph-name="guillemotleft" horiz-adv-x="386" d="M42 241V265L147 446H191L102 253L191 59H147L42 241ZM192 241V265L296 446H341L251 253L341 59H296L192 241Z" />
<glyph unicode="&#xae;" glyph-name="registered" horiz-adv-x="423" d="M127 442L150 446V588L127 593V611H214Q246 611 266 599T286 560Q286 538 274 528T245 512V510L286 446L306 442V425H258L212 500H187V446L209 442V425H127V442ZM214 524Q235 524 242 533T249
558Q249 575 241 581T213 588H187V524H214ZM211 352Q246 352 275 364T324 399T356 450T367 515Q367 548 356 578T325 630T275 665T211 678Q176 678 147 665T98 630T67 578T56 515Q56 480 67 451T98 399T147 365T211 352ZM211 325Q171 325 137 340T77 380T38 441T23
515Q23 554 37 588T77 648T136 689T211 704Q251 704 285 689T345 649T385 589T400 515Q400 476 386 441T346 381T286 340T211 325Z" />
<glyph unicode="&#xaf;" glyph-name="macron" horiz-adv-x="489" d="M129 672H359V627H129V672Z" />
<glyph unicode="&#xb0;" glyph-name="degree" horiz-adv-x="322" d="M162 475Q205 475 229 504T254 573Q254 612 230 641T162 671Q119 671 95 642T71 573Q71 533 95 504T162 475ZM162 442Q133 442 109 452T68 481T40 522T30 573Q30 600 40 623T67 665T109 693T162
704Q191 704 215 694T257 665T285 624T295 573Q295 546 285 523T258 481T216 453T162 442Z" />
<glyph unicode="&#xb4;" glyph-name="acute" horiz-adv-x="489" d="M154 608L320 722L351 672L169 581L154 608Z" />
<glyph unicode="&#xb6;" glyph-name="paragraph" horiz-adv-x="554" d="M305 349Q291 347 277 346T248 345Q207 345 171 355T108 388T65 443T49 523Q49 563 61 594T101 648T173 681T281 693H552V662L474 649V-120H427V653H352V-120H305V349Z" />
<glyph unicode="&#xb7;" glyph-name="periodcentered" horiz-adv-x="183" d="M92 273Q72 273 58 286T44 320Q44 340 58 353T92 367Q112 367 126 354T140 320Q140 300 126 287T92 273Z" />
<glyph unicode="&#xb8;" glyph-name="cedilla" horiz-adv-x="489" d="M205 -176Q265 -168 288 -156T312 -122Q312 -102 293 -94T227 -86V0H263V-49Q314 -51 341 -68T369 -118Q369 -153 331 -176T205 -206V-176Z" />
<glyph unicode="&#xba;" glyph-name="ordmasculine" horiz-adv-x="493" d="M248 264Q277 264 303 274T350 308T382 369T394 461Q394 516 382 555T350 618T302 653T245 664Q215 664 189 654T142 620T111 558T99 466Q99 410 111 372T143 309T191 275T248 264ZM247
225Q201 225 162 241T95 287T51 362T35 462Q35 518 51 562T96 638T163 686T245 703Q291 703 330 687T398 641T443 566T459 466Q459 410 442 365T396 289T329 242T247 225Z" />
<glyph unicode="&#xbb;" glyph-name="guillemotright" horiz-adv-x="386" d="M135 252L45 446H90L194 265V241L90 59H45L135 252ZM284 252L195 446H239L344 265V241L239 59H195L284 252Z" />
<glyph unicode="&#xbc;" glyph-name="onequarter" horiz-adv-x="768" d="M50 315L115 323V644L42 630V656L150 701H171V323L236 315V288H50V315ZM597 713H648L152 -40H101L597 713ZM555 27L615 35V119H424V150L623 408H668V154H734V119H668V35L726 27V0H555V27ZM615
154V342H613L469 155V154H615Z" />
<glyph unicode="&#xbd;" glyph-name="onehalf" horiz-adv-x="785" d="M584 713H635L139 -40H88L584 713ZM50 315L115 323V644L42 630V656L150 701H171V323L236 315V288H50V315ZM477 31L583 133Q626 175 652 211T679 290Q679 332 657 353T587 374Q561 374 537 367T493
352V382Q515 395 545 405T607 415Q667 415 701 385T736 296Q736 248 703 205T612 112L534 45V44H703L721 97H750L743 0H477V31Z" />
<glyph unicode="&#xbe;" glyph-name="threequarters" horiz-adv-x="785" d="M151 282Q113 282 85 290T36 309V338Q57 330 82 325T137 320Q187 320 213 341T239 404Q239 447 215 466T142 485H107V519H138Q180 519 203 538T226 593Q226 665 140 665Q112 665 92 662T52
650V678Q73 689 99 696T155 703Q214 703 247 678T280 602Q280 564 259 540T204 506V504Q242 497 269 473T296 401Q296 346 258 314T151 282ZM624 711H675L179 -42H128L624 711ZM572 25L632 33V117H441V148L640 406H685V152H751V117H685V33L743 25V-2H572V25ZM632
152V340H630L486 153V152H632Z" />
<glyph unicode="&#xbf;" glyph-name="questiondown" horiz-adv-x="396" d="M217 -131Q181 -131 148 -123T90 -94T49 -42T34 38Q34 70 42 95T65 140T102 179T153 216Q190 241 212 262T234 319Q234 336 231 355T222 396H258Q266 381 272 359T278 311Q278 290 272
273T254 241T223 210T179 176Q141 148 121 119T100 40Q100 5 110 -18T139 -56T181 -77T235 -84Q277 -84 306 -78T371 -59V-96Q336 -113 300 -122T217 -131ZM238 495Q219 495 206 508T193 539Q193 557 206 570T238 584Q258 584 270 571T283 539Q283 521 271 508T238
495Z" />
<glyph unicode="&#xc0;" glyph-name="Agrave" horiz-adv-x="640" d="M-4 32L64 46L294 693H351L577 46L644 32V0H420V32L503 45L442 227H179L116 45L200 32V0H-4V32ZM193 266H429L314 604H311L193 266ZM209 797L234 851L412 757L400 728L209 797Z" />
<glyph unicode="&#xc1;" glyph-name="Aacute" horiz-adv-x="640" d="M-4 32L64 46L294 693H351L577 46L644 32V0H420V32L503 45L442 227H179L116 45L200 32V0H-4V32ZM193 266H429L314 604H311L193 266ZM247 728L235 757L413 851L438 797L247 728Z" />
<glyph unicode="&#xc2;" glyph-name="Acircumflex" horiz-adv-x="640" d="M-4 32L64 46L294 693H351L577 46L644 32V0H420V32L503 45L442 227H179L116 45L200 32V0H-4V32ZM193 266H429L314 604H311L193 266ZM193 752L305 841H339L451 752L437 727L322 787L207
727L193 752Z" />
<glyph unicode="&#xc3;" glyph-name="Atilde" horiz-adv-x="640" d="M-4 32L64 46L294 693H351L577 46L644 32V0H420V32L503 45L442 227H179L116 45L200 32V0H-4V32ZM193 266H429L314 604H311L193 266ZM184 752Q200 790 221 811T270 832Q285 832 299 827T327 815T353
804T376 798Q392 798 404 807T429 839L459 825Q428 746 373 746Q358 746 344 751T317 763T291 774T267 780Q252 780 240 771T214 739L184 752Z" />
<glyph unicode="&#xc4;" glyph-name="Adieresis" horiz-adv-x="640" d="M-4 32L64 46L294 693H351L577 46L644 32V0H420V32L503 45L442 227H179L116 45L200 32V0H-4V32ZM193 266H429L314 604H311L193 266ZM245 741Q228 741 216 753T203 783Q203 800 215 812T245
824Q263 824 275 812T287 783Q287 766 275 754T245 741ZM400 741Q382 741 370 753T358 783Q358 800 370 812T400 824Q417 824 429 812T441 783Q441 766 429 754T400 741Z" />
<glyph unicode="&#xc5;" glyph-name="Aring" horiz-adv-x="640" d="M-4 32L64 46L294 693H351L577 46L644 32V0H420V32L503 45L442 227H179L116 45L200 32V0H-4V32ZM193 266H429L314 604H311L193 266ZM322 753Q345 753 358 767T372 804Q372 827 359 842T322 857Q299
857 285 842T271 804Q271 782 285 768T322 753ZM322 722Q284 722 260 746T236 804Q236 839 260 863T322 888Q359 888 383 864T408 804Q408 770 384 746T322 722Z" />
<glyph unicode="&#xc6;" glyph-name="AE" horiz-adv-x="915" d="M196 32V0H1V33L63 46L412 654L332 662V693H863L873 530H837L805 651H531V377H684L703 472H736V242H703L684 337H531V42H817L855 186H891L880 0H374V32L463 45V221H216L117 46L196 32ZM463 260V646H458L238
260H463Z" />
<glyph unicode="&#xc7;" glyph-name="Ccedilla" horiz-adv-x="602" d="M262 -176Q322 -168 345 -156T369 -122Q369 -102 350 -94T284 -86V-7Q166 11 101 96T35 343Q35 440 60 509T130 621T233 685T361 705Q430 705 475 696T551 676L557 518H522L492 635Q470 645
435 654T355 663Q230 663 170 582T109 355Q109 198 169 115T361 32Q406 32 439 41T497 62L527 186H563L557 24Q521 9 474 -1T354 -12Q345 -12 337 -12T320 -10V-49Q371 -51 398 -68T426 -118Q426 -153 388 -176T262 -206V-176Z" />
<glyph unicode="&#xc8;" glyph-name="Egrave" horiz-adv-x="577" d="M191 797L216 851L394 757L382 728L191 797ZM24 32L113 45V648L25 662V693H524L534 530H498L466 651H182V377H345L364 472H397V242H364L345 337H182V42H478L516 186H552L541 0H24V32Z" />
<glyph unicode="&#xc9;" glyph-name="Eacute" horiz-adv-x="577" d="M230 728L218 757L396 851L421 797L230 728ZM24 32L113 45V648L25 662V693H524L534 530H498L466 651H182V377H345L364 472H397V242H364L345 337H182V42H478L516 186H552L541 0H24V32Z" />
<glyph unicode="&#xca;" glyph-name="Ecircumflex" horiz-adv-x="577" d="M175 752L287 841H321L433 752L419 727L304 787L189 727L175 752ZM24 32L113 45V648L25 662V693H524L534 530H498L466 651H182V377H345L364 472H397V242H364L345 337H182V42H478L516 186H552L541
0H24V32Z" />
<glyph unicode="&#xcb;" glyph-name="Edieresis" horiz-adv-x="577" d="M24 32L113 45V648L25 662V693H524L534 530H498L466 651H182V377H345L364 472H397V242H364L345 337H182V42H478L516 186H552L541 0H24V32ZM225 741Q208 741 196 753T183 783Q183 800 195
812T225 824Q243 824 255 812T267 783Q267 766 255 754T225 741ZM380 741Q362 741 350 753T338 783Q338 800 350 812T380 824Q397 824 409 812T421 783Q421 766 409 754T380 741Z" />
<glyph unicode="&#xcc;" glyph-name="Igrave" horiz-adv-x="296" d="M24 32L114 45V649L24 662V693H272V662L183 649V45L272 32V0H24V32ZM290 797L315 851L493 757L481 728L290 797Z" />
<glyph unicode="&#xcd;" glyph-name="Iacute" horiz-adv-x="296" d="M24 32L114 45V649L24 662V693H272V662L183 649V45L272 32V0H24V32ZM325 728L313 757L491 851L516 797L325 728Z" />
<glyph unicode="&#xce;" glyph-name="Icircumflex" horiz-adv-x="296" d="M24 32L114 45V649L24 662V693H272V662L183 649V45L272 32V0H24V32ZM274 752L386 841H420L532 752L518 727L403 787L288 727L274 752Z" />
<glyph unicode="&#xcf;" glyph-name="Idieresis" horiz-adv-x="296" d="M24 32L114 45V649L24 662V693H272V662L183 649V45L272 32V0H24V32ZM326 741Q309 741 297 753T284 783Q284 800 296 812T326 824Q344 824 356 812T368 783Q368 766 356 754T326 741ZM481
741Q463 741 451 753T439 783Q439 800 451 812T481 824Q498 824 510 812T522 783Q522 766 510 754T481 741Z" />
<glyph unicode="&#xd0;" glyph-name="Eth" horiz-adv-x="663" d="M26 371H111V648L23 662V693H287Q380 693 445 671T550 606T609 501T627 359Q627 273 609 206T550 93T448 24T297 0H22V32L111 45V326H26V371ZM297 42Q362 42 410 58T490 110T537 205T553 349Q553
442 536 500T485 592T399 638T279 651H181V371H363V326H181V42H297Z" />
<glyph unicode="&#xd1;" glyph-name="Ntilde" horiz-adv-x="703" d="M234 752Q250 790 271 811T320 832Q335 832 349 827T377 815T403 804T426 798Q442 798 454 807T479 839L509 825Q478 746 423 746Q408 746 394 751T367 763T341 774T317 780Q302 780 290 771T264
739L234 752ZM24 31L113 45V648L24 662V693H207L552 123H555V648L464 662V693H687V662L606 648V0H549L167 634H164V45L259 31V0H24V31Z" />
<glyph unicode="&#xd2;" glyph-name="Ograve" horiz-adv-x="682" d="M226 797L251 851L429 757L417 728L226 797ZM340 32Q394 32 437 53T509 115T554 212T570 340Q570 501 509 581T338 662Q283 662 241 641T169 579T124 482T109 354Q109 202 166 117T340 32ZM339
-11Q274 -11 219 12T122 81T58 193T35 347Q35 438 60 505T127 616T225 682T341 704Q405 704 460 681T557 613T621 502T644 349Q644 258 619 191T552 78T454 11T339 -11Z" />
<glyph unicode="&#xd3;" glyph-name="Oacute" horiz-adv-x="682" d="M265 728L253 757L431 851L456 797L265 728ZM340 32Q394 32 437 53T509 115T554 212T570 340Q570 501 509 581T338 662Q283 662 241 641T169 579T124 482T109 354Q109 202 166 117T340 32ZM339
-11Q274 -11 219 12T122 81T58 193T35 347Q35 438 60 505T127 616T225 682T341 704Q405 704 460 681T557 613T621 502T644 349Q644 258 619 191T552 78T454 11T339 -11Z" />
<glyph unicode="&#xd4;" glyph-name="Ocircumflex" horiz-adv-x="682" d="M210 752L322 841H356L468 752L454 727L339 787L224 727L210 752ZM340 32Q394 32 437 53T509 115T554 212T570 340Q570 501 509 581T338 662Q283 662 241 641T169 579T124 482T109 354Q109
202 166 117T340 32ZM339 -11Q274 -11 219 12T122 81T58 193T35 347Q35 438 60 505T127 616T225 682T341 704Q405 704 460 681T557 613T621 502T644 349Q644 258 619 191T552 78T454 11T339 -11Z" />
<glyph unicode="&#xd5;" glyph-name="Otilde" horiz-adv-x="682" d="M202 752Q218 790 239 811T288 832Q303 832 317 827T345 815T371 804T394 798Q410 798 422 807T447 839L477 825Q446 746 391 746Q376 746 362 751T335 763T309 774T285 780Q270 780 258 771T232
739L202 752ZM340 32Q394 32 437 53T509 115T554 212T570 340Q570 501 509 581T338 662Q283 662 241 641T169 579T124 482T109 354Q109 202 166 117T340 32ZM339 -11Q274 -11 219 12T122 81T58 193T35 347Q35 438 60 505T127 616T225 682T341 704Q405 704 460 681T557
613T621 502T644 349Q644 258 619 191T552 78T454 11T339 -11Z" />
<glyph unicode="&#xd6;" glyph-name="Odieresis" horiz-adv-x="682" d="M262 741Q245 741 233 753T220 783Q220 800 232 812T262 824Q280 824 292 812T304 783Q304 766 292 754T262 741ZM417 741Q399 741 387 753T375 783Q375 800 387 812T417 824Q434 824 446
812T458 783Q458 766 446 754T417 741ZM340 32Q394 32 437 53T509 115T554 212T570 340Q570 501 509 581T338 662Q283 662 241 641T169 579T124 482T109 354Q109 202 166 117T340 32ZM339 -11Q274 -11 219 12T122 81T58 193T35 347Q35 438 60 505T127 616T225 682T341
704Q405 704 460 681T557 613T621 502T644 349Q644 258 619 191T552 78T454 11T339 -11Z" />
<glyph unicode="&#xd7;" glyph-name="multiply" horiz-adv-x="507" d="M431 492L285 344L431 196L400 164L253 312L107 164L76 196L222 344L76 492L107 524L253 375L399 524L431 492Z" />
<glyph unicode="&#xd8;" glyph-name="Oslash" horiz-adv-x="682" d="M36 9L108 98Q73 143 54 205T35 347Q35 438 60 505T127 616T225 682T341 704Q457 704 538 632L597 705L630 679L567 601Q603 556 623 493T644 349Q644 258 619 191T552 78T454 11T339 -11Q279
-11 228 8T137 66L69 -18L36 9ZM340 32Q394 32 437 53T509 115T554 212T570 340Q570 473 528 553L171 108Q200 71 241 52T340 32ZM109 354Q109 224 147 147L504 589Q445 662 338 662Q283 662 241 641T169 579T124 482T109 354Z" />
<glyph unicode="&#xd9;" glyph-name="Ugrave" horiz-adv-x="677" d="M246 797L271 851L449 757L437 728L246 797ZM346 -12Q221 -12 158 47T95 213V649L9 662V693H256V662L165 649V223Q165 126 213 81T354 35Q446 35 492 80T539 223V648L450 661V693H668V662L590
649V219Q590 110 528 49T346 -12Z" />
<glyph unicode="&#xda;" glyph-name="Uacute" horiz-adv-x="677" d="M284 728L272 757L450 851L475 797L284 728ZM346 -12Q221 -12 158 47T95 213V649L9 662V693H256V662L165 649V223Q165 126 213 81T354 35Q446 35 492 80T539 223V648L450 661V693H668V662L590
649V219Q590 110 528 49T346 -12Z" />
<glyph unicode="&#xdb;" glyph-name="Ucircumflex" horiz-adv-x="677" d="M230 752L342 841H376L488 752L474 727L359 787L244 727L230 752ZM346 -12Q221 -12 158 47T95 213V649L9 662V693H256V662L165 649V223Q165 126 213 81T354 35Q446 35 492 80T539 223V648L450
661V693H668V662L590 649V219Q590 110 528 49T346 -12Z" />
<glyph unicode="&#xdc;" glyph-name="Udieresis" horiz-adv-x="677" d="M346 -12Q221 -12 158 47T95 213V649L9 662V693H256V662L165 649V223Q165 126 213 81T354 35Q446 35 492 80T539 223V648L450 661V693H668V662L590 649V219Q590 110 528 49T346 -12ZM282
741Q265 741 253 753T240 783Q240 800 252 812T282 824Q300 824 312 812T324 783Q324 766 312 754T282 741ZM437 741Q419 741 407 753T395 783Q395 800 407 812T437 824Q454 824 466 812T478 783Q478 766 466 754T437 741Z" />
<glyph unicode="&#xdd;" glyph-name="Yacute" horiz-adv-x="605" d="M182 32L271 45V310L66 648L4 662V693H215V662L140 648L316 354H319L487 648L409 662V693H599V662L538 648L340 309V45L428 32V0H182V32ZM239 728L227 757L405 851L430 797L239 728Z" />
<glyph unicode="&#xde;" glyph-name="Thorn" horiz-adv-x="554" d="M24 32L112 45V648L24 662V693H273V662L182 648V551H290Q357 551 403 538T476 500T516 442T528 367Q528 320 512 285T466 227T398 193T314 182Q288 182 266 184T234 189V223Q244 221 261 220T303
219Q378 219 417 256T456 363Q456 436 421 471T297 506H182V45L285 32V0H24V32Z" />
<glyph unicode="&#xdf;" glyph-name="germandbls" horiz-adv-x="573" d="M377 -11Q340 -11 308 -5T247 12L240 118H276L295 49Q311 41 331 36T378 30Q431 30 458 53T486 117Q486 137 479 152T460 179T432 200T398 220L353 245Q335 255 319 266T290 290T270 319T263
357Q263 382 275 404T304 447T342 488T380 527T410 568T422 612Q422 657 393 680T312 704Q234 704 197 660T159 543V0H18V27L95 39V466H19V494L95 511V552Q95 594 111 629T155 690T223 730T311 745Q349 745 381 737T436 712T472 672T485 618Q485 580 460 547T403
485T347 429T321 375Q321 352 334 337T381 303L427 278Q449 265 470 253T509 224T536 185T546 131Q546 103 536 77T504 32T451 1T377 -11Z" />
<glyph unicode="&#xe0;" glyph-name="agrave" horiz-adv-x="467" d="M178 -11Q108 -11 66 26T24 127Q24 192 66 223T180 265L319 287V354Q319 385 315 407T297 443T262 463T204 469Q167 469 130 464T63 451V485Q92 498 137 509T230 520Q309 520 346 484T384 371V75Q384
47 397 39T434 30Q438 30 449 30T462 32V5Q454 0 436 -4T397 -8Q333 -8 326 49H322Q298 23 263 6T178 -11ZM199 35Q236 35 268 49T319 85V242L200 233Q138 228 114 203T90 134Q90 86 117 61T199 35ZM374 672L405 722L571 608L556 581L374 672Z" />
<glyph unicode="&#xe1;" glyph-name="aacute" horiz-adv-x="467" d="M178 -11Q108 -11 66 26T24 127Q24 192 66 223T180 265L319 287V354Q319 385 315 407T297 443T262 463T204 469Q167 469 130 464T63 451V485Q92 498 137 509T230 520Q309 520 346 484T384 371V75Q384
47 397 39T434 30Q438 30 449 30T462 32V5Q454 0 436 -4T397 -8Q333 -8 326 49H322Q298 23 263 6T178 -11ZM199 35Q236 35 268 49T319 85V242L200 233Q138 228 114 203T90 134Q90 86 117 61T199 35ZM401 608L567 722L598 672L416 581L401 608Z" />
<glyph unicode="&#xe2;" glyph-name="acircumflex" horiz-adv-x="467" d="M178 -11Q108 -11 66 26T24 127Q24 192 66 223T180 265L319 287V354Q319 385 315 407T297 443T262 463T204 469Q167 469 130 464T63 451V485Q92 498 137 509T230 520Q309 520 346 484T384
371V75Q384 47 397 39T434 30Q438 30 449 30T462 32V5Q454 0 436 -4T397 -8Q333 -8 326 49H322Q298 23 263 6T178 -11ZM199 35Q236 35 268 49T319 85V242L200 233Q138 228 114 203T90 134Q90 86 117 61T199 35ZM357 609L469 722H503L615 609L598 587L486 667L375
587L357 609Z" />
<glyph unicode="&#xe3;" glyph-name="atilde" horiz-adv-x="467" d="M178 -11Q108 -11 66 26T24 127Q24 192 66 223T180 265L319 287V354Q319 385 315 407T297 443T262 463T204 469Q167 469 130 464T63 451V485Q92 498 137 509T230 520Q309 520 346 484T384 371V75Q384
47 397 39T434 30Q438 30 449 30T462 32V5Q454 0 436 -4T397 -8Q333 -8 326 49H322Q298 23 263 6T178 -11ZM199 35Q236 35 268 49T319 85V242L200 233Q138 228 114 203T90 134Q90 86 117 61T199 35ZM349 622Q380 701 435 701Q450 701 464 696T491 684T517 673T541
667Q556 667 568 676T594 708L624 695Q608 657 587 637T538 616Q523 616 509 621T481 633T455 644T432 650Q416 650 404 641T379 608L349 622Z" />
<glyph unicode="&#xe4;" glyph-name="adieresis" horiz-adv-x="467" d="M178 -11Q108 -11 66 26T24 127Q24 192 66 223T180 265L319 287V354Q319 385 315 407T297 443T262 463T204 469Q167 469 130 464T63 451V485Q92 498 137 509T230 520Q309 520 346 484T384
371V75Q384 47 397 39T434 30Q438 30 449 30T462 32V5Q454 0 436 -4T397 -8Q333 -8 326 49H322Q298 23 263 6T178 -11ZM199 35Q236 35 268 49T319 85V242L200 233Q138 228 114 203T90 134Q90 86 117 61T199 35ZM409 619Q392 619 380 631T368 660Q368 677 380 689T409
702Q427 702 439 690T451 660Q451 644 439 632T409 619ZM561 619Q544 619 532 631T519 660Q519 677 531 689T561 702Q579 702 591 690T603 660Q603 644 591 632T561 619Z" />
<glyph unicode="&#xe5;" glyph-name="aring" horiz-adv-x="467" d="M178 -11Q108 -11 66 26T24 127Q24 192 66 223T180 265L319 287V354Q319 385 315 407T297 443T262 463T204 469Q167 469 130 464T63 451V485Q92 498 137 509T230 520Q309 520 346 484T384 371V75Q384
47 397 39T434 30Q438 30 449 30T462 32V5Q454 0 436 -4T397 -8Q333 -8 326 49H322Q298 23 263 6T178 -11ZM199 35Q236 35 268 49T319 85V242L200 233Q138 228 114 203T90 134Q90 86 117 61T199 35ZM484 613Q507 613 520 627T534 664Q534 687 521 702T484 717Q461
717 447 702T433 664Q433 642 447 628T484 613ZM484 582Q446 582 422 606T398 664Q398 699 422 723T484 748Q521 748 545 724T570 664Q570 630 546 606T484 582Z" />
<glyph unicode="&#xe6;" glyph-name="ae" horiz-adv-x="767" d="M177 -11Q107 -11 66 27T24 128Q24 194 66 228T180 273L319 293V354Q319 385 314 407T296 443T260 463T200 469Q164 469 129 464T62 451V485Q92 498 136 509T229 520Q347 520 368 426Q397 471 440
495T539 520Q643 520 691 452T740 259H384Q384 152 427 95T568 38Q624 38 658 48T719 69V35Q695 21 657 6T556 -10Q483 -10 436 14T361 81Q348 63 329 47T287 18T235 -3T177 -11ZM345 110Q331 139 325 174T317 249L199 240Q138 235 114 207T90 136Q90 88 117 62T199
35Q240 35 278 55T345 110ZM668 303Q667 394 634 436T535 479Q466 479 428 433T384 297L668 303Z" />
<glyph unicode="&#xe7;" glyph-name="ccedilla" horiz-adv-x="452" d="M173 -176Q233 -168 256 -156T280 -122Q280 -102 261 -94T195 -86V-1Q113 20 71 86T29 252Q29 324 49 375T105 458T186 505T284 520Q322 520 355 515T418 499V378H379L365 465Q348 472 329
475T276 479Q236 479 203 466T146 427T109 359T96 260Q96 143 146 91T288 38Q339 38 374 48T429 69V33Q404 17 367 4T271 -10Q249 -10 231 -7V-49Q282 -51 309 -68T337 -118Q337 -153 299 -176T173 -206V-176Z" />
<glyph unicode="&#xe8;" glyph-name="egrave" horiz-adv-x="484" d="M270 -10Q204 -10 158 10T84 67T42 152T29 258Q29 321 46 369T94 451T165 502T253 520Q357 520 406 453T456 265H95Q96 155 140 97T282 38Q338 38 373 48T435 69V35Q411 21 372 6T270 -10ZM384
308Q383 396 349 437T249 479Q180 479 141 434T96 302L384 308ZM142 672L173 722L339 608L324 581L142 672Z" />
<glyph unicode="&#xe9;" glyph-name="eacute" horiz-adv-x="484" d="M168 608L334 722L365 672L183 581L168 608ZM270 -10Q204 -10 158 10T84 67T42 152T29 258Q29 321 46 369T94 451T165 502T253 520Q357 520 406 453T456 265H95Q96 155 140 97T282 38Q338 38
373 48T435 69V35Q411 21 372 6T270 -10ZM384 308Q383 396 349 437T249 479Q180 479 141 434T96 302L384 308Z" />
<glyph unicode="&#xea;" glyph-name="ecircumflex" horiz-adv-x="484" d="M124 609L236 722H270L382 609L365 587L253 667L142 587L124 609ZM270 -10Q204 -10 158 10T84 67T42 152T29 258Q29 321 46 369T94 451T165 502T253 520Q357 520 406 453T456 265H95Q96
155 140 97T282 38Q338 38 373 48T435 69V35Q411 21 372 6T270 -10ZM384 308Q383 396 349 437T249 479Q180 479 141 434T96 302L384 308Z" />
<glyph unicode="&#xeb;" glyph-name="edieresis" horiz-adv-x="484" d="M177 619Q160 619 148 631T136 660Q136 677 148 689T177 702Q195 702 207 690T219 660Q219 644 207 632T177 619ZM329 619Q312 619 300 631T287 660Q287 677 299 689T329 702Q347 702 359
690T371 660Q371 644 359 632T329 619ZM270 -10Q204 -10 158 10T84 67T42 152T29 258Q29 321 46 369T94 451T165 502T253 520Q357 520 406 453T456 265H95Q96 155 140 97T282 38Q338 38 373 48T435 69V35Q411 21 372 6T270 -10ZM384 308Q383 396 349 437T249 479Q180
479 141 434T96 302L384 308Z" />
<glyph unicode="&#xec;" glyph-name="igrave" horiz-adv-x="250" d="M15 27L94 39V458L10 470V499L150 516L158 512V39L237 27V0H15V27ZM267 672L298 722L464 608L449 581L267 672Z" />
<glyph unicode="&#xed;" glyph-name="iacute" horiz-adv-x="250" d="M294 608L460 722L491 672L309 581L294 608ZM15 27L94 39V458L10 470V499L150 516L158 512V39L237 27V0H15V27Z" />
<glyph unicode="&#xee;" glyph-name="icircumflex" horiz-adv-x="250" d="M250 609L362 722H396L508 609L491 587L379 667L268 587L250 609ZM15 27L94 39V458L10 470V499L150 516L158 512V39L237 27V0H15V27Z" />
<glyph unicode="&#xef;" glyph-name="idieresis" horiz-adv-x="250" d="M303 619Q286 619 274 631T262 660Q262 677 274 689T303 702Q321 702 333 690T345 660Q345 644 333 632T303 619ZM455 619Q438 619 426 631T413 660Q413 677 425 689T455 702Q473 702 485
690T497 660Q497 644 485 632T455 619ZM15 27L94 39V458L10 470V499L150 516L158 512V39L237 27V0H15V27Z" />
<glyph unicode="&#xf0;" glyph-name="eth" horiz-adv-x="531" d="M323 647Q402 585 450 496T498 283Q498 209 480 154T431 62T356 7T264 -11Q211 -11 168 7T94 60T46 144T29 254Q29 315 47 364T96 448T168 501T258 520Q303 520 334 508T387 481H392Q345 563 271
624L139 568L124 602L238 650Q215 667 188 683T130 717L147 748Q185 731 220 713T289 672L402 720L417 687L323 647ZM265 30Q299 30 329 41T381 80T417 154T430 271Q430 315 426 352T412 423Q386 447 350 462T266 478Q230 478 199 466T145 428T109 360T96 258Q96
198 109 155T146 85T199 44T265 30Z" />
<glyph unicode="&#xf1;" glyph-name="ntilde" horiz-adv-x="573" d="M15 27L92 39V458L14 470V499L145 516L153 512V462H157Q198 486 244 503T341 520Q412 520 448 489T484 385V39L562 27V0H343V27L420 39V368Q420 423 393 445T307 468Q267 468 229 457T156 429V39L234
27V0H15V27ZM151 622Q182 701 237 701Q252 701 266 696T293 684T319 673T343 667Q358 667 370 676T396 708L426 695Q410 657 389 637T340 616Q325 616 311 621T283 633T257 644T234 650Q218 650 206 641T181 608L151 622Z" />
<glyph unicode="&#xf2;" glyph-name="ograve" horiz-adv-x="532" d="M267 31Q300 31 330 43T384 81T422 149T436 251Q436 312 422 355T383 425T329 465T265 478Q232 478 202 466T148 428T110 359T96 257Q96 197 110 154T149 84T203 44T267 31ZM267 -11Q217 -11
174 6T98 58T48 141T29 252Q29 314 48 364T99 448T174 501T265 520Q315 520 358 502T434 451T484 368T503 257Q503 195 484 145T433 61T358 8T267 -11ZM154 672L185 722L351 608L336 581L154 672Z" />
<glyph unicode="&#xf3;" glyph-name="oacute" horiz-adv-x="532" d="M181 608L347 722L378 672L196 581L181 608ZM267 31Q300 31 330 43T384 81T422 149T436 251Q436 312 422 355T383 425T329 465T265 478Q232 478 202 466T148 428T110 359T96 257Q96 197 110
154T149 84T203 44T267 31ZM267 -11Q217 -11 174 6T98 58T48 141T29 252Q29 314 48 364T99 448T174 501T265 520Q315 520 358 502T434 451T484 368T503 257Q503 195 484 145T433 61T358 8T267 -11Z" />
<glyph unicode="&#xf4;" glyph-name="ocircumflex" horiz-adv-x="532" d="M137 609L249 722H283L395 609L378 587L266 667L155 587L137 609ZM267 31Q300 31 330 43T384 81T422 149T436 251Q436 312 422 355T383 425T329 465T265 478Q232 478 202 466T148 428T110
359T96 257Q96 197 110 154T149 84T203 44T267 31ZM267 -11Q217 -11 174 6T98 58T48 141T29 252Q29 314 48 364T99 448T174 501T265 520Q315 520 358 502T434 451T484 368T503 257Q503 195 484 145T433 61T358 8T267 -11Z" />
<glyph unicode="&#xf5;" glyph-name="otilde" horiz-adv-x="532" d="M267 31Q300 31 330 43T384 81T422 149T436 251Q436 312 422 355T383 425T329 465T265 478Q232 478 202 466T148 428T110 359T96 257Q96 197 110 154T149 84T203 44T267 31ZM267 -11Q217 -11
174 6T98 58T48 141T29 252Q29 314 48 364T99 448T174 501T265 520Q315 520 358 502T434 451T484 368T503 257Q503 195 484 145T433 61T358 8T267 -11ZM129 622Q160 701 215 701Q230 701 244 696T271 684T297 673T321 667Q336 667 348 676T374 708L404 695Q388
657 367 637T318 616Q303 616 289 621T261 633T235 644T212 650Q196 650 184 641T159 608L129 622Z" />
<glyph unicode="&#xf6;" glyph-name="odieresis" horiz-adv-x="532" d="M190 619Q173 619 161 631T149 660Q149 677 161 689T190 702Q208 702 220 690T232 660Q232 644 220 632T190 619ZM342 619Q325 619 313 631T300 660Q300 677 312 689T342 702Q360 702 372
690T384 660Q384 644 372 632T342 619ZM267 31Q300 31 330 43T384 81T422 149T436 251Q436 312 422 355T383 425T329 465T265 478Q232 478 202 466T148 428T110 359T96 257Q96 197 110 154T149 84T203 44T267 31ZM267 -11Q217 -11 174 6T98 58T48 141T29 252Q29
314 48 364T99 448T174 501T265 520Q315 520 358 502T434 451T484 368T503 257Q503 195 484 145T433 61T358 8T267 -11Z" />
<glyph unicode="&#xf7;" glyph-name="divide" horiz-adv-x="511" d="M255 149Q235 149 222 163T208 195Q208 215 221 228T255 242Q275 242 288 229T302 195Q302 177 289 163T255 149ZM60 368H451V322H60V368ZM255 449Q235 449 222 462T208 495Q208 515 221 528T255
541Q275 541 288 528T302 495Q302 476 289 463T255 449Z" />
<glyph unicode="&#xf8;" glyph-name="oslash" horiz-adv-x="532" d="M17 7L80 79Q29 145 29 252Q29 314 48 364T99 448T174 501T265 520Q355 520 418 466L470 525L501 500L446 437Q472 404 487 359T503 257Q503 195 484 145T433 61T358 8T267 -11Q173 -11 108
48L49 -19L17 7ZM267 31Q300 31 330 43T384 81T422 149T436 251Q436 296 429 331T407 392L143 88Q166 58 198 45T267 31ZM96 257Q96 215 102 183T120 125L384 426Q360 453 330 465T265 478Q232 478 202 466T148 428T110 359T96 257Z" />
<glyph unicode="&#xf9;" glyph-name="ugrave" horiz-adv-x="569" d="M229 -9Q154 -9 120 29T85 136V463L7 475V504L141 516L149 511V150Q149 94 172 68T258 41Q306 41 342 53T410 81V463L334 475V504L466 516L474 511V48L552 36V9L422 -8L414 -3V52H410Q372 25
328 8T229 -9ZM164 672L195 722L361 608L346 581L164 672Z" />
<glyph unicode="&#xfa;" glyph-name="uacute" horiz-adv-x="569" d="M190 608L356 722L387 672L205 581L190 608ZM229 -9Q154 -9 120 29T85 136V463L7 475V504L141 516L149 511V150Q149 94 172 68T258 41Q306 41 342 53T410 81V463L334 475V504L466 516L474 511V48L552
36V9L422 -8L414 -3V52H410Q372 25 328 8T229 -9Z" />
<glyph unicode="&#xfb;" glyph-name="ucircumflex" horiz-adv-x="569" d="M146 609L258 722H292L404 609L387 587L275 667L164 587L146 609ZM229 -9Q154 -9 120 29T85 136V463L7 475V504L141 516L149 511V150Q149 94 172 68T258 41Q306 41 342 53T410 81V463L334
475V504L466 516L474 511V48L552 36V9L422 -8L414 -3V52H410Q372 25 328 8T229 -9Z" />
<glyph unicode="&#xfc;" glyph-name="udieresis" horiz-adv-x="569" d="M199 619Q182 619 170 631T158 660Q158 677 170 689T199 702Q217 702 229 690T241 660Q241 644 229 632T199 619ZM351 619Q334 619 322 631T309 660Q309 677 321 689T351 702Q369 702 381
690T393 660Q393 644 381 632T351 619ZM229 -9Q154 -9 120 29T85 136V463L7 475V504L141 516L149 511V150Q149 94 172 68T258 41Q306 41 342 53T410 81V463L334 475V504L466 516L474 511V48L552 36V9L422 -8L414 -3V52H410Q372 25 328 8T229 -9Z" />
<glyph unicode="&#xfd;" glyph-name="yacute" horiz-adv-x="524" d="M122 -197Q104 -197 86 -193T55 -182V-143Q71 -147 82 -149T106 -151Q150 -151 173 -130T213 -65L245 16L58 472L2 482V511H199V482L127 472L276 95H279L417 472L347 482V511H524V482L468 472L257
-81Q236 -136 207 -166T122 -197ZM193 608L359 722L390 672L208 581L193 608Z" />
<glyph unicode="&#xfe;" glyph-name="thorn" horiz-adv-x="545" d="M4 -170L80 -160V685L-2 696V726L135 742L143 738V462H147Q181 486 219 503T312 520Q350 520 386 509T451 469T496 393T513 272Q513 200 496 147T446 59T369 7T268 -10Q226 -10 198 -5T145 9V-159L232
-170V-197H4V-170ZM275 31Q313 31 344 43T398 82T433 152T446 259Q446 318 435 358T401 422T349 457T281 468Q240 468 206 455T144 427V65Q166 52 195 42T275 31Z" />
<glyph unicode="&#xff;" glyph-name="ydieresis" horiz-adv-x="524" d="M122 -197Q104 -197 86 -193T55 -182V-143Q71 -147 82 -149T106 -151Q150 -151 173 -130T213 -65L245 16L58 472L2 482V511H199V482L127 472L276 95H279L417 472L347 482V511H524V482L468
472L257 -81Q236 -136 207 -166T122 -197ZM202 619Q185 619 173 631T161 660Q161 677 173 689T202 702Q220 702 232 690T244 660Q244 644 232 632T202 619ZM354 619Q337 619 325 631T312 660Q312 677 324 689T354 702Q372 702 384 690T396 660Q396 644 384 632T354
619Z" />
<glyph unicode="&#x100;" glyph-name="Amacron" horiz-adv-x="640" d="M-4 32L64 46L294 693H351L577 46L644 32V0H420V32L503 45L442 227H179L116 45L200 32V0H-4V32ZM193 266H429L314 604H311L193 266ZM207 798H437V753H207V798Z" />
<glyph unicode="&#x101;" glyph-name="amacron" horiz-adv-x="467" d="M367 672H597V627H367V672ZM178 -11Q108 -11 66 26T24 127Q24 192 66 223T180 265L319 287V354Q319 385 315 407T297 443T262 463T204 469Q167 469 130 464T63 451V485Q92 498 137 509T230
520Q309 520 346 484T384 371V75Q384 47 397 39T434 30Q438 30 449 30T462 32V5Q454 0 436 -4T397 -8Q333 -8 326 49H322Q298 23 263 6T178 -11ZM199 35Q236 35 268 49T319 85V242L200 233Q138 228 114 203T90 134Q90 86 117 61T199 35Z" />
<glyph unicode="&#x102;" glyph-name="Abreve" horiz-adv-x="640" d="M323 735Q272 735 239 765T200 840H242Q249 816 270 800T323 784Q355 784 375 800T403 840H445Q440 796 407 766T323 735ZM-4 32L64 46L294 693H351L577 46L644 32V0H420V32L503 45L442 227H179L116
45L200 32V0H-4V32ZM193 266H429L314 604H311L193 266Z" />
<glyph unicode="&#x103;" glyph-name="abreve" horiz-adv-x="467" d="M178 -11Q108 -11 66 26T24 127Q24 192 66 223T180 265L319 287V354Q319 385 315 407T297 443T262 463T204 469Q167 469 130 464T63 451V485Q92 498 137 509T230 520Q309 520 346 484T384 371V75Q384
47 397 39T434 30Q438 30 449 30T462 32V5Q454 0 436 -4T397 -8Q333 -8 326 49H322Q298 23 263 6T178 -11ZM199 35Q236 35 268 49T319 85V242L200 233Q138 228 114 203T90 134Q90 86 117 61T199 35ZM482 593Q431 593 396 625T357 708H399Q406 675 428 658T482 640Q514
640 536 657T565 708H606Q602 657 567 625T482 593Z" />
<glyph unicode="&#x104;" glyph-name="Aogonek" horiz-adv-x="640" d="M543 -200Q494 -200 472 -179T449 -123Q449 -104 456 -86T476 -53T502 -24T530 0H420V32L503 45L442 227H179L116 45L200 32V0H-4V32L64 46L294 693H351L577 46L644 32V0H577Q549 -28 528
-57T507 -117Q507 -140 519 -151T561 -163Q572 -163 580 -162T595 -160V-192Q584 -195 573 -197T543 -200ZM429 266L314 604H311L193 266H429Z" />
<glyph unicode="&#x105;" glyph-name="aogonek" horiz-adv-x="467" d="M392 -200Q343 -200 321 -179T298 -123Q298 -104 305 -87T325 -55T352 -28T381 -7Q332 1 326 49H322Q298 23 263 6T178 -11Q108 -11 66 26T24 127Q24 192 66 223T180 265L319 287V354Q319
385 315 407T297 443T262 463T204 469Q167 469 130 464T63 451V485Q92 498 137 509T230 520Q309 520 346 484T384 371V75Q384 47 397 39T434 30Q438 30 449 30T462 32V5Q441 -2 422 -15T388 -44T365 -79T356 -117Q356 -140 368 -151T410 -163Q420 -163 428 -162T444
-160V-192Q433 -195 422 -197T392 -200ZM199 35Q236 35 268 49T319 85V242L200 233Q138 228 114 203T90 134Q90 86 117 61T199 35Z" />
<glyph unicode="&#x106;" glyph-name="Cacute" horiz-adv-x="602" d="M354 -12Q279 -12 220 9T120 74T57 184T35 343Q35 440 60 509T130 621T233 685T361 705Q430 705 475 696T551 676L557 518H522L492 635Q470 645 435 654T355 663Q230 663 170 582T109 355Q109
198 169 115T361 32Q406 32 439 41T497 62L527 186H563L557 24Q521 9 474 -1T354 -12ZM268 728L256 757L434 851L459 797L268 728Z" />
<glyph unicode="&#x107;" glyph-name="cacute" horiz-adv-x="452" d="M271 -10Q212 -10 167 8T91 61T45 144T29 252Q29 324 49 375T105 458T186 505T284 520Q322 520 355 515T418 499V378H379L365 465Q348 472 329 475T276 479Q236 479 203 466T146 427T109 359T96
260Q96 143 146 91T288 38Q339 38 374 48T429 69V33Q404 17 367 4T271 -10ZM179 608L345 722L376 672L194 581L179 608Z" />
<glyph unicode="&#x108;" glyph-name="Ccircumflex" horiz-adv-x="602" d="M222 752L334 841H368L480 752L466 727L351 787L236 727L222 752ZM354 -12Q279 -12 220 9T120 74T57 184T35 343Q35 440 60 509T130 621T233 685T361 705Q430 705 475 696T551 676L557
518H522L492 635Q470 645 435 654T355 663Q230 663 170 582T109 355Q109 198 169 115T361 32Q406 32 439 41T497 62L527 186H563L557 24Q521 9 474 -1T354 -12Z" />
<glyph unicode="&#x109;" glyph-name="ccircumflex" horiz-adv-x="452" d="M271 -10Q212 -10 167 8T91 61T45 144T29 252Q29 324 49 375T105 458T186 505T284 520Q322 520 355 515T418 499V378H379L365 465Q348 472 329 475T276 479Q236 479 203 466T146 427T109
359T96 260Q96 143 146 91T288 38Q339 38 374 48T429 69V33Q404 17 367 4T271 -10ZM136 609L248 722H282L394 609L377 587L265 667L154 587L136 609Z" />
<glyph unicode="&#x10a;" glyph-name="Cdotaccent" horiz-adv-x="602" d="M346 742Q328 742 316 754T303 784Q303 801 315 814T346 827Q364 827 376 814T389 784Q389 767 377 755T346 742ZM354 -12Q279 -12 220 9T120 74T57 184T35 343Q35 440 60 509T130 621T233
685T361 705Q430 705 475 696T551 676L557 518H522L492 635Q470 645 435 654T355 663Q230 663 170 582T109 355Q109 198 169 115T361 32Q406 32 439 41T497 62L527 186H563L557 24Q521 9 474 -1T354 -12Z" />
<glyph unicode="&#x10b;" glyph-name="cdotaccent" horiz-adv-x="452" d="M271 -10Q212 -10 167 8T91 61T45 144T29 252Q29 324 49 375T105 458T186 505T284 520Q322 520 355 515T418 499V378H379L365 465Q348 472 329 475T276 479Q236 479 203 466T146 427T109
359T96 260Q96 143 146 91T288 38Q339 38 374 48T429 69V33Q404 17 367 4T271 -10ZM265 620Q247 620 235 633T222 663Q222 680 234 692T265 705Q284 705 296 693T308 663Q308 646 296 633T265 620Z" />
<glyph unicode="&#x10c;" glyph-name="Ccaron" horiz-adv-x="602" d="M476 823L364 733H330L218 823L232 847L347 788L462 847L476 823ZM354 -12Q279 -12 220 9T120 74T57 184T35 343Q35 440 60 509T130 621T233 685T361 705Q430 705 475 696T551 676L557 518H522L492
635Q470 645 435 654T355 663Q230 663 170 582T109 355Q109 198 169 115T361 32Q406 32 439 41T497 62L527 186H563L557 24Q521 9 474 -1T354 -12Z" />
<glyph unicode="&#x10d;" glyph-name="ccaron" horiz-adv-x="452" d="M136 699L154 721L265 641L377 721L394 699L282 586H248L136 699ZM271 -10Q212 -10 167 8T91 61T45 144T29 252Q29 324 49 375T105 458T186 505T284 520Q322 520 355 515T418 499V378H379L365
465Q348 472 329 475T276 479Q236 479 203 466T146 427T109 359T96 260Q96 143 146 91T288 38Q339 38 374 48T429 69V33Q404 17 367 4T271 -10Z" />
<glyph unicode="&#x10e;" glyph-name="Dcaron" horiz-adv-x="663" d="M449 823L337 733H303L191 823L205 847L320 788L435 847L449 823ZM24 32L113 45V648L25 662V693H289Q382 693 447 671T552 606T611 501T629 359Q629 273 611 206T552 93T450 24T299 0H24V32ZM298
42Q364 42 412 58T492 110T539 205T555 349Q555 442 538 500T486 592T400 638T280 651H182V42H298Z" />
<glyph unicode="&#x10f;" glyph-name="dcaron" horiz-adv-x="556" d="M245 -10Q207 -10 169 2T101 44T51 122T32 245Q32 316 50 368T101 453T180 503T282 520Q323 520 350 513T400 497V685L313 696V726L456 742L464 738V48L542 36V9L412 -8L404 -3V52H400Q372
26 335 8T245 -10ZM264 41Q305 41 339 55T400 86V441Q389 448 377 455T351 467T318 476T275 479Q236 479 204 468T149 430T112 361T99 254Q99 195 110 155T143 89T195 52T264 41ZM514 586L525 741L587 732L548 582L514 586Z" />
<glyph unicode="&#x110;" glyph-name="Dcroat" horiz-adv-x="663" d="M26 371H111V648L23 662V693H287Q380 693 445 671T550 606T609 501T627 359Q627 273 609 206T550 93T448 24T297 0H22V32L111 45V326H26V371ZM297 42Q362 42 410 58T490 110T537 205T553 349Q553
442 536 500T485 592T399 638T279 651H181V371H363V326H181V42H297Z" />
<glyph unicode="&#x111;" glyph-name="dcroat" horiz-adv-x="560" d="M222 632H400V685L313 696V726L456 742L464 738V632H536V597H464V48L542 36V9L412 -8L404 -3V52H400Q372 26 335 8T245 -10Q207 -10 169 2T101 44T51 122T32 245Q32 316 50 368T101 453T180
503T282 520Q323 520 350 513T400 497V597H222V632ZM264 41Q305 41 339 55T400 86V441Q389 448 377 455T351 467T318 476T275 479Q236 479 204 468T149 430T112 361T99 254Q99 195 110 155T143 89T195 52T264 41Z" />
<glyph unicode="&#x112;" glyph-name="Emacron" horiz-adv-x="577" d="M24 32L113 45V648L25 662V693H524L534 530H498L466 651H182V377H345L364 472H397V242H364L345 337H182V42H478L516 186H552L541 0H24V32ZM189 798H419V753H189V798Z" />
<glyph unicode="&#x113;" glyph-name="emacron" horiz-adv-x="484" d="M270 -10Q204 -10 158 10T84 67T42 152T29 258Q29 321 46 369T94 451T165 502T253 520Q357 520 406 453T456 265H95Q96 155 140 97T282 38Q338 38 373 48T435 69V35Q411 21 372 6T270 -10ZM384
308Q383 396 349 437T249 479Q180 479 141 434T96 302L384 308ZM138 672H368V627H138V672Z" />
<glyph unicode="&#x114;" glyph-name="Ebreve" horiz-adv-x="577" d="M24 32L113 45V648L25 662V693H524L534 530H498L466 651H182V377H345L364 472H397V242H364L345 337H182V42H478L516 186H552L541 0H24V32ZM305 735Q254 735 221 765T182 840H224Q231 816 252
800T305 784Q337 784 357 800T385 840H427Q422 796 389 766T305 735Z" />
<glyph unicode="&#x115;" glyph-name="ebreve" horiz-adv-x="484" d="M509 593Q458 593 423 625T384 708H426Q433 675 455 658T509 640Q541 640 563 657T592 708H633Q629 657 594 625T509 593ZM270 -10Q204 -10 158 10T84 67T42 152T29 258Q29 321 46 369T94 451T165
502T253 520Q357 520 406 453T456 265H95Q96 155 140 97T282 38Q338 38 373 48T435 69V35Q411 21 372 6T270 -10ZM384 308Q383 396 349 437T249 479Q180 479 141 434T96 302L384 308Z" />
<glyph unicode="&#x116;" glyph-name="Edotaccent" horiz-adv-x="577" d="M305 742Q287 742 275 754T262 784Q262 801 274 814T305 827Q323 827 335 814T348 784Q348 767 336 755T305 742ZM24 32L113 45V648L25 662V693H524L534 530H498L466 651H182V377H345L364
472H397V242H364L345 337H182V42H478L516 186H552L541 0H24V32Z" />
<glyph unicode="&#x117;" glyph-name="edotaccent" horiz-adv-x="484" d="M253 620Q235 620 223 633T210 663Q210 680 222 692T253 705Q272 705 284 693T296 663Q296 646 284 633T253 620ZM270 -10Q204 -10 158 10T84 67T42 152T29 258Q29 321 46 369T94 451T165
502T253 520Q357 520 406 453T456 265H95Q96 155 140 97T282 38Q338 38 373 48T435 69V35Q411 21 372 6T270 -10ZM384 308Q383 396 349 437T249 479Q180 479 141 434T96 302L384 308Z" />
<glyph unicode="&#x118;" glyph-name="Eogonek" horiz-adv-x="577" d="M24 32L113 45V648L25 662V693H524L534 530H498L466 651H182V377H345L364 472H397V242H364L345 337H182V42H478L516 186H552L541 0H478Q450 -28 429 -57T408 -117Q408 -140 420 -151T462 -163Q473
-163 481 -162T496 -160V-192Q485 -195 474 -197T444 -200Q395 -200 373 -179T350 -123Q350 -104 357 -86T377 -52T403 -23T432 0H24V32Z" />
<glyph unicode="&#x119;" glyph-name="eogonek" horiz-adv-x="484" d="M378 -192Q367 -195 356 -197T326 -200Q277 -200 255 -179T232 -123Q232 -104 240 -87T260 -54T288 -27T319 -6Q309 -8 296 -9T270 -10Q204 -10 158 10T84 67T42 152T29 258Q29 321 46 369T94
451T165 502T253 520Q357 520 406 453T456 265H95Q96 155 140 97T282 38Q338 38 373 48T435 69V35Q412 24 387 8T340 -28T304 -70T290 -117Q290 -140 302 -151T344 -163Q355 -163 363 -162T378 -160V-192ZM249 479Q180 479 141 434T96 302L384 308Q383 396 349
437T249 479Z" />
<glyph unicode="&#x11a;" glyph-name="Ecaron" horiz-adv-x="577" d="M433 823L321 733H287L175 823L189 847L304 788L419 847L433 823ZM24 32L113 45V648L25 662V693H524L534 530H498L466 651H182V377H345L364 472H397V242H364L345 337H182V42H478L516 186H552L541
0H24V32Z" />
<glyph unicode="&#x11b;" glyph-name="ecaron" horiz-adv-x="484" d="M270 -10Q204 -10 158 10T84 67T42 152T29 258Q29 321 46 369T94 451T165 502T253 520Q357 520 406 453T456 265H95Q96 155 140 97T282 38Q338 38 373 48T435 69V35Q411 21 372 6T270 -10ZM384
308Q383 396 349 437T249 479Q180 479 141 434T96 302L384 308ZM124 699L142 721L253 641L365 721L382 699L270 586H236L124 699Z" />
<glyph unicode="&#x11c;" glyph-name="Gcircumflex" horiz-adv-x="660" d="M369 -12Q290 -12 228 9T123 74T58 184T35 343Q35 440 61 509T132 621T237 685T366 705Q438 705 485 697T563 676L571 520H536L506 633Q480 647 445 655T359 663Q297 663 251 642T173
582T125 485T109 355Q109 198 171 115T366 31Q408 31 440 38T499 54V259L404 272V303H646V272L569 259V20Q528 6 480 -3T369 -12ZM227 752L339 841H373L485 752L471 727L356 787L241 727L227 752Z" />
<glyph unicode="&#x11d;" glyph-name="gcircumflex" horiz-adv-x="490" d="M118 609L230 722H264L376 609L359 587L247 667L136 587L118 609ZM217 -203Q162 -203 123 -192T58 -163T22 -123T10 -77Q10 -32 40 -3T113 47V50Q88 58 72 76T56 120Q56 147 71 171T114
220Q83 240 66 272T48 350Q48 390 62 421T101 474T161 507T236 519Q285 519 322 505L471 519V470L370 474Q396 454 411 426T426 358Q426 318 412 287T371 234T310 201T235 189Q183 189 141 206Q108 175 108 141Q108 124 120 112T158 100H319Q353 100 381 94T430
73T462 35T474 -22Q474 -58 459 -90T411 -148T331 -188T217 -203ZM222 -161Q274 -161 310 -151T370 -123T404 -83T415 -37Q415 5 390 23T309 41H153Q117 25 95 -3T72 -66Q72 -86 80 -103T106 -134T152 -154T222 -161ZM235 227Q292 227 326 259T361 353Q361 418
326 449T235 481Q178 481 145 449T112 355Q112 290 145 259T235 227Z" />
<glyph unicode="&#x11e;" glyph-name="Gbreve" horiz-adv-x="660" d="M369 -12Q290 -12 228 9T123 74T58 184T35 343Q35 440 61 509T132 621T237 685T366 705Q438 705 485 697T563 676L571 520H536L506 633Q480 647 445 655T359 663Q297 663 251 642T173 582T125
485T109 355Q109 198 171 115T366 31Q408 31 440 38T499 54V259L404 272V303H646V272L569 259V20Q528 6 480 -3T369 -12ZM352 735Q301 735 268 765T229 840H271Q278 816 299 800T352 784Q384 784 404 800T432 840H474Q469 796 436 766T352 735Z" />
<glyph unicode="&#x11f;" glyph-name="gbreve" horiz-adv-x="490" d="M217 -203Q162 -203 123 -192T58 -163T22 -123T10 -77Q10 -32 40 -3T113 47V50Q88 58 72 76T56 120Q56 147 71 171T114 220Q83 240 66 272T48 350Q48 390 62 421T101 474T161 507T236 519Q285
519 322 505L471 519V470L370 474Q396 454 411 426T426 358Q426 318 412 287T371 234T310 201T235 189Q183 189 141 206Q108 175 108 141Q108 124 120 112T158 100H319Q353 100 381 94T430 73T462 35T474 -22Q474 -58 459 -90T411 -148T331 -188T217 -203ZM222
-161Q274 -161 310 -151T370 -123T404 -83T415 -37Q415 5 390 23T309 41H153Q117 25 95 -3T72 -66Q72 -86 80 -103T106 -134T152 -154T222 -161ZM235 227Q292 227 326 259T361 353Q361 418 326 449T235 481Q178 481 145 449T112 355Q112 290 145 259T235 227ZM503
593Q452 593 417 625T378 708H420Q427 675 449 658T503 640Q535 640 557 657T586 708H627Q623 657 588 625T503 593Z" />
<glyph unicode="&#x120;" glyph-name="Gdotaccent" horiz-adv-x="660" d="M369 -12Q290 -12 228 9T123 74T58 184T35 343Q35 440 61 509T132 621T237 685T366 705Q438 705 485 697T563 676L571 520H536L506 633Q480 647 445 655T359 663Q297 663 251 642T173 582T125
485T109 355Q109 198 171 115T366 31Q408 31 440 38T499 54V259L404 272V303H646V272L569 259V20Q528 6 480 -3T369 -12ZM352 742Q334 742 322 754T309 784Q309 801 321 814T352 827Q370 827 382 814T395 784Q395 767 383 755T352 742Z" />
<glyph unicode="&#x121;" glyph-name="gdotaccent" horiz-adv-x="490" d="M247 620Q229 620 217 633T204 663Q204 680 216 692T247 705Q266 705 278 693T290 663Q290 646 278 633T247 620ZM217 -203Q162 -203 123 -192T58 -163T22 -123T10 -77Q10 -32 40 -3T113
47V50Q88 58 72 76T56 120Q56 147 71 171T114 220Q83 240 66 272T48 350Q48 390 62 421T101 474T161 507T236 519Q285 519 322 505L471 519V470L370 474Q396 454 411 426T426 358Q426 318 412 287T371 234T310 201T235 189Q183 189 141 206Q108 175 108 141Q108
124 120 112T158 100H319Q353 100 381 94T430 73T462 35T474 -22Q474 -58 459 -90T411 -148T331 -188T217 -203ZM222 -161Q274 -161 310 -151T370 -123T404 -83T415 -37Q415 5 390 23T309 41H153Q117 25 95 -3T72 -66Q72 -86 80 -103T106 -134T152 -154T222 -161ZM235
227Q292 227 326 259T361 353Q361 418 326 449T235 481Q178 481 145 449T112 355Q112 290 145 259T235 227Z" />
<glyph unicode="&#x122;" glyph-name="Gcommaaccent" horiz-adv-x="660" d="M369 -12Q290 -12 228 9T123 74T58 184T35 343Q35 440 61 509T132 621T237 685T366 705Q438 705 485 697T563 676L571 520H536L506 633Q480 647 445 655T359 663Q297 663 251 642T173
582T125 485T109 355Q109 198 171 115T366 31Q408 31 440 38T499 54V259L404 272V303H646V272L569 259V20Q528 6 480 -3T369 -12ZM306 -179Q313 -152 316 -116T320 -42H387Q383 -80 374 -116T348 -179H306Z" />
<glyph unicode="&#x123;" glyph-name="gcommaaccent" horiz-adv-x="490" d="M217 -203Q162 -203 123 -192T58 -163T22 -123T10 -77Q10 -32 40 -3T113 47V50Q88 58 72 76T56 120Q56 147 71 171T114 220Q83 240 66 272T48 350Q48 390 62 421T101 474T161 507T236
519Q285 519 322 505L471 519V470L370 474Q396 454 411 426T426 358Q426 318 412 287T371 234T310 201T235 189Q183 189 141 206Q108 175 108 141Q108 124 120 112T158 100H319Q353 100 381 94T430 73T462 35T474 -22Q474 -58 459 -90T411 -148T331 -188T217 -203ZM222
-161Q274 -161 310 -151T370 -123T404 -83T415 -37Q415 5 390 23T309 41H153Q117 25 95 -3T72 -66Q72 -86 80 -103T106 -134T152 -154T222 -161ZM235 227Q292 227 326 259T361 353Q361 418 326 449T235 481Q178 481 145 449T112 355Q112 290 145 259T235 227ZM293
747Q279 689 279 610H212Q216 648 225 684T251 747H293Z" />
<glyph unicode="&#x124;" glyph-name="Hcircumflex" horiz-adv-x="716" d="M24 32L112 45V648L24 662V693H273V662L182 648V376H536V648L444 662V693H694V662L606 648V45L694 32V0H444V32L536 45V337H182V45L273 32V0H24V32ZM230 752L342 841H376L488 752L474
727L359 787L244 727L230 752Z" />
<glyph unicode="&#x125;" glyph-name="hcircumflex" horiz-adv-x="571" d="M15 27L92 39V685L11 697V726L148 743L156 738V464H160Q201 487 246 503T341 520Q412 520 448 489T484 385V39L562 27V0H343V27L420 39V368Q420 423 393 446T307 469Q267 469 229 458T156
429V39L234 27V0H15V27ZM157 805L269 894H303L415 805L401 780L286 840L171 780L157 805Z" />
<glyph unicode="&#x126;" glyph-name="Hbar" horiz-adv-x="716" d="M21 531H112V648L24 662V693H273V662L182 648V531H536V648L444 662V693H694V662L606 648V531H697V494H606V45L694 32V0H444V32L536 45V337H182V45L273 32V0H24V32L112 45V494H21V531ZM536 376V494H182V376H536Z"
/>
<glyph unicode="&#x127;" glyph-name="hbar" horiz-adv-x="571" d="M4 632H92V685L11 697V726L148 743L156 738V632H318V597H156V464H160Q201 487 246 503T341 520Q412 520 448 489T484 385V39L562 27V0H343V27L420 39V368Q420 423 393 446T307 469Q267 469 229
458T156 429V39L234 27V0H15V27L92 39V597H4V632Z" />
<glyph unicode="&#x128;" glyph-name="Itilde" horiz-adv-x="296" d="M24 32L114 45V649L24 662V693H272V662L183 649V45L272 32V0H24V32ZM266 752Q282 790 303 811T352 832Q367 832 381 827T409 815T435 804T458 798Q474 798 486 807T511 839L541 825Q510 746
455 746Q440 746 426 751T399 763T373 774T349 780Q334 780 322 771T296 739L266 752Z" />
<glyph unicode="&#x129;" glyph-name="itilde" horiz-adv-x="250" d="M15 27L94 39V458L10 470V499L150 516L158 512V39L237 27V0H15V27ZM242 622Q273 701 328 701Q343 701 357 696T384 684T410 673T434 667Q449 667 461 676T487 708L517 695Q501 657 480 637T431
616Q416 616 402 621T374 633T348 644T325 650Q309 650 297 641T272 608L242 622Z" />
<glyph unicode="&#x12a;" glyph-name="Imacron" horiz-adv-x="296" d="M288 798H518V753H288V798ZM24 32L114 45V649L24 662V693H272V662L183 649V45L272 32V0H24V32Z" />
<glyph unicode="&#x12b;" glyph-name="imacron" horiz-adv-x="250" d="M15 27L94 39V458L10 470V499L150 516L158 512V39L237 27V0H15V27ZM6 672H209V627H6V672Z" />
<glyph unicode="&#x12c;" glyph-name="Ibreve" horiz-adv-x="296" d="M404 735Q353 735 320 765T281 840H323Q330 816 351 800T404 784Q436 784 456 800T484 840H526Q521 796 488 766T404 735ZM24 32L114 45V649L24 662V693H272V662L183 649V45L272 32V0H24V32Z" />
<glyph unicode="&#x12d;" glyph-name="ibreve" horiz-adv-x="250" d="M15 27L94 39V458L10 470V499L150 516L158 512V39L237 27V0H15V27ZM123 593Q72 593 37 625T-2 708H40Q47 675 69 658T123 640Q155 640 177 657T206 708H247Q243 657 208 625T123 593Z" />
<glyph unicode="&#x12e;" glyph-name="Iogonek" horiz-adv-x="296" d="M24 32L114 45V649L24 662V693H272V662L183 649V45L272 32V0H195Q171 -28 155 -57T138 -117Q138 -139 150 -151T192 -163Q202 -163 210 -162T226 -160V-192Q215 -195 204 -197T174 -200Q125
-200 103 -179T80 -123Q80 -104 86 -86T103 -52T125 -23T148 0H24V32Z" />
<glyph unicode="&#x12f;" glyph-name="iogonek" horiz-adv-x="250" d="M15 27L94 39V458L10 470V499L150 516L158 512V39L237 27V0H166Q143 -28 125 -57T106 -117Q106 -140 118 -151T159 -163Q170 -163 178 -162T193 -160V-192Q182 -195 171 -197T141 -200Q92
-200 70 -179T48 -123Q48 -103 56 -85T75 -51T99 -22T122 0H15V27ZM121 620Q103 620 91 633T78 663Q78 680 90 692T121 705Q140 705 152 693T164 663Q164 646 152 633T121 620Z" />
<glyph unicode="&#x130;" glyph-name="Idotaccent" horiz-adv-x="296" d="M24 32L114 45V649L24 662V693H272V662L183 649V45L272 32V0H24V32ZM404 742Q386 742 374 754T361 784Q361 801 373 814T404 827Q422 827 434 814T447 784Q447 767 435 755T404 742Z" />
<glyph unicode="&#x131;" glyph-name="dotlessi" horiz-adv-x="250" d="M15 27L94 39V458L10 470V499L150 516L158 512V39L237 27V0H15V27Z" />
<glyph unicode="&#x132;" glyph-name="IJ" horiz-adv-x="672" d="M410 -8Q375 -8 350 -1T305 14V56Q328 48 350 44T401 39Q457 39 480 67T504 158V648L415 662V693H661V662L574 648V151Q574 77 535 35T410 -8ZM24 32L114 45V649L24 662V693H272V662L183 649V45L272
32V0H24V32Z" />
<glyph unicode="&#x133;" glyph-name="ij" horiz-adv-x="484" d="M15 27L94 39V458L10 470V499L150 516L158 512V39L237 27V0H15V27ZM121 620Q103 620 91 633T78 663Q78 680 90 692T121 705Q140 705 152 693T164 663Q164 646 152 633T121 620ZM269 -196Q251 -196
236 -193T204 -183V-151Q223 -155 251 -155Q270 -155 286 -151T315 -135T333 -104T340 -55V458L257 470V499L396 516L404 512V-63Q404 -129 369 -162T269 -196ZM368 620Q350 620 338 633T325 663Q325 680 337 692T368 705Q386 705 398 693T411 663Q411 646 399
633T368 620Z" />
<glyph unicode="&#x134;" glyph-name="Jcircumflex" horiz-adv-x="389" d="M123 -8Q85 -8 57 -1T9 17V58Q34 50 58 45T114 39Q171 39 196 67T221 158V648L131 662V693H378V662L290 648V151Q290 77 250 35T123 -8ZM126 752L238 841H272L384 752L370 727L255 787L140
727L126 752Z" />
<glyph unicode="&#x135;" glyph-name="jcircumflex" horiz-adv-x="241" d="M27 -196Q9 -196 -6 -193T-38 -183V-151Q-19 -155 9 -155Q28 -155 44 -151T73 -135T91 -104T98 -55V458L15 470V499L154 516L162 512V-63Q162 -129 127 -162T27 -196ZM247 609L359 722H393L505
609L488 587L376 667L265 587L247 609Z" />
<glyph unicode="&#x136;" glyph-name="Kcommaaccent" horiz-adv-x="636" d="M231 332V349L484 649L412 662V693H611V662L546 649L295 358L546 45L623 32V0H495L231 332ZM24 32L112 45V649L24 662V693H276V662L182 649V45L276 32V0H24V32ZM293 -179Q300 -152 303
-116T307 -42H374Q370 -80 361 -116T335 -179H293Z" />
<glyph unicode="&#x137;" glyph-name="kcommaaccent" horiz-adv-x="510" d="M195 259V271L368 472L305 483V511H489V483L422 472L253 284L440 39L510 27V0H393L195 259ZM15 27L92 38V685L11 697V726L148 743L156 738V38L237 27V0H15V27ZM224 -179Q231 -152 234
-116T238 -42H305Q301 -80 292 -116T266 -179H224Z" />
<glyph unicode="&#x139;" glyph-name="Lacute" horiz-adv-x="545" d="M24 32L112 45V649L24 662V693H279V662L182 649V42H455L490 197H526L514 0H24V32ZM325 728L313 757L491 851L516 797L325 728Z" />
<glyph unicode="&#x13a;" glyph-name="lacute" horiz-adv-x="250" d="M15 27L94 39V685L7 697V726L150 743L158 738V39L237 27V0H15V27ZM299 776L287 805L465 899L490 845L299 776Z" />
<glyph unicode="&#x13b;" glyph-name="Lcommaaccent" horiz-adv-x="545" d="M24 32L112 45V649L24 662V693H279V662L182 649V42H455L490 197H526L514 0H24V32ZM243 -179Q250 -152 253 -116T257 -42H324Q320 -80 311 -116T285 -179H243Z" />
<glyph unicode="&#x13c;" glyph-name="lcommaaccent" horiz-adv-x="250" d="M15 27L94 39V685L7 697V726L150 743L158 738V39L237 27V0H15V27ZM332 -179Q339 -152 342 -116T346 -42H413Q409 -80 400 -116T374 -179H332Z" />
<glyph unicode="&#x13d;" glyph-name="Lcaron" horiz-adv-x="545" d="M364 713L431 704L391 551L352 555L364 713ZM24 32L112 45V649L24 662V693H279V662L182 649V42H455L490 197H526L514 0H24V32Z" />
<glyph unicode="&#x13e;" glyph-name="lcaron" horiz-adv-x="250" d="M15 27L94 39V685L7 697V726L150 743L158 738V39L237 27V0H15V27ZM463 586L474 741L536 732L497 582L463 586Z" />
<glyph unicode="&#x13f;" glyph-name="Ldot" horiz-adv-x="545" d="M24 32L112 45V649L24 662V693H279V662L182 649V42H455L490 197H526L514 0H24V32ZM452 329Q432 329 418 342T404 376Q404 396 418 409T452 423Q472 423 486 410T500 376Q500 356 486 343T452 329Z" />
<glyph unicode="&#x140;" glyph-name="ldot" horiz-adv-x="263" d="M258 320Q277 320 290 332T304 365Q304 384 291 397T258 410Q239 410 226 397T213 365Q213 345 226 333T258 320ZM15 27L94 39V685L7 697V726L150 743L158 738V39L237 27V0H15V27Z" />
<glyph unicode="&#x141;" glyph-name="Lslash" horiz-adv-x="545" d="M29 269L112 306V649L24 662V693H279V662L182 649V337L390 432V387L182 291V42H455L490 197H526L514 0H24V32L112 45V261L29 224V269Z" />
<glyph unicode="&#x142;" glyph-name="lslash" horiz-adv-x="250" d="M4 324L94 379V685L7 697V726L150 743L158 738V419L251 476V430L158 373V39L237 27V0H15V27L94 39V333L4 278V324Z" />
<glyph unicode="&#x143;" glyph-name="Nacute" horiz-adv-x="703" d="M24 31L113 45V648L24 662V693H207L552 123H555V648L464 662V693H687V662L606 648V0H549L167 634H164V45L259 31V0H24V31ZM297 728L285 757L463 851L488 797L297 728Z" />
<glyph unicode="&#x144;" glyph-name="nacute" horiz-adv-x="573" d="M15 27L92 39V458L14 470V499L145 516L153 512V462H157Q198 486 244 503T341 520Q412 520 448 489T484 385V39L562 27V0H343V27L420 39V368Q420 423 393 445T307 468Q267 468 229 457T156 429V39L234
27V0H15V27ZM203 608L369 722L400 672L218 581L203 608Z" />
<glyph unicode="&#x145;" glyph-name="Ncommaaccent" horiz-adv-x="703" d="M24 31L113 45V648L24 662V693H207L552 123H555V648L464 662V693H687V662L606 648V0H549L167 634H164V45L259 31V0H24V31ZM321 -179Q328 -152 331 -116T335 -42H402Q398 -80 389 -116T363
-179H321Z" />
<glyph unicode="&#x146;" glyph-name="ncommaaccent" horiz-adv-x="573" d="M15 27L92 39V458L14 470V499L145 516L153 512V462H157Q198 486 244 503T341 520Q412 520 448 489T484 385V39L562 27V0H343V27L420 39V368Q420 423 393 445T307 468Q267 468 229 457T156
429V39L234 27V0H15V27ZM242 -179Q249 -152 252 -116T256 -42H323Q319 -80 310 -116T284 -179H242Z" />
<glyph unicode="&#x147;" glyph-name="Ncaron" horiz-adv-x="703" d="M24 31L113 45V648L24 662V693H207L552 123H555V648L464 662V693H687V662L606 648V0H549L167 634H164V45L259 31V0H24V31ZM500 823L388 733H354L242 823L256 847L371 788L486 847L500 823Z" />
<glyph unicode="&#x148;" glyph-name="ncaron" horiz-adv-x="573" d="M15 27L92 39V458L14 470V499L145 516L153 512V462H157Q198 486 244 503T341 520Q412 520 448 489T484 385V39L562 27V0H343V27L420 39V368Q420 423 393 445T307 468Q267 468 229 457T156 429V39L234
27V0H15V27ZM155 699L173 721L284 641L396 721L413 699L301 586H267L155 699Z" />
<glyph unicode="&#x149;" glyph-name="napostrophe" horiz-adv-x="588" d="M30 27L107 39V458L29 470V499L160 516L168 512V462H172Q213 486 259 503T356 520Q427 520 463 489T499 385V39L577 27V0H358V27L435 39V368Q435 423 408 445T322 468Q282 468 244 457T171
429V39L249 27V0H30V27ZM214 508Q223 552 228 597T234 693H306Q300 642 288 597T256 508H214Z" />
<glyph unicode="&#x14a;" glyph-name="Eng" horiz-adv-x="703" d="M464 -174Q435 -174 413 -169T372 -156V-121Q389 -126 406 -128T444 -131Q500 -131 526 -106T555 -10L167 634H164V45L259 31V0H24V31L113 45V648L24 662V693H207L552 123H555V648L464 662V693H687V662L606
648V-18Q606 -95 572 -134T464 -174Z" />
<glyph unicode="&#x14b;" glyph-name="eng" horiz-adv-x="560" d="M484 -63Q484 -129 449 -162T353 -196Q333 -196 319 -193T288 -184V-152Q309 -155 331 -155Q350 -155 366 -151T395 -135T413 -104T420 -55V368Q420 423 393 445T307 468Q267 468 229 457T156
429V39L234 27V0H15V27L92 39V458L14 470V499L145 516L153 512V462H157Q198 486 244 503T341 520Q412 520 448 489T484 385V-63Z" />
<glyph unicode="&#x14c;" glyph-name="Omacron" horiz-adv-x="682" d="M340 32Q394 32 437 53T509 115T554 212T570 340Q570 501 509 581T338 662Q283 662 241 641T169 579T124 482T109 354Q109 202 166 117T340 32ZM339 -11Q274 -11 219 12T122 81T58 193T35
347Q35 438 60 505T127 616T225 682T341 704Q405 704 460 681T557 613T621 502T644 349Q644 258 619 191T552 78T454 11T339 -11ZM224 798H454V753H224V798Z" />
<glyph unicode="&#x14d;" glyph-name="omacron" horiz-adv-x="532" d="M267 31Q300 31 330 43T384 81T422 149T436 251Q436 312 422 355T383 425T329 465T265 478Q232 478 202 466T148 428T110 359T96 257Q96 197 110 154T149 84T203 44T267 31ZM267 -11Q217 -11
174 6T98 58T48 141T29 252Q29 314 48 364T99 448T174 501T265 520Q315 520 358 502T434 451T484 368T503 257Q503 195 484 145T433 61T358 8T267 -11ZM151 672H381V627H151V672Z" />
<glyph unicode="&#x14e;" glyph-name="Obreve" horiz-adv-x="682" d="M340 32Q394 32 437 53T509 115T554 212T570 340Q570 501 509 581T338 662Q283 662 241 641T169 579T124 482T109 354Q109 202 166 117T340 32ZM339 -11Q274 -11 219 12T122 81T58 193T35 347Q35
438 60 505T127 616T225 682T341 704Q405 704 460 681T557 613T621 502T644 349Q644 258 619 191T552 78T454 11T339 -11ZM340 735Q289 735 256 765T217 840H259Q266 816 287 800T340 784Q372 784 392 800T420 840H462Q457 796 424 766T340 735Z" />
<glyph unicode="&#x14f;" glyph-name="obreve" horiz-adv-x="532" d="M266 593Q215 593 180 625T141 708H183Q190 675 212 658T266 640Q298 640 320 657T349 708H390Q386 657 351 625T266 593ZM267 31Q300 31 330 43T384 81T422 149T436 251Q436 312 422 355T383
425T329 465T265 478Q232 478 202 466T148 428T110 359T96 257Q96 197 110 154T149 84T203 44T267 31ZM267 -11Q217 -11 174 6T98 58T48 141T29 252Q29 314 48 364T99 448T174 501T265 520Q315 520 358 502T434 451T484 368T503 257Q503 195 484 145T433 61T358
8T267 -11Z" />
<glyph unicode="&#x150;" glyph-name="Ohungarumlaut" horiz-adv-x="682" d="M250 748L327 876L374 844L277 731L250 748ZM386 748L463 876L510 844L413 731L386 748ZM340 32Q394 32 437 53T509 115T554 212T570 340Q570 501 509 581T338 662Q283 662 241 641T169
579T124 482T109 354Q109 202 166 117T340 32ZM339 -11Q274 -11 219 12T122 81T58 193T35 347Q35 438 60 505T127 616T225 682T341 704Q405 704 460 681T557 613T621 502T644 349Q644 258 619 191T552 78T454 11T339 -11Z" />
<glyph unicode="&#x151;" glyph-name="ohungarumlaut" horiz-adv-x="532" d="M170 591L272 740L318 705L198 573L170 591ZM310 591L412 740L457 705L337 573L310 591ZM267 31Q300 31 330 43T384 81T422 149T436 251Q436 312 422 355T383 425T329 465T265 478Q232
478 202 466T148 428T110 359T96 257Q96 197 110 154T149 84T203 44T267 31ZM267 -11Q217 -11 174 6T98 58T48 141T29 252Q29 314 48 364T99 448T174 501T265 520Q315 520 358 502T434 451T484 368T503 257Q503 195 484 145T433 61T358 8T267 -11Z" />
<glyph unicode="&#x152;" glyph-name="OE" horiz-adv-x="918" d="M381 0Q287 0 221 22T114 87T54 192T35 334Q35 420 54 487T114 599T218 669T371 693H870L880 530H844L812 651H538V376H692L710 472H743V242H710L692 338H538V42H824L862 186H898L887 0H381ZM372
651Q306 651 257 635T174 583T125 488T109 345Q109 252 127 193T180 101T268 55T390 42H469V651H372Z" />
<glyph unicode="&#x153;" glyph-name="oe" horiz-adv-x="890" d="M675 -10Q586 -10 537 25T465 120Q437 57 385 23T267 -11Q216 -11 173 6T97 58T47 141T29 252Q29 314 48 364T99 448T175 501T265 520Q335 520 388 486T468 388Q493 452 542 486T659 520Q762 520
812 453T862 265H501Q501 155 545 97T688 38Q744 38 779 48T841 69V35Q817 21 777 6T675 -10ZM267 31Q300 31 330 43T383 81T421 149T435 251Q435 312 421 355T382 425T328 465T264 478Q231 478 201 466T148 428T110 359T96 257Q96 197 110 154T149 84T203 44T267
31ZM655 479Q586 479 547 434T501 302L790 308Q789 396 755 437T655 479Z" />
<glyph unicode="&#x154;" glyph-name="Racute" horiz-adv-x="623" d="M223 728L211 757L389 851L414 797L223 728ZM24 32L114 45V648L26 662V693H303Q366 693 409 681T481 644T521 586T534 509Q534 436 494 394T385 335V332L553 45L625 31V0H500L317 319H183V45L270
32V0H24V32ZM306 359Q349 359 378 370T426 402T453 449T462 508Q462 543 454 569T427 613T377 640T300 649H183V359H306Z" />
<glyph unicode="&#x155;" glyph-name="racute" horiz-adv-x="344" d="M15 27L92 39V458L14 470V499L145 516L153 512V445H157Q182 474 218 496T299 518Q305 518 314 517T328 514V458Q320 460 309 460T291 461Q250 461 218 448T156 409V39L241 27V0H15V27ZM367
608L533 722L564 672L382 581L367 608Z" />
<glyph unicode="&#x156;" glyph-name="Rcommaaccent" horiz-adv-x="623" d="M24 32L114 45V648L26 662V693H303Q366 693 409 681T481 644T521 586T534 509Q534 436 494 394T385 335V332L553 45L625 31V0H500L317 319H183V45L270 32V0H24V32ZM306 359Q349 359 378
370T426 402T453 449T462 508Q462 543 454 569T427 613T377 640T300 649H183V359H306ZM285 -179Q292 -152 295 -116T299 -42H366Q362 -80 353 -116T327 -179H285Z" />
<glyph unicode="&#x157;" glyph-name="rcommaaccent" horiz-adv-x="344" d="M15 27L92 39V458L14 470V499L145 516L153 512V445H157Q182 474 218 496T299 518Q305 518 314 517T328 514V458Q320 460 309 460T291 461Q250 461 218 448T156 409V39L241 27V0H15V27ZM335
-179Q342 -152 345 -116T349 -42H416Q412 -80 403 -116T377 -179H335Z" />
<glyph unicode="&#x158;" glyph-name="Rcaron" horiz-adv-x="623" d="M24 32L114 45V648L26 662V693H303Q366 693 409 681T481 644T521 586T534 509Q534 436 494 394T385 335V332L553 45L625 31V0H500L317 319H183V45L270 32V0H24V32ZM306 359Q349 359 378 370T426
402T453 449T462 508Q462 543 454 569T427 613T377 640T300 649H183V359H306ZM427 823L315 733H281L169 823L183 847L298 788L413 847L427 823Z" />
<glyph unicode="&#x159;" glyph-name="rcaron" horiz-adv-x="344" d="M320 699L338 721L449 641L561 721L578 699L466 586H432L320 699ZM15 27L92 39V458L14 470V499L145 516L153 512V445H157Q182 474 218 496T299 518Q305 518 314 517T328 514V458Q320 460 309
460T291 461Q250 461 218 448T156 409V39L241 27V0H15V27Z" />
<glyph unicode="&#x15a;" glyph-name="Sacute" horiz-adv-x="519" d="M246 -11Q186 -11 137 0T53 26L47 173H83L106 67Q135 53 168 43T250 33Q336 33 375 72T415 169Q415 200 407 222T381 262T338 293T274 321L210 347Q176 360 149 376T102 413T71 463T60 530Q60
566 72 597T111 653T177 691T273 705Q330 705 369 697T440 677L446 541H411L390 634Q375 642 346 651T268 661Q196 661 159 631T121 544Q121 493 149 463T245 406L308 381Q347 366 378 350T432 312T467 259T479 185Q479 146 466 111T425 48T353 5T246 -11ZM198
728L186 757L364 851L389 797L198 728Z" />
<glyph unicode="&#x15b;" glyph-name="sacute" horiz-adv-x="415" d="M194 -11Q147 -11 108 -2T39 18L31 142H67L88 56Q107 46 134 38T198 30Q258 30 290 53T322 122Q322 144 317 159T299 186T268 207T221 224L160 242Q101 260 70 292T38 379Q38 409 49 434T82
478T136 508T210 519Q257 519 291 513T352 498L354 382H320L301 457Q286 466 263 472T204 478Q156 478 126 458T96 394Q96 357 117 336T195 297L256 279Q322 259 352 227T383 138Q383 106 371 79T336 32T277 1T194 -11ZM384 608L550 722L581 672L399 581L384 608Z"
/>
<glyph unicode="&#x15c;" glyph-name="Scircumflex" horiz-adv-x="519" d="M143 752L255 841H289L401 752L387 727L272 787L157 727L143 752ZM246 -11Q186 -11 137 0T53 26L47 173H83L106 67Q135 53 168 43T250 33Q336 33 375 72T415 169Q415 200 407 222T381
262T338 293T274 321L210 347Q176 360 149 376T102 413T71 463T60 530Q60 566 72 597T111 653T177 691T273 705Q330 705 369 697T440 677L446 541H411L390 634Q375 642 346 651T268 661Q196 661 159 631T121 544Q121 493 149 463T245 406L308 381Q347 366 378 350T432
312T467 259T479 185Q479 146 466 111T425 48T353 5T246 -11Z" />
<glyph unicode="&#x15d;" glyph-name="scircumflex" horiz-adv-x="415" d="M194 -11Q147 -11 108 -2T39 18L31 142H67L88 56Q107 46 134 38T198 30Q258 30 290 53T322 122Q322 144 317 159T299 186T268 207T221 224L160 242Q101 260 70 292T38 379Q38 409 49 434T82
478T136 508T210 519Q257 519 291 513T352 498L354 382H320L301 457Q286 466 263 472T204 478Q156 478 126 458T96 394Q96 357 117 336T195 297L256 279Q322 259 352 227T383 138Q383 106 371 79T336 32T277 1T194 -11ZM338 609L450 722H484L596 609L579 587L467
667L356 587L338 609Z" />
<glyph unicode="&#x15e;" glyph-name="Scedilla" horiz-adv-x="519" d="M193 -176Q253 -168 276 -156T300 -122Q300 -102 281 -94T215 -86V-10Q165 -7 124 2T53 26L47 173H83L106 67Q135 53 168 43T250 33Q336 33 375 72T415 169Q415 200 407 222T381 262T338
293T274 321L210 347Q176 360 149 376T102 413T71 463T60 530Q60 566 72 597T111 653T177 691T273 705Q330 705 369 697T440 677L446 541H411L390 634Q375 642 346 651T268 661Q196 661 159 631T121 544Q121 493 149 463T245 406L308 381Q347 366 378 350T432 312T467
259T479 185Q479 146 467 111T427 49T356 6T251 -11V-49Q302 -51 329 -68T357 -118Q357 -153 319 -176T193 -206V-176Z" />
<glyph unicode="&#x15f;" glyph-name="scedilla" horiz-adv-x="415" d="M130 -176Q190 -168 213 -156T237 -122Q237 -102 218 -94T152 -86V-9Q118 -5 90 2T39 18L31 142H67L88 56Q107 46 134 38T198 30Q258 30 290 53T322 122Q322 144 317 159T299 186T268 207T221
224L160 242Q101 260 70 292T38 379Q38 409 49 434T82 478T136 508T210 519Q257 519 291 513T352 498L354 382H320L301 457Q286 466 263 472T204 478Q156 478 126 458T96 394Q96 357 117 336T195 297L256 279Q322 259 352 227T383 138Q383 106 371 79T336 32T277
1T194 -11H188V-49Q239 -51 266 -68T294 -118Q294 -153 256 -176T130 -206V-176Z" />
<glyph unicode="&#x160;" glyph-name="Scaron" horiz-adv-x="519" d="M401 823L289 733H255L143 823L157 847L272 788L387 847L401 823ZM246 -11Q186 -11 137 0T53 26L47 173H83L106 67Q135 53 168 43T250 33Q336 33 375 72T415 169Q415 200 407 222T381 262T338
293T274 321L210 347Q176 360 149 376T102 413T71 463T60 530Q60 566 72 597T111 653T177 691T273 705Q330 705 369 697T440 677L446 541H411L390 634Q375 642 346 651T268 661Q196 661 159 631T121 544Q121 493 149 463T245 406L308 381Q347 366 378 350T432 312T467
259T479 185Q479 146 466 111T425 48T353 5T246 -11Z" />
<glyph unicode="&#x161;" glyph-name="scaron" horiz-adv-x="415" d="M337 699L355 721L466 641L578 721L595 699L483 586H449L337 699ZM194 -11Q147 -11 108 -2T39 18L31 142H67L88 56Q107 46 134 38T198 30Q258 30 290 53T322 122Q322 144 317 159T299 186T268
207T221 224L160 242Q101 260 70 292T38 379Q38 409 49 434T82 478T136 508T210 519Q257 519 291 513T352 498L354 382H320L301 457Q286 466 263 472T204 478Q156 478 126 458T96 394Q96 357 117 336T195 297L256 279Q322 259 352 227T383 138Q383 106 371 79T336
32T277 1T194 -11Z" />
<glyph unicode="&#x162;" glyph-name="Tcommaaccent" horiz-adv-x="583" d="M163 32L256 45V651H76L48 512H12L22 693H561L570 512H534L507 651H326V45L420 32V0H163V32ZM245 -179Q252 -152 255 -116T259 -42H326Q322 -80 313 -116T287 -179H245Z" />
<glyph unicode="&#x163;" glyph-name="tcommaaccent" horiz-adv-x="323" d="M208 -8Q151 -8 120 18T88 110V466H13V494L92 511L104 632H152V511H292V466H152V123Q152 76 170 57T235 37Q253 37 270 39T303 47V18Q286 8 261 0T208 -8ZM395 -179Q402 -152 405 -116T409
-42H476Q472 -80 463 -116T437 -179H395Z" />
<glyph unicode="&#x164;" glyph-name="Tcaron" horiz-adv-x="583" d="M163 32L256 45V651H76L48 512H12L22 693H561L570 512H534L507 651H326V45L420 32V0H163V32ZM420 823L308 733H274L162 823L176 847L291 788L406 847L420 823Z" />
<glyph unicode="&#x165;" glyph-name="tcaron" horiz-adv-x="323" d="M208 -8Q151 -8 120 18T88 110V466H13V494L92 511L104 632H152V511H292V466H152V123Q152 76 170 57T235 37Q253 37 270 39T303 47V18Q286 8 261 0T208 -8ZM221 586L232 741L294 732L255 582L221 586Z" />
<glyph unicode="&#x166;" glyph-name="Tbar" horiz-adv-x="583" d="M107 416H256V651H76L48 512H12L22 693H561L570 512H534L507 651H326V416H476V379H326V45L420 32V0H163V32L256 45V379H107V416Z" />
<glyph unicode="&#x167;" glyph-name="tbar" horiz-adv-x="323" d="M13 356H88V466H13V494L92 511L104 632H152V511H292V466H152V356H292V321H152V123Q152 76 170 57T235 37Q253 37 270 39T303 47V18Q286 8 261 0T208 -8Q151 -8 120 18T88 110V321H13V356Z" />
<glyph unicode="&#x168;" glyph-name="Utilde" horiz-adv-x="677" d="M221 752Q237 790 258 811T307 832Q322 832 336 827T364 815T390 804T413 798Q429 798 441 807T466 839L496 825Q465 746 410 746Q395 746 381 751T354 763T328 774T304 780Q289 780 277 771T251
739L221 752ZM346 -12Q221 -12 158 47T95 213V649L9 662V693H256V662L165 649V223Q165 126 213 81T354 35Q446 35 492 80T539 223V648L450 661V693H668V662L590 649V219Q590 110 528 49T346 -12Z" />
<glyph unicode="&#x169;" glyph-name="utilde" horiz-adv-x="569" d="M229 -9Q154 -9 120 29T85 136V463L7 475V504L141 516L149 511V150Q149 94 172 68T258 41Q306 41 342 53T410 81V463L334 475V504L466 516L474 511V48L552 36V9L422 -8L414 -3V52H410Q372 25
328 8T229 -9ZM138 622Q169 701 224 701Q239 701 253 696T280 684T306 673T330 667Q345 667 357 676T383 708L413 695Q397 657 376 637T327 616Q312 616 298 621T270 633T244 644T221 650Q205 650 193 641T168 608L138 622Z" />
<glyph unicode="&#x16a;" glyph-name="Umacron" horiz-adv-x="677" d="M346 -12Q221 -12 158 47T95 213V649L9 662V693H256V662L165 649V223Q165 126 213 81T354 35Q446 35 492 80T539 223V648L450 661V693H668V662L590 649V219Q590 110 528 49T346 -12ZM244 798H474V753H244V798Z"
/>
<glyph unicode="&#x16b;" glyph-name="umacron" horiz-adv-x="569" d="M229 -9Q154 -9 120 29T85 136V463L7 475V504L141 516L149 511V150Q149 94 172 68T258 41Q306 41 342 53T410 81V463L334 475V504L466 516L474 511V48L552 36V9L422 -8L414 -3V52H410Q372
25 328 8T229 -9ZM157 672H387V627H157V672Z" />
<glyph unicode="&#x16c;" glyph-name="Ubreve" horiz-adv-x="677" d="M346 -12Q221 -12 158 47T95 213V649L9 662V693H256V662L165 649V223Q165 126 213 81T354 35Q446 35 492 80T539 223V648L450 661V693H668V662L590 649V219Q590 110 528 49T346 -12ZM360 735Q309
735 276 765T237 840H279Q286 816 307 800T360 784Q392 784 412 800T440 840H482Q477 796 444 766T360 735Z" />
<glyph unicode="&#x16d;" glyph-name="ubreve" horiz-adv-x="569" d="M229 -9Q154 -9 120 29T85 136V463L7 475V504L141 516L149 511V150Q149 94 172 68T258 41Q306 41 342 53T410 81V463L334 475V504L466 516L474 511V48L552 36V9L422 -8L414 -3V52H410Q372 25
328 8T229 -9ZM276 593Q225 593 190 625T151 708H193Q200 675 222 658T276 640Q308 640 330 657T359 708H400Q396 657 361 625T276 593Z" />
<glyph unicode="&#x16e;" glyph-name="Uring" horiz-adv-x="677" d="M346 -12Q221 -12 158 47T95 213V649L9 662V693H256V662L165 649V223Q165 126 213 81T354 35Q446 35 492 80T539 223V648L450 661V693H668V662L590 649V219Q590 110 528 49T346 -12ZM357 986Q380
986 393 1000T407 1037Q407 1060 394 1075T357 1090Q334 1090 320 1075T306 1037Q306 1015 320 1001T357 986ZM357 955Q319 955 295 979T271 1037Q271 1072 295 1096T357 1121Q394 1121 418 1097T443 1037Q443 1003 419 979T357 955Z" />
<glyph unicode="&#x16f;" glyph-name="uring" horiz-adv-x="569" d="M271 613Q294 613 307 627T321 664Q321 687 308 702T271 717Q248 717 234 702T220 664Q220 642 234 628T271 613ZM271 582Q233 582 209 606T185 664Q185 699 209 723T271 748Q308 748 332 724T357
664Q357 630 333 606T271 582ZM229 -9Q154 -9 120 29T85 136V463L7 475V504L141 516L149 511V150Q149 94 172 68T258 41Q306 41 342 53T410 81V463L334 475V504L466 516L474 511V48L552 36V9L422 -8L414 -3V52H410Q372 25 328 8T229 -9Z" />
<glyph unicode="&#x170;" glyph-name="Uhungarumlaut" horiz-adv-x="677" d="M269 748L346 876L393 844L296 731L269 748ZM405 748L482 876L529 844L432 731L405 748ZM346 -12Q221 -12 158 47T95 213V649L9 662V693H256V662L165 649V223Q165 126 213 81T354 35Q446
35 492 80T539 223V648L450 661V693H668V662L590 649V219Q590 110 528 49T346 -12Z" />
<glyph unicode="&#x171;" glyph-name="uhungarumlaut" horiz-adv-x="569" d="M177 591L279 740L325 705L205 573L177 591ZM317 591L419 740L464 705L344 573L317 591ZM229 -9Q154 -9 120 29T85 136V463L7 475V504L141 516L149 511V150Q149 94 172 68T258 41Q306
41 342 53T410 81V463L334 475V504L466 516L474 511V48L552 36V9L422 -8L414 -3V52H410Q372 25 328 8T229 -9Z" />
<glyph unicode="&#x172;" glyph-name="Uogonek" horiz-adv-x="677" d="M346 -12Q221 -12 158 47T95 213V649L9 662V693H256V662L165 649V223Q165 126 213 81T354 35Q446 35 492 80T539 223V648L450 661V693H668V662L590 649V219Q590 150 564 98T479 16Q454 3 431
-10T389 -38T361 -73T350 -117Q350 -140 362 -151T404 -163Q414 -163 422 -162T438 -160V-192Q427 -195 416 -197T386 -200Q337 -200 315 -179T292 -122Q292 -103 299 -87T317 -57T342 -32T371 -11Q368 -12 361 -12T346 -12Z" />
<glyph unicode="&#x173;" glyph-name="uogonek" horiz-adv-x="569" d="M426 -200Q377 -200 355 -179T332 -123Q332 -103 339 -86T359 -53T385 -26T414 -4V52H410Q372 25 328 8T229 -9Q154 -9 120 29T85 136V463L7 475V504L141 516L149 511V150Q149 94 172 68T258
41Q306 41 342 53T410 81V463L334 475V504L466 516L474 511V48L552 36V9L458 -3Q430 -29 410 -58T390 -117Q390 -140 402 -151T444 -163Q454 -163 462 -162T478 -160V-192Q467 -195 456 -197T426 -200Z" />
<glyph unicode="&#x174;" glyph-name="Wcircumflex" horiz-adv-x="919" d="M334 752L446 841H480L592 752L578 727L463 787L348 727L334 752ZM65 648L4 662V693H214V662L134 648L273 108H277L442 693H486L652 108H655L792 648L712 662V693H911V662L845 648L674
0H618L458 571H455L292 0H235L65 648Z" />
<glyph unicode="&#x175;" glyph-name="wcircumflex" horiz-adv-x="764" d="M265 609L377 722H411L523 609L506 587L394 667L283 587L265 609ZM58 472L2 482V511H191V482L123 472L234 92H237L373 511H416L550 92H553L664 472L597 482V511H768V482L712 472L569 0H519L390
413H387L249 0H200L58 472Z" />
<glyph unicode="&#x176;" glyph-name="Ycircumflex" horiz-adv-x="605" d="M182 32L271 45V310L66 648L4 662V693H215V662L140 648L316 354H319L487 648L409 662V693H599V662L538 648L340 309V45L428 32V0H182V32ZM184 752L296 841H330L442 752L428 727L313 787L198
727L184 752Z" />
<glyph unicode="&#x177;" glyph-name="ycircumflex" horiz-adv-x="524" d="M122 -197Q104 -197 86 -193T55 -182V-143Q71 -147 82 -149T106 -151Q150 -151 173 -130T213 -65L245 16L58 472L2 482V511H199V482L127 472L276 95H279L417 472L347 482V511H524V482L468
472L257 -81Q236 -136 207 -166T122 -197ZM149 609L261 722H295L407 609L390 587L278 667L167 587L149 609Z" />
<glyph unicode="&#x178;" glyph-name="Ydieresis" horiz-adv-x="605" d="M182 32L271 45V310L66 648L4 662V693H215V662L140 648L316 354H319L487 648L409 662V693H599V662L538 648L340 309V45L428 32V0H182V32ZM236 741Q219 741 207 753T194 783Q194 800 206
812T236 824Q254 824 266 812T278 783Q278 766 266 754T236 741ZM391 741Q373 741 361 753T349 783Q349 800 361 812T391 824Q408 824 420 812T432 783Q432 766 420 754T391 741Z" />
<glyph unicode="&#x179;" glyph-name="Zacute" horiz-adv-x="534" d="M17 35L430 647V650H106L76 513H39L48 693H514V658L101 47V43H447L479 179H515L506 0H17V35ZM200 728L188 757L366 851L391 797L200 728Z" />
<glyph unicode="&#x17a;" glyph-name="zacute" horiz-adv-x="459" d="M28 36L348 470V473H103L81 368H45L52 511H422V476L103 41V38H358L385 155H421L410 0H28V36ZM406 608L572 722L603 672L421 581L406 608Z" />
<glyph unicode="&#x17b;" glyph-name="Zdotaccent" horiz-adv-x="534" d="M275 742Q257 742 245 754T232 784Q232 801 244 814T275 827Q293 827 305 814T318 784Q318 767 306 755T275 742ZM17 35L430 647V650H106L76 513H39L48 693H514V658L101 47V43H447L479
179H515L506 0H17V35Z" />
<glyph unicode="&#x17c;" glyph-name="zdotaccent" horiz-adv-x="459" d="M491 620Q473 620 461 633T448 663Q448 680 460 692T491 705Q510 705 522 693T534 663Q534 646 522 633T491 620ZM28 36L348 470V473H103L81 368H45L52 511H422V476L103 41V38H358L385
155H421L410 0H28V36Z" />
<glyph unicode="&#x17d;" glyph-name="Zcaron" horiz-adv-x="534" d="M403 823L291 733H257L145 823L159 847L274 788L389 847L403 823ZM17 35L430 647V650H106L76 513H39L48 693H514V658L101 47V43H447L479 179H515L506 0H17V35Z" />
<glyph unicode="&#x17e;" glyph-name="zcaron" horiz-adv-x="459" d="M362 699L380 721L491 641L603 721L620 699L508 586H474L362 699ZM28 36L348 470V473H103L81 368H45L52 511H422V476L103 41V38H358L385 155H421L410 0H28V36Z" />
<glyph unicode="&#x192;" glyph-name="florin" horiz-adv-x="381" d="M38 417H129L151 549Q158 592 174 621T211 669T257 695T310 703Q339 703 357 698T389 686V650Q375 654 360 656T323 658Q279 658 253 633T214 535L193 417H315V373H185L112 -54Q101 -119 67
-147T-19 -175Q-45 -175 -61 -170T-87 -159V-124Q-79 -126 -65 -128T-34 -130Q-1 -130 20 -111T50 -42L121 373H38V417Z" />
<glyph unicode="&#x1fa;" glyph-name="Aringacute" horiz-adv-x="640" d="M-4 32L64 46L294 693H351L577 46L644 32V0H420V32L503 45L442 227H179L116 45L200 32V0H-4V32ZM193 266H429L314 604H311L193 266ZM321 1002Q344 1002 357 1016T371 1053Q371 1076 358
1091T321 1106Q298 1106 284 1091T270 1053Q270 1031 284 1017T321 1002ZM321 971Q283 971 259 995T235 1053Q235 1088 259 1112T321 1137Q358 1137 382 1113T407 1053Q407 1019 383 995T321 971ZM238 886L226 915L404 1009L429 955L238 886Z" />
<glyph unicode="&#x1fb;" glyph-name="aringacute" horiz-adv-x="467" d="M178 -11Q108 -11 66 26T24 127Q24 192 66 223T180 265L319 287V354Q319 385 315 407T297 443T262 463T204 469Q167 469 130 464T63 451V485Q92 498 137 509T230 520Q309 520 346 484T384
371V75Q384 47 397 39T434 30Q438 30 449 30T462 32V5Q454 0 436 -4T397 -8Q333 -8 326 49H322Q298 23 263 6T178 -11ZM199 35Q236 35 268 49T319 85V242L200 233Q138 228 114 203T90 134Q90 86 117 61T199 35ZM484 859Q507 859 520 873T534 910Q534 933 521 948T484
963Q461 963 447 948T433 910Q433 888 447 874T484 859ZM484 828Q446 828 422 852T398 910Q398 945 422 969T484 994Q521 994 545 970T570 910Q570 876 546 852T484 828ZM403 754L391 783L569 877L594 823L403 754Z" />
<glyph unicode="&#x1fc;" glyph-name="AEacute" horiz-adv-x="915" d="M196 32V0H1V33L63 46L412 654L332 662V693H863L873 530H837L805 651H531V377H684L703 472H736V242H703L684 337H531V42H817L855 186H891L880 0H374V32L463 45V221H216L117 46L196 32ZM463
260V646H458L238 260H463ZM537 728L525 757L703 851L728 797L537 728Z" />
<glyph unicode="&#x1fd;" glyph-name="aeacute" horiz-adv-x="767" d="M177 -11Q107 -11 66 27T24 128Q24 194 66 228T180 273L319 293V354Q319 385 314 407T296 443T260 463T200 469Q164 469 129 464T62 451V485Q92 498 136 509T229 520Q347 520 368 426Q397
471 440 495T539 520Q643 520 691 452T740 259H384Q384 152 427 95T568 38Q624 38 658 48T719 69V35Q695 21 657 6T556 -10Q483 -10 436 14T361 81Q348 63 329 47T287 18T235 -3T177 -11ZM345 110Q331 139 325 174T317 249L199 240Q138 235 114 207T90 136Q90 88
117 62T199 35Q240 35 278 55T345 110ZM668 303Q667 394 634 436T535 479Q466 479 428 433T384 297L668 303ZM332 608L498 722L529 672L347 581L332 608Z" />
<glyph unicode="&#x1fe;" glyph-name="Oslashacute" horiz-adv-x="682" d="M36 9L108 98Q73 143 54 205T35 347Q35 438 60 505T127 616T225 682T341 704Q457 704 538 632L597 705L630 679L567 601Q603 556 623 493T644 349Q644 258 619 191T552 78T454 11T339
-11Q279 -11 228 8T137 66L69 -18L36 9ZM340 32Q394 32 437 53T509 115T554 212T570 340Q570 473 528 553L171 108Q200 71 241 52T340 32ZM109 354Q109 224 147 147L504 589Q445 662 338 662Q283 662 241 641T169 579T124 482T109 354ZM265 728L253 757L431 851L456
797L265 728Z" />
<glyph unicode="&#x1ff;" glyph-name="oslashacute" horiz-adv-x="532" d="M17 7L80 79Q29 145 29 252Q29 314 48 364T99 448T174 501T265 520Q355 520 418 466L470 525L501 500L446 437Q472 404 487 359T503 257Q503 195 484 145T433 61T358 8T267 -11Q173 -11
108 48L49 -19L17 7ZM267 31Q300 31 330 43T384 81T422 149T436 251Q436 296 429 331T407 392L143 88Q166 58 198 45T267 31ZM96 257Q96 215 102 183T120 125L384 426Q360 453 330 465T265 478Q232 478 202 466T148 428T110 359T96 257ZM179 608L345 722L376 672L194
581L179 608Z" />
<glyph unicode="&#x218;" glyph-name="Scommaaccent" horiz-adv-x="519" d="M246 -11Q186 -11 137 0T53 26L47 173H83L106 67Q135 53 168 43T250 33Q336 33 375 72T415 169Q415 200 407 222T381 262T338 293T274 321L210 347Q176 360 149 376T102 413T71 463T60
530Q60 566 72 597T111 653T177 691T273 705Q330 705 369 697T440 677L446 541H411L390 634Q375 642 346 651T268 661Q196 661 159 631T121 544Q121 493 149 463T245 406L308 381Q347 366 378 350T432 312T467 259T479 185Q479 146 466 111T425 48T353 5T246 -11ZM227
-179Q234 -152 237 -116T241 -42H308Q304 -80 295 -116T269 -179H227Z" />
<glyph unicode="&#x219;" glyph-name="scommaaccent" horiz-adv-x="415" d="M194 -11Q147 -11 108 -2T39 18L31 142H67L88 56Q107 46 134 38T198 30Q258 30 290 53T322 122Q322 144 317 159T299 186T268 207T221 224L160 242Q101 260 70 292T38 379Q38 409 49
434T82 478T136 508T210 519Q257 519 291 513T352 498L354 382H320L301 457Q286 466 263 472T204 478Q156 478 126 458T96 394Q96 357 117 336T195 297L256 279Q322 259 352 227T383 138Q383 106 371 79T336 32T277 1T194 -11ZM419 -179Q426 -152 429 -116T433
-42H500Q496 -80 487 -116T461 -179H419Z" />
<glyph unicode="&#x21a;" glyph-name="uni021A" horiz-adv-x="583" d="M163 32L256 45V651H76L48 512H12L22 693H561L570 512H534L507 651H326V45L420 32V0H163V32ZM245 -179Q252 -152 255 -116T259 -42H326Q322 -80 313 -116T287 -179H245Z" />
<glyph unicode="&#x21b;" glyph-name="uni021B" horiz-adv-x="323" d="M208 -8Q151 -8 120 18T88 110V466H13V494L92 511L104 632H152V511H292V466H152V123Q152 76 170 57T235 37Q253 37 270 39T303 47V18Q286 8 261 0T208 -8ZM395 -179Q402 -152 405 -116T409
-42H476Q472 -80 463 -116T437 -179H395Z" />
<glyph unicode="&#x237;" glyph-name="uni0237" horiz-adv-x="241" d="M27 -196Q9 -196 -6 -193T-38 -183V-151Q-19 -155 9 -155Q28 -155 44 -151T73 -135T91 -104T98 -55V458L15 470V499L154 516L162 512V-63Q162 -129 127 -162T27 -196Z" />
<glyph unicode="&#x2c6;" glyph-name="circumflex" horiz-adv-x="489" d="M115 609L227 722H261L373 609L356 587L244 667L133 587L115 609Z" />
<glyph unicode="&#x2c7;" glyph-name="caron" horiz-adv-x="489" d="M115 699L133 721L244 641L356 721L373 699L261 586H227L115 699Z" />
<glyph unicode="&#x2d8;" glyph-name="breve" horiz-adv-x="489" d="M257 593Q206 593 171 625T132 708H174Q181 675 203 658T257 640Q289 640 311 657T340 708H381Q377 657 342 625T257 593Z" />
<glyph unicode="&#x2d9;" glyph-name="dotaccent" horiz-adv-x="489" d="M244 620Q226 620 214 633T201 663Q201 680 213 692T244 705Q263 705 275 693T287 663Q287 646 275 633T244 620Z" />
<glyph unicode="&#x2da;" glyph-name="ring" horiz-adv-x="489" d="M245 613Q268 613 281 627T295 664Q295 687 282 702T245 717Q222 717 208 702T194 664Q194 642 208 628T245 613ZM245 582Q207 582 183 606T159 664Q159 699 183 723T245 748Q282 748 306 724T331
664Q331 630 307 606T245 582Z" />
<glyph unicode="&#x2db;" glyph-name="ogonek" horiz-adv-x="489" d="M248 -200Q199 -200 177 -179T154 -123Q154 -102 162 -84T184 -51T213 -22T243 0H282Q254 -28 233 -57T212 -117Q212 -140 224 -151T266 -163Q277 -163 285 -162T300 -160V-192Q289 -195 278
-197T248 -200Z" />
<glyph unicode="&#x2dc;" glyph-name="tilde" horiz-adv-x="489" d="M107 622Q138 701 193 701Q208 701 222 696T249 684T275 673T299 667Q314 667 326 676T352 708L382 695Q366 657 345 637T296 616Q281 616 267 621T239 633T213 644T190 650Q174 650 162 641T137
608L107 622Z" />
<glyph unicode="&#x2dd;" glyph-name="hungarumlaut" horiz-adv-x="489" d="M134 591L236 740L282 705L162 573L134 591ZM274 591L376 740L421 705L301 573L274 591Z" />
</font>
</defs>
</svg>
