<?xml version="1.0" standalone="no"?> <!DOCTYPE svg PUBLIC "-//W3C//DTD SVG 1.0//EN" "http://www.w3.org/TR/2001/REC-SVG-20010904/DTD/svg10.dtd" > <svg xmlns="http://www.w3.org/2000/svg" width="100%" height="100%">
<defs >
<font id="GuardianTextEgyptianWeb-Regular" horiz-adv-x="580" ><font-face
    font-family="GuardianTextEgyptianWeb"
    units-per-em="1000"
    panose-1="2 6 5 3 5 5 3 6 8 3"
    ascent="783"
    descent="-217"
    alphabetic="0" />
<missing-glyph horiz-adv-x="500" />
<glyph unicode=" " glyph-name="space" horiz-adv-x="232" />
<glyph unicode="!" glyph-name="exclam" horiz-adv-x="260" d="M73 721H183L157 200H99L73 721ZM130 -12Q104 -12 86 7T67 51Q67 77 85 95T130 113Q156 113 175 95T194 51Q194 26 175 7T130 -12Z" />
<glyph unicode="&quot;" glyph-name="quotedbl" horiz-adv-x="432" d="M254 721H361L338 478H275L254 721ZM71 721H178L155 478H92L71 721Z" />
<glyph unicode="#" glyph-name="numbersign" horiz-adv-x="564" d="M80 493H179L207 669H270L242 493H370L398 669H461L433 493H517V415H421L397 265H484V187H385L356 0H293L322 187H194L165 0H102L131 187H47V265H143L167 415H80V493ZM206 260H334L359 420H231L206 260Z" />
<glyph unicode="$" glyph-name="dollar" horiz-adv-x="600" d="M232 -10Q187 -7 151 1T84 21L77 170H125L158 72Q176 62 195 56T239 45L265 314L229 329Q200 341 174 356T128 392T96 440T84 504Q84 541 97 573T136 629T203 666T300 681L310 778H370L360 678Q401
673 429 665T478 650L485 520H437L410 605Q401 610 388 614T354 624L330 385L354 376Q386 363 416 348T469 311T507 260T521 189Q521 148 509 113T468 50T397 7T291 -11L279 -142H219L232 -10ZM431 163Q431 214 404 240T321 291L296 41Q367 43 399 77T431 163ZM168
525Q168 502 173 486T191 456T222 432T271 409L274 407L296 629Q239 629 204 602T168 525Z" />
<glyph unicode="%" glyph-name="percent" horiz-adv-x="900" d="M691 -9Q656 -9 626 2T573 36T537 91T524 168Q524 214 537 248T574 306T628 341T692 353Q725 353 755 342T809 308T845 251T859 173Q859 128 846 94T810 37T757 3T691 -9ZM208 298Q173 298 143 309T90
343T54 399T41 476Q41 522 54 556T91 614T144 648T209 660Q242 660 272 649T325 615T362 559T376 480Q376 436 363 402T327 345T273 310T208 298ZM653 669H725L242 -31H170L653 669ZM208 346Q252 346 271 378T291 476Q291 542 272 578T209 614Q164 614 145 580T125
480Q125 417 144 382T208 346ZM691 38Q736 38 755 70T774 168Q774 234 756 270T692 306Q647 306 628 272T608 173Q608 109 627 74T691 38Z" />
<glyph unicode="&amp;" glyph-name="ampersand" horiz-adv-x="722" d="M270 -12Q217 -12 174 2T99 41T50 102T32 182Q32 218 44 248T78 303T132 351T203 395Q174 433 156 470T138 553Q138 595 153 628T194 685T255 720T329 733Q362 733 392 724T446 696T482 652T496
591Q496 556 483 528T447 476T394 432T329 392L510 182Q532 216 546 252T569 326L492 347V390H710V348L638 327Q627 279 604 231T548 138L613 62L701 43V0H539L481 67Q438 32 386 10T270 -12ZM139 193Q139 163 149 137T179 91T227 61T292 50Q337 50 375 66T446
109L236 355Q188 323 164 285T139 193ZM402 587Q402 630 381 652T324 675Q283 675 259 646T234 566Q234 525 251 495T297 430Q351 462 376 498T402 587Z" />
<glyph unicode="&apos;" glyph-name="quotesingle" horiz-adv-x="249" d="M71 721H178L155 478H92L71 721Z" />
<glyph unicode="(" glyph-name="parenleft" horiz-adv-x="351" d="M292 -148Q252 -115 210 -72T132 27T75 154T52 314Q52 395 74 465T132 593T209 697T292 776L325 745Q291 708 261 663T207 565T171 454T157 335Q157 254 170 187T207 65T260 -34T325 -116L292 -148V-148Z" />
<glyph unicode=")" glyph-name="parenright" horiz-adv-x="351" d="M26 -116Q60 -79 90 -34T144 64T180 173T194 293Q194 375 181 442T144 564T91 663T26 745L60 776Q100 743 142 700T219 601T276 474T299 314Q299 233 277 163T220 35T143 -69T60 -148L26 -116Z" />
<glyph unicode="*" glyph-name="asterisk" horiz-adv-x="467" d="M221 520L97 414L56 483L210 540L56 597L97 666L221 561L191 721H276L246 562L370 666L411 597L256 540L411 483L370 414L246 520L276 360H191L221 520Z" />
<glyph unicode="+" glyph-name="plus" horiz-adv-x="600" d="M65 357H266V563H335V357H536V292H335V86H266V292H65V357Z" />
<glyph unicode="," glyph-name="comma" horiz-adv-x="312" d="M41 -134Q115 -98 145 -62T178 21Q163 4 134 4Q111 4 93 21T75 67Q75 96 97 114T151 132Q189 132 216 105T243 23Q243 -1 235 -27T206 -79T149 -128T57 -170L41 -134V-134Z" />
<glyph unicode="-" glyph-name="hyphen" horiz-adv-x="381" d="M65 339H316V258H65V339Z" />
<glyph unicode="." glyph-name="period" horiz-adv-x="312" d="M156 -18Q124 -18 102 3T79 57Q79 89 101 110T156 132Q188 132 210 111T233 57Q233 25 211 4T156 -18Z" />
<glyph unicode="/" glyph-name="slash" horiz-adv-x="375" d="M269 762H337L85 -125H17L269 762Z" />
<glyph unicode="0" glyph-name="zero" horiz-adv-x="600" d="M302 -14Q255 -14 210 3T129 58T71 156T49 303Q49 392 71 454T130 555T210 611T300 629Q344 629 389 613T470 558T528 459T551 310Q551 222 530 161T473 60T393 4T302 -14ZM302 44Q336 44 363 56T408
97T437 177T447 303Q447 377 437 428T408 511T362 557T300 572Q266 572 239 559T192 515T163 434T153 310Q153 236 163 186T193 104T240 58T302 44Z" />
<glyph unicode="1" glyph-name="one" horiz-adv-x="600" d="M117 40L261 57V522L107 501V540L338 626H366V57L509 40V0H117V40Z" />
<glyph unicode="2" glyph-name="two" horiz-adv-x="600" d="M261 568Q237 568 216 565T174 557L146 451H88V593Q125 607 180 618T290 629Q387 629 445 583T504 445Q504 404 487 369T439 299T364 230T266 153L172 82V80H522L513 0H59V47L228 192Q304 257 350 316T397
433Q397 493 364 530T261 568Z" />
<glyph unicode="3" glyph-name="three" horiz-adv-x="600" d="M257 571Q215 571 184 565L155 458H97V600Q135 611 181 620T281 629Q381 629 436 583T491 449Q491 384 453 339T345 275V271Q382 265 413 252T466 216T500 163T513 88Q513 41 496 4T446 -60T368 -100T265
-115Q202 -115 151 -101T64 -67V-20Q103 -34 145 -42T234 -51Q314 -51 363 -14T412 90Q412 132 402 160T369 206T314 230T236 237H190V297H228Q306 297 349 334T393 435Q393 498 361 534T257 571Z" />
<glyph unicode="4" glyph-name="four" horiz-adv-x="600" d="M352 93H34V151L372 617H450V156H558V93H450V-104H352V93ZM352 156V486H347L111 159V156H352Z" />
<glyph unicode="5" glyph-name="five" horiz-adv-x="600" d="M251 -115Q192 -115 149 -101T69 -67V-20Q110 -34 146 -43T227 -52Q268 -52 302 -41T361 -9T400 43T414 113Q414 198 370 236T231 275Q200 275 169 270T113 261L141 617H493L484 534H199L183 333Q200
337 223 340T277 343Q337 343 382 328T456 283T501 213T516 122Q516 68 497 24T442 -50T358 -98T251 -115Z" />
<glyph unicode="6" glyph-name="six" horiz-adv-x="600" d="M308 -14Q248 -14 201 10T120 78T70 184T52 324Q52 433 80 510T155 637T261 710T383 733Q431 733 468 724T529 698V650Q506 659 471 665T397 671Q354 671 314 658T240 611T184 523T155 382Q188 405 235
423T341 442Q385 442 423 428T490 386T534 318T550 226Q550 176 534 132T487 56T411 5T308 -14ZM307 42Q380 42 413 90T447 216Q447 259 437 290T407 341T363 370T306 380Q256 380 220 367T154 332V316Q154 261 161 212T185 125T232 65T307 42Z" />
<glyph unicode="7" glyph-name="seven" horiz-adv-x="600" d="M469 529V534H134L104 454H60L69 617H530V545L259 -104H149L469 529Z" />
<glyph unicode="8" glyph-name="eight" horiz-adv-x="600" d="M303 -14Q184 -14 118 36T52 177Q52 213 65 243T101 297T151 338T209 365V370Q140 402 111 444T82 549Q82 587 96 620T138 679T205 718T295 733Q345 733 386 722T456 688T501 634T517 560Q517 525
507 498T478 450T436 414T383 388V383Q464 351 506 307T549 191Q549 147 534 110T489 45T412 2T303 -14ZM300 41Q382 41 419 77T456 173Q456 206 444 229T406 271T344 306T256 342Q202 319 172 280T141 182Q141 116 180 79T300 41ZM333 410Q378 433 404 465T430
554Q430 587 419 611T390 650T347 672T297 679Q237 679 203 647T169 565Q169 534 178 512T208 471T259 439T333 410Z" />
<glyph unicode="9" glyph-name="nine" horiz-adv-x="600" d="M218 -118Q170 -118 133 -108T72 -82V-34Q94 -44 130 -49T203 -55Q250 -55 291 -42T365 4T419 93T446 234Q413 211 366 193T260 174Q215 174 177 188T111 230T67 298T51 390Q51 440 67 483T113 559T189
610T292 629Q352 629 400 605T481 537T531 431T549 291Q549 182 524 105T453 -22T348 -95T218 -118ZM294 236Q345 236 381 249T447 284V300Q447 355 440 404T416 491T368 551T293 574Q221 574 188 526T154 399Q154 356 164 326T193 275T238 246T294 236Z" />
<glyph unicode=":" glyph-name="colon" horiz-adv-x="322" d="M161 304Q129 304 107 325T84 379Q84 411 106 432T161 454Q193 454 215 433T238 379Q238 347 216 326T161 304ZM161 -18Q129 -18 107 3T84 57Q84 89 106 110T161 132Q193 132 215 111T238 57Q238 25
216 4T161 -18Z" />
<glyph unicode=";" glyph-name="semicolon" horiz-adv-x="322" d="M46 -134Q120 -98 150 -62T183 21Q168 4 139 4Q116 4 98 21T80 67Q80 96 102 114T156 132Q194 132 221 105T248 23Q248 -1 240 -27T211 -79T154 -128T62 -170L46 -134ZM161 304Q129 304 107 325T84
379Q84 411 106 432T161 454Q193 454 215 433T238 379Q238 347 216 326T161 304Z" />
<glyph unicode="&lt;" glyph-name="less" horiz-adv-x="600" d="M83 297V350L506 552V479L167 324L506 168V94L83 297Z" />
<glyph unicode="=" glyph-name="equal" horiz-adv-x="600" d="M78 419H522V354H78V419ZM78 232H522V168H78V232Z" />
<glyph unicode="&gt;" glyph-name="greater" horiz-adv-x="600" d="M94 167L433 322L94 478V552L517 349V296L94 94V167Z" />
<glyph unicode="?" glyph-name="question" horiz-adv-x="453" d="M169 676Q154 676 141 675T117 672L95 592H37V704Q73 718 113 725T204 733Q245 733 282 723T346 692T390 637T407 557Q407 522 399 496T375 448T334 407T277 366Q261 355 247 347T221 328T203 306T196
274Q196 260 198 243T207 200H155Q149 214 142 236T135 287Q135 310 141 327T161 360T193 391T237 426Q255 440 268 452T290 480T303 513T307 555Q307 615 272 645T169 676ZM181 -12Q155 -12 137 7T118 51Q118 77 136 95T181 113Q207 113 226 95T245 51Q245 26
226 7T181 -12Z" />
<glyph unicode="@" glyph-name="at" horiz-adv-x="960" d="M480 -161Q377 -161 298 -135T165 -61T84 58T56 219Q56 317 89 405T184 561T332 667T525 707Q611 707 681 682T800 610T877 496T904 342Q904 274 883 220T827 128T744 70T642 49Q589 49 565 67T534 111H531Q505
85 476 71T411 56Q358 56 323 92T288 200Q288 254 303 304T347 394T416 456T508 480Q549 480 571 470T613 446L635 471H681L619 153Q613 126 623 114T656 102Q693 102 726 117T784 163T823 237T837 339Q837 413 817 472T757 571T659 633T523 655Q428 655 354 621T230
527T153 388T126 220Q126 -107 480 -107Q548 -107 610 -97T722 -69V-115Q674 -137 613 -149T480 -161ZM444 111Q470 111 492 123T531 151L578 392Q570 408 553 418T507 429Q473 429 449 409T410 357T387 283T379 198Q379 153 394 132T444 111Z" />
<glyph unicode="A" glyph-name="A" horiz-adv-x="708" d="M9 44L82 62L315 721H401L627 62L699 44V0H430V43L513 62L459 228H212L155 62L239 43V0H9V44ZM230 281H442L384 461Q376 484 369 512T356 564Q349 592 343 620H338Q331 592 323 564Q316 540 308 512T292
461L230 281Z" />
<glyph unicode="B" glyph-name="B" horiz-adv-x="660" d="M33 43L127 62V659L34 678V721H332Q460 721 522 678T584 544Q584 517 576 491T550 443T501 405T426 382V376Q481 369 518 355T578 317T611 263T621 192Q621 151 605 116T556 56T474 15T359 0H33V43ZM343
58Q425 58 467 90T509 200Q509 280 468 313T347 346H232V58H343ZM325 399Q356 399 383 405T429 425T460 463T471 524Q471 567 461 594T433 636T387 656T323 662H232V399H325Z" />
<glyph unicode="C" glyph-name="C" horiz-adv-x="658" d="M381 -12Q305 -12 243 8T136 71T67 184T42 352Q42 460 72 533T151 650T265 714T398 733Q464 733 514 725T598 706L603 530H555L512 649Q492 657 458 666T385 675Q268 675 211 595T153 372Q153 214 209
131T396 47Q434 47 463 55T516 76L559 205H610L603 24Q564 7 512 -2T381 -12Z" />
<glyph unicode="D" glyph-name="D" horiz-adv-x="729" d="M33 43L127 62V658L34 678V721H324Q423 721 492 698T605 632T669 525T689 379Q689 196 604 98T336 0H33V43ZM338 57Q397 57 441 72T516 122T561 217T576 363Q576 463 558 522T506 613T423 654T309 664H232V57H338Z"
/>
<glyph unicode="E" glyph-name="E" horiz-adv-x="639" d="M33 43L127 62V658L34 678V721H574L586 542H535L490 664H232V398H370L399 497H444V245H399L370 345H232V57H501L557 208H608L594 0H33V43Z" />
<glyph unicode="F" glyph-name="F" horiz-adv-x="634" d="M33 43L127 61V658L34 678V721H575L587 536H536L491 664H232V385H372L400 483H445V230H399L372 332H232V62L333 43V0H33V43Z" />
<glyph unicode="G" glyph-name="G" horiz-adv-x="717" d="M404 -14Q319 -14 252 6T139 71T67 184T42 352Q42 460 73 533T155 650T271 714T404 733Q475 733 526 726T612 707L620 529H572L528 647Q504 660 471 667T393 675Q273 675 213 596T153 372Q153 293 166
233T209 131T285 68T397 47Q435 47 463 52T512 66V267L416 285V328H695V285L617 267V19Q572 3 519 -5T404 -14Z" />
<glyph unicode="H" glyph-name="H" horiz-adv-x="785" d="M33 43L126 61V658L33 678V721H322V678L231 658V395H556V658L463 678V721H752V678L661 658V61L752 43V0H463V43L556 61V342H231V61L322 43V0H33V43Z" />
<glyph unicode="I" glyph-name="I" horiz-adv-x="354" d="M33 43L126 61V659L33 678V721H322V678L231 659V61L322 43V0H33V43Z" />
<glyph unicode="J" glyph-name="J" horiz-adv-x="448" d="M145 -10Q100 -10 72 -2T23 16V74Q49 66 71 61T131 56Q153 56 171 60T203 77T224 111T231 166V658L138 678V721H427V678L336 658V156Q336 75 286 33T145 -10Z" />
<glyph unicode="K" glyph-name="K" horiz-adv-x="713" d="M33 43L126 61V659L33 678V721H326V678L231 659V335L515 659L448 678V721H674V678L603 659L382 417L613 62L692 43V0H529L311 343L231 272V61L326 43V0H33V43Z" />
<glyph unicode="L" glyph-name="L" horiz-adv-x="606" d="M33 43L126 61V659L33 678V721H332V678L231 659V57H476L528 228H577L564 0H33V43Z" />
<glyph unicode="M" glyph-name="M" horiz-adv-x="932" d="M33 42L126 61V659L33 678V721H279L394 378Q405 343 416 302T436 224Q446 182 455 139H460Q471 182 482 224Q492 260 503 301T527 378L643 721H899V678L798 659V62L899 43V0H615V43L695 62V419Q695 457
695 501T697 585Q698 631 699 676H694Q681 632 668 589Q657 552 643 509T616 431L480 35H406L275 431Q262 466 249 509T225 589Q212 632 200 676H195Q196 631 197 585Q198 546 198 502T199 419V62L281 43V0H33V42Z" />
<glyph unicode="N" glyph-name="N" horiz-adv-x="767" d="M33 41L127 61V658L33 678V721H266L500 326Q514 303 528 275T555 220Q569 190 584 159H589V657L496 678V721H744V679L661 658V0H578L289 489Q275 512 260 540T233 593Q218 622 205 652H200V62L294 42V0H33V41Z" />
<glyph unicode="O" glyph-name="O" horiz-adv-x="741" d="M369 -12Q301 -12 242 12T138 83T68 200T42 361Q42 458 71 528T146 643T252 711T372 733Q440 733 499 709T603 639T673 523T699 363Q699 266 671 196T596 79T490 11T369 -12ZM371 47Q426 47 467 70T535
133T575 229T588 350Q588 509 534 592T368 675Q312 675 272 652T205 588T166 492T153 370Q153 298 164 239T201 137T269 71T371 47Z" />
<glyph unicode="P" glyph-name="P" horiz-adv-x="608" d="M33 43L126 62V659L33 678V721H331Q468 721 529 668T590 521Q590 467 572 426T521 358T444 318T346 304Q307 304 281 307T231 314V62L341 43V0H33V43ZM231 368Q253 364 276 362T330 360Q406 360 443 395T480
514Q480 593 446 626T332 659H231V368Z" />
<glyph unicode="Q" glyph-name="Q" horiz-adv-x="741" d="M285 -4Q245 8 202 33T124 100T65 207T42 361Q42 458 71 528T146 643T252 711T372 733Q440 733 499 709T603 639T673 523T699 363Q699 285 681 225T629 121T550 53T450 19V14L785 -53L759 -143L285 -4ZM371
47Q426 47 467 70T535 133T575 229T588 350Q588 509 534 592T368 675Q312 675 272 652T205 588T166 492T153 370Q153 298 164 239T201 137T269 71T371 47Z" />
<glyph unicode="R" glyph-name="R" horiz-adv-x="692" d="M33 43L128 62V658L33 678V721H341Q471 721 532 670T593 526Q593 487 580 458T546 407T499 371T444 348V344L611 61L685 42V0H529L344 323H233V62L323 43V0H33V43ZM339 376Q381 376 409 388T454 421T478
468T485 524Q485 596 451 627T338 659H233V376H339Z" />
<glyph unicode="S" glyph-name="S" horiz-adv-x="556" d="M259 -12Q195 -12 144 -2T54 23L47 187H97L131 81Q160 65 191 57T269 48Q306 48 333 58T379 85T407 126T417 175Q417 203 408 224T382 260T341 289T285 316L197 354Q167 367 142 383T98 422T70 475T59
544Q59 583 73 617T115 678T187 719T288 734Q351 734 394 727T468 708L475 554H426L397 647Q382 655 356 664T280 674Q252 674 228 668T186 648T158 615T147 568Q147 520 174 493T257 442L345 406Q379 392 410 376T463 336T499 281T513 205Q513 163 499 124T454
55T375 6T259 -12Z" />
<glyph unicode="T" glyph-name="T" horiz-adv-x="648" d="M175 43L271 61V664H112L72 515H22L33 721H615L626 515H576L536 664H377V61L472 43V0H175V43Z" />
<glyph unicode="U" glyph-name="U" horiz-adv-x="733" d="M372 -14Q305 -14 255 2T171 50T121 123T104 219V659L13 678V721H302V678L210 659V237Q210 140 256 97T388 53Q476 53 522 97T568 238V658L475 677V721H720V678L640 659V229Q640 117 571 52T372 -14Z" />
<glyph unicode="V" glyph-name="V" horiz-adv-x="699" d="M81 658L14 678V721H276V678L192 658L304 317Q314 285 325 248T344 179Q354 141 363 103H368Q377 141 388 179Q397 211 408 248T430 317L543 658L460 678V721H684V678L617 658L390 0H308L81 658Z" />
<glyph unicode="W" glyph-name="W" horiz-adv-x="1007" d="M80 658L17 678V721H263V678L185 658L262 364Q271 328 280 285T298 204Q307 160 315 116H320Q329 160 340 204Q349 242 359 285T380 364L480 721H550L649 364Q659 328 669 285T688 204Q698 160 706 116H711Q720
160 730 204Q738 242 748 285T767 364L842 658L763 678V721H991V678L917 658L739 0H654L560 336Q549 372 540 415T523 497Q514 542 506 587H501Q491 543 480 498Q471 460 460 416T438 336L342 0H257L80 658Z" />
<glyph unicode="X" glyph-name="X" horiz-adv-x="729" d="M33 43L111 62L307 373L124 659L45 678V721H321V678L246 659L384 424H389L518 659L439 678V721H674V678L595 659L425 369L618 61L696 43V0H425V43L502 61L346 320H341L188 62L267 42V0H33V43Z" />
<glyph unicode="Y" glyph-name="Y" horiz-adv-x="663" d="M194 43L286 62V312L76 658L12 678V721H262V678L190 658L358 368H362L516 658L439 678V721H651V678L588 658L391 310V62L482 43V0H194V43Z" />
<glyph unicode="Z" glyph-name="Z" horiz-adv-x="581" d="M24 48L427 657V661H140L95 524H44L54 721H554V673L150 63V59H462L508 197H558L548 0H24V48Z" />
<glyph unicode="[" glyph-name="bracketleft" horiz-adv-x="374" d="M80 762H327V720L174 701V-63L327 -82V-125H80V762Z" />
<glyph unicode="\" glyph-name="backslash" horiz-adv-x="375" d="M39 762H107L359 -125H291L39 762Z" />
<glyph unicode="]" glyph-name="bracketright" horiz-adv-x="374" d="M47 -82L200 -63V701L47 720V762H295V-125H47V-82Z" />
<glyph unicode="^" glyph-name="asciicircum" horiz-adv-x="478" d="M209 721H270L443 431H386L239 632L92 431H35L209 721Z" />
<glyph unicode="_" glyph-name="underscore" horiz-adv-x="350" d="M-2 -71H352V-125H-2V-71Z" />
<glyph unicode="`" glyph-name="grave" horiz-adv-x="500" d="M122 723L157 802L374 668L357 629L122 723Z" />
<glyph unicode="a" glyph-name="a" horiz-adv-x="532" d="M215 484Q201 484 185 482T151 477L128 391H70V516Q85 521 107 526T156 535T209 541T262 544Q350 544 391 506T432 387V80Q432 55 445 50T483 44H516V8Q502 3 478 -3T424 -10Q392 -10 372 2T346 45H340Q318
22 284 4T197 -14Q161 -14 131 -3T79 27T45 74T33 136Q33 171 45 195T78 236T130 263T198 282L336 310V360Q336 391 332 414T316 453T279 476T215 484ZM232 51Q264 51 292 63T336 89V248L228 240Q173 236 153 212T132 146Q132 104 156 78T232 51Z" />
<glyph unicode="b" glyph-name="b" horiz-adv-x="593" d="M273 -12Q210 -12 161 0T77 26V715L-2 731V771L161 795L173 789V490H178Q210 512 247 528T341 544Q379 544 416 533T483 493T531 414T550 287Q550 213 530 157T474 64T386 7T273 -12ZM284 43Q321 43 351
54T404 91T438 161T450 268Q450 324 439 362T408 425T359 459T292 470Q254 470 223 461T173 444V75Q190 64 213 54T284 43Z" />
<glyph unicode="c" glyph-name="c" horiz-adv-x="499" d="M299 -12Q236 -12 188 7T106 62T56 148T39 262Q39 338 61 391T122 479T212 528T321 544Q359 544 395 539T461 523V389H406L385 477Q372 482 357 484T309 487Q230 487 184 435T138 274Q138 212 152 171T192
104T252 67T326 56Q381 56 416 65T471 83V35Q445 17 404 3T299 -12Z" />
<glyph unicode="d" glyph-name="d" horiz-adv-x="627" d="M272 -12Q234 -12 194 0T120 43T66 125T44 254Q44 328 64 382T120 473T207 526T320 544Q352 544 374 540T420 529V715L334 731V771L504 795L516 789V66L595 49V14L438 -10L426 -5V49H420Q398 23 362 6T272
-12ZM301 60Q338 60 370 70T420 90V454Q403 466 379 477T308 488Q272 488 242 478T189 442T155 373T143 266Q143 155 184 108T301 60Z" />
<glyph unicode="e" glyph-name="e" horiz-adv-x="542" d="M301 -12Q232 -12 183 9T101 67T54 157T39 271Q39 335 58 385T111 471T189 525T285 544Q344 544 385 525T453 469T492 380T505 263H138Q142 160 189 108T321 55Q379 55 415 65T481 89V42Q455 24 412 6T301
-12ZM396 315Q396 408 367 448T279 488Q216 488 180 447T138 315H396Z" />
<glyph unicode="f" glyph-name="f" horiz-adv-x="371" d="M367 737Q357 739 344 741T315 743Q263 743 233 712T202 605V534H344V472H202V52L294 35V0H28V35L106 52V472H31V514L106 540V611Q106 657 122 692T166 750T233 786T318 798Q363 798 390 793T443 781V666H385L367
737Z" />
<glyph unicode="g" glyph-name="g" horiz-adv-x="554" d="M240 -224Q180 -224 138 -213T69 -183T30 -142T18 -96Q18 -55 46 -24T129 29V35Q103 44 88 63T72 108Q72 137 88 168T135 227Q95 246 73 280T50 366Q50 410 66 443T111 498T176 532T256 544Q285 544 311
540T360 525L540 547V476L415 482V478Q438 458 450 436T462 377Q462 333 446 300T401 245T336 211T255 200Q208 200 172 210Q159 196 153 175T146 142Q146 128 157 116T196 104H369Q401 104 430 98T482 78T518 38T531 -25Q531 -66 512 -102T456 -165T365 -208T240
-224ZM249 -165Q299 -165 336 -156T397 -131T434 -95T446 -51Q446 -14 422 1T353 17H189Q148 2 129 -23T109 -81Q109 -119 142 -142T249 -165ZM255 251Q306 251 336 280T367 371Q367 435 335 464T255 494Q205 494 175 464T145 373Q145 308 176 280T255 251Z" />
<glyph unicode="h" glyph-name="h" horiz-adv-x="634" d="M27 35L106 52V715L27 731V771L190 795L202 789V492H208Q247 513 291 528T384 544Q459 544 497 512T535 401V52L614 35V0H362V35L439 52V376Q439 431 411 451T326 471Q293 471 263 464T202 446V52L279
35V0H27V35Z" />
<glyph unicode="i" glyph-name="i" horiz-adv-x="307" d="M28 35L106 52V461L22 477V517L191 542L202 536V52L281 35V0H28V35ZM150 646Q124 646 106 664T87 707Q87 733 105 751T150 769Q176 769 194 751T213 707Q213 683 195 665T150 646Z" />
<glyph unicode="j" glyph-name="j" horiz-adv-x="293" d="M42 -215Q4 -215 -36 -199V-156Q-25 -158 -12 -158T12 -159Q31 -159 48 -155T78 -140T98 -109T106 -58V461L22 477V517L191 542L202 536V-68Q202 -139 161 -177T42 -215ZM150 646Q124 646 106 664T87 707Q87
733 105 751T150 769Q176 769 194 751T213 707Q213 683 195 665T150 646Z" />
<glyph unicode="k" glyph-name="k" d="M252 239L202 243V51L283 35V0H27V35L106 51V715L27 731V771L190 795L202 789V276L256 298L396 480L333 496V534H545V496L468 480L318 298L500 52L568 35V0H425L252 239Z" />
<glyph unicode="l" glyph-name="l" horiz-adv-x="307" d="M27 35L106 52V715L20 731V771L190 795L202 789V52L281 35V0H27V35Z" />
<glyph unicode="m" glyph-name="m" horiz-adv-x="947" d="M27 35L106 52V461L27 477V517L186 542L197 536V490H203Q244 513 284 528T382 544Q475 544 507 485H513Q552 509 599 526T700 544Q772 544 809 509T846 396V52L924 35V0H673V35L749 52V370Q749 428 722
449T637 471Q606 471 577 464T519 447Q521 439 522 427T524 396V52L600 35V0H350V35L428 52V370Q428 428 401 449T321 471Q284 471 258 465T202 447V52L279 35V0H27V35Z" />
<glyph unicode="n" glyph-name="n" horiz-adv-x="636" d="M27 35L106 52V461L27 477V517L186 542L197 536V489H203Q243 512 289 528T384 544Q459 544 497 512T535 401V52L614 35V0H362V35L439 52V376Q439 431 411 450T326 470Q293 470 263 464T202 446V52L279
35V0H27V35Z" />
<glyph unicode="o" glyph-name="o" horiz-adv-x="593" d="M298 -14Q240 -14 192 6T110 62T58 149T39 263Q39 326 59 378T114 466T195 523T295 544Q353 544 400 525T482 469T535 382T554 268Q554 205 534 154T479 65T398 7T298 -14ZM299 44Q329 44 356 54T405 90T440
157T453 260Q453 324 440 367T404 437T353 475T294 487Q264 487 237 477T187 441T152 374T139 270Q139 207 152 164T188 94T240 56T299 44Z" />
<glyph unicode="p" glyph-name="p" horiz-adv-x="618" d="M24 -182L102 -167V461L23 477V517L180 542L192 536V486H198Q230 510 270 527T366 544Q404 544 441 533T508 493T556 414T574 287Q574 213 554 157T498 64T411 7T298 -12Q266 -12 244 -10T198 -3V-165L290
-182V-217H24V-182ZM309 43Q346 43 376 54T429 91T463 161T475 268Q475 324 465 362T434 425T384 459T317 470Q279 470 248 461T198 444V73Q215 62 238 53T309 43Z" />
<glyph unicode="q" glyph-name="q" horiz-adv-x="604" d="M328 -182L421 -165V46H414Q385 23 351 6T262 -12Q224 -12 186 -1T116 40T64 120T44 249Q44 322 64 377T120 470T206 525T316 544Q370 544 420 536T516 512V-167L594 -182V-217H328V-182ZM301 60Q338 60
370 70T420 90V454Q411 460 402 466T379 477T348 485T304 488Q269 488 240 478T189 442T155 373T143 266Q143 155 184 108T301 60Z" />
<glyph unicode="r" glyph-name="r" horiz-adv-x="404" d="M27 35L106 52V461L27 477V517L186 542L197 536V468H203Q215 481 231 495T266 519T308 537T352 544Q359 544 368 543T381 540V453Q371 455 360 455T340 456Q302 456 265 448T202 423V52L292 35V0H27V35Z" />
<glyph unicode="s" glyph-name="s" horiz-adv-x="464" d="M215 -14Q171 -14 127 -5T48 16L40 144H90L118 67Q133 59 159 52T222 44Q272 44 304 63T337 125Q337 145 332 159T314 183T282 202T235 220L177 239Q114 259 80 294T46 389Q46 420 58 448T94 497T155 530T240
543Q285 543 324 537T389 523V403H342L317 469Q303 477 283 482T231 487Q187 487 158 470T129 412Q129 377 151 358T233 320L291 302Q364 279 394 244T424 151Q424 117 411 87T372 35T306 -1T215 -14Z" />
<glyph unicode="t" glyph-name="t" horiz-adv-x="383" d="M238 -9Q169 -9 135 19T101 120V472H19V514L101 539V667H197V534H348V472H197V139Q197 117 201 101T216 74T245 58T291 53Q308 53 325 55T358 60V22Q349 16 336 11T306 1T273 -6T238 -9Z" />
<glyph unicode="u" glyph-name="u" horiz-adv-x="636" d="M250 -10Q168 -10 132 32T96 146V468L17 485V524L180 541L192 535V170Q192 114 212 86T296 58Q345 58 375 68T428 88V468L351 485V524L513 541L525 535V66L603 49V14L446 -10L434 -5V53H428Q395 24 351
7T250 -10Z" />
<glyph unicode="v" glyph-name="v" horiz-adv-x="585" d="M69 480L10 496V534H241V496L175 484L268 219Q275 198 282 174T295 127Q302 101 308 76H313Q318 101 325 127Q330 149 337 173T353 219L448 484L382 496V534H575V496L516 480L334 0H253L69 480Z" />
<glyph unicode="w" glyph-name="w" horiz-adv-x="846" d="M66 480L10 496V534H230V496L162 480L233 244Q240 221 245 193T255 139Q259 110 262 80H267Q273 109 280 138Q286 163 293 191T309 244L403 534H470L564 244Q572 220 577 192T587 138Q591 109 595 80H600Q606
110 613 139Q618 164 625 192T639 244L708 480L642 496V534H836V496L780 480L630 0H554L477 246Q470 268 463 301T448 364Q440 399 432 437H427Q417 399 408 364Q400 334 392 301T375 246L291 0H215L66 480Z" />
<glyph unicode="x" glyph-name="x" horiz-adv-x="586" d="M22 35L86 51L237 265L88 480L26 496V534H259V496L197 483L310 304H312L424 483L357 496V534H553V496L492 480L347 275L500 51L564 35V0H328V35L394 49L276 232H274L154 49L221 35V0H22V35Z" />
<glyph unicode="y" glyph-name="y" horiz-adv-x="577" d="M141 -217Q115 -217 94 -210T59 -191V-137Q77 -141 88 -143T114 -146Q160 -146 186 -128T233 -59L264 15L69 480L10 496V534H246V496L175 482L267 246Q275 226 282 202T294 156Q300 130 306 105H311Q318
129 325 155Q331 176 338 201T353 246L434 480L366 496V534H567V496L508 480L295 -79Q268 -150 234 -183T141 -217Z" />
<glyph unicode="z" glyph-name="z" horiz-adv-x="520" d="M41 50L355 477V482H140L109 386H60L68 534H468V486L154 56V52H381L420 169H470L456 0H41V50Z" />
<glyph unicode="{" glyph-name="braceleft" horiz-adv-x="431" d="M384 -125Q310 -123 262 -113T186 -85T146 -43T134 10Q134 32 139 59T150 113T162 165T167 207Q167 222 163 234T147 257T109 274T42 286V352Q84 357 109 364T146 381T163 403T167 431Q167 448
162 472T151 524T139 578T134 627Q134 656 145 680T185 721T262 749T384 762V720Q342 714 313 708T267 693T242 670T234 633Q234 615 238 593T246 546T255 496T259 448Q259 428 256 410T237 376T192 346T110 321V316Q162 305 192 291T237 261T255 227T259 189Q259
166 255 141T247 92T238 45T234 4Q234 -19 241 -33T266 -56T313 -70T384 -82V-125V-125Z" />
<glyph unicode="|" glyph-name="bar" horiz-adv-x="249" d="M92 762H157V-125H92V762Z" />
<glyph unicode="}" glyph-name="braceright" horiz-adv-x="431" d="M47 -82Q89 -76 118 -71T164 -56T189 -33T197 4Q197 22 193 45T185 92T176 141T172 189Q172 208 175 226T194 261T239 291T321 316V321Q269 332 239 346T194 376T176 410T172 448Q172 471 176
496T184 545T193 592T197 633Q197 656 190 670T165 693T118 708T47 720V762Q121 760 169 750T245 722T285 680T297 627Q297 605 292 578T281 524T269 473T264 431Q264 416 268 404T284 381T322 364T389 352V286Q347 281 322 274T285 256T268 234T264 207Q264 190
269 165T280 113T292 59T297 10Q297 -19 286 -43T246 -84T169 -112T47 -125V-82Z" />
<glyph unicode="~" glyph-name="asciitilde" horiz-adv-x="445" d="M33 264Q57 324 85 351T155 379Q176 379 195 372T232 355T265 338T295 330Q315 330 332 343T368 388L411 368Q388 308 360 281T290 254Q269 254 250 261T213 278T180 295T150 303Q130 303 113
290T76 244L33 264Z" />
<glyph unicode="&#xa0;" glyph-name="uni00A0" horiz-adv-x="232" />
<glyph unicode="&#xa1;" glyph-name="exclamdown" horiz-adv-x="260" d="M187 -125H77L103 396H161L187 -125ZM130 608Q156 608 174 589T193 545Q193 519 175 501T130 483Q104 483 85 501T66 545Q66 570 85 589T130 608Z" />
<glyph unicode="&#xa2;" glyph-name="cent" horiz-adv-x="600" d="M264 -154L279 -5Q185 14 136 84T87 262Q87 332 106 382T158 467T237 519T333 542L342 639H402L392 543Q424 541 454 536T509 523V389H454L433 481Q423 485 414 487T387 490L344 54Q355 52 360
52T374 52Q429 52 464 63T519 83V35Q493 17 452 3T347 -12H338L324 -154H264ZM186 274Q186 187 214 138T289 68L330 489Q263 481 225 427T186 274Z" />
<glyph unicode="&#xa3;" glyph-name="sterling" horiz-adv-x="600" d="M92 362H160V446Q160 509 180 554T233 627T310 668T401 681Q444 681 475 675T530 661V519H472L442 620Q424 623 400 623Q370 623 344 614T299 584T269 528T255 442L252 362H438V301H250L249
267Q247 228 242 201T226 154T202 118T169 86V82H536L525 0H65V49Q113 78 136 122T160 241V301H92V362Z" />
<glyph unicode="&#xa5;" glyph-name="yen" horiz-adv-x="600" d="M68 340H236L84 606L27 626V669H261V626L191 606L323 363H327L449 606L378 626V669H573V626L517 606L376 340H547V288H355V210H547V158H355V62L449 43V0H164V43L259 62V158H68V210H259V288H68V340Z" />
<glyph unicode="&#xa6;" glyph-name="brokenbar" horiz-adv-x="249" d="M92 290H157V-125H92V290ZM92 762H157V386H92V762Z" />
<glyph unicode="&#xa7;" glyph-name="section" horiz-adv-x="563" d="M273 -137Q218 -137 177 -128T100 -106L92 20H142L171 -55Q190 -64 214 -72T277 -80Q299 -80 319 -75T355 -60T380 -34T390 4Q390 42 365 67T286 113L201 147Q165 161 136 176T85 211T51 254T39
309Q39 364 77 396T178 444Q140 466 122 497T103 577Q103 646 154 689T300 733Q350 733 387 726T450 711V596H402L377 658Q364 666 345 671T290 676Q269 676 250 672T217 658T194 633T185 596Q185 578 189 564T203 539T231 517T276 496L361 463Q397 449 427 434T478
401T512 359T524 304Q524 248 488 214T387 164Q428 141 453 107T478 26Q478 -7 465 -36T427 -88T363 -124T273 -137ZM235 418Q214 415 194 408T159 389T134 362T125 327Q125 306 134 291T161 264T202 240T256 218L328 190Q349 193 369 200T404 220T428 247T437
283Q437 303 428 318T401 346T359 369T306 391L235 418Z" />
<glyph unicode="&#xa8;" glyph-name="dieresis" horiz-adv-x="500" d="M355 646Q330 646 314 662T298 702Q298 725 314 741T355 758Q380 758 396 742T412 702Q412 679 396 663T355 646ZM145 646Q120 646 104 662T88 702Q88 725 104 741T145 758Q170 758 186 742T202
702Q202 679 186 663T145 646Z" />
<glyph unicode="&#xa9;" glyph-name="copyright" horiz-adv-x="839" d="M419 -15Q340 -15 272 14T154 94T76 213T47 358Q47 435 75 502T154 620T272 699T419 728Q498 728 566 699T684 620T763 503T792 358Q792 281 763 213T684 95T566 15T419 -15ZM419 28Q489
28 547 54T648 125T713 230T737 358Q737 426 714 485T648 589T548 659T419 685Q348 685 290 660T189 590T124 486T101 358Q101 290 124 230T189 125T289 54T419 28ZM431 179Q392 179 360 190T304 224T267 279T253 356Q253 404 268 439T308 496T367 530T439 541Q472
541 499 537T543 528L548 432H514L489 491Q478 496 466 499T433 503Q381 503 359 466T337 366Q337 297 359 257T437 217Q456 217 469 218T489 225L517 297H552L545 197Q525 191 497 185T431 179Z" />
<glyph unicode="&#xaa;" glyph-name="ordfeminine" horiz-adv-x="490" d="M201 671Q181 671 159 668L137 596H79V701Q108 713 153 722T244 731Q403 731 403 590V318Q403 295 414 289T448 283H471V248Q463 243 444 238T395 232Q366 232 346 243T320 282H315Q295
262 265 246T186 229Q120 229 80 265T39 363Q39 394 50 416T82 455T130 481T192 498L311 521V565Q311 593 307 613T290 646T257 665T201 671ZM217 291Q246 291 271 300T311 321V463L219 456Q174 452 153 430T131 371Q131 334 153 313T217 291Z" />
<glyph unicode="&#xab;" glyph-name="guillemotleft" horiz-adv-x="494" d="M237 248V278L384 498H447L328 263L447 27H384L237 248ZM45 248V278L192 498H255L136 263L255 27H192L45 248Z" />
<glyph unicode="&#xae;" glyph-name="registered" horiz-adv-x="637" d="M318 179Q259 179 208 201T120 260T61 349T39 457Q39 515 60 566T119 654T208 713T318 735Q377 735 428 714T517 655T576 566T598 457Q598 400 577 349T517 261T428 201T318 179ZM318 222Q368
222 410 239T482 287T529 361T546 457Q546 508 529 551T482 626T410 674T318 692Q267 692 225 675T154 626T108 552T91 457Q91 405 107 362T153 287T225 239T318 222ZM196 361L231 368V554L196 562V592H324Q375 592 404 574T434 519Q434 489 416 475T378 455V451L437
367L460 361V332H393L329 434H288V368L318 361V332H196V361ZM329 472Q356 472 364 484T373 516Q373 539 361 547T323 555H288V472H329Z" />
<glyph unicode="&#xaf;" glyph-name="macron" horiz-adv-x="500" d="M111 729H388V665H111V729Z" />
<glyph unicode="&#xb0;" glyph-name="degree" horiz-adv-x="445" d="M223 396Q185 396 154 409T100 446T65 499T52 564Q52 598 64 628T99 681T153 717T223 730Q261 730 292 717T346 682T381 629T393 564Q393 530 381 500T347 446T293 410T223 396ZM223 450Q247
450 266 459T298 483T318 520T325 564Q325 611 298 643T223 676Q174 676 147 644T120 564Q120 541 127 520T147 484T179 459T223 450Z" />
<glyph unicode="&#xb1;" glyph-name="plusminus" horiz-adv-x="600" d="M65 387H266V563H335V387H536V322H335V146H266V322H65V387ZM65 65H536V0H65V65Z" />
<glyph unicode="&#xb4;" glyph-name="acute" horiz-adv-x="500" d="M126 668L343 802L378 723L143 629L126 668Z" />
<glyph unicode="&#xb6;" glyph-name="paragraph" horiz-adv-x="640" d="M296 348Q283 346 270 345T243 344Q201 344 163 355T95 390T48 450T30 537Q30 579 43 613T85 671T163 708T281 721H607V678L525 659V-125H460V666H361V-125H296V348Z" />
<glyph unicode="&#xb7;" glyph-name="periodcentered" horiz-adv-x="312" d="M156 268Q124 268 102 289T79 343Q79 375 101 396T156 418Q188 418 210 397T233 343Q233 311 211 290T156 268Z" />
<glyph unicode="&#xb8;" glyph-name="cedilla" horiz-adv-x="500" d="M174 -204Q219 -201 246 -196T290 -183T311 -167T317 -148Q317 -130 296 -122T226 -114V0H275V-67Q403 -71 403 -142Q403 -162 394 -179T360 -209T290 -231T174 -242V-204Z" />
<glyph unicode="&#xba;" glyph-name="ordmasculine" horiz-adv-x="535" d="M269 229Q216 229 173 247T100 297T52 376T35 478Q35 535 53 581T102 661T176 712T265 731Q317 731 360 714T435 664T483 585T500 483Q500 426 482 380T433 300T359 248T269 229ZM270
282Q297 282 321 291T363 323T393 383T404 475Q404 532 393 571T362 634T317 668T265 678Q238 678 214 669T171 637T141 577T130 485Q130 428 141 389T172 327T217 293T270 282Z" />
<glyph unicode="&#xbb;" glyph-name="guillemotright" horiz-adv-x="494" d="M358 262L239 498H302L449 277V247L302 27H239L358 262ZM166 262L47 498H110L257 277V247L110 27H47L166 262Z" />
<glyph unicode="&#xbc;" glyph-name="onequarter" horiz-adv-x="849" d="M44 310L110 322V654L37 647V677L165 726H195V322L261 310V277H44V310ZM694 721H761L203 -71H136L694 721ZM664 7H457V49L676 336H744V53H814V7H744V-108H664V7ZM664 53V251H660L515 56V53H664Z" />
<glyph unicode="&#xbd;" glyph-name="onehalf" horiz-adv-x="897" d="M40 310L106 322V654L33 647V677L161 726H191V322L257 310V277H40V310ZM679 721H746L188 -71H121L679 721ZM537 -67L651 40Q676 63 695 83T727 123T746 165T753 213Q753 298 660 298Q638 298
623 295L606 224H559V318Q585 329 616 336T678 343Q755 343 797 311T840 214Q840 163 801 115T693 13L624 -42V-48H848L844 -108H537V-67Z" />
<glyph unicode="&#xbe;" glyph-name="threequarters" horiz-adv-x="859" d="M162 271Q118 271 86 279T32 298V339Q55 331 82 326T138 321Q187 321 215 340T244 404Q244 448 220 466T141 485H109V531H136Q182 531 208 551T234 610Q234 648 215 666T151 685Q140
685 130 684T111 682L95 618H49V707Q72 716 103 722T166 728Q238 728 276 700T314 618Q314 578 288 553T221 516V510Q243 507 263 499T298 478T322 445T331 398Q331 338 286 305T162 271ZM712 721H779L221 -71H154L712 721ZM674 7H467V49L686 336H754V53H824V7H754V-108H674V7ZM674
53V251H670L525 56V53H674Z" />
<glyph unicode="&#xbf;" glyph-name="questiondown" horiz-adv-x="453" d="M285 -79Q300 -79 313 -78T337 -75L359 5H417V-107Q381 -121 341 -128T250 -136Q209 -136 172 -126T108 -95T64 -40T47 40Q47 75 55 101T79 149T120 190T177 231Q193 242 207 250T233
269T251 291T258 323Q258 337 256 354T247 397H299Q305 383 312 361T319 310Q319 287 313 270T293 237T261 206T217 171Q199 157 186 145T164 117T151 84T147 42Q147 -18 182 -48T285 -79ZM273 609Q299 609 317 590T336 546Q336 520 318 502T273 484Q247 484 228
502T209 546Q209 571 228 590T273 609Z" />
<glyph unicode="&#xc0;" glyph-name="Agrave" horiz-adv-x="708" d="M9 44L82 62L315 721H401L627 62L699 44V0H430V43L513 62L459 228H212L155 62L239 43V0H9V44ZM230 281H442L384 461Q376 484 369 512T356 564Q349 592 343 620H338Q331 592 323 564Q316 540
308 512T292 461L230 281ZM225 872L261 955L478 821L461 782L225 872Z" />
<glyph unicode="&#xc1;" glyph-name="Aacute" horiz-adv-x="708" d="M9 44L82 62L315 721H401L627 62L699 44V0H430V43L513 62L459 228H212L155 62L239 43V0H9V44ZM230 281H442L384 461Q376 484 369 512T356 564Q349 592 343 620H338Q331 592 323 564Q316 540
308 512T292 461L230 281ZM236 821L453 955L489 872L253 782L236 821Z" />
<glyph unicode="&#xc2;" glyph-name="Acircumflex" horiz-adv-x="708" d="M9 44L82 62L315 721H401L627 62L699 44V0H430V43L513 62L459 228H212L155 62L239 43V0H9V44ZM230 281H442L384 461Q376 484 369 512T356 564Q349 592 343 620H338Q331 592 323 564Q316
540 308 512T292 461L230 281ZM196 818L331 947H380L515 818L496 788L356 867L215 788L196 818Z" />
<glyph unicode="&#xc3;" glyph-name="Atilde" horiz-adv-x="708" d="M9 44L82 62L315 721H401L627 62L699 44V0H430V43L513 62L459 228H212L155 62L239 43V0H9V44ZM230 281H442L384 461Q376 484 369 512T356 564Q349 592 343 620H338Q331 592 323 564Q316 540
308 512T292 461L230 281ZM179 822Q223 927 292 927Q309 927 327 921T363 906T395 891T422 884Q438 884 454 894T489 937L531 918Q486 811 418 811Q401 811 383 817T347 832T315 847T288 854Q272 854 256 845T221 803L179 822Z" />
<glyph unicode="&#xc4;" glyph-name="Adieresis" horiz-adv-x="708" d="M464 799Q439 799 423 815T407 855Q407 878 423 894T464 911Q489 911 505 895T521 855Q521 832 505 816T464 799ZM244 799Q219 799 203 815T187 855Q187 878 203 894T244 911Q269 911 285
895T301 855Q301 832 285 816T244 799ZM9 44L82 62L315 721H401L627 62L699 44V0H430V43L513 62L459 228H212L155 62L239 43V0H9V44ZM230 281H442L384 461Q376 484 369 512T356 564Q349 592 343 620H338Q331 592 323 564Q316 540 308 512T292 461L230 281Z" />
<glyph unicode="&#xc5;" glyph-name="Aring" horiz-adv-x="708" d="M9 44L82 62L315 721H401L627 62L699 44V0H430V43L513 62L459 228H212L155 62L239 43V0H9V44ZM230 281H442L384 461Q376 484 369 512T356 564Q349 592 343 620H338Q331 592 323 564Q316 540 308
512T292 461L230 281ZM355 775Q329 775 306 784T266 810T240 847T230 894Q230 918 239 939T266 977T306 1002T355 1012Q381 1012 403 1003T442 977T468 940T478 894Q478 869 469 848T443 810T404 785T355 775ZM355 819Q388 819 407 839T427 894Q427 928 408 948T355
968Q322 968 302 948T282 894Q282 859 302 839T355 819Z" />
<glyph unicode="&#xc6;" glyph-name="AE" horiz-adv-x="986" d="M9 44L74 62L425 667L355 678V721H925L936 542H886L841 664H591V398H721L749 497H795V245H749L721 345H591V57H851L908 208H958L945 0H395V43L488 62V233H246L148 62L231 43V0H9V44ZM491 675Q486
664 478 647T459 610T436 567T411 522L276 286H488V515Q488 544 488 572T491 623Q493 649 495 675H491Z" />
<glyph unicode="&#xc7;" glyph-name="Ccedilla" horiz-adv-x="658" d="M243 -204Q288 -201 315 -196T359 -183T380 -167T386 -148Q386 -130 365 -122T295 -114V-5Q237 5 191 30T111 99T60 205T42 352Q42 460 72 533T151 650T265 714T398 733Q464 733 514 725T598
706L603 530H555L512 649Q492 657 458 666T385 675Q268 675 211 595T153 372Q153 214 209 131T396 47Q434 47 463 55T516 76L559 205H610L603 24Q564 7 512 -2T381 -12Q371 -12 364 -12T344 -11V-67Q472 -71 472 -142Q472 -162 463 -179T429 -209T359 -231T243
-242V-204Z" />
<glyph unicode="&#xc8;" glyph-name="Egrave" horiz-adv-x="639" d="M33 43L127 62V658L34 678V721H574L586 542H535L490 664H232V398H370L399 497H444V245H399L370 345H232V57H501L557 208H608L594 0H33V43ZM211 872L247 955L464 821L447 782L211 872Z" />
<glyph unicode="&#xc9;" glyph-name="Eacute" horiz-adv-x="639" d="M33 43L127 62V658L34 678V721H574L586 542H535L490 664H232V398H370L399 497H444V245H399L370 345H232V57H501L557 208H608L594 0H33V43ZM224 821L441 955L477 872L241 782L224 821Z" />
<glyph unicode="&#xca;" glyph-name="Ecircumflex" horiz-adv-x="639" d="M33 43L127 62V658L34 678V721H574L586 542H535L490 664H232V398H370L399 497H444V245H399L370 345H232V57H501L557 208H608L594 0H33V43ZM182 818L317 947H366L501 818L482 788L342 867L201
788L182 818Z" />
<glyph unicode="&#xcb;" glyph-name="Edieresis" horiz-adv-x="639" d="M33 43L127 62V658L34 678V721H574L586 542H535L490 664H232V398H370L399 497H444V245H399L370 345H232V57H501L557 208H608L594 0H33V43ZM450 799Q425 799 409 815T393 855Q393 878 409
894T450 911Q475 911 491 895T507 855Q507 832 491 816T450 799ZM230 799Q205 799 189 815T173 855Q173 878 189 894T230 911Q255 911 271 895T287 855Q287 832 271 816T230 799Z" />
<glyph unicode="&#xcc;" glyph-name="Igrave" horiz-adv-x="354" d="M33 43L126 61V659L33 678V721H322V678L231 659V61L322 43V0H33V43ZM307 872L343 955L560 821L543 782L307 872Z" />
<glyph unicode="&#xcd;" glyph-name="Iacute" horiz-adv-x="354" d="M33 43L126 61V659L33 678V721H322V678L231 659V61L322 43V0H33V43ZM316 821L533 955L569 872L333 782L316 821Z" />
<glyph unicode="&#xce;" glyph-name="Icircumflex" horiz-adv-x="354" d="M33 43L126 61V659L33 678V721H322V678L231 659V61L322 43V0H33V43ZM276 818L411 947H460L595 818L576 788L436 867L295 788L276 818Z" />
<glyph unicode="&#xcf;" glyph-name="Idieresis" horiz-adv-x="354" d="M33 43L126 61V659L33 678V721H322V678L231 659V61L322 43V0H33V43ZM544 799Q519 799 503 815T487 855Q487 878 503 894T544 911Q569 911 585 895T601 855Q601 832 585 816T544 799ZM324
799Q299 799 283 815T267 855Q267 878 283 894T324 911Q349 911 365 895T381 855Q381 832 365 816T324 799Z" />
<glyph unicode="&#xd0;" glyph-name="Eth" horiz-adv-x="729" d="M42 393H127V658L34 678V721H324Q423 721 492 698T605 632T669 525T689 379Q689 196 604 98T336 0H33V43L127 62V332H42V393ZM338 57Q397 57 441 72T516 122T561 217T576 363Q576 463 558 522T506
613T423 654T309 664H232V393H420V332H232V57H338Z" />
<glyph unicode="&#xd1;" glyph-name="Ntilde" horiz-adv-x="767" d="M33 41L127 61V658L33 678V721H266L500 326Q514 303 528 275T555 220Q569 190 584 159H589V657L496 678V721H744V679L661 658V0H578L289 489Q275 512 260 540T233 593Q218 622 205 652H200V62L294
42V0H33V41ZM233 822Q277 927 346 927Q363 927 381 921T417 906T449 891T476 884Q492 884 508 894T543 937L585 918Q540 811 472 811Q455 811 437 817T401 832T369 847T342 854Q326 854 310 845T275 803L233 822Z" />
<glyph unicode="&#xd2;" glyph-name="Ograve" horiz-adv-x="741" d="M369 -12Q301 -12 242 12T138 83T68 200T42 361Q42 458 71 528T146 643T252 711T372 733Q440 733 499 709T603 639T673 523T699 363Q699 266 671 196T596 79T490 11T369 -12ZM371 47Q426 47
467 70T535 133T575 229T588 350Q588 509 534 592T368 675Q312 675 272 652T205 588T166 492T153 370Q153 298 164 239T201 137T269 71T371 47ZM241 872L277 955L494 821L477 782L241 872Z" />
<glyph unicode="&#xd3;" glyph-name="Oacute" horiz-adv-x="741" d="M369 -12Q301 -12 242 12T138 83T68 200T42 361Q42 458 71 528T146 643T252 711T372 733Q440 733 499 709T603 639T673 523T699 363Q699 266 671 196T596 79T490 11T369 -12ZM371 47Q426 47
467 70T535 133T575 229T588 350Q588 509 534 592T368 675Q312 675 272 652T205 588T166 492T153 370Q153 298 164 239T201 137T269 71T371 47ZM256 821L473 955L509 872L273 782L256 821Z" />
<glyph unicode="&#xd4;" glyph-name="Ocircumflex" horiz-adv-x="741" d="M369 -12Q301 -12 242 12T138 83T68 200T42 361Q42 458 71 528T146 643T252 711T372 733Q440 733 499 709T603 639T673 523T699 363Q699 266 671 196T596 79T490 11T369 -12ZM371 47Q426
47 467 70T535 133T575 229T588 350Q588 509 534 592T368 675Q312 675 272 652T205 588T166 492T153 370Q153 298 164 239T201 137T269 71T371 47ZM210 818L345 947H394L529 818L510 788L370 867L229 788L210 818Z" />
<glyph unicode="&#xd5;" glyph-name="Otilde" horiz-adv-x="741" d="M369 -12Q301 -12 242 12T138 83T68 200T42 361Q42 458 71 528T146 643T252 711T372 733Q440 733 499 709T603 639T673 523T699 363Q699 266 671 196T596 79T490 11T369 -12ZM371 47Q426 47
467 70T535 133T575 229T588 350Q588 509 534 592T368 675Q312 675 272 652T205 588T166 492T153 370Q153 298 164 239T201 137T269 71T371 47ZM194 822Q238 927 307 927Q324 927 342 921T378 906T410 891T437 884Q453 884 469 894T504 937L546 918Q501 811 433
811Q416 811 398 817T362 832T330 847T303 854Q287 854 271 845T236 803L194 822Z" />
<glyph unicode="&#xd6;" glyph-name="Odieresis" horiz-adv-x="741" d="M369 -12Q301 -12 242 12T138 83T68 200T42 361Q42 458 71 528T146 643T252 711T372 733Q440 733 499 709T603 639T673 523T699 363Q699 266 671 196T596 79T490 11T369 -12ZM371 47Q426
47 467 70T535 133T575 229T588 350Q588 509 534 592T368 675Q312 675 272 652T205 588T166 492T153 370Q153 298 164 239T201 137T269 71T371 47ZM480 799Q455 799 439 815T423 855Q423 878 439 894T480 911Q505 911 521 895T537 855Q537 832 521 816T480 799ZM260
799Q235 799 219 815T203 855Q203 878 219 894T260 911Q285 911 301 895T317 855Q317 832 301 816T260 799Z" />
<glyph unicode="&#xd7;" glyph-name="multiply" horiz-adv-x="600" d="M83 150L254 319L83 488L129 534L300 364L470 533L516 487L346 319L517 150L471 104L300 273L129 104L83 150Z" />
<glyph unicode="&#xd8;" glyph-name="Oslash" horiz-adv-x="741" d="M369 -12Q310 -12 258 6T164 59L89 -33L43 2L123 100Q85 148 64 212T42 361Q42 458 71 528T146 643T252 711T372 733Q493 733 579 661L646 743L692 708L620 619Q657 573 678 509T699 363Q699
266 671 196T596 79T490 11T369 -12ZM152 370Q152 307 157 257T177 167L533 604Q481 675 368 675Q312 675 272 652T205 588T165 492T152 370ZM371 47Q426 47 467 70T535 133T575 229T589 350Q589 412 583 461T562 549L207 112Q233 80 272 64T371 47Z" />
<glyph unicode="&#xd9;" glyph-name="Ugrave" horiz-adv-x="733" d="M372 -14Q305 -14 255 2T171 50T121 123T104 219V659L13 678V721H302V678L210 659V237Q210 140 256 97T388 53Q476 53 522 97T568 238V658L475 677V721H720V678L640 659V229Q640 117 571 52T372
-14ZM258 872L294 955L511 821L494 782L258 872Z" />
<glyph unicode="&#xda;" glyph-name="Uacute" horiz-adv-x="733" d="M372 -14Q305 -14 255 2T171 50T121 123T104 219V659L13 678V721H302V678L210 659V237Q210 140 256 97T388 53Q476 53 522 97T568 238V658L475 677V721H720V678L640 659V229Q640 117 571 52T372
-14ZM273 821L490 955L526 872L290 782L273 821Z" />
<glyph unicode="&#xdb;" glyph-name="Ucircumflex" horiz-adv-x="733" d="M372 -14Q305 -14 255 2T171 50T121 123T104 219V659L13 678V721H302V678L210 659V237Q210 140 256 97T388 53Q476 53 522 97T568 238V658L475 677V721H720V678L640 659V229Q640 117 571
52T372 -14ZM228 818L363 947H412L547 818L528 788L388 867L247 788L228 818Z" />
<glyph unicode="&#xdc;" glyph-name="Udieresis" horiz-adv-x="733" d="M372 -14Q305 -14 255 2T171 50T121 123T104 219V659L13 678V721H302V678L210 659V237Q210 140 256 97T388 53Q476 53 522 97T568 238V658L475 677V721H720V678L640 659V229Q640 117 571
52T372 -14ZM496 799Q471 799 455 815T439 855Q439 878 455 894T496 911Q521 911 537 895T553 855Q553 832 537 816T496 799ZM276 799Q251 799 235 815T219 855Q219 878 235 894T276 911Q301 911 317 895T333 855Q333 832 317 816T276 799Z" />
<glyph unicode="&#xdd;" glyph-name="Yacute" horiz-adv-x="663" d="M194 43L286 62V312L76 658L12 678V721H262V678L190 658L358 368H362L516 658L439 678V721H651V678L588 658L391 310V62L482 43V0H194V43ZM240 821L457 955L493 872L257 782L240 821Z" />
<glyph unicode="&#xde;" glyph-name="Thorn" horiz-adv-x="611" d="M33 43L126 62V658L33 678V721H334V678L231 658V574H325Q398 574 448 560T529 521T573 461T587 383Q587 332 569 295T519 233T443 198T346 186Q307 186 281 189T231 196V62L334 43V0H33V43ZM231
250Q253 246 276 244T330 242Q407 242 442 274T477 375Q477 448 445 480T336 513H231V250Z" />
<glyph unicode="&#xdf;" glyph-name="germandbls" horiz-adv-x="651" d="M430 -14Q392 -14 356 -7T294 11L286 124H337L363 56Q376 51 392 48T432 44Q476 44 501 62T526 119Q526 154 505 174T450 213L404 239Q385 250 367 261T336 287T314 319T306 364Q306 401
329 434T380 500T431 567T454 642Q454 688 428 714T350 741Q309 741 281 728T235 691T210 637T202 572V0H28V35L106 52V472H31V514L106 540V585Q106 630 123 668T173 736T250 781T349 798Q393 798 429 788T492 760T534 714T549 652Q549 608 524 571T469 501T414
442T389 395Q389 371 402 357T450 324L496 298Q519 285 540 271T578 240T603 199T613 145Q613 113 602 84T567 33T510 -1T430 -14Z" />
<glyph unicode="&#xe0;" glyph-name="agrave" horiz-adv-x="532" d="M215 484Q201 484 185 482T151 477L128 391H70V516Q85 521 107 526T156 535T209 541T262 544Q350 544 391 506T432 387V80Q432 55 445 50T483 44H516V8Q502 3 478 -3T424 -10Q392 -10 372 2T346
45H340Q318 22 284 4T197 -14Q161 -14 131 -3T79 27T45 74T33 136Q33 171 45 195T78 236T130 263T198 282L336 310V360Q336 391 332 414T316 453T279 476T215 484ZM232 51Q264 51 292 63T336 89V248L228 240Q173 236 153 212T132 146Q132 104 156 78T232 51ZM370
723L405 802L622 668L605 629L370 723Z" />
<glyph unicode="&#xe1;" glyph-name="aacute" horiz-adv-x="532" d="M215 484Q201 484 185 482T151 477L128 391H70V516Q85 521 107 526T156 535T209 541T262 544Q350 544 391 506T432 387V80Q432 55 445 50T483 44H516V8Q502 3 478 -3T424 -10Q392 -10 372 2T346
45H340Q318 22 284 4T197 -14Q161 -14 131 -3T79 27T45 74T33 136Q33 171 45 195T78 236T130 263T198 282L336 310V360Q336 391 332 414T316 453T279 476T215 484ZM232 51Q264 51 292 63T336 89V248L228 240Q173 236 153 212T132 146Q132 104 156 78T232 51ZM137
668L354 802L389 723L154 629L137 668Z" />
<glyph unicode="&#xe2;" glyph-name="acircumflex" horiz-adv-x="532" d="M215 484Q201 484 185 482T151 477L128 391H70V516Q85 521 107 526T156 535T209 541T262 544Q350 544 391 506T432 387V80Q432 55 445 50T483 44H516V8Q502 3 478 -3T424 -10Q392 -10 372
2T346 45H340Q318 22 284 4T197 -14Q161 -14 131 -3T79 27T45 74T33 136Q33 171 45 195T78 236T130 263T198 282L336 310V360Q336 391 332 414T316 453T279 476T215 484ZM232 51Q264 51 292 63T336 89V248L228 240Q173 236 153 212T132 146Q132 104 156 78T232
51ZM93 660L228 806H277L412 660L390 630L252 726L115 630L93 660Z" />
<glyph unicode="&#xe3;" glyph-name="atilde" horiz-adv-x="532" d="M215 484Q201 484 185 482T151 477L128 391H70V516Q85 521 107 526T156 535T209 541T262 544Q350 544 391 506T432 387V80Q432 55 445 50T483 44H516V8Q502 3 478 -3T424 -10Q392 -10 372 2T346
45H340Q318 22 284 4T197 -14Q161 -14 131 -3T79 27T45 74T33 136Q33 171 45 195T78 236T130 263T198 282L336 310V360Q336 391 332 414T316 453T279 476T215 484ZM232 51Q264 51 292 63T336 89V248L228 240Q173 236 153 212T132 146Q132 104 156 78T232 51ZM327
664Q371 769 440 769Q457 769 475 763T511 748T543 733T570 726Q586 726 602 736T637 779L679 760Q634 653 566 653Q549 653 531 659T495 674T463 689T436 696Q420 696 404 687T369 645L327 664Z" />
<glyph unicode="&#xe4;" glyph-name="adieresis" horiz-adv-x="532" d="M215 484Q201 484 185 482T151 477L128 391H70V516Q85 521 107 526T156 535T209 541T262 544Q350 544 391 506T432 387V80Q432 55 445 50T483 44H516V8Q502 3 478 -3T424 -10Q392 -10 372
2T346 45H340Q318 22 284 4T197 -14Q161 -14 131 -3T79 27T45 74T33 136Q33 171 45 195T78 236T130 263T198 282L336 310V360Q336 391 332 414T316 453T279 476T215 484ZM232 51Q264 51 292 63T336 89V248L228 240Q173 236 153 212T132 146Q132 104 156 78T232
51ZM357 646Q332 646 316 662T300 702Q300 725 316 741T357 758Q382 758 398 742T414 702Q414 679 398 663T357 646ZM147 646Q122 646 106 662T90 702Q90 725 106 741T147 758Q172 758 188 742T204 702Q204 679 188 663T147 646Z" />
<glyph unicode="&#xe5;" glyph-name="aring" horiz-adv-x="532" d="M215 484Q201 484 185 482T151 477L128 391H70V516Q85 521 107 526T156 535T209 541T262 544Q350 544 391 506T432 387V80Q432 55 445 50T483 44H516V8Q502 3 478 -3T424 -10Q392 -10 372 2T346
45H340Q318 22 284 4T197 -14Q161 -14 131 -3T79 27T45 74T33 136Q33 171 45 195T78 236T130 263T198 282L336 310V360Q336 391 332 414T316 453T279 476T215 484ZM232 51Q264 51 292 63T336 89V248L228 240Q173 236 153 212T132 146Q132 104 156 78T232 51ZM253
616Q227 616 204 625T164 651T138 688T128 735Q128 759 137 780T164 818T204 843T253 853Q279 853 301 844T340 818T366 781T376 735Q376 710 367 689T341 651T302 626T253 616ZM253 660Q286 660 305 680T325 735Q325 769 306 789T253 809Q220 809 200 789T180
735Q180 700 200 680T253 660Z" />
<glyph unicode="&#xe6;" glyph-name="ae" horiz-adv-x="835" d="M597 -12Q522 -12 472 12T390 78Q376 60 356 44T311 14T258 -6T200 -14Q164 -14 134 -3T81 27T46 74T33 136Q33 171 45 195T80 236T133 263T201 282L342 308V360Q342 391 338 414T320 453T283 476T218
484Q189 484 151 476L128 391H70V505Q85 512 108 519T157 531T212 540T265 544Q325 544 361 524T412 462Q441 502 484 523T581 544Q640 544 681 525T748 469T786 380T798 263H437Q441 160 487 108T617 55Q646 55 668 58T709 65T743 76T774 89V42Q748 24 706 6T597
-12ZM369 114Q355 143 348 176T338 247L231 240Q176 236 154 212T132 146Q132 104 157 78T235 51Q267 51 300 66T369 114ZM689 315Q689 408 661 448T575 488Q512 488 478 447T437 315H689Z" />
<glyph unicode="&#xe7;" glyph-name="ccedilla" horiz-adv-x="499" d="M161 -204Q206 -201 233 -196T277 -183T298 -167T304 -148Q304 -130 283 -122T213 -114V-1Q128 22 84 90T39 262Q39 338 61 391T122 479T212 528T321 544Q359 544 395 539T461 523V389H406L385
477Q372 482 357 484T309 487Q230 487 184 435T138 274Q138 212 152 171T192 104T252 67T326 56Q381 56 416 65T471 83V35Q445 17 404 3T299 -12Q289 -12 280 -12T262 -10V-67Q390 -71 390 -142Q390 -162 381 -179T347 -209T277 -231T161 -242V-204Z" />
<glyph unicode="&#xe8;" glyph-name="egrave" horiz-adv-x="542" d="M301 -12Q232 -12 183 9T101 67T54 157T39 271Q39 335 58 385T111 471T189 525T285 544Q344 544 385 525T453 469T492 380T505 263H138Q142 160 189 108T321 55Q379 55 415 65T481 89V42Q455
24 412 6T301 -12ZM396 315Q396 408 367 448T279 488Q216 488 180 447T138 315H396ZM148 723L183 802L400 668L383 629L148 723Z" />
<glyph unicode="&#xe9;" glyph-name="eacute" horiz-adv-x="542" d="M301 -12Q232 -12 183 9T101 67T54 157T39 271Q39 335 58 385T111 471T189 525T285 544Q344 544 385 525T453 469T492 380T505 263H138Q142 160 189 108T321 55Q379 55 415 65T481 89V42Q455
24 412 6T301 -12ZM396 315Q396 408 367 448T279 488Q216 488 180 447T138 315H396ZM170 668L387 802L422 723L187 629L170 668Z" />
<glyph unicode="&#xea;" glyph-name="ecircumflex" horiz-adv-x="542" d="M301 -12Q232 -12 183 9T101 67T54 157T39 271Q39 335 58 385T111 471T189 525T285 544Q344 544 385 525T453 469T492 380T505 263H138Q142 160 189 108T321 55Q379 55 415 65T481 89V42Q455
24 412 6T301 -12ZM396 315Q396 408 367 448T279 488Q216 488 180 447T138 315H396ZM126 660L261 806H310L445 660L423 630L285 726L148 630L126 660Z" />
<glyph unicode="&#xeb;" glyph-name="edieresis" horiz-adv-x="542" d="M301 -12Q232 -12 183 9T101 67T54 157T39 271Q39 335 58 385T111 471T189 525T285 544Q344 544 385 525T453 469T492 380T505 263H138Q142 160 189 108T321 55Q379 55 415 65T481 89V42Q455
24 412 6T301 -12ZM396 315Q396 408 367 448T279 488Q216 488 180 447T138 315H396ZM390 646Q365 646 349 662T333 702Q333 725 349 741T390 758Q415 758 431 742T447 702Q447 679 431 663T390 646ZM180 646Q155 646 139 662T123 702Q123 725 139 741T180 758Q205
758 221 742T237 702Q237 679 221 663T180 646Z" />
<glyph unicode="&#xec;" glyph-name="igrave" horiz-adv-x="307" d="M28 35L106 52V461L22 477V517L191 542L202 536V52L281 35V0H28V35ZM261 723L296 802L513 668L496 629L261 723Z" />
<glyph unicode="&#xed;" glyph-name="iacute" horiz-adv-x="307" d="M28 35L106 52V461L22 477V517L191 542L202 536V52L281 35V0H28V35ZM292 668L509 802L544 723L309 629L292 668Z" />
<glyph unicode="&#xee;" glyph-name="icircumflex" horiz-adv-x="307" d="M28 35L106 52V461L22 477V517L191 542L202 536V52L281 35V0H28V35ZM249 660L384 806H433L568 660L546 630L408 726L271 630L249 660Z" />
<glyph unicode="&#xef;" glyph-name="idieresis" horiz-adv-x="307" d="M28 35L106 52V461L22 477V517L191 542L202 536V52L281 35V0H28V35ZM506 646Q481 646 465 662T449 702Q449 725 465 741T506 758Q531 758 547 742T563 702Q563 679 547 663T506 646ZM296
646Q271 646 255 662T239 702Q239 725 255 741T296 758Q321 758 337 742T353 702Q353 679 337 663T296 646Z" />
<glyph unicode="&#xf0;" glyph-name="eth" horiz-adv-x="593" d="M405 512Q362 589 292 650L122 576L104 619L252 683Q226 703 198 721T138 757L162 798Q254 764 327 716L482 784L500 741L371 684Q411 652 443 613T499 526T534 422T547 300Q547 222 528 164T474
66T393 6T294 -14Q236 -14 189 6T109 62T57 149T39 263Q39 326 57 378T108 466T185 523T281 544Q319 544 347 535T398 512H405ZM448 281Q448 330 443 369T428 443Q405 460 372 473T294 486Q261 486 233 476T183 440T151 374T139 270Q139 207 152 164T187 94T237
56T295 44Q325 44 352 54T401 90T435 162T448 281Z" />
<glyph unicode="&#xf1;" glyph-name="ntilde" horiz-adv-x="636" d="M27 35L106 52V461L27 477V517L186 542L197 536V489H203Q243 512 289 528T384 544Q459 544 497 512T535 401V52L614 35V0H362V35L439 52V376Q439 431 411 450T326 470Q293 470 263 464T202 446V52L279
35V0H27V35ZM124 664Q168 769 237 769Q254 769 272 763T308 748T340 733T367 726Q383 726 399 736T434 779L476 760Q431 653 363 653Q346 653 328 659T292 674T260 689T233 696Q217 696 201 687T166 645L124 664Z" />
<glyph unicode="&#xf2;" glyph-name="ograve" horiz-adv-x="593" d="M298 -14Q240 -14 192 6T110 62T58 149T39 263Q39 326 59 378T114 466T195 523T295 544Q353 544 400 525T482 469T535 382T554 268Q554 205 534 154T479 65T398 7T298 -14ZM299 44Q329 44 356
54T405 90T440 157T453 260Q453 324 440 367T404 437T353 475T294 487Q264 487 237 477T187 441T152 374T139 270Q139 207 152 164T188 94T240 56T299 44ZM159 723L194 802L411 668L394 629L159 723Z" />
<glyph unicode="&#xf3;" glyph-name="oacute" horiz-adv-x="593" d="M298 -14Q240 -14 192 6T110 62T58 149T39 263Q39 326 59 378T114 466T195 523T295 544Q353 544 400 525T482 469T535 382T554 268Q554 205 534 154T479 65T398 7T298 -14ZM299 44Q329 44 356
54T405 90T440 157T453 260Q453 324 440 367T404 437T353 475T294 487Q264 487 237 477T187 441T152 374T139 270Q139 207 152 164T188 94T240 56T299 44ZM181 668L398 802L433 723L198 629L181 668Z" />
<glyph unicode="&#xf4;" glyph-name="ocircumflex" horiz-adv-x="593" d="M298 -14Q240 -14 192 6T110 62T58 149T39 263Q39 326 59 378T114 466T195 523T295 544Q353 544 400 525T482 469T535 382T554 268Q554 205 534 154T479 65T398 7T298 -14ZM299 44Q329
44 356 54T405 90T440 157T453 260Q453 324 440 367T404 437T353 475T294 487Q264 487 237 477T187 441T152 374T139 270Q139 207 152 164T188 94T240 56T299 44ZM138 660L273 806H322L457 660L435 630L297 726L160 630L138 660Z" />
<glyph unicode="&#xf5;" glyph-name="otilde" horiz-adv-x="593" d="M298 -14Q240 -14 192 6T110 62T58 149T39 263Q39 326 59 378T114 466T195 523T295 544Q353 544 400 525T482 469T535 382T554 268Q554 205 534 154T479 65T398 7T298 -14ZM299 44Q329 44 356
54T405 90T440 157T453 260Q453 324 440 367T404 437T353 475T294 487Q264 487 237 477T187 441T152 374T139 270Q139 207 152 164T188 94T240 56T299 44ZM120 664Q164 769 233 769Q250 769 268 763T304 748T336 733T363 726Q379 726 395 736T430 779L472 760Q427
653 359 653Q342 653 324 659T288 674T256 689T229 696Q213 696 197 687T162 645L120 664Z" />
<glyph unicode="&#xf6;" glyph-name="odieresis" horiz-adv-x="593" d="M298 -14Q240 -14 192 6T110 62T58 149T39 263Q39 326 59 378T114 466T195 523T295 544Q353 544 400 525T482 469T535 382T554 268Q554 205 534 154T479 65T398 7T298 -14ZM299 44Q329 44
356 54T405 90T440 157T453 260Q453 324 440 367T404 437T353 475T294 487Q264 487 237 477T187 441T152 374T139 270Q139 207 152 164T188 94T240 56T299 44ZM402 646Q377 646 361 662T345 702Q345 725 361 741T402 758Q427 758 443 742T459 702Q459 679 443 663T402
646ZM192 646Q167 646 151 662T135 702Q135 725 151 741T192 758Q217 758 233 742T249 702Q249 679 233 663T192 646Z" />
<glyph unicode="&#xf7;" glyph-name="divide" horiz-adv-x="600" d="M65 357H536V292H65V357ZM299 60Q272 60 253 79T234 124Q234 151 253 169T299 188Q326 188 346 170T366 124Q366 99 346 80T299 60ZM299 461Q272 461 253 480T234 524Q234 551 253 569T299 588Q326
588 346 570T366 524Q366 499 346 480T299 461Z" />
<glyph unicode="&#xf8;" glyph-name="oslash" horiz-adv-x="593" d="M90 86Q39 157 39 263Q39 326 59 378T114 466T195 523T295 544Q343 544 383 531T456 492L522 566L565 531L495 454Q524 419 539 372T554 268Q554 205 534 154T479 65T398 7T298 -14Q247 -14
204 1T128 44L58 -34L14 1L90 86ZM299 44Q329 44 357 54T406 90T441 157T455 260Q455 300 450 331T437 388L177 99Q199 70 230 57T299 44ZM137 270Q137 202 151 154L408 440Q387 465 358 476T294 487Q264 487 236 477T186 441T151 374T137 270Z" />
<glyph unicode="&#xf9;" glyph-name="ugrave" horiz-adv-x="636" d="M250 -10Q168 -10 132 32T96 146V468L17 485V524L180 541L192 535V170Q192 114 212 86T296 58Q345 58 375 68T428 88V468L351 485V524L513 541L525 535V66L603 49V14L446 -10L434 -5V53H428Q395
24 351 7T250 -10ZM169 723L204 802L421 668L404 629L169 723Z" />
<glyph unicode="&#xfa;" glyph-name="uacute" horiz-adv-x="636" d="M250 -10Q168 -10 132 32T96 146V468L17 485V524L180 541L192 535V170Q192 114 212 86T296 58Q345 58 375 68T428 88V468L351 485V524L513 541L525 535V66L603 49V14L446 -10L434 -5V53H428Q395
24 351 7T250 -10ZM199 668L416 802L451 723L216 629L199 668Z" />
<glyph unicode="&#xfb;" glyph-name="ucircumflex" horiz-adv-x="636" d="M250 -10Q168 -10 132 32T96 146V468L17 485V524L180 541L192 535V170Q192 114 212 86T296 58Q345 58 375 68T428 88V468L351 485V524L513 541L525 535V66L603 49V14L446 -10L434 -5V53H428Q395
24 351 7T250 -10ZM145 660L280 806H329L464 660L442 630L304 726L167 630L145 660Z" />
<glyph unicode="&#xfc;" glyph-name="udieresis" horiz-adv-x="636" d="M250 -10Q168 -10 132 32T96 146V468L17 485V524L180 541L192 535V170Q192 114 212 86T296 58Q345 58 375 68T428 88V468L351 485V524L513 541L525 535V66L603 49V14L446 -10L434 -5V53H428Q395
24 351 7T250 -10ZM411 646Q386 646 370 662T354 702Q354 725 370 741T411 758Q436 758 452 742T468 702Q468 679 452 663T411 646ZM201 646Q176 646 160 662T144 702Q144 725 160 741T201 758Q226 758 242 742T258 702Q258 679 242 663T201 646Z" />
<glyph unicode="&#xfd;" glyph-name="yacute" horiz-adv-x="577" d="M141 -217Q115 -217 94 -210T59 -191V-137Q77 -141 88 -143T114 -146Q160 -146 186 -128T233 -59L264 15L69 480L10 496V534H246V496L175 482L267 246Q275 226 282 202T294 156Q300 130 306
105H311Q318 129 325 155Q331 176 338 201T353 246L434 480L366 496V534H567V496L508 480L295 -79Q268 -150 234 -183T141 -217ZM194 668L411 802L446 723L211 629L194 668Z" />
<glyph unicode="&#xfe;" glyph-name="thorn" horiz-adv-x="607" d="M13 -182L91 -167V715L11 731V771L175 795L187 790V490H194Q225 512 262 528T356 544Q394 544 431 533T498 493T546 414T564 287Q564 213 544 157T488 64T400 7T287 -12Q255 -12 233 -10T188
-3V-165L279 -182V-217H13V-182ZM299 43Q336 43 366 54T419 91T453 161T465 268Q465 324 454 362T423 425T373 459T306 470Q269 470 237 461T187 444V75Q204 64 228 54T299 43Z" />
<glyph unicode="&#xff;" glyph-name="ydieresis" horiz-adv-x="577" d="M141 -217Q115 -217 94 -210T59 -191V-137Q77 -141 88 -143T114 -146Q160 -146 186 -128T233 -59L264 15L69 480L10 496V534H246V496L175 482L267 246Q275 226 282 202T294 156Q300 130 306
105H311Q318 129 325 155Q331 176 338 201T353 246L434 480L366 496V534H567V496L508 480L295 -79Q268 -150 234 -183T141 -217ZM415 646Q390 646 374 662T358 702Q358 725 374 741T415 758Q440 758 456 742T472 702Q472 679 456 663T415 646ZM205 646Q180 646
164 662T148 702Q148 725 164 741T205 758Q230 758 246 742T262 702Q262 679 246 663T205 646Z" />
<glyph unicode="&#x100;" glyph-name="Amacron" horiz-adv-x="708" d="M9 44L82 62L315 721H401L627 62L699 44V0H430V43L513 62L459 228H212L155 62L239 43V0H9V44ZM230 281H442L384 461Q376 484 369 512T356 564Q349 592 343 620H338Q331 592 323 564Q316 540
308 512T292 461L230 281ZM205 877H502V813H205V877Z" />
<glyph unicode="&#x101;" glyph-name="amacron" horiz-adv-x="532" d="M215 484Q201 484 185 482T151 477L128 391H70V516Q85 521 107 526T156 535T209 541T262 544Q350 544 391 506T432 387V80Q432 55 445 50T483 44H516V8Q502 3 478 -3T424 -10Q392 -10 372
2T346 45H340Q318 22 284 4T197 -14Q161 -14 131 -3T79 27T45 74T33 136Q33 171 45 195T78 236T130 263T198 282L336 310V360Q336 391 332 414T316 453T279 476T215 484ZM232 51Q264 51 292 63T336 89V248L228 240Q173 236 153 212T132 146Q132 104 156 78T232
51ZM365 729H642V665H365V729Z" />
<glyph unicode="&#x102;" glyph-name="Abreve" horiz-adv-x="708" d="M9 44L82 62L315 721H401L627 62L699 44V0H430V43L513 62L459 228H212L155 62L239 43V0H9V44ZM230 281H442L384 461Q376 484 369 512T356 564Q349 592 343 620H338Q331 592 323 564Q316 540
308 512T292 461L230 281ZM355 796Q322 796 295 806T247 835T216 877T203 928H262Q270 897 292 880T355 863Q396 863 417 880T448 928H507Q504 901 493 877T462 835T415 807T355 796Z" />
<glyph unicode="&#x103;" glyph-name="abreve" horiz-adv-x="532" d="M215 484Q201 484 185 482T151 477L128 391H70V516Q85 521 107 526T156 535T209 541T262 544Q350 544 391 506T432 387V80Q432 55 445 50T483 44H516V8Q502 3 478 -3T424 -10Q392 -10 372 2T346
45H340Q318 22 284 4T197 -14Q161 -14 131 -3T79 27T45 74T33 136Q33 171 45 195T78 236T130 263T198 282L336 310V360Q336 391 332 414T316 453T279 476T215 484ZM232 51Q264 51 292 63T336 89V248L228 240Q173 236 153 212T132 146Q132 104 156 78T232 51ZM502
643Q435 643 394 682T350 786H409Q425 710 502 710Q543 710 564 728T595 786H654Q649 722 609 683T502 643Z" />
<glyph unicode="&#x104;" glyph-name="Aogonek" horiz-adv-x="708" d="M491 -222Q437 -222 407 -197T377 -131Q377 -81 418 -42T524 27L459 228H212L155 62L239 43V0H9V44L82 62L315 721H401L627 62L699 44V0H623Q582 0 553 -11T506 -40T480 -78T472 -117Q472
-140 486 -156T535 -172H560V-209Q547 -214 531 -218T491 -222ZM230 281H442L384 461Q376 484 369 512T356 564Q349 592 343 620H338Q331 592 323 564Q316 540 308 512T292 461L230 281Z" />
<glyph unicode="&#x105;" glyph-name="aogonek" horiz-adv-x="532" d="M419 -222Q365 -222 335 -197T305 -131Q305 -93 337 -61T419 -8Q387 -6 369 6T346 45H340Q318 22 284 4T197 -14Q161 -14 131 -3T79 27T45 74T33 136Q33 171 45 195T78 236T130 263T198 282L336
310V360Q336 391 332 414T316 453T279 476T215 484Q201 484 185 482T151 477L128 391H70V516Q85 521 107 526T156 535T209 541T262 544Q350 544 391 506T432 387V80Q432 55 445 50T483 44H516V8Q463 -12 432 -45T400 -117Q400 -140 414 -156T463 -172H488V-209Q475
-214 459 -218T419 -222ZM232 51Q264 51 292 63T336 89V248L228 240Q173 236 153 212T132 146Q132 104 156 78T232 51Z" />
<glyph unicode="&#x106;" glyph-name="Cacute" horiz-adv-x="658" d="M381 -12Q305 -12 243 8T136 71T67 184T42 352Q42 460 72 533T151 650T265 714T398 733Q464 733 514 725T598 706L603 530H555L512 649Q492 657 458 666T385 675Q268 675 211 595T153 372Q153
214 209 131T396 47Q434 47 463 55T516 76L559 205H610L603 24Q564 7 512 -2T381 -12ZM264 821L481 955L517 872L281 782L264 821Z" />
<glyph unicode="&#x107;" glyph-name="cacute" horiz-adv-x="499" d="M299 -12Q236 -12 188 7T106 62T56 148T39 262Q39 338 61 391T122 479T212 528T321 544Q359 544 395 539T461 523V389H406L385 477Q372 482 357 484T309 487Q230 487 184 435T138 274Q138 212
152 171T192 104T252 67T326 56Q381 56 416 65T471 83V35Q445 17 404 3T299 -12ZM176 668L393 802L428 723L193 629L176 668Z" />
<glyph unicode="&#x108;" glyph-name="Ccircumflex" horiz-adv-x="658" d="M381 -12Q305 -12 243 8T136 71T67 184T42 352Q42 460 72 533T151 650T265 714T398 733Q464 733 514 725T598 706L603 530H555L512 649Q492 657 458 666T385 675Q268 675 211 595T153
372Q153 214 209 131T396 47Q434 47 463 55T516 76L559 205H610L603 24Q564 7 512 -2T381 -12ZM220 818L355 947H404L539 818L520 788L380 867L239 788L220 818Z" />
<glyph unicode="&#x109;" glyph-name="ccircumflex" horiz-adv-x="499" d="M299 -12Q236 -12 188 7T106 62T56 148T39 262Q39 338 61 391T122 479T212 528T321 544Q359 544 395 539T461 523V389H406L385 477Q372 482 357 484T309 487Q230 487 184 435T138 274Q138
212 152 171T192 104T252 67T326 56Q381 56 416 65T471 83V35Q445 17 404 3T299 -12ZM133 660L268 806H317L452 660L430 630L292 726L155 630L133 660Z" />
<glyph unicode="&#x10a;" glyph-name="Cdotaccent" horiz-adv-x="658" d="M381 -12Q305 -12 243 8T136 71T67 184T42 352Q42 460 72 533T151 650T265 714T398 733Q464 733 514 725T598 706L603 530H555L512 649Q492 657 458 666T385 675Q268 675 211 595T153 372Q153
214 209 131T396 47Q434 47 463 55T516 76L559 205H610L603 24Q564 7 512 -2T381 -12ZM377 799Q351 799 333 817T314 860Q314 886 332 904T377 922Q403 922 421 904T440 860Q440 836 422 818T377 799Z" />
<glyph unicode="&#x10b;" glyph-name="cdotaccent" horiz-adv-x="499" d="M299 -12Q236 -12 188 7T106 62T56 148T39 262Q39 338 61 391T122 479T212 528T321 544Q359 544 395 539T461 523V389H406L385 477Q372 482 357 484T309 487Q230 487 184 435T138 274Q138
212 152 171T192 104T252 67T326 56Q381 56 416 65T471 83V35Q445 17 404 3T299 -12ZM290 646Q264 646 246 664T227 707Q227 733 245 751T290 769Q316 769 334 751T353 707Q353 683 335 665T290 646Z" />
<glyph unicode="&#x10c;" glyph-name="Ccaron" horiz-adv-x="658" d="M381 -12Q305 -12 243 8T136 71T67 184T42 352Q42 460 72 533T151 650T265 714T398 733Q464 733 514 725T598 706L603 530H555L512 649Q492 657 458 666T385 675Q268 675 211 595T153 372Q153
214 209 131T396 47Q434 47 463 55T516 76L559 205H610L603 24Q564 7 512 -2T381 -12ZM539 925L404 796H355L220 925L239 955L379 876L520 955L539 925Z" />
<glyph unicode="&#x10d;" glyph-name="ccaron" horiz-adv-x="499" d="M299 -12Q236 -12 188 7T106 62T56 148T39 262Q39 338 61 391T122 479T212 528T321 544Q359 544 395 539T461 523V389H406L385 477Q372 482 357 484T309 487Q230 487 184 435T138 274Q138 212
152 171T192 104T252 67T326 56Q381 56 416 65T471 83V35Q445 17 404 3T299 -12ZM131 774L153 804L291 708L428 804L450 774L315 628H266L131 774Z" />
<glyph unicode="&#x10e;" glyph-name="Dcaron" horiz-adv-x="729" d="M33 43L127 62V658L34 678V721H324Q423 721 492 698T605 632T669 525T689 379Q689 196 604 98T336 0H33V43ZM338 57Q397 57 441 72T516 122T561 217T576 363Q576 463 558 522T506 613T423 654T309
664H232V57H338ZM514 925L379 796H330L195 925L214 955L354 876L495 955L514 925Z" />
<glyph unicode="&#x10f;" glyph-name="dcaron" horiz-adv-x="627" d="M272 -12Q234 -12 194 0T120 43T66 125T44 254Q44 328 64 382T120 473T207 526T320 544Q352 544 374 540T420 529V715L334 731V771L504 795L516 789V66L595 49V14L438 -10L426 -5V49H420Q398
23 362 6T272 -12ZM301 60Q338 60 370 70T420 90V454Q403 466 379 477T308 488Q272 488 242 478T189 442T155 373T143 266Q143 155 184 108T301 60ZM582 595Q585 616 587 641T591 692T594 744T596 791H693Q690 765 684 738T669 685T652 636T633 595H582Z" />
<glyph unicode="&#x110;" glyph-name="Dcroat" horiz-adv-x="729" d="M42 393H127V658L34 678V721H324Q423 721 492 698T605 632T669 525T689 379Q689 196 604 98T336 0H33V43L127 62V332H42V393ZM338 57Q397 57 441 72T516 122T561 217T576 363Q576 463 558 522T506
613T423 654T309 664H232V393H420V332H232V57H338Z" />
<glyph unicode="&#x111;" glyph-name="dcroat" horiz-adv-x="627" d="M232 671H420V783L504 795L516 789V671H606V625H516V66L595 49V14L438 -10L426 -5V49H420Q398 23 362 6T272 -12Q234 -12 194 0T120 43T66 125T44 254Q44 328 64 382T120 473T207 526T320 544Q352
544 374 540T420 529V625H232V671ZM301 60Q338 60 370 70T420 90V454Q403 466 379 477T308 488Q272 488 242 478T189 442T155 373T143 266Q143 155 184 108T301 60Z" />
<glyph unicode="&#x112;" glyph-name="Emacron" horiz-adv-x="639" d="M33 43L127 62V658L34 678V721H574L586 542H535L490 664H232V398H370L399 497H444V245H399L370 345H232V57H501L557 208H608L594 0H33V43ZM190 877H487V813H190V877Z" />
<glyph unicode="&#x113;" glyph-name="emacron" horiz-adv-x="542" d="M301 -12Q232 -12 183 9T101 67T54 157T39 271Q39 335 58 385T111 471T189 525T285 544Q344 544 385 525T453 469T492 380T505 263H138Q142 160 189 108T321 55Q379 55 415 65T481 89V42Q455
24 412 6T301 -12ZM396 315Q396 408 367 448T279 488Q216 488 180 447T138 315H396ZM147 729H424V665H147V729Z" />
<glyph unicode="&#x114;" glyph-name="Ebreve" horiz-adv-x="639" d="M33 43L127 62V658L34 678V721H574L586 542H535L490 664H232V398H370L399 497H444V245H399L370 345H232V57H501L557 208H608L594 0H33V43ZM341 796Q308 796 281 806T233 835T202 877T189 928H248Q256
897 278 880T341 863Q382 863 403 880T434 928H493Q490 901 479 877T448 835T401 807T341 796Z" />
<glyph unicode="&#x115;" glyph-name="ebreve" horiz-adv-x="542" d="M301 -12Q232 -12 183 9T101 67T54 157T39 271Q39 335 58 385T111 471T189 525T285 544Q344 544 385 525T453 469T492 380T505 263H138Q142 160 189 108T321 55Q379 55 415 65T481 89V42Q455
24 412 6T301 -12ZM396 315Q396 408 367 448T279 488Q216 488 180 447T138 315H396ZM283 643Q216 643 175 682T131 786H190Q206 710 283 710Q324 710 345 728T376 786H435Q430 722 390 683T283 643Z" />
<glyph unicode="&#x116;" glyph-name="Edotaccent" horiz-adv-x="639" d="M33 43L127 62V658L34 678V721H574L586 542H535L490 664H232V398H370L399 497H444V245H399L370 345H232V57H501L557 208H608L594 0H33V43ZM340 799Q314 799 296 817T277 860Q277 886 295
904T340 922Q366 922 384 904T403 860Q403 836 385 818T340 799Z" />
<glyph unicode="&#x117;" glyph-name="edotaccent" horiz-adv-x="542" d="M301 -12Q232 -12 183 9T101 67T54 157T39 271Q39 335 58 385T111 471T189 525T285 544Q344 544 385 525T453 469T492 380T505 263H138Q142 160 189 108T321 55Q379 55 415 65T481 89V42Q455
24 412 6T301 -12ZM396 315Q396 408 367 448T279 488Q216 488 180 447T138 315H396ZM284 646Q258 646 240 664T221 707Q221 733 239 751T284 769Q310 769 328 751T347 707Q347 683 329 665T284 646Z" />
<glyph unicode="&#x118;" glyph-name="Eogonek" horiz-adv-x="639" d="M33 43L127 62V658L34 678V721H574L586 542H535L490 664H232V398H370L399 497H444V245H399L370 345H232V57H501L557 208H608L594 0H536Q494 -35 475 -60T456 -117Q456 -140 470 -156T519 -172H544V-209Q531
-214 515 -218T475 -222Q421 -222 391 -197T361 -131Q361 -112 370 -93T394 -57T429 -26T472 0H33V43Z" />
<glyph unicode="&#x119;" glyph-name="eogonek" horiz-adv-x="542" d="M371 -222Q317 -222 287 -197T257 -131Q257 -92 290 -59T370 -5Q355 -8 338 -10T301 -12Q232 -12 183 9T101 67T54 157T39 271Q39 335 58 385T111 471T189 525T285 544Q344 544 385 525T453
469T492 380T505 263H138Q142 160 189 108T321 55Q379 55 415 65T481 89V42Q464 31 442 14T400 -23T366 -68T352 -117Q352 -140 366 -156T415 -172H440V-209Q427 -214 411 -218T371 -222ZM396 315Q396 408 367 448T279 488Q216 488 180 447T138 315H396Z" />
<glyph unicode="&#x11a;" glyph-name="Ecaron" horiz-adv-x="639" d="M33 43L127 62V658L34 678V721H574L586 542H535L490 664H232V398H370L399 497H444V245H399L370 345H232V57H501L557 208H608L594 0H33V43ZM501 925L366 796H317L182 925L201 955L341 876L482
955L501 925Z" />
<glyph unicode="&#x11b;" glyph-name="ecaron" horiz-adv-x="542" d="M301 -12Q232 -12 183 9T101 67T54 157T39 271Q39 335 58 385T111 471T189 525T285 544Q344 544 385 525T453 469T492 380T505 263H138Q142 160 189 108T321 55Q379 55 415 65T481 89V42Q455
24 412 6T301 -12ZM396 315Q396 408 367 448T279 488Q216 488 180 447T138 315H396ZM124 774L146 804L284 708L421 804L443 774L308 628H259L124 774Z" />
<glyph unicode="&#x11c;" glyph-name="Gcircumflex" horiz-adv-x="717" d="M404 -14Q319 -14 252 6T139 71T67 184T42 352Q42 460 73 533T155 650T271 714T404 733Q475 733 526 726T612 707L620 529H572L528 647Q504 660 471 667T393 675Q273 675 213 596T153
372Q153 293 166 233T209 131T285 68T397 47Q435 47 463 52T512 66V267L416 285V328H695V285L617 267V19Q572 3 519 -5T404 -14ZM230 818L365 947H414L549 818L530 788L390 867L249 788L230 818Z" />
<glyph unicode="&#x11d;" glyph-name="gcircumflex" horiz-adv-x="554" d="M240 -224Q180 -224 138 -213T69 -183T30 -142T18 -96Q18 -55 46 -24T129 29V35Q103 44 88 63T72 108Q72 137 88 168T135 227Q95 246 73 280T50 366Q50 410 66 443T111 498T176 532T256
544Q285 544 311 540T360 525L540 547V476L415 482V478Q438 458 450 436T462 377Q462 333 446 300T401 245T336 211T255 200Q208 200 172 210Q159 196 153 175T146 142Q146 128 157 116T196 104H369Q401 104 430 98T482 78T518 38T531 -25Q531 -66 512 -102T456
-165T365 -208T240 -224ZM249 -165Q299 -165 336 -156T397 -131T434 -95T446 -51Q446 -14 422 1T353 17H189Q148 2 129 -23T109 -81Q109 -119 142 -142T249 -165ZM255 251Q306 251 336 280T367 371Q367 435 335 464T255 494Q205 494 175 464T145 373Q145 308 176
280T255 251ZM122 660L257 806H306L441 660L419 630L281 726L144 630L122 660Z" />
<glyph unicode="&#x11e;" glyph-name="Gbreve" horiz-adv-x="717" d="M404 -14Q319 -14 252 6T139 71T67 184T42 352Q42 460 73 533T155 650T271 714T404 733Q475 733 526 726T612 707L620 529H572L528 647Q504 660 471 667T393 675Q273 675 213 596T153 372Q153
293 166 233T209 131T285 68T397 47Q435 47 463 52T512 66V267L416 285V328H695V285L617 267V19Q572 3 519 -5T404 -14ZM386 796Q353 796 326 806T278 835T247 877T234 928H293Q301 897 323 880T386 863Q427 863 448 880T479 928H538Q535 901 524 877T493 835T446
807T386 796Z" />
<glyph unicode="&#x11f;" glyph-name="gbreve" horiz-adv-x="554" d="M240 -224Q180 -224 138 -213T69 -183T30 -142T18 -96Q18 -55 46 -24T129 29V35Q103 44 88 63T72 108Q72 137 88 168T135 227Q95 246 73 280T50 366Q50 410 66 443T111 498T176 532T256 544Q285
544 311 540T360 525L540 547V476L415 482V478Q438 458 450 436T462 377Q462 333 446 300T401 245T336 211T255 200Q208 200 172 210Q159 196 153 175T146 142Q146 128 157 116T196 104H369Q401 104 430 98T482 78T518 38T531 -25Q531 -66 512 -102T456 -165T365
-208T240 -224ZM249 -165Q299 -165 336 -156T397 -131T434 -95T446 -51Q446 -14 422 1T353 17H189Q148 2 129 -23T109 -81Q109 -119 142 -142T249 -165ZM255 251Q306 251 336 280T367 371Q367 435 335 464T255 494Q205 494 175 464T145 373Q145 308 176 280T255
251ZM281 643Q214 643 173 682T129 786H188Q204 710 281 710Q322 710 343 728T374 786H433Q428 722 388 683T281 643Z" />
<glyph unicode="&#x120;" glyph-name="Gdotaccent" horiz-adv-x="717" d="M404 -14Q319 -14 252 6T139 71T67 184T42 352Q42 460 73 533T155 650T271 714T404 733Q475 733 526 726T612 707L620 529H572L528 647Q504 660 471 667T393 675Q273 675 213 596T153 372Q153
293 166 233T209 131T285 68T397 47Q435 47 463 52T512 66V267L416 285V328H695V285L617 267V19Q572 3 519 -5T404 -14ZM385 799Q359 799 341 817T322 860Q322 886 340 904T385 922Q411 922 429 904T448 860Q448 836 430 818T385 799Z" />
<glyph unicode="&#x121;" glyph-name="gdotaccent" horiz-adv-x="554" d="M240 -224Q180 -224 138 -213T69 -183T30 -142T18 -96Q18 -55 46 -24T129 29V35Q103 44 88 63T72 108Q72 137 88 168T135 227Q95 246 73 280T50 366Q50 410 66 443T111 498T176 532T256
544Q285 544 311 540T360 525L540 547V476L415 482V478Q438 458 450 436T462 377Q462 333 446 300T401 245T336 211T255 200Q208 200 172 210Q159 196 153 175T146 142Q146 128 157 116T196 104H369Q401 104 430 98T482 78T518 38T531 -25Q531 -66 512 -102T456
-165T365 -208T240 -224ZM249 -165Q299 -165 336 -156T397 -131T434 -95T446 -51Q446 -14 422 1T353 17H189Q148 2 129 -23T109 -81Q109 -119 142 -142T249 -165ZM255 251Q306 251 336 280T367 371Q367 435 335 464T255 494Q205 494 175 464T145 373Q145 308 176
280T255 251ZM281 646Q255 646 237 664T218 707Q218 733 236 751T281 769Q307 769 325 751T344 707Q344 683 326 665T281 646Z" />
<glyph unicode="&#x122;" glyph-name="Gcommaaccent" horiz-adv-x="717" d="M404 -14Q319 -14 252 6T139 71T67 184T42 352Q42 460 73 533T155 650T271 714T404 733Q475 733 526 726T612 707L620 529H572L528 647Q504 660 471 667T393 675Q273 675 213 596T153
372Q153 293 166 233T209 131T285 68T397 47Q435 47 463 52T512 66V267L416 285V328H695V285L617 267V19Q572 3 519 -5T404 -14ZM318 -237Q344 -232 360 -224T385 -206T397 -183T402 -158Q396 -164 389 -168T367 -172Q347 -172 334 -158T321 -121Q321 -96 339 -81T384
-66Q416 -66 437 -87T459 -148Q459 -166 455 -185T436 -223T396 -255T326 -276L318 -237Z" />
<glyph unicode="&#x123;" glyph-name="gcommaaccent" horiz-adv-x="554" d="M240 -224Q180 -224 138 -213T69 -183T30 -142T18 -96Q18 -55 46 -24T129 29V35Q103 44 88 63T72 108Q72 137 88 168T135 227Q95 246 73 280T50 366Q50 410 66 443T111 498T176 532T256
544Q285 544 311 540T360 525L540 547V476L415 482V478Q438 458 450 436T462 377Q462 333 446 300T401 245T336 211T255 200Q208 200 172 210Q159 196 153 175T146 142Q146 128 157 116T196 104H369Q401 104 430 98T482 78T518 38T531 -25Q531 -66 512 -102T456
-165T365 -208T240 -224ZM249 -165Q299 -165 336 -156T397 -131T434 -95T446 -51Q446 -14 422 1T353 17H189Q148 2 129 -23T109 -81Q109 -119 142 -142T249 -165ZM255 251Q306 251 336 280T367 371Q367 435 335 464T255 494Q205 494 175 464T145 373Q145 308 176
280T255 251ZM346 803Q320 798 304 790T279 772T267 749T262 724Q268 730 275 734T297 738Q317 738 330 724T343 687Q343 662 325 647T280 632Q248 632 227 653T205 714Q205 732 209 751T228 789T268 821T338 842L346 803Z" />
<glyph unicode="&#x124;" glyph-name="Hcircumflex" horiz-adv-x="785" d="M33 43L126 61V658L33 678V721H322V678L231 658V395H556V658L463 678V721H752V678L661 658V61L752 43V0H463V43L556 61V342H231V61L322 43V0H33V43ZM236 818L371 947H420L555 818L536
788L396 867L255 788L236 818Z" />
<glyph unicode="&#x125;" glyph-name="hcircumflex" horiz-adv-x="634" d="M27 35L106 52V715L27 731V771L190 795L202 789V492H208Q247 513 291 528T384 544Q459 544 497 512T535 401V52L614 35V0H362V35L439 52V376Q439 431 411 451T326 471Q293 471 263 464T202
446V52L279 35V0H27V35ZM163 878L298 1007H347L482 878L463 848L323 927L182 848L163 878Z" />
<glyph unicode="&#x126;" glyph-name="Hbar" horiz-adv-x="785" d="M17 556H126V658L33 678V721H322V678L231 658V556H556V658L463 678V721H752V678L661 658V556H768V506H661V61L752 43V0H463V43L556 61V342H231V61L322 43V0H33V43L126 61V506H17V556ZM556 395V506H231V395H556Z"
/>
<glyph unicode="&#x127;" glyph-name="hbar" horiz-adv-x="634" d="M6 671H106V783L190 795L202 789V671H390V625H202V492H208Q247 513 291 528T384 544Q459 544 497 512T535 401V52L614 35V0H362V35L439 52V376Q439 431 411 451T326 471Q293 471 263 464T202
446V52L279 35V0H27V35L106 52V625H6V671Z" />
<glyph unicode="&#x128;" glyph-name="Itilde" horiz-adv-x="354" d="M33 43L126 61V659L33 678V721H322V678L231 659V61L322 43V0H33V43ZM258 822Q302 927 371 927Q388 927 406 921T442 906T474 891T501 884Q517 884 533 894T568 937L610 918Q565 811 497 811Q480
811 462 817T426 832T394 847T367 854Q351 854 335 845T300 803L258 822Z" />
<glyph unicode="&#x129;" glyph-name="itilde" horiz-adv-x="307" d="M-23 664Q18 769 85 769Q101 769 118 763T151 748T182 733T207 726Q222 726 236 736T268 779L310 760Q268 653 203 653Q187 653 170 659T137 674T106 689T81 696Q66 696 52 687T19 645L-23
664ZM28 35L106 52V461L22 477V517L191 542L202 536V52L281 35V0H28V35Z" />
<glyph unicode="&#x12a;" glyph-name="Imacron" horiz-adv-x="354" d="M33 43L126 61V659L33 678V721H322V678L231 659V61L322 43V0H33V43ZM285 877H582V813H285V877Z" />
<glyph unicode="&#x12b;" glyph-name="imacron" horiz-adv-x="307" d="M14 729H261V665H14V729ZM28 35L106 52V461L22 477V517L191 542L202 536V52L281 35V0H28V35Z" />
<glyph unicode="&#x12c;" glyph-name="Ibreve" horiz-adv-x="354" d="M33 43L126 61V659L33 678V721H322V678L231 659V61L322 43V0H33V43ZM437 796Q404 796 377 806T329 835T298 877T285 928H344Q352 897 374 880T437 863Q478 863 499 880T530 928H589Q586 901
575 877T544 835T497 807T437 796Z" />
<glyph unicode="&#x12d;" glyph-name="ibreve" horiz-adv-x="307" d="M28 35L106 52V461L22 477V517L191 542L202 536V52L281 35V0H28V35ZM397 643Q330 643 289 682T245 786H304Q320 710 397 710Q438 710 459 728T490 786H549Q544 722 504 683T397 643Z" />
<glyph unicode="&#x12e;" glyph-name="Iogonek" horiz-adv-x="354" d="M33 43L126 61V659L33 678V721H322V678L231 659V61L322 43V0H233Q199 -35 186 -60T172 -117Q172 -140 186 -156T235 -172H260V-209Q247 -214 231 -218T191 -222Q137 -222 107 -197T77 -131Q77
-93 104 -59T174 0H33V43Z" />
<glyph unicode="&#x12f;" glyph-name="iogonek" horiz-adv-x="307" d="M28 35L106 52V461L22 477V517L191 542L202 536V52L281 35V0H214Q180 -35 167 -60T153 -117Q153 -140 167 -156T216 -172H241V-209Q228 -214 212 -218T172 -222Q118 -222 88 -197T58 -131Q58
-93 86 -58T156 0H28V35ZM150 646Q124 646 106 664T87 707Q87 733 105 751T150 769Q176 769 194 751T213 707Q213 683 195 665T150 646Z" />
<glyph unicode="&#x130;" glyph-name="Idotaccent" horiz-adv-x="354" d="M33 43L126 61V659L33 678V721H322V678L231 659V61L322 43V0H33V43ZM434 799Q408 799 390 817T371 860Q371 886 389 904T434 922Q460 922 478 904T497 860Q497 836 479 818T434 799Z" />
<glyph unicode="&#x131;" glyph-name="dotlessi" horiz-adv-x="307" d="M28 35L106 52V461L22 477V517L191 542L202 536V52L281 35V0H28V35Z" />
<glyph unicode="&#x132;" glyph-name="IJ" horiz-adv-x="792" d="M495 -10Q453 -10 425 -2T377 16V74Q403 66 425 61T477 56Q499 56 517 60T548 77T568 111T575 166V658L482 678V721H771V678L680 658V156Q680 75 631 33T495 -10ZM33 43L126 61V659L33 678V721H322V678L231
659V61L322 43V0H33V43Z" />
<glyph unicode="&#x133;" glyph-name="ij" horiz-adv-x="600" d="M28 35L106 52V461L22 477V517L191 542L202 536V52L281 35V0H28V35ZM150 646Q124 646 106 664T87 707Q87 733 105 751T150 769Q176 769 194 751T213 707Q213 683 195 665T150 646ZM349 -215Q311
-215 271 -199V-156Q282 -158 295 -158T319 -159Q338 -159 355 -155T385 -140T405 -109T413 -58V461L329 477V517L498 542L509 536V-68Q509 -139 468 -177T349 -215ZM457 646Q431 646 413 664T394 707Q394 733 412 751T457 769Q483 769 501 751T520 707Q520 683
502 665T457 646Z" />
<glyph unicode="&#x134;" glyph-name="Jcircumflex" horiz-adv-x="448" d="M145 -10Q100 -10 72 -2T23 16V74Q49 66 71 61T131 56Q153 56 171 60T203 77T224 111T231 166V658L138 678V721H427V678L336 658V156Q336 75 286 33T145 -10ZM123 818L258 947H307L442
818L423 788L283 867L142 788L123 818Z" />
<glyph unicode="&#x135;" glyph-name="jcircumflex" horiz-adv-x="293" d="M43 -215Q5 -215 -35 -199V-156Q-24 -158 -11 -158T13 -159Q32 -159 49 -155T79 -140T99 -109T107 -58V461L23 477V517L192 542L203 536V-68Q203 -139 162 -177T43 -215ZM246 660L381
806H430L565 660L543 630L405 726L268 630L246 660Z" />
<glyph unicode="&#x136;" glyph-name="Kcommaaccent" horiz-adv-x="713" d="M33 43L126 61V659L33 678V721H326V678L231 659V335L515 659L448 678V721H674V678L603 659L382 417L613 62L692 43V0H529L311 343L231 272V61L326 43V0H33V43ZM305 -237Q331 -232 347
-224T372 -206T384 -183T389 -158Q383 -164 376 -168T354 -172Q334 -172 321 -158T308 -121Q308 -96 326 -81T371 -66Q403 -66 424 -87T446 -148Q446 -166 442 -185T423 -223T383 -255T313 -276L305 -237Z" />
<glyph unicode="&#x137;" glyph-name="kcommaaccent" d="M252 239L202 243V51L283 35V0H27V35L106 51V715L27 731V771L190 795L202 789V276L256 298L396 480L333 496V534H545V496L468 480L318 298L500 52L568 35V0H425L252 239ZM238 -237Q264 -232 280 -224T305
-206T317 -183T322 -158Q316 -164 309 -168T287 -172Q267 -172 254 -158T241 -121Q241 -96 259 -81T304 -66Q336 -66 357 -87T379 -148Q379 -166 375 -185T356 -223T316 -255T246 -276L238 -237Z" />
<glyph unicode="&#x139;" glyph-name="Lacute" horiz-adv-x="606" d="M33 43L126 61V659L33 678V721H332V678L231 659V57H476L528 228H577L564 0H33V43ZM322 821L539 955L575 872L339 782L322 821Z" />
<glyph unicode="&#x13a;" glyph-name="lacute" horiz-adv-x="307" d="M27 35L106 52V715L20 731V771L190 795L202 789V52L281 35V0H27V35ZM289 881L506 1015L542 932L306 842L289 881Z" />
<glyph unicode="&#x13b;" glyph-name="Lcommaaccent" horiz-adv-x="606" d="M33 43L126 61V659L33 678V721H332V678L231 659V57H476L528 228H577L564 0H33V43ZM258 -237Q284 -232 300 -224T325 -206T337 -183T342 -158Q336 -164 329 -168T307 -172Q287 -172 274
-158T261 -121Q261 -96 279 -81T324 -66Q356 -66 377 -87T399 -148Q399 -166 395 -185T376 -223T336 -255T266 -276L258 -237Z" />
<glyph unicode="&#x13c;" glyph-name="lcommaaccent" horiz-adv-x="307" d="M27 35L106 52V715L20 731V771L190 795L202 789V52L281 35V0H27V35ZM340 -237Q366 -232 382 -224T407 -206T419 -183T424 -158Q418 -164 411 -168T389 -172Q369 -172 356 -158T343 -121Q343
-96 361 -81T406 -66Q438 -66 459 -87T481 -148Q481 -166 477 -185T458 -223T418 -255T348 -276L340 -237Z" />
<glyph unicode="&#x13d;" glyph-name="Lcaron" horiz-adv-x="606" d="M33 43L126 61V659L33 678V721H332V678L231 659V57H476L528 228H577L564 0H33V43ZM422 545Q425 566 427 591T431 642T434 694T436 741H533Q530 715 524 688T509 635T492 586T473 545H422Z" />
<glyph unicode="&#x13e;" glyph-name="lcaron" horiz-adv-x="307" d="M27 35L106 52V715L20 731V771L190 795L202 789V52L281 35V0H27V35ZM267 595Q270 616 272 641T276 692T279 744T281 791H378Q375 765 369 738T354 685T337 636T318 595H267Z" />
<glyph unicode="&#x13f;" glyph-name="Ldot" horiz-adv-x="606" d="M33 43L126 61V659L33 678V721H332V678L231 659V57H476L528 212H577L564 0H33V43ZM519 327Q487 327 466 347T444 400Q444 432 465 452T519 473Q551 473 572 453T594 400Q594 368 573 348T519 327Z" />
<glyph unicode="&#x140;" glyph-name="ldot" horiz-adv-x="446" d="M376 315Q347 315 327 334T307 383Q307 412 327 431T376 450Q405 450 425 431T446 383Q446 354 426 335T376 315ZM27 35L106 52V715L20 731V771L190 795L202 789V52L281 35V0H27V35Z" />
<glyph unicode="&#x141;" glyph-name="Lslash" horiz-adv-x="606" d="M33 43L126 61V272L42 239V303L126 337V659L33 678V721H332V678L231 659V379L481 480V415L231 314V57H476L528 228H577L564 0H33V43Z" />
<glyph unicode="&#x142;" glyph-name="lslash" horiz-adv-x="347" d="M47 35L126 52V350L32 297V362L126 415V715L40 731V771L210 795L222 789V470L325 528V463L222 405V52L301 35V0H47V35Z" />
<glyph unicode="&#x143;" glyph-name="Nacute" horiz-adv-x="767" d="M33 41L127 61V658L33 678V721H266L500 326Q514 303 528 275T555 220Q569 190 584 159H589V657L496 678V721H744V679L661 658V0H578L289 489Q275 512 260 540T233 593Q218 622 205 652H200V62L294
42V0H33V41ZM292 821L509 955L545 872L309 782L292 821Z" />
<glyph unicode="&#x144;" glyph-name="nacute" horiz-adv-x="636" d="M27 35L106 52V461L27 477V517L186 542L197 536V489H203Q243 512 289 528T384 544Q459 544 497 512T535 401V52L614 35V0H362V35L439 52V376Q439 431 411 450T326 470Q293 470 263 464T202
446V52L279 35V0H27V35ZM200 668L417 802L452 723L217 629L200 668Z" />
<glyph unicode="&#x145;" glyph-name="Ncommaaccent" horiz-adv-x="767" d="M33 41L127 61V658L33 678V721H266L500 326Q514 303 528 275T555 220Q569 190 584 159H589V657L496 678V721H744V679L661 658V0H578L289 489Q275 512 260 540T233 593Q218 622 205 652H200V62L294
42V0H33V41ZM338 -237Q364 -232 380 -224T405 -206T417 -183T422 -158Q416 -164 409 -168T387 -172Q367 -172 354 -158T341 -121Q341 -96 359 -81T404 -66Q436 -66 457 -87T479 -148Q479 -166 475 -185T456 -223T416 -255T346 -276L338 -237Z" />
<glyph unicode="&#x146;" glyph-name="ncommaaccent" horiz-adv-x="636" d="M27 35L106 52V461L27 477V517L186 542L197 536V489H203Q243 512 289 528T384 544Q459 544 497 512T535 401V52L614 35V0H362V35L439 52V376Q439 431 411 450T326 470Q293 470 263 464T202
446V52L279 35V0H27V35ZM248 -237Q274 -232 290 -224T315 -206T327 -183T332 -158Q326 -164 319 -168T297 -172Q277 -172 264 -158T251 -121Q251 -96 269 -81T314 -66Q346 -66 367 -87T389 -148Q389 -166 385 -185T366 -223T326 -255T256 -276L248 -237Z" />
<glyph unicode="&#x147;" glyph-name="Ncaron" horiz-adv-x="767" d="M33 41L127 61V658L33 678V721H266L500 326Q514 303 528 275T555 220Q569 190 584 159H589V657L496 678V721H744V679L661 658V0H578L289 489Q275 512 260 540T233 593Q218 622 205 652H200V62L294
42V0H33V41ZM569 925L434 796H385L250 925L269 955L409 876L550 955L569 925Z" />
<glyph unicode="&#x148;" glyph-name="ncaron" horiz-adv-x="636" d="M27 35L106 52V461L27 477V517L186 542L197 536V489H203Q243 512 289 528T384 544Q459 544 497 512T535 401V52L614 35V0H362V35L439 52V376Q439 431 411 450T326 470Q293 470 263 464T202
446V52L279 35V0H27V35ZM158 774L180 804L318 708L455 804L477 774L342 628H293L158 774Z" />
<glyph unicode="&#x149;" glyph-name="napostrophe" horiz-adv-x="723" d="M114 35L193 52V461L114 477V517L273 542L284 536V489H290Q330 512 376 528T471 544Q546 544 584 512T622 401V52L701 35V0H449V35L526 52V376Q526 431 498 450T413 470Q380 470 350 464T289
446V52L366 35V0H114V35ZM-104 467Q-66 485 -41 503T-2 541T19 582T26 626Q19 619 11 616T-15 612Q-38 612 -54 627T-71 671Q-71 700 -50 716T2 733Q36 733 63 706T90 624Q90 600 83 574T55 522T1 473T-89 431L-104 467Z" />
<glyph unicode="&#x14a;" glyph-name="Eng" horiz-adv-x="767" d="M33 41L127 61V658L33 678V721H266L500 326Q514 303 528 275T555 220Q569 190 584 159H589V657L496 678V721H744V679L661 658V-14Q661 -100 621 -142T487 -184Q448 -184 424 -179T380 -165V-118Q395
-121 412 -123T456 -125Q484 -125 507 -120T546 -101T572 -65T583 -9L289 489Q275 512 260 540T233 593Q218 622 205 652H200V62L294 42V0H33V41Z" />
<glyph unicode="&#x14b;" glyph-name="eng" horiz-adv-x="625" d="M27 35L106 52V461L27 477V517L186 542L197 536V489H203Q243 512 289 528T384 544Q459 544 497 512T535 401V-68Q535 -139 494 -177T374 -215Q336 -215 296 -199V-156Q307 -158 320 -158T344 -159Q363
-159 380 -155T411 -140T431 -109T439 -58V376Q439 431 411 450T326 470Q293 470 263 464T202 446V52L279 35V0H27V35Z" />
<glyph unicode="&#x14c;" glyph-name="Omacron" horiz-adv-x="741" d="M369 -12Q301 -12 242 12T138 83T68 200T42 361Q42 458 71 528T146 643T252 711T372 733Q440 733 499 709T603 639T673 523T699 363Q699 266 671 196T596 79T490 11T369 -12ZM371 47Q426 47
467 70T535 133T575 229T588 350Q588 509 534 592T368 675Q312 675 272 652T205 588T166 492T153 370Q153 298 164 239T201 137T269 71T371 47ZM223 877H520V813H223V877Z" />
<glyph unicode="&#x14d;" glyph-name="omacron" horiz-adv-x="593" d="M298 -14Q240 -14 192 6T110 62T58 149T39 263Q39 326 59 378T114 466T195 523T295 544Q353 544 400 525T482 469T535 382T554 268Q554 205 534 154T479 65T398 7T298 -14ZM299 44Q329 44
356 54T405 90T440 157T453 260Q453 324 440 367T404 437T353 475T294 487Q264 487 237 477T187 441T152 374T139 270Q139 207 152 164T188 94T240 56T299 44ZM160 729H437V665H160V729Z" />
<glyph unicode="&#x14e;" glyph-name="Obreve" horiz-adv-x="741" d="M369 -12Q301 -12 242 12T138 83T68 200T42 361Q42 458 71 528T146 643T252 711T372 733Q440 733 499 709T603 639T673 523T699 363Q699 266 671 196T596 79T490 11T369 -12ZM371 47Q426 47
467 70T535 133T575 229T588 350Q588 509 534 592T368 675Q312 675 272 652T205 588T166 492T153 370Q153 298 164 239T201 137T269 71T371 47ZM370 796Q337 796 310 806T262 835T231 877T218 928H277Q285 897 307 880T370 863Q411 863 432 880T463 928H522Q519
901 508 877T477 835T430 807T370 796Z" />
<glyph unicode="&#x14f;" glyph-name="obreve" horiz-adv-x="593" d="M298 -14Q240 -14 192 6T110 62T58 149T39 263Q39 326 59 378T114 466T195 523T295 544Q353 544 400 525T482 469T535 382T554 268Q554 205 534 154T479 65T398 7T298 -14ZM299 44Q329 44 356
54T405 90T440 157T453 260Q453 324 440 367T404 437T353 475T294 487Q264 487 237 477T187 441T152 374T139 270Q139 207 152 164T188 94T240 56T299 44ZM295 643Q228 643 187 682T143 786H202Q218 710 295 710Q336 710 357 728T388 786H447Q442 722 402 683T295
643Z" />
<glyph unicode="&#x150;" glyph-name="Ohungarumlaut" horiz-adv-x="741" d="M369 -12Q301 -12 242 12T138 83T68 200T42 361Q42 458 71 528T146 643T252 711T372 733Q440 733 499 709T603 639T673 523T699 363Q699 266 671 196T596 79T490 11T369 -12ZM371 47Q426
47 467 70T535 133T575 229T588 350Q588 509 534 592T368 675Q312 675 272 652T205 588T166 492T153 370Q153 298 164 239T201 137T269 71T371 47ZM257 821L358 982L428 932L295 796L257 821ZM437 821L538 982L608 932L475 796L437 821Z" />
<glyph unicode="&#x151;" glyph-name="ohungarumlaut" horiz-adv-x="593" d="M298 -14Q240 -14 192 6T110 62T58 149T39 263Q39 326 59 378T114 466T195 523T295 544Q353 544 400 525T482 469T535 382T554 268Q554 205 534 154T479 65T398 7T298 -14ZM299 44Q329
44 356 54T405 90T440 157T453 260Q453 324 440 367T404 437T353 475T294 487Q264 487 237 477T187 441T152 374T139 270Q139 207 152 164T188 94T240 56T299 44ZM175 663L276 824L346 774L213 638L175 663ZM355 663L456 824L526 774L393 638L355 663Z" />
<glyph unicode="&#x152;" glyph-name="OE" horiz-adv-x="980" d="M419 0Q318 0 247 23T130 89T63 196T41 342Q41 525 130 623T407 721H918L930 542H880L834 664H587V398H715L743 497H788V245H743L715 345H587V57H845L902 208H952L938 0H419ZM482 57V664H405Q343
664 296 649T218 599T170 504T153 358Q153 258 172 199T228 108T316 67T433 57H482Z" />
<glyph unicode="&#x153;" glyph-name="oe" horiz-adv-x="953" d="M298 -14Q240 -14 192 6T110 62T58 149T39 263Q39 326 59 378T114 466T195 523T295 544Q369 544 420 513T501 424Q530 482 580 513T696 544Q755 544 796 525T864 469T903 380T916 263H549Q553 160
600 108T732 55Q790 55 826 65T892 89V42Q866 24 823 6T712 -12Q625 -12 574 20T498 108Q468 51 417 19T298 -14ZM299 44Q329 44 356 54T405 90T440 157T453 260Q453 324 440 367T404 437T353 475T294 487Q264 487 237 477T187 441T152 374T139 270Q139 207 152
164T188 94T240 56T299 44ZM807 315Q807 408 778 448T690 488Q627 488 591 447T549 315H807Z" />
<glyph unicode="&#x154;" glyph-name="Racute" horiz-adv-x="692" d="M33 43L128 62V658L33 678V721H341Q471 721 532 670T593 526Q593 487 580 458T546 407T499 371T444 348V344L611 61L685 42V0H529L344 323H233V62L323 43V0H33V43ZM339 376Q381 376 409 388T454
421T478 468T485 524Q485 596 451 627T338 659H233V376H339ZM226 821L443 955L479 872L243 782L226 821Z" />
<glyph unicode="&#x155;" glyph-name="racute" horiz-adv-x="404" d="M27 35L106 52V461L27 477V517L186 542L197 536V468H203Q215 481 231 495T266 519T308 537T352 544Q359 544 368 543T381 540V453Q371 455 360 455T340 456Q302 456 265 448T202 423V52L292
35V0H27V35ZM380 668L597 802L632 723L397 629L380 668Z" />
<glyph unicode="&#x156;" glyph-name="Rcommaaccent" horiz-adv-x="692" d="M33 43L128 62V658L33 678V721H341Q471 721 532 670T593 526Q593 487 580 458T546 407T499 371T444 348V344L611 61L685 42V0H529L344 323H233V62L323 43V0H33V43ZM339 376Q381 376 409
388T454 421T478 468T485 524Q485 596 451 627T338 659H233V376H339ZM318 -237Q344 -232 360 -224T385 -206T397 -183T402 -158Q396 -164 389 -168T367 -172Q347 -172 334 -158T321 -121Q321 -96 339 -81T384 -66Q416 -66 437 -87T459 -148Q459 -166 455 -185T436
-223T396 -255T326 -276L318 -237Z" />
<glyph unicode="&#x157;" glyph-name="rcommaaccent" horiz-adv-x="404" d="M27 35L106 52V461L27 477V517L186 542L197 536V468H203Q215 481 231 495T266 519T308 537T352 544Q359 544 368 543T381 540V453Q371 455 360 455T340 456Q302 456 265 448T202 423V52L292
35V0H27V35ZM339 -237Q365 -232 381 -224T406 -206T418 -183T423 -158Q417 -164 410 -168T388 -172Q368 -172 355 -158T342 -121Q342 -96 360 -81T405 -66Q437 -66 458 -87T480 -148Q480 -166 476 -185T457 -223T417 -255T347 -276L339 -237Z" />
<glyph unicode="&#x158;" glyph-name="Rcaron" horiz-adv-x="692" d="M33 43L128 62V658L33 678V721H341Q471 721 532 670T593 526Q593 487 580 458T546 407T499 371T444 348V344L611 61L685 42V0H529L344 323H233V62L323 43V0H33V43ZM339 376Q381 376 409 388T454
421T478 468T485 524Q485 596 451 627T338 659H233V376H339ZM502 925L367 796H318L183 925L202 955L342 876L483 955L502 925Z" />
<glyph unicode="&#x159;" glyph-name="rcaron" horiz-adv-x="404" d="M27 35L106 52V461L27 477V517L186 542L197 536V468H203Q215 481 231 495T266 519T308 537T352 544Q359 544 368 543T381 540V453Q371 455 360 455T340 456Q302 456 265 448T202 423V52L292
35V0H27V35ZM326 774L348 804L486 708L623 804L645 774L510 628H461L326 774Z" />
<glyph unicode="&#x15a;" glyph-name="Sacute" horiz-adv-x="556" d="M259 -12Q195 -12 144 -2T54 23L47 187H97L131 81Q160 65 191 57T269 48Q306 48 333 58T379 85T407 126T417 175Q417 203 408 224T382 260T341 289T285 316L197 354Q167 367 142 383T98 422T70
475T59 544Q59 583 73 617T115 678T187 719T288 734Q351 734 394 727T468 708L475 554H426L397 647Q382 655 356 664T280 674Q252 674 228 668T186 648T158 615T147 568Q147 520 174 493T257 442L345 406Q379 392 410 376T463 336T499 281T513 205Q513 163 499
124T454 55T375 6T259 -12ZM176 821L393 955L429 872L193 782L176 821Z" />
<glyph unicode="&#x15b;" glyph-name="sacute" horiz-adv-x="464" d="M215 -14Q171 -14 127 -5T48 16L40 144H90L118 67Q133 59 159 52T222 44Q272 44 304 63T337 125Q337 145 332 159T314 183T282 202T235 220L177 239Q114 259 80 294T46 389Q46 420 58 448T94
497T155 530T240 543Q285 543 324 537T389 523V403H342L317 469Q303 477 283 482T231 487Q187 487 158 470T129 412Q129 377 151 358T233 320L291 302Q364 279 394 244T424 151Q424 117 411 87T372 35T306 -1T215 -14ZM376 668L593 802L628 723L393 629L376 668Z"
/>
<glyph unicode="&#x15c;" glyph-name="Scircumflex" horiz-adv-x="556" d="M259 -12Q195 -12 144 -2T54 23L47 187H97L131 81Q160 65 191 57T269 48Q306 48 333 58T379 85T407 126T417 175Q417 203 408 224T382 260T341 289T285 316L197 354Q167 367 142 383T98
422T70 475T59 544Q59 583 73 617T115 678T187 719T288 734Q351 734 394 727T468 708L475 554H426L397 647Q382 655 356 664T280 674Q252 674 228 668T186 648T158 615T147 568Q147 520 174 493T257 442L345 406Q379 392 410 376T463 336T499 281T513 205Q513 163
499 124T454 55T375 6T259 -12ZM132 818L267 947H316L451 818L432 788L292 867L151 788L132 818Z" />
<glyph unicode="&#x15d;" glyph-name="scircumflex" horiz-adv-x="464" d="M215 -14Q171 -14 127 -5T48 16L40 144H90L118 67Q133 59 159 52T222 44Q272 44 304 63T337 125Q337 145 332 159T314 183T282 202T235 220L177 239Q114 259 80 294T46 389Q46 420 58
448T94 497T155 530T240 543Q285 543 324 537T389 523V403H342L317 469Q303 477 283 482T231 487Q187 487 158 470T129 412Q129 377 151 358T233 320L291 302Q364 279 394 244T424 151Q424 117 411 87T372 35T306 -1T215 -14ZM330 661L465 807H514L649 661L627
631L489 727L352 631L330 661Z" />
<glyph unicode="&#x15e;" glyph-name="Scedilla" horiz-adv-x="556" d="M157 -204Q202 -201 229 -196T273 -183T294 -167T300 -148Q300 -130 279 -122T209 -114V-10Q161 -7 123 2T54 23L47 187H97L131 81Q160 65 191 57T269 48Q306 48 333 58T379 85T407 126T417
175Q417 203 408 224T382 260T341 289T285 316L197 354Q167 367 142 383T98 422T70 475T59 544Q59 583 73 617T115 678T187 719T288 734Q351 734 394 727T468 708L475 554H426L397 647Q382 655 356 664T280 674Q252 674 228 668T186 648T158 615T147 568Q147 520
174 493T257 442L345 406Q379 392 410 376T463 336T499 281T513 205Q513 163 499 124T454 55T375 6T258 -12V-67Q386 -71 386 -142Q386 -162 377 -179T343 -209T273 -231T157 -242V-204Z" />
<glyph unicode="&#x15f;" glyph-name="scedilla" horiz-adv-x="464" d="M102 -204Q147 -201 174 -196T218 -183T239 -167T245 -148Q245 -130 224 -122T154 -114V-9Q95 -1 48 16L40 144H90L118 67Q133 59 159 52T222 44Q272 44 304 63T337 125Q337 145 332 159T314
183T282 202T235 220L177 239Q114 259 80 294T46 389Q46 420 58 448T94 497T155 530T240 543Q285 543 324 537T389 523V403H342L317 469Q303 477 283 482T231 487Q187 487 158 470T129 412Q129 377 151 358T233 320L291 302Q364 279 394 244T424 151Q424 117 411
87T372 35T306 -1T215 -14H203V-67Q331 -71 331 -142Q331 -162 322 -179T288 -209T218 -231T102 -242V-204Z" />
<glyph unicode="&#x160;" glyph-name="Scaron" horiz-adv-x="556" d="M259 -12Q195 -12 144 -2T54 23L47 187H97L131 81Q160 65 191 57T269 48Q306 48 333 58T379 85T407 126T417 175Q417 203 408 224T382 260T341 289T285 316L197 354Q167 367 142 383T98 422T70
475T59 544Q59 583 73 617T115 678T187 719T288 734Q351 734 394 727T468 708L475 554H426L397 647Q382 655 356 664T280 674Q252 674 228 668T186 648T158 615T147 568Q147 520 174 493T257 442L345 406Q379 392 410 376T463 336T499 281T513 205Q513 163 499
124T454 55T375 6T259 -12ZM443 925L308 796H259L124 925L143 955L283 876L424 955L443 925Z" />
<glyph unicode="&#x161;" glyph-name="scaron" horiz-adv-x="464" d="M215 -14Q171 -14 127 -5T48 16L40 144H90L118 67Q133 59 159 52T222 44Q272 44 304 63T337 125Q337 145 332 159T314 183T282 202T235 220L177 239Q114 259 80 294T46 389Q46 420 58 448T94
497T155 530T240 543Q285 543 324 537T389 523V403H342L317 469Q303 477 283 482T231 487Q187 487 158 470T129 412Q129 377 151 358T233 320L291 302Q364 279 394 244T424 151Q424 117 411 87T372 35T306 -1T215 -14ZM326 774L348 804L486 708L623 804L645 774L510
628H461L326 774Z" />
<glyph unicode="&#x162;" glyph-name="Tcommaaccent" horiz-adv-x="648" d="M175 43L271 61V664H112L72 515H22L33 721H615L626 515H576L536 664H377V61L472 43V0H175V43ZM253 -237Q279 -232 295 -224T320 -206T332 -183T337 -158Q331 -164 324 -168T302 -172Q282
-172 269 -158T256 -121Q256 -96 274 -81T319 -66Q351 -66 372 -87T394 -148Q394 -166 390 -185T371 -223T331 -255T261 -276L253 -237Z" />
<glyph unicode="&#x163;" glyph-name="tcommaaccent" horiz-adv-x="383" d="M238 -9Q169 -9 135 19T101 120V472H19V514L101 539V667H197V534H348V472H197V139Q197 117 201 101T216 74T245 58T291 53Q308 53 325 55T358 60V22Q349 16 336 11T306 1T273 -6T238
-9ZM404 -237Q430 -232 446 -224T471 -206T483 -183T488 -158Q482 -164 475 -168T453 -172Q433 -172 420 -158T407 -121Q407 -96 425 -81T470 -66Q502 -66 523 -87T545 -148Q545 -166 541 -185T522 -223T482 -255T412 -276L404 -237Z" />
<glyph unicode="&#x164;" glyph-name="Tcaron" horiz-adv-x="648" d="M175 43L271 61V664H112L72 515H22L33 721H615L626 515H576L536 664H377V61L472 43V0H175V43ZM483 925L348 796H299L164 925L183 955L323 876L464 955L483 925Z" />
<glyph unicode="&#x165;" glyph-name="tcaron" horiz-adv-x="383" d="M238 -9Q169 -9 135 19T101 120V472H19V514L101 539V667H197V534H348V472H197V139Q197 117 201 101T216 74T245 58T291 53Q308 53 325 55T358 60V22Q349 16 336 11T306 1T273 -6T238 -9ZM280
609Q283 630 285 655T289 706T292 758T294 805H391Q388 779 382 752T367 699T350 650T331 609H280Z" />
<glyph unicode="&#x166;" glyph-name="Tbar" horiz-adv-x="648" d="M117 435H271V664H112L72 515H22L33 721H615L626 515H576L536 664H377V435H531V382H377V61L472 43V0H175V43L271 61V382H117V435Z" />
<glyph unicode="&#x167;" glyph-name="tbar" horiz-adv-x="383" d="M19 364H101V472H19V514L101 539V667H197V534H348V472H197V364H348V308H197V139Q197 117 201 101T216 74T245 58T291 53Q308 53 325 55T358 60V22Q349 16 336 11T306 1T273 -6T238 -9Q169 -9
135 19T101 120V308H19V364Z" />
<glyph unicode="&#x168;" glyph-name="Utilde" horiz-adv-x="733" d="M372 -14Q305 -14 255 2T171 50T121 123T104 219V659L13 678V721H302V678L210 659V237Q210 140 256 97T388 53Q476 53 522 97T568 238V658L475 677V721H720V678L640 659V229Q640 117 571 52T372
-14ZM211 822Q255 927 324 927Q341 927 359 921T395 906T427 891T454 884Q470 884 486 894T521 937L563 918Q518 811 450 811Q433 811 415 817T379 832T347 847T320 854Q304 854 288 845T253 803L211 822Z" />
<glyph unicode="&#x169;" glyph-name="utilde" horiz-adv-x="636" d="M250 -10Q168 -10 132 32T96 146V468L17 485V524L180 541L192 535V170Q192 114 212 86T296 58Q345 58 375 68T428 88V468L351 485V524L513 541L525 535V66L603 49V14L446 -10L434 -5V53H428Q395
24 351 7T250 -10ZM138 664Q182 769 251 769Q268 769 286 763T322 748T354 733T381 726Q397 726 413 736T448 779L490 760Q445 653 377 653Q360 653 342 659T306 674T274 689T247 696Q231 696 215 687T180 645L138 664Z" />
<glyph unicode="&#x16a;" glyph-name="Umacron" horiz-adv-x="733" d="M372 -14Q305 -14 255 2T171 50T121 123T104 219V659L13 678V721H302V678L210 659V237Q210 140 256 97T388 53Q476 53 522 97T568 238V658L475 677V721H720V678L640 659V229Q640 117 571 52T372
-14ZM238 877H535V813H238V877Z" />
<glyph unicode="&#x16b;" glyph-name="umacron" horiz-adv-x="636" d="M250 -10Q168 -10 132 32T96 146V468L17 485V524L180 541L192 535V170Q192 114 212 86T296 58Q345 58 375 68T428 88V468L351 485V524L513 541L525 535V66L603 49V14L446 -10L434 -5V53H428Q395
24 351 7T250 -10ZM170 729H447V665H170V729Z" />
<glyph unicode="&#x16c;" glyph-name="Ubreve" horiz-adv-x="733" d="M372 -14Q305 -14 255 2T171 50T121 123T104 219V659L13 678V721H302V678L210 659V237Q210 140 256 97T388 53Q476 53 522 97T568 238V658L475 677V721H720V678L640 659V229Q640 117 571 52T372
-14ZM387 796Q354 796 327 806T279 835T248 877T235 928H294Q302 897 324 880T387 863Q428 863 449 880T480 928H539Q536 901 525 877T494 835T447 807T387 796Z" />
<glyph unicode="&#x16d;" glyph-name="ubreve" horiz-adv-x="636" d="M250 -10Q168 -10 132 32T96 146V468L17 485V524L180 541L192 535V170Q192 114 212 86T296 58Q345 58 375 68T428 88V468L351 485V524L513 541L525 535V66L603 49V14L446 -10L434 -5V53H428Q395
24 351 7T250 -10ZM307 643Q240 643 199 682T155 786H214Q230 710 307 710Q348 710 369 728T400 786H459Q454 722 414 683T307 643Z" />
<glyph unicode="&#x16e;" glyph-name="Uring" horiz-adv-x="733" d="M372 -14Q305 -14 255 2T171 50T121 123T104 219V659L13 678V721H302V678L210 659V237Q210 140 256 97T388 53Q476 53 522 97T568 238V658L475 677V721H720V678L640 659V229Q640 117 571 52T372
-14ZM388 765Q362 765 339 774T299 800T273 837T263 884Q263 908 272 929T299 967T339 992T388 1002Q414 1002 436 993T475 967T501 930T511 884Q511 859 502 838T476 800T437 775T388 765ZM388 809Q421 809 440 829T460 884Q460 918 441 938T388 958Q355 958 335
938T315 884Q315 849 335 829T388 809Z" />
<glyph unicode="&#x16f;" glyph-name="uring" horiz-adv-x="636" d="M250 -10Q168 -10 132 32T96 146V468L17 485V524L180 541L192 535V170Q192 114 212 86T296 58Q345 58 375 68T428 88V468L351 485V524L513 541L525 535V66L603 49V14L446 -10L434 -5V53H428Q395
24 351 7T250 -10ZM307 616Q281 616 258 625T218 651T192 688T182 735Q182 759 191 780T218 818T258 843T307 853Q333 853 355 844T394 818T420 781T430 735Q430 710 421 689T395 651T356 626T307 616ZM307 660Q340 660 359 680T379 735Q379 769 360 789T307 809Q274
809 254 789T234 735Q234 700 254 680T307 660Z" />
<glyph unicode="&#x170;" glyph-name="Uhungarumlaut" horiz-adv-x="733" d="M372 -14Q305 -14 255 2T171 50T121 123T104 219V659L13 678V721H302V678L210 659V237Q210 140 256 97T388 53Q476 53 522 97T568 238V658L475 677V721H720V678L640 659V229Q640 117
571 52T372 -14ZM259 821L360 982L430 932L297 796L259 821ZM439 821L540 982L610 932L477 796L439 821Z" />
<glyph unicode="&#x171;" glyph-name="uhungarumlaut" horiz-adv-x="636" d="M250 -10Q168 -10 132 32T96 146V468L17 485V524L180 541L192 535V170Q192 114 212 86T296 58Q345 58 375 68T428 88V468L351 485V524L513 541L525 535V66L603 49V14L446 -10L434 -5V53H428Q395
24 351 7T250 -10ZM184 663L285 824L355 774L222 638L184 663ZM364 663L465 824L535 774L402 638L364 663Z" />
<glyph unicode="&#x172;" glyph-name="Uogonek" horiz-adv-x="733" d="M434 -222Q380 -222 350 -197T320 -131Q320 -94 348 -63T419 -11Q408 -12 396 -13T372 -14Q305 -14 255 2T171 50T121 123T104 219V659L13 678V721H302V678L210 659V237Q210 140 256 97T388
53Q476 53 522 97T568 238V658L475 677V721H720V678L640 659V229Q640 98 548 34Q529 20 506 5T463 -29T429 -69T415 -117Q415 -140 429 -156T478 -172H503V-209Q490 -214 474 -218T434 -222Z" />
<glyph unicode="&#x173;" glyph-name="uogonek" horiz-adv-x="636" d="M461 -222Q407 -222 377 -197T347 -131Q347 -95 372 -63T434 -7V53H428Q395 24 351 7T250 -10Q168 -10 132 32T96 146V468L17 485V524L180 541L192 535V170Q192 114 212 86T296 58Q345 58
375 68T428 88V468L351 485V524L513 541L525 535V66L603 49V14Q555 8 524 -5T474 -36T449 -75T442 -117Q442 -140 456 -156T505 -172H530V-209Q517 -214 501 -218T461 -222Z" />
<glyph unicode="&#x174;" glyph-name="Wcircumflex" horiz-adv-x="1007" d="M80 658L17 678V721H263V678L185 658L262 364Q271 328 280 285T298 204Q307 160 315 116H320Q329 160 340 204Q349 242 359 285T380 364L480 721H550L649 364Q659 328 669 285T688 204Q698
160 706 116H711Q720 160 730 204Q738 242 748 285T767 364L842 658L763 678V721H991V678L917 658L739 0H654L560 336Q549 372 540 415T523 497Q514 542 506 587H501Q491 543 480 498Q471 460 460 416T438 336L342 0H257L80 658ZM356 818L491 947H540L675 818L656
788L516 867L375 788L356 818Z" />
<glyph unicode="&#x175;" glyph-name="wcircumflex" horiz-adv-x="846" d="M66 480L10 496V534H230V496L162 480L233 244Q240 221 245 193T255 139Q259 110 262 80H267Q273 109 280 138Q286 163 293 191T309 244L403 534H470L564 244Q572 220 577 192T587 138Q591
109 595 80H600Q606 110 613 139Q618 164 625 192T639 244L708 480L642 496V534H836V496L780 480L630 0H554L477 246Q470 268 463 301T448 364Q440 399 432 437H427Q417 399 408 364Q400 334 392 301T375 246L291 0H215L66 480ZM280 660L415 806H464L599 660L577
630L439 726L302 630L280 660Z" />
<glyph unicode="&#x176;" glyph-name="Ycircumflex" horiz-adv-x="663" d="M194 43L286 62V312L76 658L12 678V721H262V678L190 658L358 368H362L516 658L439 678V721H651V678L588 658L391 310V62L482 43V0H194V43ZM193 818L328 947H377L512 818L493 788L353 867L212
788L193 818Z" />
<glyph unicode="&#x177;" glyph-name="ycircumflex" horiz-adv-x="577" d="M141 -217Q115 -217 94 -210T59 -191V-137Q77 -141 88 -143T114 -146Q160 -146 186 -128T233 -59L264 15L69 480L10 496V534H246V496L175 482L267 246Q275 226 282 202T294 156Q300 130
306 105H311Q318 129 325 155Q331 176 338 201T353 246L434 480L366 496V534H567V496L508 480L295 -79Q268 -150 234 -183T141 -217ZM150 660L285 806H334L469 660L447 630L309 726L172 630L150 660Z" />
<glyph unicode="&#x178;" glyph-name="Ydieresis" horiz-adv-x="663" d="M194 43L286 62V312L76 658L12 678V721H262V678L190 658L358 368H362L516 658L439 678V721H651V678L588 658L391 310V62L482 43V0H194V43ZM462 799Q437 799 421 815T405 855Q405 878 421
894T462 911Q487 911 503 895T519 855Q519 832 503 816T462 799ZM242 799Q217 799 201 815T185 855Q185 878 201 894T242 911Q267 911 283 895T299 855Q299 832 283 816T242 799Z" />
<glyph unicode="&#x179;" glyph-name="Zacute" horiz-adv-x="581" d="M24 48L427 657V661H140L95 524H44L54 721H554V673L150 63V59H462L508 197H558L548 0H24V48ZM194 821L411 955L447 872L211 782L194 821Z" />
<glyph unicode="&#x17a;" glyph-name="zacute" horiz-adv-x="520" d="M41 50L355 477V482H140L109 386H60L68 534H468V486L154 56V52H381L420 169H470L456 0H41V50ZM156 668L373 802L408 723L173 629L156 668Z" />
<glyph unicode="&#x17b;" glyph-name="Zdotaccent" horiz-adv-x="581" d="M24 48L427 657V661H140L95 524H44L54 721H554V673L150 63V59H462L508 197H558L548 0H24V48ZM308 799Q282 799 264 817T245 860Q245 886 263 904T308 922Q334 922 352 904T371 860Q371
836 353 818T308 799Z" />
<glyph unicode="&#x17c;" glyph-name="zdotaccent" horiz-adv-x="520" d="M41 50L355 477V482H140L109 386H60L68 534H468V486L154 56V52H381L420 169H470L456 0H41V50ZM270 646Q244 646 226 664T207 707Q207 733 225 751T270 769Q296 769 314 751T333 707Q333
683 315 665T270 646Z" />
<glyph unicode="&#x17d;" glyph-name="Zcaron" horiz-adv-x="581" d="M24 48L427 657V661H140L95 524H44L54 721H554V673L150 63V59H462L508 197H558L548 0H24V48ZM469 925L334 796H285L150 925L169 955L309 876L450 955L469 925Z" />
<glyph unicode="&#x17e;" glyph-name="zcaron" horiz-adv-x="520" d="M41 50L355 477V482H140L109 386H60L68 534H468V486L154 56V52H381L420 169H470L456 0H41V50ZM111 774L133 804L271 708L408 804L430 774L295 628H246L111 774Z" />
<glyph unicode="&#x192;" glyph-name="florin" horiz-adv-x="411" d="M54 432H145L169 568Q177 613 194 644T236 695T292 724T357 733Q393 733 415 727T452 713V664Q435 667 416 669T376 671Q329 671 302 645T262 548L240 432H371V371H229L152 -53Q138 -128 99
-159T0 -190Q-31 -190 -50 -184T-79 -172V-124Q-69 -126 -55 -127T-24 -128Q10 -128 31 -108T61 -36L134 371H54V432Z" />
<glyph unicode="&#x1fa;" glyph-name="Aringacute" horiz-adv-x="708" d="M9 44L82 62L315 721H401L627 62L699 44V0H430V43L513 62L459 228H212L155 62L239 43V0H9V44ZM230 281H442L384 461Q376 484 369 512T356 564Q349 592 343 620H338Q331 592 323 564Q316
540 308 512T292 461L230 281ZM355 1023Q329 1023 306 1032T266 1058T240 1095T230 1142Q230 1166 239 1187T266 1225T306 1250T355 1260Q381 1260 403 1251T442 1225T468 1188T478 1142Q478 1117 469 1096T443 1058T404 1033T355 1023ZM355 1067Q388 1067 407
1087T427 1142Q427 1176 408 1196T355 1216Q322 1216 302 1196T282 1142Q282 1107 302 1087T355 1067ZM239 1061L456 1195L492 1112L256 1022L239 1061Z" />
<glyph unicode="&#x1fb;" glyph-name="aringacute" horiz-adv-x="532" d="M215 484Q201 484 185 482T151 477L128 391H70V516Q85 521 107 526T156 535T209 541T262 544Q350 544 391 506T432 387V80Q432 55 445 50T483 44H516V8Q502 3 478 -3T424 -10Q392 -10 372
2T346 45H340Q318 22 284 4T197 -14Q161 -14 131 -3T79 27T45 74T33 136Q33 171 45 195T78 236T130 263T198 282L336 310V360Q336 391 332 414T316 453T279 476T215 484ZM232 51Q264 51 292 63T336 89V248L228 240Q173 236 153 212T132 146Q132 104 156 78T232
51ZM253 616Q227 616 204 625T164 651T138 688T128 735Q128 759 137 780T164 818T204 843T253 853Q279 853 301 844T340 818T366 781T376 735Q376 710 367 689T341 651T302 626T253 616ZM253 660Q286 660 305 680T325 735Q325 769 306 789T253 809Q220 809 200
789T180 735Q180 700 200 680T253 660ZM137 931L354 1065L390 982L154 892L137 931Z" />
<glyph unicode="&#x1fc;" glyph-name="AEacute" horiz-adv-x="986" d="M9 44L74 62L425 667L355 678V721H925L936 542H886L841 664H591V398H721L749 497H795V245H749L721 345H591V57H851L908 208H958L945 0H395V43L488 62V233H246L148 62L231 43V0H9V44ZM491 675Q486
664 478 647T459 610T436 567T411 522L276 286H488V515Q488 544 488 572T491 623Q493 649 495 675H491ZM548 821L765 955L801 872L565 782L548 821Z" />
<glyph unicode="&#x1fd;" glyph-name="aeacute" horiz-adv-x="835" d="M597 -12Q522 -12 472 12T390 78Q376 60 356 44T311 14T258 -6T200 -14Q164 -14 134 -3T81 27T46 74T33 136Q33 171 45 195T80 236T133 263T201 282L342 308V360Q342 391 338 414T320 453T283
476T218 484Q189 484 151 476L128 391H70V505Q85 512 108 519T157 531T212 540T265 544Q325 544 361 524T412 462Q441 502 484 523T581 544Q640 544 681 525T748 469T786 380T798 263H437Q441 160 487 108T617 55Q646 55 668 58T709 65T743 76T774 89V42Q748 24
706 6T597 -12ZM369 114Q355 143 348 176T338 247L231 240Q176 236 154 212T132 146Q132 104 157 78T235 51Q267 51 300 66T369 114ZM689 315Q689 408 661 448T575 488Q512 488 478 447T437 315H689ZM331 668L548 802L583 723L348 629L331 668Z" />
<glyph unicode="&#x1fe;" glyph-name="Oslashacute" horiz-adv-x="741" d="M369 -12Q310 -12 258 6T164 59L89 -33L43 2L123 100Q85 148 64 212T42 361Q42 458 71 528T146 643T252 711T372 733Q493 733 579 661L646 743L692 708L620 619Q657 573 678 509T699 363Q699
266 671 196T596 79T490 11T369 -12ZM152 370Q152 307 157 257T177 167L533 604Q481 675 368 675Q312 675 272 652T205 588T165 492T152 370ZM371 47Q426 47 467 70T535 133T575 229T589 350Q589 412 583 461T562 549L207 112Q233 80 272 64T371 47ZM256 821L473
955L509 872L273 782L256 821Z" />
<glyph unicode="&#x1ff;" glyph-name="oslashacute" horiz-adv-x="593" d="M90 86Q39 157 39 263Q39 326 59 378T114 466T195 523T295 544Q343 544 383 531T456 492L522 566L565 531L495 454Q524 419 539 372T554 268Q554 205 534 154T479 65T398 7T298 -14Q247
-14 204 1T128 44L58 -34L14 1L90 86ZM299 44Q329 44 357 54T406 90T441 157T455 260Q455 300 450 331T437 388L177 99Q199 70 230 57T299 44ZM137 270Q137 202 151 154L408 440Q387 465 358 476T294 487Q264 487 236 477T186 441T151 374T137 270ZM176 668L393
802L428 723L193 629L176 668Z" />
<glyph unicode="&#x218;" glyph-name="Scommaaccent" horiz-adv-x="556" d="M259 -12Q195 -12 144 -2T54 23L47 187H97L131 81Q160 65 191 57T269 48Q306 48 333 58T379 85T407 126T417 175Q417 203 408 224T382 260T341 289T285 316L197 354Q167 367 142 383T98
422T70 475T59 544Q59 583 73 617T115 678T187 719T288 734Q351 734 394 727T468 708L475 554H426L397 647Q382 655 356 664T280 674Q252 674 228 668T186 648T158 615T147 568Q147 520 174 493T257 442L345 406Q379 392 410 376T463 336T499 281T513 205Q513 163
499 124T454 55T375 6T259 -12ZM453 -237Q479 -232 495 -224T520 -206T532 -183T537 -158Q531 -164 524 -168T502 -172Q482 -172 469 -158T456 -121Q456 -96 474 -81T519 -66Q551 -66 572 -87T594 -148Q594 -166 590 -185T571 -223T531 -255T461 -276L453 -237Z"
/>
<glyph unicode="&#x219;" glyph-name="scommaaccent" horiz-adv-x="464" d="M215 -14Q171 -14 127 -5T48 16L40 144H90L118 67Q133 59 159 52T222 44Q272 44 304 63T337 125Q337 145 332 159T314 183T282 202T235 220L177 239Q114 259 80 294T46 389Q46 420 58
448T94 497T155 530T240 543Q285 543 324 537T389 523V403H342L317 469Q303 477 283 482T231 487Q187 487 158 470T129 412Q129 377 151 358T233 320L291 302Q364 279 394 244T424 151Q424 117 411 87T372 35T306 -1T215 -14ZM404 -237Q430 -232 446 -224T471 -206T483
-183T488 -158Q482 -164 475 -168T453 -172Q433 -172 420 -158T407 -121Q407 -96 425 -81T470 -66Q502 -66 523 -87T545 -148Q545 -166 541 -185T522 -223T482 -255T412 -276L404 -237Z" />
<glyph unicode="&#x21a;" glyph-name="uni021A" horiz-adv-x="648" d="M175 43L271 61V664H112L72 515H22L33 721H615L626 515H576L536 664H377V61L472 43V0H175V43ZM253 -237Q279 -232 295 -224T320 -206T332 -183T337 -158Q331 -164 324 -168T302 -172Q282 -172
269 -158T256 -121Q256 -96 274 -81T319 -66Q351 -66 372 -87T394 -148Q394 -166 390 -185T371 -223T331 -255T261 -276L253 -237Z" />
<glyph unicode="&#x21b;" glyph-name="uni021B" horiz-adv-x="383" d="M238 -9Q169 -9 135 19T101 120V472H19V514L101 539V667H197V534H348V472H197V139Q197 117 201 101T216 74T245 58T291 53Q308 53 325 55T358 60V22Q349 16 336 11T306 1T273 -6T238 -9ZM404
-237Q430 -232 446 -224T471 -206T483 -183T488 -158Q482 -164 475 -168T453 -172Q433 -172 420 -158T407 -121Q407 -96 425 -81T470 -66Q502 -66 523 -87T545 -148Q545 -166 541 -185T522 -223T482 -255T412 -276L404 -237Z" />
<glyph unicode="&#x237;" glyph-name="uni0237" horiz-adv-x="293" d="M42 -215Q4 -215 -36 -199V-156Q-25 -158 -12 -158T12 -159Q31 -159 48 -155T78 -140T98 -109T106 -58V461L22 477V517L191 542L202 536V-68Q202 -139 161 -177T42 -215Z" />
<glyph unicode="&#x2c6;" glyph-name="circumflex" horiz-adv-x="500" d="M90 660L225 806H274L409 660L387 630L249 726L112 630L90 660Z" />
<glyph unicode="&#x2c7;" glyph-name="caron" horiz-adv-x="500" d="M91 774L113 804L251 708L388 804L410 774L275 628H226L91 774Z" />
<glyph unicode="&#x2d8;" glyph-name="breve" horiz-adv-x="500" d="M250 643Q183 643 142 682T98 786H157Q173 710 250 710Q291 710 312 728T343 786H402Q397 722 357 683T250 643Z" />
<glyph unicode="&#x2d9;" glyph-name="dotaccent" horiz-adv-x="500" d="M250 646Q224 646 206 664T187 707Q187 733 205 751T250 769Q276 769 294 751T313 707Q313 683 295 665T250 646Z" />
<glyph unicode="&#x2da;" glyph-name="ring" horiz-adv-x="500" d="M251 616Q225 616 202 625T162 651T136 688T126 735Q126 759 135 780T162 818T202 843T251 853Q277 853 299 844T338 818T364 781T374 735Q374 710 365 689T339 651T300 626T251 616ZM251 660Q284
660 303 680T323 735Q323 769 304 789T251 809Q218 809 198 789T178 735Q178 700 198 680T251 660Z" />
<glyph unicode="&#x2db;" glyph-name="ogonek" horiz-adv-x="500" d="M255 -222Q201 -222 171 -197T141 -131Q141 -110 151 -91T179 -54T219 -23T268 0H316Q274 -35 255 -60T236 -117Q236 -140 250 -156T299 -172H324V-209Q311 -214 295 -218T255 -222Z" />
<glyph unicode="&#x2dc;" glyph-name="tilde" horiz-adv-x="500" d="M74 664Q118 769 187 769Q204 769 222 763T258 748T290 733T317 726Q333 726 349 736T384 779L426 760Q381 653 313 653Q296 653 278 659T242 674T210 689T183 696Q167 696 151 687T116 645L74 664Z" />
<glyph unicode="&#x2dd;" glyph-name="hungarumlaut" horiz-adv-x="500" d="M109 663L210 824L280 774L147 638L109 663ZM289 663L390 824L460 774L327 638L289 663Z" />
</font>
</defs>
</svg>
