<svg width="432" height="198" viewBox="0 0 432 198" xmlns="http://www.w3.org/2000/svg"><path id="a" fill="#00456E" d="M70.89 195.156h56.434v-2.78l-26.41-.278v-56.712h34.472v-3.058h-34.472V2.502h-3.058L0 132.328v3.058h97.3v56.712l-26.41.278v2.78zM3.892 132.328v-.278L97.022 8.618h.278v123.71H3.892z"/><path id="b" fill="#00456E" d="M215.352 197.658c46.148 0 71.168-36.974 71.168-98.968C286.52 36.696 261.5 0 215.352 0c-46.148 0-71.168 36.974-71.168 98.69 0 61.994 25.02 98.968 71.168 98.968zm0-3.058c-44.202 0-67.276-35.862-67.276-95.91 0-60.326 23.074-95.632 67.276-95.632s67.276 35.306 67.276 95.632c0 60.326-23.074 95.91-67.276 95.91z"/><path id="c" fill="#00456E" d="M366.96 195.156h56.434v-2.78l-26.41-.278v-56.712h34.472v-3.058h-34.472V2.502h-3.058L296.07 132.328v3.058h97.3v56.712l-26.41.278v2.78zm-66.998-62.828v-.278l93.13-123.432h.278v123.71h-93.408z"/></svg>
