<svg xmlns="http://www.w3.org/2000/svg" viewBox="0 0 416.5 198"><path d="M70.9 195.2h56.4v-2.8l-26.4-.3v-56.7h34.5v-3.1h-34.5V2.6h-3.1L0 132.4v3.1h97.3v56.7l-26.4.3zm-67-62.8v-.3L97 8.7h.3v123.7zM208.4 197.7c46.1 0 71.2-37 71.2-99S254.6 0 208.4 0s-71.2 37-71.2 98.7 25 99 71.2 99zm0-3.1c-44.2 0-67.3-35.9-67.3-95.9s23.1-95.6 67.3-95.6 67.3 35.3 67.3 95.6-23.1 95.9-67.3 95.9zM352 195.2h56.4v-2.8l-26.4-.3v-56.7h34.5v-3.1H382V2.6h-3.1l-97.8 129.8v3.1h97.3v56.7l-26.4.3zm-67-62.8v-.3L378.1 8.7h.3v123.7z" fill="#aabfc7"/></svg>
