<?xml version="1.0" encoding="utf-8"?>
<!-- Generator: Adobe Illustrator 19.0.0, SVG Export Plug-In . SVG Version: 6.00 Build 0)  -->
<svg version="1.1" id="Layer_1" xmlns="http://www.w3.org/2000/svg" xmlns:xlink="http://www.w3.org/1999/xlink" x="0px" y="0px"
	 viewBox="-204 496.5 416.5 198" style="enable-background:new -204 496.5 416.5 198;" xml:space="preserve">
<style type="text/css">
	.st0{fill:#00456E;}
</style>
<path id="a" class="st0" d="M-133.1,691.7h56.4v-2.8l-26.4-0.3v-56.7h34.5v-3.1h-34.5V499.1h-3.1L-204,628.9v3.1h97.3v56.7
	l-26.4,0.3V691.7z M-200.1,628.9v-0.3l93.1-123.4h0.3v123.7H-200.1z"/>
<path id="b" class="st0" d="M4.4,694.2c46.1,0,71.2-37,71.2-99c0-62-25-98.7-71.2-98.7s-71.2,37-71.2,98.7
	C-66.8,657.2-41.8,694.2,4.4,694.2z M4.4,691.1c-44.2,0-67.3-35.9-67.3-95.9c0-60.3,23.1-95.6,67.3-95.6s67.3,35.3,67.3,95.6
	S48.6,691.1,4.4,691.1L4.4,691.1z"/>
<path id="c" class="st0" d="M148,691.7h56.4v-2.8l-26.4-0.3v-56.7h34.5v-3.1H178V499.1h-3.1L77.1,628.9v3.1h97.3v56.7l-26.4,0.3
	V691.7z M81,628.9v-0.3l93.1-123.4h0.3v123.7H81L81,628.9z"/>
</svg>
