<svg class="theGuardian" xmlns="http://www.w3.org/2000/svg" viewBox="-260 565.5 318 60"><g class="the" fill="#AAD8F1"><path class="letter-e" d="M-195 595.5h18c0-13-5.1-16.9-13-16.9-9 0-15 6.2-15 16.4 0 10.5 5.5 16.2 15.8 16.2 5.6 0 9.7-2.7 11.2-4.7v-3c-2.1.7-3.9 1.2-7.7 1.2-5.6 0-9.3-3.2-9.3-9.2zm4.9-13.4c2.5 0 3.8 1.8 3.8 9.6l-8.4.7c.1-7.9 1.8-10.3 4.6-10.3z"/><path class="letter-h" d="M-223 610.5v-3l-3-1.5v-19.5c1.2-.9 3.2-1.7 4.8-1.7 2.8 0 4.3 1.6 4.2 4.2v17l-3 1.5v3h16v-3l-3-1.5v-19c0-5.7-3.3-8.3-7.7-8.3-4.1 0-8.6 1.3-11.3 3.8v-17h-1l-12 2v3l4 1.5v34l-3 1.5v3h15z"/><path class="letter-t" d="M-256 601.9c0 5.7 2.8 9.3 8.9 9.3 3.1 0 6.2-.8 8.1-2.3v-3.8c-.8.3-1.9.5-2.9.5-2.9 0-4.1-1.6-4.1-4.6v-16.5h7v-5h-7V572l-10 1.5v6l-4 1v4h4v17.4z"/></g><g class="guardian" fill="#FFF"><path class="letter-n" d="M55 606v-19c0-5.7-2.1-8.3-7.1-8.3-4.1 0-8.1 1.5-10.8 4v-4.2h-1l-12.4 2.2v2.7L27 585v21l-3 1.5v3h16v-3l-3-1.5v-20c1.2-.9 2.8-1.1 4.3-1.1 2.8 0 3.7.9 3.7 4.1v17l-3 1.5v3h16v-3l-3-1.5z"/><path class="letter-a2" d="M20 588.1c0-7-5.2-9.4-13.3-9.4-5.3 0-8.6 1.3-11.4 2.6v7.8H0l2-6c1.1-.4 2.3-.4 2.7-.4 3.9 0 5.3 2 5.3 5.9v3.5l-6.1 1.1c-5.9 1.1-10.4 2.9-10.4 9.3 0 5.1 3.5 8.7 8.3 8.7 3.8 0 7.4-1.7 8.7-4.4h.3c.5 3.3 3.3 4.4 6.4 4.4 2.4 0 4.8-.6 5.7-1.6v-2l-2.9-1.5v-18zM10 604s-1.9 1.6-3 1.6c-1.9 0-4-1.1-4-4.6 0-2.4 2.4-4.7 4.8-5l2.2-.5v8.5z"/><g class="letter-i"><path d="M-10 578.6h-1l-12 2v2.8l3 1.6v20.9l-3 1.5v3.1h16v-3.1l-3-1.5M-14.7 576.8c2.9 0 5.4-2.4 5.4-5.4-.1-3.1-2.5-5.5-5.4-5.5-3 0-5.4 2.4-5.4 5.5 0 3 2.4 5.4 5.4 5.4z"/></g><path class="letter-d" d="M-27 566.1h-1l-12.6 2v2.8l3.6 1.5v7.7c-1.2-.9-3.3-1.4-5-1.4-7.4 0-14.5 4.4-14.5 16.8 0 11.9 7.1 15.7 11.8 15.7 3.8 0 6.4-1.7 7.6-3.4h.3v3.3h.9l11.9-1.4v-2.3l-3-1.8v-39.5zm-10 38.4c-.7.6-1.7 1.1-3.2 1.1-4 0-5.9-3.3-5.9-10.9 0-8.7 2.4-11.6 5.6-11.6 1.8 0 2.8.6 3.5 1.4v20z"/><path class="letter-r" d="M-66 585v-6.5h-1l-12 2v3l3 1.5v20.9l-3 1.5v3.1h17v-3.1l-4-1.5v-16.3c1.8-1.4 4.1-1.9 6.8-1.9.9 0 1.6.2 2.2.3v-9c-.3-.1-.7-.2-1.2-.2-3.3 0-6 2.2-7.8 6.2z"/><path class="letter-a" d="M-83 606.1v-18c0-7-5.2-9.4-13.3-9.4-5.3 0-8.6 1.3-11.4 2.6v7.8h4.7l2-6c1.1-.4 2.3-.4 2.7-.4 3.9 0 5.3 2 5.3 5.9v3.5l-6.1 1.1c-5.9 1.1-10.4 2.9-10.4 9.3 0 5.1 3.5 8.7 8.3 8.7 3.8 0 7.4-1.7 8.7-4.4h.3c.5 3.3 3.3 4.4 6.4 4.4 2.4 0 4.8-.6 5.7-1.6v-2l-2.9-1.5zm-10-2.1s-1.9 1.6-3 1.6c-1.9 0-4-1.1-4-4.6 0-2.4 2.4-4.7 4.8-5l2.2-.5v8.5z"/><path class="letter-u" d="M-131.7 611.2c.4 0 .9 0 1.3-.1 3.5-.3 6.7-2 8.4-4.2v4.1l12-1.5v-2l-3-2v-27h-1l-12 2.3v2.7l4 1.7v18.3c-1.1.8-2.4 1.3-4.2 1.3-2.5 0-4.8-.8-4.8-4.3v-22h-1l-12 2.5v2.6l4 1.6v16.3c0 5.4 2.2 9.7 8.3 9.7z"/><path class="letter-g" d="M-153.5 603.5H-164c-1.2 0-2.5-.8-2.5-1.9 0-.8.6-1.7 1.4-2.3 1.6.5 3 .6 5 .6 7.8 0 13.2-3.7 13.2-10.4 0-3-1.3-4.6-3.2-6.4l5.1 1.4v-6l-8.2 1.6c-1.9-.7-4.5-1.6-7-1.6-7.8 0-13.2 4.1-13.2 10.8 0 4.1 2 7.1 5 8.8l.2.2c-1.7 1.2-5.3 4-5.3 7.2 0 2.4 1.5 4.8 4.8 5.5-3.4.8-7.3 2.5-7.3 6.5 0 4.1 5.9 8 15.5 8 11.8 0 16.5-5.7 16.5-13 0-6.1-2.8-9-9.5-9zM-160 582c2.2 0 3.5 2 3.5 7.5 0 5.7-1.3 6.5-3.5 6.5s-4-.8-4-6.5c0-5.8 1.8-7.5 4-7.5zm-.3 38.8c-5.5 0-7.8-2.2-7.7-4.4.1-1.5 1.1-3.4 3.7-3.6h8.6c2.5 0 3.7 2 3.7 3.6 0 3.2-2 4.4-8.3 4.4z"/><path class="letter-g" d="M-153.5 603.5H-164c-1.2 0-2.5-.8-2.5-1.9 0-.8.6-1.7 1.4-2.3 1.6.5 3 .6 5 .6 7.8 0 13.2-3.7 13.2-10.4 0-3-1.3-4.6-3.2-6.4l5.1 1.4v-6l-8.2 1.6c-1.9-.7-4.5-1.6-7-1.6-7.8 0-13.2 4.1-13.2 10.8 0 4.1 2 7.1 5 8.8l.2.2c-1.7 1.2-5.3 4-5.3 7.2 0 2.4 1.5 4.8 4.8 5.5-3.4.8-7.3 2.5-7.3 6.5 0 4.1 5.9 8 15.5 8 11.8 0 16.5-5.7 16.5-13 0-6.1-2.8-9-9.5-9zM-160 582c2.2 0 3.5 2 3.5 7.5 0 5.7-1.3 6.5-3.5 6.5s-4-.8-4-6.5c0-5.8 1.8-7.5 4-7.5zm-.3 38.8c-5.5 0-7.8-2.2-7.7-4.4.1-1.5 1.1-3.4 3.7-3.6h8.6c2.5 0 3.7 2 3.7 3.6 0 3.2-2 4.4-8.3 4.4z"/></g></svg>
