<?xml version="1.0" encoding="utf-8"?>
<!-- Generator: Adobe Illustrator 19.0.0, SVG Export Plug-In . SVG Version: 6.00 Build 0)  -->
<svg version="1.1" id="Layer_1" xmlns="http://www.w3.org/2000/svg" xmlns:xlink="http://www.w3.org/1999/xlink" x="0px" y="0px"
	 viewBox="-260 565.5 318 60" style="enable-background:new -260 565.5 318 60;" xml:space="preserve">
<style type="text/css">
	.st0{fill:#FFFFFF;}
	.st2{display:inline;fill:#AAD8F1;}
</style>
<g id="guardian">
	<path id="n" class="st0" d="M55,606v-19c0-5.7-2.1-8.3-7.1-8.3c-4.1,0-8.1,1.5-10.8,4v-4.2h-1l-12.4,2.2v2.7L27,585v21l-3,1.5v3h16
		v-3l-3-1.5v-20c1.2-0.9,2.8-1.1,4.3-1.1c2.8,0,3.7,0.9,3.7,4.1v17l-3,1.5v3h16v-3L55,606z"/>
	<path id="a2" class="st0" d="M20,588.1c0-7-5.2-9.4-13.3-9.4c-5.3,0-8.6,1.3-11.4,2.6v7.8H0l2-6c1.1-0.4,2.3-0.4,2.7-0.4
		c3.9,0,5.3,2,5.3,5.9v3.5l-6.1,1.1c-5.9,1.1-10.4,2.9-10.4,9.3c0,5.1,3.5,8.7,8.3,8.7c3.8,0,7.4-1.7,8.7-4.4h0.3
		c0.5,3.3,3.3,4.4,6.4,4.4c2.4,0,4.8-0.6,5.7-1.6v-2l-2.9-1.5V588.1z M10,604c0,0-1.9,1.6-3,1.6c-1.9,0-4-1.1-4-4.6
		c0-2.4,2.4-4.7,4.8-5l2.2-0.5V604z"/>
	<g id="i">
		<polygon id="body" class="st0" points="-10,578.6 -11,578.6 -23,580.6 -23,583.4 -20,585 -20,605.9 -23,607.4 -23,610.5 -7,610.5
			-7,607.4 -10,605.9 		"/>
		<path id="dot" class="st0" d="M-14.7,576.8c2.9,0,5.4-2.4,5.4-5.4c-0.1-3.1-2.5-5.5-5.4-5.5c-3,0-5.4,2.4-5.4,5.5
			C-20.1,574.4-17.7,576.8-14.7,576.8z"/>
	</g>
	<path id="d" class="st0" d="M-27,566.1h-1l-12.6,2v2.8l3.6,1.5v7.7c-1.2-0.9-3.3-1.4-5-1.4c-7.4,0-14.5,4.4-14.5,16.8
		c0,11.9,7.1,15.7,11.8,15.7c3.8,0,6.4-1.7,7.6-3.4h0.3v3.3h0.9l11.9-1.4v-2.3l-3-1.8V566.1z M-37,604.5c-0.7,0.6-1.7,1.1-3.2,1.1
		c-4,0-5.9-3.3-5.9-10.9c0-8.7,2.4-11.6,5.6-11.6c1.8,0,2.8,0.6,3.5,1.4V604.5z"/>
	<path id="r" class="st0" d="M-66,585v-6.5h-1l-12,2v3l3,1.5v20.9l-3,1.5v3.1h17v-3.1l-4-1.5v-16.3c1.8-1.4,4.1-1.9,6.8-1.9
		c0.9,0,1.6,0.2,2.2,0.3v-9c-0.3-0.1-0.7-0.2-1.2-0.2C-61.5,578.8-64.2,581-66,585z"/>
	<path id="a" class="st0" d="M-83,606.1v-18c0-7-5.2-9.4-13.3-9.4c-5.3,0-8.6,1.3-11.4,2.6v7.8h4.7l2-6c1.1-0.4,2.3-0.4,2.7-0.4
		c3.9,0,5.3,2,5.3,5.9v3.5l-6.1,1.1c-5.9,1.1-10.4,2.9-10.4,9.3c0,5.1,3.5,8.7,8.3,8.7c3.8,0,7.4-1.7,8.7-4.4h0.3
		c0.5,3.3,3.3,4.4,6.4,4.4c2.4,0,4.8-0.6,5.7-1.6v-2L-83,606.1z M-93,604c0,0-1.9,1.6-3,1.6c-1.9,0-4-1.1-4-4.6c0-2.4,2.4-4.7,4.8-5
		l2.2-0.5V604z"/>
	<path id="u" class="st0" d="M-131.7,611.2c0.4,0,0.9,0,1.3-0.1c3.5-0.3,6.7-2,8.4-4.2v4.1l12-1.5v-2l-3-2v-27h-1l-12,2.3v2.7l4,1.7
		v18.3c-1.1,0.8-2.4,1.3-4.2,1.3c-2.5,0-4.8-0.8-4.8-4.3v-22h-1l-12,2.5v2.6l4,1.6v16.3C-140,606.9-137.8,611.2-131.7,611.2z"/>
	<path id="g" class="st0" d="M-153.5,603.5H-164c-1.2,0-2.5-0.8-2.5-1.9c0-0.8,0.6-1.7,1.4-2.3c1.6,0.5,3,0.6,5,0.6
		c7.8,0,13.2-3.7,13.2-10.4c0-3-1.3-4.6-3.2-6.4l5.1,1.4v-6l-8.2,1.6c-1.9-0.7-4.5-1.6-7-1.6c-7.8,0-13.2,4.1-13.2,10.8
		c0,4.1,2,7.1,5,8.8l0.2,0.2c-1.7,1.2-5.3,4-5.3,7.2c0,2.4,1.5,4.8,4.8,5.5c-3.4,0.8-7.3,2.5-7.3,6.5c0,4.1,5.9,8,15.5,8
		c11.8,0,16.5-5.7,16.5-13C-144,606.4-146.8,603.5-153.5,603.5z M-160,582c2.2,0,3.5,2,3.5,7.5c0,5.7-1.3,6.5-3.5,6.5s-4-0.8-4-6.5
		C-164,583.7-162.2,582-160,582z M-160.3,620.8c-5.5,0-7.8-2.2-7.7-4.4c0.1-1.5,1.1-3.4,3.7-3.6h8.6c2.5,0,3.7,2,3.7,3.6
		C-152,619.6-154,620.8-160.3,620.8z"/>
    <path id="g" class="st0" d="M-153.5,603.5H-164c-1.2,0-2.5-0.8-2.5-1.9c0-0.8,0.6-1.7,1.4-2.3c1.6,0.5,3,0.6,5,0.6
    		c7.8,0,13.2-3.7,13.2-10.4c0-3-1.3-4.6-3.2-6.4l5.1,1.4v-6l-8.2,1.6c-1.9-0.7-4.5-1.6-7-1.6c-7.8,0-13.2,4.1-13.2,10.8
    		c0,4.1,2,7.1,5,8.8l0.2,0.2c-1.7,1.2-5.3,4-5.3,7.2c0,2.4,1.5,4.8,4.8,5.5c-3.4,0.8-7.3,2.5-7.3,6.5c0,4.1,5.9,8,15.5,8
    		c11.8,0,16.5-5.7,16.5-13C-144,606.4-146.8,603.5-153.5,603.5z M-160,582c2.2,0,3.5,2,3.5,7.5c0,5.7-1.3,6.5-3.5,6.5s-4-0.8-4-6.5
    		C-164,583.7-162.2,582-160,582z M-160.3,620.8c-5.5,0-7.8-2.2-7.7-4.4c0.1-1.5,1.1-3.4,3.7-3.6h8.6c2.5,0,3.7,2,3.7,3.6
    		C-152,619.6-154,620.8-160.3,620.8z"/>
</g>
<g id="the" class="st1">
	<path class="st2" d="M-195,595.5h18c0-13-5.1-16.9-13-16.9c-9,0-15,6.2-15,16.4c0,10.5,5.5,16.2,15.8,16.2c5.6,0,9.7-2.7,11.2-4.7
		v-3c-2.1,0.7-3.9,1.2-7.7,1.2C-191.3,604.7-195,601.5-195,595.5z M-190.1,582.1c2.5,0,3.8,1.8,3.8,9.6l-8.4,0.7
		C-194.6,584.5-192.9,582.1-190.1,582.1z"/>
	<path id="h" class="st2" d="M-223,610.5v-3l-3-1.5v-19.5c1.2-0.9,3.2-1.7,4.8-1.7c2.8,0,4.3,1.6,4.2,4.2v17l-3,1.5v3h16v-3l-3-1.5
		v-19c0-5.7-3.3-8.3-7.7-8.3c-4.1,0-8.6,1.3-11.3,3.8v-17h-1l-12,2v3l4,1.5v34l-3,1.5v3H-223z"/>
	<path id="t" class="st2" d="M-256,601.9c0,5.7,2.8,9.3,8.9,9.3c3.1,0,6.2-0.8,8.1-2.3v-3.8c-0.8,0.3-1.9,0.5-2.9,0.5
		c-2.9,0-4.1-1.6-4.1-4.6v-16.5h7v-5h-7V572l-10,1.5v6l-4,1v4h4V601.9z"/>
</g>
</svg>
