<svg xmlns="http://www.w3.org/2000/svg" viewBox="0 0 297 95"><path fill="#121212" d="M66.8 50.69l5.04-2.63V8.43h-3.81L58.7 20.79h-1.05l.58-13.78h40.46l.59 13.78h-1.12L89.03 8.43h-3.92v39.55l5.08 2.68V52H66.8v-1.31zm37.09-1.76V5L100 3.45v-.82L114.16.08h1.5v20.79l.39-.33A19 19 0 0 1 128.2 16c6.21 0 9 3.5 9 10v22.93l3.32 1.8V52h-18.59v-1.25l3.33-1.81V26c0-3.59-1.57-5-4.51-5a7.76 7.76 0 0 0-4.9 1.62V49l3.27 1.8V52h-18.56v-1.19zm48.31-13.48c.39 7.26 3.64 12.88 11.36 12.88 3.73 0 6.38-1.73 8.88-3v1.43A17.36 17.36 0 0 1 158.8 53c-12 0-18.08-6.64-18.08-18.14 0-11.24 6.69-18.24 17.5-18.24 10.17 0 15.44 5.07 15.44 18.43v.35zm-.2-1.67l10.53-.64c0-9-1.54-15-4.63-15-3.28 0-5.9 6.93-5.9 15.6M0 69.58c0-19.11 12.67-25.92 26.8-25.92 6 0 11.64 1 14.81 2.27l.28 13.34h-1.36l-8.29-12.91a12.18 12.18 0 0 0-5.24-.84c-7.51 0-11.34 8.66-11.22 22.85.14 17 3.1 24.69 10 24.69a10.71 10.71 0 0 0 4.13-.69V74.19l-4.55-2.6V70h22v1.69l-4.48 2.5v17.95A49.21 49.21 0 0 1 26.24 95C10.19 95 0 87.53 0 69.58m47.11-8.92v-1.1L61.89 57l1.62.13v29.03c0 3.5 1.69 4.58 4.52 4.58a6 6 0 0 0 4.79-2.26V62.42l-4.05-1.75v-1.15l14.78-2.6 1.49.14v33.31L89 92v1.1l-14.56 1.79-1.44-.13v-4.38h-.41A16.39 16.39 0 0 1 61.48 95c-7.09 0-10.33-4.18-10.33-10.51V62.42zm94.51-3.76l1.21.14v10.75h.34c1.58-7.89 5.06-10.79 9.31-10.79a4.7 4.7 0 0 1 1.82.27v11a12.62 12.62 0 0 0-3-.27 18.58 18.58 0 0 0-8 1.6v21.24l3.36 1.86V94h-19.22v-1.29l3.45-1.87v-29l-4-1.21v-1z"/><path d="M178.72 57.8V46.45l-4-1.42v-.91l14.92-2.74 1.41.2v48.78l4.13 1.49v1.25L180.42 95l-1.15-.13v-4h-.34a13.14 13.14 0 0 1-9.79 4.13c-8 0-13.91-6.13-13.91-18.66 0-13.21 6.82-19.7 17.14-19.7a14.65 14.65 0 0 1 6.34 1.15m0 31.22V59.88a5.45 5.45 0 0 0-4.08-1.27c-4 .14-6.45 6.15-6.45 16.87 0 9.63 1.77 15 7.09 14.84A5.23 5.23 0 0 0 178.7 89m32.82-32.14l1.28.13v33.85l3.37 1.86V94H197v-1.29l3.44-1.87V62.35l-4.12-1.62V59.6zm1.35-9.14a6.41 6.41 0 0 1-6.55 6.28 6.3 6.3 0 1 1 0-12.6 6.46 6.46 0 0 1 6.55 6.33m46.34 43.11V62l-4.05-1.42v-1.4l14.71-2.74 1.49.13v4.31h.4a19.44 19.44 0 0 1 12.56-4.65c6.41 0 9.25 3 9.25 9.77v24.79L297 92.7V94h-19.16v-1.29l3.44-1.87V66.73c0-3.7-1.62-5.19-4.66-5.19a8.06 8.06 0 0 0-5.06 1.61v27.68l3.38 1.87V94h-19.18v-1.29zm-21.26-18.1v-4.83c0-7.28-1.59-9.66-6.1-9.66a11.82 11.82 0 0 0-1.53.13l-8 10.85h-1.13v-10a43.28 43.28 0 0 1 13.46-2.32c9.81 0 15.52 2.71 15.52 10.92V91.4l3.51.93v.93a15.08 15.08 0 0 1-7.23 1.65c-4.84 0-7.16-1.59-8.22-4.24h-.33c-2.06 2.78-5 4.37-9.55 4.37-5.84 0-9.81-3.64-9.81-9.93 0-6.09 3.78-9.4 11.47-10.85zm0 16.28V74.46l-2.45.2c-3.85.33-5.24 2.78-5.24 8.21 0 5.89 1.92 7.41 4.64 7.41a3.57 3.57 0 0 0 3-1.26M109.69 72.74v-4.83c0-7.28-1.59-9.66-6.1-9.66a11.79 11.79 0 0 0-1.53.13L94 69.23h-1.09v-10a43.29 43.29 0 0 1 13.46-2.32c9.81 0 15.52 2.71 15.52 10.92V91.4l3.51.93v.93a15.08 15.08 0 0 1-7.23 1.65c-4.84 0-7.16-1.59-8.22-4.24h-.33c-2.06 2.78-5 4.37-9.55 4.37-5.83 0-9.81-3.64-9.81-9.93 0-6.09 3.78-9.4 11.47-10.85zm0 16.28V74.46l-2.45.2c-3.85.33-5.24 2.78-5.24 8.21 0 5.89 1.92 7.41 4.64 7.41a3.57 3.57 0 0 0 3-1.26" fill="#121212"/></svg>
