<svg data-name="The Guardian" viewBox="0 0 295 97" xmlns="http://www.w3.org/2000/svg">
  <path fill="#121212" d="M66.92 51.66L72.06 49V8.57h-3.89l-9.5 12.6H57.6L58.2 7h41.18l.6 14.18h-1.14l-9.3-12.6h-4V48.9l5.17 2.73V53H66.92zM104 49.88V5.09l-4-1.6v-.83L114.42 0H116v21.26l.34-.34a19.27 19.27 0 0 1 12.37-4.59c6.32 0 9.11 3.57 9.11 10.22v23.33l3.38 1.84V53h-18.87v-1.28l3.39-1.85v-23.4c0-3.66-1.6-5.12-4.59-5.12a7.89 7.89 0 0 0-5 1.65v26.94l3.33 1.84V53h-18.88v-1.22z M151.46 36.12c.39 7.4 3.71 13.13 11.57 13.13 3.8 0 6.5-1.76 9-3.1v1.46a17.66 17.66 0 0 1-13.88 6.46c-12.18 0-18.4-6.77-18.4-18.49 0-11.46 6.81-18.6 17.81-18.6 10.35 0 15.72 5.17 15.72 18.8v.35zm-.2-1.71l10.74-.65c0-9.17-1.57-15.26-4.72-15.26-3.36.01-6.02 7.08-6.02 15.92zM-.08 70.93c0-19.49 12.9-26.43 27.27-26.43 6.1 0 11.85 1 15.07 2.31l.28 13.6h-1.37l-8.43-13.16a12.37 12.37 0 0 0-5.34-.86c-7.64 0-11.55 8.83-11.42 23.3.14 17.31 3.15 25.18 10.16 25.18a10.86 10.86 0 0 0 4.21-.7V75.63L25.72 73v-1.58h22.36v1.66l-4.56 2.55v18.3a50 50 0 0 1-16.9 2.87c-16.33 0-26.7-7.57-26.7-25.87z M46 61.84v-1.13l15-2.65 1.65.14v29.64c0 3.57 1.72 4.67 4.6 4.67a6.14 6.14 0 0 0 4.88-2.3V63.62l-4.12-1.79v-1.16l15-2.65 1.51.14v34l4.05 1.7v1.08l-14.71 1.8-1.51-.14v-4.47h-.41a16.67 16.67 0 0 1-11.27 4.74c-7.21 0-10.51-4.26-10.51-10.72V63.62zM140.27 58l1.24.14v11h.34c1.61-8 5.15-11 9.48-11a4.78 4.78 0 0 1 1.85.28v11.14a12.85 12.85 0 0 0-3.09-.27 18.88 18.88 0 0 0-8.18 1.63v21.69l3.42 1.9V96h-19.5v-1.48l3.51-1.91V63l-4.12-1.23v-1zm37.73.92V47.35l-4.12-1.44V45l15.18-2.79 1.44.21v49.69l4.19 1.52v1.28l-15 2-1.17-.14v-4.09h-.34a13.36 13.36 0 0 1-10 4.19c-8.18 0-14.15-6.25-14.15-19 0-13.47 6.94-20.09 17.45-20.09a14.89 14.89 0 0 1 6.52 1.14zm0 31.83V61a5.55 5.55 0 0 0-4.15-1.29c-4.06.14-6.57 6.27-6.57 17.2 0 9.82 1.8 15.32 7.21 15.13a5.33 5.33 0 0 0 3.51-1.29zM211.14 58l1.3.14v34.47l3.43 1.9V96h-19.5v-1.48l3.5-1.91V63.55l-4.19-1.65v-1.15zm1.37-9.32a6.53 6.53 0 0 1-6.66 6.32 6.43 6.43 0 1 1 0-12.85 6.58 6.58 0 0 1 6.66 6.49zm43.79 43.93V63.23l-4.12-1.44v-1.42l15-2.79 1.51.14v4.4h.41a19.76 19.76 0 0 1 12.78-4.74c6.53 0 9.41 3.09 9.41 10v25.17l3.5 2V96h-19.53v-1.48l3.5-1.91V68c0-3.78-1.65-5.29-4.74-5.29a8.19 8.19 0 0 0-5.15 1.64V92.6l3.44 1.9V96H252.8v-1.48z M235.08 74.15v-4.93c0-7.42-1.62-9.85-6.21-9.85a12 12 0 0 0-1.55.14l-8.17 11.07H218v-10.2A44 44 0 0 1 231.71 58c10 0 15.79 2.77 15.79 11.14v24l3.58.94v.94a15.33 15.33 0 0 1-7.36 1.69c-4.93 0-7.29-1.62-8.37-4.32H235c-2.09 2.83-5.06 4.45-9.72 4.45-5.94 0-10-3.71-10-10.12 0-6.21 3.85-9.58 11.68-11.07zm0 16.6V75.9l-2.5.2c-3.92.34-5.33 2.84-5.33 8.37 0 6 2 7.56 4.72 7.56a3.63 3.63 0 0 0 3.11-1.28zm-126.61-16.6v-4.93c0-7.42-1.62-9.85-6.21-9.85a12 12 0 0 0-1.55.14l-8.17 11.06H91.4V60.38A44 44 0 0 1 105.1 58c10 0 15.79 2.77 15.79 11.14v24l3.58.94v.94a15.33 15.33 0 0 1-7.36 1.69c-4.93 0-7.29-1.62-8.37-4.32h-.34c-2.09 2.83-5.06 4.45-9.72 4.45-5.94 0-10-3.71-10-10.12 0-6.21 3.85-9.58 11.68-11.07zm0 16.6V75.9l-2.5.2c-3.92.34-5.33 2.84-5.33 8.37 0 6 2 7.56 4.72 7.56a3.63 3.63 0 0 0 3.11-1.28z"/>
</svg>
