<svg width="32" height="32" viewBox="0 0 32 32"><g fill="#fb0"><path d="M28.1 13.6h3.8l.1-1.7-3.8-.5zM21.6 3.9V.1L19.9 0l-.5 3.8zM15.4 5.2l-2.7-2.7-1.2 1.1 2.3 3zM26.8 7.4l2.7-2.7-1.1-1.2-3 2.3zM16.8 9c.1-.1 1.4-1.5 3.5-1.4 2.4.1 4.2 2.3 4.1 4.7 0 .7-.3 1.3-.6 1.8 0 .1.1.1.1.1.7-.3 1.5-.4 2.3-.4.1-.4.2-1 .3-1.5.2-3.6-2.5-6.7-6.1-6.9-2.1-.1-4 .7-5.3 2.1.7.5 1.2 1 1.7 1.5"/></g><path fill="#767676" d="M16.7 14.6c0-.1 0-.1 0 0z"/><circle fill="#4BC6DF" cx="12.7" cy="24.4" r="1.8"/><circle fill="#4BC6DF" cx="18.5" cy="24.4" r="1.8"/><circle fill="#4BC6DF" cx="15.6" cy="30.2" r="1.8"/><circle fill="#4BC6DF" cx="9.8" cy="30.2" r="1.8"/><path fill="#767676" d="M26.2 13.8c-.8 0-1.5.1-2.3.4-1.4-1.5-3.4-2.3-5.4-2.3-1-3.2-3.8-5.5-7.1-5.5-4.3 0-7.7 3.4-7.7 7.6C1.6 15 0 17.2 0 19.5c0 3.2 2.6 5.8 5.8 5.8H8l1.1-2.2H5.8c-2 0-3.6-1.6-3.6-3.6 0-1.7 1.3-3.2 2.9-3.6l.7 1.5.9-.3c-.4-1-.7-1.9-.7-3 0-3 2.5-5.5 5.5-5.5 3.1 0 5.3 2.8 5.3 5.8 2.6-1.1 5.8.2 6.5 2.9.7-.9 1.8-1.5 2.9-1.5 2 0 3.6 1.6 3.6 3.6S28.2 23 26.2 23h-2.9l-1.1 2.2h4c3.2 0 5.8-2.6 5.8-5.8 0-3-2.6-5.6-5.8-5.6z"/></svg>
