<svg width="32" height="32" viewBox="0 0 32 32"><g fill="#fb0"><path d="M28.072 13.6l3.856-.036.072-1.637-3.782-.51zM21.6 3.927L21.564.073 19.928 0l-.51 3.782zM15.418 5.164l-2.764-2.69-1.2 1.09 2.328 3.018zM26.837 7.418l2.69-2.764-1.09-1.2-3.02 2.328zM16.8 9.018c.132-.14 1.438-1.51 3.49-1.382 2.4.15 4.225 2.252 4.073 4.654-.042.675-.27 1.264-.58 1.818.046.05.1.094.145.146.743-.31 1.542-.44 2.345-.433.125-.44.244-.99.273-1.457.224-3.6-2.508-6.684-6.11-6.91-2.057-.127-4.017.73-5.31 2.147.63.38 1.183.874 1.674 1.418"/></g><path fill="#BDBDBD" d="M26.182 13.818c-.77 0-1.542.14-2.254.437-1.353-1.528-3.352-2.345-5.383-2.254-.998-3.172-3.817-5.454-7.126-5.454-4.253 0-7.71 3.426-7.71 7.636-2.15.955-3.71 3.17-3.71 5.455 0 3.207 2.61 5.818 5.818 5.818H26.18c3.214 0 5.82-2.605 5.82-5.818 0-3.214-2.605-5.82-5.818-5.82zM5.818 23.273c-2.035 0-3.637-1.627-3.637-3.637 0-1.67 1.35-3.21 2.91-3.637l.655 1.455.873-.29c-.36-.978-.727-1.92-.727-2.984 0-3.01 2.472-5.453 5.528-5.453 3.052 0 5.308 2.807 5.308 5.818 2.566-1.12 5.762.188 6.546 2.91.67-.893 1.796-1.455 2.91-1.455 2.01 0 3.637 1.627 3.637 3.637 0 2.008-1.63 3.637-3.638 3.637H5.818z"/></svg>
