<svg width="32" height="32" viewBox="0 0 32 32"><g fill="#FEBB12"><path d="M16 10.2c3.2 0 5.8 2.6 5.8 5.8s-2.6 5.8-5.8 5.8-5.8-2.6-5.8-5.8 2.6-5.8 5.8-5.8zm0-2.9c-4.8 0-8.7 3.9-8.7 8.7 0 4.8 3.9 8.7 8.7 8.7 4.8 0 8.7-3.9 8.7-8.7 0-4.8-3.9-8.7-8.7-8.7zM26.9 17.5l5.1-.4v-2.2l-5.1-.4zM5.1 14.5l-5.1.4v2.2l5.1.4zM14.5 26.9l.4 5.1h2.2l.4-5.1zM17.5 5.1L17.1 0h-2.2l-.4 5.1zM22.7 24.7l3.8 3.4 1.6-1.6-3.4-3.8zM9.3 7.3L5.5 3.9 3.9 5.5l3.4 3.8zM7.3 22.7l-3.4 3.8 1.6 1.6 3.8-3.4zM24.7 9.3l3.4-3.8-1.6-1.6-3.8 3.4z"/></g></svg>
