<svg width="32" height="32" viewBox="0 0 32 32"><path fill="#BDBDBD" d="M32 19.6c0-3.2-2.6-5.8-5.8-5.8-.8 0-1.5.1-2.3.4-1.4-1.5-3.4-2.3-5.4-2.3-1-3.2-3.8-5.5-7.1-5.5-4.3 0-7.7 3.4-7.7 7.6C1.6 15 0 17.2 0 19.5c0 3.2 2.6 5.8 5.8 5.8h7c.7 1.3 1.9 2.2 3.4 2.2h8.5c1.5 0 2.8-1.1 3.3-2.5 2.3-.7 4-2.8 4-5.4zM24.7 26h-8.5c-1.3 0-2.3-1.1-2.3-2.5s1-2.5 2.3-2.5c.5 0 .9.1 1.2.4.5-1.2 1.6-2.1 2.9-2.1 1.5 0 2.8 1.2 3.1 2.8.4-.3.8-.5 1.3-.5 1.1 0 2.1 1 2.1 2.3s-.9 2.1-2.1 2.1zm3.5-3.4c-.4-1.7-1.8-2.9-3.5-2.9-.2 0-.3 0-.5.1-.8-1.4-2.2-2.3-3.9-2.3-1.4 0-2.6.6-3.5 1.7-.2 0-.4-.1-.7-.1-2.2 0-3.8 2-3.9 4.1H5.8c-2 0-3.6-1.6-3.6-3.6 0-1.7 1.3-3.2 2.9-3.6l.7 1.5.9-.3c-.4-1-.7-1.9-.7-3 0-3 2.5-5.5 5.5-5.5 3.1 0 5.3 2.8 5.3 5.8 2.6-1.1 5.8.2 6.5 2.9.7-.9 1.8-1.5 2.9-1.5 2 0 3.6 1.6 3.6 3.6 0 1.4-.6 2.5-1.6 3.1z"/></svg>
