<svg width="32" height="32" viewBox="0 0 32 32"><path fill="#BDBDBD" d="M16.7 28.4l5.1-5.1h-2.9l-3.6 5.1z"/><path fill="#767676" d="M16.7 14.6c0-.1 0-.1 0 0z"/><circle fill="#4BC6DF" cx="15.3" cy="30.5" r="1.5"/><circle fill="#4BC6DF" cx="3.6" cy="29.1" r="1.5"/><path fill="#BDBDBD" d="M14.5 20.4L8.1 30.6l-2.3-.8-.7.7L7.3 32h1.4l8.8-11.6z"/><path fill="#767676" d="M26.2 13.8c-.8 0-1.5.1-2.3.4-1.4-1.5-3.4-2.3-5.4-2.3-1-3.2-3.8-5.5-7.1-5.5-4.3 0-7.7 3.4-7.7 7.6C1.6 15 0 17.2 0 19.5c0 3.2 2.6 5.8 5.8 5.8h3l1.4-2.2H5.8c-2 0-3.6-1.6-3.6-3.6 0-1.7 1.3-3.2 2.9-3.6l.7 1.5.9-.3c-.4-1-.7-1.9-.7-3 0-3 2.5-5.5 5.5-5.5 3.1 0 5.3 2.8 5.3 5.8 2.6-1.1 5.8.2 6.5 2.9.7-.9 1.8-1.5 2.9-1.5 2 0 3.6 1.6 3.6 3.6S28.2 23 26.2 23h-1.3l-2.2 2.2h3.5c3.2 0 5.8-2.6 5.8-5.8 0-3-2.6-5.6-5.8-5.6z"/></svg>
