<svg width="32" height="32" viewBox="0 0 32 32"><path fill="#BFB59F" d="M9.3 7.8v.4c0 4.1 1.4 7.7 4.1 10.4 2.7 2.7 6.4 4.1 10.4 4.1h.4c-2 2.2-4.8 3.4-7.9 3.4-5.8 0-10.5-4.6-10.5-10.4 0-3.1 1.3-6 3.5-7.9zm2.8-4.2C7 5.2 3.6 10 3.6 15.7c0 7 5.4 12.8 12.4 12.8 5.6 0 10.8-3.5 12.4-8.6h-1.2c-1.1.3-2.3.8-3.5.8-7 0-12.4-5.5-12.4-12.5 0-1.2.5-2.3.8-3.4V3.6z"/><path fill="#BDBDBD" d="M2 16.8l13.2.8v2.3H2zM2 7.4l13.2.8v2.4H2zM2 26.1l13.2.8v2.3H2zM30 2.8l-13.2.8v2.3H30zM30 12.1l-13.2.8v2.3H30zM30 21.4l-13.2.8v2.4H30z"/></svg>
