<svg width="32" height="32" viewBox="0 0 32 32"><path fill="#767676" d="M16.7 14.6c0-.1 0-.1 0 0z"/><circle fill="#4BC6DF" cx="18.5" cy="24.4" r="1.8"/><circle fill="#4BC6DF" cx="9.8" cy="30.2" r="1.8"/><path fill="#767676" d="M26.2 13.8c-.8 0-1.5.1-2.3.4-1.4-1.5-3.4-2.3-5.4-2.3-1-3.2-3.8-5.5-7.1-5.5-4.3 0-7.7 3.4-7.7 7.6C1.6 15 0 17.2 0 19.5c0 3.2 2.6 5.8 5.8 5.8H8l1.1-2.2H5.8c-2 0-3.6-1.6-3.6-3.6 0-1.7 1.3-3.2 2.9-3.6l.7 1.5.9-.3c-.4-1-.7-1.9-.7-3 0-3 2.5-5.5 5.5-5.5 3.1 0 5.3 2.8 5.3 5.8 2.6-1.1 5.8.2 6.5 2.9.7-.9 1.8-1.5 2.9-1.5 2 0 3.6 1.6 3.6 3.6S28.2 23 26.2 23h-2.9l-1.1 2.2h4c3.2 0 5.8-2.6 5.8-5.8 0-3-2.6-5.6-5.8-5.6z"/><path fill="#BDBDBD" d="M14.9 24.3l-.7-1.3-1.2 1.1.5-1.6H12l.4 1.6-1.1-1.1-.8 1.3 1.6.4-1.6.5.8 1.3 1.1-1.2-.4 1.6h1.5l-.5-1.6 1.2 1.2.7-1.3-1.5-.5zM17.8 29.4l-.7-1.3-1.2 1.1.5-1.6h-1.5l.4 1.6-1.1-1.1-.7 1.3 1.5.4-1.5.5.7 1.3 1.1-1.2-.4 1.6h1.5l-.5-1.6 1.2 1.2.7-1.3-1.5-.5z"/></svg>
