<svg width="32" height="32" viewBox="0 0 32 32"><path fill="#767676" d="M16.7 14.2z"/><path fill="#BDBDBD" d="M20.4 26.3L19 23.8l-2.3 2.4.7-3.3h-2.8l.7 3.3-2.3-2.3-1.4 2.4 3.2 1-3.2.9 1.4 2.5 2.3-2.3-.7 3.2h2.8l-.7-3.2 2.3 2.3 1.4-2.5-3.2-.9z"/><path fill="#767676" d="M26.2 13.5c-.8 0-1.5.1-2.3.4-1.4-1.5-3.4-2.3-5.4-2.3-1-3.2-3.8-5.5-7.1-5.5-4.3 0-7.7 3.4-7.7 7.6C1.6 14.8 0 17 0 19.3c0 3.2 2.6 5.8 5.8 5.8h4l1.2-2.2H5.8c-2 0-3.6-1.6-3.6-3.6 0-1.7 1.4-3.2 2.9-3.6l.7 1.5.9-.3c-.4-1-.7-1.9-.7-3 0-3 2.5-5.5 5.5-5.5 3.1 0 5.3 2.8 5.3 5.8 2.6-1.1 5.8.2 6.5 2.9.7-.9 1.8-1.5 2.9-1.5 2 0 3.6 1.6 3.6 3.6s-1.6 3.6-3.6 3.6H21l1.2 2.2h4c3.2 0 5.8-2.6 5.8-5.8s-2.6-5.7-5.8-5.7z"/><path fill="#BFB59F" d="M17.2 9.1c-.1-.3-.1-.7-.1-1.1 0-1.9.8-3.7 2.2-4.9v.2c0 2.5.9 4.8 2.6 6.5 1.7 1.7 4 2.6 6.5 2.6h.2c-.4.5-.9.8-1.5 1.2.6.1 1.2.3 1.7.6 1.1-.9 1.9-2.2 2.4-3.6h-.7c-.7.2-1.4.4-2.2.4-4.4 0-7.6-3.2-7.6-7.6 0-.8.2-1.5.4-2.2V.4c-3.1 1-5.3 3.8-5.5 7.2.6.4 1.1.9 1.6 1.5z"/></svg>
