<svg width="32" height="32" viewBox="0 0 32 32"><path fill="#ddd" d="M9.5 0h7.4l1.5 1.5v16.9C20 19.9 21 22 21 24.2c0 4.3-3.5 7.8-7.8 7.8s-7.8-3.5-7.8-7.8c0-2.2 1-4.3 2.6-5.8V1.5L9.5 0zM11 3v16.9c-1.5 1.1-2.6 2.4-2.6 4.3 0 2.7 2.2 4.8 4.8 4.8s4.8-2.2 4.8-4.8c0-1.9-1.1-3.2-2.6-4.3V3H11z"/><path fill="#EA6911" d="M14 20.9V4.5h-1.5v16.4c-1.3.3-2.2 1.5-2.2 2.9 0 1.6 1.3 3 3 3s3-1.3 3-3c-.1-1.4-1.1-2.6-2.3-2.9zM19.9 10.4h4.5v.8l-4.5.7zM19.9 13.4h4.5v.7l-4.5.8zM19.9 16.4h4.5v.7l-4.5.8zM19.9 4.5h6.7v.7l-6.7.8zM19.9 7.4h4.5v.8l-4.5.7z"/></svg>
