<?xml version="1.0" standalone="no"?> <!DOCTYPE svg PUBLIC "-//W3C//DTD SVG 1.0//EN" "http://www.w3.org/TR/2001/REC-SVG-20010904/DTD/svg10.dtd" > <svg xmlns="http://www.w3.org/2000/svg" width="100%" height="100%">
<defs >
<font id="GuardianEgyptianWeb-RegularItalic" horiz-adv-x="501" ><font-face
    font-family="GuardianEgyptianWeb"
    units-per-em="1000"
    panose-1="2 6 5 3 5 5 3 13 8 3"
    ascent="790"
    descent="-210"
    alphabetic="0" />
<missing-glyph horiz-adv-x="500" />
<glyph unicode=" " glyph-name="space" horiz-adv-x="195" />
<glyph unicode="!" glyph-name="exclam" horiz-adv-x="249" d="M182 693H287L136 190H81L182 693ZM70 -13Q45 -13 31 3T16 40Q16 68 35 85T79 103Q104 103 118 87T133 50Q133 23 114 5T70 -13Z" />
<glyph unicode="&quot;" glyph-name="quotedbl" horiz-adv-x="373" d="M329 693H433L356 488H296L329 693ZM170 693H274L197 488H137L170 693Z" />
<glyph unicode="#" glyph-name="numbersign" horiz-adv-x="503" d="M116 496H206L269 693H329L266 496H382L445 693H505L442 496H526L504 408H414L378 296H463L441 208H350L283 0H223L289 208H174L107 0H47L113 208H31L53 296H141L177 408H94L116 496ZM202 296H317L353
408H238L202 296Z" />
<glyph unicode="$" glyph-name="dollar" horiz-adv-x="493" d="M79 -117L118 -7Q75 -2 43 7T-13 29L14 177H62L71 76Q85 67 101 61T138 50L237 329L206 348Q161 375 134 410T106 500Q106 539 122 576T169 641T245 687T349 705Q354 705 359 705T369 704L391 765H450L426
699Q460 693 483 685T522 669L503 539H456L446 622Q439 627 429 631T405 640L317 391L341 377Q365 363 385 348T421 314T445 272T454 218Q454 174 437 133T387 60T304 9T188 -11H175L138 -117H79ZM197 46Q237 46 268 58T321 90T353 137T364 194Q364 228 345 251T285
299L195 46H197ZM193 522Q193 486 212 464T268 420L269 419L349 648H338Q274 648 234 614T193 522Z" />
<glyph unicode="%" glyph-name="percent" horiz-adv-x="825" d="M224 323Q164 323 125 360T86 463Q86 514 105 558T154 635T221 686T297 705Q357 705 395 669T433 565Q433 514 415 470T368 393T301 342T224 323ZM580 -12Q520 -12 481 25T442 128Q442 179 461 223T510
300T577 351T653 370Q713 370 751 334T789 230Q789 179 771 135T724 58T657 7T580 -12ZM711 713H783L152 -40H80L711 713ZM229 370Q266 370 295 402Q307 415 317 437T334 484T346 536T351 583Q351 618 338 638T292 658Q258 658 231 631Q218 618 207 596T187 548T173
495T168 446Q168 412 182 391T229 370ZM585 35Q622 35 651 67Q663 80 673 102T690 149T702 201T707 248Q707 283 694 303T648 323Q614 323 587 296Q574 283 563 261T543 213T529 160T524 111Q524 77 538 56T585 35Z" />
<glyph unicode="&amp;" glyph-name="ampersand" horiz-adv-x="660" d="M200 -11Q155 -11 120 1T61 33T25 82T12 144Q12 298 215 387Q201 415 193 444T185 505Q185 549 202 585T248 648T313 690T387 705Q452 705 490 671T529 582Q529 544 513 514T469 458T405 414T326
378L444 173Q469 205 488 240T522 310L456 330L467 371H669L659 331L588 311Q566 264 538 217T471 126L510 60L589 41L579 0H438L402 61Q360 28 310 9T200 -11ZM115 160Q115 137 122 117T143 82T180 58T233 49Q274 49 310 63T378 103L237 347Q170 311 143 263T115
160ZM439 582Q439 612 423 630T378 649Q356 649 338 638T306 609T286 566T278 515Q278 488 285 464T305 417Q371 443 405 482T439 582Z" />
<glyph unicode="&apos;" glyph-name="quotesingle" horiz-adv-x="214" d="M170 693H274L197 488H137L170 693Z" />
<glyph unicode="(" glyph-name="parenleft" horiz-adv-x="311" d="M170 -141Q148 -114 125 -81T83 -8T52 81T40 185Q40 285 73 371T158 528T272 653T391 745L416 713Q357 665 306 607T217 478T157 326T135 151Q135 67 156 4T209 -113L170 -141Z" />
<glyph unicode=")" glyph-name="parenright" horiz-adv-x="311" d="M169 745Q191 718 214 685T256 612T287 523T299 419Q299 318 266 232T181 76T67 -49T-52 -141L-77 -109Q-18 -61 33 -3T122 126T182 278T204 453Q204 537 183 600T130 717L169 745Z" />
<glyph unicode="*" glyph-name="asterisk" horiz-adv-x="364" d="M229 511L118 449L97 510L220 545L121 601L170 655L245 576L256 693H331L282 573L395 636L416 575L292 539L392 484L343 429L266 508L256 394H181L229 511Z" />
<glyph unicode="+" glyph-name="plus" horiz-adv-x="526" d="M82 371H254V550H320V371H492V309H320V130H254V309H82V371Z" />
<glyph unicode="," glyph-name="comma" horiz-adv-x="221" d="M-39 -104Q-19 -56 -3 -7T25 101H129Q112 44 86 -7T22 -104H-39Z" />
<glyph unicode="-" glyph-name="hyphen" horiz-adv-x="302" d="M61 326H281L262 248H42L61 326Z" />
<glyph unicode="." glyph-name="period" horiz-adv-x="221" d="M56 -15Q30 -15 13 2T-4 40Q-4 73 17 92T64 111Q90 111 107 95T124 53Q124 23 103 4T56 -15Z" />
<glyph unicode="/" glyph-name="slash" horiz-adv-x="334" d="M362 733H431L-18 -120H-87L362 733Z" />
<glyph unicode="0" glyph-name="zero" horiz-adv-x="613" d="M255 -13Q209 -13 171 1T104 45T61 118T45 220Q45 314 73 402T149 557T264 664T407 705Q453 705 492 691T559 647T602 573T618 470Q618 375 591 288T514 134T399 27T255 -13ZM264 42Q342 42 400 113Q424
142 446 189T485 291T513 401T523 502Q523 572 493 611T398 650Q320 650 261 570Q238 539 217 493T178 394T151 289T141 193Q141 120 170 81T264 42Z" />
<glyph unicode="1" glyph-name="one" horiz-adv-x="378" d="M-8 41L99 58L234 598L114 584L124 625L334 702H360L199 58L298 41L288 0H-18L-8 41Z" />
<glyph unicode="2" glyph-name="two" horiz-adv-x="494" d="M81 83V81H428L403 0H-43L-31 49L187 223Q239 264 282 303T356 380T404 457T422 539Q422 587 394 618T305 650Q278 650 256 640T219 619L195 526H130Q125 532 118 545T110 576Q110 604 126 627T172 668T242
695T330 705Q370 705 405 695T467 664T508 615T524 548Q524 502 506 461T451 376T356 286T220 183L81 83Z" />
<glyph unicode="3" glyph-name="three" horiz-adv-x="493" d="M289 650Q258 650 239 641T205 620L185 541H127Q122 548 115 561T108 590Q108 614 124 635T167 671T232 696T313 705Q400 705 447 664T494 559Q494 520 481 489T446 435T393 395T326 368V364Q351 359
373 347T412 317T438 275T448 219Q448 166 425 124T363 51T274 5T168 -11Q95 -11 49 7T-27 45L-15 93Q18 79 57 67T146 54Q188 54 224 65T287 97T329 151T345 227Q345 282 310 307T209 332H165L180 392H223Q262 392 294 402T349 432T384 483T397 553Q397 595 372
622T289 650Z" />
<glyph unicode="4" glyph-name="four" horiz-adv-x="570" d="M187 41L285 58L321 199H8L23 259L459 693H540L433 264H545L529 199H417L381 58L471 41L461 0H177L187 41ZM337 264L412 565H408L110 267V264H337Z" />
<glyph unicode="5" glyph-name="five" horiz-adv-x="483" d="M152 -10Q89 -10 45 7T-30 47L-18 93Q16 77 51 66T140 55Q183 55 220 67T284 104T326 163T342 243Q342 299 311 331T210 364Q177 364 145 360T89 350L194 693H537L507 610H230L170 415Q187 420 209
424T263 428Q303 428 336 416T393 382T429 329T442 259Q442 202 422 153T364 68T273 11T152 -10Z" />
<glyph unicode="6" glyph-name="six" horiz-adv-x="553" d="M244 -12Q147 -12 94 45T40 202Q40 263 56 325T100 443T162 546T236 623Q286 663 342 683T454 704Q504 704 535 692T586 666L574 617Q554 627 525 634T459 642Q420 642 379 627T300 578T228 493T171
368Q209 393 251 409T347 425Q429 425 474 382T520 270Q520 218 501 168T447 77T360 13T244 -12ZM250 42Q291 42 322 60T374 109T405 177T416 255Q416 312 388 336T303 361Q260 361 226 350T158 318Q150 291 143 252T136 179Q136 150 142 125T163 82T198 53T250
42Z" />
<glyph unicode="7" glyph-name="seven" horiz-adv-x="479" d="M493 607V611H185L141 535H94L139 693H575L557 622L140 0H30L493 607Z" />
<glyph unicode="8" glyph-name="eight" horiz-adv-x="556" d="M239 -13Q186 -13 145 -1T76 34T32 85T17 148Q17 194 36 228T85 288T151 329T221 356Q170 385 151 423T132 506Q132 548 150 584T200 647T275 689T370 705Q417 705 453 693T513 661T550 614T563 555Q563
516 548 486T509 432T452 394T387 368Q447 336 475 295T503 198Q503 152 485 113T432 46T348 3T239 -13ZM247 42Q323 42 362 83T402 185Q402 231 373 262T270 329Q237 318 208 303T156 267T120 217T107 150Q107 104 139 73T247 42ZM335 395Q395 415 433 453T472
556Q472 601 443 625T365 650Q299 650 263 613T226 518Q226 477 249 449T335 395Z" />
<glyph unicode="9" glyph-name="nine" horiz-adv-x="553" d="M359 705Q456 705 509 648T563 491Q563 428 551 368T516 254T461 154T391 74Q341 29 284 9T155 -11Q101 -11 69 1T17 27L29 76Q49 66 79 59T150 51Q192 51 233 64T312 110T381 194T432 325Q394 300
352 284T256 268Q174 268 129 311T83 423Q83 475 102 525T156 616T243 680T359 705ZM353 651Q312 651 281 633T229 584T198 516T187 438Q187 381 215 357T300 332Q343 332 377 343T445 375Q453 402 460 441T467 514Q467 543 461 568T440 611T405 640T353 651Z"
/>
<glyph unicode=":" glyph-name="colon" horiz-adv-x="231" d="M136 281Q110 281 93 298T76 336Q76 369 97 388T144 407Q170 407 187 391T204 349Q204 319 183 300T136 281ZM61 -15Q35 -15 18 2T1 40Q1 73 22 92T69 111Q95 111 112 95T129 53Q129 23 108 4T61 -15Z" />
<glyph unicode=";" glyph-name="semicolon" horiz-adv-x="231" d="M-33 -104Q-13 -56 3 -7T31 101H135Q118 44 92 -7T28 -104H-33ZM136 281Q110 281 93 298T76 336Q76 369 97 388T144 407Q170 407 187 391T204 349Q204 319 183 300T136 281Z" />
<glyph unicode="&lt;" glyph-name="less" horiz-adv-x="506" d="M77 314V365L451 540V469L157 340L451 210V139L77 314Z" />
<glyph unicode="=" glyph-name="equal" horiz-adv-x="516" d="M77 426H471V364H77V426ZM77 256H471V194H77V256Z" />
<glyph unicode="&gt;" glyph-name="greater" horiz-adv-x="506" d="M83 210L377 339L83 469V540L457 365V314L83 139V210Z" />
<glyph unicode="?" glyph-name="question" horiz-adv-x="422" d="M191 553H132Q127 558 119 569T111 595Q111 623 126 643T166 677T225 698T294 705Q328 705 359 696T414 669T452 625T466 562Q466 527 455 499T423 447T368 400T292 353Q270 341 251 329T219 301T197
266T189 220Q189 206 192 188H143Q139 197 136 210T132 238Q132 269 140 291T164 332T206 369T267 411Q292 427 312 443T345 477T365 516T372 565Q372 611 345 631T273 651Q253 651 235 645T206 630L191 553ZM134 -13Q109 -13 95 3T80 40Q80 68 99 85T143 103Q168
103 182 87T197 50Q197 23 178 5T134 -13Z" />
<glyph unicode="@" glyph-name="at" horiz-adv-x="891" d="M423 -155Q237 -155 141 -68T44 177Q44 275 79 366T178 526T330 638T524 680Q601 680 663 659T770 598T838 499T862 368Q862 293 841 231T783 122T697 51T590 25Q541 25 517 43T489 90H483Q454 63 424
48T356 33Q305 33 274 67T242 168Q242 232 264 289T323 390T406 459T499 484Q521 484 537 481T565 473T587 462T608 448L635 475H681L584 136Q581 127 580 119T579 105Q579 78 606 78Q646 78 681 99T741 158T782 249T797 368Q797 493 727 561T519 630Q423 630 347
593T219 493T139 348T111 174Q111 -103 426 -103Q491 -103 551 -93T660 -66L652 -112Q605 -132 549 -143T423 -155ZM398 91Q427 91 451 104T494 133L565 390Q558 408 542 420T493 432Q463 432 435 411T385 353T350 268T336 166Q336 131 349 111T398 91Z" />
<glyph unicode="A" glyph-name="A" horiz-adv-x="641" d="M414 224H188L92 60L167 41L157 0H-64L-54 41L20 60L398 693H480L529 60L593 41L583 0H329L339 41L423 60L414 224ZM390 569L218 275H411L395 569H390Z" />
<glyph unicode="B" glyph-name="B" horiz-adv-x="586" d="M-31 41L63 60L206 634L123 652L133 693H376Q482 693 536 653T590 545Q590 475 548 428T427 363V358Q493 348 527 314T561 226Q561 188 547 148T501 75T415 21T284 0H-41L-31 41ZM277 56Q366 56 411 100T457
230Q457 333 332 333H231L162 56H277ZM321 384Q357 384 387 392T439 420T473 470T486 546Q486 599 455 618T366 637H307L244 384H321Z" />
<glyph unicode="C" glyph-name="C" horiz-adv-x="600" d="M322 -12Q262 -12 210 2T120 45T61 119T39 226Q39 290 53 348T92 458T148 549T215 618Q268 661 328 683T451 705Q490 705 518 702T569 694T608 683T640 671L618 504H572L550 620Q533 628 509 638T439 649Q388
649 345 627T267 566Q238 534 216 494T178 408T154 317T145 225Q145 134 189 90T327 45Q356 45 383 53T435 73L506 193H554L506 21Q464 7 418 -2T322 -12Z" />
<glyph unicode="D" glyph-name="D" horiz-adv-x="676" d="M-31 41L63 60L206 633L123 652L133 693H393Q539 693 611 629T684 453Q684 366 658 285T579 140T449 39T270 0H-41L-31 41ZM272 55Q328 55 372 70T456 121Q486 147 509 183T548 264T572 359T580 464Q580
513 567 546T529 599T467 629T382 638H307L162 55H272Z" />
<glyph unicode="E" glyph-name="E" horiz-adv-x="584" d="M-31 41L63 60L206 633L123 652L133 693H615L596 521H548L527 638H307L243 383H372L421 478H464L412 236H369L364 332H231L162 55H417L499 200H547L492 0H-41L-31 41Z" />
<glyph unicode="F" glyph-name="F" horiz-adv-x="548" d="M-31 41L63 59L206 633L123 652L133 693H617L598 515H550L527 638H307L240 370H372L420 464H463L410 221H367L364 319H228L163 60L254 41L244 0H-41L-31 41Z" />
<glyph unicode="G" glyph-name="G" horiz-adv-x="645" d="M320 -12Q262 -12 211 0T122 41T62 113T40 222Q40 286 54 343T92 449T145 536T206 603Q260 652 325 678T464 705Q531 705 573 695T646 673L624 509H578L554 620Q537 632 514 640T449 649Q397 649 350 625T264
555Q240 528 219 492T182 413T156 323T146 225Q146 131 186 88T319 45Q351 45 376 51T421 68L468 257L384 274L395 315H654L643 274L568 257L509 20Q490 13 467 8T419 -2T369 -9T320 -12Z" />
<glyph unicode="H" glyph-name="H" horiz-adv-x="710" d="M-31 41L61 59L204 633L122 652L132 693H407L397 652L304 633L241 380H537L600 633L517 652L527 693H802L792 652L700 633L557 59L639 41L629 0H354L364 41L457 59L524 329H228L161 59L244 41L234 0H-41L-31 41Z" />
<glyph unicode="I" glyph-name="I" horiz-adv-x="314" d="M-31 41L62 59L205 634L122 652L132 693H407L397 652L305 634L162 59L244 41L234 0H-41L-31 41Z" />
<glyph unicode="J" glyph-name="J" horiz-adv-x="426" d="M54 49Q72 46 91 46Q130 46 161 72T209 167L325 633L242 652L252 693H527L517 652L425 633L303 145Q294 111 278 83T236 33T177 1T97 -11Q69 -11 45 -6T3 10T-25 36T-35 69Q-35 90 -23 109T2 136H67L54 49Z" />
<glyph unicode="K" glyph-name="K" horiz-adv-x="640" d="M-31 41L61 59L204 634L122 652L132 693H410L400 652L304 634L161 59L247 41L237 0H-41L-31 41ZM268 328L273 350L566 634L506 652L516 693H727L717 652L652 634L361 360L506 60L576 41L566 0H428L268 328Z" />
<glyph unicode="L" glyph-name="L" horiz-adv-x="550" d="M-31 41L62 59L205 634L122 652L132 693H416L406 652L305 634L161 55H389L473 219H522L464 0H-41L-31 41Z" />
<glyph unicode="M" glyph-name="M" horiz-adv-x="850" d="M-31 40L62 59L205 634L122 652L132 693H364L400 184H404L697 693H942L932 652L831 634L688 60L779 41L769 0H499L509 41L590 60L730 621H727L381 34H320L275 621H272L132 60L205 41L195 0H-41L-31 40Z" />
<glyph unicode="N" glyph-name="N" horiz-adv-x="696" d="M-31 39L63 59L206 633L122 652L132 693H354L514 168H519L635 632L552 652L562 693H798L788 653L704 633L546 0H467L276 617H272L133 60L217 40L207 0H-41L-31 39Z" />
<glyph unicode="O" glyph-name="O" horiz-adv-x="675" d="M285 -12Q236 -12 192 4T115 53T63 132T43 239Q43 337 76 422T164 570T289 669T434 705Q489 705 535 687T614 637T665 558T683 454Q683 356 653 271T569 123T443 24T285 -12ZM292 45Q351 45 392 67T468
129Q495 160 516 201T551 287T574 379T582 471Q582 559 542 604T433 649Q375 649 336 627T262 565Q235 533 214 492T177 406T153 313T145 222Q145 134 181 90T292 45Z" />
<glyph unicode="P" glyph-name="P" horiz-adv-x="563" d="M-31 41L62 60L205 634L122 652L132 693H383Q495 693 552 650T609 531Q609 467 587 423T527 352T444 312T348 300Q322 300 304 303T277 310L288 353Q294 351 305 349T342 346Q417 346 461 390T505 523Q505
580 475 607T388 634H305L162 60L262 41L252 0H-41L-31 41Z" />
<glyph unicode="Q" glyph-name="Q" horiz-adv-x="675" d="M376 9L620 -41L589 -123L233 -12Q200 -2 167 16T106 63T61 136T43 239Q43 337 76 422T164 570T289 669T434 705Q489 705 535 687T614 637T665 558T683 454Q683 356 656 278T586 144T487 55T376 11V9ZM292
45Q351 45 392 67T468 129Q495 160 516 201T551 287T574 379T582 471Q582 559 542 604T433 649Q375 649 336 627T262 565Q235 533 214 492T177 406T153 313T145 222Q145 134 181 90T292 45Z" />
<glyph unicode="R" glyph-name="R" horiz-adv-x="626" d="M-31 41L64 60L207 633L125 652L135 693H392Q497 693 552 651T608 539Q608 492 594 457T554 396T495 354T420 328V324L514 59L580 40L570 0H428L324 311H227L164 60L245 41L235 0H-41L-31 41ZM336 362Q381
362 413 376T464 414T493 468T502 531Q502 579 476 606T380 634H307L239 362H336Z" />
<glyph unicode="S" glyph-name="S" d="M187 -12Q117 -12 72 2T-7 33L20 179H68L77 85Q89 77 100 70T125 57T157 49T202 46Q271 46 313 84T355 187Q355 226 333 254T263 309L203 343Q158 369 133 407T107 500Q107 539 122 576T167 642T241 688T345 706Q378 706
403 703T449 694T484 682T513 670L497 532H450L435 619Q429 623 422 628T404 638T377 646T334 649Q306 649 281 641T238 617T208 579T197 526Q197 493 214 467T276 414L336 380Q389 351 421 313T454 217Q454 175 438 134T388 61T305 8T187 -12Z" />
<glyph unicode="T" glyph-name="T" horiz-adv-x="577" d="M100 41L196 59L340 638H198L122 495H74L135 693H665L633 495H585L579 638H441L297 59L383 41L373 0H90L100 41Z" />
<glyph unicode="U" glyph-name="U" horiz-adv-x="679" d="M315 -12Q258 -12 215 1T142 38T97 95T82 168Q82 195 90 227L191 634L110 652L120 693H395L385 652L292 634L192 231Q184 196 184 170Q184 51 337 51Q410 51 453 89T519 216L623 633L539 651L550 693H783L773
652L692 634L584 200Q558 94 494 41T315 -12Z" />
<glyph unicode="V" glyph-name="V" horiz-adv-x="636" d="M164 633L106 652L116 693H361L351 652L266 633L295 128H300L591 633L517 652L527 693H744L734 652L665 633L291 0H213L164 633Z" />
<glyph unicode="W" glyph-name="W" horiz-adv-x="924" d="M163 633L108 652L118 693H349L339 652L259 633L264 147H269L545 693H606L622 147H626L869 633L799 652L809 693H1030L1020 652L945 633L618 0H537L525 522H521L255 0H174L163 633Z" />
<glyph unicode="X" glyph-name="X" horiz-adv-x="655" d="M-31 41L48 60L303 356L203 634L133 652L143 693H399L389 652L313 634L381 411L559 634L488 652L498 693H726L716 652L636 634L406 356L515 59L584 41L574 0H323L333 41L411 59L326 304L125 60L196 40L186
0H-41L-31 41Z" />
<glyph unicode="Y" glyph-name="Y" horiz-adv-x="618" d="M127 41L220 60L283 311L168 633L112 652L122 693H356L346 652L272 633L361 367H365L573 633L504 652L514 693H720L710 652L645 633L381 303L320 60L401 41L391 0H117L127 41Z" />
<glyph unicode="Z" glyph-name="Z" horiz-adv-x="534" d="M-29 46L479 632V636H221L151 504H102L152 693H618L606 647L98 61V57H377L452 189H500L449 0H-40L-29 46Z" />
<glyph unicode="[" glyph-name="bracketleft" horiz-adv-x="314" d="M186 733H403L393 692L261 674L78 -61L200 -79L190 -120H-27L186 733Z" />
<glyph unicode="\" glyph-name="backslash" horiz-adv-x="334" d="M127 733H188L259 -120H198L127 733Z" />
<glyph unicode="]" glyph-name="bracketright" horiz-adv-x="314" d="M-48 -79L84 -61L267 674L145 692L155 733H372L159 -120H-58L-48 -79Z" />
<glyph unicode="^" glyph-name="asciicircum" horiz-adv-x="394" d="M280 693H338L424 453H372L293 610L130 453H74L280 693Z" />
<glyph unicode="_" glyph-name="underscore" horiz-adv-x="324" d="M-81 -68H249L236 -120H-94L-81 -68Z" />
<glyph unicode="`" glyph-name="grave" horiz-adv-x="488" d="M223 660L274 728L428 602L405 568L223 660Z" />
<glyph unicode="a" glyph-name="a" horiz-adv-x="522" d="M101 -11Q56 -11 30 21T4 108Q4 158 18 207T58 302T116 385T187 452T267 496T348 512Q371 512 393 505T428 488H434L460 516H525L374 54H464L453 20Q442 15 427 10T394 1T358 -6T324 -9Q298 -9 285 4T283
51L303 116H299Q256 60 208 25T101 -11ZM142 59Q161 59 183 70T229 100T278 146T330 203L400 424Q391 440 374 449T335 459Q308 459 280 445T225 406T176 349T136 280T109 204T99 129Q99 96 109 78T142 59Z" />
<glyph unicode="b" glyph-name="b" horiz-adv-x="521" d="M191 -11Q137 -11 88 3T6 39L190 673L108 679L119 722L293 753L304 745L202 392H207Q228 419 250 443T297 485T349 513T406 524Q455 524 485 490T515 390Q515 317 490 246T422 117T319 25T191 -11ZM199
42Q250 42 290 73T360 152T404 257T420 365Q420 407 409 430T369 454Q348 454 325 443T277 411T227 362T176 302L110 71Q126 60 148 51T199 42Z" />
<glyph unicode="c" glyph-name="c" horiz-adv-x="409" d="M350 391L362 464Q355 466 347 468T329 470Q288 470 249 445T178 376T128 277T109 159Q109 108 130 80T207 51Q250 51 285 68T356 107L346 60Q334 49 318 37T280 14T233 -4T177 -11Q135 -11 105 1T54 36T24
88T14 153Q14 234 43 302T120 420T226 496T344 524Q396 524 423 506T450 458Q450 438 439 422T414 391H350Z" />
<glyph unicode="d" glyph-name="d" horiz-adv-x="544" d="M121 -11Q73 -11 43 23T12 123Q12 196 38 267T110 396T215 488T342 524Q375 524 396 519T434 505L482 673L400 679L411 722L585 753L596 745L404 54H494L483 20Q472 15 457 10T424 1T388 -6T354 -9Q328
-9 315 4T313 51L336 131H330Q308 102 284 76T234 31T179 0T121 -11ZM158 59Q179 59 202 70T250 102T300 151T351 211L415 436Q404 448 385 459T337 471Q286 471 244 440T171 361T124 256T107 148Q107 106 118 83T158 59Z" />
<glyph unicode="e" glyph-name="e" horiz-adv-x="436" d="M174 -11Q133 -11 103 1T54 36T24 88T14 153Q14 231 43 299T117 417T217 495T323 524Q348 524 371 519T410 502T437 472T447 427Q447 376 420 342T347 285T241 248T114 225Q111 210 110 195T109 165Q109
109 129 80T204 51Q249 51 291 69T364 112L355 65Q343 53 325 40T284 15T233 -3T174 -11ZM312 470Q284 470 256 455T203 414T158 352T125 275Q173 282 215 292T287 319T336 361T354 423Q354 443 344 456T312 470Z" />
<glyph unicode="f" glyph-name="f" horiz-adv-x="315" d="M73 494L147 514Q165 581 193 626T255 698T325 736T394 748Q447 748 475 732T503 681Q503 665 494 649T474 624H412L423 685Q405 695 385 695Q336 695 301 652T240 513H372L357 454H226L118 23Q92 -84
44 -142T-86 -200Q-121 -200 -146 -185T-171 -141Q-171 -119 -160 -104T-136 -81H-85L-95 -146H-90Q-72 -146 -55 -140T-23 -119T4 -76T27 -5L133 454H63L73 494Z" />
<glyph unicode="g" glyph-name="g" horiz-adv-x="456" d="M153 -199Q94 -199 47 -190T-32 -164T-82 -126T-100 -79Q-100 -54 -87 -33T-50 7T6 40T77 67Q70 85 70 105Q70 134 82 159T114 205Q88 222 73 248T58 309Q58 357 77 396T128 464T198 508T280 524Q317 524
351 511L510 529L490 461L404 473Q431 440 431 394Q431 346 412 307T362 239T292 195T210 179Q193 179 177 181T147 189Q142 181 139 171T136 148Q136 141 139 135T152 123T182 108T234 89Q312 63 349 33T387 -47Q387 -115 327 -157T153 -199ZM212 7Q180 18 158
26T116 43Q59 21 25 -7T-9 -68Q-9 -103 32 -124T159 -146Q226 -146 264 -123T302 -65Q302 -45 283 -28T212 7ZM216 229Q243 229 266 241T307 276T333 329T343 398Q343 434 327 454T274 474Q247 474 224 462T183 427T156 374T146 305Q146 269 163 249T216 229Z"
/>
<glyph unicode="h" glyph-name="h" horiz-adv-x="546" d="M289 -11Q266 -11 252 -1T237 30Q237 44 243 53T255 68L343 57Q394 166 417 258T440 408Q440 433 431 443T405 453Q382 453 355 439T300 399T242 342T186 275L102 0H10L210 673L128 679L139 722L313 753L324
745L216 374H221Q274 443 329 483T448 524Q494 524 516 495T538 418Q538 377 527 330T498 234T456 142T409 63Q380 21 353 5T289 -11Z" />
<glyph unicode="i" glyph-name="i" horiz-adv-x="271" d="M73 -9Q47 -9 34 4T32 51L146 454H66L77 497L251 524L260 516L123 54H213L202 20Q191 15 176 10T143 1T107 -6T73 -9ZM245 626Q222 626 209 640T195 674Q195 700 212 716T252 733Q275 733 288 719T302
685Q302 659 285 643T245 626Z" />
<glyph unicode="j" glyph-name="j" horiz-adv-x="253" d="M-121 -143Q-115 -145 -108 -146T-95 -147Q-66 -147 -39 -125T5 -46L146 454H66L77 497L251 524L260 516L100 -19Q74 -107 27 -153T-93 -200Q-112 -200 -130 -197T-162 -185T-186 -165T-195 -134Q-195
-117 -184 -103T-162 -81H-112L-121 -143ZM245 626Q222 626 209 640T195 674Q195 700 212 716T252 733Q275 733 288 719T302 685Q302 659 285 643T245 626Z" />
<glyph unicode="k" glyph-name="k" horiz-adv-x="508" d="M209 673L127 679L138 722L312 753L323 745L101 0H9L209 673ZM466 454Q447 445 424 427T378 385T332 337T293 290L377 54H464L453 20Q433 9 404 -1T347 -11Q319 -11 307 5T280 62L212 258L216 277Q271
348 311 395T382 471T440 512T494 524Q513 524 524 517T543 502L532 454H466Z" />
<glyph unicode="l" glyph-name="l" horiz-adv-x="277" d="M74 -9Q48 -9 35 4T33 51L209 673L124 679L135 722L312 753L323 745L124 54H218L207 20Q196 15 180 10T145 1T109 -6T74 -9Z" />
<glyph unicode="m" glyph-name="m" horiz-adv-x="835" d="M641 -9Q615 -9 602 4T600 51L699 366Q710 404 710 421Q710 440 701 446T677 453Q659 453 635 441T585 408T532 358T481 296L387 0H298L410 366Q420 399 420 420Q420 438 412 445T390 453Q367 453 342
439T291 401T238 345T185 278L101 0H9L146 454H66L77 497L242 524L251 516L206 368H211Q239 404 265 433T319 482T375 513T436 524Q474 524 495 503T516 440Q516 418 510 391H515Q535 416 558 440T607 482T664 512T728 524Q762 524 784 503T806 440Q806 410 794
373L691 54H777L766 20Q744 11 709 1T641 -9Z" />
<glyph unicode="n" glyph-name="n" horiz-adv-x="558" d="M364 -9Q338 -9 325 4T323 51L422 366Q433 402 433 420Q433 439 425 446T402 453Q379 453 352 438T297 398T240 341T184 273L101 0H9L146 454H66L77 497L242 524L251 516L205 362H210Q270 440 327 482T450
524Q485 524 507 502T529 438Q529 408 517 371L414 54H500L489 20Q467 11 432 1T364 -9Z" />
<glyph unicode="o" glyph-name="o" horiz-adv-x="509" d="M193 -11Q152 -11 119 2T63 38T28 94T15 166Q15 242 43 307T115 421T213 496T320 524Q405 524 450 475T495 347Q495 270 469 205T399 91T302 16T193 -11ZM201 43Q243 43 279 71T343 145T386 249T402 366Q402
470 312 470Q270 470 233 442T168 368T124 264T108 147Q108 94 132 69T201 43Z" />
<glyph unicode="p" glyph-name="p" horiz-adv-x="543" d="M-103 -165L-25 -151L146 454H66L77 497L244 524L253 516L209 375H214Q267 444 317 484T428 524Q476 524 506 490T537 390Q537 317 512 245T442 116T338 24T213 -11Q181 -11 158 -6T114 8L69 -149L149
-165L141 -199H-111L-103 -165ZM218 42Q269 42 310 73T380 152T426 257T442 365Q442 407 431 430T391 454Q370 454 347 443T299 411T249 362T198 302L134 77Q152 60 171 51T218 42Z" />
<glyph unicode="q" glyph-name="q" horiz-adv-x="525" d="M147 -165L242 -149L322 115H317Q296 88 274 65T228 25T178 -1T121 -11Q73 -11 43 23T12 123Q12 196 39 267T114 396T223 488T355 524Q409 524 453 515T526 488L334 -151L403 -165L395 -199H138L147 -165ZM158
59Q179 59 202 70T250 102T300 151T351 211L418 445Q406 454 388 462T343 471Q292 471 249 440T174 361T125 256T107 148Q107 106 118 83T158 59Z" />
<glyph unicode="r" glyph-name="r" horiz-adv-x="422" d="M146 454H66L77 497L242 524L251 516L201 349H206Q258 434 308 479T409 524Q441 524 455 511T469 474Q469 454 458 432T431 393H367L377 455Q354 448 329 430T278 383T225 319T174 240L101 0H9L146 454Z" />
<glyph unicode="s" glyph-name="s" horiz-adv-x="392" d="M150 -11Q114 -11 83 -5T30 13T-5 42T-18 80Q-18 100 -9 115T15 141H82L68 67Q79 56 96 49T142 42Q197 42 225 65T253 124Q253 140 247 153T229 177T202 200T170 225Q147 243 130 258T100 291T82 327T76
371Q76 403 89 431T127 479T186 512T263 524Q291 524 316 519T359 503T388 479T399 446Q399 427 390 410T367 379H304L319 450Q307 460 292 465T253 471Q208 471 182 449T155 389Q155 375 160 364T175 342T202 319T241 288Q263 271 280 256T310 223T330 186T337
141Q337 109 324 82T285 34T226 1T150 -11Z" />
<glyph unicode="t" glyph-name="t" horiz-adv-x="306" d="M73 494L159 517L197 643H288L248 513H363L346 454H230L122 100Q115 77 119 64T147 51Q182 51 208 56T256 68L246 26Q227 14 197 3T118 -9Q80 -9 54 8T27 66Q27 86 34 108L139 454H63L73 494Z" />
<glyph unicode="u" glyph-name="u" horiz-adv-x="558" d="M118 -11Q80 -11 57 11T33 76Q33 104 45 142L146 454H66L77 497L246 524L255 516L140 147Q130 116 130 95Q130 75 139 67T163 59Q182 59 206 73T259 112T315 166T371 230L457 513H549L414 54H500L489 20Q467
11 432 1T364 -9Q338 -9 325 4T323 51L350 141H345Q287 71 234 30T118 -11Z" />
<glyph unicode="v" glyph-name="v" horiz-adv-x="465" d="M87 0Q94 59 99 123T109 249T117 363T120 454H40L51 497Q72 506 104 514T162 522Q188 522 198 512T209 470Q209 432 207 387T201 294T192 195T179 97H183Q206 122 240 162T310 250T375 350T421 454H336L344
492Q367 505 394 514T450 524Q470 524 483 515T496 481Q496 452 481 414T439 332T377 243T304 154T226 71T151 0H87Z" />
<glyph unicode="w" glyph-name="w" horiz-adv-x="696" d="M91 0Q98 59 103 123T112 249T118 363T120 454H40L51 497Q72 506 104 514T162 522Q188 522 198 512T209 470Q209 432 208 387T203 294T195 195T183 97H187Q206 118 229 146T276 207T325 276T370 351Q372
381 372 407T373 454H298L309 497Q330 506 357 514T411 522Q437 522 447 512T458 470Q458 432 457 387T454 294T447 195T436 97H440Q463 122 494 162T555 251T612 351T653 454H567L575 492Q598 505 625 514T681 524Q701 524 714 515T727 481Q727 454 713 416T675
335T619 247T552 157T480 72T408 0H346Q353 61 358 127T366 256Q344 222 318 187T264 117T208 53T155 0H91Z" />
<glyph unicode="x" glyph-name="x" horiz-adv-x="474" d="M17 -11Q-12 -11 -26 2T-41 36Q-41 50 -35 61T-24 77L57 68Q75 84 94 107T131 156T165 208T194 258L147 454H65L76 497L215 525L225 517L270 317Q330 419 374 471T465 524Q494 524 509 512T524 480Q524
469 518 456T504 434L426 444Q410 429 392 407T355 360T319 308T288 254L336 54H422L411 20Q389 11 360 1T306 -9Q276 -9 264 7T246 47L212 194Q182 143 157 105T109 41T64 2T17 -11Z" />
<glyph unicode="y" glyph-name="y" horiz-adv-x="468" d="M-71 -141H-67Q-23 -141 23 -115T116 -46Q125 110 125 226Q125 301 123 358T115 454H40L51 497Q72 506 103 514T160 522Q186 522 196 511T208 469Q210 441 211 405T212 328Q212 259 209 186T200 52H205Q246
104 283 161T348 272T396 373T421 454H336L344 492Q367 505 395 514T452 524Q501 524 499 481Q498 456 487 421T456 344T410 257T353 165T289 76T222 -5Q179 -53 142 -89T68 -150T-5 -187T-83 -200Q-115 -200 -135 -185T-155 -141Q-154 -121 -141 -105T-116 -81H-57L-71
-141Z" />
<glyph unicode="z" glyph-name="z" horiz-adv-x="435" d="M34 -6Q1 -6 -14 5T-29 38Q-29 57 -14 77T25 117L334 394Q304 402 274 412T217 432T171 452T140 470L116 389H72Q66 405 66 420Q66 466 96 495T172 524Q199 524 228 518T285 502T339 478T386 449L410 520Q436
519 452 509T469 482Q469 462 453 439T396 380L105 119Q134 114 164 107T224 90T278 70T324 50L326 121H393Q391 95 386 72T369 30T340 1T294 -10Q263 -10 231 -3T169 15T110 39T59 66H54L34 -6Z" />
<glyph unicode="{" glyph-name="braceleft" horiz-adv-x="368" d="M244 -120Q190 -119 154 -110T96 -87T65 -55T55 -15Q55 12 68 45T97 111T126 175T139 226Q139 236 135 244T119 260T87 274T36 285L51 347Q93 350 118 356T158 370T179 390T189 416Q193 432 194
456T196 506T198 557T205 604Q212 632 228 655T273 694T347 721T457 733L447 692Q411 686 386 680T344 665T317 641T302 605Q298 588 296 566T291 518T286 469T278 426Q273 408 266 392T240 361T191 335T108 314V309Q143 299 165 289T200 267T217 243T222 217Q222
194 211 163T186 99T161 36T149 -16Q149 -45 173 -57T254 -79L244 -120Z" />
<glyph unicode="|" glyph-name="bar" horiz-adv-x="262" d="M125 733H187V-120H125V733Z" />
<glyph unicode="}" glyph-name="braceright" horiz-adv-x="368" d="M155 733Q209 731 245 723T303 700T334 668T344 628Q344 601 331 568T302 502T273 438T260 387Q260 377 264 369T280 353T312 339T363 328L348 266Q306 263 281 257T241 243T220 223T210 197Q206
180 205 157T203 107T201 56T194 9Q187 -19 171 -42T126 -81T52 -108T-58 -120L-48 -79Q-12 -73 13 -67T55 -52T82 -28T97 8Q101 24 103 47T108 95T113 144T121 187Q125 205 133 221T159 252T208 278T291 299V304Q256 314 234 324T199 346T182 370T177 396Q177
418 188 449T213 514T238 577T250 629Q250 658 226 670T145 692L155 733Z" />
<glyph unicode="~" glyph-name="asciitilde" horiz-adv-x="400" d="M29 254Q61 311 88 337T154 364Q173 364 191 357T227 341T258 325T285 317Q302 317 320 329T362 373L400 354Q368 297 341 271T276 244Q257 244 239 251T203 267T172 283T145 291Q128 291 110
279T68 235L29 254Z" />
<glyph unicode="&#xa0;" glyph-name="uni00A0" horiz-adv-x="195" />
<glyph unicode="&#xa1;" glyph-name="exclamdown" horiz-adv-x="249" d="M87 -120H-18L133 383H188L87 -120ZM199 586Q224 586 238 570T253 533Q253 505 234 488T190 470Q165 470 151 486T136 523Q136 550 155 568T199 586Z" />
<glyph unicode="&#xa2;" glyph-name="cent" horiz-adv-x="442" d="M141 -6Q78 6 46 49T14 153Q14 247 56 323T165 449Q202 477 243 494T326 520L357 606H414L385 524Q433 522 458 504T483 458Q483 438 473 422T447 391H390L402 462Q388 468 366 470L218 51H220Q268
51 311 68T389 107L379 60Q368 49 349 37T306 15T254 -3T196 -11L158 -119H101L141 -6ZM110 159Q110 122 122 97T164 60L306 461Q266 449 231 421T168 353T126 264T110 159Z" />
<glyph unicode="&#xa3;" glyph-name="sterling" horiz-adv-x="514" d="M428 651Q404 651 381 642T337 611T299 555T270 469L249 377H432L417 318H236L222 256Q214 220 203 195T179 150T148 117T110 87V85H461L430 0H-22L-9 53Q18 67 40 83T80 121T110 169T129
232L145 318H77L92 377H156L175 479Q187 541 213 584T274 654T352 693T439 705Q507 705 542 684T578 625Q578 606 567 589T541 558H475L490 636Q480 642 464 646T428 651Z" />
<glyph unicode="&#xa5;" glyph-name="yen" horiz-adv-x="570" d="M109 372H249L152 633L106 652L116 693H340L330 652L256 633L342 383H346L541 633L472 652L482 693H678L668 652L613 633L397 372H539L526 320H360L340 242H506L493 190H327L295 60L379 41L369
0H93L103 41L197 60L229 190H63L76 242H242L262 320H96L109 372Z" />
<glyph unicode="&#xa6;" glyph-name="brokenbar" horiz-adv-x="262" d="M125 279H187V-120H125V279ZM125 733H187V371H125V733Z" />
<glyph unicode="&#xa7;" glyph-name="section" horiz-adv-x="475" d="M161 -132Q102 -132 63 -120T-8 -94L10 29H58L66 -49Q81 -58 104 -68T170 -78Q213 -78 244 -53T275 21Q274 49 258 73T208 114L137 152Q92 175 63 209T34 289Q34 350 75 386T184 439Q150 478
150 534Q150 572 166 603T209 657T273 692T351 705Q406 705 440 696T495 675L476 563H431L421 629Q410 636 393 643T341 651Q323 651 304 646T270 630T244 600T233 555Q233 529 245 510T291 473L362 434Q411 407 438 376T466 303Q466 242 427 202T317 145Q339 122
351 95T363 40Q363 5 350 -26T310 -81T247 -118T161 -132ZM230 404Q209 401 190 394T155 374T132 346T123 307Q123 279 143 259T206 215L268 182Q312 189 343 212T375 279Q375 331 293 372L230 404Z" />
<glyph unicode="&#xa8;" glyph-name="dieresis" horiz-adv-x="488" d="M428 623Q406 623 391 638T376 672Q376 698 393 714T433 731Q456 731 470 717T485 683Q485 658 468 641T428 623ZM264 623Q242 623 227 638T212 672Q212 698 229 714T269 731Q292 731 306
717T321 683Q321 658 304 641T264 623Z" />
<glyph unicode="&#xa9;" glyph-name="copyright" horiz-adv-x="776" d="M412 -14Q337 -14 272 14T160 91T85 205T58 344Q58 418 85 483T159 596T272 672T412 700Q487 700 552 672T665 596T740 483T768 344Q768 270 741 205T665 91T552 14T412 -14ZM412 27Q479
27 535 52T631 120T693 221T715 344Q715 409 693 466T631 567T535 635T412 660Q344 660 289 635T193 567T131 467T109 344Q109 279 131 221T193 120T288 52T412 27ZM421 157Q381 157 347 168T289 203T251 261T237 342Q237 393 252 429T294 489T355 524T429 536Q463
536 491 531T537 521L542 421H507L481 484Q470 489 457 492T423 496Q369 496 347 457T324 352Q324 280 346 239T428 197Q447 197 460 198T481 205L509 280H546L539 176Q519 169 490 163T421 157Z" />
<glyph unicode="&#xaa;" glyph-name="ordfeminine" horiz-adv-x="489" d="M146 231Q99 231 76 260T52 340Q52 387 67 432T107 517T164 591T232 649T304 688T371 702Q394 702 412 697T440 685H444L464 704H535L410 295H493L483 261Q463 251 428 242T364 232Q343
232 331 239T318 267Q318 281 326 308L340 356H337Q299 300 249 266T146 231ZM185 294Q217 294 264 332T366 436L421 621Q412 633 399 643T363 653Q327 653 289 625T218 553T166 454T145 348Q145 319 155 307T185 294Z" />
<glyph unicode="&#xab;" glyph-name="guillemotleft" horiz-adv-x="412" d="M201 241L209 270L359 450H423L289 247L325 55H268L201 241ZM39 241L47 270L197 450H261L127 247L163 55H106L39 241Z" />
<glyph unicode="&#xae;" glyph-name="registered" horiz-adv-x="433" d="M282 314Q241 314 205 329T143 372T102 434T87 511Q87 552 102 587T143 649T205 691T282 707Q323 707 359 692T421 650T463 588T478 511Q478 470 463 435T422 372T359 330T282 314ZM282
347Q317 347 345 359T394 394T426 446T438 511Q438 545 427 574T395 626T346 662T282 675Q247 675 219 662T170 627T138 575T127 511Q127 476 138 447T169 395T218 360T282 347ZM195 439L217 445V580L195 586V607H283Q318 607 338 594T359 555Q359 534 347 525T321
510V507L362 444L378 439V420H327L282 495H262V445L283 439V420H195V439ZM282 522Q302 522 307 530T313 553Q313 569 307 575T282 581H262V522H282Z" />
<glyph unicode="&#xaf;" glyph-name="macron" horiz-adv-x="488" d="M227 667H471L456 605H212L227 667Z" />
<glyph unicode="&#xb0;" glyph-name="degree" horiz-adv-x="445" d="M289 396Q252 396 224 408T175 442T145 490T134 548Q134 587 148 620T188 678T246 716T316 730Q353 730 382 718T431 684T461 636T472 579Q472 541 458 508T418 449T360 410T289 396ZM292 445Q343
445 376 481T409 578Q409 621 385 651T313 681Q262 681 229 645T196 549Q196 529 201 511T219 478T249 454T292 445Z" />
<glyph unicode="&#xb4;" glyph-name="acute" horiz-adv-x="488" d="M230 602L418 730L448 658L245 568L230 602Z" />
<glyph unicode="&#xb6;" glyph-name="paragraph" horiz-adv-x="570" d="M305 335Q292 333 281 332T256 331Q222 331 192 340T140 368T106 412T93 474Q93 520 108 560T156 630T241 676T369 693H662L652 652L569 634L381 -120H319L509 640H443L253 -120H191L305 335Z" />
<glyph unicode="&#xb7;" glyph-name="periodcentered" horiz-adv-x="221" d="M126 261Q100 261 83 278T66 316Q66 349 87 368T134 387Q160 387 177 371T194 329Q194 299 173 280T126 261Z" />
<glyph unicode="&#xb8;" glyph-name="cedilla" horiz-adv-x="488" d="M100 -177Q157 -169 184 -157T212 -122Q212 -110 198 -102T137 -93L160 0H206L194 -48Q291 -53 291 -110Q291 -157 243 -182T91 -213L100 -177Z" />
<glyph unicode="&#xba;" glyph-name="ordmasculine" horiz-adv-x="463" d="M230 232Q153 232 112 273T71 383Q71 452 96 511T160 612T247 679T342 703Q419 703 460 662T502 551Q502 482 477 424T413 323T325 256T230 232ZM238 283Q274 283 306 307T361 371T398
460T412 561Q412 651 334 651Q298 651 266 627T211 564T175 475T161 374Q161 283 238 283Z" />
<glyph unicode="&#xbb;" glyph-name="guillemotright" horiz-adv-x="412" d="M377 264L369 235L219 55H155L289 258L253 450H310L377 264ZM215 264L207 235L57 55H-7L127 258L91 450H148L215 264Z" />
<glyph unicode="&#xbc;" glyph-name="onequarter" horiz-adv-x="829" d="M64 316L127 326L202 627L126 619L135 652L271 703H298L204 326L263 316L254 282H55L64 316ZM709 713H777L123 -40H55L709 713ZM611 116H423L433 157L697 416H761L697 162H759L748 116H686L657
0H582L611 116ZM622 162L664 327H661L497 164V162H622Z" />
<glyph unicode="&#xbd;" glyph-name="onehalf" horiz-adv-x="841" d="M78 316L141 326L216 627L140 619L149 652L285 703H312L218 326L277 316L268 282H69L78 316ZM709 713H777L123 -40H55L709 713ZM670 381Q649 381 640 376T620 363L607 300H556Q553 305 547
312T541 334Q541 353 551 369T581 398T625 416T681 423Q739 423 774 395T809 319Q809 270 762 219T630 110L554 59V57H759L742 0H459L469 39L594 137Q655 185 691 226T728 318Q728 347 712 364T670 381Z" />
<glyph unicode="&#xbe;" glyph-name="threequarters" horiz-adv-x="861" d="M270 497Q302 489 323 469T345 410Q345 381 332 357T295 314T240 286T174 276Q125 276 95 287T47 310L57 347Q77 339 101 333T158 326Q203 326 234 348T266 418Q266 449 245 462T186
476H158L168 519H200Q245 519 272 540T300 604Q300 633 285 648T244 663Q227 663 218 660T198 649L186 593H137Q133 598 128 605T123 625Q123 643 134 658T164 683T206 699T256 705Q308 705 341 682T375 613Q375 568 344 538T270 499V497ZM741 713H809L155 -40H87L741
713ZM649 116H461L471 157L735 416H799L735 162H797L786 116H724L695 0H620L649 116ZM660 162L702 327H699L535 164V162H660Z" />
<glyph unicode="&#xbf;" glyph-name="questiondown" horiz-adv-x="419" d="M252 20H311Q316 15 324 4T332 -22Q332 -50 317 -70T277 -104T218 -125T149 -132Q114 -132 83 -123T29 -96T-9 -52T-23 11Q-23 45 -12 73T20 126T74 173T151 220Q173 232 192 244T224
272T246 307T254 353Q254 367 251 385H300Q304 376 307 363T311 335Q311 304 303 282T279 241T237 204T176 162Q150 145 131 130T98 96T78 57T71 8Q71 -38 98 -58T170 -78Q190 -78 208 -72T237 -57L252 20ZM309 586Q334 586 348 570T363 533Q363 505 344 488T300
470Q275 470 261 486T246 523Q246 550 265 568T309 586Z" />
<glyph unicode="&#xc0;" glyph-name="Agrave" horiz-adv-x="641" d="M341 791L379 865L552 765L536 730L341 791ZM414 224H188L92 60L167 41L157 0H-64L-54 41L20 60L398 693H480L529 60L593 41L583 0H329L339 41L423 60L414 224ZM390 569L218 275H411L395 569H390Z" />
<glyph unicode="&#xc1;" glyph-name="Aacute" horiz-adv-x="641" d="M350 765L555 864L576 788L360 729L350 765ZM414 224H188L92 60L167 41L157 0H-64L-54 41L20 60L398 693H480L529 60L593 41L583 0H329L339 41L423 60L414 224ZM390 569L218 275H411L395 569H390Z" />
<glyph unicode="&#xc2;" glyph-name="Acircumflex" horiz-adv-x="641" d="M305 764L438 861H484L581 762L559 734L453 787L321 734L305 764ZM414 224H188L92 60L167 41L157 0H-64L-54 41L20 60L398 693H480L529 60L593 41L583 0H329L339 41L423 60L414 224ZM390
569L218 275H411L395 569H390Z" />
<glyph unicode="&#xc3;" glyph-name="Atilde" horiz-adv-x="641" d="M301 754Q326 799 350 823T406 847Q422 847 437 842T465 830T491 818T514 812Q529 812 543 821T574 854L611 836Q586 791 562 767T506 743Q490 743 475 748T447 760T421 772T399 778Q384 778
370 769T338 736L301 754ZM414 224H188L92 60L167 41L157 0H-64L-54 41L20 60L398 693H480L529 60L593 41L583 0H329L339 41L423 60L414 224ZM390 569L218 275H411L395 569H390Z" />
<glyph unicode="&#xc4;" glyph-name="Adieresis" horiz-adv-x="641" d="M535 737Q513 737 498 752T483 786Q483 812 500 828T540 845Q563 845 577 831T592 797Q592 772 575 755T535 737ZM371 737Q349 737 334 752T319 786Q319 812 336 828T376 845Q399 845 413
831T428 797Q428 772 411 755T371 737ZM414 224H188L92 60L167 41L157 0H-64L-54 41L20 60L398 693H480L529 60L593 41L583 0H329L339 41L423 60L414 224ZM390 569L218 275H411L395 569H390Z" />
<glyph unicode="&#xc5;" glyph-name="Aring" horiz-adv-x="641" d="M448 723Q428 723 412 730T385 748T367 775T360 806Q360 848 389 874T458 900Q478 900 494 893T521 875T539 848T546 817Q546 775 517 749T448 723ZM450 762Q472 762 486 776T501 814Q501 835
490 848T456 861Q434 861 419 847T404 808Q404 788 416 775T450 762ZM414 224H188L92 60L167 41L157 0H-64L-54 41L20 60L398 693H480L529 60L593 41L583 0H329L339 41L423 60L414 224ZM390 569L218 275H411L395 569H390Z" />
<glyph unicode="&#xc6;" glyph-name="AE" horiz-adv-x="919" d="M-54 42L13 60L492 642L428 652L438 693H950L931 521H883L862 638H649L585 383H707L756 478H799L747 236H704L699 332H573L504 55H752L834 200H882L827 0H303L313 41L407 60L448 224H221L87 60L161
41L151 0H-64L-54 42ZM460 275L548 624L262 275H460Z" />
<glyph unicode="&#xc7;" glyph-name="Ccedilla" horiz-adv-x="600" d="M168 -179Q225 -171 252 -159T280 -124Q280 -112 266 -104T205 -95L228 -2Q143 16 91 72T39 226Q39 290 53 348T92 458T148 549T215 618Q268 661 328 683T451 705Q490 705 518 702T569 694T608
683T640 671L618 504H572L550 620Q533 628 509 638T439 649Q388 649 345 627T267 566Q238 534 216 494T178 408T154 317T145 225Q145 134 189 90T327 45Q356 45 383 53T435 73L506 193H554L506 21Q464 7 418 -2T322 -12Q296 -12 272 -9L262 -50Q359 -55 359 -112Q359
-159 311 -184T159 -215L168 -179Z" />
<glyph unicode="&#xc8;" glyph-name="Egrave" horiz-adv-x="584" d="M303 791L341 865L514 765L498 730L303 791ZM-31 41L63 60L206 633L123 652L133 693H615L596 521H548L527 638H307L243 383H372L421 478H464L412 236H369L364 332H231L162 55H417L499 200H547L492
0H-41L-31 41Z" />
<glyph unicode="&#xc9;" glyph-name="Eacute" horiz-adv-x="584" d="M312 765L517 864L538 788L322 729L312 765ZM-31 41L63 60L206 633L123 652L133 693H615L596 521H548L527 638H307L243 383H372L421 478H464L412 236H369L364 332H231L162 55H417L499 200H547L492
0H-41L-31 41Z" />
<glyph unicode="&#xca;" glyph-name="Ecircumflex" horiz-adv-x="584" d="M267 764L400 861H446L543 762L521 734L415 787L283 734L267 764ZM-31 41L63 60L206 633L123 652L133 693H615L596 521H548L527 638H307L243 383H372L421 478H464L412 236H369L364 332H231L162
55H417L499 200H547L492 0H-41L-31 41Z" />
<glyph unicode="&#xcb;" glyph-name="Edieresis" horiz-adv-x="584" d="M497 737Q475 737 460 752T445 786Q445 812 462 828T502 845Q525 845 539 831T554 797Q554 772 537 755T497 737ZM333 737Q311 737 296 752T281 786Q281 812 298 828T338 845Q361 845 375
831T390 797Q390 772 373 755T333 737ZM-31 41L63 60L206 633L123 652L133 693H615L596 521H548L527 638H307L243 383H372L421 478H464L412 236H369L364 332H231L162 55H417L499 200H547L492 0H-41L-31 41Z" />
<glyph unicode="&#xcc;" glyph-name="Igrave" horiz-adv-x="314" d="M176 791L214 865L387 765L371 730L176 791ZM-31 41L62 59L205 634L122 652L132 693H407L397 652L305 634L162 59L244 41L234 0H-41L-31 41Z" />
<glyph unicode="&#xcd;" glyph-name="Iacute" horiz-adv-x="314" d="M185 765L390 864L411 788L195 729L185 765ZM-31 41L62 59L205 634L122 652L132 693H407L397 652L305 634L162 59L244 41L234 0H-41L-31 41Z" />
<glyph unicode="&#xce;" glyph-name="Icircumflex" horiz-adv-x="314" d="M140 764L273 861H319L416 762L394 734L288 787L156 734L140 764ZM-31 41L62 59L205 634L122 652L132 693H407L397 652L305 634L162 59L244 41L234 0H-41L-31 41Z" />
<glyph unicode="&#xcf;" glyph-name="Idieresis" horiz-adv-x="314" d="M370 737Q348 737 333 752T318 786Q318 812 335 828T375 845Q398 845 412 831T427 797Q427 772 410 755T370 737ZM206 737Q184 737 169 752T154 786Q154 812 171 828T211 845Q234 845 248
831T263 797Q263 772 246 755T206 737ZM-31 41L62 59L205 634L122 652L132 693H407L397 652L305 634L162 59L244 41L234 0H-41L-31 41Z" />
<glyph unicode="&#xd0;" glyph-name="Eth" horiz-adv-x="676" d="M61 378H142L206 633L123 652L133 693H393Q539 693 611 629T684 453Q684 366 658 285T579 140T449 39T270 0H-41L-31 41L63 60L127 319H47L61 378ZM272 55Q328 55 372 70T456 121Q486 147 509 183T548
264T572 359T580 464Q580 513 567 546T529 599T467 629T382 638H307L242 378H421L407 319H227L162 55H272Z" />
<glyph unicode="&#xd1;" glyph-name="Ntilde" horiz-adv-x="696" d="M338 754Q363 799 387 823T443 847Q459 847 474 842T502 830T528 818T551 812Q566 812 580 821T611 854L648 836Q623 791 599 767T543 743Q527 743 512 748T484 760T458 772T436 778Q421 778
407 769T375 736L338 754ZM-31 39L63 59L206 633L122 652L132 693H354L514 168H519L635 632L552 652L562 693H798L788 653L704 633L546 0H467L276 617H272L133 60L217 40L207 0H-41L-31 39Z" />
<glyph unicode="&#xd2;" glyph-name="Ograve" horiz-adv-x="675" d="M351 791L389 865L562 765L546 730L351 791ZM285 -12Q236 -12 192 4T115 53T63 132T43 239Q43 337 76 422T164 570T289 669T434 705Q489 705 535 687T614 637T665 558T683 454Q683 356 653 271T569
123T443 24T285 -12ZM292 45Q351 45 392 67T468 129Q495 160 516 201T551 287T574 379T582 471Q582 559 542 604T433 649Q375 649 336 627T262 565Q235 533 214 492T177 406T153 313T145 222Q145 134 181 90T292 45Z" />
<glyph unicode="&#xd3;" glyph-name="Oacute" horiz-adv-x="675" d="M360 765L565 864L586 788L370 729L360 765ZM285 -12Q236 -12 192 4T115 53T63 132T43 239Q43 337 76 422T164 570T289 669T434 705Q489 705 535 687T614 637T665 558T683 454Q683 356 653 271T569
123T443 24T285 -12ZM292 45Q351 45 392 67T468 129Q495 160 516 201T551 287T574 379T582 471Q582 559 542 604T433 649Q375 649 336 627T262 565Q235 533 214 492T177 406T153 313T145 222Q145 134 181 90T292 45Z" />
<glyph unicode="&#xd4;" glyph-name="Ocircumflex" horiz-adv-x="675" d="M315 764L448 861H494L591 762L569 734L463 787L331 734L315 764ZM285 -12Q236 -12 192 4T115 53T63 132T43 239Q43 337 76 422T164 570T289 669T434 705Q489 705 535 687T614 637T665
558T683 454Q683 356 653 271T569 123T443 24T285 -12ZM292 45Q351 45 392 67T468 129Q495 160 516 201T551 287T574 379T582 471Q582 559 542 604T433 649Q375 649 336 627T262 565Q235 533 214 492T177 406T153 313T145 222Q145 134 181 90T292 45Z" />
<glyph unicode="&#xd5;" glyph-name="Otilde" horiz-adv-x="675" d="M311 754Q336 799 360 823T416 847Q432 847 447 842T475 830T501 818T524 812Q539 812 553 821T584 854L621 836Q596 791 572 767T516 743Q500 743 485 748T457 760T431 772T409 778Q394 778
380 769T348 736L311 754ZM285 -12Q236 -12 192 4T115 53T63 132T43 239Q43 337 76 422T164 570T289 669T434 705Q489 705 535 687T614 637T665 558T683 454Q683 356 653 271T569 123T443 24T285 -12ZM292 45Q351 45 392 67T468 129Q495 160 516 201T551 287T574
379T582 471Q582 559 542 604T433 649Q375 649 336 627T262 565Q235 533 214 492T177 406T153 313T145 222Q145 134 181 90T292 45Z" />
<glyph unicode="&#xd6;" glyph-name="Odieresis" horiz-adv-x="675" d="M534 737Q512 737 497 752T482 786Q482 812 499 828T539 845Q562 845 576 831T591 797Q591 772 574 755T534 737ZM370 737Q348 737 333 752T318 786Q318 812 335 828T375 845Q398 845 412
831T427 797Q427 772 410 755T370 737ZM285 -12Q236 -12 192 4T115 53T63 132T43 239Q43 337 76 422T164 570T289 669T434 705Q489 705 535 687T614 637T665 558T683 454Q683 356 653 271T569 123T443 24T285 -12ZM292 45Q351 45 392 67T468 129Q495 160 516 201T551
287T574 379T582 471Q582 559 542 604T433 649Q375 649 336 627T262 565Q235 533 214 492T177 406T153 313T145 222Q145 134 181 90T292 45Z" />
<glyph unicode="&#xd7;" glyph-name="multiply" horiz-adv-x="526" d="M91 191L239 339L91 488L135 532L283 383L431 531L475 487L327 339L476 191L432 147L283 295L135 147L91 191Z" />
<glyph unicode="&#xd8;" glyph-name="Oslash" horiz-adv-x="675" d="M285 -12Q236 -12 193 4T116 52L39 -30L2 3L84 90Q64 120 54 157T43 239Q43 337 76 422T164 570T289 669T434 705Q487 705 530 689T606 643L672 713L709 680L639 606Q660 575 671 537T683 454Q683
356 653 271T569 123T443 24T285 -12ZM292 45Q351 45 392 67T468 129Q495 160 516 201T552 287T575 379T583 471Q583 511 576 539L166 104Q182 75 212 60T292 45ZM144 222Q144 204 145 188T148 158L556 590Q520 649 433 649Q375 649 336 627T262 565Q235 533 213
492T176 406T153 313T144 222Z" />
<glyph unicode="&#xd9;" glyph-name="Ugrave" horiz-adv-x="679" d="M369 791L407 865L580 765L564 730L369 791ZM315 -12Q258 -12 215 1T142 38T97 95T82 168Q82 195 90 227L191 634L110 652L120 693H395L385 652L292 634L192 231Q184 196 184 170Q184 51 337
51Q410 51 453 89T519 216L623 633L539 651L550 693H783L773 652L692 634L584 200Q558 94 494 41T315 -12Z" />
<glyph unicode="&#xda;" glyph-name="Uacute" horiz-adv-x="679" d="M378 765L583 864L604 788L388 729L378 765ZM315 -12Q258 -12 215 1T142 38T97 95T82 168Q82 195 90 227L191 634L110 652L120 693H395L385 652L292 634L192 231Q184 196 184 170Q184 51 337
51Q410 51 453 89T519 216L623 633L539 651L550 693H783L773 652L692 634L584 200Q558 94 494 41T315 -12Z" />
<glyph unicode="&#xdb;" glyph-name="Ucircumflex" horiz-adv-x="679" d="M333 764L466 861H512L609 762L587 734L481 787L349 734L333 764ZM315 -12Q258 -12 215 1T142 38T97 95T82 168Q82 195 90 227L191 634L110 652L120 693H395L385 652L292 634L192 231Q184
196 184 170Q184 51 337 51Q410 51 453 89T519 216L623 633L539 651L550 693H783L773 652L692 634L584 200Q558 94 494 41T315 -12Z" />
<glyph unicode="&#xdc;" glyph-name="Udieresis" horiz-adv-x="679" d="M562 737Q540 737 525 752T510 786Q510 812 527 828T567 845Q590 845 604 831T619 797Q619 772 602 755T562 737ZM398 737Q376 737 361 752T346 786Q346 812 363 828T403 845Q426 845 440
831T455 797Q455 772 438 755T398 737ZM315 -12Q258 -12 215 1T142 38T97 95T82 168Q82 195 90 227L191 634L110 652L120 693H395L385 652L292 634L192 231Q184 196 184 170Q184 51 337 51Q410 51 453 89T519 216L623 633L539 651L550 693H783L773 652L692 634L584
200Q558 94 494 41T315 -12Z" />
<glyph unicode="&#xdd;" glyph-name="Yacute" horiz-adv-x="618" d="M345 765L550 864L571 788L355 729L345 765ZM127 41L220 60L283 311L168 633L112 652L122 693H356L346 652L272 633L361 367H365L573 633L504 652L514 693H720L710 652L645 633L381 303L320
60L401 41L391 0H117L127 41Z" />
<glyph unicode="&#xde;" glyph-name="Thorn" horiz-adv-x="558" d="M-31 41L62 60L205 633L122 652L132 693H407L397 652L305 633L285 552H351Q463 552 518 511T574 400Q574 339 552 297T492 229T409 191T313 179Q287 179 270 182T243 189L254 232Q260 230 271
228T307 225Q382 225 426 266T470 392Q470 493 356 493H270L162 60L262 41L252 0H-41L-31 41Z" />
<glyph unicode="&#xdf;" glyph-name="germandbls" horiz-adv-x="563" d="M-100 -146H-95Q-77 -146 -60 -140T-28 -119T-1 -76T22 -5L137 493Q154 566 182 615T245 694T318 735T393 748Q424 748 452 740T501 717T534 679T546 628Q546 602 532 577T498 529T453 485T409
443T374 405T360 369Q360 358 364 349T378 329T401 308T435 280Q468 254 493 222T518 141Q518 107 505 79T469 31T414 0T344 -11Q313 -11 286 -6T239 9T208 35T196 72Q196 92 205 107T229 133H292L278 59Q289 51 303 47T340 42Q385 42 410 64T436 124Q436 153 416
173T364 219Q345 234 330 246T305 272T289 301T283 336Q283 372 309 406T368 474T426 544T453 623Q453 658 434 676T377 695Q327 695 293 650T233 503L113 23Q87 -84 39 -142T-91 -200Q-126 -200 -151 -185T-176 -141Q-176 -119 -165 -104T-141 -81H-90L-100 -146Z"
/>
<glyph unicode="&#xe0;" glyph-name="agrave" horiz-adv-x="522" d="M101 -11Q56 -11 30 21T4 108Q4 158 18 207T58 302T116 385T187 452T267 496T348 512Q371 512 393 505T428 488H434L460 516H525L374 54H464L453 20Q442 15 427 10T394 1T358 -6T324 -9Q298
-9 285 4T283 51L303 116H299Q256 60 208 25T101 -11ZM142 59Q161 59 183 70T229 100T278 146T330 203L400 424Q391 440 374 449T335 459Q308 459 280 445T225 406T176 349T136 280T109 204T99 129Q99 96 109 78T142 59ZM254 660L305 728L459 602L436 568L254 660Z"
/>
<glyph unicode="&#xe1;" glyph-name="aacute" horiz-adv-x="522" d="M101 -11Q56 -11 30 21T4 108Q4 158 18 207T58 302T116 385T187 452T267 496T348 512Q371 512 393 505T428 488H434L460 516H525L374 54H464L453 20Q442 15 427 10T394 1T358 -6T324 -9Q298
-9 285 4T283 51L303 116H299Q256 60 208 25T101 -11ZM142 59Q161 59 183 70T229 100T278 146T330 203L400 424Q391 440 374 449T335 459Q308 459 280 445T225 406T176 349T136 280T109 204T99 129Q99 96 109 78T142 59ZM272 602L460 730L490 658L287 568L272 602Z"
/>
<glyph unicode="&#xe2;" glyph-name="acircumflex" horiz-adv-x="522" d="M101 -11Q56 -11 30 21T4 108Q4 158 18 207T58 302T116 385T187 452T267 496T348 512Q371 512 393 505T428 488H434L460 516H525L374 54H464L453 20Q442 15 427 10T394 1T358 -6T324 -9Q298
-9 285 4T283 51L303 116H299Q256 60 208 25T101 -11ZM142 59Q161 59 183 70T229 100T278 146T330 203L400 424Q391 440 374 449T335 459Q308 459 280 445T225 406T176 349T136 280T109 204T99 129Q99 96 109 78T142 59ZM219 602L357 723H403L494 601L469 573L370
647L236 573L219 602Z" />
<glyph unicode="&#xe3;" glyph-name="atilde" horiz-adv-x="522" d="M101 -11Q56 -11 30 21T4 108Q4 158 18 207T58 302T116 385T187 452T267 496T348 512Q371 512 393 505T428 488H434L460 516H525L374 54H464L453 20Q442 15 427 10T394 1T358 -6T324 -9Q298
-9 285 4T283 51L303 116H299Q256 60 208 25T101 -11ZM142 59Q161 59 183 70T229 100T278 146T330 203L400 424Q391 440 374 449T335 459Q308 459 280 445T225 406T176 349T136 280T109 204T99 129Q99 96 109 78T142 59ZM218 613Q243 658 267 682T323 706Q339 706
354 701T382 689T408 677T431 671Q446 671 460 680T491 713L528 695Q503 650 479 626T423 602Q407 602 392 607T364 619T338 631T316 637Q301 637 287 628T255 595L218 613Z" />
<glyph unicode="&#xe4;" glyph-name="adieresis" horiz-adv-x="522" d="M101 -11Q56 -11 30 21T4 108Q4 158 18 207T58 302T116 385T187 452T267 496T348 512Q371 512 393 505T428 488H434L460 516H525L374 54H464L453 20Q442 15 427 10T394 1T358 -6T324 -9Q298
-9 285 4T283 51L303 116H299Q256 60 208 25T101 -11ZM142 59Q161 59 183 70T229 100T278 146T330 203L400 424Q391 440 374 449T335 459Q308 459 280 445T225 406T176 349T136 280T109 204T99 129Q99 96 109 78T142 59ZM455 623Q433 623 418 638T403 672Q403 698
420 714T460 731Q483 731 497 717T512 683Q512 658 495 641T455 623ZM291 623Q269 623 254 638T239 672Q239 698 256 714T296 731Q319 731 333 717T348 683Q348 658 331 641T291 623Z" />
<glyph unicode="&#xe5;" glyph-name="aring" horiz-adv-x="522" d="M101 -11Q56 -11 30 21T4 108Q4 158 18 207T58 302T116 385T187 452T267 496T348 512Q371 512 393 505T428 488H434L460 516H525L374 54H464L453 20Q442 15 427 10T394 1T358 -6T324 -9Q298 -9
285 4T283 51L303 116H299Q256 60 208 25T101 -11ZM142 59Q161 59 183 70T229 100T278 146T330 203L400 424Q391 440 374 449T335 459Q308 459 280 445T225 406T176 349T136 280T109 204T99 129Q99 96 109 78T142 59ZM370 573Q350 573 334 580T307 598T289 625T282
656Q282 698 311 724T380 750Q400 750 416 743T443 725T461 698T468 667Q468 625 439 599T370 573ZM372 612Q394 612 408 626T423 664Q423 685 412 698T378 711Q356 711 341 697T326 658Q326 638 338 625T372 612Z" />
<glyph unicode="&#xe6;" glyph-name="ae" horiz-adv-x="703" d="M127 -11Q66 -11 29 23T-9 112Q-9 184 36 222T165 270L306 287L320 340Q328 372 328 395Q328 429 310 449T248 470Q219 470 200 464T169 448L158 384H99Q89 392 83 403T77 428Q77 445 89 462T126
493T184 515T264 524Q331 524 366 498T407 427Q448 472 496 498T597 524Q624 524 647 519T687 502T714 472T724 427Q724 376 697 343T623 288T514 255T383 236Q379 219 378 201T376 165Q376 109 397 80T474 51Q521 51 565 70T641 114L632 67Q620 55 602 42T559
16T505 -3T444 -11Q384 -11 347 13T293 79Q278 62 261 46T223 17T178 -3T127 -11ZM281 153Q281 173 282 192T289 232L185 228Q78 224 78 129Q79 97 97 74T154 51Q189 51 220 67T283 119Q282 127 282 135T281 153ZM586 470Q557 470 529 456T476 417T430 359T396
286Q446 292 489 300T563 324T613 363T631 423Q631 443 621 456T586 470Z" />
<glyph unicode="&#xe7;" glyph-name="ccedilla" horiz-adv-x="409" d="M53 -177Q110 -169 137 -157T165 -122Q165 -110 151 -102T90 -93L112 -1Q61 15 38 56T14 153Q14 234 43 302T120 420T226 496T344 524Q396 524 423 506T450 458Q450 438 439 422T414 391H350L362
464Q355 466 347 468T329 470Q288 470 249 445T178 376T128 277T109 159Q109 108 130 80T207 51Q250 51 285 68T356 107L346 60Q334 49 318 37T280 14T233 -4T177 -11Q172 -11 168 -11T156 -10L147 -48Q244 -53 244 -110Q244 -157 196 -182T44 -213L53 -177Z" />
<glyph unicode="&#xe8;" glyph-name="egrave" horiz-adv-x="436" d="M174 -11Q133 -11 103 1T54 36T24 88T14 153Q14 231 43 299T117 417T217 495T323 524Q348 524 371 519T410 502T437 472T447 427Q447 376 420 342T347 285T241 248T114 225Q111 210 110 195T109
165Q109 109 129 80T204 51Q249 51 291 69T364 112L355 65Q343 53 325 40T284 15T233 -3T174 -11ZM312 470Q284 470 256 455T203 414T158 352T125 275Q173 282 215 292T287 319T336 361T354 423Q354 443 344 456T312 470ZM476 660L527 728L681 602L658 568L476
660Z" />
<glyph unicode="&#xe9;" glyph-name="eacute" horiz-adv-x="436" d="M174 -11Q133 -11 103 1T54 36T24 88T14 153Q14 231 43 299T117 417T217 495T323 524Q348 524 371 519T410 502T437 472T447 427Q447 376 420 342T347 285T241 248T114 225Q111 210 110 195T109
165Q109 109 129 80T204 51Q249 51 291 69T364 112L355 65Q343 53 325 40T284 15T233 -3T174 -11ZM312 470Q284 470 256 455T203 414T158 352T125 275Q173 282 215 292T287 319T336 361T354 423Q354 443 344 456T312 470ZM238 602L426 730L456 658L253 568L238
602Z" />
<glyph unicode="&#xea;" glyph-name="ecircumflex" horiz-adv-x="436" d="M174 -11Q133 -11 103 1T54 36T24 88T14 153Q14 231 43 299T117 417T217 495T323 524Q348 524 371 519T410 502T437 472T447 427Q447 376 420 342T347 285T241 248T114 225Q111 210 110
195T109 165Q109 109 129 80T204 51Q249 51 291 69T364 112L355 65Q343 53 325 40T284 15T233 -3T174 -11ZM312 470Q284 470 256 455T203 414T158 352T125 275Q173 282 215 292T287 319T336 361T354 423Q354 443 344 456T312 470ZM441 602L579 723H625L716 601L691
573L592 647L458 573L441 602Z" />
<glyph unicode="&#xeb;" glyph-name="edieresis" horiz-adv-x="436" d="M174 -11Q133 -11 103 1T54 36T24 88T14 153Q14 231 43 299T117 417T217 495T323 524Q348 524 371 519T410 502T437 472T447 427Q447 376 420 342T347 285T241 248T114 225Q111 210 110 195T109
165Q109 109 129 80T204 51Q249 51 291 69T364 112L355 65Q343 53 325 40T284 15T233 -3T174 -11ZM312 470Q284 470 256 455T203 414T158 352T125 275Q173 282 215 292T287 319T336 361T354 423Q354 443 344 456T312 470ZM676 623Q654 623 639 638T624 672Q624
698 641 714T681 731Q704 731 718 717T733 683Q733 658 716 641T676 623ZM512 623Q490 623 475 638T460 672Q460 698 477 714T517 731Q540 731 554 717T569 683Q569 658 552 641T512 623Z" />
<glyph unicode="&#xec;" glyph-name="igrave" horiz-adv-x="271" d="M73 -9Q47 -9 34 4T32 51L146 454H66L77 497L251 524L260 516L123 54H213L202 20Q191 15 176 10T143 1T107 -6T73 -9ZM374 660L425 728L579 602L556 568L374 660Z" />
<glyph unicode="&#xed;" glyph-name="iacute" horiz-adv-x="271" d="M73 -9Q47 -9 34 4T32 51L146 454H66L77 497L251 524L260 516L123 54H213L202 20Q191 15 176 10T143 1T107 -6T73 -9ZM393 602L581 730L611 658L408 568L393 602Z" />
<glyph unicode="&#xee;" glyph-name="icircumflex" horiz-adv-x="271" d="M73 -9Q47 -9 34 4T32 51L146 454H66L77 497L251 524L260 516L123 54H213L202 20Q191 15 176 10T143 1T107 -6T73 -9ZM339 602L477 723H523L614 601L589 573L490 647L356 573L339 602Z" />
<glyph unicode="&#xef;" glyph-name="idieresis" horiz-adv-x="271" d="M73 -9Q47 -9 34 4T32 51L146 454H66L77 497L251 524L260 516L123 54H213L202 20Q191 15 176 10T143 1T107 -6T73 -9ZM578 623Q556 623 541 638T526 672Q526 698 543 714T583 731Q606 731
620 717T635 683Q635 658 618 641T578 623ZM414 623Q392 623 377 638T362 672Q362 698 379 714T419 731Q442 731 456 717T471 683Q471 658 454 641T414 623Z" />
<glyph unicode="&#xf0;" glyph-name="eth" horiz-adv-x="512" d="M306 524Q329 524 347 521T383 506H389Q378 538 363 564T328 613L176 549L159 591L295 648Q276 665 256 681T214 715L243 755Q278 738 308 720T366 678L476 724L494 682L402 644Q446 596 471 535T496
392Q496 312 474 240T412 111T315 22T189 -11Q150 -11 118 2T63 40T28 98T15 170Q15 248 44 313T116 425T211 498T306 524ZM402 396Q402 407 402 413T401 422Q386 445 362 457T307 469Q269 469 234 442T170 371T125 270T108 151Q108 98 131 71T196 43Q237 43 274
69T340 141T385 253T402 396Z" />
<glyph unicode="&#xf1;" glyph-name="ntilde" horiz-adv-x="558" d="M364 -9Q338 -9 325 4T323 51L422 366Q433 402 433 420Q433 439 425 446T402 453Q379 453 352 438T297 398T240 341T184 273L101 0H9L146 454H66L77 497L242 524L251 516L205 362H210Q270 440
327 482T450 524Q485 524 507 502T529 438Q529 408 517 371L414 54H500L489 20Q467 11 432 1T364 -9ZM221 613Q246 658 270 682T326 706Q342 706 357 701T385 689T411 677T434 671Q449 671 463 680T494 713L531 695Q506 650 482 626T426 602Q410 602 395 607T367
619T341 631T319 637Q304 637 290 628T258 595L221 613Z" />
<glyph unicode="&#xf2;" glyph-name="ograve" horiz-adv-x="509" d="M193 -11Q152 -11 119 2T63 38T28 94T15 166Q15 242 43 307T115 421T213 496T320 524Q405 524 450 475T495 347Q495 270 469 205T399 91T302 16T193 -11ZM201 43Q243 43 279 71T343 145T386
249T402 366Q402 470 312 470Q270 470 233 442T168 368T124 264T108 147Q108 94 132 69T201 43ZM235 660L286 728L440 602L417 568L235 660Z" />
<glyph unicode="&#xf3;" glyph-name="oacute" horiz-adv-x="509" d="M193 -11Q152 -11 119 2T63 38T28 94T15 166Q15 242 43 307T115 421T213 496T320 524Q405 524 450 475T495 347Q495 270 469 205T399 91T302 16T193 -11ZM201 43Q243 43 279 71T343 145T386
249T402 366Q402 470 312 470Q270 470 233 442T168 368T124 264T108 147Q108 94 132 69T201 43ZM253 602L441 730L471 658L268 568L253 602Z" />
<glyph unicode="&#xf4;" glyph-name="ocircumflex" horiz-adv-x="509" d="M193 -11Q152 -11 119 2T63 38T28 94T15 166Q15 242 43 307T115 421T213 496T320 524Q405 524 450 475T495 347Q495 270 469 205T399 91T302 16T193 -11ZM201 43Q243 43 279 71T343 145T386
249T402 366Q402 470 312 470Q270 470 233 442T168 368T124 264T108 147Q108 94 132 69T201 43ZM200 602L338 723H384L475 601L450 573L351 647L217 573L200 602Z" />
<glyph unicode="&#xf5;" glyph-name="otilde" horiz-adv-x="509" d="M193 -11Q152 -11 119 2T63 38T28 94T15 166Q15 242 43 307T115 421T213 496T320 524Q405 524 450 475T495 347Q495 270 469 205T399 91T302 16T193 -11ZM201 43Q243 43 279 71T343 145T386
249T402 366Q402 470 312 470Q270 470 233 442T168 368T124 264T108 147Q108 94 132 69T201 43ZM199 613Q224 658 248 682T304 706Q320 706 335 701T363 689T389 677T412 671Q427 671 441 680T472 713L509 695Q484 650 460 626T404 602Q388 602 373 607T345 619T319
631T297 637Q282 637 268 628T236 595L199 613Z" />
<glyph unicode="&#xf6;" glyph-name="odieresis" horiz-adv-x="509" d="M193 -11Q152 -11 119 2T63 38T28 94T15 166Q15 242 43 307T115 421T213 496T320 524Q405 524 450 475T495 347Q495 270 469 205T399 91T302 16T193 -11ZM201 43Q243 43 279 71T343 145T386
249T402 366Q402 470 312 470Q270 470 233 442T168 368T124 264T108 147Q108 94 132 69T201 43ZM434 623Q412 623 397 638T382 672Q382 698 399 714T439 731Q462 731 476 717T491 683Q491 658 474 641T434 623ZM270 623Q248 623 233 638T218 672Q218 698 235 714T275
731Q298 731 312 717T327 683Q327 658 310 641T270 623Z" />
<glyph unicode="&#xf7;" glyph-name="divide" horiz-adv-x="526" d="M82 371H492V309H82V371ZM286 115Q260 115 242 133T224 176Q224 202 242 220T286 238Q312 238 330 220T349 176Q349 152 331 134T286 115ZM286 442Q260 442 242 460T224 503Q224 529 242 547T286
565Q312 565 330 547T349 503Q349 479 331 461T286 442Z" />
<glyph unicode="&#xf8;" glyph-name="oslash" horiz-adv-x="509" d="M193 -11Q158 -11 130 -2T80 24L23 -41L-13 -8L46 59Q15 104 15 166Q15 242 43 307T115 421T213 496T320 524Q353 524 380 516T429 492L483 553L518 520L463 458Q495 412 495 347Q495 270 469
205T399 91T302 16T193 -11ZM201 43Q243 43 280 71T345 145T389 249T405 366Q405 373 405 379T404 391L124 73Q146 43 201 43ZM105 147Q105 142 105 137T106 127L385 442Q364 470 312 470Q270 470 233 442T167 368T122 264T105 147Z" />
<glyph unicode="&#xf9;" glyph-name="ugrave" horiz-adv-x="558" d="M118 -11Q80 -11 57 11T33 76Q33 104 45 142L146 454H66L77 497L246 524L255 516L140 147Q130 116 130 95Q130 75 139 67T163 59Q182 59 206 73T259 112T315 166T371 230L457 513H549L414 54H500L489
20Q467 11 432 1T364 -9Q338 -9 325 4T323 51L350 141H345Q287 71 234 30T118 -11ZM262 660L313 728L467 602L444 568L262 660Z" />
<glyph unicode="&#xfa;" glyph-name="uacute" horiz-adv-x="558" d="M118 -11Q80 -11 57 11T33 76Q33 104 45 142L146 454H66L77 497L246 524L255 516L140 147Q130 116 130 95Q130 75 139 67T163 59Q182 59 206 73T259 112T315 166T371 230L457 513H549L414 54H500L489
20Q467 11 432 1T364 -9Q338 -9 325 4T323 51L350 141H345Q287 71 234 30T118 -11ZM280 602L468 730L498 658L295 568L280 602Z" />
<glyph unicode="&#xfb;" glyph-name="ucircumflex" horiz-adv-x="558" d="M118 -11Q80 -11 57 11T33 76Q33 104 45 142L146 454H66L77 497L246 524L255 516L140 147Q130 116 130 95Q130 75 139 67T163 59Q182 59 206 73T259 112T315 166T371 230L457 513H549L414
54H500L489 20Q467 11 432 1T364 -9Q338 -9 325 4T323 51L350 141H345Q287 71 234 30T118 -11ZM227 602L365 723H411L502 601L477 573L378 647L244 573L227 602Z" />
<glyph unicode="&#xfc;" glyph-name="udieresis" horiz-adv-x="558" d="M118 -11Q80 -11 57 11T33 76Q33 104 45 142L146 454H66L77 497L246 524L255 516L140 147Q130 116 130 95Q130 75 139 67T163 59Q182 59 206 73T259 112T315 166T371 230L457 513H549L414
54H500L489 20Q467 11 432 1T364 -9Q338 -9 325 4T323 51L350 141H345Q287 71 234 30T118 -11ZM460 623Q438 623 423 638T408 672Q408 698 425 714T465 731Q488 731 502 717T517 683Q517 658 500 641T460 623ZM296 623Q274 623 259 638T244 672Q244 698 261 714T301
731Q324 731 338 717T353 683Q353 658 336 641T296 623Z" />
<glyph unicode="&#xfd;" glyph-name="yacute" horiz-adv-x="468" d="M-71 -141H-67Q-23 -141 23 -115T116 -46Q125 110 125 226Q125 301 123 358T115 454H40L51 497Q72 506 103 514T160 522Q186 522 196 511T208 469Q210 441 211 405T212 328Q212 259 209 186T200
52H205Q246 104 283 161T348 272T396 373T421 454H336L344 492Q367 505 395 514T452 524Q501 524 499 481Q498 456 487 421T456 344T410 257T353 165T289 76T222 -5Q179 -53 142 -89T68 -150T-5 -187T-83 -200Q-115 -200 -135 -185T-155 -141Q-154 -121 -141 -105T-116
-81H-57L-71 -141ZM232 602L420 730L450 658L247 568L232 602Z" />
<glyph unicode="&#xfe;" glyph-name="thorn" horiz-adv-x="531" d="M-115 -165L-37 -151L200 673L118 679L129 722L303 753L314 745L210 390H215Q236 417 259 441T306 484T358 513T416 524Q464 524 494 490T525 390Q525 317 500 245T430 116T326 24T201 -11Q169
-11 146 -6T102 8L57 -149L137 -165L129 -199H-123L-115 -165ZM206 42Q257 42 298 73T368 152T414 257T430 365Q430 407 419 430T379 454Q358 454 335 443T287 411T237 362T186 302L122 77Q140 60 159 51T206 42Z" />
<glyph unicode="&#xff;" glyph-name="ydieresis" horiz-adv-x="468" d="M-71 -141H-67Q-23 -141 23 -115T116 -46Q125 110 125 226Q125 301 123 358T115 454H40L51 497Q72 506 103 514T160 522Q186 522 196 511T208 469Q210 441 211 405T212 328Q212 259 209 186T200
52H205Q246 104 283 161T348 272T396 373T421 454H336L344 492Q367 505 395 514T452 524Q501 524 499 481Q498 456 487 421T456 344T410 257T353 165T289 76T222 -5Q179 -53 142 -89T68 -150T-5 -187T-83 -200Q-115 -200 -135 -185T-155 -141Q-154 -121 -141 -105T-116
-81H-57L-71 -141ZM658 623Q636 623 621 638T606 672Q606 698 623 714T663 731Q686 731 700 717T715 683Q715 658 698 641T658 623ZM494 623Q472 623 457 638T442 672Q442 698 459 714T499 731Q522 731 536 717T551 683Q551 658 534 641T494 623Z" />
<glyph unicode="&#x131;" glyph-name="dotlessi" horiz-adv-x="271" d="M73 -9Q47 -9 34 4T32 51L146 454H66L77 497L251 524L260 516L123 54H213L202 20Q191 15 176 10T143 1T107 -6T73 -9Z" />
<glyph unicode="&#x141;" glyph-name="Lslash" horiz-adv-x="550" d="M38 286L126 318L205 634L122 652L132 693H416L406 652L305 634L236 358L456 439L441 376L220 295L161 55H389L473 219H522L464 0H-41L-31 41L62 59L111 255L23 223L38 286Z" />
<glyph unicode="&#x142;" glyph-name="lslash" horiz-adv-x="287" d="M33 352L131 397L209 673L124 679L135 722L312 753L323 745L237 447L343 496L325 429L217 379L124 54H222L211 20Q200 15 183 10T147 1T109 -6T74 -9Q48 -9 35 4T33 51L112 329L16 285L33 352Z" />
<glyph unicode="&#x152;" glyph-name="OE" horiz-adv-x="912" d="M924 521H876L855 638H645L581 383H700L749 478H792L740 236H697L692 332H569L500 55H745L827 200H875L820 0H336Q190 0 117 64T43 240Q43 327 69 408T147 553T276 654T454 693H943L924 521ZM452
638Q396 638 354 623T271 572Q241 546 218 510T179 429T155 334T147 229Q147 180 160 147T199 94T262 64T347 55H400L545 638H452Z" />
<glyph unicode="&#x153;" glyph-name="oe" horiz-adv-x="799" d="M193 -11Q152 -11 119 2T63 38T28 94T15 166Q15 242 43 307T115 421T213 496T320 524Q385 524 424 490T475 399Q519 457 576 490T693 524Q720 524 743 519T783 502T810 472T820 427Q820 376 793
342T718 284T609 248T477 225Q474 210 473 195T472 165Q472 109 493 80T570 51Q617 51 661 70T737 114L728 67Q716 55 698 42T655 16T601 -3T540 -11Q474 -11 441 19T397 98Q356 47 303 18T193 -11ZM201 43Q243 43 279 71T343 145T386 249T402 366Q402 470 312
470Q270 470 233 442T168 368T124 264T108 147Q108 94 132 69T201 43ZM682 470Q652 470 623 455T568 414T522 351T489 274Q540 281 583 291T659 319T709 361T727 423Q727 443 717 456T682 470Z" />
<glyph unicode="&#x160;" glyph-name="Scaron" d="M515 837L382 740H336L239 839L261 867L367 814L499 867L515 837ZM187 -12Q117 -12 72 2T-7 33L20 179H68L77 85Q89 77 100 70T125 57T157 49T202 46Q271 46 313 84T355 187Q355 226 333 254T263 309L203 343Q158
369 133 407T107 500Q107 539 122 576T167 642T241 688T345 706Q378 706 403 703T449 694T484 682T513 670L497 532H450L435 619Q429 623 422 628T404 638T377 646T334 649Q306 649 281 641T238 617T208 579T197 526Q197 493 214 467T276 414L336 380Q389 351 421
313T454 217Q454 175 438 134T388 61T305 8T187 -12Z" />
<glyph unicode="&#x161;" glyph-name="scaron" horiz-adv-x="392" d="M150 -11Q114 -11 83 -5T30 13T-5 42T-18 80Q-18 100 -9 115T15 141H82L68 67Q79 56 96 49T142 42Q197 42 225 65T253 124Q253 140 247 153T229 177T202 200T170 225Q147 243 130 258T100 291T82
327T76 371Q76 403 89 431T127 479T186 512T263 524Q291 524 316 519T359 503T388 479T399 446Q399 427 390 410T367 379H304L319 450Q307 460 292 465T253 471Q208 471 182 449T155 389Q155 375 160 364T175 342T202 319T241 288Q263 271 280 256T310 223T330
186T337 141Q337 109 324 82T285 34T226 1T150 -11ZM699 697L561 576H515L424 698L449 726L548 652L682 726L699 697Z" />
<glyph unicode="&#x178;" glyph-name="Ydieresis" horiz-adv-x="618" d="M530 737Q508 737 493 752T478 786Q478 812 495 828T535 845Q558 845 572 831T587 797Q587 772 570 755T530 737ZM366 737Q344 737 329 752T314 786Q314 812 331 828T371 845Q394 845 408
831T423 797Q423 772 406 755T366 737ZM127 41L220 60L283 311L168 633L112 652L122 693H356L346 652L272 633L361 367H365L573 633L504 652L514 693H720L710 652L645 633L381 303L320 60L401 41L391 0H117L127 41Z" />
<glyph unicode="&#x17d;" glyph-name="Zcaron" horiz-adv-x="534" d="M540 837L407 740H361L264 839L286 867L392 814L524 867L540 837ZM-29 46L479 632V636H221L151 504H102L152 693H618L606 647L98 61V57H377L452 189H500L449 0H-40L-29 46Z" />
<glyph unicode="&#x17e;" glyph-name="zcaron" horiz-adv-x="435" d="M34 -6Q1 -6 -14 5T-29 38Q-29 57 -14 77T25 117L334 394Q304 402 274 412T217 432T171 452T140 470L116 389H72Q66 405 66 420Q66 466 96 495T172 524Q199 524 228 518T285 502T339 478T386
449L410 520Q436 519 452 509T469 482Q469 462 453 439T396 380L105 119Q134 114 164 107T224 90T278 70T324 50L326 121H393Q391 95 386 72T369 30T340 1T294 -10Q263 -10 231 -3T169 15T110 39T59 66H54L34 -6ZM705 697L567 576H521L430 698L455 726L554 652L688
726L705 697Z" />
<glyph unicode="&#x192;" glyph-name="florin" horiz-adv-x="376" d="M193 544Q215 631 263 667T378 703Q410 703 430 697T463 684L455 637Q438 640 425 641T392 643Q349 643 323 618T280 525L253 419H380L366 360H239L136 -51Q118 -123 78 -153T-19 -183Q-47
-183 -66 -177T-94 -165L-86 -119Q-77 -121 -66 -122T-39 -123Q-7 -123 14 -104T48 -35L147 360H64L78 419H162L193 544Z" />
<glyph unicode="&#x2c6;" glyph-name="circumflex" horiz-adv-x="488" d="M197 602L335 723H381L472 601L447 573L348 647L214 573L197 602Z" />
<glyph unicode="&#x2c7;" glyph-name="caron" horiz-adv-x="488" d="M492 697L354 576H308L217 698L242 726L341 652L475 726L492 697Z" />
<glyph unicode="&#x2d8;" glyph-name="breve" horiz-adv-x="488" d="M347 581Q292 581 260 616T233 707H290Q293 646 355 646Q417 646 440 707H497Q486 650 444 616T347 581Z" />
<glyph unicode="&#x2d9;" glyph-name="dotaccent" horiz-adv-x="488" d="M342 626Q319 626 306 640T292 674Q292 700 309 716T349 733Q372 733 385 719T399 685Q399 659 382 643T342 626Z" />
<glyph unicode="&#x2da;" glyph-name="ring" horiz-adv-x="488" d="M343 573Q323 573 307 580T280 598T262 625T255 656Q255 698 284 724T353 750Q373 750 389 743T416 725T434 698T441 667Q441 625 412 599T343 573ZM345 612Q367 612 381 626T396 664Q396 685
385 698T351 711Q329 711 314 697T299 658Q299 638 311 625T345 612Z" />
<glyph unicode="&#x2db;" glyph-name="ogonek" horiz-adv-x="488" d="M144 -201Q98 -201 78 -183T58 -133Q58 -111 69 -92T99 -57T140 -26T186 0H234Q192 -34 166 -64T140 -124Q140 -158 175 -158Q186 -158 197 -157T214 -153L205 -191Q191 -196 178 -198T144 -201Z" />
<glyph unicode="&#x2dc;" glyph-name="tilde" horiz-adv-x="488" d="M191 613Q216 658 240 682T296 706Q312 706 327 701T355 689T381 677T404 671Q419 671 433 680T464 713L501 695Q476 650 452 626T396 602Q380 602 365 607T337 619T311 631T289 637Q274 637
260 628T228 595L191 613Z" />
<glyph unicode="&#x2dd;" glyph-name="hungarumlaut" horiz-adv-x="488" d="M363 588L481 739L539 692L394 565L363 588ZM203 588L321 739L379 692L234 565L203 588Z" />
</font>
</defs>
</svg>
