<?xml version="1.0" standalone="no"?> <!DOCTYPE svg PUBLIC "-//W3C//DTD SVG 1.0//EN" "http://www.w3.org/TR/2001/REC-SVG-20010904/DTD/svg10.dtd" > <svg xmlns="http://www.w3.org/2000/svg" width="100%" height="100%">
<defs >
<font id="GuardianEgyptianWeb-Bold" horiz-adv-x="577" ><font-face
    font-family="GuardianEgyptianWeb"
    units-per-em="1000"
    panose-1="2 0 0 0 0 0 0 0 0 0"
    ascent="790"
    descent="-210"
    alphabetic="0" />
<missing-glyph horiz-adv-x="500" d="M442 8V526H58V8H442ZM50 534H450V0H50V534Z" />
<glyph unicode=" " glyph-name="space" horiz-adv-x="174" />
<glyph unicode="!" glyph-name="exclam" horiz-adv-x="275" d="M138 -12Q96 -12 70 14T44 76Q44 94 51 110T70 138T100 157T138 165Q158 165 175 158T204 138T222 110T229 76Q229 40 204 14T138 -12ZM40 693H235L197 217H73L40 693Z" />
<glyph unicode="&quot;" glyph-name="quotedbl" horiz-adv-x="455" d="M42 693H211L186 463H67L42 693ZM244 693H413L388 463H269L244 693Z" />
<glyph unicode="#" glyph-name="numbersign" horiz-adv-x="539" d="M57 538H155L179 693H278L253 538H345L370 693H468L444 538H520V394H421L407 310H483V166H384L358 0H260L286 166H194L168 0H69L95 166H20V310H118L132 394H57V538ZM216 310H308L322 394H230L216 310Z" />
<glyph unicode="$" glyph-name="dollar" horiz-adv-x="574" d="M194 -9Q147 -5 105 2T33 22L23 199H140L169 116Q183 109 208 104L231 280L205 288Q116 310 72 357T27 494Q27 540 42 578T89 644T170 688T285 706L293 765H381L373 703Q420 698 453 691T508 676L517
517H402L384 582L358 588L338 431L362 425Q409 412 444 396T503 354T538 295T550 213Q550 112 482 53T281 -12L268 -117H180L194 -9ZM375 178Q375 206 362 223T315 255L296 102Q336 107 355 127T375 178ZM193 528Q193 502 206 486T253 456L271 595Q236 592 215
575T193 528Z" />
<glyph unicode="%" glyph-name="percent" horiz-adv-x="917" d="M212 384Q242 384 250 411T258 501Q258 564 250 594T212 625Q183 625 175 596T166 505Q166 445 174 415T212 384ZM211 305Q174 305 140 316T79 351T36 412T20 501Q20 555 36 593T80 656T141 693T212
705Q248 705 282 694T344 658T389 596T406 506Q406 453 390 415T346 353T283 317T211 305ZM638 713H743L271 -40H166L638 713ZM704 68Q734 68 742 95T750 185Q750 247 742 278T704 309Q674 309 666 280T658 189Q658 128 666 98T704 68ZM703 -12Q666 -12 632 -1T571
35T528 96T512 185Q512 239 528 277T572 340T633 376T704 388Q739 388 773 377T835 341T880 280T897 190Q897 137 881 99T837 36T775 0T703 -12Z" />
<glyph unicode="&amp;" glyph-name="ampersand" horiz-adv-x="756" d="M280 -12Q154 -12 85 38T16 187Q16 260 57 305T165 382Q139 419 128 451T117 519Q117 559 132 593T176 652T247 691T343 705Q440 705 491 661T542 547Q542 515 531 490T501 446T454 410T396
379L534 230Q553 264 562 297L513 310V401H739V309L687 296Q675 258 655 221T607 151L640 116L714 97V0H505L470 38Q426 15 379 2T280 -12ZM327 105Q364 105 400 116L234 299Q220 282 215 262T210 216Q210 166 240 136T327 105ZM291 534Q291 506 303 485T334 444Q369
466 380 488T392 542Q392 574 378 588T344 603Q319 603 305 585T291 534Z" />
<glyph unicode="&apos;" glyph-name="quotesingle" horiz-adv-x="253" d="M42 693H211L186 463H67L42 693Z" />
<glyph unicode="(" glyph-name="parenleft" horiz-adv-x="361" d="M280 -150Q230 -114 185 -71T104 26T48 148T27 302Q27 380 48 447T104 570T185 672T280 754L344 695Q312 657 286 617T240 532T210 434T199 318Q199 243 209 186T237 80T283 -9T344 -91L280 -150V-150Z" />
<glyph unicode=")" glyph-name="parenright" horiz-adv-x="361" d="M16 -91Q48 -53 74 -13T120 72T151 170T162 286Q162 361 152 418T123 524T77 613T16 695L81 754Q130 718 176 675T257 578T313 456T334 302Q334 224 313 157T256 34T176 -68T81 -150L16 -91Z" />
<glyph unicode="*" glyph-name="asterisk" horiz-adv-x="393" d="M168 473L79 386L20 493L136 522L20 551L79 658L168 571L132 693H261L225 571L314 658L373 551L257 522L373 493L314 386L225 473L261 352H132L168 473Z" />
<glyph unicode="+" glyph-name="plus" horiz-adv-x="540" d="M45 399H209V570H331V399H495V281H331V110H209V281H45V399Z" />
<glyph unicode="," glyph-name="comma" horiz-adv-x="257" d="M37 -81Q42 -24 45 32T48 161H222Q210 25 160 -81H37V-81Z" />
<glyph unicode="-" glyph-name="hyphen" horiz-adv-x="329" d="M33 352H296V216H33V352Z" />
<glyph unicode="." glyph-name="period" horiz-adv-x="257" d="M128 -13Q85 -13 58 14T31 80Q31 99 38 116T58 146T89 166T128 174Q150 174 167 167T198 146T218 116T225 80Q225 42 199 15T128 -13Z" />
<glyph unicode="/" glyph-name="slash" horiz-adv-x="384" d="M237 733H366L126 -120H-3L237 733Z" />
<glyph unicode="0" glyph-name="zero" horiz-adv-x="663" d="M332 105Q380 105 403 160T426 340Q426 410 421 457T405 533T376 574T332 587Q283 587 260 531T236 351Q236 282 241 235T257 159T287 118T332 105ZM330 -12Q264 -12 209 9T112 73T48 184T25 343Q25
438 50 506T118 619T217 684T334 705Q398 705 454 684T550 620T614 509T638 350Q638 255 613 187T546 74T447 9T330 -12Z" />
<glyph unicode="1" glyph-name="one" horiz-adv-x="425" d="M27 97L116 114V514L19 507V604L222 700H320V114L407 97V0H27V97Z" />
<glyph unicode="2" glyph-name="two" horiz-adv-x="540" d="M12 109L169 261Q226 316 258 361T291 457Q291 554 179 554Q143 554 105 548T34 531V645Q72 667 131 685T260 704Q378 704 440 647T502 489Q502 447 488 410T447 338T382 269T297 201L208 136V134H378L412
204H515L499 0H12V109Z" />
<glyph unicode="3" glyph-name="three" horiz-adv-x="530" d="M220 -10Q143 -10 96 4T16 37V146Q45 136 82 130T163 124Q227 124 259 143T291 210Q291 261 264 280T179 299H113V412H167Q224 412 252 430T280 490Q280 531 254 550T169 570Q131 570 101 565T42 552V658Q74
677 128 690T245 704Q356 704 417 660T478 528Q478 465 441 426T345 369V365Q378 360 407 348T457 314T492 263T505 193Q505 98 431 44T220 -10Z" />
<glyph unicode="4" glyph-name="four" horiz-adv-x="603" d="M236 97L310 112V201H17V296L340 694H506V307H580V201H506V112L576 97V0H236V97ZM310 307V500H306L155 310V307H310Z" />
<glyph unicode="5" glyph-name="five" horiz-adv-x="536" d="M224 -10Q148 -10 101 5T19 38V145Q50 135 87 129T168 122Q229 122 263 146T298 225Q298 279 260 300T155 321Q126 321 100 318T50 309L72 693H476L466 550H188L179 435Q193 438 215 439T259 441Q314
441 360 428T439 389T490 322T509 228Q509 178 491 135T438 59T349 9T224 -10Z" />
<glyph unicode="6" glyph-name="six" horiz-adv-x="620" d="M319 -12Q248 -12 194 12T102 80T45 187T25 326Q25 426 52 497T126 615T234 682T362 704Q428 704 474 692T548 662V553Q524 561 487 564T411 568Q376 568 346 561T291 536T252 485T232 403Q258 420 297
431T378 443Q432 443 472 428T541 385T583 318T597 232Q597 183 581 139T530 61T443 8T319 -12ZM317 106Q357 106 374 134T392 222Q392 280 373 302T312 324Q287 324 267 319T232 306Q231 297 231 294T231 279Q231 186 251 146T317 106Z" />
<glyph unicode="7" glyph-name="seven" horiz-adv-x="544" d="M390 545V550H154L128 479H19L29 693H525V581L314 0H88L390 545Z" />
<glyph unicode="8" glyph-name="eight" horiz-adv-x="623" d="M309 -13Q164 -13 94 38T23 178Q23 235 62 276T163 340Q103 368 75 408T47 509Q47 552 65 588T118 650T204 690T320 705Q448 705 511 658T575 532Q575 504 565 482T538 441T497 408T446 384Q481 372
509 356T558 318T589 268T600 202Q600 98 524 43T309 -13ZM296 100Q352 100 378 121T405 180Q405 200 396 214T367 241T318 264T250 287Q218 268 204 242T190 181Q190 142 217 121T296 100ZM349 432Q374 446 391 467T409 522Q409 560 386 576T325 593Q287 593 263
576T239 529Q239 491 264 472T349 432Z" />
<glyph unicode="9" glyph-name="nine" horiz-adv-x="620" d="M257 -12Q191 -12 144 2T63 34V143Q93 135 130 130T208 124Q248 124 280 131T335 157T371 208T389 289Q363 272 323 261T241 249Q187 249 147 264T79 307T37 374T23 460Q23 509 39 553T90 631T177 684T301
704Q443 704 519 616T595 366Q595 267 571 196T502 78T395 10T257 -12ZM308 368Q333 368 352 373T388 386Q389 395 389 398T389 413Q389 506 369 546T303 586Q263 586 246 558T228 470Q228 412 247 390T308 368Z" />
<glyph unicode=":" glyph-name="colon" horiz-adv-x="262" d="M131 -13Q87 -13 60 14T32 80Q32 99 39 116T60 146T91 166T131 174Q153 174 171 167T202 146T222 116T229 80Q229 42 202 15T131 -13ZM131 279Q109 279 91 286T60 307T40 337T32 373Q32 392 39 409T60
439T91 459T131 467Q153 467 171 460T202 439T222 409T229 373Q229 354 222 337T202 307T171 287T131 279Z" />
<glyph unicode=";" glyph-name="semicolon" horiz-adv-x="262" d="M35 -81Q40 -24 43 32T46 161H220Q208 25 158 -81H35ZM131 279Q109 279 91 286T61 307T41 337T34 373Q34 392 41 409T60 439T91 459T131 467Q153 467 170 460T201 439T221 409T228 373Q228 354
221 337T201 307T171 287T131 279Z" />
<glyph unicode="&lt;" glyph-name="less" horiz-adv-x="500" d="M45 270V383L449 557V424L193 327L449 229V97L45 270Z" />
<glyph unicode="=" glyph-name="equal" horiz-adv-x="538" d="M46 261H493V143H46V261ZM46 463H493V345H46V463Z" />
<glyph unicode="&gt;" glyph-name="greater" horiz-adv-x="500" d="M50 229L307 326L50 424V557L455 383V270L50 97V229Z" />
<glyph unicode="?" glyph-name="question" horiz-adv-x="447" d="M118 217Q110 231 105 246T100 287Q100 325 118 349T169 401Q183 413 193 423T211 444T223 470T227 503Q227 540 205 562T133 584Q98 584 72 580T18 567V665Q47 682 92 693T190 704Q242 704 284
694T358 662T406 604T423 516Q423 483 415 457T392 411T356 373T310 338Q265 309 242 291T217 247Q217 233 221 217H118ZM175 -12Q133 -12 107 14T81 76Q81 94 88 110T107 138T137 157T175 165Q195 165 212 158T241 138T259 110T266 76Q266 40 241 14T175 -12Z"
/>
<glyph unicode="@" glyph-name="at" horiz-adv-x="894" d="M439 -155Q344 -155 269 -129T142 -55T63 63T35 218Q35 312 67 396T159 543T301 643T486 680Q571 680 640 655T758 584T833 472T860 323Q860 250 841 196T790 105T713 50T619 31Q562 31 533 50T490 99H484Q427
39 347 39Q321 39 298 49T258 81T230 132T219 202Q219 263 236 313T285 400T358 456T451 476Q495 476 522 466T570 442L594 467H684L625 167Q620 138 626 127T655 115Q676 115 697 126T736 162T765 226T776 321Q776 455 704 530T486 606Q401 606 334 576T220 494T148
371T123 222Q123 74 203 -3T444 -81Q478 -81 511 -78T573 -70T628 -59T670 -47V-113Q625 -131 567 -143T439 -155ZM419 142Q438 142 450 149T474 168L510 360Q504 373 494 383T465 394Q446 394 430 380T401 341T381 282T374 206Q374 172 386 157T419 142Z" />
<glyph unicode="A" glyph-name="A" horiz-adv-x="733" d="M7 97L63 114L273 693H464L669 114L725 97V0H384V97L451 114L422 205H233L203 114L271 97V0H7V97ZM263 301H392L331 494H326L263 301Z" />
<glyph unicode="B" glyph-name="B" horiz-adv-x="661" d="M17 97L86 114V579L17 596V693H366Q487 693 551 650T615 519Q615 456 588 417T488 359V354Q573 343 610 303T648 187Q648 98 585 49T383 0H17V97ZM344 111Q390 111 413 133T436 206Q436 258 413 280T343
303H285V111H344ZM336 402Q374 402 396 421T419 491Q419 543 398 562T335 582H285V402H336Z" />
<glyph unicode="C" glyph-name="C" horiz-adv-x="651" d="M368 -12Q293 -12 230 7T120 69T47 179T21 341Q21 443 52 512T134 624T251 686T386 705Q420 705 452 703T512 696T564 686T604 674L610 468H489L458 563Q443 570 425 574T381 579Q341 579 314 565T269
522T244 454T236 361Q236 289 244 242T271 166T317 126T387 114Q413 114 433 119T466 133L498 232H618L609 27Q571 10 512 -1T368 -12Z" />
<glyph unicode="D" glyph-name="D" horiz-adv-x="721" d="M17 97L86 114V579L18 596V693H355Q435 693 499 675T608 616T677 512T701 358Q701 265 676 197T606 86T497 21T358 0H17V97ZM345 117Q380 117 407 127T452 162T479 232T489 344Q489 419 479 464T450 534T402
567T336 576H289V117H345Z" />
<glyph unicode="E" glyph-name="E" horiz-adv-x="641" d="M17 97L86 114V579L17 596V693H598L607 483H496L460 582H285V406H347L365 471H455V234H365L347 301H285V111H463L511 233H624L614 0H17V97Z" />
<glyph unicode="F" glyph-name="F" horiz-adv-x="636" d="M17 97L86 114V579L17 596V693H608L617 467H505L468 576H289V395H355L371 461H462V224H371L355 289H289V113L366 97V0H17V97Z" />
<glyph unicode="G" glyph-name="G" horiz-adv-x="705" d="M392 -12Q306 -12 238 7T121 69T47 179T21 341Q21 443 52 512T135 624T256 686T401 705Q469 705 527 696T620 673L628 469H507L473 564Q457 571 438 575T388 579Q307 579 271 524T234 361Q234 290 242
242T268 165T316 123T387 110Q405 110 421 113T448 120V231L386 247V344H692V247L638 231V26Q598 12 533 0T392 -12Z" />
<glyph unicode="H" glyph-name="H" horiz-adv-x="770" d="M17 97L86 114V579L17 596V693H347V596L289 580V410H483V580L423 596V693H753V596L685 579V114L754 97V0H423V97L483 113V300H289V113L347 97V0H17V97Z" />
<glyph unicode="I" glyph-name="I" horiz-adv-x="377" d="M17 97L87 114V579L17 596V693H360V596L290 579V114L360 97V0H17V97Z" />
<glyph unicode="J" glyph-name="J" horiz-adv-x="474" d="M165 -8Q103 -8 70 2T13 23V141Q31 136 49 132T99 128Q142 128 167 148T192 221V579L123 596V693H461V596L395 579V209Q395 105 339 49T165 -8Z" />
<glyph unicode="K" glyph-name="K" horiz-adv-x="739" d="M17 97L86 114V579L17 596V693H349V596L289 580V373L478 581L425 596V693H708V596L649 577L475 402L666 113L725 97V0H503L336 267L289 224V113L349 97V0H17V97Z" />
<glyph unicode="L" glyph-name="L" horiz-adv-x="605" d="M17 97L86 114V579L17 596V693H362V596L289 580V114H436L485 258H597L584 0H17V97Z" />
<glyph unicode="M" glyph-name="M" horiz-adv-x="946" d="M17 97L86 114V579L17 596V693H354L465 291H469L584 693H929V596L858 579V114L929 97V0H603V97L661 113V528H657L507 7H371L220 523H216V113L275 97V0H17V97Z" />
<glyph unicode="N" glyph-name="N" horiz-adv-x="736" d="M17 97L86 114V579L17 596V693H300L525 300H530V578L460 596V693H723V596L662 579V0H482L223 462H218V113L289 97V0H17V97Z" />
<glyph unicode="O" glyph-name="O" horiz-adv-x="713" d="M356 111Q416 111 448 163T481 339Q481 409 474 456T451 531T412 571T357 583Q298 583 265 530T232 355Q232 286 239 240T261 165T299 124T356 111ZM354 -12Q282 -12 221 9T116 75T46 185T21 342Q21 437
49 505T125 618T233 684T360 705Q432 705 492 684T597 618T667 508T692 351Q692 256 664 188T589 75T481 10T354 -12Z" />
<glyph unicode="P" glyph-name="P" horiz-adv-x="643" d="M17 97L86 114V579L17 596V693H354Q427 693 479 679T564 637T612 570T627 481Q627 369 565 317T388 264Q335 264 289 272V113L369 97V0H17V97ZM289 371Q311 368 343 368Q389 368 407 394T426 474Q426 575
343 575H289V371Z" />
<glyph unicode="Q" glyph-name="Q" horiz-adv-x="713" d="M273 -12Q228 2 183 25T102 89T44 191T21 342Q21 437 49 505T125 618T233 684T360 705Q432 705 492 684T597 618T667 508T692 351Q692 283 677 233T634 147T570 89T491 55V51L699 19L658 -132L273 -12ZM360
111Q424 111 452 163T481 339Q481 409 473 456T450 531T411 571T357 583Q297 583 265 530T232 355Q232 286 239 240T262 165T302 124T360 111Z" />
<glyph unicode="R" glyph-name="R" horiz-adv-x="707" d="M17 97L87 114V578L18 596V693H374Q445 693 496 679T579 639T627 574T643 488Q643 453 634 427T609 382T572 349T525 325V321L648 111L699 97V0H489L338 276H290V112L348 97V0H17V97ZM353 381Q401 381
420 409T440 486Q440 534 418 555T346 577H290V381H353Z" />
<glyph unicode="S" glyph-name="S" horiz-adv-x="566" d="M262 -12Q231 -12 199 -10T137 -3T81 8T34 22L24 210H148L173 124Q190 116 209 112T256 108Q303 108 326 127T349 179Q349 213 320 232T239 269L199 284Q158 298 127 314T74 354T41 410T29 489Q29 537
44 576T92 645T177 690T302 706Q377 706 424 697T501 678L511 507H389L370 573Q356 580 339 584T296 589Q258 589 235 574T212 528Q212 498 236 482T309 448L350 433Q397 417 433 400T494 360T531 303T544 219Q544 111 473 50T262 -12Z" />
<glyph unicode="T" glyph-name="T" horiz-adv-x="666" d="M157 97L232 114V579H159L129 458H11L20 693H646L654 458H537L507 579H434V114L508 97V0H157V97Z" />
<glyph unicode="U" glyph-name="U" horiz-adv-x="718" d="M372 -12Q295 -12 239 4T147 51T94 124T76 221V579L11 596V693H342V596L279 580V235Q279 165 311 137T399 109Q456 109 485 137T515 235V580L452 596V693H707V596L646 579V234Q646 180 631 135T584 58T499
7T372 -12Z" />
<glyph unicode="V" glyph-name="V" horiz-adv-x="722" d="M65 579L12 596V693H345V596L278 579L394 202H399L516 579L449 596V693H710V596L657 579L457 0H265L65 579Z" />
<glyph unicode="W" glyph-name="W" horiz-adv-x="1010" d="M62 579L12 596V693H329V596L270 579L346 231H351L467 693H611L727 245H732L805 579L741 596V693H998V596L946 579L804 0H609L509 412H505L402 0H207L62 579Z" />
<glyph unicode="X" glyph-name="X" horiz-adv-x="720" d="M17 97L69 111L233 354L79 579L21 596V693H365V596L318 582L406 440L488 582L438 596V693H696V596L644 579L488 345L646 114L703 97V0H362V97L413 110L317 266L225 110L275 97V0H17V97Z" />
<glyph unicode="Y" glyph-name="Y" horiz-adv-x="675" d="M170 97L243 114V278L63 579L10 596V693H328V596L275 581L376 394H380L477 581L424 596V693H665V596L611 579L445 283V114L517 97V0H170V97Z" />
<glyph unicode="Z" glyph-name="Z" horiz-adv-x="600" d="M18 119L350 574V578H190L148 467H30L42 693H580V574L248 119V115H423L469 245H584L573 0H18V119Z" />
<glyph unicode="[" glyph-name="bracketleft" horiz-adv-x="352" d="M49 733H327V636L223 619V-6L327 -23V-120H49V733Z" />
<glyph unicode="\" glyph-name="backslash" horiz-adv-x="384" d="M18 733H147L387 -120H258L18 733Z" />
<glyph unicode="]" glyph-name="bracketright" horiz-adv-x="352" d="M24 -23L129 -6V619L24 636V733H303V-120H24V-23Z" />
<glyph unicode="^" glyph-name="asciicircum" horiz-adv-x="434" d="M164 693H270L414 439H312L217 552L122 439H20L164 693Z" />
<glyph unicode="_" glyph-name="underscore" horiz-adv-x="344" d="M-5 -47H349V-155H-5V-47Z" />
<glyph unicode="`" glyph-name="grave" horiz-adv-x="498" d="M109 645L168 772L380 652L347 576L109 645Z" />
<glyph unicode="a" glyph-name="a" horiz-adv-x="546" d="M170 -13Q134 -13 105 -3T55 27T23 74T12 133Q12 172 25 199T64 244T125 274T207 294L300 312V338Q300 378 280 395T200 412Q165 412 128 410T63 402V508Q101 522 159 533T287 545Q389 545 436 503T483
370V132Q483 113 493 107T519 100H535V13Q521 4 491 -4T428 -12Q384 -12 358 2T320 50H315Q295 24 258 6T170 -13ZM248 93Q265 93 278 99T300 113V228L253 226Q194 222 194 159Q194 125 206 109T248 93Z" />
<glyph unicode="b" glyph-name="b" horiz-adv-x="600" d="M289 -13Q211 -13 149 1T51 35V614L-6 630V727L217 750L234 742V491H240Q263 511 298 528T387 546Q423 546 457 534T519 492T563 413T580 288Q580 206 559 149T499 55T407 3T289 -13ZM294 96Q316 96 333
103T363 129T381 181T387 265Q387 350 366 382T302 415Q279 415 263 411T234 400V114Q244 107 256 102T294 96Z" />
<glyph unicode="c" glyph-name="c" horiz-adv-x="507" d="M296 -13Q225 -13 173 6T85 61T33 148T16 263Q16 336 37 389T98 477T191 528T313 545Q363 545 407 539T477 524V356H360L346 429Q339 431 331 433T305 436Q260 436 235 401T210 278Q210 231 220 199T248
148T294 121T355 113Q393 113 426 120T480 135V36Q456 19 411 3T296 -13Z" />
<glyph unicode="d" glyph-name="d" horiz-adv-x="620" d="M229 -12Q191 -12 154 1T87 44T39 126T20 254Q20 334 40 389T95 479T178 529T279 545Q311 545 330 541T366 530V617L304 633V726L533 750L550 741V121L607 105V14L401 -10L385 -3V49H379Q358 21 319 5T229
-12ZM300 116Q321 116 337 121T366 133V415Q355 423 343 428T306 434Q285 434 268 427T239 402T220 353T213 273Q213 229 218 199T235 151T263 124T300 116Z" />
<glyph unicode="e" glyph-name="e" horiz-adv-x="548" d="M301 -13Q160 -13 88 59T16 268Q16 334 35 385T90 472T175 526T286 545Q348 545 393 529T469 476T514 382T529 239H206Q214 168 250 140T351 112Q404 112 439 120T504 137V40Q475 20 427 4T301 -13ZM351
330Q351 392 332 415T284 438Q269 438 256 433T232 414T216 379T206 324L351 330Z" />
<glyph unicode="f" glyph-name="f" horiz-adv-x="365" d="M15 91L72 105V425H13V508L72 531V578Q72 626 88 659T132 712T195 740T269 749Q311 749 340 743T385 730V621Q371 624 358 625T326 627Q291 627 274 614T256 560V534H353V425H256V105L324 91V0H15V91Z" />
<glyph unicode="g" glyph-name="g" horiz-adv-x="568" d="M253 -204Q125 -204 63 -170T0 -82Q0 -60 9 -43T33 -12T69 10T112 26V31Q42 52 42 117Q42 149 64 179T119 230Q82 250 60 284T37 365Q37 408 54 442T102 498T176 533T272 545Q337 545 385 528L556 552V444L484
447Q495 431 501 414T507 376Q507 332 490 299T443 243T369 208T272 196Q230 196 198 203Q186 189 186 173Q186 163 194 155T223 146H396Q430 146 460 138T513 113T548 68T561 0Q561 -42 544 -79T489 -143T393 -187T253 -204ZM267 -102Q337 -102 365 -84T393 -41Q393
-19 379 -11T330 -3H204Q188 -10 179 -21T169 -52Q169 -74 191 -88T267 -102ZM272 285Q299 285 317 303T336 369Q336 395 331 412T318 438T297 451T272 455Q245 455 228 438T210 372Q210 322 228 304T272 285Z" />
<glyph unicode="h" glyph-name="h" horiz-adv-x="632" d="M14 91L71 105V618L11 634V726L238 750L255 741V482H260Q296 510 334 527T429 545Q460 545 485 538T529 515T558 474T568 413V105L621 91V0H342V91L384 102V349Q384 381 369 394T322 407Q302 407 287 403T255
393V102L297 91V0H14V91Z" />
<glyph unicode="i" glyph-name="i" horiz-adv-x="322" d="M14 91L71 105V412L9 428V521L238 544L255 537V105L309 91V0H14V91ZM158 577Q116 577 87 601T57 667Q57 709 86 732T158 756Q200 756 229 733T259 667Q259 625 230 601T158 577Z" />
<glyph unicode="j" glyph-name="j" horiz-adv-x="306" d="M52 -198Q20 -198 -3 -193T-43 -181V-75Q-23 -79 2 -79Q37 -79 55 -64T73 -9V412L10 428V521L239 544L256 537V-6Q256 -100 209 -149T52 -198ZM159 577Q117 577 88 601T58 667Q58 709 87 732T159 756Q201
756 230 733T260 667Q260 625 231 601T159 577Z" />
<glyph unicode="k" glyph-name="k" horiz-adv-x="607" d="M14 91L71 105V618L11 634V726L238 750L255 742V302L274 315L385 430L334 443V534H579V443L527 428L416 310L558 101L597 91V0H415L283 206L255 201V102L301 91V0H14V91Z" />
<glyph unicode="l" glyph-name="l" horiz-adv-x="326" d="M14 91L73 105V617L9 634V726L240 749L256 741V105L313 91V0H14V91Z" />
<glyph unicode="m" glyph-name="m" horiz-adv-x="930" d="M14 91L71 105V412L11 428V521L231 544L247 537V482H253Q288 510 327 527T423 545Q465 545 497 529T545 477H550Q583 506 627 525T727 545Q756 545 781 538T825 514T854 472T865 411V105L918 91V0H642V91L682
102V346Q682 381 668 394T621 407Q604 407 589 403T558 393Q560 385 560 369V102L601 91V0H336V91L377 102V346Q377 381 363 394T319 407Q298 407 285 403T255 393V102L296 91V0H14V91Z" />
<glyph unicode="n" glyph-name="n" horiz-adv-x="633" d="M14 91L71 105V412L11 428V521L231 544L247 537V480H253Q291 509 332 527T429 545Q460 545 485 538T529 515T558 474T568 413V105L621 91V0H342V91L384 102V349Q384 381 369 393T322 406Q302 406 287 402T255
393V102L297 91V0H14V91Z" />
<glyph unicode="o" glyph-name="o" horiz-adv-x="585" d="M294 97Q312 97 327 104T352 131T369 182T375 263Q375 315 369 348T352 401T326 428T291 436Q273 436 258 429T232 404T215 353T209 270Q209 218 215 185T232 132T259 105T294 97ZM293 -13Q226 -13 175
6T88 62T34 149T16 263Q16 332 37 384T96 473T184 527T292 545Q426 545 497 474T569 270Q569 201 548 149T489 60T401 6T293 -13Z" />
<glyph unicode="p" glyph-name="p" horiz-adv-x="619" d="M13 -111L70 -98V412L10 428V521L230 544L245 537V485H251Q274 506 313 526T406 546Q442 546 476 534T538 492T582 413T599 288Q599 206 578 149T521 55T435 3T327 -13Q298 -13 283 -12T253 -7V-99L319
-111V-200H13V-111ZM313 96Q335 96 352 103T382 129T400 181T407 265Q407 350 386 382T321 415Q298 415 282 411T253 400V114Q263 107 276 102T313 96Z" />
<glyph unicode="q" glyph-name="q" horiz-adv-x="606" d="M299 -106L366 -91V38H360Q335 13 308 1T235 -12Q196 -12 158 0T89 43T39 124T20 252Q20 332 42 388T103 479T196 529T315 545Q355 545 388 543T448 537T501 525T550 508V-93L604 -106V-200H299V-106ZM300
116Q321 116 337 121T366 133V415Q355 423 343 428T304 434Q284 434 268 427T239 402T220 353T213 273Q213 229 218 199T235 151T263 124T300 116Z" />
<glyph unicode="r" glyph-name="r" horiz-adv-x="425" d="M14 91L71 105V412L11 428V521L231 544L247 537V457H253Q274 493 308 518T388 543Q404 543 415 540V378Q395 383 368 383Q331 383 305 379T255 363V105L329 91V0H14V91Z" />
<glyph unicode="s" glyph-name="s" horiz-adv-x="485" d="M215 -13Q170 -13 120 -5T28 20L19 166H132L152 107Q162 102 180 97T222 91Q254 91 273 103T292 138Q292 161 278 171T228 190L170 204Q95 221 57 258T18 367Q18 406 32 439T75 495T149 532T256 546Q306
546 353 539T433 517V378H323L310 431Q301 436 287 440T250 444Q221 444 201 435T181 402Q181 381 196 370T253 350L318 335Q399 317 433 277T467 176Q467 134 453 99T408 39T330 1T215 -13Z" />
<glyph unicode="t" glyph-name="t" horiz-adv-x="387" d="M236 -11Q195 -11 164 -4T112 20T79 66T68 137V425H11V508L84 535L107 659H251V534H359V425H251V167Q251 132 267 119T316 106Q329 106 341 108T365 113V18Q347 7 314 -2T236 -11Z" />
<glyph unicode="u" glyph-name="u" horiz-adv-x="633" d="M217 -12Q134 -12 99 27T63 136V414L7 431V523L230 544L246 536V189Q246 156 258 141T306 126Q331 126 347 131T377 141V414L324 431V523L543 544L560 536V121L617 105V14L400 -10L384 -3V55H378Q351 28
312 8T217 -12Z" />
<glyph unicode="v" glyph-name="v" horiz-adv-x="599" d="M48 429L5 443V534H287V443L241 432L324 180H328L413 432L365 443V534H590V443L547 429L384 0H211L48 429Z" />
<glyph unicode="w" glyph-name="w" horiz-adv-x="848" d="M46 429L5 443V534H273V443L229 431L285 215H289L383 534H511L605 215H609L664 431L621 443V534H840V443L799 429L671 0H513L426 300H423L333 0H174L46 429Z" />
<glyph unicode="x" glyph-name="x" horiz-adv-x="608" d="M15 91L63 104L191 271L72 428L24 443V534H329V443L287 432L351 332H355L419 432L377 443V534H591V443L553 430L432 260L549 104L596 91V0H295V91L337 101L270 199H267L200 101L243 91V0H15V91Z" />
<glyph unicode="y" glyph-name="y" horiz-adv-x="604" d="M173 -203Q147 -203 118 -199T73 -187V-72Q104 -79 127 -79Q159 -79 181 -69T214 -31L229 8L51 429L5 443V534H292V443L243 431L332 191H336L414 431L365 443V534H595V443L552 429L367 -56Q353 -93 336
-120T296 -166T243 -194T173 -203Z" />
<glyph unicode="z" glyph-name="z" horiz-adv-x="507" d="M18 97L272 428V432H146L119 350H27L37 534H480V434L235 109V105H361L394 198H489L475 0H18V97Z" />
<glyph unicode="{" glyph-name="braceleft" horiz-adv-x="398" d="M373 -120Q298 -118 246 -107T162 -77T115 -31T101 32Q101 50 106 70T118 110T129 147T135 177Q135 191 131 202T116 223T84 238T32 249V364Q64 369 84 375T115 390T131 410T135 436Q135 448 130
465T118 502T107 542T101 581Q101 616 115 643T161 690T246 720T373 733V636Q319 628 301 612T282 569Q282 557 284 538T289 499T294 459T297 427Q297 380 268 353T170 309V304Q239 287 268 260T297 186Q297 173 295 154T290 114T285 75T282 44Q282 17 300 1T373
-23V-120V-120Z" />
<glyph unicode="|" glyph-name="bar" horiz-adv-x="251" d="M66 733H184V-120H66V733Z" />
<glyph unicode="}" glyph-name="braceright" horiz-adv-x="398" d="M24 -23Q78 -15 96 1T115 44Q115 56 113 75T108 114T103 153T101 186Q101 233 130 260T228 304V309Q159 326 130 353T101 427Q101 440 103 459T108 498T113 538T115 569Q115 596 97 612T24 636V733Q100
731 152 720T236 690T282 644T297 581Q297 563 292 543T280 503T269 466T263 436Q263 422 267 411T282 390T313 375T366 364V249Q334 244 314 238T282 223T267 203T263 177Q263 165 268 148T280 111T291 71T297 32Q297 -3 283 -30T236 -77T152 -107T24 -120V-23Z"
/>
<glyph unicode="~" glyph-name="asciitilde" horiz-adv-x="480" d="M14 271Q40 329 77 363T166 398Q189 398 209 392T248 377T282 363T313 356Q334 356 351 368T382 403L466 342Q440 284 403 250T314 215Q291 215 271 221T232 236T198 250T167 257Q146 257 129
244T98 209L14 271Z" />
<glyph unicode="&#xa0;" glyph-name="nbspace" horiz-adv-x="174" />
<glyph unicode="&#xa1;" glyph-name="exclamdown" horiz-adv-x="275" d="M78 356H202L236 -120H40L78 356ZM138 408Q117 408 100 415T71 435T53 463T46 497Q46 533 71 559T138 585Q179 585 205 559T231 497Q231 479 224 463T205 435T175 416T138 408Z" />
<glyph unicode="&#xa2;" glyph-name="cent" horiz-adv-x="530" d="M238 -7Q130 10 75 80T19 263Q19 333 39 384T97 470T186 523T300 544L307 609H395L387 542Q422 539 451 534T500 522V356H405L391 432Q388 433 385 434T376 436L339 103H357Q376 103 397 106T439
113T476 123T503 132V36Q480 19 434 5T326 -12L314 -120H226L238 -7ZM199 278Q199 219 211 182T253 126L288 436Q247 426 223 390T199 278Z" />
<glyph unicode="&#xa3;" glyph-name="sterling" horiz-adv-x="554" d="M37 388H98V464Q98 524 115 569T163 644T239 689T338 704Q403 704 447 691T521 655V540Q497 549 471 554T412 559Q386 559 365 554T328 535T303 498T290 439L286 388H442V281H277V272Q272
217 253 188T199 138V135H532L516 0H25V103Q60 120 79 148T98 236V281H37V388Z" />
<glyph unicode="&#xa5;" glyph-name="yen" horiz-adv-x="654" d="M78 388H189L62 579L11 596V693H328V596L278 583L368 422H372L456 583L406 596V693H642V596L591 579L471 388H588V304H432V250H588V166H432V114L505 97V0H161V97L234 114V166H78V250H234V304H78V388Z" />
<glyph unicode="&#xa6;" glyph-name="brokenbar" horiz-adv-x="251" d="M66 279H184V-120H66V279ZM66 733H184V371H66V733Z" />
<glyph unicode="&#xa7;" glyph-name="section" horiz-adv-x="565" d="M261 -132Q207 -132 161 -124T80 -100L72 43H184L204 -14Q215 -19 228 -23T265 -27Q298 -27 318 -16T338 19Q338 42 322 55T263 82L188 104Q105 129 64 166T23 270Q23 321 51 352T132 400Q100
422 83 453T65 531Q65 611 123 658T306 705Q359 705 406 697T485 675V536H375L361 588Q351 593 337 597T300 601Q229 601 229 554Q229 531 244 519T302 494L377 471Q456 448 499 410T542 306Q542 255 514 224T432 175Q466 153 485 123T504 46Q504 -34 446 -83T261
-132ZM240 354Q189 345 189 306Q189 283 205 270T259 243L325 221Q349 226 362 237T376 270Q376 291 363 304T317 328L240 354Z" />
<glyph unicode="&#xa8;" glyph-name="dieresis" horiz-adv-x="498" d="M144 581Q108 581 82 603T56 663Q56 702 82 723T144 745Q181 745 207 724T234 663Q234 625 208 603T144 581ZM353 581Q317 581 291 603T264 663Q264 702 290 723T353 745Q390 745 416 724T442
663Q442 625 416 603T353 581Z" />
<glyph unicode="&#xa9;" glyph-name="copyright" horiz-adv-x="770" d="M391 158Q350 158 316 169T256 202T217 260T202 345Q202 397 218 433T261 491T325 524T401 535Q437 535 470 531T520 519L524 404H448L431 452Q423 455 417 457T397 459Q359 459 348 432T336
355Q336 319 339 296T349 259T369 240T401 235Q425 235 436 243L453 293H528L523 179Q503 171 470 165T391 158ZM384 55Q445 55 496 78T583 140T640 231T660 344Q660 403 640 455T584 547T496 609T384 632Q322 632 272 609T185 547T129 456T109 344Q109 284 129
232T185 140T271 78T384 55ZM384 -14Q309 -14 244 14T132 91T57 205T30 344Q30 418 57 483T131 596T244 672T384 700Q459 700 524 672T637 596T712 483T740 344Q740 270 713 205T637 91T524 14T384 -14Z" />
<glyph unicode="&#xaa;" glyph-name="ordfeminine" horiz-adv-x="496" d="M157 218Q94 218 58 253T21 345Q21 379 33 403T67 443T122 470T195 489L268 502V519Q268 550 250 564T184 579Q153 579 124 577T71 570V671Q106 684 153 693T264 703Q355 703 397 665T439
547V355Q439 340 447 335T467 329H479V243Q467 234 443 227T388 219Q348 219 324 231T288 274H283Q266 251 234 235T157 218ZM227 317Q240 317 251 321T268 331V425L233 424Q212 423 201 411T189 369Q189 317 227 317Z" />
<glyph unicode="&#xab;" glyph-name="guillemotleft" horiz-adv-x="490" d="M28 229V276L135 446H253L176 253L253 59H135L28 229ZM235 229V276L342 446H459L382 253L459 59H342L235 229Z" />
<glyph unicode="&#xad;" glyph-name="uni00AD" horiz-adv-x="329" d="M33 352H296V216H33V352Z" />
<glyph unicode="&#xae;" glyph-name="registered" horiz-adv-x="475" d="M135 428L152 434V547L135 552V589H248Q290 589 310 572T331 528Q331 508 323 499T301 485V483L333 432L346 428V392H278L238 465H225V433L237 428V392H135V428ZM240 502Q261 502 261 523Q261
546 239 546H225V502H240ZM237 321Q274 321 304 334T356 369T390 422T402 488Q402 522 390 552T356 605T304 641T237 654Q200 654 170 641T118 606T84 553T72 488Q72 453 84 423T117 370T169 334T237 321ZM237 273Q190 273 151 290T82 336T36 404T19 488Q19 532
35 571T81 639T150 684T237 701Q283 701 323 685T392 639T439 571T456 488Q456 443 439 404T393 336T323 290T237 273Z" />
<glyph unicode="&#xaf;" glyph-name="macron" horiz-adv-x="498" d="M104 706H393V596H104V706Z" />
<glyph unicode="&#xb0;" glyph-name="degree" horiz-adv-x="375" d="M188 462Q225 462 244 487T263 546Q263 581 244 605T188 630Q151 630 132 606T113 546Q113 513 132 488T188 462ZM188 391Q153 391 124 403T74 437T40 486T28 546Q28 578 40 606T73 656T124
689T188 702Q222 702 251 690T302 656T336 607T348 546Q348 514 336 486T303 437T252 404T188 391Z" />
<glyph unicode="&#xb4;" glyph-name="acute" horiz-adv-x="498" d="M118 652L330 772L389 645L150 576L118 652Z" />
<glyph unicode="&#xb6;" glyph-name="paragraph" horiz-adv-x="613" d="M254 318Q251 318 244 318T228 317Q187 317 151 328T86 363T41 423T24 509Q24 603 82 648T253 693H602V596L536 579V-120H430V584H360V-120H254V318Z" />
<glyph unicode="&#xb7;" glyph-name="periodcentered" horiz-adv-x="257" d="M129 242Q86 242 59 269T31 335Q31 354 38 371T59 401T90 421T129 429Q151 429 169 422T200 401T220 371T227 335Q227 297 200 270T129 242Z" />
<glyph unicode="&#xb8;" glyph-name="cedilla" horiz-adv-x="498" d="M189 -165Q247 -160 268 -151T289 -125Q289 -111 272 -103T214 -93V0H284V-40Q352 -44 379 -62T407 -118Q407 -162 356 -188T189 -221V-165Z" />
<glyph unicode="&#xba;" glyph-name="ordmasculine" horiz-adv-x="522" d="M261 324Q275 324 286 330T306 351T318 392T323 458Q323 501 319 528T306 570T286 592T260 598Q246 598 235 593T215 573T203 532T199 464Q199 421 203 394T216 352T235 330T261 324ZM261
218Q145 218 84 282T22 458Q22 519 41 565T92 641T167 687T261 703Q376 703 438 641T500 464Q500 403 481 357T430 280T354 234T261 218Z" />
<glyph unicode="&#xbb;" glyph-name="guillemotright" horiz-adv-x="490" d="M107 252L30 446H148L255 276V229L148 59H30L107 252ZM314 252L237 446H355L461 276V229L355 59H237L314 252Z" />
<glyph unicode="&#xbc;" glyph-name="onequarter" horiz-adv-x="872" d="M32 350L92 360V570L29 567V634L164 704H239V360L300 350V282H32V350ZM614 68L657 78V120H477V186L679 418H794V192H840V120H794V78L841 68V0H614V68ZM657 192V290H654L573 195V192H657ZM626
713H731L243 -40H138L626 713Z" />
<glyph unicode="&#xbd;" glyph-name="onehalf" horiz-adv-x="914" d="M32 350L92 360V570L29 567V634L164 704H239V360L300 350V282H32V350ZM559 81L652 166Q680 191 700 216T721 268Q721 295 704 308T659 322Q637 322 614 319T572 308V388Q598 403 633 414T719
425Q796 425 835 390T875 296Q875 242 842 206T751 131L698 95V93H790L812 131L883 132L872 0H559V81ZM629 713H734L246 -40H141L629 713Z" />
<glyph unicode="&#xbe;" glyph-name="threequarters" horiz-adv-x="890" d="M160 276Q109 276 78 284T28 302V377Q45 372 68 369T119 365Q192 365 192 412Q192 438 176 447T130 457H84V534H123Q187 534 187 575Q187 618 125 618Q99 618 80 615T45 607V682Q64 693
99 700T177 707Q249 707 288 681T327 603Q327 562 303 539T241 505V502Q284 496 313 472T342 400Q342 342 296 309T160 276ZM632 67L675 77V119H495V185L697 417H812V191H858V119H812V77L859 67V-1H632V67ZM675 191V289H672L591 194V191H675ZM639 712H744L256 -41H151L639
712Z" />
<glyph unicode="&#xbf;" glyph-name="questiondown" horiz-adv-x="447" d="M257 -131Q205 -131 162 -121T89 -89T41 -31T24 57Q24 90 32 116T56 162T92 200T138 235Q183 264 206 282T230 326Q230 340 226 356H330Q337 342 342 327T347 286Q347 248 329 224T278
172Q251 149 236 128T221 70Q221 33 242 11T314 -11Q349 -11 375 -7T429 6V-92Q400 -109 355 -120T257 -131ZM273 408Q252 408 235 415T206 435T188 463T181 497Q181 533 206 559T273 585Q314 585 340 559T366 497Q366 479 359 463T340 435T310 416T273 408Z" />
<glyph unicode="&#xc0;" glyph-name="Agrave" horiz-adv-x="733" d="M7 97L63 114L273 693H464L669 114L725 97V0H384V97L451 114L422 205H233L203 114L271 97V0H7V97ZM263 301H392L331 494H326L263 301ZM226 774L276 904L494 800L466 722L226 774Z" />
<glyph unicode="&#xc1;" glyph-name="Aacute" horiz-adv-x="733" d="M7 97L63 114L273 693H464L669 114L725 97V0H384V97L451 114L422 205H233L203 114L271 97V0H7V97ZM263 301H392L331 494H326L263 301ZM264 722L236 800L454 904L504 774L264 722Z" />
<glyph unicode="&#xc2;" glyph-name="Acircumflex" horiz-adv-x="733" d="M7 97L63 114L273 693H464L669 114L725 97V0H384V97L451 114L422 205H233L203 114L271 97V0H7V97ZM263 301H392L331 494H326L263 301ZM201 773L322 891H408L528 773L495 722L365 774L235
722L201 773Z" />
<glyph unicode="&#xc3;" glyph-name="Atilde" horiz-adv-x="733" d="M7 97L63 114L273 693H464L669 114L725 97V0H384V97L451 114L422 205H233L203 114L271 97V0H7V97ZM263 301H392L331 494H326L263 301ZM181 772Q202 817 234 847T309 877Q326 877 342 873T373
864T401 855T425 851Q458 851 480 884L548 838Q528 793 495 763T420 732Q403 732 387 736T356 745T328 754T304 758Q271 758 249 726L181 772Z" />
<glyph unicode="&#xc4;" glyph-name="Adieresis" horiz-adv-x="733" d="M7 97L63 114L273 693H464L669 114L725 97V0H384V97L451 114L422 205H233L203 114L271 97V0H7V97ZM263 301H392L331 494H326L263 301ZM260 727Q224 727 198 748T172 809Q172 847 198 869T260
891Q297 891 323 869T350 809Q350 770 324 749T260 727ZM469 727Q433 727 407 748T380 809Q380 847 406 869T469 891Q506 891 532 869T558 809Q558 770 532 749T469 727Z" />
<glyph unicode="&#xc5;" glyph-name="Aring" horiz-adv-x="733" d="M7 97L63 114L273 693H464L669 114L725 97V0H384V97L451 114L422 205H233L203 114L271 97V0H7V97ZM263 301H392L331 494H326L263 301ZM365 775Q387 775 399 788T411 824Q411 845 399 859T365
873Q343 873 331 859T318 824Q318 801 330 788T365 775ZM365 713Q339 713 318 722T281 746T257 781T248 824Q248 846 256 866T281 901T318 925T365 934Q390 934 411 925T448 901T473 866T482 824Q482 801 473 781T449 746T412 722T365 713Z" />
<glyph unicode="&#xc6;" glyph-name="AE" horiz-adv-x="999" d="M286 97V0H7V97L63 115L362 588L305 596V693H957L966 483H854L819 582H647V406H704L721 471H811V234H721L704 301H647V111H822L870 233H983L973 0H379V97L448 114V198H256L207 115L286 97ZM448 295V520H445L313
295H448Z" />
<glyph unicode="&#xc7;" glyph-name="Ccedilla" horiz-adv-x="651" d="M250 -165Q308 -160 329 -151T350 -125Q350 -111 333 -103T275 -93V-3Q218 7 172 32T92 100T40 201T21 341Q21 443 52 512T134 624T251 686T386 705Q420 705 452 703T512 696T564 686T604
674L610 468H489L458 563Q443 570 425 574T381 579Q341 579 314 565T269 522T244 454T236 361Q236 289 244 242T271 166T317 126T387 114Q413 114 433 119T466 133L498 232H618L609 27Q571 10 512 -1T368 -12Q362 -12 356 -12T345 -11V-40Q413 -44 440 -62T468
-118Q468 -162 417 -188T250 -221V-165Z" />
<glyph unicode="&#xc8;" glyph-name="Egrave" horiz-adv-x="641" d="M189 774L239 904L457 800L429 722L189 774ZM17 97L86 114V579L17 596V693H598L607 483H496L460 582H285V406H347L365 471H455V234H365L347 301H285V111H463L511 233H624L614 0H17V97Z" />
<glyph unicode="&#xc9;" glyph-name="Eacute" horiz-adv-x="641" d="M227 722L199 800L417 904L467 774L227 722ZM17 97L86 114V579L17 596V693H598L607 483H496L460 582H285V406H347L365 471H455V234H365L347 301H285V111H463L511 233H624L614 0H17V97Z" />
<glyph unicode="&#xca;" glyph-name="Ecircumflex" horiz-adv-x="641" d="M164 773L285 891H371L491 773L458 722L328 774L198 722L164 773ZM17 97L86 114V579L17 596V693H598L607 483H496L460 582H285V406H347L365 471H455V234H365L347 301H285V111H463L511 233H624L614
0H17V97Z" />
<glyph unicode="&#xcb;" glyph-name="Edieresis" horiz-adv-x="641" d="M17 97L86 114V579L17 596V693H598L607 483H496L460 582H285V406H347L365 471H455V234H365L347 301H285V111H463L511 233H624L614 0H17V97ZM223 727Q187 727 161 748T135 809Q135 847 161
869T223 891Q260 891 286 869T313 809Q313 770 287 749T223 727ZM432 727Q396 727 370 748T343 809Q343 847 369 869T432 891Q469 891 495 869T521 809Q521 770 495 749T432 727Z" />
<glyph unicode="&#xcc;" glyph-name="Igrave" horiz-adv-x="377" d="M17 97L87 114V579L17 596V693H360V596L290 579V114L360 97V0H17V97ZM306 774L356 904L574 800L546 722L306 774Z" />
<glyph unicode="&#xcd;" glyph-name="Iacute" horiz-adv-x="377" d="M17 97L87 114V579L17 596V693H360V596L290 579V114L360 97V0H17V97ZM342 722L314 800L532 904L582 774L342 722Z" />
<glyph unicode="&#xce;" glyph-name="Icircumflex" horiz-adv-x="377" d="M17 97L87 114V579L17 596V693H360V596L290 579V114L360 97V0H17V97ZM280 773L401 891H487L607 773L574 722L444 774L314 722L280 773Z" />
<glyph unicode="&#xcf;" glyph-name="Idieresis" horiz-adv-x="377" d="M17 97L87 114V579L17 596V693H360V596L290 579V114L360 97V0H17V97ZM339 727Q303 727 277 748T251 809Q251 847 277 869T339 891Q376 891 402 869T429 809Q429 770 403 749T339 727ZM548
727Q512 727 486 748T459 809Q459 847 485 869T548 891Q585 891 611 869T637 809Q637 770 611 749T548 727Z" />
<glyph unicode="&#xd0;" glyph-name="Eth" horiz-adv-x="721" d="M25 414H86V579L18 596V693H355Q435 693 499 675T608 616T677 512T701 358Q701 265 676 197T606 86T497 21T358 0H17V97L86 114V295H25V414ZM345 117Q380 117 407 127T452 162T479 232T489 344Q489
419 479 464T450 534T402 567T336 576H289V414H405V295H289V117H345Z" />
<glyph unicode="&#xd1;" glyph-name="Ntilde" horiz-adv-x="736" d="M208 772Q229 817 261 847T336 877Q353 877 369 873T400 864T428 855T452 851Q485 851 507 884L575 838Q555 793 522 763T447 732Q430 732 414 736T383 745T355 754T331 758Q298 758 276 726L208
772ZM17 97L86 114V579L17 596V693H300L525 300H530V578L460 596V693H723V596L662 579V0H482L223 462H218V113L289 97V0H17V97Z" />
<glyph unicode="&#xd2;" glyph-name="Ograve" horiz-adv-x="713" d="M218 774L268 904L486 800L458 722L218 774ZM356 111Q416 111 448 163T481 339Q481 409 474 456T451 531T412 571T357 583Q298 583 265 530T232 355Q232 286 239 240T261 165T299 124T356 111ZM354
-12Q282 -12 221 9T116 75T46 185T21 342Q21 437 49 505T125 618T233 684T360 705Q432 705 492 684T597 618T667 508T692 351Q692 256 664 188T589 75T481 10T354 -12Z" />
<glyph unicode="&#xd3;" glyph-name="Oacute" horiz-adv-x="713" d="M256 722L228 800L446 904L496 774L256 722ZM356 111Q416 111 448 163T481 339Q481 409 474 456T451 531T412 571T357 583Q298 583 265 530T232 355Q232 286 239 240T261 165T299 124T356 111ZM354
-12Q282 -12 221 9T116 75T46 185T21 342Q21 437 49 505T125 618T233 684T360 705Q432 705 492 684T597 618T667 508T692 351Q692 256 664 188T589 75T481 10T354 -12Z" />
<glyph unicode="&#xd4;" glyph-name="Ocircumflex" horiz-adv-x="713" d="M192 773L313 891H399L519 773L486 722L356 774L226 722L192 773ZM356 111Q416 111 448 163T481 339Q481 409 474 456T451 531T412 571T357 583Q298 583 265 530T232 355Q232 286 239 240T261
165T299 124T356 111ZM354 -12Q282 -12 221 9T116 75T46 185T21 342Q21 437 49 505T125 618T233 684T360 705Q432 705 492 684T597 618T667 508T692 351Q692 256 664 188T589 75T481 10T354 -12Z" />
<glyph unicode="&#xd5;" glyph-name="Otilde" horiz-adv-x="713" d="M173 772Q194 817 226 847T301 877Q318 877 334 873T365 864T393 855T417 851Q450 851 472 884L540 838Q520 793 487 763T412 732Q395 732 379 736T348 745T320 754T296 758Q263 758 241 726L173
772ZM356 111Q416 111 448 163T481 339Q481 409 474 456T451 531T412 571T357 583Q298 583 265 530T232 355Q232 286 239 240T261 165T299 124T356 111ZM354 -12Q282 -12 221 9T116 75T46 185T21 342Q21 437 49 505T125 618T233 684T360 705Q432 705 492 684T597
618T667 508T692 351Q692 256 664 188T589 75T481 10T354 -12Z" />
<glyph unicode="&#xd6;" glyph-name="Odieresis" horiz-adv-x="713" d="M251 727Q215 727 189 748T163 809Q163 847 189 869T251 891Q288 891 314 869T341 809Q341 770 315 749T251 727ZM460 727Q424 727 398 748T371 809Q371 847 397 869T460 891Q497 891 523
869T549 809Q549 770 523 749T460 727ZM356 111Q416 111 448 163T481 339Q481 409 474 456T451 531T412 571T357 583Q298 583 265 530T232 355Q232 286 239 240T261 165T299 124T356 111ZM354 -12Q282 -12 221 9T116 75T46 185T21 342Q21 437 49 505T125 618T233
684T360 705Q432 705 492 684T597 618T667 508T692 351Q692 256 664 188T589 75T481 10T354 -12Z" />
<glyph unicode="&#xd7;" glyph-name="multiply" horiz-adv-x="540" d="M489 474L349 331L490 188L410 109L270 251L130 109L51 188L192 331L51 474L130 554L270 411L410 553L489 474Z" />
<glyph unicode="&#xd8;" glyph-name="Oslash" horiz-adv-x="713" d="M37 13L99 93Q62 137 42 199T21 342Q21 437 49 505T125 618T233 684T360 705Q411 705 457 694T542 660L588 718L661 671L609 605Q648 561 670 499T692 351Q692 256 664 188T589 75T481 10T354
-12Q300 -12 252 0T164 37L110 -33L37 13ZM356 111Q419 111 454 163T489 339Q489 399 483 443L259 157Q275 132 299 122T356 111ZM224 355Q224 327 225 303T228 258L450 541Q433 564 410 573T357 583Q294 583 259 530T224 355Z" />
<glyph unicode="&#xd9;" glyph-name="Ugrave" horiz-adv-x="718" d="M246 774L296 904L514 800L486 722L246 774ZM372 -12Q295 -12 239 4T147 51T94 124T76 221V579L11 596V693H342V596L279 580V235Q279 165 311 137T399 109Q456 109 485 137T515 235V580L452
596V693H707V596L646 579V234Q646 180 631 135T584 58T499 7T372 -12Z" />
<glyph unicode="&#xda;" glyph-name="Uacute" horiz-adv-x="718" d="M284 722L256 800L474 904L524 774L284 722ZM372 -12Q295 -12 239 4T147 51T94 124T76 221V579L11 596V693H342V596L279 580V235Q279 165 311 137T399 109Q456 109 485 137T515 235V580L452
596V693H707V596L646 579V234Q646 180 631 135T584 58T499 7T372 -12Z" />
<glyph unicode="&#xdb;" glyph-name="Ucircumflex" horiz-adv-x="718" d="M221 773L342 891H428L548 773L515 722L385 774L255 722L221 773ZM372 -12Q295 -12 239 4T147 51T94 124T76 221V579L11 596V693H342V596L279 580V235Q279 165 311 137T399 109Q456 109
485 137T515 235V580L452 596V693H707V596L646 579V234Q646 180 631 135T584 58T499 7T372 -12Z" />
<glyph unicode="&#xdc;" glyph-name="Udieresis" horiz-adv-x="718" d="M372 -12Q295 -12 239 4T147 51T94 124T76 221V579L11 596V693H342V596L279 580V235Q279 165 311 137T399 109Q456 109 485 137T515 235V580L452 596V693H707V596L646 579V234Q646 180 631
135T584 58T499 7T372 -12ZM280 727Q244 727 218 748T192 809Q192 847 218 869T280 891Q317 891 343 869T370 809Q370 770 344 749T280 727ZM489 727Q453 727 427 748T400 809Q400 847 426 869T489 891Q526 891 552 869T578 809Q578 770 552 749T489 727Z" />
<glyph unicode="&#xdd;" glyph-name="Yacute" horiz-adv-x="675" d="M170 97L243 114V278L63 579L10 596V693H328V596L275 581L376 394H380L477 581L424 596V693H665V596L611 579L445 283V114L517 97V0H170V97ZM265 722L237 800L455 904L505 774L265 722Z" />
<glyph unicode="&#xde;" glyph-name="Thorn" horiz-adv-x="644" d="M17 97L86 114V579L17 596V693H347V596L289 580V541H355Q431 541 483 527T567 489T613 430T627 353Q627 262 567 213T388 164Q358 164 334 166T289 172V113L369 97V0H17V97ZM289 272Q310 269
343 269Q389 269 407 287T426 352Q426 398 406 414T343 431H289V272Z" />
<glyph unicode="&#xdf;" glyph-name="germandbls" horiz-adv-x="671" d="M454 -13Q406 -13 368 -5T306 12L298 153H402L416 97Q421 95 428 93T447 91Q466 91 479 100T492 128Q492 151 472 166T422 202L383 228Q350 250 329 278T307 351Q307 383 322 412T354 467T387
520T402 572Q402 600 388 619T340 639Q300 639 278 612T256 523V0H15V91L72 105V425H13V508L72 531V538Q72 585 90 623T145 690T233 733T351 748Q412 748 456 735T530 701T572 650T586 590Q586 556 567 530T524 482T481 442T461 405Q461 386 475 374T522 342L561
316Q578 305 595 291T626 257T648 214T657 158Q657 81 609 34T454 -13Z" />
<glyph unicode="&#xe0;" glyph-name="agrave" horiz-adv-x="546" d="M170 -13Q134 -13 105 -3T55 27T23 74T12 133Q12 172 25 199T64 244T125 274T207 294L300 312V338Q300 378 280 395T200 412Q165 412 128 410T63 402V508Q101 522 159 533T287 545Q389 545 436
503T483 370V132Q483 113 493 107T519 100H535V13Q521 4 491 -4T428 -12Q384 -12 358 2T320 50H315Q295 24 258 6T170 -13ZM248 93Q265 93 278 99T300 113V228L253 226Q194 222 194 159Q194 125 206 109T248 93ZM130 645L189 772L401 652L368 576L130 645Z" />
<glyph unicode="&#xe1;" glyph-name="aacute" horiz-adv-x="546" d="M170 -13Q134 -13 105 -3T55 27T23 74T12 133Q12 172 25 199T64 244T125 274T207 294L300 312V338Q300 378 280 395T200 412Q165 412 128 410T63 402V508Q101 522 159 533T287 545Q389 545 436
503T483 370V132Q483 113 493 107T519 100H535V13Q521 4 491 -4T428 -12Q384 -12 358 2T320 50H315Q295 24 258 6T170 -13ZM248 93Q265 93 278 99T300 113V228L253 226Q194 222 194 159Q194 125 206 109T248 93ZM147 652L359 772L418 645L179 576L147 652Z" />
<glyph unicode="&#xe2;" glyph-name="acircumflex" horiz-adv-x="546" d="M170 -13Q134 -13 105 -3T55 27T23 74T12 133Q12 172 25 199T64 244T125 274T207 294L300 312V338Q300 378 280 395T200 412Q165 412 128 410T63 402V508Q101 522 159 533T287 545Q389
545 436 503T483 370V132Q483 113 493 107T519 100H535V13Q521 4 491 -4T428 -12Q384 -12 358 2T320 50H315Q295 24 258 6T170 -13ZM248 93Q265 93 278 99T300 113V228L253 226Q194 222 194 159Q194 125 206 109T248 93ZM110 625L230 760H316L436 625L399 575L273
641L146 575L110 625Z" />
<glyph unicode="&#xe3;" glyph-name="atilde" horiz-adv-x="546" d="M170 -13Q134 -13 105 -3T55 27T23 74T12 133Q12 172 25 199T64 244T125 274T207 294L300 312V338Q300 378 280 395T200 412Q165 412 128 410T63 402V508Q101 522 159 533T287 545Q389 545 436
503T483 370V132Q483 113 493 107T519 100H535V13Q521 4 491 -4T428 -12Q384 -12 358 2T320 50H315Q295 24 258 6T170 -13ZM248 93Q265 93 278 99T300 113V228L253 226Q194 222 194 159Q194 125 206 109T248 93ZM93 628Q114 673 146 703T221 734Q238 734 253 730T281
720T306 711T329 706Q362 706 384 739L452 693Q432 648 399 618T324 587Q307 587 292 591T264 600T239 610T216 614Q183 614 161 582L93 628Z" />
<glyph unicode="&#xe4;" glyph-name="adieresis" horiz-adv-x="546" d="M170 -13Q134 -13 105 -3T55 27T23 74T12 133Q12 172 25 199T64 244T125 274T207 294L300 312V338Q300 378 280 395T200 412Q165 412 128 410T63 402V508Q101 522 159 533T287 545Q389 545
436 503T483 370V132Q483 113 493 107T519 100H535V13Q521 4 491 -4T428 -12Q384 -12 358 2T320 50H315Q295 24 258 6T170 -13ZM248 93Q265 93 278 99T300 113V228L253 226Q194 222 194 159Q194 125 206 109T248 93ZM168 581Q132 581 106 603T80 663Q80 702 106
723T168 745Q205 745 231 724T258 663Q258 625 232 603T168 581ZM377 581Q341 581 315 603T288 663Q288 702 314 723T377 745Q414 745 440 724T466 663Q466 625 440 603T377 581Z" />
<glyph unicode="&#xe5;" glyph-name="aring" horiz-adv-x="546" d="M170 -13Q134 -13 105 -3T55 27T23 74T12 133Q12 172 25 199T64 244T125 274T207 294L300 312V338Q300 378 280 395T200 412Q165 412 128 410T63 402V508Q101 522 159 533T287 545Q389 545 436
503T483 370V132Q483 113 493 107T519 100H535V13Q521 4 491 -4T428 -12Q384 -12 358 2T320 50H315Q295 24 258 6T170 -13ZM248 93Q265 93 278 99T300 113V228L253 226Q194 222 194 159Q194 125 206 109T248 93ZM273 638Q295 638 307 651T319 687Q319 708 307 722T273
736Q251 736 239 722T226 687Q226 664 238 651T273 638ZM273 576Q247 576 226 585T189 609T165 644T156 687Q156 709 164 729T189 764T226 787T273 796Q298 796 319 788T356 764T381 729T390 687Q390 664 381 644T357 609T320 585T273 576Z" />
<glyph unicode="&#xe6;" glyph-name="ae" horiz-adv-x="826" d="M181 -13Q100 -13 56 27T12 133Q12 172 25 199T64 245T125 275T207 295L300 313V338Q300 378 280 395T200 412Q165 412 128 410T63 402V508Q101 522 157 533T276 545Q374 545 417 496Q477 545 569
545Q629 545 674 529T748 476T792 381T807 238H486Q494 167 530 140T630 112Q683 112 718 120T782 137V40Q753 20 705 4T580 -13Q426 -13 355 76Q323 33 278 10T181 -13ZM323 132Q313 153 308 177T300 231L253 227Q194 224 194 159Q194 93 251 93Q268 93 285 102T323
132ZM630 329Q630 391 611 414T563 438Q532 438 512 414T486 323L630 329Z" />
<glyph unicode="&#xe7;" glyph-name="ccedilla" horiz-adv-x="507" d="M174 -165Q232 -160 253 -151T274 -125Q274 -111 257 -103T199 -93V-2Q105 21 61 90T16 263Q16 336 37 389T98 477T191 528T313 545Q363 545 407 539T477 524V356H360L346 429Q339 431 331
433T305 436Q260 436 235 401T210 278Q210 231 220 199T248 148T294 121T355 113Q393 113 426 120T480 135V36Q456 19 411 3T296 -13Q288 -13 282 -13T269 -12V-40Q337 -44 364 -62T392 -118Q392 -162 341 -188T174 -221V-165Z" />
<glyph unicode="&#xe8;" glyph-name="egrave" horiz-adv-x="548" d="M301 -13Q160 -13 88 59T16 268Q16 334 35 385T90 472T175 526T286 545Q348 545 393 529T469 476T514 382T529 239H206Q214 168 250 140T351 112Q404 112 439 120T504 137V40Q475 20 427 4T301
-13ZM351 330Q351 392 332 415T284 438Q269 438 256 433T232 414T216 379T206 324L351 330ZM141 645L200 772L412 652L379 576L141 645Z" />
<glyph unicode="&#xe9;" glyph-name="eacute" horiz-adv-x="548" d="M158 652L370 772L429 645L190 576L158 652ZM301 -13Q160 -13 88 59T16 268Q16 334 35 385T90 472T175 526T286 545Q348 545 393 529T469 476T514 382T529 239H206Q214 168 250 140T351 112Q404
112 439 120T504 137V40Q475 20 427 4T301 -13ZM351 330Q351 392 332 415T284 438Q269 438 256 433T232 414T216 379T206 324L351 330Z" />
<glyph unicode="&#xea;" glyph-name="ecircumflex" horiz-adv-x="548" d="M120 625L240 760H326L446 625L409 575L283 641L156 575L120 625ZM301 -13Q160 -13 88 59T16 268Q16 334 35 385T90 472T175 526T286 545Q348 545 393 529T469 476T514 382T529 239H206Q214
168 250 140T351 112Q404 112 439 120T504 137V40Q475 20 427 4T301 -13ZM351 330Q351 392 332 415T284 438Q269 438 256 433T232 414T216 379T206 324L351 330Z" />
<glyph unicode="&#xeb;" glyph-name="edieresis" horiz-adv-x="548" d="M178 581Q142 581 116 603T90 663Q90 702 116 723T178 745Q215 745 241 724T268 663Q268 625 242 603T178 581ZM387 581Q351 581 325 603T298 663Q298 702 324 723T387 745Q424 745 450 724T476
663Q476 625 450 603T387 581ZM301 -13Q160 -13 88 59T16 268Q16 334 35 385T90 472T175 526T286 545Q348 545 393 529T469 476T514 382T529 239H206Q214 168 250 140T351 112Q404 112 439 120T504 137V40Q475 20 427 4T301 -13ZM351 330Q351 392 332 415T284 438Q269
438 256 433T232 414T216 379T206 324L351 330Z" />
<glyph unicode="&#xec;" glyph-name="igrave" horiz-adv-x="322" d="M14 91L71 105V412L9 428V521L238 544L255 537V105L309 91V0H14V91ZM269 645L328 772L540 652L507 576L269 645Z" />
<glyph unicode="&#xed;" glyph-name="iacute" horiz-adv-x="322" d="M286 652L498 772L557 645L318 576L286 652ZM14 91L71 105V412L9 428V521L238 544L255 537V105L309 91V0H14V91Z" />
<glyph unicode="&#xee;" glyph-name="icircumflex" horiz-adv-x="322" d="M248 625L368 760H454L574 625L537 575L411 641L284 575L248 625ZM14 91L71 105V412L9 428V521L238 544L255 537V105L309 91V0H14V91Z" />
<glyph unicode="&#xef;" glyph-name="idieresis" horiz-adv-x="322" d="M306 581Q270 581 244 603T218 663Q218 702 244 723T306 745Q343 745 369 724T396 663Q396 625 370 603T306 581ZM515 581Q479 581 453 603T426 663Q426 702 452 723T515 745Q552 745 578
724T604 663Q604 625 578 603T515 581ZM14 91L71 105V412L9 428V521L238 544L255 537V105L309 91V0H14V91Z" />
<glyph unicode="&#xf0;" glyph-name="eth" horiz-adv-x="584" d="M393 645Q473 585 520 503T567 307Q567 226 547 166T490 67T403 7T292 -13Q225 -13 174 6T87 61T34 146T16 255Q16 324 36 373T88 453T159 499T238 514Q267 514 284 509T313 498H319Q304 520 284
539T241 576L119 520L91 580L175 618L101 658L186 752Q224 738 259 722T328 687L432 735L460 676L393 645ZM293 96Q312 96 327 102T352 126T368 176T374 259Q374 314 368 346T353 401Q342 408 328 412T295 416Q275 416 259 409T232 385T215 337T209 262Q209 211
215 179T232 128T258 103T293 96Z" />
<glyph unicode="&#xf1;" glyph-name="ntilde" horiz-adv-x="633" d="M14 91L71 105V412L11 428V521L231 544L247 537V480H253Q291 509 332 527T429 545Q460 545 485 538T529 515T558 474T568 413V105L621 91V0H342V91L384 102V349Q384 381 369 393T322 406Q302
406 287 402T255 393V102L297 91V0H14V91ZM142 628Q163 673 195 703T270 734Q287 734 302 730T330 720T355 711T378 706Q411 706 433 739L501 693Q481 648 448 618T373 587Q356 587 341 591T313 600T288 610T265 614Q232 614 210 582L142 628Z" />
<glyph unicode="&#xf2;" glyph-name="ograve" horiz-adv-x="585" d="M294 97Q312 97 327 104T352 131T369 182T375 263Q375 315 369 348T352 401T326 428T291 436Q273 436 258 429T232 404T215 353T209 270Q209 218 215 185T232 132T259 105T294 97ZM293 -13Q226
-13 175 6T88 62T34 149T16 263Q16 332 37 384T96 473T184 527T292 545Q426 545 497 474T569 270Q569 201 548 149T489 60T401 6T293 -13ZM150 645L209 772L421 652L388 576L150 645Z" />
<glyph unicode="&#xf3;" glyph-name="oacute" horiz-adv-x="585" d="M167 652L379 772L438 645L199 576L167 652ZM294 97Q312 97 327 104T352 131T369 182T375 263Q375 315 369 348T352 401T326 428T291 436Q273 436 258 429T232 404T215 353T209 270Q209 218
215 185T232 132T259 105T294 97ZM293 -13Q226 -13 175 6T88 62T34 149T16 263Q16 332 37 384T96 473T184 527T292 545Q426 545 497 474T569 270Q569 201 548 149T489 60T401 6T293 -13Z" />
<glyph unicode="&#xf4;" glyph-name="ocircumflex" horiz-adv-x="585" d="M130 625L250 760H336L456 625L419 575L293 641L166 575L130 625ZM294 97Q312 97 327 104T352 131T369 182T375 263Q375 315 369 348T352 401T326 428T291 436Q273 436 258 429T232 404T215
353T209 270Q209 218 215 185T232 132T259 105T294 97ZM293 -13Q226 -13 175 6T88 62T34 149T16 263Q16 332 37 384T96 473T184 527T292 545Q426 545 497 474T569 270Q569 201 548 149T489 60T401 6T293 -13Z" />
<glyph unicode="&#xf5;" glyph-name="otilde" horiz-adv-x="585" d="M294 97Q312 97 327 104T352 131T369 182T375 263Q375 315 369 348T352 401T326 428T291 436Q273 436 258 429T232 404T215 353T209 270Q209 218 215 185T232 132T259 105T294 97ZM293 -13Q226
-13 175 6T88 62T34 149T16 263Q16 332 37 384T96 473T184 527T292 545Q426 545 497 474T569 270Q569 201 548 149T489 60T401 6T293 -13ZM113 628Q134 673 166 703T241 734Q258 734 273 730T301 720T326 711T349 706Q382 706 404 739L472 693Q452 648 419 618T344
587Q327 587 312 591T284 600T259 610T236 614Q203 614 181 582L113 628Z" />
<glyph unicode="&#xf6;" glyph-name="odieresis" horiz-adv-x="585" d="M188 581Q152 581 126 603T100 663Q100 702 126 723T188 745Q225 745 251 724T278 663Q278 625 252 603T188 581ZM397 581Q361 581 335 603T308 663Q308 702 334 723T397 745Q434 745 460
724T486 663Q486 625 460 603T397 581ZM294 97Q312 97 327 104T352 131T369 182T375 263Q375 315 369 348T352 401T326 428T291 436Q273 436 258 429T232 404T215 353T209 270Q209 218 215 185T232 132T259 105T294 97ZM293 -13Q226 -13 175 6T88 62T34 149T16
263Q16 332 37 384T96 473T184 527T292 545Q426 545 497 474T569 270Q569 201 548 149T489 60T401 6T293 -13Z" />
<glyph unicode="&#xf7;" glyph-name="divide" horiz-adv-x="540" d="M270 51Q229 51 203 77T177 139Q177 176 203 202T270 228Q312 228 337 202T363 139Q363 104 338 78T270 51ZM45 399H495V281H45V399ZM270 452Q250 452 233 459T204 478T184 506T177 540Q177
576 203 602T270 629Q312 629 337 603T363 540Q363 505 337 479T270 452Z" />
<glyph unicode="&#xf8;" glyph-name="oslash" horiz-adv-x="585" d="M25 9L78 72Q16 143 16 263Q16 332 37 384T96 473T184 527T292 545Q380 545 445 511L489 564L553 518L507 462Q569 391 569 270Q569 201 548 149T489 60T401 6T293 -13Q247 -13 209 -4T139 22L89
-37L25 9ZM294 96Q314 96 331 103T360 129T379 180T386 263Q386 277 386 290T384 315L225 125Q236 108 253 102T294 96ZM199 271Q199 256 199 243T201 219L360 409Q348 426 331 432T291 438Q271 438 254 431T225 406T206 355T199 271Z" />
<glyph unicode="&#xf9;" glyph-name="ugrave" horiz-adv-x="633" d="M217 -12Q134 -12 99 27T63 136V414L7 431V523L230 544L246 536V189Q246 156 258 141T306 126Q331 126 347 131T377 141V414L324 431V523L543 544L560 536V121L617 105V14L400 -10L384 -3V55H378Q351
28 312 8T217 -12ZM169 645L228 772L440 652L407 576L169 645Z" />
<glyph unicode="&#xfa;" glyph-name="uacute" horiz-adv-x="633" d="M187 652L399 772L458 645L219 576L187 652ZM217 -12Q134 -12 99 27T63 136V414L7 431V523L230 544L246 536V189Q246 156 258 141T306 126Q331 126 347 131T377 141V414L324 431V523L543 544L560
536V121L617 105V14L400 -10L384 -3V55H378Q351 28 312 8T217 -12Z" />
<glyph unicode="&#xfb;" glyph-name="ucircumflex" horiz-adv-x="633" d="M149 625L269 760H355L475 625L438 575L312 641L185 575L149 625ZM217 -12Q134 -12 99 27T63 136V414L7 431V523L230 544L246 536V189Q246 156 258 141T306 126Q331 126 347 131T377 141V414L324
431V523L543 544L560 536V121L617 105V14L400 -10L384 -3V55H378Q351 28 312 8T217 -12Z" />
<glyph unicode="&#xfc;" glyph-name="udieresis" horiz-adv-x="633" d="M207 581Q171 581 145 603T119 663Q119 702 145 723T207 745Q244 745 270 724T297 663Q297 625 271 603T207 581ZM416 581Q380 581 354 603T327 663Q327 702 353 723T416 745Q453 745 479
724T505 663Q505 625 479 603T416 581ZM217 -12Q134 -12 99 27T63 136V414L7 431V523L230 544L246 536V189Q246 156 258 141T306 126Q331 126 347 131T377 141V414L324 431V523L543 544L560 536V121L617 105V14L400 -10L384 -3V55H378Q351 28 312 8T217 -12Z" />
<glyph unicode="&#xfd;" glyph-name="yacute" horiz-adv-x="604" d="M173 -203Q147 -203 118 -199T73 -187V-72Q104 -79 127 -79Q159 -79 181 -69T214 -31L229 8L51 429L5 443V534H292V443L243 431L332 191H336L414 431L365 443V534H595V443L552 429L367 -56Q353
-93 336 -120T296 -166T243 -194T173 -203ZM198 652L410 772L469 645L230 576L198 652Z" />
<glyph unicode="&#xfe;" glyph-name="thorn" horiz-adv-x="609" d="M2 -111L60 -98V614L3 630V727L226 750L243 742V491H248Q272 511 307 528T396 546Q432 546 466 534T528 492T572 413T589 288Q589 206 568 149T511 55T425 3T317 -13Q288 -13 273 -12T243 -7V-99L309
-111V-200H2V-111ZM303 96Q325 96 342 103T372 129T390 181T396 265Q396 350 375 382T311 415Q288 415 271 411T243 400V114Q253 107 265 102T303 96Z" />
<glyph unicode="&#xff;" glyph-name="ydieresis" horiz-adv-x="604" d="M173 -203Q147 -203 118 -199T73 -187V-72Q104 -79 127 -79Q159 -79 181 -69T214 -31L229 8L51 429L5 443V534H292V443L243 431L332 191H336L414 431L365 443V534H595V443L552 429L367 -56Q353
-93 336 -120T296 -166T243 -194T173 -203ZM218 581Q182 581 156 603T130 663Q130 702 156 723T218 745Q255 745 281 724T308 663Q308 625 282 603T218 581ZM427 581Q391 581 365 603T338 663Q338 702 364 723T427 745Q464 745 490 724T516 663Q516 625 490 603T427
581Z" />
<glyph unicode="&#x100;" glyph-name="Amacron" horiz-adv-x="733" d="M7 97L63 114L273 693H464L669 114L725 97V0H384V97L451 114L422 205H233L203 114L271 97V0H7V97ZM263 301H392L331 494H326L263 301ZM220 847H509V737H220V847Z" />
<glyph unicode="&#x101;" glyph-name="amacron" horiz-adv-x="546" d="M128 706H417V596H128V706ZM170 -13Q134 -13 105 -3T55 27T23 74T12 133Q12 172 25 199T64 244T125 274T207 294L300 312V338Q300 378 280 395T200 412Q165 412 128 410T63 402V508Q101 522
159 533T287 545Q389 545 436 503T483 370V132Q483 113 493 107T519 100H535V13Q521 4 491 -4T428 -12Q384 -12 358 2T320 50H315Q295 24 258 6T170 -13ZM248 93Q265 93 278 99T300 113V228L253 226Q194 222 194 159Q194 125 206 109T248 93Z" />
<glyph unicode="&#x102;" glyph-name="Abreve" horiz-adv-x="733" d="M365 725Q328 725 300 736T251 766T220 810T207 866H311Q314 851 328 842T365 832Q387 832 401 841T418 866H523Q521 836 510 811T479 766T430 736T365 725ZM7 97L63 114L273 693H464L669 114L725
97V0H384V97L451 114L422 205H233L203 114L271 97V0H7V97ZM263 301H392L331 494H326L263 301Z" />
<glyph unicode="&#x103;" glyph-name="abreve" horiz-adv-x="546" d="M170 -13Q134 -13 105 -3T55 27T23 74T12 133Q12 172 25 199T64 244T125 274T207 294L300 312V338Q300 378 280 395T200 412Q165 412 128 410T63 402V508Q101 522 159 533T287 545Q389 545
436 503T483 370V132Q483 113 493 107T519 100H535V13Q521 4 491 -4T428 -12Q384 -12 358 2T320 50H315Q295 24 258 6T170 -13ZM248 93Q265 93 278 99T300 113V228L253 226Q194 222 194 159Q194 125 206 109T248 93ZM271 585Q235 585 206 596T157 628T125 676T112
734H217Q220 716 234 706T271 695Q293 695 307 705T325 734H429Q428 703 417 676T385 629T336 597T271 585Z" />
<glyph unicode="&#x104;" glyph-name="Aogonek" horiz-adv-x="733" d="M605 -197Q539 -197 509 -172T479 -111Q479 -73 501 -46T564 0H384V97L451 114L422 205H233L203 114L271 97V0H7V97L63 114L273 693H464L669 114L725 97V0H670Q646 -26 634 -43T622 -81Q622
-98 633 -106T663 -114Q671 -114 677 -114T689 -112V-183Q675 -189 655 -193T605 -197ZM392 301L331 494H326L263 301H392Z" />
<glyph unicode="&#x105;" glyph-name="aogonek" horiz-adv-x="546" d="M433 -197Q367 -197 337 -172T307 -111Q307 -78 329 -52T391 -9Q336 2 320 50H315Q295 24 258 6T170 -13Q134 -13 105 -3T55 27T23 74T12 133Q12 172 25 199T64 244T125 274T207 294L300 312V338Q300
378 280 395T200 412Q165 412 128 410T63 402V508Q101 522 159 533T287 545Q389 545 436 503T483 370V132Q483 113 493 107T519 100H535V13Q500 -3 475 -27T450 -81Q450 -98 461 -106T490 -114Q498 -114 504 -114T517 -112V-183Q503 -189 483 -193T433 -197ZM248
93Q265 93 278 99T300 113V228L253 226Q194 222 194 159Q194 125 206 109T248 93Z" />
<glyph unicode="&#x106;" glyph-name="Cacute" horiz-adv-x="651" d="M368 -12Q293 -12 230 7T120 69T47 179T21 341Q21 443 52 512T134 624T251 686T386 705Q420 705 452 703T512 696T564 686T604 674L610 468H489L458 563Q443 570 425 574T381 579Q341 579 314
565T269 522T244 454T236 361Q236 289 244 242T271 166T317 126T387 114Q413 114 433 119T466 133L498 232H618L609 27Q571 10 512 -1T368 -12ZM264 722L236 800L454 904L504 774L264 722Z" />
<glyph unicode="&#x107;" glyph-name="cacute" horiz-adv-x="507" d="M296 -13Q225 -13 173 6T85 61T33 148T16 263Q16 336 37 389T98 477T191 528T313 545Q363 545 407 539T477 524V356H360L346 429Q339 431 331 433T305 436Q260 436 235 401T210 278Q210 231
220 199T248 148T294 121T355 113Q393 113 426 120T480 135V36Q456 19 411 3T296 -13ZM166 652L378 772L437 645L198 576L166 652Z" />
<glyph unicode="&#x108;" glyph-name="Ccircumflex" horiz-adv-x="651" d="M204 773L325 891H411L531 773L498 722L368 774L238 722L204 773ZM368 -12Q293 -12 230 7T120 69T47 179T21 341Q21 443 52 512T134 624T251 686T386 705Q420 705 452 703T512 696T564
686T604 674L610 468H489L458 563Q443 570 425 574T381 579Q341 579 314 565T269 522T244 454T236 361Q236 289 244 242T271 166T317 126T387 114Q413 114 433 119T466 133L498 232H618L609 27Q571 10 512 -1T368 -12Z" />
<glyph unicode="&#x109;" glyph-name="ccircumflex" horiz-adv-x="507" d="M296 -13Q225 -13 173 6T85 61T33 148T16 263Q16 336 37 389T98 477T191 528T313 545Q363 545 407 539T477 524V356H360L346 429Q339 431 331 433T305 436Q260 436 235 401T210 278Q210
231 220 199T248 148T294 121T355 113Q393 113 426 120T480 135V36Q456 19 411 3T296 -13ZM128 625L248 760H334L454 625L417 575L291 641L164 575L128 625Z" />
<glyph unicode="&#x10a;" glyph-name="Cdotaccent" horiz-adv-x="651" d="M366 725Q326 725 297 749T268 815Q268 857 297 880T366 904Q407 904 435 881T464 815Q464 773 436 749T366 725ZM368 -12Q293 -12 230 7T120 69T47 179T21 341Q21 443 52 512T134 624T251
686T386 705Q420 705 452 703T512 696T564 686T604 674L610 468H489L458 563Q443 570 425 574T381 579Q341 579 314 565T269 522T244 454T236 361Q236 289 244 242T271 166T317 126T387 114Q413 114 433 119T466 133L498 232H618L609 27Q571 10 512 -1T368 -12Z"
/>
<glyph unicode="&#x10b;" glyph-name="cdotaccent" horiz-adv-x="507" d="M296 -13Q225 -13 173 6T85 61T33 148T16 263Q16 336 37 389T98 477T191 528T313 545Q363 545 407 539T477 524V356H360L346 429Q339 431 331 433T305 436Q260 436 235 401T210 278Q210
231 220 199T248 148T294 121T355 113Q393 113 426 120T480 135V36Q456 19 411 3T296 -13ZM291 577Q251 577 222 601T193 667Q193 709 222 732T291 756Q332 756 360 733T389 667Q389 625 361 601T291 577Z" />
<glyph unicode="&#x10c;" glyph-name="Ccaron" horiz-adv-x="651" d="M530 845L410 726H324L203 845L237 895L367 844L497 895L530 845ZM368 -12Q293 -12 230 7T120 69T47 179T21 341Q21 443 52 512T134 624T251 686T386 705Q420 705 452 703T512 696T564 686T604
674L610 468H489L458 563Q443 570 425 574T381 579Q341 579 314 565T269 522T244 454T236 361Q236 289 244 242T271 166T317 126T387 114Q413 114 433 119T466 133L498 232H618L609 27Q571 10 512 -1T368 -12Z" />
<glyph unicode="&#x10d;" glyph-name="ccaron" horiz-adv-x="507" d="M129 716L165 766L292 701L418 766L455 716L335 582H249L129 716ZM296 -13Q225 -13 173 6T85 61T33 148T16 263Q16 336 37 389T98 477T191 528T313 545Q363 545 407 539T477 524V356H360L346
429Q339 431 331 433T305 436Q260 436 235 401T210 278Q210 231 220 199T248 148T294 121T355 113Q393 113 426 120T480 135V36Q456 19 411 3T296 -13Z" />
<glyph unicode="&#x10e;" glyph-name="Dcaron" horiz-adv-x="721" d="M504 845L384 726H298L177 845L211 895L341 844L471 895L504 845ZM17 97L86 114V579L18 596V693H355Q435 693 499 675T608 616T677 512T701 358Q701 265 676 197T606 86T497 21T358 0H17V97ZM345
117Q380 117 407 127T452 162T479 232T489 344Q489 419 479 464T450 534T402 567T336 576H289V117H345Z" />
<glyph unicode="&#x10f;" glyph-name="dcaron" horiz-adv-x="620" d="M229 -12Q191 -12 154 1T87 44T39 126T20 254Q20 334 40 389T95 479T178 529T279 545Q311 545 330 541T366 530V617L304 633V726L533 750L550 741V121L607 105V14L401 -10L385 -3V49H379Q358
21 319 5T229 -12ZM300 116Q321 116 337 121T366 133V415Q355 423 343 428T306 434Q285 434 268 427T239 402T220 353T213 273Q213 229 218 199T235 151T263 124T300 116ZM576 572L590 750L730 732L667 559L576 572Z" />
<glyph unicode="&#x110;" glyph-name="Dcroat" horiz-adv-x="721" d="M25 414H86V579L18 596V693H355Q435 693 499 675T608 616T677 512T701 358Q701 265 676 197T606 86T497 21T358 0H17V97L86 114V295H25V414ZM345 117Q380 117 407 127T452 162T479 232T489
344Q489 419 479 464T450 534T402 567T336 576H289V414H405V295H289V117H345Z" />
<glyph unicode="&#x111;" glyph-name="dcroat" horiz-adv-x="620" d="M234 626H366V644L304 660V726L533 750L550 741V626H608V574H550V121L607 105V14L401 -10L385 -3V49H379Q358 21 319 5T229 -12Q191 -12 154 1T87 44T39 126T20 254Q20 334 40 389T95 479T178
529T279 545Q311 545 330 541T366 530V574H234V626ZM300 116Q321 116 337 121T366 133V415Q355 423 343 428T306 434Q285 434 268 427T239 402T220 353T213 273Q213 229 218 199T235 151T263 124T300 116Z" />
<glyph unicode="&#x112;" glyph-name="Emacron" horiz-adv-x="641" d="M17 97L86 114V579L17 596V693H598L607 483H496L460 582H285V406H347L365 471H455V234H365L347 301H285V111H463L511 233H624L614 0H17V97ZM183 847H472V737H183V847Z" />
<glyph unicode="&#x113;" glyph-name="emacron" horiz-adv-x="548" d="M301 -13Q160 -13 88 59T16 268Q16 334 35 385T90 472T175 526T286 545Q348 545 393 529T469 476T514 382T529 239H206Q214 168 250 140T351 112Q404 112 439 120T504 137V40Q475 20 427 4T301
-13ZM351 330Q351 392 332 415T284 438Q269 438 256 433T232 414T216 379T206 324L351 330ZM138 706H427V596H138V706Z" />
<glyph unicode="&#x114;" glyph-name="Ebreve" horiz-adv-x="641" d="M17 97L86 114V579L17 596V693H598L607 483H496L460 582H285V406H347L365 471H455V234H365L347 301H285V111H463L511 233H624L614 0H17V97ZM328 725Q291 725 263 736T214 766T183 810T170 866H274Q277
851 291 842T328 832Q350 832 364 841T381 866H486Q484 836 473 811T442 766T393 736T328 725Z" />
<glyph unicode="&#x115;" glyph-name="ebreve" horiz-adv-x="548" d="M283 585Q247 585 218 596T169 628T137 676T124 734H229Q232 716 246 706T283 695Q305 695 319 705T337 734H441Q440 703 429 676T397 629T348 597T283 585ZM301 -13Q160 -13 88 59T16 268Q16
334 35 385T90 472T175 526T286 545Q348 545 393 529T469 476T514 382T529 239H206Q214 168 250 140T351 112Q404 112 439 120T504 137V40Q475 20 427 4T301 -13ZM351 330Q351 392 332 415T284 438Q269 438 256 433T232 414T216 379T206 324L351 330Z" />
<glyph unicode="&#x116;" glyph-name="Edotaccent" horiz-adv-x="641" d="M327 725Q287 725 258 749T229 815Q229 857 258 880T327 904Q368 904 396 881T425 815Q425 773 397 749T327 725ZM17 97L86 114V579L17 596V693H598L607 483H496L460 582H285V406H347L365
471H455V234H365L347 301H285V111H463L511 233H624L614 0H17V97Z" />
<glyph unicode="&#x117;" glyph-name="edotaccent" horiz-adv-x="548" d="M283 577Q243 577 214 601T185 667Q185 709 214 732T283 756Q324 756 352 733T381 667Q381 625 353 601T283 577ZM301 -13Q160 -13 88 59T16 268Q16 334 35 385T90 472T175 526T286 545Q348
545 393 529T469 476T514 382T529 239H206Q214 168 250 140T351 112Q404 112 439 120T504 137V40Q475 20 427 4T301 -13ZM351 330Q351 392 332 415T284 438Q269 438 256 433T232 414T216 379T206 324L351 330Z" />
<glyph unicode="&#x118;" glyph-name="Eogonek" horiz-adv-x="641" d="M17 97L86 114V579L17 596V693H598L607 483H496L460 582H285V406H347L365 471H455V234H365L347 301H285V111H463L511 233H624L614 0H548Q523 -26 512 -43T500 -81Q500 -98 511 -106T540 -114Q548
-114 554 -114T567 -112V-183Q553 -189 532 -193T483 -197Q416 -197 386 -172T356 -111Q356 -75 380 -46T449 0H17V97Z" />
<glyph unicode="&#x119;" glyph-name="eogonek" horiz-adv-x="548" d="M451 -183Q437 -189 416 -193T367 -197Q300 -197 270 -172T240 -111Q240 -79 262 -54T320 -12Q318 -13 311 -13T301 -13Q160 -13 88 59T16 268Q16 334 35 385T90 472T175 526T286 545Q348
545 393 529T469 476T514 382T529 239H206Q214 168 250 140T351 112Q404 112 439 120T504 137V40Q481 28 459 14T421 -16T394 -48T384 -81Q384 -98 395 -106T424 -114Q432 -114 438 -114T451 -112V-183ZM284 438Q269 438 256 433T232 414T216 379T206 324L351 330Q351
392 332 415T284 438Z" />
<glyph unicode="&#x11a;" glyph-name="Ecaron" horiz-adv-x="641" d="M491 845L371 726H285L164 845L198 895L328 844L458 895L491 845ZM17 97L86 114V579L17 596V693H598L607 483H496L460 582H285V406H347L365 471H455V234H365L347 301H285V111H463L511 233H624L614
0H17V97Z" />
<glyph unicode="&#x11b;" glyph-name="ecaron" horiz-adv-x="548" d="M301 -13Q160 -13 88 59T16 268Q16 334 35 385T90 472T175 526T286 545Q348 545 393 529T469 476T514 382T529 239H206Q214 168 250 140T351 112Q404 112 439 120T504 137V40Q475 20 427 4T301
-13ZM351 330Q351 392 332 415T284 438Q269 438 256 433T232 414T216 379T206 324L351 330ZM120 716L156 766L283 701L409 766L446 716L326 582H240L120 716Z" />
<glyph unicode="&#x11c;" glyph-name="Gcircumflex" horiz-adv-x="705" d="M392 -12Q306 -12 238 7T121 69T47 179T21 341Q21 443 52 512T135 624T256 686T401 705Q469 705 527 696T620 673L628 469H507L473 564Q457 571 438 575T388 579Q307 579 271 524T234
361Q234 290 242 242T268 165T316 123T387 110Q405 110 421 113T448 120V231L386 247V344H692V247L638 231V26Q598 12 533 0T392 -12ZM212 773L333 891H419L539 773L506 722L376 774L246 722L212 773Z" />
<glyph unicode="&#x11d;" glyph-name="gcircumflex" horiz-adv-x="568" d="M119 625L239 760H325L445 625L408 575L282 641L155 575L119 625ZM253 -204Q125 -204 63 -170T0 -82Q0 -60 9 -43T33 -12T69 10T112 26V31Q42 52 42 117Q42 149 64 179T119 230Q82 250
60 284T37 365Q37 408 54 442T102 498T176 533T272 545Q337 545 385 528L556 552V444L484 447Q495 431 501 414T507 376Q507 332 490 299T443 243T369 208T272 196Q230 196 198 203Q186 189 186 173Q186 163 194 155T223 146H396Q430 146 460 138T513 113T548 68T561
0Q561 -42 544 -79T489 -143T393 -187T253 -204ZM267 -102Q337 -102 365 -84T393 -41Q393 -19 379 -11T330 -3H204Q188 -10 179 -21T169 -52Q169 -74 191 -88T267 -102ZM272 285Q299 285 317 303T336 369Q336 395 331 412T318 438T297 451T272 455Q245 455 228
438T210 372Q210 322 228 304T272 285Z" />
<glyph unicode="&#x11e;" glyph-name="Gbreve" horiz-adv-x="705" d="M392 -12Q306 -12 238 7T121 69T47 179T21 341Q21 443 52 512T135 624T256 686T401 705Q469 705 527 696T620 673L628 469H507L473 564Q457 571 438 575T388 579Q307 579 271 524T234 361Q234
290 242 242T268 165T316 123T387 110Q405 110 421 113T448 120V231L386 247V344H692V247L638 231V26Q598 12 533 0T392 -12ZM375 725Q338 725 310 736T261 766T230 810T217 866H321Q324 851 338 842T375 832Q397 832 411 841T428 866H533Q531 836 520 811T489
766T440 736T375 725Z" />
<glyph unicode="&#x11f;" glyph-name="gbreve" horiz-adv-x="568" d="M253 -204Q125 -204 63 -170T0 -82Q0 -60 9 -43T33 -12T69 10T112 26V31Q42 52 42 117Q42 149 64 179T119 230Q82 250 60 284T37 365Q37 408 54 442T102 498T176 533T272 545Q337 545 385 528L556
552V444L484 447Q495 431 501 414T507 376Q507 332 490 299T443 243T369 208T272 196Q230 196 198 203Q186 189 186 173Q186 163 194 155T223 146H396Q430 146 460 138T513 113T548 68T561 0Q561 -42 544 -79T489 -143T393 -187T253 -204ZM267 -102Q337 -102 365
-84T393 -41Q393 -19 379 -11T330 -3H204Q188 -10 179 -21T169 -52Q169 -74 191 -88T267 -102ZM272 285Q299 285 317 303T336 369Q336 395 331 412T318 438T297 451T272 455Q245 455 228 438T210 372Q210 322 228 304T272 285ZM282 585Q246 585 217 596T168 628T136
676T123 734H228Q231 716 245 706T282 695Q304 695 318 705T336 734H440Q439 703 428 676T396 629T347 597T282 585Z" />
<glyph unicode="&#x120;" glyph-name="Gdotaccent" horiz-adv-x="705" d="M392 -12Q306 -12 238 7T121 69T47 179T21 341Q21 443 52 512T135 624T256 686T401 705Q469 705 527 696T620 673L628 469H507L473 564Q457 571 438 575T388 579Q307 579 271 524T234 361Q234
290 242 242T268 165T316 123T387 110Q405 110 421 113T448 120V231L386 247V344H692V247L638 231V26Q598 12 533 0T392 -12ZM374 725Q334 725 305 749T276 815Q276 857 305 880T374 904Q415 904 443 881T472 815Q472 773 444 749T374 725Z" />
<glyph unicode="&#x121;" glyph-name="gdotaccent" horiz-adv-x="568" d="M281 577Q241 577 212 601T183 667Q183 709 212 732T281 756Q322 756 350 733T379 667Q379 625 351 601T281 577ZM253 -204Q125 -204 63 -170T0 -82Q0 -60 9 -43T33 -12T69 10T112 26V31Q42
52 42 117Q42 149 64 179T119 230Q82 250 60 284T37 365Q37 408 54 442T102 498T176 533T272 545Q337 545 385 528L556 552V444L484 447Q495 431 501 414T507 376Q507 332 490 299T443 243T369 208T272 196Q230 196 198 203Q186 189 186 173Q186 163 194 155T223
146H396Q430 146 460 138T513 113T548 68T561 0Q561 -42 544 -79T489 -143T393 -187T253 -204ZM267 -102Q337 -102 365 -84T393 -41Q393 -19 379 -11T330 -3H204Q188 -10 179 -21T169 -52Q169 -74 191 -88T267 -102ZM272 285Q299 285 317 303T336 369Q336 395 331
412T318 438T297 451T272 455Q245 455 228 438T210 372Q210 322 228 304T272 285Z" />
<glyph unicode="&#x122;" glyph-name="Gcommaaccent" horiz-adv-x="705" d="M392 -12Q306 -12 238 7T121 69T47 179T21 341Q21 443 52 512T135 624T256 686T401 705Q469 705 527 696T620 673L628 469H507L473 564Q457 571 438 575T388 579Q307 579 271 524T234
361Q234 290 242 242T268 165T316 123T387 110Q405 110 421 113T448 120V231L386 247V344H692V247L638 231V26Q598 12 533 0T392 -12ZM282 -189Q287 -155 289 -119T291 -36H465Q460 -78 449 -118T416 -189H282Z" />
<glyph unicode="&#x123;" glyph-name="gcommaaccent" horiz-adv-x="568" d="M253 -204Q125 -204 63 -170T0 -82Q0 -60 9 -43T33 -12T69 10T112 26V31Q42 52 42 117Q42 149 64 179T119 230Q82 250 60 284T37 365Q37 408 54 442T102 498T176 533T272 545Q337 545
385 528L556 552V444L484 447Q495 431 501 414T507 376Q507 332 490 299T443 243T369 208T272 196Q230 196 198 203Q186 189 186 173Q186 163 194 155T223 146H396Q430 146 460 138T513 113T548 68T561 0Q561 -42 544 -79T489 -143T393 -187T253 -204ZM267 -102Q337
-102 365 -84T393 -41Q393 -19 379 -11T330 -3H204Q188 -10 179 -21T169 -52Q169 -74 191 -88T267 -102ZM272 285Q299 285 317 303T336 369Q336 395 331 412T318 438T297 451T272 455Q245 455 228 438T210 372Q210 322 228 304T272 285ZM376 746Q371 712 369 675T366
593H192Q197 635 209 675T242 746H376Z" />
<glyph unicode="&#x124;" glyph-name="Hcircumflex" horiz-adv-x="770" d="M17 97L86 114V579L17 596V693H347V596L289 580V410H483V580L423 596V693H753V596L685 579V114L754 97V0H423V97L483 113V300H289V113L347 97V0H17V97ZM221 773L342 891H428L548 773L515
722L385 774L255 722L221 773Z" />
<glyph unicode="&#x125;" glyph-name="hcircumflex" horiz-adv-x="632" d="M14 91L71 105V618L11 634V726L238 750L255 741V482H260Q296 510 334 527T429 545Q460 545 485 538T529 515T558 474T568 413V105L621 91V0H342V91L384 102V349Q384 381 369 394T322 407Q302
407 287 403T255 393V102L297 91V0H14V91ZM159 818L280 936H366L486 818L453 767L323 819L193 767L159 818Z" />
<glyph unicode="&#x126;" glyph-name="Hbar" horiz-adv-x="770" d="M12 528H86V579L17 596V693H347V598L289 582V528H483V582L423 598V693H753V596L685 579V528H758V458H685V114L754 97V0H423V97L483 113V300H289V113L347 97V0H17V97L86 114V458H12V528ZM483 400V458H289V400H483Z"
/>
<glyph unicode="&#x127;" glyph-name="hbar" horiz-adv-x="632" d="M1 626H71V644L11 660V726L238 750L255 741V626H383V574H255V482H260Q296 510 334 527T429 545Q460 545 485 538T529 515T558 474T568 413V105L621 91V0H342V91L384 102V349Q384 381 369 394T322
407Q302 407 287 403T255 393V102L297 91V0H14V91L71 105V574H1V626Z" />
<glyph unicode="&#x128;" glyph-name="Itilde" horiz-adv-x="377" d="M17 97L87 114V579L17 596V693H360V596L290 579V114L360 97V0H17V97ZM261 772Q282 817 314 847T389 877Q406 877 422 873T453 864T481 855T505 851Q538 851 560 884L628 838Q608 793 575 763T500
732Q483 732 467 736T436 745T408 754T384 758Q351 758 329 726L261 772Z" />
<glyph unicode="&#x129;" glyph-name="itilde" horiz-adv-x="322" d="M14 91L71 105V412L9 428V521L238 544L255 537V105L309 91V0H14V91ZM232 628Q253 673 285 703T360 734Q377 734 392 730T420 720T445 711T468 706Q501 706 523 739L591 693Q571 648 538 618T463
587Q446 587 431 591T403 600T378 610T355 614Q322 614 300 582L232 628Z" />
<glyph unicode="&#x12a;" glyph-name="Imacron" horiz-adv-x="377" d="M299 847H588V737H299V847ZM17 97L87 114V579L17 596V693H360V596L290 579V114L360 97V0H17V97Z" />
<glyph unicode="&#x12b;" glyph-name="imacron" horiz-adv-x="322" d="M14 91L71 105V412L9 428V521L238 544L255 537V105L309 91V0H14V91ZM11 706H283V596H11V706Z" />
<glyph unicode="&#x12c;" glyph-name="Ibreve" horiz-adv-x="377" d="M445 725Q408 725 380 736T331 766T300 810T287 866H391Q394 851 408 842T445 832Q467 832 481 841T498 866H603Q601 836 590 811T559 766T510 736T445 725ZM17 97L87 114V579L17 596V693H360V596L290
579V114L360 97V0H17V97Z" />
<glyph unicode="&#x12d;" glyph-name="ibreve" horiz-adv-x="322" d="M14 91L71 105V412L9 428V521L238 544L255 537V105L309 91V0H14V91ZM411 585Q375 585 346 596T297 628T265 676T252 734H357Q360 716 374 706T411 695Q433 695 447 705T465 734H569Q568 703
557 676T525 629T476 597T411 585Z" />
<glyph unicode="&#x12e;" glyph-name="Iogonek" horiz-adv-x="377" d="M17 97L87 114V579L17 596V693H360V596L290 579V114L360 97V0H284Q261 -26 252 -43T242 -81Q242 -98 253 -106T282 -114Q290 -114 296 -114T309 -112V-183Q295 -189 274 -193T224 -197Q158
-197 128 -172T98 -111Q98 -76 121 -48T181 0H17V97Z" />
<glyph unicode="&#x12f;" glyph-name="iogonek" horiz-adv-x="322" d="M14 91L71 105V412L9 428V521L238 544L255 537V105L309 91V0H255Q233 -26 223 -43T213 -81Q213 -98 224 -106T253 -114Q261 -114 267 -114T280 -112V-183Q266 -189 246 -193T196 -197Q130
-197 100 -172T70 -111Q70 -75 95 -46T161 0H14V91ZM158 577Q116 577 87 601T57 667Q57 709 86 732T158 756Q200 756 229 733T259 667Q259 625 230 601T158 577Z" />
<glyph unicode="&#x130;" glyph-name="Idotaccent" horiz-adv-x="377" d="M17 97L87 114V579L17 596V693H360V596L290 579V114L360 97V0H17V97ZM444 725Q404 725 375 749T346 815Q346 857 375 880T444 904Q485 904 513 881T542 815Q542 773 514 749T444 725Z" />
<glyph unicode="&#x131;" glyph-name="dotlessi" horiz-adv-x="322" d="M14 91L71 105V412L9 428V521L238 544L255 537V105L309 91V0H14V91Z" />
<glyph unicode="&#x132;" glyph-name="IJ" horiz-adv-x="836" d="M528 -8Q499 -8 478 -6T440 1T411 11T388 22V141Q404 136 421 132T467 128Q507 128 530 148T554 221V579L485 596V693H822V596L757 579V209Q757 105 702 49T528 -8ZM17 97L87 114V579L17 596V693H360V596L290
579V114L360 97V0H17V97Z" />
<glyph unicode="&#x133;" glyph-name="ij" horiz-adv-x="601" d="M14 91L71 105V412L9 428V521L238 544L255 537V105L309 91V0H14V91ZM158 577Q116 577 87 601T57 667Q57 709 86 732T158 756Q200 756 229 733T259 667Q259 625 230 601T158 577ZM346 -198Q314 -198
291 -193T251 -181V-75Q271 -79 296 -79Q331 -79 349 -64T367 -9V412L304 428V521L533 544L550 537V-6Q550 -100 503 -149T346 -198ZM453 577Q411 577 382 601T352 667Q352 709 381 732T453 756Q495 756 524 733T554 667Q554 625 525 601T453 577Z" />
<glyph unicode="&#x134;" glyph-name="Jcircumflex" horiz-adv-x="474" d="M165 -8Q103 -8 70 2T13 23V141Q31 136 49 132T99 128Q142 128 167 148T192 221V579L123 596V693H461V596L395 579V209Q395 105 339 49T165 -8ZM125 773L246 891H332L452 773L419 722L289
774L159 722L125 773Z" />
<glyph unicode="&#x135;" glyph-name="jcircumflex" horiz-adv-x="306" d="M52 -198Q20 -198 -3 -193T-43 -181V-75Q-23 -79 2 -79Q37 -79 55 -64T73 -9V412L10 428V521L239 544L256 537V-6Q256 -100 209 -149T52 -198ZM243 625L363 760H449L569 625L532 575L406
641L279 575L243 625Z" />
<glyph unicode="&#x136;" glyph-name="Kcommaaccent" horiz-adv-x="739" d="M17 97L86 114V579L17 596V693H349V596L289 580V373L478 581L425 596V693H708V596L649 577L475 402L666 113L725 97V0H503L336 267L289 224V113L349 97V0H17V97ZM287 -189Q292 -155 294
-119T296 -36H470Q465 -78 454 -118T421 -189H287Z" />
<glyph unicode="&#x137;" glyph-name="kcommaaccent" horiz-adv-x="607" d="M14 91L71 105V618L11 634V726L238 750L255 742V302L274 315L385 430L334 443V534H579V443L527 428L416 310L558 101L597 91V0H415L283 206L255 201V102L301 91V0H14V91ZM212 -189Q217
-155 219 -119T221 -36H395Q390 -78 379 -118T346 -189H212Z" />
<glyph unicode="&#x139;" glyph-name="Lacute" horiz-adv-x="605" d="M17 97L86 114V579L17 596V693H362V596L289 580V114H436L485 258H597L584 0H17V97ZM343 722L315 800L533 904L583 774L343 722Z" />
<glyph unicode="&#x13a;" glyph-name="lacute" horiz-adv-x="326" d="M14 91L73 105V617L9 634V726L240 749L256 741V105L313 91V0H14V91ZM316 765L288 843L506 947L556 817L316 765Z" />
<glyph unicode="&#x13b;" glyph-name="Lcommaaccent" horiz-adv-x="605" d="M17 97L86 114V579L17 596V693H362V596L289 580V114H436L485 258H597L584 0H17V97ZM217 -189Q222 -155 224 -119T226 -36H400Q395 -78 384 -118T351 -189H217Z" />
<glyph unicode="&#x13c;" glyph-name="lcommaaccent" horiz-adv-x="326" d="M14 91L73 105V617L9 634V726L240 749L256 741V105L313 91V0H14V91ZM69 -189Q74 -155 76 -119T78 -36H252Q247 -78 236 -118T203 -189H69Z" />
<glyph unicode="&#x13d;" glyph-name="Lcaron" horiz-adv-x="605" d="M413 713L554 696L491 516L398 530L413 713ZM17 97L86 114V579L17 596V693H362V596L289 580V114H436L485 258H597L584 0H17V97Z" />
<glyph unicode="&#x13e;" glyph-name="lcaron" horiz-adv-x="326" d="M14 91L73 105V617L9 634V726L240 749L256 741V105L313 91V0H14V91ZM283 572L297 750L437 732L374 559L283 572Z" />
<glyph unicode="&#x13f;" glyph-name="Ldot" horiz-adv-x="605" d="M17 97L86 114V579L17 596V693H362V596L289 580V114H436L485 248H597L584 0H17V97ZM507 303Q467 303 442 328T416 388Q416 423 441 448T507 474Q546 474 571 449T596 388Q596 354 571 329T507 303Z" />
<glyph unicode="&#x140;" glyph-name="ldot" horiz-adv-x="420" d="M373 285Q412 285 436 309T461 368Q461 403 437 428T373 453Q354 453 338 446T310 428T292 401T285 368Q285 334 310 310T373 285ZM14 91L73 105V617L9 634V726L240 749L256 741V105L313 91V0H14V91Z" />
<glyph unicode="&#x141;" glyph-name="Lslash" horiz-adv-x="605" d="M17 326L86 349V579L17 596V693H360V596L289 580V415L437 466V348L289 297V114H436L485 258H597L584 0H17V97L86 114V231L17 208V326Z" />
<glyph unicode="&#x142;" glyph-name="lslash" horiz-adv-x="326" d="M9 365L73 397V617L9 634V726L240 749L256 741V490L324 525V415L256 380V105L313 91V0H14V91L73 105V287L9 255V365Z" />
<glyph unicode="&#x143;" glyph-name="Nacute" horiz-adv-x="736" d="M17 97L86 114V579L17 596V693H300L525 300H530V578L460 596V693H723V596L662 579V0H482L223 462H218V113L289 97V0H17V97ZM294 722L266 800L484 904L534 774L294 722Z" />
<glyph unicode="&#x144;" glyph-name="nacute" horiz-adv-x="633" d="M14 91L71 105V412L11 428V521L231 544L247 537V480H253Q291 509 332 527T429 545Q460 545 485 538T529 515T558 474T568 413V105L621 91V0H342V91L384 102V349Q384 381 369 393T322 406Q302
406 287 402T255 393V102L297 91V0H14V91ZM196 652L408 772L467 645L228 576L196 652Z" />
<glyph unicode="&#x145;" glyph-name="Ncommaaccent" horiz-adv-x="736" d="M17 97L86 114V579L17 596V693H300L525 300H530V578L460 596V693H723V596L662 579V0H482L223 462H218V113L289 97V0H17V97ZM293 -189Q298 -155 300 -119T302 -36H476Q471 -78 460 -118T427
-189H293Z" />
<glyph unicode="&#x146;" glyph-name="ncommaaccent" horiz-adv-x="633" d="M14 91L71 105V412L11 428V521L231 544L247 537V480H253Q291 509 332 527T429 545Q460 545 485 538T529 515T558 474T568 413V105L621 91V0H342V91L384 102V349Q384 381 369 393T322
406Q302 406 287 402T255 393V102L297 91V0H14V91ZM229 -189Q234 -155 236 -119T238 -36H412Q407 -78 396 -118T363 -189H229Z" />
<glyph unicode="&#x147;" glyph-name="Ncaron" horiz-adv-x="736" d="M17 97L86 114V579L17 596V693H300L525 300H530V578L460 596V693H723V596L662 579V0H482L223 462H218V113L289 97V0H17V97ZM557 845L437 726H351L230 845L264 895L394 844L524 895L557 845Z" />
<glyph unicode="&#x148;" glyph-name="ncaron" horiz-adv-x="633" d="M14 91L71 105V412L11 428V521L231 544L247 537V480H253Q291 509 332 527T429 545Q460 545 485 538T529 515T558 474T568 413V105L621 91V0H342V91L384 102V349Q384 381 369 393T322 406Q302
406 287 402T255 393V102L297 91V0H14V91ZM158 716L194 766L321 701L447 766L484 716L364 582H278L158 716Z" />
<glyph unicode="&#x149;" glyph-name="napostrophe" horiz-adv-x="742" d="M122 91L179 105V412L119 428V521L339 544L355 537V480H361Q399 509 440 527T537 545Q568 545 593 538T637 515T666 474T676 413V105L729 91V0H450V91L492 102V349Q492 381 477 393T430
406Q410 406 395 402T363 393V102L405 91V0H122V91ZM210 469Q215 522 218 574T222 693H390Q384 632 369 575T328 469H210V469Z" />
<glyph unicode="&#x14a;" glyph-name="Eng" horiz-adv-x="736" d="M469 -183Q431 -183 404 -177T358 -162V-53Q374 -56 389 -57T426 -59Q458 -59 478 -53T505 -26L223 462H218V113L289 97V0H17V97L86 114V579L17 596V693H300L525 300H530V578L460 596V693H723V596L662
579V16Q662 -81 617 -132T469 -183Z" />
<glyph unicode="&#x14b;" glyph-name="eng" horiz-adv-x="613" d="M568 -6Q568 -100 521 -149T365 -198Q333 -198 310 -193T270 -181V-75Q290 -79 314 -79Q348 -79 366 -64T384 -9V349Q384 381 369 393T322 406Q302 406 287 402T255 393V102L305 91V0H14V91L71
105V412L11 428V521L231 544L247 537V480H253Q291 509 332 527T429 545Q460 545 485 538T529 515T558 474T568 413V-6Z" />
<glyph unicode="&#x14c;" glyph-name="Omacron" horiz-adv-x="713" d="M356 111Q416 111 448 163T481 339Q481 409 474 456T451 531T412 571T357 583Q298 583 265 530T232 355Q232 286 239 240T261 165T299 124T356 111ZM354 -12Q282 -12 221 9T116 75T46 185T21
342Q21 437 49 505T125 618T233 684T360 705Q432 705 492 684T597 618T667 508T692 351Q692 256 664 188T589 75T481 10T354 -12ZM211 847H500V737H211V847Z" />
<glyph unicode="&#x14d;" glyph-name="omacron" horiz-adv-x="585" d="M294 97Q312 97 327 104T352 131T369 182T375 263Q375 315 369 348T352 401T326 428T291 436Q273 436 258 429T232 404T215 353T209 270Q209 218 215 185T232 132T259 105T294 97ZM293 -13Q226
-13 175 6T88 62T34 149T16 263Q16 332 37 384T96 473T184 527T292 545Q426 545 497 474T569 270Q569 201 548 149T489 60T401 6T293 -13ZM148 706H437V596H148V706Z" />
<glyph unicode="&#x14e;" glyph-name="Obreve" horiz-adv-x="713" d="M356 111Q416 111 448 163T481 339Q481 409 474 456T451 531T412 571T357 583Q298 583 265 530T232 355Q232 286 239 240T261 165T299 124T356 111ZM354 -12Q282 -12 221 9T116 75T46 185T21
342Q21 437 49 505T125 618T233 684T360 705Q432 705 492 684T597 618T667 508T692 351Q692 256 664 188T589 75T481 10T354 -12ZM357 725Q320 725 292 736T243 766T212 810T199 866H303Q306 851 320 842T357 832Q379 832 393 841T410 866H515Q513 836 502 811T471
766T422 736T357 725Z" />
<glyph unicode="&#x14f;" glyph-name="obreve" horiz-adv-x="585" d="M293 585Q257 585 228 596T179 628T147 676T134 734H239Q242 716 256 706T293 695Q315 695 329 705T347 734H451Q450 703 439 676T407 629T358 597T293 585ZM294 97Q312 97 327 104T352 131T369
182T375 263Q375 315 369 348T352 401T326 428T291 436Q273 436 258 429T232 404T215 353T209 270Q209 218 215 185T232 132T259 105T294 97ZM293 -13Q226 -13 175 6T88 62T34 149T16 263Q16 332 37 384T96 473T184 527T292 545Q426 545 497 474T569 270Q569 201
548 149T489 60T401 6T293 -13Z" />
<glyph unicode="&#x150;" glyph-name="Ohungarumlaut" horiz-adv-x="713" d="M209 763L288 920L407 850L281 723L209 763ZM394 769L487 921L600 841L463 724L394 769ZM356 111Q416 111 448 163T481 339Q481 409 474 456T451 531T412 571T357 583Q298 583 265 530T232
355Q232 286 239 240T261 165T299 124T356 111ZM354 -12Q282 -12 221 9T116 75T46 185T21 342Q21 437 49 505T125 618T233 684T360 705Q432 705 492 684T597 618T667 508T692 351Q692 256 664 188T589 75T481 10T354 -12Z" />
<glyph unicode="&#x151;" glyph-name="ohungarumlaut" horiz-adv-x="585" d="M132 612L245 786L350 707L189 570L132 612ZM328 619L454 786L553 699L383 572L328 619ZM294 97Q312 97 327 104T352 131T369 182T375 263Q375 315 369 348T352 401T326 428T291 436Q273
436 258 429T232 404T215 353T209 270Q209 218 215 185T232 132T259 105T294 97ZM293 -13Q226 -13 175 6T88 62T34 149T16 263Q16 332 37 384T96 473T184 527T292 545Q426 545 497 474T569 270Q569 201 548 149T489 60T401 6T293 -13Z" />
<glyph unicode="&#x152;" glyph-name="OE" horiz-adv-x="985" d="M369 0Q288 0 224 18T114 77T45 181T21 335Q21 428 46 496T117 607T226 672T366 693H943L952 483H840L805 582H629V406H690L707 471H797V234H707L690 301H629V111H808L856 233H969L959 0H369ZM379
576Q343 576 316 566T270 531T242 461T232 349Q232 274 242 229T273 159T322 126T388 117H429V576H379Z" />
<glyph unicode="&#x153;" glyph-name="oe" horiz-adv-x="907" d="M660 -13Q592 -13 545 6T468 62Q436 25 392 6T293 -13Q226 -13 175 6T88 62T34 149T16 263Q16 332 37 384T96 473T184 527T292 545Q413 545 474 473Q532 545 645 545Q707 545 752 529T828 476T873
382T888 239H565Q573 168 609 140T710 112Q763 112 798 120T863 137V40Q834 20 786 4T660 -13ZM294 97Q312 97 327 104T352 131T369 182T375 263Q375 315 369 348T352 401T326 428T291 436Q273 436 258 429T232 404T215 353T209 270Q209 218 215 185T232 132T259
105T294 97ZM643 438Q628 438 615 433T591 414T575 379T565 324L710 330Q710 392 691 415T643 438Z" />
<glyph unicode="&#x154;" glyph-name="Racute" horiz-adv-x="707" d="M240 722L212 800L430 904L480 774L240 722ZM17 97L87 114V578L18 596V693H374Q445 693 496 679T579 639T627 574T643 488Q643 453 634 427T609 382T572 349T525 325V321L648 111L699 97V0H489L338
276H290V112L348 97V0H17V97ZM353 381Q401 381 420 409T440 486Q440 534 418 555T346 577H290V381H353Z" />
<glyph unicode="&#x155;" glyph-name="racute" horiz-adv-x="425" d="M14 91L71 105V412L11 428V521L231 544L247 537V457H253Q274 493 308 518T388 543Q404 543 415 540V378Q395 383 368 383Q331 383 305 379T255 363V105L329 91V0H14V91ZM367 652L579 772L638
645L399 576L367 652Z" />
<glyph unicode="&#x156;" glyph-name="Rcommaaccent" horiz-adv-x="707" d="M17 97L87 114V578L18 596V693H374Q445 693 496 679T579 639T627 574T643 488Q643 453 634 427T609 382T572 349T525 325V321L648 111L699 97V0H489L338 276H290V112L348 97V0H17V97ZM353
381Q401 381 420 409T440 486Q440 534 418 555T346 577H290V381H353ZM288 -189Q293 -155 295 -119T297 -36H471Q466 -78 455 -118T422 -189H288Z" />
<glyph unicode="&#x157;" glyph-name="rcommaaccent" horiz-adv-x="425" d="M14 91L71 105V412L11 428V521L231 544L247 537V457H253Q274 493 308 518T388 543Q404 543 415 540V378Q395 383 368 383Q331 383 305 379T255 363V105L329 91V0H14V91ZM67 -189Q72 -155
74 -119T76 -36H250Q245 -78 234 -118T201 -189H67Z" />
<glyph unicode="&#x158;" glyph-name="Rcaron" horiz-adv-x="707" d="M17 97L87 114V578L18 596V693H374Q445 693 496 679T579 639T627 574T643 488Q643 453 634 427T609 382T572 349T525 325V321L648 111L699 97V0H489L338 276H290V112L348 97V0H17V97ZM353 381Q401
381 420 409T440 486Q440 534 418 555T346 577H290V381H353ZM498 845L378 726H292L171 845L205 895L335 844L465 895L498 845Z" />
<glyph unicode="&#x159;" glyph-name="rcaron" horiz-adv-x="425" d="M329 716L365 766L492 701L618 766L655 716L535 582H449L329 716ZM14 91L71 105V412L11 428V521L231 544L247 537V457H253Q274 493 308 518T388 543Q404 543 415 540V378Q395 383 368 383Q331
383 305 379T255 363V105L329 91V0H14V91Z" />
<glyph unicode="&#x15a;" glyph-name="Sacute" horiz-adv-x="566" d="M262 -12Q231 -12 199 -10T137 -3T81 8T34 22L24 210H148L173 124Q190 116 209 112T256 108Q303 108 326 127T349 179Q349 213 320 232T239 269L199 284Q158 298 127 314T74 354T41 410T29
489Q29 537 44 576T92 645T177 690T302 706Q377 706 424 697T501 678L511 507H389L370 573Q356 580 339 584T296 589Q258 589 235 574T212 528Q212 498 236 482T309 448L350 433Q397 417 433 400T494 360T531 303T544 219Q544 111 473 50T262 -12ZM189 722L161
800L379 904L429 774L189 722Z" />
<glyph unicode="&#x15b;" glyph-name="sacute" horiz-adv-x="485" d="M215 -13Q170 -13 120 -5T28 20L19 166H132L152 107Q162 102 180 97T222 91Q254 91 273 103T292 138Q292 161 278 171T228 190L170 204Q95 221 57 258T18 367Q18 406 32 439T75 495T149 532T256
546Q306 546 353 539T433 517V378H323L310 431Q301 436 287 440T250 444Q221 444 201 435T181 402Q181 381 196 370T253 350L318 335Q399 317 433 277T467 176Q467 134 453 99T408 39T330 1T215 -13ZM122 652L334 772L393 645L154 576L122 652Z" />
<glyph unicode="&#x15c;" glyph-name="Scircumflex" horiz-adv-x="566" d="M126 773L247 891H333L453 773L420 722L290 774L160 722L126 773ZM262 -12Q231 -12 199 -10T137 -3T81 8T34 22L24 210H148L173 124Q190 116 209 112T256 108Q303 108 326 127T349 179Q349
213 320 232T239 269L199 284Q158 298 127 314T74 354T41 410T29 489Q29 537 44 576T92 645T177 690T302 706Q377 706 424 697T501 678L511 507H389L370 573Q356 580 339 584T296 589Q258 589 235 574T212 528Q212 498 236 482T309 448L350 433Q397 417 433 400T494
360T531 303T544 219Q544 111 473 50T262 -12Z" />
<glyph unicode="&#x15d;" glyph-name="scircumflex" horiz-adv-x="485" d="M215 -13Q170 -13 120 -5T28 20L19 166H132L152 107Q162 102 180 97T222 91Q254 91 273 103T292 138Q292 161 278 171T228 190L170 204Q95 221 57 258T18 367Q18 406 32 439T75 495T149
532T256 546Q306 546 353 539T433 517V378H323L310 431Q301 436 287 440T250 444Q221 444 201 435T181 402Q181 381 196 370T253 350L318 335Q399 317 433 277T467 176Q467 134 453 99T408 39T330 1T215 -13ZM341 625L461 760H547L667 625L630 575L504 641L377
575L341 625Z" />
<glyph unicode="&#x15e;" glyph-name="Scedilla" horiz-adv-x="566" d="M176 -165Q234 -160 255 -151T276 -125Q276 -111 259 -103T201 -93V-9Q153 -6 109 2T34 22L24 210H148L173 124Q190 116 209 112T256 108Q303 108 326 127T349 179Q349 213 320 232T239 269L199
284Q158 298 127 314T74 354T41 410T29 489Q29 537 44 576T92 645T177 690T302 706Q377 706 424 697T501 678L511 507H389L370 573Q356 580 339 584T296 589Q258 589 235 574T212 528Q212 498 236 482T309 448L350 433Q397 417 433 400T494 360T531 303T544 219Q544
113 475 52T271 -12V-40Q339 -44 366 -62T394 -118Q394 -162 343 -188T176 -221V-165Z" />
<glyph unicode="&#x15f;" glyph-name="scedilla" horiz-adv-x="485" d="M136 -165Q194 -160 215 -151T236 -125Q236 -111 219 -103T161 -93V-10Q126 -7 92 0T28 20L19 166H132L152 107Q162 102 180 97T222 91Q254 91 273 103T292 138Q292 161 278 171T228 190L170
204Q95 221 57 258T18 367Q18 406 32 439T75 495T149 532T256 546Q306 546 353 539T433 517V378H323L310 431Q301 436 287 440T250 444Q221 444 201 435T181 402Q181 381 196 370T253 350L318 335Q399 317 433 277T467 176Q467 93 411 42T231 -13V-40Q299 -44 326
-62T354 -118Q354 -162 303 -188T136 -221V-165Z" />
<glyph unicode="&#x160;" glyph-name="Scaron" horiz-adv-x="566" d="M453 845L333 726H247L126 845L160 895L290 844L420 895L453 845ZM262 -12Q231 -12 199 -10T137 -3T81 8T34 22L24 210H148L173 124Q190 116 209 112T256 108Q303 108 326 127T349 179Q349
213 320 232T239 269L199 284Q158 298 127 314T74 354T41 410T29 489Q29 537 44 576T92 645T177 690T302 706Q377 706 424 697T501 678L511 507H389L370 573Q356 580 339 584T296 589Q258 589 235 574T212 528Q212 498 236 482T309 448L350 433Q397 417 433 400T494
360T531 303T544 219Q544 111 473 50T262 -12Z" />
<glyph unicode="&#x161;" glyph-name="scaron" horiz-adv-x="485" d="M341 716L377 766L504 701L630 766L667 716L547 582H461L341 716ZM215 -13Q170 -13 120 -5T28 20L19 166H132L152 107Q162 102 180 97T222 91Q254 91 273 103T292 138Q292 161 278 171T228
190L170 204Q95 221 57 258T18 367Q18 406 32 439T75 495T149 532T256 546Q306 546 353 539T433 517V378H323L310 431Q301 436 287 440T250 444Q221 444 201 435T181 402Q181 381 196 370T253 350L318 335Q399 317 433 277T467 176Q467 134 453 99T408 39T330 1T215
-13Z" />
<glyph unicode="&#x162;" glyph-name="Tcommaaccent" horiz-adv-x="666" d="M157 97L232 114V579H159L129 458H11L20 693H646L654 458H537L507 579H434V114L508 97V0H157V97ZM241 -189Q246 -155 248 -119T250 -36H424Q419 -78 408 -118T375 -189H241Z" />
<glyph unicode="&#x163;" glyph-name="tcommaaccent" horiz-adv-x="387" d="M236 -11Q195 -11 164 -4T112 20T79 66T68 137V425H11V508L84 535L107 659H251V534H359V425H251V167Q251 132 267 119T316 106Q329 106 341 108T365 113V18Q347 7 314 -2T236 -11ZM110
-189Q115 -155 117 -119T119 -36H293Q288 -78 277 -118T244 -189H110Z" />
<glyph unicode="&#x164;" glyph-name="Tcaron" horiz-adv-x="666" d="M157 97L232 114V579H159L129 458H11L20 693H646L654 458H537L507 579H434V114L508 97V0H157V97ZM496 845L376 726H290L169 845L203 895L333 844L463 895L496 845Z" />
<glyph unicode="&#x165;" glyph-name="tcaron" horiz-adv-x="387" d="M236 -11Q195 -11 164 -4T112 20T79 66T68 137V425H11V508L84 535L107 659H251V534H359V425H251V167Q251 132 267 119T316 106Q329 106 341 108T365 113V18Q347 7 314 -2T236 -11ZM283 572L297
750L437 732L374 559L283 572Z" />
<glyph unicode="&#x166;" glyph-name="Tbar" horiz-adv-x="666" d="M101 402H232V579H159L129 458H11L20 693H646L654 458H537L507 579H434V402H565V308H434V114L508 97V0H157V97L232 114V308H101V402Z" />
<glyph unicode="&#x167;" glyph-name="tbar" horiz-adv-x="387" d="M11 365H68V425H11V508L84 535L107 659H251V534H359V425H251V365H359V297H251V167Q251 132 267 119T316 106Q329 106 341 108T365 113V18Q347 7 314 -2T236 -11Q195 -11 164 -4T112 20T79 66T68
137V297H11V365Z" />
<glyph unicode="&#x168;" glyph-name="Utilde" horiz-adv-x="718" d="M201 772Q222 817 254 847T329 877Q346 877 362 873T393 864T421 855T445 851Q478 851 500 884L568 838Q548 793 515 763T440 732Q423 732 407 736T376 745T348 754T324 758Q291 758 269 726L201
772ZM372 -12Q295 -12 239 4T147 51T94 124T76 221V579L11 596V693H342V596L279 580V235Q279 165 311 137T399 109Q456 109 485 137T515 235V580L452 596V693H707V596L646 579V234Q646 180 631 135T584 58T499 7T372 -12Z" />
<glyph unicode="&#x169;" glyph-name="utilde" horiz-adv-x="633" d="M217 -12Q134 -12 99 27T63 136V414L7 431V523L230 544L246 536V189Q246 156 258 141T306 126Q331 126 347 131T377 141V414L324 431V523L543 544L560 536V121L617 105V14L400 -10L384 -3V55H378Q351
28 312 8T217 -12ZM132 628Q153 673 185 703T260 734Q277 734 292 730T320 720T345 711T368 706Q401 706 423 739L491 693Q471 648 438 618T363 587Q346 587 331 591T303 600T278 610T255 614Q222 614 200 582L132 628Z" />
<glyph unicode="&#x16a;" glyph-name="Umacron" horiz-adv-x="718" d="M372 -12Q295 -12 239 4T147 51T94 124T76 221V579L11 596V693H342V596L279 580V235Q279 165 311 137T399 109Q456 109 485 137T515 235V580L452 596V693H707V596L646 579V234Q646 180 631
135T584 58T499 7T372 -12ZM240 847H529V737H240V847Z" />
<glyph unicode="&#x16b;" glyph-name="umacron" horiz-adv-x="633" d="M217 -12Q134 -12 99 27T63 136V414L7 431V523L230 544L246 536V189Q246 156 258 141T306 126Q331 126 347 131T377 141V414L324 431V523L543 544L560 536V121L617 105V14L400 -10L384 -3V55H378Q351
28 312 8T217 -12ZM167 706H456V596H167V706Z" />
<glyph unicode="&#x16c;" glyph-name="Ubreve" horiz-adv-x="718" d="M372 -12Q295 -12 239 4T147 51T94 124T76 221V579L11 596V693H342V596L279 580V235Q279 165 311 137T399 109Q456 109 485 137T515 235V580L452 596V693H707V596L646 579V234Q646 180 631
135T584 58T499 7T372 -12ZM385 725Q348 725 320 736T271 766T240 810T227 866H331Q334 851 348 842T385 832Q407 832 421 841T438 866H543Q541 836 530 811T499 766T450 736T385 725Z" />
<glyph unicode="&#x16d;" glyph-name="ubreve" horiz-adv-x="633" d="M217 -12Q134 -12 99 27T63 136V414L7 431V523L230 544L246 536V189Q246 156 258 141T306 126Q331 126 347 131T377 141V414L324 431V523L543 544L560 536V121L617 105V14L400 -10L384 -3V55H378Q351
28 312 8T217 -12ZM312 585Q276 585 247 596T198 628T166 676T153 734H258Q261 716 275 706T312 695Q334 695 348 705T366 734H470Q469 703 458 676T426 629T377 597T312 585Z" />
<glyph unicode="&#x16e;" glyph-name="Uring" horiz-adv-x="718" d="M372 -12Q295 -12 239 4T147 51T94 124T76 221V579L11 596V693H342V596L279 580V235Q279 165 311 137T399 109Q456 109 485 137T515 235V580L452 596V693H707V596L646 579V234Q646 180 631 135T584
58T499 7T372 -12ZM385 771Q407 771 419 784T431 820Q431 841 419 855T385 869Q363 869 351 855T338 820Q338 797 350 784T385 771ZM385 709Q359 709 338 718T301 742T277 777T268 820Q268 842 276 862T301 897T338 921T385 930Q410 930 431 921T468 897T493 862T502
820Q502 797 493 777T469 742T432 718T385 709Z" />
<glyph unicode="&#x16f;" glyph-name="uring" horiz-adv-x="633" d="M310 638Q332 638 344 651T356 687Q356 708 344 722T310 736Q288 736 276 722T263 687Q263 664 275 651T310 638ZM310 576Q284 576 263 585T226 609T202 644T193 687Q193 709 201 729T226 764T263
787T310 796Q335 796 356 788T393 764T418 729T427 687Q427 664 418 644T394 609T357 585T310 576ZM217 -12Q134 -12 99 27T63 136V414L7 431V523L230 544L246 536V189Q246 156 258 141T306 126Q331 126 347 131T377 141V414L324 431V523L543 544L560 536V121L617
105V14L400 -10L384 -3V55H378Q351 28 312 8T217 -12Z" />
<glyph unicode="&#x170;" glyph-name="Uhungarumlaut" horiz-adv-x="718" d="M237 763L316 920L435 850L309 723L237 763ZM422 769L515 921L628 841L491 724L422 769ZM372 -12Q295 -12 239 4T147 51T94 124T76 221V579L11 596V693H342V596L279 580V235Q279 165
311 137T399 109Q456 109 485 137T515 235V580L452 596V693H707V596L646 579V234Q646 180 631 135T584 58T499 7T372 -12Z" />
<glyph unicode="&#x171;" glyph-name="uhungarumlaut" horiz-adv-x="633" d="M151 612L264 786L369 707L208 570L151 612ZM347 619L473 786L572 699L402 572L347 619ZM217 -12Q134 -12 99 27T63 136V414L7 431V523L230 544L246 536V189Q246 156 258 141T306 126Q331
126 347 131T377 141V414L324 431V523L543 544L560 536V121L617 105V14L400 -10L384 -3V55H378Q351 28 312 8T217 -12Z" />
<glyph unicode="&#x172;" glyph-name="Uogonek" horiz-adv-x="718" d="M365 -12Q219 -12 148 51T76 221V579L11 596V693H342V596L279 580V235Q279 165 311 137T399 109Q456 109 485 137T515 235V580L452 596V693H707V596L646 579V234Q646 159 619 105T529 19Q511
10 495 0T466 -23T445 -50T437 -81Q437 -98 448 -106T477 -114Q485 -114 491 -114T504 -112V-183Q490 -189 469 -193T419 -197Q353 -197 323 -172T293 -111Q293 -78 314 -54T374 -12H365V-12Z" />
<glyph unicode="&#x173;" glyph-name="uogonek" horiz-adv-x="633" d="M429 -197Q363 -197 333 -172T303 -111Q303 -78 324 -53T384 -8V55H378Q351 28 312 8T217 -12Q134 -12 99 27T63 136V414L7 431V523L230 544L246 536V189Q246 156 258 141T306 126Q331 126
347 131T377 141V414L324 431V523L543 544L560 536V121L617 105V14L494 1Q470 -24 458 -43T446 -81Q446 -98 457 -106T486 -114Q494 -114 500 -114T513 -112V-183Q499 -189 479 -193T429 -197Z" />
<glyph unicode="&#x174;" glyph-name="Wcircumflex" horiz-adv-x="1010" d="M377 773L498 891H584L704 773L671 722L541 774L411 722L377 773ZM62 579L12 596V693H329V596L270 579L346 231H351L467 693H611L727 245H732L805 579L741 596V693H998V596L946 579L804
0H609L509 412H505L402 0H207L62 579Z" />
<glyph unicode="&#x175;" glyph-name="wcircumflex" horiz-adv-x="848" d="M278 625L398 760H484L604 625L567 575L441 641L314 575L278 625ZM46 429L5 443V534H273V443L229 431L285 215H289L383 534H511L605 215H609L664 431L621 443V534H840V443L799 429L671
0H513L426 300H423L333 0H174L46 429Z" />
<glyph unicode="&#x176;" glyph-name="Ycircumflex" horiz-adv-x="675" d="M170 97L243 114V278L63 579L10 596V693H328V596L275 581L376 394H380L477 581L424 596V693H665V596L611 579L445 283V114L517 97V0H170V97ZM202 773L323 891H409L529 773L496 722L366
774L236 722L202 773Z" />
<glyph unicode="&#x177;" glyph-name="ycircumflex" horiz-adv-x="604" d="M173 -203Q147 -203 118 -199T73 -187V-72Q104 -79 127 -79Q159 -79 181 -69T214 -31L229 8L51 429L5 443V534H292V443L243 431L332 191H336L414 431L365 443V534H595V443L552 429L367
-56Q353 -93 336 -120T296 -166T243 -194T173 -203ZM160 625L280 760H366L486 625L449 575L323 641L196 575L160 625Z" />
<glyph unicode="&#x178;" glyph-name="Ydieresis" horiz-adv-x="675" d="M170 97L243 114V278L63 579L10 596V693H328V596L275 581L376 394H380L477 581L424 596V693H665V596L611 579L445 283V114L517 97V0H170V97ZM261 727Q225 727 199 748T173 809Q173 847 199
869T261 891Q298 891 324 869T351 809Q351 770 325 749T261 727ZM470 727Q434 727 408 748T381 809Q381 847 407 869T470 891Q507 891 533 869T559 809Q559 770 533 749T470 727Z" />
<glyph unicode="&#x179;" glyph-name="Zacute" horiz-adv-x="600" d="M18 119L350 574V578H190L148 467H30L42 693H580V574L248 119V115H423L469 245H584L573 0H18V119ZM222 722L194 800L412 904L462 774L222 722Z" />
<glyph unicode="&#x17a;" glyph-name="zacute" horiz-adv-x="507" d="M18 97L272 428V432H146L119 350H27L37 534H480V434L235 109V105H361L394 198H489L475 0H18V97ZM134 652L346 772L405 645L166 576L134 652Z" />
<glyph unicode="&#x17b;" glyph-name="Zdotaccent" horiz-adv-x="600" d="M312 725Q272 725 243 749T214 815Q214 857 243 880T312 904Q353 904 381 881T410 815Q410 773 382 749T312 725ZM18 119L350 574V578H190L148 467H30L42 693H580V574L248 119V115H423L469
245H584L573 0H18V119Z" />
<glyph unicode="&#x17c;" glyph-name="zdotaccent" horiz-adv-x="507" d="M259 577Q219 577 190 601T161 667Q161 709 190 732T259 756Q300 756 328 733T357 667Q357 625 329 601T259 577ZM18 97L272 428V432H146L119 350H27L37 534H480V434L235 109V105H361L394
198H489L475 0H18V97Z" />
<glyph unicode="&#x17d;" glyph-name="Zcaron" horiz-adv-x="600" d="M475 845L355 726H269L148 845L182 895L312 844L442 895L475 845ZM18 119L350 574V578H190L148 467H30L42 693H580V574L248 119V115H423L469 245H584L573 0H18V119Z" />
<glyph unicode="&#x17e;" glyph-name="zcaron" horiz-adv-x="507" d="M96 716L132 766L259 701L385 766L422 716L302 582H216L96 716ZM18 97L272 428V432H146L119 350H27L37 534H480V434L235 109V105H361L394 198H489L475 0H18V97Z" />
<glyph unicode="&#x192;" glyph-name="florin" horiz-adv-x="494" d="M50 415H133L151 521Q168 615 221 657T363 700Q409 700 439 693T487 678V568Q473 571 461 573T428 575Q388 575 370 559T343 499L328 415H430V308H309L248 -34Q234 -114 184 -148T52 -183Q36
-183 20 -181T-11 -176T-35 -170T-50 -164V-57Q-41 -59 -31 -60T-7 -61Q49 -61 59 -3L114 308H50V415Z" />
<glyph unicode="&#x1fa;" glyph-name="Aringacute" horiz-adv-x="733" d="M7 97L63 114L273 693H464L669 114L725 97V0H384V97L451 114L422 205H233L203 114L271 97V0H7V97ZM263 301H392L331 494H326L263 301ZM364 1028Q386 1028 398 1041T410 1077Q410 1098 398
1112T364 1126Q342 1126 330 1112T317 1077Q317 1054 329 1041T364 1028ZM364 966Q338 966 317 975T280 999T256 1034T247 1077Q247 1099 255 1119T280 1154T317 1178T364 1187Q389 1187 410 1178T447 1154T472 1119T481 1077Q481 1054 472 1034T448 999T411 975T364
966ZM260 933L232 1011L450 1115L500 985L260 933Z" />
<glyph unicode="&#x1fb;" glyph-name="aringacute" horiz-adv-x="546" d="M170 -13Q134 -13 105 -3T55 27T23 74T12 133Q12 172 25 199T64 244T125 274T207 294L300 312V338Q300 378 280 395T200 412Q165 412 128 410T63 402V508Q101 522 159 533T287 545Q389
545 436 503T483 370V132Q483 113 493 107T519 100H535V13Q521 4 491 -4T428 -12Q384 -12 358 2T320 50H315Q295 24 258 6T170 -13ZM248 93Q265 93 278 99T300 113V228L253 226Q194 222 194 159Q194 125 206 109T248 93ZM273 890Q295 890 307 903T319 939Q319 960
307 974T273 988Q251 988 239 974T226 939Q226 916 238 903T273 890ZM273 828Q247 828 226 837T189 861T165 896T156 939Q156 961 164 981T189 1016T226 1039T273 1048Q298 1048 319 1040T356 1016T381 981T390 939Q390 916 381 896T357 861T320 837T273 828ZM166
797L138 875L356 979L406 849L166 797Z" />
<glyph unicode="&#x1fc;" glyph-name="AEacute" horiz-adv-x="999" d="M286 97V0H7V97L63 115L362 588L305 596V693H957L966 483H854L819 582H647V406H704L721 471H811V234H721L704 301H647V111H822L870 233H983L973 0H379V97L448 114V198H256L207 115L286 97ZM448
295V520H445L313 295H448ZM537 722L509 800L727 904L777 774L537 722Z" />
<glyph unicode="&#x1fd;" glyph-name="aeacute" horiz-adv-x="826" d="M181 -13Q100 -13 56 27T12 133Q12 172 25 199T64 245T125 275T207 295L300 313V338Q300 378 280 395T200 412Q165 412 128 410T63 402V508Q101 522 157 533T276 545Q374 545 417 496Q477
545 569 545Q629 545 674 529T748 476T792 381T807 238H486Q494 167 530 140T630 112Q683 112 718 120T782 137V40Q753 20 705 4T580 -13Q426 -13 355 76Q323 33 278 10T181 -13ZM323 132Q313 153 308 177T300 231L253 227Q194 224 194 159Q194 93 251 93Q268 93
285 102T323 132ZM630 329Q630 391 611 414T563 438Q532 438 512 414T486 323L630 329ZM309 652L521 772L580 645L341 576L309 652Z" />
<glyph unicode="&#x1fe;" glyph-name="Oslashacute" horiz-adv-x="713" d="M37 13L99 93Q62 137 42 199T21 342Q21 437 49 505T125 618T233 684T360 705Q411 705 457 694T542 660L588 718L661 671L609 605Q648 561 670 499T692 351Q692 256 664 188T589 75T481
10T354 -12Q300 -12 252 0T164 37L110 -33L37 13ZM356 111Q419 111 454 163T489 339Q489 399 483 443L259 157Q275 132 299 122T356 111ZM224 355Q224 327 225 303T228 258L450 541Q433 564 410 573T357 583Q294 583 259 530T224 355ZM256 722L228 800L446 904L496
774L256 722Z" />
<glyph unicode="&#x1ff;" glyph-name="oslashacute" horiz-adv-x="585" d="M25 9L78 72Q16 143 16 263Q16 332 37 384T96 473T184 527T292 545Q380 545 445 511L489 564L553 518L507 462Q569 391 569 270Q569 201 548 149T489 60T401 6T293 -13Q247 -13 209 -4T139
22L89 -37L25 9ZM294 96Q314 96 331 103T360 129T379 180T386 263Q386 277 386 290T384 315L225 125Q236 108 253 102T294 96ZM199 271Q199 256 199 243T201 219L360 409Q348 426 331 432T291 438Q271 438 254 431T225 406T206 355T199 271ZM167 652L379 772L438
645L199 576L167 652Z" />
<glyph unicode="&#x218;" glyph-name="Scommaaccent" horiz-adv-x="566" d="M262 -12Q231 -12 199 -10T137 -3T81 8T34 22L24 210H148L173 124Q190 116 209 112T256 108Q303 108 326 127T349 179Q349 213 320 232T239 269L199 284Q158 298 127 314T74 354T41 410T29
489Q29 537 44 576T92 645T177 690T302 706Q377 706 424 697T501 678L511 507H389L370 573Q356 580 339 584T296 589Q258 589 235 574T212 528Q212 498 236 482T309 448L350 433Q397 417 433 400T494 360T531 303T544 219Q544 111 473 50T262 -12ZM187 -189Q192
-155 194 -119T196 -36H370Q365 -78 354 -118T321 -189H187Z" />
<glyph unicode="&#x219;" glyph-name="scommaaccent" horiz-adv-x="485" d="M215 -13Q170 -13 120 -5T28 20L19 166H132L152 107Q162 102 180 97T222 91Q254 91 273 103T292 138Q292 161 278 171T228 190L170 204Q95 221 57 258T18 367Q18 406 32 439T75 495T149
532T256 546Q306 546 353 539T433 517V378H323L310 431Q301 436 287 440T250 444Q221 444 201 435T181 402Q181 381 196 370T253 350L318 335Q399 317 433 277T467 176Q467 134 453 99T408 39T330 1T215 -13ZM154 -189Q159 -155 161 -119T163 -36H337Q332 -78 321
-118T288 -189H154Z" />
<glyph unicode="&#x21a;" glyph-name="uni021A" horiz-adv-x="666" d="M157 97L232 114V579H159L129 458H11L20 693H646L654 458H537L507 579H434V114L508 97V0H157V97ZM241 -189Q246 -155 248 -119T250 -36H424Q419 -78 408 -118T375 -189H241Z" />
<glyph unicode="&#x21b;" glyph-name="uni021B" horiz-adv-x="387" d="M236 -11Q195 -11 164 -4T112 20T79 66T68 137V425H11V508L84 535L107 659H251V534H359V425H251V167Q251 132 267 119T316 106Q329 106 341 108T365 113V18Q347 7 314 -2T236 -11ZM110 -189Q115
-155 117 -119T119 -36H293Q288 -78 277 -118T244 -189H110Z" />
<glyph unicode="&#x237;" glyph-name="uni0237" horiz-adv-x="306" d="M52 -198Q20 -198 -3 -193T-43 -181V-75Q-23 -79 2 -79Q37 -79 55 -64T73 -9V412L10 428V521L239 544L256 537V-6Q256 -100 209 -149T52 -198Z" />
<glyph unicode="&#x2c6;" glyph-name="circumflex" horiz-adv-x="498" d="M86 625L206 760H292L412 625L375 575L249 641L122 575L86 625Z" />
<glyph unicode="&#x2c7;" glyph-name="caron" horiz-adv-x="498" d="M86 716L122 766L249 701L375 766L412 716L292 582H206L86 716Z" />
<glyph unicode="&#x2d8;" glyph-name="breve" horiz-adv-x="498" d="M254 585Q218 585 189 596T140 628T108 676T95 734H200Q203 716 217 706T254 695Q276 695 290 705T308 734H412Q411 703 400 676T368 629T319 597T254 585Z" />
<glyph unicode="&#x2d9;" glyph-name="dotaccent" horiz-adv-x="498" d="M248 577Q208 577 179 601T150 667Q150 709 179 732T248 756Q289 756 317 733T346 667Q346 625 318 601T248 577Z" />
<glyph unicode="&#x2da;" glyph-name="ring" horiz-adv-x="498" d="M249 638Q271 638 283 651T295 687Q295 708 283 722T249 736Q227 736 215 722T202 687Q202 664 214 651T249 638ZM249 576Q223 576 202 585T165 609T141 644T132 687Q132 709 140 729T165 764T202
787T249 796Q274 796 295 788T332 764T357 729T366 687Q366 664 357 644T333 609T296 585T249 576Z" />
<glyph unicode="&#x2db;" glyph-name="ogonek" horiz-adv-x="538" d="M262 -197Q195 -197 165 -172T135 -111Q135 -73 163 -45T242 0H327Q302 -26 291 -43T279 -81Q279 -98 290 -106T319 -114Q327 -114 333 -114T346 -112V-183Q332 -189 311 -193T262 -197Z" />
<glyph unicode="&#x2dc;" glyph-name="tilde" horiz-adv-x="498" d="M71 628Q92 673 124 703T199 734Q216 734 231 730T259 720T284 711T307 706Q340 706 362 739L430 693Q410 648 377 618T302 587Q285 587 270 591T242 600T217 610T194 614Q161 614 139 582L71 628Z" />
<glyph unicode="&#x2dd;" glyph-name="hungarumlaut" horiz-adv-x="498" d="M102 612L215 786L320 707L159 570L102 612ZM298 619L424 786L523 699L353 572L298 619Z" />
</font>
</defs>
</svg>
