<?xml version="1.0" standalone="no"?> <!DOCTYPE svg PUBLIC "-//W3C//DTD SVG 1.0//EN" "http://www.w3.org/TR/2001/REC-SVG-20010904/DTD/svg10.dtd" > <svg xmlns="http://www.w3.org/2000/svg" width="100%" height="100%">
<defs >
<font id="GuardianTextEgyptianWeb-BlackItalic" horiz-adv-x="594" ><font-face
    font-family="GuardianTextEgyptianWeb"
    units-per-em="1000"
    panose-1="2 6 10 3 5 5 3 13 8 3"
    ascent="783"
    descent="-217"
    alphabetic="0" />
<missing-glyph horiz-adv-x="500" />
<glyph unicode=" " glyph-name="space" horiz-adv-x="201" />
<glyph unicode="!" glyph-name="exclam" horiz-adv-x="279" d="M117 721H312L177 234H68L117 721ZM98 -12Q56 -12 32 15T8 76Q8 117 35 145T105 173Q146 173 170 146T194 85Q194 44 167 16T98 -12Z" />
<glyph unicode="&quot;" glyph-name="quotedbl" horiz-adv-x="483" d="M335 721H505L433 458H309L335 721ZM119 721H289L217 458H93L119 721Z" />
<glyph unicode="#" glyph-name="numbersign" horiz-adv-x="548" d="M91 522H182L219 670H314L277 522H376L413 670H508L471 522H543L519 383H437L416 298H495L470 159H382L343 0H248L287 159H188L149 0H54L93 159H20L45 298H127L148 383H67L91 522ZM220 290H319L344
391H245L220 290Z" />
<glyph unicode="$" glyph-name="dollar" horiz-adv-x="600" d="M144 109Q166 95 194 88L246 275L222 286Q150 316 115 357T79 467Q79 521 100 561T156 629T239 669T340 683H354L377 768H462L437 674Q512 660 547 625T583 548Q583 522 572 504T548 475H444V566Q436
571 426 575T405 582L358 413L386 402Q461 370 499 328T537 216Q537 157 516 114T457 43T368 2T256 -12H246L210 -143H125L163 -3Q85 13 42 51T-1 131Q-1 158 10 176T35 205H144V109ZM369 171Q369 196 357 213T312 247L266 82Q311 86 340 108T369 171ZM240 506Q240
486 252 472T293 442L334 590Q292 589 266 569T240 506Z" />
<glyph unicode="%" glyph-name="percent" horiz-adv-x="900" d="M221 293Q186 293 156 303T104 334T68 386T55 458Q55 507 72 547T117 616T184 661T264 677Q299 677 329 668T381 639T415 589T428 517Q428 468 412 427T368 356T302 310T221 293ZM677 686H776L228
-37H129L677 686ZM224 367Q243 367 257 384T280 427T293 486T298 551Q298 575 289 589T259 603Q240 603 227 587T204 545T191 487T187 424Q187 398 195 383T224 367ZM654 -11Q619 -11 589 -1T537 30T501 82T488 154Q488 203 505 243T550 312T617 357T697 373Q732
373 762 364T814 335T848 285T861 213Q861 164 845 123T801 52T735 6T654 -11ZM657 63Q676 63 690 80T713 123T726 182T731 247Q731 271 722 285T692 299Q673 299 660 283T637 241T624 183T620 120Q620 94 628 79T657 63Z" />
<glyph unicode="&amp;" glyph-name="ampersand" horiz-adv-x="754" d="M687 316Q667 275 641 235T583 157L624 99L686 80L672 0H472L445 40Q403 15 357 2T259 -12Q196 -12 149 3T70 44T23 106T7 185Q7 230 20 265T59 328T119 375T199 411Q180 443 170 472T160
530Q160 576 177 613T226 678T302 719T402 734Q454 734 492 721T556 687T594 636T607 575Q607 538 592 510T552 461T492 424T418 395L530 234Q542 253 552 274T572 317L531 334L545 413H762L748 334L687 316ZM318 100Q358 100 395 114L250 330L242 341Q216 315
207 284T198 216Q198 168 228 134T318 100ZM336 556Q336 526 347 502T374 455Q424 480 440 510T457 579Q457 611 443 627T407 644Q377 644 357 621T336 556Z" />
<glyph unicode="&apos;" glyph-name="quotesingle" horiz-adv-x="256" d="M119 721H289L217 458H93L119 721Z" />
<glyph unicode="(" glyph-name="parenleft" horiz-adv-x="365" d="M222 -144Q185 -109 151 -69T89 19T46 121T30 242Q30 340 61 421T141 568T254 685T382 774L426 723Q371 673 328 618T256 498T211 358T195 193Q195 103 218 34T281 -100L222 -144V-144Z" />
<glyph unicode=")" glyph-name="parenright" horiz-adv-x="365" d="M150 772Q187 737 221 697T283 609T326 507T342 386Q342 288 311 207T231 60T118 -57T-10 -146L-54 -95Q1 -45 44 10T116 130T161 270T177 435Q177 525 154 594T91 728L150 772V772Z" />
<glyph unicode="*" glyph-name="asterisk" horiz-adv-x="446" d="M248 519L117 414L76 522L236 546L88 588L163 690L257 570L233 721H363L286 567L416 673L458 565L298 541L446 498L370 397L277 517L301 366H171L248 519Z" />
<glyph unicode="+" glyph-name="plus" horiz-adv-x="600" d="M60 374H251V578H359V374H550V275H359V71H251V275H60V374Z" />
<glyph unicode="," glyph-name="comma" horiz-adv-x="303" d="M-46 -122Q20 -91 57 -58T108 23Q96 18 81 18Q50 18 31 40T12 95Q12 139 43 165T119 191Q167 191 193 159T219 74Q219 41 206 4T163 -68T87 -130T-28 -174L-46 -122V-122Z" />
<glyph unicode="-" glyph-name="hyphen" horiz-adv-x="369" d="M51 361H342L318 229H27L51 361Z" />
<glyph unicode="." glyph-name="period" horiz-adv-x="303" d="M111 -14Q88 -14 70 -6T39 16T19 47T12 83Q12 131 42 161T119 192Q165 192 191 163T218 93Q218 70 210 51T188 17T154 -5T111 -14Z" />
<glyph unicode="/" glyph-name="slash" horiz-adv-x="392" d="M345 762H452L34 -125H-73L345 762Z" />
<glyph unicode="0" glyph-name="zero" horiz-adv-x="600" d="M268 -11Q212 -11 167 6T89 57T40 142T22 260Q22 344 48 412T119 529T219 604T335 630Q448 630 512 561T577 357Q577 300 560 235T505 116T409 25T268 -11ZM267 85Q294 85 316 116T355 197T380 306T389
425Q389 486 376 510T331 534Q304 534 282 503T243 424T217 315T208 198Q208 137 223 111T267 85Z" />
<glyph unicode="1" glyph-name="one" horiz-adv-x="600" d="M40 79L174 97L235 444L99 429L114 514L365 623H460L367 97L491 79L477 0H26L40 79Z" />
<glyph unicode="2" glyph-name="two" horiz-adv-x="600" d="M22 105L196 233Q239 264 267 292T312 345T336 395T343 443Q343 533 263 533Q235 533 213 525V419H105Q92 432 81 450T70 495Q70 522 85 546T130 588T205 618T313 629Q369 629 412 615T485 577T530 519T545
447Q545 406 530 371T483 304T403 239T287 173L204 130V126H510L477 0H3L22 105Z" />
<glyph unicode="3" glyph-name="three" horiz-adv-x="600" d="M221 -113Q173 -113 136 -106T71 -89T23 -67T-10 -44L5 42Q32 30 69 15T159 0Q228 0 265 32T303 122Q303 168 275 192T191 217H140L158 315H223Q257 315 281 325T319 352T339 391T346 438Q346 486
323 509T261 533Q247 533 235 531T212 524V430H108Q95 443 84 456T73 497Q73 524 88 548T132 590T204 618T303 629Q359 629 401 616T472 578T515 522T530 451Q530 370 484 325T358 265V261Q424 247 464 210T504 110Q504 57 485 16T428 -54T339 -98T221 -113Z" />
<glyph unicode="4" glyph-name="four" horiz-adv-x="600" d="M270 70H-21L-4 162L393 617H561L483 174H560L541 70H464L433 -106H239L270 70ZM289 174L332 422H328L118 177V174H289Z" />
<glyph unicode="5" glyph-name="five" horiz-adv-x="600" d="M219 -114Q170 -114 135 -108T73 -93T28 -73T-5 -51L10 34Q39 22 75 10T168 -2Q233 -2 268 31T303 126Q303 182 268 211T159 240Q143 240 122 238T75 230L160 617H556L521 474H236L202 323Q220 331
248 335T301 340Q349 340 387 325T452 284T493 220T507 137Q507 80 488 34T431 -45T341 -96T219 -114Z" />
<glyph unicode="6" glyph-name="six" horiz-adv-x="600" d="M274 -13Q205 -13 159 9T84 67T43 151T31 248Q31 328 47 393T86 507Q115 569 153 612T233 682T320 721T407 733Q444 733 473 729T525 717T566 698T600 673L584 583Q562 593 527 603T447 614Q418 614
388 606T330 575T279 512T240 406Q270 429 305 439T372 449Q420 449 454 434T511 392T545 331T556 256Q556 194 535 145T476 60T387 6T274 -13ZM272 84Q292 84 309 97T340 135T361 194T369 270Q369 313 352 333T295 353Q280 353 263 349T229 337Q221 307 215 266T208
186Q208 135 221 110T272 84Z" />
<glyph unicode="7" glyph-name="seven" horiz-adv-x="600" d="M454 476V481H197L162 407H58L105 617H594L575 509L268 -104H55L454 476Z" />
<glyph unicode="8" glyph-name="eight" horiz-adv-x="600" d="M290 -12Q219 -12 168 3T83 43T33 103T17 176Q17 250 62 291T187 353V357Q138 386 116 429T93 524Q93 569 111 607T163 672T241 715T341 731Q405 731 451 717T527 678T571 621T586 554Q586 519 574
494T541 450T491 420T427 398V393Q487 362 520 318T554 206Q554 152 534 111T478 43T394 2T290 -12ZM276 86Q321 86 348 111T376 185Q376 225 343 254T243 313Q206 293 185 261T164 187Q164 146 190 116T276 86ZM366 438Q398 456 417 482T437 551Q437 586 416 609T354
632Q319 632 294 609T269 546Q269 511 292 486T366 438Z" />
<glyph unicode="9" glyph-name="nine" horiz-adv-x="600" d="M198 -117Q158 -117 128 -113T74 -100T32 -80T-2 -57L14 33Q36 23 70 13T146 2Q177 2 208 9T268 39T320 103T358 210Q328 187 293 177T226 167Q178 167 144 182T87 223T53 285T42 360Q42 422 64 471T123
556T212 610T322 629Q387 629 433 608T509 549T553 464T567 362Q567 282 551 212T512 93Q485 36 450 -4T374 -69T288 -105T198 -117ZM303 263Q318 263 335 267T369 279Q377 309 383 350T390 430Q390 481 376 506T324 532Q304 532 287 519T257 481T237 422T229 346Q229
303 246 283T303 263Z" />
<glyph unicode=":" glyph-name="colon" horiz-adv-x="312" d="M168 289Q145 289 127 297T96 319T76 350T69 386Q69 434 99 464T176 495Q222 495 248 466T275 396Q275 373 267 354T245 320T211 298T168 289ZM116 -14Q93 -14 75 -6T44 16T24 47T17 83Q17 131 47
161T124 192Q170 192 196 163T223 93Q223 70 215 51T193 17T159 -5T116 -14Z" />
<glyph unicode=";" glyph-name="semicolon" horiz-adv-x="311" d="M168 289Q145 289 127 297T96 319T76 350T69 386Q69 434 99 464T176 495Q222 495 248 466T275 396Q275 373 267 354T245 320T211 298T168 289ZM-43 -122Q23 -91 60 -58T111 23Q99 18 84 18Q53
18 34 40T15 95Q15 139 46 165T122 191Q170 191 196 159T222 74Q222 41 209 4T166 -68T90 -130T-25 -174L-43 -122Z" />
<glyph unicode="&lt;" glyph-name="less" horiz-adv-x="600" d="M64 262V359L509 550V440L188 311L509 181V71L64 262Z" />
<glyph unicode="=" glyph-name="equal" horiz-adv-x="600" d="M55 436H541V337H55V436ZM55 230H541V131H55V230Z" />
<glyph unicode="&gt;" glyph-name="greater" horiz-adv-x="600" d="M97 181L418 310L97 440V550L542 359V262L97 71V181Z" />
<glyph unicode="?" glyph-name="question" horiz-adv-x="479" d="M240 633Q230 634 222 634T205 632L177 552H69L91 710Q127 720 172 726T257 733Q368 733 430 691T492 566Q492 524 481 495T450 442T400 401T334 362Q308 348 287 336T250 312T225 285T216 251Q216
246 216 243T217 233H128Q125 243 122 256T118 285Q118 330 140 362T210 428Q229 441 245 455T274 484T294 519T302 564Q302 596 285 613T240 633ZM152 -12Q110 -12 86 15T62 76Q62 117 89 145T159 173Q200 173 224 146T248 85Q248 44 221 16T152 -12Z" />
<glyph unicode="@" glyph-name="at" horiz-adv-x="949" d="M466 -161Q371 -161 294 -134T162 -55T77 69T47 234Q47 330 81 416T178 566T325 669T513 707Q598 707 669 682T792 609T873 493T902 338Q902 262 879 206T817 114T732 59T635 41Q579 41 550 61T510 113H505Q446
50 367 50Q313 50 281 90T249 196Q249 265 268 320T321 413T399 473T492 494Q534 494 560 484T605 460L630 485H719L646 182Q639 153 645 141T674 129Q693 129 718 139T765 174T803 238T818 336Q818 405 798 460T739 553T643 611T513 631Q428 631 358 600T239 516T162
391T135 238Q135 80 222 -2T472 -84Q540 -84 601 -73T698 -49V-117Q653 -137 594 -149T466 -161ZM443 155Q460 155 472 163T497 181L542 376Q537 389 529 399T501 410Q483 410 466 395T434 354T412 291T403 211Q403 183 412 169T443 155Z" />
<glyph unicode="A" glyph-name="A" horiz-adv-x="737" d="M409 211H206L153 99L218 81L204 0H-40L-26 81L32 99L352 721H537L631 99L686 81L672 0H337L351 81L422 99L409 211ZM246 293H400L388 401Q385 429 383 461T379 519Q377 550 377 580H372Q361 551 350 521Q340
495 327 465T301 408L246 293Z" />
<glyph unicode="B" glyph-name="B" horiz-adv-x="676" d="M-15 81L58 99L151 623L85 640L99 721H430Q540 721 598 680T656 561Q656 524 648 494T619 441T565 401T481 374V369Q561 361 599 323T638 225Q638 112 560 56T329 0H-29L-15 81ZM317 96Q373 96 404 129T436
235Q436 281 415 302T352 323H296L256 96H317ZM361 411Q409 411 436 443T464 547Q464 593 443 609T386 625H349L311 411H361Z" />
<glyph unicode="C" glyph-name="C" horiz-adv-x="673" d="M365 -12Q209 -12 123 61T36 290Q36 392 67 474T154 613T283 702T443 733Q524 733 579 719T670 688L655 501H538L525 599Q511 607 488 614T432 621Q384 621 348 596T287 523T250 406T237 248Q237 170 269
135T366 100Q389 100 409 106T445 120L492 218H610L566 25Q525 8 472 -2T365 -12Z" />
<glyph unicode="D" glyph-name="D" horiz-adv-x="734" d="M-16 81L56 99L149 623L84 640L98 721H409Q480 721 538 705T638 653T702 564T725 435Q725 337 698 257T619 120T495 32T329 0H-30L-16 81ZM327 104Q422 104 470 200T519 472Q519 515 511 543T486 587T445
610T388 616H350L259 104H327Z" />
<glyph unicode="E" glyph-name="E" horiz-adv-x="649" d="M-16 81L56 99L149 623L83 640L97 721H656L641 518H543L523 622H344L307 414H379L406 483H489L456 251H373L367 321H291L252 100H454L512 226H615L572 0H-30L-16 81Z" />
<glyph unicode="F" glyph-name="F" horiz-adv-x="640" d="M-15 81L57 99L150 623L84 640L98 721H666L650 510H547L526 617H350L311 397H385L413 466H496L458 229H375L370 300H294L258 98L334 81L320 0H-29L-15 81Z" />
<glyph unicode="G" glyph-name="G" horiz-adv-x="719" d="M356 -13Q269 -13 208 8T109 68T53 161T35 281Q35 392 69 476T160 618T293 704T453 733Q535 733 595 719T689 685L675 510H560L537 598Q522 609 501 615T443 622Q393 622 355 596T290 522T249 407T235
256Q235 178 268 138T373 97Q387 97 400 100T425 108L450 252L387 268L402 350H709L694 268L637 252L599 21Q578 13 547 7T483 -3T416 -10T356 -13Z" />
<glyph unicode="H" glyph-name="H" horiz-adv-x="784" d="M-15 81L57 99L150 623L84 640L98 721H428L414 640L352 624L316 417H513L549 624L492 640L506 721H835L821 640L750 623L657 99L723 81L709 0H379L393 81L456 97L496 321H299L259 97L315 81L301 0H-29L-15 81Z" />
<glyph unicode="I" glyph-name="I" horiz-adv-x="382" d="M-18 81L55 99L148 623L81 640L95 721H436L422 640L349 623L256 99L323 81L309 0H-32L-18 81Z" />
<glyph unicode="J" glyph-name="J" horiz-adv-x="538" d="M165 -8Q114 -8 79 3T21 32T-12 72T-22 116Q-22 139 -13 157T8 189H128V101Q133 99 138 99T150 99Q188 99 208 125T240 218L312 623L246 640L260 721H596L582 640L514 623L442 215Q423 106 355 49T165 -8Z" />
<glyph unicode="K" glyph-name="K" horiz-adv-x="743" d="M-17 81L55 99L148 623L82 640L96 721H425L411 640L349 624L303 367L563 624L505 640L519 721H787L773 640L710 621L500 421L637 98L691 81L677 0H465L345 293L284 255L256 97L312 81L298 0H-31L-17 81Z" />
<glyph unicode="L" glyph-name="L" horiz-adv-x="616" d="M-16 81L56 99L149 623L83 640L97 721H442L428 640L351 624L259 101H417L478 247H587L540 0H-30L-16 81Z" />
<glyph unicode="M" glyph-name="M" horiz-adv-x="943" d="M-15 81L57 99L150 623L84 640L98 721H409L429 512Q433 468 434 413T436 308Q436 250 435 191H439Q457 248 475 304Q491 352 510 405T550 502L647 721H994L980 640L905 623L812 99L881 81L867 0H549L563
81L620 98L665 353Q672 391 681 439T701 529Q712 578 724 628H719Q698 577 678 528Q661 486 641 439T604 354L453 27H313L276 347Q272 385 269 432T264 522Q261 571 260 623H255Q250 573 244 525Q239 483 233 437T219 352L174 98L226 81L212 0H-29L-15 81Z" />
<glyph unicode="N" glyph-name="N" horiz-adv-x="751" d="M-15 81L58 99L151 623L84 640L98 721H367L475 443Q488 409 499 373T519 307Q529 272 537 238H542L610 622L541 640L555 721H809L795 640L731 623L621 0H456L321 337Q307 370 297 405T278 471Q269 506
262 540H258L180 98L249 81L235 0H-29L-15 81Z" />
<glyph unicode="O" glyph-name="O" horiz-adv-x="730" d="M337 -11Q265 -11 209 10T115 70T56 165T35 290Q35 397 68 479T154 618T275 704T412 733Q484 733 541 712T637 652T697 558T718 433Q718 325 687 242T602 103T481 18T337 -11ZM343 96Q385 96 417 129T471
216T504 341T516 488Q516 559 489 592T409 626Q368 626 336 594T281 507T247 382T235 236Q235 164 261 130T343 96Z" />
<glyph unicode="P" glyph-name="P" horiz-adv-x="646" d="M-17 81L55 99L148 623L82 640L96 721H421Q485 721 531 707T608 666T653 605T668 527Q668 397 596 334T395 271Q357 271 333 274T290 283L257 98L335 81L321 0H-31L-17 81ZM306 372Q320 370 335 369T366
368Q421 368 445 409T470 528Q470 616 400 616H349L306 372Z" />
<glyph unicode="Q" glyph-name="Q" horiz-adv-x="730" d="M257 -5Q211 9 171 31T100 87T53 171T35 290Q35 397 68 479T154 618T275 704T412 733Q484 733 541 712T637 652T697 558T718 433Q718 346 698 281T640 169T549 94T430 52V46L696 17L664 -132L257 -5ZM343
96Q385 96 417 129T471 216T504 341T516 488Q516 559 489 592T409 626Q368 626 336 594T281 507T247 382T235 236Q235 164 261 130T343 96Z" />
<glyph unicode="R" glyph-name="R" horiz-adv-x="715" d="M-17 81L57 99L150 621L84 640L98 721H432Q497 721 545 707T624 668T671 607T686 530Q686 483 672 450T635 393T583 355T523 332V328L623 96L665 81L651 0H454L343 291H293L259 97L312 81L298 0H-31L-17
81ZM380 385Q441 385 465 427T490 536Q490 579 468 599T405 619H347L306 385H380Z" />
<glyph unicode="S" glyph-name="S" horiz-adv-x="573" d="M240 -12Q153 -12 93 2T-11 41L10 203H125L137 119Q152 109 173 100T228 91Q277 91 308 113T339 184Q339 214 321 237T251 287L213 307Q147 342 111 386T75 501Q75 557 95 600T153 672T241 717T353 733Q398
733 431 730T490 720T535 705T571 688L557 543H441L429 605Q417 613 399 622T347 632Q302 632 277 612T252 548Q252 522 269 501T332 456L369 436Q406 416 435 397T485 355T516 307T527 246Q527 122 453 55T240 -12Z" />
<glyph unicode="T" glyph-name="T" horiz-adv-x="673" d="M122 81L200 99L293 622H210L164 495H52L99 721H718L693 495H581L574 622H494L401 99L473 81L459 0H108L122 81Z" />
<glyph unicode="U" glyph-name="U" horiz-adv-x="724" d="M361 -13Q281 -13 226 3T137 48T87 116T71 201Q71 215 72 229T76 259L140 623L79 640L93 721H422L408 640L342 624L277 254Q274 238 273 225T272 199Q272 144 299 122T384 99Q406 99 427 104T467 124T499
165T521 235L589 624L528 640L542 721H781L767 640L704 623L633 221Q624 168 603 125T549 51T469 4T361 -13Z" />
<glyph unicode="V" glyph-name="V" horiz-adv-x="718" d="M124 623L74 640L88 721H414L400 640L330 623L355 408Q360 370 361 324T365 238Q366 191 367 144H372Q391 191 410 238Q427 278 445 322T480 402L581 623L517 640L531 721H781L767 640L709 623L404 0H219L124
623Z" />
<glyph unicode="W" glyph-name="W" horiz-adv-x="1012" d="M123 623L76 640L90 721H397L383 640L320 623L323 482Q325 410 323 330T317 168H322Q341 222 360 277Q377 324 397 376T435 474L536 721H686L705 495Q706 477 707 454T709 404T711 349T712 295Q713 233
714 167H719Q740 232 760 293Q769 319 778 346T795 400T812 449T827 491L876 623L814 640L828 721H1072L1058 640L1001 623L759 0H563L551 224Q547 293 548 362T553 501H548Q533 453 517 405Q503 363 486 317T453 232L355 0H156L123 623Z" />
<glyph unicode="X" glyph-name="X" horiz-adv-x="730" d="M-15 81L44 96L256 362L144 623L90 640L104 721H426L412 640L360 626L428 443H432L562 626L510 640L524 721H771L757 640L701 623L500 365L614 99L669 81L655 0H335L349 81L403 95L329 291H325L184 96L231
81L217 0H-29L-15 81Z" />
<glyph unicode="Y" glyph-name="Y" horiz-adv-x="683" d="M136 81L213 99L247 288L125 623L76 640L90 721H396L382 640L327 625L399 390H403L549 626L500 640L514 721H744L730 640L673 623L446 285L413 99L483 81L469 0H122L136 81Z" />
<glyph unicode="Z" glyph-name="Z" horiz-adv-x="607" d="M-12 102L413 616V621H243L188 507H78L121 721H656L638 618L214 105V100H402L461 230H573L526 0H-30L-12 102Z" />
<glyph unicode="[" glyph-name="bracketleft" horiz-adv-x="383" d="M136 762H424L410 681L292 663L170 -27L282 -44L268 -125H-20L136 762Z" />
<glyph unicode="\" glyph-name="backslash" horiz-adv-x="392" d="M104 762H202L317 -125H219L104 762Z" />
<glyph unicode="]" glyph-name="bracketright" horiz-adv-x="381" d="M-19 -44L99 -27L221 663L109 681L123 762H410L254 -125H-33L-19 -44Z" />
<glyph unicode="^" glyph-name="asciicircum" horiz-adv-x="473" d="M252 721H364L474 446H384L287 575L145 446H53L252 721Z" />
<glyph unicode="_" glyph-name="underscore" horiz-adv-x="355" d="M-63 -50H296L277 -161H-82L-63 -50Z" />
<glyph unicode="`" glyph-name="grave" horiz-adv-x="500" d="M166 692L235 824L456 679L423 614L166 692Z" />
<glyph unicode="a" glyph-name="a" horiz-adv-x="638" d="M512 100Q530 102 546 106T575 114Q589 118 602 122L579 34Q550 15 508 2T420 -11Q378 -11 356 11T331 75H326Q287 32 248 10T155 -12Q121 -12 95 1T50 36T23 89T14 155Q14 235 39 307T106 434T205 521T325
553Q362 553 387 545T429 519H435L450 555H598L609 550L512 100ZM253 113Q273 113 294 125T345 169L397 414Q388 432 376 444T337 456Q311 456 287 434T243 373T213 285T202 181Q202 149 215 131T253 113Z" />
<glyph unicode="b" glyph-name="b" horiz-adv-x="622" d="M252 -13Q202 -13 166 -8T102 8T54 33T16 64L135 673L75 689L89 768L315 793L330 784L274 473H279Q317 518 358 543T451 568Q517 568 557 522T597 376Q597 301 576 231T512 107T405 20T252 -13ZM267 82Q302
82 328 108T371 176T397 269T406 368Q406 406 391 422T352 438Q326 438 303 423T259 387L205 111Q211 99 226 91T267 82Z" />
<glyph unicode="c" glyph-name="c" horiz-adv-x="505" d="M233 -12Q136 -12 78 43T20 204Q20 281 45 347T115 462T224 539T365 567Q445 567 479 537T514 462Q514 435 501 411T474 374H373V475Q368 477 363 477T353 477Q321 477 295 455T251 395T223 312T213 216Q213
156 236 131T308 106Q340 106 373 114T446 142L423 48Q395 26 348 7T233 -12Z" />
<glyph unicode="d" glyph-name="d" horiz-adv-x="644" d="M528 101Q545 103 560 107T588 114Q602 118 614 122L591 34Q562 15 523 2T442 -11Q393 -11 370 12T344 73H338Q311 37 268 13T164 -12Q94 -12 55 33T16 162Q16 251 43 325T114 453T215 537T335 567Q372
567 390 562T425 547L446 672L382 689L396 768L634 793L649 784L528 101ZM259 112Q285 112 308 124T356 162L405 439Q394 453 383 461T354 469Q324 469 297 446T250 383T218 291T206 183Q206 112 259 112Z" />
<glyph unicode="e" glyph-name="e" horiz-adv-x="544" d="M243 -12Q132 -12 76 43T20 204Q20 281 45 347T115 462T222 539T360 567Q402 567 437 558T496 532T535 489T549 432Q549 382 524 346T453 287T345 250T209 231V216Q209 156 234 131T318 106Q350 106 388
114T466 142L443 48Q415 26 363 7T243 -12ZM341 476Q318 476 299 463T264 428T237 376T218 312Q299 320 339 345T379 424Q379 476 341 476Z" />
<glyph unicode="f" glyph-name="f" horiz-adv-x="385" d="M52 531L114 552Q128 618 155 663T220 737T304 778T400 791Q441 791 470 784T517 764T543 734T552 699Q552 681 543 663T523 633H420V705Q414 707 408 708T392 709Q374 709 361 701T336 675T316 628T299
555H406L389 460H282L209 41Q198 -22 174 -66T117 -139T43 -181T-43 -194Q-77 -194 -102 -187T-143 -166T-167 -138T-175 -105Q-175 -89 -169 -73T-149 -46H-70V-111Q-65 -112 -62 -112T-54 -112Q-38 -112 -24 -106T1 -83T22 -37T38 39L99 460H39L52 531Z" />
<glyph unicode="g" glyph-name="g" horiz-adv-x="567" d="M232 -221Q86 -221 17 -184T-53 -89Q-53 -63 -38 -42T2 -5T57 22T116 41Q72 69 72 113Q72 148 94 178T151 234Q108 252 82 284T56 366Q56 412 75 449T126 512T203 552T299 567Q330 567 361 560T416 540L608
572L589 464L484 473V469Q498 453 505 433T513 392Q513 352 497 319T450 261T374 223T270 209Q243 209 219 212Q213 204 210 198T206 184Q206 170 227 161T271 145L350 123Q425 103 467 65T509 -34Q509 -73 494 -107T444 -166T358 -206T232 -221ZM172 12Q160 6
148 -2T127 -21T111 -44T104 -72Q104 -134 226 -134Q286 -134 315 -117T344 -75Q344 -52 322 -39T264 -15L172 12ZM270 283Q289 283 303 294T328 326T344 373T350 431Q350 467 337 478T304 490Q285 490 270 479T245 449T229 403T223 345Q223 310 235 297T270 283Z"
/>
<glyph unicode="h" glyph-name="h" horiz-adv-x="656" d="M437 -11Q402 -11 378 8T353 73Q353 92 357 111L411 368Q416 394 410 409T380 425Q349 425 325 409T278 370L199 0H18L161 672L96 689L110 768L346 793L361 784L298 471H304Q342 513 388 540T494 567Q548
567 576 538T605 452Q605 426 599 396L536 100Q553 102 569 106T599 114Q614 118 626 122L603 34Q574 15 530 2T437 -11Z" />
<glyph unicode="i" glyph-name="i" horiz-adv-x="355" d="M232 100Q250 102 267 106T297 114Q312 118 325 122L302 34Q273 15 228 2T133 -11Q98 -11 73 8T48 72Q48 88 53 111L125 436Q107 433 90 429T60 422Q44 418 31 414L50 502Q65 514 87 526T135 547T187 561T236
567Q250 567 263 564T288 552T305 530T312 494Q312 486 311 478T308 461L232 100ZM237 617Q197 617 170 640T143 702Q143 747 172 771T242 796Q283 796 309 773T336 711Q336 666 307 642T237 617Z" />
<glyph unicode="j" glyph-name="j" horiz-adv-x="334" d="M-40 -216Q-74 -216 -100 -208T-143 -185T-170 -153T-179 -117Q-179 -101 -172 -86T-151 -61H-57V-134H-51Q-35 -134 -23 -130T0 -112T17 -76T33 -15L124 436Q107 433 90 429T60 422Q44 418 31 414L50
502Q65 514 87 526T135 547T187 561T236 567Q250 567 263 564T288 553T305 530T312 495Q312 478 308 461L217 19Q203 -50 178 -95T120 -167T46 -205T-40 -216ZM237 617Q197 617 170 640T143 702Q143 747 172 771T242 796Q283 796 309 773T336 711Q336 666 307 642T237
617Z" />
<glyph unicode="k" glyph-name="k" horiz-adv-x="640" d="M155 672L90 689L104 768L340 793L355 784L260 311L289 313Q312 314 329 323T361 352T390 401T421 475Q441 528 475 547T550 567Q564 567 578 563T603 552T623 538T633 525L619 436H540Q519 400 492 369T433
315L515 100Q532 102 546 106T572 114L596 122L573 34Q545 15 518 2T452 -11Q416 -11 392 6T351 56T321 132T295 232H245L199 0H18L155 672Z" />
<glyph unicode="l" glyph-name="l" horiz-adv-x="345" d="M218 100Q237 102 254 106T286 115Q302 119 316 124L293 36Q263 16 219 3T121 -11Q86 -11 62 8T37 73Q37 92 41 111L155 673L88 690L101 768L340 793L354 785L218 100Z" />
<glyph unicode="m" glyph-name="m" horiz-adv-x="958" d="M739 -11Q704 -11 680 8T655 73Q655 92 659 111L713 368Q718 394 712 409T682 425Q656 425 634 409T593 374L513 0H333L410 368Q415 394 409 409T379 425Q353 425 333 409T289 370L211 0H29L122 435Q104
432 88 428T58 421Q43 417 30 414L49 502Q64 514 85 526T131 547T180 561T228 567Q244 567 259 563T286 549T302 520T305 475L304 467H310Q331 489 350 507T392 539T438 560T493 567Q542 567 570 543T603 472H609Q650 513 693 540T796 567Q850 567 878 538T907
452Q907 426 901 396L838 100Q855 102 871 106T901 114Q916 118 928 122L905 34Q876 15 832 2T739 -11Z" />
<glyph unicode="n" glyph-name="n" horiz-adv-x="667" d="M547 100Q564 102 580 106T610 114Q625 118 637 122L614 34Q585 15 541 2T448 -11Q413 -11 389 8T364 73Q364 92 368 111L422 368Q427 394 421 409T391 425Q360 425 336 409T289 370L211 0H29L122 435Q104
432 88 428T58 421Q43 417 30 414L49 502Q64 514 85 526T131 547T180 561T228 567Q244 567 259 563T286 549T302 520T305 475L304 467H310Q352 511 398 539T505 567Q559 567 587 538T616 452Q616 426 610 396L547 100Z" />
<glyph unicode="o" glyph-name="o" horiz-adv-x="606" d="M267 -13Q209 -13 163 5T85 54T35 129T18 224Q18 299 42 362T110 471T214 542T346 568Q401 568 446 549T523 497T572 421T590 330Q590 256 568 193T505 85T403 13T267 -13ZM277 83Q302 83 324 101T363
156T390 244T400 364Q400 410 384 440T329 471Q304 471 282 452T243 397T216 309T206 190Q206 142 223 113T277 83Z" />
<glyph unicode="p" glyph-name="p" horiz-adv-x="666" d="M-40 -143L20 -129L125 437Q107 434 90 430T59 423Q43 419 30 415L49 502Q64 514 86 526T133 547T184 561T233 567Q249 567 264 563T291 549T307 520T310 475L309 467H315Q330 486 348 504T389 537T435
559T486 568Q518 568 546 557T594 520T626 455T638 359Q638 290 619 223T560 104T459 19T314 -13Q284 -13 262 -8T229 3L207 -130L272 -143L259 -217H-53L-40 -143ZM314 82Q349 82 374 107T416 172T439 258T447 348Q447 398 432 418T391 438Q363 438 341 423T297
387L248 113Q258 99 274 91T314 82Z" />
<glyph unicode="q" glyph-name="q" horiz-adv-x="607" d="M220 -143L292 -127L331 60H325Q313 47 297 35T261 12T216 -5T161 -12Q91 -12 52 31T13 150Q13 240 40 316T115 448T230 535T376 567Q416 567 448 563T506 551T557 529T605 499L472 -129L525 -143L509
-217H204L220 -143ZM256 112Q282 112 305 124T351 160L411 439Q402 453 388 461T355 469Q325 469 298 446T249 383T216 291T203 183Q203 112 256 112Z" />
<glyph unicode="r" glyph-name="r" horiz-adv-x="524" d="M374 370V433Q349 419 328 401T287 360L211 0H29L122 435Q104 432 88 428T58 421Q43 417 30 414L49 502Q64 514 85 526T131 547T180 561T228 567Q244 567 258 563T283 549T299 521T301 477L299 462H305Q344
521 384 544T460 568Q496 568 518 545T540 489Q540 455 525 423T492 370H374Z" />
<glyph unicode="s" glyph-name="s" horiz-adv-x="476" d="M184 -14Q131 -14 92 -4T28 23T-10 62T-23 108Q-23 127 -15 142T5 169H122V90Q135 84 150 80T182 76Q220 76 244 91T268 136Q268 149 263 158T249 175T227 190T195 205L161 221Q108 246 82 283T55 378Q55
420 70 454T116 514T189 553T287 567Q381 567 425 536T469 459Q469 445 462 427T443 396H328V470Q319 475 309 477T287 480Q251 480 231 466T211 422Q211 403 225 388T276 356L310 340Q367 313 400 276T434 181Q434 141 419 106T372 44T293 2T184 -14Z" />
<glyph unicode="t" glyph-name="t" horiz-adv-x="402" d="M216 98Q242 101 267 107T312 119Q335 126 356 133L333 45Q303 25 257 7T144 -12Q96 -12 68 11T40 86Q40 96 41 107T45 130L114 460H48L64 531L134 555L162 685H340L312 555H425L405 460H292L216 98Z" />
<glyph unicode="u" glyph-name="u" horiz-adv-x="659" d="M536 100Q553 102 569 106T599 114Q614 118 626 122L603 34Q574 15 531 2T443 -11Q397 -11 375 14T357 78L358 88H352Q311 43 267 16T162 -12Q108 -12 80 17T51 103Q51 129 57 159L116 435Q98 432 82 428T52
421Q37 417 24 414L43 502Q58 514 78 526T122 547T170 561T217 567Q255 567 280 551T305 489Q305 480 304 470T300 447L245 187Q240 161 246 146T276 130Q307 130 328 146T373 185L451 555H633L536 100Z" />
<glyph unicode="v" glyph-name="v" horiz-adv-x="583" d="M156 0Q149 110 139 224T111 435Q94 432 78 428T50 421Q36 417 23 414L42 502Q68 525 106 546T188 567Q231 567 253 543T283 467Q290 424 293 375T297 262Q297 232 296 193T288 89H293Q316 126 340 170T384
249Q406 290 422 338T447 433H390L408 535Q423 549 446 558T493 568Q509 568 525 564T554 550T576 523T585 480Q585 436 565 380T507 260T417 130T302 0H156Z" />
<glyph unicode="w" glyph-name="w" horiz-adv-x="852" d="M128 0Q127 120 123 226T107 435Q90 432 75 428T48 421Q35 417 23 414L42 502Q68 525 104 546T183 567Q226 567 246 544T275 470Q280 441 282 398T284 298Q284 278 284 254T282 203T279 151T274 103H279Q291
147 307 198T339 291Q349 320 359 349T379 410T399 477T422 555H573Q585 492 591 411T598 242Q598 217 598 177T592 99H597Q612 134 631 175T664 254Q687 314 700 356T721 433H664L682 535Q697 549 718 558T763 568Q779 568 795 564T824 550T846 523T855 480Q855
441 834 384T778 261T701 128T617 0H457Q459 66 459 123T460 232Q460 273 460 315T463 415H458Q447 369 433 317T401 222Q379 167 353 114T290 0H128Z" />
<glyph unicode="x" glyph-name="x" horiz-adv-x="579" d="M489 440Q463 408 435 368T383 278L458 101Q475 103 491 107T519 114Q533 118 546 122L523 34Q494 15 466 2T392 -11Q369 -11 352 -5T320 14T294 51T270 108L237 196H235L193 119Q172 78 155 53T122 15T87
-4T48 -9Q31 -9 10 1T-24 26L2 126H84Q113 159 143 199T197 286L133 436Q115 433 98 429T67 422Q51 418 38 414L57 502Q88 528 125 547T196 567Q215 567 230 564T259 550T284 520T305 468L340 369H343L374 426Q397 472 416 500T452 543T487 563T525 568Q546 568
563 560T595 540L573 440H489V440Z" />
<glyph unicode="y" glyph-name="y" horiz-adv-x="583" d="M55 -217Q16 -217 -12 -206T-54 -183L-31 -92Q-15 -97 0 -101T38 -105Q79 -105 111 -97T176 -68Q173 -13 167 52T153 185T136 316T118 435Q101 432 85 428T57 421Q43 417 30 414L49 502Q75 525 113 546T195
567Q238 567 259 543T289 467Q296 424 300 370T305 252Q305 240 305 218T303 170T300 117T295 66H300Q320 106 347 153T393 241Q442 350 453 433H395L413 535Q428 549 451 558T498 568Q514 568 530 564T559 551T581 525T590 485Q590 409 542 309T411 81Q362 6 318
-50T231 -143T145 -198T55 -217Z" />
<glyph unicode="z" glyph-name="z" horiz-adv-x="538" d="M-18 61L339 405L159 410Q152 396 148 385T140 363Q136 352 135 342H67Q60 376 60 409Q60 479 91 522T178 565Q214 565 246 557T308 536T368 512T428 492L493 555H559V494L201 148L391 143Q405 174 411
197Q415 210 417 222H485Q491 187 491 156Q491 120 483 90T460 37T424 2T374 -11Q337 -11 304 -2T238 19T175 43T113 63L48 0H-18V61Z" />
<glyph unicode="{" glyph-name="braceleft" horiz-adv-x="422" d="M304 -125Q237 -118 191 -107T115 -78T73 -37T60 16Q60 44 71 73T97 131T123 184T135 230Q135 240 131 248T116 264T85 279T36 293L52 382Q87 385 110 390T147 404T167 423T176 447Q178 460 176
481T170 527T164 576T165 620Q171 654 189 679T242 723T330 750T460 762L446 682Q418 679 400 673T369 659T351 638T342 611Q340 598 338 576T335 530T331 484T327 448Q319 400 283 372T162 331V326Q229 306 257 280T285 218Q285 200 278 172T262 115T246 59T238
17Q238 -6 254 -20T318 -45L304 -125V-125Z" />
<glyph unicode="|" glyph-name="bar" horiz-adv-x="240" d="M75 762H173V-125H75V762Z" />
<glyph unicode="}" glyph-name="braceright" horiz-adv-x="422" d="M126 762Q193 755 239 744T315 715T357 674T370 621Q370 592 359 563T333 506T307 453T295 407Q295 396 299 388T314 373T345 358T394 344L378 255Q343 252 320 246T283 232T263 214T254 190Q252
177 254 156T260 110T266 61T265 17Q259 -17 241 -42T188 -86T100 -114T-30 -125L-16 -45Q39 -39 61 -22T88 26Q90 39 92 61T95 107T99 153T103 189Q107 213 117 231T147 264T196 289T268 306V311Q201 331 173 357T145 419Q145 437 152 465T168 522T184 578T192
620Q192 643 176 657T112 682L126 762V762Z" />
<glyph unicode="~" glyph-name="asciitilde" horiz-adv-x="483" d="M16 264Q48 332 87 371T177 411Q200 411 222 405T266 390T305 375T338 368Q358 368 374 381T407 418L477 375Q445 306 405 267T315 228Q292 228 270 235T227 250T188 265T156 272Q135 272 119
258T85 221L16 264Z" />
<glyph unicode="&#xa0;" glyph-name="uni00A0" horiz-adv-x="201" />
<glyph unicode="&#xa1;" glyph-name="exclamdown" horiz-adv-x="279" d="M163 -124H-32L103 363H212L163 -124ZM182 609Q224 609 248 582T272 521Q272 480 245 452T175 424Q134 424 110 451T86 512Q86 553 113 581T182 609Z" />
<glyph unicode="&#xa2;" glyph-name="cent" horiz-adv-x="600" d="M211 -6Q134 10 88 66T41 216Q41 287 66 349T136 459T244 534T384 566L409 654H497L469 561Q526 550 556 524T587 462Q587 435 574 411T547 374H463V465L442 471L330 96H345Q382 96 427 108T515
140L490 48Q460 26 413 9T298 -11L255 -155H167L211 -6ZM217 225Q217 185 226 159T256 117L360 473Q328 465 302 443T256 387T227 313T217 225Z" />
<glyph unicode="&#xa3;" glyph-name="sterling" horiz-adv-x="600" d="M78 367H131L137 435Q142 498 166 544T228 621T316 666T422 681Q505 681 551 654T598 572Q598 548 589 530T568 499H450V583Q445 584 440 584T428 585Q377 585 351 547T312 421L304 367H470L455
283H291L289 268Q284 239 275 217T252 179T220 150T180 127V124H527L493 0H14L30 92Q65 108 90 139T120 231L124 283H63L78 367Z" />
<glyph unicode="&#xa5;" glyph-name="yen" horiz-adv-x="600" d="M377 160L366 96L435 79L421 0H87L101 79L176 96L187 160H28L40 227H199L210 290H51L63 357H194L111 576L65 593L78 670H375L362 593L312 581L361 391H364L477 581L432 593L445 670H655L642 593L588
576L436 357H571L559 290H400L389 227H548L536 160H377Z" />
<glyph unicode="&#xa6;" glyph-name="brokenbar" horiz-adv-x="240" d="M75 290H173V-125H75V290ZM75 762H173V386H75V762Z" />
<glyph unicode="&#xa7;" glyph-name="section" horiz-adv-x="561" d="M213 -137Q141 -137 94 -123T14 -92L25 32H136L145 -29Q155 -35 170 -41T213 -48Q291 -48 291 17Q291 42 277 59T229 91L142 128Q81 154 53 190T24 274Q24 337 61 373T171 424Q118 473 118
543Q118 590 136 625T186 685T262 721T358 734Q426 734 470 722T544 692L534 570H424L415 629Q407 634 394 640T353 647Q318 647 297 630T275 578Q275 556 286 539T333 507L417 473Q480 447 508 410T537 320Q537 257 499 222T396 173Q423 148 436 118T450 54Q450
-33 392 -85T213 -137ZM323 343Q297 354 277 364Q260 372 245 378T229 386Q207 378 193 362T179 323Q179 300 197 284T249 252Q272 242 290 234Q306 227 319 221T334 215Q354 224 367 239T380 278Q380 299 367 314T323 343Z" />
<glyph unicode="&#xa8;" glyph-name="dieresis" horiz-adv-x="500" d="M209 624Q174 624 151 647T127 704Q127 722 134 737T153 764T180 782T214 788Q249 788 272 765T295 709Q295 671 270 648T209 624ZM432 624Q397 624 374 647T350 704Q350 722 357 737T376
764T403 782T437 788Q472 788 495 765T518 709Q518 671 493 648T432 624Z" />
<glyph unicode="&#xa9;" glyph-name="copyright" horiz-adv-x="815" d="M418 -15Q340 -15 274 14T158 94T81 213T53 358Q53 435 81 502T158 620T273 699T418 728Q495 728 562 699T678 620T756 503T784 358Q784 281 756 213T679 95T562 15T418 -15ZM418 48Q483
48 536 72T628 139T688 237T710 358Q710 421 689 477T629 575T537 641T418 665Q352 665 298 641T206 575T146 477T125 358Q125 294 146 238T205 139T298 73T418 48ZM422 164Q381 164 347 175T288 210T248 271T234 359Q234 413 250 450T293 511T357 545T432 556Q469
556 501 552T552 540L556 437H480L464 486Q456 490 450 492T429 494Q389 494 378 462T367 369Q367 328 370 302T380 259T399 236T432 229Q446 229 454 231T468 236L486 289H560L554 186Q534 178 502 171T422 164Z" />
<glyph unicode="&#xaa;" glyph-name="ordfeminine" horiz-adv-x="575" d="M549 269Q523 252 485 241T407 229Q372 229 351 248T328 302H324Q289 267 253 247T171 227Q114 227 83 266T51 372Q51 444 72 508T129 619T214 693T318 721Q384 721 414 691H419L432 722H566L575
718L492 330Q507 332 520 335T545 342Q557 346 569 349L549 269ZM386 599Q378 615 365 624T328 633Q307 633 288 614T253 562T229 486T220 395Q220 338 257 338Q277 338 296 347T341 384L386 599Z" />
<glyph unicode="&#xab;" glyph-name="guillemotleft" horiz-adv-x="549" d="M253 237L262 286L433 502H556L403 250L463 23H347L253 237ZM21 247L30 296L201 502H324L171 260L231 23H115L21 247Z" />
<glyph unicode="&#xae;" glyph-name="registered" horiz-adv-x="627" d="M342 179Q283 179 232 201T144 260T85 349T63 457Q63 515 84 566T143 654T232 713T342 735Q401 735 452 714T541 655T600 566T622 457Q622 400 601 349T541 261T452 201T342 179ZM342 234Q390
234 429 250T498 296T543 366T559 457Q559 506 543 547T498 617T430 663T342 680Q294 680 254 664T186 618T142 547T126 457Q126 407 141 366T185 296T254 251T342 234ZM214 378L235 385V541L214 547V586H358Q412 586 438 564T465 510Q465 486 455 475T426 457V454L468
382L483 378V339H396L347 433H329V383L345 378V339H214V378ZM348 475Q375 475 375 505Q375 519 368 529T347 540H329V475H348Z" />
<glyph unicode="&#xaf;" glyph-name="macron" horiz-adv-x="500" d="M164 747H496L480 654H148L164 747Z" />
<glyph unicode="&#xb0;" glyph-name="degree" horiz-adv-x="444" d="M269 384Q231 384 198 398T141 436T102 491T88 558Q88 593 102 624T140 679T198 716T269 730Q307 730 340 717T397 680T434 625T448 558Q448 523 435 492T397 436T340 398T269 384ZM268 457Q311
457 334 487T357 558Q357 599 334 628T268 657Q225 657 202 628T179 558Q179 517 202 487T268 457Z" />
<glyph unicode="&#xb1;" glyph-name="plusminus" horiz-adv-x="600" d="M55 434H246V608H354V434H545V335H354V161H246V335H55V434ZM55 99H545V0H55V99Z" />
<glyph unicode="&#xb4;" glyph-name="acute" horiz-adv-x="500" d="M184 680L431 824L480 692L207 614L184 680Z" />
<glyph unicode="&#xb6;" glyph-name="paragraph" horiz-adv-x="625" d="M267 331Q264 330 258 330T241 329Q208 329 177 339T122 371T84 424T70 499Q70 609 137 665T332 721H683L669 640L600 623L468 -125H383L519 648H408L272 -125H187L267 331Z" />
<glyph unicode="&#xb7;" glyph-name="periodcentered" horiz-adv-x="303" d="M156 245Q133 245 115 253T84 275T64 306T57 342Q57 390 87 420T164 451Q210 451 236 422T263 352Q263 329 255 310T233 276T199 254T156 245Z" />
<glyph unicode="&#xb8;" glyph-name="cedilla" horiz-adv-x="500" d="M89 -185Q159 -182 186 -174T213 -143Q213 -131 200 -123T142 -109L166 0H241L227 -59Q287 -66 312 -84T338 -134Q338 -159 326 -179T283 -212T203 -233T79 -241L89 -185Z" />
<glyph unicode="&#xba;" glyph-name="ordmasculine" horiz-adv-x="549" d="M276 227Q225 227 185 243T116 287T72 354T57 438Q57 504 79 558T140 650T231 710T343 731Q391 731 430 714T498 667T541 600T557 519Q557 454 538 401T481 309T392 249T276 227ZM284
315Q304 315 322 330T355 374T378 448T387 552Q387 594 375 618T328 643Q307 643 289 628T256 582T234 507T225 404Q225 362 238 339T284 315Z" />
<glyph unicode="&#xbb;" glyph-name="guillemotright" horiz-adv-x="549" d="M285 288L276 239L105 23H-18L135 275L75 502H191L285 288ZM517 278L508 229L337 23H214L367 265L307 502H423L517 278Z" />
<glyph unicode="&#xbc;" glyph-name="onequarter" horiz-adv-x="952" d="M37 326L116 339L161 594L75 589L85 647L259 725H332L264 339L339 326L329 267H27L37 326ZM784 721H888L225 -71H121L784 721ZM663 1H456L468 66L746 347H858L811 76H875L861 1H797L778
-108H644L663 1ZM677 76L703 216H700L567 79V76H677Z" />
<glyph unicode="&#xbd;" glyph-name="onehalf" horiz-adv-x="992" d="M37 326L116 339L161 594L75 589L85 647L259 725H332L264 339L339 326L329 267H27L37 326ZM778 721H882L219 -71H115L778 721ZM555 -25L675 68Q700 87 721 104T756 139T779 176T787 218Q787
274 731 274Q722 274 713 273T696 270V193H609Q600 201 592 213T584 245Q584 267 597 286T633 321T690 344T764 353Q852 353 896 317T940 221Q940 188 925 162T885 114T824 70T749 28L683 -7V-10H905L880 -108H540L555 -25Z" />
<glyph unicode="&#xbe;" glyph-name="threequarters" horiz-adv-x="971" d="M197 260Q162 260 136 264T90 275T58 290T35 305L46 367Q63 360 91 351T157 342Q197 342 221 358T245 410Q245 437 229 448T181 460H133L145 528H179Q225 528 250 550T276 606Q276 655
222 655Q209 655 198 652T179 644V581H103Q94 589 86 599T78 628Q78 650 91 668T127 700T180 720T245 728Q329 728 371 697T413 613Q413 591 403 573T377 542T339 518T294 502V499Q342 491 370 468T398 401Q398 339 345 300T197 260ZM796 721H900L237 -71H133L796
721ZM682 1H475L487 66L765 347H877L830 76H894L880 1H816L797 -108H663L682 1ZM696 76L722 216H719L586 79V76H696Z" />
<glyph unicode="&#xbf;" glyph-name="questiondown" horiz-adv-x="479" d="M240 -38Q250 -39 258 -39T275 -37L303 43H411L389 -115Q353 -125 308 -131T223 -138Q112 -138 50 -96T-12 29Q-12 71 -1 100T30 153T80 194T146 233Q172 247 193 259T230 283T255 310T264
344Q264 349 264 352T263 362H352Q355 352 358 339T362 310Q362 265 340 233T270 167Q251 154 235 140T206 111T186 76T178 31Q178 -1 195 -18T240 -38ZM328 607Q370 607 394 580T418 519Q418 478 391 450T321 422Q280 422 256 449T232 510Q232 551 259 579T328
607Z" />
<glyph unicode="&#xc0;" glyph-name="Agrave" horiz-adv-x="737" d="M409 211H206L153 99L218 81L204 0H-40L-26 81L32 99L352 721H537L631 99L686 81L672 0H337L351 81L422 99L409 211ZM246 293H400L388 401Q385 429 383 461T379 519Q377 550 377 580H372Q361
551 350 521Q340 495 327 465T301 408L246 293ZM300 830L362 965L590 832L560 765L300 830Z" />
<glyph unicode="&#xc1;" glyph-name="Aacute" horiz-adv-x="737" d="M409 211H206L153 99L218 81L204 0H-40L-26 81L32 99L352 721H537L631 99L686 81L672 0H337L351 81L422 99L409 211ZM246 293H400L388 401Q385 429 383 461T379 519Q377 550 377 580H372Q361
551 350 521Q340 495 327 465T301 408L246 293ZM325 832L578 967L622 833L346 765L325 832Z" />
<glyph unicode="&#xc2;" glyph-name="Acircumflex" horiz-adv-x="737" d="M409 211H206L153 99L218 81L204 0H-40L-26 81L32 99L352 721H537L631 99L686 81L672 0H337L351 81L422 99L409 211ZM246 293H400L388 401Q385 429 383 461T379 519Q377 550 377 580H372Q361
551 350 521Q340 495 327 465T301 408L246 293ZM260 810L424 951H508L630 810L594 769L455 831L286 769L260 810Z" />
<glyph unicode="&#xc3;" glyph-name="Atilde" horiz-adv-x="737" d="M409 211H206L153 99L218 81L204 0H-40L-26 81L32 99L352 721H537L631 99L686 81L672 0H337L351 81L422 99L409 211ZM246 293H400L388 401Q385 429 383 461T379 519Q377 550 377 580H372Q361
551 350 521Q340 495 327 465T301 408L246 293ZM250 814Q277 866 309 900T383 935Q400 935 422 930T467 919T509 907T540 902Q557 902 571 914T597 943L655 905Q628 853 597 819T523 784Q506 784 484 789T439 800T397 812T365 817Q348 817 335 806T308 776L250
814Z" />
<glyph unicode="&#xc4;" glyph-name="Adieresis" horiz-adv-x="737" d="M330 776Q295 776 272 799T248 856Q248 874 255 889T274 916T301 934T335 940Q370 940 393 917T416 861Q416 823 391 800T330 776ZM569 776Q534 776 511 799T487 856Q487 874 494 889T513
916T540 934T574 940Q609 940 632 917T655 861Q655 823 630 800T569 776ZM409 211H206L153 99L218 81L204 0H-40L-26 81L32 99L352 721H537L631 99L686 81L672 0H337L351 81L422 99L409 211ZM246 293H400L388 401Q385 429 383 461T379 519Q377 550 377 580H372Q361
551 350 521Q340 495 327 465T301 408L246 293Z" />
<glyph unicode="&#xc5;" glyph-name="Aring" horiz-adv-x="737" d="M409 211H206L153 99L218 81L204 0H-40L-26 81L32 99L352 721H537L631 99L686 81L672 0H337L351 81L422 99L409 211ZM246 293H400L388 401Q385 429 383 461T379 519Q377 550 377 580H372Q361
551 350 521Q340 495 327 465T301 408L246 293ZM457 759Q430 759 408 768T369 793T343 829T334 873Q334 899 344 921T371 960T412 986T463 996Q490 996 512 987T551 962T576 926T585 883Q585 856 575 834T548 795T508 769T457 759ZM458 811Q487 811 505 830T523
881Q523 908 507 926T462 944Q433 944 415 926T396 875Q396 847 412 829T458 811Z" />
<glyph unicode="&#xc6;" glyph-name="AE" horiz-adv-x="1005" d="M996 518H898L878 622H704L667 414H734L761 483H844L811 251H728L722 321H651L612 100H809L867 226H970L927 0H333L347 81L420 99L439 207H234L156 100L225 81L211 0H-40L-26 81L37 99L434 632L367
640L381 721H1011L996 518ZM531 643Q511 605 478 550T404 438L300 296H454L475 411Q482 448 492 488T512 564Q523 604 535 643H531Z" />
<glyph unicode="&#xc7;" glyph-name="Ccedilla" horiz-adv-x="673" d="M164 -185Q234 -182 261 -174T288 -143Q288 -131 275 -123T217 -109L241 2Q142 27 89 98T36 290Q36 392 67 474T154 613T283 702T443 733Q524 733 579 719T670 688L655 501H538L525 599Q511
607 488 614T432 621Q384 621 348 596T287 523T250 406T237 248Q237 170 269 135T366 100Q389 100 409 106T445 120L492 218H610L566 25Q525 8 472 -2T365 -12Q351 -12 339 -12T313 -10L302 -59Q362 -66 387 -84T413 -134Q413 -159 401 -179T358 -212T278 -233T154
-241L164 -185Z" />
<glyph unicode="&#xc8;" glyph-name="Egrave" horiz-adv-x="649" d="M-16 81L56 99L149 623L83 640L97 721H656L641 518H543L523 622H344L307 414H379L406 483H489L456 251H373L367 321H291L252 100H454L512 226H615L572 0H-30L-16 81ZM258 830L320 965L548 832L518
765L258 830Z" />
<glyph unicode="&#xc9;" glyph-name="Eacute" horiz-adv-x="649" d="M-16 81L56 99L149 623L83 640L97 721H656L641 518H543L523 622H344L307 414H379L406 483H489L456 251H373L367 321H291L252 100H454L512 226H615L572 0H-30L-16 81ZM283 832L536 967L580 833L304
765L283 832Z" />
<glyph unicode="&#xca;" glyph-name="Ecircumflex" horiz-adv-x="649" d="M-16 81L56 99L149 623L83 640L97 721H656L641 518H543L523 622H344L307 414H379L406 483H489L456 251H373L367 321H291L252 100H454L512 226H615L572 0H-30L-16 81ZM218 810L382 951H466L588
810L552 769L413 831L244 769L218 810Z" />
<glyph unicode="&#xcb;" glyph-name="Edieresis" horiz-adv-x="649" d="M-16 81L56 99L149 623L83 640L97 721H656L641 518H543L523 622H344L307 414H379L406 483H489L456 251H373L367 321H291L252 100H454L512 226H615L572 0H-30L-16 81ZM293 776Q258 776 235
799T211 856Q211 874 218 889T237 916T264 934T298 940Q333 940 356 917T379 861Q379 823 354 800T293 776ZM532 776Q497 776 474 799T450 856Q450 874 457 889T476 916T503 934T537 940Q572 940 595 917T618 861Q618 823 593 800T532 776Z" />
<glyph unicode="&#xcc;" glyph-name="Igrave" horiz-adv-x="382" d="M-18 81L55 99L148 623L81 640L95 721H436L422 640L349 623L256 99L323 81L309 0H-32L-18 81ZM384 830L446 965L674 832L644 765L384 830Z" />
<glyph unicode="&#xcd;" glyph-name="Iacute" horiz-adv-x="382" d="M-18 81L55 99L148 623L81 640L95 721H436L422 640L349 623L256 99L323 81L309 0H-32L-18 81ZM153 832L406 967L450 833L174 765L153 832Z" />
<glyph unicode="&#xce;" glyph-name="Icircumflex" horiz-adv-x="382" d="M-18 81L55 99L148 623L81 640L95 721H436L422 640L349 623L256 99L323 81L309 0H-32L-18 81ZM88 810L252 951H336L458 810L422 769L283 831L114 769L88 810Z" />
<glyph unicode="&#xcf;" glyph-name="Idieresis" horiz-adv-x="382" d="M-18 81L55 99L148 623L81 640L95 721H436L422 640L349 623L256 99L323 81L309 0H-32L-18 81ZM163 776Q128 776 105 799T81 856Q81 874 88 889T107 916T134 934T168 940Q203 940 226 917T249
861Q249 823 224 800T163 776ZM402 776Q367 776 344 799T320 856Q320 874 327 889T346 916T373 934T407 940Q442 940 465 917T488 861Q488 823 463 800T402 776Z" />
<glyph unicode="&#xd0;" glyph-name="Eth" horiz-adv-x="734" d="M-16 81L56 99L94 317H34L52 420H113L149 623L84 640L98 721H409Q480 721 538 705T638 653T702 564T725 435Q725 337 698 257T619 120T495 32T329 0H-30L-16 81ZM327 104Q422 104 470 200T519 472Q519
515 511 543T486 587T445 610T388 616H344L309 420H432L414 317H291L253 104H327Z" />
<glyph unicode="&#xd1;" glyph-name="Ntilde" horiz-adv-x="751" d="M-15 81L58 99L151 623L84 640L98 721H367L475 443Q488 409 499 373T519 307Q529 272 537 238H542L610 622L541 640L555 721H809L795 640L731 623L621 0H456L321 337Q307 370 297 405T278 471Q269
506 262 540H258L180 98L249 81L235 0H-29L-15 81ZM278 814Q305 866 337 900T411 935Q428 935 450 930T495 919T537 907T568 902Q585 902 599 914T625 943L683 905Q656 853 625 819T551 784Q534 784 512 789T467 800T425 812T393 817Q376 817 363 806T336 776L278
814Z" />
<glyph unicode="&#xd2;" glyph-name="Ograve" horiz-adv-x="730" d="M337 -11Q265 -11 209 10T115 70T56 165T35 290Q35 397 68 479T154 618T275 704T412 733Q484 733 541 712T637 652T697 558T718 433Q718 325 687 242T602 103T481 18T337 -11ZM343 96Q385 96
417 129T471 216T504 341T516 488Q516 559 489 592T409 626Q368 626 336 594T281 507T247 382T235 236Q235 164 261 130T343 96ZM293 830L355 965L583 832L553 765L293 830Z" />
<glyph unicode="&#xd3;" glyph-name="Oacute" horiz-adv-x="730" d="M337 -11Q265 -11 209 10T115 70T56 165T35 290Q35 397 68 479T154 618T275 704T412 733Q484 733 541 712T637 652T697 558T718 433Q718 325 687 242T602 103T481 18T337 -11ZM343 96Q385 96
417 129T471 216T504 341T516 488Q516 559 489 592T409 626Q368 626 336 594T281 507T247 382T235 236Q235 164 261 130T343 96ZM318 832L571 967L615 833L339 765L318 832Z" />
<glyph unicode="&#xd4;" glyph-name="Ocircumflex" horiz-adv-x="730" d="M337 -11Q265 -11 209 10T115 70T56 165T35 290Q35 397 68 479T154 618T275 704T412 733Q484 733 541 712T637 652T697 558T718 433Q718 325 687 242T602 103T481 18T337 -11ZM343 96Q385
96 417 129T471 216T504 341T516 488Q516 559 489 592T409 626Q368 626 336 594T281 507T247 382T235 236Q235 164 261 130T343 96ZM253 810L417 951H501L623 810L587 769L448 831L279 769L253 810Z" />
<glyph unicode="&#xd5;" glyph-name="Otilde" horiz-adv-x="730" d="M337 -11Q265 -11 209 10T115 70T56 165T35 290Q35 397 68 479T154 618T275 704T412 733Q484 733 541 712T637 652T697 558T718 433Q718 325 687 242T602 103T481 18T337 -11ZM343 96Q385 96
417 129T471 216T504 341T516 488Q516 559 489 592T409 626Q368 626 336 594T281 507T247 382T235 236Q235 164 261 130T343 96ZM243 814Q270 866 302 900T376 935Q393 935 415 930T460 919T502 907T533 902Q550 902 564 914T590 943L648 905Q621 853 590 819T516
784Q499 784 477 789T432 800T390 812T358 817Q341 817 328 806T301 776L243 814Z" />
<glyph unicode="&#xd6;" glyph-name="Odieresis" horiz-adv-x="730" d="M337 -11Q265 -11 209 10T115 70T56 165T35 290Q35 397 68 479T154 618T275 704T412 733Q484 733 541 712T637 652T697 558T718 433Q718 325 687 242T602 103T481 18T337 -11ZM343 96Q385
96 417 129T471 216T504 341T516 488Q516 559 489 592T409 626Q368 626 336 594T281 507T247 382T235 236Q235 164 261 130T343 96ZM328 776Q293 776 270 799T246 856Q246 874 253 889T272 916T299 934T333 940Q368 940 391 917T414 861Q414 823 389 800T328 776ZM567
776Q532 776 509 799T485 856Q485 874 492 889T511 916T538 934T572 940Q607 940 630 917T653 861Q653 823 628 800T567 776Z" />
<glyph unicode="&#xd7;" glyph-name="multiply" horiz-adv-x="600" d="M72 159L230 320L72 482L147 557L304 396L460 556L536 481L378 320L536 159L462 84L304 244L148 84L72 159Z" />
<glyph unicode="&#xd8;" glyph-name="Oslash" horiz-adv-x="730" d="M662 623Q689 586 703 538T718 433Q718 325 687 242T602 103T481 18T337 -11Q214 -11 137 49L58 -38L1 11L86 104Q61 141 48 187T35 290Q35 397 68 479T154 618T275 704T412 733Q531 733 608
676L674 748L731 699L662 623ZM335 91Q378 91 412 123T471 208T508 329T524 472L235 156Q244 124 266 108T335 91ZM423 631Q381 631 346 601T286 519T245 400T228 260L516 575Q507 604 486 617T423 631Z" />
<glyph unicode="&#xd9;" glyph-name="Ugrave" horiz-adv-x="724" d="M361 -13Q281 -13 226 3T137 48T87 116T71 201Q71 215 72 229T76 259L140 623L79 640L93 721H422L408 640L342 624L277 254Q274 238 273 225T272 199Q272 144 299 122T384 99Q406 99 427 104T467
124T499 165T521 235L589 624L528 640L542 721H781L767 640L704 623L633 221Q624 168 603 125T549 51T469 4T361 -13ZM327 830L389 965L617 832L587 765L327 830Z" />
<glyph unicode="&#xda;" glyph-name="Uacute" horiz-adv-x="724" d="M361 -13Q281 -13 226 3T137 48T87 116T71 201Q71 215 72 229T76 259L140 623L79 640L93 721H422L408 640L342 624L277 254Q274 238 273 225T272 199Q272 144 299 122T384 99Q406 99 427 104T467
124T499 165T521 235L589 624L528 640L542 721H781L767 640L704 623L633 221Q624 168 603 125T549 51T469 4T361 -13ZM352 832L605 967L649 833L373 765L352 832Z" />
<glyph unicode="&#xdb;" glyph-name="Ucircumflex" horiz-adv-x="724" d="M361 -13Q281 -13 226 3T137 48T87 116T71 201Q71 215 72 229T76 259L140 623L79 640L93 721H422L408 640L342 624L277 254Q274 238 273 225T272 199Q272 144 299 122T384 99Q406 99 427
104T467 124T499 165T521 235L589 624L528 640L542 721H781L767 640L704 623L633 221Q624 168 603 125T549 51T469 4T361 -13ZM287 810L451 951H535L657 810L621 769L482 831L313 769L287 810Z" />
<glyph unicode="&#xdc;" glyph-name="Udieresis" horiz-adv-x="724" d="M361 -13Q281 -13 226 3T137 48T87 116T71 201Q71 215 72 229T76 259L140 623L79 640L93 721H422L408 640L342 624L277 254Q274 238 273 225T272 199Q272 144 299 122T384 99Q406 99 427
104T467 124T499 165T521 235L589 624L528 640L542 721H781L767 640L704 623L633 221Q624 168 603 125T549 51T469 4T361 -13ZM362 776Q327 776 304 799T280 856Q280 874 287 889T306 916T333 934T367 940Q402 940 425 917T448 861Q448 823 423 800T362 776ZM601
776Q566 776 543 799T519 856Q519 874 526 889T545 916T572 934T606 940Q641 940 664 917T687 861Q687 823 662 800T601 776Z" />
<glyph unicode="&#xdd;" glyph-name="Yacute" horiz-adv-x="683" d="M136 81L213 99L247 288L125 623L76 640L90 721H396L382 640L327 625L399 390H403L549 626L500 640L514 721H744L730 640L673 623L446 285L413 99L483 81L469 0H122L136 81ZM325 832L578 967L622
833L346 765L325 832Z" />
<glyph unicode="&#xde;" glyph-name="Thorn" horiz-adv-x="657" d="M-17 81L55 99L148 623L82 640L96 721H426L412 640L350 624L340 565H399Q466 565 513 553T590 518T633 465T647 398Q647 338 627 296T570 226T482 186T366 173Q334 173 312 177T272 186L257 98L335
81L321 0H-31L-17 81ZM287 271Q298 268 311 267T338 265Q394 265 421 296T449 394Q449 466 375 466H322L287 271Z" />
<glyph unicode="&#xdf;" glyph-name="germandbls" horiz-adv-x="706" d="M-85 -111Q-80 -112 -77 -112T-69 -112Q-53 -112 -40 -106T-16 -83T4 -37T22 39L120 550Q133 620 162 666T234 740T328 779T441 791Q504 791 546 778T615 744T652 694T664 636Q664 606 650
581T613 534T566 494T519 461T483 434T468 412Q468 399 485 386T527 355L550 338Q574 320 595 303T632 266T657 221T666 163Q666 127 653 95T613 38T544 0T444 -14Q398 -14 364 -4T307 23T273 62T261 108Q261 127 269 141T289 166H394V85Q415 76 442 76Q468 76
485 89T502 132Q502 158 485 173T441 209L418 226Q394 244 377 260T350 292T334 325T329 364Q329 390 342 412T374 456T416 497T458 539T491 583T504 632Q504 663 482 678T431 694Q411 694 392 688T357 665T327 623T304 556L194 41Q180 -22 156 -66T100 -139T27
-181T-58 -194Q-92 -194 -117 -187T-158 -166T-182 -138T-190 -105Q-190 -89 -184 -73T-164 -46H-85V-111Z" />
<glyph unicode="&#xe0;" glyph-name="agrave" horiz-adv-x="638" d="M512 100Q530 102 546 106T575 114Q589 118 602 122L579 34Q550 15 508 2T420 -11Q378 -11 356 11T331 75H326Q287 32 248 10T155 -12Q121 -12 95 1T50 36T23 89T14 155Q14 235 39 307T106 434T205
521T325 553Q362 553 387 545T429 519H435L450 555H598L609 550L512 100ZM253 113Q273 113 294 125T345 169L397 414Q388 432 376 444T337 456Q311 456 287 434T243 373T213 285T202 181Q202 149 215 131T253 113ZM217 692L286 824L507 679L474 614L217 692Z" />
<glyph unicode="&#xe1;" glyph-name="aacute" horiz-adv-x="638" d="M512 100Q530 102 546 106T575 114Q589 118 602 122L579 34Q550 15 508 2T420 -11Q378 -11 356 11T331 75H326Q287 32 248 10T155 -12Q121 -12 95 1T50 36T23 89T14 155Q14 235 39 307T106 434T205
521T325 553Q362 553 387 545T429 519H435L450 555H598L609 550L512 100ZM253 113Q273 113 294 125T345 169L397 414Q388 432 376 444T337 456Q311 456 287 434T243 373T213 285T202 181Q202 149 215 131T253 113ZM254 680L501 824L550 692L277 614L254 680Z" />
<glyph unicode="&#xe2;" glyph-name="acircumflex" horiz-adv-x="638" d="M512 100Q530 102 546 106T575 114Q589 118 602 122L579 34Q550 15 508 2T420 -11Q378 -11 356 11T331 75H326Q287 32 248 10T155 -12Q121 -12 95 1T50 36T23 89T14 155Q14 235 39 307T106
434T205 521T325 553Q362 553 387 545T429 519H435L450 555H598L609 550L512 100ZM253 113Q273 113 294 125T345 169L397 414Q388 432 376 444T337 456Q311 456 287 434T243 373T213 285T202 181Q202 149 215 131T253 113ZM186 650L348 803H432L544 650L508 609L376
683L212 609L186 650Z" />
<glyph unicode="&#xe3;" glyph-name="atilde" horiz-adv-x="638" d="M512 100Q530 102 546 106T575 114Q589 118 602 122L579 34Q550 15 508 2T420 -11Q378 -11 356 11T331 75H326Q287 32 248 10T155 -12Q121 -12 95 1T50 36T23 89T14 155Q14 235 39 307T106 434T205
521T325 553Q362 553 387 545T429 519H435L450 555H598L609 550L512 100ZM253 113Q273 113 294 125T345 169L397 414Q388 432 376 444T337 456Q311 456 287 434T243 373T213 285T202 181Q202 149 215 131T253 113ZM175 665Q202 717 234 751T308 786Q325 786 346
781T387 770T426 758T455 753Q472 753 486 765T512 794L570 756Q543 704 512 670T438 635Q421 635 400 640T359 651T320 663T290 668Q273 668 260 657T233 627L175 665Z" />
<glyph unicode="&#xe4;" glyph-name="adieresis" horiz-adv-x="638" d="M512 100Q530 102 546 106T575 114Q589 118 602 122L579 34Q550 15 508 2T420 -11Q378 -11 356 11T331 75H326Q287 32 248 10T155 -12Q121 -12 95 1T50 36T23 89T14 155Q14 235 39 307T106
434T205 521T325 553Q362 553 387 545T429 519H435L450 555H598L609 550L512 100ZM253 113Q273 113 294 125T345 169L397 414Q388 432 376 444T337 456Q311 456 287 434T243 373T213 285T202 181Q202 149 215 131T253 113ZM265 624Q230 624 207 647T183 704Q183
722 190 737T209 764T236 782T270 788Q305 788 328 765T351 709Q351 671 326 648T265 624ZM488 624Q453 624 430 647T406 704Q406 722 413 737T432 764T459 782T493 788Q528 788 551 765T574 709Q574 671 549 648T488 624Z" />
<glyph unicode="&#xe5;" glyph-name="aring" horiz-adv-x="638" d="M512 100Q530 102 546 106T575 114Q589 118 602 122L579 34Q550 15 508 2T420 -11Q378 -11 356 11T331 75H326Q287 32 248 10T155 -12Q121 -12 95 1T50 36T23 89T14 155Q14 235 39 307T106 434T205
521T325 553Q362 553 387 545T429 519H435L450 555H598L609 550L512 100ZM253 113Q273 113 294 125T345 169L397 414Q388 432 376 444T337 456Q311 456 287 434T243 373T213 285T202 181Q202 149 215 131T253 113ZM371 619Q344 619 322 628T283 653T257 689T248
733Q248 759 258 781T285 820T326 846T377 856Q404 856 426 847T465 822T490 786T499 743Q499 716 489 694T462 655T422 629T371 619ZM372 671Q401 671 419 690T437 741Q437 768 421 786T376 804Q347 804 329 786T310 735Q310 707 326 689T372 671Z" />
<glyph unicode="&#xe6;" glyph-name="ae" horiz-adv-x="822" d="M263 567Q333 567 375 545T438 488H442Q484 528 531 547T638 567Q680 567 715 558T774 532T813 489T827 432Q827 382 802 346T731 287T623 250T487 231V216Q487 156 512 131T596 106Q628 106 666
114T744 142L721 48Q693 26 641 7T521 -12Q393 -12 336 65H331Q317 51 301 37T263 11T216 -7T159 -14Q82 -14 40 24T-2 134Q-2 186 20 221T84 277T184 308T313 321L318 348Q325 384 322 408T309 448T281 469T240 475Q221 475 210 472T188 463V376H78Q66 387 58
401T49 438Q49 493 104 530T263 567ZM623 476Q600 476 580 463T544 428T515 376T496 312Q577 320 619 345T661 424Q661 476 623 476ZM298 204Q298 215 298 225T300 247Q261 242 237 234T200 214T181 186T176 150Q176 115 190 100T229 84Q260 84 276 96T308 124Q298
158 298 204Z" />
<glyph unicode="&#xe7;" glyph-name="ccedilla" horiz-adv-x="505" d="M67 -185Q137 -182 164 -174T191 -143Q191 -131 178 -123T120 -109L144 2Q85 22 53 74T20 204Q20 281 45 347T115 462T224 539T365 567Q445 567 479 537T514 462Q514 435 501 411T474 374H373V475Q368
477 363 477T353 477Q321 477 295 455T251 395T223 312T213 216Q213 156 236 131T308 106Q340 106 373 114T446 142L423 48Q395 26 348 7T233 -12H215L205 -59Q265 -66 290 -84T316 -134Q316 -159 304 -179T261 -212T181 -233T57 -241L67 -185Z" />
<glyph unicode="&#xe8;" glyph-name="egrave" horiz-adv-x="544" d="M243 -12Q132 -12 76 43T20 204Q20 281 45 347T115 462T222 539T360 567Q402 567 437 558T496 532T535 489T549 432Q549 382 524 346T453 287T345 250T209 231V216Q209 156 234 131T318 106Q350
106 388 114T466 142L443 48Q415 26 363 7T243 -12ZM341 476Q318 476 299 463T264 428T237 376T218 312Q299 320 339 345T379 424Q379 476 341 476ZM203 692L272 824L493 679L460 614L203 692Z" />
<glyph unicode="&#xe9;" glyph-name="eacute" horiz-adv-x="544" d="M243 -12Q132 -12 76 43T20 204Q20 281 45 347T115 462T222 539T360 567Q402 567 437 558T496 532T535 489T549 432Q549 382 524 346T453 287T345 250T209 231V216Q209 156 234 131T318 106Q350
106 388 114T466 142L443 48Q415 26 363 7T243 -12ZM341 476Q318 476 299 463T264 428T237 376T218 312Q299 320 339 345T379 424Q379 476 341 476ZM230 680L477 824L526 692L253 614L230 680Z" />
<glyph unicode="&#xea;" glyph-name="ecircumflex" horiz-adv-x="544" d="M243 -12Q132 -12 76 43T20 204Q20 281 45 347T115 462T222 539T360 567Q402 567 437 558T496 532T535 489T549 432Q549 382 524 346T453 287T345 250T209 231V216Q209 156 234 131T318
106Q350 106 388 114T466 142L443 48Q415 26 363 7T243 -12ZM341 476Q318 476 299 463T264 428T237 376T218 312Q299 320 339 345T379 424Q379 476 341 476ZM172 650L334 803H418L530 650L494 609L362 683L198 609L172 650Z" />
<glyph unicode="&#xeb;" glyph-name="edieresis" horiz-adv-x="544" d="M243 -12Q132 -12 76 43T20 204Q20 281 45 347T115 462T222 539T360 567Q402 567 437 558T496 532T535 489T549 432Q549 382 524 346T453 287T345 250T209 231V216Q209 156 234 131T318 106Q350
106 388 114T466 142L443 48Q415 26 363 7T243 -12ZM341 476Q318 476 299 463T264 428T237 376T218 312Q299 320 339 345T379 424Q379 476 341 476ZM241 624Q206 624 183 647T159 704Q159 722 166 737T185 764T212 782T246 788Q281 788 304 765T327 709Q327 671
302 648T241 624ZM464 624Q429 624 406 647T382 704Q382 722 389 737T408 764T435 782T469 788Q504 788 527 765T550 709Q550 671 525 648T464 624Z" />
<glyph unicode="&#xec;" glyph-name="igrave" horiz-adv-x="355" d="M232 103Q250 105 267 109T297 117Q312 121 325 125L302 37Q273 18 228 5T133 -8Q98 -8 73 9T48 72Q48 88 53 111L125 436Q107 433 90 429T60 422Q44 418 31 414L50 502Q65 514 87 526T135 547T187
561T236 567Q250 567 263 564T288 552T305 530T312 494Q312 486 311 478T308 461L232 103ZM340 692L409 824L630 679L597 614L340 692Z" />
<glyph unicode="&#xed;" glyph-name="iacute" horiz-adv-x="355" d="M232 103Q250 105 267 109T297 117Q312 121 325 125L302 37Q273 18 228 5T133 -8Q98 -8 73 9T48 72Q48 88 53 111L125 436Q107 433 90 429T60 422Q44 418 31 414L50 502Q65 514 87 526T135 547T187
561T236 567Q250 567 263 564T288 552T305 530T312 494Q312 486 311 478T308 461L232 103ZM377 680L624 824L673 692L400 614L377 680Z" />
<glyph unicode="&#xee;" glyph-name="icircumflex" horiz-adv-x="355" d="M232 103Q250 105 267 109T297 117Q312 121 325 125L302 37Q273 18 228 5T133 -8Q98 -8 73 9T48 72Q48 88 53 111L125 436Q107 433 90 429T60 422Q44 418 31 414L50 502Q65 514 87 526T135
547T187 561T236 567Q250 567 263 564T288 552T305 530T312 494Q312 486 311 478T308 461L232 103ZM308 650L470 803H554L666 650L630 609L498 683L334 609L308 650Z" />
<glyph unicode="&#xef;" glyph-name="idieresis" horiz-adv-x="355" d="M232 103Q250 105 267 109T297 117Q312 121 325 125L302 37Q273 18 228 5T133 -8Q98 -8 73 9T48 72Q48 88 53 111L125 436Q107 433 90 429T60 422Q44 418 31 414L50 502Q65 514 87 526T135
547T187 561T236 567Q250 567 263 564T288 552T305 530T312 494Q312 486 311 478T308 461L232 103ZM387 624Q352 624 329 647T305 704Q305 722 312 737T331 764T358 782T392 788Q427 788 450 765T473 709Q473 671 448 648T387 624ZM610 624Q575 624 552 647T528
704Q528 722 535 737T554 764T581 782T615 788Q650 788 673 765T696 709Q696 671 671 648T610 624Z" />
<glyph unicode="&#xf0;" glyph-name="eth" horiz-adv-x="619" d="M301 542Q328 542 344 538T374 525H380Q357 580 316 619L156 545L126 605L256 665Q234 679 211 691T162 715L224 794Q312 770 385 726L516 787L546 727L447 681Q515 623 554 544T593 366Q593 283
570 213T503 93T399 15T263 -13Q201 -13 155 6T79 57T33 130T18 216Q18 292 42 352T107 455T198 519T301 542ZM403 367Q403 387 402 405T398 438Q376 454 342 454Q313 454 288 436T245 383T215 296T204 176Q204 128 223 106T273 83Q301 83 325 104T366 163T393
253T403 367Z" />
<glyph unicode="&#xf1;" glyph-name="ntilde" horiz-adv-x="667" d="M547 100Q564 102 580 106T610 114Q625 118 637 122L614 34Q585 15 541 2T448 -11Q413 -11 389 8T364 73Q364 92 368 111L422 368Q427 394 421 409T391 425Q360 425 336 409T289 370L211 0H29L122
435Q104 432 88 428T58 421Q43 417 30 414L49 502Q64 514 85 526T131 547T180 561T228 567Q244 567 259 563T286 549T302 520T305 475L304 467H310Q352 511 398 539T505 567Q559 567 587 538T616 452Q616 426 610 396L547 100ZM182 665Q209 717 241 751T315 786Q332
786 353 781T394 770T433 758T462 753Q479 753 493 765T519 794L577 756Q550 704 519 670T445 635Q428 635 407 640T366 651T327 663T297 668Q280 668 267 657T240 627L182 665Z" />
<glyph unicode="&#xf2;" glyph-name="ograve" horiz-adv-x="606" d="M267 -13Q209 -13 163 5T85 54T35 129T18 224Q18 299 42 362T110 471T214 542T346 568Q401 568 446 549T523 497T572 421T590 330Q590 256 568 193T505 85T403 13T267 -13ZM277 83Q302 83 324
101T363 156T390 244T400 364Q400 410 384 440T329 471Q304 471 282 452T243 397T216 309T206 190Q206 142 223 113T277 83ZM205 692L274 824L495 679L462 614L205 692Z" />
<glyph unicode="&#xf3;" glyph-name="oacute" horiz-adv-x="606" d="M267 -13Q209 -13 163 5T85 54T35 129T18 224Q18 299 42 362T110 471T214 542T346 568Q401 568 446 549T523 497T572 421T590 330Q590 256 568 193T505 85T403 13T267 -13ZM277 83Q302 83 324
101T363 156T390 244T400 364Q400 410 384 440T329 471Q304 471 282 452T243 397T216 309T206 190Q206 142 223 113T277 83ZM242 680L489 824L538 692L265 614L242 680Z" />
<glyph unicode="&#xf4;" glyph-name="ocircumflex" horiz-adv-x="606" d="M267 -13Q209 -13 163 5T85 54T35 129T18 224Q18 299 42 362T110 471T214 542T346 568Q401 568 446 549T523 497T572 421T590 330Q590 256 568 193T505 85T403 13T267 -13ZM277 83Q302
83 324 101T363 156T390 244T400 364Q400 410 384 440T329 471Q304 471 282 452T243 397T216 309T206 190Q206 142 223 113T277 83ZM174 650L336 803H420L532 650L496 609L364 683L200 609L174 650Z" />
<glyph unicode="&#xf5;" glyph-name="otilde" horiz-adv-x="606" d="M267 -13Q209 -13 163 5T85 54T35 129T18 224Q18 299 42 362T110 471T214 542T346 568Q401 568 446 549T523 497T572 421T590 330Q590 256 568 193T505 85T403 13T267 -13ZM277 83Q302 83 324
101T363 156T390 244T400 364Q400 410 384 440T329 471Q304 471 282 452T243 397T216 309T206 190Q206 142 223 113T277 83ZM163 665Q190 717 222 751T296 786Q313 786 334 781T375 770T414 758T443 753Q460 753 474 765T500 794L558 756Q531 704 500 670T426 635Q409
635 388 640T347 651T308 663T278 668Q261 668 248 657T221 627L163 665Z" />
<glyph unicode="&#xf6;" glyph-name="odieresis" horiz-adv-x="606" d="M267 -13Q209 -13 163 5T85 54T35 129T18 224Q18 299 42 362T110 471T214 542T346 568Q401 568 446 549T523 497T572 421T590 330Q590 256 568 193T505 85T403 13T267 -13ZM277 83Q302 83
324 101T363 156T390 244T400 364Q400 410 384 440T329 471Q304 471 282 452T243 397T216 309T206 190Q206 142 223 113T277 83ZM253 624Q218 624 195 647T171 704Q171 722 178 737T197 764T224 782T258 788Q293 788 316 765T339 709Q339 671 314 648T253 624ZM476
624Q441 624 418 647T394 704Q394 722 401 737T420 764T447 782T481 788Q516 788 539 765T562 709Q562 671 537 648T476 624Z" />
<glyph unicode="&#xf7;" glyph-name="divide" horiz-adv-x="600" d="M60 374H550V275H60V374ZM305 29Q264 29 238 55T212 120Q212 158 238 185T305 212Q346 212 372 185T398 120Q398 82 372 56T305 29ZM305 437Q264 437 238 463T212 528Q212 566 238 593T305 620Q346
620 372 593T398 528Q398 490 372 464T305 437Z" />
<glyph unicode="&#xf8;" glyph-name="oslash" horiz-adv-x="606" d="M267 -13Q217 -13 177 0T105 36L36 -34L-11 14L59 84Q18 143 18 224Q18 299 42 362T110 471T214 542T346 568Q391 568 428 556T495 521L560 587L607 539L543 474Q566 444 578 407T590 330Q590
256 568 193T505 85T403 13T267 -13ZM276 78Q302 78 326 95T369 147T400 231T414 345L199 130Q216 78 276 78ZM329 475Q303 475 279 458T237 407T206 326T191 217L403 429Q394 450 376 462T329 475Z" />
<glyph unicode="&#xf9;" glyph-name="ugrave" horiz-adv-x="659" d="M536 100Q553 102 569 106T599 114Q614 118 626 122L603 34Q574 15 531 2T443 -11Q397 -11 375 14T357 78L358 88H352Q311 43 267 16T162 -12Q108 -12 80 17T51 103Q51 129 57 159L116 435Q98
432 82 428T52 421Q37 417 24 414L43 502Q58 514 78 526T122 547T170 561T217 567Q255 567 280 551T305 489Q305 480 304 470T300 447L245 187Q240 161 246 146T276 130Q307 130 328 146T373 185L451 555H633L536 100ZM231 692L300 824L521 679L488 614L231 692Z"
/>
<glyph unicode="&#xfa;" glyph-name="uacute" horiz-adv-x="659" d="M536 100Q553 102 569 106T599 114Q614 118 626 122L603 34Q574 15 531 2T443 -11Q397 -11 375 14T357 78L358 88H352Q311 43 267 16T162 -12Q108 -12 80 17T51 103Q51 129 57 159L116 435Q98
432 82 428T52 421Q37 417 24 414L43 502Q58 514 78 526T122 547T170 561T217 567Q255 567 280 551T305 489Q305 480 304 470T300 447L245 187Q240 161 246 146T276 130Q307 130 328 146T373 185L451 555H633L536 100ZM268 680L515 824L564 692L291 614L268 680Z"
/>
<glyph unicode="&#xfb;" glyph-name="ucircumflex" horiz-adv-x="659" d="M536 100Q553 102 569 106T599 114Q614 118 626 122L603 34Q574 15 531 2T443 -11Q397 -11 375 14T357 78L358 88H352Q311 43 267 16T162 -12Q108 -12 80 17T51 103Q51 129 57 159L116
435Q98 432 82 428T52 421Q37 417 24 414L43 502Q58 514 78 526T122 547T170 561T217 567Q255 567 280 551T305 489Q305 480 304 470T300 447L245 187Q240 161 246 146T276 130Q307 130 328 146T373 185L451 555H633L536 100ZM200 650L362 803H446L558 650L522
609L390 683L226 609L200 650Z" />
<glyph unicode="&#xfc;" glyph-name="udieresis" horiz-adv-x="659" d="M536 100Q553 102 569 106T599 114Q614 118 626 122L603 34Q574 15 531 2T443 -11Q397 -11 375 14T357 78L358 88H352Q311 43 267 16T162 -12Q108 -12 80 17T51 103Q51 129 57 159L116 435Q98
432 82 428T52 421Q37 417 24 414L43 502Q58 514 78 526T122 547T170 561T217 567Q255 567 280 551T305 489Q305 480 304 470T300 447L245 187Q240 161 246 146T276 130Q307 130 328 146T373 185L451 555H633L536 100ZM279 624Q244 624 221 647T197 704Q197 722
204 737T223 764T250 782T284 788Q319 788 342 765T365 709Q365 671 340 648T279 624ZM502 624Q467 624 444 647T420 704Q420 722 427 737T446 764T473 782T507 788Q542 788 565 765T588 709Q588 671 563 648T502 624Z" />
<glyph unicode="&#xfd;" glyph-name="yacute" horiz-adv-x="583" d="M55 -217Q16 -217 -12 -206T-54 -183L-31 -92Q-15 -97 0 -101T38 -105Q79 -105 111 -97T176 -68Q173 -13 167 52T153 185T136 316T118 435Q101 432 85 428T57 421Q43 417 30 414L49 502Q75 525
113 546T195 567Q238 567 259 543T289 467Q296 424 300 370T305 252Q305 240 305 218T303 170T300 117T295 66H300Q320 106 347 153T393 241Q442 350 453 433H395L413 535Q428 549 451 558T498 568Q514 568 530 564T559 551T581 525T590 485Q590 409 542 309T411
81Q362 6 318 -50T231 -143T145 -198T55 -217ZM242 680L489 824L538 692L265 614L242 680Z" />
<glyph unicode="&#xfe;" glyph-name="thorn" horiz-adv-x="638" d="M-65 -143L-5 -129L144 666L84 682L99 764L330 788L345 781L290 473H295Q333 515 375 541T468 568Q534 568 573 521T613 368Q613 295 594 227T535 105T434 19T289 -13Q259 -13 237 -8T204 3L182
-130L247 -143L234 -217H-78L-65 -143ZM289 82Q324 82 349 108T391 176T414 269T422 368Q422 406 407 422T372 438Q346 438 320 423T272 387L223 113Q233 99 249 91T289 82Z" />
<glyph unicode="&#xff;" glyph-name="ydieresis" horiz-adv-x="583" d="M55 -217Q16 -217 -12 -206T-54 -183L-31 -92Q-15 -97 0 -101T38 -105Q79 -105 111 -97T176 -68Q173 -13 167 52T153 185T136 316T118 435Q101 432 85 428T57 421Q43 417 30 414L49 502Q75
525 113 546T195 567Q238 567 259 543T289 467Q296 424 300 370T305 252Q305 240 305 218T303 170T300 117T295 66H300Q320 106 347 153T393 241Q442 350 453 433H395L413 535Q428 549 451 558T498 568Q514 568 530 564T559 551T581 525T590 485Q590 409 542 309T411
81Q362 6 318 -50T231 -143T145 -198T55 -217ZM253 624Q218 624 195 647T171 704Q171 722 178 737T197 764T224 782T258 788Q293 788 316 765T339 709Q339 671 314 648T253 624ZM476 624Q441 624 418 647T394 704Q394 722 401 737T420 764T447 782T481 788Q516
788 539 765T562 709Q562 671 537 648T476 624Z" />
<glyph unicode="&#x100;" glyph-name="Amacron" horiz-adv-x="737" d="M409 211H206L153 99L218 81L204 0H-40L-26 81L32 99L352 721H537L631 99L686 81L672 0H337L351 81L422 99L409 211ZM246 293H400L388 401Q385 429 383 461T379 519Q377 550 377 580H372Q361
551 350 521Q340 495 327 465T301 408L246 293ZM301 890H633L617 797H285L301 890Z" />
<glyph unicode="&#x101;" glyph-name="amacron" horiz-adv-x="638" d="M512 100Q530 102 546 106T575 114Q589 118 602 122L579 34Q550 15 508 2T420 -11Q378 -11 356 11T331 75H326Q287 32 248 10T155 -12Q121 -12 95 1T50 36T23 89T14 155Q14 235 39 307T106
434T205 521T325 553Q362 553 387 545T429 519H435L450 555H598L609 550L512 100ZM253 113Q273 113 294 125T345 169L397 414Q388 432 376 444T337 456Q311 456 287 434T243 373T213 285T202 181Q202 149 215 131T253 113ZM227 747H559L543 654H211L227 747Z" />
<glyph unicode="&#x102;" glyph-name="Abreve" horiz-adv-x="737" d="M409 211H206L153 99L218 81L204 0H-40L-26 81L32 99L352 721H537L631 99L686 81L672 0H337L351 81L422 99L409 211ZM246 293H400L388 401Q385 429 383 461T379 519Q377 550 377 580H372Q361
551 350 521Q340 495 327 465T301 408L246 293ZM457 779Q420 779 390 790T337 823T304 875T292 943H383Q386 923 404 907T460 890Q500 890 519 904T547 943H638Q627 862 580 821T457 779Z" />
<glyph unicode="&#x103;" glyph-name="abreve" horiz-adv-x="638" d="M512 100Q530 102 546 106T575 114Q589 118 602 122L579 34Q550 15 508 2T420 -11Q378 -11 356 11T331 75H326Q287 32 248 10T155 -12Q121 -12 95 1T50 36T23 89T14 155Q14 235 39 307T106
434T205 521T325 553Q362 553 387 545T429 519H435L450 555H598L609 550L512 100ZM253 113Q273 113 294 125T345 169L397 414Q388 432 376 444T337 456Q311 456 287 434T243 373T213 285T202 181Q202 149 215 131T253 113ZM375 626Q302 626 260 669T218 791H309Q312
768 328 753T379 737Q414 737 432 752T459 791H550Q538 714 493 670T375 626Z" />
<glyph unicode="&#x104;" glyph-name="Aogonek" horiz-adv-x="737" d="M410 211H206L153 99L218 81L204 0H-40L-26 81L32 99L352 721H537L631 99L686 81L672 0H611Q576 0 544 -6T488 -26T450 -58T435 -103Q435 -118 445 -127T473 -136Q484 -136 492 -134T512 -130L501
-202Q484 -211 458 -216T408 -222Q373 -222 349 -214T310 -194T288 -165T281 -131Q281 -84 322 -50T432 16L410 211ZM246 293H400L388 401Q384 429 383 461T379 519Q377 550 377 580H372Q361 551 350 521Q340 495 327 465T301 408L246 293Z" />
<glyph unicode="&#x105;" glyph-name="aogonek" horiz-adv-x="638" d="M438 -222Q369 -222 340 -196T311 -136Q311 -114 320 -96T346 -61T385 -33T432 -11Q381 -13 357 10T331 75H326Q287 32 248 10T155 -12Q121 -12 95 1T50 36T23 89T14 155Q14 235 39 307T106
434T205 521T325 553Q362 553 387 545T429 519H435L450 555H598L609 550L512 100Q530 102 546 106T575 114Q589 118 602 122L579 34Q565 22 546 6T509 -29T479 -67T467 -105Q467 -136 503 -136Q514 -136 522 -134T542 -130L531 -202Q514 -211 488 -216T438 -222ZM253
113Q273 113 294 125T345 169L397 414Q388 432 376 444T337 456Q311 456 287 434T243 373T213 285T202 181Q202 149 215 131T253 113Z" />
<glyph unicode="&#x106;" glyph-name="Cacute" horiz-adv-x="673" d="M365 -12Q209 -12 123 61T36 290Q36 392 67 474T154 613T283 702T443 733Q524 733 579 719T670 688L655 501H538L525 599Q511 607 488 614T432 621Q384 621 348 596T287 523T250 406T237 248Q237
170 269 135T366 100Q389 100 409 106T445 120L492 218H610L566 25Q525 8 472 -2T365 -12ZM333 832L586 967L630 833L354 765L333 832Z" />
<glyph unicode="&#x107;" glyph-name="cacute" horiz-adv-x="505" d="M233 -12Q136 -12 78 43T20 204Q20 281 45 347T115 462T224 539T365 567Q445 567 479 537T514 462Q514 435 501 411T474 374H373V475Q368 477 363 477T353 477Q321 477 295 455T251 395T223
312T213 216Q213 156 236 131T308 106Q340 106 373 114T446 142L423 48Q395 26 348 7T233 -12ZM232 680L479 824L528 692L255 614L232 680Z" />
<glyph unicode="&#x108;" glyph-name="Ccircumflex" horiz-adv-x="673" d="M365 -12Q209 -12 123 61T36 290Q36 392 67 474T154 613T283 702T443 733Q524 733 579 719T670 688L655 501H538L525 599Q511 607 488 614T432 621Q384 621 348 596T287 523T250 406T237
248Q237 170 269 135T366 100Q389 100 409 106T445 120L492 218H610L566 25Q525 8 472 -2T365 -12ZM268 810L432 951H516L638 810L602 769L463 831L294 769L268 810Z" />
<glyph unicode="&#x109;" glyph-name="ccircumflex" horiz-adv-x="505" d="M233 -12Q136 -12 78 43T20 204Q20 281 45 347T115 462T224 539T365 567Q445 567 479 537T514 462Q514 435 501 411T474 374H373V475Q368 477 363 477T353 477Q321 477 295 455T251 395T223
312T213 216Q213 156 236 131T308 106Q340 106 373 114T446 142L423 48Q395 26 348 7T233 -12ZM164 650L326 803H410L522 650L486 609L354 683L190 609L164 650Z" />
<glyph unicode="&#x10a;" glyph-name="Cdotaccent" horiz-adv-x="673" d="M365 -12Q209 -12 123 61T36 290Q36 392 67 474T154 613T283 702T443 733Q524 733 579 719T670 688L655 501H538L525 599Q511 607 488 614T432 621Q384 621 348 596T287 523T250 406T237
248Q237 170 269 135T366 100Q389 100 409 106T445 120L492 218H610L566 25Q525 8 472 -2T365 -12ZM445 774Q405 774 378 797T351 859Q351 904 380 928T450 953Q491 953 517 930T544 868Q544 823 515 799T445 774Z" />
<glyph unicode="&#x10b;" glyph-name="cdotaccent" horiz-adv-x="505" d="M233 -12Q136 -12 78 43T20 204Q20 281 45 347T115 462T224 539T365 567Q445 567 479 537T514 462Q514 435 501 411T474 374H373V475Q368 477 363 477T353 477Q321 477 295 455T251 395T223
312T213 216Q213 156 236 131T308 106Q340 106 373 114T446 142L423 48Q395 26 348 7T233 -12ZM352 617Q312 617 285 640T258 702Q258 747 287 771T357 796Q398 796 424 773T451 711Q451 666 422 642T352 617Z" />
<glyph unicode="&#x10c;" glyph-name="Ccaron" horiz-adv-x="673" d="M365 -12Q209 -12 123 61T36 290Q36 392 67 474T154 613T283 702T443 733Q524 733 579 719T670 688L655 501H538L525 599Q511 607 488 614T432 621Q384 621 348 596T287 523T250 406T237 248Q237
170 269 135T366 100Q389 100 409 106T445 120L492 218H610L566 25Q525 8 472 -2T365 -12ZM652 922L488 781H404L282 922L318 963L457 901L626 963L652 922Z" />
<glyph unicode="&#x10d;" glyph-name="ccaron" horiz-adv-x="505" d="M233 -12Q136 -12 78 43T20 204Q20 281 45 347T115 462T224 539T365 567Q445 567 479 537T514 462Q514 435 501 411T474 374H373V475Q368 477 363 477T353 477Q321 477 295 455T251 395T223
312T213 216Q213 156 236 131T308 106Q340 106 373 114T446 142L423 48Q395 26 348 7T233 -12ZM546 774L384 621H300L188 774L224 815L356 741L520 815L546 774Z" />
<glyph unicode="&#x10e;" glyph-name="Dcaron" horiz-adv-x="734" d="M-16 81L56 99L149 623L84 640L98 721H409Q480 721 538 705T638 653T702 564T725 435Q725 337 698 257T619 120T495 32T329 0H-30L-16 81ZM327 104Q422 104 470 200T519 472Q519 515 511 543T486
587T445 610T388 616H350L259 104H327ZM612 922L448 781H364L242 922L278 963L417 901L586 963L612 922Z" />
<glyph unicode="&#x10f;" glyph-name="dcaron" horiz-adv-x="644" d="M528 101Q545 103 560 107T588 114Q602 118 614 122L591 34Q562 15 523 2T442 -11Q393 -11 370 12T344 73H338Q311 37 268 13T164 -12Q94 -12 55 33T16 162Q16 251 43 325T114 453T215 537T335
567Q372 567 390 562T425 547L446 672L382 689L396 768L634 793L649 784L528 101ZM259 112Q285 112 308 124T356 162L405 439Q394 453 383 461T354 469Q324 469 297 446T250 383T218 291T206 183Q206 112 259 112ZM657 595Q671 635 684 689T705 791H851Q834 731
806 684T743 595H657Z" />
<glyph unicode="&#x110;" glyph-name="Dcroat" horiz-adv-x="734" d="M-16 81L56 99L94 317H34L52 420H113L149 623L84 640L98 721H409Q480 721 538 705T638 653T702 564T725 435Q725 337 698 257T619 120T495 32T329 0H-30L-16 81ZM327 104Q422 104 470 200T519
472Q519 515 511 543T486 587T445 610T388 616H344L309 420H432L414 317H291L253 104H327Z" />
<glyph unicode="&#x111;" glyph-name="dcroat" horiz-adv-x="644" d="M633 694H709L696 618H619L528 101Q545 103 560 107T588 114Q602 118 614 122L591 34Q562 15 523 2T442 -11Q393 -11 370 12T344 73H338Q311 37 268 13T164 -12Q94 -12 55 33T16 162Q16 251
42 324T113 449T215 531T334 560Q371 560 389 555T424 540L437 618H273L286 694H449L463 775L634 793L649 784L633 694ZM259 112Q285 112 308 124T356 162L405 437Q394 451 382 459T350 467Q321 467 295 444T250 381T218 291T206 183Q206 112 259 112Z" />
<glyph unicode="&#x112;" glyph-name="Emacron" horiz-adv-x="649" d="M-16 81L56 99L149 623L83 640L97 721H656L641 518H543L523 622H344L307 414H379L406 483H489L456 251H373L367 321H291L252 100H454L512 226H615L572 0H-30L-16 81ZM259 890H591L575 797H243L259
890Z" />
<glyph unicode="&#x113;" glyph-name="emacron" horiz-adv-x="544" d="M243 -12Q132 -12 76 43T20 204Q20 281 45 347T115 462T222 539T360 567Q402 567 437 558T496 532T535 489T549 432Q549 382 524 346T453 287T345 250T209 231V216Q209 156 234 131T318 106Q350
106 388 114T466 142L443 48Q415 26 363 7T243 -12ZM341 476Q318 476 299 463T264 428T237 376T218 312Q299 320 339 345T379 424Q379 476 341 476ZM213 747H545L529 654H197L213 747Z" />
<glyph unicode="&#x114;" glyph-name="Ebreve" horiz-adv-x="649" d="M-16 81L56 99L149 623L83 640L97 721H656L641 518H543L523 622H344L307 414H379L406 483H489L456 251H373L367 321H291L252 100H454L512 226H615L572 0H-30L-16 81ZM415 779Q378 779 348 790T295
823T262 875T250 943H341Q344 923 362 907T418 890Q458 890 477 904T505 943H596Q585 862 538 821T415 779Z" />
<glyph unicode="&#x115;" glyph-name="ebreve" horiz-adv-x="544" d="M243 -12Q132 -12 76 43T20 204Q20 281 45 347T115 462T222 539T360 567Q402 567 437 558T496 532T535 489T549 432Q549 382 524 346T453 287T345 250T209 231V216Q209 156 234 131T318 106Q350
106 388 114T466 142L443 48Q415 26 363 7T243 -12ZM341 476Q318 476 299 463T264 428T237 376T218 312Q299 320 339 345T379 424Q379 476 341 476ZM361 626Q288 626 246 669T204 791H295Q298 768 314 753T365 737Q400 737 418 752T445 791H536Q524 714 479 670T361
626Z" />
<glyph unicode="&#x116;" glyph-name="Edotaccent" horiz-adv-x="649" d="M-16 81L56 99L149 623L83 640L97 721H656L641 518H543L523 622H344L307 414H379L406 483H489L456 251H373L367 321H291L252 100H454L512 226H615L572 0H-30L-16 81ZM407 774Q367 774 340
797T313 859Q313 904 342 928T412 953Q453 953 479 930T506 868Q506 823 477 799T407 774Z" />
<glyph unicode="&#x117;" glyph-name="edotaccent" horiz-adv-x="544" d="M243 -12Q132 -12 76 43T20 204Q20 281 45 347T115 462T222 539T360 567Q402 567 437 558T496 532T535 489T549 432Q549 382 524 346T453 287T345 250T209 231V216Q209 156 234 131T318
106Q350 106 388 114T466 142L443 48Q415 26 363 7T243 -12ZM341 476Q318 476 299 463T264 428T237 376T218 312Q299 320 339 345T379 424Q379 476 341 476ZM350 617Q310 617 283 640T256 702Q256 747 285 771T355 796Q396 796 422 773T449 711Q449 666 420 642T350
617Z" />
<glyph unicode="&#x118;" glyph-name="Eogonek" horiz-adv-x="649" d="M-16 81L56 99L149 623L83 640L97 721H656L641 518H543L523 622H344L307 414H379L406 483H489L456 251H373L367 321H291L252 100H454L512 226H615L572 0H505Q425 -59 425 -105Q425 -136 461
-136Q472 -136 480 -134T500 -130L489 -202Q472 -211 446 -216T396 -222Q327 -222 298 -196T269 -136Q269 -112 280 -92T311 -54T354 -23T406 0H-30L-16 81Z" />
<glyph unicode="&#x119;" glyph-name="eogonek" horiz-adv-x="544" d="M285 -222Q216 -222 187 -196T158 -136Q158 -114 168 -95T194 -61T233 -32T281 -10Q272 -11 263 -11T243 -12Q132 -12 76 43T20 204Q20 281 45 347T115 462T222 539T360 567Q402 567 437 558T496
532T535 489T549 432Q549 382 524 346T453 287T345 250T209 231V216Q209 156 234 131T318 106Q350 106 388 114T466 142L443 48Q420 30 397 12T356 -26T326 -65T314 -105Q314 -136 350 -136Q361 -136 369 -134T389 -130L378 -202Q361 -211 335 -216T285 -222ZM341
476Q318 476 299 463T264 428T237 376T218 312Q299 320 339 345T379 424Q379 476 341 476Z" />
<glyph unicode="&#x11a;" glyph-name="Ecaron" horiz-adv-x="649" d="M-16 81L56 99L149 623L83 640L97 721H656L641 518H543L523 622H344L307 414H379L406 483H489L456 251H373L367 321H291L252 100H454L512 226H615L572 0H-30L-16 81ZM615 922L451 781H367L245
922L281 963L420 901L589 963L615 922Z" />
<glyph unicode="&#x11b;" glyph-name="ecaron" horiz-adv-x="544" d="M243 -12Q132 -12 76 43T20 204Q20 281 45 347T115 462T222 539T360 567Q402 567 437 558T496 532T535 489T549 432Q549 382 524 346T453 287T345 250T209 231V216Q209 156 234 131T318 106Q350
106 388 114T466 142L443 48Q415 26 363 7T243 -12ZM341 476Q318 476 299 463T264 428T237 376T218 312Q299 320 339 345T379 424Q379 476 341 476ZM565 774L403 621H319L207 774L243 815L375 741L539 815L565 774Z" />
<glyph unicode="&#x11c;" glyph-name="Gcircumflex" horiz-adv-x="719" d="M356 -13Q269 -13 208 8T109 68T53 161T35 281Q35 392 69 476T160 618T293 704T453 733Q535 733 595 719T689 685L675 510H560L537 598Q522 609 501 615T443 622Q393 622 355 596T290
522T249 407T235 256Q235 178 268 138T373 97Q387 97 400 100T425 108L450 252L387 268L402 350H709L694 268L637 252L599 21Q578 13 547 7T483 -3T416 -10T356 -13ZM272 810L436 951H520L642 810L606 769L467 831L298 769L272 810Z" />
<glyph unicode="&#x11d;" glyph-name="gcircumflex" horiz-adv-x="567" d="M232 -221Q86 -221 17 -184T-53 -89Q-53 -63 -38 -42T2 -5T57 22T116 41Q72 69 72 113Q72 148 94 178T151 234Q108 252 82 284T56 366Q56 412 75 449T126 512T203 552T299 567Q330 567
361 560T416 540L608 572L589 464L484 473V469Q498 453 505 433T513 392Q513 352 497 319T450 261T374 223T270 209Q243 209 219 212Q213 204 210 198T206 184Q206 170 227 161T271 145L350 123Q425 103 467 65T509 -34Q509 -73 494 -107T444 -166T358 -206T232
-221ZM172 12Q160 6 148 -2T127 -21T111 -44T104 -72Q104 -134 226 -134Q286 -134 315 -117T344 -75Q344 -52 322 -39T264 -15L172 12ZM270 283Q289 283 303 294T328 326T344 373T350 431Q350 467 337 478T304 490Q285 490 270 479T245 449T229 403T223 345Q223
310 235 297T270 283ZM151 650L313 803H397L509 650L473 609L341 683L177 609L151 650Z" />
<glyph unicode="&#x11e;" glyph-name="Gbreve" horiz-adv-x="719" d="M356 -13Q269 -13 208 8T109 68T53 161T35 281Q35 392 69 476T160 618T293 704T453 733Q535 733 595 719T689 685L675 510H560L537 598Q522 609 501 615T443 622Q393 622 355 596T290 522T249
407T235 256Q235 178 268 138T373 97Q387 97 400 100T425 108L450 252L387 268L402 350H709L694 268L637 252L599 21Q578 13 547 7T483 -3T416 -10T356 -13ZM458 779Q421 779 391 790T338 823T305 875T293 943H384Q387 923 405 907T461 890Q501 890 520 904T548
943H639Q628 862 581 821T458 779Z" />
<glyph unicode="&#x11f;" glyph-name="gbreve" horiz-adv-x="567" d="M232 -221Q86 -221 17 -184T-53 -89Q-53 -63 -38 -42T2 -5T57 22T116 41Q72 69 72 113Q72 148 94 178T151 234Q108 252 82 284T56 366Q56 412 75 449T126 512T203 552T299 567Q330 567 361
560T416 540L608 572L589 464L484 473V469Q498 453 505 433T513 392Q513 352 497 319T450 261T374 223T270 209Q243 209 219 212Q213 204 210 198T206 184Q206 170 227 161T271 145L350 123Q425 103 467 65T509 -34Q509 -73 494 -107T444 -166T358 -206T232 -221ZM172
12Q160 6 148 -2T127 -21T111 -44T104 -72Q104 -134 226 -134Q286 -134 315 -117T344 -75Q344 -52 322 -39T264 -15L172 12ZM270 283Q289 283 303 294T328 326T344 373T350 431Q350 467 337 478T304 490Q285 490 270 479T245 449T229 403T223 345Q223 310 235 297T270
283ZM340 626Q267 626 225 669T183 791H274Q277 768 293 753T344 737Q379 737 397 752T424 791H515Q503 714 458 670T340 626Z" />
<glyph unicode="&#x120;" glyph-name="Gdotaccent" horiz-adv-x="719" d="M356 -13Q269 -13 208 8T109 68T53 161T35 281Q35 392 69 476T160 618T293 704T453 733Q535 733 595 719T689 685L675 510H560L537 598Q522 609 501 615T443 622Q393 622 355 596T290 522T249
407T235 256Q235 178 268 138T373 97Q387 97 400 100T425 108L450 252L387 268L402 350H709L694 268L637 252L599 21Q578 13 547 7T483 -3T416 -10T356 -13ZM461 774Q421 774 394 797T367 859Q367 904 396 928T466 953Q507 953 533 930T560 868Q560 823 531 799T461
774Z" />
<glyph unicode="&#x121;" glyph-name="gdotaccent" horiz-adv-x="567" d="M232 -221Q86 -221 17 -184T-53 -89Q-53 -63 -38 -42T2 -5T57 22T116 41Q72 69 72 113Q72 148 94 178T151 234Q108 252 82 284T56 366Q56 412 75 449T126 512T203 552T299 567Q330 567
361 560T416 540L608 572L589 464L484 473V469Q498 453 505 433T513 392Q513 352 497 319T450 261T374 223T270 209Q243 209 219 212Q213 204 210 198T206 184Q206 170 227 161T271 145L350 123Q425 103 467 65T509 -34Q509 -73 494 -107T444 -166T358 -206T232
-221ZM172 12Q160 6 148 -2T127 -21T111 -44T104 -72Q104 -134 226 -134Q286 -134 315 -117T344 -75Q344 -52 322 -39T264 -15L172 12ZM270 283Q289 283 303 294T328 326T344 373T350 431Q350 467 337 478T304 490Q285 490 270 479T245 449T229 403T223 345Q223
310 235 297T270 283ZM339 617Q299 617 272 640T245 702Q245 747 274 771T344 796Q385 796 411 773T438 711Q438 666 409 642T339 617Z" />
<glyph unicode="&#x122;" glyph-name="Gcommaaccent" horiz-adv-x="719" d="M356 -13Q269 -13 208 8T109 68T53 161T35 281Q35 392 69 476T160 618T293 704T453 733Q535 733 595 719T689 685L675 510H560L537 598Q522 609 501 615T443 622Q393 622 355 596T290
522T249 407T235 256Q235 178 268 138T373 97Q387 97 400 100T425 108L450 252L387 268L402 350H709L694 268L637 252L599 21Q578 13 547 7T483 -3T416 -10T356 -13ZM165 -244Q208 -240 236 -232T281 -212T305 -186T312 -156Q304 -166 292 -173T256 -181Q227 -181
210 -163T193 -118Q193 -99 202 -85T225 -61T257 -46T293 -41Q343 -41 372 -66T401 -140Q401 -180 383 -208T334 -254T261 -282T173 -293L165 -244Z" />
<glyph unicode="&#x123;" glyph-name="gcommaaccent" horiz-adv-x="567" d="M232 -221Q86 -221 17 -184T-53 -89Q-53 -63 -38 -42T2 -5T57 22T116 41Q72 69 72 113Q72 148 94 178T151 234Q108 252 82 284T56 366Q56 412 75 449T126 512T203 552T299 567Q330 567
361 560T416 540L608 572L589 464L484 473V469Q498 453 505 433T513 392Q513 352 497 319T450 261T374 223T270 209Q243 209 219 212Q213 204 210 198T206 184Q206 170 227 161T271 145L350 123Q425 103 467 65T509 -34Q509 -73 494 -107T444 -166T358 -206T232
-221ZM172 12Q160 6 148 -2T127 -21T111 -44T104 -72Q104 -134 226 -134Q286 -134 315 -117T344 -75Q344 -52 322 -39T264 -15L172 12ZM270 283Q289 283 303 294T328 326T344 373T350 431Q350 467 337 478T304 490Q285 490 270 479T245 449T229 403T223 345Q223
310 235 297T270 283ZM465 817Q421 813 393 805T349 785T325 759T318 729Q326 739 338 746T374 754Q403 754 420 736T437 691Q437 672 428 658T405 634T373 619T337 614Q287 614 258 639T229 713Q229 753 247 781T296 827T369 855T457 866L465 817Z" />
<glyph unicode="&#x124;" glyph-name="Hcircumflex" horiz-adv-x="784" d="M-15 81L57 99L150 623L84 640L98 721H428L414 640L352 624L316 417H513L549 624L492 640L506 721H835L821 640L750 623L657 99L723 81L709 0H379L393 81L456 97L496 321H299L259 97L315
81L301 0H-29L-15 81ZM289 810L453 951H537L659 810L623 769L484 831L315 769L289 810Z" />
<glyph unicode="&#x125;" glyph-name="hcircumflex" horiz-adv-x="656" d="M437 -11Q402 -11 378 8T353 73Q353 92 357 111L411 368Q416 394 410 409T380 425Q349 425 325 409T278 370L199 0H18L161 672L96 689L110 768L346 793L361 784L298 471H304Q342 513 388
540T494 567Q548 567 576 538T605 452Q605 426 599 396L536 100Q553 102 569 106T599 114Q614 118 626 122L603 34Q574 15 530 2T437 -11ZM244 860L408 1001H492L614 860L578 819L439 881L270 819L244 860Z" />
<glyph unicode="&#x126;" glyph-name="Hbar" horiz-adv-x="784" d="M49 558H138L151 628L85 645L98 721H428L415 645L353 629L340 558H537L550 629L493 645L506 721H835L822 645L751 628L738 558H828L816 491H726L657 99L723 81L709 0H379L393 81L456 97L495 315H298L259
97L315 81L301 0H-29L-15 81L57 99L126 491H37L49 558ZM511 405L526 491H329L314 405H511Z" />
<glyph unicode="&#x127;" glyph-name="hbar" horiz-adv-x="656" d="M85 694H165L183 776L346 793L361 784L343 694H508L495 618H327L298 471H304Q342 509 388 535T494 562Q548 562 576 533T605 452Q605 426 599 396L536 100Q553 102 569 106T599 114Q614 118 626
122L603 34Q574 15 530 2T437 -11Q402 -11 378 8T353 73Q353 92 357 111L411 368Q416 394 410 409T380 425Q349 425 325 409T278 370L199 0H18L149 618H72L85 694Z" />
<glyph unicode="&#x128;" glyph-name="Itilde" horiz-adv-x="382" d="M-18 81L55 99L148 623L81 640L95 721H436L422 640L349 623L256 99L323 81L309 0H-32L-18 81ZM78 814Q105 866 137 900T211 935Q228 935 250 930T295 919T337 907T368 902Q385 902 399 914T425
943L483 905Q456 853 425 819T351 784Q334 784 312 789T267 800T225 812T193 817Q176 817 163 806T136 776L78 814Z" />
<glyph unicode="&#x129;" glyph-name="itilde" horiz-adv-x="355" d="M232 103Q250 105 267 109T297 117Q312 121 325 125L302 37Q273 18 228 5T133 -8Q98 -8 73 9T48 72Q48 88 53 111L125 436Q107 433 90 429T60 422Q44 418 31 414L50 502Q65 514 87 526T135
547T187 561T236 567Q250 567 263 564T288 552T305 530T312 494Q312 486 311 478T308 461L232 103ZM42 665Q69 717 101 751T175 786Q192 786 213 781T254 770T293 758T322 753Q339 753 353 765T379 794L437 756Q410 704 379 670T305 635Q288 635 267 640T226 651T187
663T157 668Q140 668 127 657T100 627L42 665Z" />
<glyph unicode="&#x12a;" glyph-name="Imacron" horiz-adv-x="382" d="M-18 81L55 99L148 623L81 640L95 721H436L422 640L349 623L256 99L323 81L309 0H-32L-18 81ZM129 890H461L445 797H113L129 890Z" />
<glyph unicode="&#x12b;" glyph-name="imacron" horiz-adv-x="355" d="M106 747H395L379 654H90L106 747ZM232 103Q250 105 267 109T297 117Q312 121 325 125L302 37Q273 18 228 5T133 -8Q98 -8 73 9T48 72Q48 88 53 111L125 436Q107 433 90 429T60 422Q44 418
31 414L50 502Q65 514 87 526T135 547T187 561T236 567Q250 567 263 564T288 552T305 530T312 494Q312 486 311 478T308 461L232 103Z" />
<glyph unicode="&#x12c;" glyph-name="Ibreve" horiz-adv-x="382" d="M-18 81L55 99L148 623L81 640L95 721H436L422 640L349 623L256 99L323 81L309 0H-32L-18 81ZM285 779Q248 779 218 790T165 823T132 875T120 943H211Q214 923 232 907T288 890Q328 890 347
904T375 943H466Q455 862 408 821T285 779Z" />
<glyph unicode="&#x12d;" glyph-name="ibreve" horiz-adv-x="355" d="M232 103Q250 105 267 109T297 117Q312 121 325 125L302 37Q273 18 228 5T133 -8Q98 -8 73 9T48 72Q48 88 53 111L125 436Q107 433 90 429T60 422Q44 418 31 414L50 502Q65 514 87 526T135
547T187 561T236 567Q250 567 263 564T288 552T305 530T312 494Q312 486 311 478T308 461L232 103ZM498 626Q425 626 383 669T341 791H432Q435 768 451 753T502 737Q537 737 555 752T582 791H673Q661 714 616 670T498 626Z" />
<glyph unicode="&#x12e;" glyph-name="Iogonek" horiz-adv-x="382" d="M-18 81L55 99L148 623L81 640L95 721H436L422 640L349 623L256 99L323 81L309 0H234Q203 -29 187 -56T171 -105Q171 -136 207 -136Q218 -136 226 -134T246 -130L235 -202Q218 -211 192 -216T142
-222Q73 -222 44 -196T15 -133Q15 -111 26 -91T54 -54T93 -23T138 0H-32L-18 81Z" />
<glyph unicode="&#x12f;" glyph-name="iogonek" horiz-adv-x="355" d="M153 -222Q84 -222 55 -196T26 -136Q26 -114 35 -96T61 -61T100 -33T147 -11H133Q98 -11 73 8T48 72Q48 88 53 111L125 436Q107 433 90 429T60 422Q44 418 31 414L50 502Q65 514 87 526T135
547T187 561T236 567Q250 567 263 564T288 552T305 530T312 494Q312 486 311 478T308 461L232 100Q250 102 267 106T297 114Q312 118 325 122L302 34Q281 19 260 2T222 -33T193 -69T182 -105Q182 -136 218 -136Q229 -136 237 -134T257 -130L246 -202Q229 -211 203
-216T153 -222ZM237 617Q197 617 170 640T143 702Q143 747 172 771T242 796Q283 796 309 773T336 711Q336 666 307 642T237 617Z" />
<glyph unicode="&#x130;" glyph-name="Idotaccent" horiz-adv-x="382" d="M-18 81L55 99L148 623L81 640L95 721H436L422 640L349 623L256 99L323 81L309 0H-32L-18 81ZM277 774Q237 774 210 797T183 859Q183 904 212 928T282 953Q323 953 349 930T376 868Q376
823 347 799T277 774Z" />
<glyph unicode="&#x131;" glyph-name="dotlessi" horiz-adv-x="355" d="M232 103Q250 105 267 109T297 117Q312 121 325 125L302 37Q273 18 228 5T133 -8Q98 -8 73 9T48 72Q48 88 53 111L125 436Q107 433 90 429T60 422Q44 418 31 414L50 502Q65 514 87 526T135
547T187 561T236 567Q250 567 263 564T288 552T305 530T312 494Q312 486 311 478T308 461L232 103Z" />
<glyph unicode="&#x132;" glyph-name="IJ" horiz-adv-x="885" d="M-18 81L55 99L148 623L81 640L95 721H436L422 640L349 623L256 99L323 81L309 0H-32L-18 81ZM524 -8Q473 -8 439 3T383 32T353 72T344 116Q344 139 353 157T374 189H488V100Q492 99 496 99T503
99Q535 99 555 124T585 207L659 623L593 640L607 721H943L929 640L861 623L786 199Q769 102 704 47T524 -8Z" />
<glyph unicode="&#x133;" glyph-name="ij" horiz-adv-x="669" d="M232 100Q250 102 267 106T297 114Q312 118 325 122L302 34Q273 15 228 2T133 -11Q98 -11 73 8T48 72Q48 88 53 111L125 436Q107 433 90 429T60 422Q44 418 31 414L50 502Q65 514 87 526T135 547T187
561T236 567Q250 567 263 564T288 552T305 530T312 494Q312 486 311 478T308 461L232 100ZM237 617Q197 617 170 640T143 702Q143 747 172 771T242 796Q283 796 309 773T336 711Q336 666 307 642T237 617ZM294 -216Q260 -216 234 -208T191 -185T164 -153T155 -117Q155
-101 162 -86T183 -61H277V-134H283Q299 -134 311 -130T334 -112T351 -76T367 -15L458 436Q441 433 424 429T394 422Q378 418 365 414L384 502Q399 514 421 526T469 547T521 561T570 567Q584 567 597 564T622 553T639 530T646 495Q646 478 642 461L551 19Q537 -50
512 -95T454 -167T380 -205T294 -216ZM571 617Q531 617 504 640T477 702Q477 747 506 771T576 796Q617 796 643 773T670 711Q670 666 641 642T571 617Z" />
<glyph unicode="&#x134;" glyph-name="Jcircumflex" horiz-adv-x="538" d="M165 -8Q114 -8 79 3T21 32T-12 72T-22 116Q-22 139 -13 157T8 189H128V101Q133 99 138 99T150 99Q188 99 208 125T240 218L312 623L246 640L260 721H596L582 640L514 623L442 215Q423
106 355 49T165 -8ZM251 810L415 951H499L621 810L585 769L446 831L277 769L251 810Z" />
<glyph unicode="&#x135;" glyph-name="jcircumflex" horiz-adv-x="334" d="M-40 -216Q-74 -216 -100 -208T-143 -185T-170 -153T-179 -117Q-179 -101 -172 -86T-151 -61H-57V-134H-51Q-35 -134 -23 -130T0 -112T17 -76T33 -15L122 436Q105 433 89 429T59 422Q44
418 31 414L50 502Q65 514 87 526T135 547T187 561T236 567Q250 567 263 564T288 553T305 530T312 495Q312 478 308 461L217 19Q203 -50 178 -95T120 -167T46 -205T-40 -216ZM306 650L468 803H552L664 650L628 609L496 683L332 609L306 650Z" />
<glyph unicode="&#x136;" glyph-name="Kcommaaccent" horiz-adv-x="743" d="M-17 81L55 99L148 623L82 640L96 721H425L411 640L349 624L303 367L563 624L505 640L519 721H787L773 640L710 621L500 421L637 98L691 81L677 0H465L345 293L284 255L256 97L312 81L298
0H-31L-17 81ZM183 -244Q226 -240 254 -232T299 -212T323 -186T330 -156Q322 -166 310 -173T274 -181Q245 -181 228 -163T211 -118Q211 -99 220 -85T243 -61T275 -46T311 -41Q361 -41 390 -66T419 -140Q419 -180 401 -208T352 -254T279 -282T191 -293L183 -244Z"
/>
<glyph unicode="&#x137;" glyph-name="kcommaaccent" horiz-adv-x="640" d="M155 672L90 689L104 768L340 793L355 784L260 311L289 313Q312 314 329 323T361 352T390 401T421 475Q441 528 475 547T550 567Q564 567 578 563T603 552T623 538T633 525L619 436H540Q519
400 492 369T433 315L515 100Q532 102 546 106T572 114L596 122L573 34Q545 15 518 2T452 -11Q416 -11 392 6T351 56T321 132T295 232H245L199 0H18L155 672ZM377 -244Q420 -240 448 -232T493 -212T517 -186T524 -156Q516 -166 504 -173T468 -181Q439 -181 422
-163T405 -118Q405 -99 414 -85T437 -61T469 -46T505 -41Q555 -41 584 -66T613 -140Q613 -180 595 -208T546 -254T473 -282T385 -293L377 -244Z" />
<glyph unicode="&#x139;" glyph-name="Lacute" horiz-adv-x="616" d="M-16 81L56 99L149 623L83 640L97 721H442L428 640L351 624L259 101H417L478 247H587L540 0H-30L-16 81ZM139 832L392 967L436 833L160 765L139 832Z" />
<glyph unicode="&#x13a;" glyph-name="lacute" horiz-adv-x="345" d="M218 100Q237 102 254 106T286 115Q302 119 316 124L293 36Q263 16 219 3T121 -11Q86 -11 62 8T37 73Q37 92 41 111L155 673L88 690L101 768L340 793L354 785L218 100ZM142 882L395 1017L439
883L163 815L142 882Z" />
<glyph unicode="&#x13b;" glyph-name="Lcommaaccent" horiz-adv-x="616" d="M-16 81L56 99L149 623L83 640L97 721H442L428 640L351 624L259 101H417L478 247H587L540 0H-30L-16 81ZM371 -244Q414 -240 442 -232T487 -212T511 -186T518 -156Q510 -166 498 -173T462
-181Q433 -181 416 -163T399 -118Q399 -99 408 -85T431 -61T463 -46T499 -41Q549 -41 578 -66T607 -140Q607 -180 589 -208T540 -254T467 -282T379 -293L371 -244Z" />
<glyph unicode="&#x13c;" glyph-name="lcommaaccent" horiz-adv-x="345" d="M218 100Q237 102 254 106T286 115Q302 119 316 124L293 36Q263 16 219 3T121 -11Q86 -11 62 8T37 73Q37 92 41 111L155 673L88 690L101 768L340 793L354 785L218 100ZM-22 -244Q21 -240
49 -232T94 -212T118 -186T125 -156Q117 -166 105 -173T69 -181Q40 -181 23 -163T6 -118Q6 -99 15 -85T38 -61T70 -46T106 -41Q156 -41 185 -66T214 -140Q214 -180 196 -208T147 -254T74 -282T-14 -293L-22 -244Z" />
<glyph unicode="&#x13d;" glyph-name="Lcaron" horiz-adv-x="616" d="M-16 81L56 99L149 623L83 640L97 721H442L428 640L351 624L259 101H417L478 247H587L540 0H-30L-16 81ZM454 545Q468 585 481 639T502 741H648Q631 681 603 634T540 545H454Z" />
<glyph unicode="&#x13e;" glyph-name="lcaron" horiz-adv-x="345" d="M218 100Q237 102 254 106T286 115Q302 119 316 124L293 36Q263 16 219 3T121 -11Q86 -11 62 8T37 73Q37 92 41 111L155 673L88 690L101 768L340 793L354 785L218 100ZM358 595Q372 635 385
689T406 791H552Q535 731 507 684T444 595H358Z" />
<glyph unicode="&#x13f;" glyph-name="Ldot" horiz-adv-x="641" d="M552 310Q510 310 487 336T464 396Q464 439 490 466T559 493Q600 493 623 467T647 405Q647 364 620 337T552 310ZM-16 81L56 99L149 623L83 640L97 721H442L428 640L351 624L259 101H417L474
223H583L540 0H-30L-16 81Z" />
<glyph unicode="&#x140;" glyph-name="ldot" horiz-adv-x="475" d="M422 294Q383 294 359 320T334 381Q334 417 358 442T422 468Q460 468 485 443T510 381Q510 346 485 320T422 294ZM218 100Q237 102 254 106T286 115Q302 119 316 124L293 36Q263 16 219 3T121
-11Q86 -11 62 8T37 73Q37 92 41 111L155 673L88 690L101 768L340 793L354 785L218 100Z" />
<glyph unicode="&#x141;" glyph-name="Lslash" horiz-adv-x="616" d="M-16 81L56 99L83 249L4 223L21 325L101 352L149 623L83 640L97 721H442L428 640L351 624L316 425L514 492L496 390L298 322L259 101H417L478 247H587L540 0H-30L-16 81Z" />
<glyph unicode="&#x142;" glyph-name="lslash" horiz-adv-x="345" d="M298 502L377 537L356 437L278 402L218 100Q237 102 254 106T286 115Q302 119 316 124L293 36Q263 16 219 3T121 -11Q86 -11 62 8T37 73Q37 92 41 111L82 316L8 283L28 383L103 416L155 673L88
690L101 768L340 793L354 785L298 502Z" />
<glyph unicode="&#x143;" glyph-name="Nacute" horiz-adv-x="751" d="M-15 81L58 99L151 623L84 640L98 721H367L475 443Q488 409 499 373T519 307Q529 272 537 238H542L610 622L541 640L555 721H809L795 640L731 623L621 0H456L321 337Q307 370 297 405T278 471Q269
506 262 540H258L180 98L249 81L235 0H-29L-15 81ZM353 832L606 967L650 833L374 765L353 832Z" />
<glyph unicode="&#x144;" glyph-name="nacute" horiz-adv-x="667" d="M547 100Q564 102 580 106T610 114Q625 118 637 122L614 34Q585 15 541 2T448 -11Q413 -11 389 8T364 73Q364 92 368 111L422 368Q427 394 421 409T391 425Q360 425 336 409T289 370L211 0H29L122
435Q104 432 88 428T58 421Q43 417 30 414L49 502Q64 514 85 526T131 547T180 561T228 567Q244 567 259 563T286 549T302 520T305 475L304 467H310Q352 511 398 539T505 567Q559 567 587 538T616 452Q616 426 610 396L547 100ZM267 680L514 824L563 692L290 614L267
680Z" />
<glyph unicode="&#x145;" glyph-name="Ncommaaccent" horiz-adv-x="751" d="M-15 81L58 99L151 623L84 640L98 721H367L475 443Q488 409 499 373T519 307Q529 272 537 238H542L610 622L541 640L555 721H809L795 640L731 623L621 0H456L321 337Q307 370 297 405T278
471Q269 506 262 540H258L180 98L249 81L235 0H-29L-15 81ZM191 -244Q234 -240 262 -232T307 -212T331 -186T338 -156Q330 -166 318 -173T282 -181Q253 -181 236 -163T219 -118Q219 -99 228 -85T251 -61T283 -46T319 -41Q369 -41 398 -66T427 -140Q427 -180 409
-208T360 -254T287 -282T199 -293L191 -244Z" />
<glyph unicode="&#x146;" glyph-name="ncommaaccent" horiz-adv-x="667" d="M547 100Q564 102 580 106T610 114Q625 118 637 122L614 34Q585 15 541 2T448 -11Q413 -11 389 8T364 73Q364 92 368 111L422 368Q427 394 421 409T391 425Q360 425 336 409T289 370L211
0H29L122 435Q104 432 88 428T58 421Q43 417 30 414L49 502Q64 514 85 526T131 547T180 561T228 567Q244 567 259 563T286 549T302 520T305 475L304 467H310Q352 511 398 539T505 567Q559 567 587 538T616 452Q616 426 610 396L547 100ZM158 -244Q201 -240 229
-232T274 -212T298 -186T305 -156Q297 -166 285 -173T249 -181Q220 -181 203 -163T186 -118Q186 -99 195 -85T218 -61T250 -46T286 -41Q336 -41 365 -66T394 -140Q394 -180 376 -208T327 -254T254 -282T166 -293L158 -244Z" />
<glyph unicode="&#x147;" glyph-name="Ncaron" horiz-adv-x="751" d="M-15 81L58 99L151 623L84 640L98 721H367L475 443Q488 409 499 373T519 307Q529 272 537 238H542L610 622L541 640L555 721H809L795 640L731 623L621 0H456L321 337Q307 370 297 405T278 471Q269
506 262 540H258L180 98L249 81L235 0H-29L-15 81ZM685 922L521 781H437L315 922L351 963L490 901L659 963L685 922Z" />
<glyph unicode="&#x148;" glyph-name="ncaron" horiz-adv-x="667" d="M547 100Q564 102 580 106T610 114Q625 118 637 122L614 34Q585 15 541 2T448 -11Q413 -11 389 8T364 73Q364 92 368 111L422 368Q427 394 421 409T391 425Q360 425 336 409T289 370L211 0H29L122
435Q104 432 88 428T58 421Q43 417 30 414L49 502Q64 514 85 526T131 547T180 561T228 567Q244 567 259 563T286 549T302 520T305 475L304 467H310Q352 511 398 539T505 567Q559 567 587 538T616 452Q616 426 610 396L547 100ZM592 774L430 621H346L234 774L270
815L402 741L566 815L592 774Z" />
<glyph unicode="&#x149;" glyph-name="napostrophe" horiz-adv-x="752" d="M632 100Q649 102 665 106T695 114Q710 118 722 122L699 34Q670 15 626 2T533 -11Q498 -11 474 8T449 73Q449 92 453 111L507 368Q512 394 506 409T476 425Q445 425 421 409T374 370L296
0H114L207 435Q189 432 173 428T143 421Q128 417 115 414L134 502Q149 514 170 526T216 547T265 561T313 567Q329 567 344 563T371 549T387 520T390 475L389 467H395Q437 511 483 539T590 567Q644 567 672 538T701 452Q701 426 695 396L632 100ZM15 733Q64 733
92 701T120 623Q120 590 109 554T69 484T-4 423T-119 379L-137 430Q-68 459 -33 494T13 576Q6 571 -3 568T-26 566Q-51 568 -69 587T-87 639Q-87 660 -79 677T-56 707T-23 726T15 733Z" />
<glyph unicode="&#x14a;" glyph-name="Eng" horiz-adv-x="739" d="M-18 81L55 99L148 623L81 640L95 721H364L472 457Q486 421 498 386T520 321Q531 288 538 258H543L607 622L542 640L556 721H806L792 640L728 623L618 2Q602 -89 551 -137T418 -186Q376 -186 347
-177T300 -151T274 -116T265 -75Q265 -53 272 -37T291 -9H405V-88Q411 -90 419 -90Q443 -90 458 -78T484 -42L322 341Q308 375 296 410T276 475Q266 508 259 540H255L177 98L240 81L226 0H-32L-18 81Z" />
<glyph unicode="&#x14b;" glyph-name="eng" horiz-adv-x="646" d="M422 368Q427 394 421 409T391 425Q360 425 336 409T289 370L211 0H29L122 435Q104 432 88 428T58 421Q43 417 30 414L49 502Q64 514 85 526T131 547T180 561T228 567Q244 567 259 563T286 549T302
520T305 475L304 467H310Q352 512 398 539T505 567Q559 567 587 538T616 452Q616 426 610 396L542 49Q526 -31 500 -82T440 -163T364 -204T277 -216Q243 -216 218 -208T177 -185T152 -153T144 -117Q144 -101 151 -86T172 -61H260V-134H266Q282 -134 295 -129T319
-110T338 -69T355 2L422 368Z" />
<glyph unicode="&#x14c;" glyph-name="Omacron" horiz-adv-x="730" d="M337 -11Q265 -11 209 10T115 70T56 165T35 290Q35 397 68 479T154 618T275 704T412 733Q484 733 541 712T637 652T697 558T718 433Q718 325 687 242T602 103T481 18T337 -11ZM343 96Q385
96 417 129T471 216T504 341T516 488Q516 559 489 592T409 626Q368 626 336 594T281 507T247 382T235 236Q235 164 261 130T343 96ZM294 890H626L610 797H278L294 890Z" />
<glyph unicode="&#x14d;" glyph-name="omacron" horiz-adv-x="606" d="M267 -13Q209 -13 163 5T85 54T35 129T18 224Q18 299 42 362T110 471T214 542T346 568Q401 568 446 549T523 497T572 421T590 330Q590 256 568 193T505 85T403 13T267 -13ZM277 83Q302 83
324 101T363 156T390 244T400 364Q400 410 384 440T329 471Q304 471 282 452T243 397T216 309T206 190Q206 142 223 113T277 83ZM215 747H547L531 654H199L215 747Z" />
<glyph unicode="&#x14e;" glyph-name="Obreve" horiz-adv-x="730" d="M337 -11Q265 -11 209 10T115 70T56 165T35 290Q35 397 68 479T154 618T275 704T412 733Q484 733 541 712T637 652T697 558T718 433Q718 325 687 242T602 103T481 18T337 -11ZM343 96Q385 96
417 129T471 216T504 341T516 488Q516 559 489 592T409 626Q368 626 336 594T281 507T247 382T235 236Q235 164 261 130T343 96ZM450 779Q413 779 383 790T330 823T297 875T285 943H376Q379 923 397 907T453 890Q493 890 512 904T540 943H631Q620 862 573 821T450
779Z" />
<glyph unicode="&#x14f;" glyph-name="obreve" horiz-adv-x="606" d="M267 -13Q209 -13 163 5T85 54T35 129T18 224Q18 299 42 362T110 471T214 542T346 568Q401 568 446 549T523 497T572 421T590 330Q590 256 568 193T505 85T403 13T267 -13ZM277 83Q302 83 324
101T363 156T390 244T400 364Q400 410 384 440T329 471Q304 471 282 452T243 397T216 309T206 190Q206 142 223 113T277 83ZM363 626Q290 626 248 669T206 791H297Q300 768 316 753T367 737Q402 737 420 752T447 791H538Q526 714 481 670T363 626Z" />
<glyph unicode="&#x150;" glyph-name="Ohungarumlaut" horiz-adv-x="730" d="M337 -11Q265 -11 209 10T115 70T56 165T35 290Q35 397 68 479T154 618T275 704T412 733Q484 733 541 712T637 652T697 558T718 433Q718 325 687 242T602 103T481 18T337 -11ZM343 96Q385
96 417 129T471 216T504 341T516 488Q516 559 489 592T409 626Q368 626 336 594T281 507T247 382T235 236Q235 164 261 130T343 96ZM305 799L408 978L514 890L345 762L305 799ZM504 799L607 978L713 890L544 762L504 799Z" />
<glyph unicode="&#x151;" glyph-name="ohungarumlaut" horiz-adv-x="606" d="M267 -13Q209 -13 163 5T85 54T35 129T18 224Q18 299 42 362T110 471T214 542T346 568Q401 568 446 549T523 497T572 421T590 330Q590 256 568 193T505 85T403 13T267 -13ZM277 83Q302
83 324 101T363 156T390 244T400 364Q400 410 384 440T329 471Q304 471 282 452T243 397T216 309T206 190Q206 142 223 113T277 83ZM209 636L318 829L428 746L253 600L209 636ZM413 636L522 829L632 746L457 600L413 636Z" />
<glyph unicode="&#x152;" glyph-name="OE" horiz-adv-x="996" d="M407 105L498 617H430Q382 617 346 593T286 521T250 406T238 249Q238 205 246 178T271 134T312 111T369 105H407ZM348 0Q277 0 219 16T119 68T55 157T32 286Q32 383 59 463T138 601T262 689T428
721H1003L988 518H890L870 622H691L654 414H726L753 483H836L803 251H720L714 321H638L599 100H801L859 226H962L919 0H348Z" />
<glyph unicode="&#x153;" glyph-name="oe" horiz-adv-x="907" d="M627 -12Q554 -12 512 12T450 81Q415 37 367 12T258 -13Q201 -13 157 5T81 54T34 129T18 224Q18 299 42 362T108 471T208 542T331 568Q400 568 445 538T512 456Q551 508 608 537T739 567Q775 567
807 558T862 532T898 489T912 432Q912 382 887 346T816 287T708 250T572 231V216Q572 156 597 131T681 106Q713 106 751 114T829 142L806 48Q778 26 731 7T627 -12ZM274 83Q298 83 319 101T357 156T382 244T392 364Q392 410 377 440T324 471Q300 471 279 452T241
397T216 309T206 190Q206 142 221 113T274 83ZM704 476Q681 476 662 463T627 428T600 376T581 312Q662 320 702 345T742 424Q742 476 704 476Z" />
<glyph unicode="&#x154;" glyph-name="Racute" horiz-adv-x="715" d="M-17 81L57 99L150 621L84 640L98 721H432Q497 721 545 707T624 668T671 607T686 530Q686 483 672 450T635 393T583 355T523 332V328L623 96L665 81L651 0H454L343 291H293L259 97L312 81L298
0H-31L-17 81ZM380 385Q441 385 465 427T490 536Q490 579 468 599T405 619H347L306 385H380ZM276 832L529 967L573 833L297 765L276 832Z" />
<glyph unicode="&#x155;" glyph-name="racute" horiz-adv-x="524" d="M374 370V433Q349 419 328 401T287 360L211 0H29L122 435Q104 432 88 428T58 421Q43 417 30 414L49 502Q64 514 85 526T131 547T180 561T228 567Q244 567 258 563T283 549T299 521T301 477L299
462H305Q344 521 384 544T460 568Q496 568 518 545T540 489Q540 455 525 423T492 370H374ZM211 680L458 824L507 692L234 614L211 680Z" />
<glyph unicode="&#x156;" glyph-name="Rcommaaccent" horiz-adv-x="715" d="M-17 81L57 99L150 621L84 640L98 721H432Q497 721 545 707T624 668T671 607T686 530Q686 483 672 450T635 393T583 355T523 332V328L623 96L665 81L651 0H454L343 291H293L259 97L312
81L298 0H-31L-17 81ZM380 385Q441 385 465 427T490 536Q490 579 468 599T405 619H347L306 385H380ZM192 -244Q235 -240 263 -232T308 -212T332 -186T339 -156Q331 -166 319 -173T283 -181Q254 -181 237 -163T220 -118Q220 -99 229 -85T252 -61T284 -46T320 -41Q370
-41 399 -66T428 -140Q428 -180 410 -208T361 -254T288 -282T200 -293L192 -244Z" />
<glyph unicode="&#x157;" glyph-name="rcommaaccent" horiz-adv-x="524" d="M374 370V433Q349 419 328 401T287 360L211 0H29L122 435Q104 432 88 428T58 421Q43 417 30 414L49 502Q64 514 85 526T131 547T180 561T228 567Q244 567 258 563T283 549T299 521T301
477L299 462H305Q344 521 384 544T460 568Q496 568 518 545T540 489Q540 455 525 423T492 370H374ZM-36 -244Q7 -240 35 -232T80 -212T104 -186T111 -156Q103 -166 91 -173T55 -181Q26 -181 9 -163T-8 -118Q-8 -99 1 -85T24 -61T56 -46T92 -41Q142 -41 171 -66T200
-140Q200 -180 182 -208T133 -254T60 -282T-28 -293L-36 -244Z" />
<glyph unicode="&#x158;" glyph-name="Rcaron" horiz-adv-x="715" d="M-17 81L57 99L150 621L84 640L98 721H432Q497 721 545 707T624 668T671 607T686 530Q686 483 672 450T635 393T583 355T523 332V328L623 96L665 81L651 0H454L343 291H293L259 97L312 81L298
0H-31L-17 81ZM380 385Q441 385 465 427T490 536Q490 579 468 599T405 619H347L306 385H380ZM608 922L444 781H360L238 922L274 963L413 901L582 963L608 922Z" />
<glyph unicode="&#x159;" glyph-name="rcaron" horiz-adv-x="524" d="M374 370V433Q349 419 328 401T287 360L211 0H29L122 435Q104 432 88 428T58 421Q43 417 30 414L49 502Q64 514 85 526T131 547T180 561T228 567Q244 567 258 563T283 549T299 521T301 477L299
462H305Q344 521 384 544T460 568Q496 568 518 545T540 489Q540 455 525 423T492 370H374ZM536 774L374 621H290L178 774L214 815L346 741L510 815L536 774Z" />
<glyph unicode="&#x15a;" glyph-name="Sacute" horiz-adv-x="573" d="M240 -12Q153 -12 93 2T-11 41L10 203H125L137 119Q152 109 173 100T228 91Q277 91 308 113T339 184Q339 214 321 237T251 287L213 307Q147 342 111 386T75 501Q75 557 95 600T153 672T241
717T353 733Q398 733 431 730T490 720T535 705T571 688L557 543H441L429 605Q417 613 399 622T347 632Q302 632 277 612T252 548Q252 522 269 501T332 456L369 436Q406 416 435 397T485 355T516 307T527 246Q527 122 453 55T240 -12ZM239 832L492 967L536 833L260
765L239 832Z" />
<glyph unicode="&#x15b;" glyph-name="sacute" horiz-adv-x="476" d="M184 -14Q131 -14 92 -4T28 23T-10 62T-23 108Q-23 127 -15 142T5 169H122V90Q135 84 150 80T182 76Q220 76 244 91T268 136Q268 149 263 158T249 175T227 190T195 205L161 221Q108 246 82
283T55 378Q55 420 70 454T116 514T189 553T287 567Q381 567 425 536T469 459Q469 445 462 427T443 396H328V470Q319 475 309 477T287 480Q251 480 231 466T211 422Q211 403 225 388T276 356L310 340Q367 313 400 276T434 181Q434 141 419 106T372 44T293 2T184
-14ZM435 680L682 824L731 692L458 614L435 680Z" />
<glyph unicode="&#x15c;" glyph-name="Scircumflex" horiz-adv-x="573" d="M240 -12Q153 -12 93 2T-11 41L10 203H125L137 119Q152 109 173 100T228 91Q277 91 308 113T339 184Q339 214 321 237T251 287L213 307Q147 342 111 386T75 501Q75 557 95 600T153 672T241
717T353 733Q398 733 431 730T490 720T535 705T571 688L557 543H441L429 605Q417 613 399 622T347 632Q302 632 277 612T252 548Q252 522 269 501T332 456L369 436Q406 416 435 397T485 355T516 307T527 246Q527 122 453 55T240 -12ZM174 810L338 951H422L544 810L508
769L369 831L200 769L174 810Z" />
<glyph unicode="&#x15d;" glyph-name="scircumflex" horiz-adv-x="476" d="M184 -14Q131 -14 92 -4T28 23T-10 62T-23 108Q-23 127 -15 142T5 169H122V90Q135 84 150 80T182 76Q220 76 244 91T268 136Q268 149 263 158T249 175T227 190T195 205L161 221Q108 246
82 283T55 378Q55 420 70 454T116 514T189 553T287 567Q381 567 425 536T469 459Q469 445 462 427T443 396H328V470Q319 475 309 477T287 480Q251 480 231 466T211 422Q211 403 225 388T276 356L310 340Q367 313 400 276T434 181Q434 141 419 106T372 44T293 2T184
-14ZM367 650L529 803H613L725 650L689 609L557 683L393 609L367 650Z" />
<glyph unicode="&#x15e;" glyph-name="Scedilla" horiz-adv-x="573" d="M79 -185Q149 -182 176 -174T203 -143Q203 -131 190 -123T132 -109L154 -7Q101 -2 61 10T-11 41L10 203H125L137 119Q152 109 173 100T228 91Q277 91 308 113T339 184Q339 214 321 237T251
287L213 307Q147 342 111 386T75 501Q75 557 95 600T153 672T241 717T353 733Q398 733 431 730T490 720T535 705T571 688L557 543H441L429 605Q417 613 399 622T347 632Q302 632 277 612T252 548Q252 522 269 501T332 456L369 436Q406 416 435 397T485 355T516
307T527 246Q527 122 453 55T240 -12H228L217 -59Q277 -66 302 -84T328 -134Q328 -159 316 -179T273 -212T193 -233T69 -241L79 -185Z" />
<glyph unicode="&#x15f;" glyph-name="scedilla" horiz-adv-x="476" d="M32 -185Q102 -182 129 -174T156 -143Q156 -131 143 -123T85 -109L107 -7Q41 5 9 37T-23 108Q-23 127 -15 142T5 169H122V90Q135 84 150 80T182 76Q220 76 244 91T268 136Q268 149 263 158T249
175T227 190T195 205L161 221Q108 246 82 283T55 378Q55 420 70 454T116 514T189 553T287 567Q381 567 425 536T469 459Q469 445 462 427T443 396H328V470Q319 475 309 477T287 480Q251 480 231 466T211 422Q211 403 225 388T276 356L310 340Q367 313 400 276T434
181Q434 141 419 106T372 44T293 2T184 -14H180L170 -59Q230 -66 255 -84T281 -134Q281 -159 269 -179T226 -212T146 -233T22 -241L32 -185Z" />
<glyph unicode="&#x160;" glyph-name="Scaron" horiz-adv-x="573" d="M240 -12Q153 -12 93 2T-11 41L10 203H125L137 119Q152 109 173 100T228 91Q277 91 308 113T339 184Q339 214 321 237T251 287L213 307Q147 342 111 386T75 501Q75 557 95 600T153 672T241
717T353 733Q398 733 431 730T490 720T535 705T571 688L557 543H441L429 605Q417 613 399 622T347 632Q302 632 277 612T252 548Q252 522 269 501T332 456L369 436Q406 416 435 397T485 355T516 307T527 246Q527 122 453 55T240 -12ZM561 922L397 781H313L191 922L227
963L366 901L535 963L561 922Z" />
<glyph unicode="&#x161;" glyph-name="scaron" horiz-adv-x="476" d="M184 -14Q131 -14 92 -4T28 23T-10 62T-23 108Q-23 127 -15 142T5 169H122V90Q135 84 150 80T182 76Q220 76 244 91T268 136Q268 149 263 158T249 175T227 190T195 205L161 221Q108 246 82
283T55 378Q55 420 70 454T116 514T189 553T287 567Q381 567 425 536T469 459Q469 445 462 427T443 396H328V470Q319 475 309 477T287 480Q251 480 231 466T211 422Q211 403 225 388T276 356L310 340Q367 313 400 276T434 181Q434 141 419 106T372 44T293 2T184
-14ZM749 774L587 621H503L391 774L427 815L559 741L723 815L749 774Z" />
<glyph unicode="&#x162;" glyph-name="Tcommaaccent" horiz-adv-x="673" d="M122 81L200 99L293 622H210L164 495H52L99 721H718L693 495H581L574 622H494L401 99L473 81L459 0H108L122 81ZM389 -244Q432 -240 460 -232T505 -212T529 -186T536 -156Q528 -166 516
-173T480 -181Q451 -181 434 -163T417 -118Q417 -99 426 -85T449 -61T481 -46T517 -41Q567 -41 596 -66T625 -140Q625 -180 607 -208T558 -254T485 -282T397 -293L389 -244Z" />
<glyph unicode="&#x163;" glyph-name="tcommaaccent" horiz-adv-x="402" d="M216 98Q242 101 267 107T312 119Q335 126 356 133L333 45Q303 25 257 7T144 -12Q96 -12 68 11T40 86Q40 96 41 107T45 130L114 460H48L64 531L134 555L162 685H340L312 555H425L405
460H292L216 98ZM-9 -244Q34 -240 62 -232T107 -212T131 -186T138 -156Q130 -166 118 -173T82 -181Q53 -181 36 -163T19 -118Q19 -99 28 -85T51 -61T83 -46T119 -41Q169 -41 198 -66T227 -140Q227 -180 209 -208T160 -254T87 -282T-1 -293L-9 -244Z" />
<glyph unicode="&#x164;" glyph-name="Tcaron" horiz-adv-x="673" d="M122 81L200 99L293 622H210L164 495H52L99 721H718L693 495H581L574 622H494L401 99L473 81L459 0H108L122 81ZM618 922L454 781H370L248 922L284 963L423 901L592 963L618 922Z" />
<glyph unicode="&#x165;" glyph-name="tcaron" horiz-adv-x="402" d="M216 98Q242 101 267 107T312 119Q335 126 356 133L333 45Q303 25 257 7T144 -12Q96 -12 68 11T40 86Q40 96 41 107T45 130L114 460H48L64 531L134 555L162 685H340L312 555H425L405 460H292L216
98ZM373 610Q387 650 400 704T421 806H567Q550 746 522 699T459 610H373Z" />
<glyph unicode="&#x166;" glyph-name="Tbar" horiz-adv-x="673" d="M127 415H256L293 622H210L164 495H52L99 721H718L693 495H581L574 622H494L457 415H586L571 329H442L401 99L473 81L459 0H108L122 81L200 99L241 329H112L127 415Z" />
<glyph unicode="&#x167;" glyph-name="tbar" horiz-adv-x="402" d="M274 374H387L369 289H256L216 98Q242 101 267 107T312 119Q335 126 356 133L333 45Q303 25 257 7T144 -12Q96 -12 68 11T40 86Q40 96 41 107T45 130L78 289H13L31 374H96L114 460H48L64 531L134
555L162 685H340L312 555H425L405 460H292L274 374Z" />
<glyph unicode="&#x168;" glyph-name="Utilde" horiz-adv-x="724" d="M361 -13Q281 -13 226 3T137 48T87 116T71 201Q71 215 72 229T76 259L140 623L79 640L93 721H422L408 640L342 624L277 254Q274 238 273 225T272 199Q272 144 299 122T384 99Q406 99 427 104T467
124T499 165T521 235L589 624L528 640L542 721H781L767 640L704 623L633 221Q624 168 603 125T549 51T469 4T361 -13ZM277 814Q304 866 336 900T410 935Q427 935 449 930T494 919T536 907T567 902Q584 902 598 914T624 943L682 905Q655 853 624 819T550 784Q533
784 511 789T466 800T424 812T392 817Q375 817 362 806T335 776L277 814Z" />
<glyph unicode="&#x169;" glyph-name="utilde" horiz-adv-x="659" d="M536 100Q553 102 569 106T599 114Q614 118 626 122L603 34Q574 15 531 2T443 -11Q397 -11 375 14T357 78L358 88H352Q311 43 267 16T162 -12Q108 -12 80 17T51 103Q51 129 57 159L116 435Q98
432 82 428T52 421Q37 417 24 414L43 502Q58 514 78 526T122 547T170 561T217 567Q255 567 280 551T305 489Q305 480 304 470T300 447L245 187Q240 161 246 146T276 130Q307 130 328 146T373 185L451 555H633L536 100ZM189 665Q216 717 248 751T322 786Q339 786
360 781T401 770T440 758T469 753Q486 753 500 765T526 794L584 756Q557 704 526 670T452 635Q435 635 414 640T373 651T334 663T304 668Q287 668 274 657T247 627L189 665Z" />
<glyph unicode="&#x16a;" glyph-name="Umacron" horiz-adv-x="724" d="M361 -13Q281 -13 226 3T137 48T87 116T71 201Q71 215 72 229T76 259L140 623L79 640L93 721H422L408 640L342 624L277 254Q274 238 273 225T272 199Q272 144 299 122T384 99Q406 99 427 104T467
124T499 165T521 235L589 624L528 640L542 721H781L767 640L704 623L633 221Q624 168 603 125T549 51T469 4T361 -13ZM328 890H660L644 797H312L328 890Z" />
<glyph unicode="&#x16b;" glyph-name="umacron" horiz-adv-x="659" d="M536 100Q553 102 569 106T599 114Q614 118 626 122L603 34Q574 15 531 2T443 -11Q397 -11 375 14T357 78L358 88H352Q311 43 267 16T162 -12Q108 -12 80 17T51 103Q51 129 57 159L116 435Q98
432 82 428T52 421Q37 417 24 414L43 502Q58 514 78 526T122 547T170 561T217 567Q255 567 280 551T305 489Q305 480 304 470T300 447L245 187Q240 161 246 146T276 130Q307 130 328 146T373 185L451 555H633L536 100ZM241 747H573L557 654H225L241 747Z" />
<glyph unicode="&#x16c;" glyph-name="Ubreve" horiz-adv-x="724" d="M361 -13Q281 -13 226 3T137 48T87 116T71 201Q71 215 72 229T76 259L140 623L79 640L93 721H422L408 640L342 624L277 254Q274 238 273 225T272 199Q272 144 299 122T384 99Q406 99 427 104T467
124T499 165T521 235L589 624L528 640L542 721H781L767 640L704 623L633 221Q624 168 603 125T549 51T469 4T361 -13ZM484 779Q447 779 417 790T364 823T331 875T319 943H410Q413 923 431 907T487 890Q527 890 546 904T574 943H665Q654 862 607 821T484 779Z" />
<glyph unicode="&#x16d;" glyph-name="ubreve" horiz-adv-x="659" d="M536 100Q553 102 569 106T599 114Q614 118 626 122L603 34Q574 15 531 2T443 -11Q397 -11 375 14T357 78L358 88H352Q311 43 267 16T162 -12Q108 -12 80 17T51 103Q51 129 57 159L116 435Q98
432 82 428T52 421Q37 417 24 414L43 502Q58 514 78 526T122 547T170 561T217 567Q255 567 280 551T305 489Q305 480 304 470T300 447L245 187Q240 161 246 146T276 130Q307 130 328 146T373 185L451 555H633L536 100ZM389 626Q316 626 274 669T232 791H323Q326
768 342 753T393 737Q428 737 446 752T473 791H564Q552 714 507 670T389 626Z" />
<glyph unicode="&#x16e;" glyph-name="Uring" horiz-adv-x="724" d="M361 -13Q281 -13 226 3T137 48T87 116T71 201Q71 215 72 229T76 259L140 623L79 640L93 721H422L408 640L342 624L277 254Q274 238 273 225T272 199Q272 144 299 122T384 99Q406 99 427 104T467
124T499 165T521 235L589 624L528 640L542 721H781L767 640L704 623L633 221Q624 168 603 125T549 51T469 4T361 -13ZM484 739Q457 739 435 748T396 773T370 809T361 853Q361 879 371 901T398 940T439 966T490 976Q517 976 539 967T578 942T603 906T612 863Q612
836 602 814T575 775T535 749T484 739ZM485 791Q514 791 532 810T550 861Q550 888 534 906T489 924Q460 924 442 906T423 855Q423 827 439 809T485 791Z" />
<glyph unicode="&#x16f;" glyph-name="uring" horiz-adv-x="659" d="M536 100Q553 102 569 106T599 114Q614 118 626 122L603 34Q574 15 531 2T443 -11Q397 -11 375 14T357 78L358 88H352Q311 43 267 16T162 -12Q108 -12 80 17T51 103Q51 129 57 159L116 435Q98
432 82 428T52 421Q37 417 24 414L43 502Q58 514 78 526T122 547T170 561T217 567Q255 567 280 551T305 489Q305 480 304 470T300 447L245 187Q240 161 246 146T276 130Q307 130 328 146T373 185L451 555H633L536 100ZM385 619Q358 619 336 628T297 653T271 689T262
733Q262 759 272 781T299 820T340 846T391 856Q418 856 440 847T479 822T504 786T513 743Q513 716 503 694T476 655T436 629T385 619ZM386 671Q415 671 433 690T451 741Q451 768 435 786T390 804Q361 804 343 786T324 735Q324 707 340 689T386 671Z" />
<glyph unicode="&#x170;" glyph-name="Uhungarumlaut" horiz-adv-x="724" d="M361 -13Q281 -13 226 3T137 48T87 116T71 201Q71 215 72 229T76 259L140 623L79 640L93 721H422L408 640L342 624L277 254Q274 238 273 225T272 199Q272 144 299 122T384 99Q406 99
427 104T467 124T499 165T521 235L589 624L528 640L542 721H781L767 640L704 623L633 221Q624 168 603 125T549 51T469 4T361 -13ZM339 799L442 978L548 890L379 762L339 799ZM538 799L641 978L747 890L578 762L538 799Z" />
<glyph unicode="&#x171;" glyph-name="uhungarumlaut" horiz-adv-x="659" d="M536 100Q553 102 569 106T599 114Q614 118 626 122L603 34Q574 15 531 2T443 -11Q397 -11 375 14T357 78L358 88H352Q311 43 267 16T162 -12Q108 -12 80 17T51 103Q51 129 57 159L116
435Q98 432 82 428T52 421Q37 417 24 414L43 502Q58 514 78 526T122 547T170 561T217 567Q255 567 280 551T305 489Q305 480 304 470T300 447L245 187Q240 161 246 146T276 130Q307 130 328 146T373 185L451 555H633L536 100ZM235 636L344 829L454 746L279 600L235
636ZM439 636L548 829L658 746L483 600L439 636Z" />
<glyph unicode="&#x172;" glyph-name="Uogonek" horiz-adv-x="724" d="M347 -13Q272 -12 220 5T134 50T86 117T71 201Q71 215 72 229T76 259L140 623L79 640L93 721H422L408 640L342 624L277 254Q274 238 273 225T272 199Q272 144 299 122T384 99Q406 99 427 104T467
124T499 165T521 235L589 624L528 640L542 721H781L767 640L704 623L633 221Q622 163 599 117T536 40Q515 23 488 8T438 -25T398 -61T381 -105Q381 -136 417 -136Q428 -136 436 -134T456 -130L445 -202Q428 -211 402 -216T352 -222Q283 -222 254 -196T225 -136Q225
-115 234 -97T260 -64T299 -36T347 -13Z" />
<glyph unicode="&#x173;" glyph-name="uogonek" horiz-adv-x="659" d="M461 -222Q392 -222 363 -196T334 -136Q334 -114 343 -96T369 -61T408 -33T455 -11Q399 -14 376 12T357 78L358 88H352Q311 43 267 16T162 -12Q108 -12 80 17T51 103Q51 129 57 159L116 435Q98
432 82 428T52 421Q37 417 24 414L43 502Q58 514 78 526T122 547T170 561T217 567Q255 567 280 551T305 489Q305 480 304 470T300 447L245 187Q240 161 246 146T276 130Q307 130 328 146T373 185L451 555H633L536 100Q553 102 569 106T599 114Q614 118 626 122L603
34Q588 22 569 5T532 -30T502 -68T490 -105Q490 -136 526 -136Q537 -136 545 -134T565 -130L554 -202Q537 -211 511 -216T461 -222Z" />
<glyph unicode="&#x174;" glyph-name="Wcircumflex" horiz-adv-x="1012" d="M123 623L76 640L90 721H397L383 640L320 623L323 482Q325 410 323 330T317 168H322Q341 222 360 277Q377 324 397 376T435 474L536 721H686L705 495Q706 477 707 454T709 404T711 349T712
295Q713 233 714 167H719Q740 232 760 293Q769 319 778 346T795 400T812 449T827 491L876 623L814 640L828 721H1072L1058 640L1001 623L759 0H563L551 224Q547 293 548 362T553 501H548Q533 453 517 405Q503 363 486 317T453 232L355 0H156L123 623ZM429 810L593
951H677L799 810L763 769L624 831L455 769L429 810Z" />
<glyph unicode="&#x175;" glyph-name="wcircumflex" horiz-adv-x="852" d="M128 0Q127 120 123 226T107 435Q90 432 75 428T48 421Q35 417 23 414L42 502Q68 525 104 546T183 567Q226 567 246 544T275 470Q280 441 282 398T284 298Q284 278 284 254T282 203T279
151T274 103H279Q291 147 307 198T339 291Q349 320 359 349T379 410T399 477T422 555H573Q585 492 591 411T598 242Q598 217 598 177T592 99H597Q612 134 631 175T664 254Q687 314 700 356T721 433H664L682 535Q697 549 718 558T763 568Q779 568 795 564T824 550T846
523T855 480Q855 441 834 384T778 261T701 128T617 0H457Q459 66 459 123T460 232Q460 273 460 315T463 415H458Q447 369 433 317T401 222Q379 167 353 114T290 0H128ZM327 650L489 803H573L685 650L649 609L517 683L353 609L327 650Z" />
<glyph unicode="&#x176;" glyph-name="Ycircumflex" horiz-adv-x="683" d="M136 81L213 99L247 288L125 623L76 640L90 721H396L382 640L327 625L399 390H403L549 626L500 640L514 721H744L730 640L673 623L446 285L413 99L483 81L469 0H122L136 81ZM260 810L424
951H508L630 810L594 769L455 831L286 769L260 810Z" />
<glyph unicode="&#x177;" glyph-name="ycircumflex" horiz-adv-x="583" d="M55 -217Q16 -217 -12 -206T-54 -183L-31 -92Q-15 -97 0 -101T38 -105Q79 -105 111 -97T176 -68Q173 -13 167 52T153 185T136 316T118 435Q101 432 85 428T57 421Q43 417 30 414L49 502Q75
525 113 546T195 567Q238 567 259 543T289 467Q296 424 300 370T305 252Q305 240 305 218T303 170T300 117T295 66H300Q320 106 347 153T393 241Q442 350 453 433H395L413 535Q428 549 451 558T498 568Q514 568 530 564T559 551T581 525T590 485Q590 409 542 309T411
81Q362 6 318 -50T231 -143T145 -198T55 -217ZM174 650L336 803H420L532 650L496 609L364 683L200 609L174 650Z" />
<glyph unicode="&#x178;" glyph-name="Ydieresis" horiz-adv-x="683" d="M136 81L213 99L247 288L125 623L76 640L90 721H396L382 640L327 625L399 390H403L549 626L500 640L514 721H744L730 640L673 623L446 285L413 99L483 81L469 0H122L136 81ZM335 776Q300
776 277 799T253 856Q253 874 260 889T279 916T306 934T340 940Q375 940 398 917T421 861Q421 823 396 800T335 776ZM574 776Q539 776 516 799T492 856Q492 874 499 889T518 916T545 934T579 940Q614 940 637 917T660 861Q660 823 635 800T574 776Z" />
<glyph unicode="&#x179;" glyph-name="Zacute" horiz-adv-x="607" d="M-12 102L413 616V621H243L188 507H78L121 721H656L638 618L214 105V100H402L461 230H573L526 0H-30L-12 102ZM264 832L517 967L561 833L285 765L264 832Z" />
<glyph unicode="&#x17a;" glyph-name="zacute" horiz-adv-x="538" d="M-18 61L339 405L159 410Q152 396 148 385T140 363Q136 352 135 342H67Q60 376 60 409Q60 479 91 522T178 565Q214 565 246 557T308 536T368 512T428 492L493 555H559V494L201 148L391 143Q405
174 411 197Q415 210 417 222H485Q491 187 491 156Q491 120 483 90T460 37T424 2T374 -11Q337 -11 304 -2T238 19T175 43T113 63L48 0H-18V61ZM206 680L453 824L502 692L229 614L206 680Z" />
<glyph unicode="&#x17b;" glyph-name="Zdotaccent" horiz-adv-x="607" d="M-12 102L413 616V621H243L188 507H78L121 721H656L638 618L214 105V100H402L461 230H573L526 0H-30L-12 102ZM388 774Q348 774 321 797T294 859Q294 904 323 928T393 953Q434 953 460
930T487 868Q487 823 458 799T388 774Z" />
<glyph unicode="&#x17c;" glyph-name="zdotaccent" horiz-adv-x="538" d="M-18 61L339 405L159 410Q152 396 148 385T140 363Q136 352 135 342H67Q60 376 60 409Q60 479 91 522T178 565Q214 565 246 557T308 536T368 512T428 492L493 555H559V494L201 148L391
143Q405 174 411 197Q415 210 417 222H485Q491 187 491 156Q491 120 483 90T460 37T424 2T374 -11Q337 -11 304 -2T238 19T175 43T113 63L48 0H-18V61ZM326 617Q286 617 259 640T232 702Q232 747 261 771T331 796Q372 796 398 773T425 711Q425 666 396 642T326
617Z" />
<glyph unicode="&#x17d;" glyph-name="Zcaron" horiz-adv-x="607" d="M-12 102L413 616V621H243L188 507H78L121 721H656L638 618L214 105V100H402L461 230H573L526 0H-30L-12 102ZM596 922L432 781H348L226 922L262 963L401 901L570 963L596 922Z" />
<glyph unicode="&#x17e;" glyph-name="zcaron" horiz-adv-x="538" d="M-18 61L339 405L159 410Q152 396 148 385T140 363Q136 352 135 342H67Q60 376 60 409Q60 479 91 522T178 565Q214 565 246 557T308 536T368 512T428 492L493 555H559V494L201 148L391 143Q405
174 411 197Q415 210 417 222H485Q491 187 491 156Q491 120 483 90T460 37T424 2T374 -11Q337 -11 304 -2T238 19T175 43T113 63L48 0H-18V61ZM531 774L369 621H285L173 774L209 815L341 741L505 815L531 774Z" />
<glyph unicode="&#x192;" glyph-name="florin" horiz-adv-x="467" d="M296 330L251 88Q239 25 218 -26T163 -114T85 -170T-18 -190Q-51 -190 -76 -183T-117 -162T-142 -134T-150 -101Q-150 -85 -144 -69T-124 -42H-40V-105Q-31 -108 -20 -108Q8 -108 23 -86T46
-18L110 330H36L53 425H127L136 470Q161 605 232 667T412 729Q491 729 527 702T564 637Q564 619 555 601T535 571H432V645Q427 646 423 646T414 647Q382 647 363 614T334 529L314 425H426L409 330H296Z" />
<glyph unicode="&#x1fa;" glyph-name="Aringacute" horiz-adv-x="737" d="M409 211H206L153 99L218 81L204 0H-40L-26 81L32 99L352 721H537L631 99L686 81L672 0H337L351 81L422 99L409 211ZM246 293H400L388 401Q385 429 383 461T379 519Q377 550 377 580H372Q361
551 350 521Q340 495 327 465T301 408L246 293ZM453 748Q426 748 404 757T365 782T339 818T330 862Q330 888 340 910T367 949T408 975T459 985Q486 985 508 976T547 951T572 915T581 872Q581 845 571 823T544 784T504 758T453 748ZM454 800Q483 800 501 819T519
870Q519 897 503 915T458 933Q429 933 411 915T392 864Q392 836 408 818T454 800ZM325 1058L578 1193L622 1059L346 991L325 1058Z" />
<glyph unicode="&#x1fb;" glyph-name="aringacute" horiz-adv-x="638" d="M512 100Q530 102 546 106T575 114Q589 118 602 122L579 34Q550 15 508 2T420 -11Q378 -11 356 11T331 75H326Q287 32 248 10T155 -12Q121 -12 95 1T50 36T23 89T14 155Q14 235 39 307T106
434T205 521T325 553Q362 553 387 545T429 519H435L450 555H598L609 550L512 100ZM253 113Q273 113 294 125T345 169L397 414Q388 432 376 444T337 456Q311 456 287 434T243 373T213 285T202 181Q202 149 215 131T253 113ZM393 869Q366 869 344 878T305 903T279
939T270 983Q270 1009 280 1031T307 1070T348 1096T399 1106Q426 1106 448 1097T487 1072T512 1036T521 993Q521 966 511 944T484 905T444 879T393 869ZM394 921Q423 921 441 940T459 991Q459 1018 443 1036T398 1054Q369 1054 351 1036T332 985Q332 957 348 939T394
921ZM262 931L515 1066L559 932L283 864L262 931Z" />
<glyph unicode="&#x1fc;" glyph-name="AEacute" horiz-adv-x="1005" d="M996 518H898L878 622H704L667 414H734L761 483H844L811 251H728L722 321H651L612 100H809L867 226H970L927 0H333L347 81L420 99L439 207H234L156 100L225 81L211 0H-40L-26 81L37 99L434
632L367 640L381 721H1011L996 518ZM531 643Q511 605 478 550T404 438L300 296H454L475 411Q482 448 492 488T512 564Q523 604 535 643H531ZM592 832L845 967L889 833L613 765L592 832Z" />
<glyph unicode="&#x1fd;" glyph-name="aeacute" horiz-adv-x="822" d="M263 567Q333 567 375 545T438 488H442Q484 528 531 547T638 567Q680 567 715 558T774 532T813 489T827 432Q827 382 802 346T731 287T623 250T487 231V216Q487 156 512 131T596 106Q628 106
666 114T744 142L721 48Q693 26 641 7T521 -12Q393 -12 336 65H331Q317 51 301 37T263 11T216 -7T159 -14Q82 -14 40 24T-2 134Q-2 186 20 221T84 277T184 308T313 321L318 348Q325 384 322 408T309 448T281 469T240 475Q221 475 210 472T188 463V376H78Q66 387
58 401T49 438Q49 493 104 530T263 567ZM623 476Q600 476 580 463T544 428T515 376T496 312Q577 320 619 345T661 424Q661 476 623 476ZM298 204Q298 215 298 225T300 247Q261 242 237 234T200 214T181 186T176 150Q176 115 190 100T229 84Q260 84 276 96T308 124Q298
158 298 204ZM350 680L597 824L646 692L373 614L350 680Z" />
<glyph unicode="&#x1fe;" glyph-name="Oslashacute" horiz-adv-x="730" d="M662 623Q689 586 703 538T718 433Q718 325 687 242T602 103T481 18T337 -11Q214 -11 137 49L58 -38L1 11L86 104Q61 141 48 187T35 290Q35 397 68 479T154 618T275 704T412 733Q531 733
608 676L674 748L731 699L662 623ZM335 91Q378 91 412 123T471 208T508 329T524 472L235 156Q244 124 266 108T335 91ZM423 631Q381 631 346 601T286 519T245 400T228 260L516 575Q507 604 486 617T423 631ZM318 832L571 967L615 833L339 765L318 832Z" />
<glyph unicode="&#x1ff;" glyph-name="oslashacute" horiz-adv-x="606" d="M267 -13Q217 -13 177 0T105 36L36 -34L-11 14L59 84Q18 143 18 224Q18 299 42 362T110 471T214 542T346 568Q391 568 428 556T495 521L560 587L607 539L543 474Q566 444 578 407T590
330Q590 256 568 193T505 85T403 13T267 -13ZM276 78Q302 78 326 95T369 147T400 231T414 345L199 130Q216 78 276 78ZM329 475Q303 475 279 458T237 407T206 326T191 217L403 429Q394 450 376 462T329 475ZM242 680L489 824L538 692L265 614L242 680Z" />
<glyph unicode="&#x218;" glyph-name="Scommaaccent" horiz-adv-x="573" d="M240 -12Q153 -12 93 2T-11 41L10 203H125L137 119Q152 109 173 100T228 91Q277 91 308 113T339 184Q339 214 321 237T251 287L213 307Q147 342 111 386T75 501Q75 557 95 600T153 672T241
717T353 733Q398 733 431 730T490 720T535 705T571 688L557 543H441L429 605Q417 613 399 622T347 632Q302 632 277 612T252 548Q252 522 269 501T332 456L369 436Q406 416 435 397T485 355T516 307T527 246Q527 122 453 55T240 -12ZM331 -244Q374 -240 402 -232T447
-212T471 -186T478 -156Q470 -166 458 -173T422 -181Q393 -181 376 -163T359 -118Q359 -99 368 -85T391 -61T423 -46T459 -41Q509 -41 538 -66T567 -140Q567 -180 549 -208T500 -254T427 -282T339 -293L331 -244Z" />
<glyph unicode="&#x219;" glyph-name="scommaaccent" horiz-adv-x="476" d="M184 -14Q131 -14 92 -4T28 23T-10 62T-23 108Q-23 127 -15 142T5 169H122V90Q135 84 150 80T182 76Q220 76 244 91T268 136Q268 149 263 158T249 175T227 190T195 205L161 221Q108 246
82 283T55 378Q55 420 70 454T116 514T189 553T287 567Q381 567 425 536T469 459Q469 445 462 427T443 396H328V470Q319 475 309 477T287 480Q251 480 231 466T211 422Q211 403 225 388T276 356L310 340Q367 313 400 276T434 181Q434 141 419 106T372 44T293 2T184
-14ZM290 -244Q333 -240 361 -232T406 -212T430 -186T437 -156Q429 -166 417 -173T381 -181Q352 -181 335 -163T318 -118Q318 -99 327 -85T350 -61T382 -46T418 -41Q468 -41 497 -66T526 -140Q526 -180 508 -208T459 -254T386 -282T298 -293L290 -244Z" />
<glyph unicode="&#x21a;" glyph-name="uni021A" horiz-adv-x="673" d="M122 81L200 99L293 622H210L164 495H52L99 721H718L693 495H581L574 622H494L401 99L473 81L459 0H108L122 81ZM389 -244Q432 -240 460 -232T505 -212T529 -186T536 -156Q528 -166 516 -173T480
-181Q451 -181 434 -163T417 -118Q417 -99 426 -85T449 -61T481 -46T517 -41Q567 -41 596 -66T625 -140Q625 -180 607 -208T558 -254T485 -282T397 -293L389 -244Z" />
<glyph unicode="&#x21b;" glyph-name="uni021B" horiz-adv-x="402" d="M216 98Q242 101 267 107T312 119Q335 126 356 133L333 45Q303 25 257 7T144 -12Q96 -12 68 11T40 86Q40 96 41 107T45 130L114 460H48L64 531L134 555L162 685H340L312 555H425L405 460H292L216
98ZM-9 -244Q34 -240 62 -232T107 -212T131 -186T138 -156Q130 -166 118 -173T82 -181Q53 -181 36 -163T19 -118Q19 -99 28 -85T51 -61T83 -46T119 -41Q169 -41 198 -66T227 -140Q227 -180 209 -208T160 -254T87 -282T-1 -293L-9 -244Z" />
<glyph unicode="&#x237;" glyph-name="uni0237" horiz-adv-x="334" d="M-40 -216Q-74 -216 -100 -208T-143 -185T-170 -153T-179 -117Q-179 -101 -172 -86T-151 -61H-57V-134H-51Q-35 -134 -23 -130T0 -112T17 -76T33 -15L122 436Q105 433 89 429T59 422Q44 418
31 414L50 502Q65 514 87 526T135 547T187 561T236 567Q250 567 263 564T288 553T305 530T312 495Q312 478 308 461L217 19Q203 -50 178 -95T120 -167T46 -205T-40 -216Z" />
<glyph unicode="&#x2c6;" glyph-name="circumflex" horiz-adv-x="500" d="M136 650L298 803H382L494 650L458 609L326 683L162 609L136 650Z" />
<glyph unicode="&#x2c7;" glyph-name="caron" horiz-adv-x="500" d="M511 774L349 621H265L153 774L189 815L321 741L485 815L511 774Z" />
<glyph unicode="&#x2d8;" glyph-name="breve" horiz-adv-x="500" d="M333 626Q260 626 218 669T176 791H267Q270 768 286 753T337 737Q372 737 390 752T417 791H508Q496 714 451 670T333 626Z" />
<glyph unicode="&#x2d9;" glyph-name="dotaccent" horiz-adv-x="500" d="M320 617Q280 617 253 640T226 702Q226 747 255 771T325 796Q366 796 392 773T419 711Q419 666 390 642T320 617Z" />
<glyph unicode="&#x2da;" glyph-name="ring" horiz-adv-x="500" d="M326 619Q299 619 277 628T238 653T212 689T203 733Q203 759 213 781T240 820T281 846T332 856Q359 856 381 847T420 822T445 786T454 743Q454 716 444 694T417 655T377 629T326 619ZM327 671Q356
671 374 690T392 741Q392 768 376 786T331 804Q302 804 284 786T265 735Q265 707 281 689T327 671Z" />
<glyph unicode="&#x2db;" glyph-name="ogonek" horiz-adv-x="500" d="M191 -222Q122 -222 93 -196T64 -136Q64 -111 77 -90T111 -52T159 -22T217 0H300Q220 -59 220 -105Q220 -136 256 -136Q267 -136 275 -134T295 -130L284 -202Q267 -211 241 -216T191 -222Z" />
<glyph unicode="&#x2dc;" glyph-name="tilde" horiz-adv-x="500" d="M130 665Q157 717 189 751T263 786Q280 786 301 781T342 770T381 758T410 753Q427 753 441 765T467 794L525 756Q498 704 467 670T393 635Q376 635 355 640T314 651T275 663T245 668Q228 668
215 657T188 627L130 665Z" />
<glyph unicode="&#x2dd;" glyph-name="hungarumlaut" horiz-adv-x="500" d="M172 636L281 829L391 746L216 600L172 636ZM376 636L485 829L595 746L420 600L376 636Z" />
</font>
</defs>
</svg>
