<svg xmlns="http://www.w3.org/2000/svg" width="180" height="48" viewBox="0 0 360 96"><path d="M228 29l1-6 1.2-8.8c.6-4 4.5-8 11-6.5 3.7.8 7.5 1.3 11.2 2 2.6.6 5.2 1 7.8 1.4.8.2 1.5.5 2.2.4 1 0 .4-1.2 1-1.7.2-.4.6-.6 1-.7.6 0 1 0 1.5.2l14.3 1.2 4 .2c.7 0 1.3-.3 1.2-1-.3-2.2-.4-4.5-1-6.6-.6-2.3-.5-2.6 2-2.4.7 0 1.5.5 2.3.5 2.4.4 4.7 1 7.2 1 1 0 2 0 2.8.3 4.3 1 8.6 1.6 13 2l9.2 1.4c1.8.2 3.3 0 5-1 4.4-2.8 9-3 13.8-1 7 3 10 10.7 7 17.3-.6 1.3-1.4 2.5-2.3 3.6-.8 1-.8 1.7-.4 2.8 2 4.7 3.8 9.4 5.6 14 .4 1.2 1.2 2 2.4 2.4l5 1.5 1.5.6c.4 0 .8.5 1 1 0 .4-.4.8-1 1l-1.5.7c-3.2 2-3.5 1.3-3 5.4.8 4.3-1.7 8.7-6 10.5-2 .7-4 .8-5.6-.3-1.8-1.2-4-1.4-5.7-2.2-.8-.3-1.5-.2-2.4.4-3.4 2.3-7 4.5-10.5 6.7-5.4 3.4-10.8 6.7-16 10.5-1.4 1.2-3 2-4.7 3-1 .7-2 1-2.8-.2-.4-.5-1-.7-1.5-.8-4.8-1.5-9.5-2.7-14-4.5-1.7-.7-3-.2-4.5.7l-11.8 7.5c-3.3 2-6.6 4-9.6 6.3-1.5 1.2-3 1.4-5 .7-6.3-2.3-12.6-4.5-19-6.3-3.2-1-6.2-2.3-9.3-3-1.6-.5-2.8-.5-4 .3l-6 3.8-7.7 4.8c-1.3.7-2.4 1.5-3.5 2.4-1.2 1-2.4 1.3-4 .4-1.6-1-3.6-1.3-5.4-2l-17.6-5.2c-4.3-1.3-8.4-3-12.7-4.2-4-1-8-2.4-12-4-1.5-.5-2.6-.2-4 .7l-18.3 11.4c-1-1.5-2-2.4-4-2.3-2.7-1.3-5.8-2-8.7-3-6.7-2-13.3-4-20-6.3l-2-.6c-.8-.3-1.4 0-2 .4l-14 9-6.2 4c-1 .5-2 .6-3 0-5-2-10.3-3.2-15.4-5-4-1.5-8-2.7-12.3-4-2.3-.5-4.6-1.2-6.8-2-4.7-1.8-9.5-3-14.2-4.5C18 75.5 14.4 74 10.5 73c-3-.7-5.6-2-8.4-3-.3 0-.6 0-1-.2-.6-.3-.8-1.3-.3-1.8l1.4-1L18.7 57 46 40c4.6-3 9.4-5.8 14-8.7 2.7-1.7 5.3-3.6 8-5.2 3.6-2 7-4 10.5-6.3.8-.5 1.8-.8 2.4-1.5 1.5-2.2 3.3-1.6 5.5-1 7.6 2.6 15.3 5 23 7.4l8.5 3c1.8.6 3.4.7 5-.5l5.8-3.5 8-5c1-.7 2.4-1.4 3.3-2.5 1-1 2.3-1 3.4-.6 6.8 2.7 14 4.6 20.8 7 6.2 2.2 12.6 4 18.8 6 1.3.5 2.6 1 3.7 1.6 1.5 1 2.8.7 4.3-.3 2.6-1.8 5-3.6 8-5 1-.5 1.8-1.4 2.7-2.2 1.4-1.2 2.6-1.5 4.5-.7 3 1.2 6 2 9.3 3 3.8 1 7.6 2.3 11.2 3.8.3.2.7.2 1.3.3zm-97.2 59c1.5.2 2.6-.8 3.6-1.4 4-2.5 8-5 11.8-7.6.3-.2 1-.4.7-1-.3-.4-.7-.7-1-.8-3.7-1.2-7.3-2-10.8-3.3-1.7-.8-3.5-1.6-5.5-1.7-.4 0-1-.4-1.3-.6-1.5-.8-1.7-2.4-.2-3.3 5-3 9.6-6.3 14.6-9.2 6-3.5 12-7.3 18-11 2.7-1.6 5.6-3.2 8.2-5 4-3 8.5-5.4 12.8-8l3.3-2c1-.7 1-1.5-.2-1.8l-12-3.7-22.2-7.2-6.6-2c-1.4-.5-2.7-.4-4 .4l-8.3 5-14.4 9.2c-6.2 4-12.4 7.6-18.6 11.5l-9.4 6c-1.7 1-3.5 2.3-5.4 3.3-1.3.7-2.7 1.3-3.8 2.2-3 2.2-6.3 3.7-9.4 5.8-1.7 1-3.4 2-5 3.2-.5.2-1 .6-.7 1 .2.5.6.6 1 .7l8.4 2.6c2.8.8 5.6 1.6 8.3 2.6 3.8 1.3 7.7 2.6 11.6 3.7 3.2.8 6.4 2 9.6 3 5 1.4 9.7 3.8 15 4.8 3 1.7 6.6 2 9.8 3.5l2 .7zM307 47c-1.4-.7-2.6-1-4-1l-7-1c-.7 0-1.4-.5-1.8-.2-1.6.8-2.5-.2-3.4-1l-2-2c-2.6-3.4-5.6-6.2-8-9.6V32c-.6-.6-1.3-.5-1.5.2-1 3-2 6-2.7 9-.5 1.8-1.2 3.2-3.5 3.3l-1.6.4-16.2 5-18.3 5.3c-1 .2-1.7.6-2.6.5-.4 0-.7-.2-.8-.6-.2-.4 0-.7.3-1 1-.7 2-.8 3.2-1 7-2 14-4.3 21-6.4l12.5-3.8c1.5-.5 2.4-1 3-2.7 1-3.6 2-7.2 3.2-10.7.2-1.2 0-2-1-3-3-3.5-6.3-7-9.5-10.8-1-1-2-1.6-3.3-1.8l-9.6-1.5-14.6-2.3c-1.2-.2-2 0-3 .4-2.2 1-4 2.6-4 5v1.5l-1.2 9.4L228 46c-.2 2.6-.5 5.2-1 7.7-.3 2.3-.3 2.3 1.8 3 1 .5 2.3.8 3.4 1.2 2.7.7 5.4 1.3 8 2.3 8 3 16.5 5.6 25 8 6 2 12 4.4 18.5 5.8 2.6 1.8 6 2 8.7 3.2 3 1.3 6 1.5 8.7 3.4.5.3 1 0 1.4-.2L306 78l5-3.8 15.8-10c2-1.2 3.7-2.5 6-3.2l-.3-.5-9-4.2c-.6-.2-1 0-1.4.4l-7 7c-2 1.5-3.6 3.4-5.8 4.6-3-2-5.6-4.6-8.2-7-1.2-1-2.3-2-3.8-2.7-1-.4-1-1-.3-1.6l10-10zM117.3 30.4c-.3-1-1-1-1.7-1.3l-7.5-2.4c-6.7-2.2-13.4-4.3-20-6.6-2.8-1-5-.5-7.2 1-8.4 5.5-17 10.8-25.4 16-5.8 3.8-11.8 7.4-17.6 11-3.4 2.3-7 4.3-10.4 6.4-5.6 3.4-11 7-16.6 10.5l-4 2.2c-.6.4-1.3.8-1.3 1.7l2.7.8L22 74c4.5 1.6 9 3.3 13.6 4.8 3.4 1 6.8 2 10.2 3.2 4 1.3 8 2.5 12 4 4.3 1.4 8.8 2.2 13 4 1 .5 2 .5 2.8 0l4.5-3 10.4-6.5c1-.6 2.2-1.2 3-2.2-1-1-2-1.3-3-1.7l-7.2-2.3c-5-1.3-9.6-3-14.5-4.4l-2.4-.8c-2-.3-2-2-2.2-3.2-.2-1 .8-1.6 1.6-2.2l12.7-8c3.7-2.2 7.4-4.3 11-6.6l20.7-13c3-2 6.4-3.6 9.3-6zm110.3 2c0-1.4-.2-1.7-1.3-2-3.7-1-7.4-2.2-11-3.3-3.2-1-6.3-1.8-9.3-3-1-.3-1.8 0-2.7.5-3.4 2.4-7 4.3-10.5 6.7-2.4 1.8-5 3.5-7.6 4.8-6.2 3-11.3 7.6-17.4 10.6l-1.2.8c-2.6 1.7-5 3.4-7.8 5-2.5 1.4-5 2.8-7.4 4.4l-12.7 8-5.7 3.6c-.4.2-1 .7-1 1 0 .4.5.8 1 1h.4c2.8 1.4 6 2 9 3l18.4 6 28 9c4 1.2 7.6 2.4 11.3 3.8 1.3.4 2.2.3 3.2-.3l9.4-6 5.4-3.5c1-.7 1-1.3-.2-1.7l-9.2-3-23-7.5c-.8-.3-1.5-.6-2.3-.2-.5.3-1 0-1.2-.5-.2-.5 0-1 .3-1.3.5-1 1.3-1.3 2-1.8l9.7-5.7c5.8-3.6 11.6-7 17.4-10.7 4.6-3 9.3-6 14-8.8.8-.6 1.3-1.2 1.4-2.2l.8-6.6zm-40.3 36c2.7.7 5 1.2 7 2 2.7 1 5.4 2 8.2 2.8 8 2.6 15.8 5 23.6 7.7l23.7 7.7c6.4 2 6.4 2.2 11.8-1.7 2.8-2 5.6-4 8.7-5.6 2.6-1.2 5-2.8 7.4-4.3l.5-1c.2-.3-.3-.4-.6-.5L271 73l-7.6-2.4c-7-2.5-14-4.8-21.3-6.8-2.7-.8-5.7-1.4-8.5-2.5-2.5-1-5-2-8-2.3-.7 0-1.2-.6-1.2-1.4 0-1.7.4-3.4.5-5.2.3-2.6 1-5.2 1-8-.3 0-.6 0-.8.2L191.5 65l-4.2 3.2zM351 53.5c.5-1.8-.4-3.6-1.2-5.4-1-2.4-2.2-4.8-3-7.3-1.4-4.7-3.4-9-5.3-13.4-.7-1.7-1-1.8-2.8-1.3-1 .3-1.8.7-2.7.8-5.4 1-4.5 1.2-2.8 5.4l5 12.7c.5 1.5-.4 2.7-2 2.5-.4 0-1 0-1.4-.3L331 46l-8-3c-2.3-1-4.4-.7-6.6.3-1.6.8-3 1.8-4 3l-10 9-1.7 2c-.4.4-.3 1 .2 1.4 2 2 4.4 4 6.6 6 1 .6 1.5.6 2.2 0l4-4 6.6-6c1-1 2-1 3.3-.5l2 .8c5.8 2.4 11.6 4.7 17.3 7.2 1.5.6 2.8.5 4-.2 1.5-1 2.5-2 3-3.4.8-1.5 1.2-3 1-5zm-63.3-50c0 .3-.3.4-.3.5.4 6 1.6 11.6 2.6 17.3 0 1 .7 1.7 1.6 2.2l16.5 8.7c1.3.6 2.3.6 3.5 0 3-1.2 6.2-2.5 9.5-3.3 1.6-.6 3-1.4 4.7-2l-3.7-4c-1-1.5-1.6-3.2-2-5 0-.4-.6-.6-1-.7h-1.2c-.5-.2-.8-.6-1-1 0-.5 0-1 .6-1.2l1.3-.5c.6-.2 1-.6 1.2-1 .4-1.7 1.4-3 1.4-5C310.2 6.8 299 5 287.7 3.8zM335 44c-1.7-3-3-6-3.8-9-.4-1.6-1-3-1.4-4.4-.5-1.4-1-1.7-2.4-1.3-5.6 1.5-11 3.5-16 6-1 .5-1.5.7-2.3.2-1.8-1-3.6-2.3-5.6-3-3.6-1.7-7-3.5-10.6-5.4-.5 0-1-.6-1.8 0 0 .4 0 1 .2 1.5.3 2.6.8 5 1 7.6.3 1.2-.2 2.2-.8 2-.8 0-1-.8-1.2-1.4l-1.4-8c-.3-2.4-.8-4.8-3.8-5.6-.8-.2-1-1-1-1.7 0-.6.3-1 1-1 2.2 0 2.2 0 2-1.6 0-1.4-.2-2.8-.4-4.2-.2-.7-.6-1.3-1.4-1.4l-1.8-.3c-5-.4-10.3-1-15.4-1.3-.4 0-.8 0-1 .4 0 .6.5 1 1 1.5 1.7 2.3 3.6 4.5 5.5 6.8l15.8 18.7c.8 1 1.5 2.2 2.5 3 1 .8 2.3 0 3.5.4 4.2 1.3 8.6 1 12.8 2 1.5.3 2.6 0 3.6-1 2.4-2.5 5.6-3.2 9-3.5 1 0 2 0 3 .6 2.8 1.5 6 2 8.7 3.7.6.4 1.5.7 2.6.2zm-11.3-31l4.2-1 3.8-.7c.6 0 1.2.2 1.4.8.3.8 0 1.2-.7 1.5l-1.7.5c-2 .6-4.2 1.2-6.3 2-1.2.3-1.5.8-1.3 2 .5 3 2.3 5.3 5 7 1 .8 2 1 3.3.6 2.2-.6 4.4-1 6.7-1.3 3.2-.3 5.3-2 6-5 .3-1 .6-1.7.6-2.5.5-4.6-1.5-8-5.5-10.6-3.8-2.2-7.6-2-11.2.4-2 1.4-4 3-4.3 6.5zm29 35.2c.5 0 1.4-.7 1.4-1 .2-.4-1.2-1-1.8-1 0 0-.4.3-.3.4 0 .6 0 1.3.8 1.6z"/><path d="M130.8 88l-2-.7c-3.2-1.4-6.8-1.8-10-3.5-5-1-9.8-3.4-15-4.8-3-1-6.3-2.2-9.5-3-4-1.2-7.8-2.5-11.6-4l-8.3-2.4c-2.8-1-5.6-1.8-8.5-2.7-.4-.2-.8-.3-1-.7 0-.5.3-1 .7-1l5-3.3c3.2-2 6.6-3.6 9.5-5.8 1-1 2.5-1.5 3.7-2.2 1.8-1 3.6-2.2 5.3-3.4l9.4-6 18.6-11.4 14.4-9.2c2.7-1.8 5.5-3.4 8.2-5 1.3-1 2.6-1 4-.6l6.6 2c7.4 2.5 14.8 5 22.2 7.3l12 3.7c1 .3 1.2 1 .3 1.8-1 .7-2 1.4-3.2 2-4.3 2.6-8.7 5-12.8 8-2.6 1.8-5.5 3.4-8.2 5-6 3.7-12 7.5-18 11-5 3-9.6 6.3-14.6 9.2-1.5 1-1.3 2.5.2 3.3l1.3.6c2 0 3.8 1 5.5 1.6L146 77c.3 0 .7.4 1 .8.2.6-.5.8-.8 1l-11.8 7.6c-1 .6-2 1.6-3.6 1.4zM307 47l-10 10c-.8.8-.7 1.2.2 1.6 1.5.7 2.6 1.7 3.8 2.7 2.6 2.4 5 5 8.2 7 2.2-1.2 4-3 5.7-4.7l7-7c.4-.2 1-.5 1.4-.2l9 4 .3.6c-2.2.7-4 2-6 3.2l-15.6 10c-1.7 1.2-3.3 2.6-5 4l-3.6 2.3c-.4.2-1 .5-1.3 0-2.5-1.8-5.8-2-8.6-3.3-2.8-1.2-6-1.3-8.7-3-6.4-1.5-12.4-4-18.6-5.8-8.3-2.5-16.7-5-25-8-2.5-1-5.2-1.7-7.8-2.5-1-.5-2.3-.8-3.4-1.2-2-.8-2-.8-1.7-3 .5-2.6.7-5.2 1-7.7 1-6.4 2-13 2.8-19.6l1-9.3c.2-.3.3-.8.3-1.3 0-2.5 1.7-4 4-5 1-.6 1.8-.7 3-.5 4.8 1 9.7 1.6 14.6 2.3l9.6 1.5c1.3.3 2.4.7 3.3 1.8l9.6 11c1 .8 1.2 1.7 1 2.8-1.3 3.6-2.4 7-3.4 10.7-.5 1.6-1.4 2.3-3 2.7l-12.3 3.8c-7 2-14 4.4-21 6.3-1.2.4-2.4.5-3.4 1.3-.3.2-.6.5-.4 1 0 .3.4.4.8.5 1 0 1.7-.2 2.5-.5L255 50l16.2-5c.6-.2 1-.5 1.7-.5 2.4 0 3-1.5 3.6-3.3l2.7-9c.2-.7 1-.8 1.4-.3l.2.2c2.2 3.4 5.2 6.3 7.8 9.5l2 2c1 1 1.8 2 3.4 1 .4-.2 1 .2 1.7.3l7 1c1.4 0 2.6.3 4 1zM117.3 30.4c-3 2.3-49.5 31-53.7 33.5-.8.6-1.8 1-1.5 2.2.4 1.3.4 3 2.3 3.2l2.4.7c5 1.3 19.3 6 21.7 6.6 1 .4 2 .7 3 1.7C90.5 79.3 75 89 73.5 90c-1 .5-1.8.5-2.8 0-4.2-1.8-21-6.7-25-8-3.4-1-19.3-6.4-24-8L8.3 70l-2.7-1c0-.8.7-1.2 1.3-1.6l4-2.3c5.5-3.6 23.6-14.7 27-17 5.8-3.6 34.6-21.5 43-27 2.3-1.5 4.4-2 7-1 6.8 2.4 25.3 8.2 27.8 9 .7.3 1.4.4 1.7 1.3zm110.3 2l-.8 6.7c0 1-.6 1.7-1.5 2.2-4.6 3-9.3 6-14 8.8L194 60.7l-9.6 5.7c-.8.5-1.6 1-2 1.8-.3.4-.6.8-.3 1.3.4.4.8.8 1.3.6.8-.3 1.5 0 2.3.3l23 7.4 9.2 3c1 .5 1.2 1 .2 1.8l-5.4 3.5-9.4 6c-1 .5-2 .6-3 .2-3.8-1.4-7.5-2.6-11.3-3.8l-28.2-9-18.5-6c-3-1-6-1.6-9-3h-.3c-.5-.2-1-.6-1-1 0-.3.6-.8 1-1l5.7-3.6 12.7-8c2.4-1.6 5-3 7.4-4.4 2.7-1.6 5.2-3.3 7.8-5 .5-.2.8-.6 1.2-.8 6-3 11.2-7.6 17.4-10.6 2.7-1.3 5.2-3 7.6-4.8 3.4-2.4 7-4.3 10.5-6.7 1-.6 1.6-.8 2.7-.4 3 1.2 6 2 9.2 3 3.7 1 7.4 2.2 11 3.3 1.2.3 1.4.6 1.4 2zm-40.3 36l4.2-3.2L225 44.6h1c0 2.6-1 5.2-1.2 7.8 0 1.8-.4 3.5-.5 5.2 0 .8.4 1.3 1.3 1.4 2.8.3 5.4 1.2 8 2.3 2.7 1 5.7 1.7 8.5 2.5 7.3 2 14.4 4.3 21.4 6.8L271 73l6.4 2.2c.3 0 .7.2.7.6 0 .3-.2.7-.4 1-2.5 1.4-4.8 3-7.4 4.3-3 1.7-6 3.6-8.7 5.7-5.4 4-5.4 4-11.8 1.7-8-2.5-15.7-5-23.6-7.7-7.7-2.7-15.6-5-23.5-7.6-2.8-.7-5.5-1.6-8.2-2.7-2-.8-4.3-1.3-7-2zM351 53.5c.2 2-.2 3.5-1 5-.5 1.4-1.5 2.5-3 3.4-1.2.7-2.5.8-4 .2-5.7-2.5-11.5-4.8-17.3-7.2l-2-.8c-1.2-.6-2.3-.4-3.3.5l-6.5 6-4.2 4c-.7.6-1.3.6-2.2 0l-6.7-6c-.6-.4-.7-1-.3-1.5l1.7-1.8 10-9.2c1-1 2.4-2 4-3 2.2-1 4.3-1 6.6-.2l8 3c1.3.4 2.6 1 3.8 1.2l1.5.3c1.5.2 2.4-1 2-2.4-1.8-4.2-3.4-8.4-5-12.6-1.8-4.2-2.7-4.3 2.7-5.3 1 0 1.8-.4 2.7-.7 1.7-.5 2-.4 2.8 1.3 2 4.4 4 8.7 5.3 13.3.8 2.4 2 4.8 3 7.2.8 1.8 1.7 3.6 1.2 5.4zm-63.3-50c11.2 1.3 22.5 3 33.7 5 0 1.8-1 3.2-1.5 4.8-.2.5-.7 1-1.3 1-.5.2-1 .4-1.3.7-.5.3-.6.8-.5 1.3 0 .4.3.8.8 1h1c.6 0 1 .3 1.2.8.4 1.8 1 3.5 2 5 1 1.3 2.4 2.5 3.7 4-1.7.6-3 1.4-4.7 2-3.3.8-6.4 2-9.5 3.3-1.2.5-2.2.5-3.4 0l-16.4-8.8c-1-.5-1.5-1.2-1.6-2.2-1-5.7-2.2-11.4-2.6-17.2 0 0 .2 0 .3-.3zM335 44c-1.2.4-2 0-2.7-.3-2.7-1.6-6-2.2-8.7-3.6-1-.4-2-.6-3-.5-3.4.3-6.6 1-9 3.4-1 1-2 1.3-3.5 1-4-1-8.5-.7-12.7-2-1.2-.3-2.6.5-3.5-.3-1-.8-1.7-2-2.5-3L273.5 20c-2-2.2-3.8-4.4-5.6-6.7-.5-.5-1-1-1-1.5.2-.4.6-.5 1-.4 5 .4 10.3 1 15.4 1.3.6 0 1.2.2 1.8.4.8.2 1.2.8 1.4 1.5l.4 4.2c.2 1.7.2 1.7-2 1.6-.7 0-1 .4-1 1 0 .8.2 1.5 1 1.7 3 .8 3.5 3.2 3.8 5.7l1.4 8c.2.5.4 1.3 1.2 1.4.6.2 1-.8 1-2-.4-2.4-1-5-1.2-7.5 0-.5 0-1-.2-1.6 1-.6 1.3 0 1.8 0 3.5 2 7 3.8 10.6 5.4 2 .8 3.8 2 5.7 3 1 .6 1.5.4 2.4 0 5-2.6 10.4-4.6 16-6 1.3-.5 2-.2 2.4 1.2l1.4 4.3c1 3 2 6 3.7 9zm-11.3-31c.2-3.3 2.2-5 4.4-6.4 3.7-2.4 7.5-2.6 11.3-.4 4 2.5 6 6 5.5 10.6 0 .8-.3 1.6-.5 2.4-.8 3-3 4.8-6 5-2.4.4-4.6.8-6.8 1.4-1.2.4-2.3.2-3.4-.6-2.5-1.7-4.3-4-4.8-7-.2-1.2 0-1.7 1.3-2 2-.8 4.2-1.4 6.2-2 .6 0 1.2-.3 1.8-.5.6-.3 1-.7.7-1.4-.2-.5-.8-.8-1.4-.7l-4 .7-4 1zm29 35.2c-.7-.3-.6-1-.8-1.6-.2 0 0-.4.2-.4.6 0 2 .6 2 1 0 .3-1 1-1.4 1z" fill="#FFF"/><path d="M127.7 36.5l2-1.6c2.6-1.6 5.2-3 7.5-5 1-.8 2.4-1 3.7-.3 2.2 1.2 4.7 1.7 7 2.4 2.5.8 4.7 1.8 6.8 3.4-1.2 1.2-2.4 2.3-3.8 3.2-1.7 1-3.4 2-5 3.3-1 .4-1.7.6-2.5.2-3.2-1.7-6.7-2.3-10-3.4-2-.6-3.6-1.4-6-2.3zm-28-4.8c0 1-1 1.5-1.5 2L89.8 39c-.7.4-1.3.4-2 0-2-1-4-1.8-6-2.2-1.8-.3-2.6-1.7-4-2.2-.6-.3-.4-.8 0-1.2 0-.2.2-.4.4-.5l8-4.8c.8-.4 1.6-.8 2.5-.4 3.6 1.3 7.6 1.8 11 4zM217 37.4c-1.7 2-3.7 2.7-5.4 4-1.5 1-3 2.3-4.6 2.8-1.7.4-3.3-1.2-5-1.7-2.5-.7-5.2-1.2-7.4-2.7h-.3c-.7 0-1.6.6-1.8-.5 0-.8.8-1.2 1.3-1.5l8.8-5.6c.8-.4 1.6-.6 2.5-.4 3.2.6 6 1.8 9 3 1 .3 2 1.6 3 2.6z" fill="#E6711B"/></svg>