<?xml version="1.0" encoding="utf-8"?>
<!-- Generator: Adobe Illustrator 13.0.2, SVG Export Plug-In . SVG Version: 6.00 Build 14948)  -->
<!DOCTYPE svg PUBLIC "-//W3C//DTD SVG 1.1//EN" "http://www.w3.org/Graphics/SVG/1.1/DTD/svg11.dtd">
<svg version="1.1" id="Layer_1" xmlns="http://www.w3.org/2000/svg" xmlns:xlink="http://www.w3.org/1999/xlink" x="0px" y="0px"
	 width="24px" height="21px" viewBox="0 0 24 21" enable-background="new 0 0 24 21" xml:space="preserve">
<path fill="#2AA9E0" d="M24.029,3.32c-0.882,0.391-1.829,0.655-2.824,0.774c1.016-0.608,1.795-1.572,2.162-2.72
	c-0.95,0.563-2.003,0.973-3.122,1.192c-0.896-0.955-2.175-1.552-3.589-1.552c-2.715,0-4.917,2.202-4.917,4.917
	c0,0.385,0.044,0.761,0.128,1.121C7.78,6.847,4.158,4.889,1.733,1.915C1.31,2.641,1.067,3.485,1.067,4.386
	c0,1.706,0.868,3.21,2.188,4.093C2.449,8.453,1.69,8.232,1.027,7.864c0,0.021,0,0.041,0,0.062c0,2.382,1.695,4.369,3.944,4.821
	c-0.413,0.111-0.847,0.172-1.295,0.172c-0.317,0-0.625-0.03-0.925-0.088c0.625,1.953,2.442,3.375,4.593,3.414
	c-1.683,1.319-3.802,2.104-6.106,2.104c-0.396,0-0.788-0.023-1.173-0.068c2.176,1.396,4.76,2.209,7.537,2.209
	c9.043,0,13.989-7.492,13.989-13.989c0-0.213-0.006-0.425-0.015-0.636C22.536,5.172,23.37,4.306,24.029,3.32z"/>
</svg>
