<svg xmlns="http://www.w3.org/2000/svg" width="932" height="440" viewBox="0 0 932 440"><path fill="#DBDBDB" d="M496 404h128v28H496z"/><path fill="#333" d="M828 0H304c-13.2 0-24 10.8-24 24v384c0 2.2 1.8 4 4 4h564c2.2 0 4-1.8 4-4V24c0-13.2-10.8-24-24-24z"/><path fill="#CCC" d="M844 412H620c0 6.6-5.4 12-12 12h-88c-6.6 0-12-5.4-12-12H204v12c0 6.6 5.4 12 12 12h700c6.6 0 12-5.4 12-12v-12h-84z"/><path fill="#333" d="M928 412v12c0 6.6-5.4 12-12 12H216c-6.6 0-12-5.4-12-12v-12h304c0 6.6 5.4 12 12 12h88c6.6 0 12-5.4 12-12h308m0-4H620c-2.2 0-4 1.8-4 4 0 4.4-3.6 8-8 8h-88c-4.4 0-8-3.6-8-8 0-2.2-1.8-4-4-4H204c-2.2 0-4 1.8-4 4v12c0 8.8 7.2 16 16 16h700c8.8 0 16-7.2 16-16v-12c0-2.2-1.8-4-4-4z"/><path fill="#676767" d="M300 20h532v372H300z"/><path fill="#005689" d="M300 20h532v28H300z"/><path fill-rule="evenodd" clip-rule="evenodd" fill="#333" d="M768 20h28v28h-28z"/><path fill-rule="evenodd" clip-rule="evenodd" fill="#F6F6F6" d="M300 48h532v344H300z"/><path opacity=".2" fill-rule="evenodd" clip-rule="evenodd" fill="#005689" d="M336 64h28v8h-28zM336 152h44v8h-44z"/><path opacity=".2" fill-rule="evenodd" clip-rule="evenodd" fill="#333" d="M420 96h64v8h-64zM588 64h64v8h-64zM420 80h108v8H420zM544 80h108v8H544zM420 64h152v8H420z"/><path opacity=".2" fill="#333" d="M420 152h232v144H420z"/><path opacity=".2" fill-rule="evenodd" clip-rule="evenodd" fill="#676767" d="M420 132h104v4H420zM336 168h44v4h-44zM336 180h44v4h-44zM336 192h44v4h-44zM420 120h152v4H420zM420 320h108v4H420zM544 320h108v4H544zM420 308h232v4H420zM420 332h232v4H420zM420 356h232v4H420zM420 368h232v4H420zM420 380h232v4H420z"/><path opacity=".2" fill="#333" d="M692 152h44v24h-44z"/><path opacity=".2" fill-rule="evenodd" clip-rule="evenodd" fill="#676767" d="M740 152h56v4h-56zM740 164h28v4h-28z"/><path opacity=".2" fill="#333" d="M692 192h44v24h-44z"/><path opacity=".2" fill-rule="evenodd" clip-rule="evenodd" fill="#676767" d="M740 192h56v4h-56zM740 204h28v4h-28z"/><path opacity=".2" fill="#333" d="M692 232h44v24h-44z"/><path opacity=".2" fill-rule="evenodd" clip-rule="evenodd" fill="#676767" d="M740 232h56v4h-56zM740 244h28v4h-28z"/><path opacity=".2" fill="#333" d="M692 272h44v24h-44z"/><path opacity=".2" fill-rule="evenodd" clip-rule="evenodd" fill="#676767" d="M740 272h56v4h-56zM740 284h28v4h-28z"/><path opacity=".2" fill="#333" d="M692 312h44v24h-44z"/><path opacity=".2" fill-rule="evenodd" clip-rule="evenodd" fill="#676767" d="M740 312h56v4h-56zM740 324h28v4h-28zM420 344h108v4H420zM544 344h108v4H544z"/><g fill-rule="evenodd" clip-rule="evenodd"><path fill="#FFF" d="M745.7 24.1c-.8 0-1.4.6-1.4 1.3 0 .7.6 1.3 1.4 1.3.7 0 1.4-.6 1.4-1.3-.1-.7-.7-1.3-1.4-1.3M755.3 35.1h4.1v-.7l-.8-.4v-5c.3-.2.6-.3 1-.3.7 0 1 .3 1 1.1V34l-.8.4v.7h4.1v-.7l-.8-.4v-4.7c0-1.4-.6-2-1.9-2-1 0-2 .4-2.7 1v-1h-.2l-3.1.5v.7l.9.4v5.2l-.8.4v.6M743.6 27.8v.7l.9.4V34l-.8.4v.7h4v-.7l-.8-.4v-6.7h-.2l-3.1.5M740.1 33.8c-.2.2-.4.3-.8.3-1 0-1.4-.8-1.4-2.7 0-2.2.6-2.9 1.4-2.9.4 0 .7.1.8.3v5zm0-6.1c-.3-.2-.8-.3-1.2-.3-1.9 0-3.6 1.1-3.6 4.2 0 3 1.8 3.9 3 3.9.9 0 1.6-.4 1.9-.8h.1v.8h.2l3-.4v-.6l-.8-.5v-9.8h-.2l-3.1.5v.7l.8.4v1.9h-.1zm0 0M729.7 27.8v.7l.8.4V34l-.8.4v.7h4.3v-.7l-1-.4v-4c.4-.4 1-.5 1.7-.5.2 0 .5 0 .6.1v-2.2h-.4c-.8 0-1.6.5-2 1.6v-1.6h-.2l-3 .4M724.3 28.4c.2-.1.5-.1.7-.1 1 0 1.3.5 1.3 1.5v.9l-1.4.3c-1.5.3-2.6.7-2.6 2.3 0 1.3.9 2.2 2.1 2.2.9 0 1.8-.4 2.2-1.1h.1c.1.8.8 1.1 1.6 1.1.6 0 1.2-.2 1.4-.4v-.4l-.8-.4v-4.4c0-1.7-1.2-2.4-3.2-2.4-1.3 0-2.2.3-2.9.7v1.9h1.2l.3-1.7zm2 5.2c-.1.2-.4.3-.7.3-.5 0-.9-.3-.9-1.1 0-.6.5-1.2 1.1-1.2l.5-.1v2.1zm0 0M749.8 28.4c.2-.1.5-.1.7-.1 1 0 1.3.5 1.3 1.5v.9l-1.4.3c-1.5.3-2.6.7-2.6 2.3 0 1.3.9 2.2 2.1 2.2.9 0 1.8-.4 2.2-1.1h.1c.1.8.8 1.1 1.6 1.1.6 0 1.2-.2 1.4-.4v-.4l-.8-.4v-4.4c0-1.7-1.2-2.4-3.2-2.4-1.3 0-2.2.3-2.9.7v1.9h1.2l.3-1.7zm2 5.2c-.1.2-.4.3-.7.3-.5 0-.9-.3-.9-1.1 0-.6.5-1.2 1.1-1.2l.5-.1v2.1zm0 0M714.5 32.9c0 1.3.6 2.4 2.2 2.4 1 0 1.9-.5 2.4-1.1v1h.2l3-.4v-.6l-.8-.5V27h-.2l-3.1.5v.7l.8.4v4.6c-.3.2-.5.3-.9.3-.6 0-1-.2-1-1.1V27h-.2l-3.1.5v.7l.8.4v4.3M711.3 33.5h-2.7c-.3 0-.5-.2-.5-.5 0-.2.1-.4.3-.6.4.1.7.2 1.2.2 1.9 0 3.3-.9 3.3-2.6 0-.8-.3-1.2-.8-1.6l1.3.4v-1.5l-2 .4c-.5-.2-1.1-.4-1.7-.4-1.9 0-3.3 1-3.3 2.7 0 1 .5 1.8 1.2 2.2h.1c-.4.3-1.3 1-1.3 1.8 0 .6.4 1.2 1.2 1.4-.8.2-1.8.5-1.8 1.5s1.4 2 3.8 2c2.9 0 4.2-1.4 4.2-3.2 0-1.5-.8-2.2-2.5-2.2m-1.6-5.3c.5 0 .9.4.9 1.8s-.4 1.7-.9 1.7-.9-.3-.9-1.7c0-1.5.4-1.8.9-1.8m-.1 9.5c-1.4 0-1.9-.5-1.9-1.1 0-.4.2-.8.8-.9h2.2c.6 0 1 .4 1 .8.1.9-.5 1.2-2.1 1.2"/><path fill="#AAD8F1" d="M705.6 31.5c0-3.2-1.4-4.3-3.3-4.3-2.2 0-3.7 1.5-3.7 4 0 2.6 1.3 4.1 3.9 4.1 1.4 0 2.5-.7 2.8-1.2v-.6c-.5.2-1.1.3-2 .3-1.4 0-2.2-.7-2.2-2.2h4.5v-.1zm-3.4-3.4c.6 0 1 .5 1 2.3l-2.1.1c0-1.9.4-2.4 1.1-2.4zm0 0"/><path fill="#AAD8F1" d="M690.4 35.1h4.1v-.7l-.8-.4v-4.9c.3-.2.6-.3 1-.3.7 0 1 .4 1 1.1v4.2l-.8.4v.7h4.1v-.7l-.8-.4v-4.7c0-1.4-.8-2-1.9-2-1 0-2 .4-2.7 1V24h-.2l-3.1.5v.7l.9.4v8.5l-.8.4v.6M685.9 33c0 1.4.7 2.3 2.2 2.3.8 0 1.6-.2 2.1-.6v-.9c-.2.1-.5.1-.8.1-.7 0-.9-.4-.9-1.1v-4.1h1.6v-1.3h-1.6v-1.8l-2.5.4v1.4l-1.2.2v1.1h1.2V33"/></g><g><path fill="#F6F6F6" d="M4 76c0-17.6 14.4-32 32-32h236v16H36c-8.8 0-16 7.2-16 16v48c0 8.8 7.2 16 16 16h128c17.6 0 32 14.4 32 32v196c0 17.6-14.4 32-32 32h-8c-4.4 0-8-3.6-8-8s3.6-8 8-8h8c8.8 0 16-7.2 16-16V172c0-8.8-7.2-16-16-16H36c-17.6 0-32-14.4-32-32V76z"/><path fill="#333" d="M272 44v16H36c-8.8 0-16 7.2-16 16v48c0 8.8 7.2 16 16 16h128c17.6 0 32 14.4 32 32v196c0 17.6-14.4 32-32 32h-8c-4.4 0-8-3.6-8-8s3.6-8 8-8h8c8.8 0 16-7.2 16-16V172c0-8.8-7.2-16-16-16H36c-17.6 0-32-14.4-32-32V76c0-17.6 14.4-32 32-32h236m4-4H36C16.1 40 0 56.1 0 76v48c0 19.9 16.1 36 36 36h128c6.6 0 12 5.4 12 12v196c0 6.6-5.4 12-12 12h-8c-6.6 0-12 5.4-12 12s5.4 12 12 12h8c19.9 0 36-16.1 36-36V172c0-19.9-16.1-36-36-36H36c-6.6 0-12-5.4-12-12V76c0-6.6 5.4-12 12-12h240V40z"/></g><path fill="#46BCDF" d="M164 396h-8c-2.2 0-4-1.8-4-4s1.8-4 4-4h8c11 0 20-9 20-20V172c0-11-9-20-20-20H36c-15.4 0-28-12.6-28-28V76c0-15.4 12.6-28 28-28h224c2.2 0 4 1.8 4 4s-1.8 4-4 4H36c-11 0-20 9-20 20v48c0 11 9 20 20 20h128c15.4 0 28 12.6 28 28v196c0 15.4-12.6 28-28 28z"/><g><path fill="#FF579C" d="M144 372h8v40h-8z"/><path fill="#333" d="M152 372v40h-8v-40h8m4-4h-16v48h16v-48z"/></g><g><path fill="#FF579C" d="M260 32h8v40h-8z"/><path fill="#333" d="M268 32v40h-8V32h8m4-4h-16v48h16V28z"/></g><g><path fill="#FF579C" d="M272 24h8v56h-8z"/><path fill="#333" d="M280 24v56h-8V24h8m4-4h-16v64h16V20z"/></g><g><path fill="#FF579C" d="M132 364h8v56h-8z"/><path fill="#333" d="M140 364v56h-8v-56h8m4-4h-16v64h16v-64z"/></g><g><path opacity=".1" fill="#FFF" d="M300 20v272L496 20z"/></g><g><path opacity=".1" fill="#FFF" d="M300 324v32L536 20h-16z"/></g></svg>