<svg xmlns="http://www.w3.org/2000/svg" xmlns:xlink="http://www.w3.org/1999/xlink" width="656" height="336" viewBox="0 0 656 336"><circle fill-rule="evenodd" clip-rule="evenodd" fill="#46BCDF" cx="328" cy="204" r="128"/><path fill="#3794AA" d="M328 76c70.7 0 128 57.3 128 128s-57.3 128-128 128-128-57.3-128-128S257.3 76 328 76m0-4c-35.3 0-68.4 13.7-93.3 38.7-25 24.9-38.7 58-38.7 93.3s13.7 68.4 38.7 93.3c24.9 24.9 58.1 38.7 93.3 38.7 35.3 0 68.4-13.7 93.3-38.7s38.7-58 38.7-93.3-13.7-68.4-38.7-93.3S363.3 72 328 72z"/><defs><circle id="a" cx="328" cy="204" r="128"/></defs><clipPath id="b"><use xlink:href="#a" overflow="visible"/></clipPath><path clip-path="url(#b)" fill="#EBD6C0" d="M401.3 381.3l-36-56.6c-53.4-34-66.4-79.6-66.9-81.6-1.7-6.4 2-13 8.4-14.7 6.4-1.7 13 2 14.7 8.4.2.7 12 40.2 58.7 69l2.4 1.4 20 31.5 5.2-7.2c3.9-5.4 11.4-6.5 16.8-2.6s6.5 11.4 2.6 16.8l-25.9 35.6z"/><path fill="#EBD6C0" d="M286 116c-3.1 0-6.1-1.2-8.5-3.5l-28-28c-4.7-4.7-4.7-12.3 0-17 4.7-4.7 12.3-4.7 17 0l28 28c4.7 4.7 4.7 12.3 0 17-2.4 2.3-5.4 3.5-8.5 3.5z"/><defs><circle id="c" cx="328" cy="204" r="128"/></defs><clipPath id="d"><use xlink:href="#c" overflow="visible"/></clipPath><path clip-path="url(#d)" fill="#EBD6C0" d="M314 236l76-72 24 40-12 44 12 52 16 16-28 28-80-80z"/><g fill="#333"><path d="M379.5 46.5c0-5.5-4.5-10-10-10h-78c-5.5 0-10 4.5-10 10v180c0 5.5 4.5 10 10 10h78c5.5 0 10-4.5 10-10v-180z"/><path d="M370 32.5h-78c-7.7 0-14.5 5.8-14.5 13.5v180c0 7.7 6.8 14.5 14.5 14.5h78c7.7 0 13.5-6.8 13.5-14.5V46c0-7.7-5.8-13.5-13.5-13.5z"/></g><path fill="#CCC" d="M331 218c3.3 0 6 2.7 6 6s-2.7 6-6 6-6-2.7-6-6 2.7-6 6-6m0-2c-4.4 0-8 3.6-8 8s3.6 8 8 8 8-3.6 8-8-3.6-8-8-8z"/><circle fill="#CCC" cx="316" cy="46" r="2"/><g fill="#CCC"><path d="M323.5 46.5h14M338 47.5h-14c-.6 0-1-.4-1-1s.4-1 1-1h14c.6 0 1 .4 1 1s-.4 1-1 1z"/></g><circle fill="#CCC" cx="331" cy="41" r="1"/><path fill="#3794AA" d="M285.5 52.5h90v160h-90z"/><path fill="#F6F6F6" d="M318.5 104.9c-3.3 2.5-5.4 6.1-5.4 10.8 0 5.5 2.9 9.1 6.8 11.7l.2.1c-2.3 1.6-7.1 5.3-7.1 9.6 0 3.3 2.1 6.3 6.5 7.4-4.7.9-9.9 3-9.9 8.2v.4c-5.2-5.5-8.7-12.7-8.7-20.9.1-12.2 7.4-22.4 17.6-27.3zm24 46.7c0 3.3-2.4 5.7-11.2 5.7-7.8 0-10.4-2.7-10.4-5.6 0-2.2 1-4.8 4.8-4.8h11.1c3.7 0 5.7 1.9 5.7 4.7zm9.5 1.9c1-2.1 1.6-4.5 1.6-7.2 0-8.2-4.4-11.7-13.6-11.7h-14.8c-1.6 0-2.9-1.3-2.9-2.7 0-1 .8-2.2 1.9-3 2.2.8 4.1.8 6.7.8 10.6 0 17.9-5.2 17.7-14.2-.1-5.1-2.2-8.7-5.9-10.9 10.6 4.6 18.1 15.1 18.1 27.5.2 8.5-3.3 16-8.8 21.4zm-15.6-37.9c0 8.2-2.5 9.1-5.4 9.1-2.9 0-5.4-.7-5.4-9.1s2.5-9.5 5.4-9.5c3.1.1 5.4 1.3 5.4 9.5z"/><path fill="#E0CBB8" d="M286 160c-3.1 0-6.1-1.2-8.5-3.5l-20-20c-4.7-4.7-4.7-12.3 0-17 4.7-4.7 12.3-4.7 17 0l20 20c4.7 4.7 4.7 12.3 0 17-2.4 2.3-5.4 3.5-8.5 3.5z"/><path fill="#E0CBB8" d="M286 192c-3.1 0-6.1-1.2-8.5-3.5l-16-16c-4.7-4.7-4.7-12.3 0-17 4.7-4.7 12.3-4.7 17 0l16 16c4.7 4.7 4.7 12.3 0 17-2.4 2.3-5.4 3.5-8.5 3.5z"/><path fill="#E0CBB8" d="M286 224c-3.1 0-6.1-1.2-8.5-3.5l-12-12c-4.7-4.7-4.7-12.3 0-17 4.7-4.7 12.3-4.7 17 0l12 12c4.7 4.7 4.7 12.3 0 17-2.4 2.3-5.4 3.5-8.5 3.5z"/><defs><circle id="e" cx="328" cy="204" r="128"/></defs><clipPath id="f"><use xlink:href="#e" overflow="visible"/></clipPath><path clip-path="url(#f)" fill="#EBD6C0" d="M421.2 345.6c-2.4 0-4.9-.7-7-2.3-5.4-3.9-6.5-11.4-2.6-16.8l7.7-10.6c-3.9-5.6-9.4-13.8-14.6-23.1-13.9-24.7-18.4-43.2-13.9-56.7l.2-.5.2-.5c6.4-14.4 10.6-32 8.9-36.6-1.7-2.4-9.1-13-15.7-26.2-10.8-21.5-14-39.1-9.7-52.2 2.1-6.3 8.9-9.7 15.2-7.6 6.3 2.1 9.7 8.9 7.6 15.2-1 3.1-2.3 12.5 8.2 33.6 6.5 13 14 23.5 14.1 23.6l.3.4c5.5 8.3 5.7 20.5.6 38.5-2.7 9.6-6.2 18-7.3 20.4-3.4 12 15.3 45 30.3 64.5l5.5 7.1-18.1 24.9c-2.6 3.2-6.2 4.9-9.9 4.9z"/><g opacity=".1" fill="#333"><path d="M262 161.7l5.7-5.7M262 163.7c-.5 0-1-.2-1.4-.6-.8-.8-.8-2 0-2.8l5.7-5.7c.8-.8 2-.8 2.8 0 .8.8.8 2 0 2.8l-5.7 5.7c-.4.4-.9.6-1.4.6z"/></g><g opacity=".1" fill="#333"><path d="M266 197.7l5.7-5.7M266 199.7c-.5 0-1-.2-1.4-.6-.8-.8-.8-2 0-2.8l5.7-5.7c.8-.8 2-.8 2.8 0 .8.8.8 2 0 2.8l-5.7 5.7c-.4.4-.9.6-1.4.6z"/></g><g opacity=".1" fill="#333"><path d="M258 125.7l5.7-5.7M258 127.7c-.5 0-1-.2-1.4-.6-.8-.8-.8-2 0-2.8l5.7-5.7c.8-.8 2-.8 2.8 0 .8.8.8 2 0 2.8l-5.7 5.7c-.4.4-.9.6-1.4.6z"/></g><path fill="#EAEAEA" d="M291.7 206.3c3.1 3.1 3.1 8.2 0 11.3-3.1 3.1-8.2 3.1-11.3 0l-2.8-2.8s2-3.4 5-6.4c3-3 6.4-5 6.4-5l2.7 2.9zM291.7 174.3c3.1 3.1 3.1 8.2 0 11.3-3.1 3.1-8.2 3.1-11.3 0l-2.8-2.8s2-3.4 5-6.4c3-3 6.4-5 6.4-5l2.7 2.9zM292.1 142.8c3.1 3.1 3.1 8.2 0 11.3-3.1 3.1-8.2 3.1-11.3 0l-2.8-2.8s2-3.4 5-6.4c3-3 6.4-4.9 6.4-4.9l2.7 2.8zM397.1 117.5c1.9 3 1.5 6.7.3 10.3-.2.6-.4 1.5-.6 2.8h.1c-.8 0-1.6-.1-2.4-.2-4.2-.5-7.8-2-7.8-2l.5-4c.6-4.4 4.6-7.5 8.9-6.9"/><g fill="#3794AA"><path d="M174 114h-6c-1.1 0-2-.9-2-2s.9-2 2-2h6c1.1 0 2 .9 2 2s-.9 2-2 2zM268.2 114h-11.8c-1.1 0-2-.9-2-2s.9-2 2-2h11.8c1.1 0 2 .9 2 2s-.9 2-2 2zm-23.5 0h-11.8c-1.1 0-2-.9-2-2s.9-2 2-2h11.8c1.1 0 2 .9 2 2s-.9 2-2 2zm-23.6 0h-11.8c-1.1 0-2-.9-2-2s.9-2 2-2h11.8c1.1 0 2 .9 2 2s-.9 2-2 2zm-23.5 0h-11.8c-1.1 0-2-.9-2-2s.9-2 2-2h11.8c1.1 0 2 .9 2 2s-.9 2-2 2zM286 114h-6c-1.1 0-2-.9-2-2s.9-2 2-2h6c1.1 0 2 .9 2 2s-.9 2-2 2z"/></g><g><circle fill-rule="evenodd" clip-rule="evenodd" fill="#46BCDF" cx="80" cy="112" r="80"/><path fill="#3794AA" d="M80 36c41.9 0 76 34.1 76 76s-34.1 76-76 76-76-34.1-76-76 34.1-76 76-76m0-4C35.8 32 0 67.8 0 112s35.8 80 80 80 80-35.8 80-80-35.8-80-80-80z"/><path fill="#FFF" d="M114.5 84.7h-69L40 90.2V133.9l5.5 5.5h69.1l5.5-5.5V90.2l-5.6-5.5zm-7.9 7.3l-26.8 24.6L53.3 92h53.3zm6.1 25.5V132H47.3V97.1l29.1 27.6h7.3l29.1-27.6v20.4z"/></g></svg>