<svg xmlns="http://www.w3.org/2000/svg" width="696" height="408" viewBox="0 0 696 408"><path fill="#333" d="M180 0H24C10.8 0 0 10.8 0 24v360c0 13.2 10.8 24 24 24h156c13.2 0 24-10.8 24-24V24c0-13.2-10.8-24-24-24z"/><path fill="#333" d="M12 48h180v308H12V48z"/><path fill="#CCC" d="M102 368c6.6 0 12 5.4 12 12s-5.4 12-12 12-12-5.4-12-12 5.4-12 12-12m0-4c-8.8 0-16 7.2-16 16s7.2 16 16 16 16-7.2 16-16-7.2-16-16-16z"/><circle fill="#CCC" cx="72" cy="24" r="4"/><path fill="#CCC" d="M88 24h28m0 2H88c-1.1 0-2-.9-2-2s.9-2 2-2h28c1.1 0 2 .9 2 2s-.9 2-2 2z"/><circle fill="#CCC" cx="102" cy="14" r="2"/><path fill="#CCC" d="M102 368c6.6 0 12 5.4 12 12s-5.4 12-12 12-12-5.4-12-12 5.4-12 12-12m0-4c-8.8 0-16 7.2-16 16s7.2 16 16 16 16-7.2 16-16-7.2-16-16-16z"/><circle fill="#CCC" cx="72" cy="24" r="4"/><path fill="#CCC" d="M88 24h28m0 2H88c-1.1 0-2-.9-2-2s.9-2 2-2h28c1.1 0 2 .9 2 2s-.9 2-2 2z"/><circle fill="#CCC" cx="102" cy="14" r="2"/><path fill="#FFF" d="M12 52h180v304H12V52z"/><path fill="#005689" d="M12 48h180v28H12V48z"/><path fill="#FFF" d="M169.7 52.1c-.8 0-1.4.6-1.4 1.3 0 .7.6 1.3 1.4 1.3.7 0 1.4-.6 1.4-1.3-.1-.7-.7-1.3-1.4-1.3m9.6 11h4.1v-.7l-.8-.4v-5c.3-.2.6-.3 1-.3.7 0 1 .3 1 1.1V62l-.8.4v.7h4.1v-.7l-.8-.4v-4.7c0-1.4-.6-2-1.9-2-1 0-2 .4-2.7 1v-1h-.2l-3.1.5v.7l.9.4v5.2l-.8.4v.6m-11.7-7.3v.7l.9.4V62l-.8.4v.7h4v-.7l-.8-.4v-6.7h-.2l-3.1.5m-3.5 6c-.2.2-.4.3-.8.3-1 0-1.4-.8-1.4-2.7 0-2.2.6-2.9 1.4-2.9.4 0 .7.1.8.3v5zm0-6.1c-.3-.2-.8-.3-1.2-.3-1.9 0-3.6 1.1-3.6 4.2 0 3 1.8 3.9 3 3.9.9 0 1.6-.4 1.9-.8h.1v.8h.2l3-.4v-.6l-.8-.5v-9.8h-.2l-3.1.5v.7l.8.4v1.9h-.1zm-10.4.1v.7l.8.4V62l-.8.4v.7h4.3v-.7l-1-.4v-4c.4-.4 1-.5 1.7-.5.2 0 .5 0 .6.1v-2.2h-.4c-.8 0-1.6.5-2 1.6v-1.6h-.2l-3 .4m-5.4.6c.2-.1.5-.1.7-.1 1 0 1.3.5 1.3 1.5v.9l-1.4.3c-1.5.3-2.6.7-2.6 2.3 0 1.3.9 2.2 2.1 2.2.9 0 1.8-.4 2.2-1.1h.1c.1.8.8 1.1 1.6 1.1.6 0 1.2-.2 1.4-.4v-.4l-.8-.4v-4.4c0-1.7-1.2-2.4-3.2-2.4-1.3 0-2.2.3-2.9.7v1.9h1.2l.3-1.7zm2 5.2c-.1.2-.4.3-.7.3-.5 0-.9-.3-.9-1.1 0-.6.5-1.2 1.1-1.2l.5-.1v2.1zm23.5-5.2c.2-.1.5-.1.7-.1 1 0 1.3.5 1.3 1.5v.9l-1.4.3c-1.5.3-2.6.7-2.6 2.3 0 1.3.9 2.2 2.1 2.2.9 0 1.8-.4 2.2-1.1h.1c.1.8.8 1.1 1.6 1.1.6 0 1.2-.2 1.4-.4v-.4l-.8-.4v-4.4c0-1.7-1.2-2.4-3.2-2.4-1.3 0-2.2.3-2.9.7v1.9h1.2l.3-1.7zm2 5.2c-.1.2-.4.3-.7.3-.5 0-.9-.3-.9-1.1 0-.6.5-1.2 1.1-1.2l.5-.1v2.1zm-37.3-.7c0 1.3.6 2.4 2.2 2.4 1 0 1.9-.5 2.4-1.1v1h.2l3-.4v-.6l-.8-.5V55h-.2l-3.1.5v.7l.8.4v4.6c-.3.2-.5.3-.9.3-.6 0-1-.2-1-1.1V55h-.2l-3.1.5v.7l.8.4v4.3m-3.3.6h-2.7c-.3 0-.5-.2-.5-.5 0-.2.1-.4.3-.6.4.1.7.2 1.2.2 1.9 0 3.3-.9 3.3-2.6 0-.8-.3-1.2-.8-1.6l1.3.4v-1.5l-2 .4c-.5-.2-1.1-.4-1.7-.4-1.9 0-3.3 1-3.3 2.7 0 1 .5 1.8 1.2 2.2h.1c-.4.3-1.3 1-1.3 1.8 0 .6.4 1.2 1.2 1.4-.8.2-1.8.5-1.8 1.5s1.4 2 3.8 2c2.9 0 4.2-1.4 4.2-3.2 0-1.5-.8-2.2-2.5-2.2m-1.6-5.3c.5 0 .9.4.9 1.8s-.4 1.7-.9 1.7-.9-.3-.9-1.7c0-1.5.4-1.8.9-1.8m-.1 9.5c-1.4 0-1.9-.5-1.9-1.1 0-.4.2-.8.8-.9h2.2c.6 0 1 .4 1 .8.1.9-.5 1.2-2.1 1.2"/><path fill="#AAD8F1" d="M129.6 59.5c0-3.2-1.4-4.3-3.3-4.3-2.2 0-3.7 1.5-3.7 4 0 2.6 1.3 4.1 3.9 4.1 1.4 0 2.5-.7 2.8-1.2v-.6c-.5.2-1.1.3-2 .3-1.4 0-2.2-.7-2.2-2.2h4.5v-.1zm-3.4-3.4c.6 0 1 .5 1 2.3l-2.1.1c0-1.9.4-2.4 1.1-2.4z"/><path fill="#AAD8F1" d="M114.4 63.1h4.1v-.7l-.8-.4v-4.9c.3-.2.6-.3 1-.3.7 0 1 .4 1 1.1v4.2l-.8.4v.7h4.1v-.7l-.8-.4v-4.7c0-1.4-.8-2-1.9-2-1 0-2 .4-2.7 1V52h-.2l-3.1.5v.7l.9.4v8.5l-.8.4v.6m-4.5-2.1c0 1.4.7 2.3 2.2 2.3.8 0 1.6-.2 2.1-.6v-.9c-.2.1-.5.1-.8.1-.7 0-.9-.4-.9-1.1v-4.1h1.6v-1.3h-1.6v-1.8l-2.5.4v1.4l-1.2.2v1.1h1.2V61"/><path fill="#E3E3E3" d="M12 76h180v20H12V76z"/><path opacity=".2" fill="#005689" d="M16 100h28v8H16v-8z"/><path opacity=".2" fill="#333" d="M16 148h64v8H16v-8zm0-16h104v8H16v-8z"/><path opacity=".2" fill="#676767" d="M16 196h104v4H16v-4z"/><path opacity=".2" fill="#333" d="M16 116h152v8H16v-8z"/><path opacity=".2" fill="#676767" d="M16 184h152v4H16v-4z"/><path opacity=".2" fill="#333" d="M12 212h180v144H12V212z"/><path fill="#F6F6F6" d="M284 220c-19.9 0-36-16.1-36-36v-80c0-6.6-5.4-12-12-12h-8c-6.6 0-12-5.4-12-12s5.4-12 12-12h8c19.9 0 36 16.1 36 36v80c0 6.6 5.4 12 12 12s12-5.4 12-12v-80c0-19.9 16.1-36 36-36s36 16.1 36 36v100c0 6.6-5.4 12-12 12s-12-5.4-12-12V104c0-6.6-5.4-12-12-12s-12 5.4-12 12v80c0 19.9-16.1 36-36 36z"/><path fill="#CCC" d="M652 80h40v8h-40v-8z"/><path fill="#333" d="M692 80v8h-40v-8h40m0-4h-40c-2.2 0-4 1.8-4 4v8c0 2.2 1.8 4 4 4h40c2.2 0 4-1.8 4-4v-8c0-2.2-1.8-4-4-4z"/><path fill="#CCC" d="M652 72h8v332h-8V72z"/><path fill="#333" d="M660 72v332h-8V72h8m0-4h-8c-2.2 0-4 1.8-4 4v332c0 2.2 1.8 4 4 4h8c2.2 0 4-1.8 4-4V72c0-2.2-1.8-4-4-4z"/><path fill="#F6F6F6" d="M404 212c-6.6 0-12-5.4-12-12V44c0-19.9 16.1-36 36-36h80c19.8 0 36 16.1 36 36v36c0 6.6-5.4 12-12 12s-12-5.4-12-12V44c0-6.6-5.4-12-12-12h-80c-6.6 0-12 5.4-12 12v156c0 6.6-5.4 12-12 12z"/><path fill="#333" d="M508 12c17.6 0 32 14.4 32 32v36c0 4.4-3.6 8-8 8s-8-3.6-8-8V44c0-8.8-7.2-16-16-16h-80c-8.8 0-16 7.2-16 16v156c0 4.4-3.6 8-8 8s-8-3.6-8-8V44c0-17.6 14.4-32 32-32h80m0-4h-80c-19.9 0-36 16.1-36 36v156c0 6.6 5.4 12 12 12s12-5.4 12-12V44c0-6.6 5.4-12 12-12h80c6.6 0 12 5.4 12 12v36c0 6.6 5.4 12 12 12s12-5.4 12-12V44c0-19.9-16.2-36-36-36z"/><path fill="#36BCDF" d="M404 204c-2.2 0-4-1.8-4-4V44c0-15.4 12.6-28 28-28h80c15.4 0 28 12.6 28 28v36c0 2.2-1.8 4-4 4s-4-1.8-4-4V44c0-11-9-20-20-20h-80c-11 0-20 9-20 20v156c0 2.2-1.8 4-4 4z"/><path fill="#F6F6F6" d="M284 220c-19.9 0-36-16.1-36-36v-80c0-6.6-5.4-12-12-12h-8c-6.6 0-12-5.4-12-12s5.4-12 12-12h8c19.8 0 36 16.1 36 36v80c0 6.6 5.4 12 12 12s12-5.4 12-12v-80c0-19.9 16.1-36 36-36 19.8 0 36 16.1 36 36v100c0 6.6-5.4 12-12 12s-12-5.4-12-12V104c0-6.6-5.4-12-12-12s-12 5.4-12 12v80c0 19.9-16.2 36-36 36z"/><path fill="#333" d="M332 72c17.6 0 32 14.4 32 32v100c0 4.4-3.6 8-8 8s-8-3.6-8-8V104c0-8.8-7.2-16-16-16s-16 7.2-16 16v80c0 17.6-14.4 32-32 32s-32-14.4-32-32v-80c0-8.8-7.2-16-16-16h-8c-4.4 0-8-3.6-8-8s3.6-8 8-8h8c17.6 0 32 14.4 32 32v80c0 8.8 7.2 16 16 16s16-7.2 16-16v-80c0-17.6 14.4-32 32-32m0-4c-19.9 0-36 16.1-36 36v80c0 6.6-5.4 12-12 12s-12-5.4-12-12v-80c0-19.9-16.2-36-36-36h-8c-6.6 0-12 5.4-12 12s5.4 12 12 12h8c6.6 0 12 5.4 12 12v80c0 19.9 16.1 36 36 36 19.8 0 36-16.1 36-36v-80c0-6.6 5.4-12 12-12s12 5.4 12 12v100c0 6.6 5.4 12 12 12s12-5.4 12-12V104c0-19.9-16.2-36-36-36z"/><path fill="#46BCDF" d="M284 212c-15.4 0-28-12.6-28-28v-80c0-11-9-20-20-20h-8c-2.2 0-4-1.8-4-4s1.8-4 4-4h8c15.4 0 28 12.6 28 28v80c0 11 9 20 20 20s20-9 20-20v-32c0-2.2 1.8-4 4-4s4 1.8 4 4v32c0 15.4-12.6 28-28 28z"/><path fill="#FF579C" d="M204 52h8v60h-8V52z"/><path fill="#333" d="M212 52v56h-8V52h8m4-4h-16v64h16V48z"/><path fill="#FF579C" d="M216 64h8v36h-8V64z"/><path fill="#333" d="M224 64v36h-8V64h8m4-4h-16v44h16V60z"/><path fill="#F6F6F6" d="M544 109.1v-52h-24v52c-29.6 5.6-52 31.6-52 62.9 0 35.3 28.7 64 64 64s64-28.7 64-64c0-31.2-22.4-57.2-52-62.9z"/><path fill="#333" d="M544 57.1v52c29.6 5.6 52 31.6 52 62.9 0 35.3-28.7 64-64 64s-64-28.7-64-64c0-31.2 22.4-57.2 52-62.9v-52h24m0-4h-24c-2.2 0-4 1.8-4 4v48.8c-30.3 7.3-52 34.6-52 66.1 0 37.5 30.5 68 68 68s68-30.5 68-68c0-31.5-21.7-58.8-52-66.1V57.1c0-2.2-1.8-4-4-4z"/><path fill="#F6F6F6" d="M548 52h-32c-2.2 0-4 1.8-4 4s1.8 4 4 4h32c2.2 0 4-1.8 4-4s-1.8-4-4-4z"/><path fill="#333" d="M548 62h-32c-3.3 0-6-2.7-6-6s2.7-6 6-6h32c3.3 0 6 2.7 6 6s-2.7 6-6 6zm-32-8c-1.1 0-2 .9-2 2s.9 2 2 2h32c1.1 0 2-.9 2-2s-.9-2-2-2h-32z"/><path fill="#CCC" d="M472 396h188v8H472v-8z"/><path fill="#333" d="M660 396v8H472v-8h188m0-4H472c-2.2 0-4 1.8-4 4v8c0 2.2 1.8 4 4 4h188c2.2 0 4-1.8 4-4v-8c0-2.2-1.8-4-4-4z"/><path fill="#46BCDF" d="M588 172c0 30.9-25.1 56-56 56s-56-25.1-56-56v-8s32-20 56 0 56 0 56 0v8z"/><path fill="#676767" d="M332 204h100v12H332v-12z"/><path fill="#333" d="M428 204v12h-96v-12h96m4-4H328v20h104v-20z"/><path fill="#F6F6F6" d="M432 220H328c-8.8 0-16 7.2-16 16v152c0 8.8 7.2 16 16 16h104c8.8 0 16-7.2 16-16V236c0-8.8-7.2-16-16-16z"/><path fill="#333" d="M432 220c8.8 0 16 7.2 16 16v152c0 8.8-7.2 16-16 16H328c-8.8 0-16-7.2-16-16V236c0-8.8 7.2-16 16-16h104m0-4H328c-11 0-20 9-20 20v152c0 11 9 20 20 20h104c11 0 20-9 20-20V236c0-11-9-20-20-20z"/><path fill="#46BCDF" d="M360 296c8 0 12-8 20-8s12 8 20 8 12-8 20-8 12 8 20 8v92c0 4.4-3.6 8-8 8H328c-4.4 0-8-3.6-8-8v-92c8 0 12-8 20-8s12 8 20 8z"/><path fill="#3794AA" d="M369.5 334.6c-3.3 2.5-5.4 6.1-5.4 10.8 0 5.5 2.9 9.1 6.8 11.7l.2.1c-2.3 1.6-7.1 5.3-7.1 9.6 0 3.3 2.1 6.3 6.5 7.4-4.7.9-9.9 3-9.9 8.2v.4c-5.2-5.5-8.7-12.7-8.7-20.9.1-12.2 7.4-22.4 17.6-27.3zm24 46.7c0 3.3-2.4 5.7-11.2 5.7-7.8 0-10.4-2.7-10.4-5.6 0-2.2 1-4.8 4.8-4.8h11.1c3.7 0 5.7 1.9 5.7 4.7zm9.5 1.9c1-2.1 1.6-4.5 1.6-7.2 0-8.2-4.4-11.7-13.6-11.7h-14.8c-1.6 0-2.9-1.3-2.9-2.7 0-1 .8-2.2 1.9-3 2.2.8 4.1.8 6.7.8 10.6 0 17.9-5.2 17.7-14.2-.1-5.1-2.2-8.7-5.9-10.9 10.6 4.6 18.1 15.1 18.1 27.5.2 8.5-3.3 16-8.8 21.4zm-15.6-37.9c0 8.2-2.5 9.1-5.4 9.1s-5.4-.7-5.4-9.1 2.5-9.5 5.4-9.5c3.1 0 5.4 1.3 5.4 9.5zM364 316c2.2 0 4 1.8 4 4s-1.8 4-4 4-4-1.8-4-4 1.8-4 4-4m0-4c-4.4 0-8 3.6-8 8s3.6 8 8 8 8-3.6 8-8-3.6-8-8-8z"/><circle fill="#3794AA" cx="384" cy="304" r="4"/><circle fill="#46BCDF" cx="540" cy="144" r="8"/><path fill="#3794AA" d="M528 204c2.2 0 4 1.8 4 4s-1.8 4-4 4-4-1.8-4-4 1.8-4 4-4m0-4c-4.4 0-8 3.6-8 8s3.6 8 8 8 8-3.6 8-8-3.6-8-8-8z"/><circle fill="#46BCDF" cx="516" cy="132" r="4"/><circle fill="#46BCDF" cx="532" cy="120" r="4"/><circle fill="#3794AA" cx="540" cy="192" r="4"/><path fill="#CCC" d="M524 296h16v68h-16v-68z"/><path fill="#333" d="M540 296v68h-16v-68h16m0-4h-16c-2.2 0-4 1.8-4 4v68c0 2.2 1.8 4 4 4h16c2.2 0 4-1.8 4-4v-68c0-2.2-1.8-4-4-4z"/><path fill="#CCC" d="M508 380h48v12h-48v-12z"/><path fill="#333" d="M556 380v12h-48v-12h48m0-4h-48c-2.2 0-4 1.8-4 4v12c0 2.2 1.8 4 4 4h48c2.2 0 4-1.8 4-4v-12c0-2.2-1.8-4-4-4z"/><path fill="#CCC" d="M516 344h32v32h-32v-32z"/><path fill="#333" d="M548 344v32h-32v-32h32m0-4h-32c-2.2 0-4 1.8-4 4v32c0 2.2 1.8 4 4 4h32c2.2 0 4-1.8 4-4v-32c0-2.2-1.8-4-4-4z"/><path fill="#FF0" d="M532 256c-1.6 0-3.1 1-3.7 2.5-1.9 4.6-6.3 15.8-6.3 19.5 0 5.5 4.5 10 10 10s10-4.5 10-10c0-3.7-4.4-14.9-6.3-19.5-.6-1.5-2.1-2.5-3.7-2.5z"/><path opacity=".2" fill="#333" d="M320 248h32v4h-32v-4zm0 32h16v4h-16v-4zm0 32h32v4h-32v-4zm0 32h16v4h-16v-4z"/><path fill="#333" d="M640 76h-68v-4c0-2.2-1.8-4-4-4h-48c-2.2 0-4 1.8-4 4v4c0 2.2 1.8 4 4 4h44v8h-44c-2.2 0-4 1.8-4 4v4c0 2.2 1.8 4 4 4h48c2.2 0 4-1.8 4-4v-4h68c2.2 0 4-1.8 4-4v-8c0-2.2-1.8-4-4-4zm-120 0v-4h44v4h-44zm0 20v-4h44v4h-44zm120-8h-68v-8h68v8z"/><path opacity=".2" fill="#333" d="M320 376h32v4h-32v-4z"/><g fill="#333"><path d="M552 356h8v8h-8v-8z"/><path d="M560 366h-8c-1.1 0-2-.9-2-2v-8c0-1.1.9-2 2-2h8c1.1 0 2 .9 2 2v8c0 1.1-.9 2-2 2zm-6-4h4v-4h-4v4z"/></g><path opacity=".2" fill="#333" d="M476 164h16v4h-16v-4z"/><path fill="#46BCDF" d="M508 196h-26.6c.6 1.4 1.4 2.7 2.1 4H508v-4z"/><path opacity=".2" fill="#333" d="M508 196h-26.6c.6 1.4 1.4 2.7 2.1 4H508v-4z"/><path fill="#CCC" d="M572 80h68v8h-68v-8z"/><circle fill="#CCC" cx="656" cy="84" r="16"/><path fill="#333" d="M656 68c8.8 0 16 7.2 16 16s-7.2 16-16 16-16-7.2-16-16 7.2-16 16-16m0-4c-11 0-20 9-20 20s9 20 20 20 20-9 20-20-9-20-20-20z"/><path fill="#333" d="M647.9 84l8-8 8 8-8 8-8-8z"/><path fill="#FF579C" d="M520 72h48v4h-48v-4zm0 20h48v4h-48v-4z"/><path opacity=".1" fill="#FFF" d="M12 281.1L124 48h-12L12 256.1v25z"/><g><path opacity=".1" fill="#FFF" d="M12 48v174.8L96 48H12z"/></g></svg>