<?xml version="1.0" encoding="utf-8"?>
<!-- Generator: Adobe Illustrator 16.0.1, SVG Export Plug-In . SVG Version: 6.00 Build 0)  -->
<!DOCTYPE svg PUBLIC "-//W3C//DTD SVG 1.1//EN" "http://www.w3.org/Graphics/SVG/1.1/DTD/svg11.dtd">
<svg version="1.1" id="Layer_1" xmlns="http://www.w3.org/2000/svg" xmlns:xlink="http://www.w3.org/1999/xlink" x="0px" y="0px"
	 width="696px" height="534.1px" viewBox="0 0 696 534.1" enable-background="new 0 0 696 534.1" xml:space="preserve">
<path fill="#EBD6C0" d="M178.9,528.1c-2.7,0-4.6-0.2-5.7-0.3c-7.7-0.8-14.5-5-18.8-11.5s-5.5-14.4-3.3-21.8l64-216
	c4.1-13.8,18.5-21.6,32.3-17.5c13.8,4.1,21.6,18.5,17.5,32.3l-51.7,174.3c14.2-5.5,32-14.2,52.6-27.5c4.2-2.7,9.1-4.2,14.1-4.2h4
	c14.4,0,26,11.6,26,26c0,13-9.5,23.7-21.9,25.7C230.4,523.7,193.4,528.1,178.9,528.1z"/>
<g>
	<rect x="248" y="294" fill="#94B1CA" width="192" height="172"/>
	<path fill="#333333" d="M440,294v172H248V294H440 M440,290H248c-2.2,0-4,1.8-4,4v172c0,2.2,1.8,4,4,4h192c2.2,0,4-1.8,4-4V294
		C444,291.8,442.2,290,440,290L440,290z"/>
</g>
<rect x="248" y="378" fill="#005689" width="192" height="88"/>
<rect x="248" y="382" fill="#FFFFFF" width="192" height="12"/>
<g>
	<path fill="#EBD6C0" d="M531.2,499.8l-60-224c-3.4-12.8-16.6-20.4-29.4-17c-12.8,3.4-20.4,16.6-17,29.4l47.2,176.4
		c-30.2-13.4-42.9-15.1-80.3-39.2c0,0-0.1-0.1-0.1-0.1c-0.1-0.1-10.7-13.6-10.7-31.3c0-3.3-2.7-6-6-6s-6,2.7-6,6
		c0,7.2,1.4,13.8,3.3,19.5c-10.3-3.8-22.2-0.1-28.4,9.5c-7.2,11.1-4,26,7.1,33.2l3.5,2.3c65,42,67.7,37.5,144.2,69.7
		c3,1.3,6.2,1.9,9.3,1.9c5.7,0,11.3-2,15.8-5.9C530.7,518.1,533.6,508.6,531.2,499.8z"/>
	<path fill="#333333" d="M448,258c10.6,0,20.3,7.1,23.2,17.8l60,224c2.4,8.9-0.5,18.3-7.4,24.3c-4.5,3.9-10.1,5.9-15.8,5.9
		c0,0,0,0,0,0c-3.1,0-6.3-0.6-9.3-1.9c-76.5-32.2-79.2-27.6-144.2-69.7l-3.5-2.3c-11.1-7.2-14.3-22.1-7.1-33.2
		c4.6-7.1,12.3-11,20.2-11c2.8,0,5.6,0.5,8.3,1.5c-1.9-5.6-3.3-12.2-3.3-19.5c0-3.3,2.7-6,6-6s6,2.7,6,6c0,17.7,10.6,31.1,10.7,31.3
		c0,0,0.1,0.1,0.1,0.1c37.3,24.1,50,25.8,80.3,39.2l-47.2-176.4c-3.4-12.8,4.2-26,17-29.4C443.9,258.3,446,258,448,258 M448,254
		c-2.4,0-4.9,0.3-7.3,1c-14.9,4-23.8,19.4-19.8,34.3l45.1,168.4c-5-2.1-9.6-4-14.1-5.7c-17.3-6.9-30.9-12.4-57.4-29.5
		c-1.5-2.1-9.6-13.8-9.6-28.4c0-5.5-4.5-10-10-10s-10,4.5-10,10c0,4.7,0.5,9.4,1.6,14.1c-0.9-0.1-1.7-0.1-2.6-0.1
		c-9.5,0-18.3,4.8-23.5,12.8c-4.1,6.3-5.4,13.8-3.9,21.1c1.6,7.3,5.9,13.6,12.2,17.6l3.5,2.3c48.6,31.5,63.1,37.2,98.2,51.1
		c12,4.8,27,10.7,46.6,18.9c3.5,1.5,7.1,2.2,10.9,2.2c6.8,0,13.3-2.4,18.4-6.9c8-7,11.4-18.1,8.6-28.4l-60-224
		C471.8,262.5,460.7,254,448,254L448,254z"/>
</g>
<g>
	<path fill="#333333" d="M380,457c0,4.4-3.6,8-8,8h-44c-4.4,0-8-3.6-8-8V357c0-4.4,3.6-8,8-8h44c4.4,0,8,3.6,8,8V457z"/>
	<path fill="#333333" d="M372,467h-44c-5.5,0-10-4.5-10-10V357c0-5.5,4.5-10,10-10h44c5.5,0,10,4.5,10,10v100
		C382,462.5,377.5,467,372,467z M328,351c-3.3,0-6,2.7-6,6v100c0,3.3,2.7,6,6,6h44c3.3,0,6-2.7,6-6V357c0-3.3-2.7-6-6-6H328z"/>
</g>
<path fill="none" stroke="#EBD6C0" stroke-width="12" stroke-linecap="round" stroke-miterlimit="10" d="M269,450"/>
<g>
	<path fill="#EBD6C0" d="M379.9,420c-0.5-3.3-3.6-5.5-6.9-5l-44.9,7.3c-0.2-1.5-0.4-3-0.7-4.3l40.4-6.1c3.3-0.5,5.5-3.6,5-6.8
		c-0.5-3.3-3.6-5.5-6.8-5l-46,7c-0.6,0.1-1.2,0.3-1.7,0.5l-0.3-8.4c2.7-6.1,5-14,5-23.2c0-3.3-2.7-6-6-6s-6,2.7-6,6
		c0,17.3-10.3,28.8-10.4,28.9l-1,1.1l-0.4,1.5c-3.5,14.2-18.3,29.1-18.4,29.2c-2.2,2.2-10.3,6.5-15.3,8.8c-3,1.4-4.3,5-2.9,8
		c0.3,0.8,0.8,1.4,1.4,1.9l-0.7,11.8c-2.1,0.6-3.8,2.4-4.2,4.7c-0.5,3.3,1.7,6.4,4.9,6.9c3.1,0.5,6.4,0.8,9.8,0.8
		c23.9,0,51.2-11.6,52.6-12.2l2.6-1.1l32.1-5.5c3.3-0.6,5.5-3.7,4.9-6.9s-3.7-5.5-6.9-4.9l-28,4.8c0-1.2,0.1-2.4,0-3.8l37-6.2
		c3.3-0.5,5.5-3.6,4.9-6.9c-0.5-3.3-3.6-5.5-6.9-4.9l-35.8,6c-0.1-1.2-0.3-2.5-0.4-3.8l45.2-7.4C378.2,426.4,380.5,423.3,379.9,420z
		"/>
	<path fill="#333333" d="M317,370c3.3,0,6,2.7,6,6c0,9.2-2.3,17.1-5,23.2l0.3,8.4c0.5-0.3,1.1-0.4,1.7-0.5l46-7
		c0.3,0,0.6-0.1,0.9-0.1c2.9,0,5.5,2.1,5.9,5.1c0.5,3.3-1.8,6.3-5,6.8l-40.4,6.1c0.2,1.4,0.4,2.8,0.7,4.3l44.9-7.3
		c0.3-0.1,0.6-0.1,1-0.1c2.9,0,5.4,2.1,5.9,5c0.5,3.3-1.7,6.4-5,6.9l-45.2,7.4c0.1,1.3,0.3,2.5,0.4,3.8l35.8-6
		c0.3-0.1,0.7-0.1,1-0.1c2.9,0,5.4,2.1,5.9,5c0.5,3.3-1.7,6.4-4.9,6.9l-37,6.2c0,1.4,0,2.6,0,3.8l28-4.8c0.3-0.1,0.7-0.1,1-0.1
		c2.9,0,5.4,2.1,5.9,5c0.6,3.3-1.6,6.4-4.9,6.9l-32.1,5.5l-2.6,1.1c-1.3,0.6-28.7,12.2-52.6,12.2c-3.4,0-6.7-0.2-9.8-0.8
		c-3.3-0.5-5.5-3.6-4.9-6.9c0.4-2.3,2.1-4.1,4.2-4.7l0.7-11.8c-0.6-0.5-1.1-1.2-1.4-1.9c-1.4-3-0.1-6.6,2.9-8c5-2.3,13-6.6,15.3-8.8
		c0.1-0.1,14.9-15.1,18.4-29.2l0.4-1.5l1-1.1c0.1-0.1,10.4-11.7,10.4-28.9C311,372.7,313.7,370,317,370 M317,366
		c-5.5,0-10,4.5-10,10c0,15.2-9,25.8-9.4,26.3l-1,1.1l-0.7,0.8l-0.2,1l-0.4,1.5c-3.2,13-17.2,27.2-17.4,27.4
		c-1.4,1.4-8.1,5.2-14.1,8c-5,2.3-7.2,8.3-4.9,13.3c0.3,0.6,0.6,1.1,1,1.6l-0.5,7.9c-2.2,1.5-3.8,3.9-4.3,6.6
		c-0.4,2.6,0.2,5.3,1.7,7.5c1.6,2.2,3.9,3.6,6.5,4.1c3.2,0.5,6.7,0.8,10.5,0.8c24.7,0,52.9-12,54.1-12.5l2.1-0.9l31.6-5.4
		c5.4-0.9,9.1-6.1,8.2-11.5c-0.3-2-1.3-3.8-2.6-5.2l1.4-0.2c2.6-0.4,4.9-1.9,6.5-4.1s2.2-4.8,1.7-7.5c-0.3-2-1.3-3.9-2.6-5.3
		l1.4-0.2c5.4-0.9,9.1-6,8.3-11.5c-0.7-4.3-4.1-7.6-8.3-8.3c1.2-2,1.7-4.3,1.3-6.6c-0.7-4.8-5-8.5-9.9-8.5c-0.5,0-1,0-1.5,0.1
		l-43.3,6.6l-0.1-2.8c3.3-7.7,4.9-15.8,4.9-23.9C327,370.5,322.5,366,317,366L317,366z"/>
</g>
<path opacity="0.8" fill="#F3AAB9" d="M364.2,454.3c0.4,2.2-1.1,4.3-3.2,4.6l-3.9,0.7c-2.2,0.4-2.3-1.4-2.7-3.6
	c-0.4-2.2-0.9-3.9,1.3-4.3l3.9-0.7C361.7,450.6,363.8,452.1,364.2,454.3z"/>
<path opacity="0.8" fill="#F3AAB9" d="M370.8,437.4c0.4,2.2-1.1,4.3-3.2,4.6l-3.9,0.7c-2.2,0.4-2.3-1.4-2.7-3.6
	c-0.4-2.2-0.9-3.9,1.3-4.3l3.9-0.7C368.3,433.7,370.4,435.2,370.8,437.4z"/>
<path opacity="0.8" fill="#F3AAB9" d="M377.9,420.6c0.4,2.2-1.1,4.3-3.2,4.6l-3.9,0.7c-2.2,0.4-2.3-1.4-2.7-3.6
	c-0.4-2.2-0.9-3.9,1.3-4.3l3.9-0.7C375.5,417,377.5,418.4,377.9,420.6z"/>
<path opacity="0.8" fill="#F3AAB9" d="M370.8,405.2c0.4,2.2-1.1,4.3-3.2,4.6l-3.9,0.7c-2.2,0.4-2.3-1.4-2.7-3.6
	c-0.4-2.2-0.9-3.9,1.3-4.3l3.9-0.7C368.3,401.6,370.4,403.1,370.8,405.2z"/>
<path opacity="0.8" fill="#F3AAB9" d="M313.7,370.9c2.2,0.3,3.7,2.3,3.5,4.5l-0.5,4c-0.3,2.2-2,1.8-4.2,1.5s-2-0.3-1.7-2.5l0.5-4
	C311.5,372.2,311.5,370.7,313.7,370.9z"/>
<g>
	<path fill="#94B1CA" d="M416,318l52.5,142.9c-8.5-3.7-13-6.2-23.5-12.2c-5-2.9-3.2-1.9-8.7-5.4c-13.9-9-32.5-5-41.5,8.9
		c-9,13.9-5,32.5,8.9,41.5c11.5,7.5,10.3,7.3,20.3,12.5c43.8,22.8,72.6,26,85.3,26c2.8,0,4.8-0.2,6-0.3c8.8-1,16.8-5.8,21.7-13.2
		s6.3-16.6,3.8-25.1l-64-216c-1.7-5.7-5-10.7-9.6-14.5c-3.3-2.8-33.9-27-87.2-27h-36h-36c-53.3,0-83.9,24.2-87.2,27
		c-4.5,3.8-7.9,8.8-9.6,14.5l-64,216c-2.5,8.5-1.1,17.7,3.8,25.1s12.9,12.2,21.7,13.2c1.2,0.1,3.2,0.3,6,0.3
		c15.5,0,55.6-4.8,117.6-44.9c13.9-9,17.9-27.6,8.9-41.5c-9-13.9-27.6-17.9-41.5-8.9c-16.8,10.9-31.7,18.6-44.2,24L272,318"/>
	<path fill="#333333" d="M509.3,534.1c-13.4,0-42.5-3.4-86.2-26.2c-7-3.6-8.5-4.7-12.7-7.5c-1.9-1.3-4.2-2.8-7.7-5.1
		c-14.8-9.6-19.1-29.4-9.5-44.2c4.6-7.2,11.8-12.1,20.2-13.9c8.4-1.8,16.9-0.2,24.1,4.4c1.6,1.1,2.6,1.7,3.3,2.2
		c1.6,1.1,1.8,1.2,5.3,3.2c8.6,5,13.2,7.5,19,10.2l-50.9-138.4c-0.4-1,0.2-2.2,1.2-2.6c1-0.4,2.2,0.2,2.6,1.2l52.5,142.9
		c0.3,0.8,0.1,1.6-0.5,2.1c-0.6,0.6-1.4,0.7-2.2,0.4c-8.5-3.7-13-6.1-23.7-12.3c-3.6-2.1-3.8-2.2-5.5-3.3c-0.7-0.5-1.7-1.1-3.3-2.2
		c-6.3-4.1-13.8-5.4-21.1-3.9c-7.3,1.6-13.6,5.9-17.6,12.2c-8.4,13-4.7,30.3,8.3,38.7c3.6,2.3,5.9,3.9,7.8,5.2
		c4,2.7,5.5,3.7,12.3,7.3c43,22.4,71.3,25.8,84.4,25.8c2.7,0,4.7-0.2,5.8-0.3c8.3-0.9,15.6-5.4,20.2-12.3c4.6-6.9,5.9-15.5,3.5-23.4
		l-64-216c-1.6-5.3-4.7-10-8.9-13.6c-3.3-2.7-33.3-26.5-85.9-26.5h-72c-52.6,0-82.7,23.8-85.9,26.5c-4.3,3.6-7.3,8.2-8.9,13.6
		l-64,216c-2.4,8-1.1,16.5,3.5,23.4c4.6,6.9,12,11.4,20.2,12.3c1.1,0.1,3.1,0.3,5.8,0.3c14.3,0,54.3-4.3,116.5-44.6
		c13-8.4,16.7-25.8,8.3-38.7c-4.1-6.3-10.3-10.6-17.6-12.2c-7.3-1.6-14.8-0.2-21.1,3.9c-15.4,9.9-30.3,18.1-44.5,24.2
		c-0.7,0.3-1.6,0.2-2.2-0.4c-0.6-0.5-0.8-1.4-0.5-2.1l52.5-142.9c0.4-1,1.5-1.6,2.6-1.2c1,0.4,1.6,1.5,1.2,2.6L223,457.1
		c12.7-5.8,26-13.2,39.6-22c7.2-4.6,15.7-6.2,24.1-4.4c8.4,1.8,15.5,6.7,20.2,13.9c9.6,14.8,5.3,34.7-9.5,44.3
		c-27.1,17.5-52.9,30.2-76.7,37.7c-19.7,6.2-33.7,7.5-42,7.5c-2.9,0-5-0.2-6.3-0.3c-9.4-1-17.9-6.2-23.1-14.1
		c-5.3-7.9-6.7-17.7-4-26.8l64-216c1.8-6.1,5.3-11.4,10.2-15.5c3.4-2.8,34.5-27.4,88.5-27.4h72c54,0,85.1,24.6,88.5,27.4
		c4.9,4.1,8.4,9.4,10.2,15.5l64,216c2.7,9.1,1.2,18.9-4,26.8c-5.3,7.9-13.7,13.1-23.1,14.1C514.3,533.9,512.2,534.1,509.3,534.1z"/>
</g>
<g>
	<polygon fill="#005689" points="476.1,286 477.2,286 476,282 212,282 210.8,286 	"/>
	<path fill="#005689" d="M481.8,301.6l-1.1-3.6H207.2l-1.2,4H480C480.6,302,481.3,301.8,481.8,301.6z"/>
</g>
<polygon fill="#FFFFFF" points="477.2,286 210.8,286 207.2,298 480.8,298 "/>
<path fill="#333333" d="M200,468c-1.1,0-2-0.9-2-2s0.9-2,2-2c6.2,0,18.6-4.9,18.7-5c13.9-6,28.7-14.1,43.9-23.9
	c0.9-0.6,2.2-0.3,2.8,0.6c0.6,0.9,0.3,2.2-0.6,2.8c-15.4,9.9-30.3,18.1-44.5,24.2C219.7,462.9,206.9,468,200,468z"/>
<path fill="#333333" d="M493.8,468c-14.4,0-25.7-5.1-26.2-5.3c-8.4-3.6-12.9-6.1-23.7-12.3c-3.6-2.1-3.8-2.2-5.5-3.3
	c-0.7-0.5-1.7-1.1-3.3-2.2c-0.9-0.6-1.2-1.8-0.6-2.8c0.6-0.9,1.8-1.2,2.8-0.6c1.6,1.1,2.6,1.7,3.3,2.2c1.6,1.1,1.8,1.2,5.3,3.2
	c10.6,6.1,15,8.6,23.3,12.1c0.2,0.1,11,5,24.5,5c1.1,0,2,0.9,2,2S494.9,468,493.8,468z"/>
<path fill="#333333" d="M468.5,462.9c-0.9,0-1.8-0.7-2-1.6c-0.2-1.1,0.5-2.1,1.6-2.3c3.6-0.7,13.8-3.7,13.8-8.9c0-1.1,0.9-2,2-2
	s2,0.9,2,2c0,2.9-1.5,7-8.9,10.3c-4,1.8-8,2.5-8.2,2.6C468.8,462.8,468.6,462.9,468.5,462.9z"/>
<g>
	<path fill="#EBD6C0" d="M372,226h-56v20c0,4.4,12.5,8,28,8s28-3.6,28-8V226z"/>
	<path fill="#333333" d="M344,256c-14.4,0-30-3.1-30-10v-22h60v22C374,252.9,358.4,256,344,256z M318,228v18c0,1.8,8.8,6,26,6
		s26-4.2,26-6v-18H318z"/>
</g>
<g>
	<rect x="244" y="150" fill="#333333" width="52" height="100"/>
	<path fill="#333333" d="M296,252h-52c-1.1,0-2-0.9-2-2V150c0-1.1,0.9-2,2-2h52c1.1,0,2,0.9,2,2v100C298,251.1,297.1,252,296,252z
		 M246,248h48v-96h-48V248z"/>
</g>
<g>
	<rect x="392" y="150" fill="#333333" width="52" height="100"/>
	<path fill="#333333" d="M444,252h-52c-1.1,0-2-0.9-2-2V150c0-1.1,0.9-2,2-2h52c1.1,0,2,0.9,2,2v100C446,251.1,445.1,252,444,252z
		 M394,248h48v-96h-48V248z"/>
</g>
<g>
	<path fill="#333333" d="M444,150c0-59.6-44.8-108-100-108S244,90.4,244,150H444z"/>
	<path fill="#333333" d="M444,152H244c-1.1,0-2-0.9-2-2c0-60.7,45.8-110,102-110s102,49.3,102,110C446,151.1,445.1,152,444,152z
		 M246,148h196c-1-57.5-44.6-104-98-104C290.6,44,247,90.5,246,148z"/>
</g>
<g>
	<circle fill="#EBD6C0" cx="344" cy="150" r="84"/>
	<path fill="#333333" d="M344,236c-47.4,0-86-38.6-86-86s38.6-86,86-86c47.4,0,86,38.6,86,86S391.4,236,344,236z M344,68
		c-45.2,0-82,36.8-82,82s36.8,82,82,82s82-36.8,82-82S389.2,68,344,68z"/>
</g>
<g>
	<g>
		<circle fill="#333333" cx="312" cy="102" r="20"/>
		<path fill="#333333" d="M312,124c-12.1,0-22-9.9-22-22s9.9-22,22-22s22,9.9,22,22S324.1,124,312,124z M312,84c-9.9,0-18,8.1-18,18
			s8.1,18,18,18s18-8.1,18-18S321.9,84,312,84z"/>
	</g>
	<g>
		<circle fill="#333333" cx="344" cy="102" r="20"/>
		<path fill="#333333" d="M344,124c-12.1,0-22-9.9-22-22s9.9-22,22-22s22,9.9,22,22S356.1,124,344,124z M344,84c-9.9,0-18,8.1-18,18
			s8.1,18,18,18c9.9,0,18-8.1,18-18S353.9,84,344,84z"/>
	</g>
	<g>
		<circle fill="#333333" cx="376" cy="102" r="20"/>
		<path fill="#333333" d="M376,124c-12.1,0-22-9.9-22-22s9.9-22,22-22s22,9.9,22,22S388.1,124,376,124z M376,84c-9.9,0-18,8.1-18,18
			s8.1,18,18,18s18-8.1,18-18S385.9,84,376,84z"/>
	</g>
	<g>
		<circle fill="#333333" cx="408" cy="102" r="20"/>
		<path fill="#333333" d="M408,124c-12.1,0-22-9.9-22-22s9.9-22,22-22s22,9.9,22,22S420.1,124,408,124z M408,84c-9.9,0-18,8.1-18,18
			s8.1,18,18,18s18-8.1,18-18S417.9,84,408,84z"/>
	</g>
	<g>
		<circle fill="#333333" cx="280" cy="102" r="20"/>
		<path fill="#333333" d="M280,124c-12.1,0-22-9.9-22-22s9.9-22,22-22s22,9.9,22,22S292.1,124,280,124z M280,84c-9.9,0-18,8.1-18,18
			s8.1,18,18,18s18-8.1,18-18S289.9,84,280,84z"/>
	</g>
	<g>
		<ellipse fill="#333333" cx="344" cy="86" rx="68" ry="24"/>
		<path fill="#333333" d="M344,112c-39.3,0-70-11.4-70-26s30.7-26,70-26c39.3,0,70,11.4,70,26S383.3,112,344,112z M344,64
			c-39.5,0-66,11.4-66,22s26.5,22,66,22s66-11.4,66-22S383.5,64,344,64z"/>
	</g>
	<ellipse transform="matrix(0.707 0.7072 -0.7072 0.707 156.7444 -170.3684)" fill="#94B1CA" cx="284" cy="104" rx="4" ry="10"/>
</g>
<path d="M348,196c-0.4,0-8.9-0.1-13.4-4.6c-0.8-0.8-0.8-2,0-2.8c0.8-0.8,2-0.8,2.8,0c2,2,5.4,2.9,8,3.2l-3.3-13.3
	c-0.3-1.1,0.4-2.2,1.5-2.4c1.1-0.3,2.2,0.4,2.4,1.5l4,16c0.1,0.6,0,1.2-0.4,1.7S348.6,196,348,196z"/>
<path d="M335.2,213.1c-6.8,0-12.4-5.4-12.7-5.7c-0.8-0.8-0.8-2,0-2.8c0.8-0.8,2-0.8,2.8,0l0,0c0.1,0.1,7.1,6.9,13.7,3.6
	c1-0.5,2.2-0.1,2.7,0.9c0.5,1,0.1,2.2-0.9,2.7C339,212.8,337.1,213.1,335.2,213.1z"/>
<g>
	<circle fill="#333333" cx="406" cy="252" r="14"/>
	<path fill="#333333" d="M406,268c-8.8,0-16-7.2-16-16s7.2-16,16-16s16,7.2,16,16S414.8,268,406,268z M406,240c-6.6,0-12,5.4-12,12
		s5.4,12,12,12s12-5.4,12-12S412.6,240,406,240z"/>
</g>
<g>
	<circle fill="#333333" cx="430" cy="252" r="14"/>
	<path fill="#333333" d="M430,268c-8.8,0-16-7.2-16-16s7.2-16,16-16s16,7.2,16,16S438.8,268,430,268z M430,240c-6.6,0-12,5.4-12,12
		s5.4,12,12,12s12-5.4,12-12S436.6,240,430,240z"/>
</g>
<g>
	<circle fill="#333333" cx="258" cy="252" r="14"/>
	<path fill="#333333" d="M258,268c-8.8,0-16-7.2-16-16s7.2-16,16-16s16,7.2,16,16S266.8,268,258,268z M258,240c-6.6,0-12,5.4-12,12
		s5.4,12,12,12s12-5.4,12-12S264.6,240,258,240z"/>
</g>
<g>
	<circle fill="#333333" cx="282" cy="252" r="14"/>
	<path fill="#333333" d="M282,268c-8.8,0-16-7.2-16-16s7.2-16,16-16s16,7.2,16,16S290.8,268,282,268z M282,240c-6.6,0-12,5.4-12,12
		s5.4,12,12,12s12-5.4,12-12S288.6,240,282,240z"/>
</g>
<g>
	<circle fill="#FFFFFF" cx="382" cy="168" r="30"/>
	<path fill="#800C0C" d="M382,200c-17.6,0-32-14.4-32-32s14.4-32,32-32s32,14.4,32,32S399.6,200,382,200z M382,140
		c-15.4,0-28,12.6-28,28s12.6,28,28,28s28-12.6,28-28S397.4,140,382,140z"/>
</g>
<g>
	<circle fill="#FFFFFF" cx="306" cy="168" r="30"/>
	<path fill="#800C0C" d="M306,200c-17.6,0-32-14.4-32-32s14.4-32,32-32s32,14.4,32,32S323.6,200,306,200z M306,140
		c-15.4,0-28,12.6-28,28s12.6,28,28,28s28-12.6,28-28S321.4,140,306,140z"/>
</g>
<circle cx="380" cy="182" r="4"/>
<circle cx="308" cy="182" r="4"/>
<g>
	<line fill="#FFFFFF" x1="412" y1="166" x2="424" y2="166"/>
	<path fill="#800C0C" d="M424,168h-12c-1.1,0-2-0.9-2-2s0.9-2,2-2h12c1.1,0,2,0.9,2,2S425.1,168,424,168z"/>
</g>
<g>
	<line fill="#FFFFFF" x1="264" y1="166" x2="276" y2="166"/>
	<path fill="#800C0C" d="M276,168h-12c-1.1,0-2-0.9-2-2s0.9-2,2-2h12c1.1,0,2,0.9,2,2S277.1,168,276,168z"/>
</g>
<path fill="#800C0C" d="M352,172c-1.1,0-2-0.9-2-2c0-3.3-2.7-6-6-6s-6,2.7-6,6c0,1.1-0.9,2-2,2s-2-0.9-2-2c0-5.5,4.5-10,10-10
	c5.5,0,10,4.5,10,10C354,171.1,353.1,172,352,172z"/>
<g>
	<path fill="#94B1CA" d="M388,250c0,6.9-19.7,12-44,12c-24.3,0-44-5.1-44-12v-12c0,6.9,19.7,12,44,12c24.3,0,44-5.1,44-12V250z"/>
	<path fill="#333333" d="M344,264c-22.2,0-46-4.4-46-14v-12c0-1.1,0.9-2,2-2s2,0.9,2,2c0,4.1,15,10,42,10c27,0,42-5.9,42-10
		c0-1.1,0.9-2,2-2s2,0.9,2,2v12C390,259.6,366.2,264,344,264z M302,244.2v5.8c0,4.1,15,10,42,10c27,0,42-5.9,42-10v-5.8
		c-7.7,5.3-25.3,7.8-42,7.8C327.3,252,309.7,249.5,302,244.2z"/>
</g>
<g>
	<g>
		<circle fill-rule="evenodd" clip-rule="evenodd" fill="#484848" cx="120" cy="270" r="60"/>
	</g>
</g>
<g>
	<g>
		<circle fill-rule="evenodd" clip-rule="evenodd" fill="#3C3835" cx="120" cy="270" r="52"/>
	</g>
</g>
<g>
	<g>
		<circle fill-rule="evenodd" clip-rule="evenodd" fill="#333333" cx="84" cy="98" r="80"/>
	</g>
</g>
<path fill="none" stroke="#1D1D1B" stroke-width="2" stroke-miterlimit="10" d="M125.6,176.8"/>
<g>
	<circle fill="#F6F6F6" cx="126" cy="272" r="22"/>
	<circle fill="#F6F6F6" cx="106" cy="272" r="18"/>
	<circle fill="#F6F6F6" cx="118" cy="260" r="18"/>
	<circle fill="#FFCE4B" cx="126" cy="272" r="10"/>
</g>
<g>
	<g>
		<path fill-rule="evenodd" clip-rule="evenodd" fill="#484848" d="M46.5,354.9c-3.1,3.1-8.2,3.1-11.3,0c-3.1-3.1-3.1-8.2,0-11.3
			l11.3-11.3l11.3,11.3L46.5,354.9z"/>
		<path fill="#484848" d="M40.8,359.2c-2.7,0-5.2-1-7.1-2.9c-3.9-3.9-3.9-10.2,0-14.1l12.7-12.7l14.1,14.1l-12.7,12.7
			C46,358.2,43.5,359.2,40.8,359.2z M46.5,335.1l-9.9,9.9c-2.3,2.3-2.3,6.1,0,8.5c1.1,1.1,2.6,1.8,4.2,1.8c1.6,0,3.1-0.6,4.2-1.8
			l9.9-9.9L46.5,335.1z"/>
	</g>
	<g>
		
			<rect x="60.8" y="307.2" transform="matrix(0.707 0.7072 -0.7072 0.707 248.9598 49.4141)" fill-rule="evenodd" clip-rule="evenodd" fill="#484848" width="8" height="36"/>
		<path fill="#484848" d="M54.9,343.5l-8.5-8.5l28.3-28.3l8.5,8.5L54.9,343.5z M52.1,335.1l2.8,2.8l22.6-22.6l-2.8-2.8L52.1,335.1z"
			/>
	</g>
</g>
<path fill="#F3AAB9" d="M630.6,306.5c-12.9-10.7-28.8-12.9-41.5-12.4c6.7-5.9,10.9-14.5,10.9-24.1c0-17.7-14.3-32-32-32
	s-32,14.3-32,32c0,16.3,12.2,29.8,28,31.7c0,0.4,0.1,0.7,0.2,1.1c0.7,2.1,3,3.2,5.1,2.5c0.3-0.1,34.2-11,56.2,7.3
	c0.7,0.6,1.7,0.9,2.6,0.9c1.1,0,2.3-0.5,3.1-1.4C632.5,310.4,632.3,307.9,630.6,306.5z"/>
<path fill="#676767" d="M84,70c-15.5,0-28,12.5-28,28s12.5,28,28,28s28-12.5,28-28S99.5,70,84,70z M84,102c-2.2,0-4-1.8-4-4
	s1.8-4,4-4s4,1.8,4,4S86.2,102,84,102z"/>
<path fill="#333333" d="M568,210c-33.1,0-60,26.9-60,60s26.9,60,60,60c33.1,0,60-26.9,60-60S601.1,210,568,210z M568,219
	c8.3,0,15,6.7,15,15c0,8.3-6.7,15-15,15c-8.3,0-15-6.7-15-15C553,225.7,559.7,219,568,219z M519.5,254.2c2.6-7.9,11-12.2,18.9-9.6
	c7.9,2.6,12.2,11,9.6,18.9c-2.6,7.9-11,12.2-18.9,9.6C521.2,270.6,516.9,262.1,519.5,254.2z M559,307.9c-4.9,6.7-14.2,8.2-21,3.3
	c-6.7-4.9-8.2-14.2-3.3-21c4.9-6.7,14.2-8.2,21-3.3C562.4,291.9,563.8,301.2,559,307.9z M568,279c-5,0-9-4-9-9c0-5,4-9,9-9
	c5,0,9,4,9,9C577,275,573,279,568,279z M598,311.3c-6.7,4.9-16.1,3.4-21-3.3c-4.9-6.7-3.4-16.1,3.3-21c6.7-4.9,16.1-3.4,21,3.3
	C606.2,297,604.7,306.4,598,311.3z M606.9,273.1c-7.9,2.6-16.3-1.8-18.9-9.6c-2.6-7.9,1.8-16.3,9.6-18.9s16.3,1.8,18.9,9.6
	C619.1,262.1,614.8,270.6,606.9,273.1z"/>
<path fill="#F3AAB9" d="M84,78c-11,0-20,9-20,20s9,20,20,20s20-9,20-20S95,78,84,78z M84,102c-2.2,0-4-1.8-4-4s1.8-4,4-4s4,1.8,4,4
	S86.2,102,84,102z"/>
<path fill="#676767" d="M144,114c-0.6,0-1.2-0.1-1.8-0.4c-2-1-2.8-3.4-1.8-5.4c7.3-14.5,3.7-33.2,3.7-33.4c-0.2-0.9-0.1-1.8,0.3-2.6
	l24-48c1-2,3.4-2.8,5.4-1.8c2,1,2.8,3.4,1.8,5.4l-23.4,46.8c0.8,5,2.8,22.5-4.6,37.2C146.9,113.2,145.5,114,144,114z"/>
<path fill="#D8D8D8" d="M145.5,107c-3.9-2.1-8.7-0.6-10.8,3.3l-5.7,10.6c-2.1,3.9-0.6,8.7,3.3,10.8c3.9,2.1,8.7,0.6,10.8-3.3
	l5.7-10.6C150.8,113.9,149.4,109,145.5,107z"/>
<circle fill="#676767" cx="137.9" cy="121" r="4"/>
<circle fill="#D8D8D8" cx="172" cy="26" r="12"/>
<circle fill="#676767" cx="172" cy="26" r="4"/>
<path opacity="0.8" fill-rule="evenodd" clip-rule="evenodd" fill="#F3AAB9" d="M38,48.7V26c0-0.9-0.6-1.6-1.4-1.9l-24-8
	c-0.6-0.2-1.3-0.1-1.8,0.3S10,17.4,10,18v20.3C9.4,38.1,8.7,38,8,38c-4.4,0-8,3.6-8,8s3.6,8,8,8s8-3.6,8-8c0-2-0.8-3.9-2-5.3V28.8
	l20,6.7v10.8c-0.6-0.2-1.3-0.3-2-0.3c-4.4,0-8,3.6-8,8s3.6,8,8,8s8-3.6,8-8C40,52,39.2,50.1,38,48.7z M14,24.6v-3.8l20,6.7v3.8
	L14,24.6z"/>
<g>
	<path fill="#FAB90D" d="M574,20c-1.1,0-2-0.9-2-2V2c0-1.1,0.9-2,2-2s2,0.9,2,2v16C576,19.1,575.1,20,574,20z"/>
	<g>
		<defs>
			<circle id="SVGID_1_" cx="616" cy="98" r="80"/>
		</defs>
		<clipPath id="SVGID_2_">
			<use xlink:href="#SVGID_1_"  overflow="visible"/>
		</clipPath>
		<g clip-path="url(#SVGID_2_)">
			<g>
				<circle fill-rule="evenodd" clip-rule="evenodd" fill="#333333" cx="616" cy="98" r="80"/>
			</g>
		</g>
		<rect x="591.9" y="133.9" clip-path="url(#SVGID_2_)" fill="#A4ADBA" width="108" height="52"/>
		<g clip-path="url(#SVGID_2_)">
			<path opacity="0.5" fill="#D1DCEF" d="M604.1,101.9c0-4.4,4.5-8,10-8c5.5,0,10,3.6,10,8"/>
			<path opacity="0.5" fill="#D1DCEF" d="M624.1,101.9c0-8.8,7.2-16,16-16s16,7.2,16,16"/>
		</g>
		<rect x="592" y="122" clip-path="url(#SVGID_2_)" fill="#FBBC03" width="108" height="12"/>
		<g opacity="0.5" clip-path="url(#SVGID_2_)">
			<polygon fill="#676767" points="620,134 616,118 612,134 612,138 612,178 620,178 620,138 			"/>
			<path fill="#676767" d="M616,118l4,16v4v40h-8v-40v-4L616,118 M616,114c-1.8,0-3.4,1.2-3.9,3l-4,16c-0.1,0.3-0.1,0.6-0.1,1v4v40
				c0,2.2,1.8,4,4,4h8c2.2,0,4-1.8,4-4v-40v-4c0-0.3,0-0.7-0.1-1l-4-16C619.4,115.3,617.8,114,616,114C616,114,616,114,616,114
				L616,114z"/>
		</g>
		<g opacity="0.5" clip-path="url(#SVGID_2_)">
			<polygon fill="#676767" points="656,134 652,118 648,134 648,138 648,178 656,178 656,138 			"/>
			<path fill="#676767" d="M652,118l4,16v4v40h-8v-40v-4L652,118 M652,114c-1.8,0-3.4,1.2-3.9,3l-4,16c-0.1,0.3-0.1,0.6-0.1,1v4v40
				c0,2.2,1.8,4,4,4h8c2.2,0,4-1.8,4-4v-40v-4c0-0.3,0-0.7-0.1-1l-4-16C655.4,115.3,653.8,114,652,114C652,114,652,114,652,114
				L652,114z"/>
		</g>
		<rect x="556" y="118" clip-path="url(#SVGID_2_)" fill="#D1DCEF" width="36" height="68"/>
		<rect x="552" y="74" clip-path="url(#SVGID_2_)" fill="#D1DCEF" width="44" height="44"/>
		<circle clip-path="url(#SVGID_2_)" fill="#7291A7" cx="574" cy="96" r="18"/>
		<circle clip-path="url(#SVGID_2_)" fill="#FFFFFF" cx="574" cy="96" r="10"/>
		<path clip-path="url(#SVGID_2_)" fill="#333333" d="M574,86c-5.5,0-10,4.5-10,10s4.5,10,10,10s10-4.5,10-10
			C578.5,96,574,91.5,574,86z"/>
		<polygon clip-path="url(#SVGID_2_)" fill="#FBBC03" points="552,74 560,66 588,66 596,74 		"/>
		<rect x="560" y="50" clip-path="url(#SVGID_2_)" fill="#D1DCEF" width="28" height="16"/>
		<polygon clip-path="url(#SVGID_2_)" fill="#FBBC03" points="560,50 568,42 572,18 576,18 580,42 588,50 		"/>
	</g>
	<g>
		<path opacity="0.5" fill="#D1DCEF" d="M632.1,41.9c0-4.4,4.5-8,10-8c5.5,0,10,3.6,10,8"/>
		<path opacity="0.5" fill="#D1DCEF" d="M652.1,41.9c0-8.8,7.2-16,16-16s16,7.2,16,16"/>
	</g>
	<polygon fill="#FBBC03" points="560,50 568,42 572,18 576,18 580,42 588,50 	"/>
	<g>
		<path opacity="0.5" fill="#D1DCEF" d="M492.1,85.9c0-4.4,4.5-8,10-8c5.5,0,10,3.6,10,8"/>
		<path opacity="0.5" fill="#D1DCEF" d="M512.1,85.9c0-8.8,7.2-16,16-16s16,7.2,16,16"/>
	</g>
</g>
</svg>
