<svg xmlns="http://www.w3.org/2000/svg" width="656" height="336" viewBox="0 0 656 336"><path fill-rule="evenodd" clip-rule="evenodd" fill="#46BCDF" d="M328 334c-71.7 0-130-58.3-130-130S256.3 74 328 74s130 58.3 130 130-58.3 130-130 130z"/><path fill="#3794AA" d="M328 76c70.7 0 128 57.3 128 128s-57.3 128-128 128-128-57.3-128-128S257.3 76 328 76m0-4c-35.3 0-68.4 13.7-93.3 38.7-25 24.9-38.7 58-38.7 93.3s13.7 68.4 38.7 93.3 58 38.7 93.3 38.7 68.4-13.7 93.3-38.7 38.7-58 38.7-93.3-13.7-68.4-38.7-93.3c-24.9-25-58-38.7-93.3-38.7z"/><circle fill-rule="evenodd" clip-rule="evenodd" fill="#EAEAEA" cx="576" cy="112" r="80"/><path fill="#B2B2B0" d="M558.1 128.8L612 80.1l4 3.9-57.9 59.9h-1.9L536 115.6l4-4 18.1 17.2z"/><circle fill-rule="evenodd" clip-rule="evenodd" fill="#EAEAEA" cx="80" cy="112" r="80"/><path fill="#B2B2B0" d="M53.7 142.2l-3.9-3.9L73.9 112 49.8 85.7l3.9-3.9 26.4 24 26.3-24.1 3.9 3.9-24 26.4 24 26.4-3.9 3.9L80 118.2l-26.3 24z"/><g fill="none" stroke="#EAEAEA" stroke-width="4" stroke-linecap="round" stroke-linejoin="round"><path d="M168 112h6"/><path stroke-dasharray="12,12" d="M186 112h18"/><path d="M210 112h6"/></g><g fill="none" stroke="#EAEAEA" stroke-width="4" stroke-linecap="round" stroke-linejoin="round"><path d="M488 112h-6"/><path stroke-dasharray="12,12" d="M470 112h-18"/><path d="M446 112h-6"/></g><path fill="#676767" d="M248 294c-12.1 0-22-9.9-22-22V56c0-12.1 9.9-22 22-22h160c12.1 0 22 9.9 22 22v216c0 12.1-9.9 22-22 22H248z"/><path fill="#333" d="M408 36c11 0 20 9 20 20v216c0 11-9 20-20 20H248c-11 0-20-9-20-20V56c0-11 9-20 20-20h160m0-4H248c-13.2 0-24 10.8-24 24v216c0 13.2 10.8 24 24 24h160c13.2 0 24-10.8 24-24V56c0-13.2-10.8-24-24-24z"/><path fill="#F6F6F6" d="M248 274c-1.1 0-2-.9-2-2V56c0-1.1.9-2 2-2h160c1.1 0 2 .9 2 2v216c0 1.1-.9 2-2 2H248z"/><path fill="#333" d="M408 56v216H248V56h160m0-4H248c-2.2 0-4 1.8-4 4v216c0 2.2 1.8 4 4 4h160c2.2 0 4-1.8 4-4V56c0-2.2-1.8-4-4-4z"/><path fill="#CCC" d="M276 66c-.7 0-1.3-.3-1.7-.9-.4-.5-.4-1.2-.2-1.9l16-40c.3-.8 1-1.3 1.9-1.3h72c.8 0 1.6.5 1.9 1.3l16 40c.2.6.2 1.3-.2 1.9-.4.5-1 .9-1.7.9H276z"/><path fill="#333" d="M364 24l16 40H276l16-40h72m0-4h-72c-1.6 0-3.1 1-3.7 2.5l-16 40c-.5 1.2-.3 2.6.4 3.7s2 1.8 3.3 1.8h104c1.3 0 2.6-.7 3.3-1.8s.9-2.5.4-3.7l-16-40c-.6-1.5-2.1-2.5-3.7-2.5z"/><path fill="#CCC" d="M328 38c-9.9 0-18-8.1-18-18s8.1-18 18-18 18 8.1 18 18-8.1 18-18 18z"/><path fill="#333" d="M328 4c8.8 0 16 7.2 16 16s-7.2 16-16 16-16-7.2-16-16 7.2-16 16-16m0-4c-11 0-20 9-20 20s9 20 20 20 20-9 20-20-9-20-20-20z"/><circle fill="#333" cx="328" cy="20" r="8"/><path opacity=".2" fill-rule="evenodd" clip-rule="evenodd" fill="#333" d="M292 88h100v12H292z"/><g><path fill="#333" d="M274 88c3.3 0 6 2.7 6 6s-2.7 6-6 6-6-2.7-6-6 2.7-6 6-6m0-4c-5.5 0-10 4.5-10 10s4.5 10 10 10 10-4.5 10-10-4.5-10-10-10z"/></g><path opacity=".2" fill-rule="evenodd" clip-rule="evenodd" fill="#333" d="M292 124h100v12H292z"/><g><path fill-rule="evenodd" clip-rule="evenodd" fill="#46BDDF" d="M274 138c-4.4 0-8-3.6-8-8s3.6-8 8-8 8 3.6 8 8-3.6 8-8 8z"/><path fill="#333" d="M274 124c3.3 0 6 2.7 6 6s-2.7 6-6 6-6-2.7-6-6 2.7-6 6-6m0-4c-5.5 0-10 4.5-10 10s4.5 10 10 10 10-4.5 10-10-4.5-10-10-10z"/></g><path opacity=".2" fill-rule="evenodd" clip-rule="evenodd" fill="#333" d="M292 160h100v12H292z"/><g><path fill="#333" d="M274 160c3.3 0 6 2.7 6 6s-2.7 6-6 6-6-2.7-6-6 2.7-6 6-6m0-4c-5.5 0-10 4.5-10 10s4.5 10 10 10 10-4.5 10-10-4.5-10-10-10z"/></g><path opacity=".2" fill-rule="evenodd" clip-rule="evenodd" fill="#333" d="M292 196h100v12H292z"/><g><path fill-rule="evenodd" clip-rule="evenodd" fill="#F6F6F6" d="M274 210c-4.4 0-8-3.6-8-8s3.6-8 8-8 8 3.6 8 8-3.6 8-8 8z"/><path fill="#333" d="M274 196c3.3 0 6 2.7 6 6s-2.7 6-6 6-6-2.7-6-6 2.7-6 6-6m0-4c-5.5 0-10 4.5-10 10s4.5 10 10 10 10-4.5 10-10-4.5-10-10-10z"/></g></svg>