<svg xmlns="http://www.w3.org/2000/svg" width="656" height="336" viewBox="0 0 656 336"><circle fill-rule="evenodd" clip-rule="evenodd" fill="#46BCDF" cx="328" cy="204" r="128"/><path fill="#3794AA" d="M328 76c70.691 0 128 57.307 128 128 0 70.691-57.309 128-128 128-70.692 0-128-57.309-128-128 0-70.693 57.308-128 128-128m0-4c-35.259 0-68.406 13.73-93.338 38.662S196 168.741 196 204c0 35.258 13.73 68.406 38.662 93.338S292.742 336 328 336s68.406-13.73 93.338-38.662S460 239.258 460 204c0-35.259-13.73-68.406-38.662-93.338C396.406 85.73 363.258 72 328 72z"/><circle fill-rule="evenodd" clip-rule="evenodd" fill="#46BCDF" cx="576" cy="112" r="80"/><path fill="#3794AA" d="M576 36c41.906 0 76 34.093 76 76 0 41.906-34.094 76-76 76s-76-34.094-76-76c0-41.907 34.094-76 76-76m0-4c-44.183 0-80 35.816-80 80s35.817 80 80 80 80-35.816 80-80-35.817-80-80-80z"/><path fill="#F6F6F6" d="M558.149 128.84l53.805-48.748L616 84.037l-57.851 59.871h-1.922L536 115.59l4.045-4.045 18.104 17.295z"/><circle fill-rule="evenodd" clip-rule="evenodd" fill="#46BCDF" cx="80" cy="112" r="80"/><path fill="#3794AA" d="M80 36c41.907 0 76 34.093 76 76 0 41.906-34.093 76-76 76S4 153.906 4 112c0-41.907 34.093-76 76-76m0-4C35.817 32 0 67.816 0 112s35.817 80 80 80 80-35.816 80-80-35.817-80-80-80z"/><path fill="#F6F6F6" d="M53.682 142.183l-3.909-3.909L73.864 112 49.772 85.727l3.909-3.909 26.364 24.001 26.272-24.092 3.909 3.909-24 26.364 24 26.364-3.909 3.909-26.272-24.091-26.363 24.001z"/><g fill="#3794AA"><path d="M174 114h-6a2 2 0 0 1 0-4h6a2 2 0 0 1 0 4zM198 114h-12a2 2 0 0 1 0-4h12a2 2 0 0 1 0 4zM216 114h-6a2 2 0 0 1 0-4h6a2 2 0 0 1 0 4z"/></g><g fill="#3794AA"><path d="M488 114h-6a2 2 0 0 1 0-4h6a2 2 0 0 1 0 4zM470 114h-12a2 2 0 0 1 0-4h12a2 2 0 0 1 0 4zM446 114h-6a2 2 0 0 1 0-4h6a2 2 0 0 1 0 4z"/></g><path fill="#676767" d="M427.5 56.5c0-11.046-8.954-20-20-20h-160c-11.046 0-20 8.954-20 20v216c0 11.046 8.954 20 20 20h160c11.046 0 20-8.954 20-20v-216z"/><path fill="#333" d="M408 36.5c11.046 0 19.5 8.454 19.5 19.5v216c0 11.046-8.454 20.5-19.5 20.5H248c-11.046 0-20.5-9.454-20.5-20.5V56c0-11.046 9.454-19.5 20.5-19.5h159.5m.5-4H248c-13.233 0-24.5 10.267-24.5 23.5v216c0 13.233 11.267 24.5 24.5 24.5h160c13.233 0 23.5-11.267 23.5-24.5V56c0-13.233-10.267-23.5-23.5-23.5z"/><path fill="#F6F6F6" d="M248 56h160v216H248z"/><path fill="#333" d="M408 56v216H248V56h160m0-4H248a4 4 0 0 0-4 4v216a4 4 0 0 0 4 4h160a4 4 0 0 0 4-4V56a4 4 0 0 0-4-4z"/><path fill="#CCC" d="M292 24l-16 40h104l-16-40z"/><path fill="#333" d="M364 24l16 40H276l16-40h72m0-4h-72a4 4 0 0 0-3.714 2.515l-16 40A4 4 0 0 0 276 68h104a4 4 0 0 0 3.713-5.485l-16-40A3.998 3.998 0 0 0 364 20z"/><circle fill="#CCC" cx="328" cy="20" r="16"/><path fill="#333" d="M328 4c8.837 0 16 7.164 16 16s-7.163 16-16 16-16-7.164-16-16 7.163-16 16-16m0-4c-11.027 0-20 8.972-20 20s8.973 20 20 20 20-8.972 20-20-8.973-20-20-20z"/><circle fill="#333" cx="328" cy="20" r="8"/><path opacity=".2" fill-rule="evenodd" clip-rule="evenodd" fill="#333" d="M292 88h100v12H292z"/><path fill="#333" d="M274 88a6 6 0 1 1 0 12 6 6 0 0 1 0-12m0-4c-5.514 0-10 4.486-10 10s4.486 10 10 10 10-4.486 10-10-4.486-10-10-10z"/><path opacity=".2" fill-rule="evenodd" clip-rule="evenodd" fill="#333" d="M292 124h100v12H292z"/><g><circle fill-rule="evenodd" clip-rule="evenodd" fill="#46BDDF" cx="274" cy="130" r="6"/><path fill="#333" d="M274 124a6 6 0 1 1 0 12 6 6 0 0 1 0-12m0-4c-5.514 0-10 4.486-10 10s4.486 10 10 10 10-4.486 10-10-4.486-10-10-10z"/></g><path opacity=".2" fill-rule="evenodd" clip-rule="evenodd" fill="#333" d="M292 160h100v12H292z"/><path fill="#333" d="M274 160a6 6 0 1 1 0 12 6 6 0 0 1 0-12m0-4c-5.514 0-10 4.486-10 10s4.486 10 10 10 10-4.486 10-10-4.486-10-10-10z"/><path opacity=".2" fill-rule="evenodd" clip-rule="evenodd" fill="#333" d="M292 196h100v12H292z"/><g><circle fill-rule="evenodd" clip-rule="evenodd" fill="#F6F6F6" cx="274" cy="202" r="6"/><path fill="#333" d="M274 196a6 6 0 1 1 0 12 6 6 0 0 1 0-12m0-4c-5.514 0-10 4.486-10 10s4.486 10 10 10 10-4.486 10-10-4.486-10-10-10z"/></g></svg>