<svg xmlns="http://www.w3.org/2000/svg" width="680" height="408" viewBox="16 0 680 408"><path fill="#333" d="M40 406c-12.1 0-22-9.9-22-22V24c0-12.1 9.9-22 22-22h156c12.1 0 22 9.9 22 22v360c0 12.1-9.9 22-22 22H40z"/><path fill="#333" d="M196 4c11 0 20 9 20 20v360c0 11-9 20-20 20H40c-11 0-20-9-20-20V24c0-11 9-20 20-20h156m0-4H40C26.8 0 16 10.8 16 24v360c0 13.2 10.8 24 24 24h156c13.2 0 24-10.8 24-24V24c0-13.2-10.8-24-24-24z"/><path fill="#333" d="M28 48h180v308H28V48z"/><path fill="#CCC" d="M118 368c6.6 0 12 5.4 12 12s-5.4 12-12 12-12-5.4-12-12 5.4-12 12-12m0-4c-8.8 0-16 7.2-16 16s7.2 16 16 16 16-7.2 16-16-7.2-16-16-16z"/><circle fill="#CCC" cx="88" cy="24" r="4"/><path fill="#CCC" stroke="#CCC" stroke-width="4" stroke-linecap="round" stroke-linejoin="round" stroke-miterlimit="10" d="M104 24h28"/><circle fill="#CCC" cx="118" cy="14" r="2"/><path fill="#FFF" d="M28 52h180v304H28V52z"/><path fill="#005689" d="M28 48h180v28H28V48z"/><path fill="#FFF" d="M185.7 52.1c-.8 0-1.4.6-1.4 1.3 0 .7.6 1.3 1.4 1.3.7 0 1.4-.6 1.4-1.3-.1-.7-.7-1.3-1.4-1.3m9.6 11h4.1v-.7l-.8-.4v-5c.3-.2.6-.3 1-.3.7 0 1 .3 1 1.1V62l-.8.4v.7h4.1v-.7l-.8-.4v-4.7c0-1.4-.6-2-1.9-2-1 0-2 .4-2.7 1v-1h-.2l-3.1.5v.7l.9.4v5.2l-.8.4v.6m-11.7-7.3v.7l.9.4V62l-.8.4v.7h4v-.7l-.8-.4v-6.7h-.2l-3.1.5m-3.5 6c-.2.2-.4.3-.8.3-1 0-1.4-.8-1.4-2.7 0-2.2.6-2.9 1.4-2.9.4 0 .7.1.8.3v5zm0-6.1c-.3-.2-.8-.3-1.2-.3-1.9 0-3.6 1.1-3.6 4.2 0 3 1.8 3.9 3 3.9.9 0 1.6-.4 1.9-.8h.1v.8h.2l3-.4v-.6l-.8-.5v-9.8h-.2l-3.1.5v.7l.8.4v1.9h-.1zm-10.4.1v.7l.8.4V62l-.8.4v.7h4.3v-.7l-1-.4v-4c.4-.4 1-.5 1.7-.5.2 0 .5 0 .6.1v-2.2h-.4c-.8 0-1.6.5-2 1.6v-1.6h-.2l-3 .4m-5.4.6c.2-.1.5-.1.7-.1 1 0 1.3.5 1.3 1.5v.9l-1.4.3c-1.5.3-2.6.7-2.6 2.3 0 1.3.9 2.2 2.1 2.2.9 0 1.8-.4 2.2-1.1h.1c.1.8.8 1.1 1.6 1.1.6 0 1.2-.2 1.4-.4v-.4l-.8-.4v-4.4c0-1.7-1.2-2.4-3.2-2.4-1.3 0-2.2.3-2.9.7v1.9h1.2l.3-1.7zm2 5.2c-.1.2-.4.3-.7.3-.5 0-.9-.3-.9-1.1 0-.6.5-1.2 1.1-1.2l.5-.1v2.1zm23.5-5.2c.2-.1.5-.1.7-.1 1 0 1.3.5 1.3 1.5v.9l-1.4.3c-1.5.3-2.6.7-2.6 2.3 0 1.3.9 2.2 2.1 2.2.9 0 1.8-.4 2.2-1.1h.1c.1.8.8 1.1 1.6 1.1.6 0 1.2-.2 1.4-.4v-.4l-.8-.4v-4.4c0-1.7-1.2-2.4-3.2-2.4-1.3 0-2.2.3-2.9.7v1.9h1.2l.3-1.7zm2 5.2c-.1.2-.4.3-.7.3-.5 0-.9-.3-.9-1.1 0-.6.5-1.2 1.1-1.2l.5-.1v2.1zm-37.3-.7c0 1.3.6 2.4 2.2 2.4 1 0 1.9-.5 2.4-1.1v1h.2l3-.4v-.6l-.8-.5V55h-.2l-3.1.5v.7l.8.4v4.6c-.3.2-.5.3-.9.3-.6 0-1-.2-1-1.1V55h-.2l-3.1.5v.7l.8.4-.1 4.3m-3.2.6h-2.7c-.3 0-.5-.2-.5-.5 0-.2.1-.4.3-.6.4.1.7.2 1.2.2 1.9 0 3.3-.9 3.3-2.6 0-.8-.3-1.2-.8-1.6l1.3.4v-1.5l-2 .4c-.5-.2-1.1-.4-1.7-.4-1.9 0-3.3 1-3.3 2.7 0 1 .5 1.8 1.2 2.2h.1c-.4.3-1.3 1-1.3 1.8 0 .6.4 1.2 1.2 1.4-.8.2-1.8.5-1.8 1.5s1.4 2 3.8 2c2.9 0 4.2-1.4 4.2-3.2 0-1.5-.8-2.2-2.5-2.2m-1.6-5.3c.5 0 .9.4.9 1.8s-.4 1.7-.9 1.7-.9-.3-.9-1.7c0-1.5.4-1.8.9-1.8m-.1 9.5c-1.4 0-1.9-.5-1.9-1.1 0-.4.2-.8.8-.9h2.2c.6 0 1 .4 1 .8.1.9-.5 1.2-2.1 1.2"/><path fill="#AAD8F1" d="M145.6 59.5c0-3.2-1.4-4.3-3.3-4.3-2.2 0-3.7 1.5-3.7 4 0 2.6 1.3 4.1 3.9 4.1 1.4 0 2.5-.7 2.8-1.2v-.6c-.5.2-1.1.3-2 .3-1.4 0-2.2-.7-2.2-2.2h4.5v-.1zm-3.4-3.4c.6 0 1 .5 1 2.3l-2.1.1c0-1.9.4-2.4 1.1-2.4z"/><path fill="#AAD8F1" d="M130.4 63.1h4.1v-.7l-.8-.4v-4.9c.3-.2.6-.3 1-.3.7 0 1 .4 1 1.1v4.2l-.8.4v.7h4.1v-.7l-.8-.4v-4.7c0-1.4-.8-2-1.9-2-1 0-2 .4-2.7 1V52h-.2l-3.1.5v.7l.9.4v8.5l-.8.4v.6m-4.5-2.1c0 1.4.7 2.3 2.2 2.3.8 0 1.6-.2 2.1-.6v-.9c-.2.1-.5.1-.8.1-.7 0-.9-.4-.9-1.1v-4.1h1.6v-1.3h-1.6v-1.8l-2.5.4v1.4l-1.2.2v1.1h1.2V61"/><path fill="#E3E3E3" d="M28 76h180v20H28V76z"/><path opacity=".2" fill="#005689" d="M32 100h28v8H32v-8z"/><path opacity=".2" fill="#676767" d="M32 332h152v4H32v-4zm0 8h104v4H32v-4z"/><path opacity=".2" fill="#333" d="M32 148h60v8H32v-8zm0-16h104v8H32v-8z"/><path opacity=".2" fill="#676767" d="M32 196h104v4H32v-4z"/><path opacity=".2" fill="#333" d="M32 116h152v8H32v-8z"/><path opacity=".2" fill="#676767" d="M32 184h152v4H32v-4z"/><path opacity=".2" fill="#333" d="M28 212h180v116H28V212z"/><g><path fill="#CCC" d="M668 90c-1.1 0-2-.9-2-2v-8c0-1.1.9-2 2-2h24c1.1 0 2 .9 2 2v8c0 1.1-.9 2-2 2h-24z"/><path fill="#333" d="M692 80v8h-24v-8h24m0-4h-24c-2.2 0-4 1.8-4 4v8c0 2.2 1.8 4 4 4h24c2.2 0 4-1.8 4-4v-8c0-2.2-1.8-4-4-4z"/><path fill="#CCC" d="M652 406c-1.1 0-2-.9-2-2V44c0-1.1.9-2 2-2h8c1.1 0 2 .9 2 2v360c0 1.1-.9 2-2 2h-8z"/><path fill="#333" d="M660 44v360h-8V44h8m0-4h-8c-2.2 0-4 1.8-4 4v360c0 2.2 1.8 4 4 4h8c2.2 0 4-1.8 4-4V44c0-2.2-1.8-4-4-4z"/><path fill="#F6F6F6" d="M420 210c-5.5 0-10-4.5-10-10V40c0-18.7 15.3-34 34-34h80c18.7 0 34 15.3 34 34v40c0 5.5-4.5 10-10 10s-10-4.5-10-10V40c0-7.7-6.3-14-14-14h-80c-7.7 0-14 6.3-14 14v160c0 5.5-4.5 10-10 10z"/><path fill="#333" d="M524 8c17.6 0 32 14.4 32 32v40c0 4.4-3.6 8-8 8s-8-3.6-8-8V40c0-8.8-7.2-16-16-16h-80c-8.8 0-16 7.2-16 16v160c0 4.4-3.6 8-8 8s-8-3.6-8-8V40c0-17.6 14.4-32 32-32h80m0-4h-80c-19.9 0-36 16.1-36 36v160c0 6.6 5.4 12 12 12s12-5.4 12-12V40c0-6.6 5.4-12 12-12h80c6.6 0 12 5.4 12 12v40c0 6.6 5.4 12 12 12s12-5.4 12-12V40c0-19.9-16.1-36-36-36z"/><path fill="none" stroke="#36BCDF" stroke-width="8" stroke-linecap="round" stroke-linejoin="round" stroke-miterlimit="10" d="M548 80V40c0-13.3-10.7-24-24-24h-80c-13.3 0-24 10.7-24 24v160"/><path fill="#F6F6F6" d="M300 218c-18.7 0-34-15.3-34-34v-80c0-7.7-6.3-14-14-14h-8c-5.5 0-10-4.5-10-10s4.5-10 10-10h8c18.7 0 34 15.3 34 34v80c0 7.7 6.3 14 14 14s14-6.3 14-14v-80c0-18.7 15.3-34 34-34s34 15.3 34 34v100c0 5.5-4.5 10-10 10s-10-4.5-10-10V104c0-7.7-6.3-14-14-14s-14 6.3-14 14v80c0 18.7-15.3 34-34 34z"/><path fill="#333" d="M348 72c17.6 0 32 14.4 32 32v100c0 4.4-3.6 8-8 8s-8-3.6-8-8V104c0-8.8-7.2-16-16-16s-16 7.2-16 16v80c0 17.6-14.4 32-32 32s-32-14.4-32-32v-80c0-8.8-7.2-16-16-16h-8c-4.4 0-8-3.6-8-8s3.6-8 8-8h8c17.6 0 32 14.4 32 32v80c0 8.8 7.2 16 16 16s16-7.2 16-16v-80c0-17.6 14.4-32 32-32m0-4c-19.9 0-36 16.1-36 36v80c0 6.6-5.4 12-12 12s-12-5.4-12-12v-80c0-19.9-16.1-36-36-36h-8c-6.6 0-12 5.4-12 12s5.4 12 12 12h8c6.6 0 12 5.4 12 12v80c0 19.9 16.1 36 36 36s36-16.1 36-36v-80c0-6.6 5.4-12 12-12s12 5.4 12 12v100c0 6.6 5.4 12 12 12s12-5.4 12-12V104c0-19.9-16.1-36-36-36z"/><path fill="none" stroke="#46BCDF" stroke-width="8" stroke-linecap="round" stroke-linejoin="round" stroke-miterlimit="10" d="M244 80h8c13.3 0 24 10.7 24 24v80c0 13.3 10.7 24 24 24s24-10.7 24-24v-32"/><path fill="#FF579C" d="M218 50h12v60h-12V50z"/><path fill="#333" d="M228 52v56h-8V52h8m4-4h-16v64h16V48z"/><path fill="#FF579C" d="M230 50h12v60h-12V50z"/><path fill="#333" d="M240 52v56h-8V52h8m4-4h-16v64h16V48z"/><path fill="#F6F6F6" d="M548 230c-36.4 0-66-29.6-66-66 0-31.1 21.8-58 52-64.5V60c0-1.1.9-2 2-2h24c1.1 0 2 .9 2 2v39.5c30.2 6.5 52 33.4 52 64.5 0 36.4-29.6 66-66 66z"/><path fill="#333" d="M560 60v41.1c29.6 5.6 52 31.6 52 62.9 0 35.3-28.7 64-64 64s-64-28.7-64-64c0-31.2 22.4-57.2 52-62.9V60h24m0-4h-24c-2.2 0-4 1.8-4 4v37.9c-30.3 7.3-52 34.6-52 66.1 0 37.5 30.5 68 68 68s68-30.5 68-68c0-31.5-21.7-58.8-52-66.1V60c0-2.2-1.8-4-4-4z"/><path fill="#F6F6F6" stroke="#333" stroke-width="4" stroke-linecap="round" stroke-linejoin="round" stroke-miterlimit="10" d="M564 56h-32c-2.2 0-4 1.8-4 4s1.8 4 4 4h32c2.2 0 4-1.8 4-4s-1.8-4-4-4z"/><path fill="#3794AA" d="M492 164c0 30.9 25.1 56 56 56s56-25.1 56-56v-8s-32.9-12.7-48 8c-32 44-64-8-64-8v8z"/><path fill="#CCC" d="M536 90c-1.1 0-2-.9-2-2v-8c0-1.1.9-2 2-2h76c1.1 0 2 .9 2 2v8c0 1.1-.9 2-2 2h-76z"/><path fill="#333" d="M612 80v8h-76v-8h76m0-4h-76c-2.2 0-4 1.8-4 4v8c0 2.2 1.8 4 4 4h76c2.2 0 4-1.8 4-4v-8c0-2.2-1.8-4-4-4z"/><path fill="#CCC" d="M580 90c-1.1 0-2-.9-2-2v-8c0-1.1.9-2 2-2h76c1.1 0 2 .9 2 2v8c0 1.1-.9 2-2 2h-76z"/><path fill="#333" d="M656 80v8h-76v-8h76m0-4h-76c-2.2 0-4 1.8-4 4v8c0 2.2 1.8 4 4 4h76c2.2 0 4-1.8 4-4v-8c0-2.2-1.8-4-4-4z"/><path fill="#CCC" d="M656 102c-9.9 0-18-8.1-18-18s8.1-18 18-18 18 8.1 18 18-8.1 18-18 18z"/><path fill="#333" d="M656 68c8.8 0 16 7.2 16 16s-7.2 16-16 16-16-7.2-16-16 7.2-16 16-16m0-4c-11 0-20 9-20 20s9 20 20 20 20-9 20-20-9-20-20-20z"/><circle fill="#333" cx="656" cy="84" r="8"/><path fill="#CCC" d="M484 406c-1.1 0-2-.9-2-2v-8c0-1.1.9-2 2-2h176c1.1 0 2 .9 2 2v8c0 1.1-.9 2-2 2H484z"/><path fill="#333" d="M660 396v8H484v-8h176m0-4H484c-2.2 0-4 1.8-4 4v8c0 2.2 1.8 4 4 4h176c2.2 0 4-1.8 4-4v-8c0-2.2-1.8-4-4-4z"/><path fill="#46BCDF" d="M604 164c0 30.9-25.1 56-56 56s-56-25.1-56-56v-8s32-20 56 0 56 0 56 0v8z"/><path fill="#676767" d="M346 202h100v16H346v-16z"/><path fill="#333" d="M444 204v12h-96v-12h96m4-4H344v20h104v-20z"/><path fill="#F6F6F6" d="M344 406c-9.9 0-18-8.1-18-18V236c0-9.9 8.1-18 18-18h104c9.9 0 18 8.1 18 18v152c0 9.9-8.1 18-18 18H344z"/><path fill="#333" d="M448 220c8.8 0 16 7.2 16 16v152c0 8.8-7.2 16-16 16H344c-8.8 0-16-7.2-16-16V236c0-8.8 7.2-16 16-16h104m0-4H344c-11 0-20 9-20 20v152c0 11 9 20 20 20h104c11 0 20-9 20-20V236c0-11-9-20-20-20z"/><path fill="#46BCDF" d="M376 296c8 0 12-8 20-8s12 8 20 8 12-8 20-8 12 8 20 8v92c0 4.4-3.6 8-8 8H344c-4.4 0-8-3.6-8-8v-92c8 0 12-8 20-8s12 8 20 8z"/><text transform="translate(364 388)" fill="#3794AA" font-family="'GuardianIcons-Regular'" font-size="60"></text><circle fill="#3794AA" cx="376" cy="320" r="8"/><circle fill="#3794AA" cx="396" cy="304" r="4"/><circle fill="#46BCDF" cx="548" cy="136" r="8"/><circle fill="#3794AA" cx="544" cy="200" r="8"/><circle fill="#46BCDF" cx="528" cy="124" r="4"/><circle fill="#46BCDF" cx="544" cy="112" r="4"/><circle fill="#3794AA" cx="556" cy="184" r="4"/><path fill="#CCC" d="M540 366c-1.1 0-2-.9-2-2v-72c0-1.1.9-2 2-2h16c1.1 0 2 .9 2 2v72c0 1.1-.9 2-2 2h-16z"/><path fill="#333" d="M556 292v72h-16v-72h16m0-4h-16c-2.2 0-4 1.8-4 4v72c0 2.2 1.8 4 4 4h16c2.2 0 4-1.8 4-4v-72c0-2.2-1.8-4-4-4z"/><path fill="#CCC" d="M524 394c-1.1 0-2-.9-2-2v-12c0-1.1.9-2 2-2h48c1.1 0 2 .9 2 2v12c0 1.1-.9 2-2 2h-48z"/><path fill="#333" d="M572 380v12h-48v-12h48m0-4h-48c-2.2 0-4 1.8-4 4v12c0 2.2 1.8 4 4 4h48c2.2 0 4-1.8 4-4v-12c0-2.2-1.8-4-4-4z"/><path fill="#CCC" d="M532 378c-1.1 0-2-.9-2-2v-32c0-1.1.9-2 2-2h32c1.1 0 2 .9 2 2v32c0 1.1-.9 2-2 2h-32z"/><path fill="#333" d="M564 344v32h-32v-32h32m0-4h-32c-2.2 0-4 1.8-4 4v32c0 2.2 1.8 4 4 4h32c2.2 0 4-1.8 4-4v-32c0-2.2-1.8-4-4-4z"/><path fill="#FF0" d="M548 256s6 14.7 6 18-2.7 6-6 6-6-2.7-6-6 6-18 6-18m0-4c-1.6 0-3.1 1-3.7 2.5-1.9 4.6-6.3 15.8-6.3 19.5 0 5.5 4.5 10 10 10s10-4.5 10-10c0-3.7-4.4-14.9-6.3-19.5-.6-1.5-2.1-2.5-3.7-2.5z"/><path opacity=".2" fill="#333" d="M328 248h32v4h-32v-4zm0 32h16v4h-16v-4zm0 32h32v4h-32v-4zm0 32h16v4h-16v-4zm0 32h32v4h-32v-4z"/><path fill="#333" stroke="#333" stroke-width="4" stroke-linecap="round" stroke-linejoin="round" stroke-miterlimit="10" d="M568 356h8v8h-8v-8z"/><path opacity=".2" fill="#333" d="M492 156h16v4h-16v-4zm0 32h32v4h-32v-4z"/></g><g><path opacity=".1" fill="#FFF" d="M28 281.1L140 48h-12L28 256.1v25zM28 48v174.8L112 48H28z"/></g></svg>