<svg xmlns="http://www.w3.org/2000/svg" width="858" height="468" viewBox="0 0 858 468"><path fill="#333" d="M438 0H174c-13.2 0-24 10.8-24 24v420c0 13.2 10.8 24 24 24h264c13.2 0 24-10.8 24-24V24c0-13.2-10.8-24-24-24z"/><path fill="#333" d="M162 48h288v368H162z"/><path fill="#CCC" d="M310 428c6.6 0 12 5.4 12 12s-5.4 12-12 12-12-5.4-12-12 5.4-12 12-12m0-4c-8.8 0-16 7.2-16 16s7.2 16 16 16 16-7.2 16-16-7.2-16-16-16z"/><circle fill="#CCC" cx="310" cy="28" r="4"/><circle fill="#CCC" cx="300" cy="28" r="2"/><path fill-rule="evenodd" clip-rule="evenodd" fill="#FFF" d="M162 48h288v368H162z"/><path fill-rule="evenodd" clip-rule="evenodd" fill="#FFF" d="M162 52h180v304H162z"/><path fill="#005689" d="M162 48h288v28H162z"/><g fill-rule="evenodd" clip-rule="evenodd"><path fill="#FFF" d="M427.7 52.1c-.8 0-1.4.6-1.4 1.3 0 .7.6 1.3 1.4 1.3.7 0 1.4-.6 1.4-1.3-.1-.7-.7-1.3-1.4-1.3M437.3 63.1h4.1v-.7l-.8-.4v-5c.3-.2.6-.3 1-.3.7 0 1 .3 1 1.1V62l-.8.4v.7h4.1v-.7l-.8-.4v-4.7c0-1.4-.6-2-1.9-2-1 0-2 .4-2.7 1v-1h-.2l-3.1.5v.7l.9.4v5.2l-.8.4v.6M425.6 55.8v.7l.9.4V62l-.8.4v.7h4v-.7l-.8-.4v-6.7h-.2l-3.1.5M422.1 61.8c-.2.2-.4.3-.8.3-1 0-1.4-.8-1.4-2.7 0-2.2.6-2.9 1.4-2.9.4 0 .7.1.8.3v5zm0-6.1c-.3-.2-.8-.3-1.2-.3-1.9 0-3.6 1.1-3.6 4.2 0 3 1.8 3.9 3 3.9.9 0 1.6-.4 1.9-.8h.1v.8h.2l3-.4v-.6l-.8-.5v-9.8h-.2l-3.1.5v.7l.8.4v1.9h-.1zm0 0M411.7 55.8v.7l.8.4V62l-.8.4v.7h4.3v-.7l-1-.4v-4c.4-.4 1-.5 1.7-.5.2 0 .5 0 .6.1v-2.2h-.4c-.8 0-1.6.5-2 1.6v-1.6h-.2l-3 .4"/><path fill="#FFF" d="M406.3 56.4c.2-.1.5-.1.7-.1 1 0 1.3.5 1.3 1.5v.9l-1.4.3c-1.5.3-2.6.7-2.6 2.3 0 1.3.9 2.2 2.1 2.2.9 0 1.8-.4 2.2-1.1h.1c.1.8.8 1.1 1.6 1.1.6 0 1.2-.2 1.4-.4v-.4l-.8-.4v-4.4c0-1.7-1.2-2.4-3.2-2.4-1.3 0-2.2.3-2.9.7v1.9h1.2l.3-1.7zm2 5.2c-.1.2-.4.3-.7.3-.5 0-.9-.3-.9-1.1 0-.6.5-1.2 1.1-1.2l.5-.1v2.1zm0 0M431.8 56.4c.2-.1.5-.1.7-.1 1 0 1.3.5 1.3 1.5v.9l-1.4.3c-1.5.3-2.6.7-2.6 2.3 0 1.3.9 2.2 2.1 2.2.9 0 1.8-.4 2.2-1.1h.1c.1.8.8 1.1 1.6 1.1.6 0 1.2-.2 1.4-.4v-.4l-.8-.4v-4.4c0-1.7-1.2-2.4-3.2-2.4-1.3 0-2.2.3-2.9.7v1.9h1.2l.3-1.7zm2 5.2c-.1.2-.4.3-.7.3-.5 0-.9-.3-.9-1.1 0-.6.5-1.2 1.1-1.2l.5-.1v2.1zm0 0M396.5 60.9c0 1.3.6 2.4 2.2 2.4 1 0 1.9-.5 2.4-1.1v1h.2l3-.4v-.6l-.8-.5V55h-.2l-3.1.5v.7l.8.4v4.6c-.3.2-.5.3-.9.3-.6 0-1-.2-1-1.1V55h-.2l-3.1.5v.7l.8.4v4.3M393.3 61.5h-2.7c-.3 0-.5-.2-.5-.5 0-.2.1-.4.3-.6.4.1.7.2 1.2.2 1.9 0 3.3-.9 3.3-2.6 0-.8-.3-1.2-.8-1.6l1.3.4v-1.5l-2 .4c-.5-.2-1.1-.4-1.7-.4-1.9 0-3.3 1-3.3 2.7 0 1 .5 1.8 1.2 2.2h.1c-.4.3-1.3 1-1.3 1.8 0 .6.4 1.2 1.2 1.4-.8.2-1.8.5-1.8 1.5s1.4 2 3.8 2c2.9 0 4.2-1.4 4.2-3.2 0-1.5-.8-2.2-2.5-2.2m-1.6-5.3c.5 0 .9.4.9 1.8s-.4 1.7-.9 1.7-.9-.3-.9-1.7c0-1.5.4-1.8.9-1.8m-.1 9.5c-1.4 0-1.9-.5-1.9-1.1 0-.4.2-.8.8-.9h2.2c.6 0 1 .4 1 .8.1.9-.5 1.2-2.1 1.2"/><path fill="#AAD8F1" d="M387.6 59.5c0-3.2-1.4-4.3-3.3-4.3-2.2 0-3.7 1.5-3.7 4 0 2.6 1.3 4.1 3.9 4.1 1.4 0 2.5-.7 2.8-1.2v-.6c-.5.2-1.1.3-2 .3-1.4 0-2.2-.7-2.2-2.2h4.5v-.1zm-3.4-3.4c.6 0 1 .5 1 2.3l-2.1.1c0-1.9.4-2.4 1.1-2.4zm0 0"/><path fill="#AAD8F1" d="M372.4 63.1h4.1v-.7l-.8-.4v-4.9c.3-.2.6-.3 1-.3.7 0 1 .4 1 1.1v4.2l-.8.4v.7h4.1v-.7l-.8-.4v-4.7c0-1.4-.8-2-1.9-2-1 0-2 .4-2.7 1V52h-.2l-3.1.5v.7l.9.4v8.5l-.8.4v.6M367.9 61c0 1.4.7 2.3 2.2 2.3.8 0 1.6-.2 2.1-.6v-.9c-.2.1-.5.1-.8.1-.7 0-.9-.4-.9-1.1v-4.1h1.6v-1.3h-1.6v-1.8l-2.5.4v1.4l-1.2.2v1.1h1.2V61"/></g><path fill-rule="evenodd" clip-rule="evenodd" fill="#E3E3E3" d="M162 76h288v20H162z"/><path opacity=".2" fill-rule="evenodd" clip-rule="evenodd" fill="#005689" d="M166 100h28v8h-28z"/><path opacity=".2" fill-rule="evenodd" clip-rule="evenodd" fill="#333" d="M166 148h64v8h-64zM334 116h64v8h-64zM166 132h108v8H166zM290 132h108v8H290z"/><path opacity=".2" fill-rule="evenodd" clip-rule="evenodd" fill="#676767" d="M166 196h104v4H166z"/><path opacity=".2" fill-rule="evenodd" clip-rule="evenodd" fill="#333" d="M166 116h152v8H166z"/><path opacity=".2" fill-rule="evenodd" clip-rule="evenodd" fill="#676767" d="M166 184h152v4H166z"/><path opacity=".2" fill="#333" d="M162 212h288v204H162z"/><path fill="#F6F6F6" d="M20.5 203.6l-5.1-15.2c.6-.2 6.5-2.5 6.5-8.4v-76c0-17.6 14.4-32 32-32h84c4.4 0 8 3.6 8 8s-3.6 8-8 8H54c-8.8 0-16 7.2-16 16v76c0 14-11 21.4-17.5 23.6z"/><path fill="#333" d="M138 72c4.4 0 8 3.6 8 8s-3.6 8-8 8H54c-8.8 0-16 7.2-16 16v76c0 14-11 21.4-17.5 23.6l-5.1-15.2c.6-.2 6.5-2.5 6.5-8.4v-76c0-17.6 14.4-32 32-32H138m0-4H54c-19.9 0-36 16.1-36 36v76c0 3.2-3.7 4.6-3.9 4.7l-3.7 1.3 1.2 3.7 5.1 15.2 1.3 3.8 3.8-1.3C29.3 204.9 42 196.3 42 180v-76c0-6.6 5.4-12 12-12h84c6.6 0 12-5.4 12-12s-5.4-12-12-12z"/><path fill="#36BCDF" d="M18 200c-1.7 0-3.2-1.1-3.8-2.7-.7-2.1.4-4.4 2.5-5.1.4-.1 9.3-3.3 9.3-12.2v-76c0-15.4 12.6-28 28-28h84c2.2 0 4 1.8 4 4s-1.8 4-4 4H54c-11 0-20 9-20 20v76c0 14.7-14.1 19.6-14.7 19.8-.5.1-.9.2-1.3.2z"/><path fill="#F6F6F6" d="M530 376h-40c-4.4 0-8-3.6-8-8s3.6-8 8-8h40c8.8 0 16-7.2 16-16s-7.2-16-16-16h-20c-17.6 0-32-14.4-32-32s14.4-32 32-32h20c8.8 0 16-7.2 16-16s-7.2-16-16-16h-20c-17.6 0-32-14.4-32-32s14.4-32 32-32h20c8.8 0 16-7.2 16-16s-7.2-16-16-16h-20c-17.6 0-32-14.4-32-32s14.4-32 32-32h96c17.6 0 32 14.4 32 32 0 4.4-3.6 8-8 8s-8-3.6-8-8c0-8.8-7.2-16-16-16h-96c-8.8 0-16 7.2-16 16s7.2 16 16 16h20c17.6 0 32 14.4 32 32s-14.4 32-32 32h-20c-8.8 0-16 7.2-16 16s7.2 16 16 16h20c17.6 0 32 14.4 32 32s-14.4 32-32 32h-20c-8.8 0-16 7.2-16 16s7.2 16 16 16h20c17.6 0 32 14.4 32 32s-14.4 32-32 32z"/><path fill="#333" d="M606 72c17.6 0 32 14.4 32 32 0 4.4-3.6 8-8 8s-8-3.6-8-8c0-8.8-7.2-16-16-16h-96c-8.8 0-16 7.2-16 16s7.2 16 16 16h20c17.6 0 32 14.4 32 32s-14.4 32-32 32h-20c-8.8 0-16 7.2-16 16s7.2 16 16 16h20c17.6 0 32 14.4 32 32s-14.4 32-32 32h-20c-8.8 0-16 7.2-16 16s7.2 16 16 16h20c17.6 0 32 14.4 32 32s-14.4 32-32 32h-40c-4.4 0-8-3.6-8-8s3.6-8 8-8h40c8.8 0 16-7.2 16-16s-7.2-16-16-16h-20c-17.6 0-32-14.4-32-32s14.4-32 32-32h20c8.8 0 16-7.2 16-16s-7.2-16-16-16h-20c-17.6 0-32-14.4-32-32s14.4-32 32-32h20c8.8 0 16-7.2 16-16s-7.2-16-16-16h-20c-17.6 0-32-14.4-32-32s14.4-32 32-32h96m0-4h-96c-19.9 0-36 16.1-36 36s16.1 36 36 36h20c6.6 0 12 5.4 12 12s-5.4 12-12 12h-20c-19.9 0-36 16.1-36 36s16.1 36 36 36h20c6.6 0 12 5.4 12 12s-5.4 12-12 12h-20c-19.9 0-36 16.1-36 36s16.1 36 36 36h20c6.6 0 12 5.4 12 12s-5.4 12-12 12h-40c-6.6 0-12 5.4-12 12s5.4 12 12 12h40c19.9 0 36-16.1 36-36s-16.1-36-36-36h-20c-6.6 0-12-5.4-12-12s5.4-12 12-12h20c19.9 0 36-16.1 36-36s-16.1-36-36-36h-20c-6.6 0-12-5.4-12-12s5.4-12 12-12h20c19.9 0 36-16.1 36-36s-16.1-36-36-36h-20c-6.6 0-12-5.4-12-12s5.4-12 12-12h96c6.6 0 12 5.4 12 12s5.4 12 12 12 12-5.4 12-12c0-19.9-16.1-36-36-36z"/><path fill="#676767" d="M2 200l8-16 16 24H6z"/><path fill="#333" d="M26 210H6c-.8 0-1.5-.4-1.8-1.1l-4-8c-.3-.6-.3-1.2 0-1.8l8-16c.3-.6 1-1.1 1.7-1.1s1.4.3 1.8.9l15.9 23.8c.3.4.5.8.5 1.3-.1 1.1-1 2-2.1 2zm-18.8-4h15l-12-18-6 12 3 6z"/><path fill="#46BCDF" d="M530 372h-40c-2.2 0-4-1.8-4-4s1.8-4 4-4h40c11 0 20-9 20-20s-9-20-20-20h-20c-15.4 0-28-12.6-28-28s12.6-28 28-28h20c11 0 20-9 20-20s-9-20-20-20h-20c-15.4 0-28-12.6-28-28s12.6-28 28-28h20c11 0 20-9 20-20s-9-20-20-20h-20c-15.4 0-28-12.6-28-28s12.6-28 28-28h96c15.4 0 28 12.6 28 28 0 2.2-1.8 4-4 4s-4-1.8-4-4c0-11-9-20-20-20h-96c-11 0-20 9-20 20s9 20 20 20h20c15.4 0 28 12.6 28 28s-12.6 28-28 28h-20c-11 0-20 9-20 20s9 20 20 20h20c15.4 0 28 12.6 28 28s-12.6 28-28 28h-20c-11 0-20 9-20 20s9 20 20 20h20c15.4 0 28 12.6 28 28s-12.6 28-28 28z"/><path fill="#FF579C" d="M130 60h8v40h-8z"/><path fill="#333" d="M138 60v40h-8V60h8m4-4h-16v48h16V56z"/><path fill="#FF579C" d="M142 52h8v56h-8z"/><path fill="#333" d="M150 52v56h-8V52h8m4-4h-16v64h16V48z"/><path fill="#FF579C" d="M478 348h8v40h-8z"/><path fill="#333" d="M486 348v40h-8v-40h8m4-4h-16v48h16v-48z"/><path fill="#FF579C" d="M466 340h8v56h-8z"/><path fill="#333" d="M474 340v56h-8v-56h8m4-4h-16v64h16v-64z"/><path fill="#F6F6F6" d="M650 128c6.6 0 12 5.4 12 12l-12 44h-40l-12-44c0-6.6 5.4-12 12-12h40z"/><path fill="#333" d="M650 128c6.6 0 12 5.4 12 12l-12 44h-40l-12-44c0-6.6 5.4-12 12-12h40m0-4h-40c-8.8 0-16 7.2-16 16 0 .4 0 .7.1 1.1l12 44c.5 1.7 2.1 2.9 3.9 2.9h40c1.8 0 3.4-1.2 3.9-2.9l12-44c.1-.3.1-.7.1-1.1 0-8.8-7.2-16-16-16z"/><path fill="#F6F6F6" d="M618 188h24v8h-24z"/><path fill="#333" d="M642 188v8h-24v-8h24m0-4h-24c-2.2 0-4 1.8-4 4v8c0 2.2 1.8 4 4 4h24c2.2 0 4-1.8 4-4v-8c0-2.2-1.8-4-4-4z"/><path fill="#F6F6F6" d="M626 200h8v8h-8z"/><path fill="#333" d="M634 200v8h-8v-8h8m0-4h-8c-2.2 0-4 1.8-4 4v8c0 2.2 1.8 4 4 4h8c2.2 0 4-1.8 4-4v-8c0-2.2-1.8-4-4-4z"/><path fill="#F6F6F6" d="M614 108h32v16h-32z"/><path fill="#333" d="M646 108v16h-32v-16h32m0-4h-32c-2.2 0-4 1.8-4 4v16c0 2.2 1.8 4 4 4h32c2.2 0 4-1.8 4-4v-16c0-2.2-1.8-4-4-4z"/><path fill="#46BCDF" d="M618 112h24v12h-24zM626 108h8v4h-8z"/><path fill="#F6F6F6" d="M650 128c6.6 0 12 5.4 12 12l-12 44h-40l-12-44c0-6.6 5.4-12 12-12h40z"/><path fill="#46BCDF" d="M613.1 180l-11-40.5c.3-4.2 3.7-7.5 8-7.5h40c4.2 0 7.7 3.3 8 7.5l-11 40.5h-34zM630 220c-1.6 0-3.1 1-3.7 2.5-1.9 4.6-6.3 15.8-6.3 19.5 0 5.5 4.5 10 10 10s10-4.5 10-10c0-3.7-4.4-14.9-6.3-19.5-.6-1.5-2.1-2.5-3.7-2.5z"/><path fill="#676767" d="M674 280h-88l20 32h8v44h32v-44h8z"/><path fill="#333" d="M674 280l-20 32h-8v44h-32v-44h-8l-20-32h88m0-4h-88c-1.5 0-2.8.8-3.5 2.1-.7 1.3-.7 2.8.1 4.1l20 32c.7 1.2 2 1.9 3.4 1.9h4v40c0 2.2 1.8 4 4 4h32c2.2 0 4-1.8 4-4v-40h4c1.4 0 2.7-.7 3.4-1.9l19.9-31.9c.4-.6.7-1.4.7-2.2 0-2.3-1.8-4.1-4-4.1z"/><path fill="#676767" d="M602 360c-8.8 0-16 7.2-16 16v88h268v-88c0-8.8-7.2-16-16-16H602z"/><path fill="#333" d="M838 360c8.8 0 16 7.2 16 16v88H586v-88c0-8.8 7.2-16 16-16h236m0-4H602c-11 0-20 9-20 20v88c0 2.2 1.8 4 4 4h268c2.2 0 4-1.8 4-4v-88c0-11-9-20-20-20z"/><circle fill="#CCC" cx="814" cy="424" r="24"/><path fill="#333" d="M814 400c13.3 0 24 10.7 24 24s-10.7 24-24 24-24-10.7-24-24 10.7-24 24-24m0-4c-15.4 0-28 12.6-28 28s12.6 28 28 28 28-12.6 28-28-12.6-28-28-28z"/><g opacity=".2"><path fill="#CC4884" d="M814 400v4"/><path fill="#333" d="M814 406c-1.1 0-2-.9-2-2v-4c0-1.1.9-2 2-2s2 .9 2 2v4c0 1.1-.9 2-2 2z"/></g><g opacity=".2"><path fill="#CC4884" d="M790 424h4"/><path fill="#333" d="M794 426h-4c-1.1 0-2-.9-2-2s.9-2 2-2h4c1.1 0 2 .9 2 2s-.9 2-2 2z"/></g><g opacity=".2"><path fill="#CC4884" d="M834 424h4"/><path fill="#333" d="M838 426h-4c-1.1 0-2-.9-2-2s.9-2 2-2h4c1.1 0 2 .9 2 2s-.9 2-2 2z"/></g><path fill="#FF579C" d="M826 412s-14.5 3.2-17.7 6.3c-3.1 3.1-3.1 8.2 0 11.3 3.1 3.1 8.2 3.1 11.3 0 3.2-3.1 6.4-17.6 6.4-17.6z"/><path fill="#333" d="M814 434c-2.7 0-5.2-1-7.1-2.9-1.9-1.9-2.9-4.4-2.9-7.1s1-5.2 2.9-7.1c3.2-3.2 15-6.1 18.6-6.9.3-.1.6-.1.9 0 .9.2 1.5 1 1.5 1.9v.4c-.6 2.5-3.5 15.3-6.9 18.6-1.8 2.1-4.3 3.1-7 3.1zm9.3-19.3c-6.1 1.5-12.1 3.6-13.5 5.1-1.1 1.1-1.8 2.6-1.8 4.2s.6 3.1 1.8 4.2c1.1 1.1 2.6 1.8 4.2 1.8s3.1-.6 4.2-1.8c1.5-1.4 3.6-7.5 5.1-13.5z"/><circle fill="#CCC" cx="746" cy="424" r="24"/><path fill="#333" d="M746 400c13.3 0 24 10.7 24 24s-10.7 24-24 24-24-10.7-24-24 10.7-24 24-24m0-4c-15.4 0-28 12.6-28 28s12.6 28 28 28 28-12.6 28-28-12.6-28-28-28z"/><g opacity=".2"><path fill="#CC4884" d="M746 400v4"/><path fill="#333" d="M746 406c-1.1 0-2-.9-2-2v-4c0-1.1.9-2 2-2s2 .9 2 2v4c0 1.1-.9 2-2 2z"/></g><g opacity=".2"><path fill="#CC4884" d="M722 424h4"/><path fill="#333" d="M726 426h-4c-1.1 0-2-.9-2-2s.9-2 2-2h4c1.1 0 2 .9 2 2s-.9 2-2 2z"/></g><g opacity=".2"><path fill="#CC4884" d="M766 424h4"/><path fill="#333" d="M770 426h-4c-1.1 0-2-.9-2-2s.9-2 2-2h4c1.1 0 2 .9 2 2s-.9 2-2 2z"/></g><path fill="#FF579C" d="M758 436s-3.2-14.5-6.3-17.7c-3.1-3.1-8.2-3.1-11.3 0-3.1 3.1-3.1 8.2 0 11.3 3.1 3.2 17.6 6.4 17.6 6.4z"/><path fill="#333" d="M758 438h-.4c-2.5-.6-15.3-3.5-18.6-6.9-1.9-1.9-2.9-4.4-2.9-7.1s1-5.2 2.9-7.1c1.9-1.9 4.4-2.9 7.1-2.9 2.7 0 5.2 1 7.1 2.9 3.4 3.4 6.3 16.1 6.9 18.6.1.7-.1 1.4-.5 1.8-.6.5-1.1.7-1.6.7zm-12-20c-1.6 0-3.1.6-4.2 1.8-1.1 1.1-1.8 2.6-1.8 4.2s.6 3.1 1.8 4.2c1.6 1.6 8.1 3.7 13.5 5.1-1.4-5.5-3.5-12-5.1-13.5-1.1-1.2-2.6-1.8-4.2-1.8z"/><path fill="#F6F6F6" d="M598 396h104v56H598z"/><path fill="#333" d="M702 396v56H598v-56h104m0-4H598c-2.2 0-4 1.8-4 4v56c0 2.2 1.8 4 4 4h104c2.2 0 4-1.8 4-4v-56c0-2.2-1.8-4-4-4z"/><path fill="#46BCDF" d="M698 426c-2.4 0-3.5-1.2-5.3-3.3-1.8-2.1-4-4.7-8.4-4.7-4.3 0-6.6 2.6-8.4 4.7-1.8 2.1-2.9 3.3-5.3 3.3s-3.5-1.2-5.3-3.3c-1.8-2.1-4-4.7-8.4-4.7-4.3 0-6.6 2.6-8.4 4.7-1.8 2.1-2.9 3.3-5.3 3.3s-3.5-1.2-5.3-3.3c-1.8-2.1-4-4.7-8.4-4.7-4.3 0-6.6 2.6-8.4 4.7-1.8 2.1-2.9 3.3-5.3 3.3s-3.5-1.2-5.3-3.3c-1.8-2.1-4-4.7-8.4-4.7v30h96v-22z"/><path fill="#F6F6F6" d="M742 348h8v8h-8z"/><path fill="#333" d="M750 348v8h-8v-8h8m0-4h-8c-2.2 0-4 1.8-4 4v8c0 2.2 1.8 4 4 4h8c2.2 0 4-1.8 4-4v-8c0-2.2-1.8-4-4-4z"/><path fill="#F6F6F6" d="M758 292c0-6.6-5.4-12-12-12s-12 5.4-12 12v52h24v-52z"/><path fill="#333" d="M746 280c6.6 0 12 5.4 12 12v52h-24v-52c0-6.6 5.4-12 12-12m0-4c-8.8 0-16 7.2-16 16v52c0 2.2 1.8 4 4 4h24c1.1 0 2.1-.4 2.8-1.2s1.2-1.8 1.2-2.8v-52c0-8.8-7.2-16-16-16z"/><path fill="#F6F6F6" d="M758 292c0-6.6-5.4-12-12-12s-12 5.4-12 12v52h24v-52z"/><path fill="#333" d="M746 280c6.6 0 12 5.4 12 12v52h-24v-52c0-6.6 5.4-12 12-12m0-4c-8.8 0-16 7.2-16 16v52c0 2.2 1.8 4 4 4h24c1.1 0 2.1-.4 2.8-1.2s1.2-1.8 1.2-2.8v-52c0-8.8-7.2-16-16-16z"/><g><path fill="#46BCDF" d="M738 340v-48c0-4.4 3.6-8 8-8s8 3.6 8 8v48h-16z"/></g><path opacity=".2" fill="#333" d="M738 304h4v4h-4zM738 328h4v4h-4zM738 316h8v4h-8zM738 292h8v4h-8z"/><g><path fill="#F6F6F6" d="M810 348h8v8h-8z"/><path fill="#333" d="M818 348v8h-8v-8h8m0-4h-8c-2.2 0-4 1.8-4 4v8c0 2.2 1.8 4 4 4h8c2.2 0 4-1.8 4-4v-8c0-2.2-1.8-4-4-4z"/></g><g><path fill="#F6F6F6" d="M826 292c0-6.6-5.4-12-12-12s-12 5.4-12 12v52h24v-52z"/><path fill="#333" d="M814 280c6.6 0 12 5.4 12 12v52h-24v-52c0-6.6 5.4-12 12-12m0-4c-8.8 0-16 7.2-16 16v52c0 2.2 1.8 4 4 4h24c2.2 0 4-1.8 4-4v-52c0-8.8-7.2-16-16-16z"/></g><g><path fill="#F6F6F6" d="M826 292c0-6.6-5.4-12-12-12s-12 5.4-12 12v52h24v-52z"/><path fill="#333" d="M814 280c6.6 0 12 5.4 12 12v52h-24v-52c0-6.6 5.4-12 12-12m0-4c-8.8 0-16 7.2-16 16v52c0 2.2 1.8 4 4 4h24c2.2 0 4-1.8 4-4v-52c0-8.8-7.2-16-16-16z"/></g><g><path fill="#46BCDF" d="M822 316s-4-4-8 0-8 0-8 0v24h16v-24"/></g><path opacity=".2" fill="#333" d="M806 304h4v4h-4zM806 328h4v4h-4zM806 316h8v4h-8zM806 292h8v4h-8z"/><g><path fill="#676767" d="M630 350v-60"/><path fill="#333" d="M630 348c-1.1 0-2-.9-2-2v-56c0-1.1.9-2 2-2s2 .9 2 2v56c0 1.1-.9 2-2 2z"/></g><g><path fill="#676767" d="M630 290h-24"/><path fill="#333" d="M630 292h-24c-1.1 0-2-.9-2-2s.9-2 2-2h24c1.1 0 2 .9 2 2s-.9 2-2 2z"/></g><g><path fill="#676767" d="M630 302h-16"/><path fill="#333" d="M630 304h-16c-1.1 0-2-.9-2-2s.9-2 2-2h16c1.1 0 2 .9 2 2s-.9 2-2 2z"/></g><g><path fill="#676767" d="M630 314h-8"/><path fill="#333" d="M630 316h-8c-1.1 0-2-.9-2-2s.9-2 2-2h8c1.1 0 2 .9 2 2s-.9 2-2 2z"/></g><g><path fill="#676767" d="M630 326h-8"/><path fill="#333" d="M630 328h-8c-1.1 0-2-.9-2-2s.9-2 2-2h8c1.1 0 2 .9 2 2s-.9 2-2 2z"/></g><g><path fill="#676767" d="M630 338h-8"/><path fill="#333" d="M630 340h-8c-1.1 0-2-.9-2-2s.9-2 2-2h8c1.1 0 2 .9 2 2s-.9 2-2 2z"/></g><g><path opacity=".1" fill="#FFF" d="M162 48v224L294 48z"/></g><g><path opacity=".1" fill="#FFF" d="M162 296v24L334 48h-12z"/></g></svg>