<svg xmlns="http://www.w3.org/2000/svg" width="2800" height="536" viewBox="0 0 2800 536"><path fill="#82C81E" d="M0 0h2800v481H0z"/><ellipse fill="#008D3D" cx="634.7" cy="267" rx="191.7" ry="40"/><path fill="#B6F0D9" d="M0 0h2800v72H0z"/><path fill="#ADFF2C" d="M1917 319c-.8 0-1.5-.2-2.2-.5l-8-4c-2.5-1.2-3.5-4.2-2.2-6.7 1.2-2.5 4.2-3.5 6.7-2.2l5.2 2.6L1938 292c.2-.2.5-.3.8-.5l32-16c2.5-1.2 5.5-.2 6.7 2.2 1.2 2.5.2 5.5-2.2 6.7l-31.6 15.8L1920 318c-.9.7-1.9 1-3 1z"/><path fill="#ADFF2C" d="M1989 319c-1.3 0-2.6-.5-3.5-1.5-1.8-1.8-1.9-4.6-.5-6.5l-29-6.1c-2.1-.4-3.7-2.1-3.9-4.3s.8-4.2 2.7-5.1l20-10c2.5-1.2 5.5-.2 6.7 2.2 1.2 2.5.2 5.5-2.2 6.7l-7.2 3.6 24 5c1.8.4 3.2 1.7 3.8 3.5.5 1.8 0 3.7-1.3 5l-6 6c-1 1-2.3 1.5-3.6 1.5zM2061 296c-3 0-6.5-2.8-8.8-5.2-1.6-1.6-1.6-4.1 0-5.7 1.6-1.6 4.1-1.6 5.7 0 1.2 1.2 2.9 2.5 3.6 2.9 2 .2 3.6 1.9 3.6 4-.1 2.2-1.9 4-4.1 4zM2003 214c-1 0-2.1-.4-2.8-1.2-1.5-1.6-1.5-4.1 0-5.6.5-.5 3.3-3.2 6.8-3.2 2.2 0 4 1.8 4 4s-1.7 4-3.9 4c-.3.1-.9.5-1.3.9-.8.7-1.8 1.1-2.8 1.1z"/><g fill="#008D3D"><path d="M2017 246s10 0 16 4l14 20 10 14-4 8s-18-22-26-24c0 0-24 6-26 14 0 0-18-12-20-16 0 0-2-2-6-2l20-12s4-8 2-10c0 0-12-12-12-16 0 0 6-14 14-16l4 4s-8 8-6 10c0 0 10 16 14 18l6 4z"/><path d="M2053 294c-.6 0-1.2-.3-1.5-.7-4.8-5.8-18.2-21.1-24.5-23.2-16.3 4.2-23.4 9.8-24 12.4-.2.6-.6 1.1-1.2 1.4-.6.2-1.3.2-1.8-.2-3-2-17.6-11.9-20.5-16.4-.5-.3-1.9-1.3-4.4-1.3-.9 0-1.7-.6-1.9-1.5-.2-.9.1-1.8.9-2.2l19.5-11.7c1.4-3 2.4-6.3 2.1-7.2-3-3-12.5-12.9-12.5-17.3 0-.3.1-.5.2-.8.3-.6 6.5-14.9 15.4-17.2.7-.2 1.4 0 1.9.5l4 4c.8.8.8 2 0 2.8-2.8 2.8-5.4 6.3-5.7 7.5 4 6.4 10.8 16.1 13.2 17.3.1 0 .1.1.2.1l5.5 3.7c2.4.1 10.9.6 16.5 4.3.2.1.4.3.5.5l14 20 10 14c.4.6.5 1.4.2 2.1l-4 8c-.3.6-.9 1-1.6 1.1h-.5zm-26-28c.2 0 .3 0 .5.1 7 1.8 20 16.3 25.1 22.3l2.1-4.2-9.3-13-13.8-19.7c-5.5-3.4-14.5-3.5-14.6-3.5-.4 0-.8-.1-1.1-.3l-5.9-3.9c-4.3-2.3-12.7-15.5-14.6-18.5-1.8-2.1-.2-5.9 4.8-11.2l-1.7-1.7c-5.1 2.1-9.7 10.3-11.4 14 .5 2.1 5.5 8.4 11.4 14.3 1.1 1.1 2.4 4.2-1.6 12.3-.2.3-.4.6-.8.8l-15.7 9.4c1.3.6 2 1.3 2.1 1.4.2.2.3.3.4.5 1.1 2.2 10.3 9.1 17.4 13.9 2.1-3.1 6.6-6 13.8-8.9 6.3-2.5 12.3-4 12.5-4.1h.4z"/></g><g fill="#008D3D"><circle cx="1886" cy="303" r="11"/><path d="M1886 316c-7.2 0-13-5.8-13-13s5.8-13 13-13 13 5.8 13 13-5.8 13-13 13zm0-22c-5 0-9 4-9 9s4 9 9 9 9-4 9-9-4-9-9-9z"/></g><path fill="#ADFF2C" d="M1873 315c-1.3 0-2.6-.5-3.5-1.5l-8-8c-1.3-1.3-1.8-3.3-1.2-5l11.7-36.9-1.8-12.9c-.4-2.7 1.5-5.3 4.2-5.7 2.7-.4 5.3 1.5 5.7 4.2l2 14c.1.7 0 1.5-.2 2.2l-11.1 35.1 5.9 5.9c2 2 2 5.1 0 7.1-1.1 1-2.4 1.5-3.7 1.5zM1823 299c-2 0-3.9-1.2-4.6-3.1l-4-10c-.8-2-.2-4.4 1.5-5.8l29.3-23.4 5.5-9.2c1.4-2.4 4.5-3.1 6.9-1.7 2.4 1.4 3.1 4.5 1.7 6.9l-6 10c-.3.5-.7 1-1.2 1.3l-27.1 21.7 2.6 6.6c1 2.6-.2 5.5-2.8 6.5-.6.1-1.2.2-1.8.2zM1911 210c-.2 0-.4 0-.7-.1l-12-2c-1.2-.2-2.2-.9-2.8-1.9l-6-10c-1.1-1.9-.5-4.4 1.4-5.5 1.9-1.1 4.4-.5 5.5 1.4l5 8.4 10.2 1.7c2.2.4 3.7 2.4 3.3 4.6-.3 2-2 3.4-3.9 3.4zM1829 202h-4c-2.2 0-4-1.8-4-4s1.8-4 4-4h2.3l10.8-10.8c.3-.3.7-.6 1-.8l16-8c2-1 4.4-.2 5.4 1.8s.2 4.4-1.8 5.4l-15.4 7.7-11.5 11.5c-.7.8-1.7 1.2-2.8 1.2z"/><g fill="#008D3D"><path d="M1887 174l-12-6h-10l-12 8 6 8h4v20l-6 14s4-2 8-2l16 4 6-28 4 4s4-2 6-2c0 0-6-18-10-20z"/><path d="M1881 222c-.2 0-.3 0-.5-.1l-15.8-3.9c-3.4.1-6.8 1.8-6.9 1.8-.7.4-1.7.2-2.3-.3-.6-.6-.8-1.5-.5-2.2l5.8-13.6V186h-2c-.6 0-1.2-.3-1.6-.8l-6-8c-.3-.4-.5-1-.4-1.5s.4-1 .9-1.3l12-8c.3-.2.7-.3 1.1-.3h10c.3 0 .6.1.9.2l12 6c4.4 2.2 9.5 16.8 11 21.2.2.6.1 1.3-.3 1.8s-1 .8-1.6.8c-1 0-3.7 1.1-5.1 1.8-.8.4-1.7.2-2.3-.4l-1.4-1.4-5.2 24.4c-.1.5-.4 1-.9 1.3-.2.1-.5.2-.9.2zm-16-8c.2 0 .3 0 .5.1l14 3.5 5.6-26c.2-.7.7-1.3 1.4-1.5.7-.2 1.5 0 2 .5l3 3c.8-.4 1.9-.8 2.9-1.1-2.7-7.7-6.5-15.8-8.3-16.7l-11.6-5.8h-8.9l-9.7 6.5 4.1 5.5h3c1.1 0 2 .9 2 2v20c0 .3-.1.5-.2.8l-4.2 9.8c1.4-.3 2.9-.6 4.4-.6z"/></g><g fill="#008D3D"><circle cx="1888.6" cy="147.3" r="11"/><path d="M1888.6 160.3c-1.5 0-3.1-.3-4.5-.8-3.3-1.2-5.8-3.6-7.3-6.8s-1.6-6.7-.4-9.9c1.9-5.1 6.8-8.5 12.2-8.5 1.5 0 3.1.3 4.5.8 6.7 2.5 10.1 10 7.6 16.7-1.8 5.1-6.7 8.5-12.1 8.5zm0-22c-3.7 0-7.1 2.4-8.4 5.9-.8 2.3-.8 4.7.2 6.9s2.8 3.9 5 4.7c1 .4 2.1.6 3.1.6 3.7 0 7.1-2.4 8.4-5.9 1.7-4.6-.6-9.8-5.3-11.6-.9-.4-2-.6-3-.6z"/></g><path fill="#ADFF2C" d="M1392.7 103.4c.8-.8.8-2 0-2.8-.8-.8-2-.8-2.8 0l-2.8 2.8 2 4.6 3.6-4.6zM1379 182c-.8 0-1.6-.5-1.9-1.4l-2-6c-.1-.3-.1-.6-.1-.9l2-18c.1-1.1 1.1-1.9 2.2-1.8 1.1.1 1.9 1.1 1.8 2.2l-2 17.6 1.9 5.6c.3 1-.2 2.2-1.3 2.5-.2.2-.4.2-.6.2zM1389 182c-.8 0-1.6-.5-1.9-1.4l-2-6c-.1-.3-.1-.6-.1-.9l2-16c.1-1.1 1.1-1.9 2.2-1.7s1.9 1.1 1.7 2.2l-1.9 15.5 1.9 5.6c.3 1-.2 2.2-1.3 2.5-.2.2-.4.2-.6.2zM1371 144c-1.1 0-2-.9-2-2v-6c0-.2 0-.4.1-.6l4-12c.3-1 1.5-1.6 2.5-1.3 1 .3 1.6 1.5 1.3 2.5l-3.9 11.7v5.7c0 1.1-.9 2-2 2zM1393 118c-.5 0-1-.2-1.4-.6-.8-.8-.8-2 0-2.8l7.6-7.6 1.9-7.5c.3-1.1 1.4-1.7 2.4-1.5 1.1.3 1.7 1.4 1.5 2.4l-2 8c-.1.4-.3.7-.5.9l-8 8c-.5.5-1 .7-1.5.7z"/><g fill="#008D3D"><path d="M1393 120l4-4-4-4-4 4h-11c-2.8 0-5 2.2-5 5l-2 5h6l2-4-2 20h16l-2-20 2-2z"/><path d="M1393 143h-16c-.3 0-.6-.1-.7-.3-.2-.2-.3-.5-.3-.8l1.5-15c-.2.1-.3.1-.5.1h-6c-.3 0-.6-.2-.8-.4s-.2-.6-.1-.9l1.9-4.8c.1-3.2 2.8-5.8 6-5.8h10.6l3.7-3.7c.4-.4 1-.4 1.4 0l4 4c.4.4.4 1 0 1.4l-5.7 5.7 2 19.5c0 .3-.1.6-.3.8-.1.1-.4.2-.7.2zm-14.9-2h13.8l-1.9-18.9c0-.3.1-.6.3-.8l5.3-5.3-2.6-2.6-3.3 3.3c-.2.2-.4.3-.7.3h-11c-2.2 0-4 1.8-4 4 0 .1 0 .3-.1.4l-1.5 3.6h3.9l1.7-3.4c.2-.4.7-.6 1.2-.5.5.1.8.6.7 1.1l-1.8 18.8z"/></g><path fill="#ADFF2C" d="M1582.9 264H1561c-2.2 0-4-1.8-4-4v-.6-5.3c0-2.2 1.7-4 3.9-4.1 2.2 0 4 1.7 4.1 3.9v2.1h17.9c2.2 0 4 1.8 4 4s-1.8 4-4 4zm-25.5-5.8c-.1.3-.2.6-.3.8.1-.3.2-.5.3-.8zM1585.9 253.7c-.2 0-.4 0-.7-.1l-19.7-3.3c-3.7-.6-4.3-2.8-4.2-4.4v-.3-6.4c0-2.2 1.7-4 4-4 2.2 0 4 1.8 4 4v3.8c4.3.7 11.7 2 17.2 2.9 2.2.4 3.7 2.4 3.3 4.6-.3 1.8-2 3.2-3.9 3.2zm-20.6-11.5c-2.1 0-3.6 1.6-3.9 3.1.4-1.8 2-3.1 3.9-3.1zM1159 206c-.3 0-.6-.1-.9-.2-1-.5-1.4-1.7-.9-2.7l1.6-3.2-7.6-17.1c-.4-1 0-2.2 1-2.6 1-.4 2.2 0 2.6 1l8 18c.2.5.2 1.2 0 1.7l-2 4c-.4.7-1.1 1.1-1.8 1.1zM1141 206c-.8 0-1.6-.5-1.9-1.4-.3-1 .2-2.2 1.3-2.5l4.9-1.6c.6-4.3-2.1-12.9-4.2-17.7-.4-1 0-2.2 1.1-2.6 1-.4 2.2 0 2.6 1.1.6 1.5 6.2 14.9 4.1 21.4-.2.6-.7 1.1-1.3 1.3l-6 2h-.6z"/><path fill="#008D3D" d="M1139 162l-4 20h24l-6-20"/><path fill="#ADFF2C" d="M1144.9 133.5c-.3-1.1-1.4-1.7-2.4-1.5-.1 0-7.8 1.9-11.5 1.9h-14c-.2 0-.5.1-.7.1-1.1-.5-2-2-2.3-2.6-.2-.5-.8-.7-1.3-.5-.5.2-.7.8-.5 1.3.1.1.4.9 1.1 1.7-1.1 0-2.2.1-3.1.6-.8.3-1.1 1.2-.7 2 .3.6.8.9 1.4.9.2 0 .4 0 .6-.1.9-.4 2.7-.3 4-.1.4.4.9.7 1.5.7h14c4.2 0 12.1-2 12.5-2.1 1.1-.1 1.7-1.2 1.4-2.3zM1164.2 157c-.3-.4-.6-.8-1.2-1 0-16.6-9.6-19.6-10-20-.8-.8.8-2.8 0-2-.8.8-2.2-1.4-1.4-.6.1.1 7.2 7.5 7.4 22.1-1 1.2-1.7 3.3.2 5.2.2.2.5.3.7.3s.5-.1.7-.3c.4-.4.4-1 0-1.4-.6-.6-.6-1.1-.6-1.6.3.2.6.3 1 .3s-.5.1-.2 0c.3.1-1.4-.2.4 0 1.2.2 1.6 3.3 1.3 4-.2.5.1 1.1.6 1.3.1 0 .2.1.3.1.4 0 .8-.3.9-.7.3-.5 1.3-3.7-.1-5.7z"/><path fill="#008D3D" d="M1129.3 133l1.7 6.1s6-3.1 6 4.9l2 18s8 2 14 0v-22c2 0 4 6 4 6h6s-4-10-8-12c0 0-4-4-6-2h-8c-4-2-11.7 1-11.7 1z"/><path fill="#ADFF2C" d="M1135 116c-1.1 0-2 .9-2 2s.9 2 2 2h2v4s2 4 6 4v4s2 2 4 0v-4s2 0 2-2v-14h-10v4h-4"/><circle fill="#008D3D" cx="1142" cy="118" r="1"/><circle fill="#008D3D" cx="1152" cy="109" r="3"/><path fill="#008D3D" d="M1146 108c-2.8 0-5.9 1.6-7 4h1c2.4 0 3.7 2.1 5 4 1.9 1.3 4 2.6 4 5v.3c2.4-1.1 4-3.5 4-6.3 0-3.9-3.1-7-7-7z"/><ellipse fill="#008D3D" cx="1089" cy="135" rx="12" ry="3"/><ellipse opacity=".3" fill="#3794AA" cx="1168" cy="210" rx="15" ry="2"/><ellipse fill="#008D3D" cx="1149" cy="118" rx="2" ry="6"/><path fill="#ADFF2C" d="M1601 200s0 4 4 4v2s4 4 8 0v-2s2 0 2-2v-18h-12v6h-5c-1.7 0-3 1.3-3 3s1.5 3 3.1 3h2.9v4z"/><circle fill="#008D3D" cx="1611" cy="188" r="2"/><circle fill="#008D3D" cx="1605" cy="188" r="2"/><path fill="#008D3D" d="M1610 188.5h-4c-.3 0-.5-.2-.5-.5s.2-.5.5-.5h4c.3 0 .5.2.5.5s-.2.5-.5.5zM1585.1 220.6c-.3 0-.5-.1-.7-.3l-11.3-11.3c-.4-.4-.4-1 0-1.4s1-.4 1.4 0l11.3 11.3c.4.4.4 1 0 1.4-.2.2-.4.3-.7.3z"/><path fill="#ADFF2C" d="M1599 226h-.6l-14-2c-2.2-.3-3.7-2.3-3.4-4.5.3-2.2 2.3-3.7 4.5-3.4l12.6 1.8 8.8-5.3c1.9-1.1 4.4-.5 5.5 1.4 1.1 1.9.5 4.4-1.4 5.5l-10 6c-.6.3-1.3.5-2 .5z"/><g fill="#ADFF2C"><path d="M1613 204s12 8 12 14v20l-4 14-20-12s-2.8-8.8 6-10c3.2-1.1 0-24 0-24"/><path d="M1621 254c-.4 0-.7-.1-1-.3l-20-12c-.4-.3-.7-.6-.9-1.1-.1-.2-1.5-4.9.8-8.6 1.3-2 3.3-3.3 6.1-3.8.9-2.4.3-13-1-21.9-.2-1.1.6-2.1 1.7-2.3 1.1-.1 2.1.6 2.3 1.7 3.5 24.5 0 25.7-1.3 26.2-.1 0-.2.1-.4.1-1.9.3-3.2 1-4 2.1-1 1.5-.8 3.6-.6 4.6l17 10.2 3.2-11.2V218c0-3.4-6.5-9.3-11.1-12.3-.9-.6-1.2-1.9-.6-2.8.6-.9 1.9-1.2 2.8-.6 1.3.9 12.9 8.8 12.9 15.7v20c0 .2 0 .4-.1.5l-4 14c-.2.6-.6 1.1-1.2 1.3-.1.2-.4.2-.6.2z"/></g><g fill="#008D3D"><path d="M1583 264h34c4 0 4-4 4-4v-4l-22-14-2 6-12-2.1-.4 7.9 12.4 2.2h-14v8z"/><path d="M1617 266h-34c-.5 0-1-.2-1.4-.6s-.6-.9-.6-1.4v-8c0-1 .7-1.8 1.6-2v-.3l.4-7.9c0-.6.3-1.1.8-1.5.4-.4 1-.5 1.6-.4l10.3 1.8 1.5-4.4c.2-.6.6-1 1.2-1.3.6-.2 1.2-.1 1.7.2l22 14c.6.4.9 1 .9 1.7v4c0 2.5-1.6 6.1-6 6.1zm-32-4h32c1.6 0 2-1.1 2-2v-2.9l-18.9-12-1.2 3.6c-.3.9-1.3 1.5-2.2 1.3l-9.8-1.7-.2 3.9 10.7 1.9c1 .2 1.7 1.1 1.6 2.1-.1 1-1 1.8-2 1.8h-12v4z"/></g><path fill="#008D3D" d="M1615 178h-12c-1.1 0-2-.9-2-2 0-3.3 2.7-6 6-6h4c2.4 0 5.8 1.5 6 5.7v.3c0 1.1-.9 2-2 2zm-8-4h4-4zM1621 184h-26c-1.1 0-2-.9-2-2s.9-2 2-2h26c1.1 0 2 .9 2 2s-.9 2-2 2zM1576.6 212.1c-.3 0-.5-.1-.7-.3-.4-.4-.4-1 0-1.4 1.2-1.2 1.2-3.1 0-4.2-.4-.4-.4-1 0-1.4s1-.4 1.4 0c1.9 1.9 1.9 5.1 0 7.1-.1.1-.4.2-.7.2z"/><path fill="#008D3D" d="M1573.8 213.3c-1.3 0-2.6-.5-3.5-1.5-.4-.4-.4-1 0-1.4s1-.4 1.4 0c1.2 1.2 3.1 1.2 4.2 0 .4-.4 1-.4 1.4 0 .4.4.4 1 0 1.4-.9 1-2.2 1.5-3.5 1.5z"/><path fill="#ADFF2C" d="M1579.5 201.2c1.2-1.2 1.2-3.1 0-4.2s-3.1-1.2-4.2 0l-12.7 12.7c-1.2 1.2-1.2 3.1 0 4.2s3.1 1.2 4.2 0"/><g fill="#008D3D"><path d="M1515 244h36v12h-36z"/><path d="M1551 258h-36c-1.1 0-2-.9-2-2v-12c0-1.1.9-2 2-2h36c1.1 0 2 .9 2 2v12c0 1.1-.9 2-2 2zm-34-4h32v-8h-32v8z"/></g><path fill="#5A5A5A" d="M1521 256v6"/><path fill="#008D3D" d="M1521 264c-1.1 0-2-.9-2-2v-6c0-1.1.9-2 2-2s2 .9 2 2v6c0 1.1-.9 2-2 2z"/><path fill="#5A5A5A" d="M1545 256v6"/><path fill="#008D3D" d="M1545 264c-1.1 0-2-.9-2-2v-6c0-1.1.9-2 2-2s2 .9 2 2v6c0 1.1-.9 2-2 2z"/><path fill="#ADFF2C" d="M1527 238c-1.1 0-2-.9-2-2 0-2.9-1.5-4.3-3.4-6-2.1-1.9-4.6-4.3-4.6-9s2.6-7 4.6-9c1.9-1.8 3.4-3.2 3.4-6 0-1.1.9-2 2-2s2 .9 2 2c0 4.6-2.6 7-4.6 9-1.9 1.8-3.4 3.2-3.4 6s1.5 4.3 3.4 6c2.1 1.9 4.6 4.3 4.6 9 0 1.1-.9 2-2 2zM1539 238c-1.1 0-2-.9-2-2 0-2.9-1.5-4.3-3.4-6-2.1-1.9-4.6-4.3-4.6-9s2.6-7 4.6-9c1.9-1.8 3.4-3.2 3.4-6 0-1.1.9-2 2-2s2 .9 2 2c0 4.6-2.6 7-4.6 9-1.9 1.8-3.4 3.2-3.4 6s1.5 4.3 3.4 6c2.1 1.9 4.6 4.3 4.6 9 0 1.1-.9 2-2 2z"/><g fill="#008D3D"><path d="M1603 176h12v4h-12z"/><path d="M1615 182h-12c-1.1 0-2-.9-2-2v-4c0-1.1.9-2 2-2h12c1.1 0 2 .9 2 2v4c0 1.1-.9 2-2 2zm-10-4h8-8z"/></g><path fill="#7CC120" d="M1599 178h20v2h-20z"/><ellipse opacity=".3" fill="#3794AA" cx="1659" cy="264" rx="34" ry="2"/><path fill="#ADFF2C" d="M1389 104l-2-6h-8v14.2c0 2 2 2 2 2v2c4 4 4 0 4 0v-2c4 0 4-4 4-4V106"/><path fill="#008D3D" d="M1387 100h-8c-1.1 0-2-.9-2-2 0-2.4 1.6-6 6-6s6 3.6 6 6c0 1.1-.9 2-2 2z"/><path fill="#008D3D" d="M1379 100h-4c-1.1 0-2-.9-2-2s.9-2 2-2h4c1.1 0 2 .9 2 2s-.9 2-2 2z"/><circle fill="#008D3D" cx="1386" cy="102" r="1"/><path fill="#008D3D" d="M1403 100c-.3 0-.5-.1-.8-.2-1-.4-1.5-1.6-1-2.6l12-28c.4-1 1.6-1.5 2.6-1 1 .4 1.5 1.6 1 2.6l-12 28c-.3.7-1 1.2-1.8 1.2z"/><path fill="#ADFF2C" d="M1401.9 102c-.3 0-.5-.1-.7-.3-2-2-1.1-4.3 0-5.4.4-.4 1-.4 1.4 0s.4 1 0 1.4c-.3.3-1.2 1.4 0 2.6.4.4.4 1 0 1.4-.2.2-.5.3-.7.3z"/><g fill="#008D3D"><path d="M1377 146v12h6l2-6 2 6h6v-12z"/><path d="M1393 159h-6c-.4 0-.8-.3-.9-.7l-1.1-3.2-1.1 3.2c-.1.4-.5.7-.9.7h-6c-.6 0-1-.4-1-1v-12c0-.6.4-1 1-1h16c.6 0 1 .4 1 1v12c0 .6-.4 1-1 1zm-5.3-2h4.3v-10h-14v10h4.3l1.8-5.3c.1-.4.5-.7.9-.7s.8.3.9.7l1.8 5.3z"/></g><ellipse opacity=".3" fill="#3794AA" cx="1398" cy="186" rx="15" ry="2"/><g fill="#ADFF2C"><path d="M1483 116c0 15.5-12.5 28-28 28s-28-12.5-28-28V54c0-15.5 12.5-28 28-28s28 12.5 28 28v62z"/><path d="M1455 146c-16.5 0-30-13.5-30-30V54c0-16.5 13.5-30 30-30s30 13.5 30 30v62c0 16.5-13.5 30-30 30zm0-118c-14.3 0-26 11.7-26 26v62c0 14.3 11.7 26 26 26s26-11.7 26-26V54c0-14.3-11.7-26-26-26z"/></g><path fill="#008D3D" d="M1455 162c-2.2 0-4-1.8-4-4V98c0-2.2 1.8-4 4-4s4 1.8 4 4v60c0 2.2-1.8 4-4 4z"/><path fill="#008D3D" d="M1455 120c-.5 0-1-.2-1.4-.6l-13-13c-.8-.8-.8-2 0-2.8s2-.8 2.8 0l13 13c.8.8.8 2 0 2.8-.4.4-.9.6-1.4.6zM1455 128c-.5 0-1-.2-1.4-.6-.8-.8-.8-2 0-2.8l17-17c.8-.8 2-.8 2.8 0s.8 2 0 2.8l-17 17c-.4.4-.9.6-1.4.6zM1471 184c-5.9 0-10.6-1.9-14.1-5.8-7-7.6-5.9-20.1-5.9-20.6.2-2.2 2.2-3.8 4.3-3.6 2.2.2 3.8 2.1 3.6 4.3 0 .2-.7 9.5 3.8 14.5 1.9 2.1 4.6 3.1 8.2 3.1 2.2 0 4 1.8 4 4s-1.7 4.1-3.9 4.1z"/><path fill="#008D3D" d="M1439 184c-2.2 0-4-1.8-4-4s1.8-4 4-4c3.6 0 6.2-1 8.2-3.2 4.6-5 3.8-14.4 3.8-14.5-.2-2.2 1.4-4.1 3.6-4.3 2.2-.2 4.1 1.4 4.3 3.6 0 .5 1.1 13-5.9 20.6-3.4 3.9-8.1 5.8-14 5.8z"/><ellipse opacity=".3" fill="#3794AA" cx="1534" cy="182" rx="55" ry="2"/><g fill="#008D3D"><circle cx="1431" cy="42" r="6"/><path d="M1431 50c-4.4 0-8-3.6-8-8s3.6-8 8-8 8 3.6 8 8-3.6 8-8 8zm0-12c-2.2 0-4 1.8-4 4s1.8 4 4 4 4-1.8 4-4-1.8-4-4-4z"/></g><path fill="#ADFF2C" d="M1897.4 158l-.9-.3-1.9-.7 1.3-3.5c0-.1.1-.1.1-.2.4-1-.1-2.2-1.2-2.6l-7.5-2.8c-1-.4-2.2.1-2.6 1.2 0 .1 0 .1-.1.2l-5.5 14.8c-.7 1.9 1.2 2.6 1.2 2.6l1.9.7-.7 1.9-.3.9c-.2.5.5 1.2 1.5 1.6 1 .4 2 .3 2.2-.2l.3-.9.7-1.9c3.7 1.4 5.1-2.4 5.1-2.4l1.4-3.8 2.7 1c1.6.6 3.4-.2 4-1.7s-.2-3.3-1.7-3.9z"/><circle fill="#008D3D" cx="1892.1" cy="155" r="1.5"/><g fill="#008D3D"><path d="M1857 226s4-2 8-2l14 4s-2 2-2 6l4 16s-8-2-14 2v-6l-6 8s-6-4-12-4l10-18-2-6z"/><path d="M1861 256c-.4 0-.8-.1-1.1-.3-.1 0-5.6-3.7-10.9-3.7-.7 0-1.4-.4-1.7-1-.4-.6-.4-1.4 0-2l9.6-17.2-1.7-5.2c-.3-.9.1-2 1-2.4.2-.1 4.5-2.2 8.9-2.2.2 0 .4 0 .5.1l14 4c.7.2 1.2.7 1.4 1.4.2.7 0 1.4-.5 1.9 0 0-1.3 1.5-1.4 4.4l3.9 15.8c.2.7 0 1.4-.5 1.9s-1.2.7-1.9.5c0 0-1.8-.4-4.3-.4-2.2 0-5.5.4-8.1 2.2-.6.4-1.4.4-2.1.1-.7-.3-1.1-1-1.1-1.8l-2.4 3.2c-.4.4-1 .7-1.6.7zm-8.8-7.7c3.4.6 6.5 2.1 8.2 3.1l4.9-6.6c.5-.7 1.4-1 2.2-.7.8.3 1.4 1 1.4 1.9v2.7c2.2-.8 4.6-1.2 7.2-1.2.8 0 1.5 0 2.1.1l-3.3-13.1c0-.2-.1-.3-.1-.5 0-2 .4-3.6.9-4.8l-11.2-3.2c-1.9 0-3.9.6-5.2 1.1l1.4 4.2c.2.5.1 1.1-.1 1.6l-8.4 15.4z"/></g><ellipse opacity=".3" fill="#3794AA" cx="1858" cy="320" rx="21" ry="2"/><path opacity=".3" fill="#3794AA" d="M2085 320c0 1.1-18.8 2-42 2s-42-.9-42-2 18.8-2 42-2 42 .9 42 2z"/><g fill="#008D3D"><path d="M2033.5 234.5c-1.9 4.6-7.2 6.7-11.8 4.8-4.6-1.9-6.7-7.2-4.8-11.8 1.9-4.6 6.3-7.1 10.9-5.2 4.6 1.9 7.6 7.6 5.7 12.2z"/><path d="M2025.2 242c-1.5 0-2.9-.3-4.2-.9-5.6-2.3-8.2-8.8-5.9-14.4 1.8-4.4 5.5-7.1 9.6-7.1 1.3 0 2.6.3 3.9.8 2.7 1.1 5 3.3 6.3 6 1.5 2.9 1.6 6 .5 8.7-1.7 4.3-5.7 6.9-10.2 6.9zm-.5-18.3c-2.5 0-4.7 1.8-5.9 4.6-1.5 3.6.2 7.7 3.8 9.2.9.4 1.8.5 2.7.5 2.8 0 5.4-1.7 6.5-4.3.7-1.6.5-3.5-.4-5.4-.9-1.9-2.5-3.4-4.3-4.1-.9-.4-1.7-.5-2.4-.5z"/></g><circle fill="#ADFF2C" cx="2020.8" cy="231.3" r="9"/><path fill="#ADFF2C" d="M2015.5 225.8l-3.7-1.5c-1-.4-2.2.1-2.6 1.1s.1 2.2 1.1 2.6l3.7 1.5"/><circle fill="#008D3D" cx="2019.2" cy="227.4" r="1.5"/><path fill="#ADFF2C" d="M2022.2 246c-1.1-2.6-.3-4.5-.3-4.5l.8-1.8-7.4-3.1-.8 1.8c-.8 1.8-3.4 2.9-3.4 2.9s4.3 4.7 11.1 4.7z"/><g fill="#008D3D"><ellipse transform="rotate(-29.421 2030.602 228.294)" cx="2030.6" cy="228.3" rx="1.4" ry="4.2"/><path d="M2032.4 234c-2.2 0-4-2.8-4.7-4-.6-1.1-1.1-2.3-1.3-3.4-.5-2.3.6-3.3 1.2-3.7.4-.2.8-.3 1.2-.3 2.2 0 4 2.8 4.7 4 1.9 3.3 1.9 6 .1 7-.3.2-.8.4-1.2.4z"/></g><g fill="#008D3D"><ellipse transform="rotate(22.72 2028.908 235.702)" cx="2028.7" cy="235.7" rx="2" ry="4"/><path d="M2027.5 241.5c-.4 0-.8-.1-1.2-.2-2.1-.9-2.7-3.9-1.4-7.1 1.1-2.6 3-4.2 4.8-4.2.4 0 .8.1 1.2.2 2.1.9 2.7 3.9 1.4 7.1-1 2.5-2.9 4.2-4.8 4.2z"/></g><g fill="#008D3D"><path d="M1969 272s6 0 8 2c0 0 18 14 20 14 0 0-4 8-10 8h-14s6-8 0-10c0 0 0-4-4-6l-4-2 4-6z"/><path d="M1987 298h-14c-.8 0-1.5-.4-1.8-1.1s-.3-1.5.2-2.1c1.1-1.5 2.6-4.5 2.2-5.9-.1-.2-.2-.6-1.2-1-.8-.3-1.4-1-1.4-1.9 0-.1-.1-2.8-2.9-4.2l-4-2c-.5-.3-.9-.7-1-1.3-.1-.6 0-1.1.3-1.6l4-6c.4-.6 1-.9 1.7-.9 1.1 0 6.8.1 9.3 2.5 8 6.2 17.1 12.9 18.9 13.5.6.1 1.1.4 1.4.9.4.6.4 1.3.1 1.9-.2.5-4.6 9.2-11.8 9.2zm-10.5-4h10.5c3.1 0 5.8-3.1 7.1-5.2-2.6-1.5-7.8-5.1-18.4-13.3l-.2-.2c-.8-.8-3.4-1.3-5.5-1.4l-2.1 3.2 2 1c3.5 1.7 4.6 4.7 4.9 6.4 1.6.9 2.3 2.1 2.6 3.1.7 2.2 0 4.5-.9 6.4z"/></g><path fill="#ADFF2C" d="M849 276h-4c-.6 0-1.2-.3-1.6-.8-.4-.5-.5-1.2-.3-1.8l2-6c.3-1 1.5-1.6 2.5-1.3 1 .3 1.6 1.5 1.3 2.5l-1.1 3.4h1.2c1.1 0 2 .9 2 2s-.9 2-2 2zM859 276h-4c-1.1 0-2-.9-2-2v-6c0-1.1.9-2 2-2s2 .9 2 2v4h2c1.1 0 2 .9 2 2s-.9 2-2 2z"/><g fill="#ADFF2C"><path d="M856 268c6.1 0 11-4.9 11-11v-9h-6s-20-8-32 6c0 0 6 2 12 10 0 0 4 4 15 4z"/><path d="M856 269c-11.3 0-15.5-4.1-15.7-4.3l-.1-.1c-5.7-7.7-11.5-9.6-11.5-9.7l-1.4-.5 1-1.1c4.9-5.7 11.6-8.6 19.9-8.6 6.6 0 11.9 1.9 13 2.3h6.8v10c0 6.6-5.4 12-12 12zm-14.3-5.7c.4.4 4.4 3.7 14.3 3.7 5.5 0 10-4.5 10-10v-8h-5.2l-.2-.1c-.1 0-5.6-2.2-12.4-2.2-7.2 0-13.1 2.3-17.5 6.9 2.2 1.1 6.6 3.8 11 9.7z"/></g><g fill="#ADFF2C"><path d="M871 238h-4v-1c0-2.8-2.2-5-5-5s-5 2.2-5 5v11s6 4 10 0v-6h4c1.1 0 2-.9 2-2s-.9-2-2-2z"/><path d="M862.6 250.8c-3.2 0-6.1-1.9-6.2-1.9l-.4-.3V237c0-3.3 2.7-6 6-6s6 2.7 6 6h3c1.7 0 3 1.3 3 3s-1.3 3-3 3h-3v5.4l-.3.3c-1.4 1.4-3.1 2.1-5.1 2.1zm-4.6-3.4c.8.5 2.7 1.3 4.6 1.3 1.3 0 2.4-.4 3.4-1.2V241h5c.6 0 1-.4 1-1s-.4-1-1-1h-5v-2c0-2.2-1.8-4-4-4s-4 1.8-4 4v10.4z"/></g><circle fill="#008D3D" cx="864" cy="237" r="1.5"/><g fill="#ADFF2C"><path d="M742 276c6.1 0 11-2.9 11-9v-9h-6s-20-8-32 6c0 0 8 8 16 8 0 0 0 4 11 4z"/><path d="M742 277c-8.8 0-11.1-2.5-11.8-4-8-.5-15.6-7.9-15.9-8.3l-.7-.7.6-.7c4.9-5.7 11.6-8.6 19.9-8.6 6.6 0 11.9 1.9 13 2.3h6.8v10c.1 6.1-4.6 10-11.9 10zm-25.6-13.1c2.1 1.9 8.4 7.1 14.6 7.1h1v1c.1.8 2.1 3 10 3 4.8 0 10-2.1 10-8v-8h-5.2l-.2-.1c-.1 0-5.6-2.2-12.4-2.2-7.4 0-13.4 2.4-17.8 7.2z"/></g><g fill="#ADFF2C"><path d="M759 248h-6v-1c0-2.8-2.2-5-5-5s-5 2.2-5 5v11s6 4 10 0v-6h6c1.1 0 2-.9 2-2s-.9-2-2-2z"/><path d="M748.6 260.8c-3.2 0-6.1-1.9-6.2-1.9l-.4-.3V247c0-3.3 2.7-6 6-6s6 2.7 6 6h5c1.7 0 3 1.3 3 3s-1.3 3-3 3h-5v5.4l-.3.3c-1.4 1.4-3.1 2.1-5.1 2.1zm-4.6-3.4c.8.5 2.7 1.3 4.6 1.3 1.3 0 2.4-.4 3.4-1.2V251h7c.6 0 1-.4 1-1s-.4-1-1-1h-7v-2c0-2.2-1.8-4-4-4s-4 1.8-4 4v10.4z"/></g><circle fill="#008D3D" cx="750" cy="247" r="1.5"/><path fill="#6ACCC7" d="M1629 24h40v48h-40zM1669 20c0-4-3.6-8-8-8h-24c-4.4 0-8 4-8 8h40zM1581 24h40v48h-40zM1621 20c0-4-3.6-8-8-8h-24c-4.4 0-8 4-8 8h40zM1677 0h40v72h-40zM1725 0h40v72h-40zM1775 0h48v72h-48zM1823 0h40v72h-40zM1873 0h48v72h-48zM1921 0h40v72h-40zM2029.1 16H1971v56h144l2-56zM1339 60h8v12h-8z"/><circle fill="#6ACCC7" cx="1343" cy="48" r="16"/><path fill="#6ACCC7" d="M1303 64h8v8h-8z"/><g fill="#6ACCC7"><path d="M1295 64h24l-12-28z"/><path d="M1319 65h-24c-.3 0-.6-.2-.8-.4-.2-.3-.2-.6-.1-.9l12-28c.2-.4.5-.6.9-.6s.8.2.9.6l12 28c.1.3.1.7-.1.9-.2.2-.5.4-.8.4zm-22.5-2h21L1307 38.5 1296.5 63z"/></g><path fill="#6ACCC7" d="M1153 64h8v8h-8z"/><g fill="#6ACCC7"><path d="M1145 64h24l-12-28z"/><path d="M1169 65h-24c-.3 0-.6-.2-.8-.4-.2-.3-.2-.6-.1-.9l12-28c.2-.4.5-.6.9-.6s.8.2.9.6l12 28c.1.3.1.7-.1.9-.2.2-.5.4-.8.4zm-22.5-2h21L1157 38.5 1146.5 63z"/></g><path fill="#6ACCC7" d="M1081 64h8v8h-8z"/><g fill="#6ACCC7"><path d="M1073 64h24l-12-28z"/><path d="M1097 65h-24c-.3 0-.6-.2-.8-.4-.2-.3-.2-.6-.1-.9l12-28c.2-.4.5-.6.9-.6s.8.2.9.6l12 28c.1.3.1.7-.1.9-.2.2-.5.4-.8.4zm-22.5-2h21L1085 38.5 1074.5 63z"/></g><path fill="#6ACCC7" d="M1049 64h8v8h-8z"/><g fill="#6ACCC7"><path d="M1041 64h24l-12-28z"/><path d="M1065 65h-24c-.3 0-.6-.2-.8-.4-.2-.3-.2-.6-.1-.9l12-28c.2-.4.5-.6.9-.6s.8.2.9.6l12 28c.1.3.1.7-.1.9-.2.2-.5.4-.8.4zm-22.5-2h21L1053 38.5 1042.5 63z"/></g><path fill="#6ACCC7" d="M901 64h8v8h-8z"/><g fill="#6ACCC7"><path d="M893 64h24l-12-28z"/><path d="M917 65h-24c-.3 0-.6-.2-.8-.4-.2-.3-.2-.6-.1-.9l12-28c.2-.4.5-.6.9-.6s.8.2.9.6l12 28c.1.3.1.7-.1.9-.2.2-.5.4-.8.4zm-22.5-2h21L905 38.5 894.5 63z"/></g><path fill="#6ACCC7" d="M1117 60h8v12h-8z"/><circle fill="#6ACCC7" cx="1121" cy="48" r="16"/><path fill="#6ACCC7" d="M957 60h8v12h-8z"/><path fill="#6ACCC7" d="M971 54c0 5.5-4.5 10-10 10s-10-4.5-10-10V36c0-5.5 4.5-10 10-10s10 4.5 10 10v18zM929 60h8v12h-8z"/><path fill="#6ACCC7" d="M943 54c0 5.5-4.5 10-10 10s-10-4.5-10-10V36c0-5.5 4.5-10 10-10s10 4.5 10 10v18zM737 64h8v8h-8z"/><g fill="#6ACCC7"><path d="M723 64h36l-18-42z"/><path d="M759 65h-36c-.3 0-.6-.2-.8-.4-.2-.3-.2-.6-.1-.9l18-42c.2-.4.5-.6.9-.6s.8.2.9.6l18 42c.1.3.1.7-.1.9-.2.2-.5.4-.8.4zm-34.5-2h33L741 24.5 724.5 63z"/></g><path fill="#6ACCC7" d="M691 64h8v8h-8z"/><g fill="#6ACCC7"><path d="M677 64h36l-18-42z"/><path d="M713 65h-36c-.3 0-.6-.2-.8-.4-.2-.3-.2-.6-.1-.9l18-42c.2-.4.5-.6.9-.6s.8.2.9.6l18 42c.1.3.1.7-.1.9-.2.2-.5.4-.8.4zm-34.5-2h33L695 24.5 678.5 63z"/></g><path fill="#6ACCC7" d="M873 60h8v12h-8z"/><path fill="#6ACCC7" d="M887 54c0 5.5-4.5 10-10 10s-10-4.5-10-10V36c0-5.5 4.5-10 10-10s10 4.5 10 10v18zM845 60h8v12h-8z"/><path fill="#6ACCC7" d="M859 54c0 5.5-4.5 10-10 10s-10-4.5-10-10V36c0-5.5 4.5-10 10-10s10 4.5 10 10v18z"/><circle fill="#6ACCC7" cx="1549" cy="68" r="4"/><circle fill="#6ACCC7" cx="1525" cy="68" r="4"/><g fill="#6ACCC7"><path d="M1521 44l-8 12v8h5.1c1.4-2.4 4-4 6.9-4s5.5 1.6 6.9 4h10.2c1.4-2.4 4-4 6.9-4s5.5 1.6 6.9 4h5.1V44h-40zm12 12h-19l7-12h12v12z"/><path d="M1561 44v20h-5.1c-1.4-2.4-4-4-6.9-4s-5.5 1.6-6.9 4h-10.2c-1.4-2.4-4-4-6.9-4s-5.5 1.6-6.9 4h-5.1v-8l8-12h40m-47 12h19V44h-12l-7 12m7-14h-.2c-.3 0-.6.1-.8.2-.2.1-.4.3-.6.5l-.1.1-8 12c-.2.3-.3.7-.3 1.1v8c0 1.1.9 2 2 2h5.1c.7 0 1.4-.4 1.7-1 1.1-1.9 3.1-3 5.2-3s4.1 1.2 5.2 3c.4.6 1 1 1.7 1h10.2c.7 0 1.4-.4 1.7-1 1.1-1.9 3.1-3 5.2-3s4.1 1.2 5.2 3c.4.6 1 1 1.7 1h5.1c1.1 0 2-.9 2-2V44c0-1.1-.9-2-2-2h-40zm1.1 4h8.9v8h-13.5l4.6-8z"/></g><path fill="#6ACCC7" d="M2119 12c0-4-3.6-8-8-8h-12 20-8c-4.4 0-8 4-8 8h16-16 16zM2103 16h16v56h-16zM1987 12c0-4-3.6-8-8-8h-12 20-8c-4.4 0-8 4-8 8h16-16 16zM1971 16h16v56h-16z"/><g fill="#008D3D"><path d="M1433 236h24v238h-24z"/><path d="M1457 236v238h-24V236h24m0-6h-24c-3.3 0-6 2.7-6 6v238c0 3.3 2.7 6 6 6h24c3.3 0 6-2.7 6-6V236c0-3.3-2.7-6-6-6z"/></g><g fill="#008D3D"><path d="M1119 236h24v238h-24z"/><path d="M1143 236v238h-24V236h24m0-6h-24c-3.3 0-6 2.7-6 6v238c0 3.3 2.7 6 6 6h24c3.3 0 6-2.7 6-6V236c0-3.3-2.7-6-6-6z"/></g><g fill="#D8DF00"><path d="M1095 236h386v24h-386z"/><path d="M1481 236v24h-386v-24h386m0-6h-386c-3.3 0-6 2.7-6 6v24c0 3.3 2.7 6 6 6h386c3.3 0 6-2.7 6-6v-24c0-3.3-2.7-6-6-6z"/></g><g fill="#D8DF00"><path d="M1095 278h386v24h-386z"/><path d="M1481 278v24h-386v-24h386m0-6h-386c-3.3 0-6 2.7-6 6v24c0 3.3 2.7 6 6 6h386c3.3 0 6-2.7 6-6v-24c0-3.3-2.7-6-6-6z"/></g><g fill="#D8DF00"><path d="M1095 320h386v24h-386z"/><path d="M1481 320v24h-386v-24h386m0-6h-386c-3.3 0-6 2.7-6 6v24c0 3.3 2.7 6 6 6h386c3.3 0 6-2.7 6-6v-24c0-3.3-2.7-6-6-6z"/></g><g fill="#D8DF00"><path d="M1069 380h434v42h-434z"/><path d="M1503 380v42h-434v-42h434m0-6h-434c-3.3 0-6 2.7-6 6v42c0 3.3 2.7 6 6 6h434c3.3 0 6-2.7 6-6v-42c0-3.3-2.7-6-6-6z"/></g><g fill="#008D3D"><circle cx="1131" cy="248" r="6"/><path d="M1131 254.5c-3.6 0-6.5-2.9-6.5-6.5s2.9-6.5 6.5-6.5 6.5 2.9 6.5 6.5-2.9 6.5-6.5 6.5zm0-12c-3 0-5.5 2.5-5.5 5.5s2.5 5.5 5.5 5.5 5.5-2.5 5.5-5.5-2.5-5.5-5.5-5.5z"/></g><g fill="#008D3D"><circle cx="1131" cy="290" r="6"/><path d="M1131 296.5c-3.6 0-6.5-2.9-6.5-6.5s2.9-6.5 6.5-6.5 6.5 2.9 6.5 6.5-2.9 6.5-6.5 6.5zm0-12c-3 0-5.5 2.5-5.5 5.5s2.5 5.5 5.5 5.5 5.5-2.5 5.5-5.5-2.5-5.5-5.5-5.5z"/></g><g fill="#008D3D"><circle cx="1131" cy="332" r="6"/><path d="M1131 338.5c-3.6 0-6.5-2.9-6.5-6.5s2.9-6.5 6.5-6.5 6.5 2.9 6.5 6.5-2.9 6.5-6.5 6.5zm0-12c-3 0-5.5 2.5-5.5 5.5s2.5 5.5 5.5 5.5 5.5-2.5 5.5-5.5-2.5-5.5-5.5-5.5z"/></g><g fill="#008D3D"><circle cx="1445" cy="248" r="6"/><path d="M1445 254.5c-3.6 0-6.5-2.9-6.5-6.5s2.9-6.5 6.5-6.5 6.5 2.9 6.5 6.5-2.9 6.5-6.5 6.5zm0-12c-3 0-5.5 2.5-5.5 5.5s2.5 5.5 5.5 5.5 5.5-2.5 5.5-5.5-2.5-5.5-5.5-5.5z"/></g><g fill="#008D3D"><circle cx="1445" cy="290" r="6"/><path d="M1445 296.5c-3.6 0-6.5-2.9-6.5-6.5s2.9-6.5 6.5-6.5 6.5 2.9 6.5 6.5-2.9 6.5-6.5 6.5zm0-12c-3 0-5.5 2.5-5.5 5.5s2.5 5.5 5.5 5.5 5.5-2.5 5.5-5.5-2.5-5.5-5.5-5.5z"/></g><g fill="#008D3D"><circle cx="1445" cy="332" r="6"/><path d="M1445 338.5c-3.6 0-6.5-2.9-6.5-6.5s2.9-6.5 6.5-6.5 6.5 2.9 6.5 6.5-2.9 6.5-6.5 6.5zm0-12c-3 0-5.5 2.5-5.5 5.5s2.5 5.5 5.5 5.5 5.5-2.5 5.5-5.5-2.5-5.5-5.5-5.5z"/></g><g fill="#EAEAEA"><path d="M1089 340l-4 32h-16l-4-32z"/><path d="M1085 374h-16c-1 0-1.9-.8-2-1.8l-4-32c-.1-.6.1-1.1.5-1.6.4-.4.9-.7 1.5-.7h24c.6 0 1.1.2 1.5.7.4.4.6 1 .5 1.6l-4 32c-.1 1-1 1.8-2 1.8zm-14.2-4h12.5l3.5-28h-19.5l3.5 28z"/></g><g opacity=".1" fill="#333"><path d="M1089 340l-4 32h-2l4-32z"/><path d="M1086.8 374h-6.1l4.5-36h6.1z"/></g><path fill="#676767" d="M1091 336l-2-4h-24l-2 4z"/><path fill="#444" d="M1091 338h-28c-.7 0-1.3-.4-1.7-.9-.4-.6-.4-1.3-.1-1.9l2-4c.3-.7 1-1.1 1.8-1.1h24c.8 0 1.5.4 1.8 1.1l2 4c.3.6.3 1.4-.1 1.9s-1 .9-1.7.9zm-24.8-4h21.5-21.5z"/><g fill="#333"><path d="M1061 336h32v4h-32z"/><path d="M1093 342h-32c-1.1 0-2-.9-2-2v-4c0-1.1.9-2 2-2h32c1.1 0 2 .9 2 2v4c0 1.1-.9 2-2 2zm-30-4h28-28z"/></g><g fill="#AF654A"><path d="M1179 362c0 2.2-1.8 4-4 4h-60c-2.2 0-4-1.8-4-4v-4h68v4z"/><path d="M1175 368h-60c-3.3 0-6-2.7-6-6v-4c0-1.1.9-2 2-2h68c1.1 0 2 .9 2 2v4c0 3.3-2.7 6-6 6zm-62-8v2c0 1.1.9 2 2 2h60c1.1 0 2-.9 2-2v-2h-64z"/></g><path fill="#F9A9FF" d="M1183 356h-76c-1.1 0-2-.9-2-2s.9-2 2-2h76c1.1 0 2 .9 2 2s-.9 2-2 2z"/><path fill="#D83A39" d="M1179 352h-30c-1.1 0-2-.9-2-2s.9-2 2-2h30c1.1 0 2 .9 2 2s-.9 2-2 2z"/><path fill="#D83A39" d="M1179 352h-10c-1.1 0-2-.9-2-2s.9-2 2-2h10c1.1 0 2 .9 2 2s-.9 2-2 2zM1121 352h-10c-1.1 0-2-.9-2-2s.9-2 2-2h10c1.1 0 2 .9 2 2s-.9 2-2 2z"/><path fill="#D83A39" d="M1141 352h-30c-1.1 0-2-.9-2-2s.9-2 2-2h30c1.1 0 2 .9 2 2s-.9 2-2 2z"/><path fill="#7AE000" d="M1114.6 348c-.3 0-.6-.1-.9-.2l-7.6-4c-1-.5-1.4-1.7-.8-2.7.5-1 1.7-1.4 2.7-.8l6.7 3.5 6.7-3.5c.6-.3 1.3-.3 1.9 0l6.7 3.5 6.7-3.5c.6-.3 1.3-.3 1.9 0l6.7 3.5 6.7-3.5c.6-.3 1.3-.3 1.9 0l6.7 3.5 6.7-3.5c.6-.3 1.3-.3 1.9 0l6.7 3.5 6.7-3.5c1-.5 2.2-.1 2.7.8.5 1 .1 2.2-.8 2.7l-7.6 4c-.6.3-1.3.3-1.9 0l-6.7-3.5-6.7 3.5c-.6.3-1.3.3-1.9 0l-6.7-3.5-6.7 3.5c-.6.3-1.3.3-1.9 0l-6.7-3.5-6.7 3.5c-.6.3-1.3.3-1.9 0l-6.7-3.5-6.7 3.5c-.5.1-.8.2-1.1.2z"/><g fill="#AF654A"><path d="M1179 334c0-2.2-1.8-4-4-4h-60c-2.2 0-4 1.8-4 4v4h68v-4z"/><path d="M1179 340h-68c-1.1 0-2-.9-2-2v-4c0-3.3 2.7-6 6-6h60c3.3 0 6 2.7 6 6v4c0 1.1-.9 2-2 2zm-66-4h64v-2c0-1.1-.9-2-2-2h-60c-1.1 0-2 .9-2 2v2z"/></g><g fill="#EAEAEA"><path d="M1117 370h54v2h-54z"/><path d="M1171 374h-54c-1.1 0-2-.9-2-2v-2c0-1.1.9-2 2-2h54c1.1 0 2 .9 2 2v2c0 1.1-.9 2-2 2z"/></g><path opacity=".1" d="M1175 328h-4s2 2 2 6v6h6c1.1 0 2-.9 2-2v-4c0-3.3-2.7-6-6-6zM1179 356h-6v12h2c3.3 0 6-2.7 6-6v-4c0-1.1-.9-2-2-2z"/><path fill="#AAD8F1" d="M1325 486c-5.5 0-10.4-3.7-11.7-9.3l-32-138c-1.5-6.5 2.5-12.9 9-14.4s12.9 2.5 14.4 9l32 138c1.5 6.5-2.5 12.9-9 14.4-.9.2-1.8.3-2.7.3zM1249 486c-.5 0-.9 0-1.4-.1-6.6-.8-11.3-6.7-10.5-13.3l16-138c.8-6.6 6.7-11.3 13.3-10.5 6.6.8 11.3 6.7 10.5 13.3l-16 138c-.7 6.1-5.9 10.6-11.9 10.6z"/><g fill="#B82266"><path d="M1237 242h88v124h-88z"/><path d="M1325 242v124h-88V242h88m0-4h-88c-2.2 0-4 1.8-4 4v124c0 2.2 1.8 4 4 4h88c2.2 0 4-1.8 4-4V242c0-2.2-1.8-4-4-4z"/></g><g fill="#AAD8F1"><path d="M1325 356h-88v12c0 4.4 3.6 8 8 8h72c4.4 0 8-3.6 8-8v-12h-88 88z"/><path d="M1325 356h-88 88m0 0v12c0 4.4-3.6 8-8 8h-72c-4.4 0-8-3.6-8-8v-12h88m0-4h-88c-2.2 0-4 1.8-4 4v12c0 6.6 5.4 12 12 12h72c6.6 0 12-5.4 12-12v-12c0-2.2-1.8-4-4-4z"/></g><path fill="#AF654A" d="M1233 352h96v8h-96z"/><path opacity=".1" d="M1321 379.3c4.6-1.7 8-6.1 8-11.3v-82h-8v93.3zM1332.4 480c1.5-2.5 5-5.6 4.3-8.7l-21.2-91.3h-6.5l23.4 100zM1253 485.3c4.2-1.5 7.4-5.2 7.9-9.9L1272 380h-7l-12 105.3z"/><g fill="#333"><path d="M1697 479c0-5-3.6-8-8-8h-32c-4.4 0-8 3-8 8h48z"/><path d="M1698 480h-50v-1c0-5.3 3.7-9 9-9h32c5.3 0 9 3.7 9 9v1zm-47.9-2h45.9c-.4-3.6-3.1-6-6.9-6h-32c-3.9 0-6.6 2.4-7 6z"/></g><g fill="#333"><path d="M1659 404h28v68h-28z"/><path d="M1689 474h-32v-72h32v72zm-28-4h24v-64h-24v64z"/></g><g fill="#333"><path d="M1659 404c-4.4 0-8-3.6-8-8s3.6-8 8-8h28c4.4 0 8 3.6 8 8s-3.6 8-8 8h-28z"/><path d="M1687 406h-28c-5.5 0-10-4.5-10-10s4.5-10 10-10h28c5.5 0 10 4.5 10 10s-4.5 10-10 10zm-28-16c-3.3 0-6 2.7-6 6s2.7 6 6 6h28c3.3 0 6-2.7 6-6s-2.7-6-6-6h-28z"/></g><g fill="#333"><path d="M1667 292h12v96h-12z"/><path d="M1679 292v96h-12v-96h12m0-4h-12c-2.2 0-4 1.8-4 4v96c0 2.2 1.8 4 4 4h12c2.2 0 4-1.8 4-4v-96c0-2.2-1.8-4-4-4z"/></g><g fill="#333"><circle cx="1673" cy="292" r="8"/><path d="M1673 302c-5.5 0-10-4.5-10-10s4.5-10 10-10 10 4.5 10 10-4.5 10-10 10zm0-16c-3.3 0-6 2.7-6 6s2.7 6 6 6 6-2.7 6-6-2.7-6-6-6z"/></g><g fill="#333"><path d="M1671 120h4v169h-4z"/><path d="M1669 118h8v173h-8z"/></g><path fill="#333" d="M1689 120h-32c-1.9 0-3.5-1.3-3.9-3.2l-12-58c-.2-1.2.1-2.4.8-3.3.8-.9 1.9-1.5 3.1-1.5h56c1.2 0 2.3.5 3.1 1.5.8.9 1.1 2.2.8 3.3l-12 58c-.4 1.9-2 3.2-3.9 3.2zm-28.7-8h25.5l10.3-50h-46.2l10.4 50z"/><g fill="#333"><path d="M1649 58l24-16 24 16z"/><path d="M1697 60h-48c-.9 0-1.7-.6-1.9-1.4-.3-.8.1-1.8.8-2.2l24-16c.7-.4 1.5-.4 2.2 0l23.8 15.9c.6.3 1.1 1 1.1 1.8 0 1-.9 1.9-2 1.9zm-41.4-4h34.8L1673 44.4 1655.6 56z"/></g><g fill="#333"><circle cx="1673" cy="38" r="4"/><path d="M1673 44c-3.3 0-6-2.7-6-6s2.7-6 6-6 6 2.7 6 6-2.7 6-6 6zm0-8c-1.1 0-2 .9-2 2s.9 2 2 2 2-.9 2-2-.9-2-2-2z"/></g><g fill="#333"><path d="M1673 126V98M1673 131c-2.8 0-5-2.2-5-5V98c0-2.8 2.2-5 5-5s5 2.2 5 5v28c0 2.8-2.2 5-5 5z"/></g><g opacity=".4"><path fill="#FFF" d="M1657 116h32l12-58h-56z"/><path fill="#333" d="M1689 120h-32c-1.9 0-3.5-1.3-3.9-3.2l-12-58c-.2-1.2.1-2.4.8-3.3.8-.9 1.9-1.5 3.1-1.5h56c1.2 0 2.3.5 3.1 1.5.8.9 1.1 2.2.8 3.3l-12 58c-.4 1.9-2 3.2-3.9 3.2zm-28.7-8h25.5l10.3-50h-46.2l10.4 50z"/></g><path fill="#723610" d="M1572 384h-38l-.1-8h38zM1577 420c0-8.8-7.2-16-16-16h-16c-8.8 0-16 7.2-16 16 0 .4 0 .9.1 1.3 0 .2-.1.5-.1.7v46c0 6.6 5.4 12 12 12h24c6.6 0 12-5.4 12-12v-46c0-.2 0-.5-.1-.7.1-.4.1-.9.1-1.3z"/><path fill="#A6481B" d="M1553 376c-11 0-20 9-20 20s9 20 20 20 20-9 20-20-9-20-20-20z"/><path fill="#A6481B" d="M1553 376c-11 0-20 9-20 20s9 20 20 20 20-9 20-20-9-20-20-20z"/><path fill="#D83A39" d="M1553 424c9.1 0 17.2-4.4 22.3-11.1-.6-1.3-1.4-2.5-2.4-3.5-4.3 6.4-11.6 10.6-19.9 10.6s-15.6-4.2-19.9-10.6c-.9 1.1-1.8 2.2-2.4 3.5 5.1 6.7 13.2 11.1 22.3 11.1z"/><circle fill="#333" cx="1547" cy="390" r="2"/><path fill="#FF9CCD" d="M1557 400v8c0 2.2-1.8 4-4 4s-4-1.8-4-4v-8s4 0 4-4c0 4 4 4 4 4z"/><circle fill="#333" cx="1559" cy="390" r="2"/><ellipse fill="#333" cx="1553" cy="394" rx="4" ry="2"/><path fill="#333" d="M1549 401c-2.8 0-5-2.2-5-5 0-.6.4-1 1-1s1 .4 1 1c0 1.7 1.3 3 3 3s3-1.3 3-3c0-.6.4-1 1-1s1 .4 1 1c0 2.8-2.2 5-5 5z"/><path fill="#333" d="M1557 401c-2.8 0-5-2.2-5-5 0-.6.4-1 1-1s1 .4 1 1c0 1.7 1.3 3 3 3s3-1.3 3-3c0-.6.4-1 1-1s1 .4 1 1c0 2.8-2.2 5-5 5z"/><g fill="#723610"><path d="M1577 468c2.2 0 4 1.8 4 4s-1.8 4-4 4h-48c-2.2 0-4-1.8-4-4s1.8-4 4-4h48z"/><path d="M1577 480h-48c-4.4 0-8-3.6-8-8s3.6-8 8-8h48c4.4 0 8 3.6 8 8s-3.6 8-8 8zm0-8h-48 48z"/></g><circle fill="#FFDD92" cx="1553" cy="428" r="4"/><path fill="#FFDD92" d="M1553 426c-.6 0-1-.4-1-1v-4c0-.6.4-1 1-1s1 .4 1 1v4c0 .6-.4 1-1 1z"/><path fill="#A6481B" d="M1565 452c0-6.6-5.4-12-12-12s-12 5.4-12 12v28h24v-28z"/><path fill="#723610" d="M1573 464c-1 0-2-.4-2.8-1.2-1.6-1.6-1.6-4.1 0-5.7l12-12c1.6-1.6 4.1-1.6 5.7 0 1.6 1.6 1.6 4.1 0 5.7l-12 12c-.9.8-1.9 1.2-2.9 1.2zM1565 384c0-4.4 3.6-8 8-8s8 3.6 8 8v12c0 4.4-3.6 8-8 8s-8-3.6-8-8v-12zM1525 384c0-4.4 3.6-8 8-8s8 3.6 8 8v12c0 4.4-3.6 8-8 8s-8-3.6-8-8v-12z"/><circle fill="#B1846A" cx="1281" cy="170" r="42"/><circle fill="#B1846A" cx="1239" cy="170" r="6"/><circle fill="#B1846A" cx="1323" cy="170" r="6"/><path fill="#B1846A" d="M1239 163h9v7h-9zM1302 163h9v7h-9z"/><g fill="#333"><path d="M1261 112h32v32h-32z"/><path d="M1293 146h-32c-1.1 0-2-.9-2-2v-32c0-1.1.9-2 2-2h32c1.1 0 2 .9 2 2v32c0 1.1-.9 2-2 2zm-30-4h28v-28h-28v28z"/></g><path opacity=".1" d="M1281 128c-1.2 0-2.3.1-3.5.2 21.6 1.8 38.5 19.8 38.5 41.8 0 22-16.9 40.1-38.5 41.8 1.2.1 2.3.2 3.5.2 23.2 0 42-18.8 42-42s-18.8-42-42-42z"/><g fill="#333"><circle cx="1294.6" cy="141.1" r="9.8"/><path d="M1294.6 152.9c-6.5 0-11.8-5.3-11.8-11.8s5.3-11.8 11.8-11.8 11.8 5.3 11.8 11.8-5.2 11.8-11.8 11.8zm0-19.6c-4.3 0-7.8 3.5-7.8 7.8s3.5 7.8 7.8 7.8 7.8-3.5 7.8-7.8-3.5-7.8-7.8-7.8z"/></g><g fill="#333"><circle cx="1275" cy="141.1" r="9.8"/><path d="M1275 152.9c-6.5 0-11.8-5.3-11.8-11.8s5.3-11.8 11.8-11.8 11.8 5.3 11.8 11.8-5.3 11.8-11.8 11.8zm0-19.6c-4.3 0-7.8 3.5-7.8 7.8s3.5 7.8 7.8 7.8 7.8-3.5 7.8-7.8-3.5-7.8-7.8-7.8z"/></g><path fill="#333" d="M1251 146c-6.6 0-12 8.1-12 18 6.6 0 12-5.4 12-12v-6zM1311 146c6.6 0 12 8.1 12 18-6.6 0-12-5.4-12-12v-6z"/><g fill="#333"><circle cx="1257" cy="98" r="12"/><path d="M1257 112c-7.7 0-14-6.3-14-14s6.3-14 14-14 14 6.3 14 14-6.3 14-14 14zm0-24c-5.5 0-10 4.5-10 10s4.5 10 10 10 10-4.5 10-10-4.5-10-10-10z"/></g><g fill="#333"><circle cx="1281" cy="98" r="12"/><path d="M1281 112c-7.7 0-14-6.3-14-14s6.3-14 14-14 14 6.3 14 14-6.3 14-14 14zm0-24c-5.5 0-10 4.5-10 10s4.5 10 10 10 10-4.5 10-10-4.5-10-10-10z"/></g><g fill="#333"><circle cx="1305" cy="98" r="12"/><path d="M1305 112c-7.7 0-14-6.3-14-14s6.3-14 14-14 14 6.3 14 14-6.3 14-14 14zm0-24c-5.5 0-10 4.5-10 10s4.5 10 10 10 10-4.5 10-10-4.5-10-10-10z"/></g><g fill="#333"><circle cx="1257" cy="122" r="12"/><path d="M1257 136c-7.7 0-14-6.3-14-14s6.3-14 14-14 14 6.3 14 14-6.3 14-14 14zm0-24c-5.5 0-10 4.5-10 10s4.5 10 10 10 10-4.5 10-10-4.5-10-10-10z"/></g><g fill="#333"><circle cx="1281" cy="122" r="26"/><path d="M1281 150c-15.4 0-28-12.6-28-28s12.6-28 28-28 28 12.6 28 28-12.6 28-28 28zm0-52c-13.2 0-24 10.8-24 24s10.8 24 24 24 24-10.8 24-24-10.8-24-24-24z"/></g><g fill="#333"><circle cx="1305" cy="122" r="12"/><path d="M1305 136c-7.7 0-14-6.3-14-14s6.3-14 14-14 14 6.3 14 14-6.3 14-14 14zm0-24c-5.5 0-10 4.5-10 10s4.5 10 10 10 10-4.5 10-10-4.5-10-10-10z"/></g><g fill="#333"><circle cx="1257" cy="146" r="12"/><path d="M1257 160c-7.7 0-14-6.3-14-14s6.3-14 14-14 14 6.3 14 14-6.3 14-14 14zm0-24c-5.5 0-10 4.5-10 10s4.5 10 10 10 10-4.5 10-10-4.5-10-10-10z"/></g><g fill="#333"><circle cx="1281" cy="146" r="12"/><path d="M1281 160c-7.7 0-14-6.3-14-14s6.3-14 14-14 14 6.3 14 14-6.3 14-14 14zm0-24c-5.5 0-10 4.5-10 10s4.5 10 10 10 10-4.5 10-10-4.5-10-10-10z"/></g><g fill="#333"><circle cx="1305" cy="146" r="12"/><path d="M1305 160c-7.7 0-14-6.3-14-14s6.3-14 14-14 14 6.3 14 14-6.3 14-14 14zm0-24c-5.5 0-10 4.5-10 10s4.5 10 10 10 10-4.5 10-10-4.5-10-10-10z"/></g><g fill="#333"><path d="M1263 104h42v18h-42z"/><path d="M1305 124h-42c-1.1 0-2-.9-2-2v-18c0-1.1.9-2 2-2h42c1.1 0 2 .9 2 2v18c0 1.1-.9 2-2 2zm-40-4h38v-14h-38v14z"/></g><circle fill="#333" cx="1273" cy="176" r="3"/><circle fill="#333" cx="1289" cy="176" r="3"/><path fill="#333" d="M1291 169h-4c-1.1 0-2-.9-2-2s.9-2 2-2h4c1.1 0 2 .9 2 2s-.9 2-2 2zM1277 169.8c-.5 0-1.1-.2-1.5-.7-.3-.3-1.5-1.3-2.5-1.3-1.1 0-2.3 1.1-2.5 1.3-.7.8-2 .9-2.8.2-.8-.7-.9-2-.2-2.8.2-.3 2.5-2.7 5.5-2.7s5.2 2.4 5.5 2.7c.7.8.7 2.1-.2 2.8-.3.3-.8.5-1.3.5zM1285.5 192.9c-1.7 0-3.3-.8-4.1-1.6-2.1-2.1-5.4-5.5-6-6-.5-.4-.7-1-.5-1.7.3-.8 1.1-1.2 1.9-.9.4.1.5.2 6.6 6.4.4.4 2.2 1.6 4-.2l.2-.2c.3-.2.8-.8.8-1.2 0-.1 0-.2-.3-.5-.2-.2-1-.8-1.9-1.6-4.8-4-4.8-4-4.4-5.1.2-.6.8-1 1.4-1 .5 0 .9.2 1.2.6.4.4 2.5 2.2 3.8 3.2 1.1.9 1.7 1.5 2.1 1.8 1.1 1 1.2 2.1 1.1 2.9-.1 1.7-1.5 2.9-2 3.3-1.2 1.4-2.6 1.8-3.9 1.8zM1273.7 197.2c-5.9 0-10.7-7-10.9-7.3-.5-.7-.3-1.6.4-2.1s1.6-.3 2.1.4c1.1 1.7 4.9 6 8.4 6 .8 0 1.5.7 1.5 1.5s-.7 1.5-1.5 1.5z"/><path fill="#277964" d="M1245 224l-36 90"/><path fill="#7D0068" d="M1209 326c-1.5 0-3-.3-4.5-.9-6.2-2.5-9.1-9.4-6.7-15.6l36-90c2.5-6.2 9.4-9.1 15.6-6.7 6.2 2.5 9.1 9.4 6.7 15.6l-36 90c-1.8 4.7-6.3 7.6-11.1 7.6zM1352.7 326c-4.8 0-9.3-2.9-11.2-7.6l-35.7-90c-2.4-6.2.6-13.1 6.7-15.6s13.1.6 15.6 6.7l35.7 90c2.4 6.2-.6 13.1-6.7 15.6-1.4.6-2.9.9-4.4.9z"/><path opacity=".1" d="M1321 286h4v-54.1l-8-19.9-72 9v66c0 8.8 8.2 17 17 17h48c4.5 0 8.3-2.2 11-5.4V286z"/><path fill="#333" d="M1305 202h-48c-8.8 0-16 7.2-16 16v66c0 8.8 7.2 16 16 16h48c8.8 0 16-7.2 16-16v-66c0-8.8-7.2-16-16-16z"/><path fill="#B1846A" d="M1278.4 273.3c-1.2-1.2-3.1-1.2-4.2-.1-.9.9-4.6 2.6-9 4.4 0-1.2 0-2.7-.3-4.3.7-.5 1.5-1 2.4-1.6 4.4-2.9 9.9-6.7 11.1-7.8 1.2-1.2 1.2-3 0-4.2-1.1-1.2-3.1-1.2-4.2-.1-.9.9-6.4 4.6-11.3 7.8-.6-1.1-1.3-2.3-2.1-3.5 10.9-8.3 11.5-9.5 11.8-10 .8-1.4.4-3.3-1.1-4.1a3 3 0 0 0-4 .9c-.9.9-5.3 4.5-10.7 8.6-.8-.8-1.6-1.5-2.5-2.3 3.1-3.7 6-7.1 6.5-8.2.7-1.5.1-3.3-1.4-4-1.5-.7-3.3-.1-4 1.3-.7 1.1-5.9 7.3-10.9 13.1-1.2.5-2.4.9-3.4 1.1 0-3.7-.2-6.3-.2-6.5-.1-1.7-1.6-2.9-3.2-2.7-1.7.1-2.9 1.6-2.7 3.2 0 .1.3 3.9.1 8.7-.9 3.1-2.3 8.9-2.7 14.5 0 .4.1.9.3 1.2.1.1.8 1.2 2 2.6l-28.3 26.8c-2.4 2.3-2.5 6.1-.2 8.5 1.2 1.2 2.8 1.9 4.4 1.9 1.5 0 3-.5 4.1-1.6l29.4-27.9c2 .9 4.1 1.5 6.4 1.5 2.2 0 4.4-.6 6.5-1.7.1-.1.2-.1.3-.2l3.5-2.8c5.4-2 15-5.7 17.6-8.3 1.1-1.1 1.1-3 0-4.2zM1355.3 308.1l-28.3-26.8c1.2-1.4 1.9-2.5 2-2.6.2-.4.4-.8.3-1.2-.4-5.1-1.6-10.5-2.5-13.7-.3-5.4-.1-9.4-.1-9.4.1-1.7-1.1-3.1-2.8-3.2-1.6-.1-3.1 1.1-3.2 2.8 0 .2-.2 2.8-.1 6.5-1-.2-2.2-.6-3.5-1.1-5.1-5.8-10.3-12-10.9-13.1-.7-1.5-2.5-2.1-4-1.4-1.5.7-2.1 2.5-1.4 4 .5 1.1 3.3 4.5 6.5 8.2-.9.8-1.7 1.6-2.5 2.3-5.3-4.1-9.8-7.7-10.7-8.6a3 3 0 0 0-4-.9c-1.4.8-1.9 2.7-1.1 4.1.3.5 1 1.6 11.8 10-.8 1.2-1.5 2.4-2.1 3.5-4.9-3.2-10.4-7-11.3-7.8-1.2-1.2-3.1-1.2-4.2 0-1.2 1.2-1.2 3.1 0 4.2 1.2 1.2 6.7 4.9 11.1 7.8.9.6 1.7 1.1 2.4 1.6-.3 1.6-.4 3-.3 4.3-4.4-1.8-8-3.5-9-4.4-1.2-1.2-3.1-1.1-4.2.1-1.2 1.2-1.1 3.1.1 4.2 2.6 2.5 12.2 6.3 17.6 8.3l3.5 2.8c.1.1.2.1.3.2 2.1 1.1 4.2 1.7 6.5 1.7s4.4-.6 6.4-1.5l29.4 27.9c1.2 1.1 2.6 1.6 4.1 1.6 1.6 0 3.2-.6 4.4-1.9 2.4-2.4 2.3-6.2-.2-8.5z"/><path opacity=".1" d="M1259.7 283c-.3.1-.6.3-.8.5l-3.5 2.7c-3.1 1.7-6.5 1.7-10.1.1-1.1-.5-2.4-.3-3.3.5l-29.4 27.9c-1.2 1.1-3.1 1.1-4.2-.1-1-1-2.4-1.2-3.6-.6.2 1 .7 1.9 1.4 2.6 1.2 1.2 2.8 1.9 4.4 1.9 1.5 0 3-.5 4.1-1.6l29.4-27.9c2 .9 4.1 1.5 6.4 1.5 2.2 0 4.4-.6 6.5-1.7.1-.1.2-.1.3-.2l3.5-2.8c5.4-2 15-5.7 17.6-8.3 1.1-1.1 1.2-2.7.3-3.9l-2.4 1.8c-1.3 1.2-6.3 3.8-16.6 7.6zM1264.8 273.4c.7-.5 1.5-1 2.4-1.6 4.4-2.9 9.9-6.7 11.1-7.8 1.1-1.1 1.1-2.8.2-4l-2.3 1.8c-.2.2-1.7 1.5-10.6 7.5-.7.4-1.3.8-1.8 1.2 0 0 .9 1.6 1 2.9zM1260.7 264c10.9-8.3 11.5-9.5 11.8-10 .7-1.2.5-2.7-.5-3.7l-2.1 2.1c-.2.3-1.8 2-11.1 9.1.1.1 1.4 1.4 1.9 2.5zM1254.3 257.1c3.1-3.7 6-7.1 6.5-8.2.7-1.4.2-3-1-3.8l-1.7 2.5c-.1.2-.9 1.5-6.1 7.6 0-.1 1.7 1 2.3 1.9zM1351.2 315.5c-1.4 0-2.5 1-2.9 2.2.9.5 1.9.8 2.9.8 1.6 0 3.2-.6 4.4-1.9 2.3-2.4 2.2-6.2-.2-8.5l-28.3-26.8c1.2-1.4 1.9-2.5 2-2.6.2-.4.4-.8.3-1.2-.4-5.1-1.6-10.5-2.5-13.7-.3-5.4-.1-9.4-.1-9.4.1-1.7-1.1-3.1-2.8-3.2l-.2 3s-.3 4.2 0 9.8c0 .2 0 .4.1.6.9 3.3 2 8.2 2.4 12.8-.3.4-.8 1.1-1.6 2.1-1 1.2-.9 3 .2 4.1l28.3 26.8c.6.6.9 1.3.9 2.1s-.3 1.6-.8 2.1c-.5.6-1.2.9-2.1.9z"/><path opacity=".1" d="M1363.9 309.6l-35.7-90c-1.5-3.7-4.6-6.3-8.2-7.2.7 1.8 1 3.6 1 5.6v3.9l40.4 100.4c3.1-3.3 4.3-8.2 2.5-12.7z"/><path fill="#7D0068" d="M1209 326c-3.2 0-6.3-1.2-8.7-3.7-4.6-4.8-4.4-12.4.4-17l14.2-13.6c4.8-4.6 12.4-4.4 17 .4 4.6 4.8 4.4 12.4-.4 17l-14.2 13.6c-2.3 2.2-5.3 3.3-8.3 3.3zM1352.7 326c-3 0-6-1.1-8.3-3.3l-14.2-13.6c-4.8-4.6-5-12.2-.4-17 4.6-4.8 12.2-5 17-.4l14.2 13.6c4.8 4.6 5 12.2.4 17-2.4 2.5-5.5 3.7-8.7 3.7z"/><path opacity=".1" d="M1234.9 297.7c.9 4-.2 8.4-3.4 11.5l-14.2 13.6c-2.3 2.2-5.3 3.3-8.3 3.3-1.7 0-3.5-.4-5.1-1.1M1355.1 299.7l5.9 5.6c4.8 4.6 5 12.2.4 17-2.4 2.5-5.5 3.7-8.7 3.7-3 0-6-1.1-8.3-3.3 0 0 6.6-.7 10.6-8.7s.1-14.3.1-14.3z"/><path fill="#B82266" d="M1337 532c-5.3 0-10.2-3.6-11.6-9l-12-46c-1.7-6.4 2.2-13 8.6-14.6 6.4-1.7 13 2.2 14.6 8.6l12 46c1.7 6.4-2.2 13-8.6 14.6-1 .3-2 .4-3 .4z"/><path fill="#7D0068" d="M1241 532c-.7 0-1.4-.1-2.1-.2-6.5-1.1-10.9-7.3-9.8-13.9l8-46c1.1-6.5 7.3-10.9 13.9-9.8 6.5 1.1 10.9 7.3 9.8 13.9l-8 46c-1 5.9-6.1 10-11.8 10zM1337 532c-5.3 0-10.2-3.6-11.6-9l-12-46c-1.7-6.4 2.2-13 8.6-14.6 6.4-1.7 13 2.2 14.6 8.6l12 46c1.7 6.4-2.2 13-8.6 14.6-1 .3-2 .4-3 .4z"/><path fill="#7D0068" d="M1241 532c-.7 0-1.4-.1-2.1-.2-6.5-1.1-10.9-7.3-9.8-13.9l8-46c1.1-6.5 7.3-10.9 13.9-9.8 6.5 1.1 10.9 7.3 9.8 13.9l-8 46c-1 5.9-6.1 10-11.8 10z"/><path fill="#F6F6F6" d="M1337 536c-2.3 0-4.6-.7-6.6-2-5.5-3.7-7-11.1-3.3-16.6l16-24c3.7-5.5 11.1-7 16.6-3.3 5.5 3.7 7 11.1 3.3 16.6l-16 24c-2.3 3.4-6.1 5.3-10 5.3zM1241 536c-3.7 0-7.4-1.7-9.7-4.9l-16-22c-3.9-5.4-2.7-12.9 2.6-16.8 5.4-3.9 12.9-2.7 16.8 2.6l16 22c3.9 5.4 2.7 12.9-2.6 16.8-2.2 1.6-4.6 2.3-7.1 2.3z"/></svg>