<svg xmlns="http://www.w3.org/2000/svg" width="400" height="420" viewBox="0 0 400 420"><path fill="#F6F6F6" d="M224 56l-32-32H16v16h168l40 40z"/><path fill="#333" d="M192 24l32 32v24l-40-40H16V24h176m0-4H16c-2.2 0-4 1.8-4 4v16c0 2.2 1.8 4 4 4h166.3l38.8 38.8c.8.8 1.8 1.2 2.8 1.2a4.025 4.025 0 0 0 4-4V56c0-1.1-.4-2.1-1.2-2.8l-32-32c-.6-.8-1.6-1.2-2.7-1.2z"/><path fill="#46BCDF" d="M216 64c-1 0-2-.4-2.8-1.2L186.3 36H28c-2.2 0-4-1.8-4-4s1.8-4 4-4h160c1.1 0 2.1.4 2.8 1.2l28 28c1.6 1.6 1.6 4.1 0 5.7-.8.7-1.8 1.1-2.8 1.1z"/><path fill="#FF579C" d="M16 12h8v40h-8z"/><path fill="#333" d="M24 12v40h-8V12h8m4-4H12v48h16V8z"/><path fill="#FF579C" d="M4 4h8v56H4z"/><path fill="#333" d="M12 4v56H4V4h8m4-4H0v64h16V0z"/><path fill-rule="evenodd" clip-rule="evenodd" fill="#CCC" d="M100 332h296v8H100z"/><path fill="#333" d="M396 332v8H100v-8h296m0-4H100c-2.2 0-4 1.8-4 4v8c0 2.2 1.8 4 4 4h296c2.2 0 4-1.8 4-4v-8c0-2.2-1.8-4-4-4z"/><path fill-rule="evenodd" clip-rule="evenodd" fill="#CCC" d="M100 404h296v12H100z"/><path fill="#333" d="M396 404v12H100v-12h296m0-4H100c-2.2 0-4 1.8-4 4v12c0 2.2 1.8 4 4 4h296c2.2 0 4-1.8 4-4v-12c0-2.2-1.8-4-4-4z"/><path fill-rule="evenodd" clip-rule="evenodd" fill="#CCC" d="M96 340h16v64H96z"/><path fill="#333" d="M108 344v56h-8v-56h8m4-4H96v64h16v-64z"/><path fill-rule="evenodd" clip-rule="evenodd" fill="#CCC" d="M384 340h16v64h-16z"/><path fill="#333" d="M396 344v56h-8v-56h8m4-4h-16v64h16v-64z"/><path fill="#F6F6F6" d="M124 376c0 6.6 5.4 12 12 12s12-5.4 12-12v-84h-24v84z"/><path fill="#333" d="M148 292v84c0 6.6-5.4 12-12 12s-12-5.4-12-12v-84h24m0-4h-24c-2.2 0-4 1.8-4 4v84c0 8.8 7.2 16 16 16s16-7.2 16-16v-84c0-2.2-1.8-4-4-4z"/><path fill="#46BCDF" d="M128 296v80c0 4.4 3.6 8 8 8s8-3.6 8-8v-80h-16z"/><path opacity=".2" fill="#333" d="M140 360h4v4h-4zM140 336h4v4h-4zM140 312h4v4h-4zM136 348h8v4h-8zM136 324h8v4h-8zM136 300h8v4h-8zM136 372h8v4h-8z"/><path fill="#F6F6F6" d="M152 282h-32c-2.2 0-4 1.8-4 4s1.8 4 4 4h32c2.2 0 4-1.8 4-4s-1.8-4-4-4z"/><path fill="#333" d="M152 292h-32c-3.3 0-6-2.7-6-6s2.7-6 6-6h32c3.3 0 6 2.7 6 6s-2.7 6-6 6zm-32-8c-1.1 0-2 .9-2 2s.9 2 2 2h32c1.1 0 2-.9 2-2s-.9-2-2-2h-32z"/><path fill="#FF579C" d="M124 280l-4-12h32l-4 12z"/><path fill="#333" d="M152 268l-4 12h-24l-4-12h32m0-4h-32c-1.3 0-2.5.6-3.2 1.7-.8 1-1 2.4-.5 3.6l4 12c.5 1.6 2.1 2.7 3.8 2.7h24c1.7 0 3.3-1.1 3.8-2.7l4-12c.4-1.2.2-2.6-.5-3.6-.9-1.1-2.1-1.7-3.4-1.7z"/><path fill="#F6F6F6" d="M180 376c0 6.6 5.4 12 12 12s12-5.4 12-12v-84h-24v84z"/><path fill="#333" d="M204 292v84c0 6.6-5.4 12-12 12s-12-5.4-12-12v-84h24m0-4h-24c-2.2 0-4 1.8-4 4v84c0 8.8 7.2 16 16 16s16-7.2 16-16v-84c0-2.2-1.8-4-4-4z"/><path fill="#46BCDF" d="M184 296v80c0 4.4 3.6 8 8 8s8-3.6 8-8v-80h-16z"/><path opacity=".2" fill="#333" d="M196 360h4v4h-4zM196 336h4v4h-4zM196 312h4v4h-4zM192 348h8v4h-8zM192 324h8v4h-8zM192 300h8v4h-8zM192 372h8v4h-8z"/><path fill="#F6F6F6" d="M208 282h-32c-2.2 0-4 1.8-4 4s1.8 4 4 4h32c2.2 0 4-1.8 4-4s-1.8-4-4-4z"/><path fill="#333" d="M208 292h-32c-3.3 0-6-2.7-6-6s2.7-6 6-6h32c3.3 0 6 2.7 6 6s-2.7 6-6 6zm-32-8c-1.1 0-2 .9-2 2s.9 2 2 2h32c1.1 0 2-.9 2-2s-.9-2-2-2h-32z"/><g><path fill="#FF579C" d="M180 280l-4-12h32l-4 12z"/><path fill="#333" d="M208 268l-4 12h-24l-4-12h32m0-4h-32c-1.3 0-2.5.6-3.2 1.7-.8 1-1 2.4-.5 3.6l4 12c.5 1.6 2.1 2.7 3.8 2.7h24c1.7 0 3.2-1.1 3.8-2.7l4-12c.4-1.2.2-2.6-.5-3.6s-2.1-1.7-3.4-1.7z"/></g><g><path fill="#F6F6F6" d="M236 376c0 6.6 5.4 12 12 12s12-5.4 12-12v-84h-24v84z"/><path fill="#333" d="M260 292v84c0 6.6-5.4 12-12 12s-12-5.4-12-12v-84h24m0-4h-24c-2.2 0-4 1.8-4 4v84c0 8.8 7.2 16 16 16s16-7.2 16-16v-84c0-2.2-1.8-4-4-4z"/><path fill="#46BCDF" d="M240 296v80c0 4.4 3.6 8 8 8s8-3.6 8-8v-80h-16z"/><path opacity=".2" fill="#333" d="M252 360h4v4h-4zM252 336h4v4h-4zM252 312h4v4h-4zM248 348h8v4h-8zM248 324h8v4h-8zM248 300h8v4h-8zM248 372h8v4h-8z"/><path fill="#F6F6F6" d="M264 282h-32c-2.2 0-4 1.8-4 4s1.8 4 4 4h32c2.2 0 4-1.8 4-4s-1.8-4-4-4z"/><path fill="#333" d="M264 292h-32c-3.3 0-6-2.7-6-6s2.7-6 6-6h32c3.3 0 6 2.7 6 6s-2.7 6-6 6zm-32-8c-1.1 0-2 .9-2 2s.9 2 2 2h32c1.1 0 2-.9 2-2s-.9-2-2-2h-32z"/><g><path fill="#FF579C" d="M236 280l-4-12h32l-4 12z"/><path fill="#333" d="M264 268l-4 12h-24l-4-12h32m0-4h-32c-1.3 0-2.5.6-3.2 1.7s-1 2.4-.5 3.6l4 12c.5 1.6 2.1 2.7 3.8 2.7h24c1.7 0 3.2-1.1 3.8-2.7l4-12c.4-1.2.2-2.6-.5-3.6s-2.1-1.7-3.4-1.7z"/></g></g><g><path fill="#F6F6F6" d="M292 376c0 6.6 5.4 12 12 12s12-5.4 12-12v-84h-24v84z"/><path fill="#333" d="M316 292v84c0 6.6-5.4 12-12 12s-12-5.4-12-12v-84h24m0-4h-24c-2.2 0-4 1.8-4 4v84c0 8.8 7.2 16 16 16s16-7.2 16-16v-84c0-2.2-1.8-4-4-4z"/></g><g><path fill="#46BCDF" d="M312 345.8s-4-4-8 0-8 0-8 0V376c0 4.4 3.6 8 8 8s8-3.6 8-8v-30.2z"/></g><path opacity=".2" fill="#333" d="M308 360h4v4h-4zM308 336h4v4h-4zM308 312h4v4h-4zM304 348h8v4h-8zM304 324h8v4h-8zM304 300h8v4h-8zM304 372h8v4h-8z"/><g><path fill="#F6F6F6" d="M320 282h-32c-2.2 0-4 1.8-4 4s1.8 4 4 4h32c2.2 0 4-1.8 4-4s-1.8-4-4-4z"/><path fill="#333" d="M320 292h-32c-3.3 0-6-2.7-6-6s2.7-6 6-6h32c3.3 0 6 2.7 6 6s-2.7 6-6 6zm-32-8c-1.1 0-2 .9-2 2s.9 2 2 2h32c1.1 0 2-.9 2-2s-.9-2-2-2h-32z"/></g><g><path fill="#F6F6F6" d="M348 376c0 6.6 5.4 12 12 12s12-5.4 12-12v-84h-24v84z"/><path fill="#333" d="M372 292v84c0 6.6-5.4 12-12 12s-12-5.4-12-12v-84h24m0-4h-24c-2.2 0-4 1.8-4 4v84c0 8.8 7.2 16 16 16s16-7.2 16-16v-84c0-2.2-1.8-4-4-4z"/></g><path opacity=".2" fill="#333" d="M364 360h4v4h-4zM364 336h4v4h-4zM364 312h4v4h-4zM360 348h8v4h-8zM360 324h8v4h-8zM360 300h8v4h-8zM360 372h8v4h-8z"/><g><path fill="#F6F6F6" d="M376 282h-32c-2.2 0-4 1.8-4 4s1.8 4 4 4h32c2.2 0 4-1.8 4-4s-1.8-4-4-4z"/><path fill="#333" d="M376 292h-32c-3.3 0-6-2.7-6-6s2.7-6 6-6h32c3.3 0 6 2.7 6 6s-2.7 6-6 6zm-32-8c-1.1 0-2 .9-2 2s.9 2 2 2h32c1.1 0 2-.9 2-2s-.9-2-2-2h-32z"/></g><g><path fill="#676767" d="M191.098 54.905l19.798-19.798 19.8 19.798-19.8 19.8z"/><path fill="#333" d="M210.9 35.1l19.8 19.8-19.8 19.8-19.8-19.8 19.8-19.8m0-4c-1 0-2 .4-2.8 1.2l-19.8 19.8c-1.6 1.6-1.6 4.1 0 5.7l19.8 19.8c.8.8 1.8 1.2 2.8 1.2s2-.4 2.8-1.2l19.8-19.8c1.6-1.6 1.6-4.1 0-5.7l-19.8-19.8c-.7-.8-1.8-1.2-2.8-1.2z"/><path fill="#F6F6F6" d="M216.534 74.704l14.142-14.142 16.97 16.97-14.141 14.142z"/><path fill="#333" d="M230.7 60.6l17 17-14.1 14.1-17-17 14.1-14.1m0-4c-1 0-2 .4-2.8 1.2l-14.1 14.1c-.8.8-1.2 1.8-1.2 2.8s.4 2.1 1.2 2.8l17 17c.8.8 1.8 1.2 2.8 1.2s2-.4 2.8-1.2l14.1-14.1c.8-.8 1.2-1.8 1.2-2.8s-.4-2.1-1.2-2.8l-17-17c-.7-.8-1.8-1.2-2.8-1.2z"/><path fill="#F6F6F6" d="M295.8 131.3L300 144l-12.7-4.2-42.5-42.5 8.5-8.5z"/><path fill="#333" d="M253.3 88.8l42.4 42.4L300 144l-12.7-4.2-42.4-42.4 8.4-8.6m0-4c-1 0-2 .4-2.8 1.2l-8.5 8.5c-1.6 1.6-1.6 4.1 0 5.7l42.4 42.4c.4.4 1 .8 1.6 1l12.7 4.2c.4.1.8.2 1.3.2 1 0 2.1-.4 2.8-1.2 1.1-1.1 1.4-2.7 1-4.1l-4.2-12.7c-.2-.6-.5-1.1-1-1.6L256.2 86c-.8-.8-1.8-1.2-2.9-1.2z"/><g><path fill="#676767" d="M233.466 97.331l19.798-19.799 2.829 2.829-19.799 19.798z"/><path fill="#333" d="M253.3 77.5l2.8 2.8-19.8 19.8-2.8-2.8 19.8-19.8m0-4c-1 0-2 .4-2.8 1.2l-19.8 19.8c-1.6 1.6-1.6 4.1 0 5.7l2.8 2.8c.8.8 1.8 1.2 2.8 1.2s2-.4 2.8-1.2L259 83.2c.8-.8 1.2-1.8 1.2-2.8s-.4-2.1-1.2-2.8l-2.8-2.8c-.8-.9-1.8-1.3-2.9-1.3z"/></g><path fill="#46BCDF" d="M219.363 71.875l8.485-8.485 16.97 16.97-8.485 8.486zM294.3 138.3l-4.2-1.4-42.4-42.4 2.8-2.8 42.4 42.4z"/></g><g><path fill="#46BCDF" d="M304 156c-1.6 0-3.1 1-3.7 2.5-3.3 8.1-3.3 9.9-3.3 10.5 0 3.9 3.1 7 7 7s7-3.1 7-7c0-.6 0-2.4-3.3-10.5-.6-1.5-2.1-2.5-3.7-2.5z"/></g><g><path fill="#46BCDF" d="M304 192c-1.6 0-3.1 1-3.7 2.5-1.9 4.6-6.3 15.8-6.3 19.5 0 5.5 4.5 10 10 10s10-4.5 10-10c0-3.7-4.4-14.9-6.3-19.5-.6-1.5-2.1-2.5-3.7-2.5z"/></g></svg>