<svg xmlns="http://www.w3.org/2000/svg" width="24" height="21" viewBox="0 0 24 21"><path fill="#2AA9E0" d="M24.029 3.32c-.882.391-1.829.655-2.824.774 1.016-.608 1.795-1.572 2.162-2.72-.95.563-2.003.973-3.122 1.192-.896-.955-2.175-1.552-3.589-1.552-2.715 0-4.917 2.202-4.917 4.917 0 .385.044.761.128 1.121-4.087-.205-7.709-2.163-10.134-5.137-.423.726-.666 1.57-.666 2.471 0 1.706.868 3.21 2.188 4.093-.806-.026-1.565-.247-2.228-.615v.062c0 2.382 1.695 4.369 3.944 4.821-.413.111-.847.172-1.295.172-.317 0-.625-.03-.925-.088.625 1.953 2.442 3.375 4.593 3.414-1.683 1.319-3.802 2.104-6.106 2.104-.396 0-.788-.023-1.173-.068 2.176 1.396 4.76 2.209 7.537 2.209 9.043 0 13.989-7.492 13.989-13.989l-.015-.636c.96-.693 1.794-1.559 2.453-2.545z"/></svg>