<?xml version="1.0" standalone="no"?> <!DOCTYPE svg PUBLIC "-//W3C//DTD SVG 1.0//EN" "http://www.w3.org/TR/2001/REC-SVG-20010904/DTD/svg10.dtd" > <svg xmlns="http://www.w3.org/2000/svg" width="100%" height="100%">
<defs >
<font id="GuardianAgateSans1Web-RegularItalic" horiz-adv-x="491" ><font-face
    font-family="GuardianAgateSans1Web"
    units-per-em="1000"
    panose-1="2 11 5 3 5 5 3 6 8 3"
    ascent="836"
    descent="-164"
    alphabetic="0" />
<missing-glyph horiz-adv-x="500" />
<glyph unicode=" " glyph-name="space" horiz-adv-x="216" />
<glyph unicode="!" glyph-name="exclam" horiz-adv-x="290" d="M156 691H255L169 223H104L156 691ZM73 103H172L158 0H59L73 103Z" />
<glyph unicode="&quot;" glyph-name="quotedbl" horiz-adv-x="435" d="M142 692H231L187 442H126L142 692ZM309 692H397L351 442H290L309 692Z" />
<glyph unicode="#" glyph-name="numbersign" horiz-adv-x="550" d="M84 501H185Q186 512 188 529T195 567L221 692H292L266 567Q261 544 256 526T247 498H370Q372 509 374 527T381 567L407 692H478L452 567Q447 546 443 529T434 501H516L505 422H415Q416 411 415
398T411 368L405 341Q401 324 397 308T388 281H477L466 202H369Q368 190 366 172T359 133L330 0H259L288 133Q293 154 298 174T307 205H183Q182 194 180 174T173 133L144 0H73L102 133Q107 153 111 171T120 202H33L44 281H136Q138 292 140 307T145 339L150 366Q152
380 156 395T166 422H73L84 501ZM339 366Q342 383 346 400T355 428H231Q230 417 228 402T222 368L216 341Q212 322 207 304T198 275H323Q325 286 327 303T334 339L339 366Z" />
<glyph unicode="$" glyph-name="dollar" horiz-adv-x="550" d="M133 -73Q139 -53 147 -29T163 14Q122 22 93 35T44 61L54 130Q78 117 110 105T183 85L199 152L225 252Q230 269 236 289T250 326L230 338Q117 403 117 505Q117 551 133 586T178 644T245 679T326 691Q334
691 341 691T357 689Q359 703 362 717T369 744L374 765H439L434 744Q430 730 424 713T411 680Q443 672 464 661T500 639L490 569Q472 580 448 591T391 610Q388 594 385 578T377 549L351 458L325 381L338 374Q401 341 433 299T465 199Q465 149 447 113T399 53T331
18T250 6Q241 6 233 6T217 7Q214 -11 209 -33T199 -74L186 -117H120L133 -73ZM375 190Q375 225 358 248T301 296Q298 281 295 265T287 234L263 146Q258 130 252 112T240 79H253Q277 79 299 85T338 104T365 138T375 190ZM202 513Q202 481 217 456T275 407Q278 424
282 441T291 475L313 556Q317 570 322 586T334 618H320Q297 618 276 613T239 596T212 564T202 513Z" />
<glyph unicode="%" glyph-name="percent" horiz-adv-x="700" d="M347 362L626 692H714L373 329L97 0H10L347 362ZM195 371Q165 371 141 381T100 410T76 458T74 522L80 564Q90 631 128 668T229 705Q292 705 325 665T349 555L343 513Q333 442 293 407T195 371ZM197
419Q232 419 250 442T275 514L281 556Q287 598 276 628T226 658Q190 658 173 635T148 563L142 521Q136 476 147 448T197 419ZM494 -12Q464 -12 440 -2T399 27T375 75T373 139L379 181Q389 248 427 285T528 322Q591 322 624 282T648 172L642 130Q632 59 592 24T494
-12ZM496 36Q531 36 549 59T574 131L580 173Q586 215 575 245T525 275Q489 275 472 252T447 180L441 138Q435 93 446 65T496 36Z" />
<glyph unicode="&amp;" glyph-name="ampersand" horiz-adv-x="616" d="M228 -12Q139 -12 90 34T40 165Q40 252 81 306T195 392Q174 423 162 455T150 523Q150 570 166 604T208 660T266 694T328 705Q369 705 399 693T450 661T481 615T491 558Q491 413 318 346Q329
336 341 322T367 287L400 233Q411 214 420 196T435 161Q489 239 502 364H583Q573 279 547 218T476 111L550 0H450Q435 20 424 40T406 75Q365 25 319 7T228 -12ZM243 56Q281 56 315 70T379 114Q369 125 357 141T330 180L271 277Q255 303 245 322T230 356Q176 321
155 276T134 167Q134 114 160 85T243 56ZM237 523Q237 491 249 457T287 383Q354 419 378 462T403 553Q403 588 385 611T330 635Q289 635 263 606T237 523Z" />
<glyph unicode="&apos;" glyph-name="quotesingle" horiz-adv-x="277" d="M146 692H235L191 442H130L146 692Z" />
<glyph unicode="(" glyph-name="parenleft" horiz-adv-x="363" d="M203 -151Q174 -118 150 -77T107 12T79 113T69 224Q69 310 90 386T148 528T232 647T332 739H417Q368 696 323 644T242 527T185 385T163 215Q163 156 172 103T197 4T234 -81T278 -151H203Z" />
<glyph unicode=")" glyph-name="parenright" horiz-adv-x="363" d="M-40 -151Q9 -108 54 -56T135 61T192 203T214 373Q214 432 205 485T180 584T143 669T99 739H174Q202 706 226 665T269 576T297 475T308 364Q308 278 287 202T229 60T145 -59T45 -151H-40Z" />
<glyph unicode="*" glyph-name="asterisk" horiz-adv-x="552" d="M289 451L117 337L83 418L280 473L103 555L158 628L295 491L292 692H382L322 489L496 605L530 524L331 469L510 387L455 314L316 449L320 250H230L289 451Z" />
<glyph unicode="+" glyph-name="plus" horiz-adv-x="550" d="M218 229Q220 241 222 255T228 281Q232 295 235 310H68L78 384H245Q245 398 246 412Q247 424 248 438T251 465L265 565H347L333 465Q331 453 328 439T323 412Q319 398 317 384H484L474 310H307Q306
295 305 281Q304 269 303 255T300 229L286 129H204L218 229Z" />
<glyph unicode="," glyph-name="comma" horiz-adv-x="277" d="M-9 -138Q6 -111 17 -87T38 -35T54 25T67 103H167Q156 21 127 -36T57 -138H-9Z" />
<glyph unicode="-" glyph-name="hyphen" horiz-adv-x="395" d="M83 317H330L318 238H71L83 317Z" />
<glyph unicode="." glyph-name="period" horiz-adv-x="277" d="M67 103H166L152 0H53L67 103Z" />
<glyph unicode="/" glyph-name="slash" horiz-adv-x="409" d="M360 733H441L45 -149H-36L360 733Z" />
<glyph unicode="0" glyph-name="zero" horiz-adv-x="550" d="M238 -12Q145 -12 93 46T41 226Q41 249 43 274T49 326L59 394Q71 479 96 538T156 635T230 688T314 705Q410 705 460 645T510 465Q510 442 508 416T502 362L492 294Q480 209 456 151T400 56T326 4T238
-12ZM240 58Q275 58 301 71T346 113T379 187T402 299L412 369Q421 430 421 478Q421 556 395 596T311 636Q246 636 207 580T149 392L139 322Q130 262 130 215Q130 136 156 97T240 58Z" />
<glyph unicode="1" glyph-name="one" horiz-adv-x="550" d="M76 60H211Q212 75 213 90Q214 103 215 117T219 144L283 601Q273 598 261 595Q250 593 237 590T206 584L146 575L153 626L348 699H385L307 144Q305 131 303 117T297 90Q293 75 290 60H425L417 0H68L76 60Z" />
<glyph unicode="2" glyph-name="two" horiz-adv-x="550" d="M24 64L198 223Q246 267 281 304T338 377T372 445T383 515Q383 578 350 605T250 633Q215 633 180 626T115 608L124 670Q152 684 192 694T278 705Q369 705 421 658T473 518Q473 476 460 438T420 360T353
279T257 187L237 169Q214 148 192 131T153 102Q133 88 115 76V71H427L417 0H15L24 64Z" />
<glyph unicode="3" glyph-name="three" horiz-adv-x="550" d="M209 -12Q172 -12 144 -8T95 4T56 20T25 38L34 101Q66 87 105 75T201 62Q270 62 313 99T357 206Q357 261 326 294T225 327H169L179 398H226Q306 398 343 434T381 530Q381 633 253 633Q221 633 192
628T133 614L142 675Q177 691 215 698T284 705Q375 705 423 661T471 542Q471 473 428 427T302 369V359Q370 348 408 310T447 202Q447 155 430 116T382 49T307 4T209 -12Z" />
<glyph unicode="4" glyph-name="four" horiz-adv-x="550" d="M298 101Q300 112 302 126T307 153Q310 167 314 181H21L32 256L370 692H467L416 329Q414 318 412 304T407 278Q404 264 401 250H503L493 181H391Q390 167 389 153Q388 141 387 127T384 101L370 0H284L298
101ZM324 249Q325 263 326 277Q327 289 328 303T331 329L353 483Q355 500 359 521T368 560Q372 581 377 603H363Q349 580 333 556Q319 536 303 512T270 464L180 343Q168 327 155 312T130 286L105 261V249H324Z" />
<glyph unicode="5" glyph-name="five" horiz-adv-x="550" d="M208 -12Q140 -12 99 5T32 43L41 107Q68 89 108 76T201 62Q274 62 316 105T359 239Q359 299 329 331T224 363Q199 363 173 357T126 344H103L175 692H490L480 621H229Q229 613 228 603Q226 585 222 563L209
495Q201 458 192 435Q187 422 181 411H191Q208 419 230 423T273 428Q317 428 350 415T406 377T440 318T452 243Q452 185 435 138T386 58T309 6T208 -12Z" />
<glyph unicode="6" glyph-name="six" horiz-adv-x="550" d="M254 -12Q152 -12 103 46T54 219Q54 268 63 327L67 353Q83 460 116 528T190 636T278 690T368 705Q398 705 420 702T457 693T484 682T505 668L497 608Q480 615 453 623T376 631Q343 631 312 622T252 586T201
510T160 382H170Q200 402 233 416T310 431Q396 431 436 381T477 248Q477 197 463 150T420 67T350 10T254 -12ZM255 55Q322 55 355 107T389 245Q389 308 361 336T270 365Q238 365 210 357T152 330Q151 322 150 317Q149 312 149 308T148 303Q145 279 143 256T141
213Q141 141 166 98T255 55Z" />
<glyph unicode="7" glyph-name="seven" horiz-adv-x="550" d="M364 511Q376 533 389 551T413 583Q425 599 438 611L439 621H106L116 692H518L507 614L166 0H73L364 511Z" />
<glyph unicode="8" glyph-name="eight" horiz-adv-x="550" d="M243 -12Q189 -12 149 1T83 39T44 97T31 169Q31 208 46 239T84 293T137 333T194 358V367Q173 380 155 394T125 427T105 467T97 518Q97 561 113 595T157 654T222 692T300 705Q348 705 384 693T446 660T484
609T497 545Q497 507 485 478T451 426T404 389T349 364V354Q375 340 398 325T437 290T463 245T473 185Q473 142 458 106T412 44T340 3T243 -12ZM242 55Q316 55 349 90T382 181Q382 211 372 233T345 273T303 305T248 335Q224 326 200 312T157 277T125 231T113 174Q113
120 144 88T242 55ZM292 385Q344 406 378 443T412 538Q412 559 406 577T387 609T351 631T298 639Q275 639 255 632T218 610T193 573T184 523Q184 476 215 444T292 385Z" />
<glyph unicode="9" glyph-name="nine" horiz-adv-x="550" d="M181 -12Q122 -12 89 2T36 29L44 90Q62 82 93 72T171 61Q207 61 240 70T303 107T355 182T392 310H382Q352 288 321 275T246 262Q202 262 170 275T116 313T85 371T74 443Q74 497 89 545T133 628T203
684T297 705Q392 705 446 650T500 474Q500 425 491 367L487 341Q470 231 439 162T368 55T279 2T181 -12ZM282 327Q316 327 344 337T399 363Q400 370 401 376Q402 381 402 385T403 390Q407 415 408 438T410 482Q410 554 385 595T296 636Q262 636 237 622T196 581T171
520T162 443Q162 386 189 357T282 327Z" />
<glyph unicode=":" glyph-name="colon" horiz-adv-x="297" d="M124 431H223L208 328H109L124 431ZM77 103H176L162 0H63L77 103Z" />
<glyph unicode=";" glyph-name="semicolon" horiz-adv-x="297" d="M1 -138Q16 -111 27 -87T48 -35T64 25T77 103H176Q165 21 136 -36T67 -138H1ZM124 431H223L208 328H109L124 431Z" />
<glyph unicode="&lt;" glyph-name="less" horiz-adv-x="550" d="M67 303L77 374L500 568L489 487L280 394Q256 383 230 374T181 356L130 339V331Q152 323 175 314Q195 306 218 297T263 277L446 185L435 109L67 303Z" />
<glyph unicode="=" glyph-name="equal" horiz-adv-x="550" d="M89 461H495L484 387H78L89 461ZM59 251H465L454 177H48L59 251Z" />
<glyph unicode="&gt;" glyph-name="greater" horiz-adv-x="550" d="M61 190L270 283Q294 294 320 303T369 321Q395 330 420 338V346Q397 353 374 362Q354 370 331 379T287 400L104 492L115 568L483 374L473 303L50 109L61 190Z" />
<glyph unicode="?" glyph-name="question" horiz-adv-x="416" d="M120 284Q124 311 131 330T150 364T178 391T216 418Q235 430 253 443T285 471T307 506T316 551Q316 593 289 612T202 631Q177 631 151 627T92 611L101 676Q135 691 167 698T237 705Q312 705 360
670T408 560Q408 524 399 498T375 452T337 416T290 381Q264 363 247 351T219 327T202 304T194 277L186 223H111L120 284ZM81 103H180L166 0H67L81 103Z" />
<glyph unicode="@" glyph-name="at" horiz-adv-x="831" d="M576 -13Q535 -13 512 3T483 49H473Q448 20 420 4T352 -12Q330 -12 310 -4T273 23T246 69T236 139Q236 191 248 238T284 322T342 379T422 401Q458 401 480 388T513 362H523L540 393H596L545 107Q533 40
585 40Q639 40 674 102T709 278Q709 336 694 384T647 468T564 524T442 544Q366 544 307 515T208 434T146 314T124 165Q124 113 133 75T156 -4H100Q80 32 68 77T55 177Q55 263 83 340T162 474T285 566T445 600Q520 600 581 578T685 514T751 413T775 280Q775 211
761 157T721 65T658 7T576 -13ZM380 45Q410 45 432 59T479 97Q478 110 479 128Q480 143 482 165T489 216L506 311Q496 325 477 335T426 346Q397 346 377 330T342 285T322 218T315 135Q315 90 330 68T380 45Z" />
<glyph unicode="A" glyph-name="A" horiz-adv-x="571" d="M298 692H397L515 0H422L406 98Q402 119 401 145T397 192H153Q146 172 137 147T117 99L73 0H-14L298 692ZM223 340Q215 321 205 300T184 261H387Q382 278 377 299T370 341L354 455Q350 481 348 509T343
563Q341 592 340 620H330Q322 593 313 565Q305 541 295 513T274 459L223 340Z" />
<glyph unicode="B" glyph-name="B" horiz-adv-x="546" d="M146 692H332Q378 692 411 681T467 650T499 603T510 541Q510 505 504 477T482 426T440 389T373 365V355Q433 343 461 310T490 218Q490 173 478 134T437 65T365 18T257 0H49L146 692ZM256 71Q331 71 366
109T401 221Q401 326 282 326H176Q175 312 174 297Q173 284 173 270T170 244L157 151Q155 139 153 125T147 99L140 71H256ZM281 389Q350 389 386 420T422 527Q422 574 398 597T318 621H217Q217 607 216 593Q215 581 215 567T212 541L202 470Q200 458 198 444T192
418Q188 404 185 389H281Z" />
<glyph unicode="C" glyph-name="C" horiz-adv-x="536" d="M306 -12Q179 -12 118 55T57 248Q57 274 59 302T67 360L71 384Q87 483 118 545T189 643T277 692T373 705Q426 705 468 695T537 670L526 592Q491 610 456 619T368 629Q333 629 301 619T242 582T195 507T162
381L158 355Q153 323 151 295T148 241Q148 153 186 109T317 65Q359 65 398 74T470 99L458 20Q426 3 386 -4T306 -12Z" />
<glyph unicode="D" glyph-name="D" horiz-adv-x="606" d="M146 692H303Q374 692 425 678T509 634T558 557T574 442Q574 401 568 350L564 316Q544 149 460 75T235 0H49L146 692ZM237 71Q282 71 321 80T390 117T441 192T472 318L476 349Q480 380 482 405T484 454Q484
506 473 538T437 589T376 613T288 620H219Q219 605 218 590Q217 577 216 563T213 535L160 156Q158 143 155 129T149 101Q145 86 142 71H237Z" />
<glyph unicode="E" glyph-name="E" horiz-adv-x="521" d="M146 692H515L505 619H219Q219 605 218 591Q217 579 217 565T214 540L205 475Q203 463 201 450T195 424L188 396H409L398 323H177Q177 309 176 295Q175 283 175 269T172 244L159 152Q157 140 155 127T149
101L142 73H429L419 0H49L146 692Z" />
<glyph unicode="F" glyph-name="F" horiz-adv-x="484" d="M146 692H503L493 619H220Q219 604 218 590Q217 578 217 564T214 539L202 457Q200 445 197 431T192 405Q188 391 186 377H388L378 304H176Q175 282 173 264Q171 249 170 236T169 221L138 0H49L146 692Z" />
<glyph unicode="G" glyph-name="G" horiz-adv-x="609" d="M325 -12Q188 -12 124 53T59 252Q59 302 68 362L72 388Q86 479 117 540T190 638T284 690T391 705Q430 705 458 701T506 690T540 676T565 661L554 582Q543 589 529 597T495 613T449 626T387 631Q293 631
240 573T164 383L160 359Q150 303 150 251Q150 160 190 110T323 59Q333 59 347 60T377 63T407 68T433 75Q432 83 432 94Q432 103 432 115T435 141L443 205Q445 217 447 230T453 255Q457 268 460 280H325L335 352H548L503 23Q463 6 415 -3T325 -12Z" />
<glyph unicode="H" glyph-name="H" horiz-adv-x="629" d="M146 692H235L206 487Q201 456 195 427Q191 410 187 394H480Q481 410 482 427Q483 441 484 457T487 487L516 692H605L508 0H419L451 228Q453 242 456 258T462 288Q466 305 470 321H177Q176 305 175 288Q174
274 173 258T170 228L138 0H49L146 692Z" />
<glyph unicode="I" glyph-name="I" horiz-adv-x="285" d="M159 692H248L151 0H62L159 692Z" />
<glyph unicode="J" glyph-name="J" horiz-adv-x="419" d="M136 -11Q92 -11 63 -3T8 21L18 89Q36 81 63 73T131 65Q168 65 197 85T234 157L309 692H397L321 147Q311 78 264 34T136 -11Z" />
<glyph unicode="K" glyph-name="K" horiz-adv-x="562" d="M217 351L488 692H587L406 468Q391 449 373 429T339 391Q321 371 302 351Q315 332 328 312Q339 295 351 275T373 235L496 0H400L217 351ZM145 692H235L202 458Q199 439 196 420T189 385Q185 367 182 349Q181
331 179 312Q177 295 175 276T171 238L138 0H48L145 692Z" />
<glyph unicode="L" glyph-name="L" horiz-adv-x="482" d="M146 692H235L161 166Q159 150 156 134T149 104Q145 88 142 73H413L403 0H49L146 692Z" />
<glyph unicode="M" glyph-name="M" horiz-adv-x="756" d="M146 692H280L334 264Q338 235 340 201T344 137Q346 102 346 67H356Q365 102 376 137Q385 167 396 201T420 264L595 692H731L634 0H548L609 433Q613 460 618 493T629 555Q635 588 642 622H632Q618 580
604 540Q592 505 578 466T550 394L388 0H286L235 393Q230 425 228 465T223 540Q220 580 219 622H208Q206 588 202 555Q199 526 196 493T188 433L127 0H49L146 692Z" />
<glyph unicode="N" glyph-name="N" horiz-adv-x="624" d="M146 692H248L381 334Q390 309 400 276T419 210Q429 173 438 135H448Q450 168 453 201Q455 228 458 258T465 308L519 692H599L502 0H411L273 389Q264 413 254 446T235 510Q224 545 215 583H204Q202 551
199 520Q197 494 194 465T188 416L129 0H49L146 692Z" />
<glyph unicode="O" glyph-name="O" horiz-adv-x="636" d="M298 -12Q180 -12 118 52T55 250Q55 273 57 298T63 351L67 378Q80 468 107 530T173 631T260 687T362 705Q479 705 542 640T606 440Q606 417 604 393T598 342L594 315Q580 221 552 159T485 58T399 4T298
-12ZM301 60Q339 60 370 72T427 113T470 192T499 315L503 343Q512 406 512 455Q512 545 477 589T361 633Q320 633 288 620T230 577T188 498T160 378L156 350Q147 287 147 238Q147 151 181 106T301 60Z" />
<glyph unicode="P" glyph-name="P" horiz-adv-x="526" d="M146 692H331Q383 692 419 678T478 640T511 582T522 512Q522 450 504 405T454 330T379 287T286 273H170Q170 258 169 243Q168 230 167 215T164 188L138 0H49L146 692ZM281 344Q354 344 392 382T430 513Q430
568 403 594T319 620H219Q219 606 218 591Q217 578 217 564T214 538L198 425Q196 413 193 399T187 373Q183 359 180 344H281Z" />
<glyph unicode="Q" glyph-name="Q" horiz-adv-x="636" d="M231 -15Q191 1 159 20T103 69T67 139T54 241Q54 289 63 351L67 378Q80 468 107 530T173 631T260 687T362 705Q479 705 542 640T606 440Q606 417 604 393T598 342L594 315Q582 231 559 177T505 89T437
40T358 15V5L626 -73L591 -156L231 -15ZM301 56Q339 56 370 69T427 112T470 191T499 315L503 343Q512 406 512 455Q512 545 477 589T361 633Q320 633 288 620T230 577T188 498T160 378L156 350Q147 287 147 237Q147 149 181 103T301 56Z" />
<glyph unicode="R" glyph-name="R" horiz-adv-x="569" d="M146 692H333Q430 692 478 644T527 515Q527 432 488 386T375 320L374 310Q380 299 387 285Q399 261 413 222L489 0H397L301 291H173Q173 276 172 261Q171 248 170 234T167 207L138 0H49L146 692ZM293 360Q365
360 400 397T436 515Q436 564 411 592T325 620H219Q219 605 218 591Q217 579 217 565T214 540L200 440Q198 428 196 414T190 388L183 360H293Z" />
<glyph unicode="S" glyph-name="S" horiz-adv-x="499" d="M219 -12Q153 -12 109 3T32 39L42 111Q80 90 123 77T216 64Q279 64 313 96T347 189Q347 230 327 255T263 305L207 336Q156 364 130 406T103 509Q103 549 115 584T154 647T218 689T310 705Q371 705 410
690T475 655L464 581Q437 600 402 614T313 629Q253 629 221 599T188 513Q188 478 205 453T262 405L318 374Q343 360 365 343T403 305T429 256T439 194Q439 150 425 112T383 47T314 4T219 -12Z" />
<glyph unicode="T" glyph-name="T" horiz-adv-x="527" d="M256 524Q258 538 261 554T267 585Q271 602 275 619H88L98 692H550L540 619H353Q352 602 351 585Q350 571 349 555T346 524L272 0H182L256 524Z" />
<glyph unicode="U" glyph-name="U" horiz-adv-x="619" d="M294 -12Q235 -12 194 2T126 42T88 104T75 183Q75 195 76 207T79 234L143 692H231L167 234Q165 220 164 208T163 185Q163 114 198 86T298 57Q325 57 349 63T394 86T428 135T449 216L515 692H597L530 209Q513
91 454 40T294 -12Z" />
<glyph unicode="V" glyph-name="V" horiz-adv-x="571" d="M87 692H179L242 254Q246 226 248 195T253 135Q255 102 256 70H266Q275 100 285 131Q293 157 304 188T326 246L517 692H606L298 0H197L87 692Z" />
<glyph unicode="W" glyph-name="W" horiz-adv-x="788" d="M89 692H177L196 319Q198 280 198 236T197 155Q196 111 195 69H204Q215 111 226 153Q236 189 247 230T271 306L404 692H505L531 317Q534 272 534 228T535 148Q535 107 534 69H544Q553 111 564 153Q573
189 584 230T607 306L736 692H821L584 0H469L447 369Q445 407 445 449T445 528Q446 569 448 610H439Q430 570 419 530Q410 495 399 456T376 382L246 0H131L89 692Z" />
<glyph unicode="X" glyph-name="X" horiz-adv-x="555" d="M230 353L108 692H202L261 521Q268 501 273 478T283 434Q287 409 291 385H301Q310 407 321 430Q330 450 341 471T363 512L473 692H568L353 353L482 0H388L323 186Q316 205 311 228T300 273Q295 298 291
322H281Q271 299 260 276Q250 256 238 234T215 193L95 0H0L230 353Z" />
<glyph unicode="Y" glyph-name="Y" horiz-adv-x="535" d="M227 266L86 692H179L234 516Q242 487 250 453T265 390Q272 356 279 321H289Q302 354 316 387Q328 416 343 448T374 507L480 692H572L318 267L280 0H190L227 266Z" />
<glyph unicode="Z" glyph-name="Z" horiz-adv-x="523" d="M18 67L340 509Q351 525 366 542T395 574Q411 591 426 608V619H121L131 692H533L524 625L203 183Q191 166 177 149T148 117Q132 100 116 84V73H436L426 0H10L18 67Z" />
<glyph unicode="[" glyph-name="bracketleft" horiz-adv-x="363" d="M153 739H386L377 677H226L118 -89H269L261 -151H28L153 739Z" />
<glyph unicode="\" glyph-name="backslash" horiz-adv-x="409" d="M103 733H179L330 -149H254L103 733Z" />
<glyph unicode="]" glyph-name="bracketright" horiz-adv-x="363" d="M-4 -89H147L255 677H104L113 739H346L221 -151H-12L-4 -89Z" />
<glyph unicode="^" glyph-name="asciicircum" horiz-adv-x="527" d="M281 693H368L480 362H396L364 461Q355 489 347 519T334 576Q327 606 322 635H312Q298 606 283 576Q270 550 255 520T222 461L163 362H77L281 693Z" />
<glyph unicode="_" glyph-name="underscore" horiz-adv-x="328" d="M-40 -74H296L286 -139H-50L-40 -74Z" />
<glyph unicode="`" glyph-name="grave" horiz-adv-x="450" d="M170 766H261L310 597H243L170 766Z" />
<glyph unicode="a" glyph-name="a" horiz-adv-x="466" d="M154 -12Q94 -12 60 23T25 122Q25 199 72 238T216 285L316 293L325 354Q333 410 307 431T226 452Q188 452 156 446T101 432L110 493Q139 504 177 513T264 523Q333 523 372 491T412 393Q412 385 412 377T410
360L360 0H297V58H287Q264 32 233 10T154 -12ZM184 49Q210 49 239 62T291 99L311 241L229 236Q171 232 141 207T110 129Q110 49 184 49Z" />
<glyph unicode="b" glyph-name="b" horiz-adv-x="514" d="M253 -12Q204 -12 174 6T126 48H117L98 0H37L138 719H223L199 549Q197 534 193 519T186 490Q182 475 178 461H188Q216 488 254 505T336 523Q365 523 390 515T434 486T463 432T474 349Q474 314 468 271L463
233Q454 167 436 121T390 45T329 2T253 -12ZM241 53Q266 53 287 61T326 89T355 145T375 233L381 278Q384 297 385 313T386 344Q386 406 362 429T290 452Q252 452 225 441T178 416L134 96Q151 78 175 66T241 53Z" />
<glyph unicode="c" glyph-name="c" horiz-adv-x="443" d="M237 -12Q137 -12 91 42T45 189Q45 203 46 218T49 250L54 287Q63 354 85 399T138 471T208 511T290 523Q337 523 366 511T421 482L411 417Q383 431 355 442T286 453Q259 453 236 445T193 418T161 367T141
289L135 245Q133 229 132 215T131 187Q131 120 159 89T247 58Q289 58 322 68T376 86L367 20Q347 9 312 -1T237 -12Z" />
<glyph unicode="d" glyph-name="d" horiz-adv-x="517" d="M191 -12Q160 -12 133 -2T85 31T52 89T40 172Q40 204 46 242L53 287Q63 353 84 398T133 470T196 510T269 523Q315 523 342 508T389 471H399V504Q399 518 400 535T403 567L424 719H509L408 0H344V56H334Q308
27 274 8T191 -12ZM223 57Q263 57 292 73T341 110L382 412Q368 429 343 441T276 454Q252 454 230 447T191 420T160 368T139 282L133 241Q127 202 127 173Q127 137 134 115T155 79T186 62T223 57Z" />
<glyph unicode="e" glyph-name="e" horiz-adv-x="473" d="M244 -12Q143 -12 92 40T40 186Q40 203 42 220T47 257L53 292Q71 398 125 460T269 523Q315 523 347 510T398 473T427 417T436 346Q436 312 430 276L424 238H127Q124 211 124 188Q124 149 133 124T161 83T205
62T267 56Q302 56 330 64T387 85L378 20Q358 9 325 -1T244 -12ZM268 457Q218 457 183 418T134 285Q150 288 178 292T235 296H351Q353 312 354 326T355 353Q355 406 335 431T268 457Z" />
<glyph unicode="f" glyph-name="f" horiz-adv-x="337" d="M119 364Q120 372 122 382T127 402Q130 413 132 423H50L60 490H142V509Q142 527 145 544L151 585Q157 624 171 650T207 693T255 717T312 725Q343 725 358 721T384 711L375 647Q366 649 353 651T317 654Q282
654 262 638T235 579L230 544Q227 527 222 509Q219 499 217 490H343L333 423H207V402Q207 393 206 383T204 364L135 -132H50L119 364Z" />
<glyph unicode="g" glyph-name="g" horiz-adv-x="514" d="M196 -172Q130 -172 90 -158T19 -123L28 -62Q55 -76 94 -88T189 -100Q242 -100 278 -77T321 1L323 18Q325 34 328 48T335 72Q339 83 343 93H334Q306 73 275 59T203 45Q170 45 142 54T92 85T59 140T47 223Q47
236 48 250T51 280L53 297Q60 357 79 399T125 469T185 508T254 520Q310 520 341 501T387 460H396L415 513H477L403 -10Q397 -51 379 -81T333 -132T270 -162T196 -172ZM238 108Q273 108 299 118T342 139L380 411Q363 427 337 438T267 450Q245 450 225 445T189 423T161
376T142 297L139 275Q137 260 136 247T135 221Q135 157 161 133T238 108Z" />
<glyph unicode="h" glyph-name="h" horiz-adv-x="517" d="M138 719H223L198 541Q196 525 192 508T184 475Q180 457 175 441H185Q220 479 261 501T352 523Q407 523 436 495T466 408Q466 390 463 371L411 0H326L377 365Q384 413 368 432T313 451Q274 451 241 436T178
397L122 0H37L138 719Z" />
<glyph unicode="i" glyph-name="i" horiz-adv-x="253" d="M120 513H205L133 0H48L120 513ZM142 708H237L225 618H130L142 708Z" />
<glyph unicode="j" glyph-name="j" horiz-adv-x="253" d="M-11 -170Q-42 -170 -61 -166T-98 -153L-89 -94Q-77 -96 -63 -98T-35 -100Q-2 -100 18 -84T46 -15L120 513H205L128 -31Q119 -94 86 -132T-11 -170ZM142 708H237L225 618H130L142 708Z" />
<glyph unicode="k" glyph-name="k" horiz-adv-x="474" d="M141 719H225L182 411Q178 386 175 361T167 315Q163 291 158 269Q157 247 154 223Q152 203 149 178T142 127L124 0H40L141 719ZM194 270L386 513H478L340 341Q328 327 316 314T292 292Q280 281 267 272Q275
261 285 248Q293 237 303 222T322 189L416 0H327L194 270Z" />
<glyph unicode="l" glyph-name="l" horiz-adv-x="268" d="M148 -7Q98 -7 73 18T56 96L143 719H228L141 102Q137 78 144 68T176 57Q184 57 197 58T222 62L214 5Q199 -1 180 -4T148 -7Z" />
<glyph unicode="m" glyph-name="m" horiz-adv-x="786" d="M109 513H179L176 445H186Q219 481 257 502T341 523Q384 523 408 502T443 438H453Q493 478 536 500T625 523Q679 523 707 495T735 409Q735 390 732 368L680 0H595L646 363Q653 411 637 430T579 449Q546
449 516 436T455 401Q455 395 455 388T452 366L401 0H316L365 349Q367 358 367 366T367 381Q367 418 352 434T304 450Q269 450 239 437T178 402L122 0H37L109 513Z" />
<glyph unicode="n" glyph-name="n" horiz-adv-x="517" d="M109 513H179L175 441H185Q220 479 261 501T352 523Q407 523 436 495T466 408Q466 390 463 371L411 0H326L377 365Q384 413 368 432T313 451Q274 451 241 436T178 397L122 0H37L109 513Z" />
<glyph unicode="o" glyph-name="o" horiz-adv-x="508" d="M228 -12Q136 -12 90 40T43 189Q43 203 44 218T47 250L52 287Q60 349 81 393T132 467T200 509T283 523Q373 523 419 472T465 324Q465 309 464 294T460 261L455 225Q446 161 426 116T377 43T310 1T228 -12ZM231
53Q291 53 322 94T368 223L375 268Q377 284 378 298T380 326Q380 395 352 426T276 458Q223 458 187 420T139 288L133 241Q131 225 130 212T129 185Q129 113 157 83T231 53Z" />
<glyph unicode="p" glyph-name="p" horiz-adv-x="514" d="M109 513H179L177 462L187 461Q215 488 253 505T336 523Q365 523 390 514T434 485T463 430T474 347Q474 312 468 269L464 240Q455 175 434 131T384 60T320 21T246 9Q198 9 172 22T130 55H121V46Q121 42
121 37T122 25Q122 12 121 -3T118 -35L99 -164H14L109 513ZM239 73Q261 73 282 80T322 106T355 157T376 241L381 276Q384 295 385 311T386 342Q386 404 362 428T290 452Q252 452 225 441T178 416L136 108Q156 93 177 83T239 73Z" />
<glyph unicode="q" glyph-name="q" horiz-adv-x="514" d="M318 -15Q320 1 323 15T330 40Q334 52 338 64L329 65Q300 42 268 25T187 8Q158 8 132 16T87 46T55 101T43 187Q43 221 49 263L53 291Q62 358 82 402T131 472T194 508T267 519Q291 519 310 514T343 500T369
481T388 460H397L415 513H477L382 -164H297L318 -15ZM219 77Q264 77 292 88T337 110L380 411Q363 427 339 439T272 452Q250 452 230 446T192 423T161 373T140 290L135 255Q132 236 131 220T130 189Q130 126 153 102T219 77Z" />
<glyph unicode="r" glyph-name="r" horiz-adv-x="358" d="M109 513H179L174 432H184Q221 474 265 496T363 519L351 436Q327 437 303 433T255 422T211 405T176 383L122 0H37L109 513Z" />
<glyph unicode="s" glyph-name="s" horiz-adv-x="398" d="M171 -12Q122 -12 84 -1T18 29L27 98Q57 81 89 69T172 57Q216 57 239 80T262 142Q262 169 249 186T201 218L150 240Q108 258 85 290T62 376Q62 441 103 482T225 523Q276 523 307 512T361 484L351 416Q329
432 296 444T225 456Q180 456 160 436T140 381Q140 349 154 334T194 308L245 287Q298 265 322 234T346 151Q346 75 301 32T171 -12Z" />
<glyph unicode="t" glyph-name="t" horiz-adv-x="352" d="M198 -7Q141 -7 111 17T80 96Q80 112 83 130L116 364Q117 372 119 382T124 402Q127 413 129 423H51L61 490H139V511Q139 520 139 530T142 549L157 653H242L227 549Q225 541 223 531T219 511Q216 500 214
490H343L333 423H204V402Q204 393 203 383T201 364L169 133Q164 97 175 80T227 62Q244 62 262 65T294 73L286 13Q272 6 248 0T198 -7Z" />
<glyph unicode="u" glyph-name="u" horiz-adv-x="513" d="M164 -10Q111 -10 81 19T51 108Q51 125 54 145L106 513H191L141 154Q138 133 138 116T145 87T164 69T199 62Q239 62 273 78T334 112L390 513H475L403 0H338V63H329Q294 31 255 11T164 -10Z" />
<glyph unicode="v" glyph-name="v" horiz-adv-x="483" d="M66 513H154L198 218Q202 193 204 166T209 116Q211 90 213 64H222Q228 87 237 113Q244 135 254 162T275 215L405 513H489L257 0H154L66 513Z" />
<glyph unicode="w" glyph-name="w" horiz-adv-x="703" d="M71 513H158L173 242Q175 211 175 179T175 121Q175 90 174 61H184Q193 93 203 125Q211 152 221 182T241 237L346 513H440L460 242Q462 217 463 186T464 127V61H474Q483 93 492 125Q500 152 509 182T527
237L627 513H705L514 0H407L389 241Q387 265 386 297T384 358Q383 392 383 428H373Q362 392 351 358Q342 329 332 297T312 241L221 0H115L71 513Z" />
<glyph unicode="x" glyph-name="x" horiz-adv-x="479" d="M183 259L81 513H173L215 401Q222 383 227 363T237 326Q241 306 246 286H256Q263 306 272 325Q280 342 288 361T307 396L377 513H470L300 265L408 0H316L270 118Q263 135 258 156T247 195Q242 216 238
236H228Q220 216 211 196Q203 179 194 159T173 122L94 0H1L183 259Z" />
<glyph unicode="y" glyph-name="y" horiz-adv-x="466" d="M55 -171Q33 -171 15 -166T-12 -155L-3 -96Q6 -99 18 -102T47 -106Q82 -106 106 -88T154 -21L167 6L61 513H151L198 260Q203 232 205 200T210 140Q212 107 212 74H222Q232 105 243 138Q252 165 263 197T287
255L401 513H486L226 -40Q191 -115 151 -143T55 -171Z" />
<glyph unicode="z" glyph-name="z" horiz-adv-x="429" d="M15 65L242 353Q257 373 272 387T298 413Q311 425 323 435V445H82L91 513H425L416 451L199 176Q181 153 165 135T135 104Q120 89 106 77V67H361L352 0H6L15 65Z" />
<glyph unicode="{" glyph-name="braceleft" horiz-adv-x="413" d="M310 -154Q260 -151 225 -141T168 -112T136 -70T126 -13Q126 13 132 45L152 147Q158 176 152 196T130 228T90 248T34 258L47 350Q78 350 104 354T149 368T179 397T193 446L204 562Q208 607 222
640T263 696T333 729T437 740L428 678Q387 676 361 669T320 648T296 611T284 552L268 436Q259 373 221 344T107 306L106 297Q178 279 207 244T228 146L213 40Q211 24 210 11T208 -13Q208 -33 213 -47T231 -70T265 -85T319 -92L310 -154Z" />
<glyph unicode="|" glyph-name="bar" horiz-adv-x="291" d="M106 733H185V-149H106V733Z" />
<glyph unicode="}" glyph-name="braceright" horiz-adv-x="413" d="M-5 -92Q36 -90 62 -83T103 -62T126 -25T139 34L155 150Q164 213 202 242T316 280L317 289Q245 307 216 342T195 440L210 546Q212 562 213 575T215 599Q215 639 192 656T104 678L113 740Q213
735 255 699T297 599Q297 572 291 541L271 439Q265 410 271 390T293 358T333 338T389 328L376 236Q344 236 319 232T274 218T244 189T230 140L219 24Q215 -21 201 -54T160 -110T90 -143T-14 -154L-5 -92Z" />
<glyph unicode="~" glyph-name="asciitilde" horiz-adv-x="412" d="M49 248Q57 310 87 343T156 377Q175 377 192 369T224 352T252 335T279 327Q298 327 307 343T324 384H380Q370 322 344 288T279 253Q259 253 242 260T210 277T181 293T154 301Q135 301 123 287T105
248H49Z" />
<glyph unicode="&#xa0;" glyph-name="uni00A0" horiz-adv-x="216" />
<glyph unicode="&#xa1;" glyph-name="exclamdown" horiz-adv-x="290" d="M129 344H194L142 -124H43L129 344ZM140 567H239L225 464H126L140 567Z" />
<glyph unicode="&#xa2;" glyph-name="cent" horiz-adv-x="550" d="M257 -12Q254 -28 250 -44T242 -74L229 -117H161L174 -73Q179 -57 185 -39T198 -3Q132 14 102 64T71 188Q71 203 72 218T76 250L81 287Q90 354 114 399T171 471T247 511T334 523Q338 523 342 523T350
522Q352 536 355 551T363 581L375 628H442L430 581Q426 566 419 548T405 514Q428 509 446 501T480 482L470 417Q452 425 431 433T386 447Q384 432 381 417T374 388L305 142Q299 120 290 97T274 58H281Q332 58 372 69T433 88L424 22Q404 11 365 0T271 -12H257ZM306
393Q310 407 315 422T327 453Q297 453 271 445T224 417T189 366T168 289L162 245Q160 228 159 213T157 184Q157 90 221 67Q224 84 229 106T239 149L306 393Z" />
<glyph unicode="&#xa3;" glyph-name="sterling" horiz-adv-x="550" d="M78 384H163Q164 400 165 417T168 452L176 511Q183 566 204 603T256 662T320 695T390 705Q441 705 475 694T533 664L524 604Q496 618 466 625T399 632Q377 632 355 627T315 608T282 567T262
499L255 450Q253 435 249 417T241 384H420L411 318H232Q232 293 229 266L226 241Q222 207 214 183T192 140T161 108T120 81V71H454L444 0H11L20 63Q47 76 66 91T100 127T122 174T137 238L141 265Q143 277 146 291T153 318H69L78 384Z" />
<glyph unicode="&#xa5;" glyph-name="yen" horiz-adv-x="550" d="M68 319H211Q207 328 204 338T196 362L88 692H181L234 520Q243 491 250 458T262 396Q267 363 272 331H282Q295 362 310 395Q323 423 338 456T371 518L468 692H560L358 362L332 319H481L473 258H307Q308
247 308 237T306 217Q304 207 301 196T294 174H461L452 113H286Q286 85 283 60L275 0H185L193 59Q195 71 198 85T205 113H39L48 174H213Q213 185 213 197T215 221Q216 229 218 239T224 258H60L68 319Z" />
<glyph unicode="&#xa6;" glyph-name="brokenbar" horiz-adv-x="291" d="M106 230H185V-149H106V230ZM106 733H185V394H106V733Z" />
<glyph unicode="&#xa7;" glyph-name="section" horiz-adv-x="492" d="M191 -102Q140 -102 102 -89T43 -62L53 8Q79 -6 110 -19T192 -32Q237 -32 262 -10T288 50Q288 76 274 94T224 133L148 174Q100 200 76 232T51 312Q51 368 79 400T162 453V463Q149 480 143 503T136
550Q136 588 149 617T185 665T240 695T309 705Q363 705 398 692T459 662L449 592Q423 609 391 622T310 635Q264 635 241 614T217 555Q217 526 231 508T280 471L357 430Q404 405 428 373T453 290Q453 241 428 204T345 146V136Q369 104 369 56Q369 22 357 -7T321
-57T265 -90T191 -102ZM312 176Q344 193 361 216T379 271Q379 298 364 319T314 360L192 428Q163 412 144 389T125 333Q125 281 191 244L312 176Z" />
<glyph unicode="&#xa8;" glyph-name="dieresis" horiz-adv-x="450" d="M335 708H424L412 618H323L335 708ZM152 708H241L229 618H140L152 708Z" />
<glyph unicode="&#xa9;" glyph-name="copyright" horiz-adv-x="745" d="M372 17Q303 17 245 42T144 112T77 214T53 340Q53 406 77 464T144 566T245 635T372 660Q440 660 498 635T600 567T667 465T692 340Q692 273 668 215T600 112T499 43T372 17ZM372 70Q428 70
475 90T557 146T611 231T630 340Q630 398 611 447T558 532T476 587T372 607Q315 607 268 587T187 532T134 448T115 340Q115 281 134 232T187 146T268 90T372 70ZM380 177Q316 177 274 214T232 323V353Q232 392 244 419T278 463T327 489T385 497Q412 497 434 492T469
479V424Q452 430 432 432T390 435Q357 435 333 420T308 360V324Q308 276 330 257T396 238Q421 238 440 243T472 255V199Q457 191 433 184T380 177Z" />
<glyph unicode="&#xaa;" glyph-name="ordfeminine" horiz-adv-x="460" d="M177 223Q123 223 92 254T60 338Q60 416 103 451T234 491L321 496L328 547Q335 598 312 617T227 637Q205 637 180 633T131 623L139 683Q168 694 200 699T262 705Q340 705 376 675T413 584Q413
576 413 568T411 551L366 233H306L303 283H295Q275 260 247 242T177 223ZM204 281Q232 281 256 293T298 319L316 449L244 443Q191 438 166 416T140 346Q140 315 157 298T204 281Z" />
<glyph unicode="&#xab;" glyph-name="guillemotleft" horiz-adv-x="488" d="M245 270L249 299L394 507H471L328 281L405 58H334L245 270ZM55 270L59 299L204 507H281L138 281L215 58H144L55 270Z" />
<glyph unicode="&#xac;" glyph-name="logicalnot" horiz-adv-x="550" d="M363 279Q365 291 367 305T372 331Q375 345 379 360H75L85 434H466L428 159H346L363 279Z" />
<glyph unicode="&#xae;" glyph-name="registered" horiz-adv-x="633" d="M316 158Q258 158 209 179T123 238T66 326T45 433Q45 489 65 538T122 625T208 683T316 705Q374 705 424 684T510 625T567 539T588 433Q588 376 568 326T511 239T424 180T316 158ZM316 207Q363
207 402 224T470 271T515 342T531 433Q531 482 515 523T471 593T403 639T316 656Q269 656 230 640T162 594T119 523T103 433Q103 384 118 343T162 271T229 224T316 207ZM222 561H325Q370 561 394 540T419 480Q419 452 405 437T365 416V408Q370 403 375 396Q384
384 400 360L431 312H365L309 400H278Q279 394 280 388Q281 383 282 377T283 366V312H222V561ZM321 441Q357 441 357 480Q357 500 347 507T320 515H278Q279 509 280 504Q281 499 282 494T283 485V472Q283 467 282 462T280 452Q279 447 278 441H321Z" />
<glyph unicode="&#xaf;" glyph-name="macron" horiz-adv-x="450" d="M152 697H422L413 634H143L152 697Z" />
<glyph unicode="&#xb0;" glyph-name="degree" horiz-adv-x="466" d="M243 352Q204 352 173 365T121 401T88 453T76 514Q76 554 90 589T129 649T188 689T261 704Q300 704 331 690T383 654T416 602T428 542Q428 501 414 467T375 407T316 367T243 352ZM246 412Q294
412 324 446T354 538Q354 581 331 612T259 644Q211 644 181 610T150 519Q150 475 173 444T246 412Z" />
<glyph unicode="&#xb1;" glyph-name="plusminus" horiz-adv-x="550" d="M27 0L38 79H444L433 0H27ZM227 279Q229 291 231 305T237 331Q241 345 244 360H77L87 434H254Q254 448 255 462Q256 474 257 488T260 515L274 615H356L342 515Q340 503 337 489T332 462Q328
448 326 434H493L483 360H316Q315 345 314 331Q313 319 312 305T309 279L295 179H213L227 279Z" />
<glyph unicode="&#xb4;" glyph-name="acute" horiz-adv-x="450" d="M318 766H413L306 597H235L318 766Z" />
<glyph unicode="&#xb5;" glyph-name="mu" horiz-adv-x="517" d="M114 513H199L151 169Q148 146 148 128T154 96T174 76T211 69Q249 69 281 84T343 118L398 513H483L411 0H346V71H337Q271 0 208 0Q175 0 159 10T131 38H122V1Q122 -16 121 -35T117 -72L104 -164H19L114
513Z" />
<glyph unicode="&#xb6;" glyph-name="paragraph" horiz-adv-x="585" d="M254 355H245Q213 355 184 363T133 389T98 435T85 502Q85 544 97 579T137 639T209 678T317 692H560L446 -120H375L467 532Q469 546 472 563T479 596Q483 614 487 631H358Q357 614 356 596Q355
581 354 564T350 532L258 -120H187L254 355Z" />
<glyph unicode="&#xb7;" glyph-name="periodcentered" horiz-adv-x="277" d="M103 358H202L188 255H89L103 358Z" />
<glyph unicode="&#xb8;" glyph-name="cedilla" horiz-adv-x="450" d="M102 -179Q116 -161 129 -139T155 -93T175 -45T188 0H250Q248 -23 243 -48T229 -96T210 -141T188 -179H102Z" />
<glyph unicode="&#xba;" glyph-name="ordmasculine" horiz-adv-x="460" d="M220 221Q138 221 95 267T52 398Q52 412 53 426T56 455L61 489Q69 545 88 586T133 653T191 692T259 705Q344 705 388 660T432 529Q432 515 431 501T427 470L422 437Q413 380 394 339T349
272T289 234T220 221ZM224 284Q266 284 297 317T340 434L346 475Q348 491 349 504T350 530Q350 592 326 617T261 642Q215 642 185 608T143 490L137 449Q135 433 134 419T133 393Q133 332 157 308T224 284Z" />
<glyph unicode="&#xbb;" glyph-name="guillemotright" horiz-adv-x="488" d="M356 284L279 507H350L439 295L435 266L290 58H213L356 284ZM166 284L89 507H160L249 295L245 266L100 58H23L166 284Z" />
<glyph unicode="&#xbc;" glyph-name="onequarter" horiz-adv-x="1096" d="M81 296H184Q184 308 185 320Q186 331 186 343T189 368L230 657Q223 654 213 651Q195 645 168 640L124 632L131 679L281 739H320L267 368Q265 355 263 343T258 320Q255 308 252 296H352L345
242H74L81 296ZM867 -108Q869 -97 871 -86T876 -65Q879 -54 882 -43H663L672 22L916 328H1005L971 82Q969 71 967 60T962 39Q959 28 956 17H1031L1022 -43H948Q947 -54 947 -65Q946 -75 946 -86T944 -108L936 -164H859L867 -108ZM891 13Q891 24 892 35Q893 45 894
56T897 80L908 160Q910 175 913 193T920 228Q924 246 928 266H918Q906 245 894 226Q883 209 871 190T845 154L788 80Q768 56 749 38Q738 28 728 21V13H891ZM577 315L883 753H974L603 274L299 -164H208L577 315Z" />
<glyph unicode="&#xbd;" glyph-name="onehalf" horiz-adv-x="1096" d="M81 296H184Q184 308 185 320Q186 331 186 343T189 368L230 657Q223 654 213 651Q195 645 168 640L124 632L131 679L281 739H320L267 368Q265 355 263 343T258 320Q255 308 252 296H352L345
242H74L81 296ZM682 -106L807 0Q840 28 864 51T904 98T929 144T937 195Q937 233 916 255T843 277Q817 277 791 272T742 258L750 311Q771 322 802 331T868 340Q943 340 979 301T1016 200Q1016 168 1007 141T979 87T933 34T870 -23L855 -35Q839 -49 824 -60T794 -79Q778
-89 763 -96V-103H988L980 -164H674L682 -106ZM547 315L853 753H944L573 274L269 -164H178L547 315Z" />
<glyph unicode="&#xbe;" glyph-name="threequarters" horiz-adv-x="1096" d="M196 231Q140 231 109 242T55 267L63 322Q86 312 113 304T182 295Q205 295 225 300T261 317T286 347T295 391Q295 426 274 447T202 468H155L163 527H200Q306 527 306 613Q306 647 286
665T214 684Q192 684 170 680T126 670L133 723Q158 734 185 739T240 745Q277 745 304 736T349 711T375 674T384 627Q384 574 354 544T268 504V494Q373 476 373 384Q373 348 360 320T322 272T266 242T196 231ZM867 -108Q869 -97 871 -86T876 -65Q879 -54 882 -43H663L672
22L916 328H1005L971 82Q969 71 967 60T962 39Q959 28 956 17H1031L1022 -43H948Q947 -54 947 -65Q946 -75 946 -86T944 -108L936 -164H859L867 -108ZM891 13Q891 24 892 35Q893 45 894 56T897 80L908 160Q910 175 913 193T920 228Q924 246 928 266H918Q906 245
894 226Q883 209 871 190T845 154L788 80Q768 56 749 38Q738 28 728 21V13H891ZM577 315L883 753H974L603 274L299 -164H208L577 315Z" />
<glyph unicode="&#xbf;" glyph-name="questiondown" horiz-adv-x="416" d="M186 -138Q111 -138 63 -103T15 7Q15 43 24 69T48 115T85 151T133 186Q158 204 175 216T204 240T221 263T229 290L237 344H312L303 283Q299 256 292 237T273 203T245 175T207 149Q188
137 170 124T138 96T116 61T107 16Q107 -26 134 -45T221 -64Q246 -64 272 -60T331 -44L322 -109Q288 -124 256 -131T186 -138ZM257 567H356L342 464H243L257 567Z" />
<glyph unicode="&#xc0;" glyph-name="Agrave" horiz-adv-x="571" d="M298 692H397L515 0H422L406 98Q402 119 401 145T397 192H153Q146 172 137 147T117 99L73 0H-14L298 692ZM223 340Q215 321 205 300T184 261H387Q382 278 377 299T370 341L354 455Q350 481 348
509T343 563Q341 592 340 620H330Q322 593 313 565Q305 541 295 513T274 459L223 340ZM261 886H352L390 750H323L261 886Z" />
<glyph unicode="&#xc1;" glyph-name="Aacute" horiz-adv-x="571" d="M298 692H397L515 0H422L406 98Q402 119 401 145T397 192H153Q146 172 137 147T117 99L73 0H-14L298 692ZM223 340Q215 321 205 300T184 261H387Q382 278 377 299T370 341L354 455Q350 481 348
509T343 563Q341 592 340 620H330Q322 593 313 565Q305 541 295 513T274 459L223 340ZM385 750H315L381 886H476L385 750Z" />
<glyph unicode="&#xc2;" glyph-name="Acircumflex" horiz-adv-x="571" d="M308 879H421L499 750H429L416 765Q407 775 398 788T382 812Q373 825 366 838H358Q348 825 337 812Q328 801 316 789T292 765L274 750H198L308 879ZM298 692H397L515 0H422L406 98Q402
119 401 145T397 192H153Q146 172 137 147T117 99L73 0H-14L298 692ZM223 340Q215 321 205 300T184 261H387Q382 278 377 299T370 341L354 455Q350 481 348 509T343 563Q341 592 340 620H330Q322 593 313 565Q305 541 295 513T274 459L223 340Z" />
<glyph unicode="&#xc3;" glyph-name="Atilde" horiz-adv-x="571" d="M198 751Q206 810 236 842T303 874Q322 874 339 867T373 850T403 834T431 826Q449 826 459 842T474 881H529Q521 822 495 789T431 756Q412 756 394 763T360 779T330 795T302 802Q284 802 272
788T253 751H198ZM298 692H397L515 0H422L406 98Q402 119 401 145T397 192H153Q146 172 137 147T117 99L73 0H-14L298 692ZM223 340Q215 321 205 300T184 261H387Q382 278 377 299T370 341L354 455Q350 481 348 509T343 563Q341 592 340 620H330Q322 593 313 565Q305
541 295 513T274 459L223 340Z" />
<glyph unicode="&#xc4;" glyph-name="Adieresis" horiz-adv-x="571" d="M298 692H397L515 0H422L406 98Q402 119 401 145T397 192H153Q146 172 137 147T117 99L73 0H-14L298 692ZM223 340Q215 321 205 300T184 261H387Q382 278 377 299T370 341L354 455Q350 481
348 509T343 563Q341 592 340 620H330Q322 593 313 565Q305 541 295 513T274 459L223 340ZM413 852H502L490 762H401L413 852ZM230 852H319L307 762H218L230 852Z" />
<glyph unicode="&#xc5;" glyph-name="Aring" horiz-adv-x="571" d="M298 692H397L515 0H422L406 98Q402 119 401 145T397 192H153Q146 172 137 147T117 99L73 0H-14L298 692ZM223 340Q215 321 205 300T184 261H387Q382 278 377 299T370 341L354 455Q350 481 348
509T343 563Q341 592 340 620H330Q322 593 313 565Q305 541 295 513T274 459L223 340ZM360 727Q336 727 316 735T282 758T259 791T250 832Q250 853 258 872T281 906T316 928T360 937Q384 937 404 929T438 906T461 873T470 832Q470 811 462 792T439 758T404 736T360
727ZM360 770Q387 770 404 787T421 832Q421 859 404 876T360 894Q333 894 316 877T299 832Q299 804 316 787T360 770Z" />
<glyph unicode="&#xc6;" glyph-name="AE" horiz-adv-x="831" d="M425 692H825L815 619H539Q539 605 538 591Q537 579 537 565T534 540L525 475Q523 463 521 450T515 424L508 396H719L708 323H497Q497 309 496 295Q495 283 495 269T492 244L479 152Q477 140 475
127T469 101L462 73H739L729 0H369L396 192H185Q177 173 165 150T137 102L72 0H-21L425 692ZM287 340Q273 318 258 298T228 261H405L431 442Q436 479 442 514T453 578Q459 611 465 639H455Q444 612 430 582Q418 556 401 524T363 459L287 340Z" />
<glyph unicode="&#xc7;" glyph-name="Ccedilla" horiz-adv-x="536" d="M144 -179Q157 -161 170 -140T195 -95T216 -49T229 -4Q141 15 99 79T57 248Q57 274 59 302T67 360L71 384Q87 483 118 545T189 643T277 692T373 705Q426 705 468 695T537 670L526 592Q491
610 456 619T368 629Q333 629 301 619T242 582T195 507T162 381L158 355Q153 323 151 295T148 241Q148 153 186 109T317 65Q359 65 398 74T470 99L458 20Q426 3 386 -4T306 -12H290Q284 -57 268 -103T230 -179H144Z" />
<glyph unicode="&#xc8;" glyph-name="Egrave" horiz-adv-x="521" d="M260 886H351L389 750H322L260 886ZM146 692H515L505 619H219Q219 605 218 591Q217 579 217 565T214 540L205 475Q203 463 201 450T195 424L188 396H409L398 323H177Q177 309 176 295Q175 283
175 269T172 244L159 152Q157 140 155 127T149 101L142 73H429L419 0H49L146 692Z" />
<glyph unicode="&#xc9;" glyph-name="Eacute" horiz-adv-x="521" d="M146 692H515L505 619H219Q219 605 218 591Q217 579 217 565T214 540L205 475Q203 463 201 450T195 424L188 396H409L398 323H177Q177 309 176 295Q175 283 175 269T172 244L159 152Q157 140
155 127T149 101L142 73H429L419 0H49L146 692ZM374 750H304L370 886H465L374 750Z" />
<glyph unicode="&#xca;" glyph-name="Ecircumflex" horiz-adv-x="521" d="M146 692H515L505 619H219Q219 605 218 591Q217 579 217 565T214 540L205 475Q203 463 201 450T195 424L188 396H409L398 323H177Q177 309 176 295Q175 283 175 269T172 244L159 152Q157
140 155 127T149 101L142 73H429L419 0H49L146 692ZM303 879H416L494 750H424L411 765Q402 775 393 788T377 812Q368 825 361 838H353Q343 825 332 812Q323 801 311 789T287 765L269 750H193L303 879Z" />
<glyph unicode="&#xcb;" glyph-name="Edieresis" horiz-adv-x="521" d="M146 692H515L505 619H219Q219 605 218 591Q217 579 217 565T214 540L205 475Q203 463 201 450T195 424L188 396H409L398 323H177Q177 309 176 295Q175 283 175 269T172 244L159 152Q157
140 155 127T149 101L142 73H429L419 0H49L146 692ZM404 852H493L481 762H392L404 852ZM221 852H310L298 762H209L221 852Z" />
<glyph unicode="&#xcc;" glyph-name="Igrave" horiz-adv-x="285" d="M384 886H475L513 750H446L384 886ZM159 692H248L151 0H62L159 692Z" />
<glyph unicode="&#xcd;" glyph-name="Iacute" horiz-adv-x="285" d="M159 692H248L151 0H62L159 692ZM498 750H428L494 886H589L498 750Z" />
<glyph unicode="&#xce;" glyph-name="Icircumflex" horiz-adv-x="285" d="M427 879H540L618 750H548L535 765Q526 775 517 788T501 812Q492 825 485 838H477Q467 825 456 812Q447 801 435 789T411 765L393 750H317L427 879ZM159 692H248L151 0H62L159 692Z" />
<glyph unicode="&#xcf;" glyph-name="Idieresis" horiz-adv-x="285" d="M159 692H248L151 0H62L159 692ZM528 852H617L605 762H516L528 852ZM345 852H434L422 762H333L345 852Z" />
<glyph unicode="&#xd0;" glyph-name="Eth" horiz-adv-x="626" d="M42 382H127Q127 397 128 414T132 447L166 692H323Q394 692 445 678T529 634T578 557T594 442Q594 401 588 350L584 316Q564 149 480 75T255 0H69L103 243Q105 257 109 274T117 308H31L42 382ZM257
71Q302 71 341 80T410 117T461 192T492 318L496 349Q500 380 502 405T504 454Q504 506 493 538T457 589T396 613T308 620H239Q239 605 238 590Q237 577 236 563T233 535L221 447Q219 432 215 415T207 382H378L367 308H196Q195 292 195 275T192 243L180 156Q178
143 175 129T169 101Q165 86 162 71H257Z" />
<glyph unicode="&#xd1;" glyph-name="Ntilde" horiz-adv-x="624" d="M146 692H248L381 334Q390 309 400 276T419 210Q429 173 438 135H448Q450 168 453 201Q455 228 458 258T465 308L519 692H599L502 0H411L273 389Q264 413 254 446T235 510Q224 545 215 583H204Q202
551 199 520Q197 494 194 465T188 416L129 0H49L146 692ZM236 751Q244 810 274 842T341 874Q360 874 377 867T411 850T441 834T469 826Q487 826 497 842T512 881H567Q559 822 533 789T469 756Q450 756 432 763T398 779T368 795T340 802Q322 802 310 788T291 751H236Z"
/>
<glyph unicode="&#xd2;" glyph-name="Ograve" horiz-adv-x="636" d="M293 886H384L422 750H355L293 886ZM298 -12Q180 -12 118 52T55 250Q55 273 57 298T63 351L67 378Q80 468 107 530T173 631T260 687T362 705Q479 705 542 640T606 440Q606 417 604 393T598 342L594
315Q580 221 552 159T485 58T399 4T298 -12ZM301 60Q339 60 370 72T427 113T470 192T499 315L503 343Q512 406 512 455Q512 545 477 589T361 633Q320 633 288 620T230 577T188 498T160 378L156 350Q147 287 147 238Q147 151 181 106T301 60Z" />
<glyph unicode="&#xd3;" glyph-name="Oacute" horiz-adv-x="636" d="M408 750H338L404 886H499L408 750ZM298 -12Q180 -12 118 52T55 250Q55 273 57 298T63 351L67 378Q80 468 107 530T173 631T260 687T362 705Q479 705 542 640T606 440Q606 417 604 393T598 342L594
315Q580 221 552 159T485 58T399 4T298 -12ZM301 60Q339 60 370 72T427 113T470 192T499 315L503 343Q512 406 512 455Q512 545 477 589T361 633Q320 633 288 620T230 577T188 498T160 378L156 350Q147 287 147 238Q147 151 181 106T301 60Z" />
<glyph unicode="&#xd4;" glyph-name="Ocircumflex" horiz-adv-x="636" d="M298 -12Q180 -12 118 52T55 250Q55 273 57 298T63 351L67 378Q80 468 107 530T173 631T260 687T362 705Q479 705 542 640T606 440Q606 417 604 393T598 342L594 315Q580 221 552 159T485
58T399 4T298 -12ZM301 60Q339 60 370 72T427 113T470 192T499 315L503 343Q512 406 512 455Q512 545 477 589T361 633Q320 633 288 620T230 577T188 498T160 378L156 350Q147 287 147 238Q147 151 181 106T301 60ZM335 879H448L526 750H456L443 765Q434 775 425
788T409 812Q400 825 393 838H385Q375 825 364 812Q355 801 343 789T319 765L301 750H225L335 879Z" />
<glyph unicode="&#xd5;" glyph-name="Otilde" horiz-adv-x="636" d="M219 751Q227 810 257 842T324 874Q343 874 360 867T394 850T424 834T452 826Q470 826 480 842T495 881H550Q542 822 516 789T452 756Q433 756 415 763T381 779T351 795T323 802Q305 802 293
788T274 751H219ZM298 -12Q180 -12 118 52T55 250Q55 273 57 298T63 351L67 378Q80 468 107 530T173 631T260 687T362 705Q479 705 542 640T606 440Q606 417 604 393T598 342L594 315Q580 221 552 159T485 58T399 4T298 -12ZM301 60Q339 60 370 72T427 113T470
192T499 315L503 343Q512 406 512 455Q512 545 477 589T361 633Q320 633 288 620T230 577T188 498T160 378L156 350Q147 287 147 238Q147 151 181 106T301 60Z" />
<glyph unicode="&#xd6;" glyph-name="Odieresis" horiz-adv-x="636" d="M441 852H530L518 762H429L441 852ZM258 852H347L335 762H246L258 852ZM298 -12Q180 -12 118 52T55 250Q55 273 57 298T63 351L67 378Q80 468 107 530T173 631T260 687T362 705Q479 705 542
640T606 440Q606 417 604 393T598 342L594 315Q580 221 552 159T485 58T399 4T298 -12ZM301 60Q339 60 370 72T427 113T470 192T499 315L503 343Q512 406 512 455Q512 545 477 589T361 633Q320 633 288 620T230 577T188 498T160 378L156 350Q147 287 147 238Q147
151 181 106T301 60Z" />
<glyph unicode="&#xd7;" glyph-name="multiply" horiz-adv-x="550" d="M50 177L132 249Q140 256 152 265T177 285T203 305T227 323Q210 339 188 360T153 397L91 469L148 522L210 450Q216 443 224 433T241 410T258 387T274 365Q292 385 316 410T358 450L440 522L489
469L407 397Q399 390 387 381T362 361T335 341T311 323Q328 307 350 285T386 249L448 177L390 124L329 196Q323 203 315 213T297 235T280 259T264 280Q255 271 244 259T222 236T200 214T181 196L98 124L50 177Z" />
<glyph unicode="&#xd8;" glyph-name="Oslash" horiz-adv-x="636" d="M85 -61Q96 -39 112 -13T141 32Q55 94 55 248Q55 271 56 297T63 351L67 378Q80 468 107 530T173 631T260 687T362 705Q421 705 468 687Q473 701 478 716T490 744L508 781H587L563 734Q555 717
541 696T516 661Q560 629 583 574T606 439Q606 416 604 392T598 342L594 315Q580 221 552 159T485 58T399 4T298 -12Q239 -12 191 5Q185 -13 177 -34T159 -74L137 -117H57L85 -61ZM301 56Q339 56 370 69T427 112T470 191T499 315L503 343Q509 385 512 419T516 483Q516
564 485 598L455 532L264 146Q254 127 242 105T219 66Q250 56 301 56ZM398 556Q406 572 417 591T439 627Q409 637 361 637Q320 637 288 623T230 579T188 499T160 378L156 350Q149 305 146 269T142 204Q142 127 172 94Q180 113 189 133T207 171L398 556Z" />
<glyph unicode="&#xd9;" glyph-name="Ugrave" horiz-adv-x="619" d="M294 -12Q235 -12 194 2T126 42T88 104T75 183Q75 195 76 207T79 234L143 692H231L167 234Q165 220 164 208T163 185Q163 114 198 86T298 57Q325 57 349 63T394 86T428 135T449 216L515 692H597L530
209Q513 91 454 40T294 -12ZM299 886H390L428 750H361L299 886Z" />
<glyph unicode="&#xda;" glyph-name="Uacute" horiz-adv-x="619" d="M294 -12Q235 -12 194 2T126 42T88 104T75 183Q75 195 76 207T79 234L143 692H231L167 234Q165 220 164 208T163 185Q163 114 198 86T298 57Q325 57 349 63T394 86T428 135T449 216L515 692H597L530
209Q513 91 454 40T294 -12ZM413 750H343L409 886H504L413 750Z" />
<glyph unicode="&#xdb;" glyph-name="Ucircumflex" horiz-adv-x="619" d="M342 879H455L533 750H463L450 765Q441 775 432 788T416 812Q407 825 400 838H392Q382 825 371 812Q362 801 350 789T326 765L308 750H232L342 879ZM294 -12Q235 -12 194 2T126 42T88 104T75
183Q75 195 76 207T79 234L143 692H231L167 234Q165 220 164 208T163 185Q163 114 198 86T298 57Q325 57 349 63T394 86T428 135T449 216L515 692H597L530 209Q513 91 454 40T294 -12Z" />
<glyph unicode="&#xdc;" glyph-name="Udieresis" horiz-adv-x="619" d="M294 -12Q235 -12 194 2T126 42T88 104T75 183Q75 195 76 207T79 234L143 692H231L167 234Q165 220 164 208T163 185Q163 114 198 86T298 57Q325 57 349 63T394 86T428 135T449 216L515 692H597L530
209Q513 91 454 40T294 -12ZM443 852H532L520 762H431L443 852ZM260 852H349L337 762H248L260 852Z" />
<glyph unicode="&#xdd;" glyph-name="Yacute" horiz-adv-x="535" d="M227 266L86 692H179L234 516Q242 487 250 453T265 390Q272 356 279 321H289Q302 354 316 387Q328 416 343 448T374 507L480 692H572L318 267L280 0H190L227 266ZM374 750H304L370 886H465L374 750Z" />
<glyph unicode="&#xde;" glyph-name="Thorn" horiz-adv-x="526" d="M146 692H235L228 639Q226 627 224 614T218 588L211 560H312Q364 560 400 546T459 508T492 450T503 380Q503 318 485 273T435 198T360 155T267 141H152Q151 125 150 110Q149 97 149 82T146 56L138
0H49L146 692ZM262 212Q335 212 373 250T411 381Q411 436 384 462T300 488H200Q200 474 199 459Q198 446 198 432T195 406L179 293Q177 281 174 267T168 241Q164 227 161 212H262Z" />
<glyph unicode="&#xdf;" glyph-name="germandbls" horiz-adv-x="526" d="M114 549Q122 605 143 643T194 703T257 735T323 745Q366 745 398 734T451 702T483 655T494 597Q494 555 481 525T444 472T390 436T324 412V402Q403 375 437 324T472 212Q472 167 460 128T425
59T366 14T285 -3Q247 -3 232 1T206 10L214 71Q228 66 240 65T278 63Q299 63 319 71T354 97T379 144T388 218Q388 272 360 309T261 370L272 446Q301 453 327 464T372 493T403 534T415 590Q415 624 392 650T321 676Q301 676 281 670T244 648T215 607T197 543L103
-132H19L114 549Z" />
<glyph unicode="&#xe0;" glyph-name="agrave" horiz-adv-x="466" d="M154 -12Q94 -12 60 23T25 122Q25 199 72 238T216 285L316 293L325 354Q333 410 307 431T226 452Q188 452 156 446T101 432L110 493Q139 504 177 513T264 523Q333 523 372 491T412 393Q412 385
412 377T410 360L360 0H297V58H287Q264 32 233 10T154 -12ZM184 49Q210 49 239 62T291 99L311 241L229 236Q171 232 141 207T110 129Q110 49 184 49ZM182 766H273L322 597H255L182 766Z" />
<glyph unicode="&#xe1;" glyph-name="aacute" horiz-adv-x="466" d="M154 -12Q94 -12 60 23T25 122Q25 199 72 238T216 285L316 293L325 354Q333 410 307 431T226 452Q188 452 156 446T101 432L110 493Q139 504 177 513T264 523Q333 523 372 491T412 393Q412 385
412 377T410 360L360 0H297V58H287Q264 32 233 10T154 -12ZM184 49Q210 49 239 62T291 99L311 241L229 236Q171 232 141 207T110 129Q110 49 184 49ZM572 766H667L560 597H489L572 766Z" />
<glyph unicode="&#xe2;" glyph-name="acircumflex" horiz-adv-x="466" d="M154 -12Q94 -12 60 23T25 122Q25 199 72 238T216 285L316 293L325 354Q333 410 307 431T226 452Q188 452 156 446T101 432L110 493Q139 504 177 513T264 523Q333 523 372 491T412 393Q412
385 412 377T410 360L360 0H297V58H287Q264 32 233 10T154 -12ZM184 49Q210 49 239 62T291 99L311 241L229 236Q171 232 141 207T110 129Q110 49 184 49ZM488 749H598L679 597H607L581 634Q574 644 567 657T555 681Q549 694 543 708H535Q526 694 516 681Q508 670
498 657T477 634L441 597H367L488 749Z" />
<glyph unicode="&#xe3;" glyph-name="atilde" horiz-adv-x="466" d="M154 -12Q94 -12 60 23T25 122Q25 199 72 238T216 285L316 293L325 354Q333 410 307 431T226 452Q188 452 156 446T101 432L110 493Q139 504 177 513T264 523Q333 523 372 491T412 393Q412 385
412 377T410 360L360 0H297V58H287Q264 32 233 10T154 -12ZM184 49Q210 49 239 62T291 99L311 241L229 236Q171 232 141 207T110 129Q110 49 184 49ZM372 612Q380 671 410 703T477 735Q496 735 512 728T543 711T571 695T597 687Q615 687 625 703T640 742H695Q687
683 661 650T597 617Q578 617 562 624T530 640T502 656T476 663Q458 663 446 649T427 612H372Z" />
<glyph unicode="&#xe4;" glyph-name="adieresis" horiz-adv-x="466" d="M589 708H678L666 618H577L589 708ZM406 708H495L483 618H394L406 708ZM154 -12Q94 -12 60 23T25 122Q25 199 72 238T216 285L316 293L325 354Q333 410 307 431T226 452Q188 452 156 446T101
432L110 493Q139 504 177 513T264 523Q333 523 372 491T412 393Q412 385 412 377T410 360L360 0H297V58H287Q264 32 233 10T154 -12ZM184 49Q210 49 239 62T291 99L311 241L229 236Q171 232 141 207T110 129Q110 49 184 49Z" />
<glyph unicode="&#xe5;" glyph-name="aring" horiz-adv-x="466" d="M538 587Q514 587 494 595T460 618T437 651T428 692Q428 713 436 732T459 766T494 788T538 797Q562 797 582 789T616 766T639 733T648 692Q648 671 640 652T617 618T582 596T538 587ZM538 630Q565
630 582 647T599 692Q599 719 582 736T538 754Q511 754 494 737T477 692Q477 664 494 647T538 630ZM154 -12Q94 -12 60 23T25 122Q25 199 72 238T216 285L316 293L325 354Q333 410 307 431T226 452Q188 452 156 446T101 432L110 493Q139 504 177 513T264 523Q333
523 372 491T412 393Q412 385 412 377T410 360L360 0H297V58H287Q264 32 233 10T154 -12ZM184 49Q210 49 239 62T291 99L311 241L229 236Q171 232 141 207T110 129Q110 49 184 49Z" />
<glyph unicode="&#xe6;" glyph-name="ae" horiz-adv-x="729" d="M155 -12Q95 -12 61 23T26 122Q26 199 73 238T217 285L317 293L326 354Q334 410 308 431T227 452Q189 452 157 446T102 432L111 493Q140 504 178 513T265 523Q325 523 348 502T381 439H390Q411 478
448 500T531 523Q575 523 605 510T655 472T683 416T692 345Q692 312 686 276L680 238H387Q385 222 384 209T383 183Q383 111 418 84T523 56Q558 56 586 64T643 85L634 20Q614 9 581 -1T500 -12Q435 -12 390 11T331 79H322Q308 61 293 45T257 16T211 -4T155 -12ZM185
49Q221 49 252 67T312 114Q309 128 307 143T305 177Q305 191 306 206T310 241L230 236Q172 232 142 207T111 129Q111 49 185 49ZM394 286Q411 289 439 292T497 296H607Q609 312 610 326T611 353Q611 406 591 431T524 457Q474 457 442 419T394 286Z" />
<glyph unicode="&#xe7;" glyph-name="ccedilla" horiz-adv-x="443" d="M90 -179Q117 -143 141 -95T175 -5Q107 11 76 61T45 189Q45 203 46 218T49 250L54 287Q63 354 85 399T138 471T208 511T290 523Q337 523 366 511T421 482L411 417Q383 431 355 442T286 453Q259
453 236 445T193 418T161 367T141 289L135 245Q133 229 132 215T131 187Q131 120 159 89T247 58Q289 58 322 68T376 86L367 20Q347 9 312 -1T237 -12H236Q230 -57 214 -103T176 -179H90Z" />
<glyph unicode="&#xe8;" glyph-name="egrave" horiz-adv-x="473" d="M244 -12Q143 -12 92 40T40 186Q40 203 42 220T47 257L53 292Q71 398 125 460T269 523Q315 523 347 510T398 473T427 417T436 346Q436 312 430 276L424 238H127Q124 211 124 188Q124 149 133
124T161 83T205 62T267 56Q302 56 330 64T387 85L378 20Q358 9 325 -1T244 -12ZM268 457Q218 457 183 418T134 285Q150 288 178 292T235 296H351Q353 312 354 326T355 353Q355 406 335 431T268 457ZM197 766H288L337 597H270L197 766Z" />
<glyph unicode="&#xe9;" glyph-name="eacute" horiz-adv-x="473" d="M244 -12Q143 -12 92 40T40 186Q40 203 42 220T47 257L53 292Q71 398 125 460T269 523Q315 523 347 510T398 473T427 417T436 346Q436 312 430 276L424 238H127Q124 211 124 188Q124 149 133
124T161 83T205 62T267 56Q302 56 330 64T387 85L378 20Q358 9 325 -1T244 -12ZM268 457Q218 457 183 418T134 285Q150 288 178 292T235 296H351Q353 312 354 326T355 353Q355 406 335 431T268 457ZM331 766H426L319 597H248L331 766Z" />
<glyph unicode="&#xea;" glyph-name="ecircumflex" horiz-adv-x="473" d="M245 749H355L436 597H364L338 634Q331 644 324 657T312 681Q306 694 300 708H292Q283 694 273 681Q265 670 255 657T234 634L198 597H124L245 749ZM244 -12Q143 -12 92 40T40 186Q40 203
42 220T47 257L53 292Q71 398 125 460T269 523Q315 523 347 510T398 473T427 417T436 346Q436 312 430 276L424 238H127Q124 211 124 188Q124 149 133 124T161 83T205 62T267 56Q302 56 330 64T387 85L378 20Q358 9 325 -1T244 -12ZM268 457Q218 457 183 418T134
285Q150 288 178 292T235 296H351Q353 312 354 326T355 353Q355 406 335 431T268 457Z" />
<glyph unicode="&#xeb;" glyph-name="edieresis" horiz-adv-x="473" d="M244 -12Q143 -12 92 40T40 186Q40 203 42 220T47 257L53 292Q71 398 125 460T269 523Q315 523 347 510T398 473T427 417T436 346Q436 312 430 276L424 238H127Q124 211 124 188Q124 149
133 124T161 83T205 62T267 56Q302 56 330 64T387 85L378 20Q358 9 325 -1T244 -12ZM268 457Q218 457 183 418T134 285Q150 288 178 292T235 296H351Q353 312 354 326T355 353Q355 406 335 431T268 457ZM347 708H436L424 618H335L347 708ZM164 708H253L241 618H152L164
708Z" />
<glyph unicode="&#xec;" glyph-name="igrave" horiz-adv-x="253" d="M331 766H422L471 597H404L331 766ZM120 513H205L133 0H48L120 513Z" />
<glyph unicode="&#xed;" glyph-name="iacute" horiz-adv-x="253" d="M120 513H205L133 0H48L120 513ZM465 766H560L453 597H382L465 766Z" />
<glyph unicode="&#xee;" glyph-name="icircumflex" horiz-adv-x="253" d="M388 749H498L579 597H507L481 634Q474 644 467 657T455 681Q449 694 443 708H435Q426 694 416 681Q408 670 398 657T377 634L341 597H267L388 749ZM120 513H205L133 0H48L120 513Z" />
<glyph unicode="&#xef;" glyph-name="idieresis" horiz-adv-x="253" d="M492 708H581L569 618H480L492 708ZM309 708H398L386 618H297L309 708ZM120 513H205L133 0H48L120 513Z" />
<glyph unicode="&#xf0;" glyph-name="eth" horiz-adv-x="507" d="M152 598L276 643Q268 649 259 656T241 672L190 719H294L320 698Q328 691 334 684T346 668L472 714L490 661L384 622Q402 607 420 577Q445 534 456 486T468 376Q468 322 459 255L455 229Q446 163
425 116T372 40T299 -2T212 -12Q131 -6 87 42T42 182Q42 211 48 249L52 277Q61 334 81 375T130 442T192 480T264 492Q304 492 335 477T393 426L401 430Q388 455 377 477Q367 496 357 515T342 544Q334 558 328 572T316 597L171 545L152 598ZM224 53Q251 51 274 58T315
84T347 137T368 222L373 257Q380 310 376 370Q359 397 333 413T274 429Q220 429 185 394T138 278L133 243Q127 205 127 178Q127 144 134 121T155 83T185 61T224 53Z" />
<glyph unicode="&#xf1;" glyph-name="ntilde" horiz-adv-x="517" d="M109 513H179L175 441H185Q220 479 261 501T352 523Q407 523 436 495T466 408Q466 390 463 371L411 0H326L377 365Q384 413 368 432T313 451Q274 451 241 436T178 397L122 0H37L109 513ZM149
612Q157 671 187 703T254 735Q273 735 289 728T320 711T348 695T374 687Q392 687 402 703T417 742H472Q464 683 438 650T374 617Q355 617 339 624T307 640T279 656T253 663Q235 663 223 649T204 612H149Z" />
<glyph unicode="&#xf2;" glyph-name="ograve" horiz-adv-x="508" d="M228 -12Q136 -12 90 40T43 189Q43 203 44 218T47 250L52 287Q60 349 81 393T132 467T200 509T283 523Q373 523 419 472T465 324Q465 309 464 294T460 261L455 225Q446 161 426 116T377 43T310
1T228 -12ZM231 53Q291 53 322 94T368 223L375 268Q377 284 378 298T380 326Q380 395 352 426T276 458Q223 458 187 420T139 288L133 241Q131 225 130 212T129 185Q129 113 157 83T231 53ZM193 766H284L333 597H266L193 766Z" />
<glyph unicode="&#xf3;" glyph-name="oacute" horiz-adv-x="508" d="M329 766H424L317 597H246L329 766ZM228 -12Q136 -12 90 40T43 189Q43 203 44 218T47 250L52 287Q60 349 81 393T132 467T200 509T283 523Q373 523 419 472T465 324Q465 309 464 294T460 261L455
225Q446 161 426 116T377 43T310 1T228 -12ZM231 53Q291 53 322 94T368 223L375 268Q377 284 378 298T380 326Q380 395 352 426T276 458Q223 458 187 420T139 288L133 241Q131 225 130 212T129 185Q129 113 157 83T231 53Z" />
<glyph unicode="&#xf4;" glyph-name="ocircumflex" horiz-adv-x="508" d="M256 749H366L447 597H375L349 634Q342 644 335 657T323 681Q317 694 311 708H303Q294 694 284 681Q276 670 266 657T245 634L209 597H135L256 749ZM228 -12Q136 -12 90 40T43 189Q43 203
44 218T47 250L52 287Q60 349 81 393T132 467T200 509T283 523Q373 523 419 472T465 324Q465 309 464 294T460 261L455 225Q446 161 426 116T377 43T310 1T228 -12ZM231 53Q291 53 322 94T368 223L375 268Q377 284 378 298T380 326Q380 395 352 426T276 458Q223
458 187 420T139 288L133 241Q131 225 130 212T129 185Q129 113 157 83T231 53Z" />
<glyph unicode="&#xf5;" glyph-name="otilde" horiz-adv-x="508" d="M141 612Q149 671 179 703T246 735Q265 735 281 728T312 711T340 695T366 687Q384 687 394 703T409 742H464Q456 683 430 650T366 617Q347 617 331 624T299 640T271 656T245 663Q227 663 215
649T196 612H141ZM228 -12Q136 -12 90 40T43 189Q43 203 44 218T47 250L52 287Q60 349 81 393T132 467T200 509T283 523Q373 523 419 472T465 324Q465 309 464 294T460 261L455 225Q446 161 426 116T377 43T310 1T228 -12ZM231 53Q291 53 322 94T368 223L375 268Q377
284 378 298T380 326Q380 395 352 426T276 458Q223 458 187 420T139 288L133 241Q131 225 130 212T129 185Q129 113 157 83T231 53Z" />
<glyph unicode="&#xf6;" glyph-name="odieresis" horiz-adv-x="508" d="M228 -12Q136 -12 90 40T43 189Q43 203 44 218T47 250L52 287Q60 349 81 393T132 467T200 509T283 523Q373 523 419 472T465 324Q465 309 464 294T460 261L455 225Q446 161 426 116T377 43T310
1T228 -12ZM231 53Q291 53 322 94T368 223L375 268Q377 284 378 298T380 326Q380 395 352 426T276 458Q223 458 187 420T139 288L133 241Q131 225 130 212T129 185Q129 113 157 83T231 53ZM355 708H444L432 618H343L355 708ZM172 708H261L249 618H160L172 708Z"
/>
<glyph unicode="&#xf7;" glyph-name="divide" horiz-adv-x="550" d="M90 384H496L486 310H80L90 384ZM217 201H316L302 98H203L217 201ZM273 596H372L357 493H258L273 596Z" />
<glyph unicode="&#xf8;" glyph-name="oslash" horiz-adv-x="508" d="M42 -73Q56 -47 74 -20T106 25Q74 50 59 91T43 188Q43 202 44 217T47 250L52 287Q60 349 81 393T132 467T200 509T283 523Q326 523 362 509Q367 523 374 543T391 581L404 608H479L466 581Q461
570 453 558T435 532T417 508T401 487Q464 437 464 323Q464 309 463 294T460 261L455 225Q446 161 426 116T377 43T310 1T228 -12Q185 -12 152 0Q145 -17 137 -37T118 -74L97 -110H21L42 -73ZM294 393Q301 407 311 424T331 456Q308 462 276 462Q223 462 187 422T139
288L133 241Q129 212 128 190T126 148Q126 106 137 85Q147 106 159 132T185 185L294 393ZM231 49Q291 49 322 92T368 223L375 268Q384 322 384 358Q384 402 370 427Q365 413 359 399T346 373L231 146Q220 124 204 98T176 55Q187 51 200 50T231 49Z" />
<glyph unicode="&#xf9;" glyph-name="ugrave" horiz-adv-x="513" d="M207 766H298L347 597H280L207 766ZM164 -10Q111 -10 81 19T51 108Q51 125 54 145L106 513H191L141 154Q138 133 138 116T145 87T164 69T199 62Q239 62 273 78T334 112L390 513H475L403 0H338V63H329Q294
31 255 11T164 -10Z" />
<glyph unicode="&#xfa;" glyph-name="uacute" horiz-adv-x="513" d="M164 -10Q111 -10 81 19T51 108Q51 125 54 145L106 513H191L141 154Q138 133 138 116T145 87T164 69T199 62Q239 62 273 78T334 112L390 513H475L403 0H338V63H329Q294 31 255 11T164 -10ZM341
766H436L329 597H258L341 766Z" />
<glyph unicode="&#xfb;" glyph-name="ucircumflex" horiz-adv-x="513" d="M164 -10Q111 -10 81 19T51 108Q51 125 54 145L106 513H191L141 154Q138 133 138 116T145 87T164 69T199 62Q239 62 273 78T334 112L390 513H475L403 0H338V63H329Q294 31 255 11T164 -10ZM265
749H375L456 597H384L358 634Q351 644 344 657T332 681Q326 694 320 708H312Q303 694 293 681Q285 670 275 657T254 634L218 597H144L265 749Z" />
<glyph unicode="&#xfc;" glyph-name="udieresis" horiz-adv-x="513" d="M368 708H457L445 618H356L368 708ZM185 708H274L262 618H173L185 708ZM164 -10Q111 -10 81 19T51 108Q51 125 54 145L106 513H191L141 154Q138 133 138 116T145 87T164 69T199 62Q239 62
273 78T334 112L390 513H475L403 0H338V63H329Q294 31 255 11T164 -10Z" />
<glyph unicode="&#xfd;" glyph-name="yacute" horiz-adv-x="466" d="M55 -171Q33 -171 15 -166T-12 -155L-3 -96Q6 -99 18 -102T47 -106Q82 -106 106 -88T154 -21L167 6L61 513H151L198 260Q203 232 205 200T210 140Q212 107 212 74H222Q232 105 243 138Q252 165
263 197T287 255L401 513H486L226 -40Q191 -115 151 -143T55 -171ZM327 766H422L315 597H244L327 766Z" />
<glyph unicode="&#xfe;" glyph-name="thorn" horiz-adv-x="514" d="M138 719H223L199 549Q197 534 193 519T186 490Q182 475 178 461H188Q216 488 254 505T336 523Q365 523 390 514T434 485T463 431T474 348Q474 314 468 269L464 240Q455 175 434 131T384 60T320
21T246 9Q198 9 172 22T130 55H121V46Q121 42 121 37T122 25Q122 12 121 -3T118 -35L99 -164H14L138 719ZM239 73Q261 73 282 80T322 106T355 157T376 241L381 276Q384 295 385 311T386 342Q386 404 362 428T290 452Q252 452 225 441T178 416L136 108Q156 93 177
83T239 73Z" />
<glyph unicode="&#xff;" glyph-name="ydieresis" horiz-adv-x="466" d="M349 708H438L426 618H337L349 708ZM166 708H255L243 618H154L166 708ZM55 -171Q33 -171 15 -166T-12 -155L-3 -96Q6 -99 18 -102T47 -106Q82 -106 106 -88T154 -21L167 6L61 513H151L198
260Q203 232 205 200T210 140Q212 107 212 74H222Q232 105 243 138Q252 165 263 197T287 255L401 513H486L226 -40Q191 -115 151 -143T55 -171Z" />
<glyph unicode="&#x100;" glyph-name="Amacron" horiz-adv-x="571" d="M298 692H397L515 0H422L406 98Q402 119 401 145T397 192H153Q146 172 137 147T117 99L73 0H-14L298 692ZM223 340Q215 321 205 300T184 261H387Q382 278 377 299T370 341L354 455Q350 481
348 509T343 563Q341 592 340 620H330Q322 593 313 565Q305 541 295 513T274 459L223 340ZM231 837H501L492 774H222L231 837Z" />
<glyph unicode="&#x101;" glyph-name="amacron" horiz-adv-x="466" d="M154 -12Q94 -12 60 23T25 122Q25 199 72 238T216 285L316 293L325 354Q333 410 307 431T226 452Q188 452 156 446T101 432L110 493Q139 504 177 513T264 523Q333 523 372 491T412 393Q412
385 412 377T410 360L360 0H297V58H287Q264 32 233 10T154 -12ZM184 49Q210 49 239 62T291 99L311 241L229 236Q171 232 141 207T110 129Q110 49 184 49ZM160 697H430L421 634H151L160 697Z" />
<glyph unicode="&#x102;" glyph-name="Abreve" horiz-adv-x="571" d="M366 745Q331 745 305 755T261 784T235 827T227 879H293Q299 850 316 834T366 817Q430 817 450 879H517Q509 817 469 781T366 745ZM298 692H397L515 0H422L406 98Q402 119 401 145T397 192H153Q146
172 137 147T117 99L73 0H-14L298 692ZM223 340Q215 321 205 300T184 261H387Q382 278 377 299T370 341L354 455Q350 481 348 509T343 563Q341 592 340 620H330Q322 593 313 565Q305 541 295 513T274 459L223 340Z" />
<glyph unicode="&#x103;" glyph-name="abreve" horiz-adv-x="466" d="M154 -12Q94 -12 60 23T25 122Q25 199 72 238T216 285L316 293L325 354Q333 410 307 431T226 452Q188 452 156 446T101 432L110 493Q139 504 177 513T264 523Q333 523 372 491T412 393Q412
385 412 377T410 360L360 0H297V58H287Q264 32 233 10T154 -12ZM184 49Q210 49 239 62T291 99L311 241L229 236Q171 232 141 207T110 129Q110 49 184 49ZM290 595Q254 595 226 606T179 637T151 683T144 742H210Q213 702 233 685T291 667Q324 667 344 684T375 742H442Q434
673 393 634T290 595Z" />
<glyph unicode="&#x104;" glyph-name="Aogonek" horiz-adv-x="571" d="M447 -170Q407 -170 385 -151T363 -101Q363 -72 381 -52T425 -16L406 98Q402 119 401 145T397 192H153Q146 172 137 147T117 99L73 0H-14L298 692H397L515 0Q486 -18 465 -37T443 -80Q443
-110 481 -110Q493 -110 511 -107L504 -158Q493 -163 479 -166T447 -170ZM223 340Q215 321 205 300T184 261H387Q382 278 377 299T370 341L354 455Q350 481 348 509T343 563Q341 592 340 620H330Q322 593 313 565Q305 541 295 513T274 459L223 340Z" />
<glyph unicode="&#x105;" glyph-name="aogonek" horiz-adv-x="466" d="M297 -170Q257 -170 235 -151T213 -101Q213 -65 238 -42T297 -2V58H287Q264 32 233 10T154 -12Q94 -12 60 23T25 122Q25 199 72 238T216 285L316 293L325 354Q333 410 307 431T226 452Q188
452 156 446T101 432L110 493Q139 504 177 513T264 523Q333 523 372 491T412 393Q412 385 412 377T410 360L360 0Q334 -18 314 -37T293 -80Q293 -110 331 -110Q343 -110 361 -107L354 -158Q343 -163 329 -166T297 -170ZM184 49Q210 49 239 62T291 99L311 241L229
236Q171 232 141 207T110 129Q110 49 184 49Z" />
<glyph unicode="&#x106;" glyph-name="Cacute" horiz-adv-x="536" d="M306 -12Q179 -12 118 55T57 248Q57 274 59 302T67 360L71 384Q87 483 118 545T189 643T277 692T373 705Q426 705 468 695T537 670L526 592Q491 610 456 619T368 629Q333 629 301 619T242 582T195
507T162 381L158 355Q153 323 151 295T148 241Q148 153 186 109T317 65Q359 65 398 74T470 99L458 20Q426 3 386 -4T306 -12ZM410 750H340L406 886H501L410 750Z" />
<glyph unicode="&#x107;" glyph-name="cacute" horiz-adv-x="443" d="M237 -12Q137 -12 91 42T45 189Q45 203 46 218T49 250L54 287Q63 354 85 399T138 471T208 511T290 523Q337 523 366 511T421 482L411 417Q383 431 355 442T286 453Q259 453 236 445T193 418T161
367T141 289L135 245Q133 229 132 215T131 187Q131 120 159 89T247 58Q289 58 322 68T376 86L367 20Q347 9 312 -1T237 -12ZM333 766H428L321 597H250L333 766Z" />
<glyph unicode="&#x108;" glyph-name="Ccircumflex" horiz-adv-x="536" d="M339 879H452L530 750H460L447 765Q438 775 429 788T413 812Q404 825 397 838H389Q379 825 368 812Q359 801 347 789T323 765L305 750H229L339 879ZM306 -12Q179 -12 118 55T57 248Q57
274 59 302T67 360L71 384Q87 483 118 545T189 643T277 692T373 705Q426 705 468 695T537 670L526 592Q491 610 456 619T368 629Q333 629 301 619T242 582T195 507T162 381L158 355Q153 323 151 295T148 241Q148 153 186 109T317 65Q359 65 398 74T470 99L458 20Q426
3 386 -4T306 -12Z" />
<glyph unicode="&#x109;" glyph-name="ccircumflex" horiz-adv-x="443" d="M237 -12Q137 -12 91 42T45 189Q45 203 46 218T49 250L54 287Q63 354 85 399T138 471T208 511T290 523Q337 523 366 511T421 482L411 417Q383 431 355 442T286 453Q259 453 236 445T193
418T161 367T141 289L135 245Q133 229 132 215T131 187Q131 120 159 89T247 58Q289 58 322 68T376 86L367 20Q347 9 312 -1T237 -12ZM250 749H360L441 597H369L343 634Q336 644 329 657T317 681Q311 694 305 708H297Q288 694 278 681Q270 670 260 657T239 634L203
597H129L250 749Z" />
<glyph unicode="&#x10a;" glyph-name="Cdotaccent" horiz-adv-x="536" d="M345 852H442L430 762H333L345 852ZM306 -12Q179 -12 118 55T57 248Q57 274 59 302T67 360L71 384Q87 483 118 545T189 643T277 692T373 705Q426 705 468 695T537 670L526 592Q491 610
456 619T368 629Q333 629 301 619T242 582T195 507T162 381L158 355Q153 323 151 295T148 241Q148 153 186 109T317 65Q359 65 398 74T470 99L458 20Q426 3 386 -4T306 -12Z" />
<glyph unicode="&#x10b;" glyph-name="cdotaccent" horiz-adv-x="443" d="M266 708H361L349 618H254L266 708ZM237 -12Q137 -12 91 42T45 189Q45 203 46 218T49 250L54 287Q63 354 85 399T138 471T208 511T290 523Q337 523 366 511T421 482L411 417Q383 431 355
442T286 453Q259 453 236 445T193 418T161 367T141 289L135 245Q133 229 132 215T131 187Q131 120 159 89T247 58Q289 58 322 68T376 86L367 20Q347 9 312 -1T237 -12Z" />
<glyph unicode="&#x10c;" glyph-name="Ccaron" horiz-adv-x="536" d="M306 -12Q179 -12 118 55T57 248Q57 274 59 302T67 360L71 384Q87 483 118 545T189 643T277 692T373 705Q426 705 468 695T537 670L526 592Q491 610 456 619T368 629Q333 629 301 619T242 582T195
507T162 381L158 355Q153 323 151 295T148 241Q148 153 186 109T317 65Q359 65 398 74T470 99L458 20Q426 3 386 -4T306 -12ZM428 750H315L237 879H307L320 864Q329 853 337 841T354 817Q362 804 370 791H378Q388 804 399 817Q408 828 419 840T444 864L462 879H538L428
750Z" />
<glyph unicode="&#x10d;" glyph-name="ccaron" horiz-adv-x="443" d="M237 -12Q137 -12 91 42T45 189Q45 203 46 218T49 250L54 287Q63 354 85 399T138 471T208 511T290 523Q337 523 366 511T421 482L411 417Q383 431 355 442T286 453Q259 453 236 445T193 418T161
367T141 289L135 245Q133 229 132 215T131 187Q131 120 159 89T247 58Q289 58 322 68T376 86L367 20Q347 9 312 -1T237 -12ZM147 749H219L245 712Q252 702 259 689T271 665Q277 652 283 638H291Q300 652 310 665Q318 676 328 689T349 712L385 749H459L338 597H228L147
749Z" />
<glyph unicode="&#x10e;" glyph-name="Dcaron" horiz-adv-x="606" d="M146 692H303Q374 692 425 678T509 634T558 557T574 442Q574 401 568 350L564 316Q544 149 460 75T235 0H49L146 692ZM237 71Q282 71 321 80T390 117T441 192T472 318L476 349Q480 380 482
405T484 454Q484 506 473 538T437 589T376 613T288 620H219Q219 605 218 590Q217 577 216 563T213 535L160 156Q158 143 155 129T149 101Q145 86 142 71H237ZM404 750H291L213 879H283L296 864Q305 853 313 841T330 817Q338 804 346 791H354Q364 804 375 817Q384
828 395 840T420 864L438 879H514L404 750Z" />
<glyph unicode="&#x10f;" glyph-name="dcaron" horiz-adv-x="537" d="M191 -12Q160 -12 133 -2T85 31T52 89T40 172Q40 204 46 242L53 287Q63 353 84 398T133 470T196 510T269 523Q315 523 342 508T389 471H399V504Q399 518 400 535T403 567L424 719H509L408 0H344V56H334Q308
27 274 8T191 -12ZM223 57Q263 57 292 73T341 110L382 412Q368 429 343 441T276 454Q252 454 230 447T191 420T160 368T139 282L133 241Q127 202 127 173Q127 137 134 115T155 79T186 62T223 57ZM592 719H679L613 539H550L592 719Z" />
<glyph unicode="&#x110;" glyph-name="Dcroat" horiz-adv-x="626" d="M42 382H127Q127 397 128 414T132 447L166 692H323Q394 692 445 678T529 634T578 557T594 442Q594 401 588 350L584 316Q564 149 480 75T255 0H69L103 243Q105 257 109 274T117 308H31L42 382ZM257
71Q302 71 341 80T410 117T461 192T492 318L496 349Q500 380 502 405T504 454Q504 506 493 538T457 589T396 613T308 620H239Q239 605 238 590Q237 577 236 563T233 535L221 447Q219 432 215 415T207 382H378L367 308H196Q195 292 195 275T192 243L180 156Q178
143 175 129T169 101Q165 86 162 71H257Z" />
<glyph unicode="&#x111;" glyph-name="dcroat" horiz-adv-x="527" d="M399 527Q400 535 401 543T405 559Q407 567 408 574H224L232 630H416V651Q416 660 416 670T419 689L424 719H509L504 689Q502 681 500 671T496 651Q493 640 491 630H581L573 574H483V555Q483
547 482 537T480 518L408 0H344V56H334Q308 27 274 8T191 -12Q160 -12 133 -2T85 31T52 89T40 172Q40 204 46 242L53 287Q63 353 83 395T132 462T194 497T267 507Q313 507 340 492T387 455H397Q396 466 396 477Q396 487 396 500T399 527ZM223 57Q263 57 292 73T341
110L380 396Q366 413 341 425T274 438Q250 438 229 433T190 412T159 365T139 282L133 241Q127 202 127 173Q127 137 134 115T155 79T186 62T223 57Z" />
<glyph unicode="&#x112;" glyph-name="Emacron" horiz-adv-x="521" d="M146 692H515L505 619H219Q219 605 218 591Q217 579 217 565T214 540L205 475Q203 463 201 450T195 424L188 396H409L398 323H177Q177 309 176 295Q175 283 175 269T172 244L159 152Q157 140
155 127T149 101L142 73H429L419 0H49L146 692ZM220 837H490L481 774H211L220 837Z" />
<glyph unicode="&#x113;" glyph-name="emacron" horiz-adv-x="473" d="M244 -12Q143 -12 92 40T40 186Q40 203 42 220T47 257L53 292Q71 398 125 460T269 523Q315 523 347 510T398 473T427 417T436 346Q436 312 430 276L424 238H127Q124 211 124 188Q124 149 133
124T161 83T205 62T267 56Q302 56 330 64T387 85L378 20Q358 9 325 -1T244 -12ZM268 457Q218 457 183 418T134 285Q150 288 178 292T235 296H351Q353 312 354 326T355 353Q355 406 335 431T268 457ZM175 697H445L436 634H166L175 697Z" />
<glyph unicode="&#x114;" glyph-name="Ebreve" horiz-adv-x="521" d="M355 745Q320 745 294 755T250 784T224 827T216 879H282Q288 850 305 834T355 817Q419 817 439 879H506Q498 817 458 781T355 745ZM146 692H515L505 619H219Q219 605 218 591Q217 579 217 565T214
540L205 475Q203 463 201 450T195 424L188 396H409L398 323H177Q177 309 176 295Q175 283 175 269T172 244L159 152Q157 140 155 127T149 101L142 73H429L419 0H49L146 692Z" />
<glyph unicode="&#x115;" glyph-name="ebreve" horiz-adv-x="473" d="M305 595Q269 595 241 606T194 637T166 683T159 742H225Q228 702 248 685T306 667Q339 667 359 684T390 742H457Q449 673 408 634T305 595ZM244 -12Q143 -12 92 40T40 186Q40 203 42 220T47
257L53 292Q71 398 125 460T269 523Q315 523 347 510T398 473T427 417T436 346Q436 312 430 276L424 238H127Q124 211 124 188Q124 149 133 124T161 83T205 62T267 56Q302 56 330 64T387 85L378 20Q358 9 325 -1T244 -12ZM268 457Q218 457 183 418T134 285Q150
288 178 292T235 296H351Q353 312 354 326T355 353Q355 406 335 431T268 457Z" />
<glyph unicode="&#x116;" glyph-name="Edotaccent" horiz-adv-x="521" d="M309 852H406L394 762H297L309 852ZM146 692H515L505 619H219Q219 605 218 591Q217 579 217 565T214 540L205 475Q203 463 201 450T195 424L188 396H409L398 323H177Q177 309 176 295Q175
283 175 269T172 244L159 152Q157 140 155 127T149 101L142 73H429L419 0H49L146 692Z" />
<glyph unicode="&#x117;" glyph-name="edotaccent" horiz-adv-x="473" d="M264 708H359L347 618H252L264 708ZM244 -12Q143 -12 92 40T40 186Q40 203 42 220T47 257L53 292Q71 398 125 460T269 523Q315 523 347 510T398 473T427 417T436 346Q436 312 430 276L424
238H127Q124 211 124 188Q124 149 133 124T161 83T205 62T267 56Q302 56 330 64T387 85L378 20Q358 9 325 -1T244 -12ZM268 457Q218 457 183 418T134 285Q150 288 178 292T235 296H351Q353 312 354 326T355 353Q355 406 335 431T268 457Z" />
<glyph unicode="&#x118;" glyph-name="Eogonek" horiz-adv-x="521" d="M49 0L146 692H515L505 619H219Q219 605 218 591Q217 579 217 565T214 540L205 475Q203 463 201 450T195 424L188 396H409L398 323H177Q177 309 176 295Q175 283 175 269T172 244L159 152Q157
140 155 127T149 101L142 73H429L419 0H376Q350 -18 330 -37T309 -80Q309 -110 347 -110Q359 -110 377 -107L370 -158Q359 -163 345 -166T313 -170Q273 -170 251 -151T229 -101Q229 -63 255 -40T316 0V10Q303 7 280 4T219 0H49Z" />
<glyph unicode="&#x119;" glyph-name="eogonek" horiz-adv-x="473" d="M267 -170Q227 -170 205 -151T183 -103Q183 -70 205 -49T257 -15V-6Q202 -11 162 1T94 38T54 101T40 186Q40 203 42 220T47 257L53 292Q71 398 125 460T269 523Q315 523 347 510T398 473T427
417T436 346Q436 312 430 276L424 238H127Q124 211 124 188Q124 149 133 124T161 83T205 62T267 56Q302 56 330 64T387 85L378 20Q355 8 334 -3T298 -27T273 -53T263 -80Q263 -110 301 -110Q313 -110 331 -107L324 -158Q313 -163 299 -166T267 -170ZM268 457Q218
457 183 418T134 285Q150 288 178 292T235 296H351Q353 312 354 326T355 353Q355 406 335 431T268 457Z" />
<glyph unicode="&#x11a;" glyph-name="Ecaron" horiz-adv-x="521" d="M146 692H515L505 619H219Q219 605 218 591Q217 579 217 565T214 540L205 475Q203 463 201 450T195 424L188 396H409L398 323H177Q177 309 176 295Q175 283 175 269T172 244L159 152Q157 140
155 127T149 101L142 73H429L419 0H49L146 692ZM392 750H279L201 879H271L284 864Q293 853 301 841T318 817Q326 804 334 791H342Q352 804 363 817Q372 828 383 840T408 864L426 879H502L392 750Z" />
<glyph unicode="&#x11b;" glyph-name="ecaron" horiz-adv-x="473" d="M244 -12Q143 -12 92 40T40 186Q40 203 42 220T47 257L53 292Q71 398 125 460T269 523Q315 523 347 510T398 473T427 417T436 346Q436 312 430 276L424 238H127Q124 211 124 188Q124 149 133
124T161 83T205 62T267 56Q302 56 330 64T387 85L378 20Q358 9 325 -1T244 -12ZM268 457Q218 457 183 418T134 285Q150 288 178 292T235 296H351Q353 312 354 326T355 353Q355 406 335 431T268 457ZM155 749H227L253 712Q260 702 267 689T279 665Q285 652 291 638H299Q308
652 318 665Q326 676 336 689T357 712L393 749H467L346 597H236L155 749Z" />
<glyph unicode="&#x11c;" glyph-name="Gcircumflex" horiz-adv-x="609" d="M325 -12Q188 -12 124 53T59 252Q59 302 68 362L72 388Q86 479 117 540T190 638T284 690T391 705Q430 705 458 701T506 690T540 676T565 661L554 582Q543 589 529 597T495 613T449 626T387
631Q293 631 240 573T164 383L160 359Q150 303 150 251Q150 160 190 110T323 59Q333 59 347 60T377 63T407 68T433 75Q432 83 432 94Q432 103 432 115T435 141L443 205Q445 217 447 230T453 255Q457 268 460 280H325L335 352H548L503 23Q463 6 415 -3T325 -12ZM353
879H466L544 750H474L461 765Q452 775 443 788T427 812Q418 825 411 838H403Q393 825 382 812Q373 801 361 789T337 765L319 750H243L353 879Z" />
<glyph unicode="&#x11d;" glyph-name="gcircumflex" horiz-adv-x="514" d="M258 749H368L449 597H377L351 634Q344 644 337 657T325 681Q319 694 313 708H305Q296 694 286 681Q278 670 268 657T247 634L211 597H137L258 749ZM196 -172Q130 -172 90 -158T19 -123L28
-62Q55 -76 94 -88T189 -100Q242 -100 278 -77T321 1L323 18Q325 34 328 48T335 72Q339 83 343 93H334Q306 73 275 59T203 45Q170 45 142 54T92 85T59 140T47 223Q47 236 48 250T51 280L53 297Q60 357 79 399T125 469T185 508T254 520Q310 520 341 501T387 460H396L415
513H477L403 -10Q397 -51 379 -81T333 -132T270 -162T196 -172ZM238 108Q273 108 299 118T342 139L380 411Q363 427 337 438T267 450Q245 450 225 445T189 423T161 376T142 297L139 275Q137 260 136 247T135 221Q135 157 161 133T238 108Z" />
<glyph unicode="&#x11e;" glyph-name="Gbreve" horiz-adv-x="609" d="M387 745Q352 745 326 755T282 784T256 827T248 879H314Q320 850 337 834T387 817Q451 817 471 879H538Q530 817 490 781T387 745ZM325 -12Q188 -12 124 53T59 252Q59 302 68 362L72 388Q86
479 117 540T190 638T284 690T391 705Q430 705 458 701T506 690T540 676T565 661L554 582Q543 589 529 597T495 613T449 626T387 631Q293 631 240 573T164 383L160 359Q150 303 150 251Q150 160 190 110T323 59Q333 59 347 60T377 63T407 68T433 75Q432 83 432
94Q432 103 432 115T435 141L443 205Q445 217 447 230T453 255Q457 268 460 280H325L335 352H548L503 23Q463 6 415 -3T325 -12Z" />
<glyph unicode="&#x11f;" glyph-name="gbreve" horiz-adv-x="514" d="M196 -172Q130 -172 90 -158T19 -123L28 -62Q55 -76 94 -88T189 -100Q242 -100 278 -77T321 1L323 18Q325 34 328 48T335 72Q339 83 343 93H334Q306 73 275 59T203 45Q170 45 142 54T92 85T59
140T47 223Q47 236 48 250T51 280L53 297Q60 357 79 399T125 469T185 508T254 520Q310 520 341 501T387 460H396L415 513H477L403 -10Q397 -51 379 -81T333 -132T270 -162T196 -172ZM238 108Q273 108 299 118T342 139L380 411Q363 427 337 438T267 450Q245 450
225 445T189 423T161 376T142 297L139 275Q137 260 136 247T135 221Q135 157 161 133T238 108ZM315 595Q279 595 251 606T204 637T176 683T169 742H235Q238 702 258 685T316 667Q349 667 369 684T400 742H467Q459 673 418 634T315 595Z" />
<glyph unicode="&#x120;" glyph-name="Gdotaccent" horiz-adv-x="609" d="M325 -12Q188 -12 124 53T59 252Q59 302 68 362L72 388Q86 479 117 540T190 638T284 690T391 705Q430 705 458 701T506 690T540 676T565 661L554 582Q543 589 529 597T495 613T449 626T387
631Q293 631 240 573T164 383L160 359Q150 303 150 251Q150 160 190 110T323 59Q333 59 347 60T377 63T407 68T433 75Q432 83 432 94Q432 103 432 115T435 141L443 205Q445 217 447 230T453 255Q457 268 460 280H325L335 352H548L503 23Q463 6 415 -3T325 -12ZM359
852H456L444 762H347L359 852Z" />
<glyph unicode="&#x121;" glyph-name="gdotaccent" horiz-adv-x="514" d="M274 708H369L357 618H262L274 708ZM196 -172Q130 -172 90 -158T19 -123L28 -62Q55 -76 94 -88T189 -100Q242 -100 278 -77T321 1L323 18Q325 34 328 48T335 72Q339 83 343 93H334Q306
73 275 59T203 45Q170 45 142 54T92 85T59 140T47 223Q47 236 48 250T51 280L53 297Q60 357 79 399T125 469T185 508T254 520Q310 520 341 501T387 460H396L415 513H477L403 -10Q397 -51 379 -81T333 -132T270 -162T196 -172ZM238 108Q273 108 299 118T342 139L380
411Q363 427 337 438T267 450Q245 450 225 445T189 423T161 376T142 297L139 275Q137 260 136 247T135 221Q135 157 161 133T238 108Z" />
<glyph unicode="&#x122;" glyph-name="Gcommaaccent" horiz-adv-x="609" d="M325 -12Q188 -12 124 53T59 252Q59 302 68 362L72 388Q86 479 117 540T190 638T284 690T391 705Q430 705 458 701T506 690T540 676T565 661L554 582Q543 589 529 597T495 613T449 626T387
631Q293 631 240 573T164 383L160 359Q150 303 150 251Q150 160 190 110T323 59Q333 59 347 60T377 63T407 68T433 75Q432 83 432 94Q432 103 432 115T435 141L443 205Q445 217 447 230T453 255Q457 268 460 280H325L335 352H548L503 23Q463 6 415 -3T325 -12ZM201
-204Q216 -173 224 -141T237 -71H325Q320 -111 303 -144T263 -204H201Z" />
<glyph unicode="&#x123;" glyph-name="gcommaaccent" horiz-adv-x="514" d="M196 -172Q130 -172 90 -158T19 -123L28 -62Q55 -76 94 -88T189 -100Q242 -100 278 -77T321 1L323 18Q325 34 328 48T335 72Q339 83 343 93H334Q306 73 275 59T203 45Q170 45 142 54T92
85T59 140T47 223Q47 236 48 250T51 280L53 297Q60 357 79 399T125 469T185 508T254 520Q310 520 341 501T387 460H396L415 513H477L403 -10Q397 -51 379 -81T333 -132T270 -162T196 -172ZM238 108Q273 108 299 118T342 139L380 411Q363 427 337 438T267 450Q245
450 225 445T189 423T161 376T142 297L139 275Q137 260 136 247T135 221Q135 157 161 133T238 108ZM386 751Q371 720 363 688T350 618H262Q267 658 284 691T324 751H386Z" />
<glyph unicode="&#x124;" glyph-name="Hcircumflex" horiz-adv-x="629" d="M146 692H235L206 487Q201 456 195 427Q191 410 187 394H480Q481 410 482 427Q483 441 484 457T487 487L516 692H605L508 0H419L451 228Q453 242 456 258T462 288Q466 305 470 321H177Q176
305 175 288Q174 274 173 258T170 228L138 0H49L146 692ZM343 879H456L534 750H464L451 765Q442 775 433 788T417 812Q408 825 401 838H393Q383 825 372 812Q363 801 351 789T327 765L309 750H233L343 879Z" />
<glyph unicode="&#x125;" glyph-name="hcircumflex" horiz-adv-x="517" d="M138 719H223L198 541Q196 525 192 508T184 475Q180 457 175 441H185Q220 479 261 501T352 523Q407 523 436 495T466 408Q466 390 463 371L411 0H326L377 365Q384 413 368 432T313 451Q274
451 241 436T178 397L122 0H37L138 719ZM289 899H402L480 770H410L397 785Q388 795 379 808T363 832Q354 845 347 858H339Q329 845 318 832Q309 821 297 809T273 785L255 770H179L289 899Z" />
<glyph unicode="&#x126;" glyph-name="Hbar" horiz-adv-x="649" d="M518 0H429L458 207Q460 221 463 237T469 267Q473 284 477 300H184Q183 284 182 267Q181 253 180 237T177 207L148 0H59L120 440Q122 454 126 471T133 505H39L48 566H143Q143 581 144 598T147
631L156 692H245L236 631Q234 616 231 599T222 566H513Q513 581 514 598T517 631L526 692H615L606 631Q604 616 601 599T592 566H687L678 505H584Q584 489 583 472T579 440L518 0ZM214 505Q215 489 213 472T209 440Q204 410 200 393Q197 382 194 373H487V393Q487
411 490 440Q492 455 495 472T503 505H214Z" />
<glyph unicode="&#x127;" glyph-name="hbar" horiz-adv-x="527" d="M119 518Q121 526 123 536T127 555Q130 565 132 574H42L50 630H140V651Q140 660 140 670T143 689L148 719H233L228 689Q226 681 224 671T220 651Q217 640 215 630H399L391 574H207Q207 567 206
558Q205 550 205 540T202 519Q200 502 197 486T190 455Q186 439 183 424H193Q228 462 269 484T360 506Q415 506 444 478T473 391Q473 373 470 354L421 0H336L385 348Q392 396 376 415T321 434Q282 434 249 419T185 380L132 0H47L119 518Z" />
<glyph unicode="&#x128;" glyph-name="Itilde" horiz-adv-x="285" d="M159 692H248L151 0H62L159 692ZM311 751Q319 810 349 842T416 874Q435 874 452 867T486 850T516 834T544 826Q562 826 572 842T587 881H642Q634 822 608 789T544 756Q525 756 507 763T473
779T443 795T415 802Q397 802 385 788T366 751H311Z" />
<glyph unicode="&#x129;" glyph-name="itilde" horiz-adv-x="253" d="M120 513H205L133 0H48L120 513ZM279 612Q287 671 317 703T384 735Q403 735 419 728T450 711T478 695T504 687Q522 687 532 703T547 742H602Q594 683 568 650T504 617Q485 617 469 624T437
640T409 656T383 663Q365 663 353 649T334 612H279Z" />
<glyph unicode="&#x12a;" glyph-name="Imacron" horiz-adv-x="285" d="M344 837H614L605 774H335L344 837ZM159 692H248L151 0H62L159 692Z" />
<glyph unicode="&#x12b;" glyph-name="imacron" horiz-adv-x="283" d="M79 697H329L320 634H70L79 697ZM135 513H220L148 0H63L135 513Z" />
<glyph unicode="&#x12c;" glyph-name="Ibreve" horiz-adv-x="285" d="M479 745Q444 745 418 755T374 784T348 827T340 879H406Q412 850 429 834T479 817Q543 817 563 879H630Q622 817 582 781T479 745ZM159 692H248L151 0H62L159 692Z" />
<glyph unicode="&#x12d;" glyph-name="ibreve" horiz-adv-x="253" d="M120 513H205L133 0H48L120 513ZM439 595Q403 595 375 606T328 637T300 683T293 742H359Q362 702 382 685T440 667Q473 667 493 684T524 742H591Q583 673 542 634T439 595Z" />
<glyph unicode="&#x12e;" glyph-name="Iogonek" horiz-adv-x="285" d="M3 -101Q3 -72 19 -52T59 -18L159 692H248L151 0Q124 -18 104 -37T83 -80Q83 -110 121 -110Q133 -110 151 -107L144 -158Q133 -163 119 -166T87 -170Q47 -170 25 -151T3 -101Z" />
<glyph unicode="&#x12f;" glyph-name="iogonek" horiz-adv-x="253" d="M70 -170Q30 -170 8 -151T-14 -101Q-14 -72 3 -51T46 -15L120 513H205L133 0Q107 -18 87 -37T66 -80Q66 -110 104 -110Q116 -110 134 -107L127 -158Q116 -163 102 -166T70 -170ZM142 708H237L225
618H130L142 708Z" />
<glyph unicode="&#x130;" glyph-name="Idotaccent" horiz-adv-x="285" d="M433 852H530L518 762H421L433 852ZM159 692H248L151 0H62L159 692Z" />
<glyph unicode="&#x131;" glyph-name="dotlessi" horiz-adv-x="253" d="M120 513H205L133 0H48L120 513Z" />
<glyph unicode="&#x132;" glyph-name="IJ" horiz-adv-x="704" d="M159 692H248L151 0H62L159 692ZM421 -11Q377 -11 348 -3T293 21L303 89Q321 81 348 73T416 65Q453 65 482 85T519 157L594 692H682L606 147Q596 78 549 34T421 -11Z" />
<glyph unicode="&#x133;" glyph-name="ij" horiz-adv-x="506" d="M120 513H205L133 0H48L120 513ZM142 708H237L225 618H130L142 708ZM242 -170Q211 -170 192 -166T155 -153L164 -94Q176 -96 190 -98T218 -100Q251 -100 271 -84T299 -15L373 513H458L381 -31Q372
-94 339 -132T242 -170ZM395 708H490L478 618H383L395 708Z" />
<glyph unicode="&#x134;" glyph-name="Jcircumflex" horiz-adv-x="419" d="M321 879H434L512 750H442L429 765Q420 775 411 788T395 812Q386 825 379 838H371Q361 825 350 812Q341 801 329 789T305 765L287 750H211L321 879ZM136 -11Q92 -11 63 -3T8 21L18 89Q36
81 63 73T131 65Q168 65 197 85T234 157L309 692H397L321 147Q311 78 264 34T136 -11Z" />
<glyph unicode="&#x135;" glyph-name="jcircumflex" horiz-adv-x="253" d="M-11 -170Q-42 -170 -61 -166T-98 -153L-89 -94Q-77 -96 -63 -98T-35 -100Q-2 -100 18 -84T46 -15L120 513H205L128 -31Q119 -94 86 -132T-11 -170ZM391 749H501L582 597H510L484 634Q477
644 470 657T458 681Q452 694 446 708H438Q429 694 419 681Q411 670 401 657T380 634L344 597H270L391 749Z" />
<glyph unicode="&#x136;" glyph-name="Kcommaaccent" horiz-adv-x="562" d="M217 351L488 692H587L406 468Q391 449 373 429T339 391Q321 371 302 351Q315 332 328 312Q339 295 351 275T373 235L496 0H400L217 351ZM145 692H235L202 458Q199 439 196 420T189 385Q185
367 182 349Q181 331 179 312Q177 295 175 276T171 238L138 0H48L145 692ZM169 -204Q184 -173 192 -141T205 -71H293Q288 -111 271 -144T231 -204H169Z" />
<glyph unicode="&#x137;" glyph-name="kcommaaccent" horiz-adv-x="474" d="M141 719H225L182 411Q178 386 175 361T167 315Q163 291 158 269Q157 247 154 223Q152 203 149 178T142 127L124 0H40L141 719ZM194 270L386 513H478L340 341Q328 327 316 314T292 292Q280
281 267 272Q275 261 285 248Q293 237 303 222T322 189L416 0H327L194 270ZM126 -204Q141 -173 149 -141T162 -71H250Q245 -111 228 -144T188 -204H126Z" />
<glyph unicode="&#x139;" glyph-name="Lacute" horiz-adv-x="482" d="M146 692H235L161 166Q159 150 156 134T149 104Q145 88 142 73H413L403 0H49L146 692ZM488 750H418L484 886H579L488 750Z" />
<glyph unicode="&#x13a;" glyph-name="lacute" horiz-adv-x="268" d="M148 -7Q98 -7 73 18T56 96L143 719H228L141 102Q137 78 144 68T176 57Q184 57 197 58T222 62L214 5Q199 -1 180 -4T148 -7ZM481 770H411L477 906H572L481 770Z" />
<glyph unicode="&#x13b;" glyph-name="Lcommaaccent" horiz-adv-x="482" d="M146 692H235L161 166Q159 150 156 134T149 104Q145 88 142 73H413L403 0H49L146 692ZM145 -204Q160 -173 168 -141T181 -71H269Q264 -111 247 -144T207 -204H145Z" />
<glyph unicode="&#x13c;" glyph-name="lcommaaccent" horiz-adv-x="268" d="M148 -7Q98 -7 73 18T56 96L143 719H228L141 102Q137 78 144 68T176 57Q184 57 197 58T222 62L214 5Q199 -1 180 -4T148 -7ZM285 -204Q300 -173 308 -141T321 -71H409Q404 -111 387 -144T347
-204H285Z" />
<glyph unicode="&#x13d;" glyph-name="Lcaron" horiz-adv-x="482" d="M373 719H460L387 509H324L373 719ZM146 692H235L161 166Q159 150 156 134T149 104Q145 88 142 73H413L403 0H49L146 692Z" />
<glyph unicode="&#x13e;" glyph-name="lcaron" horiz-adv-x="288" d="M148 -7Q98 -7 73 18T56 96L143 719H228L141 102Q137 78 144 68T176 57Q184 57 197 58T222 62L214 5Q199 -1 180 -4T148 -7ZM311 719H398L332 539H269L311 719Z" />
<glyph unicode="&#x13f;" glyph-name="Ldot" horiz-adv-x="492" d="M146 692H235L161 166Q159 150 156 134T149 104Q145 88 142 73H413L403 0H49L146 692ZM350 405H449L435 302H336L350 405Z" />
<glyph unicode="&#x140;" glyph-name="ldot" horiz-adv-x="392" d="M148 -7Q98 -7 73 18T56 96L143 719H228L141 102Q137 78 144 68T176 57Q184 57 197 58T222 62L214 5Q199 -1 180 -4T148 -7ZM290 428H389L375 325H276L290 428Z" />
<glyph unicode="&#x141;" glyph-name="Lslash" horiz-adv-x="502" d="M31 306L123 343Q123 359 124 376T127 411L166 692H255L221 445Q219 428 215 411T207 378L427 468L417 396L196 306Q196 290 195 273T192 239L181 166Q179 151 176 135T169 104Q165 88 162
73H433L423 0H69L98 205Q100 221 103 238T111 271L21 234L31 306Z" />
<glyph unicode="&#x142;" glyph-name="lslash" horiz-adv-x="318" d="M45 362L128 406Q128 421 129 437T133 471L168 719H253L224 515Q222 500 218 483T210 449L325 510L314 436L199 375Q199 360 198 342T195 305L166 102Q162 78 169 68T201 57Q209 57 222 58T247
62L239 5Q224 -1 205 -4T173 -7Q123 -7 98 18T81 96L104 259Q106 277 110 296T119 333L34 288L45 362Z" />
<glyph unicode="&#x143;" glyph-name="Nacute" horiz-adv-x="624" d="M146 692H248L381 334Q390 309 400 276T419 210Q429 173 438 135H448Q450 168 453 201Q455 228 458 258T465 308L519 692H599L502 0H411L273 389Q264 413 254 446T235 510Q224 545 215 583H204Q202
551 199 520Q197 494 194 465T188 416L129 0H49L146 692ZM423 750H353L419 886H514L423 750Z" />
<glyph unicode="&#x144;" glyph-name="nacute" horiz-adv-x="517" d="M109 513H179L175 441H185Q220 479 261 501T352 523Q407 523 436 495T466 408Q466 390 463 371L411 0H326L377 365Q384 413 368 432T313 451Q274 451 241 436T178 397L122 0H37L109 513ZM342
766H437L330 597H259L342 766Z" />
<glyph unicode="&#x145;" glyph-name="Ncommaaccent" horiz-adv-x="624" d="M146 692H248L381 334Q390 309 400 276T419 210Q429 173 438 135H448Q450 168 453 201Q455 228 458 258T465 308L519 692H599L502 0H411L273 389Q264 413 254 446T235 510Q224 545 215
583H204Q202 551 199 520Q197 494 194 465T188 416L129 0H49L146 692ZM185 -204Q200 -173 208 -141T221 -71H309Q304 -111 287 -144T247 -204H185Z" />
<glyph unicode="&#x146;" glyph-name="ncommaaccent" horiz-adv-x="517" d="M109 513H179L175 441H185Q220 479 261 501T352 523Q407 523 436 495T466 408Q466 390 463 371L411 0H326L377 365Q384 413 368 432T313 451Q274 451 241 436T178 397L122 0H37L109 513ZM136
-204Q151 -173 159 -141T172 -71H260Q255 -111 238 -144T198 -204H136Z" />
<glyph unicode="&#x147;" glyph-name="Ncaron" horiz-adv-x="624" d="M146 692H248L381 334Q390 309 400 276T419 210Q429 173 438 135H448Q450 168 453 201Q455 228 458 258T465 308L519 692H599L502 0H411L273 389Q264 413 254 446T235 510Q224 545 215 583H204Q202
551 199 520Q197 494 194 465T188 416L129 0H49L146 692ZM441 750H328L250 879H320L333 864Q342 853 350 841T367 817Q375 804 383 791H391Q401 804 412 817Q421 828 432 840T457 864L475 879H551L441 750Z" />
<glyph unicode="&#x148;" glyph-name="ncaron" horiz-adv-x="517" d="M109 513H179L175 441H185Q220 479 261 501T352 523Q407 523 436 495T466 408Q466 390 463 371L411 0H326L377 365Q384 413 368 432T313 451Q274 451 241 436T178 397L122 0H37L109 513ZM161
749H233L259 712Q266 702 273 689T285 665Q291 652 297 638H305Q314 652 324 665Q332 676 342 689T363 712L399 749H473L352 597H242L161 749Z" />
<glyph unicode="&#x149;" glyph-name="napostrophe" horiz-adv-x="612" d="M204 513H274L270 441H280Q315 479 356 501T447 523Q502 523 531 495T561 408Q561 390 558 371L506 0H421L472 365Q479 413 463 432T408 451Q369 451 336 436T273 397L217 0H132L204 513ZM257
442Q271 468 282 494T302 550T318 614T334 692H426Q415 610 387 548T318 442H257Z" />
<glyph unicode="&#x14a;" glyph-name="Eng" horiz-adv-x="624" d="M500 -12Q489 -88 446 -129T320 -170Q294 -170 272 -165T228 -148L238 -82Q254 -88 274 -92T317 -97Q354 -97 380 -80T416 -14L273 389Q264 413 254 446T235 510Q224 545 215 583H204Q202 551
199 520Q197 494 194 465T188 416L129 0H49L146 692H248L381 334Q390 309 400 276T419 210Q429 173 438 135H448Q450 168 453 201Q455 228 458 258T465 308L519 692H599L500 -12Z" />
<glyph unicode="&#x14b;" glyph-name="eng" horiz-adv-x="517" d="M109 513H179L175 441H185Q220 479 261 501T352 523Q407 523 436 495T466 408Q466 390 463 371L406 -31Q397 -94 364 -132T267 -170Q236 -170 217 -166T180 -153L189 -94Q201 -96 215 -98T243
-100Q276 -100 296 -84T324 -15L377 365Q384 413 368 432T313 451Q274 451 241 436T178 397L122 0H37L109 513Z" />
<glyph unicode="&#x14c;" glyph-name="Omacron" horiz-adv-x="636" d="M298 -12Q180 -12 118 52T55 250Q55 273 57 298T63 351L67 378Q80 468 107 530T173 631T260 687T362 705Q479 705 542 640T606 440Q606 417 604 393T598 342L594 315Q580 221 552 159T485
58T399 4T298 -12ZM301 60Q339 60 370 72T427 113T470 192T499 315L503 343Q512 406 512 455Q512 545 477 589T361 633Q320 633 288 620T230 577T188 498T160 378L156 350Q147 287 147 238Q147 151 181 106T301 60ZM264 837H534L525 774H255L264 837Z" />
<glyph unicode="&#x14d;" glyph-name="omacron" horiz-adv-x="508" d="M228 -12Q136 -12 90 40T43 189Q43 203 44 218T47 250L52 287Q60 349 81 393T132 467T200 509T283 523Q373 523 419 472T465 324Q465 309 464 294T460 261L455 225Q446 161 426 116T377 43T310
1T228 -12ZM231 53Q291 53 322 94T368 223L375 268Q377 284 378 298T380 326Q380 395 352 426T276 458Q223 458 187 420T139 288L133 241Q131 225 130 212T129 185Q129 113 157 83T231 53ZM180 697H450L441 634H171L180 697Z" />
<glyph unicode="&#x14e;" glyph-name="Obreve" horiz-adv-x="636" d="M298 -12Q180 -12 118 52T55 250Q55 273 57 298T63 351L67 378Q80 468 107 530T173 631T260 687T362 705Q479 705 542 640T606 440Q606 417 604 393T598 342L594 315Q580 221 552 159T485 58T399
4T298 -12ZM301 60Q339 60 370 72T427 113T470 192T499 315L503 343Q512 406 512 455Q512 545 477 589T361 633Q320 633 288 620T230 577T188 498T160 378L156 350Q147 287 147 238Q147 151 181 106T301 60ZM399 745Q364 745 338 755T294 784T268 827T260 879H326Q332
850 349 834T399 817Q463 817 483 879H550Q542 817 502 781T399 745Z" />
<glyph unicode="&#x14f;" glyph-name="obreve" horiz-adv-x="508" d="M228 -12Q136 -12 90 40T43 189Q43 203 44 218T47 250L52 287Q60 349 81 393T132 467T200 509T283 523Q373 523 419 472T465 324Q465 309 464 294T460 261L455 225Q446 161 426 116T377 43T310
1T228 -12ZM231 53Q291 53 322 94T368 223L375 268Q377 284 378 298T380 326Q380 395 352 426T276 458Q223 458 187 420T139 288L133 241Q131 225 130 212T129 185Q129 113 157 83T231 53ZM310 595Q274 595 246 606T199 637T171 683T164 742H230Q233 702 253 685T311
667Q344 667 364 684T395 742H462Q454 673 413 634T310 595Z" />
<glyph unicode="&#x150;" glyph-name="Ohungarumlaut" horiz-adv-x="636" d="M481 886H563L495 750H428L481 886ZM330 886H412L344 750H277L330 886ZM298 -12Q180 -12 118 52T55 250Q55 273 57 298T63 351L67 378Q80 468 107 530T173 631T260 687T362 705Q479
705 542 640T606 440Q606 417 604 393T598 342L594 315Q580 221 552 159T485 58T399 4T298 -12ZM301 60Q339 60 370 72T427 113T470 192T499 315L503 343Q512 406 512 455Q512 545 477 589T361 633Q320 633 288 620T230 577T188 498T160 378L156 350Q147 287 147
238Q147 151 181 106T301 60Z" />
<glyph unicode="&#x151;" glyph-name="ohungarumlaut" horiz-adv-x="508" d="M408 766H490L406 597H339L408 766ZM257 766H339L255 597H188L257 766ZM228 -12Q136 -12 90 40T43 189Q43 203 44 218T47 250L52 287Q60 349 81 393T132 467T200 509T283 523Q373 523
419 472T465 324Q465 309 464 294T460 261L455 225Q446 161 426 116T377 43T310 1T228 -12ZM231 53Q291 53 322 94T368 223L375 268Q377 284 378 298T380 326Q380 395 352 426T276 458Q223 458 187 420T139 288L133 241Q131 225 130 212T129 185Q129 113 157 83T231
53Z" />
<glyph unicode="&#x152;" glyph-name="OE" horiz-adv-x="818" d="M330 0Q189 0 124 62T58 261Q58 304 64 355L68 389Q77 470 104 527T174 621T271 675T392 692H812L802 619H536Q536 605 535 591Q534 579 534 565T531 540L522 475Q520 463 518 450T512 424L505
396H706L695 323H494Q494 309 493 295Q492 283 492 269T489 244L476 152Q474 140 472 127T466 101L459 73H726L716 0H330ZM382 72Q382 87 383 102Q384 115 385 129T388 157L441 536Q443 548 446 563T452 591Q456 606 459 621H390Q346 621 309 613T241 579T191 508T160
387L156 356Q152 326 150 300T148 250Q148 196 159 162T195 107T257 80T345 72H382Z" />
<glyph unicode="&#x153;" glyph-name="oe" horiz-adv-x="799" d="M225 -12Q133 -12 88 40T43 187Q43 202 44 217T47 250L52 287Q60 349 80 393T130 467T198 509T280 523Q346 523 380 493T428 412H436Q460 463 498 493T597 523Q643 523 674 510T725 473T753 417T762
347Q762 313 756 276L750 238H453Q450 211 450 190Q450 150 459 124T487 83T532 62T593 56Q628 56 656 64T713 85L704 20Q684 9 651 -1T570 -12Q496 -12 457 15T400 96H392Q366 40 326 14T225 -12ZM228 53Q288 53 321 94T368 223L375 268Q377 283 378 297T380 324Q380
393 351 425T273 458Q220 458 186 420T139 288L133 241Q131 224 130 210T129 182Q129 111 156 82T228 53ZM596 457Q571 457 550 448T510 418T480 364T460 285Q476 288 504 292T561 296H677Q679 313 680 327T682 355Q682 407 662 432T596 457Z" />
<glyph unicode="&#x154;" glyph-name="Racute" horiz-adv-x="569" d="M146 692H333Q430 692 478 644T527 515Q527 432 488 386T375 320L374 310Q380 299 387 285Q399 261 413 222L489 0H397L301 291H173Q173 276 172 261Q171 248 170 234T167 207L138 0H49L146
692ZM293 360Q365 360 400 397T436 515Q436 564 411 592T325 620H219Q219 605 218 591Q217 579 217 565T214 540L200 440Q198 428 196 414T190 388L183 360H293ZM374 750H304L370 886H465L374 750Z" />
<glyph unicode="&#x155;" glyph-name="racute" horiz-adv-x="358" d="M109 513H179L174 432H184Q221 474 265 496T363 519L351 436Q327 437 303 433T255 422T211 405T176 383L122 0H37L109 513ZM547 766H642L535 597H464L547 766Z" />
<glyph unicode="&#x156;" glyph-name="Rcommaaccent" horiz-adv-x="569" d="M146 692H333Q430 692 478 644T527 515Q527 432 488 386T375 320L374 310Q380 299 387 285Q399 261 413 222L489 0H397L301 291H173Q173 276 172 261Q171 248 170 234T167 207L138 0H49L146
692ZM293 360Q365 360 400 397T436 515Q436 564 411 592T325 620H219Q219 605 218 591Q217 579 217 565T214 540L200 440Q198 428 196 414T190 388L183 360H293ZM163 -204Q178 -173 186 -141T199 -71H287Q282 -111 265 -144T225 -204H163Z" />
<glyph unicode="&#x157;" glyph-name="rcommaaccent" horiz-adv-x="358" d="M109 513H179L174 432H184Q221 474 265 496T363 519L351 436Q327 437 303 433T255 422T211 405T176 383L122 0H37L109 513ZM245 -204Q260 -173 268 -141T281 -71H369Q364 -111 347 -144T307
-204H245Z" />
<glyph unicode="&#x158;" glyph-name="Rcaron" horiz-adv-x="569" d="M392 750H279L201 879H271L284 864Q293 853 301 841T318 817Q326 804 334 791H342Q352 804 363 817Q372 828 383 840T408 864L426 879H502L392 750ZM146 692H333Q430 692 478 644T527 515Q527
432 488 386T375 320L374 310Q380 299 387 285Q399 261 413 222L489 0H397L301 291H173Q173 276 172 261Q171 248 170 234T167 207L138 0H49L146 692ZM293 360Q365 360 400 397T436 515Q436 564 411 592T325 620H219Q219 605 218 591Q217 579 217 565T214 540L200
440Q198 428 196 414T190 388L183 360H293Z" />
<glyph unicode="&#x159;" glyph-name="rcaron" horiz-adv-x="358" d="M371 749H443L469 712Q476 702 483 689T495 665Q501 652 507 638H515Q524 652 534 665Q542 676 552 689T573 712L609 749H683L562 597H452L371 749ZM109 513H179L174 432H184Q221 474 265 496T363
519L351 436Q327 437 303 433T255 422T211 405T176 383L122 0H37L109 513Z" />
<glyph unicode="&#x15a;" glyph-name="Sacute" horiz-adv-x="499" d="M219 -12Q153 -12 109 3T32 39L42 111Q80 90 123 77T216 64Q279 64 313 96T347 189Q347 230 327 255T263 305L207 336Q156 364 130 406T103 509Q103 549 115 584T154 647T218 689T310 705Q371
705 410 690T475 655L464 581Q437 600 402 614T313 629Q253 629 221 599T188 513Q188 478 205 453T262 405L318 374Q343 360 365 343T403 305T429 256T439 194Q439 150 425 112T383 47T314 4T219 -12ZM355 750H285L351 886H446L355 750Z" />
<glyph unicode="&#x15b;" glyph-name="sacute" horiz-adv-x="398" d="M171 -12Q122 -12 84 -1T18 29L27 98Q57 81 89 69T172 57Q216 57 239 80T262 142Q262 169 249 186T201 218L150 240Q108 258 85 290T62 376Q62 441 103 482T225 523Q276 523 307 512T361 484L351
416Q329 432 296 444T225 456Q180 456 160 436T140 381Q140 349 154 334T194 308L245 287Q298 265 322 234T346 151Q346 75 301 32T171 -12ZM543 766H638L531 597H460L543 766Z" />
<glyph unicode="&#x15c;" glyph-name="Scircumflex" horiz-adv-x="499" d="M272 879H385L463 750H393L380 765Q371 775 362 788T346 812Q337 825 330 838H322Q312 825 301 812Q292 801 280 789T256 765L238 750H162L272 879ZM219 -12Q153 -12 109 3T32 39L42 111Q80
90 123 77T216 64Q279 64 313 96T347 189Q347 230 327 255T263 305L207 336Q156 364 130 406T103 509Q103 549 115 584T154 647T218 689T310 705Q371 705 410 690T475 655L464 581Q437 600 402 614T313 629Q253 629 221 599T188 513Q188 478 205 453T262 405L318
374Q343 360 365 343T403 305T429 256T439 194Q439 150 425 112T383 47T314 4T219 -12Z" />
<glyph unicode="&#x15d;" glyph-name="scircumflex" horiz-adv-x="398" d="M171 -12Q122 -12 84 -1T18 29L27 98Q57 81 89 69T172 57Q216 57 239 80T262 142Q262 169 249 186T201 218L150 240Q108 258 85 290T62 376Q62 441 103 482T225 523Q276 523 307 512T361
484L351 416Q329 432 296 444T225 456Q180 456 160 436T140 381Q140 349 154 334T194 308L245 287Q298 265 322 234T346 151Q346 75 301 32T171 -12ZM462 749H572L653 597H581L555 634Q548 644 541 657T529 681Q523 694 517 708H509Q500 694 490 681Q482 670 472
657T451 634L415 597H341L462 749Z" />
<glyph unicode="&#x15e;" glyph-name="Scedilla" horiz-adv-x="499" d="M89 -179Q102 -161 115 -141T139 -98T159 -53T173 -9Q125 -4 92 9T32 39L42 111Q80 90 123 77T216 64Q279 64 313 96T347 189Q347 230 327 255T263 305L207 336Q156 364 130 406T103 509Q103
549 115 584T154 647T218 689T310 705Q371 705 410 690T475 655L464 581Q437 600 402 614T313 629Q253 629 221 599T188 513Q188 478 205 453T262 405L318 374Q343 360 365 343T403 305T429 256T439 194Q439 152 426 116T387 52T323 8T236 -11Q230 -56 214 -102T175
-179H89Z" />
<glyph unicode="&#x15f;" glyph-name="scedilla" horiz-adv-x="398" d="M53 -179Q79 -144 103 -98T137 -10Q99 -7 70 3T18 29L27 98Q57 81 89 69T172 57Q216 57 239 80T262 142Q262 169 249 186T201 218L150 240Q108 258 85 290T62 376Q62 441 103 482T225 523Q276
523 307 512T361 484L351 416Q329 432 296 444T225 456Q180 456 160 436T140 381Q140 349 154 334T194 308L245 287Q298 265 322 234T346 151Q346 82 308 40T200 -10Q194 -55 178 -101T139 -179H53Z" />
<glyph unicode="&#x160;" glyph-name="Scaron" horiz-adv-x="499" d="M219 -12Q153 -12 109 3T32 39L42 111Q80 90 123 77T216 64Q279 64 313 96T347 189Q347 230 327 255T263 305L207 336Q156 364 130 406T103 509Q103 549 115 584T154 647T218 689T310 705Q371
705 410 690T475 655L464 581Q437 600 402 614T313 629Q253 629 221 599T188 513Q188 478 205 453T262 405L318 374Q343 360 365 343T403 305T429 256T439 194Q439 150 425 112T383 47T314 4T219 -12ZM366 750H253L175 879H245L258 864Q267 853 275 841T292 817Q300
804 308 791H316Q326 804 337 817Q346 828 357 840T382 864L400 879H476L366 750Z" />
<glyph unicode="&#x161;" glyph-name="scaron" horiz-adv-x="398" d="M171 -12Q122 -12 84 -1T18 29L27 98Q57 81 89 69T172 57Q216 57 239 80T262 142Q262 169 249 186T201 218L150 240Q108 258 85 290T62 376Q62 441 103 482T225 523Q276 523 307 512T361 484L351
416Q329 432 296 444T225 456Q180 456 160 436T140 381Q140 349 154 334T194 308L245 287Q298 265 322 234T346 151Q346 75 301 32T171 -12ZM367 749H439L465 712Q472 702 479 689T491 665Q497 652 503 638H511Q520 652 530 665Q538 676 548 689T569 712L605 749H679L558
597H448L367 749Z" />
<glyph unicode="&#x162;" glyph-name="Tcommaaccent" horiz-adv-x="527" d="M256 524Q258 538 261 554T267 585Q271 602 275 619H88L98 692H550L540 619H353Q352 602 351 585Q350 571 349 555T346 524L272 0H182L256 524ZM140 -204Q155 -173 163 -141T176 -71H264Q259
-111 242 -144T202 -204H140Z" />
<glyph unicode="&#x163;" glyph-name="tcommaaccent" horiz-adv-x="352" d="M198 -7Q141 -7 111 17T80 96Q80 112 83 130L116 364Q117 372 119 382T124 402Q127 413 129 423H51L61 490H139V511Q139 520 139 530T142 549L157 653H242L227 549Q225 541 223 531T219
511Q216 500 214 490H343L333 423H204V402Q204 393 203 383T201 364L169 133Q164 97 175 80T227 62Q244 62 262 65T294 73L286 13Q272 6 248 0T198 -7ZM335 -204Q350 -173 358 -141T371 -71H459Q454 -111 437 -144T397 -204H335Z" />
<glyph unicode="&#x164;" glyph-name="Tcaron" horiz-adv-x="527" d="M383 750H270L192 879H262L275 864Q284 853 292 841T309 817Q317 804 325 791H333Q343 804 354 817Q363 828 374 840T399 864L417 879H493L383 750ZM256 524Q258 538 261 554T267 585Q271 602
275 619H88L98 692H550L540 619H353Q352 602 351 585Q350 571 349 555T346 524L272 0H182L256 524Z" />
<glyph unicode="&#x165;" glyph-name="tcaron" horiz-adv-x="362" d="M198 -7Q141 -7 111 17T80 96Q80 112 83 130L116 364Q117 372 119 382T124 402Q127 413 129 423H51L61 490H139V511Q139 520 139 530T142 549L157 653H242L227 549Q225 541 223 531T219 511Q216
500 214 490H343L333 423H204V402Q204 393 203 383T201 364L169 133Q164 97 175 80T227 62Q244 62 262 65T294 73L286 13Q272 6 248 0T198 -7ZM361 739H448L382 559H319L361 739Z" />
<glyph unicode="&#x166;" glyph-name="Tbar" horiz-adv-x="527" d="M257 525Q259 540 262 556T268 587Q272 603 275 619H88L98 692H550L540 619H353Q352 602 351 585Q350 571 349 554T345 523L341 495Q339 480 335 464T327 432H478L469 368H319Q319 352 318 334T314
299L272 0H182L224 299Q226 316 230 334T238 368H87L96 432H248Q247 447 249 464T253 497L257 525Z" />
<glyph unicode="&#x167;" glyph-name="tbar" horiz-adv-x="352" d="M168 132Q163 95 174 79T227 62Q244 62 262 65T294 73L286 13Q272 6 248 0T198 -7Q141 -7 111 17T80 96Q80 112 83 130L92 194Q94 202 96 212T100 231Q103 241 105 251H27L35 312H113V332Q113
351 116 368Q117 376 119 386T124 404Q127 414 129 423H51L60 490H138Q138 500 139 511Q140 520 140 530T142 549L156 653H241L227 549Q225 541 223 531T219 511Q216 500 213 490H342L333 423H204V404Q204 396 203 386T201 368Q199 360 197 350T193 332Q190 322
188 312H317L309 251H180Q179 240 179 229Q178 220 178 209T176 190L168 132Z" />
<glyph unicode="&#x168;" glyph-name="Utilde" horiz-adv-x="619" d="M226 751Q234 810 264 842T331 874Q350 874 367 867T401 850T431 834T459 826Q477 826 487 842T502 881H557Q549 822 523 789T459 756Q440 756 422 763T388 779T358 795T330 802Q312 802 300
788T281 751H226ZM294 -12Q235 -12 194 2T126 42T88 104T75 183Q75 195 76 207T79 234L143 692H231L167 234Q165 220 164 208T163 185Q163 114 198 86T298 57Q325 57 349 63T394 86T428 135T449 216L515 692H597L530 209Q513 91 454 40T294 -12Z" />
<glyph unicode="&#x169;" glyph-name="utilde" horiz-adv-x="513" d="M155 612Q163 671 193 703T260 735Q279 735 295 728T326 711T354 695T380 687Q398 687 408 703T423 742H478Q470 683 444 650T380 617Q361 617 345 624T313 640T285 656T259 663Q241 663 229
649T210 612H155ZM164 -10Q111 -10 81 19T51 108Q51 125 54 145L106 513H191L141 154Q138 133 138 116T145 87T164 69T199 62Q239 62 273 78T334 112L390 513H475L403 0H338V63H329Q294 31 255 11T164 -10Z" />
<glyph unicode="&#x16a;" glyph-name="Umacron" horiz-adv-x="619" d="M294 -12Q235 -12 194 2T126 42T88 104T75 183Q75 195 76 207T79 234L143 692H231L167 234Q165 220 164 208T163 185Q163 114 198 86T298 57Q325 57 349 63T394 86T428 135T449 216L515 692H597L530
209Q513 91 454 40T294 -12ZM259 837H529L520 774H250L259 837Z" />
<glyph unicode="&#x16b;" glyph-name="umacron" horiz-adv-x="513" d="M164 -10Q111 -10 81 19T51 108Q51 125 54 145L106 513H191L141 154Q138 133 138 116T145 87T164 69T199 62Q239 62 273 78T334 112L390 513H475L403 0H338V63H329Q294 31 255 11T164 -10ZM185
697H455L446 634H176L185 697Z" />
<glyph unicode="&#x16c;" glyph-name="Ubreve" horiz-adv-x="619" d="M294 -12Q235 -12 194 2T126 42T88 104T75 183Q75 195 76 207T79 234L143 692H231L167 234Q165 220 164 208T163 185Q163 114 198 86T298 57Q325 57 349 63T394 86T428 135T449 216L515 692H597L530
209Q513 91 454 40T294 -12ZM394 745Q359 745 333 755T289 784T263 827T255 879H321Q327 850 344 834T394 817Q458 817 478 879H545Q537 817 497 781T394 745Z" />
<glyph unicode="&#x16d;" glyph-name="ubreve" horiz-adv-x="513" d="M164 -10Q111 -10 81 19T51 108Q51 125 54 145L106 513H191L141 154Q138 133 138 116T145 87T164 69T199 62Q239 62 273 78T334 112L390 513H475L403 0H338V63H329Q294 31 255 11T164 -10ZM306
595Q270 595 242 606T195 637T167 683T160 742H226Q229 702 249 685T307 667Q340 667 360 684T391 742H458Q450 673 409 634T306 595Z" />
<glyph unicode="&#x16e;" glyph-name="Uring" horiz-adv-x="619" d="M383 727Q359 727 339 735T305 758T282 791T273 832Q273 853 281 872T304 906T339 928T383 937Q407 937 427 929T461 906T484 873T493 832Q493 811 485 792T462 758T427 736T383 727ZM383 770Q410
770 427 787T444 832Q444 859 427 876T383 894Q356 894 339 877T322 832Q322 804 339 787T383 770ZM294 -12Q235 -12 194 2T126 42T88 104T75 183Q75 195 76 207T79 234L143 692H231L167 234Q165 220 164 208T163 185Q163 114 198 86T298 57Q325 57 349 63T394
86T428 135T449 216L515 692H597L530 209Q513 91 454 40T294 -12Z" />
<glyph unicode="&#x16f;" glyph-name="uring" horiz-adv-x="513" d="M164 -10Q111 -10 81 19T51 108Q51 125 54 145L106 513H191L141 154Q138 133 138 116T145 87T164 69T199 62Q239 62 273 78T334 112L390 513H475L403 0H338V63H329Q294 31 255 11T164 -10ZM317
587Q293 587 273 595T239 618T216 651T207 692Q207 713 215 732T238 766T273 788T317 797Q341 797 361 789T395 766T418 733T427 692Q427 671 419 652T396 618T361 596T317 587ZM317 630Q344 630 361 647T378 692Q378 719 361 736T317 754Q290 754 273 737T256
692Q256 664 273 647T317 630Z" />
<glyph unicode="&#x170;" glyph-name="Uhungarumlaut" horiz-adv-x="619" d="M476 886H558L490 750H423L476 886ZM325 886H407L339 750H272L325 886ZM294 -12Q235 -12 194 2T126 42T88 104T75 183Q75 195 76 207T79 234L143 692H231L167 234Q165 220 164 208T163
185Q163 114 198 86T298 57Q325 57 349 63T394 86T428 135T449 216L515 692H597L530 209Q513 91 454 40T294 -12Z" />
<glyph unicode="&#x171;" glyph-name="uhungarumlaut" horiz-adv-x="513" d="M413 766H495L411 597H344L413 766ZM262 766H344L260 597H193L262 766ZM164 -10Q111 -10 81 19T51 108Q51 125 54 145L106 513H191L141 154Q138 133 138 116T145 87T164 69T199 62Q239
62 273 78T334 112L390 513H475L403 0H338V63H329Q294 31 255 11T164 -10Z" />
<glyph unicode="&#x172;" glyph-name="Uogonek" horiz-adv-x="619" d="M276 -7Q175 -7 125 42T75 183Q75 195 76 207T79 234L143 692H231L167 234Q165 220 164 208T163 185Q163 114 198 86T298 57Q325 57 349 63T394 86T428 135T449 216L515 692H597L530 209Q519
126 487 80T404 8Q380 -4 359 -14T323 -34T300 -55T291 -80Q291 -110 329 -110Q341 -110 359 -107L352 -158Q341 -163 327 -166T295 -170Q255 -170 233 -151T211 -102Q211 -85 217 -72T232 -49T253 -30T276 -16V-7Z" />
<glyph unicode="&#x173;" glyph-name="uogonek" horiz-adv-x="513" d="M340 -170Q300 -170 278 -151T256 -101Q256 -65 280 -43T338 -3V63H329Q294 31 255 11T164 -10Q111 -10 81 19T51 108Q51 125 54 145L106 513H191L141 154Q135 111 145 87T199 62Q239 62 273
78T334 112L390 513H475L403 0Q377 -18 357 -37T336 -80Q336 -110 374 -110Q386 -110 404 -107L397 -158Q386 -163 372 -166T340 -170Z" />
<glyph unicode="&#x174;" glyph-name="Wcircumflex" horiz-adv-x="788" d="M89 692H177L196 319Q198 280 198 236T197 155Q196 111 195 69H204Q215 111 226 153Q236 189 247 230T271 306L404 692H505L531 317Q534 272 534 228T535 148Q535 107 534 69H544Q553
111 564 153Q573 189 584 230T607 306L736 692H821L584 0H469L447 369Q445 407 445 449T445 528Q446 569 448 610H439Q430 570 419 530Q410 495 399 456T376 382L246 0H131L89 692ZM419 879H532L610 750H540L527 765Q518 775 509 788T493 812Q484 825 477 838H469Q459
825 448 812Q439 801 427 789T403 765L385 750H309L419 879Z" />
<glyph unicode="&#x175;" glyph-name="wcircumflex" horiz-adv-x="703" d="M71 513H158L173 242Q175 211 175 179T175 121Q175 90 174 61H184Q193 93 203 125Q211 152 221 182T241 237L346 513H440L460 242Q462 217 463 186T464 127V61H474Q483 93 492 125Q500
152 509 182T527 237L627 513H705L514 0H407L389 241Q387 265 386 297T384 358Q383 392 383 428H373Q362 392 351 358Q342 329 332 297T312 241L221 0H115L71 513ZM365 749H475L556 597H484L458 634Q451 644 444 657T432 681Q426 694 420 708H412Q403 694 393 681Q385
670 375 657T354 634L318 597H244L365 749Z" />
<glyph unicode="&#x176;" glyph-name="Ycircumflex" horiz-adv-x="535" d="M227 266L86 692H179L234 516Q242 487 250 453T265 390Q272 356 279 321H289Q302 354 316 387Q328 416 343 448T374 507L480 692H572L318 267L280 0H190L227 266ZM293 879H406L484 750H414L401
765Q392 775 383 788T367 812Q358 825 351 838H343Q333 825 322 812Q313 801 301 789T277 765L259 750H183L293 879Z" />
<glyph unicode="&#x177;" glyph-name="ycircumflex" horiz-adv-x="466" d="M55 -171Q33 -171 15 -166T-12 -155L-3 -96Q6 -99 18 -102T47 -106Q82 -106 106 -88T154 -21L167 6L61 513H151L198 260Q203 232 205 200T210 140Q212 107 212 74H222Q232 105 243 138Q252
165 263 197T287 255L401 513H486L226 -40Q191 -115 151 -143T55 -171ZM255 749H365L446 597H374L348 634Q341 644 334 657T322 681Q316 694 310 708H302Q293 694 283 681Q275 670 265 657T244 634L208 597H134L255 749Z" />
<glyph unicode="&#x178;" glyph-name="Ydieresis" horiz-adv-x="535" d="M404 852H493L481 762H392L404 852ZM221 852H310L298 762H209L221 852ZM227 266L86 692H179L234 516Q242 487 250 453T265 390Q272 356 279 321H289Q302 354 316 387Q328 416 343 448T374
507L480 692H572L318 267L280 0H190L227 266Z" />
<glyph unicode="&#x179;" glyph-name="Zacute" horiz-adv-x="523" d="M18 67L340 509Q351 525 366 542T395 574Q411 591 426 608V619H121L131 692H533L524 625L203 183Q191 166 177 149T148 117Q132 100 116 84V73H436L426 0H10L18 67ZM370 750H300L366 886H461L370 750Z" />
<glyph unicode="&#x17a;" glyph-name="zacute" horiz-adv-x="429" d="M15 65L242 353Q257 373 272 387T298 413Q311 425 323 435V445H82L91 513H425L416 451L199 176Q181 153 165 135T135 104Q120 89 106 77V67H361L352 0H6L15 65ZM563 766H658L551 597H480L563 766Z" />
<glyph unicode="&#x17b;" glyph-name="Zdotaccent" horiz-adv-x="523" d="M305 852H402L390 762H293L305 852ZM18 67L340 509Q351 525 366 542T395 574Q411 591 426 608V619H121L131 692H533L524 625L203 183Q191 166 177 149T148 117Q132 100 116 84V73H436L426
0H10L18 67Z" />
<glyph unicode="&#x17c;" glyph-name="zdotaccent" horiz-adv-x="429" d="M15 65L242 353Q257 373 272 387T298 413Q311 425 323 435V445H82L91 513H425L416 451L199 176Q181 153 165 135T135 104Q120 89 106 77V67H361L352 0H6L15 65ZM240 708H335L323 618H228L240 708Z" />
<glyph unicode="&#x17d;" glyph-name="Zcaron" horiz-adv-x="523" d="M18 67L340 509Q351 525 366 542T395 574Q411 591 426 608V619H121L131 692H533L524 625L203 183Q191 166 177 149T148 117Q132 100 116 84V73H436L426 0H10L18 67ZM388 750H275L197 879H267L280
864Q289 853 297 841T314 817Q322 804 330 791H338Q348 804 359 817Q368 828 379 840T404 864L422 879H498L388 750Z" />
<glyph unicode="&#x17e;" glyph-name="zcaron" horiz-adv-x="429" d="M15 65L242 353Q257 373 272 387T298 413Q311 425 323 435V445H82L91 513H425L416 451L199 176Q181 153 165 135T135 104Q120 89 106 77V67H361L352 0H6L15 65ZM387 749H459L485 712Q492 702
499 689T511 665Q517 652 523 638H531Q540 652 550 665Q558 676 568 689T589 712L625 749H699L578 597H468L387 749Z" />
<glyph unicode="&#x192;" glyph-name="florin" horiz-adv-x="440" d="M53 412H153Q153 427 154 444T158 479L166 530Q173 578 189 611T227 665T276 695T334 705Q363 705 380 701T409 691V628Q396 631 383 632T353 634Q312 634 286 608T249 510L244 479Q242 463
238 445T228 412H363V345H219Q219 331 218 316T215 286L151 -129H63L128 286Q130 300 133 315T141 345H53V412Z" />
<glyph unicode="&#x1fa;" glyph-name="Aringacute" horiz-adv-x="571" d="M289 672Q269 687 257 709T245 757Q245 778 253 797T276 831T311 853T355 862Q379 862 399 854T433 831T456 798T465 757Q465 725 448 700T402 662L515 0H422L406 98Q402 119 401 145T397
192H153Q146 172 137 147T117 99L73 0H-14L289 672ZM223 340Q215 321 205 300T184 261H387Q382 278 377 299T370 341L354 455Q350 481 348 509T343 563Q341 592 340 620H330Q322 593 313 565Q305 541 295 513T274 459L223 340ZM355 695Q382 695 399 712T416 757Q416
784 399 801T355 819Q328 819 311 802T294 757Q294 729 311 712T355 695ZM398 900H328L394 1036H489L398 900Z" />
<glyph unicode="&#x1fb;" glyph-name="aringacute" horiz-adv-x="466" d="M154 -12Q94 -12 60 23T25 122Q25 199 72 238T216 285L316 293L325 354Q333 410 307 431T226 452Q188 452 156 446T101 432L110 493Q139 504 177 513T264 523Q333 523 372 491T412 393Q412
385 412 377T410 360L360 0H297V58H287Q264 32 233 10T154 -12ZM184 49Q210 49 239 62T291 99L311 241L229 236Q171 232 141 207T110 129Q110 49 184 49ZM285 818Q261 818 241 826T207 849T184 882T175 923Q175 944 183 963T206 997T241 1019T285 1028Q309 1028
329 1020T363 997T386 964T395 923Q395 902 387 883T364 849T329 827T285 818ZM285 861Q312 861 329 878T346 923Q346 950 329 967T285 985Q258 985 241 968T224 923Q224 895 241 878T285 861ZM582 810H512L578 946H673L582 810Z" />
<glyph unicode="&#x1fc;" glyph-name="AEacute" horiz-adv-x="831" d="M425 692H825L815 619H539Q539 605 538 591Q537 579 537 565T534 540L525 475Q523 463 521 450T515 424L508 396H719L708 323H497Q497 309 496 295Q495 283 495 269T492 244L479 152Q477 140
475 127T469 101L462 73H739L729 0H369L396 192H185Q177 173 165 150T137 102L72 0H-21L425 692ZM287 340Q273 318 258 298T228 261H405L431 442Q436 479 442 514T453 578Q459 611 465 639H455Q444 612 430 582Q418 556 401 524T363 459L287 340ZM650 750H580L646
886H741L650 750Z" />
<glyph unicode="&#x1fd;" glyph-name="aeacute" horiz-adv-x="729" d="M155 -12Q95 -12 61 23T26 122Q26 199 73 238T217 285L317 293L326 354Q334 410 308 431T227 452Q189 452 157 446T102 432L111 493Q140 504 178 513T265 523Q325 523 348 502T381 439H390Q411
478 448 500T531 523Q575 523 605 510T655 472T683 416T692 345Q692 312 686 276L680 238H387Q385 222 384 209T383 183Q383 111 418 84T523 56Q558 56 586 64T643 85L634 20Q614 9 581 -1T500 -12Q435 -12 390 11T331 79H322Q308 61 293 45T257 16T211 -4T155
-12ZM185 49Q221 49 252 67T312 114Q309 128 307 143T305 177Q305 191 306 206T310 241L230 236Q172 232 142 207T111 129Q111 49 185 49ZM394 286Q411 289 439 292T497 296H607Q609 312 610 326T611 353Q611 406 591 431T524 457Q474 457 442 419T394 286ZM459
766H554L447 597H376L459 766Z" />
<glyph unicode="&#x1fe;" glyph-name="Oslashacute" horiz-adv-x="636" d="M85 -61Q96 -39 112 -13T141 32Q55 94 55 248Q55 271 56 297T63 351L67 378Q80 468 107 530T173 631T260 687T362 705Q421 705 468 687Q473 701 478 716T490 744L508 781H587L563 734Q555
717 541 696T516 661Q560 629 583 574T606 439Q606 416 604 392T598 342L594 315Q580 221 552 159T485 58T399 4T298 -12Q239 -12 191 5Q185 -13 177 -34T159 -74L137 -117H57L85 -61ZM301 56Q339 56 370 69T427 112T470 191T499 315L503 343Q509 385 512 419T516
483Q516 564 485 598L455 532L264 146Q254 127 242 105T219 66Q250 56 301 56ZM398 556Q406 572 417 591T439 627Q409 637 361 637Q320 637 288 623T230 579T188 499T160 378L156 350Q149 305 146 269T142 204Q142 127 172 94Q180 113 189 133T207 171L398 556ZM390
750H320L386 886H481L390 750Z" />
<glyph unicode="&#x1ff;" glyph-name="oslashacute" horiz-adv-x="508" d="M42 -73Q56 -47 74 -20T106 25Q74 50 59 91T43 188Q43 202 44 217T47 250L52 287Q60 349 81 393T132 467T200 509T283 523Q326 523 362 509Q367 523 374 543T391 581L404 608H479L466
581Q461 570 453 558T435 532T417 508T401 487Q464 437 464 323Q464 309 463 294T460 261L455 225Q446 161 426 116T377 43T310 1T228 -12Q185 -12 152 0Q145 -17 137 -37T118 -74L97 -110H21L42 -73ZM294 393Q301 407 311 424T331 456Q308 462 276 462Q223 462
187 422T139 288L133 241Q129 212 128 190T126 148Q126 106 137 85Q147 106 159 132T185 185L294 393ZM231 49Q291 49 322 92T368 223L375 268Q384 322 384 358Q384 402 370 427Q365 413 359 399T346 373L231 146Q220 124 204 98T176 55Q187 51 200 50T231 49ZM572
766H667L560 597H489L572 766Z" />
<glyph unicode="&#x218;" glyph-name="Scommaaccent" horiz-adv-x="499" d="M219 -12Q153 -12 109 3T32 39L42 111Q80 90 123 77T216 64Q279 64 313 96T347 189Q347 230 327 255T263 305L207 336Q156 364 130 406T103 509Q103 549 115 584T154 647T218 689T310
705Q371 705 410 690T475 655L464 581Q437 600 402 614T313 629Q253 629 221 599T188 513Q188 478 205 453T262 405L318 374Q343 360 365 343T403 305T429 256T439 194Q439 150 425 112T383 47T314 4T219 -12ZM132 -204Q147 -173 155 -141T168 -71H256Q251 -111
234 -144T194 -204H132Z" />
<glyph unicode="&#x219;" glyph-name="scommaaccent" horiz-adv-x="398" d="M171 -12Q122 -12 84 -1T18 29L27 98Q57 81 89 69T172 57Q216 57 239 80T262 142Q262 169 249 186T201 218L150 240Q108 258 85 290T62 376Q62 441 103 482T225 523Q276 523 307 512T361
484L351 416Q329 432 296 444T225 456Q180 456 160 436T140 381Q140 349 154 334T194 308L245 287Q298 265 322 234T346 151Q346 75 301 32T171 -12ZM327 -204Q342 -173 350 -141T363 -71H451Q446 -111 429 -144T389 -204H327Z" />
<glyph unicode="&#x21a;" glyph-name="uni021A" horiz-adv-x="527" d="M256 524Q258 538 261 554T267 585Q271 602 275 619H88L98 692H550L540 619H353Q352 602 351 585Q350 571 349 555T346 524L272 0H182L256 524ZM140 -204Q155 -173 163 -141T176 -71H264Q259
-111 242 -144T202 -204H140Z" />
<glyph unicode="&#x21b;" glyph-name="uni021B" horiz-adv-x="352" d="M198 -7Q141 -7 111 17T80 96Q80 112 83 130L116 364Q117 372 119 382T124 402Q127 413 129 423H51L61 490H139V511Q139 520 139 530T142 549L157 653H242L227 549Q225 541 223 531T219 511Q216
500 214 490H343L333 423H204V402Q204 393 203 383T201 364L169 133Q164 97 175 80T227 62Q244 62 262 65T294 73L286 13Q272 6 248 0T198 -7ZM335 -204Q350 -173 358 -141T371 -71H459Q454 -111 437 -144T397 -204H335Z" />
<glyph unicode="&#x237;" glyph-name="uni0237" horiz-adv-x="253" d="M-11 -170Q-42 -170 -61 -166T-98 -153L-89 -94Q-77 -96 -63 -98T-35 -100Q-2 -100 18 -84T46 -15L120 513H205L128 -31Q119 -94 86 -132T-11 -170Z" />
<glyph unicode="&#x2c6;" glyph-name="circumflex" horiz-adv-x="450" d="M236 749H346L427 597H355L329 634Q322 644 315 657T303 681Q297 694 291 708H283Q274 694 264 681Q256 670 246 657T225 634L189 597H115L236 749Z" />
<glyph unicode="&#x2c7;" glyph-name="caron" horiz-adv-x="450" d="M132 749H204L230 712Q237 702 244 689T256 665Q262 652 268 638H276Q285 652 295 665Q303 676 313 689T334 712L370 749H444L323 597H213L132 749Z" />
<glyph unicode="&#x2d8;" glyph-name="breve" horiz-adv-x="450" d="M282 595Q246 595 218 606T171 637T143 683T136 742H202Q205 702 225 685T283 667Q316 667 336 684T367 742H434Q426 673 385 634T282 595Z" />
<glyph unicode="&#x2d9;" glyph-name="dotaccent" horiz-adv-x="450" d="M240 708H335L323 618H228L240 708Z" />
<glyph unicode="&#x2da;" glyph-name="ring" horiz-adv-x="450" d="M284 587Q260 587 240 595T206 618T183 651T174 692Q174 713 182 732T205 766T240 788T284 797Q308 797 328 789T362 766T385 733T394 692Q394 671 386 652T363 618T328 596T284 587ZM284 630Q311
630 328 647T345 692Q345 719 328 736T284 754Q257 754 240 737T223 692Q223 664 240 647T284 630Z" />
<glyph unicode="&#x2db;" glyph-name="ogonek" horiz-adv-x="450" d="M183 -170Q143 -170 121 -151T99 -101Q99 -64 126 -40T188 0H246Q220 -18 200 -37T179 -80Q179 -110 217 -110Q229 -110 247 -107L240 -158Q229 -163 215 -166T183 -170Z" />
<glyph unicode="&#x2dc;" glyph-name="tilde" horiz-adv-x="450" d="M122 612Q130 671 160 703T227 735Q246 735 262 728T293 711T321 695T347 687Q365 687 375 703T390 742H445Q437 683 411 650T347 617Q328 617 312 624T280 640T252 656T226 663Q208 663 196
649T177 612H122Z" />
<glyph unicode="&#x2dd;" glyph-name="hungarumlaut" horiz-adv-x="450" d="M371 766H453L369 597H302L371 766ZM220 766H302L218 597H151L220 766Z" />
</font>
</defs>
</svg>
