<svg xmlns="http://www.w3.org/2000/svg" xmlns:xlink="http://www.w3.org/1999/xlink" width="817" height="288" version="1.1" viewBox="0 0 817 288"><g transform="translate(666 1371)"><mask id="a" mask-type="alpha"><use fill="#FFF" transform="translate(-666 -1371)" xlink:href="#path0_fill"/></mask><g mask="url(#a)"><use fill="#005689" transform="translate(-117.5 -1320.41)" xlink:href="#path1_fill"/><use fill="#F5F5F5" transform="translate(-108.85 -1310.33)" xlink:href="#path2_fill"/><use fill="#008E89" transform="translate(-129 -1379.98)" xlink:href="#path1_fill"/><use fill="#F5F5F5" transform="translate(-120.36 -1369.9)" xlink:href="#path2_fill"/><use fill="#008E89" transform="translate(-120.2 -1109.23)" xlink:href="#path1_fill"/><use fill="#F5F5F5" transform="translate(-111.56 -1099.15)" xlink:href="#path2_fill"/><use fill="#FF4E36" transform="translate(-97.19 -1256.11)" xlink:href="#path3_fill"/><use fill="#F5F5F5" transform="translate(-88.55 -1246.03)" xlink:href="#path4_fill"/><use fill="#FF4E36" transform="translate(-144.57 -1132.92)" xlink:href="#path3_fill"/><use fill="#F5F5F5" transform="translate(-135.93 -1122.84)" xlink:href="#path4_fill"/><use fill="#FF4E36" transform="translate(-263.02 -1088.24)" xlink:href="#path3_fill"/><use fill="#FF4E36" transform="translate(-382.15 -1150.52)" xlink:href="#path3_fill"/><use fill="#F5F5F5" transform="translate(-373.51 -1140.44)" xlink:href="#path4_fill"/><use fill="#FF4E36" transform="translate(-440.36 -1162.02)" xlink:href="#path3_fill"/><use fill="#F5F5F5" transform="translate(-431.72 -1151.94)" xlink:href="#path4_fill"/><use fill="#FF4E36" transform="translate(-396.37 -1283.18)" xlink:href="#path3_fill"/><use fill="#F5F5F5" transform="translate(-387.73 -1273.1)" xlink:href="#path4_fill"/><use fill="#FF4E36" transform="translate(-340.19 -1365.76)" xlink:href="#path3_fill"/><use fill="#F5F5F5" transform="translate(-331.55 -1355.68)" xlink:href="#path4_fill"/><use fill="#FF4E36" transform="translate(-244.75 -1395.55)" xlink:href="#path3_fill"/><use fill="#005689" transform="translate(-326.65 -1111.94)" xlink:href="#path1_fill"/><use fill="#F5F5F5" transform="translate(-318 -1101.85)" xlink:href="#path2_fill"/><use fill="#005689" transform="translate(-399.75 -1216.17)" xlink:href="#path1_fill"/><use fill="#F5F5F5" transform="translate(-391.11 -1206.09)" xlink:href="#path2_fill"/><use fill="#005689" transform="translate(-428.18 -1272.35)" xlink:href="#path1_fill"/><use fill="#F5F5F5" transform="translate(-419.54 -1262.27)" xlink:href="#path2_fill"/><use fill="#005689" transform="translate(-384.86 -1315)" xlink:href="#path1_fill"/><use fill="#F5F5F5" transform="translate(-376.22 -1304.92)" xlink:href="#path2_fill"/><use fill="#005689" transform="translate(-278.59 -1392.84)" xlink:href="#path1_fill"/><use fill="#F5F5F5" transform="translate(-269.95 -1382.76)" xlink:href="#path2_fill"/><use fill="#005689" transform="translate(-1.07 -1388.1)" xlink:href="#path1_fill"/><use fill="#F5F5F5" transform="translate(7.57 -1378.02)" xlink:href="#path2_fill"/><use fill="#57BBD4" transform="translate(-295.51 -1097.72)" xlink:href="#path1_fill"/><use fill="#F5F5F5" transform="translate(-286.87 -1087.64)" xlink:href="#path2_fill"/><use fill="#57BBD4" transform="translate(-389.6 -1183.68)" xlink:href="#path1_fill"/><use fill="#F5F5F5" transform="translate(-380.96 -1173.6)" xlink:href="#path2_fill"/><use fill="#57BBD4" transform="translate(-537.83 -1183.68)" xlink:href="#path1_fill"/><use fill="#F5F5F5" transform="translate(-529.2 -1173.6)" xlink:href="#path2_fill"/><use fill="#008E89" transform="translate(-527.68 -1128.18)" xlink:href="#path1_fill"/><use fill="#F5F5F5" transform="translate(-519.04 -1118.1)" xlink:href="#path2_fill"/><use fill="#57BBD4" transform="translate(-365.23 -1342.75)" xlink:href="#path1_fill"/><use fill="#F5F5F5" transform="translate(-356.59 -1332.67)" xlink:href="#path2_fill"/><use fill="#57BBD4" transform="translate(-544.6 -1399.61)" xlink:href="#path1_fill"/><use fill="#008E89" transform="translate(-353.72 -1132.24)" xlink:href="#path1_fill"/><use fill="#F5F5F5" transform="translate(-345.08 -1122.16)" xlink:href="#path2_fill"/><use fill="#008E89" transform="translate(-401.78 -1250.02)" xlink:href="#path1_fill"/><use fill="#F5F5F5" transform="translate(-393.14 -1239.94)" xlink:href="#path2_fill"/><use fill="#FF4E36" transform="translate(-485.04 -1212.11)" xlink:href="#path3_fill"/><use fill="#F5F5F5" transform="translate(-476.4 -1202.03)" xlink:href="#path4_fill"/><use fill="#FF4E36" transform="translate(-451.87 -1303.49)" xlink:href="#path3_fill"/><use fill="#F5F5F5" transform="translate(-443.23 -1293.41)" xlink:href="#path4_fill"/><use fill="#005689" transform="translate(-462.7 -1237.83)" xlink:href="#path1_fill"/><use fill="#F5F5F5" transform="translate(-454.06 -1227.75)" xlink:href="#path2_fill"/><use fill="#005689" transform="translate(-561.52 -1231.07)" xlink:href="#path1_fill"/><use fill="#F5F5F5" transform="translate(-552.88 -1220.98)" xlink:href="#path2_fill"/><use fill="#005689" transform="translate(-440.36 -1335.3)" xlink:href="#path1_fill"/><use fill="#F5F5F5" transform="translate(-431.72 -1325.22)" xlink:href="#path2_fill"/><use fill="#57BBD4" transform="translate(-452.55 -1205.34)" xlink:href="#path1_fill"/><use fill="#F5F5F5" transform="translate(-443.9 -1195.26)" xlink:href="#path2_fill"/><use fill="#57BBD4" transform="translate(-435.63 -1368.47)" xlink:href="#path1_fill"/><use fill="#F5F5F5" transform="translate(-426.98 -1358.39)" xlink:href="#path2_fill"/><use fill="#008E89" transform="translate(-462.02 -1271.68)" xlink:href="#path1_fill"/><use fill="#F5F5F5" transform="translate(-453.38 -1261.6)" xlink:href="#path2_fill"/><use fill="#008E89" transform="translate(-665.76 -1208.05)" xlink:href="#path1_fill"/><use fill="#F5F5F5" transform="translate(-657.12 -1197.97)" xlink:href="#path2_fill"/><use fill="#008E89" transform="translate(-510.76 -1344.78)" xlink:href="#path1_fill"/><use fill="#F5F5F5" transform="translate(-502.12 -1334.7)" xlink:href="#path2_fill"/><use fill="#57BBD4" transform="translate(-311.08 -1382.69)" xlink:href="#path1_fill"/><use fill="#F5F5F5" transform="translate(-302.44 -1372.6)" xlink:href="#path2_fill"/><use fill="#005689" transform="translate(-340.86 -1399.61)" xlink:href="#path1_fill"/><use fill="#008E89" transform="translate(-210.9 -1390.81)" xlink:href="#path1_fill"/><use fill="#F5F5F5" transform="translate(-202.26 -1380.73)" xlink:href="#path2_fill"/><use fill="#008E89" transform="translate(-369.97 -1382.01)" xlink:href="#path1_fill"/><use fill="#F5F5F5" transform="translate(-361.33 -1371.93)" xlink:href="#path2_fill"/><use fill="#005689" transform="translate(-200.07 -1099.07)" xlink:href="#path1_fill"/><use fill="#F5F5F5" transform="translate(-191.43 -1088.99)" xlink:href="#path2_fill"/><use fill="#005689" transform="translate(-71.47 -1278.45)" xlink:href="#path1_fill"/><use fill="#F5F5F5" transform="translate(-62.83 -1268.37)" xlink:href="#path2_fill"/><use fill="#005689" transform="translate(111.29 -1337.33)" xlink:href="#path1_fill"/><use fill="#F5F5F5" transform="translate(119.93 -1327.25)" xlink:href="#path2_fill"/><use fill="#005689" transform="translate(-98.54 -1222.27)" xlink:href="#path1_fill"/><use fill="#F5F5F5" transform="translate(-89.9 -1212.18)" xlink:href="#path2_fill"/><use fill="#005689" transform="translate(-386.89 -1117.35)" xlink:href="#path1_fill"/><use fill="#F5F5F5" transform="translate(-378.25 -1107.27)" xlink:href="#path2_fill"/><g><use fill="#005689" transform="translate(-483 -1168.79)" xlink:href="#path1_fill"/><use fill="#F5F5F5" transform="translate(-474.37 -1158.71)" xlink:href="#path2_fill"/></g><g><use fill="#FF4E36" transform="translate(-162.84 -1381.33)" xlink:href="#path5_fill"/><use fill="#F5F5F5" transform="translate(-154.09 -1371.11)" xlink:href="#path6_fill"/></g><g><use fill="#008E89" transform="translate(-122.23 -1158.64)" xlink:href="#path1_fill"/><use fill="#F5F5F5" transform="translate(-113.6 -1148.56)" xlink:href="#path2_fill"/></g><g><use fill="#008E89" transform="translate(-73.5 -1198.58)" xlink:href="#path1_fill"/><use fill="#F5F5F5" transform="translate(-64.86 -1188.49)" xlink:href="#path2_fill"/></g><g><use fill="#FF4E36" transform="translate(-50.48 -1309.58)" xlink:href="#path3_fill"/><use fill="#F5F5F5" transform="translate(-41.84 -1299.5)" xlink:href="#path4_fill"/></g><g><use fill="#FF4E36" transform="translate(-43.04 -1214.14)" xlink:href="#path3_fill"/><use fill="#F5F5F5" transform="translate(-34.4 -1204.06)" xlink:href="#path4_fill"/></g><g><use fill="#FF4E36" transform="translate(26.68 -1086.21)" xlink:href="#path3_fill"/></g><g><use fill="#FF4E36" transform="translate(-81.62 -1165.41)" xlink:href="#path3_fill"/><use fill="#F5F5F5" transform="translate(-72.98 -1155.33)" xlink:href="#path4_fill"/></g><g><use fill="#FF4E36" transform="translate(-86.36 -1103.14)" xlink:href="#path3_fill"/><use fill="#F5F5F5" transform="translate(-77.72 -1093.05)" xlink:href="#path4_fill"/></g><g><use fill="#005689" transform="translate(-142.54 -1084.18)" xlink:href="#path1_fill"/></g><g><use fill="#005689" transform="translate(-43.04 -1350.2)" xlink:href="#path1_fill"/><use fill="#F5F5F5" transform="translate(-34.4 -1340.11)" xlink:href="#path2_fill"/></g><g><use fill="#005689" transform="translate(26.68 -1173.53)" xlink:href="#path1_fill"/><use fill="#F5F5F5" transform="translate(35.32 -1163.45)" xlink:href="#path2_fill"/></g><g><use fill="#005689" transform="translate(-95.16 -1381.33)" xlink:href="#path1_fill"/><use fill="#F5F5F5" transform="translate(-86.52 -1371.25)" xlink:href="#path2_fill"/></g><g><use fill="#008E89" transform="translate(-83.65 -1316.35)" xlink:href="#path1_fill"/><use fill="#F5F5F5" transform="translate(-75 -1306.27)" xlink:href="#path2_fill"/></g><g><use fill="#008E89" transform="translate(-43.04 -1260.17)" xlink:href="#path1_fill"/><use fill="#F5F5F5" transform="translate(-34.4 -1250.09)" xlink:href="#path2_fill"/></g><g><use fill="#008E89" transform="translate(77.45 -1261.52)" xlink:href="#path1_fill"/><use fill="#F5F5F5" transform="translate(86.09 -1251.44)" xlink:href="#path2_fill"/></g><g><use fill="#008E89" transform="translate(-406.52 -1341.4)" xlink:href="#path1_fill"/><use fill="#F5F5F5" transform="translate(-397.88 -1331.31)" xlink:href="#path2_fill"/></g><g><use fill="#FF4E36" transform="translate(-402.46 -1374.56)" xlink:href="#path3_fill"/><use fill="#F5F5F5" transform="translate(-393.82 -1364.48)" xlink:href="#path4_fill"/></g><g><use fill="#FF4E36" transform="translate(-357.78 -1099.07)" xlink:href="#path3_fill"/><use fill="#F5F5F5" transform="translate(-349.14 -1088.99)" xlink:href="#path4_fill"/></g><g><use fill="#FF4E36" transform="translate(-430.21 -1231.07)" xlink:href="#path3_fill"/><use fill="#F5F5F5" transform="translate(-421.57 -1220.98)" xlink:href="#path4_fill"/></g><g><use fill="#FF4E36" transform="translate(-510.76 -1283.86)" xlink:href="#path3_fill"/><use fill="#F5F5F5" transform="translate(-502.12 -1273.78)" xlink:href="#path4_fill"/></g><g><use fill="#FF4E36" transform="translate(-608.9 -1335.3)" xlink:href="#path3_fill"/><use fill="#F5F5F5" transform="translate(-600.26 -1325.22)" xlink:href="#path4_fill"/></g><g><use fill="#008E89" transform="translate(-422.09 -1190.45)" xlink:href="#path1_fill"/><use fill="#F5F5F5" transform="translate(-413.45 -1180.37)" xlink:href="#path2_fill"/></g><g><use fill="#008E89" transform="translate(-413.96 -1139.01)" xlink:href="#path1_fill"/><use fill="#F5F5F5" transform="translate(-405.32 -1128.93)" xlink:href="#path2_fill"/></g><g><use fill="#57BBD4" transform="translate(-418.7 -1309.58)" xlink:href="#path1_fill"/><use fill="#F5F5F5" transform="translate(-410.06 -1299.5)" xlink:href="#path2_fill"/></g><g><use fill="#57BBD4" transform="translate(-167.58 -1107.87)" xlink:href="#path1_fill"/><use fill="#F5F5F5" transform="translate(-158.94 -1097.79)" xlink:href="#path2_fill"/></g><g><use fill="#57BBD4" transform="translate(-81.62 -1350.2)" xlink:href="#path1_fill"/><use fill="#F5F5F5" transform="translate(-72.98 -1340.11)" xlink:href="#path2_fill"/></g><g><use fill="#57BBD4" transform="translate(-137.8 -1347.49)" xlink:href="#path1_fill"/><use fill="#F5F5F5" transform="translate(-129.16 -1337.41)" xlink:href="#path2_fill"/></g><g><use fill="#57BBD4" transform="translate(-103.96 -1289.28)" xlink:href="#path1_fill"/><use fill="#F5F5F5" transform="translate(-95.32 -1279.2)" xlink:href="#path2_fill"/></g><g><use fill="#57BBD4" transform="translate(-68.08 -1237.83)" xlink:href="#path1_fill"/><use fill="#F5F5F5" transform="translate(-59.44 -1227.75)" xlink:href="#path2_fill"/></g><g><use fill="#57BBD4" transform="translate(-106.66 -1189.1)" xlink:href="#path1_fill"/><use fill="#F5F5F5" transform="translate(-98.02 -1179.02)" xlink:href="#path2_fill"/></g><g><use fill="#FF4E36" transform="translate(-30.85 -1146.46)" xlink:href="#path3_fill"/><use fill="#F5F5F5" transform="translate(-22.21 -1136.37)" xlink:href="#path4_fill"/></g><g><use fill="#FF4E36" transform="translate(9.76 -1337.33)" xlink:href="#path3_fill"/><use fill="#F5F5F5" transform="translate(18.4 -1327.25)" xlink:href="#path4_fill"/></g><g><use fill="#FF4E36" transform="translate(-61.31 -1378.62)" xlink:href="#path3_fill"/><use fill="#F5F5F5" transform="translate(-52.67 -1368.54)" xlink:href="#path4_fill"/></g><g><use fill="#005689" transform="translate(-24.09 -1287.92)" xlink:href="#path1_fill"/><use fill="#F5F5F5" transform="translate(-15.44 -1277.84)" xlink:href="#path2_fill"/></g><g><use fill="#008E89" transform="translate(-63.34 -1136.98)" xlink:href="#path1_fill"/><use fill="#F5F5F5" transform="translate(-54.7 -1126.9)" xlink:href="#path2_fill"/></g><g><use fill="#57BBD4" transform="translate(-49.13 -1174.88)" xlink:href="#path1_fill"/><use fill="#F5F5F5" transform="translate(-40.49 -1164.8)" xlink:href="#path2_fill"/></g><g><use fill="#57BBD4" transform="translate(-18 -1237.16)" xlink:href="#path1_fill"/><use fill="#F5F5F5" transform="translate(-9.35 -1227.08)" xlink:href="#path2_fill"/></g><g><use fill="#57BBD4" transform="translate(116.7 -1195.87)" xlink:href="#path1_fill"/><use fill="#F5F5F5" transform="translate(125.35 -1185.79)" xlink:href="#path2_fill"/></g><g><use fill="#57BBD4" transform="translate(-97.19 -1134.95)" xlink:href="#path1_fill"/><use fill="#F5F5F5" transform="translate(-88.55 -1124.87)" xlink:href="#path2_fill"/></g></g><g mask="url(#a)"><use fill="#008FD7" transform="translate(-368 -1362)" xlink:href="#path7_fill"/><use fill="#FFF" transform="translate(-339 -1281)" xlink:href="#path8_fill"/></g></g><defs><path id="path0_fill" fill-rule="evenodd" d="M0 0h868v288H0V0z"/><path id="path1_fill" fill-rule="evenodd" d="M16.92 33.84a16.92 16.92 0 1 0 0-33.84 16.92 16.92 0 0 0 0 33.84z"/><path id="path2_fill" fill-rule="evenodd" d="M.86 6.67L0 7.53l4.28 6h.4L16.93.84 16.07 0 4.69 10.34.86 6.67z"/><path id="path3_fill" fill-rule="evenodd" d="M16.92 33.84a16.92 16.92 0 1 0 0-33.84 16.92 16.92 0 0 0 0 33.84z"/><path id="path4_fill" fill-rule="evenodd" d="M.86 6.67L0 7.53l4.28 6h.4L16.93.84 16.07 0 4.69 10.34.86 6.67z"/><path id="path5_fill" fill-rule="evenodd" d="M17.15 34.3a17.15 17.15 0 1 0 0-34.3 17.15 17.15 0 0 0 0 34.3z"/><path id="path6_fill" fill-rule="evenodd" d="M.87 6.76L0 7.63l4.34 6.1h.4L17.16.84 16.3 0 4.75 10.48.87 6.76z"/><path id="path7_fill" fill-rule="evenodd" d="M135.38 270.75c74.76 0 135.37-60.6 135.37-135.38C270.75 60.61 210.15 0 135.37 0 60.61 0 0 60.6 0 135.38c0 74.76 60.6 135.37 135.38 135.37z"/><path id="path8_fill" d="M53.07 39.73c10.9 0 17.42-5.24 17.42-14.62 0-8.53-4.5-11.09-12.18-14.01l-2.44-.98c-4.81-1.82-6.7-3.35-6.7-6.4 0-3.34 2.13-5.47 6.28-5.47 2.43 0 4.2.3 5.36.79L63 6.7h5l-.61-10.66c-2.32-.85-5.8-1.76-11.82-1.76-11.45 0-16.15 5.9-16.15 13.64 0 7 3.54 10.78 10.42 13.65l2.38.97c5.36 2.2 7.8 3.72 7.8 7.25 0 3.72-2.38 5.85-7.5 5.85-2.25 0-4.32-.37-5.85-1.1l-2.37-8.1h-5.24l.6 11.09c3.18 1.4 8.42 2.2 13.41 2.2zm23.88-29.6v19.43c0 7.19 3.23 10.11 9.87 10.11 3.77 0 7-.97 8.95-2.13v-3.17c-.73.12-2 .18-3.1.18-3.66 0-4.63-1.4-4.63-4.81V10.12h7.37v-4.5h-7.37v-7.74L76.94-.35v5.97L72.2 7.26v2.86h4.75zM108.3 20.9c-7.13 1.22-10.54 4.32-10.54 9.93 0 5.72 3.77 9.07 9.44 9.07 4.26 0 6.94-1.52 8.9-4.02h.36c.91 2.38 2.92 3.9 7.13 3.9 2.68 0 5.17-.73 6.33-1.52v-2.2l-3.17-1.58V14.88c0-7.56-5.18-10.06-14.2-10.06-5.23 0-9.19 1.16-12.36 2.14v9.2h4.88l2.25-7.31c.91-.25 1.77-.37 2.92-.37 3.9 0 5.36 1.89 5.36 6.46v4.57l-7.3 1.4zm4.38 13.4c-2.44 0-4.14-1.04-4.14-5.3 0-3.72 1.4-5.42 4.39-5.73l2.67-.3v10.35c-.6.61-1.64.98-2.92.98zm23.25 13.16a18.7 18.7 0 0 1-3.65-.43v3.9a9.73 9.73 0 0 0 5.6 1.64c5.12 0 8.4-2.68 11.4-10.53l12.3-32.23 2.8-1.46V5.62h-11.33v2.74l3.72 1.58-6.34 17.42h-.24l-6.03-17.48 3.59-1.52V5.62h-18.03v2.74l2.5 1.46 12.54 30.22-.6 1.64c-1.59 4.33-4.51 5.79-8.23 5.79zM32.04 59.62h-7.3l-5.3 20.04H19l-3.78-15.72 2.98-1.58v-2.74H.36v2.74l2.93 1.58L11.69 93h8.53l5.06-17.85h.24L31.01 93h8.59l8.1-29.06 2.86-1.58v-2.74h-10.9v2.74l2.98 1.58-3.84 15.84h-.42l-6.34-20.16zm28.31-14.26a5.71 5.71 0 0 0-5.85 5.73 5.66 5.66 0 0 0 5.85 5.66c3.17 0 5.91-2.43 5.91-5.66a5.84 5.84 0 0 0-5.9-5.73zm-9.01 15.6v2.62l3.71 1.46v23.82l-3.47 1.52V93h18.03v-2.62l-3.41-1.52V59.13L65.04 59l-13.7 1.95zm23.1 3.16v19.44c0 7.19 3.23 10.11 9.87 10.11 3.77 0 7-.97 8.95-2.13v-3.17c-.73.12-2 .18-3.1.18-3.66 0-4.64-1.4-4.64-4.81V64.12h7.38v-4.5h-7.38v-7.74l-11.08 1.77v5.97l-4.75 1.64v2.86h4.75zm20.81 26.26V93h17.67v-2.62l-3.05-1.4V65.77c1.28-.55 2.75-.98 4.57-.98 2.75 0 4.2 1.34 4.2 4.7v19.49l-3.1 1.4V93h17.67v-2.62l-3.47-1.58V67.66c0-6.1-2.56-8.84-8.35-8.84-4.2 0-8.4 1.65-11.33 4.2h-.37V45.07l-1.4-.19-13.22 1.95v2.68l3.66 1.47V88.8l-3.48 1.58zM148 65.1v19.25c0 5.73 2.92 9.5 9.32 9.5 4.14 0 7.55-1.95 9.99-4.2h.36v3.96l1.34.12 13.16-1.52v-2.5l-3.6-1.83V59.13l-1.33-.12-13.34 1.82v2.69l3.65 1.58v21.8c-1.28.56-2.68.98-4.32.98-2.56 0-4.09-.97-4.09-4.14V59.13l-1.46-.12-13.34 1.82v2.69L148 65.1zm52.64 5.97l-2.25-.55c-3.72-.97-4.87-2.07-4.87-4.26 0-2.44 1.64-3.9 4.93-3.9 1.83 0 3.23.24 4.2.73l1.77 5.24h4.02v-8.17c-2.56-.97-6.33-1.4-10.23-1.4-9.5 0-13.83 4.63-13.83 11.15 0 6.22 3.29 9.63 10.42 11.4l2.25.54c3.41.8 4.57 1.95 4.57 4.14 0 2.56-1.7 4.2-5.48 4.2-2.07 0-3.84-.42-5.18-1.15l-2.56-5.79h-4.02l.37 8.71a35.36 35.36 0 0 0 11.5 1.83c9.94 0 14.39-4.2 14.39-11.63 0-6.28-2.99-9.38-10-11.1z"/></defs></svg>
