<svg xmlns="http://www.w3.org/2000/svg" xmlns:xlink="http://www.w3.org/1999/xlink" width="1400" height="386" version="1"><g transform="translate(346 728)"><mask id="a"><use fill="#FFF" transform="translate(-346 -726)" xlink:href="#path0_fill"/></mask><g mask="url(#a)"><use fill="#005689" transform="translate(503 -663)" xlink:href="#path1_fill"/><use fill="#F5F5F5" transform="translate(514 -649)" xlink:href="#path2_fill"/><use fill="#008E89" transform="translate(487 -742)" xlink:href="#path1_fill"/><use fill="#F5F5F5" transform="translate(499 -729)" xlink:href="#path3_fill"/><use fill="#008E89" transform="translate(499 -381)" xlink:href="#path1_fill"/><use fill="#F5F5F5" transform="translate(511 -368)" xlink:href="#path3_fill"/><use fill="#FF4E36" transform="translate(530 -577)" xlink:href="#path4_fill"/><use fill="#F5F5F5" transform="translate(541 -563)" xlink:href="#path3_fill"/><use fill="#FF4E36" transform="translate(467 -413)" xlink:href="#path4_fill"/><use fill="#F5F5F5" transform="translate(478 -399)" xlink:href="#path3_fill"/><use fill="#FF4E36" transform="translate(309 -353)" xlink:href="#path4_fill"/><use fill="#FF4E36" transform="translate(150 -436)" xlink:href="#path4_fill"/><use fill="#F5F5F5" transform="translate(161 -423)" xlink:href="#path3_fill"/><use fill="#FF4E36" transform="translate(72 -451)" xlink:href="#path4_fill"/><use fill="#F5F5F5" transform="translate(84 -438)" xlink:href="#path3_fill"/><use fill="#FF4E36" transform="translate(131 -613)" xlink:href="#path4_fill"/><use fill="#F5F5F5" transform="translate(142 -599)" xlink:href="#path3_fill"/><use fill="#FF4E36" transform="translate(206 -723)" xlink:href="#path4_fill"/><use fill="#F5F5F5" transform="translate(217 -710)" xlink:href="#path3_fill"/><use fill="#FF4E36" transform="translate(333 -763)" xlink:href="#path4_fill"/><use fill="#005689" transform="translate(224 -385)" xlink:href="#path1_fill"/><use fill="#F5F5F5" transform="translate(235 -371)" xlink:href="#path2_fill"/><use fill="#005689" transform="translate(126 -524)" xlink:href="#path1_fill"/><use fill="#F5F5F5" transform="translate(138 -510)" xlink:href="#path2_fill"/><use fill="#005689" transform="translate(88 -598)" xlink:href="#path1_fill"/><use fill="#F5F5F5" transform="translate(100 -585)" xlink:href="#path2_fill"/><use fill="#005689" transform="translate(146 -655)" xlink:href="#path1_fill"/><use fill="#F5F5F5" transform="translate(158 -642)" xlink:href="#path2_fill"/><use fill="#005689" transform="translate(288 -759)" xlink:href="#path1_fill"/><use fill="#005689" transform="translate(658 -753)" xlink:href="#path1_fill"/><use fill="#F5F5F5" transform="translate(669 -739)" xlink:href="#path2_fill"/><use fill="#57BBD4" transform="translate(265 -366)" xlink:href="#path1_fill"/><use fill="#F5F5F5" transform="translate(277 -352)" xlink:href="#path3_fill"/><use fill="#57BBD4" transform="translate(140 -480)" xlink:href="#path1_fill"/><use fill="#F5F5F5" transform="translate(151 -467)" xlink:href="#path3_fill"/><use fill="#57BBD4" transform="translate(-58 -480)" xlink:href="#path1_fill"/><use fill="#F5F5F5" transform="translate(-46 -467)" xlink:href="#path3_fill"/><use fill="#008E89" transform="translate(-44 -406)" xlink:href="#path1_fill"/><use fill="#F5F5F5" transform="translate(-33 -393)" xlink:href="#path3_fill"/><use fill="#57BBD4" transform="translate(172 -692)" xlink:href="#path1_fill"/><use fill="#F5F5F5" transform="translate(184 -679)" xlink:href="#path3_fill"/><use fill="#57BBD4" transform="translate(-67 -768)" xlink:href="#path1_fill"/><use fill="#008E89" transform="translate(188 -412)" xlink:href="#path1_fill"/><use fill="#F5F5F5" transform="translate(199 -398)" xlink:href="#path3_fill"/><use fill="#008E89" transform="translate(124 -569)" xlink:href="#path1_fill"/><use fill="#F5F5F5" transform="translate(135 -555)" xlink:href="#path3_fill"/><use fill="#FF4E36" transform="translate(13 -518)" xlink:href="#path4_fill"/><use fill="#F5F5F5" transform="translate(24 -505)" xlink:href="#path3_fill"/><use fill="#FF4E36" transform="translate(57 -640)" xlink:href="#path4_fill"/><use fill="#F5F5F5" transform="translate(68 -627)" xlink:href="#path3_fill"/><use fill="#005689" transform="translate(42 -552)" xlink:href="#path1_fill"/><use fill="#F5F5F5" transform="translate(54 -539)" xlink:href="#path2_fill"/><use fill="#005689" transform="translate(-89 -543)" xlink:href="#path1_fill"/><use fill="#F5F5F5" transform="translate(-78 -530)" xlink:href="#path2_fill"/><use fill="#005689" transform="translate(72 -682)" xlink:href="#path1_fill"/><use fill="#F5F5F5" transform="translate(84 -669)" xlink:href="#path2_fill"/><use fill="#57BBD4" transform="translate(56 -509)" xlink:href="#path1_fill"/><use fill="#F5F5F5" transform="translate(67 -496)" xlink:href="#path3_fill"/><use fill="#57BBD4" transform="translate(79 -727)" xlink:href="#path1_fill"/><use fill="#F5F5F5" transform="translate(90 -713)" xlink:href="#path3_fill"/><use fill="#008E89" transform="translate(43 -598)" xlink:href="#path1_fill"/><use fill="#F5F5F5" transform="translate(55 -584)" xlink:href="#path3_fill"/><use fill="#008E89" transform="translate(-228 -513)" xlink:href="#path1_fill"/><use fill="#F5F5F5" transform="translate(-217 -499)" xlink:href="#path3_fill"/><use fill="#008E89" transform="translate(-22 -695)" xlink:href="#path1_fill"/><use fill="#F5F5F5" transform="translate(-10 -682)" xlink:href="#path3_fill"/><use fill="#57BBD4" transform="translate(245 -746)" xlink:href="#path1_fill"/><use fill="#F5F5F5" transform="translate(256 -732)" xlink:href="#path3_fill"/><use fill="#005689" transform="translate(205 -768)" xlink:href="#path1_fill"/><use fill="#008E89" transform="translate(378 -756)" xlink:href="#path1_fill"/><use fill="#F5F5F5" transform="translate(390 -743)" xlink:href="#path3_fill"/><use fill="#008E89" transform="translate(166 -745)" xlink:href="#path1_fill"/><use fill="#F5F5F5" transform="translate(178 -731)" xlink:href="#path3_fill"/><use fill="#005689" transform="translate(393 -367)" xlink:href="#path1_fill"/><use fill="#F5F5F5" transform="translate(404 -354)" xlink:href="#path2_fill"/><use fill="#008E89" transform="translate(354 -342)" xlink:href="#path1_fill"/><use fill="#005689" transform="translate(564 -607)" xlink:href="#path1_fill"/><use fill="#F5F5F5" transform="translate(576 -593)" xlink:href="#path2_fill"/><use fill="#005689" transform="translate(808 -685)" xlink:href="#path1_fill"/><use fill="#F5F5F5" transform="translate(819 -672)" xlink:href="#path2_fill"/><use fill="#005689" transform="translate(528 -532)" xlink:href="#path1_fill"/><use fill="#F5F5F5" transform="translate(539 -518)" xlink:href="#path2_fill"/><use fill="#005689" transform="translate(143 -392)" xlink:href="#path1_fill"/><use fill="#F5F5F5" transform="translate(155 -378)" xlink:href="#path2_fill"/><use fill="#005689" transform="translate(15 -460)" xlink:href="#path1_fill"/><use fill="#F5F5F5" transform="translate(27 -447)" xlink:href="#path2_fill"/><use fill="#FF4E36" transform="translate(442 -744)" xlink:href="#path5_fill"/><use fill="#F5F5F5" transform="translate(454 -730)" xlink:href="#path6_fill"/><use fill="#008E89" transform="translate(496 -447)" xlink:href="#path1_fill"/><use fill="#F5F5F5" transform="translate(508 -433)" xlink:href="#path3_fill"/><use fill="#008E89" transform="translate(561 -500)" xlink:href="#path1_fill"/><use fill="#F5F5F5" transform="translate(573 -487)" xlink:href="#path3_fill"/><use fill="#FF4E36" transform="translate(592 -648)" xlink:href="#path4_fill"/><use fill="#F5F5F5" transform="translate(604 -635)" xlink:href="#path3_fill"/><use fill="#FF4E36" transform="translate(602 -521)" xlink:href="#path4_fill"/><use fill="#F5F5F5" transform="translate(613 -507)" xlink:href="#path3_fill"/><use fill="#FF4E36" transform="translate(695 -350)" xlink:href="#path4_fill"/><use fill="#FF4E36" transform="translate(551 -456)" xlink:href="#path4_fill"/><use fill="#F5F5F5" transform="translate(562 -442)" xlink:href="#path3_fill"/><use fill="#FF4E36" transform="translate(544 -373)" xlink:href="#path4_fill"/><use fill="#F5F5F5" transform="translate(556 -359)" xlink:href="#path3_fill"/><use fill="#005689" transform="translate(469 -348)" xlink:href="#path1_fill"/><use fill="#005689" transform="translate(602 -702)" xlink:href="#path1_fill"/><use fill="#F5F5F5" transform="translate(613 -689)" xlink:href="#path2_fill"/><use fill="#005689" transform="translate(695 -467)" xlink:href="#path1_fill"/><use fill="#F5F5F5" transform="translate(706 -453)" xlink:href="#path2_fill"/><use fill="#005689" transform="translate(532 -744)" xlink:href="#path1_fill"/><use fill="#F5F5F5" transform="translate(544 -730)" xlink:href="#path2_fill"/><use fill="#008E89" transform="translate(548 -657)" xlink:href="#path1_fill"/><use fill="#F5F5F5" transform="translate(559 -644)" xlink:href="#path3_fill"/><use fill="#008E89" transform="translate(602 -582)" xlink:href="#path1_fill"/><use fill="#F5F5F5" transform="translate(613 -569)" xlink:href="#path3_fill"/><use fill="#008E89" transform="translate(763 -584)" xlink:href="#path1_fill"/><use fill="#F5F5F5" transform="translate(774 -571)" xlink:href="#path3_fill"/><use fill="#008E89" transform="translate(117 -691)" xlink:href="#path1_fill"/><use fill="#F5F5F5" transform="translate(129 -677)" xlink:href="#path3_fill"/><use fill="#FF4E36" transform="translate(123 -735)" xlink:href="#path4_fill"/><use fill="#F5F5F5" transform="translate(134 -721)" xlink:href="#path3_fill"/><use fill="#FF4E36" transform="translate(182 -367)" xlink:href="#path4_fill"/><use fill="#F5F5F5" transform="translate(194 -354)" xlink:href="#path3_fill"/><use fill="#FF4E36" transform="translate(86 -543)" xlink:href="#path4_fill"/><use fill="#F5F5F5" transform="translate(97 -530)" xlink:href="#path3_fill"/><use fill="#FF4E36" transform="translate(-22 -614)" xlink:href="#path4_fill"/><use fill="#F5F5F5" transform="translate(-10 -600)" xlink:href="#path3_fill"/><use fill="#FF4E36" transform="translate(-153 -682)" xlink:href="#path4_fill"/><use fill="#F5F5F5" transform="translate(-141 -669)" xlink:href="#path3_fill"/><g><use fill="#008E89" transform="translate(97 -489)" xlink:href="#path1_fill"/><use fill="#F5F5F5" transform="translate(108 -476)" xlink:href="#path3_fill"/></g><g><use fill="#008E89" transform="translate(107 -421)" xlink:href="#path1_fill"/><use fill="#F5F5F5" transform="translate(119 -407)" xlink:href="#path3_fill"/></g><g><use fill="#57BBD4" transform="translate(101 -648)" xlink:href="#path1_fill"/><use fill="#F5F5F5" transform="translate(113 -635)" xlink:href="#path3_fill"/></g><g><use fill="#57BBD4" transform="translate(436 -379)" xlink:href="#path1_fill"/><use fill="#F5F5F5" transform="translate(447 -366)" xlink:href="#path3_fill"/></g><g><use fill="#57BBD4" transform="translate(551 -702)" xlink:href="#path1_fill"/><use fill="#F5F5F5" transform="translate(562 -689)" xlink:href="#path3_fill"/></g><g><use fill="#57BBD4" transform="translate(476 -699)" xlink:href="#path1_fill"/><use fill="#F5F5F5" transform="translate(487 -685)" xlink:href="#path3_fill"/></g><g><use fill="#57BBD4" transform="translate(521 -621)" xlink:href="#path1_fill"/><use fill="#F5F5F5" transform="translate(532 -608)" xlink:href="#path3_fill"/></g><g><use fill="#57BBD4" transform="translate(569 -552)" xlink:href="#path1_fill"/><use fill="#F5F5F5" transform="translate(580 -539)" xlink:href="#path3_fill"/></g><g><use fill="#57BBD4" transform="translate(517 -487)" xlink:href="#path1_fill"/><use fill="#F5F5F5" transform="translate(529 -474)" xlink:href="#path3_fill"/></g><g><use fill="#FF4E36" transform="translate(618 -431)" xlink:href="#path4_fill"/><use fill="#F5F5F5" transform="translate(630 -417)" xlink:href="#path3_fill"/></g><g><use fill="#FF4E36" transform="translate(672 -685)" xlink:href="#path4_fill"/><use fill="#F5F5F5" transform="translate(684 -672)" xlink:href="#path3_fill"/></g><g><use fill="#FF4E36" transform="translate(578 -740)" xlink:href="#path4_fill"/><use fill="#F5F5F5" transform="translate(589 -727)" xlink:href="#path3_fill"/></g><g><use fill="#005689" transform="translate(627 -619)" xlink:href="#path1_fill"/><use fill="#F5F5F5" transform="translate(639 -606)" xlink:href="#path2_fill"/></g><g><use fill="#008E89" transform="translate(575 -418)" xlink:href="#path1_fill"/><use fill="#F5F5F5" transform="translate(586 -405)" xlink:href="#path3_fill"/></g><g><use fill="#57BBD4" transform="translate(594 -469)" xlink:href="#path1_fill"/><use fill="#F5F5F5" transform="translate(605 -455)" xlink:href="#path3_fill"/></g><g><use fill="#57BBD4" transform="translate(635 -552)" xlink:href="#path1_fill"/><use fill="#F5F5F5" transform="translate(647 -538)" xlink:href="#path3_fill"/></g><g><use fill="#57BBD4" transform="translate(815 -496)" xlink:href="#path1_fill"/><use fill="#F5F5F5" transform="translate(826 -483)" xlink:href="#path3_fill"/></g><g><use fill="#57BBD4" transform="translate(530 -415)" xlink:href="#path1_fill"/><use fill="#F5F5F5" transform="translate(541 -402)" xlink:href="#path3_fill"/></g></g><g mask="url(#a)"><use fill="#008FD7" transform="translate(169 -718)" xlink:href="#path7_fill"/><use fill="#FFF" transform="translate(208 -626)" xlink:href="#path8_fill"/></g></g><defs><path id="path0_fill" fill-rule="evenodd" d="M0 0h1400v384H0V0z"/><path id="path1_fill" fill-rule="evenodd" d="M22.56 45.13a22.56 22.56 0 1 0 0-45.13 22.56 22.56 0 0 0 0 45.13z"/><path id="path2_fill" fill-rule="evenodd" d="M1.14 8.9L0 10.04l5.7 8.01h.55L22.56 1.12 21.42 0 6.25 13.79l-5.1-4.9z"/><path id="path3_fill" fill-rule="evenodd" d="M1.14 8.9L0 10.04l5.7 8.01h.55L22.56 1.12 21.42 0 6.25 13.79l-5.1-4.9z"/><path id="path4_fill" fill-rule="evenodd" d="M22.56 45.13a22.56 22.56 0 1 0 0-45.13 22.56 22.56 0 0 0 0 45.13z"/><path id="path5_fill" fill-rule="evenodd" d="M22.87 45.74a22.87 22.87 0 1 0 0-45.74 22.87 22.87 0 0 0 0 45.74z"/><path id="path6_fill" fill-rule="evenodd" d="M1.16 9.02L0 10.18l5.78 8.12h.55L22.87 1.13 21.71 0 6.33 13.98 1.16 9.02z"/><path id="path7_fill" fill-rule="evenodd" d="M180.5 361c99.69 0 180.5-80.81 180.5-180.5S280.19 0 180.5 0 0 80.81 0 180.5 80.81 361 180.5 361z"/><path id="path8_fill" d="M70.93 52.97c14.54 0 23.23-6.98 23.23-19.49 0-11.37-6.01-14.78-16.25-18.68l-3.25-1.3c-6.41-2.44-8.93-4.47-8.93-8.53 0-4.47 2.84-7.31 8.37-7.31 3.24 0 5.6.4 7.14 1.06l2.93 10.23h6.66l-.81-14.21c-3.1-1.14-7.72-2.36-15.76-2.36-15.27 0-21.53 7.88-21.53 18.2 0 9.34 4.71 14.37 13.9 18.19l3.16 1.3c7.15 2.92 10.4 4.95 10.4 9.66 0 4.96-3.17 7.8-10 7.8-3 0-5.76-.48-7.8-1.46l-3.16-10.8h-6.98l.8 14.78c4.23 1.87 11.22 2.92 17.88 2.92zm31.83-39.47V39.4c0 9.58 4.3 13.48 13.16 13.48 5.04 0 9.34-1.3 11.94-2.84v-4.22c-.97.16-2.68.24-4.14.24-4.87 0-6.17-1.87-6.17-6.42V13.5h9.83V7.49h-9.83V-2.83L102.76-.47v7.96l-6.33 2.2v3.8h6.33zm41.81 14.38c-9.5 1.62-14.05 5.76-14.05 13.24 0 7.63 5.04 12.1 12.6 12.1 5.68 0 9.25-2.03 11.85-5.36h.49c1.22 3.17 3.9 5.2 9.5 5.2 3.57 0 6.9-.98 8.45-2.03V48.1L169.18 46V19.83c0-10.07-6.9-13.4-18.92-13.4-6.99 0-12.27 1.55-16.49 2.85v12.26h6.5l3-9.75a14.2 14.2 0 0 1 3.9-.48c5.2 0 7.15 2.51 7.15 8.6v6.1l-9.75 1.87zm5.85 17.87c-3.25 0-5.52-1.39-5.52-7.07 0-4.96 1.87-7.23 5.85-7.64l3.57-.4v13.8c-.81.82-2.2 1.3-3.9 1.3zm31 17.54c-1.62 0-3.25-.24-4.87-.57v5.2c2.27 1.54 4.79 2.2 7.47 2.2 6.82 0 11.21-3.58 15.19-14.06l16.4-42.97 3.74-1.95V7.5h-15.1v3.65l4.95 2.12-8.45 23.23h-.32l-8.04-23.32 4.79-2.03V7.5h-24.04v3.65l3.33 1.95 16.73 40.3-.81 2.18c-2.11 5.77-6.01 7.72-10.97 7.72zM42.9 80.49h-9.75l-7.06 26.72h-.57l-5.04-20.95 3.98-2.12V80.5H.65v3.65l3.9 2.12L15.76 125h11.37l6.74-23.8h.33l7.3 23.8h11.46l10.8-38.74 3.82-2.12V80.5H53.04v3.65l3.98 2.12-5.12 21.11h-.56L42.89 80.5zm37.75-19a7.61 7.61 0 0 0-7.8 7.63c0 4.3 3.41 7.55 7.8 7.55 4.22 0 7.87-3.25 7.87-7.55s-3.65-7.64-7.87-7.64zM68.6 82.27v3.49l4.96 1.95v31.76l-4.63 2.03V125h24.04v-3.5l-4.55-2.02V79.84l-1.54-.16-18.28 2.6zm30.8 4.22v25.91c0 9.59 4.31 13.48 13.17 13.48 5.03 0 9.34-1.3 11.94-2.84v-4.22c-.98.16-2.69.24-4.15.24-4.87 0-6.17-1.87-6.17-6.42V86.5h9.83v-6.01h-9.83V70.17l-14.78 2.36v7.96l-6.34 2.2v3.8h6.34zm27.76 35v3.5h23.56v-3.5l-4.06-1.86V88.69a15 15 0 0 1 6.09-1.3c3.65 0 5.6 1.79 5.6 6.26v25.99l-4.14 1.87V125h23.56v-3.5l-4.63-2.1V91.2c0-8.12-3.41-11.78-11.13-11.78-5.6 0-11.21 2.2-15.1 5.6h-.5V61.09l-1.86-.25-17.63 2.6v3.58l4.87 1.94v50.44l-4.63 2.12zm70.31-33.7v25.67c0 7.63 3.9 12.67 12.43 12.67 5.52 0 10.07-2.6 13.32-5.6h.49v5.27l1.78.16 17.55-2.03v-3.33l-4.8-2.43V79.84l-1.78-.16-17.79 2.43v3.58l4.88 2.1v29.09c-1.71.73-3.58 1.3-5.77 1.3-3.41 0-5.44-1.3-5.44-5.53V79.84l-1.95-.16-17.8 2.43v3.58l4.88 2.1zm70.2 7.96l-3-.73c-4.96-1.3-6.5-2.76-6.5-5.69 0-3.25 2.19-5.2 6.58-5.2 2.43 0 4.3.33 5.6.98l2.36 6.98h5.36V81.22c-3.41-1.3-8.45-1.87-13.65-1.87-12.67 0-18.44 6.17-18.44 14.87 0 8.28 4.39 12.83 13.9 15.19l3 .73c4.55 1.05 6.09 2.6 6.09 5.52 0 3.41-2.28 5.6-7.31 5.6-2.76 0-5.12-.57-6.9-1.54l-3.42-7.72H246l.49 11.62c4.47 1.62 10.15 2.44 15.35 2.44 13.24 0 19.17-5.6 19.17-15.52 0-8.36-3.98-12.5-13.32-14.78z"/></defs></svg>
