<svg width="347" height="121" viewBox="0 0 347 121" xmlns="http://www.w3.org/2000/svg" xmlns:xlink="http://www.w3.org/1999/xlink"><title>Missing-mobile</title><defs><path d="M57.281.002H2.296L.05 2.545v41.139l2.247 2.545h55.452l2.247-2.546V2.546L57.748.002h-.467zM13.568 6.488h32.907L30.021 20.62 13.568 6.488zm20.52 19.854L54 9.204V39.44H6.043V9.204l19.913 17.138h8.132z" id="a"/></defs><g fill="none" fill-rule="evenodd"><g fill="#FEE307"><path d="M41.354 90.004c0 11.344 1.911 14.303 5.24 14.303 3.267 0 5.117-3.02 5.117-14.364 0-11.282-1.788-14.056-5.178-14.056-3.268 0-5.18 2.836-5.18 14.117m-12.144-.061c0-10.85 6.904-17.57 17.262-17.57 10.357 0 17.385 6.72 17.385 17.631 0 10.974-6.905 17.879-17.323 17.879-10.297 0-17.324-6.967-17.324-17.94M69.28 102.766V78.66l-3.7-1.48v-2.65l13.379-1.974 1.355.124v3.945h.37c2.899-2.59 6.103-4.253 10.48-4.253 3.884 0 6.29 1.171 7.584 4.316h.246c3.021-2.652 6.412-4.316 10.79-4.316 5.548 0 8.568 2.835 8.568 9v21.393l3.576 1.542v2.65h-17.385v-2.65l2.774-1.542V83.099c0-3.39-1.479-4.746-4.007-4.746-1.418 0-2.836.493-4.007.986v23.427l2.774 1.542v2.65H85.68v-2.65l2.835-1.542V83.099c0-3.39-1.295-4.746-3.945-4.746-1.603 0-2.898.43-4.07 1.047v23.366l2.713 1.542v2.65H65.766v-2.65l3.514-1.542zM134.996 87.6l9.556-.617c0-8.631-1.48-11.158-4.439-11.158-3.144 0-5.117 3.452-5.117 11.775zm.185 3.39c.37 6.968 2.959 10.235 10.357 10.235 3.575 0 6.103-.74 8.507-1.973v3.083c-1.85 2.527-6.534 5.547-13.07 5.547-11.466 0-17.323-6.904-17.323-17.94 0-10.787 6.411-17.507 16.77-17.507 9.74 0 14.795 4.87 14.795 17.693v.863H135.18zM157.188 77.736v-2.898l4.81-1.665v-6.04l11.218-1.788v7.828h7.46v4.563h-7.46v19.851c0 3.453.987 4.87 4.686 4.87 1.11 0 2.405-.061 3.144-.184v3.206c-1.973 1.171-5.24 2.157-9.063 2.157-6.72 0-9.986-2.96-9.986-10.234V77.736h-4.81zM186.778 102.704V64.42l-3.7-1.48v-2.713l13.379-1.973 1.418.186v18.186h.37c2.959-2.59 7.213-4.253 11.466-4.253 5.857 0 8.446 2.774 8.446 8.939v21.392l3.515 1.604v2.65h-17.879v-2.65l3.144-1.419V83.161c0-3.39-1.48-4.747-4.254-4.747-1.849 0-3.329.432-4.624.986v23.49l3.083 1.418v2.65h-17.878v-2.65l3.514-1.604zM236.897 72.557l1.172.124v30.085l3.452 1.542v2.65h-18.249v-2.65l3.514-1.542V78.66l-3.76-1.48v-2.65zM246.884 102.643V78.599l-3.7-1.48V74.53l13.44-1.973 1.357.124v3.945h.37c2.897-2.59 7.213-4.253 11.466-4.253 5.857 0 8.446 2.774 8.446 8.939v21.33l3.514 1.603v2.712H263.9v-2.712l3.144-1.417V83.161c0-3.39-1.48-4.747-4.254-4.747-1.788 0-3.329.493-4.624 1.048v23.366l3.083 1.417v2.712H243.37v-2.712l3.514-1.602zM298.05 75.393c-2.527 0-3.945 1.974-3.945 8.878 0 6.473 1.418 8.446 3.945 8.446 2.528 0 4.008-2.096 4.008-8.508 0-6.842-1.418-8.816-4.008-8.816m9.495 37.114c0-1.665-.987-2.713-3.946-2.713h-11.775c-1.294.863-1.85 1.85-1.85 2.959 0 2.96 1.726 4.685 7.83 4.685 6.597 0 9.741-1.849 9.741-4.931m-26.14 1.725c0-2.65 3.021-4.438 7.152-5.301v-.309c-2.898-.863-4.933-3.452-4.933-6.596 0-3.328 2.343-5.856 6.104-7.275v-.308c-3.638-1.787-6.227-5.487-6.227-10.11 0-7.644 5.857-11.96 14.55-11.96 3.082 0 5.795.678 7.767 1.48h.432l8.816-1.542h.616v6.411h-.863l-5.794-1.788v.371c2.404 1.972 3.575 4.376 3.575 7.336 0 7.582-5.98 11.59-14.55 11.59-2.096 0-3.822-.308-5.424-.616-.74.616-1.296 1.355-1.296 2.28 0 1.357.864 2.22 2.651 2.22h11.283c7.52 0 11.158 2.158 11.158 8.26 0 7.214-6.165 12.393-18.68 12.393-10.357 0-16.336-1.85-16.336-6.536M324.167 104.368c0-3.329 2.528-6.103 6.104-6.103 3.637 0 6.165 2.774 6.165 6.103 0 3.329-2.528 6.165-6.165 6.165-3.576 0-6.104-2.836-6.104-6.165m3.02-35.325l-2.218 8.137h-5.055V66.392c2.835-.924 6.966-1.726 11.22-1.726 8.877 0 15.228 3.02 15.228 11.097 0 5.61-3.083 8.57-8.755 11.775-4.253 2.28-5.857 3.514-5.857 5.672 0 .555.123 1.048.309 1.849h-4.871c-.678-1.11-1.294-2.712-1.294-4.747 0-2.897 1.356-4.747 3.946-6.843 3.082-2.59 4.438-4.562 4.438-8.693 0-4.315-1.48-5.918-4.809-5.918-.8 0-1.665.124-2.281.185M27.163 95.915c0 7.52-4.501 11.775-14.55 11.775-3.945 0-8.26-.617-11.65-1.85l-.37-8.815H4.66l2.59 5.857c1.356.739 3.143 1.17 5.24 1.17 3.822 0 5.548-1.664 5.548-4.253 0-2.22-1.171-3.39-4.624-4.192l-2.281-.555C3.92 93.264.593 89.812.593 83.524c0-6.597 4.376-11.283 13.993-11.283 3.946 0 7.768.432 10.357 1.418v8.261h-4.069l-1.787-5.302c-.987-.493-2.405-.739-4.254-.739-3.329 0-4.993 1.479-4.993 3.945 0 2.219 1.17 3.33 4.932 4.316l2.28.555c7.09 1.725 10.111 4.87 10.111 11.22M80.844 6.534c0 3.267-2.774 5.733-5.98 5.733-3.33 0-5.919-2.466-5.919-5.733 0-3.267 2.59-5.795 5.918-5.795 3.207 0 5.98 2.528 5.98 5.795zm-1.233 8.014l1.171.123v30.086l3.452 1.54v2.651H65.986v-2.65l3.514-1.541V20.652l-3.76-1.48v-2.65l13.871-1.974zM113.147 37.975c0 7.521-4.501 11.775-14.55 11.775-3.945 0-8.26-.616-11.65-1.849l-.37-8.816h4.067l2.59 5.857c1.357.74 3.144 1.17 5.24 1.17 3.823 0 5.549-1.664 5.549-4.253 0-2.219-1.172-3.39-4.624-4.192l-2.281-.555c-7.213-1.788-10.542-5.24-10.542-11.528 0-6.597 4.377-11.282 13.994-11.282 3.946 0 7.768.432 10.357 1.418v8.26h-4.069l-1.787-5.301c-.987-.494-2.405-.74-4.254-.74-3.329 0-4.994 1.48-4.994 3.946 0 2.218 1.172 3.33 4.933 4.315l2.28.555c7.09 1.726 10.11 4.87 10.11 11.22M142.49 37.975c0 7.521-4.5 11.775-14.549 11.775-3.945 0-8.26-.616-11.65-1.849l-.37-8.816h4.067l2.59 5.857c1.357.74 3.144 1.17 5.24 1.17 3.823 0 5.549-1.664 5.549-4.253 0-2.219-1.172-3.39-4.624-4.192l-2.281-.555c-7.213-1.788-10.542-5.24-10.542-11.528 0-6.597 4.377-11.282 13.994-11.282 3.946 0 7.768.432 10.357 1.418v8.26h-4.069l-1.787-5.301c-.987-.494-2.405-.74-4.254-.74-3.329 0-4.994 1.48-4.994 3.946 0 2.218 1.172 3.33 4.933 4.315l2.28.555c7.09 1.726 10.11 4.87 10.11 11.22M159.69 6.534c0 3.267-2.774 5.733-5.98 5.733-3.33 0-5.919-2.466-5.919-5.733 0-3.267 2.59-5.795 5.918-5.795 3.207 0 5.981 2.528 5.981 5.795zm-1.233 8.014l1.172.123v30.086l3.451 1.54v2.651h-18.248v-2.65l3.514-1.541V20.652l-3.76-1.48v-2.65l13.871-1.974zM168.443 44.634V20.59l-3.699-1.48v-2.589l13.44-1.973 1.357.124v3.945h.37c2.897-2.59 7.213-4.253 11.466-4.253 5.857 0 8.446 2.773 8.446 8.938v21.332l3.514 1.602v2.712H185.46v-2.712l3.143-1.417V25.152c0-3.39-1.478-4.747-4.253-4.747-1.788 0-3.329.493-4.624 1.048V44.82l3.083 1.417v2.712h-17.879v-2.712l3.514-1.602zM219.61 17.384c-2.527 0-3.945 1.973-3.945 8.877 0 6.474 1.418 8.447 3.945 8.447 2.528 0 4.008-2.096 4.008-8.508 0-6.843-1.418-8.816-4.008-8.816m9.495 37.114c0-1.665-.987-2.714-3.946-2.714h-11.775c-1.294.864-1.85 1.85-1.85 2.96 0 2.96 1.726 4.685 7.83 4.685 6.596 0 9.74-1.85 9.74-4.931m-26.139 1.725c0-2.65 3.02-4.439 7.151-5.302v-.308c-2.897-.863-4.932-3.453-4.932-6.596 0-3.329 2.343-5.857 6.104-7.275v-.308c-3.638-1.788-6.228-5.487-6.228-10.11 0-7.645 5.858-11.96 14.55-11.96 3.083 0 5.795.677 7.768 1.48h.432l8.815-1.542h.617v6.41h-.863l-5.795-1.787v.37c2.405 1.973 3.576 4.377 3.576 7.337 0 7.582-5.98 11.59-14.55 11.59-2.096 0-3.822-.309-5.425-.617-.74.617-1.295 1.356-1.295 2.282 0 1.355.863 2.218 2.651 2.218h11.283c7.52 0 11.158 2.159 11.158 8.261 0 7.214-6.165 12.393-18.68 12.393-10.357 0-16.337-1.85-16.337-6.536M57.75 2.922H2.764L.518 5.465v41.139l2.248 2.545h55.452l2.247-2.546V5.466l-2.247-2.544h-.467zM14.037 9.407h32.908L30.49 23.538 14.037 9.407zm20.52 19.854L54.47 12.124V42.36H6.512V12.124l19.913 17.137h8.132z"/></g><g transform="translate(.47 2.92)"><mask id="b" fill="#fff"><use xlink:href="#a"/></mask><path fill="#FEE307" mask="url(#b)" d="M-230.9 771.981h1458.852V-1822.83H-230.901z"/><path fill="#FEE307" mask="url(#b)" d="M-19.404 66.67h98.85v-85.128h-98.85z"/></g></g></svg>