<svg width="132" height="129" viewBox="0 0 132 129" xmlns="http://www.w3.org/2000/svg"><title>Group 4</title><desc>Created with Sketch.</desc><g transform="translate(-9 -120) translate(9 120)" fill="none"><path d="M52.232 15.24c0 6.096-4.056 9.048-8.448 9.048-4.8 0-8.304-3.048-8.304-8.856 0-6.144 4.08-9.024 8.448-9.024 4.776 0 8.304 3 8.304 8.832zm-8.4-7.176c-1.944 0-2.856 1.584-2.856 7.224 0 5.856.816 7.344 2.904 7.344 1.944 0 2.808-1.536 2.808-7.2 0-5.952-.864-7.368-2.856-7.368zm23.28 8.976c0 5.16-2.832 7.272-6.072 7.272-1.032 0-1.872-.216-2.256-.432v3.6l1.56.576v1.08h-7.32v-1.08l1.368-.576v-14.4l-1.416-.696v-1.008l5.256-.768.528.048v1.512h.144c.672-.792 1.92-1.632 3.696-1.632 2.52 0 4.512 1.728 4.512 6.504zm-4.584.48c0-3.6-.864-4.632-2.352-4.632-.552 0-1.032.168-1.392.36v9.168c.312.24.72.432 1.32.432 1.512 0 2.424-1.392 2.424-5.328zm7.128-4.896h-1.872v-1.128l1.872-.648v-2.352l4.368-.696v3.048h2.904v1.776h-2.904v7.728c0 1.344.384 1.896 1.824 1.896.432 0 .936-.024 1.224-.072v1.248c-.768.456-2.04.84-3.528.84-2.616 0-3.888-1.152-3.888-3.984v-7.656zm15.936-7.392c1.248 0 2.328.984 2.328 2.256 0 1.272-1.08 2.232-2.328 2.232-1.296 0-2.304-.96-2.304-2.232 0-1.272 1.008-2.256 2.304-2.256zm-3.552 6.144l5.4-.768.456.048v11.712l1.344.6v1.032h-7.104v-1.032l1.368-.6v-9.384l-1.464-.576v-1.032zm7.92 11.568l1.368-.624v-9.36l-1.44-.576v-1.008l5.232-.768.528.048v1.536h.144c1.128-1.008 2.808-1.656 4.464-1.656 2.28 0 3.288 1.08 3.288 3.48v8.304l1.368.624v1.056h-6.96v-1.056l1.224-.552v-7.656c0-1.32-.576-1.848-1.656-1.848-.696 0-1.296.192-1.8.408v9.096l1.2.552v1.056h-6.96v-1.056zM35.432 61v-1.272l1.632-.552v-13.632l-1.632-.576v-1.272h7.44l3.12 10.848h.096l2.856-10.848h7.848v1.272l-1.608.6v13.56l1.608.6v1.272h-7.92v-1.272l1.392-.576v-11.976h-.144l-3.48 13.68h-3.336l-3.984-13.68h-.12v12.024l1.44.528v1.272h-5.208zm25.656-18.768c1.248 0 2.328.984 2.328 2.256 0 1.272-1.08 2.232-2.328 2.232-1.296 0-2.304-.96-2.304-2.232 0-1.272 1.008-2.256 2.304-2.256zm-3.552 6.144l5.4-.768.456.048v11.712l1.344.6v1.032h-7.104v-1.032l1.368-.6v-9.384l-1.464-.576v-1.032zm14.52 3.984c2.76.672 3.936 1.896 3.936 4.368 0 2.928-1.752 4.584-5.664 4.584-1.536 0-3.216-.24-4.536-.72l-.144-3.432h1.584l1.008 2.28c.528.288 1.224.456 2.04.456 1.488 0 2.16-.648 2.16-1.656 0-.864-.456-1.32-1.8-1.632l-.888-.216c-2.808-.696-4.104-2.04-4.104-4.488 0-2.568 1.704-4.392 5.448-4.392 1.536 0 3.024.168 4.032.552v3.216h-1.584l-.696-2.064c-.384-.192-.936-.288-1.656-.288-1.296 0-1.944.576-1.944 1.536 0 .864.456 1.296 1.92 1.68l.888.216zm11.424 0c2.76.672 3.936 1.896 3.936 4.368 0 2.928-1.752 4.584-5.664 4.584-1.536 0-3.216-.24-4.536-.72l-.144-3.432h1.584l1.008 2.28c.528.288 1.224.456 2.04.456 1.488 0 2.16-.648 2.16-1.656 0-.864-.456-1.32-1.8-1.632l-.888-.216c-2.808-.696-4.104-2.04-4.104-4.488 0-2.568 1.704-4.392 5.448-4.392 1.536 0 3.024.168 4.032.552v3.216h-1.584l-.696-2.064c-.384-.192-.936-.288-1.656-.288-1.296 0-1.944.576-1.944 1.536 0 .864.456 1.296 1.92 1.68l.888.216zm15.72 9c-4.008 0-6.744-2.712-6.744-6.984 0-4.224 2.688-6.84 6.72-6.84s6.768 2.616 6.768 6.864c0 4.272-2.688 6.96-6.744 6.96zm0-12.456c-1.272 0-2.016 1.104-2.016 5.496 0 4.416.744 5.568 2.04 5.568 1.272 0 1.992-1.176 1.992-5.592 0-4.392-.696-5.472-2.016-5.472zm8.688 1.104l-1.44-.624v-1.056l5.256-.72.576.048v9.696c0 1.248.6 1.632 1.608 1.632.648 0 1.2-.168 1.704-.384v-8.592l-1.44-.624v-1.056l5.256-.72.528.048v11.328l1.416.72v.984l-5.184.6-.528-.048v-1.56h-.144c-.96.888-2.304 1.656-3.936 1.656-2.52 0-3.672-1.488-3.672-3.744v-7.584zm15.888-.384h-1.872v-1.128l1.872-.648v-2.352l4.368-.696v3.048h2.904v1.776h-2.904v7.728c0 1.344.384 1.896 1.824 1.896.432 0 .936-.024 1.224-.072v1.248c-.768.456-2.04.84-3.528.84-2.616 0-3.888-1.152-3.888-3.984v-7.656z" fill="#fff"/><circle stroke="#fff" stroke-width="1.978" cx="16" cy="54" r="15.011"/><circle stroke="#fff" stroke-width="1.978" cx="16" cy="16" r="15.011"/><path fill="#fff" d="M7.91 16.393l-.91.951 4.551 6.656h.432l13.016-14.073-.91-.927-12.106 11.458z"/><path fill="#FFE500" d="M0 81h130v25h-130zm0 24h108v24h-108z"/><path d="M9.778 86.522c4.32 0 6.642 2.142 6.642 6.192 0 4.446-2.448 6.786-6.48 6.786h-5.562v-.72l1.476-.342v-10.854l-1.458-.342v-.72h5.382zm.144 12.042c2.448 0 3.636-1.278 3.636-5.58 0-4.608-1.404-5.526-3.888-5.526h-1.26v11.106h1.512zm12.132 1.188c-2.826 0-4.752-1.998-4.752-5.058 0-3.078 2.016-5.076 4.716-5.076 2.826 0 4.752 1.926 4.752 5.022 0 3.078-1.998 5.112-4.716 5.112zm-.054-9.288c-1.422 0-2.268 1.134-2.268 4.158 0 3.078.864 4.284 2.34 4.284 1.422 0 2.25-1.152 2.25-4.194 0-3.078-.864-4.248-2.322-4.248zm5.508 8.424l1.206-.342v-7.506l-1.242-.324v-.576l3.15-.468.288.09v.954h.09c.9-.612 2.07-1.098 3.24-1.098 1.782 0 2.628.738 2.628 2.574v6.354l1.206.342v.612h-4.59v-.612l1.134-.306v-6.048c0-1.188-.612-1.62-1.584-1.62-.828 0-1.476.234-2.07.486v7.182l1.134.306v.612h-4.59v-.612zm11.43-8.406c.18-1.278.36-2.61.45-3.96h2.088c-.288 1.368-.9 2.664-1.728 3.96h-.81zm4.806.306h-1.386v-.63l1.386-.36v-1.98l2.232-.36v2.34h2.538v.99h-2.538v6.228c0 1.098.342 1.494 1.602 1.494.36 0 .792-.036 1.08-.108v.72c-.468.27-1.332.54-2.286.54-1.746 0-2.628-.666-2.628-2.538v-6.336zm8.73 8.118l1.206-.342v-7.506l-1.242-.342v-.576l3.132-.468.306.09v.954h.072c.918-.63 1.836-1.098 3.15-1.098 1.08 0 1.836.342 2.25 1.116h.072c.918-.63 1.98-1.116 3.24-1.116 1.674 0 2.556.828 2.556 2.646v6.3l1.224.342v.594h-4.536v-.594l1.116-.342v-5.976c0-1.224-.612-1.692-1.602-1.692-.774 0-1.332.234-1.872.486v7.182l1.116.342v.594h-4.41v-.594l1.134-.342v-5.976c0-1.224-.522-1.692-1.512-1.692-.882 0-1.368.216-1.944.486v7.182l1.098.342v.594h-4.554v-.594zm18.792-13.158c.72 0 1.332.558 1.332 1.278 0 .702-.612 1.26-1.332 1.26-.756 0-1.314-.558-1.314-1.26 0-.72.558-1.278 1.314-1.278zm-2.286 4.392l3.222-.468.27.09v8.802l1.242.342v.594h-4.716v-.594l1.224-.342v-7.506l-1.242-.342v-.576zm10.044 3.546c1.782.504 2.538 1.386 2.538 2.97 0 1.908-1.26 3.096-3.852 3.096-1.08 0-2.178-.198-3.114-.522l-.126-2.394h.864l.648 1.674c.45.216.99.378 1.71.378 1.368 0 2.016-.63 2.016-1.548 0-.756-.396-1.206-1.62-1.548l-.918-.288c-1.764-.504-2.628-1.35-2.628-2.934 0-1.692 1.17-2.952 3.618-2.952 1.098 0 2.106.144 2.772.36v2.214h-.882l-.414-1.494c-.324-.144-.81-.216-1.422-.216-1.224 0-1.8.558-1.8 1.404 0 .738.396 1.134 1.692 1.53l.918.27zm8.082 0c1.782.504 2.538 1.386 2.538 2.97 0 1.908-1.26 3.096-3.852 3.096-1.08 0-2.178-.198-3.114-.522l-.126-2.394h.864l.648 1.674c.45.216.99.378 1.71.378 1.368 0 2.016-.63 2.016-1.548 0-.756-.396-1.206-1.62-1.548l-.918-.288c-1.764-.504-2.628-1.35-2.628-2.934 0-1.692 1.17-2.952 3.618-2.952 1.098 0 2.106.144 2.772.36v2.214h-.882l-.414-1.494c-.324-.144-.81-.216-1.422-.216-1.224 0-1.8.558-1.8 1.404 0 .738.396 1.134 1.692 1.53l.918.27zm11.286 6.066c-2.826 0-4.752-1.998-4.752-5.058 0-3.078 2.016-5.076 4.716-5.076 2.826 0 4.752 1.926 4.752 5.022 0 3.078-1.998 5.112-4.716 5.112zm-.054-9.288c-1.422 0-2.268 1.134-2.268 4.158 0 3.078.864 4.284 2.34 4.284 1.422 0 2.25-1.152 2.25-4.194 0-3.078-.864-4.248-2.322-4.248zm6.642.522l-1.26-.342v-.612l3.186-.36.306.09v7.092c0 1.17.63 1.566 1.584 1.566.828 0 1.44-.234 2.034-.486v-6.948l-1.242-.342v-.612l3.15-.36.324.09v8.55l1.206.378v.576l-3.096.414-.306-.054v-1.026h-.072c-.846.558-1.89 1.098-3.06 1.098-1.854 0-2.754-.9-2.754-2.682v-6.03zm11.232-.198h-1.386v-.63l1.386-.36v-1.98l2.232-.36v2.34h2.538v.99h-2.538v6.228c0 1.098.342 1.494 1.602 1.494.36 0 .792-.036 1.08-.108v.72c-.468.27-1.332.54-2.286.54-1.746 0-2.628-.666-2.628-2.538v-6.336zm7.398 9c-.756 0-1.35-.594-1.35-1.35 0-.72.594-1.314 1.35-1.314.792 0 1.368.594 1.368 1.314 0 .756-.576 1.35-1.368 1.35zm-107.154 14.678c0 4.518-2.898 6.75-6.012 6.75-3.438 0-5.958-2.43-5.958-6.696 0-4.572 2.934-6.714 6.03-6.714 3.402 0 5.94 2.358 5.94 6.66zm-6.03-5.67c-2.25 0-3.15 1.854-3.15 5.634 0 3.906.792 5.778 3.222 5.778 2.232 0 3.15-1.854 3.15-5.58 0-4.194-.972-5.832-3.222-5.832zm16.758 7.038c0 3.636-1.98 5.382-4.698 5.382-.756 0-1.368-.126-1.836-.288v2.79l1.44.36v.612h-4.896v-.612l1.224-.342v-11.16l-1.242-.36v-.576l3.15-.468.288.09v.954h.09c.666-.576 1.62-1.098 2.934-1.098 1.836 0 3.546 1.188 3.546 4.716zm-2.322.342c0-2.79-.864-3.78-2.466-3.78-.702 0-1.368.252-1.746.486v6.966c.378.252.792.468 1.584.468 1.62 0 2.628-1.062 2.628-4.14zm4.392-3.888h-1.386v-.63l1.386-.36v-1.98l2.232-.36v2.34h2.538v.99h-2.538v6.228c0 1.098.342 1.494 1.602 1.494.36 0 .792-.036 1.08-.108v.72c-.468.27-1.332.54-2.286.54-1.746 0-2.628-.666-2.628-2.538v-6.336zm11.016-5.04c.72 0 1.332.558 1.332 1.278 0 .702-.612 1.26-1.332 1.26-.756 0-1.314-.558-1.314-1.26 0-.72.558-1.278 1.314-1.278zm-2.286 4.392l3.222-.468.27.09v8.802l1.242.342v.594h-4.716v-.594l1.224-.342v-7.506l-1.242-.342v-.576zm5.31 8.748l1.206-.342v-7.506l-1.242-.324v-.576l3.15-.468.288.09v.954h.09c.9-.612 2.07-1.098 3.24-1.098 1.782 0 2.628.738 2.628 2.574v6.354l1.206.342v.612h-4.59v-.612l1.134-.306v-6.048c0-1.188-.612-1.62-1.584-1.62-.828 0-1.476.234-2.07.486v7.182l1.134.306v.612h-4.59v-.612zm14.85-8.19l.09-.558 1.458-.27.504-2.34h1.692l-.522 2.358h2.16l-.18.81h-2.16l-1.584 6.894c-.162.666-.09 1.134.63 1.134s1.332-.198 1.836-.396l-.144.702c-.486.306-1.206.63-2.34.63-.99 0-1.746-.468-1.746-1.422 0-.234 0-.486.09-.792l1.548-6.75h-1.332zm8.928 9c-2.466 0-3.564-1.8-3.564-3.87 0-3.366 2.25-6.102 5.256-6.102 2.484 0 3.546 1.782 3.528 3.834 0 3.366-2.214 6.138-5.22 6.138zm.018-.702c.666 0 1.278-.342 1.8-.918.972-1.152 1.638-3.33 1.638-5.184 0-1.512-.504-2.448-1.782-2.448-.684 0-1.296.342-1.836.936-.972 1.152-1.62 3.294-1.62 5.112 0 1.53.54 2.502 1.8 2.502zm8.172.684c-1.314 0-2.232-1.116-2.232-2.754 0-3.78 2.394-7.218 5.634-7.218.684 0 1.368.126 1.926.468l.9-3.942h-1.512l.108-.594 3.132-.45.162.126-3.024 13.356 1.62-.036-.144.54c-.594.252-1.512.486-2.196.486-.738 0-1.008-.414-.846-1.17l.36-1.512h-.072c-1.044 1.494-2.448 2.7-3.816 2.7zm.63-1.206c1.044 0 2.376-1.296 3.42-2.7l1.062-4.698c-.468-.396-.99-.648-1.62-.648-2.358 0-3.978 3.474-3.978 6.426 0 .9.396 1.62 1.116 1.62zm9.27 1.206c-1.332 0-2.052-1.062-2.052-2.484 0-3.51 2.628-7.29 5.778-7.29.666 0 1.35.252 1.692.522h.09l.378-.576h1.296l-2.142 8.82 1.692-.036-.144.54c-.594.234-1.602.486-2.286.486-.756 0-1.026-.432-.864-1.152l.396-1.566h-.072c-.954 1.422-2.34 2.736-3.762 2.736zm.666-1.242c1.08 0 2.34-1.242 3.33-2.628l1.116-4.5c-.288-.342-.774-.576-1.332-.576-2.142 0-4.068 3.492-4.068 6.336 0 .846.288 1.368.954 1.368zm5.454 2.844h.234l.468 1.188h.144c.99 0 2.322-.9 3.348-2.106-.054-3.762-.504-7.848-.828-9.594l-1.404.018.126-.612c.576-.216 1.386-.45 1.998-.45.63 0 .9.198 1.026.954.306 1.746.648 5.796.576 8.262h.054c1.512-2.088 2.682-4.338 3.168-5.976.18-.594.234-.99.234-1.386 0-.612-.306-.954-1.026-.936l.108-.612c.522-.198.936-.306 1.386-.306.648 0 1.044.378 1.044 1.224 0 .522-.216 1.26-.576 2.142-.864 2.124-2.574 4.824-4.158 6.696-1.782 2.106-3.474 3.51-5.274 3.51-1.008 0-1.548-.45-1.548-1.152 0-.504.378-.864.9-.864z" fill="#121212"/></g></svg>