<svg xmlns="http://www.w3.org/2000/svg" xmlns:xlink="http://www.w3.org/1999/xlink" viewBox="0 0 138 125"><g transform="translate(-1824 369)"><use fill="#005689" transform="translate(1936.38 -358.45)" xlink:href="#path1_fill"/><use fill="#F5F5F5" transform="translate(1940.02 -354.19)" xlink:href="#path2_fill"/><use fill="#FF4E36" transform="translate(1946.14 -332.4)" xlink:href="#path3_fill"/><use fill="#F5F5F5" transform="translate(1949.79 -328.14)" xlink:href="#path4_fill"/><use fill="#FF4E36" transform="translate(1919.62 -286.03)" xlink:href="#path3_fill"/><use fill="#F5F5F5" transform="translate(1923.26 -281.77)" xlink:href="#path4_fill"/><use fill="#FF4E36" transform="translate(1892.38 -280.83)" xlink:href="#path3_fill"/><use fill="#F5F5F5" transform="translate(1896.02 -276.57)" xlink:href="#path4_fill"/><use fill="#FF4E36" transform="translate(1863.19 -365.17)" xlink:href="#path3_fill"/><use fill="#F5F5F5" transform="translate(1866.83 -360.9)" xlink:href="#path4_fill"/><use fill="#FF4E36" transform="translate(1902.81 -378.81)" xlink:href="#path3_fill"/><use fill="#F5F5F5" transform="translate(1906.45 -374.55)" xlink:href="#path4_fill"/><use fill="#005689" transform="translate(1866.76 -290.51)" xlink:href="#path1_fill"/><use fill="#F5F5F5" transform="translate(1870.4 -286.25)" xlink:href="#path2_fill"/><use fill="#005689" transform="translate(1888.57 -378.2)" xlink:href="#path1_fill"/><use fill="#F5F5F5" transform="translate(1892.21 -373.93)" xlink:href="#path2_fill"/><g opacity=".6"><use fill="#008E89" transform="translate(1848.95 -367.03)" xlink:href="#path1_fill"/><use fill="#F5F5F5" transform="translate(1852.6 -362.77)" xlink:href="#path5_fill"/></g><use fill="#57BBD4" transform="translate(1879.14 -283.69)" xlink:href="#path1_fill"/><use fill="#F5F5F5" transform="translate(1882.79 -279.43)" xlink:href="#path5_fill"/><use fill="#57BBD4" transform="translate(1873.71 -257.88)" xlink:href="#path1_fill"/><use fill="#F5F5F5" transform="translate(1877.36 -253.62)" xlink:href="#path5_fill"/><g opacity=".6"><use fill="#008E89" transform="translate(1844 -301)" xlink:href="#path1_fill"/><use fill="#F5F5F5" transform="translate(1847.64 -296.74)" xlink:href="#path5_fill"/></g><g opacity=".6"><use fill="#008E89" transform="translate(1837 -374)" xlink:href="#path1_fill"/><use fill="#F5F5F5" transform="translate(1840.64 -369.74)" xlink:href="#path5_fill"/></g><g opacity=".2"><use fill="#008E89" transform="translate(1830 -283)" xlink:href="#path1_fill"/><use fill="#F5F5F5" transform="translate(1833.64 -278.74)" xlink:href="#path5_fill"/></g><use fill="#57BBD4" transform="translate(1874.33 -373.85)" xlink:href="#path1_fill"/><use fill="#F5F5F5" transform="translate(1877.98 -369.6)" xlink:href="#path5_fill"/><use fill="#005689" opacity=".6" transform="translate(1861.95 -380.67)" xlink:href="#path1_fill"/><use fill="#008E89" transform="translate(1917.05 -376.95)" xlink:href="#path1_fill"/><use fill="#F5F5F5" transform="translate(1920.69 -372.7)" xlink:href="#path5_fill"/><g opacity=".6"><use fill="#008E89" transform="translate(1939.33 -375.1)" xlink:href="#path1_fill"/><use fill="#F5F5F5" transform="translate(1942.98 -370.83)" xlink:href="#path5_fill"/></g><use fill="#005689" transform="translate(1851 -313)" xlink:href="#path1_fill"/><use fill="#F5F5F5" transform="translate(1854.64 -308.74)" xlink:href="#path2_fill"/><g opacity=".4"><use fill="#005689" transform="translate(1838 -318)" xlink:href="#path1_fill"/><use fill="#F5F5F5" transform="translate(1841.64 -313.74)" xlink:href="#path2_fill"/></g><g opacity=".2"><use fill="#005689" transform="translate(1827 -306)" xlink:href="#path1_fill"/><use fill="#F5F5F5" transform="translate(1830.64 -301.74)" xlink:href="#path2_fill"/></g><g opacity=".6"><use fill="#005689" transform="translate(1904.67 -265.33)" xlink:href="#path1_fill"/><use fill="#F5F5F5" transform="translate(1908.31 -261.06)" xlink:href="#path2_fill"/></g><use fill="#008E89" transform="translate(1906.62 -281.45)" xlink:href="#path1_fill"/><use fill="#F5F5F5" transform="translate(1910.26 -277.19)" xlink:href="#path5_fill"/><use fill="#005689" transform="translate(1945.52 -318.14)" xlink:href="#path1_fill"/><use fill="#F5F5F5" transform="translate(1949.17 -313.88)" xlink:href="#path2_fill"/><use fill="#008E89" transform="translate(1931.14 -294.33)" xlink:href="#path1_fill"/><use fill="#F5F5F5" transform="translate(1934.79 -290.07)" xlink:href="#path5_fill"/><g opacity=".6"><use fill="#FF4E36" transform="translate(1887.33 -268.43)" xlink:href="#path3_fill"/><use fill="#F5F5F5" transform="translate(1890.98 -264.16)" xlink:href="#path4_fill"/></g><g opacity=".6"><use fill="#FF4E36" transform="translate(1853.14 -287.8)" xlink:href="#path3_fill"/><use fill="#F5F5F5" transform="translate(1856.79 -283.53)" xlink:href="#path4_fill"/></g><use fill="#FF4E36" transform="translate(1849 -341)" xlink:href="#path3_fill"/><use fill="#F5F5F5" transform="translate(1852.64 -336.74)" xlink:href="#path4_fill"/><g opacity=".2"><use fill="#FF4E36" transform="translate(1822 -351)" xlink:href="#path3_fill"/><use fill="#F5F5F5" transform="translate(1825.64 -346.74)" xlink:href="#path4_fill"/></g><g opacity=".6"><use fill="#005689" transform="translate(1936.24 -282.07)" xlink:href="#path1_fill"/><use fill="#F5F5F5" transform="translate(1939.88 -277.8)" xlink:href="#path2_fill"/></g><use fill="#008E89" transform="translate(1848 -327)" xlink:href="#path1_fill"/><use fill="#F5F5F5" transform="translate(1851.64 -322.74)" xlink:href="#path5_fill"/><g opacity=".6"><use fill="#008E89" transform="translate(1836 -333)" xlink:href="#path1_fill"/><use fill="#F5F5F5" transform="translate(1839.64 -328.74)" xlink:href="#path5_fill"/></g><g opacity=".6"><use fill="#008E89" transform="translate(1869.38 -274.63)" xlink:href="#path1_fill"/><use fill="#F5F5F5" transform="translate(1873.02 -270.37)" xlink:href="#path5_fill"/></g><g opacity=".6"><use fill="#008E89" transform="translate(1924.48 -273.39)" xlink:href="#path1_fill"/><use fill="#F5F5F5" transform="translate(1928.12 -269.13)" xlink:href="#path5_fill"/></g><g opacity=".6"><use fill="#008E89" transform="translate(1851.43 -257.88)" xlink:href="#path1_fill"/><use fill="#F5F5F5" transform="translate(1855.07 -253.62)" xlink:href="#path5_fill"/></g><use fill="#57BBD4" transform="translate(1855 -354)" xlink:href="#path1_fill"/><use fill="#F5F5F5" transform="translate(1858.64 -349.74)" xlink:href="#path5_fill"/><use fill="#57BBD4" transform="translate(1837 -347)" xlink:href="#path1_fill"/><use fill="#F5F5F5" transform="translate(1840.64 -342.74)" xlink:href="#path5_fill"/><use fill="#FF4E36" opacity=".6" transform="translate(1848.33 -381.3)" xlink:href="#path3_fill"/><use fill="#57BBD4" transform="translate(1942.81 -346.05)" xlink:href="#path1_fill"/><use fill="#F5F5F5" transform="translate(1946.45 -341.78)" xlink:href="#path5_fill"/><use fill="#57BBD4" transform="translate(1939.81 -305.5)" xlink:href="#path1_fill"/><use fill="#F5F5F5" transform="translate(1943.45 -301.23)" xlink:href="#path5_fill"/><g><use fill="#57BBD4" transform="translate(1857.24 -300.43)" xlink:href="#path1_fill"/><use fill="#F5F5F5" transform="translate(1860.88 -296.17)" xlink:href="#path5_fill"/></g><g><use fill="#008FD7" transform="translate(1862 -365)" xlink:href="#path6_fill"/><use fill="#FFF" transform="translate(1870.46 -348.17)" xlink:href="#path7_fill"/></g></g><defs><path id="path0_fill" fill-rule="evenodd" d="M0 0h138v125H0V0z"/><path id="path1_fill" fill-rule="evenodd" d="M7.13 14.3A7.14 7.14 0 1 0 7.11.03a7.14 7.14 0 0 0 .02 14.29z"/><path id="path2_fill" fill-rule="evenodd" d="M.36 2.82L0 3.18l1.8 2.54h.18L7.13.35 6.77 0l-4.8 4.37-1.6-1.55z"/><path id="path3_fill" fill-rule="evenodd" d="M7.13 14.3A7.14 7.14 0 1 0 7.11.03a7.14 7.14 0 0 0 .02 14.29z"/><path id="path4_fill" fill-rule="evenodd" d="M.36 2.82L0 3.18l1.8 2.54h.18L7.13.35 6.77 0l-4.8 4.37-1.6-1.55z"/><path id="path5_fill" fill-rule="evenodd" d="M.36 2.82L0 3.18l1.8 2.54h.18L7.13.35 6.77 0l-4.8 4.37-1.6-1.55z"/><path id="path6_fill" fill-rule="evenodd" d="M41.88 84.6c23.13 0 41.88-18.93 41.88-42.3C83.76 18.94 65.01 0 41.88 0 18.75 0 0 18.94 0 42.3c0 23.37 18.75 42.3 41.88 42.3z"/><path id="path7_fill" d="M16.63 14.23c3.37 0 5.39-1.62 5.39-4.53 0-2.63-1.4-3.42-3.77-4.33l-.75-.3c-1.5-.57-2.08-1.04-2.08-1.98 0-1.03.66-1.7 1.94-1.7.76 0 1.3.1 1.66.25l.68 2.37h1.55l-.2-3.3c-.7-.26-1.78-.54-3.65-.54-3.54 0-4.99 1.83-4.99 4.22 0 2.17 1.1 3.34 3.22 4.22l.74.3c1.65.68 2.4 1.15 2.4 2.25 0 1.14-.73 1.8-2.3 1.8a4.3 4.3 0 0 1-1.82-.34l-.73-2.5H12.3l.19 3.43c.97.43 2.6.68 4.14.68zm7.38-9.16v6.01c0 2.22 1 3.13 3.06 3.13 1.16 0 2.16-.3 2.77-.66v-.98c-.23.04-.63.05-.96.05-1.14 0-1.44-.43-1.44-1.48V5.07h2.28v-1.4h-2.28V1.29l-3.43.55v1.85l-1.46.5v.89H24zm9.7 3.33c-2.2.38-3.26 1.34-3.26 3.08 0 1.77 1.17 2.8 2.92 2.8 1.32 0 2.15-.47 2.75-1.24h.12c.28.73.9 1.2 2.2 1.2.83 0 1.6-.22 1.96-.47v-.67l-.98-.5V6.55c0-2.34-1.6-3.1-4.39-3.1-1.62 0-2.84.35-3.82.65v2.84h1.5l.7-2.26c.28-.07.55-.1.9-.1 1.21 0 1.66.58 1.66 1.99v1.41l-2.26.43zm1.36 4.15c-.76 0-1.28-.32-1.28-1.64 0-1.15.43-1.68 1.35-1.77l.83-.1v3.2c-.19.2-.5.3-.9.3zm7.19 4.07c-.38 0-.75-.06-1.13-.13v1.2a3 3 0 0 0 1.73.51c1.58 0 2.6-.83 3.52-3.26l3.81-9.96.87-.46v-.84h-3.5v.84l1.14.5-1.96 5.38h-.07L44.8 5l1.11-.48v-.84h-5.57v.84l.77.46 3.88 9.34-.19.5c-.49 1.35-1.4 1.8-2.54 1.8zm-32.1 7.06H7.9l-1.64 6.2h-.13L4.96 25l.92-.49v-.84H.36v.84l.9.5L3.87 34H6.5l1.57-5.52h.07L9.84 34h2.65L15 25.01l.89-.49v-.84H12.5v.84l.93.5-1.2 4.9h-.12l-1.96-6.24zm8.75-4.41c-1.01 0-1.8.77-1.8 1.77s.79 1.75 1.8 1.75c.98 0 1.83-.75 1.83-1.75s-.85-1.77-1.83-1.77zm-2.78 4.82v.81l1.14.45v7.37l-1.07.47V34h5.58v-.81l-1.06-.47v-9.2l-.36-.03-4.23.6zm7.14.98v6.01c0 2.22 1 3.13 3.05 3.13 1.17 0 2.17-.3 2.77-.66v-.98c-.23.04-.62.05-.96.05-1.13 0-1.43-.43-1.43-1.48v-6.07h2.28v-1.4H26.7v-2.39l-3.43.55v1.85l-1.47.5v.89h1.47zm6.44 8.12V34h5.46v-.81l-.94-.43v-7.18c.4-.17.85-.3 1.41-.3.85 0 1.3.41 1.3 1.45v6.03l-.96.43V34h5.46v-.81l-1.07-.49v-6.54c0-1.88-.79-2.73-2.58-2.73-1.3 0-2.6.5-3.5 1.3h-.12v-5.56l-.43-.05-4.09.6v.83l1.13.45v11.7l-1.07.49zM46 25.37v5.95c0 1.78.91 2.94 2.89 2.94 1.28 0 2.33-.6 3.09-1.3h.11v1.23l.42.04 4.06-.47v-.78l-1.1-.56v-8.9l-.42-.03-4.13.56v.83l1.13.5v6.74c-.4.17-.83.3-1.33.3-.8 0-1.27-.3-1.27-1.28v-7.62l-.45-.03-4.12.56v.83l1.13.5zm16.29 1.85l-.7-.17c-1.15-.3-1.5-.64-1.5-1.32 0-.75.5-1.2 1.52-1.2.56 0 1 .07 1.3.22l.55 1.62h1.24v-2.52c-.8-.3-1.96-.44-3.17-.44-2.93 0-4.27 1.43-4.27 3.45 0 1.92 1.01 2.98 3.22 3.52l.7.17c1.05.25 1.4.6 1.4 1.28 0 .8-.52 1.3-1.69 1.3-.64 0-1.18-.13-1.6-.35l-.79-1.8h-1.24l.11 2.7c1.04.38 2.36.56 3.56.56 3.07 0 4.45-1.3 4.45-3.6 0-1.93-.93-2.9-3.1-3.42z"/></defs></svg>
