<svg xmlns="http://www.w3.org/2000/svg" width="153px" height="181px" version="1.1" viewBox="0 0 153 181"><g fill="none" fill-rule="nonzero" stroke="none" stroke-width="1"><path fill="#005689" d="M127.52 44.9a9.33 9.33 0 1 0 0-18.67 9.33 9.33 0 0 0 0 18.67z"/><polygon fill="#F5F5F5" points="0.471738 3.68127 0 4.15474 2.35869 7.46907 2.58277 7.46907 9.32862 0.461638 8.85688 0 2.58277 5.70537" transform="translate(122.95 31.79)"/><path fill="#FF4E36" d="M142.9 78.89a9.33 9.33 0 1 0 0-18.67 9.33 9.33 0 0 0 0 18.67z"/><polygon fill="#F5F5F5" points="0.471738 3.68127 0 4.15474 2.35869 7.46907 2.58277 7.46907 9.32862 0.461638 8.85688 0 2.58277 5.70537" transform="translate(138.33 65.78)"/><path fill="#FF4E36" d="M112.14 142.01a9.33 9.33 0 1 0 0-18.66 9.33 9.33 0 0 0 0 18.66z"/><polygon fill="#F5F5F5" points="0.471738 3.68127 0 4.15474 2.35869 7.46907 2.58277 7.46907 9.32862 0.461638 8.85688 0 2.58277 5.70537" transform="translate(107.57 128.9)"/><path fill="#FF4E36" d="M76.52 150.1a9.33 9.33 0 1 0 0-18.66 9.33 9.33 0 0 0 0 18.67z"/><polygon fill="#F5F5F5" points="0.471738 3.68127 0 4.15474 2.35869 7.46907 2.58277 7.46907 9.32862 0.461638 8.85688 0 2.58277 5.70537" transform="translate(71.95 137)"/><path fill="#FF4E36" d="M34.43 40.04a9.33 9.33 0 1 0 0-18.67 9.33 9.33 0 0 0 0 18.67z"/><polygon fill="#F5F5F5" points="0.471738 3.68127 0 4.15474 2.35869 7.46907 2.58277 7.46907 9.32862 0.461638 8.85688 0 2.58277 5.70537" transform="translate(29.86 26.93)"/><path fill="#FF4E36" d="M86.23 22.24a9.33 9.33 0 1 0 0-18.67 9.33 9.33 0 0 0 0 18.67z"/><polygon fill="#F5F5F5" points="0.471738 3.68127 0 4.15474 2.35869 7.46907 2.58277 7.46907 9.32862 0.461638 8.85688 0 2.58277 5.70537" transform="translate(81.67 9.13)"/><path fill="#005689" d="M41.7 138.77a9.33 9.33 0 1 0 0-18.66 9.33 9.33 0 0 0 0 18.66z"/><polygon fill="#F5F5F5" points="0.471738 3.68127 0 4.15474 2.35869 7.46907 2.58277 7.46907 9.32862 0.461638 8.85688 0 2.58277 5.70537" transform="translate(37.14 125.66)"/><path fill="#005689" d="M67.62 23.04a9.33 9.33 0 1 0 0-18.66 9.33 9.33 0 0 0 0 18.66z"/><polygon fill="#F5F5F5" points="0.471738 3.68127 0 4.15474 2.35869 7.46907 2.58277 7.46907 9.32862 0.461638 8.85688 0 2.58277 5.70537" transform="translate(63.05 9.93)"/><g opacity="0.6"><path fill="#008E89" d="M15.8 37.61a9.33 9.33 0 1 0 0-18.66 9.33 9.33 0 0 0 0 18.66z"/><polygon fill="#F5F5F5" points="0.471738 3.68127 0 4.15474 2.35869 7.46907 2.58277 7.46907 9.32862 0.461638 8.85688 0 2.58277 5.70537" transform="translate(11.24 24.5)"/></g><path fill="#57BBD4" d="M57.9 147.68a9.33 9.33 0 1 0 0-18.67 9.33 9.33 0 0 0 0 18.67z"/><polygon fill="#F5F5F5" points="0.471738 3.68127 0 4.15474 2.35869 7.46907 2.58277 7.46907 9.32862 0.461638 8.85688 0 2.58277 5.70537" transform="translate(53.33 134.57)"/><path fill="#57BBD4" d="M48.19 180.05a9.33 9.33 0 1 0 0-18.67 9.33 9.33 0 0 0 0 18.67z"/><polygon fill="#F5F5F5" points="0.471738 3.68127 0 4.15474 2.35869 7.46907 2.58277 7.46907 9.32862 0.461638 8.85688 0 2.58277 5.70537" transform="translate(43.62 166.94)"/><g opacity="0.600000024"><path fill="#008E89" d="M9.33 125.83a9.33 9.33 0 1 0 0-18.67 9.33 9.33 0 0 0 0 18.67z"/><polygon fill="#F5F5F5" points="0.471738 3.68127 0 4.15474 2.35869 7.46907 2.58277 7.46907 9.32862 0.461638 8.85688 0 2.58277 5.70537" transform="translate(4.33 112.52)"/></g><path fill="#57BBD4" d="M49 28.71a9.33 9.33 0 1 0 0-18.67 9.33 9.33 0 0 0 0 18.67z"/><polygon fill="#F5F5F5" points="0.471738 3.68127 0 4.15474 2.35869 7.46907 2.58277 7.46907 9.32862 0.461638 8.85688 0 2.58277 5.70537" transform="translate(44.43 15.6)"/><path fill="#005689" d="M32.8 19.8a9.33 9.33 0 1 0 0-18.66 9.33 9.33 0 0 0 0 18.67z" opacity="0.6"/><path fill="#008E89" d="M104.85 24.66a9.33 9.33 0 1 0 0-18.66 9.33 9.33 0 0 0 0 18.66z"/><polygon fill="#F5F5F5" points="0.471738 3.68127 0 4.15474 2.35869 7.46907 2.58277 7.46907 9.32862 0.461638 8.85688 0 2.58277 5.70537" transform="translate(100.29 11.55)"/><g opacity="0.6"><path fill="#008E89" d="M134 27.1a9.33 9.33 0 1 0 0-18.67 9.33 9.33 0 0 0 0 18.66z"/><polygon fill="#F5F5F5" points="0.471738 3.68127 0 4.15474 2.35869 7.46907 2.58277 7.46907 9.32862 0.461638 8.85688 0 2.58277 5.70537" transform="translate(129.43 13.98)"/></g><path fill="#005689" d="M19.04 109.64a9.33 9.33 0 1 0 0-18.67 9.33 9.33 0 0 0 0 18.67z"/><polygon fill="#F5F5F5" points="0.471738 3.68127 0 4.15474 2.35869 7.46907 2.58277 7.46907 9.32862 0.461638 8.85688 0 2.58277 5.70537" transform="translate(14.48 96.53)"/><g opacity="0.6"><path fill="#005689" d="M88.66 170.34a9.33 9.33 0 1 0 0-18.67 9.33 9.33 0 0 0 0 18.67z"/><polygon fill="#F5F5F5" points="0.471738 3.68127 0 4.15474 2.35869 7.46907 2.58277 7.46907 9.32862 0.461638 8.85688 0 2.58277 5.70537" transform="translate(84.1 157.23)"/></g><path fill="#008E89" d="M95.14 149.3a9.33 9.33 0 1 0 0-18.67 9.33 9.33 0 0 0 0 18.67z"/><polygon fill="#F5F5F5" points="0.471738 3.68127 0 4.15474 2.35869 7.46907 2.58277 7.46907 9.32862 0.461638 8.85688 0 2.58277 5.70537" transform="translate(90.57 136.19)"/><path fill="#005689" d="M142.09 97.5a9.33 9.33 0 1 0 0-18.66 9.33 9.33 0 0 0 0 18.66z"/><polygon fill="#F5F5F5" points="0.471738 3.68127 0 4.15474 2.35869 7.46907 2.58277 7.46907 9.32862 0.461638 8.85688 0 2.58277 5.70537" transform="translate(137.53 84.39)"/><g><path fill="#008E89" d="M125.9 129.87a9.33 9.33 0 1 0 0-18.66 9.33 9.33 0 0 0 0 18.66z"/><polygon fill="#F5F5F5" points="0.471738 3.68127 0 4.15474 2.35869 7.46907 2.58277 7.46907 9.32862 0.461638 8.85688 0 2.58277 5.70537" transform="translate(121.33 116.76)"/></g><g opacity="0.6"><path fill="#FF4E36" d="M66 166.3a9.33 9.33 0 1 0 0-18.67 9.33 9.33 0 0 0 0 18.66z"/><polygon fill="#F5F5F5" points="0.471738 3.68127 0 4.15474 2.35869 7.46907 2.58277 7.46907 9.32862 0.461638 8.85688 0 2.58277 5.70537" transform="translate(61.43 153.18)"/></g><g opacity="0.6"><path fill="#FF4E36" d="M23.9 143.63a9.33 9.33 0 1 0 0-18.66 9.33 9.33 0 0 0 0 18.66z"/><polygon fill="#F5F5F5" points="0.471738 3.68127 0 4.15474 2.35869 7.46907 2.58277 7.46907 9.32862 0.461638 8.85688 0 2.58277 5.70537" transform="translate(19.33 130.52)"/></g><g><path fill="#FF4E36" d="M17.43 72.41a9.33 9.33 0 1 0 0-18.66 9.33 9.33 0 0 0 0 18.66z"/><polygon fill="#F5F5F5" points="0.471738 3.68127 0 4.15474 2.35869 7.46907 2.58277 7.46907 9.32862 0.461638 8.85688 0 2.58277 5.70537" transform="translate(12.86 59.3)"/></g><g opacity="0.6"><path fill="#005689" d="M129.95 148.49a9.33 9.33 0 1 0 0-18.67 9.33 9.33 0 0 0 0 18.67z"/><polygon fill="#F5F5F5" points="0.471738 3.68127 0 4.15474 2.35869 7.46907 2.58277 7.46907 9.32862 0.461638 8.85688 0 2.58277 5.70537" transform="translate(125.38 135.38)"/></g><g><path fill="#008E89" d="M15 91.03a9.33 9.33 0 1 0 0-18.67 9.33 9.33 0 0 0 0 18.67z"/><polygon fill="#F5F5F5" points="0.471738 3.68127 0 4.15474 2.35869 7.46907 2.58277 7.46907 9.32862 0.461638 8.85688 0 2.58277 5.70537" transform="translate(10.43 77.92)"/></g><g opacity="0.6"><path fill="#008E89" d="M42.52 158.2a9.33 9.33 0 1 0 0-18.67 9.33 9.33 0 0 0 0 18.67z"/><polygon fill="#F5F5F5" points="0.471738 3.68127 0 4.15474 2.35869 7.46907 2.58277 7.46907 9.32862 0.461638 8.85688 0 2.58277 5.70537" transform="translate(37.95 145.09)"/></g><g opacity="0.6"><path fill="#008E89" d="M114.57 159.82a9.33 9.33 0 1 0 0-18.67 9.33 9.33 0 0 0 0 18.67z"/><polygon fill="#F5F5F5" points="0.471738 3.68127 0 4.15474 2.35869 7.46907 2.58277 7.46907 9.32862 0.461638 8.85688 0 2.58277 5.70537" transform="translate(110 146.7)"/></g><g opacity="0.6"><path fill="#008E89" d="M19.04 180.05a9.33 9.33 0 1 0 0-18.67 9.33 9.33 0 0 0 0 18.67z"/><polygon fill="#F5F5F5" points="0.471738 3.68127 0 4.15474 2.35869 7.46907 2.58277 7.46907 9.32862 0.461638 8.85688 0 2.58277 5.70537" transform="translate(14.48 166.94)"/></g><g><path fill="#57BBD4" d="M23.09 54.6a9.33 9.33 0 1 0 0-18.66 9.33 9.33 0 0 0 0 18.67z"/><polygon fill="#F5F5F5" points="0.471738 3.68127 0 4.15474 2.35869 7.46907 2.58277 7.46907 9.32862 0.461638 8.85688 0 2.58277 5.70537" transform="translate(18.53 41.5)"/></g><g fill="#FF4E36" opacity="0.6"><path d="M15 19A9.33 9.33 0 1 0 15 .33 9.33 9.33 0 0 0 15 19z"/></g><g><path fill="#57BBD4" d="M137.23 61.08a9.33 9.33 0 1 0 0-18.66 9.33 9.33 0 0 0 0 18.66z"/><polygon fill="#F5F5F5" points="0.471738 3.68127 0 4.15474 2.35869 7.46907 2.58277 7.46907 9.32862 0.461638 8.85688 0 2.58277 5.70537" transform="translate(132.67 47.97)"/></g><g><path fill="#57BBD4" d="M137.23 115.3a9.33 9.33 0 1 0 0-18.66 9.33 9.33 0 0 0 0 18.67z"/><polygon fill="#F5F5F5" points="0.471738 3.68127 0 4.15474 2.35869 7.46907 2.58277 7.46907 9.32862 0.461638 8.85688 0 2.58277 5.70537" transform="translate(132.67 102.2)"/></g><g><path fill="#57BBD4" d="M27.95 125.83a9.33 9.33 0 1 0 0-18.67 9.33 9.33 0 0 0 0 18.67z"/><polygon fill="#F5F5F5" points="0.471738 3.68127 0 4.15474 2.35869 7.46907 2.58277 7.46907 9.32862 0.461638 8.85688 0 2.58277 5.70537" transform="translate(23.38 112.72)"/></g><g><path fill="#008FD7" d="M79.13 132.05a54.83 54.83 0 1 0 0-109.65 54.83 54.83 0 0 0 0 109.65z"/><path fill="#FFF" d="M57.13 74.24c4.42 0 7.06-2.13 7.06-5.93 0-3.45-1.83-4.49-4.93-5.67l-1-.4c-1.94-.73-2.7-1.35-2.7-2.59 0-1.35.86-2.22 2.54-2.22.98 0 1.7.13 2.17.33l.89 3.1h2.02l-.25-4.31c-.94-.35-2.34-.72-4.78-.72-4.64 0-6.54 2.4-6.54 5.53 0 2.83 1.43 4.36 4.22 5.52l.96.4c2.17.89 3.16 1.5 3.16 2.93 0 1.5-.97 2.37-3.04 2.37-.91 0-1.75-.15-2.37-.44l-.96-3.28h-2.12l.25 4.49c1.28.57 3.4.89 5.42.89zm9.67-12v7.88c0 2.9 1.31 4.1 4 4.1a7.4 7.4 0 0 0 3.63-.87v-1.29c-.3.05-.82.08-1.26.08-1.48 0-1.88-.57-1.88-1.95v-7.94h2.99v-1.83h-2.99v-3.13L66.8 58v2.42l-1.92.67v1.16h1.92zm12.7 4.37c-2.88.5-4.26 1.75-4.26 4.02 0 2.32 1.52 3.68 3.82 3.68 1.73 0 2.81-.62 3.6-1.63h.15c.37.96 1.18 1.58 2.89 1.58 1.08 0 2.1-.3 2.56-.62v-.88l-1.28-.65v-7.94c0-3.06-2.1-4.07-5.75-4.07-2.12 0-3.73.47-5 .86v3.73h1.97l.9-2.96c.38-.1.72-.15 1.2-.15 1.57 0 2.16.76 2.16 2.61v1.85l-2.96.57zm1.78 5.43c-.99 0-1.68-.42-1.68-2.15 0-1.5.57-2.2 1.78-2.32l1.08-.12v4.2c-.24.24-.66.39-1.18.39zm9.42 5.33c-.5 0-1-.07-1.48-.17v1.58c.69.46 1.45.66 2.27.66 2.07 0 3.4-1.08 4.6-4.27l5-13.05 1.13-.59v-1.11h-4.6v1.11l1.51.64-2.56 7.06h-.1l-2.44-7.08 1.45-.62v-1.11h-7.3v1.11l1.01.6 5.08 12.23-.24.67c-.64 1.75-1.83 2.34-3.33 2.34zm-42.08 5.05h-2.96l-2.15 8.12h-.17l-1.53-6.37 1.2-.64v-1.11H35.8v1.11l1.18.64 3.4 11.77h3.46l2.05-7.23h.1l2.22 7.23h3.48l3.28-11.77 1.16-.64v-1.11H51.7v1.11l1.21.64-1.55 6.42h-.18l-2.56-8.17zm11.46-5.77a2.31 2.31 0 0 0-2.37 2.32 2.3 2.3 0 0 0 2.37 2.29c1.29 0 2.4-.99 2.4-2.3 0-1.3-1.11-2.31-2.4-2.31zm-3.65 6.31v1.06l1.5.6v9.64l-1.4.62v1.06h7.3v-1.06l-1.38-.62V82.22l-.47-.05-5.55.8zm9.36 1.29v7.87c0 2.9 1.3 4.1 4 4.1a7.4 7.4 0 0 0 3.62-.87v-1.29c-.3.05-.81.08-1.26.08-1.48 0-1.87-.57-1.87-1.95v-7.94h2.98v-1.83h-2.98v-3.13l-4.5.71v2.42l-1.92.67v1.16h1.93zm8.43 10.63v1.06h7.15v-1.06l-1.23-.57v-9.4c.52-.22 1.11-.4 1.85-.4 1.11 0 1.7.55 1.7 1.9v7.9l-1.26.57v1.06h7.16v-1.06l-1.4-.64v-8.56c0-2.47-1.04-3.58-3.39-3.58-1.7 0-3.4.67-4.59 1.7h-.14v-7.28l-.57-.07-5.36.79v1.08l1.48.6v15.32l-1.4.64zm21.35-10.24v7.8c0 2.32 1.19 3.85 3.78 3.85 1.68 0 3.06-.8 4.05-1.7h.14v1.6l.55.05 5.33-.62V94.6l-1.46-.74V82.22l-.54-.05-5.4.74V84l1.47.64v8.83c-.51.22-1.08.4-1.75.4-1.03 0-1.65-.4-1.65-1.68v-9.97l-.6-.05-5.4.74V84l1.48.64zm21.33 2.42l-.92-.22c-1.5-.4-1.97-.84-1.97-1.73 0-.99.67-1.58 2-1.58.74 0 1.3.1 1.7.3l.72 2.12h1.63v-3.3c-1.04-.4-2.57-.58-4.15-.58-3.85 0-5.6 1.88-5.6 4.52 0 2.52 1.33 3.9 4.22 4.61l.91.22c1.38.33 1.85.8 1.85 1.68 0 1.04-.69 1.7-2.22 1.7a4.4 4.4 0 0 1-2.1-.46l-1.03-2.35h-1.63l.15 3.53c1.35.5 3.08.74 4.66.74 4.02 0 5.82-1.7 5.82-4.71 0-2.54-1.2-3.8-4.04-4.5z"/></g></g></svg>
