<svg xmlns="http://www.w3.org/2000/svg" width="241px" height="203px" version="1.1" viewBox="0 0 241 203"><g fill="none" fill-rule="nonzero" stroke="none" stroke-width="1"><path fill="#005689" d="M210.45 62.31a12.9 12.9 0 0 0 12.87-12.92 12.9 12.9 0 0 0-12.87-12.92 12.9 12.9 0 0 0-12.87 12.92 12.9 12.9 0 0 0 12.87 12.92z"/><polygon fill="#F5F5F5" points="0.650946 5.09524 0 5.75058 3.25473 10.3379 3.56393 10.3379 12.8725 0.638953 12.2215 0 3.56393 7.8968" transform="translate(204.15 44.17)"/><path fill="#FF4E36" d="M228.06 109.36a12.9 12.9 0 0 0 12.87-12.92 12.9 12.9 0 0 0-12.87-12.92 12.9 12.9 0 0 0-12.87 12.92 12.9 12.9 0 0 0 12.87 12.92z"/><polygon fill="#F5F5F5" points="0.650946 5.09524 0 5.75058 3.25473 10.3379 3.56393 10.3379 12.8725 0.638953 12.2215 0 3.56393 7.8968" transform="translate(221.76 91.21)"/><path fill="#FF4E36" d="M180.2 193.12a12.9 12.9 0 0 0 12.87-12.92 12.9 12.9 0 0 0-12.87-12.93 12.9 12.9 0 0 0-12.87 12.93 12.9 12.9 0 0 0 12.87 12.92z"/><polygon fill="#F5F5F5" points="0.650946 5.09524 0 5.75058 3.25473 10.3379 3.56393 10.3379 12.8725 0.638953 12.2215 0 3.56393 7.8968" transform="translate(173.9 174.97)"/><path fill="#FF4E36" d="M131.05 202.52a12.9 12.9 0 0 0 12.87-12.93 12.9 12.9 0 0 0-12.87-12.92 12.9 12.9 0 0 0-12.87 12.92 12.9 12.9 0 0 0 12.87 12.93z"/><polygon fill="#F5F5F5" points="0.650946 5.09524 0 5.75058 3.25473 10.3379 3.56393 10.3379 12.8725 0.638953 12.2215 0 3.56393 7.8968" transform="translate(124.75 184.37)"/><path fill="#FF4E36" d="M78.38 50.17a12.9 12.9 0 0 0 12.87-12.92 12.9 12.9 0 0 0-12.87-12.92 12.9 12.9 0 0 0-12.87 12.92 12.9 12.9 0 0 0 12.87 12.92z"/><polygon fill="#F5F5F5" points="0.650946 5.09524 0 5.75058 3.25473 10.3379 3.56393 10.3379 12.8725 0.638953 12.2215 0 3.56393 7.8968" transform="translate(72.08 32.03)"/><path fill="#005689" d="M84.82 185.03A12.9 12.9 0 0 0 97.7 172.1a12.9 12.9 0 0 0-12.87-12.92 12.9 12.9 0 0 0-12.87 12.92 12.9 12.9 0 0 0 12.87 12.93z"/><polygon fill="#F5F5F5" points="0.650946 5.09524 0 5.75058 3.25473 10.3379 3.56393 10.3379 12.8725 0.638953 12.2215 0 3.56393 7.8968" transform="translate(78.52 166.88)"/><path fill="#005689" d="M124.17 26.65a12.9 12.9 0 0 0 12.87-12.92A12.9 12.9 0 0 0 124.17.8a12.9 12.9 0 0 0-12.87 12.92 12.9 12.9 0 0 0 12.87 12.92z"/><g opacity="0.6"><path fill="#008E89" d="M52.68 46.81A12.9 12.9 0 0 0 65.55 33.9a12.9 12.9 0 0 0-12.87-12.92 12.9 12.9 0 0 0-12.87 12.92 12.9 12.9 0 0 0 12.87 12.92z"/><polygon fill="#F5F5F5" points="0.650946 5.09524 0 5.75058 3.25473 10.3379 3.56393 10.3379 12.8725 0.638953 12.2215 0 3.56393 7.8968" transform="translate(46.39 28.67)"/></g><path fill="#57BBD4" d="M107.16 197.35a12.9 12.9 0 0 0 12.87-12.92 12.9 12.9 0 0 0-12.87-12.93 12.9 12.9 0 0 0-12.87 12.93 12.9 12.9 0 0 0 12.87 12.92z"/><polygon fill="#F5F5F5" points="0.650946 5.09524 0 5.75058 3.25473 10.3379 3.56393 10.3379 12.8725 0.638953 12.2215 0 3.56393 7.8968" transform="translate(100.86 179.2)"/><g opacity="0.6"><path fill="#008E89" d="M43.75 166.08a12.9 12.9 0 0 0 12.87-12.92 12.9 12.9 0 0 0-12.87-12.92 12.9 12.9 0 0 0-12.87 12.92 12.9 12.9 0 0 0 12.87 12.92z"/><polygon fill="#F5F5F5" points="0.650946 5.09524 0 5.75058 3.25473 10.3379 3.56393 10.3379 12.8725 0.638953 12.2215 0 3.56393 7.8968" transform="translate(37.45 147.94)"/></g><g opacity="0.6"><path fill="#008E89" d="M31.12 34.23A12.9 12.9 0 0 0 44 21.3 12.9 12.9 0 0 0 31.12 8.38 12.9 12.9 0 0 0 18.25 21.3a12.9 12.9 0 0 0 12.87 12.93z"/><polygon fill="#F5F5F5" points="0.650946 5.09524 0 5.75058 3.25473 10.3379 3.56393 10.3379 12.8725 0.638953 12.2215 0 3.56393 7.8968" transform="translate(24.82 16.08)"/></g><g opacity="0.2"><path fill="#008E89" d="M18.48 198.6a12.9 12.9 0 0 0 12.87-12.93 12.9 12.9 0 0 0-12.87-12.92 12.9 12.9 0 0 0-12.87 12.92 12.9 12.9 0 0 0 12.87 12.92z"/><polygon fill="#F5F5F5" points="0.650946 5.09524 0 5.75058 3.25473 10.3379 3.56393 10.3379 12.8725 0.638953 12.2215 0 3.56393 7.8968" transform="translate(12.19 180.45)"/></g><path fill="#57BBD4" d="M98.48 34.5a12.9 12.9 0 0 0 12.87-12.93A12.9 12.9 0 0 0 98.48 8.65a12.9 12.9 0 0 0-12.87 12.92 12.9 12.9 0 0 0 12.87 12.92z"/><polygon fill="#F5F5F5" points="0.650946 5.09524 0 5.75058 3.25473 10.3379 3.56393 10.3379 12.8725 0.638953 12.2215 0 3.56393 7.8968" transform="translate(92.19 16.35)"/><path fill="#008E89" d="M175.56 28.9a12.9 12.9 0 0 0 12.87-12.93 12.9 12.9 0 0 0-12.87-12.92 12.9 12.9 0 0 0-12.87 12.92 12.9 12.9 0 0 0 12.87 12.92z"/><path fill="#008E89" d="M215.77 32.25a12.9 12.9 0 0 0 12.87-12.92A12.9 12.9 0 0 0 215.77 6.4a12.9 12.9 0 0 0-12.87 12.92 12.9 12.9 0 0 0 12.87 12.92z" opacity="0.6"/><path fill="#005689" d="M56.38 144.4a12.9 12.9 0 0 0 12.87-12.92 12.9 12.9 0 0 0-12.87-12.92 12.9 12.9 0 0 0-12.87 12.92 12.9 12.9 0 0 0 12.87 12.93z"/><polygon fill="#F5F5F5" points="0.650946 5.09524 0 5.75058 3.25473 10.3379 3.56393 10.3379 12.8725 0.638953 12.2215 0 3.56393 7.8968" transform="translate(50.08 126.26)"/><g opacity="0.4"><path fill="#005689" d="M32.92 135.38a12.9 12.9 0 0 0 12.87-12.93 12.9 12.9 0 0 0-12.87-12.92 12.9 12.9 0 0 0-12.87 12.92 12.9 12.9 0 0 0 12.87 12.93z"/><polygon fill="#F5F5F5" points="0.650946 5.09524 0 5.75058 3.25473 10.3379 3.56393 10.3379 12.8725 0.638953 12.2215 0 3.56393 7.8968" transform="translate(26.62 117.23)"/></g><path fill="#005689" d="M13.07 157.05a12.9 12.9 0 0 0 12.87-12.92 12.9 12.9 0 0 0-12.87-12.92A12.9 12.9 0 0 0 .2 144.13a12.9 12.9 0 0 0 12.87 12.92z" opacity="0.2"/><path fill="#008E89" d="M156.74 201.4a12.9 12.9 0 0 0 12.87-12.93 12.9 12.9 0 0 0-12.87-12.92 12.9 12.9 0 0 0-12.87 12.92 12.9 12.9 0 0 0 12.87 12.92z"/><polygon fill="#F5F5F5" points="0.650946 5.09524 0 5.75058 3.25473 10.3379 3.56393 10.3379 12.8725 0.638953 12.2215 0 3.56393 7.8968" transform="translate(150.44 183.25)"/><path fill="#005689" d="M226.94 135.12a12.9 12.9 0 0 0 12.87-12.92 12.9 12.9 0 0 0-12.87-12.92 12.9 12.9 0 0 0-12.87 12.92 12.9 12.9 0 0 0 12.87 12.92z"/><polygon fill="#F5F5F5" points="0.650946 5.09524 0 5.75058 3.25473 10.3379 3.56393 10.3379 12.8725 0.638953 12.2215 0 3.56393 7.8968" transform="translate(220.65 116.98)"/><g><path fill="#008E89" d="M201 178.12a12.9 12.9 0 0 0 12.86-12.92A12.9 12.9 0 0 0 201 152.28a12.9 12.9 0 0 0-12.87 12.92 12.9 12.9 0 0 0 12.87 12.92z"/><polygon fill="#F5F5F5" points="0.650946 5.09524 0 5.75058 3.25473 10.3379 3.56393 10.3379 12.8725 0.638953 12.2215 0 3.56393 7.8968" transform="translate(194.7 159.98)"/></g><g opacity="0.6"><path fill="#FF4E36" d="M60.25 189.94a12.9 12.9 0 0 0 12.87-12.92 12.9 12.9 0 0 0-12.87-12.92 12.9 12.9 0 0 0-12.87 12.92 12.9 12.9 0 0 0 12.87 12.92z"/><polygon fill="#F5F5F5" points="0.650946 5.09524 0 5.75058 3.25473 10.3379 3.56393 10.3379 12.8725 0.638953 12.2215 0 3.56393 7.8968" transform="translate(53.95 171.8)"/></g><g><path fill="#FF4E36" d="M52.77 93.83a12.9 12.9 0 0 0 12.87-12.92 12.9 12.9 0 0 0-12.87-12.92A12.9 12.9 0 0 0 39.9 80.9a12.9 12.9 0 0 0 12.87 12.92z"/><polygon fill="#F5F5F5" points="0.650946 5.09524 0 5.75058 3.25473 10.3379 3.56393 10.3379 12.8725 0.638953 12.2215 0 3.56393 7.8968" transform="translate(46.47 75.69)"/></g><g opacity="0.6"><path fill="#005689" d="M210.2 200.27a12.9 12.9 0 0 0 12.86-12.92 12.9 12.9 0 0 0-12.87-12.92 12.9 12.9 0 0 0-12.87 12.92 12.9 12.9 0 0 0 12.87 12.92z"/><polygon fill="#F5F5F5" points="0.650946 5.09524 0 5.75058 3.25473 10.3379 3.56393 10.3379 12.8725 0.638953 12.2215 0 3.56393 7.8968" transform="translate(203.89 182.13)"/></g><g><path fill="#008E89" d="M50.96 119.12a12.9 12.9 0 0 0 12.87-12.92 12.9 12.9 0 0 0-12.87-12.93A12.9 12.9 0 0 0 38.1 106.2a12.9 12.9 0 0 0 12.87 12.92z"/><polygon fill="#F5F5F5" points="0.650946 5.09524 0 5.75058 3.25473 10.3379 3.56393 10.3379 12.8725 0.638953 12.2215 0 3.56393 7.8968" transform="translate(44.67 100.97)"/></g><g opacity="0.6"><path fill="#008E89" d="M29.31 108.28a12.9 12.9 0 0 0 12.87-12.92 12.9 12.9 0 0 0-12.87-12.92 12.9 12.9 0 0 0-12.87 12.92 12.9 12.9 0 0 0 12.87 12.92z"/><polygon fill="#F5F5F5" points="0.650946 5.09524 0 5.75058 3.25473 10.3379 3.56393 10.3379 12.8725 0.638953 12.2215 0 3.56393 7.8968" transform="translate(23.01 90.14)"/></g><g><path fill="#57BBD4" d="M63.6 70.35a12.9 12.9 0 0 0 12.87-12.92A12.9 12.9 0 0 0 63.6 44.5a12.9 12.9 0 0 0-12.87 12.92A12.9 12.9 0 0 0 63.6 70.35z"/><polygon fill="#F5F5F5" points="0.650946 5.09524 0 5.75058 3.25473 10.3379 3.56393 10.3379 12.8725 0.638953 12.2215 0 3.56393 7.8968" transform="translate(57.3 52.2)"/></g><g><path fill="#57BBD4" d="M31.12 83A12.9 12.9 0 0 0 44 70.06a12.9 12.9 0 0 0-12.87-12.92 12.9 12.9 0 0 0-12.87 12.92A12.9 12.9 0 0 0 31.12 83z"/><polygon fill="#F5F5F5" points="0.650946 5.09524 0 5.75058 3.25473 10.3379 3.56393 10.3379 12.8725 0.638953 12.2215 0 3.56393 7.8968" transform="translate(24.82 64.85)"/></g><g><path fill="#57BBD4" d="M222.05 84.72a12.9 12.9 0 0 0 12.87-12.93 12.9 12.9 0 0 0-12.87-12.92 12.9 12.9 0 0 0-12.87 12.92 12.9 12.9 0 0 0 12.87 12.93z"/><polygon fill="#F5F5F5" points="0.650946 5.09524 0 5.75058 3.25473 10.3379 3.56393 10.3379 12.8725 0.638953 12.2215 0 3.56393 7.8968" transform="translate(215.75 66.57)"/></g><g><path fill="#57BBD4" d="M216.63 157.96a12.9 12.9 0 0 0 12.87-12.92 12.9 12.9 0 0 0-12.87-12.92 12.9 12.9 0 0 0-12.87 12.92 12.9 12.9 0 0 0 12.87 12.92z"/><polygon fill="#F5F5F5" points="0.650946 5.09524 0 5.75058 3.25473 10.3379 3.56393 10.3379 12.8725 0.638953 12.2215 0 3.56393 7.8968" transform="translate(210.34 139.81)"/></g><g><path fill="#57BBD4" d="M67.63 167.1a12.9 12.9 0 0 0 12.87-12.92 12.9 12.9 0 0 0-12.87-12.92 12.9 12.9 0 0 0-12.87 12.92 12.9 12.9 0 0 0 12.87 12.92z"/><polygon fill="#F5F5F5" points="0.650946 5.09524 0 5.75058 3.25473 10.3379 3.56393 10.3379 12.8725 0.638953 12.2215 0 3.56393 7.8968" transform="translate(61.34 148.96)"/></g><g><path fill="#008FD7" d="M138.93 177.46c41.74 0 75.58-34.2 75.58-76.4 0-42.21-33.84-76.42-75.58-76.42-41.74 0-75.57 34.2-75.57 76.41 0 42.2 33.83 76.41 75.57 76.41z"/><path fill="#FFF" d="M110.62 94.48c6.09 0 9.73-2.93 9.73-8.16 0-4.77-2.52-6.2-6.8-7.83l-1.37-.54c-2.68-1.02-3.74-1.87-3.74-3.57 0-1.87 1.2-3.06 3.5-3.06 1.37 0 2.35.17 3 .44l1.22 4.29h2.8l-.35-5.96c-1.3-.47-3.23-.98-6.6-.98-6.39 0-9 3.3-9 7.62 0 3.9 1.96 6.01 5.8 7.61l1.33.55c3 1.22 4.36 2.07 4.36 4.04 0 2.08-1.33 3.27-4.19 3.27-1.25 0-2.41-.2-3.26-.61l-1.33-4.53h-2.92l.34 6.2c1.77.78 4.7 1.22 7.48 1.22zm13.33-16.53V88.8c0 4.01 1.8 5.64 5.5 5.64 2.12 0 3.92-.54 5-1.19v-1.77c-.4.07-1.12.1-1.73.1-2.04 0-2.58-.78-2.58-2.68V77.95h4.11v-2.52h-4.11v-4.32l-6.2 1v3.32l-2.64.92v1.6h2.65zm17.5 6.02c-3.98.68-5.88 2.41-5.88 5.54 0 3.2 2.1 5.07 5.27 5.07 2.38 0 3.88-.85 4.97-2.25h.2c.51 1.33 1.63 2.18 3.98 2.18 1.5 0 2.89-.4 3.54-.85v-1.22l-1.77-.89V80.6c0-4.21-2.9-5.6-7.93-5.6-2.92 0-5.13.64-6.9 1.18v5.14h2.72l1.26-4.08c.5-.14.98-.2 1.63-.2 2.18 0 3 1.05 3 3.6v2.55l-4.09.78zm2.45 7.48c-1.36 0-2.31-.58-2.31-2.96 0-2.07.78-3.02 2.45-3.2l1.5-.16v5.78c-.35.34-.92.54-1.64.54zm12.98 7.35c-.68 0-1.36-.1-2.04-.24v2.17c.95.65 2 .92 3.13.92 2.85 0 4.7-1.5 6.36-5.88l6.87-17.99 1.56-.82v-1.53h-6.32v1.53l2.07.89-3.54 9.72h-.13l-3.37-9.76 2-.85v-1.53h-10.06v1.53l1.4.82 7 16.87-.34.92c-.88 2.41-2.52 3.23-4.59 3.23zm-57.94 13.63h-4.08l-2.96 11.2h-.24l-2.1-8.78 1.66-.89v-1.53h-9.97v1.53l1.64.89 4.69 16.22h4.76l2.82-9.96h.14l3.06 9.96h4.8l4.52-16.22 1.6-.89v-1.53h-6.1v1.53l1.67.89-2.14 8.84h-.24l-3.53-11.26zm15.8-7.95a3.19 3.19 0 0 0-3.26 3.2c0 1.8 1.42 3.16 3.26 3.16 1.77 0 3.3-1.36 3.3-3.17 0-1.8-1.53-3.2-3.3-3.2zm-5.03 8.7v1.46l2.07.82v13.3l-1.94.85v1.46h10.07v-1.46l-1.9-.85v-16.6l-.65-.07-7.65 1.1zm12.9 1.77v10.85c0 4.01 1.8 5.64 5.5 5.64 2.11 0 3.91-.54 5-1.19v-1.77c-.4.07-1.12.1-1.73.1-2.04 0-2.59-.78-2.59-2.68v-10.95h4.12v-2.52h-4.12v-4.32l-6.19 1v3.32l-2.65.92v1.6h2.65zm11.61 14.66v1.46h9.87v-1.46l-1.7-.79v-12.95c.71-.3 1.53-.55 2.55-.55 1.53 0 2.34.75 2.34 2.62v10.88l-1.73.79v1.46h9.86v-1.46l-1.94-.89v-11.8c0-3.4-1.43-4.93-4.66-4.93-2.34 0-4.69.92-6.32 2.35h-.2V104.3l-.79-.1-7.38 1.08v1.5l2.04.81v21.12l-1.94.89zm29.44-14.12v10.75c0 3.2 1.63 5.3 5.2 5.3a8.25 8.25 0 0 0 5.58-2.34h.2v2.2l.75.08 7.35-.85v-1.4l-2-1.02v-16.05l-.76-.07-7.44 1.02v1.5l2.04.88v12.18a6 6 0 0 1-2.42.54c-1.43 0-2.28-.54-2.28-2.31v-13.74l-.81-.07-7.45 1.02v1.5l2.04.88zm29.39 3.34l-1.26-.3c-2.07-.55-2.72-1.17-2.72-2.39 0-1.36.92-2.18 2.76-2.18 1.02 0 1.8.14 2.34.41l.99 2.93h2.24v-4.56a17.3 17.3 0 0 0-5.71-.78c-5.3 0-7.72 2.58-7.72 6.22 0 3.47 1.84 5.37 5.82 6.36l1.25.3c1.9.45 2.55 1.1 2.55 2.32 0 1.43-.95 2.34-3.06 2.34a6.06 6.06 0 0 1-2.89-.64l-1.43-3.23h-2.24l.2 4.86c1.87.68 4.25 1.02 6.43 1.02 5.54 0 8.03-2.35 8.03-6.5 0-3.5-1.67-5.23-5.58-6.18z"/></g></g></svg>
