<?xml version="1.0" encoding="UTF-8"?>
<svg width="499px" height="273px" viewBox="0 0 499 273" version="1.1" xmlns="http://www.w3.org/2000/svg" xmlns:xlink="http://www.w3.org/1999/xlink">
    <!-- Generator: Sketch 49.3 (51167) - http://www.bohemiancoding.com/sketch -->
    <title>Group 5</title>
    <desc>Created with Sketch.</desc>
    <defs></defs>
    <g id="Page-1" stroke="none" stroke-width="1" fill="none" fill-rule="evenodd">
        <g id="Group-5">
            <path d="M208.85,47.625 C208.85,66.675 196.175,75.9 182.45,75.9 C167.45,75.9 156.5,66.375 156.5,48.225 C156.5,29.025 169.25,20.025 182.9,20.025 C197.825,20.025 208.85,29.4 208.85,47.625 Z M182.6,25.2 C176.525,25.2 173.675,30.15 173.675,47.775 C173.675,66.075 176.225,70.725 182.75,70.725 C188.825,70.725 191.525,65.925 191.525,48.225 C191.525,29.625 188.825,25.2 182.6,25.2 Z M255.35,53.25 C255.35,69.375 246.5,75.975 236.375,75.975 C233.15,75.975 230.525,75.3 229.325,74.625 L229.325,85.875 L234.2,87.675 L234.2,91.05 L211.325,91.05 L211.325,87.675 L215.6,85.875 L215.6,40.875 L211.175,38.7 L211.175,35.55 L227.6,33.15 L229.25,33.3 L229.25,38.025 L229.7,38.025 C231.8,35.55 235.7,32.925 241.25,32.925 C249.125,32.925 255.35,38.325 255.35,53.25 Z M241.025,54.75 C241.025,43.5 238.325,40.275 233.675,40.275 C231.95,40.275 230.45,40.8 229.325,41.4 L229.325,70.05 C230.3,70.8 231.575,71.4 233.45,71.4 C238.175,71.4 241.025,67.05 241.025,54.75 Z M263.3,39.45 L257.45,39.45 L257.45,35.925 L263.3,33.9 L263.3,26.55 L276.95,24.375 L276.95,33.9 L286.025,33.9 L286.025,39.45 L276.95,39.45 L276.95,63.6 C276.95,67.8 278.15,69.525 282.65,69.525 C284,69.525 285.575,69.45 286.475,69.3 L286.475,73.2 C284.075,74.625 280.1,75.825 275.45,75.825 C267.275,75.825 263.3,72.225 263.3,63.375 L263.3,39.45 Z M313.1,16.35 C317,16.35 320.375,19.425 320.375,23.4 C320.375,27.375 317,30.375 313.1,30.375 C309.05,30.375 305.9,27.375 305.9,23.4 C305.9,19.425 309.05,16.35 313.1,16.35 Z M302,35.55 L318.875,33.15 L320.3,33.3 L320.3,69.9 L324.5,71.775 L324.5,75 L302.3,75 L302.3,71.775 L306.575,69.9 L306.575,40.575 L302,38.775 L302,35.55 Z M326.75,71.7 L331.025,69.75 L331.025,40.5 L326.525,38.7 L326.525,35.55 L342.875,33.15 L344.525,33.3 L344.525,38.1 L344.975,38.1 C348.5,34.95 353.75,32.925 358.925,32.925 C366.05,32.925 369.2,36.3 369.2,43.8 L369.2,69.75 L373.475,71.7 L373.475,75 L351.725,75 L351.725,71.7 L355.55,69.975 L355.55,46.05 C355.55,41.925 353.75,40.275 350.375,40.275 C348.2,40.275 346.325,40.875 344.75,41.55 L344.75,69.975 L348.5,71.7 L348.5,75 L326.75,75 L326.75,71.7 Z" id="Opt-in" fill="#FFFFFF"></path>
            <path d="M156.35,182 L156.35,178.025 L161.45,176.3 L161.45,133.7 L156.35,131.9 L156.35,127.925 L179.6,127.925 L189.35,161.825 L189.65,161.825 L198.575,127.925 L223.1,127.925 L223.1,131.9 L218.075,133.775 L218.075,176.15 L223.1,178.025 L223.1,182 L198.35,182 L198.35,178.025 L202.7,176.225 L202.7,138.8 L202.25,138.8 L191.375,181.55 L180.95,181.55 L168.5,138.8 L168.125,138.8 L168.125,176.375 L172.625,178.025 L172.625,182 L156.35,182 Z M236.525,123.35 C240.425,123.35 243.8,126.425 243.8,130.4 C243.8,134.375 240.425,137.375 236.525,137.375 C232.475,137.375 229.325,134.375 229.325,130.4 C229.325,126.425 232.475,123.35 236.525,123.35 Z M225.425,142.55 L242.3,140.15 L243.725,140.3 L243.725,176.9 L247.925,178.775 L247.925,182 L225.725,182 L225.725,178.775 L230,176.9 L230,147.575 L225.425,145.775 L225.425,142.55 Z M270.8,155 C279.425,157.1 283.1,160.925 283.1,168.65 C283.1,177.8 277.625,182.975 265.4,182.975 C260.6,182.975 255.35,182.225 251.225,180.725 L250.775,170 L255.725,170 L258.875,177.125 C260.525,178.025 262.7,178.55 265.25,178.55 C269.9,178.55 272,176.525 272,173.375 C272,170.675 270.575,169.25 266.375,168.275 L263.6,167.6 C254.825,165.425 250.775,161.225 250.775,153.575 C250.775,145.55 256.1,139.85 267.8,139.85 C272.6,139.85 277.25,140.375 280.4,141.575 L280.4,151.625 L275.45,151.625 L273.275,145.175 C272.075,144.575 270.35,144.275 268.1,144.275 C264.05,144.275 262.025,146.075 262.025,149.075 C262.025,151.775 263.45,153.125 268.025,154.325 L270.8,155 Z M306.5,155 C315.125,157.1 318.8,160.925 318.8,168.65 C318.8,177.8 313.325,182.975 301.1,182.975 C296.3,182.975 291.05,182.225 286.925,180.725 L286.475,170 L291.425,170 L294.575,177.125 C296.225,178.025 298.4,178.55 300.95,178.55 C305.6,178.55 307.7,176.525 307.7,173.375 C307.7,170.675 306.275,169.25 302.075,168.275 L299.3,167.6 C290.525,165.425 286.475,161.225 286.475,153.575 C286.475,145.55 291.8,139.85 303.5,139.85 C308.3,139.85 312.95,140.375 316.1,141.575 L316.1,151.625 L311.15,151.625 L308.975,145.175 C307.775,144.575 306.05,144.275 303.8,144.275 C299.75,144.275 297.725,146.075 297.725,149.075 C297.725,151.775 299.15,153.125 303.725,154.325 L306.5,155 Z M355.625,183.125 C343.1,183.125 334.55,174.65 334.55,161.3 C334.55,148.1 342.95,139.925 355.55,139.925 C368.15,139.925 376.7,148.1 376.7,161.375 C376.7,174.725 368.3,183.125 355.625,183.125 Z M355.625,144.2 C351.65,144.2 349.325,147.65 349.325,161.375 C349.325,175.175 351.65,178.775 355.7,178.775 C359.675,178.775 361.925,175.1 361.925,161.3 C361.925,147.575 359.75,144.2 355.625,144.2 Z M382.775,147.65 L378.275,145.7 L378.275,142.4 L394.7,140.15 L396.5,140.3 L396.5,170.6 C396.5,174.5 398.375,175.7 401.525,175.7 C403.55,175.7 405.275,175.175 406.85,174.5 L406.85,147.65 L402.35,145.7 L402.35,142.4 L418.775,140.15 L420.425,140.3 L420.425,175.7 L424.85,177.95 L424.85,181.025 L408.65,182.9 L407,182.75 L407,177.875 L406.55,177.875 C403.55,180.65 399.35,183.05 394.25,183.05 C386.375,183.05 382.775,178.4 382.775,171.35 L382.775,147.65 Z M432.425,146.45 L426.575,146.45 L426.575,142.925 L432.425,140.9 L432.425,133.55 L446.075,131.375 L446.075,140.9 L455.15,140.9 L455.15,146.45 L446.075,146.45 L446.075,170.6 C446.075,174.8 447.275,176.525 451.775,176.525 C453.125,176.525 454.7,176.45 455.6,176.3 L455.6,180.2 C453.2,181.625 449.225,182.825 444.575,182.825 C436.4,182.825 432.425,179.225 432.425,170.375 L432.425,146.45 Z" id="Miss-out" fill="#FFFFFF"></path>
            <circle id="Oval-Copy-4" stroke="#FFFFFF" stroke-width="6.25" cx="90" cy="156" r="46.875"></circle>
            <circle id="Oval" stroke="#FFFFFF" stroke-width="6.25" cx="90" cy="50" r="46.875"></circle>
            <polygon id="Checkmark" fill="#FFFFFF" points="62.9077118 50.6719493 60 53.5879556 74.5385588 74 75.9197219 74 117.5 30.8431062 114.592288 28 75.9197219 63.1378764"></polygon>
            <rect id="Rectangle-4" fill="#FFE500" x="0" y="225" width="499" height="48"></rect>
            <path d="M18.556,234.044 C27.196,234.044 31.84,238.328 31.84,246.428 C31.84,255.32 26.944,260 18.88,260 L7.756,260 L7.756,258.56 L10.708,257.876 L10.708,236.168 L7.792,235.484 L7.792,234.044 L18.556,234.044 Z M18.844,258.128 C23.74,258.128 26.116,255.572 26.116,246.968 C26.116,237.752 23.308,235.916 18.34,235.916 L15.82,235.916 L15.82,258.128 L18.844,258.128 Z M43.108,260.504 C37.456,260.504 33.604,256.508 33.604,250.388 C33.604,244.232 37.636,240.236 43.036,240.236 C48.688,240.236 52.54,244.088 52.54,250.28 C52.54,256.436 48.544,260.504 43.108,260.504 Z M43,241.928 C40.156,241.928 38.464,244.196 38.464,250.244 C38.464,256.4 40.192,258.812 43.144,258.812 C45.988,258.812 47.644,256.508 47.644,250.424 C47.644,244.268 45.916,241.928 43,241.928 Z M54.016,258.776 L56.428,258.092 L56.428,243.08 L53.944,242.432 L53.944,241.28 L60.244,240.344 L60.82,240.524 L60.82,242.432 L61,242.432 C62.8,241.208 65.14,240.236 67.48,240.236 C71.044,240.236 72.736,241.712 72.736,245.384 L72.736,258.092 L75.148,258.776 L75.148,260 L65.968,260 L65.968,258.776 L68.236,258.164 L68.236,246.068 C68.236,243.692 67.012,242.828 65.068,242.828 C63.412,242.828 62.116,243.296 60.928,243.8 L60.928,258.164 L63.196,258.776 L63.196,260 L54.016,260 L54.016,258.776 Z M76.876,241.964 C77.236,239.408 77.596,236.744 77.776,234.044 L81.952,234.044 C81.376,236.78 80.152,239.372 78.496,241.964 L76.876,241.964 Z M86.488,242.576 L83.716,242.576 L83.716,241.316 L86.488,240.596 L86.488,236.636 L90.952,235.916 L90.952,240.596 L96.028,240.596 L96.028,242.576 L90.952,242.576 L90.952,255.032 C90.952,257.228 91.636,258.02 94.156,258.02 C94.876,258.02 95.74,257.948 96.316,257.804 L96.316,259.244 C95.38,259.784 93.652,260.324 91.744,260.324 C88.252,260.324 86.488,258.992 86.488,255.248 L86.488,242.576 Z M103.948,258.812 L106.36,258.128 L106.36,243.116 L103.876,242.432 L103.876,241.28 L110.14,240.344 L110.752,240.524 L110.752,242.432 L110.896,242.432 C112.732,241.172 114.568,240.236 117.196,240.236 C119.356,240.236 120.868,240.92 121.696,242.468 L121.84,242.468 C123.676,241.208 125.8,240.236 128.32,240.236 C131.668,240.236 133.432,241.892 133.432,245.528 L133.432,258.128 L135.88,258.812 L135.88,260 L126.808,260 L126.808,258.812 L129.04,258.128 L129.04,246.176 C129.04,243.728 127.816,242.792 125.836,242.792 C124.288,242.792 123.172,243.26 122.092,243.764 L122.092,258.128 L124.324,258.812 L124.324,260 L115.504,260 L115.504,258.812 L117.772,258.128 L117.772,246.176 C117.772,243.728 116.728,242.792 114.748,242.792 C112.984,242.792 112.012,243.224 110.86,243.764 L110.86,258.128 L113.056,258.812 L113.056,260 L103.948,260 L103.948,258.812 Z M141.532,232.496 C142.972,232.496 144.196,233.612 144.196,235.052 C144.196,236.456 142.972,237.572 141.532,237.572 C140.02,237.572 138.904,236.456 138.904,235.052 C138.904,233.612 140.02,232.496 141.532,232.496 Z M136.96,241.28 L143.404,240.344 L143.944,240.524 L143.944,258.128 L146.428,258.812 L146.428,260 L136.996,260 L136.996,258.812 L139.444,258.128 L139.444,243.116 L136.96,242.432 L136.96,241.28 Z M157.048,248.372 C160.612,249.38 162.124,251.144 162.124,254.312 C162.124,258.128 159.604,260.504 154.42,260.504 C152.26,260.504 150.064,260.108 148.192,259.46 L147.94,254.672 L149.668,254.672 L150.964,258.02 C151.864,258.452 152.944,258.776 154.384,258.776 C157.12,258.776 158.416,257.516 158.416,255.68 C158.416,254.168 157.624,253.268 155.176,252.584 L153.34,252.008 C149.812,251 148.084,249.308 148.084,246.14 C148.084,242.756 150.424,240.236 155.32,240.236 C157.516,240.236 159.532,240.524 160.864,240.956 L160.864,245.384 L159.1,245.384 L158.272,242.396 C157.624,242.108 156.652,241.964 155.428,241.964 C152.98,241.964 151.828,243.08 151.828,244.772 C151.828,246.248 152.62,247.04 155.212,247.832 L157.048,248.372 Z M173.212,248.372 C176.776,249.38 178.288,251.144 178.288,254.312 C178.288,258.128 175.768,260.504 170.584,260.504 C168.424,260.504 166.228,260.108 164.356,259.46 L164.104,254.672 L165.832,254.672 L167.128,258.02 C168.028,258.452 169.108,258.776 170.548,258.776 C173.284,258.776 174.58,257.516 174.58,255.68 C174.58,254.168 173.788,253.268 171.34,252.584 L169.504,252.008 C165.976,251 164.248,249.308 164.248,246.14 C164.248,242.756 166.588,240.236 171.484,240.236 C173.68,240.236 175.696,240.524 177.028,240.956 L177.028,245.384 L175.264,245.384 L174.436,242.396 C173.788,242.108 172.816,241.964 171.592,241.964 C169.144,241.964 167.992,243.08 167.992,244.772 C167.992,246.248 168.784,247.04 171.376,247.832 L173.212,248.372 Z M195.784,260.504 C190.132,260.504 186.28,256.508 186.28,250.388 C186.28,244.232 190.312,240.236 195.712,240.236 C201.364,240.236 205.216,244.088 205.216,250.28 C205.216,256.436 201.22,260.504 195.784,260.504 Z M195.676,241.928 C192.832,241.928 191.14,244.196 191.14,250.244 C191.14,256.4 192.868,258.812 195.82,258.812 C198.664,258.812 200.32,256.508 200.32,250.424 C200.32,244.268 198.592,241.928 195.676,241.928 Z M208.96,242.972 L206.44,242.288 L206.44,241.064 L212.812,240.344 L213.424,240.524 L213.424,254.708 C213.424,257.048 214.684,257.84 216.592,257.84 C218.248,257.84 219.472,257.372 220.66,256.868 L220.66,242.972 L218.176,242.288 L218.176,241.064 L224.476,240.344 L225.124,240.524 L225.124,257.624 L227.536,258.38 L227.536,259.532 L221.344,260.36 L220.732,260.252 L220.732,258.2 L220.588,258.2 C218.896,259.316 216.808,260.396 214.468,260.396 C210.76,260.396 208.96,258.596 208.96,255.032 L208.96,242.972 Z M231.424,242.576 L228.652,242.576 L228.652,241.316 L231.424,240.596 L231.424,236.636 L235.888,235.916 L235.888,240.596 L240.964,240.596 L240.964,242.576 L235.888,242.576 L235.888,255.032 C235.888,257.228 236.572,258.02 239.092,258.02 C239.812,258.02 240.676,257.948 241.252,257.804 L241.252,259.244 C240.316,259.784 238.588,260.324 236.68,260.324 C233.188,260.324 231.424,258.992 231.424,255.248 L231.424,242.576 Z M246.22,260.576 C244.708,260.576 243.52,259.388 243.52,257.876 C243.52,256.436 244.708,255.248 246.22,255.248 C247.804,255.248 248.956,256.436 248.956,257.876 C248.956,259.388 247.804,260.576 246.22,260.576 Z M281.536,246.932 C281.536,255.968 275.74,260.432 269.512,260.432 C262.636,260.432 257.596,255.572 257.596,247.04 C257.596,237.896 263.464,233.612 269.656,233.612 C276.46,233.612 281.536,238.328 281.536,246.932 Z M269.476,235.592 C264.976,235.592 263.176,239.3 263.176,246.86 C263.176,254.672 264.76,258.416 269.62,258.416 C274.084,258.416 275.92,254.708 275.92,247.256 C275.92,238.868 273.976,235.592 269.476,235.592 Z M302.992,249.668 C302.992,256.94 299.032,260.432 293.596,260.432 C292.084,260.432 290.86,260.18 289.924,259.856 L289.924,265.436 L292.804,266.156 L292.804,267.38 L283.012,267.38 L283.012,266.156 L285.46,265.472 L285.46,243.152 L282.976,242.432 L282.976,241.28 L289.276,240.344 L289.852,240.524 L289.852,242.432 L290.032,242.432 C291.364,241.28 293.272,240.236 295.9,240.236 C299.572,240.236 302.992,242.612 302.992,249.668 Z M298.348,250.352 C298.348,244.772 296.62,242.792 293.416,242.792 C292.012,242.792 290.68,243.296 289.924,243.764 L289.924,257.696 C290.68,258.2 291.508,258.632 293.092,258.632 C296.332,258.632 298.348,256.508 298.348,250.352 Z M307.132,242.576 L304.36,242.576 L304.36,241.316 L307.132,240.596 L307.132,236.636 L311.596,235.916 L311.596,240.596 L316.672,240.596 L316.672,242.576 L311.596,242.576 L311.596,255.032 C311.596,257.228 312.28,258.02 314.8,258.02 C315.52,258.02 316.384,257.948 316.96,257.804 L316.96,259.244 C316.024,259.784 314.296,260.324 312.388,260.324 C308.896,260.324 307.132,258.992 307.132,255.248 L307.132,242.576 Z M329.164,232.496 C330.604,232.496 331.828,233.612 331.828,235.052 C331.828,236.456 330.604,237.572 329.164,237.572 C327.652,237.572 326.536,236.456 326.536,235.052 C326.536,233.612 327.652,232.496 329.164,232.496 Z M324.592,241.28 L331.036,240.344 L331.576,240.524 L331.576,258.128 L334.06,258.812 L334.06,260 L324.628,260 L324.628,258.812 L327.076,258.128 L327.076,243.116 L324.592,242.432 L324.592,241.28 Z M335.212,258.776 L337.624,258.092 L337.624,243.08 L335.14,242.432 L335.14,241.28 L341.44,240.344 L342.016,240.524 L342.016,242.432 L342.196,242.432 C343.996,241.208 346.336,240.236 348.676,240.236 C352.24,240.236 353.932,241.712 353.932,245.384 L353.932,258.092 L356.344,258.776 L356.344,260 L347.164,260 L347.164,258.776 L349.432,258.164 L349.432,246.068 C349.432,243.692 348.208,242.828 346.264,242.828 C344.608,242.828 343.312,243.296 342.124,243.8 L342.124,258.164 L344.392,258.776 L344.392,260 L335.212,260 L335.212,258.776 Z M364.912,242.396 L365.092,241.28 L368.008,240.74 L369.016,236.06 L372.4,236.06 L371.356,240.776 L375.676,240.776 L375.316,242.396 L370.996,242.396 L367.828,256.184 C367.504,257.516 367.648,258.452 369.088,258.452 C370.528,258.452 371.752,258.056 372.76,257.66 L372.472,259.064 C371.5,259.676 370.06,260.324 367.792,260.324 C365.812,260.324 364.3,259.388 364.3,257.48 C364.3,257.012 364.3,256.508 364.48,255.896 L367.576,242.396 L364.912,242.396 Z M382.768,260.396 C377.836,260.396 375.64,256.796 375.64,252.656 C375.64,245.924 380.14,240.452 386.152,240.452 C391.12,240.452 393.244,244.016 393.208,248.12 C393.208,254.852 388.78,260.396 382.768,260.396 Z M382.804,258.992 C384.136,258.992 385.36,258.308 386.404,257.156 C388.348,254.852 389.68,250.496 389.68,246.788 C389.68,243.764 388.672,241.892 386.116,241.892 C384.748,241.892 383.524,242.576 382.444,243.764 C380.5,246.068 379.204,250.352 379.204,253.988 C379.204,257.048 380.284,258.992 382.804,258.992 Z M399.148,260.36 C396.52,260.36 394.684,258.128 394.684,254.852 C394.684,247.292 399.472,240.416 405.952,240.416 C407.32,240.416 408.688,240.668 409.804,241.352 L411.604,233.468 L408.58,233.468 L408.796,232.28 L415.06,231.38 L415.384,231.632 L409.336,258.344 L412.576,258.272 L412.288,259.352 C411.1,259.856 409.264,260.324 407.896,260.324 C406.42,260.324 405.88,259.496 406.204,257.984 L406.924,254.96 L406.78,254.96 C404.692,257.948 401.884,260.36 399.148,260.36 Z M400.408,257.948 C402.496,257.948 405.16,255.356 407.248,252.548 L409.372,243.152 C408.436,242.36 407.392,241.856 406.132,241.856 C401.416,241.856 398.176,248.804 398.176,254.708 C398.176,256.508 398.968,257.948 400.408,257.948 Z M418.948,260.36 C416.284,260.36 414.844,258.236 414.844,255.392 C414.844,248.372 420.1,240.812 426.4,240.812 C427.732,240.812 429.1,241.316 429.784,241.856 L429.964,241.856 L430.72,240.704 L433.312,240.704 L429.028,258.344 L432.412,258.272 L432.124,259.352 C430.936,259.82 428.92,260.324 427.552,260.324 C426.04,260.324 425.5,259.46 425.824,258.02 L426.616,254.888 L426.472,254.888 C424.564,257.732 421.792,260.36 418.948,260.36 Z M420.28,257.876 C422.44,257.876 424.96,255.392 426.94,252.62 L429.172,243.62 C428.596,242.936 427.624,242.468 426.508,242.468 C422.224,242.468 418.372,249.452 418.372,255.14 C418.372,256.832 418.948,257.876 420.28,257.876 Z M431.188,263.564 L431.656,263.564 L432.592,265.94 L432.88,265.94 C434.86,265.94 437.524,264.14 439.576,261.728 C439.468,254.204 438.568,246.032 437.92,242.54 L435.112,242.576 L435.364,241.352 C436.516,240.92 438.136,240.452 439.36,240.452 C440.62,240.452 441.16,240.848 441.412,242.36 C442.024,245.852 442.708,253.952 442.564,258.884 L442.672,258.884 C445.696,254.708 448.036,250.208 449.008,246.932 C449.368,245.744 449.476,244.952 449.476,244.16 C449.476,242.936 448.864,242.252 447.424,242.288 L447.64,241.064 C448.684,240.668 449.512,240.452 450.412,240.452 C451.708,240.452 452.5,241.208 452.5,242.9 C452.5,243.944 452.068,245.42 451.348,247.184 C449.62,251.432 446.2,256.832 443.032,260.576 C439.468,264.788 436.084,267.596 432.484,267.596 C430.468,267.596 429.388,266.696 429.388,265.292 C429.388,264.284 430.144,263.564 431.188,263.564 Z" id="Don’t-miss-out.-Opt" fill="#121212"></path>
            <circle id="Path" fill="#121212" cx="477" cy="248" r="16"></circle>
            <polygon id="Arrows-/-Right" fill="#FFFFFF" points="467.648111 248.761711 482.368305 248.761711 476.59568 255.683544 477.346122 256.435498 485.37007 248.376094 485.37007 247.604859 477.346122 239.545455 476.59568 240.297409 482.368305 247.219241 467.648111 247.219241"></polygon>
        </g>
    </g>
</svg>