<svg width="459" height="273" viewBox="0 0 459 273" xmlns="http://www.w3.org/2000/svg"><title>opt-in-new</title><desc>Created with Sketch.</desc><g fill="none"><g transform="translate(23 3)"><path d="M165.85 44.625c0 19.05-12.675 28.275-26.4 28.275-15 0-25.95-9.525-25.95-27.675 0-19.2 12.75-28.2 26.4-28.2 14.925 0 25.95 9.375 25.95 27.6zm-26.25-22.425c-6.075 0-8.925 4.95-8.925 22.575 0 18.3 2.55 22.95 9.075 22.95 6.075 0 8.775-4.8 8.775-22.5 0-18.6-2.7-23.025-8.925-23.025zm72.75 28.05c0 16.125-8.85 22.725-18.975 22.725-3.225 0-5.85-.675-7.05-1.35v11.25l4.875 1.8v3.375h-22.875v-3.375l4.275-1.8v-45l-4.425-2.175v-3.15l16.425-2.4 1.65.15v4.725h.45c2.1-2.475 6-5.1 11.55-5.1 7.875 0 14.1 5.4 14.1 20.325zm-14.325 1.5c0-11.25-2.7-14.475-7.35-14.475-1.725 0-3.225.525-4.35 1.125v28.65c.975.75 2.25 1.35 4.125 1.35 4.725 0 7.575-4.35 7.575-16.65zm22.275-15.3h-5.85v-3.525l5.85-2.025v-7.35l13.65-2.175v9.525h9.075v5.55h-9.075v24.15c0 4.2 1.2 5.925 5.7 5.925 1.35 0 2.925-.075 3.825-.225v3.9c-2.4 1.425-6.375 2.625-11.025 2.625-8.175 0-12.15-3.6-12.15-12.45v-23.925zm49.8-23.1c3.9 0 7.275 3.075 7.275 7.05 0 3.975-3.375 6.975-7.275 6.975-4.05 0-7.2-3-7.2-6.975 0-3.975 3.15-7.05 7.2-7.05zm-11.1 19.2l16.875-2.4 1.425.15v36.6l4.2 1.875v3.225h-22.2v-3.225l4.275-1.875v-29.325l-4.575-1.8v-3.225zm24.75 36.15l4.275-1.95v-29.25l-4.5-1.8v-3.15l16.35-2.4 1.65.15v4.8h.45c3.525-3.15 8.775-5.175 13.95-5.175 7.125 0 10.275 3.375 10.275 10.875v25.95l4.275 1.95v3.3h-21.75v-3.3l3.825-1.725v-23.925c0-4.125-1.8-5.775-5.175-5.775-2.175 0-4.05.6-5.625 1.275v28.425l3.75 1.725v3.3h-21.75v-3.3z" fill="#fff" fill-rule="nonzero"/><path d="M113.35 179v-3.975l5.1-1.725v-42.6l-5.1-1.8v-3.975h23.25l9.75 33.9h.3l8.925-33.9h24.525v3.975l-5.025 1.875v42.375l5.025 1.875v3.975h-24.75v-3.975l4.35-1.8v-37.425h-.45l-10.875 42.75h-10.425l-12.45-42.75h-.375v37.575l4.5 1.65v3.975h-16.275zm80.175-58.65c3.9 0 7.275 3.075 7.275 7.05 0 3.975-3.375 6.975-7.275 6.975-4.05 0-7.2-3-7.2-6.975 0-3.975 3.15-7.05 7.2-7.05zm-11.1 19.2l16.875-2.4 1.425.15v36.6l4.2 1.875v3.225h-22.2v-3.225l4.275-1.875v-29.325l-4.575-1.8v-3.225zm45.375 12.45c8.625 2.1 12.3 5.925 12.3 13.65 0 9.15-5.475 14.325-17.7 14.325-4.8 0-10.05-.75-14.175-2.25l-.45-10.725h4.95l3.15 7.125c1.65.9 3.825 1.425 6.375 1.425 4.65 0 6.75-2.025 6.75-5.175 0-2.7-1.425-4.125-5.625-5.1l-2.775-.675c-8.775-2.175-12.825-6.375-12.825-14.025 0-8.025 5.325-13.725 17.025-13.725 4.8 0 9.45.525 12.6 1.725v10.05h-4.95l-2.175-6.45c-1.2-.6-2.925-.9-5.175-.9-4.05 0-6.075 1.8-6.075 4.8 0 2.7 1.425 4.05 6 5.25l2.775.675zm35.7 0c8.625 2.1 12.3 5.925 12.3 13.65 0 9.15-5.475 14.325-17.7 14.325-4.8 0-10.05-.75-14.175-2.25l-.45-10.725h4.95l3.15 7.125c1.65.9 3.825 1.425 6.375 1.425 4.65 0 6.75-2.025 6.75-5.175 0-2.7-1.425-4.125-5.625-5.1l-2.775-.675c-8.775-2.175-12.825-6.375-12.825-14.025 0-8.025 5.325-13.725 17.025-13.725 4.8 0 9.45.525 12.6 1.725v10.05h-4.95l-2.175-6.45c-1.2-.6-2.925-.9-5.175-.9-4.05 0-6.075 1.8-6.075 4.8 0 2.7 1.425 4.05 6 5.25l2.775.675zm49.125 28.125c-12.525 0-21.075-8.475-21.075-21.825 0-13.2 8.4-21.375 21-21.375s21.15 8.175 21.15 21.45c0 13.35-8.4 21.75-21.075 21.75zm0-38.925c-3.975 0-6.3 3.45-6.3 17.175 0 13.8 2.325 17.4 6.375 17.4 3.975 0 6.225-3.675 6.225-17.475 0-13.725-2.175-17.1-6.3-17.1zm27.15 3.45l-4.5-1.95v-3.3l16.425-2.25 1.8.15v30.3c0 3.9 1.875 5.1 5.025 5.1 2.025 0 3.75-.525 5.325-1.2v-26.85l-4.5-1.95v-3.3l16.425-2.25 1.65.15v35.4l4.425 2.25v3.075l-16.2 1.875-1.65-.15v-4.875h-.45c-3 2.775-7.2 5.175-12.3 5.175-7.875 0-11.475-4.65-11.475-11.7v-23.7zm49.65-1.2h-5.85v-3.525l5.85-2.025v-7.35l13.65-2.175v9.525h9.075v5.55h-9.075v24.15c0 4.2 1.2 5.925 5.7 5.925 1.35 0 2.925-.075 3.825-.225v3.9c-2.4 1.425-6.375 2.625-11.025 2.625-8.175 0-12.15-3.6-12.15-12.45v-23.925z" fill="#fff" fill-rule="nonzero"/><circle stroke="#fff" stroke-width="6.25" cx="47" cy="153" r="46.875"/><circle stroke="#fff" stroke-width="6.25" cx="47" cy="47" r="46.875"/><path fill="#fff" fill-rule="nonzero" d="M19.908 47.672l-2.908 2.916 14.539 20.412h1.381l41.58-43.157-2.908-2.843-38.673 35.138z"/></g><g fill-rule="nonzero"><path fill="#FFE500" d="M0 225h459v48h-459z"/><path d="M18.556 234.044c8.64 0 13.284 4.284 13.284 12.384 0 8.892-4.896 13.572-12.96 13.572h-11.124v-1.44l2.952-.684v-21.708l-2.916-.684v-1.44h10.764zm.288 24.084c4.896 0 7.272-2.556 7.272-11.16 0-9.216-2.808-11.052-7.776-11.052h-2.52v22.212h3.024zm24.264 2.376c-5.652 0-9.504-3.996-9.504-10.116 0-6.156 4.032-10.152 9.432-10.152 5.652 0 9.504 3.852 9.504 10.044 0 6.156-3.996 10.224-9.432 10.224zm-.108-18.576c-2.844 0-4.536 2.268-4.536 8.316 0 6.156 1.728 8.568 4.68 8.568 2.844 0 4.5-2.304 4.5-8.388 0-6.156-1.728-8.496-4.644-8.496zm11.016 16.848l2.412-.684v-15.012l-2.484-.648v-1.152l6.3-.936.576.18v1.908h.18c1.8-1.224 4.14-2.196 6.48-2.196 3.564 0 5.256 1.476 5.256 5.148v12.708l2.412.684v1.224h-9.18v-1.224l2.268-.612v-12.096c0-2.376-1.224-3.24-3.168-3.24-1.656 0-2.952.468-4.14.972v14.364l2.268.612v1.224h-9.18v-1.224zm22.86-16.812c.36-2.556.72-5.22.9-7.92h4.176c-.576 2.736-1.8 5.328-3.456 7.92h-1.62zm9.612.612h-2.772v-1.26l2.772-.72v-3.96l4.464-.72v4.68h5.076v1.98h-5.076v12.456c0 2.196.684 2.988 3.204 2.988.72 0 1.584-.072 2.16-.216v1.44c-.936.54-2.664 1.08-4.572 1.08-3.492 0-5.256-1.332-5.256-5.076v-12.672zm17.46 16.236l2.412-.684v-15.012l-2.484-.684v-1.152l6.264-.936.612.18v1.908h.144c1.836-1.26 3.672-2.196 6.3-2.196 2.16 0 3.672.684 4.5 2.232h.144c1.836-1.26 3.96-2.232 6.48-2.232 3.348 0 5.112 1.656 5.112 5.292v12.6l2.448.684v1.188h-9.072v-1.188l2.232-.684v-11.952c0-2.448-1.224-3.384-3.204-3.384-1.548 0-2.664.468-3.744.972v14.364l2.232.684v1.188h-8.82v-1.188l2.268-.684v-11.952c0-2.448-1.044-3.384-3.024-3.384-1.764 0-2.736.432-3.888.972v14.364l2.196.684v1.188h-9.108v-1.188zm37.584-26.316c1.44 0 2.664 1.116 2.664 2.556 0 1.404-1.224 2.52-2.664 2.52-1.512 0-2.628-1.116-2.628-2.52 0-1.44 1.116-2.556 2.628-2.556zm-4.572 8.784l6.444-.936.54.18v17.604l2.484.684v1.188h-9.432v-1.188l2.448-.684v-15.012l-2.484-.684v-1.152zm20.088 7.092c3.564 1.008 5.076 2.772 5.076 5.94 0 3.816-2.52 6.192-7.704 6.192-2.16 0-4.356-.396-6.228-1.044l-.252-4.788h1.728l1.296 3.348c.9.432 1.98.756 3.42.756 2.736 0 4.032-1.26 4.032-3.096 0-1.512-.792-2.412-3.24-3.096l-1.836-.576c-3.528-1.008-5.256-2.7-5.256-5.868 0-3.384 2.34-5.904 7.236-5.904 2.196 0 4.212.288 5.544.72v4.428h-1.764l-.828-2.988c-.648-.288-1.62-.432-2.844-.432-2.448 0-3.6 1.116-3.6 2.808 0 1.476.792 2.268 3.384 3.06l1.836.54zm16.164 0c3.564 1.008 5.076 2.772 5.076 5.94 0 3.816-2.52 6.192-7.704 6.192-2.16 0-4.356-.396-6.228-1.044l-.252-4.788h1.728l1.296 3.348c.9.432 1.98.756 3.42.756 2.736 0 4.032-1.26 4.032-3.096 0-1.512-.792-2.412-3.24-3.096l-1.836-.576c-3.528-1.008-5.256-2.7-5.256-5.868 0-3.384 2.34-5.904 7.236-5.904 2.196 0 4.212.288 5.544.72v4.428h-1.764l-.828-2.988c-.648-.288-1.62-.432-2.844-.432-2.448 0-3.6 1.116-3.6 2.808 0 1.476.792 2.268 3.384 3.06l1.836.54zm22.572 12.132c-5.652 0-9.504-3.996-9.504-10.116 0-6.156 4.032-10.152 9.432-10.152 5.652 0 9.504 3.852 9.504 10.044 0 6.156-3.996 10.224-9.432 10.224zm-.108-18.576c-2.844 0-4.536 2.268-4.536 8.316 0 6.156 1.728 8.568 4.68 8.568 2.844 0 4.5-2.304 4.5-8.388 0-6.156-1.728-8.496-4.644-8.496zm13.284 1.044l-2.52-.684v-1.224l6.372-.72.612.18v14.184c0 2.34 1.26 3.132 3.168 3.132 1.656 0 2.88-.468 4.068-.972v-13.896l-2.484-.684v-1.224l6.3-.72.648.18v17.1l2.412.756v1.152l-6.192.828-.612-.108v-2.052h-.144c-1.692 1.116-3.78 2.196-6.12 2.196-3.708 0-5.508-1.8-5.508-5.364v-12.06zm22.464-.396h-2.772v-1.26l2.772-.72v-3.96l4.464-.72v4.68h5.076v1.98h-5.076v12.456c0 2.196.684 2.988 3.204 2.988.72 0 1.584-.072 2.16-.216v1.44c-.936.54-2.664 1.08-4.572 1.08-3.492 0-5.256-1.332-5.256-5.076v-12.672zm14.796 18c-1.512 0-2.7-1.188-2.7-2.7 0-1.44 1.188-2.628 2.7-2.628 1.584 0 2.736 1.188 2.736 2.628 0 1.512-1.152 2.7-2.736 2.7zm35.316-13.644c0 9.036-5.796 13.5-12.024 13.5-6.876 0-11.916-4.86-11.916-13.392 0-9.144 5.868-13.428 12.06-13.428 6.804 0 11.88 4.716 11.88 13.32zm-12.06-11.34c-4.5 0-6.3 3.708-6.3 11.268 0 7.812 1.584 11.556 6.444 11.556 4.464 0 6.3-3.708 6.3-11.16 0-8.388-1.944-11.664-6.444-11.664zm33.516 14.076c0 7.272-3.96 10.764-9.396 10.764-1.512 0-2.736-.252-3.672-.576v5.58l2.88.72v1.224h-9.792v-1.224l2.448-.684v-22.32l-2.484-.72v-1.152l6.3-.936.576.18v1.908h.18c1.332-1.152 3.24-2.196 5.868-2.196 3.672 0 7.092 2.376 7.092 9.432zm-4.644.684c0-5.58-1.728-7.56-4.932-7.56-1.404 0-2.736.504-3.492.972v13.932c.756.504 1.584.936 3.168.936 3.24 0 5.256-2.124 5.256-8.28zm8.784-7.776h-2.772v-1.26l2.772-.72v-3.96l4.464-.72v4.68h5.076v1.98h-5.076v12.456c0 2.196.684 2.988 3.204 2.988.72 0 1.584-.072 2.16-.216v1.44c-.936.54-2.664 1.08-4.572 1.08-3.492 0-5.256-1.332-5.256-5.076v-12.672zm22.032-10.08c1.44 0 2.664 1.116 2.664 2.556 0 1.404-1.224 2.52-2.664 2.52-1.512 0-2.628-1.116-2.628-2.52 0-1.44 1.116-2.556 2.628-2.556zm-4.572 8.784l6.444-.936.54.18v17.604l2.484.684v1.188h-9.432v-1.188l2.448-.684v-15.012l-2.484-.684v-1.152zm10.62 17.496l2.412-.684v-15.012l-2.484-.648v-1.152l6.3-.936.576.18v1.908h.18c1.8-1.224 4.14-2.196 6.48-2.196 3.564 0 5.256 1.476 5.256 5.148v12.708l2.412.684v1.224h-9.18v-1.224l2.268-.612v-12.096c0-2.376-1.224-3.24-3.168-3.24-1.656 0-2.952.468-4.14.972v14.364l2.268.612v1.224h-9.18v-1.224zm29.7-16.38l.18-1.116 2.916-.54 1.008-4.68h3.384l-1.044 4.716h4.32l-.36 1.62h-4.32l-3.168 13.788c-.324 1.332-.18 2.268 1.26 2.268s2.664-.396 3.672-.792l-.288 1.404c-.972.612-2.412 1.26-4.68 1.26-1.98 0-3.492-.936-3.492-2.844 0-.468 0-.972.18-1.584l3.096-13.5h-2.664zm17.856 18c-4.932 0-7.128-3.6-7.128-7.74 0-6.732 4.5-12.204 10.512-12.204 4.968 0 7.092 3.564 7.056 7.668 0 6.732-4.428 12.276-10.44 12.276zm.036-1.404c1.332 0 2.556-.684 3.6-1.836 1.944-2.304 3.276-6.66 3.276-10.368 0-3.024-1.008-4.896-3.564-4.896-1.368 0-2.592.684-3.672 1.872-1.944 2.304-3.24 6.588-3.24 10.224 0 3.06 1.08 5.004 3.6 5.004zm16.344 1.368c-2.628 0-4.464-2.232-4.464-5.508 0-7.56 4.788-14.436 11.268-14.436 1.368 0 2.736.252 3.852.936l1.8-7.884h-3.024l.216-1.188 6.264-.9.324.252-6.048 26.712 3.24-.072-.288 1.08c-1.188.504-3.024.972-4.392.972-1.476 0-2.016-.828-1.692-2.34l.72-3.024h-.144c-2.088 2.988-4.896 5.4-7.632 5.4zm1.26-2.412c2.088 0 4.752-2.592 6.84-5.4l2.124-9.396c-.936-.792-1.98-1.296-3.24-1.296-4.716 0-7.956 6.948-7.956 12.852 0 1.8.792 3.24 2.232 3.24zm18.54 2.412c-2.664 0-4.104-2.124-4.104-4.968 0-7.02 5.256-14.58 11.556-14.58 1.332 0 2.7.504 3.384 1.044h.18l.756-1.152h2.592l-4.284 17.64 3.384-.072-.288 1.08c-1.188.468-3.204.972-4.572.972-1.512 0-2.052-.864-1.728-2.304l.792-3.132h-.144c-1.908 2.844-4.68 5.472-7.524 5.472zm1.332-2.484c2.16 0 4.68-2.484 6.66-5.256l2.232-9c-.576-.684-1.548-1.152-2.664-1.152-4.284 0-8.136 6.984-8.136 12.672 0 1.692.576 2.736 1.908 2.736zm10.908 5.688h.468l.936 2.376h.288c1.98 0 4.644-1.8 6.696-4.212-.108-7.524-1.008-15.696-1.656-19.188l-2.808.036.252-1.224c1.152-.432 2.772-.9 3.996-.9 1.26 0 1.8.396 2.052 1.908.612 3.492 1.296 11.592 1.152 16.524h.108c3.024-4.176 5.364-8.676 6.336-11.952.36-1.188.468-1.98.468-2.772 0-1.224-.612-1.908-2.052-1.872l.216-1.224c1.044-.396 1.872-.612 2.772-.612 1.296 0 2.088.756 2.088 2.448 0 1.044-.432 2.52-1.152 4.284-1.728 4.248-5.148 9.648-8.316 13.392-3.564 4.212-6.948 7.02-10.548 7.02-2.016 0-3.096-.9-3.096-2.304 0-1.008.756-1.728 1.8-1.728z" fill="#121212"/></g></g></svg>