<svg xmlns="http://www.w3.org/2000/svg" width="291" height="145" viewBox="0 0 291 145">
    <g fill="none" fill-rule="evenodd">
        <path fill="#00578A" d="M132 123.815c0-6.498 4.929-11.815 11.94-11.815 7.14 0 12.057 5.317 12.057 11.815a11.992 11.992 0 0 1-3.456 8.685 11.766 11.766 0 0 1-8.6 3.498c-7.024 0-11.941-5.566-11.941-12.183zM0 130.815C0 124.317 4.929 119 11.94 119c7.14 0 12.057 5.317 12.057 11.815a11.992 11.992 0 0 1-3.456 8.685 11.766 11.766 0 0 1-8.6 3.498C4.916 142.998 0 137.432 0 130.815z"/>
        <path fill="#FFE500" d="M49 126.821C49 120.32 53.929 115 60.94 115c7.141 0 12.058 5.32 12.058 11.821a12.002 12.002 0 0 1-3.46 8.682 11.763 11.763 0 0 1-8.598 3.495c-7.023 0-11.94-5.544-11.94-12.177z"/>
        <path fill="#BC3B81" d="M123 100.25c0-6.502 4.929-11.822 11.94-11.822 7.141 0 12.058 5.32 12.058 11.822a12.002 12.002 0 0 1-3.46 8.681 11.763 11.763 0 0 1-8.598 3.495c-7.023 0-11.94-5.544-11.94-12.176z"/>
        <path fill="#FFF" d="M255 101.821C255 95.32 259.929 90 266.94 90c7.141 0 12.058 5.32 12.058 11.821a12.002 12.002 0 0 1-3.46 8.682 11.763 11.763 0 0 1-8.598 3.495c-7.023 0-11.94-5.544-11.94-12.177z"/>
        <path fill="#BC3B81" d="M237 128.821c0-6.501 4.929-11.821 11.94-11.821 7.141 0 12.058 5.32 12.058 11.821a12.002 12.002 0 0 1-3.46 8.682 11.763 11.763 0 0 1-8.598 3.495c-7.023 0-11.94-5.544-11.94-12.177z"/>
        <path fill="#FFF" d="M266.294 131.069c0-6.502 4.929-11.822 11.94-11.822 7.141 0 12.058 5.32 12.058 11.822a12.002 12.002 0 0 1-3.46 8.681 11.763 11.763 0 0 1-8.598 3.495c-7.042 0-11.94-5.544-11.94-12.176z"/>
        <path fill="#FAE400" d="M103.916 132.38c0-6.494 4.929-11.809 11.94-11.809 7.14 0 12.057 5.315 12.057 11.81a11.983 11.983 0 0 1-3.456 8.693 11.769 11.769 0 0 1-8.613 3.495c-7.011 0-11.928-5.594-11.928-12.188z"/>
        <path fill="#BC3B81" d="M74 128.821C74 122.32 78.929 117 85.94 117c7.141 0 12.058 5.32 12.058 11.821a12.002 12.002 0 0 1-3.46 8.682 11.763 11.763 0 0 1-8.598 3.495c-7.023 0-11.94-5.544-11.94-12.177zM266 40.821C266 34.32 270.929 29 277.94 29c7.141 0 12.058 5.32 12.058 11.821a12.002 12.002 0 0 1-3.46 8.682 11.763 11.763 0 0 1-8.598 3.495c-7.023 0-11.94-5.544-11.94-12.177z"/>
        <path fill="#00578A" d="M237 71.821C237 65.32 241.929 60 248.94 60c7.141 0 12.058 5.32 12.058 11.821a12.002 12.002 0 0 1-3.46 8.682 11.763 11.763 0 0 1-8.598 3.495c-7.023 0-11.94-5.556-11.94-12.177z"/>
        <path fill="#FFE500" d="M183 131.81c0-6.496 4.929-11.81 11.94-11.81 7.14 0 12.057 5.314 12.057 11.81a11.983 11.983 0 0 1-3.451 8.688 11.77 11.77 0 0 1-8.606 3.5c-7.024 0-11.94-5.594-11.94-12.189z"/>
        <path fill="#FFF" d="M212.462 119.821c0-6.501 4.929-11.821 11.94-11.821 7.141 0 12.058 5.32 12.058 11.821a12.002 12.002 0 0 1-3.461 8.682 11.763 11.763 0 0 1-8.597 3.495c-7.023 0-11.94-5.556-11.94-12.177z"/>
        <path fill="#FFE500" d="M154 104.821C154 98.32 158.929 93 165.94 93c7.141 0 12.058 5.32 12.058 11.821a12.002 12.002 0 0 1-3.46 8.682 11.763 11.763 0 0 1-8.598 3.495c-7.023 0-11.94-5.556-11.94-12.177zM215 89.821C215 83.32 219.929 78 226.94 78c7.141 0 12.058 5.32 12.058 11.821a12.002 12.002 0 0 1-3.46 8.682 11.763 11.763 0 0 1-8.598 3.495c-7.023 0-11.94-5.556-11.94-12.177zM214 32.919c0-6.502 4.929-11.821 11.94-11.821 7.141 0 12.058 5.32 12.058 11.821a12.002 12.002 0 0 1-3.46 8.681 11.763 11.763 0 0 1-8.598 3.495c-7.023 0-11.94-5.556-11.94-12.176z"/>
        <path fill="#FFF" d="M267 11.821C267 5.32 271.929 0 278.94 0c7.141 0 12.058 5.32 12.058 11.821a12.002 12.002 0 0 1-3.46 8.682 11.763 11.763 0 0 1-8.598 3.495c-7.023 0-11.94-5.556-11.94-12.177z"/>
        <path fill="#BB3B80" d="M185 104.821C185 98.32 189.929 93 196.94 93c7.141 0 12.058 5.32 12.058 11.821a12.002 12.002 0 0 1-3.46 8.682 11.763 11.763 0 0 1-8.598 3.495c-7.023 0-11.94-5.556-11.94-12.177zM206 62.919c0-6.502 4.929-11.821 11.94-11.821 7.141 0 12.058 5.32 12.058 11.821a12.002 12.002 0 0 1-3.46 8.681 11.763 11.763 0 0 1-8.598 3.495c-7.023 0-11.94-5.556-11.94-12.176z"/>
        <path fill="#FFE500" d="M265 77.821C265 71.32 269.929 66 276.94 66c7.141 0 12.058 5.32 12.058 11.821a12.002 12.002 0 0 1-3.46 8.682 11.763 11.763 0 0 1-8.598 3.495c-7.023 0-11.94-5.563-11.94-12.177z"/>
        <path fill="#FFF" d="M92 107.821C92 101.32 96.929 96 103.94 96c7.141 0 12.058 5.32 12.058 11.821a12.002 12.002 0 0 1-3.46 8.682 11.763 11.763 0 0 1-8.598 3.495c-7.023 0-11.94-5.556-11.94-12.177zM24 113.821C24 107.32 28.929 102 35.94 102c7.141 0 12.058 5.32 12.058 11.821a12.002 12.002 0 0 1-3.46 8.682 11.763 11.763 0 0 1-8.598 3.495c-7.023 0-11.94-5.556-11.94-12.177zM238 46.821C238 40.32 242.929 35 249.94 35c7.141 0 12.058 5.32 12.058 11.821a12.002 12.002 0 0 1-3.46 8.682 11.763 11.763 0 0 1-8.598 3.495c-7.023 0-11.94-5.556-11.94-12.177zM178 72.843c0-6.501 4.929-11.821 11.94-11.821 7.141 0 12.058 5.32 12.058 11.821a12.002 12.002 0 0 1-3.46 8.682 11.763 11.763 0 0 1-8.598 3.495c-7.023 0-11.94-5.557-11.94-12.177z"/>
    </g>
</svg>
