<svg xmlns="http://www.w3.org/2000/svg" width="436" height="357" viewBox="0 0 436 357">
    <g fill="none" fill-rule="evenodd">
        <path fill="#BB3B80" d="M175.686 180.28c0-8.126 6.161-14.776 14.925-14.776 8.926 0 15.072 6.65 15.072 14.777a15.002 15.002 0 0 1-4.334 10.86 14.704 14.704 0 0 1-10.76 4.36c-8.757 0-14.903-6.945-14.903-15.22z"/>
        <path fill="#FFF" d="M155.91 212.807c0-8.135 6.162-14.792 14.926-14.792 8.927 0 15.072 6.657 15.072 14.792a15.025 15.025 0 0 1-4.337 10.843 14.696 14.696 0 0 1-10.735 4.362c-8.78 0-14.925-6.92-14.925-15.205z"/>
        <path fill="#00578A" d="M360 341.797c0-8.128 6.161-14.777 14.925-14.777 8.926 0 15.072 6.65 15.072 14.777a15.002 15.002 0 0 1-4.326 10.852 14.704 14.704 0 0 1-10.746 4.368c-8.772 0-14.925-6.945-14.925-15.22z"/>
        <path fill="#BB3B80" d="M62.306 138.66c0-8.124 6.161-14.77 14.926-14.77 8.925 0 15.071 6.646 15.071 14.77a14.99 14.99 0 0 1-4.32 10.855 14.708 14.708 0 0 1-10.751 4.372c-8.78 0-14.926-6.957-14.926-15.228z"/>
        <path fill="#FFF" d="M96.57 161.86c0-8.127 6.161-14.776 14.925-14.776 8.926 0 15.072 6.65 15.072 14.777a15.002 15.002 0 0 1-4.326 10.851 14.704 14.704 0 0 1-10.746 4.369c-8.78 0-14.925-6.945-14.925-15.22z"/>
        <path fill="#00578A" d="M137.248 163.258c0-8.127 6.16-14.777 14.925-14.777 8.926 0 15.072 6.65 15.072 14.777a15.002 15.002 0 0 1-4.326 10.852 14.704 14.704 0 0 1-10.746 4.368c-8.78 0-14.925-6.945-14.925-15.22zM143 130.77c0-8.124 6.161-14.77 14.925-14.77 8.926 0 15.072 6.646 15.072 14.77a14.99 14.99 0 0 1-4.32 10.856 14.708 14.708 0 0 1-10.752 4.371c-8.78 0-14.925-6.957-14.925-15.228zM193 14.77C193 6.645 199.161 0 207.925 0c8.926 0 15.072 6.646 15.072 14.77a14.99 14.99 0 0 1-4.32 10.856 14.708 14.708 0 0 1-10.752 4.371c-8.78 0-14.925-6.957-14.925-15.228z"/>
        <path fill="#FFF" d="M177.62 141.39c.324-8.115 6.74-14.505 15.511-14.147 8.918.365 14.794 7.26 14.463 15.375a14.979 14.979 0 0 1-4.758 10.661 14.697 14.697 0 0 1-10.914 3.922c-8.772-.326-14.632-7.517-14.301-15.81z"/>
        <path fill="#00578A" d="M77.145 101.848c0-8.127 6.162-14.776 14.926-14.776 8.926 0 15.071 6.65 15.071 14.776a15.002 15.002 0 0 1-4.325 10.852 14.704 14.704 0 0 1-10.746 4.369c-8.78 0-14.926-6.945-14.926-15.22z"/>
        <path fill="#FFE500" d="M28 101.777C28 93.65 34.161 87 42.925 87c8.926 0 15.072 6.65 15.072 14.777a15.002 15.002 0 0 1-4.326 10.852 14.704 14.704 0 0 1-10.746 4.368c-8.772 0-14.925-6.945-14.925-15.22z"/>
        <path fill="#BB3B80" d="M.569 56.608c0-8.125 6.161-14.773 14.925-14.773 8.926 0 15.072 6.648 15.072 14.773a14.996 14.996 0 0 1-4.328 10.86 14.706 14.706 0 0 1-10.76 4.364c-8.763 0-14.91-6.951-14.91-15.224z"/>
        <path fill="#FFF" d="M47.475 66.336c0-8.127 6.161-14.777 14.925-14.777 8.926 0 15.072 6.65 15.072 14.777a15.002 15.002 0 0 1-4.326 10.852A14.704 14.704 0 0 1 62.4 81.556c-8.78 0-14.925-6.945-14.925-15.22z"/>
        <path fill="#FFE500" d="M116.025 96.35c0-8.127 6.161-14.777 14.926-14.777 8.926 0 15.071 6.65 15.071 14.777a15.002 15.002 0 0 1-4.325 10.852 14.704 14.704 0 0 1-10.746 4.368c-8.78-.031-14.926-6.976-14.926-15.22z"/>
        <path fill="#00578A" d="M207.268 153.88c0-8.127 6.161-14.777 14.926-14.777 8.926 0 15.071 6.65 15.071 14.777a15.002 15.002 0 0 1-4.325 10.852 14.704 14.704 0 0 1-10.746 4.368c-8.78 0-14.926-6.922-14.926-15.22z"/>
        <path fill="#FFE500" d="M214 191.777c0-8.127 6.161-14.777 14.925-14.777 8.926 0 15.072 6.65 15.072 14.777a15.002 15.002 0 0 1-4.326 10.852 14.704 14.704 0 0 1-10.746 4.368c-8.78 0-14.925-6.937-14.925-15.22zM292 237.777c0-8.127 6.161-14.777 14.925-14.777 8.926 0 15.072 6.65 15.072 14.777a15.002 15.002 0 0 1-4.326 10.852 14.704 14.704 0 0 1-10.746 4.368c-8.78 0-14.925-6.937-14.925-15.22z"/>
        <path fill="#00578A" d="M369.262 182.777c0-8.127 6.161-14.777 14.926-14.777 8.926 0 15.071 6.65 15.071 14.777a15.002 15.002 0 0 1-4.325 10.852 14.704 14.704 0 0 1-10.746 4.368c-8.78 0-14.926-6.937-14.926-15.22zM277 272.732c0-8.128 6.161-14.777 14.925-14.777 8.926 0 15.072 6.65 15.072 14.777a15.002 15.002 0 0 1-4.326 10.851 14.704 14.704 0 0 1-10.746 4.369c-8.78 0-14.925-6.938-14.925-15.22zM192 227.773c0-8.125 6.161-14.773 14.925-14.773 8.926 0 15.072 6.648 15.072 14.773a14.996 14.996 0 0 1-4.328 10.86 14.706 14.706 0 0 1-10.76 4.364c-8.763 0-14.909-6.951-14.909-15.224z"/>
        <path fill="#BB3B80" d="M236.939 227.516c0-8.127 6.16-14.777 14.925-14.777 8.926 0 15.072 6.65 15.072 14.777a15.002 15.002 0 0 1-4.326 10.852 14.704 14.704 0 0 1-10.746 4.368c-8.81.008-14.925-6.945-14.925-15.22z"/>
        <path fill="#FFF" d="M244 168.777c0-8.127 6.161-14.777 14.925-14.777 8.926 0 15.072 6.65 15.072 14.777a15.002 15.002 0 0 1-4.326 10.852 14.704 14.704 0 0 1-10.746 4.368c-8.81 0-14.925-6.945-14.925-15.22zM307 196.777c0-8.127 6.161-14.777 14.925-14.777 8.926 0 15.072 6.65 15.072 14.777a15.002 15.002 0 0 1-4.326 10.852 14.704 14.704 0 0 1-10.746 4.368c-8.81 0-14.925-6.945-14.925-15.22zM332 244.777c0-8.127 6.161-14.777 14.925-14.777 8.926 0 15.072 6.65 15.072 14.777a15.002 15.002 0 0 1-4.326 10.852 14.704 14.704 0 0 1-10.746 4.368c-8.81 0-14.925-6.945-14.925-15.22z"/>
        <path fill="#BB3B80" d="M267 197.777c0-8.127 6.161-14.777 14.925-14.777 8.926 0 15.072 6.65 15.072 14.777a15.002 15.002 0 0 1-4.326 10.852 14.704 14.704 0 0 1-10.746 4.368c-8.78 0-14.925-6.945-14.925-15.22zM323 300.777c0-8.127 6.161-14.777 14.925-14.777 8.926 0 15.072 6.65 15.072 14.777a15.002 15.002 0 0 1-4.326 10.852 14.704 14.704 0 0 1-10.746 4.368c-8.78 0-14.925-6.945-14.925-15.22zM282.598 168.604c0-8.127 6.161-14.777 14.925-14.777 8.926 0 15.072 6.65 15.072 14.777a15.002 15.002 0 0 1-4.326 10.852 14.704 14.704 0 0 1-10.746 4.368c-8.764 0-14.925-6.945-14.925-15.22z"/>
        <path fill="#FAE400" d="M214.124 254.98c0-8.128 6.161-14.778 14.925-14.778 8.926 0 15.072 6.65 15.072 14.777a15.002 15.002 0 0 1-4.326 10.852 14.704 14.704 0 0 1-10.746 4.368c-8.78 0-14.925-6.945-14.925-15.22z"/>
        <path fill="#00578A" d="M325.409 168.604c0-8.127 6.16-14.777 14.925-14.777 8.926 0 15.072 6.65 15.072 14.777a15.002 15.002 0 0 1-4.326 10.852 14.704 14.704 0 0 1-10.746 4.368c-8.78 0-14.925-6.945-14.925-15.22z"/>
        <path fill="#FAE400" d="M304 141.777c0-8.127 6.161-14.777 14.925-14.777 8.926 0 15.072 6.65 15.072 14.777a15.002 15.002 0 0 1-4.326 10.852 14.704 14.704 0 0 1-10.746 4.368c-8.78 0-14.925-6.945-14.925-15.22zM373 149.777c0-8.127 6.161-14.777 14.925-14.777 8.926 0 15.072 6.65 15.072 14.777a15.002 15.002 0 0 1-4.326 10.852 14.704 14.704 0 0 1-10.746 4.368c-8.78 0-14.925-6.945-14.925-15.22z"/>
        <path fill="#FFF" d="M258.633 138.66c0-8.124 6.161-14.77 14.925-14.77 8.926 0 15.072 6.646 15.072 14.77a14.99 14.99 0 0 1-4.32 10.855 14.708 14.708 0 0 1-10.752 4.372c-8.78 0-14.925-6.957-14.925-15.228z"/>
        <path fill="#BC3B81" d="M340.248 134.68c0-8.127 6.16-14.777 14.925-14.777 8.926 0 15.072 6.65 15.072 14.777a15.002 15.002 0 0 1-4.326 10.852 14.704 14.704 0 0 1-10.746 4.368c-8.78 0-14.925-6.953-14.925-15.22z"/>
        <path fill="#BB3B80" d="M186 108.777C186 100.65 192.161 94 200.925 94c8.926 0 15.072 6.65 15.072 14.777a15.002 15.002 0 0 1-4.331 10.857 14.704 14.704 0 0 1-10.756 4.363c-8.764 0-14.91-6.945-14.91-15.22zM344 203.777c0-8.127 6.161-14.777 14.925-14.777 8.926 0 15.072 6.65 15.072 14.777a15.002 15.002 0 0 1-4.331 10.857 14.704 14.704 0 0 1-10.756 4.363c-8.764 0-14.91-6.945-14.91-15.22zM399.262 199.776c0-8.127 6.161-14.776 14.926-14.776 8.926 0 15.071 6.65 15.071 14.776a15.002 15.002 0 0 1-4.33 10.858 14.704 14.704 0 0 1-10.757 4.362c-8.764 0-14.91-6.945-14.91-15.22z"/>
        <path fill="#00578A" d="M288.898 112.586c0-8.127 6.16-14.777 14.925-14.777 8.926 0 15.072 6.65 15.072 14.777a15.002 15.002 0 0 1-4.326 10.852 14.704 14.704 0 0 1-10.746 4.368c-8.78 0-14.925-6.945-14.925-15.22z"/>
        <path fill="#BB3B80" d="M352.824 101.848c0-8.127 6.161-14.776 14.926-14.776 8.925 0 15.071 6.65 15.071 14.776a15.002 15.002 0 0 1-4.326 10.852 14.704 14.704 0 0 1-10.745 4.369c-8.78 0-14.926-6.945-14.926-15.22z"/>
        <path fill="#FFF" d="M396 94.777C396 86.65 402.161 80 410.925 80c8.926 0 15.072 6.65 15.072 14.777a15.002 15.002 0 0 1-4.326 10.852 14.704 14.704 0 0 1-10.746 4.368c-8.78 0-14.925-6.945-14.925-15.22zM372 265.777c0-8.127 6.161-14.777 14.925-14.777 8.926 0 15.072 6.65 15.072 14.777a15.002 15.002 0 0 1-4.326 10.852 14.704 14.704 0 0 1-10.746 4.368c-8.78 0-14.925-6.945-14.925-15.22zM317.456 81.587c0-8.127 6.161-14.777 14.925-14.777 8.926 0 15.072 6.65 15.072 14.777a15.002 15.002 0 0 1-4.326 10.852 14.704 14.704 0 0 1-10.746 4.369c-8.78 0-14.925-6.946-14.925-15.22zM251.907 101.848c0-8.127 6.161-14.776 14.925-14.776 8.926 0 15.072 6.65 15.072 14.776a15.002 15.002 0 0 1-4.326 10.852 14.704 14.704 0 0 1-10.746 4.369c-8.78 0-14.925-6.945-14.925-15.22z"/>
        <path fill="#BB3B80" d="M88.138 62.243c0-8.128 6.16-14.777 14.925-14.777 8.926 0 15.072 6.65 15.072 14.777a15.002 15.002 0 0 1-4.326 10.851 14.704 14.704 0 0 1-10.746 4.369c-8.78 0-14.925-6.93-14.925-15.22z"/>
        <path fill="#FFE500" d="M360 61.777C360 53.65 366.161 47 374.925 47c8.926 0 15.072 6.65 15.072 14.777a15.002 15.002 0 0 1-4.326 10.852 14.704 14.704 0 0 1-10.746 4.368c-8.78 0-14.925-6.93-14.925-15.22zM381.095 232.777c0-8.127 6.161-14.777 14.925-14.777 8.926 0 15.072 6.65 15.072 14.777a15.002 15.002 0 0 1-4.326 10.852 14.704 14.704 0 0 1-10.746 4.368c-8.78 0-14.925-6.93-14.925-15.22z"/>
        <path fill="#BC3B81" d="M405.24 57.66c0-8.127 6.162-14.776 14.926-14.776 8.926 0 15.071 6.65 15.071 14.776a15.002 15.002 0 0 1-4.325 10.852 14.704 14.704 0 0 1-10.746 4.369c-8.803 0-14.926-6.93-14.926-15.22z"/>
        <path fill="#BB3B80" d="M222.107 81.08c0-8.13 6.161-14.781 14.926-14.781 8.926 0 15.071 6.651 15.071 14.78a15.008 15.008 0 0 1-4.32 10.842 14.702 14.702 0 0 1-10.728 4.375c-8.803 0-14.949-6.947-14.949-15.216z"/>
        <path fill="#FAE400" d="M186 66.761C186 58.643 192.161 52 200.925 52c8.926 0 15.071 6.643 15.071 14.761a14.978 14.978 0 0 1-4.32 10.867 14.711 14.711 0 0 1-10.766 4.369c-8.764 0-14.91-6.993-14.91-15.236zM360 302.256c0-8.119 6.161-14.762 14.925-14.762 8.926 0 15.071 6.643 15.071 14.762a14.978 14.978 0 0 1-4.32 10.866 14.711 14.711 0 0 1-10.766 4.37c-8.764 0-14.91-6.993-14.91-15.236z"/>
        <path fill="#BC3B81" d="M146 57.777C146 49.65 152.161 43 160.925 43c8.926 0 15.072 6.65 15.072 14.777a15.002 15.002 0 0 1-4.326 10.852 14.704 14.704 0 0 1-10.746 4.368c-8.78 0-14.925-6.93-14.925-15.22zM399 331.777c0-8.127 6.161-14.777 14.925-14.777 8.926 0 15.072 6.65 15.072 14.777a15.002 15.002 0 0 1-4.326 10.852 14.704 14.704 0 0 1-10.746 4.368c-8.78 0-14.925-6.93-14.925-15.22z"/>
        <path fill="#BB3B80" d="M57.698 36.88c0-8.127 6.161-14.777 14.925-14.777 8.926 0 15.072 6.65 15.072 14.777a15.002 15.002 0 0 1-4.326 10.852A14.704 14.704 0 0 1 72.623 52.1c-8.772 0-14.925-6.945-14.925-15.22z"/>
        <path fill="#FFF" d="M21.408 15.282c0-8.127 6.161-14.776 14.925-14.776 8.926 0 15.072 6.65 15.072 14.776a15.002 15.002 0 0 1-4.326 10.852 14.704 14.704 0 0 1-10.746 4.369c-8.78 0-14.925-6.953-14.925-15.22z"/>
        <path fill="#00578A" d="M91.977 22.156c0-8.128 6.16-14.777 14.925-14.777 8.926 0 15.072 6.65 15.072 14.777a15.002 15.002 0 0 1-4.326 10.852 14.704 14.704 0 0 1-10.746 4.368c-8.78 0-14.925-6.945-14.925-15.22z"/>
        <path fill="#FFE500" d="M274.059 66.848c0-8.12 6.16-14.762 14.925-14.762 8.926 0 15.071 6.643 15.071 14.762a14.979 14.979 0 0 1-4.314 10.86 14.711 14.711 0 0 1-10.757 4.375c-8.78 0-14.925-6.992-14.925-15.235z"/>
        <path fill="#BB3B80" d="M325.409 42.936c0-8.127 6.16-14.777 14.925-14.777 8.926 0 15.072 6.65 15.072 14.777a15.002 15.002 0 0 1-4.326 10.852 14.704 14.704 0 0 1-10.746 4.368c-8.78 0-14.925-6.945-14.925-15.22z"/>
        <path fill="#FFE500" d="M225.832 42.936c0-8.127 6.161-14.777 14.926-14.777 8.925 0 15.071 6.65 15.071 14.777a15.002 15.002 0 0 1-4.326 10.852 14.704 14.704 0 0 1-10.745 4.368c-8.78 0-14.926-6.945-14.926-15.22z"/>
        <path fill="#FFF" d="M267.774 28.204c0-8.127 6.161-14.777 14.926-14.777 8.926 0 15.071 6.65 15.071 14.777a15.002 15.002 0 0 1-4.325 10.852 14.704 14.704 0 0 1-10.746 4.368c-8.78 0-14.926-6.945-14.926-15.22z"/>
        <path fill="#FFE500" d="M374.717 15.282c0-8.127 6.161-14.776 14.925-14.776 8.926 0 15.072 6.65 15.072 14.776a15.002 15.002 0 0 1-4.326 10.852 14.704 14.704 0 0 1-10.746 4.369c-8.78 0-14.925-6.953-14.925-15.22z"/>
        <path fill="#FFF" d="M131.36 22.156c0-8.128 6.16-14.777 14.925-14.777 8.926 0 15.071 6.65 15.071 14.777a15.002 15.002 0 0 1-4.325 10.852 14.704 14.704 0 0 1-10.746 4.368c-8.78 0-14.926-6.945-14.926-15.22z"/>
    </g>
</svg>
