
<svg xmlns="http://www.w3.org/2000/svg" width="100%" height="100%" viewBox="0 0 390 154">
    <g fill="none" fill-rule="evenodd">
        <path fill="#000" d="M13.5 72v-1.53l6.66-1.35V8.82h-5.13L2.43 29.61H.9l.81-22.5h55.8l.72 22.5H56.7L44.46 8.82h-5.31v60.3l6.66 1.35V72H13.5zm47.25-1.53l5.13-1.44V7.47l-5.4-2.16V3.78L80.01.9l2.07.27v27.09h.54c2.1-2.16 4.65-3.825 7.65-4.995s6.03-1.755 9.09-1.755c4.26 0 7.38 1.05 9.36 3.15 1.98 2.1 2.97 5.4 2.97 9.9v34.47l5.13 1.44V72h-26.1v-1.53l4.59-1.17V35.46c0-2.4-.54-4.17-1.62-5.31-1.08-1.14-2.67-1.71-4.77-1.71-1.32 0-2.505.15-3.555.45-1.05.3-2.055.69-3.015 1.17V69.3l4.5 1.17V72h-26.1v-1.53zm73.89-25.38l10.8-2.07v-6.57c0-4.98-.585-8.43-1.755-10.35s-3.135-2.88-5.895-2.88a9.04 9.04 0 0 0-1.8.18l-12.15 16.47h-1.53l.36-15.3c2.34-.72 5.01-1.41 8.01-2.07 3-.66 6.42-.99 10.26-.99 6.6 0 11.76 1.08 15.48 3.24 3.72 2.16 5.58 6.03 5.58 11.61V68.4l4.77 1.26v1.26c-.96.6-2.325 1.125-4.095 1.575-1.77.45-3.675.675-5.715.675-3.24 0-5.73-.51-7.47-1.53-1.74-1.02-2.97-2.43-3.69-4.23h-.45a14.45 14.45 0 0 1-5.22 4.365c-2.1 1.05-4.68 1.575-7.74 1.575-3.96 0-7.17-1.185-9.63-3.555-2.46-2.37-3.69-5.685-3.69-9.945 0-4.14 1.29-7.395 3.87-9.765 2.58-2.37 6.48-4.035 11.7-4.995zm6.66 21.78c1.02 0 1.86-.15 2.52-.45.66-.3 1.2-.72 1.62-1.26v-19.8l-3.33.27c-2.58.24-4.41 1.245-5.49 3.015S135 53.13 135 56.79c0 3.96.585 6.63 1.755 8.01s2.685 2.07 4.545 2.07zm27.9 3.6l5.13-1.44V28.35l-5.4-2.16v-1.53l19.62-2.88 1.98.18v6.3h.54c2.1-2.16 4.65-3.825 7.65-4.995s6.03-1.755 9.09-1.755c4.26 0 7.38 1.05 9.36 3.15 1.98 2.1 2.97 5.4 2.97 9.9v34.47l5.13 1.44V72h-26.1v-1.53l4.59-1.17V35.46c0-2.4-.54-4.17-1.62-5.31-1.08-1.14-2.67-1.71-4.77-1.71-1.32 0-2.505.15-3.555.45-1.05.3-2.055.69-3.015 1.17V69.3l4.5 1.17V72h-26.1v-1.53zm80.01-69.3v45.45l19.98-18.36-7.65-4.05v-1.53h18.81v1.53l-8.46 3.87-10.71 10.17 18.63 30.6 4.32 1.62V72h-21.51l-13.41-23.58v20.52l4.86 1.44V72h-26.46v-1.53l5.13-1.44V7.38l-5.4-2.07V3.78L246.87.9l2.34.27zm60.21 38.52c4.62 2.16 8.13 4.44 10.53 6.84 2.4 2.4 3.6 5.85 3.6 10.35 0 5.04-1.74 9.015-5.22 11.925-3.48 2.91-8.49 4.365-15.03 4.365a67 67 0 0 1-8.82-.585c-2.94-.39-5.61-1.035-8.01-1.935l-.54-14.58h1.53l12.87 15.03c.42.12.87.225 1.35.315.48.09.93.135 1.35.135 2.76 0 4.785-.69 6.075-2.07s1.935-3.21 1.935-5.49c0-2.04-.6-3.6-1.8-4.68-1.2-1.08-3.21-2.28-6.03-3.6l-2.97-1.35c-4.5-2.1-7.995-4.41-10.485-6.93-2.49-2.52-3.735-5.85-3.735-9.99 0-5.04 1.68-8.97 5.04-11.79 3.36-2.82 8.04-4.23 14.04-4.23 2.46 0 4.98.12 7.56.36 2.58.24 4.89.66 6.93 1.26l.45 13.59h-1.53l-9.81-13.14a10.66 10.66 0 0 0-1.62-.405 9.325 9.325 0 0 0-1.53-.135c-2.4 0-4.17.63-5.31 1.89-1.14 1.26-1.71 2.91-1.71 4.95 0 2.22.6 3.87 1.8 4.95 1.2 1.08 3.3 2.31 6.3 3.69l2.79 1.26zm48.33 5.4l10.8-2.07v-6.57c0-4.98-.585-8.43-1.755-10.35s-3.135-2.88-5.895-2.88a9.04 9.04 0 0 0-1.8.18l-12.15 16.47h-1.53l.36-15.3c2.34-.72 5.01-1.41 8.01-2.07 3-.66 6.42-.99 10.26-.99 6.6 0 11.76 1.08 15.48 3.24 3.72 2.16 5.58 6.03 5.58 11.61V68.4l4.77 1.26v1.26c-.96.6-2.325 1.125-4.095 1.575-1.77.45-3.675.675-5.715.675-3.24 0-5.73-.51-7.47-1.53-1.74-1.02-2.97-2.43-3.69-4.23h-.45a14.45 14.45 0 0 1-5.22 4.365c-2.1 1.05-4.68 1.575-7.74 1.575-3.96 0-7.17-1.185-9.63-3.555-2.46-2.37-3.69-5.685-3.69-9.945 0-4.14 1.29-7.395 3.87-9.765 2.58-2.37 6.48-4.035 11.7-4.995zm6.66 21.78c1.02 0 1.86-.15 2.52-.45.66-.3 1.2-.72 1.62-1.26v-19.8l-3.33.27c-2.58.24-4.41 1.245-5.49 3.015s-1.62 4.485-1.62 8.145c0 3.96.585 6.63 1.755 8.01s2.685 2.07 4.545 2.07z"/>
        <path fill="#FFF" d="M1.44 150.47l5.13-1.35v-40.77l-5.4-2.16v-1.53l19.53-2.88 1.98.18v6.48h.54c2.1-2.16 4.38-3.855 6.84-5.085s5.28-1.845 8.46-1.845c2.82 0 5.13.525 6.93 1.575 1.8 1.05 3.18 2.865 4.14 5.445h.36c2.22-2.22 4.605-3.945 7.155-5.175s5.415-1.845 8.595-1.845c4.02 0 7.11 1.065 9.27 3.195 2.16 2.13 3.24 5.445 3.24 9.945v34.47l5.22 1.35V152H58.05v-1.53l4.05-1.35v-34.2c0-2.22-.51-3.825-1.53-4.815-1.02-.99-2.55-1.485-4.59-1.485-.96 0-1.935.15-2.925.45-.99.3-1.875.66-2.655 1.08v38.97l4.05 1.35V152H30.51v-1.53l4.14-1.35v-34.2c0-2.22-.48-3.825-1.44-4.815-.96-.99-2.49-1.485-4.59-1.485-1.14 0-2.175.165-3.105.495-.93.33-1.785.705-2.565 1.125v38.88l3.96 1.35V152H1.44v-1.53zm97.38-68.85c2.34 0 4.38.81 6.12 2.43 1.74 1.62 2.61 3.63 2.61 6.03 0 2.4-.87 4.395-2.61 5.985-1.74 1.59-3.78 2.385-6.12 2.385-2.4 0-4.44-.795-6.12-2.385-1.68-1.59-2.52-3.585-2.52-5.985 0-2.4.84-4.41 2.52-6.03 1.68-1.62 3.72-2.43 6.12-2.43zM85.5 104.66l19.71-2.88 2.25.18v47.07l5.04 1.44V152H85.86v-1.53l5.13-1.44v-40.68l-5.49-2.16v-1.53zm29.43-20.88l19.98-2.88 1.98.27v67.86l5.13 1.44V152h-26.73v-1.53l5.13-1.44V87.38l-5.49-2.07v-1.53zm29.16 0l19.98-2.88 1.98.27v67.86l5.13 1.44V152h-26.73v-1.53l5.13-1.44V87.38l-5.49-2.07v-1.53zm42.48-2.16c2.34 0 4.38.81 6.12 2.43 1.74 1.62 2.61 3.63 2.61 6.03 0 2.4-.87 4.395-2.61 5.985-1.74 1.59-3.78 2.385-6.12 2.385-2.4 0-4.44-.795-6.12-2.385-1.68-1.59-2.52-3.585-2.52-5.985 0-2.4.84-4.41 2.52-6.03 1.68-1.62 3.72-2.43 6.12-2.43zm-13.32 23.04l19.71-2.88 2.25.18v47.07l5.04 1.44V152h-26.64v-1.53l5.13-1.44v-40.68l-5.49-2.16v-1.53zm54.9 48.69c-3.72 0-7.14-.615-10.26-1.845s-5.79-2.97-8.01-5.22c-2.22-2.25-3.945-5.01-5.175-8.28-1.23-3.27-1.845-6.885-1.845-10.845 0-3.96.6-7.53 1.8-10.71 1.2-3.18 2.91-5.865 5.13-8.055 2.22-2.19 4.875-3.885 7.965-5.085 3.09-1.2 6.525-1.8 10.305-1.8 3.78 0 7.23.6 10.35 1.8 3.12 1.2 5.79 2.895 8.01 5.085 2.22 2.19 3.945 4.89 5.175 8.1s1.845 6.795 1.845 10.755c0 3.96-.6 7.56-1.8 10.8-1.2 3.24-2.91 5.985-5.13 8.235-2.22 2.25-4.89 3.99-8.01 5.22-3.12 1.23-6.57 1.845-10.35 1.845zm0-50.22c-1.26 0-2.355.345-3.285 1.035-.93.69-1.71 1.935-2.34 3.735-.63 1.8-1.11 4.275-1.44 7.425-.33 3.15-.495 7.125-.495 11.925 0 4.86.165 8.865.495 12.015.33 3.15.81 5.655 1.44 7.515.63 1.86 1.425 3.15 2.385 3.87.96.72 2.07 1.08 3.33 1.08 1.26 0 2.355-.375 3.285-1.125.93-.75 1.695-2.04 2.295-3.87.6-1.83 1.065-4.335 1.395-7.515.33-3.18.495-7.2.495-12.06 0-4.8-.15-8.76-.45-11.88-.3-3.12-.765-5.58-1.395-7.38-.63-1.8-1.425-3.045-2.385-3.735-.96-.69-2.07-1.035-3.33-1.035zm28.08 47.34l5.13-1.44v-40.68l-5.4-2.16v-1.53l19.62-2.88 1.98.18v6.3h.54c2.1-2.16 4.65-3.825 7.65-4.995s6.03-1.755 9.09-1.755c4.26 0 7.38 1.05 9.36 3.15 1.98 2.1 2.97 5.4 2.97 9.9v34.47l5.13 1.44V152h-26.1v-1.53l4.59-1.17v-33.84c0-2.4-.54-4.17-1.62-5.31-1.08-1.14-2.67-1.71-4.77-1.71-1.32 0-2.505.15-3.555.45-1.05.3-2.055.69-3.015 1.17v39.24l4.5 1.17V152h-26.1v-1.53zm69.03 2.79c-2.7 0-4.905-.915-6.615-2.745s-2.565-4.005-2.565-6.525c0-2.46.855-4.575 2.565-6.345 1.71-1.77 3.915-2.655 6.615-2.655 2.76 0 4.995.885 6.705 2.655 1.71 1.77 2.565 3.885 2.565 6.345 0 2.52-.855 4.695-2.565 6.525s-3.945 2.745-6.705 2.745zm24.21 0c-2.7 0-4.905-.915-6.615-2.745s-2.565-4.005-2.565-6.525c0-2.46.855-4.575 2.565-6.345 1.71-1.77 3.915-2.655 6.615-2.655 2.76 0 4.995.885 6.705 2.655 1.71 1.77 2.565 3.885 2.565 6.345 0 2.52-.855 4.695-2.565 6.525s-3.945 2.745-6.705 2.745zm24.12 0c-2.7 0-4.905-.915-6.615-2.745s-2.565-4.005-2.565-6.525c0-2.46.855-4.575 2.565-6.345 1.71-1.77 3.915-2.655 6.615-2.655 2.76 0 4.995.885 6.705 2.655 1.71 1.77 2.565 3.885 2.565 6.345 0 2.52-.855 4.695-2.565 6.525s-3.945 2.745-6.705 2.745z"/>
    </g>
</svg>
