<svg xmlns="http://www.w3.org/2000/svg" width="618" height="202" viewBox="0 0 618 202">
    <g fill="none" fill-rule="evenodd">
        <path fill="#000" d="M18.15 60L4.5 9.825.6 7.2V5.925h23.775V7.2L19.8 9.45l8.625 34.275h.45l9.3-37.8h8.4L58.2 44.55h.525L66.6 10.8l-7.2-3.6V5.925h14.7V7.2l-5.925 3.75L56.625 60h-8.4l-11.7-38.775H36L26.55 60h-8.4zM85.275 1.35c1.95 0 3.65.675 5.1 2.025C91.825 4.725 92.55 6.4 92.55 8.4c0 2-.725 3.662-2.175 4.987-1.45 1.326-3.15 1.988-5.1 1.988-2 0-3.7-.662-5.1-1.988-1.4-1.325-2.1-2.987-2.1-4.987s.7-3.675 2.1-5.025c1.4-1.35 3.1-2.025 5.1-2.025zm-11.1 19.2l16.425-2.4 1.875.15v39.225l4.2 1.2V60h-22.2v-1.275l4.275-1.2v-33.9l-4.575-1.8V20.55zm29.55 1.2h-5.85V20.4l5.85-1.5v-8.1l13.65-2.175V18.9h9.075v2.85h-9.075v27.3c0 2.1.4 3.612 1.2 4.538.8.925 2.325 1.387 4.575 1.387.7 0 1.387-.037 2.063-.113a16.258 16.258 0 0 0 1.687-.262v1.275c-1.2 1.25-2.787 2.387-4.763 3.413-1.975 1.025-4.187 1.537-6.637 1.537-3.9 0-6.837-.975-8.813-2.925-1.975-1.95-2.962-5.125-2.962-9.525V21.75zm24.75 36.975l4.275-1.2v-51.3l-4.5-1.8V3.15l16.275-2.4 1.725.225V23.55h.45c1.75-1.8 3.875-3.187 6.375-4.163 2.5-.975 5.025-1.462 7.575-1.462 3.55 0 6.15.875 7.8 2.625 1.65 1.75 2.475 4.5 2.475 8.25v28.725l4.275 1.2V60h-21.75v-1.275l3.825-.975v-28.2c0-2-.45-3.475-1.35-4.425-.9-.95-2.225-1.425-3.975-1.425-1.1 0-2.087.125-2.962.375a14.53 14.53 0 0 0-2.513.975v32.7l3.75.975V60h-21.75v-1.275zM195 21.75h-5.85V20.4l5.85-1.5v-8.1l13.65-2.175V18.9h9.075v2.85h-9.075v27.3c0 2.1.4 3.612 1.2 4.538.8.925 2.325 1.387 4.575 1.387.7 0 1.387-.037 2.063-.113a16.258 16.258 0 0 0 1.687-.262v1.275c-1.2 1.25-2.787 2.387-4.763 3.413-1.975 1.025-4.187 1.537-6.637 1.537-3.9 0-6.837-.975-8.813-2.925-1.975-1.95-2.962-5.125-2.962-9.525V21.75zm24.75 36.975l4.275-1.2v-51.3l-4.5-1.8V3.15L235.8.75l1.725.225V23.55h.45c1.75-1.8 3.875-3.187 6.375-4.163 2.5-.975 5.025-1.462 7.575-1.462 3.55 0 6.15.875 7.8 2.625 1.65 1.75 2.475 4.5 2.475 8.25v28.725l4.275 1.2V60h-21.75v-1.275l3.825-.975v-28.2c0-2-.45-3.475-1.35-4.425-.9-.95-2.225-1.425-3.975-1.425-1.1 0-2.087.125-2.963.375a14.53 14.53 0 0 0-2.512.975v32.7l3.75.975V60h-21.75v-1.275zm87.15-20.7h-24.6c.25 5.05 1.387 9.037 3.412 11.962 2.026 2.926 5.638 4.388 10.838 4.388 1.7 0 3.3-.125 4.8-.375s2.95-.675 4.35-1.275v1.2c-1.15 1.75-3.125 3.387-5.925 4.913-2.8 1.525-6.225 2.287-10.275 2.287-6.9 0-12.125-1.962-15.675-5.888C270.275 51.313 268.5 46 268.5 39.3c0-6.55 1.837-11.737 5.512-15.562C277.688 19.912 282.65 18 288.9 18c6.3 0 10.875 1.637 13.725 4.913 2.85 3.275 4.275 7.962 4.275 14.062v1.05zm-18.3-18.6c-1.95 0-3.487 1.375-4.613 4.125-1.125 2.75-1.687 7.075-1.687 12.975L293.925 36c0-6.4-.437-10.762-1.313-13.087-.875-2.326-2.212-3.488-4.012-3.488zm54.375 13.65c3.85 1.8 6.775 3.7 8.775 5.7s3 4.875 3 8.625c0 4.2-1.45 7.512-4.35 9.938-2.9 2.425-7.075 3.637-12.525 3.637-2.45 0-4.9-.162-7.35-.488-2.45-.325-4.675-.862-6.675-1.612l-.45-12.15h1.275L335.4 59.25c.35.1.725.187 1.125.263.4.075.775.112 1.125.112 2.3 0 3.987-.575 5.063-1.725 1.075-1.15 1.612-2.675 1.612-4.575 0-1.7-.5-3-1.5-3.9-1-.9-2.675-1.9-5.025-3l-2.475-1.125c-3.75-1.75-6.662-3.675-8.738-5.775-2.075-2.1-3.112-4.875-3.112-8.325 0-4.2 1.4-7.475 4.2-9.825 2.8-2.35 6.7-3.525 11.7-3.525 2.05 0 4.15.1 6.3.3 2.15.2 4.075.55 5.775 1.05l.375 11.325h-1.275l-8.175-10.95c-.45-.15-.9-.262-1.35-.337a7.771 7.771 0 0 0-1.275-.113c-2 0-3.475.525-4.425 1.575-.95 1.05-1.425 2.425-1.425 4.125 0 1.85.5 3.225 1.5 4.125 1 .9 2.75 1.925 5.25 3.075l2.325 1.05zm18.3-9.45l-4.5-1.8V20.55l16.425-2.4 1.8.15v31.05c0 2.3.462 3.85 1.387 4.65.926.8 2.213 1.2 3.863 1.2.95 0 1.837-.112 2.663-.338A17.684 17.684 0 0 0 385.35 54V23.625l-4.5-1.8V20.55l16.425-2.4 1.65.15v36.975l4.425 1.8v1.275l-16.2 2.55-1.65-.15V55.5h-.45c-1.55 1.55-3.35 2.862-5.4 3.938-2.05 1.075-4.35 1.612-6.9 1.612-3.9 0-6.787-1.075-8.663-3.225-1.875-2.15-2.812-4.975-2.812-8.475V23.625zM449.55 38.25c0 4-.512 7.45-1.538 10.35-1.025 2.9-2.412 5.262-4.162 7.087-1.75 1.826-3.787 3.163-6.113 4.013a21.128 21.128 0 0 1-7.312 1.275c-1.55 0-2.937-.1-4.163-.3-1.225-.2-2.137-.4-2.737-.6v13.65l4.875 1.05v1.275h-22.875v-1.275l4.275-1.05v-50.1l-4.5-1.8V20.55l16.575-2.4 1.575.15v4.725h.45c1.05-1.25 2.55-2.412 4.5-3.487 1.95-1.076 4.3-1.613 7.05-1.613 1.95 0 3.787.362 5.512 1.087 1.726.726 3.225 1.888 4.5 3.488 1.276 1.6 2.275 3.7 3 6.3.726 2.6 1.088 5.75 1.088 9.45zm-14.325 1.5c0-6.25-.65-10.5-1.95-12.75-1.3-2.25-3.1-3.375-5.4-3.375-.85 0-1.65.087-2.4.262-.75.176-1.4.363-1.95.563V57.6c.5.35 1.075.675 1.725.975.65.3 1.45.45 2.4.45 2.35 0 4.2-1.425 5.55-4.275 1.35-2.85 2.025-7.85 2.025-15zm60.9-1.5c0 4-.512 7.45-1.538 10.35-1.025 2.9-2.412 5.262-4.162 7.087-1.75 1.826-3.787 3.163-6.113 4.013A21.128 21.128 0 0 1 477 60.975c-1.55 0-2.937-.1-4.163-.3-1.225-.2-2.137-.4-2.737-.6v13.65l4.875 1.05v1.275H452.1v-1.275l4.275-1.05v-50.1l-4.5-1.8V20.55l16.575-2.4 1.575.15v4.725h.45c1.05-1.25 2.55-2.412 4.5-3.487 1.95-1.076 4.3-1.613 7.05-1.613 1.95 0 3.787.362 5.513 1.087 1.725.726 3.224 1.888 4.5 3.488 1.275 1.6 2.274 3.7 3 6.3.725 2.6 1.087 5.75 1.087 9.45zm-14.325 1.5c0-6.25-.65-10.5-1.95-12.75-1.3-2.25-3.1-3.375-5.4-3.375-.85 0-1.65.087-2.4.262-.75.176-1.4.363-1.95.563V57.6c.5.35 1.075.675 1.725.975.65.3 1.45.45 2.4.45 2.35 0 4.2-1.425 5.55-4.275 1.35-2.85 2.025-7.85 2.025-15zm38.1 21.375c-3.1 0-5.95-.512-8.55-1.538-2.6-1.025-4.825-2.474-6.675-4.35-1.85-1.875-3.287-4.174-4.313-6.9-1.025-2.725-1.537-5.737-1.537-9.037 0-3.3.5-6.275 1.5-8.925 1-2.65 2.425-4.887 4.275-6.712 1.85-1.826 4.062-3.238 6.637-4.238 2.576-1 5.438-1.5 8.588-1.5 3.15 0 6.025.5 8.625 1.5 2.6 1 4.825 2.412 6.675 4.238 1.85 1.825 3.287 4.074 4.313 6.75 1.025 2.675 1.537 5.662 1.537 8.962s-.5 6.3-1.5 9-2.425 4.987-4.275 6.862c-1.85 1.876-4.075 3.325-6.675 4.35-2.6 1.026-5.475 1.538-8.625 1.538zm0-41.85c-1.05 0-1.962.287-2.737.863-.776.575-1.425 1.612-1.95 3.112-.526 1.5-.925 3.562-1.2 6.188-.276 2.625-.413 5.937-.413 9.937 0 4.05.137 7.387.413 10.013.275 2.625.674 4.712 1.2 6.262.525 1.55 1.187 2.625 1.987 3.225.8.6 1.725.9 2.775.9 1.05 0 1.962-.312 2.737-.938.776-.625 1.413-1.7 1.913-3.225.5-1.525.887-3.612 1.163-6.262.275-2.65.412-6 .412-10.05 0-4-.125-7.3-.375-9.9-.25-2.6-.637-4.65-1.163-6.15-.525-1.5-1.187-2.537-1.987-3.113-.8-.575-1.725-.862-2.775-.862zm23.175 1.275l16.575-2.4 1.35.15V30h.375c1.05-4.45 2.437-7.612 4.163-9.488 1.725-1.875 3.737-2.812 6.037-2.812.35 0 .725.025 1.125.075.4.05.7.125.9.225v12.375c-.35-.1-.837-.175-1.462-.225a23.978 23.978 0 0 0-1.913-.075c-1.85 0-3.5.1-4.95.3-1.45.2-2.775.55-3.975 1.05V57.6l5.55 1.125V60H543.3v-1.275l4.275-1.125V23.625l-4.5-1.8V20.55zm37.575 1.2h-5.85V20.4l5.85-1.5v-8.1l13.65-2.175V18.9h9.075v2.85H594.3v27.3c0 2.1.4 3.612 1.2 4.538.8.925 2.325 1.387 4.575 1.387.7 0 1.387-.037 2.063-.113a16.258 16.258 0 0 0 1.687-.262v1.275c-1.2 1.25-2.787 2.387-4.763 3.413-1.975 1.025-4.187 1.537-6.637 1.537-3.9 0-6.837-.975-8.813-2.925-1.975-1.95-2.962-5.125-2.962-9.525V21.75zM22.2 131.125c-3.1 0-5.95-.512-8.55-1.537-2.6-1.026-4.825-2.475-6.675-4.35-1.85-1.876-3.287-4.175-4.313-6.9-1.025-2.726-1.537-5.738-1.537-9.038s.5-6.275 1.5-8.925c1-2.65 2.425-4.887 4.275-6.713 1.85-1.825 4.062-3.237 6.637-4.237 2.576-1 5.438-1.5 8.588-1.5 3.15 0 6.025.5 8.625 1.5 2.6 1 4.825 2.412 6.675 4.237 1.85 1.826 3.287 4.075 4.313 6.75 1.025 2.676 1.537 5.663 1.537 8.963 0 3.3-.5 6.3-1.5 9s-2.425 4.987-4.275 6.862c-1.85 1.876-4.075 3.325-6.675 4.35-2.6 1.026-5.475 1.538-8.625 1.538zm0-41.85c-1.05 0-1.962.287-2.738.862-.775.576-1.424 1.613-1.95 3.113-.525 1.5-.924 3.562-1.2 6.188-.275 2.625-.412 5.937-.412 9.937 0 4.05.137 7.387.412 10.013.276 2.625.675 4.712 1.2 6.262.526 1.55 1.188 2.625 1.988 3.225.8.6 1.725.9 2.775.9 1.05 0 1.962-.312 2.738-.938.775-.625 1.412-1.7 1.912-3.224.5-1.526.887-3.613 1.162-6.263.276-2.65.413-6 .413-10.05 0-4-.125-7.3-.375-9.9-.25-2.6-.637-4.65-1.163-6.15-.525-1.5-1.187-2.537-1.987-3.112-.8-.576-1.725-.863-2.775-.863zm41.475 38.25l5.325 1.2V130H45.6v-1.275l4.35-1.2V91.75h-4.575V90.4l4.575-1.5v-4.2c0-2.55.437-4.712 1.313-6.487.875-1.776 2.05-3.225 3.525-4.35 1.475-1.126 3.2-1.938 5.175-2.438 1.975-.5 4.062-.75 6.262-.75 1.75 0 3.35.05 4.8.15 1.45.1 3.15.3 5.1.6l.225 12.225h-1.275L67.8 72.1c-1.45 0-2.5.662-3.15 1.988-.65 1.325-.975 3.787-.975 7.387V88.9h7.575v2.85h-7.575v35.775zm-33.6 73.45c-4.35 0-8.3-.525-11.85-1.575-3.55-1.05-6.55-2.687-9-4.912-2.45-2.226-4.35-5.1-5.7-8.625C2.175 182.337 1.5 178.15 1.5 173.3c0-5.2.8-9.6 2.4-13.2 1.6-3.6 3.737-6.512 6.412-8.737 2.676-2.226 5.788-3.838 9.338-4.838 3.55-1 7.225-1.5 11.025-1.5 3.45 0 6.612.212 9.488.637 2.875.426 5.087.963 6.637 1.613l.6 16.05h-1.275l-11.1-16.2a6.044 6.044 0 0 0-1.987-.675c-.676-.1-1.363-.15-2.063-.15-3.8 0-6.8 1.962-9 5.887-2.2 3.926-3.3 10.613-3.3 20.063 0 5.25.212 9.65.637 13.2.426 3.55 1.088 6.375 1.988 8.475.9 2.1 2.062 3.587 3.488 4.462 1.425.876 3.087 1.313 4.987 1.313.85 0 1.65-.1 2.4-.3.75-.2 1.375-.475 1.875-.825V176l-4.95-.9v-1.275h22.95v1.275l-3.9.9v21.9c-2 .8-4.612 1.512-7.837 2.137-3.226.626-6.638.938-10.238.938zm27.9-37.35l-4.5-1.8v-1.275l16.425-2.4 1.8.15v31.05c0 2.3.462 3.85 1.388 4.65.925.8 2.212 1.2 3.862 1.2.95 0 1.837-.112 2.662-.337A17.684 17.684 0 0 0 82.05 194v-30.375l-4.5-1.8v-1.275l16.425-2.4 1.65.15v36.975l4.425 1.8v1.275l-16.2 2.55-1.65-.15v-5.25h-.45c-1.55 1.55-3.35 2.862-5.4 3.938-2.05 1.075-4.35 1.612-6.9 1.612-3.9 0-6.787-1.075-8.663-3.225-1.875-2.15-2.812-4.975-2.812-8.475v-25.725zm57.45 13.95l9-1.725v-5.475c0-4.15-.487-7.025-1.462-8.625-.976-1.6-2.613-2.4-4.913-2.4a7.533 7.533 0 0 0-1.5.15l-10.125 13.725h-1.275l.3-12.75c1.95-.6 4.175-1.175 6.675-1.725s5.35-.825 8.55-.825c5.5 0 9.8.9 12.9 2.7 3.1 1.8 4.65 5.025 4.65 9.675V197l3.975 1.05v1.05c-.8.5-1.937.937-3.412 1.313-1.476.375-3.063.562-4.763.562-2.7 0-4.775-.425-6.225-1.275-1.45-.85-2.475-2.025-3.075-3.525h-.375a12.042 12.042 0 0 1-4.35 3.637c-1.75.876-3.9 1.313-6.45 1.313-3.3 0-5.975-.987-8.025-2.963-2.05-1.975-3.075-4.737-3.075-8.287 0-3.45 1.075-6.162 3.225-8.137 2.15-1.976 5.4-3.363 9.75-4.163zm5.55 18.15c.85 0 1.55-.125 2.1-.375s1-.6 1.35-1.05v-16.5l-2.775.225c-2.15.2-3.675 1.037-4.575 2.512-.9 1.476-1.35 3.738-1.35 6.788 0 3.3.487 5.525 1.463 6.675.975 1.15 2.237 1.725 3.787 1.725zM144 160.55l16.575-2.4 1.35.15V170h.375c1.05-4.45 2.437-7.612 4.162-9.488 1.726-1.875 3.738-2.812 6.038-2.812.35 0 .725.025 1.125.075.4.05.7.125.9.225v12.375c-.35-.1-.837-.175-1.463-.225a23.978 23.978 0 0 0-1.912-.075c-1.85 0-3.5.1-4.95.3-1.45.2-2.775.55-3.975 1.05V197.6l5.55 1.125V200h-23.55v-1.275l4.275-1.125v-33.975l-4.5-1.8v-1.275zm51.375-2.475c1.65 0 3.075.125 4.275.375 1.2.25 2.125.55 2.775.9V146l-4.5-1.575v-1.275l16.575-2.4 1.575.225v55.35l4.575 1.425v1.275l-16.725 1.875-1.275-.15v-4.65h-.375c-1.2 1.3-2.625 2.45-4.275 3.45-1.65 1-3.725 1.5-6.225 1.5-4.45 0-8.137-1.725-11.063-5.175-2.925-3.45-4.387-8.65-4.387-15.6 0-7.3 1.75-12.825 5.25-16.575s8.1-5.625 13.8-5.625zm3.225 37.2c.8 0 1.537-.087 2.213-.263.675-.175 1.212-.387 1.612-.637V161.15c-.5-.25-1.1-.475-1.8-.675-.7-.2-1.575-.3-2.625-.3-2.2 0-3.962 1.425-5.287 4.275-1.326 2.85-1.988 7.575-1.988 14.175 0 5.95.662 10.212 1.988 12.787 1.325 2.576 3.287 3.863 5.887 3.863zm34.65-53.925c1.95 0 3.65.675 5.1 2.025 1.45 1.35 2.175 3.025 2.175 5.025 0 2-.725 3.662-2.175 4.987-1.45 1.326-3.15 1.988-5.1 1.988-2 0-3.7-.662-5.1-1.988-1.4-1.325-2.1-2.987-2.1-4.987s.7-3.675 2.1-5.025c1.4-1.35 3.1-2.025 5.1-2.025zm-11.1 19.2l16.425-2.4 1.875.15v39.225l4.2 1.2V200h-22.2v-1.275l4.275-1.2v-33.9l-4.575-1.8v-1.275zm37.725 17.025l9-1.725v-5.475c0-4.15-.487-7.025-1.462-8.625-.976-1.6-2.613-2.4-4.913-2.4a7.533 7.533 0 0 0-1.5.15l-10.125 13.725H249.6l.3-12.75c1.95-.6 4.175-1.175 6.675-1.725s5.35-.825 8.55-.825c5.5 0 9.8.9 12.9 2.7 3.1 1.8 4.65 5.025 4.65 9.675V197l3.975 1.05v1.05c-.8.5-1.937.937-3.412 1.313-1.476.375-3.063.562-4.763.562-2.7 0-4.775-.425-6.225-1.275-1.45-.85-2.475-2.025-3.075-3.525h-.375a12.042 12.042 0 0 1-4.35 3.637c-1.75.876-3.9 1.313-6.45 1.313-3.3 0-5.975-.987-8.025-2.963-2.05-1.975-3.075-4.737-3.075-8.287 0-3.45 1.075-6.162 3.225-8.137 2.15-1.976 5.4-3.363 9.75-4.163zm5.55 18.15c.85 0 1.55-.125 2.1-.375s1-.6 1.35-1.05v-16.5l-2.775.225c-2.15.2-3.675 1.037-4.575 2.512-.9 1.476-1.35 3.738-1.35 6.788 0 3.3.487 5.525 1.462 6.675.976 1.15 2.238 1.725 3.788 1.725zm23.25 3l4.275-1.2v-33.9l-4.5-1.8v-1.275l16.35-2.4 1.65.15v5.25h.45c1.75-1.8 3.875-3.187 6.375-4.163 2.5-.975 5.025-1.462 7.575-1.462 3.55 0 6.15.875 7.8 2.625 1.65 1.75 2.475 4.5 2.475 8.25v28.725l4.275 1.2V200h-21.75v-1.275l3.825-.975v-28.2c0-2-.45-3.475-1.35-4.425-.9-.95-2.225-1.425-3.975-1.425-1.1 0-2.087.125-2.962.375a14.53 14.53 0 0 0-2.513.975v32.7l3.75.975V200h-21.75v-1.275zm61.2-38.175l16.575-2.4 1.35.15V170h.375c1.05-4.45 2.437-7.612 4.162-9.488 1.726-1.875 3.738-2.812 6.038-2.812.35 0 .725.025 1.125.075.4.05.7.125.9.225v12.375c-.35-.1-.837-.175-1.462-.225a23.978 23.978 0 0 0-1.913-.075c-1.85 0-3.5.1-4.95.3-1.45.2-2.775.55-3.975 1.05V197.6l5.55 1.125V200H350.1v-1.275l4.275-1.125v-33.975l-4.5-1.8v-1.275zm70.95 17.475h-24.6c.25 5.05 1.387 9.037 3.412 11.963 2.026 2.925 5.638 4.387 10.838 4.387 1.7 0 3.3-.125 4.8-.375s2.95-.675 4.35-1.275v1.2c-1.15 1.75-3.125 3.387-5.925 4.912-2.8 1.526-6.225 2.288-10.275 2.288-6.9 0-12.125-1.962-15.675-5.887-3.55-3.926-5.325-9.238-5.325-15.938 0-6.55 1.837-11.737 5.512-15.563 3.676-3.825 8.638-5.737 14.888-5.737 6.3 0 10.875 1.637 13.725 4.912 2.85 3.276 4.275 7.963 4.275 14.063v1.05zm-18.3-18.6c-1.95 0-3.487 1.375-4.612 4.125-1.126 2.75-1.688 7.075-1.688 12.975L407.85 176c0-6.4-.437-10.762-1.313-13.088-.875-2.325-2.212-3.487-4.012-3.487zm34.35 18.15l9-1.725v-5.475c0-4.15-.487-7.025-1.462-8.625-.976-1.6-2.613-2.4-4.913-2.4a7.533 7.533 0 0 0-1.5.15l-10.125 13.725H426.6l.3-12.75c1.95-.6 4.175-1.175 6.675-1.725s5.35-.825 8.55-.825c5.5 0 9.8.9 12.9 2.7 3.1 1.8 4.65 5.025 4.65 9.675V197l3.975 1.05v1.05c-.8.5-1.937.937-3.412 1.313-1.476.375-3.063.562-4.763.562-2.7 0-4.775-.425-6.225-1.275-1.45-.85-2.475-2.025-3.075-3.525h-.375a12.042 12.042 0 0 1-4.35 3.637c-1.75.876-3.9 1.313-6.45 1.313-3.3 0-5.975-.987-8.025-2.963-2.05-1.975-3.075-4.737-3.075-8.287 0-3.45 1.075-6.162 3.225-8.137 2.15-1.976 5.4-3.363 9.75-4.163zm5.55 18.15c.85 0 1.55-.125 2.1-.375s1-.6 1.35-1.05v-16.5l-2.775.225c-2.15.2-3.675 1.037-4.575 2.512-.9 1.476-1.35 3.738-1.35 6.788 0 3.3.487 5.525 1.462 6.675.976 1.15 2.238 1.725 3.788 1.725zm42.6-37.65c1.65 0 3.075.125 4.275.375 1.2.25 2.125.55 2.775.9V146l-4.5-1.575v-1.275l16.575-2.4 1.575.225v55.35l4.575 1.425v1.275l-16.725 1.875-1.275-.15v-4.65h-.375c-1.2 1.3-2.625 2.45-4.275 3.45-1.65 1-3.725 1.5-6.225 1.5-4.45 0-8.137-1.725-11.063-5.175-2.925-3.45-4.387-8.65-4.387-15.6 0-7.3 1.75-12.825 5.25-16.575s8.1-5.625 13.8-5.625zm3.225 37.2c.8 0 1.537-.087 2.212-.263.676-.175 1.213-.387 1.613-.637V161.15c-.5-.25-1.1-.475-1.8-.675-.7-.2-1.575-.3-2.625-.3-2.2 0-3.962 1.425-5.287 4.275-1.326 2.85-1.988 7.575-1.988 14.175 0 5.95.662 10.212 1.988 12.787 1.325 2.576 3.287 3.863 5.887 3.863zm62.325-17.25h-24.6c.25 5.05 1.387 9.037 3.413 11.963 2.025 2.925 5.637 4.387 10.837 4.387 1.7 0 3.3-.125 4.8-.375s2.95-.675 4.35-1.275v1.2c-1.15 1.75-3.125 3.387-5.925 4.912-2.8 1.526-6.225 2.288-10.275 2.288-6.9 0-12.125-1.962-15.675-5.887-3.55-3.926-5.325-9.238-5.325-15.938 0-6.55 1.837-11.737 5.513-15.563 3.675-3.825 8.637-5.737 14.887-5.737 6.3 0 10.875 1.637 13.725 4.912 2.85 3.276 4.275 7.963 4.275 14.063v1.05zm-18.3-18.6c-1.95 0-3.487 1.375-4.612 4.125-1.126 2.75-1.688 7.075-1.688 12.975L537.6 176c0-6.4-.437-10.762-1.313-13.088-.875-2.325-2.212-3.487-4.012-3.487zm21.15 1.125l16.575-2.4 1.35.15V170h.375c1.05-4.45 2.437-7.612 4.163-9.488 1.725-1.875 3.737-2.812 6.037-2.812.35 0 .725.025 1.125.075.4.05.7.125.9.225v12.375c-.35-.1-.837-.175-1.463-.225a23.978 23.978 0 0 0-1.912-.075c-1.85 0-3.5.1-4.95.3-1.45.2-2.775.55-3.975 1.05V197.6l5.55 1.125V200h-23.55v-1.275l4.275-1.125v-33.975l-4.5-1.8v-1.275zm52.65 12.525c3.85 1.8 6.775 3.7 8.775 5.7s3 4.875 3 8.625c0 4.2-1.45 7.512-4.35 9.938-2.9 2.425-7.075 3.637-12.525 3.637-2.45 0-4.9-.162-7.35-.487-2.45-.326-4.675-.863-6.675-1.613l-.45-12.15h1.275L598.5 199.25c.35.1.725.188 1.125.262.4.076.775.113 1.125.113 2.3 0 3.987-.575 5.063-1.725 1.075-1.15 1.612-2.675 1.612-4.575 0-1.7-.5-3-1.5-3.9-1-.9-2.675-1.9-5.025-3l-2.475-1.125c-3.75-1.75-6.662-3.675-8.737-5.775-2.076-2.1-3.113-4.875-3.113-8.325 0-4.2 1.4-7.475 4.2-9.825 2.8-2.35 6.7-3.525 11.7-3.525 2.05 0 4.15.1 6.3.3 2.15.2 4.075.55 5.775 1.05l.375 11.325h-1.275l-8.175-10.95c-.45-.15-.9-.262-1.35-.337a7.771 7.771 0 0 0-1.275-.113c-2 0-3.475.525-4.425 1.575-.95 1.05-1.425 2.425-1.425 4.125 0 1.85.5 3.225 1.5 4.125 1 .9 2.75 1.925 5.25 3.075l2.325 1.05z"/>
        <path fill="#FFF" d="M107.325 131.125c-3.1 0-5.95-.512-8.55-1.537-2.6-1.026-4.825-2.475-6.675-4.35-1.85-1.876-3.287-4.175-4.313-6.9-1.025-2.726-1.537-5.738-1.537-9.038s.5-6.275 1.5-8.925c1-2.65 2.425-4.887 4.275-6.713 1.85-1.825 4.062-3.237 6.637-4.237 2.576-1 5.438-1.5 8.588-1.5 3.15 0 6.025.5 8.625 1.5 2.6 1 4.825 2.412 6.675 4.237 1.85 1.826 3.287 4.075 4.313 6.75 1.025 2.676 1.537 5.663 1.537 8.963 0 3.3-.5 6.3-1.5 9s-2.425 4.987-4.275 6.862c-1.85 1.876-4.075 3.325-6.675 4.35-2.6 1.026-5.475 1.538-8.625 1.538zm0-41.85c-1.05 0-1.962.287-2.737.862-.776.576-1.425 1.613-1.95 3.113-.526 1.5-.925 3.562-1.2 6.188-.276 2.625-.413 5.937-.413 9.937 0 4.05.137 7.387.412 10.013.276 2.625.675 4.712 1.2 6.262.526 1.55 1.188 2.625 1.988 3.225.8.6 1.725.9 2.775.9 1.05 0 1.962-.312 2.737-.938.776-.625 1.413-1.7 1.913-3.224.5-1.526.887-3.613 1.163-6.263.275-2.65.412-6 .412-10.05 0-4-.125-7.3-.375-9.9-.25-2.6-.637-4.65-1.162-6.15-.526-1.5-1.188-2.537-1.988-3.112-.8-.576-1.725-.863-2.775-.863zM130.725 128.725l4.275-1.2v-33.9l-4.5-1.8V90.55l16.35-2.4 1.65.15v5.25h.45c1.75-1.8 3.875-3.187 6.375-4.162 2.5-.976 5.025-1.463 7.575-1.463 3.55 0 6.15.875 7.8 2.625 1.65 1.75 2.475 4.5 2.475 8.25v28.725l4.275 1.2V130H155.7v-1.275l3.825-.975v-28.2c0-2-.45-3.475-1.35-4.425-.9-.95-2.225-1.425-3.975-1.425-1.1 0-2.087.125-2.962.375a14.53 14.53 0 0 0-2.513.975v32.7l3.75.975V130h-21.75v-1.275zM217.95 108.025h-24.6c.25 5.05 1.387 9.037 3.412 11.962 2.026 2.926 5.638 4.388 10.838 4.388 1.7 0 3.3-.125 4.8-.375s2.95-.675 4.35-1.275v1.2c-1.15 1.75-3.125 3.387-5.925 4.913-2.8 1.525-6.225 2.287-10.275 2.287-6.9 0-12.125-1.962-15.675-5.888-3.55-3.925-5.325-9.237-5.325-15.937 0-6.55 1.837-11.737 5.512-15.563C188.738 89.912 193.7 88 199.95 88c6.3 0 10.875 1.637 13.725 4.912 2.85 3.276 4.275 7.963 4.275 14.063v1.05zm-18.3-18.6c-1.95 0-3.487 1.375-4.613 4.125-1.125 2.75-1.687 7.075-1.687 12.975l11.625-.525c0-6.4-.437-10.762-1.313-13.088-.875-2.325-2.212-3.487-4.012-3.487zM233.775 128.725l4.275-1.125V93.625l-4.5-1.8V90.55l16.275-2.4 1.65.15v5.4h.45c1.75-1.8 3.65-3.212 5.7-4.237 2.05-1.026 4.4-1.538 7.05-1.538 2.35 0 4.275.437 5.775 1.313 1.5.875 2.65 2.387 3.45 4.537h.3c1.85-1.85 3.837-3.287 5.963-4.313 2.125-1.025 4.512-1.537 7.162-1.537 3.35 0 5.925.887 7.725 2.663 1.8 1.775 2.7 4.537 2.7 8.287V127.6l4.35 1.125V130h-21.15v-1.275l3.375-1.125V99.1c0-1.85-.425-3.187-1.275-4.012-.85-.826-2.125-1.238-3.825-1.238-.8 0-1.612.125-2.438.375-.825.25-1.562.55-2.212.9V127.6l3.375 1.125V130H258v-1.275l3.45-1.125V99.1c0-1.85-.4-3.187-1.2-4.012-.8-.826-2.075-1.238-3.825-1.238-.95 0-1.812.137-2.588.413-.775.275-1.487.587-2.137.937v32.4l3.3 1.125V130h-21.225v-1.275zM314.925 71.35c1.95 0 3.65.675 5.1 2.025 1.45 1.35 2.175 3.025 2.175 5.025 0 2-.725 3.662-2.175 4.987-1.45 1.326-3.15 1.988-5.1 1.988-2 0-3.7-.662-5.1-1.987-1.4-1.326-2.1-2.988-2.1-4.988 0-2 .7-3.675 2.1-5.025 1.4-1.35 3.1-2.025 5.1-2.025zM303.825 90.55l16.425-2.4 1.875.15v39.225l4.2 1.2V130h-22.2v-1.275l4.275-1.2v-33.9l-4.575-1.8zM328.35 73.15l16.65-2.4 1.65.225v56.55l4.275 1.2V130H328.65v-1.275l4.275-1.2V76.15l-4.575-1.725zM352.65 73.15l16.65-2.4 1.65.225v56.55l4.275 1.2V130H352.95v-1.275l4.275-1.2V76.15l-4.575-1.725zM388.05 71.35c1.95 0 3.65.675 5.1 2.025 1.45 1.35 2.175 3.025 2.175 5.025 0 2-.725 3.662-2.175 4.987-1.45 1.326-3.15 1.988-5.1 1.988-2 0-3.7-.662-5.1-1.987-1.4-1.326-2.1-2.988-2.1-4.988 0-2 .7-3.675 2.1-5.025 1.4-1.35 3.1-2.025 5.1-2.025zM376.95 90.55l16.425-2.4 1.875.15v39.225l4.2 1.2V130h-22.2v-1.275l4.275-1.2v-33.9l-4.575-1.8zM422.7 131.125c-3.1 0-5.95-.512-8.55-1.537-2.6-1.026-4.825-2.475-6.675-4.35-1.85-1.876-3.287-4.175-4.313-6.9-1.025-2.726-1.537-5.738-1.537-9.038s.5-6.275 1.5-8.925c1-2.65 2.425-4.887 4.275-6.713 1.85-1.825 4.062-3.237 6.638-4.237 2.575-1 5.437-1.5 8.587-1.5 3.15 0 6.025.5 8.625 1.5 2.6 1 4.825 2.412 6.675 4.237 1.85 1.826 3.287 4.075 4.313 6.75 1.025 2.676 1.537 5.663 1.537 8.963 0 3.3-.5 6.3-1.5 9s-2.425 4.987-4.275 6.862c-1.85 1.876-4.075 3.325-6.675 4.35-2.6 1.026-5.475 1.538-8.625 1.538zm0-41.85c-1.05 0-1.962.287-2.738.862-.775.576-1.424 1.613-1.95 3.113-.525 1.5-.924 3.562-1.2 6.188-.275 2.625-.412 5.937-.412 9.937 0 4.05.137 7.387.413 10.013.275 2.625.674 4.712 1.2 6.262.525 1.55 1.187 2.625 1.987 3.225.8.6 1.725.9 2.775.9 1.05 0 1.962-.312 2.738-.938.775-.625 1.412-1.7 1.912-3.224.5-1.526.887-3.613 1.162-6.263.276-2.65.413-6 .413-10.05 0-4-.125-7.3-.375-9.9-.25-2.6-.637-4.65-1.163-6.15-.525-1.5-1.187-2.537-1.987-3.112-.8-.576-1.725-.863-2.775-.863zM446.1 128.725l4.275-1.2v-33.9l-4.5-1.8V90.55l16.35-2.4 1.65.15v5.25h.45c1.75-1.8 3.875-3.187 6.375-4.162 2.5-.976 5.025-1.463 7.575-1.463 3.55 0 6.15.875 7.8 2.625 1.65 1.75 2.475 4.5 2.475 8.25v28.725l4.275 1.2V130h-21.75v-1.275l3.825-.975v-28.2c0-2-.45-3.475-1.35-4.425-.9-.95-2.225-1.425-3.975-1.425-1.1 0-2.087.125-2.962.375a14.53 14.53 0 0 0-2.513.975v32.7l3.75.975V130H446.1v-1.275z"/>
    </g>
</svg>
