
<svg xmlns="http://www.w3.org/2000/svg" width="450" height="147" viewBox="0 0 450 147">
    <g fill="none" fill-rule="evenodd">
        <path fill="#000" d="M13.216 43.663L3.276 7.15.437 5.24v-.928H17.75v.928l-3.332 1.637 6.28 24.943h.328l6.772-27.508h6.117l8.465 28.108h.382l5.734-24.56-5.243-2.62v-.928h10.704v.928l-4.314 2.729-8.41 35.694h-6.117l-8.52-28.217h-.381l-6.881 28.217h-6.117zM62.093.983c1.42 0 2.658.49 3.714 1.473 1.056.982 1.584 2.201 1.584 3.657 0 1.455-.528 2.665-1.584 3.63-1.056.964-2.294 1.446-3.714 1.446-1.456 0-2.694-.482-3.713-1.447-1.02-.964-1.53-2.174-1.53-3.63 0-1.455.51-2.674 1.53-3.656C59.4 1.474 60.637.982 62.093.982zm-8.082 13.972l11.96-1.747 1.365.11v28.544l3.058.874v.927H54.23v-.927l3.113-.874v-24.67l-3.331-1.31v-.927zm21.517.873h-4.26v-.982l4.26-1.092V7.859l9.94-1.582v7.477h6.607v2.074h-6.608v19.867c0 1.528.291 2.629.874 3.302s1.693 1.01 3.331 1.01c.51 0 1.01-.028 1.502-.082.492-.055.901-.119 1.229-.191v.928c-.874.91-2.03 1.737-3.468 2.483-1.438.746-3.05 1.119-4.833 1.119-2.84 0-4.979-.71-6.417-2.129-1.438-1.419-2.157-3.73-2.157-6.931V15.828zM93.55 42.736l3.113-.874V4.53l-3.277-1.31v-.928l11.85-1.746 1.257.164v16.428h.327c1.275-1.31 2.822-2.32 4.642-3.03 1.82-.709 3.66-1.064 5.516-1.064 2.585 0 4.478.637 5.68 1.91 1.201 1.274 1.802 3.275 1.802 6.004v20.904l3.113.874v.927h-15.838v-.927l2.786-.71V21.504c0-1.455-.328-2.529-.983-3.22-.656-.691-1.62-1.037-2.895-1.037-.8 0-1.52.091-2.157.273-.637.182-1.247.418-1.83.71v23.796l2.731.71v.927H93.55v-.927zm48.44-26.908h-4.26v-.982l4.26-1.092V7.859l9.94-1.582v7.477h6.608v2.074h-6.608v19.867c0 1.528.29 2.629.873 3.302s1.693 1.01 3.332 1.01c.51 0 1.01-.028 1.502-.082.491-.055.9-.119 1.228-.191v.928c-.874.91-2.03 1.737-3.468 2.483-1.438.746-3.049 1.119-4.833 1.119-2.84 0-4.978-.71-6.417-2.129-1.438-1.419-2.157-3.73-2.157-6.931V15.828zm18.022 26.908l3.113-.874V4.53l-3.277-1.31v-.928L171.7.546l1.256.164v16.428h.328c1.274-1.31 2.821-2.32 4.642-3.03 1.82-.709 3.659-1.064 5.516-1.064 2.584 0 4.478.637 5.68 1.91 1.2 1.274 1.801 3.275 1.801 6.004v20.904l3.113.874v.927h-15.837v-.927l2.785-.71V21.504c0-1.455-.328-2.529-.983-3.22-.655-.691-1.62-1.037-2.894-1.037-.801 0-1.52.091-2.158.273-.637.182-1.247.418-1.83.71v23.796l2.732.71v.927h-15.838v-.927zm63.459-15.064h-17.913c.182 3.675 1.01 6.576 2.485 8.705 1.475 2.129 4.105 3.193 7.891 3.193 1.238 0 2.403-.091 3.496-.273a13.758 13.758 0 0 0 3.167-.928v.873c-.837 1.274-2.275 2.466-4.314 3.575-2.04 1.11-4.533 1.665-7.482 1.665-5.024 0-8.829-1.428-11.414-4.284-2.585-2.857-3.877-6.723-3.877-11.598 0-4.767 1.338-8.542 4.014-11.326 2.676-2.783 6.29-4.175 10.84-4.175 4.587 0 7.919 1.192 9.994 3.575s3.113 5.794 3.113 10.234v.764zm-13.325-13.536c-1.42 0-2.54 1-3.359 3.002-.82 2.001-1.229 5.148-1.229 9.442l8.465-.382c0-4.657-.319-7.832-.956-9.524-.637-1.692-1.61-2.538-2.921-2.538zm39.593 9.933c2.803 1.31 4.933 2.693 6.39 4.148 1.456 1.456 2.184 3.548 2.184 6.277 0 3.057-1.056 5.467-3.167 7.232-2.112 1.765-5.152 2.647-9.12 2.647a40.68 40.68 0 0 1-5.352-.355c-1.784-.236-3.405-.628-4.86-1.173l-.329-8.842h.929l7.81 9.115c.254.072.527.136.818.19.292.055.565.082.82.082 1.674 0 2.903-.418 3.686-1.255.783-.837 1.174-1.947 1.174-3.33 0-1.236-.364-2.182-1.092-2.837-.728-.655-1.948-1.383-3.66-2.183l-1.801-.82c-2.73-1.273-4.852-2.674-6.363-4.202-1.51-1.528-2.266-3.547-2.266-6.058 0-3.057 1.02-5.44 3.058-7.15 2.04-1.71 4.879-2.565 8.52-2.565 1.492 0 3.022.073 4.587.218 1.566.146 2.967.4 4.205.764l.273 8.242h-.928l-5.953-7.969a6.472 6.472 0 0 0-.983-.245 5.662 5.662 0 0 0-.928-.082c-1.457 0-2.53.382-3.222 1.146-.692.764-1.038 1.765-1.038 3.002 0 1.346.364 2.347 1.092 3.002.728.655 2.003 1.4 3.823 2.237l1.693.764zm13.325-6.877l-3.276-1.31v-.927l11.96-1.747 1.31.11v22.595c0 1.674.337 2.802 1.01 3.384.674.582 1.612.873 2.813.873.692 0 1.338-.082 1.939-.245.6-.164 1.192-.373 1.775-.628V17.192l-3.277-1.31v-.927l11.96-1.747 1.201.11v26.907l3.222 1.31v.928l-11.796 1.855-1.201-.109v-3.82h-.328a16.07 16.07 0 0 1-3.932 2.865c-1.493.782-3.167 1.173-5.024 1.173-2.84 0-4.942-.782-6.308-2.346-1.365-1.565-2.048-3.62-2.048-6.168v-18.72zm64.278 10.643c0 2.911-.373 5.422-1.12 7.532-.746 2.11-1.756 3.83-3.03 5.158a11.632 11.632 0 0 1-4.451 2.92 15.393 15.393 0 0 1-5.325.928c-1.128 0-2.139-.073-3.03-.218-.893-.146-1.557-.292-1.994-.437v9.933l3.55.764v.928h-16.657v-.928l3.113-.764V17.192l-3.277-1.31v-.927l12.07-1.747 1.146.11v3.438h.328c.765-.91 1.857-1.756 3.277-2.538 1.42-.782 3.13-1.174 5.133-1.174 1.42 0 2.758.264 4.014.792 1.256.527 2.348 1.373 3.277 2.538.928 1.164 1.656 2.692 2.184 4.584.528 1.893.792 4.185.792 6.877zm-10.43 1.092c0-4.548-.474-7.641-1.42-9.278-.947-1.638-2.258-2.457-3.933-2.457a7.68 7.68 0 0 0-1.747.191 12.54 12.54 0 0 0-1.42.41v24.124c.364.255.783.491 1.256.71.473.218 1.056.327 1.748.327 1.71 0 3.058-1.037 4.04-3.111.984-2.074 1.475-5.713 1.475-10.916zm44.344-1.092c0 2.911-.373 5.422-1.12 7.532-.746 2.11-1.756 3.83-3.03 5.158a11.632 11.632 0 0 1-4.451 2.92 15.393 15.393 0 0 1-5.325.928c-1.129 0-2.139-.073-3.03-.218-.893-.146-1.557-.292-1.994-.437v9.933l3.55.764v.928h-16.657v-.928l3.113-.764V17.192l-3.277-1.31v-.927l12.07-1.747 1.146.11v3.438h.328c.764-.91 1.857-1.756 3.277-2.538 1.42-.782 3.13-1.174 5.133-1.174 1.42 0 2.758.264 4.014.792 1.256.527 2.348 1.373 3.277 2.538.928 1.164 1.656 2.692 2.184 4.584.528 1.893.792 4.185.792 6.877zm-10.43 1.092c0-4.548-.474-7.641-1.42-9.278-.947-1.638-2.258-2.457-3.933-2.457a7.68 7.68 0 0 0-1.747.191 12.54 12.54 0 0 0-1.42.41v24.124c.364.255.783.491 1.256.71.473.218 1.056.327 1.747.327 1.712 0 3.059-1.037 4.042-3.111.983-2.074 1.474-5.713 1.474-10.916zm27.742 15.555c-2.257 0-4.333-.373-6.226-1.119-1.893-.746-3.513-1.8-4.86-3.165-1.347-1.365-2.394-3.039-3.14-5.022-.747-1.983-1.12-4.175-1.12-6.576 0-2.402.364-4.567 1.092-6.495.728-1.929 1.766-3.557 3.113-4.885 1.347-1.328 2.958-2.356 4.833-3.084 1.875-.728 3.96-1.092 6.253-1.092 2.294 0 4.387.364 6.28 1.092 1.894.728 3.514 1.756 4.861 3.084s2.394 2.965 3.14 4.912c.747 1.947 1.12 4.12 1.12 6.522s-.364 4.585-1.092 6.55c-.729 1.964-1.766 3.63-3.113 4.994-1.347 1.364-2.967 2.42-4.86 3.165-1.894.746-3.987 1.12-6.281 1.12zm0-30.455c-.765 0-1.429.21-1.993.628-.565.418-1.038 1.173-1.42 2.265-.383 1.091-.674 2.592-.874 4.502-.2 1.91-.3 4.321-.3 7.232 0 2.947.1 5.376.3 7.286.2 1.91.491 3.43.874 4.558.382 1.128.864 1.91 1.447 2.347.582.436 1.256.655 2.02.655.765 0 1.43-.228 1.994-.683.564-.454 1.028-1.237 1.392-2.347.365-1.11.647-2.628.847-4.557.2-1.928.3-4.366.3-7.313 0-2.911-.09-5.313-.273-7.205-.182-1.892-.464-3.384-.846-4.475-.382-1.092-.865-1.847-1.447-2.265-.583-.419-1.256-.628-2.021-.628zm16.875.928l12.07-1.747.982.11v8.514h.273c.765-3.239 1.775-5.54 3.031-6.905 1.256-1.364 2.722-2.046 4.396-2.046.255 0 .528.018.82.054.29.037.51.091.655.164v9.006c-.255-.073-.61-.128-1.065-.164a17.47 17.47 0 0 0-1.393-.055c-1.347 0-2.548.073-3.604.219-1.056.145-2.02.4-2.894.764v19.048l4.04.819v.927h-17.147v-.927l3.113-.82V17.193l-3.277-1.31v-.927zm27.36.873h-4.26v-.982l4.26-1.092V7.859l9.94-1.582v7.477h6.608v2.074h-6.608v19.867c0 1.528.291 2.629.874 3.302.582.673 1.692 1.01 3.33 1.01.51 0 1.011-.028 1.503-.082.491-.055.9-.119 1.228-.191v.928c-.873.91-2.03 1.737-3.467 2.483-1.439.746-3.05 1.119-4.834 1.119-2.84 0-4.978-.71-6.416-2.129-1.439-1.419-2.158-3.73-2.158-6.931V15.828zM16.165 95.423c-2.257 0-4.332-.373-6.226-1.12-1.893-.745-3.513-1.8-4.86-3.165-1.347-1.364-2.394-3.038-3.14-5.021-.747-1.983-1.12-4.175-1.12-6.577 0-2.401.364-4.566 1.092-6.495.729-1.928 1.766-3.557 3.113-4.885 1.347-1.328 2.958-2.356 4.833-3.083 1.875-.728 3.96-1.092 6.253-1.092 2.294 0 4.388.364 6.28 1.092 1.894.727 3.514 1.755 4.861 3.083 1.347 1.328 2.394 2.966 3.14 4.912.747 1.947 1.12 4.121 1.12 6.523 0 2.401-.364 4.584-1.092 6.55-.728 1.964-1.766 3.629-3.113 4.993-1.347 1.365-2.967 2.42-4.86 3.166-1.894.746-3.987 1.119-6.281 1.119zm0-30.456c-.765 0-1.429.21-1.993.628-.565.419-1.038 1.174-1.42 2.265-.382 1.092-.674 2.593-.874 4.503-.2 1.91-.3 4.32-.3 7.232 0 2.947.1 5.376.3 7.286.2 1.91.492 3.43.874 4.557.382 1.128.865 1.91 1.447 2.347.583.437 1.256.655 2.02.655.765 0 1.43-.227 1.994-.682.564-.455 1.029-1.237 1.393-2.347.364-1.11.646-2.629.846-4.557.2-1.929.3-4.367.3-7.314 0-2.91-.09-5.312-.273-7.204-.182-1.892-.464-3.384-.846-4.476-.382-1.091-.865-1.846-1.447-2.265-.583-.418-1.256-.628-2.021-.628zm30.2 27.836l3.878.873v.928h-17.04v-.928l3.168-.873V66.769H33.04v-.983l3.331-1.091v-3.057c0-1.856.319-3.43.956-4.721.637-1.292 1.493-2.347 2.567-3.166 1.074-.818 2.33-1.41 3.768-1.773a18.53 18.53 0 0 1 4.56-.546c1.274 0 2.44.036 3.495.109 1.056.073 2.294.218 3.714.437l.164 8.896h-.929l-5.297-8.405c-1.056 0-1.82.482-2.294 1.446-.473.964-.71 2.756-.71 5.376v5.404h5.516v2.074h-5.516v26.034zM21.9 146.254c-3.167 0-6.043-.382-8.628-1.146-2.585-.764-4.77-1.956-6.554-3.575-1.784-1.62-3.167-3.711-4.15-6.277-.983-2.565-1.475-5.612-1.475-9.142 0-3.784.583-6.986 1.748-9.606s2.721-4.739 4.67-6.358c1.947-1.62 4.213-2.793 6.798-3.52a29.482 29.482 0 0 1 8.028-1.092c2.512 0 4.815.155 6.909.464 2.093.31 3.704.7 4.833 1.173l.437 11.68h-.929l-8.082-11.789a4.402 4.402 0 0 0-1.448-.491 10.24 10.24 0 0 0-1.501-.11c-2.767 0-4.952 1.429-6.554 4.285-1.602 2.857-2.403 7.723-2.403 14.6 0 3.82.155 7.023.464 9.606.31 2.584.792 4.64 1.448 6.168.655 1.528 1.502 2.61 2.54 3.247 1.037.637 2.247.955 3.63.955.62 0 1.202-.073 1.748-.218.547-.146 1.002-.346 1.366-.6v-16.429l-3.605-.655v-.928H37.9v.928l-2.84.655v15.937c-1.456.583-3.358 1.101-5.706 1.556-2.349.455-4.833.682-7.455.682zm20.316-27.18l-3.277-1.31v-.928l11.96-1.747 1.31.11v22.595c0 1.674.338 2.802 1.011 3.384.674.582 1.611.873 2.813.873.691 0 1.338-.081 1.938-.245.601-.164 1.193-.373 1.775-.628v-22.104l-3.277-1.31v-.928l11.96-1.747 1.202.11v26.907l3.222 1.31v.928L61.056 146.2l-1.202-.11v-3.82h-.327a16.07 16.07 0 0 1-3.932 2.865c-1.493.783-3.168 1.174-5.025 1.174-2.84 0-4.942-.783-6.307-2.347-1.366-1.565-2.048-3.62-2.048-6.168v-18.72zm41.832 10.151l6.554-1.255v-3.984c0-3.02-.355-5.112-1.065-6.277-.71-1.164-1.902-1.746-3.577-1.746a5.488 5.488 0 0 0-1.092.109l-7.373 9.988h-.928l.218-9.279c1.42-.436 3.04-.855 4.86-1.255 1.82-.4 3.896-.6 6.226-.6 4.005 0 7.136.655 9.393 1.964 2.258 1.31 3.386 3.657 3.386 7.041v19.43l2.895.764v.765c-.583.363-1.411.682-2.485.955-1.074.273-2.23.41-3.468.41-1.966 0-3.477-.31-4.533-.929-1.056-.618-1.802-1.473-2.239-2.565h-.273a8.767 8.767 0 0 1-3.167 2.647c-1.275.637-2.84.955-4.697.955-2.403 0-4.35-.718-5.843-2.156-1.493-1.437-2.24-3.447-2.24-6.03 0-2.511.783-4.485 2.349-5.922 1.565-1.438 3.932-2.447 7.1-3.03zm4.042 13.209c.619 0 1.128-.091 1.529-.273.4-.182.728-.437.983-.764v-12.008l-2.02.164c-1.566.145-2.677.755-3.332 1.828-.656 1.074-.983 2.72-.983 4.94 0 2.401.355 4.02 1.065 4.857.71.837 1.629 1.256 2.758 1.256zm16.765-25.598l12.07-1.747.983.11v8.514h.273c.764-3.239 1.774-5.54 3.03-6.904 1.257-1.365 2.722-2.047 4.397-2.047.255 0 .528.018.819.054.291.037.51.091.655.164v9.006c-.255-.073-.61-.128-1.065-.164a17.47 17.47 0 0 0-1.392-.055c-1.347 0-2.549.073-3.605.219-1.055.145-2.02.4-2.894.764v19.048l4.041.819v.928h-17.148v-.928l3.113-.819v-24.724l-3.277-1.31v-.928zm37.41-1.801c1.2 0 2.238.09 3.112.273.874.182 1.548.4 2.02.655v-9.715l-3.276-1.147v-.927l12.07-1.747 1.146.164v40.28l3.331 1.036v.928L148.49 146.2l-.928-.11v-3.384h-.273a14.255 14.255 0 0 1-3.113 2.511c-1.202.728-2.713 1.092-4.533 1.092-3.24 0-5.925-1.256-8.055-3.766-2.13-2.511-3.195-6.295-3.195-11.353 0-5.312 1.274-9.333 3.823-12.062 2.548-2.729 5.898-4.093 10.048-4.093zm2.348 27.071c.582 0 1.12-.064 1.61-.191.492-.127.884-.282 1.175-.464v-24.178a7.65 7.65 0 0 0-1.31-.492c-.51-.145-1.148-.218-1.912-.218-1.602 0-2.886 1.037-3.85 3.111-.965 2.074-1.448 5.512-1.448 10.315 0 4.33.483 7.432 1.448 9.306.964 1.874 2.393 2.811 4.287 2.811zm25.23-39.242c1.42 0 2.658.49 3.714 1.473 1.056.983 1.584 2.202 1.584 3.657 0 1.456-.528 2.665-1.584 3.63-1.056.964-2.294 1.446-3.714 1.446-1.456 0-2.694-.482-3.713-1.446-1.02-.965-1.53-2.174-1.53-3.63 0-1.455.51-2.674 1.53-3.657 1.02-.982 2.257-1.473 3.713-1.473zm-8.082 13.972l11.96-1.747 1.365.11v28.544l3.058.874v.928h-16.165v-.928l3.113-.874v-24.67l-3.331-1.31v-.927zm27.47 12.39l6.553-1.256v-3.984c0-3.02-.355-5.112-1.065-6.277-.71-1.164-1.902-1.746-3.577-1.746a5.488 5.488 0 0 0-1.092.109l-7.373 9.988h-.928l.218-9.279c1.42-.436 3.04-.855 4.86-1.255 1.82-.4 3.896-.6 6.226-.6 4.005 0 7.136.655 9.393 1.964 2.258 1.31 3.386 3.657 3.386 7.041v19.43l2.895.764v.765c-.583.363-1.411.682-2.485.955-1.074.273-2.23.41-3.468.41-1.966 0-3.477-.31-4.533-.929-1.056-.618-1.802-1.473-2.239-2.565h-.273a8.767 8.767 0 0 1-3.167 2.647c-1.275.637-2.84.955-4.697.955-2.403 0-4.35-.718-5.843-2.156-1.493-1.437-2.24-3.447-2.24-6.03 0-2.511.783-4.485 2.349-5.922 1.565-1.438 3.932-2.447 7.1-3.03zm4.04 13.208c.62 0 1.13-.091 1.53-.273.4-.182.728-.437.983-.764v-12.008l-2.02.164c-1.566.145-2.677.755-3.332 1.828-.656 1.074-.983 2.72-.983 4.94 0 2.401.355 4.02 1.065 4.857.71.837 1.629 1.256 2.758 1.256zm16.93 2.183l3.113-.874v-24.67l-3.277-1.31v-.927l11.906-1.747 1.201.11v3.82h.328c1.274-1.31 2.821-2.32 4.642-3.03 1.82-.709 3.659-1.063 5.516-1.063 2.585 0 4.478.636 5.68 1.91 1.2 1.273 1.801 3.275 1.801 6.004v20.903l3.113.874v.928h-15.837v-.928l2.785-.71v-20.522c0-1.455-.328-2.528-.983-3.22-.655-.691-1.62-1.037-2.894-1.037-.801 0-1.52.091-2.157.273-.638.182-1.247.419-1.83.71v23.796l2.73.71v.928H210.2v-.928zm44.563-27.781l12.07-1.747.983.11v8.514h.273c.764-3.239 1.774-5.54 3.03-6.904 1.257-1.365 2.722-2.047 4.397-2.047.255 0 .528.018.819.054.291.037.51.091.655.164v9.006c-.255-.073-.61-.128-1.065-.164a17.47 17.47 0 0 0-1.392-.055c-1.347 0-2.549.073-3.605.219-1.055.145-2.02.4-2.894.764v19.048l4.041.819v.928h-17.148v-.928l3.113-.819v-24.724l-3.277-1.31v-.928zm51.663 12.717h-17.913c.182 3.675 1.01 6.577 2.485 8.705 1.475 2.129 4.105 3.193 7.892 3.193 1.237 0 2.402-.09 3.495-.273a13.758 13.758 0 0 0 3.167-.928v.874c-.837 1.273-2.275 2.465-4.314 3.575-2.039 1.11-4.533 1.664-7.482 1.664-5.024 0-8.829-1.428-11.414-4.284-2.585-2.857-3.877-6.723-3.877-11.598 0-4.767 1.338-8.542 4.014-11.325 2.676-2.784 6.29-4.176 10.84-4.176 4.588 0 7.919 1.192 9.994 3.575s3.113 5.795 3.113 10.234v.764zm-13.325-13.536c-1.42 0-2.54 1-3.359 3.002-.82 2.001-1.229 5.149-1.229 9.442l8.465-.382c0-4.657-.318-7.832-.956-9.524-.637-1.692-1.61-2.538-2.921-2.538zm25.012 13.208l6.553-1.255v-3.984c0-3.02-.355-5.112-1.065-6.277-.71-1.164-1.902-1.746-3.577-1.746a5.488 5.488 0 0 0-1.092.109l-7.373 9.988h-.928l.219-9.279c1.42-.436 3.04-.855 4.86-1.255 1.82-.4 3.896-.6 6.226-.6 4.005 0 7.136.655 9.393 1.964 2.257 1.31 3.386 3.657 3.386 7.041v19.43l2.894.764v.765c-.582.363-1.41.682-2.485.955-1.074.273-2.23.41-3.467.41-1.966 0-3.477-.31-4.533-.929-1.056-.618-1.802-1.473-2.24-2.565h-.272a8.767 8.767 0 0 1-3.168 2.647c-1.274.637-2.84.955-4.696.955-2.403 0-4.351-.718-5.844-2.156-1.493-1.437-2.239-3.447-2.239-6.03 0-2.511.783-4.485 2.348-5.922 1.566-1.438 3.932-2.447 7.1-3.03zm4.041 13.209c.62 0 1.129-.091 1.53-.273.4-.182.727-.437.982-.764v-12.008l-2.02.164c-1.566.145-2.676.755-3.332 1.828-.655 1.074-.983 2.72-.983 4.94 0 2.401.355 4.02 1.065 4.857.71.837 1.63 1.256 2.758 1.256zm31.02-27.4c1.201 0 2.239.092 3.112.274.874.182 1.548.4 2.021.655v-9.715l-3.277-1.147v-.927l12.07-1.747 1.146.164v40.28l3.332 1.036v.928l-12.179 1.365-.928-.11v-3.384h-.273a14.255 14.255 0 0 1-3.113 2.511c-1.202.728-2.712 1.092-4.533 1.092-3.24 0-5.925-1.256-8.055-3.766-2.13-2.511-3.195-6.295-3.195-11.353 0-5.312 1.274-9.333 3.823-12.062 2.549-2.729 5.898-4.093 10.049-4.093zm2.348 27.072c.582 0 1.12-.064 1.61-.191.492-.127.884-.282 1.175-.464v-24.178a7.65 7.65 0 0 0-1.31-.492c-.51-.145-1.147-.218-1.912-.218-1.602 0-2.885 1.037-3.85 3.111-.965 2.074-1.447 5.512-1.447 10.315 0 4.33.482 7.432 1.447 9.306.965 1.874 2.394 2.811 4.287 2.811zm45.382-12.553h-17.912c.182 3.675 1.01 6.577 2.484 8.705 1.475 2.129 4.105 3.193 7.892 3.193 1.238 0 2.403-.09 3.495-.273a13.758 13.758 0 0 0 3.167-.928v.874c-.837 1.273-2.275 2.465-4.314 3.575-2.039 1.11-4.533 1.664-7.482 1.664-5.024 0-8.829-1.428-11.414-4.284-2.585-2.857-3.877-6.723-3.877-11.598 0-4.767 1.338-8.542 4.014-11.325 2.676-2.784 6.29-4.176 10.84-4.176 4.588 0 7.919 1.192 9.994 3.575 2.076 2.383 3.113 5.795 3.113 10.234v.764zm-13.325-13.536c-1.42 0-2.54 1-3.359 3.002-.819 2.001-1.228 5.149-1.228 9.442l8.464-.382c0-4.657-.318-7.832-.955-9.524-.638-1.692-1.611-2.538-2.922-2.538zm15.4.819l12.07-1.747.983.11v8.514h.273c.764-3.239 1.774-5.54 3.03-6.904 1.257-1.365 2.722-2.047 4.397-2.047.255 0 .528.018.819.054.291.037.51.091.655.164v9.006c-.255-.073-.61-.128-1.065-.164a17.47 17.47 0 0 0-1.392-.055c-1.347 0-2.549.073-3.605.219-1.055.145-2.02.4-2.894.764v19.048l4.041.819v.928h-17.148v-.928l3.113-.819v-24.724l-3.277-1.31v-.928zm38.338 9.115c2.803 1.31 4.933 2.692 6.39 4.148 1.456 1.455 2.184 3.547 2.184 6.276 0 3.057-1.056 5.467-3.168 7.232-2.111 1.765-5.151 2.647-9.12 2.647a40.68 40.68 0 0 1-5.352-.355c-1.784-.236-3.404-.627-4.86-1.173l-.328-8.842h.929l7.809 9.115c.255.073.528.136.82.19.29.055.563.083.818.083 1.675 0 2.904-.419 3.687-1.256.782-.837 1.174-1.946 1.174-3.329 0-1.237-.364-2.183-1.092-2.838-.729-.655-1.948-1.383-3.66-2.183l-1.802-.819c-2.73-1.273-4.851-2.674-6.362-4.203-1.51-1.528-2.266-3.547-2.266-6.058 0-3.056 1.02-5.44 3.058-7.15 2.039-1.71 4.879-2.565 8.52-2.565 1.492 0 3.021.073 4.587.218 1.565.146 2.967.4 4.205.764l.273 8.242h-.928l-5.953-7.969a6.472 6.472 0 0 0-.983-.245 5.662 5.662 0 0 0-.929-.082c-1.456 0-2.53.382-3.222 1.146-.691.764-1.037 1.765-1.037 3.002 0 1.346.364 2.347 1.092 3.002.728.655 2.002 1.4 3.823 2.238l1.693.764z"/>
        <path fill="#FFF" d="M78.15 95.423c-2.258 0-4.333-.373-6.226-1.12-1.894-.745-3.514-1.8-4.86-3.165-1.348-1.364-2.395-3.038-3.141-5.021s-1.12-4.175-1.12-6.577c0-2.401.364-4.566 1.093-6.495.728-1.928 1.765-3.557 3.112-4.885 1.348-1.328 2.959-2.356 4.834-3.083 1.875-.728 3.959-1.092 6.253-1.092 2.293 0 4.387.364 6.28 1.092 1.893.727 3.513 1.755 4.86 3.083 1.348 1.328 2.394 2.966 3.14 4.912.747 1.947 1.12 4.121 1.12 6.523 0 2.401-.364 4.584-1.092 6.55-.728 1.964-1.766 3.629-3.113 4.993-1.347 1.365-2.967 2.42-4.86 3.166-1.894.746-3.987 1.119-6.28 1.119zm0-30.456c-.765 0-1.43.21-1.994.628-.564.419-1.038 1.174-1.42 2.265-.382 1.092-.673 2.593-.874 4.503-.2 1.91-.3 4.32-.3 7.232 0 2.947.1 5.376.3 7.286.2 1.91.492 3.43.874 4.557.382 1.128.865 1.91 1.447 2.347.583.437 1.256.655 2.02.655.765 0 1.43-.227 1.994-.682.565-.455 1.029-1.237 1.393-2.347.364-1.11.646-2.629.846-4.557.2-1.929.3-4.367.3-7.314 0-2.91-.09-5.312-.272-7.204-.182-1.892-.465-3.384-.847-4.476-.382-1.091-.865-1.846-1.447-2.265-.583-.418-1.256-.628-2.02-.628zM95.188 93.676l3.113-.873v-24.67l-3.277-1.31v-.928l11.906-1.746 1.201.109v3.82h.328c1.274-1.31 2.821-2.32 4.642-3.029 1.82-.71 3.659-1.064 5.516-1.064 2.584 0 4.478.637 5.68 1.91 1.2 1.274 1.801 3.275 1.801 6.004v20.904l3.113.873v.928h-15.837v-.928l2.785-.71V72.446c0-1.456-.328-2.529-.983-3.22-.655-.692-1.62-1.037-2.894-1.037-.801 0-1.52.09-2.158.273-.637.181-1.247.418-1.83.709v23.797l2.731.71v.927H95.188v-.928zM158.701 78.612H140.79c.182 3.675 1.01 6.577 2.485 8.706 1.474 2.128 4.105 3.193 7.891 3.193 1.238 0 2.403-.091 3.495-.273a13.758 13.758 0 0 0 3.168-.928v.873c-.838 1.274-2.276 2.465-4.315 3.575-2.038 1.11-4.532 1.665-7.481 1.665-5.025 0-8.83-1.428-11.414-4.285-2.585-2.856-3.878-6.722-3.878-11.598 0-4.767 1.338-8.542 4.014-11.325 2.676-2.784 6.29-4.175 10.84-4.175 4.588 0 7.92 1.191 9.995 3.575 2.075 2.383 3.112 5.794 3.112 10.233v.764zm-13.325-13.535c-1.42 0-2.54 1-3.358 3.001-.82 2.002-1.23 5.15-1.23 9.443l8.466-.382c0-4.658-.319-7.832-.956-9.524-.637-1.692-1.611-2.538-2.922-2.538zM170.225 93.676l3.112-.819V68.133l-3.276-1.31v-.928l11.85-1.746 1.202.109v3.93h.328c1.274-1.31 2.657-2.338 4.15-3.084 1.493-.746 3.204-1.119 5.134-1.119 1.71 0 3.112.318 4.205.955 1.092.637 1.93 1.738 2.512 3.302h.218c1.347-1.346 2.794-2.392 4.342-3.138 1.547-.746 3.286-1.119 5.215-1.119 2.44 0 4.315.646 5.625 1.938 1.31 1.291 1.966 3.302 1.966 6.03v20.904l3.168.82v.927h-15.4v-.928l2.457-.819v-20.74c0-1.346-.31-2.32-.929-2.92-.619-.6-1.547-.9-2.785-.9-.582 0-1.174.09-1.775.273-.6.182-1.137.4-1.61.655v23.632l2.457.82v.927h-14.527v-.928l2.512-.819v-20.74c0-1.346-.291-2.32-.874-2.92-.582-.6-1.51-.9-2.785-.9-.692 0-1.32.1-1.884.3-.564.2-1.083.428-1.556.682v23.578l2.403.82v.927h-15.455v-.928zM229.314 51.923c1.42 0 2.658.491 3.714 1.474 1.056.982 1.584 2.201 1.584 3.656 0 1.456-.528 2.666-1.584 3.63s-2.294 1.446-3.714 1.446c-1.456 0-2.694-.482-3.713-1.446-1.02-.964-1.53-2.174-1.53-3.63 0-1.455.51-2.674 1.53-3.656 1.02-.983 2.257-1.474 3.713-1.474zM221.232 65.895l11.96-1.746 1.365.109v28.545l3.058.873v.928H221.45v-.928l3.113-.873v-24.67l-3.331-1.31zM239.09 53.233l12.124-1.747 1.201.164v41.153l3.113.873v.928h-16.22v-.928l3.113-.873V55.416l-3.331-1.255zM256.784 53.233l12.124-1.747 1.201.164v41.153l3.113.873v.928h-16.22v-.928l3.113-.873V55.416l-3.331-1.255zM282.56 51.923c1.42 0 2.658.491 3.714 1.474 1.056.982 1.584 2.201 1.584 3.656 0 1.456-.528 2.666-1.584 3.63s-2.293 1.446-3.713 1.446c-1.457 0-2.694-.482-3.714-1.446s-1.529-2.174-1.529-3.63c0-1.455.51-2.674 1.53-3.656 1.019-.983 2.256-1.474 3.713-1.474zM274.478 65.895l11.96-1.746 1.365.109v28.545l3.059.873v.928h-16.165v-.928l3.112-.873v-24.67l-3.33-1.31zM307.791 95.423c-2.257 0-4.332-.373-6.225-1.12-1.894-.745-3.514-1.8-4.86-3.165-1.348-1.364-2.395-3.038-3.141-5.021s-1.12-4.175-1.12-6.577c0-2.401.364-4.566 1.093-6.495.728-1.928 1.765-3.557 3.112-4.885 1.348-1.328 2.959-2.356 4.834-3.083 1.875-.728 3.959-1.092 6.253-1.092 2.293 0 4.387.364 6.28 1.092 1.893.727 3.513 1.755 4.86 3.083 1.348 1.328 2.394 2.966 3.14 4.912.747 1.947 1.12 4.121 1.12 6.523 0 2.401-.364 4.584-1.092 6.55-.728 1.964-1.766 3.629-3.113 4.993-1.347 1.365-2.967 2.42-4.86 3.166-1.894.746-3.987 1.119-6.28 1.119zm0-30.456c-.764 0-1.429.21-1.993.628-.564.419-1.038 1.174-1.42 2.265-.382 1.092-.674 2.593-.874 4.503-.2 1.91-.3 4.32-.3 7.232 0 2.947.1 5.376.3 7.286.2 1.91.492 3.43.874 4.557.382 1.128.865 1.91 1.447 2.347.583.437 1.256.655 2.02.655.765 0 1.43-.227 1.994-.682.565-.455 1.029-1.237 1.393-2.347.364-1.11.646-2.629.846-4.557.2-1.929.3-4.367.3-7.314 0-2.91-.09-5.312-.272-7.204-.182-1.892-.465-3.384-.847-4.476-.382-1.091-.865-1.846-1.447-2.265-.583-.418-1.256-.628-2.02-.628zM324.83 93.676l3.113-.873v-24.67l-3.277-1.31v-.928l11.906-1.746 1.201.109v3.82h.328c1.274-1.31 2.821-2.32 4.642-3.029 1.82-.71 3.659-1.064 5.515-1.064 2.585 0 4.479.637 5.68 1.91 1.202 1.274 1.802 3.275 1.802 6.004v20.904l3.113.873v.928h-15.837v-.928l2.785-.71V72.446c0-1.456-.328-2.529-.983-3.22-.655-.692-1.62-1.037-2.894-1.037-.801 0-1.52.09-2.158.273-.637.181-1.247.418-1.83.709v23.797l2.731.71v.927H324.83v-.928z"/>
    </g>
</svg>
