<svg xmlns="http://www.w3.org/2000/svg" width="245" height="205" viewBox="0 0 245 205">
    <g fill="none" fill-rule="evenodd">
        <path fill="#000" d="M10.89 36L2.7 5.895.36 4.32v-.765h14.265v.765L11.88 5.67l5.175 20.565h.27l5.58-22.68h5.04L34.92 26.73h.315L39.96 6.48l-4.32-2.16v-.765h8.82v.765l-3.555 2.25L33.975 36h-5.04l-7.02-23.265H21.6L15.93 36h-5.04zM51.165.81c1.17 0 2.19.405 3.06 1.215.87.81 1.305 1.815 1.305 3.015 0 1.2-.435 2.197-1.305 2.993-.87.795-1.89 1.192-3.06 1.192-1.2 0-2.22-.397-3.06-1.192-.84-.796-1.26-1.793-1.26-2.993s.42-2.205 1.26-3.015c.84-.81 1.86-1.215 3.06-1.215zm-6.66 11.52l9.855-1.44 1.125.09v23.535l2.52.72V36h-13.32v-.765l2.565-.72v-20.34l-2.745-1.08v-.765zm17.73.72h-3.51v-.81l3.51-.9V6.48l8.19-1.305v6.165h5.445v1.71h-5.445v16.38c0 1.26.24 2.167.72 2.723.48.555 1.395.832 2.745.832.42 0 .832-.022 1.237-.068a9.755 9.755 0 0 0 1.013-.157v.765c-.72.75-1.672 1.432-2.858 2.047-1.185.616-2.512.923-3.982.923-2.34 0-4.102-.585-5.287-1.755-1.186-1.17-1.778-3.075-1.778-5.715V13.05zm14.85 22.185l2.565-.72V3.735l-2.7-1.08V1.89L86.715.45l1.035.135V14.13h.27c1.05-1.08 2.325-1.912 3.825-2.498a12.42 12.42 0 0 1 4.545-.877c2.13 0 3.69.525 4.68 1.575.99 1.05 1.485 2.7 1.485 4.95v17.235l2.565.72V36H92.07v-.765l2.295-.585V17.73c0-1.2-.27-2.085-.81-2.655-.54-.57-1.335-.855-2.385-.855-.66 0-1.252.075-1.778.225a8.719 8.719 0 0 0-1.507.585v19.62l2.25.585V36h-13.05v-.765zM117 13.05h-3.51v-.81l3.51-.9V6.48l8.19-1.305v6.165h5.445v1.71h-5.445v16.38c0 1.26.24 2.167.72 2.723.48.555 1.395.832 2.745.832.42 0 .832-.022 1.238-.068a9.755 9.755 0 0 0 1.012-.157v.765c-.72.75-1.672 1.432-2.857 2.047-1.186.616-2.513.923-3.983.923-2.34 0-4.102-.585-5.287-1.755-1.186-1.17-1.778-3.075-1.778-5.715V13.05zm14.85 22.185l2.565-.72V3.735l-2.7-1.08V1.89L141.48.45l1.035.135V14.13h.27c1.05-1.08 2.325-1.912 3.825-2.498a12.42 12.42 0 0 1 4.545-.877c2.13 0 3.69.525 4.68 1.575.99 1.05 1.485 2.7 1.485 4.95v17.235l2.565.72V36h-13.05v-.765l2.295-.585V17.73c0-1.2-.27-2.085-.81-2.655-.54-.57-1.335-.855-2.385-.855-.66 0-1.252.075-1.778.225a8.718 8.718 0 0 0-1.507.585v19.62l2.25.585V36h-13.05v-.765zm52.29-12.42h-14.76c.15 3.03.832 5.422 2.048 7.177 1.215 1.756 3.382 2.633 6.502 2.633 1.02 0 1.98-.075 2.88-.225.9-.15 1.77-.405 2.61-.765v.72c-.69 1.05-1.875 2.032-3.555 2.948-1.68.915-3.735 1.372-6.165 1.372-4.14 0-7.275-1.177-9.405-3.532-2.13-2.356-3.195-5.543-3.195-9.563 0-3.93 1.102-7.042 3.308-9.337 2.205-2.296 5.182-3.443 8.932-3.443 3.78 0 6.525.982 8.235 2.947 1.71 1.966 2.565 4.778 2.565 8.438v.63zm-10.98-11.16c-1.17 0-2.092.825-2.767 2.475-.676 1.65-1.013 4.245-1.013 7.785l6.975-.315c0-3.84-.262-6.457-.787-7.853-.526-1.395-1.328-2.092-2.408-2.092zM12.87 61.845c2.31 1.08 4.065 2.22 5.265 3.42 1.2 1.2 1.8 2.925 1.8 5.175 0 2.52-.87 4.507-2.61 5.963-1.74 1.455-4.245 2.182-7.515 2.182a33.5 33.5 0 0 1-4.41-.292c-1.47-.196-2.805-.518-4.005-.968l-.27-7.29h.765l6.435 7.515c.21.06.435.112.675.157.24.046.465.068.675.068 1.38 0 2.392-.345 3.037-1.035.646-.69.968-1.605.968-2.745 0-1.02-.3-1.8-.9-2.34-.6-.54-1.605-1.14-3.015-1.8L8.28 69.18c-2.25-1.05-3.997-2.205-5.242-3.465-1.246-1.26-1.868-2.925-1.868-4.995 0-2.52.84-4.485 2.52-5.895 1.68-1.41 4.02-2.115 7.02-2.115 1.23 0 2.49.06 3.78.18 1.29.12 2.445.33 3.465.63l.225 6.795h-.765l-4.905-6.57a5.33 5.33 0 0 0-.81-.203 4.663 4.663 0 0 0-.765-.067c-1.2 0-2.085.315-2.655.945-.57.63-.855 1.455-.855 2.475 0 1.11.3 1.935.9 2.475.6.54 1.65 1.155 3.15 1.845l1.395.63zm10.98-5.67l-2.7-1.08v-.765l9.855-1.44 1.08.09v18.63c0 1.38.277 2.31.832 2.79.556.48 1.328.72 2.318.72.57 0 1.102-.067 1.598-.203a10.61 10.61 0 0 0 1.462-.517V56.175l-2.7-1.08v-.765l9.855-1.44.99.09v22.185l2.655 1.08v.765l-9.72 1.53-.99-.09V75.3h-.27c-.93.93-2.01 1.717-3.24 2.362-1.23.646-2.61.968-4.14.968-2.34 0-4.072-.645-5.197-1.935-1.126-1.29-1.688-2.985-1.688-5.085V56.175zm52.965 8.775c0 2.4-.307 4.47-.922 6.21-.616 1.74-1.448 3.157-2.498 4.252a9.584 9.584 0 0 1-3.667 2.408c-1.396.51-2.858.765-4.388.765-.93 0-1.762-.06-2.498-.18-.735-.12-1.282-.24-1.642-.36v8.19l2.925.63v.765H50.4v-.765l2.565-.63v-30.06l-2.7-1.08v-.765l9.945-1.44.945.09v2.835h.27c.63-.75 1.53-1.447 2.7-2.093 1.17-.645 2.58-.967 4.23-.967 1.17 0 2.272.217 3.307.652 1.036.436 1.935 1.133 2.7 2.093.766.96 1.365 2.22 1.8 3.78.436 1.56.653 3.45.653 5.67zm-8.595.9c0-3.75-.39-6.3-1.17-7.65-.78-1.35-1.86-2.025-3.24-2.025-.51 0-.99.052-1.44.158-.45.105-.84.217-1.17.337v19.89c.3.21.645.405 1.035.585.39.18.87.27 1.44.27 1.41 0 2.52-.855 3.33-2.565s1.215-4.71 1.215-9zm36.54-.9c0 2.4-.307 4.47-.922 6.21-.616 1.74-1.448 3.157-2.498 4.252a9.584 9.584 0 0 1-3.668 2.408c-1.395.51-2.857.765-4.387.765-.93 0-1.762-.06-2.498-.18-.735-.12-1.282-.24-1.642-.36v8.19l2.925.63v.765H78.345v-.765l2.565-.63v-30.06l-2.7-1.08v-.765l9.945-1.44.945.09v2.835h.27c.63-.75 1.53-1.447 2.7-2.093 1.17-.645 2.58-.967 4.23-.967 1.17 0 2.272.217 3.308.652 1.035.436 1.934 1.133 2.7 2.093.765.96 1.364 2.22 1.8 3.78.435 1.56.652 3.45.652 5.67zm-8.595.9c0-3.75-.39-6.3-1.17-7.65-.78-1.35-1.86-2.025-3.24-2.025-.51 0-.99.052-1.44.158-.45.105-.84.217-1.17.337v19.89c.3.21.645.405 1.035.585.39.18.87.27 1.44.27 1.41 0 2.52-.855 3.33-2.565s1.215-4.71 1.215-9zm22.86 12.825c-1.86 0-3.57-.307-5.13-.922-1.56-.616-2.895-1.485-4.005-2.61-1.11-1.126-1.972-2.505-2.588-4.14-.615-1.636-.922-3.443-.922-5.423s.3-3.765.9-5.355c.6-1.59 1.455-2.932 2.565-4.028 1.11-1.095 2.437-1.942 3.983-2.542 1.545-.6 3.262-.9 5.152-.9 1.89 0 3.615.3 5.175.9 1.56.6 2.895 1.447 4.005 2.542 1.11 1.096 1.972 2.445 2.588 4.05.615 1.606.922 3.398.922 5.378s-.3 3.78-.9 5.4c-.6 1.62-1.455 2.992-2.565 4.117-1.11 1.126-2.445 1.995-4.005 2.61-1.56.616-3.285.923-5.175.923zm0-25.11c-.63 0-1.177.172-1.643.518-.465.345-.854.967-1.17 1.867-.315.9-.554 2.137-.72 3.712-.165 1.576-.247 3.563-.247 5.963 0 2.43.082 4.432.248 6.007.165 1.576.404 2.828.72 3.758.315.93.712 1.575 1.192 1.935a2.7 2.7 0 0 0 1.665.54c.63 0 1.177-.187 1.643-.563.465-.375.847-1.02 1.147-1.934.3-.916.532-2.168.698-3.758.165-1.59.247-3.6.247-6.03 0-2.4-.075-4.38-.225-5.94-.15-1.56-.382-2.79-.698-3.69-.315-.9-.712-1.522-1.192-1.867a2.779 2.779 0 0 0-1.665-.518zm13.905.765l9.945-1.44.81.09V60h.225c.63-2.67 1.462-4.567 2.498-5.693 1.035-1.125 2.242-1.687 3.622-1.687.21 0 .435.015.675.045.24.03.42.075.54.135v7.425a4.724 4.724 0 0 0-.877-.135c-.376-.03-.758-.045-1.148-.045-1.11 0-2.1.06-2.97.18-.87.12-1.665.33-2.385.63V76.56l3.33.675V78h-14.13v-.765l2.565-.675V56.175l-2.7-1.08v-.765zm22.545.72h-3.51v-.81l3.51-.9v-4.86l8.19-1.305v6.165h5.445v1.71h-5.445v16.38c0 1.26.24 2.167.72 2.722.48.556 1.395.833 2.745.833.42 0 .832-.022 1.238-.067a9.755 9.755 0 0 0 1.012-.158v.765c-.72.75-1.672 1.432-2.857 2.047-1.186.616-2.513.923-3.983.923-2.34 0-4.102-.585-5.287-1.755-1.186-1.17-1.778-3.075-1.778-5.715V55.05zm35.775 23.625c-1.86 0-3.57-.307-5.13-.922-1.56-.616-2.895-1.485-4.005-2.61-1.11-1.126-1.972-2.505-2.588-4.14-.615-1.636-.922-3.443-.922-5.423s.3-3.765.9-5.355c.6-1.59 1.455-2.932 2.565-4.028 1.11-1.095 2.437-1.942 3.983-2.542 1.545-.6 3.262-.9 5.152-.9 1.89 0 3.615.3 5.175.9 1.56.6 2.895 1.447 4.005 2.542 1.11 1.096 1.972 2.445 2.588 4.05.615 1.606.922 3.398.922 5.378s-.3 3.78-.9 5.4c-.6 1.62-1.455 2.992-2.565 4.117-1.11 1.126-2.445 1.995-4.005 2.61-1.56.616-3.285.923-5.175.923zm0-25.11c-.63 0-1.177.172-1.643.518-.465.345-.854.967-1.17 1.867-.315.9-.554 2.137-.72 3.712-.165 1.576-.247 3.563-.247 5.963 0 2.43.082 4.432.248 6.007.165 1.576.404 2.828.72 3.758.315.93.712 1.575 1.192 1.935a2.7 2.7 0 0 0 1.665.54c.63 0 1.177-.187 1.643-.563.465-.375.847-1.02 1.147-1.934.3-.916.532-2.168.697-3.758.166-1.59.248-3.6.248-6.03 0-2.4-.075-4.38-.225-5.94-.15-1.56-.382-2.79-.698-3.69-.315-.9-.712-1.522-1.192-1.867a2.779 2.779 0 0 0-1.665-.518zm24.885 22.95l3.195.72V78h-14.04v-.765l2.61-.72V55.05h-2.745v-.81l2.745-.9v-2.52c0-1.53.262-2.827.787-3.892.526-1.066 1.23-1.935 2.115-2.61.886-.676 1.92-1.163 3.106-1.463a15.26 15.26 0 0 1 3.757-.45c1.05 0 2.01.03 2.88.09.87.06 1.89.18 3.06.36l.135 7.335h-.765l-4.365-6.93c-.87 0-1.5.397-1.89 1.193-.39.795-.585 2.272-.585 4.432v4.455h4.545v1.71h-4.545v21.465zm-198.09 86.07c-2.61 0-4.98-.315-7.11-.945-2.13-.63-3.93-1.612-5.4-2.947-1.47-1.336-2.61-3.06-3.42-5.175C1.305 151.401.9 148.89.9 145.98c0-3.12.48-5.76 1.44-7.92s2.242-3.907 3.848-5.243c1.605-1.335 3.472-2.302 5.602-2.902 2.13-.6 4.335-.9 6.615-.9 2.07 0 3.967.127 5.692.383 1.726.255 3.053.577 3.983.967l.36 9.63h-.765l-6.66-9.72a3.626 3.626 0 0 0-1.192-.405 8.433 8.433 0 0 0-1.238-.09c-2.28 0-4.08 1.177-5.4 3.532-1.32 2.356-1.98 6.368-1.98 12.038 0 3.15.127 5.79.383 7.92.255 2.13.652 3.825 1.192 5.085.54 1.26 1.237 2.152 2.093 2.678.855.525 1.852.787 2.992.787.51 0 .99-.06 1.44-.18.45-.12.825-.285 1.125-.495V147.6l-2.97-.54v-.765h13.77v.765l-2.34.54v13.14c-1.2.48-2.767.907-4.703 1.282-1.935.376-3.982.563-6.142.563zm16.74-22.41l-2.7-1.08v-.765l9.855-1.44 1.08.09v18.63c0 1.38.277 2.31.832 2.79.556.48 1.328.72 2.318.72.57 0 1.102-.067 1.597-.203a10.61 10.61 0 0 0 1.463-.517v-18.225l-2.7-1.08v-.765l9.855-1.44.99.09v22.185l2.655 1.08v.765l-9.72 1.53-.99-.09v-3.15h-.27c-.93.93-2.01 1.717-3.24 2.362-1.23.646-2.61.968-4.14.968-2.34 0-4.072-.645-5.198-1.935-1.125-1.29-1.687-2.985-1.687-5.085v-15.435zm34.47 8.37l5.4-1.035v-3.285c0-2.49-.292-4.215-.877-5.175-.586-.96-1.568-1.44-2.948-1.44a4.52 4.52 0 0 0-.9.09l-6.075 8.235h-.765l.18-7.65a50.96 50.96 0 0 1 4.005-1.035c1.5-.33 3.21-.495 5.13-.495 3.3 0 5.88.54 7.74 1.62 1.86 1.08 2.79 3.015 2.79 5.805v16.02l2.385.63v.63c-.48.3-1.162.562-2.047.787a11.57 11.57 0 0 1-2.858.338c-1.62 0-2.865-.255-3.735-.765-.87-.51-1.485-1.215-1.845-2.115h-.225a7.225 7.225 0 0 1-2.61 2.182c-1.05.526-2.34.788-3.87.788-1.98 0-3.585-.592-4.815-1.778-1.23-1.185-1.845-2.842-1.845-4.972 0-2.07.645-3.697 1.935-4.883 1.29-1.185 3.24-2.017 5.85-2.497zm3.33 10.89c.51 0 .93-.075 1.26-.225.33-.15.6-.36.81-.63v-9.9l-1.665.135c-1.29.12-2.205.622-2.745 1.507-.54.886-.81 2.243-.81 4.073 0 1.98.292 3.315.877 4.005.586.69 1.343 1.035 2.273 1.035zM86.4 138.33l9.945-1.44.81.09V144h.225c.63-2.67 1.462-4.567 2.498-5.692 1.035-1.126 2.242-1.688 3.622-1.688.21 0 .435.015.675.045.24.03.42.075.54.135v7.425a4.724 4.724 0 0 0-.877-.135c-.376-.03-.758-.045-1.148-.045-1.11 0-2.1.06-2.97.18-.87.12-1.665.33-2.385.63v15.705l3.33.675V162h-14.13v-.765l2.565-.675v-20.385l-2.7-1.08v-.765zm30.825-1.485c.99 0 1.845.075 2.565.225.72.15 1.275.33 1.665.54v-8.01l-2.7-.945v-.765l9.945-1.44.945.135v33.21l2.745.855v.765l-10.035 1.125-.765-.09v-2.79h-.225c-.72.78-1.575 1.47-2.565 2.07-.99.6-2.235.9-3.735.9-2.67 0-4.882-1.035-6.638-3.105-1.755-2.07-2.632-5.19-2.632-9.36 0-4.38 1.05-7.695 3.15-9.945 2.1-2.25 4.86-3.375 8.28-3.375zm1.935 22.32c.48 0 .922-.052 1.328-.157.405-.106.727-.233.967-.383V138.69a6.3 6.3 0 0 0-1.08-.405c-.42-.12-.945-.18-1.575-.18-1.32 0-2.377.855-3.172 2.565-.796 1.71-1.193 4.545-1.193 8.505 0 3.57.397 6.127 1.192 7.672.796 1.546 1.973 2.318 3.533 2.318zm20.79-32.355c1.17 0 2.19.405 3.06 1.215.87.81 1.305 1.815 1.305 3.015 0 1.2-.435 2.197-1.305 2.993-.87.795-1.89 1.192-3.06 1.192-1.2 0-2.22-.397-3.06-1.192-.84-.796-1.26-1.793-1.26-2.993s.42-2.205 1.26-3.015c.84-.81 1.86-1.215 3.06-1.215zm-6.66 11.52l9.855-1.44 1.125.09v23.535l2.52.72V162h-13.32v-.765l2.565-.72v-20.34l-2.745-1.08v-.765zm22.635 10.215l5.4-1.035v-3.285c0-2.49-.292-4.215-.877-5.175-.586-.96-1.568-1.44-2.948-1.44a4.52 4.52 0 0 0-.9.09l-6.075 8.235h-.765l.18-7.65a50.96 50.96 0 0 1 4.005-1.035c1.5-.33 3.21-.495 5.13-.495 3.3 0 5.88.54 7.74 1.62 1.86 1.08 2.79 3.015 2.79 5.805v16.02l2.385.63v.63c-.48.3-1.162.562-2.048.787a11.57 11.57 0 0 1-2.857.338c-1.62 0-2.865-.255-3.735-.765-.87-.51-1.485-1.215-1.845-2.115h-.225a7.225 7.225 0 0 1-2.61 2.182c-1.05.526-2.34.788-3.87.788-1.98 0-3.585-.592-4.815-1.778-1.23-1.185-1.845-2.842-1.845-4.972 0-2.07.645-3.697 1.935-4.883 1.29-1.185 3.24-2.017 5.85-2.497zm3.33 10.89c.51 0 .93-.075 1.26-.225.33-.15.6-.36.81-.63v-9.9l-1.665.135c-1.29.12-2.205.622-2.745 1.507-.54.886-.81 2.243-.81 4.073 0 1.98.292 3.315.877 4.005.586.69 1.343 1.035 2.273 1.035zm13.95 1.8l2.565-.72v-20.34l-2.7-1.08v-.765l9.81-1.44.99.09v3.15h.27c1.05-1.08 2.325-1.912 3.825-2.498a12.42 12.42 0 0 1 4.545-.877c2.13 0 3.69.525 4.68 1.575.99 1.05 1.485 2.7 1.485 4.95v17.235l2.565.72V162h-13.05v-.765l2.295-.585v-16.92c0-1.2-.27-2.085-.81-2.655-.54-.57-1.335-.855-2.385-.855-.66 0-1.252.075-1.778.225a8.719 8.719 0 0 0-1.507.585v19.62l2.25.585V162h-13.05v-.765zM.585 180.33l9.945-1.44.81.09V186h.225c.63-2.67 1.462-4.567 2.498-5.692 1.035-1.126 2.242-1.688 3.622-1.688.21 0 .435.015.675.045.24.03.42.075.54.135v7.425a4.724 4.724 0 0 0-.877-.135c-.376-.03-.758-.045-1.148-.045-1.11 0-2.1.06-2.97.18-.87.12-1.665.33-2.385.63v15.705l3.33.675V204H.72v-.765l2.565-.675v-20.385l-2.7-1.08v-.765zm42.57 10.485h-14.76c.15 3.03.832 5.422 2.047 7.178 1.216 1.755 3.383 2.632 6.503 2.632 1.02 0 1.98-.075 2.88-.225.9-.15 1.77-.405 2.61-.765v.72c-.69 1.05-1.875 2.032-3.555 2.948-1.68.915-3.735 1.372-6.165 1.372-4.14 0-7.275-1.177-9.405-3.532-2.13-2.356-3.195-5.543-3.195-9.563 0-3.93 1.102-7.042 3.308-9.338 2.205-2.295 5.182-3.442 8.932-3.442 3.78 0 6.525.982 8.235 2.947 1.71 1.966 2.565 4.778 2.565 8.438v.63zm-10.98-11.16c-1.17 0-2.092.825-2.767 2.475-.676 1.65-1.013 4.245-1.013 7.785l6.975-.315c0-3.84-.262-6.457-.787-7.852-.526-1.396-1.328-2.093-2.408-2.093zm20.61 10.89l5.4-1.035v-3.285c0-2.49-.292-4.215-.878-5.175-.585-.96-1.567-1.44-2.947-1.44a4.52 4.52 0 0 0-.9.09l-6.075 8.235h-.765l.18-7.65a50.96 50.96 0 0 1 4.005-1.035c1.5-.33 3.21-.495 5.13-.495 3.3 0 5.88.54 7.74 1.62 1.86 1.08 2.79 3.015 2.79 5.805v16.02l2.385.63v.63c-.48.3-1.162.562-2.047.787a11.57 11.57 0 0 1-2.858.338c-1.62 0-2.865-.255-3.735-.765-.87-.51-1.485-1.215-1.845-2.115h-.225a7.225 7.225 0 0 1-2.61 2.182c-1.05.526-2.34.788-3.87.788-1.98 0-3.585-.592-4.815-1.778-1.23-1.185-1.845-2.842-1.845-4.972 0-2.07.645-3.697 1.935-4.883 1.29-1.185 3.24-2.017 5.85-2.497zm3.33 10.89c.51 0 .93-.075 1.26-.225.33-.15.6-.36.81-.63v-9.9l-1.665.135c-1.29.12-2.205.622-2.745 1.507-.54.886-.81 2.243-.81 4.073 0 1.98.292 3.315.877 4.005.586.69 1.343 1.035 2.273 1.035zm25.56-22.59c.99 0 1.845.075 2.565.225.72.15 1.275.33 1.665.54v-8.01l-2.7-.945v-.765l9.945-1.44.945.135v33.21l2.745.855v.765l-10.035 1.125-.765-.09v-2.79h-.225c-.72.78-1.575 1.47-2.565 2.07-.99.6-2.235.9-3.735.9-2.67 0-4.882-1.035-6.638-3.105-1.755-2.07-2.632-5.19-2.632-9.36 0-4.38 1.05-7.695 3.15-9.945 2.1-2.25 4.86-3.375 8.28-3.375zm1.935 22.32c.48 0 .922-.052 1.328-.157.405-.106.727-.233.967-.383V180.69a6.3 6.3 0 0 0-1.08-.405c-.42-.12-.945-.18-1.575-.18-1.32 0-2.377.855-3.172 2.565-.796 1.71-1.193 4.545-1.193 8.505 0 3.57.397 6.127 1.192 7.672.796 1.546 1.973 2.318 3.533 2.318zm37.395-10.35h-14.76c.15 3.03.832 5.422 2.047 7.178 1.216 1.755 3.383 2.632 6.503 2.632 1.02 0 1.98-.075 2.88-.225.9-.15 1.77-.405 2.61-.765v.72c-.69 1.05-1.875 2.032-3.555 2.948-1.68.915-3.735 1.372-6.165 1.372-4.14 0-7.275-1.177-9.405-3.532-2.13-2.356-3.195-5.543-3.195-9.563 0-3.93 1.102-7.042 3.307-9.338 2.206-2.295 5.183-3.442 8.933-3.442 3.78 0 6.525.982 8.235 2.947 1.71 1.966 2.565 4.778 2.565 8.438v.63zm-10.98-11.16c-1.17 0-2.092.825-2.768 2.475-.675 1.65-1.012 4.245-1.012 7.785l6.975-.315c0-3.84-.262-6.457-.787-7.852-.526-1.396-1.328-2.093-2.408-2.093zm12.69.675l9.945-1.44.81.09V186h.225c.63-2.67 1.462-4.567 2.498-5.692 1.035-1.126 2.242-1.688 3.622-1.688.21 0 .435.015.675.045.24.03.42.075.54.135v7.425a4.724 4.724 0 0 0-.877-.135c-.376-.03-.758-.045-1.148-.045-1.11 0-2.1.06-2.97.18-.87.12-1.665.33-2.385.63v15.705l3.33.675V204h-14.13v-.765l2.565-.675v-20.385l-2.7-1.08v-.765zm31.59 7.515c2.31 1.08 4.065 2.22 5.265 3.42 1.2 1.2 1.8 2.925 1.8 5.175 0 2.52-.87 4.507-2.61 5.963-1.74 1.455-4.245 2.182-7.515 2.182a33.5 33.5 0 0 1-4.41-.293c-1.47-.195-2.805-.517-4.005-.967l-.27-7.29h.765l6.435 7.515c.21.06.435.112.675.157.24.046.465.068.675.068 1.38 0 2.392-.345 3.037-1.035.646-.69.968-1.605.968-2.745 0-1.02-.3-1.8-.9-2.34-.6-.54-1.605-1.14-3.015-1.8l-1.485-.675c-2.25-1.05-3.997-2.205-5.243-3.465-1.245-1.26-1.867-2.925-1.867-4.995 0-2.52.84-4.485 2.52-5.895 1.68-1.41 4.02-2.115 7.02-2.115 1.23 0 2.49.06 3.78.18 1.29.12 2.445.33 3.465.63l.225 6.795h-.765l-4.905-6.57a5.33 5.33 0 0 0-.81-.203 4.663 4.663 0 0 0-.765-.067c-1.2 0-2.085.315-2.655.945-.57.63-.855 1.455-.855 2.475 0 1.11.3 1.935.9 2.475.6.54 1.65 1.155 3.15 1.845l1.395.63zm14.04 16.785c-1.35 0-2.452-.457-3.308-1.373-.855-.915-1.282-2.002-1.282-3.262 0-1.23.427-2.287 1.282-3.173.856-.885 1.958-1.327 3.308-1.327 1.38 0 2.497.442 3.352 1.327.856.886 1.283 1.943 1.283 3.173 0 1.26-.427 2.347-1.282 3.262-.856.916-1.973 1.373-3.353 1.373zm12.105 0c-1.35 0-2.452-.457-3.307-1.373-.856-.915-1.283-2.002-1.283-3.262 0-1.23.427-2.287 1.282-3.173.856-.885 1.958-1.327 3.308-1.327 1.38 0 2.497.442 3.353 1.327.855.886 1.282 1.943 1.282 3.173 0 1.26-.427 2.347-1.282 3.262-.856.916-1.973 1.373-3.353 1.373zm12.06 0c-1.35 0-2.452-.457-3.308-1.373-.855-.915-1.282-2.002-1.282-3.262 0-1.23.427-2.287 1.282-3.173.856-.885 1.958-1.327 3.308-1.327 1.38 0 2.497.442 3.353 1.327.855.886 1.282 1.943 1.282 3.173 0 1.26-.427 2.347-1.282 3.262-.856.916-1.973 1.373-3.353 1.373z"/>
        <path fill="#FFF" d="M13.32 120.675c-1.86 0-3.57-.307-5.13-.922-1.56-.616-2.895-1.485-4.005-2.61-1.11-1.126-1.972-2.505-2.587-4.14-.616-1.636-.923-3.443-.923-5.423s.3-3.765.9-5.355c.6-1.59 1.455-2.932 2.565-4.027 1.11-1.096 2.437-1.943 3.983-2.543 1.545-.6 3.262-.9 5.152-.9 1.89 0 3.615.3 5.175.9 1.56.6 2.895 1.447 4.005 2.543 1.11 1.095 1.972 2.444 2.588 4.05.615 1.605.922 3.397.922 5.377s-.3 3.78-.9 5.4c-.6 1.62-1.455 2.992-2.565 4.117-1.11 1.126-2.445 1.995-4.005 2.61-1.56.616-3.285.923-5.175.923zm0-25.11c-.63 0-1.177.172-1.643.517-.465.346-.854.968-1.17 1.868-.315.9-.554 2.137-.72 3.712-.165 1.576-.247 3.563-.247 5.963 0 2.43.082 4.432.248 6.007.165 1.576.404 2.828.72 3.758.315.93.712 1.575 1.192 1.935a2.7 2.7 0 0 0 1.665.54c.63 0 1.177-.187 1.643-.563.465-.375.847-1.02 1.147-1.934.3-.916.532-2.168.697-3.758.166-1.59.248-3.6.248-6.03 0-2.4-.075-4.38-.225-5.94-.15-1.56-.382-2.79-.698-3.69-.315-.9-.712-1.522-1.192-1.868a2.779 2.779 0 0 0-1.665-.517zm14.04 23.67l2.565-.72v-20.34l-2.7-1.08v-.765l9.81-1.44.99.09v3.15h.27c1.05-1.08 2.325-1.912 3.825-2.498a12.42 12.42 0 0 1 4.545-.877c2.13 0 3.69.525 4.68 1.575.99 1.05 1.485 2.7 1.485 4.95v17.235l2.565.72V120h-13.05v-.765l2.295-.585v-16.92c0-1.2-.27-2.085-.81-2.655-.54-.57-1.335-.855-2.385-.855-.66 0-1.252.075-1.778.225a8.719 8.719 0 0 0-1.507.585v19.62l2.25.585V120H27.36v-.765zm52.335-12.42h-14.76c.15 3.03.832 5.422 2.047 7.178 1.216 1.755 3.383 2.632 6.503 2.632 1.02 0 1.98-.075 2.88-.225.9-.15 1.77-.405 2.61-.765v.72c-.69 1.05-1.875 2.032-3.555 2.947-1.68.916-3.735 1.373-6.165 1.373-4.14 0-7.275-1.177-9.405-3.532-2.13-2.356-3.195-5.543-3.195-9.563 0-3.93 1.102-7.042 3.307-9.337 2.206-2.296 5.183-3.443 8.933-3.443 3.78 0 6.525.982 8.235 2.948 1.71 1.965 2.565 4.777 2.565 8.437v.63zm-10.98-11.16c-1.17 0-2.092.825-2.767 2.475-.676 1.65-1.013 4.245-1.013 7.785l6.975-.315c0-3.84-.262-6.457-.787-7.852-.526-1.396-1.328-2.093-2.408-2.093zm20.475 23.58l2.565-.675V98.175l-2.7-1.08v-.765l9.765-1.44.99.09v3.24h.27c1.05-1.08 2.19-1.927 3.42-2.543 1.23-.615 2.64-.922 4.23-.922 1.41 0 2.565.262 3.465.788.9.525 1.59 1.432 2.07 2.722h.18c1.11-1.11 2.302-1.972 3.578-2.588 1.275-.615 2.707-.922 4.297-.922 2.01 0 3.555.532 4.635 1.598 1.08 1.065 1.62 2.722 1.62 4.972v17.235l2.61.675V120h-12.69v-.765l2.025-.675v-17.1c0-1.11-.255-1.912-.765-2.407-.51-.496-1.275-.743-2.295-.743-.48 0-.967.075-1.462.225-.496.15-.938.33-1.328.54v19.485l2.025.675V120h-11.97v-.765l2.07-.675v-17.1c0-1.11-.24-1.912-.72-2.407-.48-.496-1.245-.743-2.295-.743-.57 0-1.087.082-1.552.248a9.17 9.17 0 0 0-1.283.562v19.44l1.98.675V120H89.19v-.765zm48.69-34.425c1.17 0 2.19.405 3.06 1.215.87.81 1.305 1.815 1.305 3.015 0 1.2-.435 2.197-1.305 2.992-.87.796-1.89 1.193-3.06 1.193-1.2 0-2.22-.397-3.06-1.192-.84-.796-1.26-1.793-1.26-2.993s.42-2.205 1.26-3.015c.84-.81 1.86-1.215 3.06-1.215zm-6.66 11.52l9.855-1.44 1.125.09v23.535l2.52.72V120H131.4v-.765l2.565-.72v-20.34l-2.745-1.08v-.765zm14.715-10.44l9.99-1.44.99.135v33.93l2.565.72V120h-13.365v-.765l2.565-.72V87.69l-2.745-1.035v-.765zm14.58 0l9.99-1.44.99.135v33.93l2.565.72V120h-13.365v-.765l2.565-.72V87.69l-2.745-1.035v-.765zm21.24-1.08c1.17 0 2.19.405 3.06 1.215.87.81 1.305 1.815 1.305 3.015 0 1.2-.435 2.197-1.305 2.992-.87.796-1.89 1.193-3.06 1.193-1.2 0-2.22-.397-3.06-1.192-.84-.796-1.26-1.793-1.26-2.993s.42-2.205 1.26-3.015c.84-.81 1.86-1.215 3.06-1.215zm-6.66 11.52l9.855-1.44 1.125.09v23.535l2.52.72V120h-13.32v-.765l2.565-.72v-20.34l-2.745-1.08v-.765zm27.45 24.345c-1.86 0-3.57-.307-5.13-.922-1.56-.616-2.895-1.485-4.005-2.61-1.11-1.126-1.972-2.505-2.588-4.14-.615-1.636-.922-3.443-.922-5.423s.3-3.765.9-5.355c.6-1.59 1.455-2.932 2.565-4.027 1.11-1.096 2.437-1.943 3.982-2.543 1.546-.6 3.263-.9 5.153-.9 1.89 0 3.615.3 5.175.9 1.56.6 2.895 1.447 4.005 2.543 1.11 1.095 1.972 2.444 2.588 4.05.615 1.605.922 3.397.922 5.377s-.3 3.78-.9 5.4c-.6 1.62-1.455 2.992-2.565 4.117-1.11 1.126-2.445 1.995-4.005 2.61-1.56.616-3.285.923-5.175.923zm0-25.11c-.63 0-1.177.172-1.642.517-.466.346-.855.968-1.17 1.868-.316.9-.555 2.137-.72 3.712-.166 1.576-.248 3.563-.248 5.963 0 2.43.082 4.432.248 6.007.165 1.576.404 2.828.72 3.758.315.93.712 1.575 1.192 1.935a2.7 2.7 0 0 0 1.665.54c.63 0 1.177-.187 1.642-.563.466-.375.848-1.02 1.148-1.934.3-.916.532-2.168.697-3.758.166-1.59.248-3.6.248-6.03 0-2.4-.075-4.38-.225-5.94-.15-1.56-.382-2.79-.697-3.69-.316-.9-.713-1.522-1.193-1.868a2.779 2.779 0 0 0-1.665-.517zm14.04 23.67l2.565-.72v-20.34l-2.7-1.08v-.765l9.81-1.44.99.09v3.15h.27c1.05-1.08 2.325-1.912 3.825-2.498a12.42 12.42 0 0 1 4.545-.877c2.13 0 3.69.525 4.68 1.575.99 1.05 1.485 2.7 1.485 4.95v17.235l2.565.72V120h-13.05v-.765l2.295-.585v-16.92c0-1.2-.27-2.085-.81-2.655-.54-.57-1.335-.855-2.385-.855-.66 0-1.252.075-1.777.225a8.718 8.718 0 0 0-1.508.585v19.62l2.25.585V120h-13.05v-.765z"/>
    </g>
</svg>
