<svg id="Layer_2" xmlns="http://www.w3.org/2000/svg" xmlns:xlink="http://www.w3.org/1999/xlink" x="0px" y="0px" width="480px" height="480px" viewBox="0 0 480 480" enable-background="new 0 0 480 480"><g><defs><circle id="SVGID_1_" cx="240" cy="240" r="240"/></defs><clipPath id="SVGID_2_"><use xlink:href="#SVGID_1_" overflow="visible"/></clipPath><g clip-path="url(#SVGID_2_)"><defs><path id="SVGID_3_" d="M-13.994 -34.598H534.367V482.57800000000003H-13.994z"/></defs><clipPath id="SVGID_4_"><use xlink:href="#SVGID_3_" overflow="visible"/></clipPath><g clip-path="url(#SVGID_4_)"><defs><path id="SVGID_5_" d="M-13.994 -4.711H473.294V482.578H-13.994z"/></defs><clipPath id="SVGID_6_"><use xlink:href="#SVGID_5_" overflow="visible"/></clipPath><g opacity="0.95" clip-path="url(#SVGID_6_)" enable-background="new    "><g><defs><path id="SVGID_7_" d="M299.821 39.848H318.889V109.366H299.821z"/></defs><clipPath id="SVGID_8_"><use xlink:href="#SVGID_7_" overflow="visible"/></clipPath></g></g><g opacity="0.7" clip-path="url(#SVGID_6_)" enable-background="new    "><g><defs><path id="SVGID_9_" d="M270.811 21.653H300.64799999999997V131.789H270.811z"/></defs><clipPath id="SVGID_10_"><use xlink:href="#SVGID_9_" overflow="visible"/></clipPath></g></g></g><path clip-path="url(#SVGID_4_)" fill="#00B2FF" d="M-13.994 -30.699H534.367V482.57800000000003H-13.994z"/><g clip-path="url(#SVGID_4_)"><defs><path id="SVGID_11_" d="M-13.994 -4.711H473.294V482.578H-13.994z"/></defs><clipPath id="SVGID_12_"><use xlink:href="#SVGID_11_" overflow="visible"/></clipPath><path clip-path="url(#SVGID_12_)" fill="none" stroke="#121212" stroke-width="3.8983" stroke-linecap="round" stroke-linejoin="round" stroke-miterlimit="10" stroke-dasharray="0,12.9944" d="
				M133.652,82.978c10.869,169.745,131.214,161.979,215.172,105.864"/><path clip-path="url(#SVGID_12_)" fill="#F6F6F6" d="M132.21,84.396c-5.568,0-10.554-2.879-13.338-7.7
				c-2.743-4.75-2.743-10.651,0-15.401c2.784-4.822,7.77-7.701,13.338-7.701c5.568,0,10.554,2.879,13.338,7.701
				c2.742,4.75,2.742,10.651,0,15.4C142.764,81.518,137.778,84.396,132.21,84.396"/><path clip-path="url(#SVGID_12_)" fill="#121212" d="M132.21,55.543c4.863,0,9.218,2.515,11.65,6.727
				c2.395,4.148,2.395,9.303,0,13.452c-2.432,4.212-6.787,6.726-11.65,6.726c-4.863,0-9.218-2.514-11.65-6.726
				c-2.396-4.149-2.396-9.304,0-13.452C122.992,58.058,127.347,55.543,132.21,55.543 M132.21,51.645
				c-5.844,0-11.687,2.893-15.026,8.676c-3.1,5.368-3.1,11.982,0,17.351c3.339,5.783,9.182,8.675,15.026,8.675
				c5.843,0,11.687-2.892,15.025-8.675c3.1-5.368,3.1-11.982,0-17.351C143.897,54.537,138.054,51.645,132.21,51.645"/></g><g clip-path="url(#SVGID_4_)"><defs><path id="SVGID_13_" d="M-13.994 -4.711H473.294V482.578H-13.994z"/></defs><clipPath id="SVGID_14_"><use xlink:href="#SVGID_13_" overflow="visible"/></clipPath><path clip-path="url(#SVGID_14_)" fill="#121212" d="M-114.002 326.941L-113.664 326.344 -117.298 324.285 549.571 -60.732 549.228 -61.327 -118.681 324.291z"/><path transform="rotate(150 215.707 131.631)" clip-path="url(#SVGID_14_)" fill="#121212" d="M-169.612 131.285H601.023V131.972H-169.612z"/><path clip-path="url(#SVGID_14_)" fill="#121212" d="M-122.564 169.697l-.006-.205L170.672.189l.045 157.611v.197l-13.04 7.529V22.749l-263.083 151.892.113 142.713-13.024 7.52L-122.564 169.697zM-106.093 174.244L158.364 21.561v142.778l11.667-6.736L169.986 1.378l-291.859 168.505 4.21 153.819 11.683-6.745L-106.093 174.244zM-37.566 448.434L417.787 185.535 269.436 100.401 269.106 101.003 416.387 185.551-37.909 447.838z"/></g><g clip-path="url(#SVGID_4_)"><defs><path id="SVGID_15_" d="M170.031 157.603L170.031 157.603 158.364 164.338 157.678 164.734 157.678 165.527 158.293 165.172 170.718 157.998 170.718 157.801 170.717 157.206z"/></defs><clipPath id="SVGID_16_"><use xlink:href="#SVGID_15_" overflow="visible"/></clipPath><g clip-path="url(#SVGID_16_)"><defs><path id="SVGID_17_" d="M-37.566 448.434L417.787 185.535 269.436 100.401 269.106 101.004 416.387 185.551 -37.909 447.838z"/></defs><clipPath id="SVGID_18_"><use xlink:href="#SVGID_17_" overflow="visible"/></clipPath><path clip-path="url(#SVGID_18_)" fill="#121212" d="M8.512 -4.711H495.8V482.578H8.512z"/></g></g><g clip-path="url(#SVGID_4_)"><defs><path id="SVGID_19_" d="M-13.994 -4.711H473.294V482.578H-13.994z"/></defs><clipPath id="SVGID_20_"><use xlink:href="#SVGID_19_" overflow="visible"/></clipPath><path clip-path="url(#SVGID_20_)" fill="#121212" d="M428.134,358.609l9.317,5.379c4.141,2.391,4.141,8.367,0,10.758
				l-15.528,8.965c-1.922,1.109-4.29,1.109-6.211,0l-15.528-8.965L428.134,358.609z"/><path clip-path="url(#SVGID_20_)" fill="#DCDCDC" d="M297.699 326.334L297.699 358.609 269.749 342.473 269.749 310.197zM428.134 326.334L390.867 304.818 362.915 320.955 400.184 342.472z"/><path clip-path="url(#SVGID_20_)" fill="#EF4736" d="M428.134 326.334L418.817 320.955 390.867 337.092 400.184 342.472z"/><path clip-path="url(#SVGID_20_)" fill="#F64D36" d="M428.134 358.609L428.134 326.334 400.184 342.472 400.184 374.746z"/><path clip-path="url(#SVGID_20_)" fill="#121212" d="M251.115 320.955L232.481 331.713 223.165 304.818z"/><path clip-path="url(#SVGID_20_)" fill="#AA7D6A" d="M307.016,371.16v-17.93l27.95-16.139v43.033c0,4.781-5.176,7.77-9.317,5.379
				l-15.528-8.965C308.2,375.43,307.016,373.379,307.016,371.16"/><path clip-path="url(#SVGID_20_)" fill="#DCDCDC" d="M334.966 326.334L334.966 358.609 307.016 342.472 307.016 310.197z"/><path clip-path="url(#SVGID_20_)" fill="#F6F6F6" d="M362.917 256.406L269.749 310.197 297.699 326.334 390.871 272.542z"/><path clip-path="url(#SVGID_20_)" fill="#DCDCDC" d="M362.917 224.133L362.917 256.406 390.871 272.542 390.787 240.223z"/><path clip-path="url(#SVGID_20_)" fill="#F64D36" d="M362.917 170.342L362.917 224.133 390.787 240.224 390.867 186.479z"/><path clip-path="url(#SVGID_20_)" fill="#121212" d="M390.867,186.479l-27.951-16.137l-9.317,5.379
				c-4.141,2.391-4.141,8.368,0,10.758l15.528,8.966c1.922,1.109,4.29,1.109,6.211,0L390.867,186.479z"/><path clip-path="url(#SVGID_20_)" fill="#AA7D6A" d="M254.221,301.232l15.528,8.965l-18.634,10.758l-18.634-10.758l15.528-8.965
				C249.931,300.123,252.299,300.123,254.221,301.232"/><path clip-path="url(#SVGID_20_)" fill="#F6F6F6" d="M390.867 304.818L297.699 358.609 297.699 326.334 390.871 272.542M362.917 256.406L334.962 272.547 362.917 288.68 390.871 272.542z"/><path clip-path="url(#SVGID_20_)" fill="#F6F6F6" d="M390.869 272.542L362.915 288.68 362.915 320.955 390.869 304.814z"/><path clip-path="url(#SVGID_20_)" fill="#AA7D6A" d="M269.749,342.473v60.961c0,2.22,1.184,4.27,3.105,5.379l15.532,8.969
				c4.14,2.39,9.315-0.598,9.316-5.377l0.021-53.78L269.749,342.473z"/></g></g></g></svg>