<svg xmlns="http://www.w3.org/2000/svg" width="162" height="16" viewBox="0 0 162 16"><path d="M.469 1.767h2.248v14.028H.469zm3.372.793H6.09v13.235H3.841zM7.214.676h2.248v15.12H7.214zm3.372.595h2.249v14.523h-2.249zM13.959.43h2.248v15.365h-2.248zm3.373.643h2.248v14.722h-2.248zm3.372.644h2.249v14.078h-2.249zm3.373.644h2.248v13.433h-2.248zm3.372.793h2.249v12.64h-2.249zm3.373.694h2.248v11.946h-2.248zm3.373 1.092h2.248v10.855h-2.248zm3.372-.1h2.249v10.954h-2.249zm3.373-2.18h2.248v13.135H40.94zm3.372.544h2.249v12.591h-2.249zm3.373.546h2.248v12.045h-2.248zm3.373.247h2.248v11.798h-2.248zm3.372.099h2.249v11.698H54.43zm3.373.545h2.248v11.153h-2.248zm3.374.546h2.248v10.608h-2.248zm3.372.595h2.249v10.013h-2.249zm3.373.049h2.248v9.963h-2.248zm3.372-.198h2.249v10.162h-2.249zm3.373.545h2.248v9.617h-2.248zm3.373.595h2.248v9.022H78.04zm3.372.397h2.249v8.625h-2.249zm3.373-5.453h2.248v14.078h-2.248zm3.372.893h2.249v13.184h-2.249zm3.373.247h2.248v12.938H91.53zm3.373-.446h2.248v13.384h-2.248zM98.275.874h2.249v14.92h-2.249zm3.373.447h2.248v14.474h-2.248zm3.372.495h2.249v13.978h-2.249zm3.373.595h2.248v13.384h-2.248zm3.373.645h2.248v12.74h-2.248zm3.372.247h2.249v12.491h-2.249zm3.373-3.569h2.248v16.06h-2.248zm3.373.397h2.249v15.664h-2.249zm3.373-.298h2.248v15.961h-2.248zm3.373.794h2.248v15.168h-2.248zm3.372.544h2.249v14.623h-2.249zm3.373.893h2.248v13.731h-2.248zm3.372-.743h2.249v14.474h-2.249zm3.373-1.587h2.248v16.06h-2.248zm3.373-.297h2.248v16.358h-2.248zm3.372.545h2.249v15.813h-2.249zm3.373-.892h2.248v16.704h-2.248zm3.372.545h2.249v16.16h-2.249zm3.373-.198h2.248v16.358h-2.248z" fill="#999"/></svg>
