<svg width="179" height="18" viewBox="0 0 179 18" xmlns="http://www.w3.org/2000/svg"><path d="M.469 1.988h2.248V17.77H.469zm3.372.893H6.09v14.89H3.841zM7.214.76h2.248V17.77H7.214zm3.372.67h2.249V17.77h-2.249zm3.373-.948h2.248V17.77h-2.248zm3.373.725h2.248V17.77h-2.248zm3.372.724h2.249V17.77h-2.249zm3.373.725h2.248V17.77h-2.248zm3.372.892h2.249v14.22h-2.249zm3.373.781h2.248v13.44h-2.248zm3.373 1.227h2.248V17.77h-2.248zm3.372-.112h2.249V17.77h-2.249zm3.373-2.453h2.248V17.77H40.94zm3.372.613h2.249V17.77h-2.249zm3.373.614h2.248v13.55h-2.248zm3.373.278h2.248V17.77h-2.248zm3.372.112h2.249v13.16H54.43zm3.373.614h2.248V17.77h-2.248zm3.374.613h2.248V17.77h-2.248zm3.372.67h2.249V17.77h-2.249zm3.373.055h2.248V17.77h-2.248zm3.372-.223h2.249V17.77h-2.249zm3.373.613h2.248v10.82h-2.248zm3.373.67h2.248V17.77H78.04zm3.372.446h2.249v9.703h-2.249zm3.373-6.135h2.248V17.77h-2.248zm3.372 1.004h2.249V17.77h-2.249zm3.373.279h2.248V17.77H91.53zm3.373-.502h2.248V17.77h-2.248zM98.275.984h2.249V17.77h-2.249zm3.373.502h2.248V17.77h-2.248zm3.372.558h2.249V17.77h-2.249zm3.373.67h2.248V17.77h-2.248zm3.373.724h2.248V17.77h-2.248zm3.372.28h2.249V17.77h-2.249zm3.373-4.016h2.248V17.77h-2.248zm3.373.446h2.249V17.77h-2.249zm3.373-.335h2.248V17.77h-2.248zm3.373.893h2.248V17.77h-2.248zm3.372.613h2.249v16.45h-2.249zm3.373 1.004h2.248V17.77h-2.248zm3.372-.837h2.249V17.77h-2.249zm3.373-1.784h2.248V17.77h-2.248zm3.373-.335h2.248V17.77h-2.248zm3.372.613h2.249v17.79h-2.249zm3.373-1.003h2.248V17.77h-2.248zm3.372.614h2.249V17.77h-2.249zm3.373-.224h2.248V17.77h-2.248zm3.373.781h2.248V17.77h-2.248zm3.372.613h2.249V17.77h-2.249zm3.373 1.004h2.248V17.77h-2.248zm3.373.67h2.248V17.77h-2.248zm3.372 1.45h2.249V17.77h-2.249z" fill="#999" fill-rule="nonzero"/></svg>
