<svg xmlns="http://www.w3.org/2000/svg" width="162" height="16" viewBox="0 0 162 16">
    <g fill="#999" fill-rule="nonzero">
        <path d="M.469 1.767h2.248v14.028H.469zM3.841 2.56H6.09v13.235H3.841zM7.214.676h2.248v15.12H7.214zM10.586 1.271h2.249v14.523h-2.249zM13.959.43h2.248v15.365h-2.248zM17.332 1.073h2.248v14.722h-2.248zM20.704 1.717h2.249v14.078h-2.249zM24.077 2.361h2.248v13.433h-2.248zM27.449 3.154h2.249v12.64h-2.249zM30.822 3.848h2.248v11.946h-2.248zM34.195 4.94h2.248v10.855h-2.248zM37.567 4.84h2.249v10.954h-2.249zM40.94 2.66h2.248v13.135H40.94zM44.312 3.204h2.249v12.591h-2.249zM47.685 3.75h2.248v12.045h-2.248zM51.058 3.997h2.248v11.798h-2.248zM54.43 4.096h2.249v11.698H54.43zM57.803 4.641h2.248v11.153h-2.248zM61.177 5.187h2.248v10.608h-2.248zM64.549 5.782h2.249v10.013h-2.249zM67.922 5.831h2.248v9.963h-2.248zM71.294 5.633h2.249v10.162h-2.249zM74.667 6.178h2.248v9.617h-2.248zM78.04 6.773h2.248v9.022H78.04zM81.412 7.17h2.249v8.625h-2.249zM84.785 1.717h2.248v14.078h-2.248zM88.157 2.61h2.249v13.184h-2.249zM91.53 2.857h2.248v12.938H91.53zM94.903 2.411h2.248v13.384h-2.248zM98.275.874h2.249v14.92h-2.249zM101.648 1.321h2.248v14.474h-2.248zM105.02 1.816h2.249v13.978h-2.249zM108.393 2.411h2.248v13.384h-2.248zM111.766 3.056h2.248v12.74h-2.248zM115.138 3.303h2.249v12.491h-2.249zM118.511-.266h2.248v16.06h-2.248zM121.884.131h2.249v15.664h-2.249zM125.257-.167h2.248v15.961h-2.248zM128.63.627h2.248v15.168h-2.248zM132.002 1.171h2.249v14.623h-2.249zM135.375 2.064h2.248v13.731h-2.248zM138.747 1.321h2.249v14.474h-2.249zM142.12-.266h2.248v16.06h-2.248zM145.493-.563h2.248v16.358h-2.248zM148.865-.018h2.249v15.813h-2.249zM152.238-.91h2.248v16.704h-2.248zM155.61-.365h2.249v16.16h-2.249zM158.983-.563h2.248v16.358h-2.248z"/>
    </g>
</svg>
