<svg xmlns="http://www.w3.org/2000/svg" width="100" height="18" viewBox="0 0 100 18"><path d="M.469 1.988h2.248v15.78H.469zm3.372.892H6.09v14.89H3.841zM7.214.76h2.248v17.01H7.214zm3.372.67h2.249v16.34h-2.249zm3.373-.947h2.248V17.77h-2.248zm3.373.725h2.248V17.77h-2.248zm3.372.724h2.249v15.837h-2.249zm3.373.725h2.248V17.77h-2.248zm3.372.892h2.249v14.22h-2.249zm3.373.781h2.248v13.439h-2.248zm3.373 1.227h2.248V17.77h-2.248zm3.372-.112h2.249v12.324h-2.249zm3.373-2.453h2.248V17.77H40.94zm3.372.613h2.249V17.77h-2.249zm3.373.614h2.248v13.55h-2.248zm3.373.278h2.248v13.272h-2.248zm3.372.112h2.249v13.16H54.43zm3.373.614h2.248V17.77h-2.248zm3.374.613h2.248V17.77h-2.248zm3.372.669h2.249v11.264h-2.249zm3.373.055h2.248v11.21h-2.248zm3.372-.222h2.249V17.77h-2.249zm3.373.612h2.248v10.82h-2.248zm3.373.67h2.248v10.149H78.04zm3.372.447h2.249v9.703h-2.249zm3.373-6.135h2.248v15.837h-2.248zm3.372 1.004h2.249v14.833h-2.249zm3.373.279h2.248V17.77H91.53zm3.373-.502h2.248V17.77h-2.248zM98.275.984h2.249v16.785h-2.249z" fill="#999"/></svg>
