<svg width="179px" height="18px" viewBox="0 0 179 18" xmlns="http://www.w3.org/2000/svg"><title>wave</title><g id="Complete" fill="none" fill-rule="evenodd"><g id="3.0-Treat-WorldCup-Tablet" transform="translate(-188 -516)" fill="#999999" fill-rule="nonzero"><g id="wave" transform="translate(188 516)"><g id="waveform" transform="translate(-41 -2.833)"><path id="Rectangle-path" d="M41.469 4.82142857H43.717V20.602678570000002H41.469zM44.841 5.71378968H47.09V20.60317458H44.841zM48.214 3.59424603H50.461999999999996V20.602678530000002H48.214zM51.586 4.26388889H53.835V20.60267859H51.586zM54.959 3.31597222H57.207V20.60317462H54.959zM58.332 4.0406746H60.58V20.6031746H58.332zM61.704 4.76537698H63.953V20.60267858H61.704zM65.077 5.49007937H67.325V20.602678570000002H65.077zM68.449 6.38244048H70.698V20.60267858H68.449zM71.822 7.16319444H74.07000000000001V20.60267854H71.822zM75.195 8.38988095H77.443V20.60267855H75.195zM78.567 8.27827381H80.81599999999999V20.602678609999998H78.567zM81.94 5.82490079H84.188V20.60267859H81.94zM85.312 6.43799603H87.56099999999999V20.60267853H85.312zM88.685 7.05208333H90.933V20.60267853H88.685zM92.058 7.33035714H94.30600000000001V20.60267854H92.058zM95.43 7.44196429H97.679V20.60267859H95.43zM98.803 8.05555556H101.051V20.60267856H98.803zM102.177 8.66914683H104.42500000000001V20.60317463H102.177zM105.549 9.33829365H107.798V20.60267855H105.549zM108.922 9.39384921H111.17V20.60267861H108.922zM112.294 9.17063492H114.54299999999999V20.60267862H112.294zM115.667 9.78422619H117.915V20.603174590000002H115.667zM119.04 10.453373H121.28800000000001V20.602678599999997H119.04zM122.412 10.8998016H124.661V20.60317462H122.412zM125.785 4.76537698H128.033V20.60267858H125.785zM129.157 5.76934524H131.406V20.60267854H129.157zM132.53 6.04761905H134.778V20.60267855H132.53zM135.903 5.54613095H138.15099999999998V20.60267855H135.903zM139.275 3.81746032H141.524V20.60267862H139.275zM142.648 4.31944444H144.896V20.60267854H142.648zM146.02 4.87698413H148.269V20.60267853H146.02zM149.393 5.54613095H151.641V20.60267855H149.393zM152.766 6.27132937H155.01399999999998V20.60317457H152.766zM156.138 6.55009921H158.387V20.60267861H156.138zM159.511 2.53472222H161.759V20.602678519999998H159.511zM162.884 2.98115079H165.13299999999998V20.60267859H162.884zM166.257 2.64632937H168.505V20.60267857H166.257zM169.63 3.53869048H171.878V20.60267858H169.63zM173.002 4.15178571H175.251V20.602678609999998H173.002zM176.375 5.15625H178.623V20.6031746H176.375zM179.747 4.31944444H181.996V20.60267854H179.747zM183.12 2.53472222H185.368V20.602678519999998H183.12zM186.493 2.20039683H188.74099999999999V20.603174629999998H186.493zM189.865 2.81349206H192.114V20.60267856H189.865zM193.238 1.80952381H195.486V20.602678609999998H193.238zM196.61 2.42361111H198.859V20.602678609999998H196.61zM199.983 2.20039683H202.231V20.603174629999998H199.983zM203.356 2.98115079H205.60399999999998V20.60267859H203.356zM206.728 3.59424603H208.977V20.602678530000002H206.728zM210.101 4.59821429H212.349V20.603174590000002H210.101zM213.474 5.26736111H215.72199999999998V20.60267861H213.474zM216.846 6.7172619H219.095V20.6026786H216.846z"/></g></g></g></g></svg>