<?xml version="1.0" standalone="no"?> <!DOCTYPE svg PUBLIC "-//W3C//DTD SVG 1.0//EN" "http://www.w3.org/TR/2001/REC-SVG-20010904/DTD/svg10.dtd" > <svg xmlns="http://www.w3.org/2000/svg" width="100%" height="100%">
<defs >
<font id="GuardianEgyptianWeb-SemiboldItalic" horiz-adv-x="537" ><font-face
    font-family="GuardianEgyptianWeb"
    units-per-em="1000"
    panose-1="2 6 7 3 5 5 3 13 8 3"
    ascent="790"
    descent="-210"
    alphabetic="0" />
<missing-glyph horiz-adv-x="500" />
<glyph unicode=" " glyph-name="space" horiz-adv-x="179" />
<glyph unicode="!" glyph-name="exclam" horiz-adv-x="267" d="M84 -12Q48 -12 28 10T7 58Q7 96 33 120T95 145Q131 145 151 123T171 75Q171 37 146 13T84 -12ZM161 693H328L170 209H71L161 693Z" />
<glyph unicode="&quot;" glyph-name="quotedbl" horiz-adv-x="423" d="M305 693L223 471H126L160 693H305ZM491 693L408 471H311L346 693H491Z" />
<glyph unicode="#" glyph-name="numbersign" horiz-adv-x="526" d="M118 525H209L263 693H349L295 525H395L449 693H535L481 525H564L532 399H441L411 305H493L462 179H370L313 0H227L284 179H184L127 0H41L98 179H16L47 305H138L168 399H86L118 525ZM225 305H324L354
399H255L225 305Z" />
<glyph unicode="$" glyph-name="dollar" horiz-adv-x="547" d="M127 -5Q79 0 42 10T-20 33L13 192H107L114 105Q133 94 162 88L240 299L213 312Q153 338 123 376T93 479Q93 522 110 562T162 634T249 685T373 704H389L412 765H491L466 698Q506 693 535 685T583
668L561 524H469L462 594Q450 601 432 605L360 413L381 403Q447 376 482 339T517 236Q517 186 496 142T436 64T339 10T211 -10H204L165 -117H86L127 -5ZM362 193Q362 218 349 234T306 267L239 84Q297 89 329 118T362 193ZM239 516Q239 490 251 474T293 444L356
613Q299 611 269 585T239 516Z" />
<glyph unicode="%" glyph-name="percent" horiz-adv-x="888" d="M240 379Q255 379 266 386T289 408Q298 421 307 442T323 488T334 538T338 585Q338 609 329 622T297 636Q271 636 250 607Q240 594 231 572T214 524T202 475T197 432Q197 408 207 394T240 379ZM642
57Q670 57 691 86Q700 99 709 120T725 166T736 216T741 263Q741 287 731 300T699 314Q685 314 674 307T652 285Q642 272 633 250T616 202T604 153T599 110Q599 86 609 72T642 57ZM233 310Q200 310 172 319T122 347T89 393T77 456Q77 511 97 557T150 636T222 687T304
705Q338 705 366 696T416 669T448 624T460 561Q460 505 440 459T388 380T315 329T233 310ZM728 713H823L199 -40H104L728 713ZM636 -12Q602 -12 574 -3T524 25T491 71T479 134Q479 189 499 235T552 314T625 365T706 383Q740 383 768 374T818 347T850 302T862 239Q862
183 843 137T791 58T719 7T636 -12Z" />
<glyph unicode="&amp;" glyph-name="ampersand" horiz-adv-x="715" d="M230 -12Q176 -12 135 0T67 35T25 88T10 156Q10 200 24 235T64 299T126 350T206 389Q191 418 183 445T174 500Q174 545 192 582T241 647T315 690T407 705Q451 705 484 695T538 667T571 625T582
574Q582 538 569 509T531 456T472 413T394 377L502 213Q518 234 530 256T554 301L507 316L526 392H737L718 316L661 301Q640 259 612 219T549 143L578 99L651 80L631 0H456L427 45Q382 18 333 3T230 -12ZM283 85Q337 85 385 110L249 320Q249 320 247 322Q206 291
191 255T176 181Q176 142 201 114T283 85ZM325 517Q325 494 333 474T356 433Q407 458 427 492T447 564Q447 588 435 602T401 617Q367 617 346 588T325 517Z" />
<glyph unicode="&apos;" glyph-name="quotesingle" horiz-adv-x="238" d="M305 693L223 471H126L160 693H305Z" />
<glyph unicode="(" glyph-name="parenleft" horiz-adv-x="344" d="M180 -146Q153 -117 127 -82T79 -5T45 87T32 196Q32 294 64 378T149 533T268 657T400 751L444 698Q382 646 333 588T248 462T194 319T175 156Q175 78 194 16T244 -101L180 -146V-146Z" />
<glyph unicode=")" glyph-name="parenright" horiz-adv-x="344" d="M193 750Q220 721 246 686T293 609T327 517T340 408Q340 310 308 226T223 71T104 -53T-28 -147L-72 -94Q-10 -42 40 16T125 142T179 285T198 448Q198 526 179 588T129 705L193 750V750Z" />
<glyph unicode="*" glyph-name="asterisk" horiz-adv-x="390" d="M230 487L120 413L90 507L213 532L107 575L180 662L251 573L249 693H361L301 570L413 644L442 550L319 524L426 482L352 395L281 483L282 365H171L230 487Z" />
<glyph unicode="+" glyph-name="plus" horiz-adv-x="536" d="M72 390H238V564H343V390H509V290H343V116H238V290H72V390Z" />
<glyph unicode="," glyph-name="comma" horiz-adv-x="245" d="M-42 -88Q-21 -34 -5 20T26 142H177Q163 76 134 18T62 -88H-42V-88Z" />
<glyph unicode="-" glyph-name="hyphen" horiz-adv-x="321" d="M60 344H310L281 226H31L60 344Z" />
<glyph unicode="." glyph-name="period" horiz-adv-x="246" d="M74 -14Q36 -14 15 9T-7 61Q-7 103 19 128T84 154Q122 154 144 131T166 79Q166 38 139 12T74 -14Z" />
<glyph unicode="/" glyph-name="slash" horiz-adv-x="368" d="M356 733H470L22 -120H-92L356 733Z" />
<glyph unicode="0" glyph-name="zero" horiz-adv-x="648" d="M285 85Q313 85 341 99T395 155Q414 183 431 225T462 314T484 409T493 498Q493 549 474 578T411 607Q348 607 301 532Q282 502 265 461T235 373T213 281T205 195Q205 142 224 114T285 85ZM265 -13Q214
-13 172 2T99 48T53 122T36 226Q36 323 66 410T149 562T274 666T431 705Q537 705 600 643T663 466Q663 370 633 283T550 131T423 26T265 -13Z" />
<glyph unicode="1" glyph-name="one" horiz-adv-x="408" d="M-7 80L89 97L199 541L90 530L110 611L335 700H410L260 97L345 80L325 0H-27L-7 80Z" />
<glyph unicode="2" glyph-name="two" horiz-adv-x="524" d="M156 119V117H469L431 0H-42L-19 90L181 248Q232 288 269 322T331 388T368 451T381 515Q381 555 361 578T298 601Q281 601 266 596T239 583L218 501H123Q110 512 103 528T95 561Q95 589 111 615T159
660T237 692T344 704Q444 704 501 659T560 538Q560 491 543 449T489 365T399 281T271 193L156 119Z" />
<glyph unicode="3" glyph-name="three" horiz-adv-x="523" d="M187 -10Q144 -10 111 -5T51 9T6 27T-27 47L-5 136Q24 124 61 113T148 102Q226 102 267 135T309 231Q309 272 282 290T202 309H144L167 406H222Q294 406 331 438T369 530Q369 564 348 585T285 607Q265
607 253 602T229 591L210 516H125Q98 540 98 574Q98 601 114 624T160 665T234 693T334 704Q434 704 486 663T538 552Q538 477 490 432T365 366V362Q417 351 452 318T487 225Q487 174 466 131T405 57T311 8T187 -10Z" />
<glyph unicode="4" glyph-name="four" horiz-adv-x="590" d="M193 80L277 95L304 200H6L27 284L452 694H592L492 294H577L554 200H469L442 95L516 80L496 0H173L193 80ZM327 294L382 516H378L156 297V294H327Z" />
<glyph unicode="5" glyph-name="five" horiz-adv-x="517" d="M167 -10Q128 -10 98 -6T44 6T2 24T-32 44L-10 132Q20 119 55 110T139 101Q220 101 265 139T310 245Q310 334 186 334Q155 334 127 331T73 322L180 693H565L523 569H248L206 425Q222 430 245 433T298
437Q386 437 436 391T487 266Q487 211 466 161T405 73T305 13T167 -10Z" />
<glyph unicode="6" glyph-name="six" horiz-adv-x="591" d="M265 -12Q208 -12 165 4T93 51T50 123T35 216Q35 275 50 335T91 450T152 550T227 625Q282 666 340 685T465 704Q529 704 566 691T626 660L601 569Q580 577 550 583T479 590Q404 590 340 543T236 387Q269
410 313 424T399 438Q484 438 525 396T567 284Q567 233 549 180T494 85T400 15T265 -12ZM273 85Q303 85 326 100T364 139T387 195T395 258Q395 336 318 336Q290 336 264 327T215 304Q207 278 201 244T195 180Q195 137 214 111T273 85Z" />
<glyph unicode="7" glyph-name="seven" horiz-adv-x="514" d="M465 565V569H213L171 497H81L135 693H609L584 594L221 0H32L465 565Z" />
<glyph unicode="8" glyph-name="eight" horiz-adv-x="593" d="M259 -13Q193 -13 145 0T67 37T22 91T7 156Q7 193 21 224T61 280T122 323T200 353Q152 378 134 414T116 490Q116 533 135 572T191 641T279 687T396 705Q454 705 495 693T564 659T603 611T616 552Q616
483 568 437T441 371Q500 343 528 306T556 215Q556 165 535 123T474 51T380 4T259 -13ZM264 82Q322 82 354 112T386 191Q386 227 360 251T268 302Q214 282 184 249T154 164Q154 128 180 105T264 82ZM363 418Q411 435 439 464T467 543Q467 575 445 593T386 611Q332
611 305 582T278 511Q278 481 295 460T363 418Z" />
<glyph unicode="9" glyph-name="nine" horiz-adv-x="591" d="M179 -12Q113 -12 74 2T13 33L37 124Q58 116 91 109T164 102Q206 102 242 112T310 146T365 209T405 305Q372 282 328 268T242 254Q159 254 117 297T74 409Q74 460 92 512T147 607T241 677T376 704Q490
704 548 643T606 479Q606 419 593 359T557 244T501 144T428 66Q371 21 312 5T179 -12ZM323 357Q351 357 377 366T426 389Q434 415 440 449T446 513Q446 555 427 581T368 608Q338 608 315 593T277 554T254 498T246 434Q246 357 323 357Z" />
<glyph unicode=":" glyph-name="colon" horiz-adv-x="254" d="M78 -14Q40 -14 19 9T-3 61Q-3 103 23 128T88 154Q126 154 148 131T170 79Q170 38 143 12T78 -14ZM151 280Q113 280 92 303T70 355Q70 396 97 422T162 448Q200 448 221 425T243 373Q243 332 216 306T151 280Z" />
<glyph unicode=";" glyph-name="semicolon" horiz-adv-x="254" d="M-37 -88Q-16 -34 0 20T30 142H182Q168 76 139 18T67 -88H-37ZM151 280Q113 280 92 303T70 355Q70 396 97 422T162 448Q200 448 221 425T243 373Q243 332 216 306T151 280Z" />
<glyph unicode="&lt;" glyph-name="less" horiz-adv-x="502" d="M64 284V378L459 552V438L191 331L459 223V110L64 284Z" />
<glyph unicode="=" glyph-name="equal" horiz-adv-x="531" d="M70 259H500V159H70V259ZM70 451H500V351H70V451Z" />
<glyph unicode="&gt;" glyph-name="greater" horiz-adv-x="502" d="M74 223L342 330L74 438V552L469 378V284L74 110V223Z" />
<glyph unicode="?" glyph-name="question" horiz-adv-x="454" d="M139 208Q131 226 131 251Q131 278 138 299T160 340T195 376T244 411Q292 443 317 471T343 547Q343 616 260 616Q249 616 240 613T224 606L210 531H129Q119 540 111 553T103 585Q103 639 156 671T300
704Q345 704 382 694T446 665T487 616T502 550Q502 515 491 486T458 432T406 386T338 343Q309 327 289 314T254 288T233 259T224 222Q224 219 224 216T225 208H139ZM151 -12Q115 -12 95 10T75 58Q75 96 100 120T162 145Q198 145 218 123T238 75Q238 37 212 13T151
-12Z" />
<glyph unicode="@" glyph-name="at" horiz-adv-x="894" d="M419 -155Q326 -155 255 -131T136 -63T64 44T39 184Q39 285 75 375T176 533T329 640T522 680Q604 680 668 657T777 592T845 491T869 361Q869 280 847 218T789 114T704 51T603 29Q549 29 522 49T485 103H479Q447
71 414 54T341 37Q289 37 258 73T227 177Q227 244 249 300T307 395T388 457T481 479Q524 479 549 468T595 444L621 470H698L611 157Q609 149 608 143T606 130Q606 102 636 102Q663 102 690 117T740 164T776 244T790 359Q790 416 774 463T724 543T639 595T517 614Q428
614 355 581T230 489T150 352T121 183Q121 53 194 -17T426 -88Q493 -88 555 -77T656 -53L646 -114Q601 -132 545 -143T419 -155ZM408 126Q430 126 449 138T482 164L536 369Q531 384 520 395T485 406Q463 406 442 388T403 340T375 269T364 183Q364 126 408 126Z"
/>
<glyph unicode="A" glyph-name="A" horiz-adv-x="697" d="M-37 80L27 97L394 693H549L596 97L652 80L632 0H325L345 80L419 97L413 211H214L149 97L214 80L194 0H-57L-37 80ZM409 293L398 518H393L262 293H409Z" />
<glyph unicode="B" glyph-name="B" horiz-adv-x="633" d="M-23 80L56 97L181 596L110 614L130 693H418Q528 693 584 653T641 541Q641 477 604 427T477 358V353Q545 341 576 309T607 223Q607 182 591 143T540 71T449 20T314 0H-43L-23 80ZM298 94Q433 94 433 235Q433
313 345 313H278L224 94H298ZM351 396Q405 396 439 428T474 530Q474 569 454 584T393 599H350L299 396H351Z" />
<glyph unicode="C" glyph-name="C" horiz-adv-x="628" d="M323 -13Q257 -13 204 2T113 47T55 122T34 230Q34 294 47 351T83 458T138 547T206 617Q261 662 326 683T460 704Q541 704 591 692T670 666L639 478H543L530 580Q516 588 497 594T445 601Q403 601 369 584T308
534Q285 506 267 468T235 388T215 305T208 231Q208 157 240 124T339 91Q365 91 387 97T427 113L487 219H585L532 25Q488 9 436 -2T323 -13Z" />
<glyph unicode="D" glyph-name="D" horiz-adv-x="707" d="M-23 80L56 97L181 596L111 614L131 693H433Q571 693 646 633T722 451Q722 362 694 281T613 137T482 38T305 0H-43L-23 80ZM305 98Q350 98 385 112T452 160Q473 182 490 217T521 293T541 377T548 461Q548
537 512 566T406 595H352L227 98H305Z" />
<glyph unicode="E" glyph-name="E" horiz-adv-x="612" d="M-23 80L56 97L181 596L110 614L130 693H658L632 495H541L526 600H350L300 399H377L414 473H488L435 235H364L359 311H278L224 94H421L495 223H588L527 0H-43L-23 80Z" />
<glyph unicode="F" glyph-name="F" horiz-adv-x="599" d="M-23 80L56 97L181 596L110 614L130 693H670L643 482H552L536 596H352L299 387H384L420 462H495L441 223H368L365 298H278L227 96L306 80L286 0H-43L-23 80Z" />
<glyph unicode="G" glyph-name="G" horiz-adv-x="684" d="M329 -12Q263 -12 209 3T116 48T57 123T36 231Q36 352 83 449T208 613Q262 659 331 682T482 705Q551 705 600 694T679 670L653 482H555L540 581Q526 590 509 595T459 601Q415 601 378 582T312 529Q291
505 273 471T240 396T218 312T209 228Q209 153 241 122T339 90Q361 90 379 94T411 104L444 239L379 255L399 335H688L668 255L607 239L553 24Q511 10 453 -1T329 -12Z" />
<glyph unicode="H" glyph-name="H" horiz-adv-x="744" d="M-23 80L56 97L180 596L110 614L130 693H440L420 614L351 597L302 400H521L569 597L508 614L528 693H838L818 614L740 596L615 97L685 80L665 0H355L375 80L444 96L498 309H279L226 96L287 80L267 0H-43L-23 80Z" />
<glyph unicode="I" glyph-name="I" horiz-adv-x="357" d="M-23 80L57 97L181 596L110 614L130 693H452L432 614L352 596L227 97L298 80L279 0H-43L-23 80Z" />
<glyph unicode="J" glyph-name="J" horiz-adv-x="482" d="M89 77H103Q121 77 137 81T167 99T193 137T215 202L313 596L243 614L262 693H580L560 614L484 596L382 188Q368 133 343 95T285 34T213 0T131 -11Q46 -11 7 16T-32 87Q-32 113 -18 135T14 168H105L89 77Z" />
<glyph unicode="K" glyph-name="K" horiz-adv-x="698" d="M306 296L323 365L559 597L504 614L524 693H783L763 614L699 595L459 364L584 96L643 80L623 0H443L306 296ZM-23 80L56 97L180 596L110 614L130 693H442L422 614L351 597L226 96L292 80L272 0H-43L-23 80Z" />
<glyph unicode="L" glyph-name="L" horiz-adv-x="580" d="M-23 80L56 97L180 596L110 614L130 693H457L437 614L351 597L226 96H391L472 246H568L500 0H-43L-23 80Z" />
<glyph unicode="M" glyph-name="M" horiz-adv-x="906" d="M-23 79L56 97L180 596L110 614L130 693H429L444 254H448L683 693H1000L980 614L897 596L773 97L847 80L827 0H523L543 80L607 96L722 557H718L420 15H307L285 553H281L167 96L224 80L204 0H-43L-23 79Z" />
<glyph unicode="N" glyph-name="N" horiz-adv-x="716" d="M-23 79L56 97L181 596L110 614L130 693H394L521 247H526L613 595L542 614L562 693H816L796 614L725 596L577 0H429L279 522H275L169 96L241 79L221 0H-43L-23 79Z" />
<glyph unicode="O" glyph-name="O" horiz-adv-x="696" d="M312 90Q354 90 385 108T442 161Q463 191 480 229T510 309T530 394T537 478Q537 542 510 572T434 603Q392 603 362 584T306 530Q285 500 267 463T236 384T216 299T209 214Q209 150 235 120T312 90ZM294
-13Q239 -13 192 3T111 52T56 131T36 238Q36 335 68 420T156 568T287 668T448 705Q507 705 555 688T638 638T692 559T711 453Q711 357 680 272T593 124T461 24T294 -13Z" />
<glyph unicode="P" glyph-name="P" horiz-adv-x="614" d="M-23 80L56 97L180 596L110 614L130 693H426Q544 693 602 648T661 520Q661 455 639 410T580 335T493 293T389 279Q363 279 344 282T312 289L332 369Q337 368 345 367T370 365Q426 365 458 403T491 511Q491
555 468 574T402 593H351L226 96L310 80L291 0H-43L-23 80Z" />
<glyph unicode="Q" glyph-name="Q" horiz-adv-x="696" d="M237 -12Q200 0 164 17T100 64T54 135T36 238Q36 335 68 420T156 568T287 668T448 705Q507 705 555 688T638 638T692 559T711 453Q711 365 689 294T627 171T534 85T420 38V35L641 0L597 -127L237 -12ZM312
88Q354 88 385 106T442 159Q463 189 480 227T510 308T530 393T537 478Q537 542 510 572T434 603Q392 603 362 584T306 530Q285 500 267 463T236 384T216 299T209 213Q209 88 312 88Z" />
<glyph unicode="R" glyph-name="R" horiz-adv-x="676" d="M-23 80L57 97L182 595L112 614L132 693H435Q496 693 540 681T614 647T656 595T670 529Q670 445 624 396T499 325V321L577 95L631 79L611 0H430L341 287H276L228 96L291 80L271 0H-43L-23 80ZM371 375Q404
375 427 386T466 417T488 462T495 516Q495 554 474 574T402 595H352L297 375H371Z" />
<glyph unicode="S" glyph-name="S" horiz-adv-x="531" d="M202 -10Q127 -10 72 4T-17 35L16 200H115L122 115Q139 104 157 97T211 90Q268 90 298 116T329 188Q329 219 308 241T244 287L203 310Q154 338 123 377T92 480Q92 523 107 563T156 634T241 685T366 704Q405
704 434 701T486 693T526 682T559 668L538 515H441L431 585Q420 593 404 599T353 606Q305 606 278 583T250 521Q250 493 267 473T327 429L367 406Q395 391 419 374T461 337T489 292T499 234Q499 184 480 140T423 62T330 10T202 -10Z" />
<glyph unicode="T" glyph-name="T" horiz-adv-x="629" d="M112 80L196 97L321 597H228L164 470H68L132 693H717L676 470H582L579 597H492L367 97L442 80L422 0H92L112 80Z" />
<glyph unicode="U" glyph-name="U" horiz-adv-x="701" d="M331 -12Q203 -12 138 37T72 173Q72 204 81 237L170 596L103 614L123 693H434L414 614L342 597L252 237Q249 223 247 211T245 187Q245 136 276 112T364 88Q424 88 457 120T507 224L600 597L536 613L557
693H802L782 614L712 596L615 208Q603 158 583 118T530 49T449 4T331 -12Z" />
<glyph unicode="V" glyph-name="V" horiz-adv-x="682" d="M154 596L102 614L122 693H414L394 614L323 596L345 176H350L581 596L519 614L539 693H784L764 614L703 596L354 0H201L154 596Z" />
<glyph unicode="W" glyph-name="W" horiz-adv-x="963" d="M151 596L103 614L122 693H400L380 614L315 596L309 205H314L552 693H672L676 215H680L861 596L802 614L822 693H1065L1045 614L982 596L690 0H534V446H530L312 0H152L151 596Z" />
<glyph unicode="X" glyph-name="X" horiz-adv-x="681" d="M-23 80L40 95L269 355L175 596L116 614L136 693H436L416 614L359 598L413 428L546 598L494 614L512 693H764L744 614L681 596L466 348L565 97L623 80L603 0H307L326 80L387 94L324 280L175 95L227 79L207
0H-43L-23 80Z" />
<glyph unicode="Y" glyph-name="Y" horiz-adv-x="650" d="M124 80L206 97L255 292L155 596L104 614L124 693H406L386 614L327 597L389 385H393L553 597L501 614L521 693H750L730 614L671 596L423 282L377 97L449 80L429 0H104L124 80Z" />
<glyph unicode="Z" glyph-name="Z" horiz-adv-x="578" d="M-17 96L441 592V596H253L188 479H92L150 693H665L641 597L183 101V97H386L461 228H555L492 0H-41L-17 96Z" />
<glyph unicode="[" glyph-name="bracketleft" horiz-adv-x="340" d="M176 733H435L415 654L299 636L135 -23L242 -41L222 -120H-37L176 733Z" />
<glyph unicode="\" glyph-name="backslash" horiz-adv-x="368" d="M128 733H229L293 -120H191L128 733Z" />
<glyph unicode="]" glyph-name="bracketright" horiz-adv-x="340" d="M-44 -41L72 -23L236 636L129 654L149 733H408L195 -120H-64L-44 -41Z" />
<glyph unicode="^" glyph-name="asciicircum" horiz-adv-x="422" d="M277 693H368L450 444H364L294 570L159 444H71L277 693Z" />
<glyph unicode="_" glyph-name="underscore" horiz-adv-x="339" d="M-78 -54H269L246 -144H-101L-78 -54Z" />
<glyph unicode="`" glyph-name="grave" horiz-adv-x="495" d="M192 653L254 758L438 637L401 574L192 653Z" />
<glyph unicode="a" glyph-name="a" horiz-adv-x="574" d="M122 -12Q71 -12 38 21T4 128Q4 206 34 277T112 404T223 493T350 526Q377 526 400 518T436 498H441L470 529H586L448 84H529L507 19Q494 13 476 8T438 -1T396 -8T355 -11Q292 -11 301 49Q301 51 302 59T306
77Q309 88 312 100H308Q268 47 222 18T122 -12ZM201 93Q229 93 262 120T327 184L396 412Q380 438 344 438Q315 438 283 414T225 350T182 258T165 150Q165 93 201 93Z" />
<glyph unicode="b" glyph-name="b" horiz-adv-x="571" d="M220 -12Q140 -12 85 1T-4 38L168 630L98 637L121 717L340 752L354 744L261 428H267Q307 476 351 507T452 539Q506 539 537 501T569 394Q569 312 545 238T475 109T365 21T220 -12ZM234 78Q275 78 307 104T362
169T395 256T407 345Q407 378 398 397T365 416Q336 416 302 389T232 321L166 97Q179 89 195 84T234 78Z" />
<glyph unicode="c" glyph-name="c" horiz-adv-x="455" d="M352 370L365 448Q361 449 353 449Q318 449 285 427T227 369T187 285T172 186Q172 138 192 115T261 92Q291 92 328 103T404 133L385 52Q358 29 312 9T206 -12Q110 -12 61 37T12 169Q12 251 42 319T121
436T235 512T367 539Q433 539 463 517T493 459Q493 433 478 408T446 370H352Z" />
<glyph unicode="d" glyph-name="d" horiz-adv-x="594" d="M135 -12Q109 -12 86 -4T45 23T18 69T8 136Q8 216 36 289T114 417T226 506T361 539Q387 539 406 535T442 523L473 631L404 639L425 717L637 752L652 743L471 84H552L530 19Q518 14 501 9T463 -1T420 -8T378
-11Q340 -11 329 9T325 65L336 104H331Q291 52 241 20T135 -12ZM214 96Q229 96 245 103T279 123T313 153T346 190L412 424Q403 434 389 441T357 448Q321 448 287 424T227 359T185 268T169 164Q169 96 214 96Z" />
<glyph unicode="e" glyph-name="e" horiz-adv-x="490" d="M204 -12Q109 -12 61 38T12 170Q12 251 41 318T119 435T227 511T349 539Q383 539 412 532T463 511T497 474T510 420Q510 331 425 283T167 215Q166 209 166 203T166 191Q166 144 186 118T261 92Q301 92
344 105T424 137L405 56Q374 30 323 9T204 -12ZM327 452Q306 452 284 439T243 404T207 351T181 287Q274 301 318 333T362 416Q362 432 354 442T327 452Z" />
<glyph unicode="f" glyph-name="f" horiz-adv-x="353" d="M72 506L143 527Q160 588 188 630T251 699T328 738T413 750Q469 750 503 732T538 672Q538 650 527 631T502 600H418L429 662Q422 665 415 667T400 669Q365 669 339 637T293 527H407L381 434H270L176 55Q144
-73 85 -136T-75 -199Q-117 -199 -148 -182T-179 -125Q-179 -103 -166 -84T-138 -55H-66L-77 -119Q-63 -119 -50 -115T-26 -99T-5 -68T12 -19L120 434H54L72 506Z" />
<glyph unicode="g" glyph-name="g" horiz-adv-x="492" d="M168 -201Q37 -201 -27 -166T-92 -79Q-92 -34 -49 -1T62 55Q57 72 57 84Q57 123 77 154T124 209Q91 226 71 256T51 329Q51 383 73 422T129 487T206 525T287 538Q336 538 376 524L556 543L529 448L448 461Q458
447 464 430T470 392Q470 339 448 301T391 236T316 198T235 185Q207 185 182 191Q175 177 175 162Q175 156 178 151T192 141T221 129T269 114Q315 102 347 89T398 60T426 23T435 -23Q435 -110 363 -155T168 -201ZM214 -5Q152 11 117 24Q86 9 68 -10T49 -52Q49 -79
78 -97T182 -115Q235 -115 265 -99T295 -57Q295 -40 277 -29T214 -5ZM240 261Q280 261 306 300T333 401Q333 428 322 444T281 461Q240 461 214 423T187 323Q187 296 199 279T240 261Z" />
<glyph unicode="h" glyph-name="h" horiz-adv-x="582" d="M313 -12Q281 -12 261 2T241 40Q241 58 250 72T268 94L342 82Q380 175 401 252T422 374Q422 399 413 409T384 419Q353 419 316 388T242 313L148 0H-4L183 630L113 637L136 717L355 752L369 744L273 419H278Q325
473 374 506T480 539Q530 539 555 506T581 414Q581 375 572 329T547 237T508 147T461 67Q430 22 394 5T313 -12Z" />
<glyph unicode="i" glyph-name="i" horiz-adv-x="309" d="M85 -11Q49 -11 29 6T22 70L130 434H54L75 510L299 538L312 530L177 84H264L242 19Q229 13 211 8T172 -1T129 -8T85 -11ZM252 597Q217 597 196 616T174 666Q174 685 181 701T201 727T230 744T263 750Q298
750 320 731T342 680Q342 660 335 645T315 619T286 603T252 597Z" />
<glyph unicode="j" glyph-name="j" horiz-adv-x="293" d="M-103 -120Q-100 -120 -98 -120T-92 -121Q-79 -121 -66 -117T-40 -101T-17 -68T4 -11L130 434H54L75 510L299 538L312 530L165 27Q130 -93 63 -146T-88 -199Q-141 -199 -173 -179T-205 -121Q-205 -99 -193
-82T-168 -55H-92L-103 -120ZM252 597Q217 597 196 616T174 666Q174 685 181 701T201 727T230 744T263 750Q298 750 320 731T342 680Q342 660 335 645T315 619T286 603T252 597Z" />
<glyph unicode="k" glyph-name="k" horiz-adv-x="559" d="M512 434Q483 417 447 381T378 304L448 84H526L504 19Q484 8 454 -2T388 -12Q352 -12 332 8T298 76L249 245L263 294Q314 366 350 413T416 488T473 527T532 539Q558 539 574 529T601 508L581 434H512ZM183
630L113 637L135 717L355 752L369 744L147 0H-4L183 630Z" />
<glyph unicode="l" glyph-name="l" horiz-adv-x="312" d="M86 -11Q68 -11 53 -7T29 6T18 31T22 70L183 630L110 637L132 717L355 752L369 744L178 84H266L244 19Q217 8 174 -1T86 -11Z" />
<glyph unicode="m" glyph-name="m" horiz-adv-x="888" d="M670 -11Q651 -11 636 -7T612 7T601 32T606 70L694 348Q698 362 700 372T703 391Q703 416 678 416Q663 416 646 408T611 386T575 353T540 313L444 0H294L398 348Q407 375 407 390Q407 416 383 416Q366
416 349 407T313 382T277 345T240 302L147 0H-4L126 434H54L75 510L279 538L292 530L256 403H261Q311 468 365 503T476 539Q516 539 541 516T567 441Q567 431 564 419H570Q613 470 664 504T773 539Q791 539 807 534T837 517T859 487T867 443Q867 413 855 374L762
84H844L822 19Q795 8 752 -1T670 -11Z" />
<glyph unicode="n" glyph-name="n" horiz-adv-x="604" d="M385 -11Q346 -11 327 8T322 70L410 348Q414 361 416 371T419 390Q419 416 394 416Q377 416 358 406T318 380T277 342T238 297L147 0H-4L126 434H54L75 510L279 538L292 530L254 397H259Q312 466 369 502T486
539Q505 539 522 534T552 516T574 486T582 441Q582 412 570 373L478 84H559L537 19Q524 13 506 8T468 -1T426 -8T385 -11Z" />
<glyph unicode="o" glyph-name="o" horiz-adv-x="561" d="M238 78Q275 78 304 107T353 180T383 272T394 362Q394 402 378 425T329 449Q291 449 262 420T213 347T182 254T171 165Q171 125 187 102T238 78ZM223 -12Q125 -12 69 41T13 186Q13 243 35 305T99 420T203
505T344 539Q395 539 434 525T499 484T539 421T553 341Q553 284 532 222T468 107T365 22T223 -12Z" />
<glyph unicode="p" glyph-name="p" horiz-adv-x="587" d="M-105 -128L-33 -114L126 434H54L75 510L280 538L293 530L259 409H264Q311 468 361 503T468 539Q522 539 553 501T585 394Q585 312 561 239T492 110T387 21T252 -12Q226 -12 199 -8T154 6L120 -113L196
-128L176 -200H-126L-105 -128ZM249 78Q290 78 322 104T377 169T411 256T423 345Q423 378 414 397T381 416Q349 416 316 389T248 321L182 100Q196 89 211 84T249 78Z" />
<glyph unicode="q" glyph-name="q" horiz-adv-x="577" d="M170 -128L256 -113L318 85H313Q278 42 234 15T136 -12Q82 -12 45 23T8 136Q8 216 35 289T113 417T232 506T386 539Q456 539 507 528T589 498L407 -114L472 -128L452 -200H148L170 -128ZM214 96Q246 96
280 123T346 188L416 431Q407 437 394 442T361 448Q325 448 291 424T229 359T186 268T169 164Q169 96 214 96Z" />
<glyph unicode="r" glyph-name="r" horiz-adv-x="475" d="M126 434H54L75 510L279 538L292 530L251 388H256Q298 457 347 498T446 539Q484 539 501 521T519 474Q519 444 504 414T468 363H378L387 423Q352 413 310 371T231 271L147 0H-4L126 434Z" />
<glyph unicode="s" glyph-name="s" horiz-adv-x="431" d="M163 -12Q126 -12 93 -6T34 13T-5 44T-20 87Q-20 114 -6 132T21 159H117L103 91Q112 84 126 79T163 74Q208 74 228 91T249 134Q249 160 230 176T173 215Q125 243 96 276T67 363Q67 400 83 432T128 488T198
525T288 539Q322 539 351 533T402 516T436 488T449 449Q449 428 438 409T413 376H320L333 440Q323 447 310 451T278 455Q241 455 222 438T203 394Q203 382 207 373T222 354T250 335T292 309Q314 295 332 282T364 252T384 216T391 170Q391 128 374 95T326 37T254
1T163 -12Z" />
<glyph unicode="t" glyph-name="t" horiz-adv-x="346" d="M72 506L151 529L188 651H334L298 527H403L376 434H272L183 129Q177 107 182 96T211 84Q236 84 256 87T296 97L273 20Q250 9 216 -1T128 -11Q80 -11 51 8T22 72Q22 83 23 95T30 122L123 434H54L72 506Z" />
<glyph unicode="u" glyph-name="u" horiz-adv-x="601" d="M124 -12Q83 -12 54 10T25 83Q25 112 37 154L124 434H54L75 510L292 538L304 530L196 174Q192 160 190 150T188 131Q188 104 213 104Q228 104 246 113T283 137T321 171T359 211L456 527H607L476 84H557L535
19Q522 13 504 8T466 -1T425 -8T384 -11Q320 -11 329 49Q329 52 331 61T336 80T341 101T345 115H340Q289 56 235 22T124 -12Z" />
<glyph unicode="v" glyph-name="v" horiz-adv-x="518" d="M84 0Q89 61 93 122T101 240T106 346T108 434H36L56 510Q87 522 121 530T187 538Q222 538 239 523T257 467Q257 391 251 309T235 143H239Q261 168 288 201T342 273T392 353T428 434H350L369 504Q395 520
424 529T487 539Q513 539 531 526T549 483Q549 450 534 410T492 325T432 235T361 147T285 66T212 0H84V0Z" />
<glyph unicode="w" glyph-name="w" horiz-adv-x="774" d="M86 0Q91 61 95 122T102 240T106 346T108 434H36L56 510Q87 522 121 530T187 538Q222 538 239 523T256 467Q256 391 251 310T235 147H239Q272 185 312 239T386 352L388 434H319L340 510Q370 522 397 530T456
538Q491 538 509 523T527 467Q527 389 523 309T506 147H510Q531 170 556 203T606 274T652 354T685 434H609L628 504Q654 520 682 529T743 539Q769 539 786 526T804 481Q804 448 790 409T752 326T695 237T626 150T551 69T477 0H365Q370 54 373 109T380 217Q342 159
295 101T205 0H86V0Z" />
<glyph unicode="x" glyph-name="x" horiz-adv-x="530" d="M38 -12Q-4 -12 -20 8T-37 51Q-37 68 -32 79T-21 98L61 88Q94 119 128 167T188 262L137 434H63L83 510L256 539L269 531L314 348Q339 393 361 428T405 488T451 526T502 539Q545 539 561 521T577 480Q577
465 571 449T557 424L478 433Q446 403 413 356T353 260L405 84H490L468 19Q442 6 411 -2T345 -11Q301 -11 280 10T247 86L227 174Q179 85 136 37T38 -12Z" />
<glyph unicode="y" glyph-name="y" horiz-adv-x="519" d="M-18 -110Q17 -107 50 -89T114 -45Q117 33 117 105T117 239T112 351T104 434H35L55 510Q84 521 117 529T181 538Q217 538 233 525T254 476Q258 440 260 393T261 293T258 189T252 91H256Q288 134 317 181T369
275T407 362T429 434H351L370 504Q395 519 424 529T487 539Q514 539 530 524T546 476Q546 428 522 363T457 229T366 92T260 -29Q175 -113 104 -156T-41 -199Q-92 -199 -114 -179T-137 -122Q-136 -98 -122 -77T-94 -46H-4L-18 -110Z" />
<glyph unicode="z" glyph-name="z" horiz-adv-x="495" d="M60 -8Q15 -7 -6 9T-27 51Q-27 75 -9 96T34 140L305 371Q282 380 260 390T219 411T184 431T160 447L136 367H66Q57 383 57 404Q57 435 67 460T97 502T141 529T196 539Q250 539 305 519T410 467L442 535Q476
533 500 522T525 486Q525 462 510 441T459 390L181 156Q234 148 282 133T365 103V170H461Q459 134 450 101T423 43T380 3T320 -12Q291 -12 260 -4T200 16T144 43T96 70H91L60 -8V-8Z" />
<glyph unicode="{" glyph-name="braceleft" horiz-adv-x="388" d="M270 -120Q209 -117 167 -108T100 -83T63 -46T52 0Q52 27 63 57T89 115T115 169T127 212Q127 231 108 245T35 269L60 367Q95 370 117 375T153 387T174 405T184 429Q188 445 188 468T189 518T191
570T203 620Q213 647 233 667T286 701T367 723T483 733L464 654Q433 649 412 643T378 628T356 608T344 580Q340 566 338 546T333 504T329 462T323 426Q317 405 307 388T278 358T231 334T160 315V310Q218 293 241 271T265 216Q265 196 256 169T235 114T215 60T205
16Q205 -8 223 -20T290 -41L270 -120V-120Z" />
<glyph unicode="|" glyph-name="bar" horiz-adv-x="261" d="M100 733H200V-120H100V733Z" />
<glyph unicode="}" glyph-name="braceright" horiz-adv-x="388" d="M149 733Q210 730 252 721T320 696T357 659T368 613Q368 586 356 556T330 498T304 444T292 401Q292 381 311 368T384 345L359 246Q324 243 302 238T266 226T246 208T235 184Q230 168 230 145T230
95T228 42T217 -7Q206 -34 186 -54T133 -88T52 -110T-64 -120L-44 -41Q17 -32 42 -16T76 33Q79 46 81 66T86 109T90 151T97 187Q102 208 112 225T141 255T188 279T259 298V303Q201 320 178 342T154 397Q154 416 163 443T184 499T205 553T215 597Q215 621 196 633T129
654L149 733V733Z" />
<glyph unicode="~" glyph-name="asciitilde" horiz-adv-x="455" d="M26 266Q60 323 97 355T181 387Q202 387 221 381T258 366T291 351T320 344Q358 344 396 394L460 346Q426 288 389 256T305 224Q284 224 265 230T228 245T195 260T166 267Q128 267 90 217L26 266Z" />
<glyph unicode="&#xa0;" glyph-name="uni00A0" horiz-adv-x="179" />
<glyph unicode="&#xa1;" glyph-name="exclamdown" horiz-adv-x="267" d="M127 -120H-41L118 364H217L127 -120ZM204 585Q240 585 260 563T281 515Q281 477 255 453T193 428Q157 428 137 450T117 498Q117 536 142 560T204 585Z" />
<glyph unicode="&#xa2;" glyph-name="cent" horiz-adv-x="503" d="M163 -7Q91 7 52 52T12 168Q12 264 56 338T172 463Q257 522 361 536L389 611H467L440 537Q495 532 519 511T543 459Q543 433 528 408T496 370H421L433 447Q428 449 422 450T409 453L275 86Q317
87 362 99T444 128L423 48Q396 28 349 10T239 -11L200 -120H122L163 -7ZM166 182Q166 124 202 101L327 442Q292 428 263 402T212 341T178 265T166 182Z" />
<glyph unicode="&#xa3;" glyph-name="sterling" horiz-adv-x="539" d="M78 385H133L149 469Q160 531 186 575T249 648T334 690T436 704Q524 704 565 677T606 607Q606 583 592 562T562 528H467L481 602Q469 609 452 609Q403 609 367 579T311 468L291 385H462L440
293H268L262 267Q254 235 244 213T219 175T188 146T151 122L150 119H490L447 0H-31L-10 87Q33 107 64 139T106 235L116 293H55L78 385Z" />
<glyph unicode="&#xa5;" glyph-name="yen" horiz-adv-x="621" d="M110 383H230L148 596L101 614L121 693H402L382 614L325 598L387 409H391L534 598L482 614L502 693H724L704 614L649 596L469 383H594L576 309H417L401 248H560L541 174H383L364 97L437 80L417
0H95L115 80L198 97L216 174H58L76 248H234L250 309H92L110 383Z" />
<glyph unicode="&#xa6;" glyph-name="brokenbar" horiz-adv-x="261" d="M100 279H200V-120H100V279ZM100 733H200V371H100V733Z" />
<glyph unicode="&#xa7;" glyph-name="section" horiz-adv-x="529" d="M178 -132Q112 -132 68 -120T-6 -94L18 39H108L114 -24Q125 -31 141 -37T190 -43Q228 -43 250 -24T273 28Q272 49 258 65T211 96L147 126Q91 152 60 186T29 268Q29 331 69 367T181 417Q160
437 149 462T137 520Q137 562 154 596T204 655T282 692T381 705Q444 705 486 694T554 668L526 544H439L433 598Q424 604 410 610T367 617Q352 617 337 613T310 601T291 579T283 548Q283 528 295 514T340 483L404 453Q461 426 492 394T523 315Q522 249 483 213T371
160Q394 140 407 114T420 59Q420 18 404 -17T356 -77T280 -117T178 -132ZM254 370Q220 365 198 349T176 303Q176 283 192 268T241 236L296 208Q331 213 352 230T374 277Q374 295 361 310T317 340L254 370Z" />
<glyph unicode="&#xa8;" glyph-name="dieresis" horiz-adv-x="495" d="M255 598Q223 598 203 617T182 664Q182 700 207 720T265 741Q297 741 317 723T338 676Q338 640 313 619T255 598ZM449 598Q417 598 397 617T377 664Q377 700 402 720T459 741Q492 741 512
723T532 676Q532 640 508 619T449 598Z" />
<glyph unicode="&#xa9;" glyph-name="copyright" horiz-adv-x="772" d="M418 158Q377 158 343 169T284 203T244 261T230 344Q230 395 246 431T289 491T352 524T427 535Q462 535 493 531T543 520L547 409H483L464 462Q456 466 447 468T422 471Q379 471 364 440T349
354Q349 281 365 252T426 223Q456 223 467 231L488 289H551L545 178Q525 170 494 164T418 158ZM410 46Q473 46 525 69T615 133T674 228T695 344Q695 405 674 459T616 553T526 617T410 640Q347 640 295 617T205 554T147 459T126 344Q126 282 146 228T204 134T294
70T410 46ZM410 -14Q335 -14 270 14T158 91T83 205T56 344Q56 418 83 483T157 596T270 672T410 700Q485 700 550 672T663 596T738 483T766 344Q766 270 739 205T663 91T550 14T410 -14Z" />
<glyph unicode="&#xaa;" glyph-name="ordfeminine" horiz-adv-x="523" d="M159 224Q111 224 81 254T51 349Q51 417 79 479T152 590T252 667T361 696Q386 696 405 690T435 674H439L462 697H569L459 316H532L511 252Q499 247 483 242T449 233T412 227T376 224Q356
224 344 230T327 246T322 270T325 301L332 323H328Q290 276 249 250T159 224ZM235 320Q258 320 287 344T347 406L401 590Q393 599 383 605T355 612Q330 612 303 591T253 534T216 455T201 364Q201 341 210 331T235 320Z" />
<glyph unicode="&#xab;" glyph-name="guillemotleft" horiz-adv-x="461" d="M25 236L35 277L183 453H289L156 246L192 52H94L25 236ZM218 236L228 277L376 453H481L349 246L384 52H287L218 236Z" />
<glyph unicode="&#xae;" glyph-name="registered" horiz-adv-x="462" d="M195 431L214 437V557L195 562V594H301Q341 594 361 578T382 536Q382 516 373 507T349 493V491L383 436L397 431V401H335L293 474H278V437L293 431V401H195V431ZM295 508Q319 508 319 533Q319
557 294 557H278V508H295ZM292 329Q328 329 358 342T409 377T443 430T455 495Q455 529 443 559T410 612T358 647T292 660Q256 660 227 648T176 613T143 560T131 495Q131 460 142 430T175 378T226 342T292 329ZM292 286Q247 286 209 302T143 347T98 414T82 495Q82
538 98 576T142 642T209 687T292 703Q337 703 375 687T442 643T487 576T504 495Q504 452 488 414T443 348T376 303T292 286Z" />
<glyph unicode="&#xaf;" glyph-name="macron" horiz-adv-x="495" d="M225 694H494L470 599H202L225 694Z" />
<glyph unicode="&#xb0;" glyph-name="degree" horiz-adv-x="412" d="M276 453Q318 453 344 483T371 563Q371 598 352 623T290 649Q247 649 221 619T195 540Q195 524 199 509T214 481T239 461T276 453ZM273 388Q237 388 208 400T158 433T127 481T116 538Q116 576
130 608T168 664T225 701T293 715Q329 715 358 703T407 669T439 621T450 565Q450 527 436 495T398 439T341 402T273 388Z" />
<glyph unicode="&#xb4;" glyph-name="acute" horiz-adv-x="495" d="M201 637L416 759L451 649L221 574L201 637Z" />
<glyph unicode="&#xb6;" glyph-name="paragraph" horiz-adv-x="600" d="M279 323Q273 323 265 322T246 321Q212 321 183 331T131 359T97 405T84 469Q84 572 153 632T359 693H694L674 614L600 596L421 -120H329L509 602H440L260 -120H168L279 323Z" />
<glyph unicode="&#xb7;" glyph-name="periodcentered" horiz-adv-x="246" d="M140 248Q102 248 80 271T58 323Q58 365 85 390T150 416Q188 416 209 393T231 341Q231 299 205 274T140 248Z" />
<glyph unicode="&#xb8;" glyph-name="cedilla" horiz-adv-x="495" d="M89 -169Q147 -163 173 -153T199 -122Q199 -110 186 -102T129 -93L152 0H215L204 -43Q259 -45 283 -62T307 -108Q307 -160 252 -186T76 -219L89 -169Z" />
<glyph unicode="&#xba;" glyph-name="ordmasculine" horiz-adv-x="498" d="M266 311Q295 311 319 335T360 394T386 470T396 545Q396 616 340 616Q311 616 288 592T247 533T221 456T211 381Q211 311 266 311ZM251 224Q164 224 115 270T66 394Q66 446 86 501T143
601T234 674T354 703Q444 703 492 656T541 533Q541 481 521 427T463 327T372 253T251 224Z" />
<glyph unicode="&#xbb;" glyph-name="guillemotright" horiz-adv-x="460" d="M246 270L236 228L89 52H-17L115 259L80 453H177L246 270ZM439 270L429 228L282 52H176L308 259L273 453H370L439 270Z" />
<glyph unicode="&#xbc;" glyph-name="onequarter" horiz-adv-x="873" d="M69 339L130 350L190 590L118 584L133 640L283 704H342L254 350L312 339L297 282H54L69 339ZM725 713H816L176 -40H85L725 713ZM632 104H448L463 166L727 418H827L765 172H820L804 104H749L723
0H605L632 104ZM648 172L680 298H677L554 174V172H648Z" />
<glyph unicode="&#xbd;" glyph-name="onehalf" horiz-adv-x="900" d="M725 713H816L176 -40H85L725 713ZM76 339L137 350L197 590L125 584L140 640L290 704H349L261 350L319 339L304 282H61L76 339ZM509 66L624 154Q684 199 714 233T745 304Q745 326 733 337T700
349Q687 349 679 346T662 338L649 281H584Q576 289 571 300T565 324Q565 344 576 362T608 394T658 416T726 424Q793 424 834 395T875 314Q875 263 833 218T706 122L642 84V82H828L801 0H492L509 66Z" />
<glyph unicode="&#xbe;" glyph-name="threequarters" horiz-adv-x="906" d="M194 277Q137 277 104 287T51 311L67 375Q86 367 111 361T168 354Q205 354 230 370T255 421Q254 444 238 453T193 463H153L169 529H208Q247 529 270 544T293 590Q293 612 281 624T245
636Q231 636 224 634T209 626L200 581H136Q128 587 123 596T118 617Q118 655 159 680T276 706Q337 706 372 681T407 611Q407 564 376 537T301 500V498Q340 490 361 470T383 412Q383 382 368 357T328 315T268 287T194 277ZM754 713H845L205 -40H114L754 713ZM667
104H483L498 166L762 418H862L800 172H855L839 104H784L758 0H640L667 104ZM683 172L715 298H712L589 174V172H683Z" />
<glyph unicode="&#xbf;" glyph-name="questiondown" horiz-adv-x="453" d="M175 -131Q130 -131 93 -121T29 -92T-12 -44T-27 23Q-27 93 17 141T137 230Q165 246 186 259T221 285T242 314T251 351Q251 354 251 357T250 365H336Q344 347 344 322Q344 295 337 274T315
233T279 197T230 162Q183 130 158 102T132 26Q132 -43 214 -43Q225 -43 234 -40T251 -33L265 42H346Q356 33 364 20T372 -12Q372 -66 319 -98T175 -131ZM324 585Q360 585 380 563T400 515Q400 477 375 453T313 428Q277 428 257 450T237 498Q237 536 263 560T324
585Z" />
<glyph unicode="&#xc0;" glyph-name="Agrave" horiz-adv-x="697" d="M355 783L406 892L603 790L571 725L355 783ZM-37 80L27 97L394 693H549L596 97L652 80L632 0H325L345 80L419 97L413 211H214L149 97L214 80L194 0H-57L-37 80ZM409 293L398 518H393L262 293H409Z" />
<glyph unicode="&#xc1;" glyph-name="Aacute" horiz-adv-x="697" d="M365 790L591 891L617 779L379 725L365 790ZM-37 80L27 97L394 693H549L596 97L652 80L632 0H325L345 80L419 97L413 211H214L149 97L214 80L194 0H-57L-37 80ZM409 293L398 518H393L262 293H409Z" />
<glyph unicode="&#xc2;" glyph-name="Acircumflex" horiz-adv-x="697" d="M322 771L464 882H538L629 766L592 726L486 779L349 726L322 771ZM-37 80L27 97L394 693H549L596 97L652 80L632 0H325L345 80L419 97L413 211H214L149 97L214 80L194 0H-57L-37 80ZM409
293L398 518H393L262 293H409Z" />
<glyph unicode="&#xc3;" glyph-name="Atilde" horiz-adv-x="697" d="M315 769Q342 814 374 841T446 869Q463 869 477 864T505 853T530 842T553 837Q586 837 613 873L667 836Q641 791 608 764T536 736Q519 736 505 741T477 752T452 763T429 768Q396 768 369 732L315
769ZM-37 80L27 97L394 693H549L596 97L652 80L632 0H325L345 80L419 97L413 211H214L149 97L214 80L194 0H-57L-37 80ZM409 293L398 518H393L262 293H409Z" />
<glyph unicode="&#xc4;" glyph-name="Adieresis" horiz-adv-x="697" d="M387 731Q355 731 335 749T314 796Q314 833 339 853T397 874Q429 874 449 856T470 809Q470 773 446 752T387 731ZM582 731Q550 731 530 749T509 796Q509 833 534 853T591 874Q624 874 644
856T664 809Q664 773 640 752T582 731ZM-37 80L27 97L394 693H549L596 97L652 80L632 0H325L345 80L419 97L413 211H214L149 97L214 80L194 0H-57L-37 80ZM409 293L398 518H393L262 293H409Z" />
<glyph unicode="&#xc5;" glyph-name="Aring" horiz-adv-x="697" d="M482 771Q504 771 518 784T532 824Q532 843 521 855T488 868Q466 868 452 854T437 816Q437 796 448 784T482 771ZM479 716Q431 716 403 745T375 814Q375 837 384 857T409 891T446 914T491 923Q515
923 534 915T566 894T587 864T594 827Q594 803 585 783T560 748T524 725T479 716ZM-37 80L27 97L394 693H549L596 97L652 80L632 0H325L345 80L419 97L413 211H214L149 97L214 80L194 0H-57L-37 80ZM409 293L398 518H393L262 293H409Z" />
<glyph unicode="&#xc6;" glyph-name="AE" horiz-adv-x="964" d="M-37 80L25 98L462 606L398 614L418 693H1011L984 495H893L879 600H706L655 399H730L766 473H841L787 235H716L711 311H634L579 94H774L848 223H940L880 0H313L333 80L413 97L440 206H239L149 98L224
80L204 0H-57L-37 80ZM461 289L525 547H521L308 289H461Z" />
<glyph unicode="&#xc7;" glyph-name="Ccedilla" horiz-adv-x="628" d="M166 -170Q224 -164 250 -154T276 -123Q276 -111 263 -103T206 -94L228 -4Q137 14 86 72T34 230Q34 294 47 351T83 458T138 547T206 617Q261 662 326 683T460 704Q541 704 591 692T670 666L639
478H543L530 580Q516 588 497 594T445 601Q403 601 369 584T308 534Q285 506 267 468T235 388T215 305T208 231Q208 157 240 124T339 91Q365 91 387 97T427 113L487 219H585L532 25Q488 9 436 -2T323 -13Q314 -13 309 -13T289 -12L281 -44Q336 -46 360 -63T384
-109Q384 -161 329 -187T153 -220L166 -170Z" />
<glyph unicode="&#xc8;" glyph-name="Egrave" horiz-adv-x="612" d="M298 783L349 892L546 790L514 725L298 783ZM-23 80L56 97L181 596L110 614L130 693H658L632 495H541L526 600H350L300 399H377L414 473H488L435 235H364L359 311H278L224 94H421L495 223H588L527
0H-43L-23 80Z" />
<glyph unicode="&#xc9;" glyph-name="Eacute" horiz-adv-x="612" d="M312 790L538 891L564 779L326 725L312 790ZM-23 80L56 97L181 596L110 614L130 693H658L632 495H541L526 600H350L300 399H377L414 473H488L435 235H364L359 311H278L224 94H421L495 223H588L527
0H-43L-23 80Z" />
<glyph unicode="&#xca;" glyph-name="Ecircumflex" horiz-adv-x="612" d="M267 771L409 882H483L574 766L537 726L431 779L294 726L267 771ZM-23 80L56 97L181 596L110 614L130 693H658L632 495H541L526 600H350L300 399H377L414 473H488L435 235H364L359 311H278L224
94H421L495 223H588L527 0H-43L-23 80Z" />
<glyph unicode="&#xcb;" glyph-name="Edieresis" horiz-adv-x="612" d="M332 731Q300 731 280 749T259 796Q259 833 284 853T342 874Q374 874 394 856T415 809Q415 773 391 752T332 731ZM527 731Q495 731 475 749T454 796Q454 833 479 853T536 874Q569 874 589
856T609 809Q609 773 585 752T527 731ZM-23 80L56 97L181 596L110 614L130 693H658L632 495H541L526 600H350L300 399H377L414 473H488L435 235H364L359 311H278L224 94H421L495 223H588L527 0H-43L-23 80Z" />
<glyph unicode="&#xcc;" glyph-name="Igrave" horiz-adv-x="357" d="M174 783L225 892L422 790L390 725L174 783ZM-23 80L57 97L181 596L110 614L130 693H452L432 614L352 596L227 97L298 80L279 0H-43L-23 80Z" />
<glyph unicode="&#xcd;" glyph-name="Iacute" horiz-adv-x="357" d="M186 790L412 891L438 779L200 725L186 790ZM-23 80L57 97L181 596L110 614L130 693H452L432 614L352 596L227 97L298 80L279 0H-43L-23 80Z" />
<glyph unicode="&#xce;" glyph-name="Icircumflex" horiz-adv-x="357" d="M146 771L288 882H362L453 766L416 726L310 779L173 726L146 771ZM-23 80L57 97L181 596L110 614L130 693H452L432 614L352 596L227 97L298 80L279 0H-43L-23 80Z" />
<glyph unicode="&#xcf;" glyph-name="Idieresis" horiz-adv-x="357" d="M213 731Q181 731 161 749T140 796Q140 833 165 853T223 874Q255 874 275 856T296 809Q296 773 272 752T213 731ZM408 731Q376 731 356 749T335 796Q335 833 360 853T417 874Q450 874 470
856T490 809Q490 773 466 752T408 731ZM-23 80L57 97L181 596L110 614L130 693H452L432 614L352 596L227 97L298 80L279 0H-43L-23 80Z" />
<glyph unicode="&#xd0;" glyph-name="Eth" horiz-adv-x="706" d="M65 403H132L181 596L111 614L131 693H433Q571 693 645 633T720 451Q720 362 693 281T612 137T482 38T305 0H-43L-23 80L56 97L107 303H40L65 403ZM305 98Q350 98 385 112T452 160Q473 182 490
217T521 293T541 377T548 461Q548 537 512 566T406 595H352L303 403H439L414 303H278L227 98H305Z" />
<glyph unicode="&#xd1;" glyph-name="Ntilde" horiz-adv-x="716" d="M329 769Q356 814 388 841T460 869Q477 869 491 864T519 853T544 842T567 837Q600 837 627 873L681 836Q655 791 622 764T550 736Q533 736 519 741T491 752T466 763T443 768Q410 768 383 732L329
769ZM-23 79L56 97L181 596L110 614L130 693H394L521 247H526L613 595L542 614L562 693H816L796 614L725 596L577 0H429L279 522H275L169 96L241 79L221 0H-43L-23 79Z" />
<glyph unicode="&#xd2;" glyph-name="Ograve" horiz-adv-x="696" d="M340 783L391 892L588 790L556 725L340 783ZM312 90Q354 90 385 108T442 161Q463 191 480 229T510 309T530 394T537 478Q537 542 510 572T434 603Q392 603 362 584T306 530Q285 500 267 463T236
384T216 299T209 214Q209 150 235 120T312 90ZM294 -13Q239 -13 192 3T111 52T56 131T36 238Q36 335 68 420T156 568T287 668T448 705Q507 705 555 688T638 638T692 559T711 453Q711 357 680 272T593 124T461 24T294 -13Z" />
<glyph unicode="&#xd3;" glyph-name="Oacute" horiz-adv-x="696" d="M354 790L580 891L606 779L368 725L354 790ZM312 90Q354 90 385 108T442 161Q463 191 480 229T510 309T530 394T537 478Q537 542 510 572T434 603Q392 603 362 584T306 530Q285 500 267 463T236
384T216 299T209 214Q209 150 235 120T312 90ZM294 -13Q239 -13 192 3T111 52T56 131T36 238Q36 335 68 420T156 568T287 668T448 705Q507 705 555 688T638 638T692 559T711 453Q711 357 680 272T593 124T461 24T294 -13Z" />
<glyph unicode="&#xd4;" glyph-name="Ocircumflex" horiz-adv-x="696" d="M309 771L451 882H525L616 766L579 726L473 779L336 726L309 771ZM312 90Q354 90 385 108T442 161Q463 191 480 229T510 309T530 394T537 478Q537 542 510 572T434 603Q392 603 362 584T306
530Q285 500 267 463T236 384T216 299T209 214Q209 150 235 120T312 90ZM294 -13Q239 -13 192 3T111 52T56 131T36 238Q36 335 68 420T156 568T287 668T448 705Q507 705 555 688T638 638T692 559T711 453Q711 357 680 272T593 124T461 24T294 -13Z" />
<glyph unicode="&#xd5;" glyph-name="Otilde" horiz-adv-x="696" d="M300 769Q327 814 359 841T431 869Q448 869 462 864T490 853T515 842T538 837Q571 837 598 873L652 836Q626 791 593 764T521 736Q504 736 490 741T462 752T437 763T414 768Q381 768 354 732L300
769ZM312 90Q354 90 385 108T442 161Q463 191 480 229T510 309T530 394T537 478Q537 542 510 572T434 603Q392 603 362 584T306 530Q285 500 267 463T236 384T216 299T209 214Q209 150 235 120T312 90ZM294 -13Q239 -13 192 3T111 52T56 131T36 238Q36 335 68 420T156
568T287 668T448 705Q507 705 555 688T638 638T692 559T711 453Q711 357 680 272T593 124T461 24T294 -13Z" />
<glyph unicode="&#xd6;" glyph-name="Odieresis" horiz-adv-x="696" d="M370 731Q338 731 318 749T297 796Q297 833 322 853T380 874Q412 874 432 856T453 809Q453 773 429 752T370 731ZM565 731Q533 731 513 749T492 796Q492 833 517 853T574 874Q607 874 627
856T647 809Q647 773 623 752T565 731ZM312 90Q354 90 385 108T442 161Q463 191 480 229T510 309T530 394T537 478Q537 542 510 572T434 603Q392 603 362 584T306 530Q285 500 267 463T236 384T216 299T209 214Q209 150 235 120T312 90ZM294 -13Q239 -13 192 3T111
52T56 131T36 238Q36 335 68 420T156 568T287 668T448 705Q507 705 555 688T638 638T692 559T711 453Q711 357 680 272T593 124T461 24T294 -13Z" />
<glyph unicode="&#xd7;" glyph-name="multiply" horiz-adv-x="536" d="M78 189L221 334L78 479L146 547L289 402L431 546L499 478L356 334L500 189L431 121L289 265L146 121L78 189Z" />
<glyph unicode="&#xd8;" glyph-name="Oslash" horiz-adv-x="696" d="M-1 8L77 90Q57 119 47 156T36 238Q36 335 68 420T156 568T287 668T448 705Q547 705 615 657L675 720L730 676L665 607Q687 577 699 539T711 453Q711 357 680 272T593 124T461 24T294 -13Q194
-13 125 39L54 -36L-1 8ZM310 90Q353 90 385 107T443 160Q465 190 483 228T515 308T535 393T543 478V479L217 136Q241 90 310 90ZM304 532Q282 502 264 465T232 388T212 305T203 222L524 561Q498 603 435 603Q393 603 362 585T304 532Z" />
<glyph unicode="&#xd9;" glyph-name="Ugrave" horiz-adv-x="701" d="M370 783L421 892L618 790L586 725L370 783ZM331 -12Q203 -12 138 37T72 173Q72 204 81 237L170 596L103 614L123 693H434L414 614L342 597L252 237Q249 223 247 211T245 187Q245 136 276 112T364
88Q424 88 457 120T507 224L600 597L536 613L557 693H802L782 614L712 596L615 208Q603 158 583 118T530 49T449 4T331 -12Z" />
<glyph unicode="&#xda;" glyph-name="Uacute" horiz-adv-x="701" d="M384 790L610 891L636 779L398 725L384 790ZM331 -12Q203 -12 138 37T72 173Q72 204 81 237L170 596L103 614L123 693H434L414 614L342 597L252 237Q249 223 247 211T245 187Q245 136 276 112T364
88Q424 88 457 120T507 224L600 597L536 613L557 693H802L782 614L712 596L615 208Q603 158 583 118T530 49T449 4T331 -12Z" />
<glyph unicode="&#xdb;" glyph-name="Ucircumflex" horiz-adv-x="701" d="M339 771L481 882H555L646 766L609 726L503 779L366 726L339 771ZM331 -12Q203 -12 138 37T72 173Q72 204 81 237L170 596L103 614L123 693H434L414 614L342 597L252 237Q249 223 247 211T245
187Q245 136 276 112T364 88Q424 88 457 120T507 224L600 597L536 613L557 693H802L782 614L712 596L615 208Q603 158 583 118T530 49T449 4T331 -12Z" />
<glyph unicode="&#xdc;" glyph-name="Udieresis" horiz-adv-x="701" d="M398 731Q366 731 346 749T325 796Q325 833 350 853T408 874Q440 874 460 856T481 809Q481 773 457 752T398 731ZM593 731Q561 731 541 749T520 796Q520 833 545 853T602 874Q635 874 655
856T675 809Q675 773 651 752T593 731ZM331 -12Q203 -12 138 37T72 173Q72 204 81 237L170 596L103 614L123 693H434L414 614L342 597L252 237Q249 223 247 211T245 187Q245 136 276 112T364 88Q424 88 457 120T507 224L600 597L536 613L557 693H802L782 614L712
596L615 208Q603 158 583 118T530 49T449 4T331 -12Z" />
<glyph unicode="&#xdd;" glyph-name="Yacute" horiz-adv-x="650" d="M354 790L580 891L606 779L368 725L354 790ZM124 80L206 97L255 292L155 596L104 614L124 693H406L386 614L327 597L389 385H393L553 597L501 614L521 693H750L730 614L671 596L423 282L377
97L449 80L429 0H104L124 80Z" />
<glyph unicode="&#xde;" glyph-name="Thorn" horiz-adv-x="613" d="M-23 80L56 97L180 596L110 614L130 693H443L423 614L351 597L338 546H398Q461 546 505 535T576 503T615 454T627 391Q627 332 606 290T548 221T465 182T366 169Q334 169 315 172T283 181L302
261Q307 259 316 258T343 256Q396 256 427 285T458 379Q458 450 374 450H315L226 96L310 80L291 0H-43L-23 80Z" />
<glyph unicode="&#xdf;" glyph-name="germandbls" horiz-adv-x="618" d="M-77 -199Q-120 -199 -150 -182T-181 -125Q-181 -103 -168 -84T-140 -55H-69L-79 -119Q-51 -118 -28 -98T9 -19L135 508Q151 575 178 621T241 695T322 737T422 750Q466 750 501 740T562
711T600 669T614 615Q614 588 601 565T569 520T527 479T485 444T452 412T439 383Q439 365 456 349T504 306Q519 294 533 280T560 247T579 208T587 162Q587 124 572 92T531 37T467 1T386 -12Q317 -12 274 9T231 78Q231 101 243 120T267 147H343L332 84Q340 79 351
76T379 72Q411 72 428 89T445 133Q445 157 428 175T377 222Q346 248 327 273T308 334Q308 357 319 380T347 427T384 473T420 518T448 561T460 603Q460 657 401 657Q364 657 337 627T290 520L174 55Q142 -73 83 -136T-77 -199Z" />
<glyph unicode="&#xe0;" glyph-name="agrave" horiz-adv-x="574" d="M122 -12Q71 -12 38 21T4 128Q4 206 34 277T112 404T223 493T350 526Q377 526 400 518T436 498H441L470 529H586L448 84H529L507 19Q494 13 476 8T438 -1T396 -8T355 -11Q292 -11 301 49Q301
51 302 59T306 77Q309 88 312 100H308Q268 47 222 18T122 -12ZM201 93Q229 93 262 120T327 184L396 412Q380 438 344 438Q315 438 283 414T225 350T182 258T165 150Q165 93 201 93ZM255 653L317 758L501 637L464 574L255 653Z" />
<glyph unicode="&#xe1;" glyph-name="aacute" horiz-adv-x="574" d="M122 -12Q71 -12 38 21T4 128Q4 206 34 277T112 404T223 493T350 526Q377 526 400 518T436 498H441L470 529H586L448 84H529L507 19Q494 13 476 8T438 -1T396 -8T355 -11Q292 -11 301 49Q301
51 302 59T306 77Q309 88 312 100H308Q268 47 222 18T122 -12ZM201 93Q229 93 262 120T327 184L396 412Q380 438 344 438Q315 438 283 414T225 350T182 258T165 150Q165 93 201 93ZM269 637L484 759L519 649L289 574L269 637Z" />
<glyph unicode="&#xe2;" glyph-name="acircumflex" horiz-adv-x="574" d="M122 -12Q71 -12 38 21T4 128Q4 206 34 277T112 404T223 493T350 526Q377 526 400 518T436 498H441L470 529H586L448 84H529L507 19Q494 13 476 8T438 -1T396 -8T355 -11Q292 -11 301 49Q301
51 302 59T306 77Q309 88 312 100H308Q268 47 222 18T122 -12ZM201 93Q229 93 262 120T327 184L396 412Q380 438 344 438Q315 438 283 414T225 350T182 258T165 150Q165 93 201 93ZM229 619L374 748H448L535 614L497 575L394 643L256 575L229 619Z" />
<glyph unicode="&#xe3;" glyph-name="atilde" horiz-adv-x="574" d="M122 -12Q71 -12 38 21T4 128Q4 206 34 277T112 404T223 493T350 526Q377 526 400 518T436 498H441L470 529H586L448 84H529L507 19Q494 13 476 8T438 -1T396 -8T355 -11Q292 -11 301 49Q301
51 302 59T306 77Q309 88 312 100H308Q268 47 222 18T122 -12ZM201 93Q229 93 262 120T327 184L396 412Q380 438 344 438Q315 438 283 414T225 350T182 258T165 150Q165 93 201 93ZM218 625Q245 670 277 697T349 725Q366 725 380 720T408 709T433 698T456 693Q489
693 516 729L570 692Q544 647 511 620T439 592Q422 592 408 597T380 608T355 619T332 624Q299 624 272 588L218 625Z" />
<glyph unicode="&#xe4;" glyph-name="adieresis" horiz-adv-x="574" d="M122 -12Q71 -12 38 21T4 128Q4 206 34 277T112 404T223 493T350 526Q377 526 400 518T436 498H441L470 529H586L448 84H529L507 19Q494 13 476 8T438 -1T396 -8T355 -11Q292 -11 301 49Q301
51 302 59T306 77Q309 88 312 100H308Q268 47 222 18T122 -12ZM201 93Q229 93 262 120T327 184L396 412Q380 438 344 438Q315 438 283 414T225 350T182 258T165 150Q165 93 201 93ZM292 598Q260 598 240 617T219 664Q219 700 244 720T302 741Q334 741 354 723T375
676Q375 640 350 619T292 598ZM486 598Q454 598 434 617T414 664Q414 700 439 720T496 741Q529 741 549 723T569 676Q569 640 545 619T486 598Z" />
<glyph unicode="&#xe5;" glyph-name="aring" horiz-adv-x="574" d="M122 -12Q71 -12 38 21T4 128Q4 206 34 277T112 404T223 493T350 526Q377 526 400 518T436 498H441L470 529H586L448 84H529L507 19Q494 13 476 8T438 -1T396 -8T355 -11Q292 -11 301 49Q301
51 302 59T306 77Q309 88 312 100H308Q268 47 222 18T122 -12ZM201 93Q229 93 262 120T327 184L396 412Q380 438 344 438Q315 438 283 414T225 350T182 258T165 150Q165 93 201 93ZM397 630Q419 630 433 643T447 683Q447 702 436 714T403 727Q381 727 367 713T352
675Q352 655 363 643T397 630ZM394 575Q346 575 318 604T290 673Q290 696 299 716T324 750T361 773T406 782Q430 782 449 774T481 753T502 723T509 686Q509 662 500 642T475 607T439 584T394 575Z" />
<glyph unicode="&#xe6;" glyph-name="ae" horiz-adv-x="763" d="M533 92Q574 92 618 105T699 138L680 57Q650 31 598 10T476 -12Q410 -12 367 12T302 78Q269 37 225 13T133 -12Q64 -12 29 22T-7 110Q-7 192 42 232T196 286L308 300L318 341Q321 354 323 365T325
386Q325 449 257 449Q236 449 223 445T202 436L187 371H100Q89 379 81 392T72 421Q72 444 85 465T125 503T191 529T284 539Q347 539 385 518T438 462Q476 499 523 519T623 539Q657 539 687 532T739 511T773 474T786 420Q786 331 700 285T439 226Q437 217 437 209T437
191Q437 144 457 118T533 92ZM283 170Q283 185 284 199T288 228L221 225Q139 222 139 139Q139 113 152 97T194 80Q239 80 286 128Q283 147 283 170ZM601 452Q580 452 559 440T518 408T483 359T455 299Q549 307 593 336T637 416Q637 432 629 442T601 452Z" />
<glyph unicode="&#xe7;" glyph-name="ccedilla" horiz-adv-x="455" d="M63 -169Q121 -163 147 -153T173 -122Q173 -110 160 -102T103 -93L126 0Q69 18 41 62T12 169Q12 251 42 319T121 436T235 512T367 539Q433 539 463 517T493 459Q493 433 478 408T446 370H352L365
448Q361 449 353 449Q318 449 285 427T227 369T187 285T172 186Q172 138 192 115T261 92Q291 92 328 103T404 133L385 52Q358 29 312 9T206 -12Q201 -12 197 -12T186 -11L178 -43Q233 -45 257 -62T281 -108Q281 -160 226 -186T50 -219L63 -169Z" />
<glyph unicode="&#xe8;" glyph-name="egrave" horiz-adv-x="490" d="M204 -12Q109 -12 61 38T12 170Q12 251 41 318T119 435T227 511T349 539Q383 539 412 532T463 511T497 474T510 420Q510 331 425 283T167 215Q166 209 166 203T166 191Q166 144 186 118T261
92Q301 92 344 105T424 137L405 56Q374 30 323 9T204 -12ZM327 452Q306 452 284 439T243 404T207 351T181 287Q274 301 318 333T362 416Q362 432 354 442T327 452ZM228 653L290 758L474 637L437 574L228 653Z" />
<glyph unicode="&#xe9;" glyph-name="eacute" horiz-adv-x="490" d="M240 637L455 759L490 649L260 574L240 637ZM204 -12Q109 -12 61 38T12 170Q12 251 41 318T119 435T227 511T349 539Q383 539 412 532T463 511T497 474T510 420Q510 331 425 283T167 215Q166
209 166 203T166 191Q166 144 186 118T261 92Q301 92 344 105T424 137L405 56Q374 30 323 9T204 -12ZM327 452Q306 452 284 439T243 404T207 351T181 287Q274 301 318 333T362 416Q362 432 354 442T327 452Z" />
<glyph unicode="&#xea;" glyph-name="ecircumflex" horiz-adv-x="490" d="M198 619L343 748H417L504 614L466 575L363 643L225 575L198 619ZM204 -12Q109 -12 61 38T12 170Q12 251 41 318T119 435T227 511T349 539Q383 539 412 532T463 511T497 474T510 420Q510
331 425 283T167 215Q166 209 166 203T166 191Q166 144 186 118T261 92Q301 92 344 105T424 137L405 56Q374 30 323 9T204 -12ZM327 452Q306 452 284 439T243 404T207 351T181 287Q274 301 318 333T362 416Q362 432 354 442T327 452Z" />
<glyph unicode="&#xeb;" glyph-name="edieresis" horiz-adv-x="490" d="M263 598Q231 598 211 617T190 664Q190 700 215 720T273 741Q305 741 325 723T346 676Q346 640 321 619T263 598ZM457 598Q425 598 405 617T385 664Q385 700 410 720T467 741Q500 741 520
723T540 676Q540 640 516 619T457 598ZM204 -12Q109 -12 61 38T12 170Q12 251 41 318T119 435T227 511T349 539Q383 539 412 532T463 511T497 474T510 420Q510 331 425 283T167 215Q166 209 166 203T166 191Q166 144 186 118T261 92Q301 92 344 105T424 137L405
56Q374 30 323 9T204 -12ZM327 452Q306 452 284 439T243 404T207 351T181 287Q274 301 318 333T362 416Q362 432 354 442T327 452Z" />
<glyph unicode="&#xec;" glyph-name="igrave" horiz-adv-x="309" d="M85 -11Q49 -11 29 6T22 70L130 434H54L75 510L299 538L312 530L177 84H264L242 19Q229 13 211 8T172 -1T129 -8T85 -11ZM366 653L428 758L612 637L575 574L366 653Z" />
<glyph unicode="&#xed;" glyph-name="iacute" horiz-adv-x="309" d="M380 637L595 759L630 649L400 574L380 637ZM85 -11Q49 -11 29 6T22 70L130 434H54L75 510L299 538L312 530L177 84H264L242 19Q229 13 211 8T172 -1T129 -8T85 -11Z" />
<glyph unicode="&#xee;" glyph-name="icircumflex" horiz-adv-x="309" d="M339 619L484 748H558L645 614L607 575L504 643L366 575L339 619ZM85 -11Q49 -11 29 6T22 70L130 434H54L75 510L299 538L312 530L177 84H264L242 19Q229 13 211 8T172 -1T129 -8T85 -11Z" />
<glyph unicode="&#xef;" glyph-name="idieresis" horiz-adv-x="309" d="M404 598Q372 598 352 617T331 664Q331 700 356 720T414 741Q446 741 466 723T487 676Q487 640 462 619T404 598ZM598 598Q566 598 546 617T526 664Q526 700 551 720T608 741Q641 741 661
723T681 676Q681 640 657 619T598 598ZM85 -11Q49 -11 29 6T22 70L130 434H54L75 510L299 538L312 530L177 84H264L242 19Q229 13 211 8T172 -1T129 -8T85 -11Z" />
<glyph unicode="&#xf0;" glyph-name="eth" horiz-adv-x="557" d="M272 630Q256 643 239 655T204 679L266 754Q342 724 400 682L507 726L527 673L450 641Q499 593 526 532T554 388Q554 307 530 235T461 107T355 20T221 -12Q170 -12 131 3T65 44T26 105T12 180Q12
258 38 320T106 426T197 493T295 517Q348 517 372 500H377Q357 548 318 588L178 531L158 584L272 630ZM235 79Q268 79 296 104T345 171T378 267T390 380Q390 388 390 393T389 404Q377 419 361 426T320 434Q288 434 260 409T212 343T179 255T167 161Q167 120 185
100T235 79Z" />
<glyph unicode="&#xf1;" glyph-name="ntilde" horiz-adv-x="604" d="M385 -11Q346 -11 327 8T322 70L410 348Q414 361 416 371T419 390Q419 416 394 416Q377 416 358 406T318 380T277 342T238 297L147 0H-4L126 434H54L75 510L279 538L292 530L254 397H259Q312
466 369 502T486 539Q505 539 522 534T552 516T574 486T582 441Q582 412 570 373L478 84H559L537 19Q524 13 506 8T468 -1T426 -8T385 -11ZM225 625Q252 670 284 697T356 725Q373 725 387 720T415 709T440 698T463 693Q496 693 523 729L577 692Q551 647 518 620T446
592Q429 592 415 597T387 608T362 619T339 624Q306 624 279 588L225 625Z" />
<glyph unicode="&#xf2;" glyph-name="ograve" horiz-adv-x="561" d="M238 78Q275 78 304 107T353 180T383 272T394 362Q394 402 378 425T329 449Q291 449 262 420T213 347T182 254T171 165Q171 125 187 102T238 78ZM223 -12Q125 -12 69 41T13 186Q13 243 35 305T99
420T203 505T344 539Q395 539 434 525T499 484T539 421T553 341Q553 284 532 222T468 107T365 22T223 -12ZM234 653L296 758L480 637L443 574L234 653Z" />
<glyph unicode="&#xf3;" glyph-name="oacute" horiz-adv-x="561" d="M248 637L463 759L498 649L268 574L248 637ZM238 78Q275 78 304 107T353 180T383 272T394 362Q394 402 378 425T329 449Q291 449 262 420T213 347T182 254T171 165Q171 125 187 102T238 78ZM223
-12Q125 -12 69 41T13 186Q13 243 35 305T99 420T203 505T344 539Q395 539 434 525T499 484T539 421T553 341Q553 284 532 222T468 107T365 22T223 -12Z" />
<glyph unicode="&#xf4;" glyph-name="ocircumflex" horiz-adv-x="561" d="M208 619L353 748H427L514 614L476 575L373 643L235 575L208 619ZM238 78Q275 78 304 107T353 180T383 272T394 362Q394 402 378 425T329 449Q291 449 262 420T213 347T182 254T171 165Q171
125 187 102T238 78ZM223 -12Q125 -12 69 41T13 186Q13 243 35 305T99 420T203 505T344 539Q395 539 434 525T499 484T539 421T553 341Q553 284 532 222T468 107T365 22T223 -12Z" />
<glyph unicode="&#xf5;" glyph-name="otilde" horiz-adv-x="561" d="M238 78Q275 78 304 107T353 180T383 272T394 362Q394 402 378 425T329 449Q291 449 262 420T213 347T182 254T171 165Q171 125 187 102T238 78ZM223 -12Q125 -12 69 41T13 186Q13 243 35 305T99
420T203 505T344 539Q395 539 434 525T499 484T539 421T553 341Q553 284 532 222T468 107T365 22T223 -12ZM197 625Q224 670 256 697T328 725Q345 725 359 720T387 709T412 698T435 693Q468 693 495 729L549 692Q523 647 490 620T418 592Q401 592 387 597T359 608T334
619T311 624Q278 624 251 588L197 625Z" />
<glyph unicode="&#xf6;" glyph-name="odieresis" horiz-adv-x="561" d="M268 598Q236 598 216 617T195 664Q195 700 220 720T278 741Q310 741 330 723T351 676Q351 640 326 619T268 598ZM462 598Q430 598 410 617T390 664Q390 700 415 720T472 741Q505 741 525
723T545 676Q545 640 521 619T462 598ZM238 78Q275 78 304 107T353 180T383 272T394 362Q394 402 378 425T329 449Q291 449 262 420T213 347T182 254T171 165Q171 125 187 102T238 78ZM223 -12Q125 -12 69 41T13 186Q13 243 35 305T99 420T203 505T344 539Q395
539 434 525T499 484T539 421T553 341Q553 284 532 222T468 107T365 22T223 -12Z" />
<glyph unicode="&#xf7;" glyph-name="divide" horiz-adv-x="536" d="M291 71Q255 71 232 95T208 151Q208 184 231 207T291 231Q327 231 351 208T375 151Q375 119 351 95T291 71ZM73 390H510V290H73V390ZM291 449Q255 449 232 472T208 528Q208 561 231 585T291
609Q327 609 351 585T375 528Q375 496 351 473T291 449Z" />
<glyph unicode="&#xf8;" glyph-name="oslash" horiz-adv-x="561" d="M-13 3L48 66Q31 90 22 120T13 186Q13 243 35 305T99 420T203 505T344 539Q382 539 413 531T469 508L522 563L570 519L516 464Q553 413 553 341Q553 284 532 222T468 107T365 22T223 -12Q147
-12 94 22L34 -40L-13 3ZM238 77Q274 77 303 103T352 168T385 254T400 342L176 108Q195 77 238 77ZM329 450Q293 450 264 424T213 359T180 274T164 188L387 422Q368 450 329 450Z" />
<glyph unicode="&#xf9;" glyph-name="ugrave" horiz-adv-x="601" d="M124 -12Q83 -12 54 10T25 83Q25 112 37 154L124 434H54L75 510L292 538L304 530L196 174Q192 160 190 150T188 131Q188 104 213 104Q228 104 246 113T283 137T321 171T359 211L456 527H607L476
84H557L535 19Q522 13 504 8T466 -1T425 -8T384 -11Q320 -11 329 49Q329 52 331 61T336 80T341 101T345 115H340Q289 56 235 22T124 -12ZM265 653L327 758L511 637L474 574L265 653Z" />
<glyph unicode="&#xfa;" glyph-name="uacute" horiz-adv-x="601" d="M279 637L494 759L529 649L299 574L279 637ZM124 -12Q83 -12 54 10T25 83Q25 112 37 154L124 434H54L75 510L292 538L304 530L196 174Q192 160 190 150T188 131Q188 104 213 104Q228 104 246
113T283 137T321 171T359 211L456 527H607L476 84H557L535 19Q522 13 504 8T466 -1T425 -8T384 -11Q320 -11 329 49Q329 52 331 61T336 80T341 101T345 115H340Q289 56 235 22T124 -12Z" />
<glyph unicode="&#xfb;" glyph-name="ucircumflex" horiz-adv-x="601" d="M238 619L383 748H457L544 614L506 575L403 643L265 575L238 619ZM124 -12Q83 -12 54 10T25 83Q25 112 37 154L124 434H54L75 510L292 538L304 530L196 174Q192 160 190 150T188 131Q188
104 213 104Q228 104 246 113T283 137T321 171T359 211L456 527H607L476 84H557L535 19Q522 13 504 8T466 -1T425 -8T384 -11Q320 -11 329 49Q329 52 331 61T336 80T341 101T345 115H340Q289 56 235 22T124 -12Z" />
<glyph unicode="&#xfc;" glyph-name="udieresis" horiz-adv-x="601" d="M300 598Q268 598 248 617T227 664Q227 700 252 720T310 741Q342 741 362 723T383 676Q383 640 358 619T300 598ZM494 598Q462 598 442 617T422 664Q422 700 447 720T504 741Q537 741 557
723T577 676Q577 640 553 619T494 598ZM124 -12Q83 -12 54 10T25 83Q25 112 37 154L124 434H54L75 510L292 538L304 530L196 174Q192 160 190 150T188 131Q188 104 213 104Q228 104 246 113T283 137T321 171T359 211L456 527H607L476 84H557L535 19Q522 13 504
8T466 -1T425 -8T384 -11Q320 -11 329 49Q329 52 331 61T336 80T341 101T345 115H340Q289 56 235 22T124 -12Z" />
<glyph unicode="&#xfd;" glyph-name="yacute" horiz-adv-x="519" d="M-18 -110Q17 -107 50 -89T114 -45Q117 33 117 105T117 239T112 351T104 434H35L55 510Q84 521 117 529T181 538Q217 538 233 525T254 476Q258 440 260 393T261 293T258 189T252 91H256Q288
134 317 181T369 275T407 362T429 434H351L370 504Q395 519 424 529T487 539Q514 539 530 524T546 476Q546 428 522 363T457 229T366 92T260 -29Q175 -113 104 -156T-41 -199Q-92 -199 -114 -179T-137 -122Q-136 -98 -122 -77T-94 -46H-4L-18 -110ZM230 637L445
759L480 649L250 574L230 637Z" />
<glyph unicode="&#xfe;" glyph-name="thorn" horiz-adv-x="576" d="M-116 -128L-44 -114L173 630L103 637L126 717L345 752L359 744L264 423H270Q310 472 355 505T457 539Q511 539 543 501T575 394Q575 312 551 239T482 110T376 21T241 -12Q216 -12 188 -8T143
6L109 -113L185 -128L165 -200H-137L-116 -128ZM238 78Q279 78 311 104T366 169T400 256T412 345Q412 378 403 397T370 416Q339 416 305 387T234 314L172 100Q186 89 200 84T238 78Z" />
<glyph unicode="&#xff;" glyph-name="ydieresis" horiz-adv-x="519" d="M-18 -110Q17 -107 50 -89T114 -45Q117 33 117 105T117 239T112 351T104 434H35L55 510Q84 521 117 529T181 538Q217 538 233 525T254 476Q258 440 260 393T261 293T258 189T252 91H256Q288
134 317 181T369 275T407 362T429 434H351L370 504Q395 519 424 529T487 539Q514 539 530 524T546 476Q546 428 522 363T457 229T366 92T260 -29Q175 -113 104 -156T-41 -199Q-92 -199 -114 -179T-137 -122Q-136 -98 -122 -77T-94 -46H-4L-18 -110ZM503 598Q471
598 451 617T430 664Q430 700 455 720T513 741Q545 741 565 723T586 676Q586 640 561 619T503 598ZM697 598Q665 598 645 617T625 664Q625 700 650 720T707 741Q740 741 760 723T780 676Q780 640 756 619T697 598Z" />
<glyph unicode="&#x131;" glyph-name="dotlessi" horiz-adv-x="309" d="M85 -11Q49 -11 29 6T22 70L130 434H54L75 510L299 538L312 530L177 84H264L242 19Q229 13 211 8T172 -1T129 -8T85 -11Z" />
<glyph unicode="&#x141;" glyph-name="Lslash" horiz-adv-x="580" d="M37 314L116 340L180 596L110 614L130 693H457L437 614L351 597L301 397L481 457L456 356L276 296L226 96H391L472 246H568L500 0H-43L-23 80L56 97L91 239L13 213L37 314Z" />
<glyph unicode="&#x142;" glyph-name="lslash" horiz-adv-x="316" d="M36 362L117 399L183 630L110 637L132 717L355 752L369 744L291 477L375 515L350 418L263 378L178 84H268L246 19Q232 13 214 8T174 -1T131 -8T86 -11Q68 -11 53 -7T29 6T18 31T22 70L88 300L12
265L36 362Z" />
<glyph unicode="&#x152;" glyph-name="OE" horiz-adv-x="947" d="M967 495H876L861 600H690L639 399H712L749 473H823L770 235H699L694 311H617L563 94H757L830 223H923L862 0H325Q186 0 111 60T36 242Q36 330 63 412T143 556T273 655T450 693H993L967 495ZM450
595Q405 595 371 581T305 533Q284 511 267 476T236 400T216 316T209 232Q209 156 245 127T351 98H396L520 595H450Z" />
<glyph unicode="&#x153;" glyph-name="oe" horiz-adv-x="851" d="M223 -12Q125 -12 69 41T13 186Q13 243 35 305T99 420T201 505T338 539Q403 539 444 512T504 439Q547 486 601 512T713 539Q747 539 777 532T829 511T863 474T876 420Q876 331 790 283T527 215Q526
209 526 203T526 191Q526 144 547 118T623 92Q664 92 708 105T789 138L770 57Q739 31 689 10T578 -12Q515 -12 477 12T421 78Q383 36 333 12T223 -12ZM238 78Q275 78 304 107T353 180T383 272T394 362Q394 402 378 425T329 449Q291 449 262 420T213 347T182 254T171
165Q171 125 187 102T238 78ZM691 452Q669 452 647 439T604 404T568 351T541 287Q637 301 682 332T727 416Q727 432 719 442T691 452Z" />
<glyph unicode="&#x160;" glyph-name="Scaron" horiz-adv-x="531" d="M549 841L408 731H334L243 847L279 886L385 834L523 886L549 841ZM202 -10Q127 -10 72 4T-17 35L16 200H115L122 115Q139 104 157 97T211 90Q268 90 298 116T329 188Q329 219 308 241T244 287L203
310Q154 338 123 377T92 480Q92 523 107 563T156 634T241 685T366 704Q405 704 434 701T486 693T526 682T559 668L538 515H441L431 585Q420 593 404 599T353 606Q305 606 278 583T250 521Q250 493 267 473T327 429L367 406Q395 391 419 374T461 337T489 292T499
234Q499 184 480 140T423 62T330 10T202 -10Z" />
<glyph unicode="&#x161;" glyph-name="scaron" horiz-adv-x="431" d="M428 714L467 754L569 686L708 754L735 709L589 580H515L428 714ZM163 -12Q126 -12 93 -6T34 13T-5 44T-20 87Q-20 114 -6 132T21 159H117L103 91Q112 84 126 79T163 74Q208 74 228 91T249
134Q249 160 230 176T173 215Q125 243 96 276T67 363Q67 400 83 432T128 488T198 525T288 539Q322 539 351 533T402 516T436 488T449 449Q449 428 438 409T413 376H320L333 440Q323 447 310 451T278 455Q241 455 222 438T203 394Q203 382 207 373T222 354T250 335T292
309Q314 295 332 282T364 252T384 216T391 170Q391 128 374 95T326 37T254 1T163 -12Z" />
<glyph unicode="&#x178;" glyph-name="Ydieresis" horiz-adv-x="650" d="M375 731Q343 731 323 749T302 796Q302 833 327 853T385 874Q417 874 437 856T458 809Q458 773 434 752T375 731ZM570 731Q538 731 518 749T497 796Q497 833 522 853T579 874Q612 874 632
856T652 809Q652 773 628 752T570 731ZM124 80L206 97L255 292L155 596L104 614L124 693H406L386 614L327 597L389 385H393L553 597L501 614L521 693H750L730 614L671 596L423 282L377 97L449 80L429 0H104L124 80Z" />
<glyph unicode="&#x17d;" glyph-name="Zcaron" horiz-adv-x="578" d="M584 841L443 731H369L278 847L314 886L420 834L558 886L584 841ZM-17 96L441 592V596H253L188 479H92L150 693H665L641 597L183 101V97H386L461 228H555L492 0H-41L-17 96Z" />
<glyph unicode="&#x17e;" glyph-name="zcaron" horiz-adv-x="495" d="M450 714L489 754L591 686L730 754L757 709L611 580H537L450 714ZM60 -8Q15 -7 -6 9T-27 51Q-27 75 -9 96T34 140L305 371Q282 380 260 390T219 411T184 431T160 447L136 367H66Q57 383 57
404Q57 435 67 460T97 502T141 529T196 539Q250 539 305 519T410 467L442 535Q476 533 500 522T525 486Q525 462 510 441T459 390L181 156Q234 148 282 133T365 103V170H461Q459 134 450 101T423 43T380 3T320 -12Q291 -12 260 -4T200 16T144 43T96 70H91L60 -8V-8Z"
/>
<glyph unicode="&#x192;" glyph-name="florin" horiz-adv-x="418" d="M180 528Q204 623 257 662T390 701Q432 701 456 694T497 678L481 590Q468 593 457 594T429 596Q389 596 369 577T335 507L312 416H426L404 324H290L199 -39Q180 -114 133 -148T18 -183Q-17
-183 -42 -176T-77 -163L-62 -76Q-54 -78 -46 -79T-26 -81Q3 -81 19 -66T45 -13L129 324H53L75 416H153L180 528V528Z" />
<glyph unicode="&#x2c6;" glyph-name="circumflex" horiz-adv-x="495" d="M188 619L333 748H407L494 614L456 575L353 643L215 575L188 619Z" />
<glyph unicode="&#x2c7;" glyph-name="caron" horiz-adv-x="495" d="M209 714L248 754L350 686L489 754L516 709L370 580H296L209 714Z" />
<glyph unicode="&#x2d8;" glyph-name="breve" horiz-adv-x="495" d="M351 584Q316 584 290 595T248 625T224 671T219 726H308Q310 680 361 680Q385 680 403 691T429 726H519Q506 664 462 624T351 584Z" />
<glyph unicode="&#x2d9;" glyph-name="dotaccent" horiz-adv-x="495" d="M345 597Q310 597 289 616T267 666Q267 685 274 701T294 727T323 744T356 750Q391 750 413 731T435 680Q435 660 428 645T408 619T379 603T345 597Z" />
<glyph unicode="&#x2da;" glyph-name="ring" horiz-adv-x="495" d="M353 630Q375 630 389 643T403 683Q403 702 392 714T359 727Q337 727 323 713T308 675Q308 655 319 643T353 630ZM350 575Q302 575 274 604T246 673Q246 696 255 716T280 750T317 773T362 782Q386
782 405 774T437 753T458 723T465 686Q465 662 456 642T431 607T395 584T350 575Z" />
<glyph unicode="&#x2db;" glyph-name="ogonek" horiz-adv-x="522" d="M166 -198Q112 -198 86 -178T61 -124Q61 -101 73 -82T104 -48T146 -21T191 0H266Q239 -23 215 -47T191 -100Q191 -128 225 -128Q233 -128 241 -127T255 -125L241 -185Q226 -191 208 -194T166 -198Z" />
<glyph unicode="&#x2dc;" glyph-name="tilde" horiz-adv-x="495" d="M175 625Q202 670 234 697T306 725Q323 725 337 720T365 709T390 698T413 693Q446 693 473 729L527 692Q501 647 468 620T396 592Q379 592 365 597T337 608T312 619T289 624Q256 624 229 588L175 625Z" />
<glyph unicode="&#x2dd;" glyph-name="hungarumlaut" horiz-adv-x="495" d="M193 605L314 773L402 701L239 568L193 605ZM378 609L509 773L592 695L423 569L378 609Z" />
</font>
</defs>
</svg>
