<?xml version="1.0" encoding="utf-8"?><svg xmlns="http://www.w3.org/2000/svg" xmlns:xlink="http://www.w3.org/1999/xlink" version="1.1" class="page" pageAlignment="none" x="0px" y="0px" width="13px" height="26px" viewBox="0 0 13 26" enable-background="new 0 0 13 26" xml:space="preserve" bodyBackgroundColor="rgba(255,255,255,0)"><defs/><style type="text/css"><![CDATA[]]></style><style type="text/css"><![CDATA[svg{ background-color:rgba(255,255,255,0);}
]]></style><g type="LAYER" name="workspace" id="workspace"/><g type="LAYER" name="Layer 01" id="Layer 01"><path transform="matrix(1 0 0 1 -0.16510176390774234 -0.24296638703418383)" width="13.000000000000004" height="13.000000000000002" stroke-width="0.36174736627832815" stroke-miterlimit="3" stroke="none" fill="#010202" opacity="0.14" d="M0.16510176390773523,5.442076128516806 L3.8721302578018957,8.274581977971808 L2.455359565807324,12.859784283513099 L2.9545454545454533,13.242966387034185 L6.665454545454541,10.408234891285739 L10.375305291723205,13.242966387034185 L10.874843962008136,12.859784283513099 L9.457720488466762,8.274581977971808 L13.165101763907739,5.442076128516806 L12.973188602442335,4.8222336357929585 L8.39090909090909,4.8222336357929585 L6.976255088195391,0.2429663870341836 L6.353948439620083,0.2429663870341836 L4.938941655359567,4.8222336357929585 L0.3566621438263198,4.8222336357929585 Z "/><path transform="matrix(1 0 0 1 -0.16510176390774234 12.757033612965818)" width="12.999999999999996" height="13" stroke-width="0.36174736627832804" stroke-miterlimit="3" stroke="none" fill="#FBBA0F" d="M0.16510176390774234,5.442076128516801 L3.87213025780191,8.274581977971808 L2.455359565807335,12.859784283513092 L2.9545454545454604,13.242966387034182 L6.665454545454555,10.408234891285735 L10.375305291723212,13.242966387034182 L10.87484396200814,12.859784283513092 L9.457720488466766,8.274581977971808 L13.165101763907739,5.442076128516801 L12.973188602442345,4.822233635792957 L8.390909090909094,4.822233635792957 L6.976255088195391,0.2429663870341816 L6.353948439620087,0.2429663870341816 L4.938941655359574,4.822233635792957 L0.35666214382633044,4.822233635792957 Z "/></g></svg>
