<svg xmlns="http://www.w3.org/2000/svg" width="14" height="27"><path fill="#010202" opacity=".14" d="m0,5.199l3.707,2.833l-1.417,4.585l0.499,0.383l3.711,-2.835l3.71,2.835l0.5,-0.383l-1.417,-4.585l3.707,-2.833l-0.192,-0.62l-4.582,0l-1.415,-4.579l-0.622,0l-1.415,4.579l-4.582,0l-0.192,0.62z"/><path fill="#FBBA0F" d="m0,19.024931l3.707,2.833l-1.417,4.585001l0.499,0.382999l3.711,-2.834999l3.71,2.834999l0.5,-0.382999l-1.417,-4.585001l3.707,-2.833l-0.192,-0.619999l-4.582,0l-1.415,-4.579l-0.622,0l-1.415,4.579l-4.582,0l-0.192,0.619999z"/></svg>