<svg xmlns="http://www.w3.org/2000/svg" width="165.5" height="106" viewBox="0 0 165.5 106"><path d="M150.7 0H13.1a75.8 75.8 0 0 0-4.5.3 10.5 10.5 0 0 0-3 1 10 10 0 0 0-4.3 4.3 10.5 10.5 0 0 0-1 3c-.2 1-.2 2-.3 3.1a70.2 70.2 0 0 0 0 1.4v78a481.1 481.1 0 0 0 0 3.2l.3 3a10.5 10.5 0 0 0 1 3A9.9 9.9 0 0 0 3 103a9.9 9.9 0 0 0 2.5 1.8c1 .5 2 .8 3 1a21 21 0 0 0 4.5.3H152.4a76.2 76.2 0 0 0 4.5-.3 10.5 10.5 0 0 0 3-1 10 10 0 0 0 4.3-4.4c.5-1 .8-1.9 1-3a20.6 20.6 0 0 0 .3-4.5v-78-1.7a63 63 0 0 0 0-1.4c0-1 0-2-.3-3.1a10.4 10.4 0 0 0-1-3 10 10 0 0 0-4.3-4.3 10.5 10.5 0 0 0-3-1l-3-.3a71.4 71.4 0 0 0-1.5 0h-1.7z"/><path fill="#FFF" d="M150.7 3.5h1.7a68.9 68.9 0 0 1 4 .3 7 7 0 0 1 1.9.6 6.4 6.4 0 0 1 2.8 2.8c.3.6.5 1.3.6 2a17.5 17.5 0 0 1 .3 4v79.6a60.8 60.8 0 0 1-.3 4 6.9 6.9 0 0 1-.6 2 6.4 6.4 0 0 1-2.8 2.7 7 7 0 0 1-2 .7 18 18 0 0 1-4 .2H13.2a75 75 0 0 1-1.3 0c-.8 0-1.7 0-2.6-.2a7 7 0 0 1-2-.7 6.3 6.3 0 0 1-1.6-1.1 6.4 6.4 0 0 1-1.2-1.7 7 7 0 0 1-.6-2c-.2-.8-.2-1.7-.2-2.5a66 66 0 0 1 0-1.4V13.1a66.7 66.7 0 0 1 0-1.3c0-.8 0-1.7.2-2.6a7 7 0 0 1 .6-2c.3-.6.7-1.1 1.2-1.6a6.4 6.4 0 0 1 1.6-1.2 7 7 0 0 1 2-.6 17.8 17.8 0 0 1 4-.3h137.5"/><path d="M43.5 35.8a9.1 9.1 0 0 0 2.1-6.5 9 9 0 0 0-8.2 9.3c2.4.2 4.7-1.1 6.1-2.8m2 3.3c-3.3-.2-6.1 1.9-7.7 1.9-1.6 0-4-1.8-6.7-1.8-3.5 0-6.7 2-8.4 5.1-3.6 6.2-1 15.4 2.5 20.5 1.7 2.5 3.8 5.2 6.5 5.1 2.5 0 3.5-1.6 6.6-1.6 3.1 0 4 1.6 6.7 1.6 2.8 0 4.6-2.5 6.3-5 2-2.9 2.7-5.6 2.8-5.8 0 0-5.4-2-5.5-8.2 0-5.2 4.2-7.6 4.4-7.8a9.6 9.6 0 0 0-7.4-4M79 32c7.3 0 12.3 5 12.3 12.3 0 7.4-5.2 12.4-12.5 12.4h-8v12.8h-5.9V32.1h14zM70.7 52h6.7c5 0 8-2.7 8-7.4 0-4.8-3-7.5-8-7.5h-6.7v15zm22 10c0-4.9 3.7-7.6 10.5-8l7.2-.5v-2c0-3-2-4.8-5.5-4.8-3 0-5 1.5-5.5 3.9H94c.2-4.9 4.7-8.4 11-8.4 6.6 0 11 3.4 11 8.9v18.6h-5.5v-4.5c-1.6 3-5 4.8-8.7 4.8-5.4 0-9.1-3.2-9.1-8zm17.7-2.5v-2l-6.4.3c-3.7.3-5.6 1.6-5.6 4 0 2.3 2 3.8 5.1 3.8 4 0 7-2.6 7-6zM121 79.7v-4.5h1.7c2.6 0 4-1 4.9-3.8l.5-1.7-9.8-27.3h6l7 22.2 7-22.2h5.8L134 71.1c-2.3 6.6-5 8.7-10.7 8.7l-2.2-.1z"/></svg>