<svg width="215" height="244" viewBox="0 0 215 244" fill="none"
xmlns="http://www.w3.org/2000/svg">
<path d="M98.4401 149.209L32.5955 111.137C25.9877 107.323 20.6238 110.437 20.6238
118.067V194.209C20.6238 201.839 25.9877 211.181 32.5955 214.996L98.4401
253.067C105.048 256.882 110.412 253.768 110.412 246.138V169.996C110.412 162.366
105.048 153.024 98.4401 149.209Z" fill="#4BA6DD"/>
<path d="M137.183 113.355L203.028 75.2837C209.636 71.4688 215 74.583 215
82.2128V158.355C215 165.985 209.636 175.328 203.028 179.142L137.183 217.214C130.575
221.029 125.211 217.914 125.211 210.285V134.142C125.211 126.512 130.575 117.17
137.183 113.355Z" fill="#FAE44C"/>
<path d="M73.2901 30.2183L7.39715 68.2058C0.789459 72.0208 0.80448 78.2233 7.41209
82.0382L73.3533 120.109C79.9609 123.924 90.7338 123.95 97.3415 120.135L163.234
82.1477C169.842 78.3326 169.827 72.1302 163.22 68.3153L97.2783 30.2441C90.6707
26.4292 79.8978 26.4032 73.2901 30.2183Z" fill="#1955A6"/>
</svg>
