<svg width="623" height="327" viewBox="0 0 623 327" fill="none"
xmlns="http://www.w3.org/2000/svg">
<path d="M123.067 206.892L18.9333 146.582C8.48311 140.538 0 145.472 0
157.558V278.178C0 290.265 8.48311 305.065 18.9333 311.108L123.067 371.418C133.517
377.462 142 372.528 142 360.442V239.822C142 227.735 133.517 212.935 123.067 206.892Z"
fill="#4BA6DD"/>
<path d="M265.667 149.583L203.333 185.495C197.078 189.093 192 197.906 192
205.103V276.927C192 284.124 197.078 287.061 203.333 283.463L265.667 247.551C271.922
243.952 277 235.14 277 227.943V156.119C277 148.848 271.922 145.911 265.667 149.583Z"
fill="#FAE44C"/>
<path d="M187.749 66.0643L131.269 33.451C125.601 30.183 116.399 30.183 110.731
33.451L54.251 66.0643C48.583 69.3323 48.583 74.6678 54.251 77.9357L110.731
110.549C116.399 113.817 125.601 113.817 131.269 110.549L187.749 77.9357C193.417
74.6678 193.417 69.3323 187.749 66.0643Z" fill="#1955A6"/>
<path d="M478.733 40.2413L389.267 92.1553C380.288 97.3574 373 110.097 373
120.501V224.329C373 234.733 380.288 238.98 389.267 233.778L478.733 181.864C487.712
176.662 495 163.922 495 153.518V49.6898C495 39.1796 487.712 35.0392 478.733 40.2413Z"
fill="#1955A6"/>
<path d="M617.641 281.044L546.445 240.079C539.3 235.974 527.7 235.974 520.555
240.079L449.359 281.044C442.214 285.149 442.214 291.851 449.359 295.956L520.555
336.921C527.7 341.026 539.3 341.026 546.445 336.921L617.641 295.956C624.786 291.851
624.786 285.149 617.641 281.044Z" fill="#FAE44C"/>
<path fill-rule="evenodd" clip-rule="evenodd" d="M261 0V65.1741C261 72.8465 266.377
82.2413 273 86.0775L338.999 124.361C345.623 128.197 350.999 125.066 350.999
117.393V40.8259C351.077 33.1535 345.701 23.7587 339.077 19.9225L304.691 0H261Z"
fill="#4BA6DD"/>
</svg>
