<?xml version="1.0" encoding="utf-8"?>
<!-- Generator: Adobe Illustrator 15.0.2, SVG Export Plug-In . SVG Version: 6.00 Build 0)  -->
<!DOCTYPE svg PUBLIC "-//W3C//DTD SVG 1.1//EN" "http://www.w3.org/Graphics/SVG/1.1/DTD/svg11.dtd">
<svg version="1.1" id="Layer_1" xmlns="http://www.w3.org/2000/svg" xmlns:xlink="http://www.w3.org/1999/xlink" x="0px" y="0px"
	 width="24px" height="12px" viewBox="0 0 24 12" enable-background="new 0 0 24 12" xml:space="preserve">
<g>
	<path fill="#A5A5A5" d="M24,5.739c0,4.229-4.033,6.171-8.884,6.262v-0.168c4.609-0.241,7.292-2.638,7.17-5.744
		c-0.895,1.667-2.394,2.562-4.638,2.562c-2.835,0-4.7-1.471-4.7-4.093c0-2.562,2.26-4.229,5.261-4.229
		C21.923,0.328,24,2.42,24,5.739z M12.054,5.739c0,4.229-4.015,6.171-8.882,6.262v-0.168c4.607-0.241,7.291-2.638,7.186-5.744
		C9.447,7.756,7.947,8.65,5.719,8.65c-2.85,0-4.715-1.471-4.715-4.093c0-2.562,2.258-4.229,5.26-4.229
		C9.994,0.328,12.054,2.42,12.054,5.739z"/>
</g>
</svg>
