<svg xmlns="http://www.w3.org/2000/svg" width="50" height="50" viewBox="0 0 50 50">
  <g fill="none" fill-rule="evenodd">
    <circle cx="25" cy="25" r="25" fill="#FFE500"/>
    <path fill="#121212" d="M13.1817636,29.4317939 L17.6135882,29.4317939 L23.8181426,35.6363483 L24.9999625,35.6363483 L24.9999625,14.3635903 L23.8181426,14.3635903 L17.6135882,20.5681447 L13.1817636,20.5681447 L11.9999437,21.7499646 L11.9999437,28.249974 L13.1817636,29.4317939 Z M35.9908874,24.9999693 C35.9908874,28.190883 34.897704,31.1158872 33.0363377,33.479527 L33.6863386,34.0999824 C36.3158879,31.9431611 37.9999812,28.6931564 37.9999812,24.9999693 C37.9999812,21.3067821 36.3158879,18.0272319 33.6863386,15.8704107 L33.0363377,16.4908661 C34.897704,18.8545059 35.9908874,21.7795101 35.9908874,24.9999693 Z M29.845424,24.9999693 C29.845424,26.8613356 29.3431506,28.5158835 28.3386036,29.9636128 L29.1067866,30.7317957 C30.6136069,29.2249754 31.4999718,27.2454271 31.4999718,24.9999693 C31.4999718,22.724966 30.6136069,20.7454177 29.1067866,19.2385973 L28.3386036,20.0067803 C29.3431506,21.4545096 29.845424,23.138603 29.845424,24.9999693 Z"/>
  </g>
</svg>
