<svg xmlns="http://www.w3.org/2000/svg" xmlns:xlink="http://www.w3.org/1999/xlink" width="50" height="50" viewBox="0 0 50 50">
  <defs>
    <path id="audio-icon-a" d="M5.6666628,21.2499507 L9.9166483,21.2499507 L15.866628,27.1999304 L16.9999575,27.1999304 L16.9999575,6.8 L15.866628,6.8 L9.9166483,12.7499797 L5.6666628,12.7499797 L4.53333333,13.8833092 L4.53333333,20.1166212 L5.6666628,21.2499507 Z M27.5399215,16.9999652 C27.5399215,20.0599548 26.4915917,22.8649452 24.7065978,25.1316041 L25.329929,25.7266021 C27.8515871,23.6582758 29.4665816,20.5416198 29.4665816,16.9999652 C29.4665816,13.4583106 27.8515871,10.3133213 25.329929,8.24499507 L24.7065978,8.83999304 C26.4915917,11.106652 27.5399215,13.9116424 27.5399215,16.9999652 Z M21.6466083,16.9999652 C21.6466083,18.7849591 21.1649432,20.3716204 20.2016132,21.759949 L20.9382774,22.4966131 C22.3832724,21.051618 23.2332695,19.1532912 23.2332695,16.9999652 C23.2332695,14.818306 22.3832724,12.9199791 20.9382774,11.474984 L20.2016132,12.2116482 C21.1649432,13.5999768 21.6466083,15.2149713 21.6466083,16.9999652 Z"/>
  </defs>
  <g fill="none" fill-rule="evenodd">
    <circle cx="25" cy="25" r="25" fill="#FFE500"/>
    <g transform="translate(8 8)">
      <mask id="audio-icon-b" fill="#fff">
        <use xlink:href="#audio-icon-a"/>
      </mask>
      <use fill="#333" xlink:href="#audio-icon-a"/>
      <g fill="#121212" mask="url(#audio-icon-b)">
        <rect width="34" height="34"/>
      </g>
    </g>
  </g>
</svg>
