<svg xmlns="http://www.w3.org/2000/svg" width="445" height="25" viewBox="0 0 445 25"><g fill="#8B8B8B"><path d="M.841 6.074H3.09v18.434H.841zM4.214 3.45h2.248v21.058H4.214zM7.586 4.279h2.249v20.229H7.586zM10.959 3.105h2.248v21.403h-2.248zM14.332 4.003h2.248v20.506h-2.248zM17.704 4.9h2.249v19.608h-2.249zM21.077 5.797h2.248v18.711h-2.248zM24.449 6.902h2.249v17.606h-2.249zM27.822 7.869h2.248v16.639h-2.248zM31.195 9.387h2.248v15.121h-2.248zM34.567 9.249h2.249v15.259h-2.249zM37.94 6.212h2.248v18.296H37.94zM41.312 6.971h2.249v17.537h-2.249zM44.685 7.731h2.248v16.777h-2.248zM48.058 8.076h2.248v16.432h-2.248zM51.43 8.214h2.249v16.294H51.43zM54.803 8.974h2.248v15.535h-2.248zM58.177 9.733h2.248v14.775h-2.248zM61.549 10.562h2.249v13.946h-2.249zM64.922 10.63h2.248v13.878h-2.248zM68.294 10.354h2.249v14.154h-2.249zM71.667 11.114h2.248v13.395h-2.248zM75.04 11.942h2.248v12.566H75.04zM78.412 12.495h2.249v12.014h-2.249zM81.785 4.9h2.248v19.608h-2.248zM85.157 6.143h2.249v18.365h-2.249zM88.53 6.488h2.248v18.021H88.53zM91.903 5.867h2.248v18.641h-2.248zM95.275 3.726h2.249v20.782h-2.249zM98.648 4.348h2.248v20.16h-2.248zM102.02 5.038h2.249v19.47h-2.249zM105.393 5.867h2.248v18.641h-2.248zM108.766 6.765h2.248v17.744h-2.248zM112.138 7.11h2.249v17.398h-2.249zM115.511 2.138h2.248v22.37h-2.248zM118.884 2.691h2.249v21.817h-2.249zM122.257 2.276h2.248v22.232h-2.248zM125.63 3.381h2.248v21.127h-2.248zM129.002 4.14h2.249v20.368h-2.249zM132.375 5.384h2.248v19.125h-2.248zM135.747 4.348h2.249v20.16h-2.249zM139.12 2.138h2.248v22.37h-2.248zM142.493 1.724h2.248v22.784h-2.248zM145.865 2.483h2.249v22.025h-2.249zM149.238 1.24h2.248v23.268h-2.248zM152.61 2.001h2.249v22.507h-2.249zM155.983 1.724h2.248v22.784h-2.248zM159.356 2.691h2.248v21.817h-2.248zM162.728 3.45h2.249v21.058h-2.249zM166.101 4.693h2.248v19.816h-2.248zM169.474 5.521h2.248v18.987h-2.248zM172.846 7.317h2.249v17.191h-2.249zM176.219 8.49h2.248v16.018h-2.248zM179.592 7.455h2.249v17.054h-2.249zM182.965 2.967h2.248v21.541h-2.248zM186.338 4.348h2.248v20.16h-2.248zM189.71 5.453h2.249v19.055h-2.249zM193.083 6.143h2.248v18.365h-2.248zM196.455 6.558h2.249v17.951h-2.249zM199.828 6.833h2.248v17.675h-2.248zM203.201 7.731h2.248v16.777h-2.248zM206.573 2.415h2.249v22.094h-2.249zM209.946 2.622h2.248v21.887h-2.248zM213.318 3.45h2.249v21.058h-2.249zM216.691 4.348h2.248v20.16h-2.248zM220.064 5.314h2.248v19.194h-2.248zM223.436 4.969h2.249v19.539h-2.249zM226.809 5.867h2.248v18.641h-2.248zM230.181 5.59h2.249v18.918h-2.249zM233.554 6.281h2.248v18.228h-2.248zM236.927 6.902h2.248v17.606h-2.248zM240.3 7.731h2.249v16.777H240.3zM243.673 8.214h2.248v16.294h-2.248zM247.045 8.905h2.249v15.603h-2.249zM250.418 8.559h2.248v15.949h-2.248zM253.791 8.007h2.248v16.501h-2.248zM257.163 8.766h2.249v15.742h-2.249zM260.536 9.526h2.248v14.982h-2.248zM263.908 10.492h2.249v14.016h-2.249zM267.281 11.528h2.249v12.98h-2.249zM270.654 6.971h2.248v17.537h-2.248zM274.026 7.731h2.249v16.777h-2.249zM277.399 7.317h2.248v17.191h-2.248zM280.772 8.076h2.248v16.432h-2.248zM284.144 8.836h2.249v15.673h-2.249zM287.517 9.457h2.248v15.051h-2.248zM290.889 1.655h2.249v22.853h-2.249zM294.262 3.519h2.248v20.989h-2.248zM297.635 3.174h2.248v21.334h-2.248zM301.008 4.072h2.249v20.437h-2.249zM304.381 4.9h2.248v19.608h-2.248zM307.753 2.553h2.249v21.955h-2.249zM311.126 3.933h2.248v20.575h-2.248zM314.499 5.521h2.248v18.987h-2.248zM317.871 6.419h2.249v18.089h-2.249zM321.244 7.317h2.248v17.191h-2.248zM324.616 8.076h2.249v16.432h-2.249zM327.989 8.007h2.248v16.501h-2.248zM331.362 9.043h2.248v15.466h-2.248zM334.734 8.836h2.249v15.673h-2.249zM338.107 3.45h2.248v21.058h-2.248zM341.479 3.933h2.249v20.575h-2.249zM344.852 4.624h2.248v19.884h-2.248zM348.225 5.038h2.248v19.47h-2.248zM351.597 6.074h2.249v18.434h-2.249zM354.97 6.35h2.248v18.158h-2.248zM358.343 6.902h2.249v17.606h-2.249zM361.716 7.8h2.248v16.708h-2.248zM365.089 7.178h2.248v17.33h-2.248zM368.461 8.007h2.249v16.501h-2.249zM371.834 6.005h2.248v18.503h-2.248zM375.206 6.902h2.249v17.606h-2.249zM378.579 7.662h2.248v16.847h-2.248zM381.952 6.005h2.248v18.503h-2.248zM385.324 6.833h2.249v17.675h-2.249zM388.697 7.317h2.248v17.191h-2.248zM392.069 5.245h2.249v19.263h-2.249zM395.442 6.35h2.248v18.158h-2.248zM398.815 3.726h2.248v20.782h-2.248zM402.187 3.519h2.249v20.989h-2.249zM405.56 4.279h2.248v20.229h-2.248zM408.932 5.038h2.249v19.47h-2.249zM412.305 5.107h2.248v19.401h-2.248zM415.678 2.553h2.248v21.955h-2.248zM419.051.067h2.249v24.441h-2.249zM422.424 2.208h2.248v22.3h-2.248zM425.796 3.035h2.249v21.473h-2.249zM429.169 3.658h2.248v20.85h-2.248zM432.542 4.9h2.248v19.608h-2.248zM435.914.067h2.249v24.441h-2.249zM439.287.757h2.248v23.751h-2.248zM442.659 2.898h2.249v21.61h-2.249z"/></g></svg>