<svg xmlns="http://www.w3.org/2000/svg" width="227" height="24" viewBox="0 0 227 24">
    <g fill="#FFFFFF" fill-rule="nonzero">
        <path d="M-2.159 5.074H.09v18.434h-2.249zM1.214 2.45h2.248v21.058H1.214zM4.586 3.279h2.249v20.229H4.586zM7.959 2.105h2.248v21.403H7.959zM11.332 3.003h2.248v20.506h-2.248zM14.704 3.9h2.249v19.608h-2.249zM18.077 4.797h2.248v18.711h-2.248zM21.449 5.902h2.249v17.606h-2.249zM24.822 6.869h2.248v16.639h-2.248zM28.195 8.387h2.248v15.121h-2.248zM31.567 8.249h2.249v15.259h-2.249zM34.94 5.212h2.248v18.296H34.94zM38.312 5.971h2.249v17.537h-2.249zM41.685 6.731h2.248v16.777h-2.248zM45.058 7.076h2.248v16.432h-2.248zM48.43 7.214h2.249v16.294H48.43zM51.803 7.974h2.248v15.535h-2.248zM55.177 8.733h2.248v14.775h-2.248zM58.549 9.562h2.249v13.946h-2.249zM61.922 9.63h2.248v13.878h-2.248zM65.294 9.354h2.249v14.154h-2.249zM68.667 10.114h2.248v13.395h-2.248zM72.04 10.942h2.248v12.566H72.04zM75.412 11.495h2.249v12.014h-2.249zM78.785 3.9h2.248v19.608h-2.248zM82.157 5.143h2.249v18.365h-2.249zM85.53 5.488h2.248v18.021H85.53zM88.903 4.867h2.248v18.641h-2.248zM92.275 2.726h2.249v20.782h-2.249zM95.648 3.348h2.248v20.16h-2.248zM99.02 4.038h2.249v19.47H99.02zM102.393 4.867h2.248v18.641h-2.248zM105.766 5.765h2.248v17.744h-2.248zM109.138 6.11h2.249v17.398h-2.249zM112.511 1.138h2.248v22.37h-2.248zM115.884 1.691h2.249v21.817h-2.249zM119.257 1.276h2.248v22.232h-2.248zM122.63 2.381h2.248v21.127h-2.248zM126.002 3.14h2.249v20.368h-2.249zM129.375 4.384h2.248v19.125h-2.248zM132.747 3.348h2.249v20.16h-2.249zM136.12 1.138h2.248v22.37h-2.248zM139.493.724h2.248v22.784h-2.248zM142.865 1.483h2.249v22.025h-2.249zM146.238.24h2.248v23.268h-2.248zM149.61 1.001h2.249v22.507h-2.249zM152.983.724h2.248v22.784h-2.248zM156.356 1.691h2.248v21.817h-2.248zM159.728 2.45h2.249v21.058h-2.249zM163.101 3.693h2.248v19.816h-2.248zM166.474 4.521h2.248v18.987h-2.248zM169.846 6.317h2.249v17.191h-2.249zM173.219 7.49h2.248v16.018h-2.248zM176.592 6.455h2.249v17.054h-2.249zM179.965 1.967h2.248v21.541h-2.248zM183.338 3.348h2.248v20.16h-2.248zM186.71 4.453h2.249v19.055h-2.249zM190.083 5.143h2.248v18.365h-2.248zM193.455 5.558h2.249v17.951h-2.249zM196.828 5.833h2.248v17.675h-2.248zM200.201 6.731h2.248v16.777h-2.248zM203.573 1.415h2.249v22.094h-2.249zM206.946 1.622h2.248v21.887h-2.248zM210.318 2.45h2.249v21.058h-2.249zM213.691 3.348h2.248v20.16h-2.248zM217.064 4.314h2.248v19.194h-2.248zM220.436 3.969h2.249v19.539h-2.249zM223.809 4.867h2.248v18.641h-2.248z"/>
    </g>
</svg>
