<svg xmlns="http://www.w3.org/2000/svg" width="172" height="20" viewBox="0 0 172 20"><g fill="#8B8B8B"><path d="M.841 4.737H3.09v14.867H.841zM4.214 2.621h2.248v16.982H4.214zM7.586 3.289h2.249v16.314H7.586zM10.959 2.343h2.248v17.261h-2.248zM14.332 3.066h2.248v16.537h-2.248zM17.704 3.79h2.249v15.813h-2.249zM21.077 4.514h2.248v15.089h-2.248zM24.449 5.405h2.249v14.198h-2.249zM27.822 6.184h2.248v13.419h-2.248zM31.195 7.409h2.248v12.194h-2.248zM34.567 7.298h2.249v12.305h-2.249zM37.94 4.848h2.248v14.755H37.94zM41.312 5.46h2.249v14.143h-2.249zM44.685 6.073h2.248v13.53h-2.248zM48.058 6.351h2.248v13.252h-2.248zM51.43 6.463h2.249v13.14H51.43zM54.803 7.075h2.248v12.528h-2.248zM58.177 7.688h2.248v11.916h-2.248zM61.549 8.356h2.249v11.247h-2.249zM64.922 8.411h2.248v11.192h-2.248zM68.294 8.189h2.249v11.414h-2.249zM71.667 8.801h2.248v10.802h-2.248zM75.04 9.469h2.248v10.134H75.04zM78.412 9.915h2.249v9.688h-2.249zM81.785 3.79h2.248v15.813h-2.248zM85.157 4.792h2.249v14.811h-2.249zM88.53 5.07h2.248v14.533H88.53zM91.903 4.57h2.248v15.033h-2.248zM95.275 2.844h2.249v16.759h-2.249zM98.648 3.345h2.248v16.258h-2.248zM102.02 3.901h2.249v15.702h-2.249zM105.393 4.57h2.248v15.033h-2.248zM108.766 5.294h2.248v14.31h-2.248zM112.138 5.572h2.249v14.031h-2.249zM115.511 1.563h2.248v18.04h-2.248zM118.884 2.009h2.249v17.594h-2.249zM122.257 1.674h2.248v17.929h-2.248zM125.63 2.565h2.248v17.038h-2.248zM129.002 3.177h2.249v16.426h-2.249zM132.375 4.18h2.248v15.423h-2.248zM135.747 3.345h2.249v16.258h-2.249zM139.12 1.563h2.248v18.04h-2.248zM142.493 1.229h2.248v18.375h-2.248zM145.865 1.841h2.249v17.762h-2.249zM149.238.839h2.248v18.764h-2.248zM152.61 1.452h2.249v18.151h-2.249zM155.983 1.229h2.248v18.375h-2.248zM159.356 2.009h2.248v17.594h-2.248zM162.728 2.621h2.249v16.982h-2.249zM166.101 3.623h2.248v15.98h-2.248zM169.474 4.291h2.248v15.312h-2.248z"/></g></svg>