<svg xmlns="http://www.w3.org/2000/svg" width="222" height="20" viewBox="0 0 222 20"><path d="M.469 3.988h2.248v15.78H.469zm3.372.892H6.09v14.89H3.841zm3.373-2.12h2.248v17.01H7.214zm3.372.67h2.249v16.34h-2.249zm3.373-.947h2.248V19.77h-2.248zm3.373.725h2.248V19.77h-2.248zm3.372.724h2.249v15.837h-2.249zm3.373.725h2.248V19.77h-2.248zm3.372.892h2.249v14.22h-2.249zm3.373.781h2.248v13.439h-2.248zm3.373 1.227h2.248V19.77h-2.248zm3.372-.112h2.249v12.324h-2.249zm3.373-2.453h2.248V19.77H40.94zm3.372.613h2.249V19.77h-2.249zm3.373.614h2.248v13.55h-2.248zm3.373.278h2.248v13.272h-2.248zm3.372.112h2.249v13.16H54.43zm3.373.614h2.248V19.77h-2.248zm3.374.613h2.248V19.77h-2.248zm3.372.669h2.249v11.264h-2.249zm3.373.055h2.248v11.21h-2.248zm3.372-.222h2.249V19.77h-2.249zm3.373.612h2.248v10.82h-2.248zm3.373.67h2.248v10.149H78.04zm3.372.447h2.249v9.703h-2.249zm3.373-6.135h2.248v15.837h-2.248zm3.372 1.004h2.249v14.833h-2.249zm3.373.279h2.248V19.77H91.53zm3.373-.502h2.248V19.77h-2.248zm3.372-1.729h2.249v16.785h-2.249zm3.373.502h2.248v16.283h-2.248zm3.372.558h2.249V19.77h-2.249zm3.373.669h2.248V19.77h-2.248zm3.373.725h2.248V19.77h-2.248zm3.372.279h2.249V19.77h-2.249zm3.373-4.015h2.248V19.77h-2.248zm3.373.446h2.249V19.77h-2.249zm3.373-.335h2.248v17.956h-2.248zm3.373.893h2.248V19.77h-2.248zm3.372.613h2.249v16.45h-2.249zm3.373 1.004h2.248V19.77h-2.248zm3.372-.837h2.249v16.283h-2.249zm3.373-1.784h2.248V19.77h-2.248zm3.373-.335h2.248V19.77h-2.248zm3.372.613h2.249v17.789h-2.249zm3.373-1.003h2.248V19.77h-2.248zm3.372.613h2.249v18.18h-2.249zm3.373-.223h2.248V19.77h-2.248zm3.373.781h2.248V19.77h-2.248zm3.372.612h2.249v17.01h-2.249zm3.373 1.005h2.248V19.77h-2.248zm3.373.669h2.248v15.335h-2.248zm3.372 1.45h2.249v13.885h-2.249zm3.373.948h2.248V19.77h-2.248zm3.373-.836h2.249V19.77h-2.249zm3.373-3.626h2.248v17.4h-2.248zm3.373 1.116h2.248v16.283h-2.248zm3.372.893h2.249v15.39h-2.249zm3.373.557h2.248v14.833h-2.248zm3.372.334h2.249v14.5h-2.249zm3.373.224h2.248V19.77h-2.248zm3.373.725h2.248v13.55h-2.248zm3.372-4.294h2.249V19.77h-2.249zm3.373.167h2.248V19.77h-2.248zm3.372.668h2.249v17.01h-2.249zm3.373.726h2.248v16.283h-2.248z" fill="#999"/></svg>
