<svg xmlns="http://www.w3.org/2000/svg" width="328" height="24" viewBox="0 0 328 24"><g fill="#8B8B8B"><path d="M.841 5.074H3.09v18.434H.841zM4.214 2.45h2.248v21.058H4.214zM7.586 3.279h2.249v20.229H7.586zM10.959 2.105h2.248v21.403h-2.248zM14.332 3.003h2.248v20.506h-2.248zM17.704 3.9h2.249v19.608h-2.249zM21.077 4.797h2.248v18.711h-2.248zM24.449 5.902h2.249v17.606h-2.249zM27.822 6.869h2.248v16.639h-2.248zM31.195 8.387h2.248v15.121h-2.248zM34.567 8.249h2.249v15.259h-2.249zM37.94 5.212h2.248v18.296H37.94zM41.312 5.971h2.249v17.537h-2.249zM44.685 6.731h2.248v16.777h-2.248zM48.058 7.076h2.248v16.432h-2.248zM51.43 7.214h2.249v16.294H51.43zM54.803 7.974h2.248v15.535h-2.248zM58.177 8.733h2.248v14.775h-2.248zM61.549 9.562h2.249v13.946h-2.249zM64.922 9.63h2.248v13.878h-2.248zM68.294 9.354h2.249v14.154h-2.249zM71.667 10.114h2.248v13.395h-2.248zM75.04 10.942h2.248v12.566H75.04zM78.412 11.495h2.249v12.014h-2.249zM81.785 3.9h2.248v19.608h-2.248zM85.157 5.143h2.249v18.365h-2.249zM88.53 5.488h2.248v18.021H88.53zM91.903 4.867h2.248v18.641h-2.248zM95.275 2.726h2.249v20.782h-2.249zM98.648 3.348h2.248v20.16h-2.248zM102.02 4.038h2.249v19.47h-2.249zM105.393 4.867h2.248v18.641h-2.248zM108.766 5.765h2.248v17.744h-2.248zM112.138 6.11h2.249v17.398h-2.249zM115.511 1.138h2.248v22.37h-2.248zM118.884 1.691h2.249v21.817h-2.249zM122.257 1.276h2.248v22.232h-2.248zM125.63 2.381h2.248v21.127h-2.248zM129.002 3.14h2.249v20.368h-2.249zM132.375 4.384h2.248v19.125h-2.248zM135.747 3.348h2.249v20.16h-2.249zM139.12 1.138h2.248v22.37h-2.248zM142.493.724h2.248v22.784h-2.248zM145.865 1.483h2.249v22.025h-2.249zM149.238.24h2.248v23.268h-2.248zM152.61 1.001h2.249v22.507h-2.249zM155.983.724h2.248v22.784h-2.248zM159.356 1.691h2.248v21.817h-2.248zM162.728 2.45h2.249v21.058h-2.249zM166.101 3.693h2.248v19.816h-2.248zM169.474 4.521h2.248v18.987h-2.248zM172.846 6.317h2.249v17.191h-2.249zM176.219 7.49h2.248v16.018h-2.248zM179.592 6.455h2.249v17.054h-2.249zM182.965 1.967h2.248v21.541h-2.248zM186.338 3.348h2.248v20.16h-2.248zM189.71 4.453h2.249v19.055h-2.249zM193.083 5.143h2.248v18.365h-2.248zM196.455 5.558h2.249v17.951h-2.249zM199.828 5.833h2.248v17.675h-2.248zM203.201 6.731h2.248v16.777h-2.248zM206.573 1.415h2.249v22.094h-2.249zM209.946 1.622h2.248v21.887h-2.248zM213.318 2.45h2.249v21.058h-2.249zM216.691 3.348h2.248v20.16h-2.248zM220.064 4.314h2.248v19.194h-2.248zM223.436 3.969h2.249v19.539h-2.249zM226.809 4.867h2.248v18.641h-2.248zM230.181 4.59h2.249v18.918h-2.249zM233.554 5.281h2.248v18.228h-2.248zM236.927 5.902h2.248v17.606h-2.248zM240.3 6.731h2.249v16.777H240.3zM243.673 7.214h2.248v16.294h-2.248zM247.045 7.905h2.249v15.603h-2.249zM250.418 7.559h2.248v15.949h-2.248zM253.791 7.007h2.248v16.501h-2.248zM257.163 7.766h2.249v15.742h-2.249zM260.536 8.526h2.248v14.982h-2.248zM263.908 9.492h2.249v14.016h-2.249zM267.281 10.528h2.249v12.98h-2.249zM270.654 5.971h2.248v17.537h-2.248zM274.026 6.731h2.249v16.777h-2.249zM277.399 6.317h2.248v17.191h-2.248zM280.772 7.076h2.248v16.432h-2.248zM284.144 7.836h2.249v15.673h-2.249zM287.517 8.457h2.248v15.051h-2.248zM290.889.655h2.249v22.853h-2.249zM294.262 2.519h2.248v20.989h-2.248zM297.635 2.174h2.248v21.334h-2.248zM301.008 3.072h2.249v20.437h-2.249zM304.381 3.9h2.248v19.608h-2.248zM307.753 1.553h2.249v21.955h-2.249zM311.126 2.933h2.248v20.575h-2.248zM314.499 4.521h2.248v18.987h-2.248zM317.871 5.419h2.249v18.089h-2.249zM321.244 6.317h2.248v17.191h-2.248zM324.616 7.076h2.249v16.432h-2.249zM327.989 7.007h2.248v16.501h-2.248z"/></g></svg>