<svg width="102" height="22" viewBox="0 0.663 102 22" overflow="visible" enable-background="new 0 0.663 102 22"><path d="M52.79 16.752v.35h-4.8l-3.055-4.973h-.61v3.314l1.31.61V17.1h-6.457v-.96l1.22-.61V2.62l-1.308-.61V.957l4.974-.784h.262v10.384h.873l3.228-3.665-1.31-.61V5.235h4.974V6.37l-1.57.522-2.705 2.967 3.578 5.584 1.31.61V13.61h1.657l.697 1.92c.35.35 1.22.35 1.92.35 1.133 0 1.92-.175 1.92-1.134 0-.873-.35-1.135-1.572-1.57l-1.57-.263c-2.094-.522-3.142-2.268-3.142-3.927 0-2.268 1.57-3.926 4.975-3.926 1.397 0 2.88.262 3.752.61v2.967h-1.658l-.526-1.657c-.26-.175-1.047-.35-1.746-.35-.958 0-1.57.437-1.57 1.135 0 .785.262 1.135 1.57 1.396l1.396.35c2.355.524 3.14 2.007 3.14 3.84 0 2.442-1.656 4.186-5.41 4.186-1.045 0-2.702-.26-3.748-.784zM5.235.262h-.35L0 .96v1.047l1.31.61v13.786c1.046.61 2.965 1.047 5.147 1.047 3.663 0 6.37-1.57 6.37-6.456 0-4.363-2.095-6.02-4.103-6.02-1.57 0-2.704.697-3.315 1.395h-.175V.26zm1.31 15.793c-.7 0-1.05-.262-1.31-.35V7.59c.35-.172.785-.35 1.395-.35 1.134 0 2.094.874 2.094 4.016 0 3.402-.697 4.8-2.18 4.8zM19.63 4.975c-3.662 0-6.193 2.267-6.193 6.28 0 4.015 2.53 6.28 6.194 6.28 3.58 0 6.022-2.18 6.022-6.28.088-4.1-2.443-6.28-6.02-6.28zm0 10.73c-1.308 0-1.917-.61-1.917-4.537s.61-4.624 1.918-4.624c1.31 0 1.92.697 1.92 4.624s-.61 4.537-1.92 4.537zm12.74-10.73c-3.576 0-6.02 2.267-6.02 6.28 0 4.015 2.443 6.28 6.108 6.28 3.577 0 6.02-2.18 6.02-6.28.002-4.1-2.442-6.28-6.107-6.28zm.088 10.73c-1.31 0-1.92-.61-1.92-4.537s.61-4.624 1.92-4.624 1.92.697 1.92 4.624-.61 4.537-1.92 4.537zm36.735 1.484v-1.136l-1.31-.61V7.766c.524-.175 1.046-.348 1.657-.348 1.05 0 1.57.436 1.57 1.656v6.457l-1.22.61v1.135h6.456V16.14l-1.31-.61V8.203c0-2.18-.958-3.23-2.968-3.23-1.568 0-3.053.612-4.1 1.57h-.174V0h-.35l-4.887.786v.96l1.31.61v13.088l-1.31.61V17.1l6.636.09zM82.805 4.885c-3.578 0-6.02 2.27-6.02 6.282 0 4.015 2.442 6.282 6.02 6.282 3.664 0 6.107-2.18 6.107-6.282 0-4.014-2.443-6.282-6.107-6.282zm.086 10.907c-1.308 0-1.92-.698-1.92-4.625s.7-4.624 1.92-4.624c1.31 0 1.92.697 1.92 4.624-.085 3.927-.61 4.625-1.92 4.625zm11.694-9.335V4.886h-.35l-4.887.786V6.72l1.31.61V20.59l-1.31.61v1.135h6.633v-1.134l-1.484-.61V17.1c.35.09.785.35 1.746.35 3.053 0 5.758-1.656 5.758-6.455 0-4.625-1.918-6.02-4.275-6.02-1.57 0-2.53.784-3.23 1.57h-.175l.264-.087zm1.396 9.247c-.523 0-.96-.174-1.223-.35V7.68c.35-.176.7-.35 1.396-.35 1.31 0 2.006 1.134 2.006 3.926 0 3.316-.96 4.45-2.18 4.45z"/></svg>