<svg width="102" height="22" viewBox="0 0 102 22"><path d="M52.8 16.75v.35H48l-3.06-4.97h-.6v3.3l1.3.62v1.05h-6.46v-.96l1.22-.6V2.6l-1.3-.6V.95l4.96-.8h.27v10.4h.87l3.23-3.67-1.3-.62V5.24h4.96v1.13l-1.58.52-2.7 2.96 3.57 5.58 1.3.6v-2.43h1.66l.7 1.93c.35.35 1.22.35 1.92.35 1.13 0 1.92-.18 1.92-1.13 0-.88-.35-1.14-1.57-1.57l-1.57-.27c-2.1-.5-3.15-2.26-3.15-3.9 0-2.28 1.58-3.94 5-3.94 1.4 0 2.87.26 3.74.6v2.98h-1.66l-.52-1.66c-.26-.18-1.05-.35-1.75-.35-.95 0-1.56.44-1.56 1.13 0 .8.26 1.14 1.57 1.4l1.4.35c2.36.53 3.15 2.02 3.15 3.85 0 2.44-1.66 4.2-5.4 4.2-1.06 0-2.7-.27-3.76-.8zM5.23.25h-.36L0 .96v1.06l1.3.62V16.4c1.06.6 2.97 1.05 5.16 1.05 3.66 0 6.37-1.57 6.37-6.46 0-4.37-2.1-6.03-4.1-6.03-1.58 0-2.7.7-3.32 1.4h-.17V.27zm1.3 15.8c-.7 0-1.05-.26-1.3-.35V7.6c.34-.18.78-.36 1.4-.36 1.12 0 2.08.87 2.08 4.02 0 3.4-.7 4.8-2.18 4.8zm13.1-11.08c-3.67 0-6.2 2.27-6.2 6.3 0 4 2.53 6.26 6.2 6.26 3.57 0 6-2.18 6-6.28.1-4.1-2.43-6.28-6-6.28zm0 10.73c-1.32 0-1.93-.6-1.93-4.53s.62-4.63 1.93-4.63c1.3 0 1.92.7 1.92 4.63s-.6 4.53-1.92 4.53zM32.36 4.98c-3.58 0-6.02 2.26-6.02 6.27 0 4.02 2.44 6.28 6.1 6.28 3.58 0 6.03-2.18 6.03-6.28s-2.44-6.28-6.1-6.28zm.1 10.72c-1.32 0-1.93-.6-1.93-4.53s.6-4.63 1.92-4.63 1.92.7 1.92 4.63-.6 4.53-1.92 4.53zm36.72 1.5v-1.15l-1.32-.6V7.76c.53-.18 1.05-.35 1.66-.35 1.05 0 1.57.43 1.57 1.65v6.46l-1.2.6v1.15h6.45v-1.14l-1.3-.6V8.2c0-2.18-.97-3.23-2.98-3.23-1.57 0-3.06.6-4.1 1.57h-.18V0h-.36l-4.88.8v.95l1.3.6v13.1l-1.3.6v1.05l6.63.1zM82.8 4.9c-3.57-.02-6 2.25-6 6.27 0 4 2.43 6.28 6 6.28 3.67 0 6.1-2.18 6.1-6.28 0-4.02-2.43-6.3-6.1-6.3zm.1 10.9c-1.32 0-1.93-.7-1.93-4.63s.7-4.63 1.92-4.63c1.3 0 1.9.7 1.9 4.63-.07 3.92-.6 4.62-1.9 4.62zm11.7-9.34V4.9h-.36l-4.9.77v1.05l1.32.6V20.6l-1.3.6v1.14h6.62V21.2l-1.48-.6v-3.5c.35.1.78.35 1.74.35 3.06 0 5.76-1.66 5.76-6.45 0-4.63-1.92-6.02-4.27-6.02-1.57 0-2.53.78-3.23 1.57h-.18l.27-.1zm1.38 9.24c-.52 0-.96-.17-1.22-.35V7.68c.35-.18.7-.35 1.4-.35 1.3 0 2 1.13 2 3.93 0 3.3-.96 4.45-2.18 4.45z"/></svg>