<svg width="131" height="22" viewBox="0 0 131 22"><path d="M.1 16.78h6.3v-1.04l-1.2-.6v-7.6c.42-.2.94-.36 1.55-.36 1.03 0 1.55.43 1.55 1.64v6.32l-1.2.6v1.04h6.3v-1.04l-1.3-.6v-7.1c0-2.16-.94-3.1-2.84-3.1-1.56 0-3.03.6-4.07 1.55h-.1V0h-.34L0 .78v1.04l1.3.6v12.8l-1.3.6v.96h.1zM19.7 4.93c-3.54 0-5.96 2.16-5.96 6.06s2.42 6.04 5.96 6.04c3.55 0 5.97-2.16 5.97-6.05s-2.43-6.07-5.98-6.07zm.1 10.55c-1.3 0-1.9-.7-1.9-4.5s.6-4.5 1.9-4.5 1.8.7 1.8 4.5-.6 4.5-1.8 4.5zM26.2.95V2l1.3.6v12.54l-1.22.6v1.04h6.3v-1.04l-1.2-.6V.17h-.34L26.2.95zm6.74 4.67v1.04l1.3.6v7.88l-1.2.6v1.04h6.3v-1.04l-1.3-.6V4.94h-.35l-4.74.68zm3.2-5.45c-1.13 0-2.08.95-2.08 2.08 0 1.12.95 2 2.08 2 1.12 0 2.07-.97 2.07-2-.08-1.2-1.03-2.08-2.07-2.08zm11.07 5.28c-.43-.35-1.2-.43-1.8-.43-3.04 0-5.64 1.64-5.64 6.3 0 4.42 2.5 5.8 4.66 5.8 1.48 0 2.43-.6 2.95-1.3h.1v1.22h.34l4.58-.52v-.95l-1.2-.7V.28h-.36l-4.84.77v1.04l1.2.52v2.85zm0 9.34c-.26.08-.6.17-1.2.17-1.57 0-2.26-1.22-2.26-4.07 0-3.3.95-4.32 2.16-4.32.7 0 1.04.17 1.3.43v7.8zm11.68-.27c-.16.26-.6.44-1.03.44-.78 0-1.47-.44-1.47-1.73 0-1.13.7-1.73 1.65-1.82l.86-.1v3.2zM56.07 6.5H57c1.48 0 1.9.77 1.9 2.24v1.56l-2.24.34c-2.6.44-4.06.95-4.06 3.3 0 1.9 1.3 3.28 3.28 3.28 1.47 0 2.77-.6 3.3-1.65h.08c.17 1.22 1.3 1.65 2.42 1.65.95 0 1.8-.26 2.16-.43v-.88l-1.2-.6V8.48c0-2.6-1.83-3.55-4.94-3.55-2 0-3.3.52-4.4.87v3.03h1.8l.96-2.34zm10.2 13.74c-.43 0-1.04 0-1.47-.17v1.38c.5.35 1.12.6 1.9.6 1.9 0 3.2-.86 4.06-3.36L75.1 6.9l1.1-.6V5.18h-4.4v1.03l1.2.52-1.98 6.05h-.08l-2.17-6.05 1.3-.44V5.2H63.4v1.03l1.13.7 4.67 10.9-.17.42c-.6 1.4-1.47 2-2.77 2zm15.66-15.3c-3.55 0-5.97 2.15-5.97 6.05s2.42 6.04 5.97 6.04S87.9 14.88 87.9 11s-2.43-6.07-5.98-6.07zm.1 10.54c-1.3 0-1.92-.7-1.92-4.5s.6-4.5 1.9-4.5c1.3 0 1.9.7 1.9 4.5-.08 3.8-.68 4.5-1.9 4.5zm17.98-.34V7.18h1.9v-2H100V3.9c0-1.37.35-1.98 1.4-1.98h.42l.43 1.65h2V.6c-1.3-.34-2.17-.43-3.3-.43-1.2 0-2.42.35-3.3 1.04-1.02-.5-2.15-.6-3.2-.6-2.4 0-4.75 1.3-4.75 4.16v.52l-1.3.7v1.3h1.3v7.94l-1.3.6v1.05h6.23v-1.04l-1.12-.6V7.17h2.7v7.96l-.87.6v1.04h6.3v-1.04l-1.63-.6zm-6.5-10.8c0-1.4.36-2 1.4-2 .7 0 1.12.34 1.47.95-.1.33-.1.68-.1 1.1v.88H93.6l-.1-.95zm14.2 1.9c.95 0 1.47.5 1.47 3.53l-3.2.18c0-3.03.7-3.72 1.73-3.72zm5.2 5.1c0-4.85-1.65-6.4-5.12-6.4s-5.7 2.24-5.7 6.05c0 3.88 2.07 6.13 6.05 6.13 2.16 0 3.9-.95 4.4-1.73v-1.13c-.77.26-1.63.44-3.1.44-2.08 0-3.2-1.03-3.37-3.28l6.83-.1zm.33-5.72v1.04l1.3.6v7.88l-1.2.6v1.04h6.65v-1.04l-1.56-.6v-6.4c.7-.35 1.56-.44 2.6-.44.34 0 .78 0 .95.1V5c-.08 0-.35-.1-.6-.1-1.3 0-2.25.88-2.95 2.35h-.08V4.93H118l-4.77.7zm13.07 11.5c3.63 0 5.2-1.64 5.2-4.06 0-1.73-.88-3.2-3.13-3.72L127 9.08c-1.3-.26-1.57-.7-1.57-1.38 0-.7.6-1.13 1.56-1.13.6 0 1.37.18 1.72.26l.52 1.56h1.64V5.53c-.95-.44-2.33-.6-3.63-.6-3.37 0-4.93 1.64-4.93 3.8 0 1.73.95 3.37 3.1 3.9l1.4.34c1.2.26 1.56.6 1.56 1.47 0 .95-.78 1.12-1.82 1.12-.7 0-1.56-.08-1.82-.34l-.7-1.9h-1.63v3.02c.96.52 2.7.78 3.9.78z"/></svg>