<svg width="131" height="22" viewBox="0 0 131 22" overflow="visible"><path d="M.086 16.783H6.4v-1.04l-1.21-.605V7.526c.433-.173.952-.347 1.557-.347 1.038 0 1.557.432 1.557 1.644v6.314l-1.21.606v1.04h6.315v-1.04l-1.3-.606V8.044c0-2.162-.95-3.113-2.853-3.113-1.557 0-3.027.606-4.065 1.558h-.088V0h-.346L0 .778v1.038l1.297.605v12.803L0 15.83v.953h.086zM19.723 4.93c-3.546 0-5.968 2.164-5.968 6.056s2.422 6.055 5.968 6.055c3.547 0 5.97-2.16 5.97-6.054S23.27 4.93 19.723 4.93zm.087 10.554c-1.297 0-1.903-.692-1.903-4.498 0-3.807.605-4.5 1.903-4.5s1.817.692 1.817 4.5c0 3.806-.607 4.498-1.817 4.498zM26.21.95v1.04l1.298.605v12.542l-1.21.606v1.04h6.314v-1.04l-1.21-.606V.173h-.347L26.21.95zm6.748 4.673V6.66l1.298.606v7.87l-1.21.607v1.04h6.313v-1.04l-1.298-.606V4.93h-.346l-4.758.693zm3.2-5.45c-1.124 0-2.075.95-2.075 2.076 0 1.123.95 1.988 2.076 1.988 1.124 0 2.075-.952 2.075-1.99C38.15 1.04 37.197.174 36.16.174zM47.233 5.45c-.433-.347-1.21-.434-1.817-.434-3.028 0-5.623 1.645-5.623 6.316 0 4.41 2.508 5.795 4.67 5.795 1.472 0 2.423-.605 2.942-1.3h.086v1.213h.346l4.585-.52v-.95l-1.21-.69V.26h-.347l-4.844.778v1.038l1.21.52V5.45zm0 9.342c-.26.087-.605.174-1.21.174-1.56 0-2.25-1.212-2.25-4.065 0-3.287.95-4.325 2.162-4.325.692 0 1.038.173 1.298.433v7.784zm11.678-.26c-.173.26-.606.434-1.04.434-.777 0-1.47-.433-1.47-1.73 0-1.124.693-1.73 1.645-1.817l.865-.086v3.2zM56.055 6.49h.95c1.472 0 1.905.78 1.905 2.25v1.557l-2.25.347c-2.595.432-4.065.95-4.065 3.286 0 1.902 1.297 3.29 3.287 3.29 1.47 0 2.768-.608 3.288-1.647h.086c.173 1.214 1.297 1.647 2.422 1.647.952 0 1.817-.262 2.163-.433v-.866l-1.21-.604V8.478c0-2.595-1.817-3.546-4.93-3.546-1.99 0-3.29.52-4.413.865v3.028h1.816l.952-2.337zm10.207 13.754c-.432 0-1.038 0-1.47-.173v1.382c.52.348 1.125.606 1.903.606 1.904 0 3.2-.865 4.066-3.374L75.086 6.92l1.125-.606V5.19h-4.412v1.038l1.212.52-1.99 6.055h-.086L68.77 6.747l1.3-.433V5.19h-6.662v1.038l1.125.692 4.67 10.9-.172.43c-.606 1.387-1.47 1.992-2.768 1.992zM81.92 4.932c-3.547 0-5.968 2.162-5.968 6.054s2.42 6.055 5.968 6.055 5.97-2.16 5.97-6.054-2.423-6.055-5.97-6.055zm.086 10.552c-1.297 0-1.902-.692-1.902-4.498 0-3.807.605-4.5 1.902-4.5 1.3 0 1.904.692 1.904 4.5-.088 3.806-.69 4.498-1.904 4.498zM100 15.138v-7.96h1.902V5.19H100V3.892c0-1.383.346-1.99 1.385-1.99h.432l.432 1.645h1.99V.605c-1.3-.346-2.163-.432-3.288-.432-1.21 0-2.422.346-3.287 1.038-1.037-.52-2.162-.604-3.2-.604-2.42 0-4.76 1.297-4.76 4.152v.52l-1.296.69v1.298h1.296v7.957l-1.297.605v1.04h6.228v-1.04l-1.125-.605V7.18h2.682v7.957l-.865.606v1.04h6.314v-1.04L100 15.138zM93.512 4.325c0-1.384.348-1.99 1.385-1.99.69 0 1.125.347 1.47.952-.087.347-.087.693-.087 1.125v.865h-2.682l-.086-.952zm14.185 1.904c.953 0 1.473.518 1.473 3.545l-3.2.174c0-3.03.69-3.72 1.727-3.72zm5.192 5.103c0-4.845-1.644-6.402-5.105-6.402s-5.71 2.25-5.71 6.056c0 3.893 2.077 6.142 6.056 6.142 2.163 0 3.894-.95 4.41-1.73v-1.124c-.776.26-1.64.433-3.112.433-2.076 0-3.2-1.04-3.373-3.288l6.834-.087zm.344-5.71V6.66l1.3.606v7.87l-1.212.607v1.04h6.66v-1.04l-1.557-.606v-6.4c.69-.346 1.557-.433 2.596-.433.345 0 .78 0 .952.087V5.018c-.086 0-.348-.085-.607-.085-1.295 0-2.248.865-2.94 2.335h-.085V4.93h-.348l-4.758.693zm13.063 11.505c3.633 0 5.19-1.644 5.19-4.065 0-1.73-.864-3.2-3.112-3.72l-1.387-.26c-1.297-.26-1.555-.69-1.555-1.384 0-.693.604-1.126 1.555-1.126.605 0 1.387.173 1.73.26l.52 1.557h1.643V5.537c-.95-.433-2.335-.605-3.632-.605-3.373 0-4.932 1.644-4.932 3.807 0 1.73.953 3.374 3.117 3.892l1.38.346c1.214.26 1.562.606 1.562 1.47 0 .952-.78 1.125-1.818 1.125-.69 0-1.56-.085-1.814-.346l-.695-1.9h-1.643v3.026c.95.518 2.68.778 3.892.778z"/></svg>