<svg width="43" height="22" viewBox="0 0 43 22"><path d="M2.9 7.16v11.5c0 .94-.86 1.54-1.8 1.54-.33 0-.76 0-1.1-.1v1.37c.5.34 1.45.52 2.4.52 2.88-.02 4.25-1.55 4.25-4.2V4.78h-.17l-4.95.68v1.1l1.37.6zM4.77 0c-1.2 0-2.13.94-2.13 2.04S3.58 4.1 4.7 4.1c1.18 0 2.12-.95 2.12-2.05S5.88 0 4.77 0zm9.2 4.86C10.47 4.86 8.1 7 8.1 10.9c0 4 2.38 6.14 5.96 6.14s5.97-2.2 5.97-6.13c0-3.9-2.56-6.04-6.05-6.04zm0 10.48c-1.27 0-1.87-.68-1.87-4.52 0-3.66.68-4.43 1.88-4.43 1.27 0 1.87.67 1.87 4.5 0 3.76-.6 4.52-1.87 4.44zM25.4.08h-.35l-4.77.77v1.1l1.2.44v13.45c1.02.6 2.9 1.02 5.1 1.02 3.6 0 6.3-1.62 6.3-6.3 0-4.27-2.12-5.88-4.16-5.88-1.45 0-2.56.67-3.24 1.26h-.17l.1-5.88zm1.27 15.6c-.68 0-1.02-.26-1.28-.34V7.4c.33-.16.76-.24 1.36-.24 1.2 0 2.04.76 2.04 3.92.1 3.23-.68 4.6-2.13 4.6zm10.9 1.36c3.67 0 5.2-1.6 5.2-4 0-1.8-.85-3.24-3.06-3.75l-1.35-.35c-1.28-.26-1.62-.68-1.62-1.37 0-.76.6-1.1 1.53-1.1.68 0 1.45.08 1.7.25l.52 1.62h1.62v-2.9c-.94-.34-2.3-.6-3.67-.6-3.5 0-4.94 1.63-4.94 3.84 0 1.7 1 3.4 3.14 3.9l1.53.35c1.2.26 1.54.6 1.54 1.45 0 .94-.76 1.1-1.87 1.1-.68 0-1.62-.08-1.87-.33l-.68-1.88h-1.62v3.06c1.02.43 2.64.77 3.92.68z"/></svg>