<svg width="51" height="26" viewBox="0 0 51 26"><path d="M3.4 8.4v13.5c0 1.1-1 1.8-2.1 1.8-.4 0-.9 0-1.3-.1v1.6c.6.4 1.7.6 2.8.6 3.4 0 5-1.8 5-4.9V5.6h-.2l-5.8.8v1.3l1.6.7zM5.6 0C4.2 0 3.1 1.1 3.1 2.4c0 1.3 1.1 2.4 2.4 2.4C6.9 4.8 8 3.7 8 2.4 8 1.1 6.9 0 5.6 0zm10.8 5.7c-4.1 0-6.9 2.5-6.9 7.1 0 4.7 2.8 7.2 7 7.2s7-2.6 7-7.2-3-7.1-7.1-7.1zm0 12.3c-1.5 0-2.2-.8-2.2-5.3 0-4.3.8-5.2 2.2-5.2 1.5 0 2.2.8 2.2 5.3 0 4.4-.7 5.3-2.2 5.2zM29.8.1h-.4l-5.6.9v1.3l1.4.5v15.8c1.2.7 3.4 1.2 6 1.2 4.2 0 7.4-1.9 7.4-7.4 0-5-2.5-6.9-4.9-6.9-1.7 0-3 .8-3.8 1.5h-.2l.1-6.9zm1.5 18.3c-.8 0-1.2-.3-1.5-.4V8.7c.4-.2.9-.3 1.6-.3 1.4 0 2.4.9 2.4 4.6.1 3.8-.8 5.4-2.5 5.4zM44.1 20c4.3 0 6.1-1.9 6.1-4.7 0-2.1-1-3.8-3.6-4.4l-1.6-.4c-1.5-.3-1.9-.8-1.9-1.6 0-.9.7-1.3 1.8-1.3.8 0 1.7.1 2 .3l.6 1.9h1.9V6.4c-1.1-.4-2.7-.7-4.3-.7-4.1 0-5.8 1.9-5.8 4.5 0 2 1.2 4 3.7 4.6l1.8.4c1.4.3 1.8.7 1.8 1.7 0 1.1-.9 1.3-2.2 1.3-.8 0-1.9-.1-2.2-.4l-.8-2.2h-1.9v3.6c1.2.5 3.1.9 4.6.8z"/></svg>
