<svg width="43" height="22" viewBox="0 0 43 22" overflow="visible"><path d="M2.897 7.158v11.505c0 .936-.852 1.532-1.79 1.532-.34 0-.767 0-1.107-.085v1.363c.51.34 1.448.512 2.386.512 2.898 0 4.26-1.533 4.26-4.175V4.772h-.17l-4.942.682v1.108l1.363.596zM4.77 0C3.58 0 2.64.938 2.64 2.045S3.58 4.09 4.687 4.09c1.193 0 2.13-.938 2.13-2.045S5.88 0 4.77 0zm9.205 4.857c-3.494 0-5.88 2.13-5.88 6.05 0 4.005 2.386 6.136 5.965 6.136 3.58 0 5.966-2.215 5.966-6.136 0-3.92-2.557-6.05-6.05-6.05zm0 10.482c-1.278 0-1.874-.683-1.874-4.518 0-3.664.682-4.43 1.875-4.43 1.278 0 1.875.68 1.875 4.515 0 3.75-.597 4.518-1.875 4.432zM25.395.084h-.342L20.28.852V1.96l1.194.426V15.85c1.023.596 2.896 1.02 5.112 1.02 3.58 0 6.307-1.617 6.307-6.304 0-4.262-2.13-5.88-4.174-5.88-1.45 0-2.56.68-3.24 1.278h-.17l.084-5.88zM26.67 15.68c-.68 0-1.023-.255-1.278-.34V7.413c.34-.17.766-.255 1.364-.255 1.193 0 2.045.766 2.045 3.92.084 3.235-.682 4.6-2.13 4.6zm10.906 1.363c3.666 0 5.2-1.618 5.2-4.005 0-1.79-.853-3.238-3.07-3.75l-1.36-.34c-1.28-.256-1.62-.682-1.62-1.364 0-.767.597-1.108 1.534-1.108.682 0 1.447.085 1.703.256l.512 1.62h1.62V5.453c-.94-.34-2.302-.596-3.665-.596-3.494 0-4.943 1.62-4.943 3.834 0 1.705 1.022 3.41 3.153 3.92l1.533.34c1.193.256 1.533.597 1.533 1.45 0 .937-.767 1.106-1.874 1.106-.684 0-1.62-.084-1.875-.34l-.68-1.876h-1.62v3.068c1.022.427 2.64.768 3.918.683z"/></svg>