<svg width="118" height="20" viewBox="0 0 354 60"><path d="M0.55,45 L17.38,45 L17.38,42.195 L14.135,40.655 L14.135,20.415 C15.4,19.92 16.775,19.59 18.315,19.59 C21.12,19.59 22.44,20.745 22.44,23.935 L22.44,40.655 L19.195,42.195 L19.195,45 L36.025,45 L36.025,42.195 L32.67,40.655 L32.67,21.625 C32.67,15.96 30.085,13.43 24.97,13.43 C20.79,13.43 17.05,14.915 14.3,17.445 L13.97,17.445 L13.97,0.285 L13.145,0.285 L0.385,2.32 L0.385,5.015 L3.905,6.61 L3.905,40.655 L0.55,42.195 L0.55,45 Z M52.965,13.43 C43.615,13.43 37.18,19.15 37.18,29.6 C37.18,40.05 43.615,45.825 52.965,45.825 C62.315,45.825 68.75,40.05 68.75,29.6 C68.75,19.15 62.315,13.43 52.965,13.43 L52.965,13.43 Z M53.02,41.535 C49.61,41.535 47.905,39.775 47.905,29.6 C47.905,19.425 49.61,17.665 53.02,17.665 C56.43,17.665 58.025,19.425 58.025,29.6 C58.025,39.775 56.43,41.535 53.02,41.535 L53.02,41.535 Z M70.125,2.87 L70.125,5.675 L73.59,7.27 L73.59,40.6 L70.29,42.14 L70.29,45 L87.12,45 L87.12,42.14 L83.82,40.6 L83.82,0.835 L82.995,0.835 L70.125,2.87 Z M88.11,15.355 L88.11,18.16 L91.575,19.755 L91.575,40.6 L88.275,42.14 L88.275,45 L105.105,45 L105.105,42.14 L101.805,40.6 L101.805,13.32 L100.98,13.32 L88.11,15.355 Z M96.525,0.67 C93.5,0.67 91.08,3.09 91.08,6.115 C91.08,9.085 93.5,11.505 96.525,11.505 C99.495,11.505 101.97,9.085 101.97,6.115 C101.97,3.09 99.495,0.67 96.525,0.67 L96.525,0.67 Z M126.225,14.805 C124.96,13.925 122.98,13.54 121.275,13.54 C113.135,13.54 106.26,17.995 106.26,30.425 C106.26,42.25 112.97,45.825 118.58,45.825 C122.43,45.825 125.07,44.12 126.335,42.47 L126.665,42.47 L126.665,45.66 L127.545,45.66 L139.7,44.285 L139.7,41.645 L136.455,39.83 L136.455,0.89 L135.63,0.89 L122.815,2.925 L122.815,5.73 L126.225,7.27 L126.225,14.805 Z M126.225,39.72 C125.51,39.995 124.63,40.27 123.09,40.27 C119.02,40.27 117.095,36.97 117.095,29.38 C117.095,20.69 119.515,17.775 122.76,17.775 C124.575,17.775 125.455,18.27 126.225,18.875 L126.225,39.72 Z M157.3,39.06 C156.75,39.665 155.595,40.215 154.495,40.215 C152.515,40.215 150.645,39.115 150.645,35.705 C150.645,32.79 152.57,31.195 154.935,30.975 L157.3,30.755 L157.3,39.06 Z M149.545,17.555 C150.205,17.5 151.69,17.445 152.185,17.445 C156.145,17.445 157.3,19.425 157.3,23.33 L157.3,27.455 L151.415,28.445 C144.595,29.6 140.525,30.865 140.525,37.19 C140.525,42.305 143.935,45.825 149.38,45.825 C153.23,45.825 156.86,44.175 158.235,41.425 L158.51,41.425 C159.005,44.725 161.865,45.77 165.055,45.77 C167.53,45.77 169.84,45.055 170.83,44.505 L170.83,42.195 L167.585,40.655 L167.585,22.78 C167.585,15.85 162.635,13.43 154.385,13.43 C148.995,13.43 145.53,14.86 142.615,15.795 L142.615,23.825 L147.4,23.825 L149.545,17.555 Z M176.825,54.075 C175.78,54.075 174.13,53.965 172.92,53.69 L172.92,57.375 C174.295,58.31 176,58.97 178.09,58.97 C183.095,58.97 186.505,56.715 188.98,49.95 L200.475,18.6 L203.555,17.06 L203.555,14.2 L191.62,14.2 L191.62,17.06 L194.92,18.49 L189.64,34.605 L189.42,34.605 L183.7,18.49 L187,17.06 L187,14.2 L169.29,14.2 L169.29,17.06 L172.15,18.6 L184.58,47.805 L184.085,48.96 C182.545,52.59 180.18,54.075 176.825,54.075 L176.825,54.075 Z M218.515,13.43 C209.165,13.43 202.73,19.15 202.73,29.6 C202.73,40.05 209.165,45.825 218.515,45.825 C227.865,45.825 234.3,40.05 234.3,29.6 C234.3,19.15 227.865,13.43 218.515,13.43 L218.515,13.43 Z M218.57,41.535 C215.16,41.535 213.455,39.775 213.455,29.6 C213.455,19.425 215.16,17.665 218.57,17.665 C221.98,17.665 223.575,19.425 223.575,29.6 C223.575,39.775 221.98,41.535 218.57,41.535 L218.57,41.535 Z M266.64,40.655 L266.64,19.48 L271.755,19.48 L271.755,14.2 L266.64,14.2 L266.64,10.625 C266.64,7.05 267.63,5.345 270.215,5.345 C270.6,5.345 270.985,5.4 271.315,5.455 L272.525,9.8 L277.805,9.8 L277.805,1.88 C274.34,1 272.03,0.835 269.06,0.835 C265.76,0.835 262.57,1.715 260.205,3.585 C257.455,2.265 254.485,1.935 251.68,1.935 C245.19,1.935 239.03,5.345 239.03,12.935 L239.03,14.31 L235.51,16.07 L235.51,19.48 L239.03,19.48 L239.03,40.655 L235.675,42.195 L235.675,45 L252.34,45 L252.34,42.195 L249.26,40.655 L249.26,19.48 L256.41,19.48 L256.41,40.655 L254.045,42.195 L254.045,45 L270.82,45 L270.82,42.195 L266.64,40.655 Z M249.26,11.725 C249.26,8.15 250.25,6.445 252.835,6.445 C254.595,6.445 255.915,7.38 256.685,8.92 C256.52,9.8 256.41,10.845 256.41,11.835 L256.41,14.2 L249.26,14.2 L249.26,11.725 Z M287.045,16.84 C289.575,16.84 290.95,18.16 290.95,26.355 L282.425,26.85 C282.535,18.655 284.24,16.84 287.045,16.84 L287.045,16.84 Z M300.905,30.535 C300.905,17.61 296.45,13.485 287.21,13.485 C278.025,13.485 272.03,19.37 272.03,29.545 C272.03,39.995 277.475,45.825 288.035,45.825 C293.7,45.825 298.32,43.295 299.75,41.315 L299.75,38.345 C297.605,39.005 295.405,39.39 291.5,39.39 C285.89,39.39 283.03,36.53 282.535,30.535 L300.905,30.535 Z M301.895,15.355 L301.895,18.16 L305.305,19.755 L305.305,40.6 L302.06,42.14 L302.06,45 L319.77,45 L319.77,42.14 L315.535,40.6 L315.535,23.495 C317.295,22.67 319.605,22.395 322.355,22.395 C323.235,22.395 324.335,22.505 324.94,22.67 L324.94,13.705 C324.61,13.595 323.95,13.54 323.4,13.54 C320.045,13.54 317.295,15.74 315.48,19.81 L315.15,19.81 L315.15,13.32 L314.27,13.32 L301.895,15.355 Z M336.6,45.77 C346.39,45.77 350.46,41.37 350.46,34.935 C350.46,30.26 348.205,26.3 342.265,25.035 L338.635,24.265 C335.225,23.55 334.4,22.45 334.4,20.635 C334.4,18.765 336.05,17.61 338.47,17.61 C340.12,17.61 342.265,17.995 342.98,18.38 L344.3,22.615 L348.59,22.615 L348.59,15.025 C346.17,13.98 342.485,13.43 338.855,13.43 C329.78,13.43 325.765,17.775 325.765,23.66 C325.765,28.225 328.405,32.735 334.07,34 L337.81,34.825 C341.11,35.54 341.88,36.475 341.88,38.73 C341.88,41.15 339.845,41.81 336.93,41.81 C335.17,41.81 332.695,41.48 331.98,40.82 L330.22,35.705 L325.875,35.705 L325.875,43.845 C328.845,45.11 333.3,45.77 336.6,45.77 L336.6,45.77 Z"/></svg>