<svg x="0px" y="0px" width="112.8px" height="15.4px" viewBox="0 0 112.8 15.4">
	<g class="logo--part1">
		<path d="M74.6,11.5h4.3v-0.7l-0.8-0.4V5.3C78.4,5.1,78.7,5,79.1,5c0.7,0,1.1,0.3,1.1,1.1v4.3l-0.8,0.4v0.7h4.3v-0.7
			l-0.9-0.4V5.5c0-1.5-0.7-2.1-2-2.1c-1.1,0-2.1,0.4-2.8,1l0,0v-1h-0.2l-3.3,0.5v0.7L75.4,5v5.4l-0.9,0.4V11.5z"/>
		<path d="M64.5,0.1c-0.8,0-1.4,0.6-1.4,1.4c0,0.8,0.6,1.4,1.4,1.4c0.8,0,1.4-0.6,1.4-1.4C65.9,0.7,65.2,0.1,64.5,0.1"
			/>
		<polygon points="62.3,3.9 62.3,4.6 63.2,5 63.2,10.4 62.3,10.8 62.3,11.5 66.7,11.5 66.7,10.8 65.8,10.4 65.8,3.4 
			65.6,3.4 			"/>
		<path d="M58.6,10c-0.2,0.2-0.4,0.3-0.8,0.3c-1,0-1.5-0.9-1.5-2.8c0-2.2,0.6-3,1.5-3c0.5,0,0.7,0.1,0.9,0.4V10z
			 M58.6,3.7c-0.3-0.2-0.8-0.4-1.3-0.4c-2,0-3.8,1.1-3.8,4.3c0,3,1.9,4,3.1,4c1,0,1.7-0.4,2-0.9h0.1v0.8h0.2l3.1-0.4v-0.6l-0.8-0.5
			V0.2H61l-3.3,0.5v0.7l0.9,0.4V3.7z"/>
		<path d="M47.5,3.9v0.7L48.4,5v5.4l-0.8,0.4v0.7h4.6v-0.7L51,10.4V6.2c0.5-0.4,1-0.5,1.8-0.5c0.2,0,0.5,0,0.7,0.1V3.5
			c-0.1,0-0.3,0-0.4,0c-0.9,0-1.7,0.6-2.1,1.6l0,0V3.4h-0.2L47.5,3.9z"/>
		<path d="M41.8,4.5c0.2-0.1,0.6-0.1,0.7-0.1c1,0,1.3,0.5,1.3,1.5l0,0.9l-1.5,0.3c-1.5,0.3-2.7,0.8-2.7,2.4
			c0,1.3,0.9,2.2,2.2,2.2c1,0,1.9-0.4,2.3-1.1h0.1c0.1,0.9,0.9,1.1,1.7,1.1c0.6,0,1.3-0.2,1.5-0.5v-0.5l-0.8-0.4V5.8
			c0-1.8-1.3-2.4-3.4-2.4c-1.4,0-2.3,0.3-3,0.7v2h1.2L41.8,4.5z M43.9,10c-0.2,0.2-0.4,0.3-0.7,0.3c-0.5,0-1-0.3-1-1.2
			c0-0.6,0.6-1.2,1.2-1.3l0.5-0.1V10z"/>
		<path d="M68.8,4.5c0.2-0.1,0.6-0.1,0.7-0.1c1,0,1.3,0.5,1.3,1.5l0,0.9l-1.5,0.3c-1.5,0.3-2.7,0.8-2.7,2.4
			c0,1.3,0.9,2.2,2.2,2.2c1,0,1.9-0.4,2.3-1.1h0.1c0.1,0.9,0.9,1.1,1.7,1.1c0.6,0,1.3-0.2,1.5-0.5v-0.5l-0.8-0.4V5.8
			c0-1.8-1.3-2.4-3.4-2.4c-1.4,0-2.3,0.3-3,0.7v2h1.2L68.8,4.5z M70.8,10c-0.2,0.2-0.4,0.3-0.7,0.3c-0.5,0-1-0.3-1-1.2
			c0-0.6,0.6-1.2,1.2-1.3l0.5-0.1V10z"/>
		<path d="M31.5,9.2c0,1.4,0.7,2.5,2.3,2.5c1.1,0,2-0.5,2.5-1.1l0,0v1.1h0.2l3.2-0.4v-0.6l-0.9-0.5V3.4h-0.2l-3.3,0.5
			v0.7l0.9,0.4v4.8c-0.3,0.2-0.5,0.3-1,0.3c-0.7,0-1.1-0.2-1.1-1.1V3.4h-0.2l-3.3,0.5v0.7l0.9,0.4V9.2z"/>
		<path d="M28,9.8h-2.8c-0.3,0-0.6-0.2-0.6-0.5c0-0.2,0.2-0.4,0.4-0.6c0.4,0.1,0.8,0.2,1.3,0.2c2,0,3.4-0.9,3.4-2.7
			c0-0.8-0.3-1.2-0.8-1.7l1.3,0.4l0-1.6l-2.1,0.4c-0.5-0.2-1.2-0.4-1.8-0.4c-2,0-3.5,1.1-3.5,2.8c0,1,0.5,1.8,1.3,2.3l0.1,0
			c-0.5,0.3-1.4,1-1.4,1.9c0,0.6,0.4,1.2,1.3,1.4v0c-0.9,0.2-1.9,0.6-1.9,1.6c0,1.1,1.5,2.1,4,2.1c3.1,0,4.5-1.5,4.5-3.3
			C30.7,10.5,29.8,9.8,28,9.8 M26.3,4.3c0.6,0,1,0.4,1,1.8c0,1.5-0.4,1.8-1,1.8c-0.6,0-1-0.3-1-1.8C25.3,4.6,25.7,4.3,26.3,4.3
			 M26.3,14.2c-1.4,0-2-0.6-1.9-1.1c0-0.4,0.2-0.9,0.9-0.9h2.3c0.7,0,1.1,0.5,1.1,0.9C28.5,13.9,27.9,14.2,26.3,14.2"/>
		<path d="M22,7.8c0-3.3-1.5-4.4-3.5-4.4c-2.4,0-3.9,1.5-3.9,4.2c0,2.7,1.4,4.2,4.1,4.2c1.5,0,2.6-0.8,3-1.3l0-0.6
			c-0.6,0.2-1.1,0.3-2.1,0.3c-1.4,0-2.3-0.7-2.3-2.3H22z M18.4,4.3c0.7,0,1,0.5,1,2.5l-2.2,0.1C17.3,4.8,17.7,4.3,18.4,4.3"/>
		<path d="M6,11.5h4.3v-0.7l-0.8-0.4l0-5.1C9.8,5.1,10.2,5,10.5,5c0.7,0,1.1,0.5,1.1,1.1v4.3l-0.8,0.4v0.7h4.3v-0.7
			l-0.9-0.4V5.5c0-1.5-0.8-2.1-2-2.1c-1.1,0-2.1,0.4-2.8,1h0V0H9.2L5.9,0.5v0.7l0.9,0.4v8.8L6,10.8V11.5z"/>
		<path d="M1.2,9.4c0,1.5,0.7,2.4,2.3,2.4c0.8,0,1.7-0.2,2.2-0.6v-1c-0.2,0.1-0.6,0.1-0.9,0.1c-0.8,0-1-0.4-1-1.2V5
			h1.7V3.6H3.9V1.7L1.2,2.1v1.5L0,3.8V5h1.2V9.4z"/>
	</g>
	<g class="logo--part2">
		<path d="M85.3,4.6V3.9l3.3-0.5h0.2v9c0,1.8-1,2.8-2.9,2.8c-0.7,0-1.3-0.2-1.7-0.4v-0.9c0.2,0,0.5,0.1,0.8,0.1
			c0.7,0,1.2-0.4,1.2-1V5L85.3,4.6z M88.8,1.5c0,0.8-0.6,1.4-1.4,1.4c-0.8,0-1.4-0.6-1.4-1.4c0-0.8,0.6-1.4,1.4-1.4
			C88.2,0.1,88.8,0.7,88.8,1.5z"/>
		<path d="M97.6,7.6c0,2.7-1.7,4.2-4.1,4.2c-2.4,0-4.1-1.5-4.1-4.2c0-2.7,1.7-4.2,4.1-4.2C95.9,3.4,97.6,4.9,97.6,7.6z
			 M94.8,7.6c0-2.6-0.4-3.1-1.3-3.1c-0.9,0-1.3,0.5-1.3,3.1c0,2.6,0.4,3.1,1.3,3.1C94.4,10.6,94.8,10.2,94.8,7.6z"/>
		<path d="M100.9,4.3L100.9,4.3c0.6-0.5,1.3-0.9,2.3-0.9c1.4,0,2.8,1.1,2.8,4c0,3.2-1.8,4.3-4.3,4.3
			c-1.5,0-2.8-0.3-3.5-0.7V1.8l-0.9-0.4V0.7l3.3-0.5h0.2V4.3z M103.2,7.6c0-2.1-0.6-2.7-1.4-2.7c-0.4,0-0.7,0.1-1,0.2v5.4
			c0.2,0.1,0.4,0.3,0.9,0.3C102.7,10.8,103.2,9.9,103.2,7.6z"/>
		<path d="M106.5,11.2V9.1h1.1l0.5,1.3c0.2,0.2,0.8,0.3,1.3,0.3c0.8,0,1.3-0.2,1.3-0.8c0-0.6-0.2-0.8-1-1l-1-0.2
			c-1.5-0.3-2.1-1.5-2.1-2.7c0-1.5,1-2.6,3.4-2.6c0.9,0,1.9,0.1,2.5,0.4v2h-1.1l-0.3-1.1c-0.2-0.1-0.7-0.2-1.2-0.2
			c-0.6,0-1,0.3-1,0.8c0,0.5,0.2,0.8,1.1,0.9l0.9,0.2c1.5,0.3,2.1,1.3,2.1,2.6c0,1.7-1,2.8-3.6,2.8
			C108.4,11.7,107.3,11.6,106.5,11.2z"/>
	</g>
</svg>