<svg width="151.3" height="15" viewBox="0 0 151.3 15"><g class="logo--part1"><path d="M1.2 4.9H0V3.7l1.2-.2V2.1l2.6-.4v1.8h1.7v1.3H3.8V9c0 .8.2 1.2 1 1.2.3 0 .6 0 .8-.1v1c-.4.3-1.3.5-2.1.5-1.6 0-2.3-.7-2.3-2.4V4.9zM5.8 10.7l.9-.4V1.6l-1-.4V.5L9 0h.2v4.4h.1c.7-.6 1.7-1 2.7-1 1.3 0 2 .6 2 2.1v4.8l.9.4v.7h-4.3v-.7l.8-.4V6c0-.8-.3-1.1-1.1-1.1-.4 0-.8.1-1.1.2v5.2l.8.4v.7H5.8v-.7zM17.8 7.7c.1 1.5.8 2.3 2.2 2.3 1 0 1.6-.1 2.1-.3v.8c-.4.5-1.5 1.1-3 1.1-2.7 0-4.1-1.5-4.1-4.1 0-2.6 1.5-4.1 3.9-4.1s3.5 1.1 3.5 4.3h-4.6zm-.1-.9l2.2-.1c0-2.1-.3-2.4-1-2.4-.7-.1-1.1.4-1.2 2.5zM30.6 11.9c0 1.9-1.3 3-4.4 3-2.5 0-4-.8-4-1.8s1-1.3 1.9-1.5v-.1c-.8-.2-1.2-.8-1.2-1.4 0-.8.9-1.5 1.3-1.8-.8-.4-1.3-1.2-1.3-2.2 0-1.7 1.4-2.7 3.4-2.7.6 0 1.3.2 1.8.4h.1l2-.4h.2V5h-.2l-1.3-.5v.1c.5.4.8.9.8 1.7 0 1.7-1.4 2.6-3.4 2.6-.5 0-.9 0-1.3-.2-.2.1-.3.4-.3.6 0 .3.3.5.6.5H28c1.7-.1 2.6.6 2.6 2.1zm-2.3.7c0-.4-.3-.6-.9-.6h-2.7c-.2.2-.3.5-.3.9 0 .5.5 1 1.9 1 1.6.1 2-.4 2-1.3zm-3-6.6c0 1.6.4 1.7.9 1.7s.9-.2.9-1.7c0-1.6-.4-1.8-.9-1.8s-.9.2-.9 1.8zM31.4 5l-.9-.4v-.7l3.3-.5h.2v5.5c0 .9.4 1 1.1 1 .4 0 .7-.1.9-.2V5l-.9-.4v-.7l3.3-.5h.2v6.7l.9.5v.7l-3.2.4h-.2v-1H36c-.5.6-1.3 1.1-2.4 1.1-1.6 0-2.3-1.1-2.3-2.5V5zM41.5 6h-1.2V4c.7-.2 1.6-.6 3-.6 2.1 0 3.4.6 3.4 2.4v4.6l.8.4v.6c-.3.1-.8.3-1.5.3-.8 0-1.5-.3-1.7-1.1h-.1c-.4.7-1.3 1.1-2.3 1.1-1.4 0-2.3-.9-2.3-2.2 0-1.6 1-1.9 2.8-2.2l1.5-.3V5.9c0-1-.3-1.5-1.3-1.5h-.7L41.5 6zm2.6 1.8l-.6.1c-.6.1-1.1.5-1.1 1.2 0 .9.5 1.1 1 1.1.3 0 .6-.1.7-.3V7.8zM50.8 3.3h.2V5h.1c.5-1 1.2-1.6 2-1.6h.4v2.3c-.2 0-.4-.1-.7-.1-.7 0-1.3.1-1.7.3v4.4l1.1.4v.7h-4.5v-.7l.8-.4V5l-.9-.4v-.8l3.2-.5zM58.6 1.8l-.9-.4V.7L61 .2h.2v9.9l.8.5v.7l-3 .3h-.2v-.8h-.1c-.3.4-1 .9-2 .9-1.4 0-3.1-.9-3.1-3.9 0-3.2 1.8-4.3 3.8-4.3.4 0 .9.1 1.3.3v-2zm0 2.9c-.2-.2-.4-.3-.9-.3-.8 0-1.4.7-1.4 3 0 1.9.5 2.8 1.5 2.8.4 0 .6-.1.8-.1V4.7zM65.5 3.3h.2v6.9l.8.4v.7h-4.3v-.7l.8-.4V5l-.9-.4v-.8l3.4-.5zm.2-1.8c0 .8-.6 1.4-1.4 1.4-.8 0-1.4-.6-1.4-1.4 0-.8.6-1.4 1.4-1.4.8 0 1.4.6 1.4 1.4zM68.5 6h-1.2V4c.7-.2 1.6-.6 3-.6 2.1 0 3.4.6 3.4 2.4v4.6l.8.4v.6c-.3.1-.8.3-1.5.3-.8 0-1.5-.3-1.7-1.1h-.1c-.2.6-1.2 1-2.2 1-1.4 0-2.3-.9-2.3-2.2 0-1.6 1-1.9 2.8-2.2l1.5-.3v-1c0-1-.3-1.5-1.3-1.5H69L68.5 6zm2.6 1.8l-.6.1c-.6.1-1.1.5-1.1 1.2 0 .9.5 1.1 1 1.1.3 0 .6-.1.7-.3V7.8zM74.7 10.7l.9-.4V5l-.9-.4v-.7l3.2-.5h.2v1h.1c.7-.6 1.7-1 2.7-1 1.3 0 2 .6 2 2.1v4.8l.9.4v.7h-4.3v-.7l.8-.4V6c0-.8-.3-1.1-1.1-1.1-.4 0-.7.1-1.1.2v5.2l.8.4v.7h-4.3v-.7z"/></g><g class="logo--part2"><path d="M87.2 4.3c.5-.5 1.3-.9 2.3-.9 1.3 0 2.8 1.1 2.8 4 0 3.2-1.8 4.3-4.2 4.3-1.5 0-2.7-.3-3.4-.7V1.8l-.9-.4V.7L87 .2h.2v4.1zm2.4 3.2c0-2.1-.6-2.7-1.4-2.7-.4 0-.7.1-.9.2v5.3c.2.1.4.3.9.3.9.1 1.4-.8 1.4-3.1zM100.8 7.5c0 2.7-1.6 4.1-4 4.1s-4-1.5-4-4.1c0-2.7 1.6-4.1 4-4.1 2.3-.1 4 1.4 4 4.1zm-2.8 0c0-2.6-.4-3-1.3-3s-1.3.4-1.3 3 .4 3 1.3 3 1.3-.4 1.3-3zM109.2 7.5c0 2.7-1.6 4.1-4 4.1s-4-1.5-4-4.1c0-2.7 1.6-4.1 4-4.1 2.4-.1 4 1.4 4 4.1zm-2.7 0c0-2.6-.4-3-1.3-3s-1.3.4-1.3 3 .4 3 1.3 3 1.3-.4 1.3-3zM115.3 6.6l2.4 3.7.9.4v.7h-3.2l-2-3.3h-.4v2.2l.8.4v.7h-4.3v-.7l.8-.4V1.8l-.9-.4V.7l3.3-.5h.2v7h.6l2.1-2.4-.8-.4v-.9h3.3v.7l-1 .4-1.8 2z"/><path d="M118.6 11.1V9h1.1l.4 1.3c.2.2.8.3 1.3.3.7 0 1.3-.2 1.3-.8 0-.6-.2-.8-1-1l-1-.2c-1.4-.3-2.1-1.5-2.1-2.6 0-1.5 1-2.6 3.3-2.6.9 0 1.9.1 2.5.4v1.9h-1.1l-.3-1.1c-.2-.1-.7-.2-1.1-.2-.6 0-1 .3-1 .8s.2.7 1.1.9l.9.2c1.5.3 2.1 1.3 2.1 2.5 0 1.6-1 2.8-3.5 2.8-1 0-2.2-.2-2.9-.5zM125.1 10.7l.9-.4V1.6l-.9-.4V.5l3.2-.5h.2v4.4h.1c.7-.6 1.7-1 2.7-1 1.3 0 2 .6 2 2.1v4.8l.9.4v.7h-4.3v-.7l.8-.4V6c0-.8-.3-1.1-1.1-1.1-.4 0-.7.1-1.1.2v5.2l.8.4v.7H125v-.7zM142.5 7.5c0 2.7-1.6 4.1-4 4.1s-4-1.5-4-4.1c0-2.7 1.6-4.1 4-4.1 2.4-.1 4 1.4 4 4.1zm-2.7 0c0-2.6-.4-3-1.3-3s-1.3.4-1.3 3 .4 3 1.3 3 1.3-.4 1.3-3zM146.3 4.4c.4-.5 1.1-1 2.1-1 1.5 0 2.8.9 2.8 4 0 3.2-1.8 4.3-3.9 4.3-.6 0-.9-.1-1.1-.2v2.4l1 .4v.7h-4.4v-.7l.8-.4V5l-.9-.4v-.7l3.2-.5h.2l.2 1zm2.3 3.1c0-1.8-.5-2.6-1.4-2.6-.4 0-.7.1-.9.2v5.1c.2.1.5.3.8.3.8 0 1.5-.7 1.5-3z"/></g></svg>