<svg width="152.1" height="20.5" viewBox="0 0 152.1 20.5"><path class="logo--part1" d="M64.2 20.5c-.2 0-1.9-.2-1.4-2.7.4-1.7.3-2.6.5-4.3.1-1 .2-2.6.3-2.9.3-1.2 2.2-1.3 2.1-.4-.1 1.4-1 6.9-1.1 7.2 0 .3.3.3.4.1.3-.3 1.8-2 2.8-3.3 2.2-2.7 5.7-7.4 6.4-7.7.2-.1.4-.1.5-.1.4 0 .7.2.8.4.2.3.1.8-.3 1.2-.7.9-2.7 8.6-2.7 8.9-.1.5.5.3.8 0 .1-.1 1.6-1.8 2.4-2.6.9-1 3.7-3.9 4-4.4.6-.7 1.2-1.1 1.7-1.1.3 0 .5.1.7.4.2.2.1.6 0 1l-.4 1.2s-1 4.7-1 5c0 .4.2.8 1 .4.9-.5 2-1.1 2.7-1.6h.1v-.1c.2-1.8.6-3.9 3.1-5.9.7-.5 1.6-.9 2.5-.9.4 0 .8.1 1.1.2.6.3 1 .7 1.1 1.2.1.7-.2 1.5-.9 2.3-1.1 1.2-5 3.8-5 3.8h-.1v.1c-.1.3 0 .4 0 1 .1.6.4 1 .9 1.2.1 0 .2.1.4.1.3 0 .6-.1 1.1-.3 1.6-.6 4.1-3.3 5.7-5.1.1-.2.3-.3.4-.4.4-.5.6-.7.7-.9 0 0 .2-.4.4-.6.3-.3.7-.3.9-.4.5 0 .7.1.7.4 0 .6-.5 1.3-.8 2-.2.4-.7 2.2-.7 2.3v.1c.5-.6 1.9-2.2 2.4-2.8 0 0 1.6-2.2 2.5-3.3.9-1.1 2.4-3 2.6-3.2.1-.2.3-.3.5-.4.2-.1.3-.1.4-.1.1 0 .4 0 .6.2.2.3.2.6 0 1.1-.1.2-.3.5-.4.7-.2.3-.9 1.6-1.1 1.9-.2.4-.6 1.4-.6 1.4-.2.6-1 2.4-1.3 3.1-.2.6.2.8.6.4l1.2-1.2s3-2.9 3.5-3.4l1.8-1.7c.3-.3.6-.5.9-.8.2-.2.5-.3.7-.3.2 0 .4.1.5.1.3.2.4.4.3.7-.1.4-.4 1.3-.7 2 0 0-1 2.9-1.2 3.5 0 0-.6 1.9-.6 2.4 0 .2.3.6 1.1-.3 1.1-1.2 3-3.3 4-4.5 1.4-1.5 3.4-3.8 3.4-3.8.3-.4.8-.9 1.3-1.4 1.2-1.3 2.5-2.8 2.9-3.6.1-.2.1-.4.2-.7.1-.4.3-1 .5-1.3.1-.1.4-.3.7-.3.3 0 .5 0 .7.4.3.7-.1 2.6-.4 3.3v.1c-.3.9-2.1 4.2-2.1 4.2l-2.2 4.4c.4-.4 1.3-1.4 1.7-1.7.6-.6 1.2-1 1.7-1.4 1-.7 1.6-1.1 2.4-1.1.7 0 1.1.5 1.2 1.1.1.4 0 1.3-.2 1.9-.8 2.1-1.6 3.1-2 3.7l-.4.6 3.5-1.7c0-.1.2-.6.3-.9.8-1.8 1.4-2.6 2.8-3.8.5-.4 1.2-.8 1.8-1 .2 0 .4-.1.6-.1.3 0 .5 0 .7.1.5.2.7.4.8.7.2.4 0 1.2-.4 1.8-.5.8-1.7 1.7-4.2 3.2-.3.1-.5.3-.7.4 0 0-.4.2-.5.3l-.1.2c-.2.4-.3 1.1.1 1.4.1.1.3.2.5.2 1.4 0 8.4-4.4 10.2-6.3 0 0 .6-.6 1-1.1.2-.3.4-.5.5-.5.2-.1.4-.1.5-.1.4 0 .8.2 1 .4.2.2.1.4.1.4 0 .1-.9 1.7-1 1.9.8-.7 2.9-3 5.5-5 .7-.5 1.6-1.1 2.4-.7.1.1.2.3.4.3.1 0 .5-.2.9-.2.7 0 1.2.2 1.6.5.4.3.7.7.6 1 0 .1-.4.5-.7.5-.1 0-.2-.1-.3-.1-.2-.2-.6-.5-1-.5-.1 0-.3 0-.4.1-.3.2-.6.5-.6 1.2 0 .2 0 .5.1.9.1.8.4 2 .2 3.5-.3 2.9-1.6 3.8-2.5 4.2-.3.1-1 .4-1.4.4-.8 0-1.9-.3-2.8-1.3-.4-.5-.8-1-.3-1.5.2-.3.6-.3.8-.3.1 0 .3.1.4.2 0 0 .5 1.1 1.6 1.2.6 0 1.4-.4 1.9-.9.6-.7.7-1.9.7-3.2 0-.5-.3-3.1-.3-3.4 0-.2-.1-.3-.2-.4-.1-.1-.4-.1-.5 0 0 0-4 3-7.2 6.3-.7.7-1.6 2.1-2 2.6-.2.2-.5.3-.8.3h-.1c-.2 0-.5-.1-.7-.4-.1-.2-.2-.5 0-.9 0-.1.9-1.6 1-1.9.2-.3.5-.9.5-.9s-2.7 2.4-7.6 4.7c-.4.2-1.6.6-2.1.6-1 0-1.8-.8-1.9-1.9V15l-.2.1c-1.1.5-2.5 1.1-4.1 1.7-.9.9-2.1 2.1-3 2.1h-.3c-.9-.5-1-1.3-.9-1.6.1-.3.4-.6.8-.8 0 0 .1 0 .1-.1.1 0 .2-.1.3-.1.4-.1.8-.3 1.3-.4.1 0 .3-.1.4-.1.6-.5 1.2-1.3 1.9-2.2.8-1.1 1.4-2.6 1.5-2.9.1-.4 0-.7-.1-.8-.2-.2-.4-.1-.6-.1-.2.1-1.6 1.3-2 1.7-.6.6-1.3 1.2-1.9 1.8l-.1.1c-.4.4-1.3 1.3-1.8 1.9l-.2.2c-.6.7-1.3 1.6-1.7 1.9h-.1c-.3 0-1-.6-1.1-.8 0-.1.3-.7.5-1.1.1-.2 1-1.9 1-1.9.1-.1.3-.5.6-1 .6-1 1.3-2.3 1.5-2.6v-.1c.6-1.1 1-1.9 1.2-2.2.3-.5 1-2 1.1-2.4l.3-.7c-.6.8-1.7 1.9-2.2 2.5-1 1.3-1.9 2.2-3.2 3.8-1.7 1.9-3.6 4-4.3 4.7-.1.1-1.8 2.4-3.1 1.9-.5-.2-.7-.7-.7-1.6 0-.4.5-2.4.8-3.5l.2-.7c.1-.3.5-1.8.5-1.8l-.6.6-1 1-1.5 1.5s-.8.7-1.1 1c-.2.2-1.6 1.6-2.1 2-.3.3-.7.6-1.2.8-.2.1-.3.1-.5.1-.3 0-.6-.1-.8-.3-.3-.3-.6-.6-.4-1.2.2-.9.5-1.7.9-2.6l.4-1c-.3.4-1.3 1.6-1.5 2-.4.6-.9 1.1-1.3 1.6-.8 1-1.4 1.7-2.1 2.4-.1.1-.1.2-.2.2-.3.4-.7.8-1.2.9-.2 0-.6 0-.8-.3-.2-.3-.2-.6-.1-1.1.1-.3.3-.9.5-1.4.1-.4.3-.7.3-.8 0-.1.1-.3.2-.4l.3-.9.1 1c-.8.9-1.6 1.8-1.7 1.9 0 0-2.8 3-5.3 3-.3 0-.7-.1-1-.2-.5-.3-1.2-.9-1.6-2.2l-.1-.2-.2.1c-.9.6-1.9 1.3-2.9 1.9-.3.2-.8.3-1.2.3-.4 0-.7-.1-1-.3-.6-.5-.5-1.3-.5-1.8.1-.4 1-5 1.1-5.2 0-.1 0-.2-.1-.1 0 0-.8.9-1.5 1.7-1.4 1.7-4.1 4.9-4.8 5.6-.6.5-1.2.9-1.9.9s-1.2-.6-1.3-1.2c-.2-.9.6-3.8 1-5.2.1-.5.4-1.6.4-1.6 0-.1 0-.1-.1 0 0 .1-3.7 4.9-5.1 6.6-.9.9-1.7 1.5-2.5 1.5m26.4-10.4c-.2 0-.3 0-.5.1-.5.2-1.1.5-1.6.9s-1.2 1.2-1.6 2.5l-.1.5.4-.3c.1-.1 2.7-1.8 3.6-2.7.4-.3.4-.6.3-.7-.1-.2-.3-.3-.5-.3m41-.6c-.3 0-.7.2-.9.3-.4.2-1.1.9-1.4 1.4-.3.4-.5.9-.7 1.1l-.2.5.5-.3c.5-.3 1.4-.9 1.7-1.2.1-.1.2-.2.4-.3.5-.4 1.1-.8 1.1-1.2 0-.1 0-.2-.1-.3h-.4"/><g class="logo--part2"><path d="M46.1 9.5c-.6 0-1 .4-1 1s.4 1 1 1 1-.4 1-1-.5-1-1-1M53.4 17.7h3.1v-.5l-.6-.3v-3.7c.2-.2.5-.2.8-.2.5 0 .8.2.8.8v3.1l-.6.3v.5H60v-.5l-.6-.3v-3.5c0-1.1-.5-1.5-1.4-1.5-.8 0-1.5.3-2 .7v-.7h-.2l-2.4.4v.5l.6.2v3.9l-.6.3v.5zM44.6 12.2v.5l.6.3v3.9l-.6.3v.5h3.2v-.5l-.7-.3v-5.1H47M42 16.6c-.1.1-.3.2-.6.2-.8 0-1.1-.6-1.1-2 0-1.6.4-2.2 1.1-2.2.3 0 .5.1.6.3v3.7zm0-4.5c-.2-.2-.6-.3-.9-.3-1.4 0-2.7.8-2.7 3.1 0 2.2 1.3 2.9 2.2 2.9.7 0 1.2-.3 1.4-.6v.6h.2l2.3-.3v-.4l-.6-.3V9.5h-.2l-2.4.4v.5l.6.3v1.4zM34.1 12.2v.5l.6.3v3.9l-.6.3v.5h3.3v-.5l-.8-.3v-3c.3-.3.8-.3 1.3-.3.2 0 .4 0 .5.1V12h-.3c-.6 0-1.2.4-1.5 1.2V12h-.2l-2.3.2zM30 12.7c.1-.1.4-.1.5-.1.7 0 .9.4.9 1.1v.6l-1.1.2c-1.1.2-2 .5-2 1.7 0 .9.7 1.6 1.6 1.6.7 0 1.4-.3 1.6-.8h.1c.1.6.6.8 1.2.8.5 0 .9-.1 1.1-.3v-.3l-.6-.3v-3.3c0-1.3-.9-1.8-2.4-1.8-1 0-1.7.2-2.2.5v1.4h.9l.4-1zm1.5 3.9c-.1.2-.3.2-.5.2-.4 0-.7-.2-.7-.8 0-.5.4-.9.9-.9l.4-.1v1.6z"/><path d="M49.3 12.7c.1-.1.4-.1.5-.1.7 0 .9.4.9 1.1v.6l-1.1.2c-1.1.2-2 .5-2 1.7 0 .9.7 1.6 1.6 1.6.7 0 1.4-.3 1.6-.8h.2c.1.6.6.8 1.2.8.5 0 .9-.1 1.1-.3v-.3l-.6-.3v-3.3c0-1.3-.9-1.8-2.4-1.8-1 0-1.7.2-2.2.5v1.4h.9l.3-1zm1.4 3.9c-.1.2-.3.2-.5.2-.4 0-.7-.2-.7-.8 0-.5.4-.9.9-.9l.4-.1v1.6zM22.6 16.1c0 1 .5 1.8 1.6 1.8.8 0 1.4-.3 1.8-.8v.8h.2l2.3-.3v-.4l-.6-.3v-5h-.2l-2.4.4v.5l.6.3v3.4c-.2.1-.4.2-.7.2-.5 0-.8-.1-.8-.8v-4h-.2l-2.4.4v.5l.6.3v3z"/><path d="M20.2 16.5h-2c-.2 0-.4-.2-.4-.4s.1-.3.3-.4c.3.1.6.1.9.1 1.5 0 2.5-.7 2.5-1.9 0-.6-.2-.9-.6-1.2l1 .3v-1.1l-1.5.3c-.4-.1-.9-.3-1.3-.3-1.5 0-2.5.8-2.5 2 0 .8.4 1.3.9 1.6-.3.2-1 .7-1 1.3 0 .4.3.9.9 1-.6.1-1.4.4-1.4 1.2 0 .8 1.1 1.5 2.9 1.5 2.2 0 3.2-1.1 3.2-2.4-.1-1.1-.7-1.6-1.9-1.6m-1.3-4c.4 0 .7.3.7 1.3s-.3 1.3-.7 1.3c-.4 0-.7-.2-.7-1.3s.3-1.3.7-1.3m0 7.1c-1 0-1.4-.4-1.4-.8 0-.3.1-.6.6-.7h1.6c.5 0 .8.3.8.6 0 .7-.4.9-1.6.9M15.8 15c0-2.4-1.1-3.2-2.5-3.2-1.7 0-2.8 1.1-2.8 3s1 3 3 3c1 0 1.9-.6 2.1-.9v-.5c-.4.1-.8.2-1.5.2-1 0-1.7-.5-1.7-1.6h3.4zm-2.5-2.5c.5 0 .7.3.7 1.8l-1.6.1c0-1.5.3-1.9.9-1.9"/><path d="M4.3 17.7h3.1v-.5l-.6-.3v-3.7c.2-.1.5-.2.8-.2.5 0 .8.3.8.8v3.1l-.6.3v.5h3.1v-.5l-.6-.3v-3.5c0-1.1-.6-1.5-1.4-1.5-.8 0-1.5.3-2 .7V9.4h-.3l-2.3.4v.5l.7.3v6.3l-.6.3v.5zM.9 16.2c0 1 .5 1.7 1.6 1.7.6 0 1.2-.2 1.6-.4v-.7c-.1 0-.4.1-.6.1-.6 0-.7-.3-.7-.8v-3H4v-1H2.8v-1.3l-1.9.3v.9l-.9.2v.8h.9v3.2z"/></g></svg>