<svg width="174.5" height="15" viewBox="0 0 174.5 15"><g class="logo--part1"><path d="M72.5 11.2h4.2v-.7l-.8-.4v-5c.3-.2.7-.3 1-.3.7 0 1 .3 1 1.1v4.2l-.8.4v.7h4.2v-.7l-.8-.4V5.4c0-1.4-.6-2.1-1.9-2.1-1 0-2.1.4-2.8 1v-1h-.2l-3.2.5v.7l.9.4v5.2l-.8.4v.7zM62.7.1c-.8 0-1.4.6-1.4 1.4 0 .7.6 1.4 1.4 1.4.7 0 1.4-.6 1.4-1.4 0-.8-.6-1.4-1.4-1.4M60.6 3.8v.7l.9.4v5.2l-.9.4v.7h4.3v-.7l-.9-.4V3.3h-.2M57 9.8c-.2.2-.4.3-.8.3-1 0-1.5-.8-1.5-2.7 0-2.2.6-2.9 1.4-2.9.5 0 .7.1.9.3v5zm0-6.2c-.3-.2-.8-.3-1.2-.3-1.9 0-3.7 1.1-3.7 4.2 0 3 1.8 3.9 3 3.9 1 0 1.6-.4 1.9-.8h.1v.8h.2l3-.4v-.6l-.7-.4V.2h-.2l-3.2.5v.7l.8.4v1.8zM46.2 3.8v.7l.9.4v5.2l-.8.4v.7h4.4v-.7l-1.1-.4V6c.5-.4 1-.5 1.7-.5.2 0 .5 0 .6.1V3.4h-.4c-.8 0-1.6.6-2.1 1.6V3.3h-.2l-3 .5zM40.7 4.4c.2-.1.6-.1.7-.1 1 0 1.3.5 1.3 1.5v.9l-1.5.3c-1.5.3-2.6.7-2.6 2.3 0 1.3.9 2.2 2.1 2.2 1 0 1.9-.4 2.2-1.1h.1c.1.8.8 1.1 1.6 1.1.6 0 1.2-.2 1.4-.5v-.4l-.8-.4V5.6c0-1.7-1.2-2.4-3.3-2.4-1.4 0-2.2.3-3 .7v2h1.2l.6-1.5zm2 5.3c-.2.2-.5.3-.7.3-.5 0-1-.3-1-1.1 0-.6.6-1.2 1.2-1.3l.5-.1v2.2z"/><path d="M66.9 4.4c.2-.1.6-.1.7-.1 1 0 1.3.5 1.3 1.5v.9l-1.5.3c-1.5.3-2.6.7-2.6 2.3 0 1.3.9 2.2 2.1 2.2 1 0 1.9-.4 2.2-1.1h.1c.1.8.8 1.1 1.6 1.1.6 0 1.2-.2 1.4-.5v-.4l-.8-.4V5.6c0-1.7-1.2-2.4-3.3-2.4-1.4 0-2.2.3-3 .7v2h1.2l.6-1.5zm2 5.3c-.1.2-.4.3-.7.3-.5 0-1-.3-1-1.1 0-.6.6-1.2 1.2-1.3l.5-.1v2.2zM30.6 9c0 1.3.7 2.5 2.2 2.5 1 0 1.9-.5 2.4-1.1v1h.2l3.1-.4v-.6l-.7-.4V3.3h-.2l-3.2.5v.7l.9.4v4.6c-.3.2-.5.3-.9.3-.6 0-1.1-.2-1.1-1.1V3.3H33l-3.2.5v.7l.9.4V9zM27.3 9.5h-2.8c-.3 0-.5-.2-.5-.5 0-.2.2-.4.3-.6.4.1.8.2 1.3.2 2 0 3.4-.9 3.4-2.6 0-.8-.3-1.2-.8-1.6l1.3.4V3.3l-2.1.4c-.5-.2-1.2-.4-1.8-.4-2 0-3.4 1-3.4 2.7 0 1 .5 1.8 1.3 2.2h.1c-.4.3-1.4 1-1.4 1.8 0 .6.4 1.2 1.2 1.4-.9.2-1.8.5-1.8 1.6 0 1 1.5 2.1 3.9 2.1 3 0 4.3-1.4 4.3-3.3 0-1.6-.8-2.3-2.5-2.3m-1.7-5.3c.6 0 1 .4 1 1.8s-.4 1.7-1 1.7-.9-.3-.9-1.7c-.1-1.5.3-1.8.9-1.8m0 9.6c-1.4 0-1.9-.5-1.9-1.1 0-.4.2-.9.9-.9h2.2c.6 0 1 .4 1 .8 0 .9-.6 1.2-2.2 1.2M21.4 7.6c0-3.2-1.4-4.3-3.4-4.3-2.3 0-3.8 1.5-3.8 4.1 0 2.6 1.4 4.1 4 4.1 1.4 0 2.5-.7 2.9-1.2v-.6c-.5.2-1.1.3-2.1.3-1.4 0-2.3-.7-2.2-2.2h4.6zm-3.5-3.4c.6 0 1 .5 1 2.4l-2.1.1c0-2 .4-2.5 1.1-2.5"/><path d="M5.8 11.2H10v-.7l-.8-.4v-5c.3-.2.7-.3 1-.3.7 0 1.1.4 1 1.1v4.2l-.8.4v.7h4.2v-.7l-.8-.4V5.4c0-1.4-.8-2.1-1.9-2.1-1 0-2.1.4-2.8 1V0H9L5.8.5v.7l.9.4v8.5l-.8.4v.7zM1.2 9.1c0 1.4.7 2.3 2.2 2.3.8 0 1.7-.2 2.1-.6v-1c-.2.2-.5.2-.8.2-.7 0-1-.4-1-1.1V4.8h1.7V3.5H3.8V1.7L1.2 2v1.4L0 3.7v1.1h1.2v4.3z"/></g><path class="logo--part2" d="M171 11.4c2.4 0 3.5-1.1 3.5-2.7 0-1.2-.6-2.2-2-2.5l-1-.2c-.9-.2-1.1-.5-1.1-.9 0-.5.4-.8 1-.8.4 0 .9.1 1.1.2l.3 1.1h1.1V3.7c-.6-.3-1.5-.4-2.4-.4-2.3 0-3.3 1.1-3.3 2.6 0 1.1.7 2.3 2.1 2.6l.9.2c.8.2 1 .4 1 1s-.5.8-1.2.8c-.4 0-1.1-.1-1.2-.2l-.4-1.3h-1.1v2c.8.2 1.9.4 2.7.4m-3.1-3.8c0-3.2-1.1-4.3-3.4-4.3s-3.8 1.5-3.8 4c0 2.6 1.4 4.1 4 4.1 1.4 0 2.6-.6 2.9-1.1v-.7c-.5.2-1.1.3-2.1.3-1.4 0-2.1-.7-2.2-2.2h4.6zm-3.5-3.4c.6 0 1 .3 1 2.4l-2.1.1c0-2.1.4-2.5 1.1-2.5m-7.6 7.2c2.4 0 3.5-1.1 3.5-2.7 0-1.2-.6-2.2-2-2.5l-.9-.2c-.9-.2-1.1-.5-1.1-.9 0-.5.4-.8 1-.8.4 0 .9.1 1.1.2l.3 1.1h1.1V3.7c-.6-.3-1.5-.4-2.4-.4-2.3 0-3.3 1.1-3.3 2.6 0 1.1.7 2.3 2.1 2.6l.9.2c.8.2 1 .4 1 1s-.5.8-1.2.8c-.4 0-1.1-.1-1.2-.2l-.4-1.3h-1.1v2c.7.2 1.8.4 2.6.4m-6.6 0c2.4 0 3.5-1.1 3.5-2.7 0-1.2-.6-2.2-2-2.5l-1-.2c-.9-.2-1.1-.5-1.1-.9 0-.5.4-.8 1-.8.4 0 .9.1 1.1.2l.3 1.1h1.1V3.7c-.6-.3-1.5-.4-2.4-.4-2.3 0-3.3 1.1-3.3 2.6 0 1.1.7 2.3 2.1 2.6l.9.2c.8.2 1 .4 1 1s-.5.8-1.2.8c-.4 0-1.1-.1-1.2-.2l-.4-1.3h-1.1v2c.8.2 1.9.4 2.7.4m-8.2-7h.7c1 0 1.3.5 1.3 1.5v1l-1.5.2c-1.7.3-2.7.6-2.7 2.2 0 1.3.9 2.2 2.2 2.2 1 0 1.9-.4 2.2-1.1h.1c.1.8.8 1.1 1.6 1.1.6 0 1.2-.2 1.4-.3v-.6l-.8-.4V5.7c0-1.7-1.2-2.3-3.3-2.3-1.3 0-2.2.4-2.9.6v2h1.2l.5-1.6zm1.9 5.3c-.1.2-.4.3-.7.3-.5 0-1-.3-1-1.1 0-.7.5-1.1 1.1-1.2l.6-.1v2.1zm-8.7-9v.7l.9.4v8.3l-.8.4v.7h4.2v-.7l-.8-.4V.2h-.2l-3.3.5zm-3 10.7c1.3 0 2.3-.6 2.7-1.1v-.7c-.4.1-1.2.2-1.9.2-1.3 0-2.2-.8-2.2-2.6 0-2.1.6-2.9 1.5-2.9.3 0 .6.1.7.1l.4 1.5h1.3V3.6c-.4-.2-1.6-.3-2.4-.3-2.5 0-4.2 1.5-4.2 4 .1 2.5 1.4 4.1 4.1 4.1m-9.9-7.6v.7l.9.4v5.2l-.8.4v.7h4.4v-.7l-1.1-.4V5.8c.4-.2 1-.3 1.7-.3.2 0 .5 0 .6.1V3.4h-.4c-.8 0-1.5.5-2 1.6h-.1V3.3h-.2l-3 .5zm-.2 3.8c0-3.2-1.1-4.3-3.4-4.3s-3.8 1.5-3.8 4c0 2.6 1.4 4.1 4 4.1 1.4 0 2.6-.6 2.9-1.1v-.7c-.5.2-1.1.3-2.1.3-1.4 0-2.1-.7-2.2-2.2h4.6zm-3.5-3.4c.6 0 1 .3 1 2.4l-2.1.1c0-2.1.4-2.5 1.1-2.5m-8 4.9c0 1.6.7 2.3 2.2 2.3.8 0 1.7-.2 2.1-.5v-1c-.2 0-.5.1-.8.1-.7 0-.9-.4-.9-1.1V4.8h1.7V3.5h-1.7V1.7l-2.6.4v1.4l-1.2.2v1.2h1.2v4.2zm-4.7 2.3c2.4 0 3.5-1.1 3.5-2.7 0-1.2-.6-2.2-2-2.5l-1-.2c-.9-.2-1.1-.5-1.1-.9 0-.5.4-.8 1-.8.4 0 .9.1 1.1.2l.3 1.1h1.1V3.7c-.6-.3-1.5-.4-2.4-.4-2.3 0-3.3 1.1-3.3 2.6 0 1.1.7 2.3 2.1 2.6l.9.2c.8.2 1 .4 1 1s-.5.8-1.2.8c-.4 0-1.1-.1-1.2-.2l-.4-1.3h-1.1v2c.8.2 1.9.4 2.7.4m-8.3-7h.7c1 0 1.3.5 1.3 1.5v1l-1.5.2c-1.7.3-2.7.6-2.7 2.2 0 1.3.9 2.2 2.2 2.2 1 0 1.9-.4 2.2-1.1h.1c.1.8.8 1.1 1.6 1.1.6 0 1.2-.2 1.4-.3v-.6l-.8-.4V5.7c0-1.7-1.2-2.3-3.3-2.3-1.3 0-2.2.4-2.9.6v2h1.2l.5-1.6zm2 5.3c-.1.2-.4.3-.7.3-.5 0-1-.3-1-1.1 0-.7.5-1.1 1.1-1.2l.6-.1v2.1zm-17.4 1.5h4.1v-.7l-.7-.4v-5c.3-.1.6-.2.9-.2.7 0 .9.3.9 1.1v4.2l-.7.4v.7h3.9v-.7l-.6-.5v-5c.3-.1.6-.2.9-.2.7 0 .9.3.9 1.1v4.2l-.7.4v.7h4.1v-.7l-.8-.4V5.4c0-1.4-.7-2.1-2-2.1-1 0-1.8.4-2.5 1h-.1c-.3-.7-.9-1-1.8-1-1 0-1.7.4-2.4 1h-.1v-1h-.2l-3.2.5v.7l.9.4v5.2l-.8.4v.7z"/></svg>