<svg width="90" height="20" viewBox="0 0 270 60"><path d="M137.5 44v1h-12.5l-8-13h-1.6v8.6l3.3 1.6v2.8h-16.7v-2.8l3.2-1.6v-33.3l-3.5-1.6v-2.7l13-2h.7v27h2.2l8.4-9.6-3.3-1.5v-2.8h13v3l-4 1.4-7 7.6 9.3 14.4 3.3 1.5v-6.3h4.4l1.7 5c.8.8 3.2 1 5 1 3 0 5-.5 5-3 0-2.2-.8-3-4-4l-4-.7c-5.5-1.3-8.2-5.8-8.2-10.3 0-6 4-10.3 13-10.3 3.7 0 7.4.6 9.8 1.6v7.6h-4.2l-1.4-4.2c-.7-.4-2.8-.8-4.5-.8-2.5 0-4 1.2-4 3 0 2 .7 3 4 3.7l3.7.8c6 1.3 8.2 5.3 8.2 10 0 6.4-4.2 10.8-14 10.8-3.2 0-7.5-.7-10.5-2zm-123.3-43h-.8l-12.8 2v2.7l3.4 1.6v35.7c2.7 1.6 7.7 2.8 13.4 2.8 9.6 0 16.6-4 16.6-16.8 0-11.3-5.5-15.6-10.7-15.6-4 0-7 1.8-8.7 3.6h-.4v-16zm3.4 41c-1.8 0-2.8-.6-3.4-1v-21c1-.4 2-.8 3.7-.8 3 0 5.4 2.2 5.4 10.5 0 8.7-2 12.2-5.8 12.2zm34-28.8c-9.4 0-16 5.8-16 16.2 0 10.5 6.6 16.2 16 16.2 9.3 0 15.7-5.7 15.7-16.2 0-10.4-6.4-16.2-15.8-16.2zm0 28c-3.4 0-5-1.6-5-11.8 0-10.2 1.6-12 5-12s5 1.8 5 12-1.6 12-5 12zm33-28c-9.2 0-15.6 5.8-15.6 16.2 0 10.5 6.4 16.2 15.8 16.2 9.3 0 15.7-5.7 15.7-16.2 0-10.4-6.4-16.2-15.8-16.2zm.2 28c-3.4 0-5-1.6-5-11.8 0-10.2 1.6-12 5-12s5 1.8 5 12-1.6 12-5 12zm52.7 2.5v-1.7h-.2v1.7h.2zm25.6 1h17v-2.8l-3.3-1.5v-20c1.3-.5 2.7-.8 4.2-.8 2.7 0 4 1.2 4 4.3v16.7l-3.2 1.5v2.9h16.8v-2.8l-3.4-1.5v-19c0-5.7-2.5-8.3-7.7-8.3-4 0-8 1.5-10.6 4h-.5v-17h-.8l-12.7 2v2.6l3.5 1.6v34l-3.4 1.6v2.8zm52.5-31.6c-9.3 0-15.7 5.8-15.7 16.2 0 10.5 6.4 16.2 15.7 16.2 9.4 0 15.8-5.7 15.8-16.2 0-10.4-6.4-16.2-15.8-16.2zm0 28c-3.3 0-5-1.6-5-11.8 0-10.2 1.7-12 5-12 3.5 0 5 1.8 5 12s-1.5 12-5 12zm30.6-24v-4h-.8l-12.7 2v2.8l3.4 1.6v34.5l-3.4 1.6v3h17.3v-3l-3.8-1.5v-9c1 .3 2 .8 4.5.8 8 0 15-4.2 15-16.7 0-12-5-15.6-11-15.6-4 0-6.6 2-8.3 4h-.4zm3.4 24c-1.4 0-2.5-.4-3.2-1v-20c1-.5 1.8-.8 3.6-.8 3.3 0 5.3 3 5.3 10.2 0 8.8-2.4 11.7-5.6 11.7z"/></svg>