<svg viewBox="0 0 66.3 12.6">
	<path d="M25.1,0l-1.3,0.2c-0.3,0-0.4,0.2-0.4,0.4c0,0.2,0.2,0.4,0.4,0.4l0.8,0V12c0,0.3,0.2,0.5,0.5,0.5
	c0.3,0,0.5-0.2,0.5-0.5V0.5c0-0.1-0.1-0.3-0.1-0.3C25.4,0.1,25.3,0,25.1,0 M36.7,3.2c-1.4,0-2.8,0.9-3.3,1.2
	c-0.4-0.8-1.2-1.2-2.3-1.2c-1.3,0-2.2,0.5-2.9,1V3.8c0-0.3-0.2-0.5-0.5-0.5c-0.3,0-0.5,0.2-0.5,0.5V12c0,0.3,0.2,0.5,0.5,0.5
	c0.3,0,0.5-0.2,0.5-0.5V5.1c0.5-0.3,1.6-0.9,2.9-0.9c0.6,0,1,0.1,1.3,0.4c0.2,0.3,0.3,0.6,0.3,1.2V12c0,0.3,0.2,0.5,0.5,0.5
	c0.3,0,0.5-0.2,0.5-0.5V5.8c0-0.2,0-0.4-0.1-0.6c0.3-0.2,1.5-1,3-1c0.6,0,1.1,0.1,1.3,0.4c0.2,0.3,0.3,0.6,0.3,1.2V12
	c0,0.3,0.2,0.5,0.5,0.5c0.3,0,0.5-0.2,0.5-0.5V5.8C39.3,4.1,38.4,3.2,36.7,3.2 M22.5,3.3c-0.3,0-0.5,0.2-0.5,0.5v6.9
	c-0.4,0.3-1.6,0.9-2.9,0.9c-0.8,0-1.3-0.2-1.6-0.5c-0.1-0.2-0.3-0.4-0.3-1V3.8c0-0.3-0.2-0.5-0.5-0.5c-0.2,0-0.4,0.1-0.5,0.3
	C16,4.6,14.5,6,12.1,6c-0.9,0-1.3-0.5-1.3-1c0-0.8,0.9-0.9,1.6-0.5c0.2,0.1,0.5,0.1,0.7-0.1c0.1-0.2,0-0.5-0.2-0.7
	c-0.6-0.3-1.2-0.5-2-0.5c-1,0-2,0.4-2.7,1c-0.4,0.4-0.7,1-0.9,1.6C7.1,6.5,6.9,7.2,6.9,8c0,0.8,0.1,1.5,0.3,2c0.2,0.6,0.4,1,0.8,1.4
	c0.7,0.8,1.7,1.2,2.9,1.2c1.1,0,2-0.4,2.7-1c0.4-0.4,0.7-0.9,0.9-1.5c0.2-0.6,0.3-1.4,0.3-2.1c0-0.7-0.1-1.2-0.2-1.7
	c0.8-0.3,1.6-1.1,1.6-1.1V10c0,0.4,0.1,1.1,0.5,1.6c0.5,0.6,1.3,0.9,2.4,0.9c1.2,0,2.3-0.5,2.9-1v0.3c0,0.3,0.2,0.5,0.5,0.5
	c0.3,0,0.5-0.2,0.5-0.5V3.8C23,3.6,22.8,3.3,22.5,3.3 M13,10.9c-0.5,0.5-1.2,0.8-2.1,0.8c-0.9,0-1.7-0.3-2.2-0.9
	c-0.5-0.6-0.8-1.7-0.8-2.8c0-1.4,0.3-2.4,1-3.1c0.3-0.3,0.9-0.6,1.4-0.7C10,4.4,10,4.7,10,5c0,1.1,0.9,1.8,2.3,1.8
	c0.6,0,1.2-0.1,1.6-0.2c0,0.2,0.1,0.8,0.1,1.4C13.9,9.1,13.6,10.3,13,10.9 M3.8,7.4C3.4,7.3,3,7.2,2.5,7C2,6.9,1.7,6.7,1.5,6.5
	C1.3,6.3,1.2,6,1.2,5.6c0-0.4,0.2-0.8,0.5-1C2,4.3,2.5,4.2,3.1,4.2c0.8,0,1.3,0.2,1.7,0.3l0.2,1.3C5,6,5.1,6.1,5.2,6.1
	c0.2,0,0.3-0.1,0.4-0.3l0.1-1.6c0-0.2-0.1-0.4-0.3-0.5C5.1,3.6,4.3,3.2,3.1,3.2c-1.7,0-2.8,0.9-2.8,2.3c0,0.7,0.2,1.2,0.6,1.7
	C1.2,7.6,1.6,7.8,2.2,8c0.5,0.1,0.8,0.3,1.3,0.4C4.7,8.8,5.1,9,5.1,10c0,0.5-0.1,0.9-0.4,1.2c-0.4,0.3-0.9,0.4-1.6,0.4
	c-1,0-1.7-0.2-2-0.4L0.8,9.9c0-0.2-0.2-0.3-0.3-0.3c-0.2,0-0.4,0.1-0.4,0.4L0,11.5c0,0.2,0.1,0.4,0.4,0.5c0.4,0.2,1.3,0.6,2.6,0.6
	c1,0,1.7-0.2,2.2-0.6C5.8,11.5,6,10.8,6,10C6,8.3,4.9,7.8,3.8,7.4 M64,7.4c-0.4-0.1-0.8-0.2-1.3-0.4c-0.5-0.2-0.8-0.3-1-0.5
	c-0.2-0.2-0.3-0.6-0.3-1c0-0.4,0.2-0.8,0.5-1c0.3-0.2,0.8-0.3,1.4-0.3c0.8,0,1.3,0.2,1.7,0.3l0.2,1.3c0,0.1,0.2,0.3,0.3,0.3
	c0.2,0,0.3-0.1,0.4-0.3l0.1-1.6c0-0.2-0.1-0.4-0.3-0.5c-0.3-0.1-1.1-0.5-2.3-0.5c-1.7,0-2.8,0.9-2.8,2.3c0,0.7,0.2,1.2,0.6,1.7
	c0.3,0.3,0.8,0.6,1.4,0.8c0.5,0.1,0.8,0.3,1.3,0.4c1.2,0.4,1.6,0.7,1.6,1.7c0,0.5-0.1,0.9-0.4,1.2c-0.4,0.3-0.9,0.4-1.6,0.4
	c-1,0-1.7-0.2-2-0.4L61,9.9c0-0.2-0.2-0.3-0.3-0.3c-0.2,0-0.4,0.1-0.4,0.4l-0.1,1.6c0,0.2,0.1,0.4,0.4,0.5c0.4,0.2,1.3,0.6,2.6,0.6
	c1,0,1.7-0.2,2.2-0.6c0.5-0.4,0.8-1.1,0.8-1.9C66.3,8.3,65.2,7.8,64,7.4 M57.6,3.6c-0.5-0.2-1-0.4-1.7-0.4c-0.5,0-1,0.1-1.5,0.3
	C54,3.7,53.5,4,53.2,4.3c-0.4,0.4-0.7,0.9-0.9,1.5c-0.2,0.6-0.3,1.3-0.3,2.1c0,1.4,0.3,2.5,0.9,3.2c0.7,1,1.9,1.5,3.4,1.5
	c1.6,0,2.7-0.5,2.7-0.5c0.3-0.1,0.4-0.4,0.2-0.6c-0.1-0.2-0.4-0.3-0.6-0.2c0,0-0.9,0.3-2.3,0.3c-2.3,0-3.3-1.2-3.3-3.7
	c0-1.3,0.3-2.3,1-2.9c0.6-0.7,1.5-0.8,2.1-0.8c0.9,0,1.6,0.3,2,0.9c0.3,0.5,0.5,1.1,0.5,1.9l-4.3,0.1c-0.3,0-0.4,0.2-0.4,0.4
	c0,0.2,0.2,0.4,0.4,0.4l4.8,0c0.3,0,0.5-0.2,0.5-0.5c0-1.2-0.3-2.2-0.7-2.9C58.4,4.1,58.1,3.8,57.6,3.6 M51.4,11.5
	c0,0-0.4,0.1-1,0.1c-0.4,0-0.7-0.2-0.8-0.3c-0.2-0.2-0.2-0.7-0.2-1v-6h2.1c0.3,0,0.5-0.2,0.5-0.5c0-0.3-0.2-0.5-0.5-0.5h-2.1V1.7
	c0-0.3-0.2-0.5-0.5-0.5c-0.3,0-0.5,0.2-0.5,0.5v1.6h-0.8c-0.3,0-0.5,0.2-0.5,0.5c0,0.3,0.2,0.5,0.5,0.5h0.8v6c0,0.7,0,1.3,0.5,1.7
	c0.3,0.3,0.8,0.5,1.5,0.5c0.8,0,1.3-0.2,1.3-0.2c0.2-0.1,0.4-0.3,0.3-0.6C51.9,11.5,51.6,11.4,51.4,11.5 M42.6,3.3
	c-0.8,0.1-1.2,0.3-1.2,0.3C41.2,3.7,41,4,41.1,4.3c0.1,0.3,0.4,0.4,0.6,0.3c0,0,0.5-0.2,0.8-0.2c0.6-0.1,1.4-0.2,2-0.1
	c0.9,0.2,1.1,1.1,1.1,2v4.5c-0.5,0.4-1.2,0.8-1.9,0.9c-1.2,0.2-2.5-0.3-2.5-1.7c0-0.9,0.6-1.3,1.3-1.5c0.5-0.2,1.5-0.3,2.1-0.3
	c0.2,0,0.4-0.2,0.3-0.4c0-0.2-0.2-0.4-0.4-0.4c-0.6,0-1.4,0-2.3,0.3c-0.9,0.2-1.6,0.7-1.9,1.6c-0.4,1.1,0.1,2.4,1.1,3
	c1.2,0.8,3.1,0.5,4.1-0.5V12c0,0.3,0.2,0.5,0.5,0.5c0.3,0,0.5-0.2,0.5-0.5v-1.8v-4c0-0.9-0.2-1.6-0.6-2C45.4,3.2,44.1,3.1,42.6,3.3"
	/>
</svg>