<svg x="0px" y="0px" width="174.5px" height="15px" viewBox="0 0 174.5 15">
	<g>
		<g>
			<path class="logo--part1" d="M72.5,11.2h4.2v-0.7l-0.8-0.4v-5c0.3-0.2,0.7-0.3,1-0.3c0.7,0,1,0.3,1,1.1v4.2l-0.8,0.4v0.7h4.2v-0.7
				l-0.8-0.4V5.4c0-1.4-0.6-2.1-1.9-2.1c-1,0-2.1,0.4-2.8,1v-1h-0.2l-3.2,0.5v0.7l0.9,0.4v5.2l-0.8,0.4V11.2z"/>
			<path class="logo--part1" d="M62.7,0.1c-0.8,0-1.4,0.6-1.4,1.4c0,0.7,0.6,1.4,1.4,1.4c0.7,0,1.4-0.6,1.4-1.4C64.1,0.7,63.5,0.1,62.7,0.1"
				/>
			<polygon class="logo--part1" points="60.6,3.8 60.6,4.5 61.5,4.9 61.5,10.1 60.6,10.5 60.6,11.2 64.9,11.2 64.9,10.5 64,10.1 64,3.3 
				63.8,3.3 		"/>
			<path class="logo--part1" d="M57,9.8c-0.2,0.2-0.4,0.3-0.8,0.3c-1,0-1.5-0.8-1.5-2.7c0-2.2,0.6-2.9,1.4-2.9c0.5,0,0.7,0.1,0.9,0.3V9.8z
				 M57,3.6c-0.3-0.2-0.8-0.3-1.2-0.3c-1.9,0-3.7,1.1-3.7,4.2c0,3,1.8,3.9,3,3.9c1,0,1.6-0.4,1.9-0.8h0.1v0.8h0.2l3-0.4v-0.6L59.6,10
				V0.2h-0.2l-3.2,0.5v0.7L57,1.8V3.6z"/>
			<path class="logo--part1" d="M46.2,3.8v0.7l0.9,0.4v5.2l-0.8,0.4v0.7h4.4v-0.7l-1.1-0.4V6c0.5-0.4,1-0.5,1.7-0.5c0.2,0,0.5,0,0.6,0.1V3.4
				c-0.1,0-0.2,0-0.4,0c-0.8,0-1.6,0.6-2.1,1.6V3.3h-0.2L46.2,3.8z"/>
			<path class="logo--part1" d="M40.7,4.4c0.2-0.1,0.6-0.1,0.7-0.1c1,0,1.3,0.5,1.3,1.5l0,0.9l-1.5,0.3c-1.5,0.3-2.6,0.7-2.6,2.3
				c0,1.3,0.9,2.2,2.1,2.2c1,0,1.9-0.4,2.2-1.1H43c0.1,0.8,0.8,1.1,1.6,1.1c0.6,0,1.2-0.2,1.4-0.5v-0.4l-0.8-0.4V5.6
				c0-1.7-1.2-2.4-3.3-2.4c-1.4,0-2.2,0.3-3,0.7v2h1.2L40.7,4.4z M42.7,9.7C42.5,9.9,42.2,10,42,10c-0.5,0-1-0.3-1-1.1
				c0-0.6,0.6-1.2,1.2-1.3l0.5-0.1V9.7z"/>
			<path class="logo--part1" d="M66.9,4.4c0.2-0.1,0.6-0.1,0.7-0.1c1,0,1.3,0.5,1.3,1.5l0,0.9l-1.5,0.3c-1.5,0.3-2.6,0.7-2.6,2.3
				c0,1.3,0.9,2.2,2.1,2.2c1,0,1.9-0.4,2.2-1.1h0.1c0.1,0.8,0.8,1.1,1.6,1.1c0.6,0,1.2-0.2,1.4-0.5v-0.4l-0.8-0.4V5.6
				c0-1.7-1.2-2.4-3.3-2.4c-1.4,0-2.2,0.3-3,0.7v2h1.2L66.9,4.4z M68.9,9.7c-0.1,0.2-0.4,0.3-0.7,0.3c-0.5,0-1-0.3-1-1.1
				c0-0.6,0.6-1.2,1.2-1.3l0.5-0.1V9.7z"/>
			<path class="logo--part1" d="M30.6,9c0,1.3,0.7,2.5,2.2,2.5c1,0,1.9-0.5,2.4-1.1v1h0.2l3.1-0.4v-0.6L37.8,10V3.3h-0.2l-3.2,0.5v0.7
				l0.9,0.4v4.6c-0.3,0.2-0.5,0.3-0.9,0.3c-0.6,0-1.1-0.2-1.1-1.1V3.3H33l-3.2,0.5v0.7l0.9,0.4V9z"/>
			<path class="logo--part1" d="M27.3,9.5h-2.8C24.2,9.5,24,9.3,24,9c0-0.2,0.2-0.4,0.3-0.6c0.4,0.1,0.8,0.2,1.3,0.2c2,0,3.4-0.9,3.4-2.6
				c0-0.8-0.3-1.2-0.8-1.6l1.3,0.4l0-1.5l-2.1,0.4c-0.5-0.2-1.2-0.4-1.8-0.4c-2,0-3.4,1-3.4,2.7c0,1,0.5,1.8,1.3,2.2l0.1,0
				c-0.4,0.3-1.4,1-1.4,1.8c0,0.6,0.4,1.2,1.2,1.4v0c-0.9,0.2-1.8,0.5-1.8,1.6c0,1,1.5,2.1,3.9,2.1c3,0,4.3-1.4,4.3-3.3
				C29.8,10.2,29,9.5,27.3,9.5 M25.6,4.2c0.6,0,1,0.4,1,1.8c0,1.4-0.4,1.7-1,1.7c-0.6,0-0.9-0.3-0.9-1.7C24.6,4.5,25,4.2,25.6,4.2
				 M25.6,13.8c-1.4,0-1.9-0.5-1.9-1.1c0-0.4,0.2-0.9,0.9-0.9h2.2c0.6,0,1,0.4,1,0.8C27.8,13.5,27.2,13.8,25.6,13.8"/>
			<path class="logo--part1" d="M21.4,7.6c0-3.2-1.4-4.3-3.4-4.3c-2.3,0-3.8,1.5-3.8,4.1c0,2.6,1.4,4.1,4,4.1c1.4,0,2.5-0.7,2.9-1.2l0-0.6
				c-0.5,0.2-1.1,0.3-2.1,0.3c-1.4,0-2.3-0.7-2.2-2.2H21.4z M17.9,4.2c0.6,0,1,0.5,1,2.4l-2.1,0.1C16.8,4.7,17.2,4.2,17.9,4.2"/>
			<path class="logo--part1" d="M5.8,11.2H10v-0.7l-0.8-0.4l0-5c0.3-0.2,0.7-0.3,1-0.3c0.7,0,1.1,0.4,1,1.1v4.2l-0.8,0.4v0.7h4.2v-0.7
				l-0.8-0.4V5.4c0-1.4-0.8-2.1-1.9-2.1c-1,0-2.1,0.4-2.8,1h0V0H9L5.8,0.5v0.7l0.9,0.4v8.5l-0.8,0.4V11.2z"/>
			<path class="logo--part1" d="M1.2,9.1c0,1.4,0.7,2.3,2.2,2.3c0.8,0,1.7-0.2,2.1-0.6v-1C5.3,10,5,10,4.7,10c-0.7,0-1-0.4-1-1.1V4.8h1.7V3.5
				H3.8V1.7L1.2,2v1.4L0,3.7v1.1h1.2V9.1z"/>
		</g>
		<g>
			<path class="logo--part2" d="M171,11.4c2.4,0,3.5-1.1,3.5-2.7c0-1.2-0.6-2.2-2-2.5L171.5,6c-0.9-0.2-1.1-0.5-1.1-0.9c0-0.5,0.4-0.8,1-0.8
				c0.4,0,0.9,0.1,1.1,0.2l0.3,1.1h1.1V3.7c-0.6-0.3-1.5-0.4-2.4-0.4c-2.3,0-3.3,1.1-3.3,2.6c0,1.1,0.7,2.3,2.1,2.6l0.9,0.2
				c0.8,0.2,1,0.4,1,1c0,0.6-0.5,0.8-1.2,0.8c-0.4,0-1.1-0.1-1.2-0.2l-0.4-1.3h-1.1v2C169.1,11.2,170.2,11.4,171,11.4 M167.9,7.6
				c0-3.2-1.1-4.3-3.4-4.3c-2.3,0-3.8,1.5-3.8,4c0,2.6,1.4,4.1,4,4.1c1.4,0,2.6-0.6,2.9-1.1V9.6c-0.5,0.2-1.1,0.3-2.1,0.3
				c-1.4,0-2.1-0.7-2.2-2.2H167.9z M164.4,4.2c0.6,0,1,0.3,1,2.4l-2.1,0.1C163.3,4.6,163.7,4.2,164.4,4.2 M156.8,11.4
				c2.4,0,3.5-1.1,3.5-2.7c0-1.2-0.6-2.2-2-2.5L157.4,6c-0.9-0.2-1.1-0.5-1.1-0.9c0-0.5,0.4-0.8,1-0.8c0.4,0,0.9,0.1,1.1,0.2l0.3,1.1
				h1.1V3.7c-0.6-0.3-1.5-0.4-2.4-0.4c-2.3,0-3.3,1.1-3.3,2.6c0,1.1,0.7,2.3,2.1,2.6l0.9,0.2c0.8,0.2,1,0.4,1,1
				c0,0.6-0.5,0.8-1.2,0.8c-0.4,0-1.1-0.1-1.2-0.2l-0.4-1.3h-1.1v2C154.9,11.2,156,11.4,156.8,11.4 M150.2,11.4
				c2.4,0,3.5-1.1,3.5-2.7c0-1.2-0.6-2.2-2-2.5L150.7,6c-0.9-0.2-1.1-0.5-1.1-0.9c0-0.5,0.4-0.8,1-0.8c0.4,0,0.9,0.1,1.1,0.2l0.3,1.1
				h1.1V3.7c-0.6-0.3-1.5-0.4-2.4-0.4c-2.3,0-3.3,1.1-3.3,2.6c0,1.1,0.7,2.3,2.1,2.6l0.9,0.2c0.8,0.2,1,0.4,1,1
				c0,0.6-0.5,0.8-1.2,0.8c-0.4,0-1.1-0.1-1.2-0.2l-0.4-1.3h-1.1v2C148.3,11.2,149.4,11.4,150.2,11.4 M142,4.4c0.2,0,0.5,0,0.7,0
				c1,0,1.3,0.5,1.3,1.5v1l-1.5,0.2c-1.7,0.3-2.7,0.6-2.7,2.2c0,1.3,0.9,2.2,2.2,2.2c1,0,1.9-0.4,2.2-1.1h0.1
				c0.1,0.8,0.8,1.1,1.6,1.1c0.6,0,1.2-0.2,1.4-0.3v-0.6l-0.8-0.4V5.7c0-1.7-1.2-2.3-3.3-2.3c-1.3,0-2.2,0.4-2.9,0.6v2h1.2L142,4.4z
				 M143.9,9.7c-0.1,0.2-0.4,0.3-0.7,0.3c-0.5,0-1-0.3-1-1.1c0-0.7,0.5-1.1,1.1-1.2l0.6-0.1V9.7z M135.2,0.7v0.7l0.9,0.4v8.3
				l-0.8,0.4v0.7h4.2v-0.7l-0.8-0.4V0.2h-0.2L135.2,0.7z M132.2,11.4c1.3,0,2.3-0.6,2.7-1.1V9.6c-0.4,0.1-1.2,0.2-1.9,0.2
				c-1.3,0-2.2-0.8-2.2-2.6c0-2.1,0.6-2.9,1.5-2.9c0.3,0,0.6,0.1,0.7,0.1l0.4,1.5h1.3V3.6c-0.4-0.2-1.6-0.3-2.4-0.3
				c-2.5,0-4.2,1.5-4.2,4C128.2,9.8,129.5,11.4,132.2,11.4 M122.3,3.8v0.7l0.9,0.4v5.2l-0.8,0.4v0.7h4.4v-0.7l-1.1-0.4V5.8
				c0.4-0.2,1-0.3,1.7-0.3c0.2,0,0.5,0,0.6,0.1V3.4c-0.1,0-0.2,0-0.4,0c-0.8,0-1.5,0.5-2,1.6h-0.1V3.3h-0.2L122.3,3.8z M122.1,7.6
				c0-3.2-1.1-4.3-3.4-4.3c-2.3,0-3.8,1.5-3.8,4c0,2.6,1.4,4.1,4,4.1c1.4,0,2.6-0.6,2.9-1.1V9.6c-0.5,0.2-1.1,0.3-2.1,0.3
				c-1.4,0-2.1-0.7-2.2-2.2H122.1z M118.6,4.2c0.6,0,1,0.3,1,2.4l-2.1,0.1C117.5,4.6,117.9,4.2,118.6,4.2 M110.6,9.1
				c0,1.6,0.7,2.3,2.2,2.3c0.8,0,1.7-0.2,2.1-0.5v-1c-0.2,0-0.5,0.1-0.8,0.1c-0.7,0-0.9-0.4-0.9-1.1V4.8h1.7V3.5h-1.7V1.7l-2.6,0.4
				v1.4l-1.2,0.2v1.2h1.2V9.1z M105.9,11.4c2.4,0,3.5-1.1,3.5-2.7c0-1.2-0.6-2.2-2-2.5L106.4,6c-0.9-0.2-1.1-0.5-1.1-0.9
				c0-0.5,0.4-0.8,1-0.8c0.4,0,0.9,0.1,1.1,0.2l0.3,1.1h1.1V3.7c-0.6-0.3-1.5-0.4-2.4-0.4c-2.3,0-3.3,1.1-3.3,2.6
				c0,1.1,0.7,2.3,2.1,2.6l0.9,0.2c0.8,0.2,1,0.4,1,1c0,0.6-0.5,0.8-1.2,0.8c-0.4,0-1.1-0.1-1.2-0.2l-0.4-1.3h-1.1v2
				C104,11.2,105.1,11.4,105.9,11.4 M97.6,4.4c0.2,0,0.5,0,0.7,0c1,0,1.3,0.5,1.3,1.5v1l-1.5,0.2c-1.7,0.3-2.7,0.6-2.7,2.2
				c0,1.3,0.9,2.2,2.2,2.2c1,0,1.9-0.4,2.2-1.1h0.1c0.1,0.8,0.8,1.1,1.6,1.1c0.6,0,1.2-0.2,1.4-0.3v-0.6l-0.8-0.4V5.7
				c0-1.7-1.2-2.3-3.3-2.3c-1.3,0-2.2,0.4-2.9,0.6v2h1.2L97.6,4.4z M99.6,9.7c-0.1,0.2-0.4,0.3-0.7,0.3c-0.5,0-1-0.3-1-1.1
				c0-0.7,0.5-1.1,1.1-1.2l0.6-0.1V9.7z M82.2,11.2h4.1v-0.7l-0.7-0.4V5.1c0.3-0.1,0.6-0.2,0.9-0.2c0.7,0,0.9,0.3,0.9,1.1v4.2
				l-0.7,0.4v0.7h3.9v-0.7L90,10.1V5.1c0.3-0.1,0.6-0.2,0.9-0.2c0.7,0,0.9,0.3,0.9,1.1v4.2l-0.7,0.4v0.7h4.1v-0.7l-0.8-0.4V5.4
				c0-1.4-0.7-2.1-2-2.1c-1,0-1.8,0.4-2.5,1h-0.1c-0.3-0.7-0.9-1-1.8-1c-1,0-1.7,0.4-2.4,1h-0.1v-1h-0.2l-3.2,0.5v0.7l0.9,0.4v5.2
				l-0.8,0.4V11.2z"/>
		</g>
	</g>
</svg>