<svg width="126" height="20" viewBox="0 0 378 60"><path d="M.7 45H17v-2.8l-3-1.6V20.4c1.3-.6 2.4-.8 3.5-.8 2.8 0 3.8 1 3.8 4.3v16.6l-2.7 1.6V45h15.6v-2.8l-2.7-1.6V20.3c1-.5 2.3-.7 3.4-.7 2.8 0 4 1 4 4.3v16.6L36 42.2V45h16.2v-2.8L49 40.6v-19c0-5.6-2.6-8.2-7.7-8.2-4.2 0-7.3 1.5-10 4H31c-1-2.7-3.4-4-7-4-4.2 0-6.8 1.5-9.6 4H14v-4h-.7l-12.8 2V18L4 19.8v21L.7 42v3zm62-27.5h2.6c4 0 5 2 5 5.8v4l-5.8 1c-6.8 1.3-11 2.5-11 9 0 5 3.5 8.5 9 8.5 3.8 0 7.5-1.7 8.8-4.4h.3c.5 3.3 3.4 4.3 6.6 4.3 2.4 0 4.7-.7 5.7-1.2v-2.3l-3.3-1.6v-18c0-6.8-5-9.2-13.2-9.2-5.4 0-9 1.4-11.8 2.4v8h4.8l2-6.3zM70.3 39c-.5.6-1.7 1.2-2.8 1.2-2 0-3.8-1-3.8-4.5 0-3 2-4.5 4.2-4.8l2.4-.3V39zm25.2 6.7c9.8 0 14-4.4 14-10.8 0-4.8-2.4-8.7-8.3-10l-3.7-.8c-3.4-.7-4.2-1.8-4.2-3.6 0-2 1.6-3 4-3 1.7 0 4 .4 4.6.7l1.3 4.3h4.3V15c-2.4-1-6-1.6-9.8-1.6-9 0-13 4.3-13 10.2 0 4.6 2.6 9 8.3 10.4l3.8.8c3.3.7 4 1.6 4 4 0 2.3-2 3-5 3-1.6 0-4-.4-4.8-1l-1.8-5H85v8c2.8 1.3 7.3 2 10.6 2zm18.7-9.2c0 6.6 3 9.3 9 9.3 3.2 0 6.6-.8 8.3-1.8v-4l-3.3.2c-3 0-3.8-1.5-3.8-4.5V19.4h6.7v-5.2h-6.7V7l-10.2 1.4v5.8l-4.7.6v4.6h4.7v17zm47-6c0-13-4.4-17-13.7-17-9.2 0-15.2 5.8-15.2 16 0 10.5 5.5 16.3 16 16.3 5.7 0 10.3-2.5 11.8-4.5v-3c-2.2.7-4.4 1-8.3 1-5.7 0-8.6-2.8-9-8.8h18.3zm-13.8-13.7c2.5 0 4 1.3 4 9.5l-8.7.5c0-8.2 2-10 4.7-10zm14.8-1.5V18l3.4 1.7v21l-3.2 1.4v3h17.7v-3l-4.3-1.4v-17c1.7-1 4-1.2 6.8-1.2.8 0 2 0 2.6.2v-9h-1.6c-3.3 0-6 2-8 6.2h-.2v-6.5h-1l-12.3 2zM202 45.7c5 0 9.3-2.4 11-4.4v-2.8c-1.5.4-4.7 1-7.5 1-5 0-8.8-3.2-8.8-10.5 0-8.4 2.6-11.6 6-11.6 1.4 0 2.5.2 3 .5l1.7 6h5.3v-9.3c-1.7-.7-6.2-1.3-9.7-1.3-10.2 0-16.8 6-16.8 16.2 0 9.7 5.4 16 15.8 16zm12.6-43v3L218 7v33.4l-3 1.6v3h16.8v-3l-3.3-1.4V.8h-.8l-13 2zM242 17.6h2.6c4 0 5.2 2 5.2 5.8v4l-6 1c-6.7 1.3-10.8 2.5-10.8 9 0 5 3.4 8.5 8.8 8.5 4 0 7.5-1.7 9-4.4h.2c.5 3.3 3.3 4.3 6.5 4.3 2.5 0 4.8-.7 5.8-1.2v-2.3l-3.3-1.6v-18c0-6.8-5-9.2-13.2-9.2-5.3 0-8.8 1.4-11.7 2.4v8h5l2-6.3zm7.8 21.5c-.6.6-1.7 1.2-2.8 1.2-2 0-4-1-4-4.5 0-3 2-4.5 4.4-4.8l2.4-.3V39zm25 6.7c10 0 14-4.4 14-10.8 0-4.8-2.2-8.7-8.2-10l-3.6-.8c-3.4-.7-4.3-1.8-4.3-3.6 0-2 1.7-3 4-3 1.8 0 4 .4 4.6.7l1.3 4.3h4.3V15c-2.5-1-6.2-1.6-9.8-1.6-9 0-13 4.3-13 10.2 0 4.6 2.6 9 8.2 10.4l3.8.8c3.3.7 4 1.6 4 4 0 2.3-2 3-5 3-1.7 0-4.2-.4-5-1l-1.6-5h-4.4v8c3 1.3 7.4 2 10.8 2zm26.3 0c10 0 14-4.4 14-10.8 0-4.8-2.3-8.7-8.2-10l-3.6-.8c-3.4-.7-4.3-1.8-4.3-3.6 0-2 1.6-3 4-3 1.6 0 3.8.4 4.5.7l1.3 4.3h4.3V15c-2.3-1-6-1.6-9.6-1.6-9 0-13 4.3-13 10.2 0 4.6 2.5 9 8.2 10.4l3.7.8c3.3.7 4 1.6 4 4 0 2.3-2 3-4.8 3-1.8 0-4.3-.4-5-1l-1.8-5h-4.3v8c3 1.3 7.4 2 10.7 2zm44.4-15.2c0-13-4.5-17-13.7-17s-15.2 5.8-15.2 16c0 10.5 5.4 16.3 16 16.3 5.6 0 10.3-2.5 11.7-4.5v-3c-2 .7-4.3 1-8.3 1-5.7 0-8.5-2.8-9-8.8h18.4zm-14-13.7c2.6 0 4 1.3 4 9.5l-8.5.5c0-8.2 1.7-10 4.5-10zm26.2 29c9.8 0 13.8-4.5 13.8-11 0-4.6-2.2-8.5-8.2-9.8l-3.6-.8c-3.4-.7-4.2-1.8-4.2-3.6 0-2 1.6-3 4-3 1.7 0 3.8.4 4.5.7l1.3 4.3h4.3V15c-2.5-1-6.2-1.6-9.8-1.6-9 0-13 4.3-13 10.2 0 4.6 2.6 9 8.2 10.4l3.8.8c3.3.7 4 1.6 4 4 0 2.3-2 3-5 3-1.7 0-4-.4-5-1l-1.6-5h-4.4v8c3 1.3 7.5 2 10.8 2z"/></svg>