<?xml version="1.0" encoding="UTF-8" standalone="no"?>
<!-- Generator: Adobe Illustrator 16.0.1, SVG Export Plug-In . SVG Version: 6.00 Build 0)  -->

<svg
   xmlns:dc="http://purl.org/dc/elements/1.1/"
   xmlns:cc="http://creativecommons.org/ns#"
   xmlns:rdf="http://www.w3.org/1999/02/22-rdf-syntax-ns#"
   xmlns:svg="http://www.w3.org/2000/svg"
   xmlns="http://www.w3.org/2000/svg"
   xmlns:sodipodi="http://sodipodi.sourceforge.net/DTD/sodipodi-0.dtd"
   xmlns:inkscape="http://www.inkscape.org/namespaces/inkscape"
   version="1.1"
   id="Layer_1"
   x="0px"
   y="0px"
   width="171.91316"
   height="73.964378"
   viewBox="0 0 171.91316 73.96438"
   enable-background="new 0 0 300 90"
   xml:space="preserve"
   sodipodi:docname="logo-membership.svg"
   inkscape:version="0.91 r13725"><metadata
     id="metadata3458"><rdf:RDF><cc:Work
         rdf:about=""><dc:format>image/svg+xml</dc:format><dc:type
           rdf:resource="http://purl.org/dc/dcmitype/StillImage" /><dc:title></dc:title></cc:Work></rdf:RDF></metadata><defs
     id="defs3456"><inkscape:perspective
       sodipodi:type="inkscape:persp3d"
       inkscape:vp_x="0 : 86.142733 : 1"
       inkscape:vp_y="0 : 1000 : 0"
       inkscape:vp_z="314.86248 : 86.142733 : 1"
       inkscape:persp3d-origin="157.43124 : 57.428489 : 1"
       id="perspective4278" /><clipPath
       clipPathUnits="userSpaceOnUse"
       id="clipPath4320"><rect
         style="opacity:0.50100098;fill:#ff0000;fill-opacity:1"
         id="rect4322"
         width="345.62537"
         height="147.92876"
         x="-29.420774"
         y="0.16018169"
         clip-path="none" /></clipPath></defs><sodipodi:namedview
     pagecolor="#ffffff"
     bordercolor="#666666"
     borderopacity="1"
     objecttolerance="10"
     gridtolerance="10"
     guidetolerance="10"
     id="namedview3454"
     showgrid="false"
     fit-margin-top="0"
     fit-margin-left="0"
     fit-margin-right="0"
     fit-margin-bottom="0"
     showguides="false"
     inkscape:zoom="8.6613496"
     inkscape:cx="68.753719"
     inkscape:cy="36.982189"
     inkscape:window-width="1920"
     inkscape:window-height="1035"
     inkscape:window-x="1680"
     inkscape:window-y="356"
     inkscape:window-maximized="0"
     inkscape:current-layer="Layer_1" /><g
     id="g4314"
     clip-path="url(#clipPath4320)"
     transform="matrix(0.5,0,0,0.5,13.81087,-0.08009084)"><g
       id="g4264"><g
         id="g4270"><rect
           transform="matrix(0.98394845,-0.17845294,0.15194872,0.98838838,0,0)"
           y="55.290833"
           x="-36.610771"
           height="147.40195"
           width="374.32623"
           id="rect3460"
           style="fill:#fbbb00;fill-opacity:1" /><rect
           transform="matrix(0.99169331,0.12862498,-0.11155813,0.99375791,0,0)"
           y="12.596478"
           x="41.744484"
           height="156.32227"
           width="319.12817"
           id="rect4262"
           style="opacity:0.5010014;fill:#483e37;fill-opacity:1" /></g></g></g><g
     id="g3424"
     transform="matrix(0.5,0,0,0.5,15.241987,30.168851)"><path
       d="m 164.807,0.383 c -1.459,0 -2.627,1.167 -2.627,2.626 0,1.433 1.168,2.599 2.627,2.599 1.432,0 2.626,-1.167 2.626,-2.599 0,-1.459 -1.195,-2.626 -2.626,-2.626"
       id="path3426"
       inkscape:connector-curvature="0"
       style="fill:#ffffff" /><path
       d="m 183.697,21.817 8.117,0 0,-1.352 -1.564,-0.743 0,-9.599 c 0.583,-0.419 1.273,-0.562 2.016,-0.562 1.354,0 1.989,0.556 1.989,2.096 l 0,8.065 -1.564,0.743 0,1.352 8.117,0 0,-1.352 -1.618,-0.743 0,-9.179 c 0,-2.732 -1.247,-3.954 -3.715,-3.954 -2.015,0 -3.979,0.717 -5.305,1.937 l 0,-1.937 -0.398,0 -6.154,0.982 0,1.3 1.698,0.769 0,10.082 -1.618,0.743 0,1.352 z"
       id="path3428"
       inkscape:connector-curvature="0"
       style="fill:#ffffff" /><polygon
       points="160.748,7.519 160.748,8.872 162.42,9.64 162.42,19.695 160.827,20.437 160.827,21.817 168.944,21.817 168.944,20.437 167.353,19.695 167.353,6.536 166.955,6.536 "
       id="polygon3430"
       style="fill:#ffffff" /><path
       d="m 153.844,19.023 c -0.358,0.295 -0.769,0.513 -1.511,0.513 -1.964,0 -2.892,-1.592 -2.892,-5.253 0,-4.191 1.166,-5.597 2.731,-5.597 0.876,0 1.312,0.273 1.671,0.668 l 0,9.669 z m 0,-11.77 c -0.61,-0.426 -1.564,-0.665 -2.387,-0.665 -3.652,0 -7.105,2.094 -7.105,8.089 0,5.704 3.478,7.538 5.805,7.538 1.857,0 3.131,-0.822 3.741,-1.619 l 0.158,0 0,1.566 0.426,0 5.862,-0.69 0,-1.081 -1.565,-0.875 0,-18.975 -0.398,0 -6.181,0.982 0,1.354 1.645,0.742 0,3.634 z"
       id="path3432"
       inkscape:connector-curvature="0"
       style="fill:#ffffff" /><path
       d="m 133.351,7.519 0,1.353 1.646,0.769 0,10.055 -1.566,0.742 0,1.38 8.543,0 0,-1.38 -2.044,-0.742 0,-7.876 c 0.874,-0.687 1.964,-0.904 3.289,-0.904 0.426,0 0.955,0.053 1.248,0.132 l 0,-4.325 c -0.16,-0.054 -0.477,-0.08 -0.742,-0.08 -1.619,0 -3.104,1.062 -3.979,3.024 l 0,-3.131 -0.425,0 -5.97,0.983 z"
       id="path3434"
       inkscape:connector-curvature="0"
       style="fill:#ffffff" /><path
       d="m 122.752,8.69 c 0.352,-0.156 1.072,-0.164 1.312,-0.164 1.909,0 2.467,0.956 2.467,2.839 l -0.004,1.677 -2.828,0.531 c -2.896,0.534 -5.081,1.413 -5.081,4.465 0,2.466 1.732,4.176 4.093,4.176 1.858,0 3.608,-0.795 4.272,-2.121 l 0.132,0 c 0.239,1.592 1.618,2.096 3.156,2.096 1.194,0 2.348,-0.372 2.786,-0.869 l 0,-0.855 -1.565,-0.743 0,-8.622 c 0,-3.342 -2.387,-4.565 -6.367,-4.565 -2.599,0 -4.298,0.649 -5.677,1.306 l 0,3.764 2.308,0 0.996,-2.915 z m 3.778,10.18 c -0.284,0.419 -0.822,0.64 -1.353,0.64 -0.956,0 -1.856,-0.532 -1.856,-2.176 0,-1.174 1.061,-2.255 2.221,-2.433 l 0.988,-0.187 0,4.156 z"
       id="path3436"
       inkscape:connector-curvature="0"
       style="fill:#ffffff" /><path
       d="m 172.931,8.69 c 0.35,-0.156 1.071,-0.164 1.311,-0.164 1.91,0 2.466,0.956 2.466,2.839 l -0.003,1.677 -2.828,0.531 c -2.896,0.534 -5.081,1.413 -5.081,4.465 0,2.466 1.732,4.176 4.094,4.176 1.856,0 3.606,-0.795 4.271,-2.121 l 0.133,0 c 0.239,1.592 1.617,2.096 3.157,2.096 1.193,0 2.347,-0.372 2.786,-0.869 l 0,-0.855 -1.566,-0.743 0,-8.622 c 0,-3.342 -2.388,-4.565 -6.366,-4.565 -2.601,0 -4.3,0.649 -5.677,1.306 l 0,3.764 2.307,0 0.996,-2.915 z m 3.776,10.18 c -0.282,0.419 -0.82,0.64 -1.353,0.64 -0.954,0 -1.856,-0.532 -1.856,-2.176 0,-1.174 1.061,-2.255 2.223,-2.433 l 0.986,-0.187 0,4.156 z"
       id="path3438"
       inkscape:connector-curvature="0"
       style="fill:#ffffff" /><path
       d="m 103.374,17.493 c 0,2.574 1.274,4.723 4.272,4.723 1.99,0 3.74,-0.875 4.695,-2.042 l 0,2.017 0.398,0 6.022,-0.718 0,-1.08 -1.672,-0.876 0,-12.9 -0.398,0 -6.181,0.981 0,1.354 1.644,0.769 0,8.91 c -0.549,0.365 -0.928,0.534 -1.799,0.534 -1.247,0 -2.047,-0.371 -2.047,-2.069 l 0,-10.479 -0.424,0 -6.181,0.981 0,1.354 1.671,0.769 0,7.772 z"
       id="path3440"
       inkscape:connector-curvature="0"
       style="fill:#ffffff" /><path
       d="m 97.121,18.555 -5.306,0 c -0.584,0 -1.061,-0.424 -1.061,-0.956 0,-0.396 0.292,-0.822 0.663,-1.086 0.796,0.238 1.46,0.292 2.44,0.292 3.821,0 6.447,-1.726 6.447,-4.961 0,-1.459 -0.61,-2.282 -1.539,-3.131 l 2.516,0.785 0.005,-2.959 -4.006,0.74 c -0.929,-0.345 -2.228,-0.77 -3.423,-0.77 -3.819,0 -6.472,1.964 -6.472,5.174 0,1.962 0.982,3.422 2.467,4.245 l 0.119,0.073 c -0.849,0.584 -2.613,1.917 -2.613,3.482 0,1.167 0.77,2.307 2.362,2.652 l 0,0.004 c -1.672,0.345 -3.555,1.056 -3.555,2.994 0,1.99 2.865,3.957 7.533,3.957 5.81,0 8.33,-2.737 8.33,-6.265 0,-2.918 -1.618,-4.27 -4.907,-4.27 M 93.857,8.261 c 1.088,0 1.833,0.758 1.833,3.422 0,2.731 -0.771,3.289 -1.833,3.289 -1.061,0 -1.805,-0.558 -1.805,-3.289 0,-2.798 0.744,-3.422 1.805,-3.422 m -0.025,18.572 c -2.705,0 -3.679,-1.057 -3.635,-2.098 0.029,-0.715 0.382,-1.642 1.653,-1.723 l 4.218,0 c 1.22,0 1.991,0.846 1.991,1.616 0,1.539 -1.149,2.205 -4.227,2.205"
       id="path3442"
       inkscape:connector-curvature="0"
       style="fill:#ffffff" /><path
       d="m 86.442,14.84 c 0,-6.235 -2.766,-8.279 -6.606,-8.279 -4.429,0 -7.321,2.893 -7.321,7.803 0,5.041 2.626,7.85 7.72,7.85 2.732,0 4.886,-1.438 5.576,-2.393 l 0.075,-1.213 c -1.036,0.318 -2.096,0.504 -3.98,0.504 -2.706,0 -4.327,-1.383 -4.324,-4.272 l 8.86,0 z M 79.757,8.234 c 1.22,0 1.883,0.887 1.883,4.59 l -4.111,0.238 c 0.056,-3.781 0.874,-4.828 2.228,-4.828"
       id="path3444"
       inkscape:connector-curvature="0"
       style="fill:#ffffff" /><path
       d="m 56.42,21.817 8.117,0 0,-1.352 -1.564,-0.743 -0.003,-9.577 c 0.592,-0.408 1.269,-0.628 2.011,-0.628 1.354,0 2.022,0.854 1.997,2.14 l 0,8.065 -1.564,0.743 0,1.352 8.117,0 0,-1.352 -1.617,-0.743 0,-9.179 c 0,-2.732 -1.576,-3.954 -3.714,-3.954 -2.016,0 -3.984,0.717 -5.312,1.937 l 0.006,0 0,-8.276 -0.398,0 -6.153,0.982 0,1.299 1.697,0.769 0,16.423 -1.618,0.743 0,1.351 z"
       id="path3446"
       inkscape:connector-curvature="0"
       style="fill:#ffffff" /><path
       d="m 47.533,17.758 c 0,2.731 1.298,4.457 4.242,4.457 1.539,0 3.18,-0.398 4.115,-1.095 l 0,-1.828 c -0.389,0.125 -1.062,0.244 -1.592,0.244 -1.432,0 -1.83,-0.742 -1.83,-2.202 l 0,-7.826 3.236,0 0,-2.547 -3.236,0 0,-3.476 -4.935,0.691 0,2.785 -2.281,0.429 0,2.118 2.281,0 0,8.25 z"
       id="path3448"
       inkscape:connector-curvature="0"
       style="fill:#ffffff" /></g><path
     d="m 55.910987,63.97535 c -0.1965,-0.0155 -0.3945,-0.0985 -0.5895,-0.2475 l -0.1305,-0.097 c -0.3735,-0.2735 -0.839,-0.614 -0.6035,-1.3815 0.273,-0.8865 2.125,-6.6775 2.1405,-6.801 -0.2155,0.363 -3.3335,3.0015 -5.846,4.47 -0.238,0.139 -0.981,0.5975 -1.3495,0.502 -1.726,-0.445 -1.1325,-2.17 -0.652,-2.569 0.033,-0.0275 0.1725,-0.108 0.3285,-0.1735 0.8745,-0.3685 3.3275,-1.6485 5.945,-4.0805 1.748,-1.624 4.4195,-5.075499 4.616,-5.512499 0.0485,-0.1085 0.0975,-0.2165 0.1465,-0.3225 0.1285,-0.274 0.4285,-0.9165 1.071,-0.865 0.1255,0.0095 0.258,0.0475 0.3935,0.112 0.804,0.3795 1.1385,1.027 0.875,1.689 -0.183,0.4575 -0.4305,0.8865 -0.6695,1.301498 -0.1735,0.301001 -0.353,0.611001 -0.5005,0.923501 -0.5405,1.1365 -1.074,2.332 -1.6345,3.654 -0.3435,0.8105 -0.6375,1.6415 -0.908,2.423 -0.0485,0.1385 -0.076,0.2875 -0.1005,0.445 0.0365,-0.035 0.069,-0.0715 0.095,-0.1075 0.415,-0.5895 1.7575,-2.604 3.321,-4.6385 1.563,-2.034 4.3695,-5.599499 4.933,-5.970999 0.694,-0.457 1.585,0.325 1.814,0.7825 0.2325,0.4645 0.281,0.963 0.1315,1.366 -0.7085,1.914499 -1.426,3.825999 -2.1435,5.736999 l -0.601,1.602 c -0.092,0.2455 -0.1875,0.4895 -0.2815,0.734 l -0.006,0.013 c 0.1405,-0.0775 0.271,-0.1535 0.362,-0.249 1.0595,-1.0995 3.4485,-3.6555 3.4485,-3.6555 1.9615,-2.098 3.924,-4.196499 5.877,-6.302499 0.3355,-0.361 0.67,-0.523 1.0215,-0.4945 0.158,0.012 0.3155,0.065 0.469,0.1555 0.3855,0.2275 1.032,0.6075 0.7765,1.4625 -0.0915,0.307 -2.3735,7.849499 -2.491,8.198499 -0.2615,0.7735 -0.532,1.5745 -0.7175,2.3735 -0.0665,0.29 -0.128,0.888 0.133,1.3195 0.683,-0.18 3.654,-2.059 3.654,-2.059 0,0 -0.084,-0.4255 -0.022,-1.3645 0.1935,-2.9175 1.4555,-5.2155 2.7755,-6.778499 1.2205,-1.4455 2.886,-2.4595 3.9275,-2.3915 0.8995,0.059 1.781,0.824 1.7015,1.9585 -0.062,0.896999 -0.3595,1.914499 -0.8605,2.940499 -1.325,2.7165 -2.646,4.5975 -4.2845,6.0985 -0.2285,0.209 -0.3405,0.3015 -0.6145,0.523 0,0 0.122,0.2935 0.4835,0.3225 0.771,0.0615 1.451,-0.214 2.014,-0.4915 1.908,-0.941 3.6455,-2.399 5.3105,-4.458 0.8525,-1.053 1.479,-1.9505 1.9725,-2.8215 0.42,-0.743 0.769,-1.551999 1.106,-2.333999 0.1475,-0.3425 0.2955,-0.6855 0.4495,-1.024 0.152,-0.3355 0.4355,-0.9595 1.0825,-0.9085 0.1335,0.011 0.276,0.0515 0.423,0.1215 0.4275,0.2005 0.718,0.503 0.8405,0.874 0.126,0.379 0.062,0.803 -0.1615,1.2385 -0.6355,1.233999 -2.697,6.063499 -2.697,6.063499 -0.084,0.256 -0.053,0.469 0.0305,0.4865 0.084,0.0165 3.3495,-3.6505 4.9355,-5.4305 0,0 2.5935,-2.831999 2.7395,-3.020999 0.271,-0.3525 0.963503,-0.8715 1.630503,-0.486 0.619,0.3595 0.87,1.423 0.6515,2.0255 -0.6125,1.678499 -1.2125,3.361999 -1.811503,5.044999 l -0.562,1.6335 c 0.17,-0.171 0.33,-0.3335 0.4615,-0.514 2.418003,-3.289 7.695503,-8.417999 8.982503,-8.314999 0.561,0.045 0.9345,0.544 1.255,1.077 0.1525,0.252 0.303,0.6315 -0.025,1.121 -0.6225,0.93 -2.3975,5.667499 -2.5295,6.035499 -0.191,0.536 -1.0605,3.2315 -1.0815,3.3265 -0.02,0.084 -0.0995,0.3175 -0.0905,0.4255 0,0 4.3785,-3.412 5.8515,-5.183 2.589,-3.1125 6.5875,-13.008999 6.77,-13.355499 0.3725,-0.7085 1.0705,-1.146 1.799,-1.069 0.793,0.083 0.9915,0.6025 1.0145,1.079 0.08,1.654 -5.5925,11.607999 -5.538,11.703499 0.228,-0.2485 4.387,-3.822999 6.7215,-3.118499 0.9675,0.2915 1.036,0.9755 1.23,1.895999 0.353,1.6805 -1.778,11.817 -9.5145,12.1375 -0.9605,0.04 -2.3625,-0.6735 -2.8625,-2.075 -0.0145,-0.0395 -0.219,0.151 -0.424,0.0495 -0.423,-0.231 -0.701,-0.4895 -0.809,-0.761 -0.091,-0.225 -0.024,-0.477 0.08,-0.8985 0.1375,-0.5565 2.0965,-2.799 -0.3955,-0.46 -2.088,1.9605 -4.2055,3.3805 -4.5435,3.617 -0.303,0.2125 -0.69,0.4495 -1.098,0.4035 -0.3925,-0.0445 -0.873,-0.292 -1.154,-0.642 -0.4145,-0.5165 -0.21,-1.203 0.152,-2.0025 0.2775,-0.6095 0.687,-2.3555 0.7845,-2.6505 l 0.583,-1.75 c 0.466,-1.395 0.9305,-2.7905 1.3875,-4.1885 0.052,-0.1635 0.1685,-0.535 0.095,-0.5705 0,0 -2.2085,2.429 -2.945,3.2555 -0.448,0.5005 -4.234003,5.08 -5.232503,6.3205 -0.2595,0.3215 -0.573,0.4695 -0.9315,0.4415 -0.307,-0.0245 -0.591,-0.1775 -0.8195,-0.3005 -0.619,-0.33 -0.7965,-0.81 -0.559,-1.442 0.2875,-0.7695 0.484,-1.5985 0.6755,-2.3985 0.1185,-0.501 0.2405,-1.0185 0.386,-1.5225 0.193,-0.671 0.427,-1.3375 0.6545,-1.9825 0.1065,-0.304 0.2135,-0.609 0.3175,-0.9145 0.041,-0.124 0.0805,-0.2485 0.1185,-0.373 -0.0955,0.146 -6.37,7.4885 -7.3205,8.3225 -0.201,0.177 -0.5545,0.4255 -0.9045,0.3975 -0.192,-0.015 -0.887,-0.3845 -1.3685,-0.8835 -0.243,-0.251 -0.401,-0.4705 0.1285,-1.421 0.1035,-0.185 0.326,-0.593 0.3125,-0.788 -0.004,-0.0525 -0.01,-0.133 -0.05,-0.1995 -0.076,0.0275 -2.26,2.451 -5.1995,3.696 -0.757,0.32 -1.491,0.473 -2.1885,0.408 -1.6635,-0.154 -2.5735,-1.262 -2.5735,-1.262 0,0 -3.6485,2.5835 -5.9325,2.9865 -0.4715,0.083 -1.0785,-0.1995 -1.398,-0.6345 -0.3195,-0.437 -0.0105,-2.075 0.263,-3.261 0.4285,-1.8555 1.5095,-5.1355 1.7215,-5.723 0.241,-0.6685 0.483,-1.3375 0.7155,-2.009 -0.001,-10e-4 -0.006,-0.0115 -0.011,-0.0255 -0.091,0.0175 -0.213,0.042 -0.246,0.0745 -0.344,0.3435 -3.5635,3.9035 -3.5635,3.9035 -1.271,1.3935 -2.5415,2.7865 -3.8085,4.183 -0.6805,0.7485 -1.245,1.3835 -1.7885,2.048 -0.25,0.3055 -0.5825,0.509 -0.913,0.432 -0.7935,-0.185 -1.325,-1.016 -1.267,-1.486 0.13,-1.0415 0.3545,-2.161 0.709,-3.525 0.2695,-1.037 1.375,-4.5105 1.488,-4.8085 0.0135,-0.0345 0.0265,-0.0705 0.04,-0.1055 -0.0565,0.022 -0.109,0.046 -0.1225,0.066 -0.6455,0.912 -5.8225,8.344 -7.1025,10.1415 -0.338,0.476 -0.6335,0.8385 -0.9275,1.139 -0.2665,0.2705 -0.552,0.3975 -0.8475,0.374 m 28.147,-13.913 c -1.407,0.5235 -3.211,3.073 -3.809,6.177 1.157,-1.1815 3.718,-5.038 3.809,-6.177 m 30.828503,10.084 c 6.0325,-0.7805 8.7945,-10.529499 5.4735,-8.622 -2.235,1.2845 -5.1125,4.4015 -6.312,7.6495 -0.2035,0.5505 -0.106,1.244 0.8385,0.9725"
     id="path3450"
     inkscape:connector-curvature="0"
     style="fill:#ffffff" /><path
     d="m 148.69349,63.61185 c -1.068,-0.116 -1.9625,-0.6615 -2.5155,-1.535 -0.588,-0.9255 -0.723,-2.0995 -0.363,-3.139 0.254,-0.7375 1.0105,-1.243 1.9225,-1.6355 0.427,-0.1845 2.862,-1.4055 2.862,-1.4055 0,0 0.3285,-0.753 0.445,-1.07 0.2615,-0.7205 0.8905,-2.4435 1.109,-3.0485 0,0 -0.949,0.5565 -2.622,1.1165 -1.706,0.571 -4.419,1.179 -5.4515,1.3065 -1.0325,0.127 -1.4055,0.462 -1.7745,0.913 -0.971,1.188 -2.1745,2.772 -3.248,4.1615 -0.289,0.3725 -0.7065,0.8905 -1.336,0.841 -0.191,-0.0155 -0.8485,-0.2735 -1.1045,-0.6405 -0.205,-0.295 -0.2825,-0.5485 0.045,-1.276 0.1505,-0.334 1.2485,-2.332 1.4195,-2.6665 -0.01,0.0125 0.0355,-0.088 -0.004,-0.101 -0.844,0.8425 -6.1765,5.8685 -9.3305,5.616 -2.8115,-0.2245 -3.161,-3.66 -3.161,-3.66 0,0 -0.656,0.1815 -0.803,0.1745 -0.2985,-0.0155 -0.662,-0.3545 -0.9475,-1.013 -0.1835,-0.427 -0.506,-1.2455 -0.103,-1.3335 1.198,-0.2635 1.8435,-0.457 1.8435,-0.457 0.4775,-3.058 1.978,-5.072499 2.526,-5.720999 1.4445,-1.71 3.081,-2.195 3.515,-2.252 1.951,-0.2575 2.793,0.9965 2.823,2.1275 0.044,1.693999 -0.7125,3.088499 -1.3445,4.010999 -1.8955,2.763 -4.9355,3.718 -4.9355,3.718 0,0 -0.041,1.584 0.9985,1.667 2.2635,0.181 8.2005,-5.0185 10.4525,-7.8135 0.458,-0.568001 2.904,-3.681499 3.0795,-3.880499 0.151,-0.1705 0.3565,-0.1985 0.7575,-0.053 0.441,0.1595 1.5705,0.938 1.049,1.8015 -0.5215,0.864 -2.094,3.598499 -2.094,3.598499 0.3035,-0.266 0.684,-0.4695 1.34,-0.521 4.3775,-0.353 8.1985,-1.910999 9.5245,-3.695999 0.671,-0.9045 1.7345,-1.847 2.703,-1.0905 0.9055,0.705 1.045,1.6345 0.745,2.216 -0.206,0.396 -0.7575,0.909 -1.484,1.357499 l -1.5665,4.326 c 0,0 7.6015,-3.866 8.8585,-4.372 0.3905,-0.1575 1.2455,0.0485 1.72,0.7145 0.288,0.402 0.242,0.81 -0.163,0.998 -2.227,1.03 -11.594,5.851 -11.594,5.851 0,0 -1.4575,3.8835 -2.109,4.9995 -0.412,0.7065 -1.2765,0.899 -1.645,0.8695 l -0.0395,-0.004 z m 0.783,-4.4525 c -0.793,0.3695 -1.306,0.7415 -1.373,1.05 -0.037,0.1725 0.0915,0.4935 0.3155,0.6495 0.3445,0.2405 0.8775,-1.0765 1.0575,-1.6995 m -19.881,-8.095 c -0.7205,1.2335 -1.0815,2.5755 -1.0925,2.714 2.2,-1.197 3.72,-3.047 3.506,-4.662999 -0.005,-0.0265 -0.032,-0.0365 -0.0475,-0.034 -0.392,0.055 -1.6705,0.7945 -2.366,1.982999"
     id="path3452"
     inkscape:connector-curvature="0"
     style="fill:#ffffff" /></svg>