<svg width="152.1px" height="20.5px" viewBox="0 0 152.1 20.5" >
<g>
	<path class="logo--part1" d="M64.2,20.5c-0.2,0-1.9-0.2-1.4-2.7c0.4-1.7,0.3-2.6,0.5-4.3c0.1-1,0.2-2.6,0.3-2.9c0.3-1.2,2.2-1.3,2.1-0.4
		c-0.1,1.4-1,6.9-1.1,7.2c0,0.3,0.3,0.3,0.4,0.1c0.3-0.3,1.8-2,2.8-3.3c2.2-2.7,5.7-7.4,6.4-7.7c0.2-0.1,0.4-0.1,0.5-0.1
		c0.4,0,0.7,0.2,0.8,0.4c0.2,0.3,0.1,0.8-0.3,1.2c-0.7,0.9-2.7,8.6-2.7,8.9c-0.1,0.5,0.5,0.3,0.8,0c0.1-0.1,1.6-1.8,2.4-2.6
		c0.9-1,3.7-3.9,4-4.4c0.6-0.7,1.2-1.1,1.7-1.1c0.3,0,0.5,0.1,0.7,0.4c0.2,0.2,0.1,0.6,0,1c-0.2,0.6-0.4,1.2-0.4,1.2s-1,4.7-1,5
		c0,0.4,0.2,0.8,1,0.4c0.9-0.5,2-1.1,2.7-1.6l0.1,0l0-0.1c0.2-1.8,0.6-3.9,3.1-5.9c0.7-0.5,1.6-0.9,2.5-0.9c0.4,0,0.8,0.1,1.1,0.2
		c0.6,0.3,1,0.7,1.1,1.2c0.1,0.7-0.2,1.5-0.9,2.3c-1.1,1.2-5,3.8-5,3.8l-0.1,0l0,0.1c-0.1,0.3,0,0.4,0,1c0.1,0.6,0.4,1,0.9,1.2
		c0.1,0,0.2,0.1,0.4,0.1c0.3,0,0.6-0.1,1.1-0.3c1.6-0.6,4.1-3.3,5.7-5.1c0.1-0.2,0.3-0.3,0.4-0.4c0.4-0.5,0.6-0.7,0.7-0.9
		c0,0,0.2-0.4,0.4-0.6c0.3-0.3,0.7-0.3,0.9-0.4c0.5,0,0.7,0.1,0.7,0.4c0,0.6-0.5,1.3-0.8,2c-0.2,0.4-0.7,2.2-0.7,2.3
		c0,0.2,0,0.2,0,0.1c0.5-0.6,1.9-2.2,2.4-2.8c0,0,1.6-2.2,2.5-3.3c0.9-1.1,2.4-3,2.6-3.2c0.1-0.2,0.3-0.3,0.5-0.4
		c0.2-0.1,0.3-0.1,0.4-0.1c0.1,0,0.4,0,0.6,0.2c0.2,0.3,0.2,0.6,0,1.1c-0.1,0.2-0.3,0.5-0.4,0.7c-0.2,0.3-0.9,1.6-1.1,1.9
		c-0.2,0.4-0.6,1.4-0.6,1.4c-0.2,0.6-1,2.4-1.3,3.1c-0.2,0.6,0.2,0.8,0.6,0.4c0.1-0.1,1-1,1.2-1.2c0,0,3-2.9,3.5-3.4l1.8-1.7
		c0.3-0.3,0.6-0.5,0.9-0.8c0.2-0.2,0.5-0.3,0.7-0.3c0.2,0,0.4,0.1,0.5,0.1c0.3,0.2,0.4,0.4,0.3,0.7c-0.1,0.4-0.4,1.3-0.7,2
		c0,0-1,2.9-1.2,3.5c0,0-0.6,1.9-0.6,2.4c0,0.2,0.3,0.6,1.1-0.3c1.1-1.2,3-3.3,4-4.5c1.4-1.5,3.4-3.8,3.4-3.8
		c0.3-0.4,0.8-0.9,1.3-1.4c1.2-1.3,2.5-2.8,2.9-3.6c0.1-0.2,0.1-0.4,0.2-0.7c0.1-0.4,0.3-1,0.5-1.3c0.1-0.1,0.4-0.3,0.7-0.3
		c0.3,0,0.5,0,0.7,0.4c0.3,0.7-0.1,2.6-0.4,3.3l0,0.1c-0.3,0.9-2.1,4.2-2.1,4.2c-0.4,0.8-2.2,4.4-2.2,4.4c0.4-0.4,1.3-1.4,1.7-1.7
		c0.6-0.6,1.2-1,1.7-1.4c1-0.7,1.6-1.1,2.4-1.1c0.7,0,1.1,0.5,1.2,1.1c0.1,0.4,0,1.3-0.2,1.9c-0.8,2.1-1.6,3.1-2,3.7l-0.4,0.6
		l3.5-1.7c0-0.1,0.2-0.6,0.3-0.9c0.8-1.8,1.4-2.6,2.8-3.8c0.5-0.4,1.2-0.8,1.8-1c0.2,0,0.4-0.1,0.6-0.1c0.3,0,0.5,0,0.7,0.1
		c0.5,0.2,0.7,0.4,0.8,0.7c0.2,0.4,0,1.2-0.4,1.8c-0.5,0.8-1.7,1.7-4.2,3.2c-0.3,0.1-0.5,0.3-0.7,0.4c0,0-0.4,0.2-0.5,0.3l-0.1,0.2
		c-0.2,0.4-0.3,1.1,0.1,1.4c0.1,0.1,0.3,0.2,0.5,0.2c1.4,0,8.4-4.4,10.2-6.3c0,0,0.6-0.6,1-1.1c0.2-0.3,0.4-0.5,0.5-0.5
		c0.2-0.1,0.4-0.1,0.5-0.1c0.4,0,0.8,0.2,1,0.4c0.2,0.2,0.1,0.4,0.1,0.4c0,0.1-0.9,1.7-1,1.9c0.8-0.7,2.9-3,5.5-5
		c0.7-0.5,1.6-1.1,2.4-0.7c0.1,0.1,0.2,0.3,0.4,0.3c0.1,0,0.5-0.2,0.9-0.2c0.7,0,1.2,0.2,1.6,0.5c0.4,0.3,0.7,0.7,0.6,1
		c0,0.1-0.4,0.5-0.7,0.5c-0.1,0-0.2-0.1-0.3-0.1c-0.2-0.2-0.6-0.5-1-0.5c-0.1,0-0.3,0-0.4,0.1c-0.3,0.2-0.6,0.5-0.6,1.2
		c0,0.2,0,0.5,0.1,0.9c0.1,0.8,0.4,2,0.2,3.5c-0.3,2.9-1.6,3.8-2.5,4.2c-0.3,0.1-1,0.4-1.4,0.4c-0.8,0-1.9-0.3-2.8-1.3
		c-0.4-0.5-0.8-1-0.3-1.5c0.2-0.3,0.6-0.3,0.8-0.3c0.1,0,0.3,0.1,0.4,0.2c0,0,0.5,1.1,1.6,1.2c0.6,0,1.4-0.4,1.9-0.9
		c0.6-0.7,0.7-1.9,0.7-3.2c0-0.5-0.3-3.1-0.3-3.4c0-0.2-0.1-0.3-0.2-0.4c-0.1-0.1-0.4-0.1-0.5,0c0,0-4,3-7.2,6.3
		c-0.7,0.7-1.6,2.1-2,2.6c-0.2,0.2-0.5,0.3-0.8,0.3c0,0-0.1,0-0.1,0c-0.2,0-0.5-0.1-0.7-0.4c-0.1-0.2-0.2-0.5,0-0.9
		c0-0.1,0.9-1.6,1-1.9c0.2-0.3,0.5-0.9,0.5-0.9s-2.7,2.4-7.6,4.7c-0.4,0.2-1.6,0.6-2.1,0.6c-1,0-1.8-0.8-1.9-1.9c0-0.1,0-0.2,0-0.4
		l0-0.3l-0.2,0.1c-1.1,0.5-2.5,1.1-4.1,1.7l0,0l0,0c-0.9,0.9-2.1,2.1-3,2.1c-0.1,0-0.2,0-0.3,0c-0.9-0.5-1-1.3-0.9-1.6
		c0.1-0.3,0.4-0.6,0.8-0.8l0,0l0,0c0,0,0.1,0,0.1-0.1l0,0l0,0c0.1,0,0.2-0.1,0.3-0.1c0.4-0.1,0.8-0.3,1.3-0.4c0.1,0,0.3-0.1,0.4-0.1
		l0,0l0,0c0.6-0.5,1.2-1.3,1.9-2.2c0.8-1.1,1.4-2.6,1.5-2.9c0.1-0.4,0-0.7-0.1-0.8c-0.2-0.2-0.4-0.1-0.6-0.1c-0.2,0.1-1.6,1.3-2,1.7
		c-0.6,0.6-1.3,1.2-1.9,1.8l-0.1,0.1c-0.4,0.4-1.3,1.3-1.8,1.9l-0.2,0.2c-0.6,0.7-1.3,1.6-1.7,1.9c0,0-0.1,0-0.1,0
		c-0.3,0-1-0.6-1.1-0.8c0-0.1,0.3-0.7,0.5-1.1c0.1-0.2,1-1.9,1-1.9c0.1-0.1,0.3-0.5,0.6-1c0.6-1,1.3-2.3,1.5-2.6l0-0.1
		c0.6-1.1,1-1.9,1.2-2.2c0.3-0.5,1-2,1.1-2.4l0.3-0.7c-0.6,0.8-1.7,1.9-2.2,2.5c-1,1.3-1.9,2.2-3.2,3.8c-1.7,1.9-3.6,4-4.3,4.7
		c-0.1,0.1-1.8,2.4-3.1,1.9c-0.5-0.2-0.7-0.7-0.7-1.6c0-0.4,0.5-2.4,0.8-3.5l0.2-0.7c0.1-0.3,0.5-1.8,0.5-1.8l-0.6,0.6
		c-0.4,0.4-0.8,0.8-1,1c-0.5,0.5-1,1-1.5,1.5c0,0-0.8,0.7-1.1,1c-0.2,0.2-1.6,1.6-2.1,2c-0.3,0.3-0.7,0.6-1.2,0.8
		c-0.2,0.1-0.3,0.1-0.5,0.1c-0.3,0-0.6-0.1-0.8-0.3c-0.3-0.3-0.6-0.6-0.4-1.2c0.2-0.9,0.5-1.7,0.9-2.6l0.4-1c-0.3,0.4-1.3,1.6-1.5,2
		c-0.4,0.6-0.9,1.1-1.3,1.6c-0.8,1-1.4,1.7-2.1,2.4c-0.1,0.1-0.1,0.2-0.2,0.2c-0.3,0.4-0.7,0.8-1.2,0.9c-0.2,0-0.6,0-0.8-0.3
		c-0.2-0.3-0.2-0.6-0.1-1.1c0.1-0.3,0.3-0.9,0.5-1.4c0.1-0.4,0.3-0.7,0.3-0.8c0-0.1,0.1-0.3,0.2-0.4l0.3-0.9L94.5,15
		c-0.8,0.9-1.6,1.8-1.7,1.9c0,0-2.8,3-5.3,3c-0.3,0-0.7-0.1-1-0.2c-0.5-0.3-1.2-0.9-1.6-2.2l-0.1-0.2l-0.2,0.1
		c-0.9,0.6-1.9,1.3-2.9,1.9c-0.3,0.2-0.8,0.3-1.2,0.3c-0.4,0-0.7-0.1-1-0.3C78.9,18.8,79,18,79,17.5c0.1-0.4,1-5,1.1-5.2
		c0-0.1,0-0.2-0.1-0.1c0,0-0.8,0.9-1.5,1.7c-1.4,1.7-4.1,4.9-4.8,5.6c-0.6,0.5-1.2,0.9-1.9,0.9c-0.7,0-1.2-0.6-1.3-1.2
		c-0.2-0.9,0.6-3.8,1-5.2c0.1-0.5,0.4-1.6,0.4-1.6c0-0.1,0-0.1-0.1,0c0,0.1-3.7,4.9-5.1,6.6C65.8,19.9,65,20.5,64.2,20.5 M90.6,10.1
		c-0.2,0-0.3,0-0.5,0.1c-0.5,0.2-1.1,0.5-1.6,0.9c-0.5,0.4-1.2,1.2-1.6,2.5l-0.1,0.5l0.4-0.3c0.1-0.1,2.7-1.8,3.6-2.7
		c0.4-0.3,0.4-0.6,0.3-0.7C91,10.2,90.8,10.1,90.6,10.1 M131.6,9.5c-0.3,0-0.7,0.2-0.9,0.3c-0.4,0.2-1.1,0.9-1.4,1.4
		c-0.3,0.4-0.5,0.9-0.7,1.1l-0.2,0.5l0.5-0.3c0.5-0.3,1.4-0.9,1.7-1.2c0.1-0.1,0.2-0.2,0.4-0.3c0.5-0.4,1.1-0.8,1.1-1.2
		c0-0.1,0-0.2-0.1-0.3C131.8,9.5,131.7,9.5,131.6,9.5"/>
	<g>
		<g>
			<path class="logo--part2" d="M46.1,9.5c-0.6,0-1,0.4-1,1c0,0.6,0.4,1,1,1c0.6,0,1-0.4,1-1C47.1,9.9,46.6,9.5,46.1,9.5"/>
			<path class="logo--part2" d="M53.4,17.7h3.1v-0.5l-0.6-0.3v-3.7c0.2-0.2,0.5-0.2,0.8-0.2c0.5,0,0.8,0.2,0.8,0.8v3.1l-0.6,0.3v0.5H60v-0.5
				l-0.6-0.3v-3.5c0-1.1-0.5-1.5-1.4-1.5c-0.8,0-1.5,0.3-2,0.7v-0.7h-0.2l-2.4,0.4v0.5L54,13v3.9l-0.6,0.3V17.7z"/>
			<polygon class="logo--part2" points="44.6,12.2 44.6,12.7 45.2,13 45.2,16.9 44.6,17.2 44.6,17.7 47.8,17.7 47.8,17.2 47.1,16.9 
				47.1,11.8 47,11.8 			"/>
			<path class="logo--part2" d="M42,16.6c-0.1,0.1-0.3,0.2-0.6,0.2c-0.8,0-1.1-0.6-1.1-2c0-1.6,0.4-2.2,1.1-2.2c0.3,0,0.5,0.1,0.6,0.3V16.6z
				 M42,12.1c-0.2-0.2-0.6-0.3-0.9-0.3c-1.4,0-2.7,0.8-2.7,3.1c0,2.2,1.3,2.9,2.2,2.9c0.7,0,1.2-0.3,1.4-0.6H42v0.6h0.2l2.3-0.3
				v-0.4l-0.6-0.3V9.5h-0.2l-2.4,0.4v0.5l0.6,0.3V12.1z"/>
			<path class="logo--part2" d="M34.1,12.2v0.5l0.6,0.3v3.9l-0.6,0.3v0.5h3.3v-0.5l-0.8-0.3v-3c0.3-0.3,0.8-0.3,1.3-0.3c0.2,0,0.4,0,0.5,0.1
				v-1.7c-0.1,0-0.2,0-0.3,0c-0.6,0-1.2,0.4-1.5,1.2v-1.2h-0.2L34.1,12.2z"/>
			<path class="logo--part2" d="M30,12.7c0.1-0.1,0.4-0.1,0.5-0.1c0.7,0,0.9,0.4,0.9,1.1l0,0.6l-1.1,0.2c-1.1,0.2-2,0.5-2,1.7
				c0,0.9,0.7,1.6,1.6,1.6c0.7,0,1.4-0.3,1.6-0.8h0.1c0.1,0.6,0.6,0.8,1.2,0.8c0.5,0,0.9-0.1,1.1-0.3v-0.3l-0.6-0.3v-3.3
				c0-1.3-0.9-1.8-2.4-1.8c-1,0-1.7,0.2-2.2,0.5v1.4h0.9L30,12.7z M31.5,16.6c-0.1,0.2-0.3,0.2-0.5,0.2c-0.4,0-0.7-0.2-0.7-0.8
				c0-0.5,0.4-0.9,0.9-0.9l0.4-0.1V16.6z"/>
			<path class="logo--part2" d="M49.3,12.7c0.1-0.1,0.4-0.1,0.5-0.1c0.7,0,0.9,0.4,0.9,1.1l0,0.6l-1.1,0.2c-1.1,0.2-2,0.5-2,1.7
				c0,0.9,0.7,1.6,1.6,1.6c0.7,0,1.4-0.3,1.6-0.8H51c0.1,0.6,0.6,0.8,1.2,0.8c0.5,0,0.9-0.1,1.1-0.3v-0.3l-0.6-0.3v-3.3
				c0-1.3-0.9-1.8-2.4-1.8c-1,0-1.7,0.2-2.2,0.5v1.4h0.9L49.3,12.7z M50.7,16.6c-0.1,0.2-0.3,0.2-0.5,0.2c-0.4,0-0.7-0.2-0.7-0.8
				c0-0.5,0.4-0.9,0.9-0.9l0.4-0.1V16.6z"/>
			<path class="logo--part2" d="M22.6,16.1c0,1,0.5,1.8,1.6,1.8c0.8,0,1.4-0.3,1.8-0.8v0.8h0.2l2.3-0.3v-0.4l-0.6-0.3v-5h-0.2l-2.4,0.4v0.5
				l0.6,0.3v3.4c-0.2,0.1-0.4,0.2-0.7,0.2c-0.5,0-0.8-0.1-0.8-0.8v-4h-0.2l-2.4,0.4v0.5l0.6,0.3V16.1z"/>
			<path class="logo--part2" d="M20.2,16.5h-2c-0.2,0-0.4-0.2-0.4-0.4c0-0.2,0.1-0.3,0.3-0.4c0.3,0.1,0.6,0.1,0.9,0.1c1.5,0,2.5-0.7,2.5-1.9
				c0-0.6-0.2-0.9-0.6-1.2l1,0.3l0-1.1l-1.5,0.3c-0.4-0.1-0.9-0.3-1.3-0.3c-1.5,0-2.5,0.8-2.5,2c0,0.8,0.4,1.3,0.9,1.6l0,0
				c-0.3,0.2-1,0.7-1,1.3c0,0.4,0.3,0.9,0.9,1v0c-0.6,0.1-1.4,0.4-1.4,1.2c0,0.8,1.1,1.5,2.9,1.5c2.2,0,3.2-1.1,3.2-2.4
				C22,17,21.4,16.5,20.2,16.5 M18.9,12.5c0.4,0,0.7,0.3,0.7,1.3c0,1-0.3,1.3-0.7,1.3c-0.4,0-0.7-0.2-0.7-1.3
				C18.2,12.7,18.5,12.5,18.9,12.5 M18.9,19.6c-1,0-1.4-0.4-1.4-0.8c0-0.3,0.1-0.6,0.6-0.7h1.6c0.5,0,0.8,0.3,0.8,0.6
				C20.5,19.4,20.1,19.6,18.9,19.6"/>
			<path class="logo--part2" d="M15.8,15c0-2.4-1.1-3.2-2.5-3.2c-1.7,0-2.8,1.1-2.8,3c0,1.9,1,3,3,3c1,0,1.9-0.6,2.1-0.9l0-0.5
				c-0.4,0.1-0.8,0.2-1.5,0.2c-1,0-1.7-0.5-1.7-1.6H15.8z M13.3,12.5c0.5,0,0.7,0.3,0.7,1.8l-1.6,0.1C12.4,12.9,12.7,12.5,13.3,12.5
				"/>
			<path class="logo--part2" d="M4.3,17.7h3.1v-0.5l-0.6-0.3l0-3.7C7,13.1,7.3,13,7.6,13c0.5,0,0.8,0.3,0.8,0.8v3.1l-0.6,0.3v0.5h3.1v-0.5
				l-0.6-0.3v-3.5c0-1.1-0.6-1.5-1.4-1.5c-0.8,0-1.5,0.3-2,0.7h0V9.4H6.6L4.3,9.8v0.5l0.7,0.3v6.3l-0.6,0.3V17.7z"/>
			<path class="logo--part2" d="M0.9,16.2c0,1,0.5,1.7,1.6,1.7c0.6,0,1.2-0.2,1.6-0.4v-0.7c-0.1,0-0.4,0.1-0.6,0.1c-0.6,0-0.7-0.3-0.7-0.8
				v-3H4v-1H2.8v-1.3l-1.9,0.3V12L0,12.2V13h0.9V16.2z"/>
		</g>
	</g>
</g>
</svg>
