<svg width="39" height="20" viewBox="0 0 117 60"><path d="M7.6 19v30.6c0 2.6-2.2 4-4.7 4-1 0-2 0-3-.2v3.6c1.3.8 3.8 1.4 6.4 1.4 7.7 0 11.4-4 11.4-11v-34.8h-.7l-13 2v3l3.7 1.4zm5-19c-3.1 0-5.6 2.4-5.6 5.4 0 3 2.5 5.4 5.5 5.4s5.5-2.4 5.5-5.4c0-3-2.5-5.4-5.5-5.4zm24.4 12.8c-9.3 0-15.7 5.7-15.7 16 0 10.6 6.4 16.4 15.8 16.4s15.9-5.8 15.9-16.2-6.6-16.2-16-16.2zm0 28c-3.3 0-5-1.7-5-12 0-9.8 1.7-11.8 5-11.8 3.5 0 5 1.8 5 12 0 10-1.5 12-5 12zm30.4-40.5h-.8l-12.8 2v3l3.2 1.2v35.8c2.7 1.5 7.8 2.8 13.5 2.8 9.5 0 16.7-4.2 16.7-16.8 0-11.4-5.6-15.6-11-15.6-3.8 0-6.7 1.7-8.5 3.5h-.4v-16zm3.4 41.3c-1.8 0-2.8-.6-3.4-1v-21c1-.4 2-.7 3.7-.7 3.2 0 5.5 2 5.5 10.4 0 8.8-2 12.3-5.8 12.3zm29 3.6c9.8 0 13.8-4.3 13.8-10.7 0-4.7-2.2-8.7-8.2-10l-3.6-.7c-3.4-.7-4.2-1.8-4.2-3.6 0-2 1.6-3 4-3 1.7 0 3.8.3 4.5.7l1.4 4.2h4.3v-7.6c-2.5-1-6.2-1.6-9.8-1.6-9.2 0-13.2 4.3-13.2 10.2 0 4.6 2.7 9 8.3 10.3l4 1c3.2.6 4 1.5 4 3.8 0 2.5-2 3-5 3-1.8 0-4.2-.2-5-1l-1.7-5h-4.4v8.2c3 1.2 7.4 2 10.7 2z"/></svg>