<svg xmlns="http://www.w3.org/2000/svg" width="171.9" height="74" viewBox="0 0 171.9 74"><path fill="#FBBB00" d="M171.9 74V0h-3.7L0 30.5 6.7 74"/><path fill="#483E37" d="M26.5 74h145.4V26.8L33.8 8.9" opacity=".5"/><g fill="#FFF"><path d="M97.64 30.37c-.75 0-1.3.6-1.3 1.3 0 .7.6 1.3 1.3 1.3.7 0 1.3-.6 1.3-1.3 0-.7-.6-1.3-1.3-1.3M107.1 41.07h4.04v-.7l-.8-.35v-4.8c.3-.2.65-.3 1-.3.7 0 1 .3 1 1.05v4.05l-.8.35v.7h4.05v-.7l-.8-.35v-4.6c0-1.35-.6-2-1.86-2-1 0-2 .35-2.65.95v-.9h-.2l-3.1.5v.65l.84.4v5.05l-.8.35.05.65zM95.6 33.92v.7l.84.35v5.05l-.8.35v.7h4.05v-.7l-.76-.35v-6.6h-.2M92.14 39.67c-.2.15-.4.25-.75.25-1 0-1.46-.8-1.46-2.65 0-2.1.6-2.8 1.35-2.8.44 0 .64.15.84.35v4.85zm0-5.85c-.3-.2-.8-.35-1.2-.35-1.85 0-3.55 1.05-3.55 4.05 0 2.85 1.74 3.75 2.9 3.75.94 0 1.54-.4 1.84-.8h.1v.8h.2l2.95-.35v-.55l-.8-.45v-9.5h-.2l-3.1.5v.7l.8.35.04 1.85zM81.94 33.92v.7l.8.4v5.05l-.8.35v.7h4.25v-.7l-1-.35v-3.95c.44-.35 1-.45 1.64-.45.2 0 .5.05.6.05v-2.2c-.1-.05-.25-.05-.35-.05-.8 0-1.56.55-2 1.5v-1.55h-.2l-2.96.5zM76.64 34.52c.2-.1.55-.1.65-.1.94 0 1.24.5 1.24 1.4v.85l-1.4.25c-1.45.25-2.55.7-2.55 2.25 0 1.25.84 2.1 2.04 2.1.95 0 1.8-.4 2.15-1.05h.04c.1.8.8 1.05 1.6 1.05.6 0 1.15-.2 1.4-.45v-.45l-.8-.35v-4.3c0-1.65-1.2-2.3-3.2-2.3-1.3 0-2.15.3-2.85.65v1.9h1.14l.5-1.45zm1.85 5.1c-.16.2-.4.3-.7.3-.5 0-.96-.25-.96-1.1 0-.6.55-1.15 1.1-1.2l.5-.1v2.1zM101.7 34.52c.14-.1.54-.1.64-.1.95 0 1.25.5 1.25 1.4v.85l-1.4.25c-1.46.25-2.56.7-2.56 2.25 0 1.25.85 2.1 2.05 2.1.94 0 1.8-.4 2.14-1.05h.05c.1.8.8 1.05 1.6 1.05.6 0 1.14-.2 1.4-.45v-.45l-.8-.35v-4.3c0-1.65-1.2-2.3-3.2-2.3-1.3 0-2.16.3-2.86.65v1.9h1.15l.5-1.45zm1.9 5.1c-.16.2-.4.3-.7.3-.5 0-.96-.25-.96-1.1 0-.6.55-1.15 1.1-1.2l.5-.1v2.1zM66.94 38.92c0 1.3.65 2.35 2.15 2.35 1 0 1.84-.45 2.34-1v1h.2l3-.35v-.55l-.85-.45v-6.45h-.2l-3.1.5v.7l.8.4v4.45c-.26.2-.46.25-.9.25-.6 0-1-.2-1-1.05v-5.25h-.2l-3.1.5v.7l.84.4v3.85zM63.8 39.47h-2.66c-.3 0-.55-.2-.55-.5 0-.2.14-.4.34-.55.4.1.75.15 1.2.15 1.9 0 3.2-.85 3.2-2.5 0-.75-.3-1.15-.75-1.55l1.24.4v-1.5l-2 .35c-.45-.15-1.1-.4-1.7-.4-1.9 0-3.25 1-3.25 2.6 0 1 .5 1.7 1.24 2.1l.1.1c-.4.3-1.3.95-1.3 1.75 0 .6.4 1.15 1.2 1.35-.85.15-1.8.55-1.8 1.5 0 1 1.45 2 3.75 2 2.9 0 4.14-1.35 4.14-3.15 0-1.5-.8-2.15-2.45-2.15m-1.6-5.15c.54 0 .9.4.9 1.7 0 1.35-.4 1.65-.9 1.65-.56 0-.9-.3-.9-1.65 0-1.4.34-1.7.9-1.7m-.06 9.25c-1.35 0-1.85-.55-1.8-1.05 0-.35.2-.8.85-.85h2.1c.6 0 1 .4 1 .8 0 .8-.6 1.1-2.16 1.1M58.44 37.57c0-3.1-1.4-4.15-3.3-4.15-2.2 0-3.65 1.45-3.65 3.9 0 2.5 1.3 3.9 3.84 3.9 1.35 0 2.45-.7 2.8-1.2l.05-.6c-.5.15-1.06.25-2 .25-1.36 0-2.16-.7-2.16-2.15h4.4zm-3.3-3.3c.6 0 .95.45.95 2.3l-2.06.1c0-1.85.4-2.4 1.1-2.4"/><path d="M43.44 41.07h4.05v-.7l-.76-.35v-4.8c.3-.2.65-.3 1-.3.7 0 1 .45 1 1.05v4.05l-.8.35v.7H52v-.7l-.8-.35v-4.6c0-1.35-.8-2-1.86-2-1 0-2 .35-2.65.95v-4.1h-.2l-3.1.5v.65l.84.4v8.2l-.8.35v.7zM39 39.07c0 1.35.64 2.25 2.1 2.25.74 0 1.6-.2 2.04-.55v-.9c-.2.05-.55.1-.8.1-.7 0-.9-.35-.9-1.1v-3.95h1.6v-1.25h-1.6v-1.75l-2.45.35v1.4l-1.16.2v1.05H39v4.15z"/></g><path fill="#FFF" d="M55.9 64c-.2 0-.4-.1-.6-.2l-.1-.1c-.4-.3-.8-.6-.6-1.4.3-.9 2.1-6.7 2.1-6.8-.2.4-3.3 3-5.8 4.5-.2.1-1 .6-1.3.5-1.7-.4-1.1-2.2-.7-2.6 0 0 .2-.1.3-.2.9-.4 3.3-1.6 5.9-4.1 1.7-1.6 4.4-5.1 4.6-5.5 0-.1.1-.2.1-.3.1-.3.4-.9 1.1-.9.1 0 .3 0 .4.1.8.4 1.1 1 .9 1.7-.2.5-.4.9-.7 1.3-.2.3-.4.6-.5.9-.5 1.1-1.1 2.3-1.6 3.7l-.9 2.4c0 .1-.1.3-.1.4l.1-.1c.4-.6 1.8-2.6 3.3-4.6 1.6-2 4.4-5.6 4.9-6 .7-.5 1.6.3 1.8.8.2.5.3 1 .1 1.4l-2.1 5.7-.5 1.6c-.1.2-.2.5-.3.7.1-.1.3-.2.4-.2 1.1-1.1 3.4-3.7 3.4-3.7 2-2.1 3.9-4.2 5.9-6.3.3-.4.7-.5 1-.5.2 0 .3.1.5.2.4.2 1 .6.8 1.5-.1.3-2.4 7.8-2.5 8.2-.3.8-.5 1.6-.7 2.4-.1.3-.1.9.1 1.3.7-.2 3.7-2.1 3.7-2.1s-.1-.4 0-1.4c.2-2.9 1.5-5.2 2.8-6.8 1.2-1.4 2.9-2.5 3.9-2.4.9.1 1.8.8 1.7 2-.1.9-.4 1.9-.9 2.9-1.3 2.7-2.6 4.6-4.3 6.1-.2.2-.3.3-.6.5 0 0 .1.3.5.3.8.1 1.5-.2 2-.5 1.9-.9 3.6-2.4 5.3-4.5.9-1.1 1.5-2 2-2.8.4-.7.8-1.6 1.1-2.3.1-.3.3-.7.4-1 .2-.3.4-1 1.1-.9.1 0 .3.1.4.1.4.2.7.5.8.9.1.4.1.8-.2 1.2-.6 1.2-2.7 6.1-2.7 6.1-.1.3-.1.5 0 .5s3.3-3.7 4.9-5.4c0 0 2.6-2.8 2.7-3 .3-.4 1-.9 1.6-.5.6.4.9 1.4.7 2-.6 1.7-1.2 3.4-1.8 5l-.6 1.6.5-.5c2.4-3.3 7.7-8.4 9-8.3.6 0 .9.5 1.3 1.1.2.3.3.6 0 1.1-.6.9-2.4 5.7-2.5 6-.2.5-1.1 3.2-1.1 3.3 0 .1-.1.3-.1.4 0 0 4.4-3.4 5.9-5.2 2.6-3.1 6.6-13 6.8-13.4.4-.7 1.1-1.1 1.8-1.1.8.1 1 .6 1 1.1.1 1.7-5.6 11.6-5.5 11.7.2-.2 4.4-3.8 6.7-3.1 1 .3 1 1 1.2 1.9.4 1.7-1.8 11.8-9.5 12.1-1 0-2.4-.7-2.9-2.1 0 0-.2.2-.4 0-.4-.2-.7-.5-.8-.8-.1-.2 0-.5.1-.9.1-.6 2.1-2.8-.4-.5-2.1 2-4.2 3.4-4.5 3.6-.3.2-.7.4-1.1.4-.4 0-.9-.3-1.2-.6-.4-.5-.2-1.2.2-2 .3-.6.7-2.4.8-2.7l.6-1.8c.5-1.4.9-2.8 1.4-4.2.1-.2.2-.5.1-.6 0 0-2.2 2.4-2.9 3.3l-5.2 6.3c-.3.3-.6.5-.9.4-.3 0-.6-.2-.8-.3-.6-.3-.8-.8-.6-1.4.3-.8.5-1.6.7-2.4.1-.5.2-1 .4-1.5.2-.7.4-1.3.7-2l.3-.9c0-.1.1-.2.1-.4-.1.1-6.4 7.5-7.3 8.3-.2.2-.6.4-.9.4-.2 0-.9-.4-1.4-.9-.2-.3-.4-.5.1-1.4.1-.2.3-.6.3-.8 0-.1 0-.1-.1-.2-.1 0-2.3 2.5-5.2 3.7-.8.3-1.5.5-2.2.4-1.7-.2-2.6-1.3-2.6-1.3s-3.6 2.6-5.9 3c-.5.1-1.1-.2-1.4-.6-.3-.4 0-2.1.3-3.3.4-1.9 1.5-5.1 1.7-5.7.2-.7.5-1.3.7-2-.1 0-.2 0-.2.1-.3.3-3.6 3.9-3.6 3.9-1.3 1.4-2.5 2.8-3.8 4.2-.7.7-1.2 1.4-1.8 2-.2.3-.6.5-.9.4-.8-.2-1.3-1-1.3-1.5.1-1 .4-2.2.7-3.5.3-1 1.4-4.5 1.5-4.8v-.1c-.1 0-.1 0-.1.1-.6.9-5.8 8.3-7.1 10.1-.3.5-.6.8-.9 1.1-.4.9-.7 1-1 1m28.2-13.9c-1.4.5-3.2 3.1-3.8 6.2 1.1-1.2 3.7-5.1 3.8-6.2m30.8 10c6-.8 8.8-10.5 5.5-8.6-2.2 1.3-5.1 4.4-6.3 7.6-.3.6-.2 1.3.8 1"/><path fill="#FFF" d="M148.7 63.6c-1.1-.1-2-.7-2.5-1.5-.6-.9-.7-2.1-.4-3.1.3-.7 1-1.2 1.9-1.6l2.9-1.4.4-1.1c.3-.7.9-2.4 1.1-3 0 0-.9.6-2.6 1.1-1.7.6-4.4 1.2-5.5 1.3-1 .1-1.4.5-1.8.9-1 1.2-2.2 2.8-3.2 4.2-.3.4-.7.9-1.3.8-.2 0-.8-.3-1.1-.6-.2-.3-.3-.5 0-1.3.2-.3 1.2-2.3 1.4-2.7v-.1c-.8.8-6.2 5.9-9.3 5.6-2.8-.2-3.2-3.7-3.2-3.7s-.7.2-.8.2c-.3 0-.7-.4-.9-1-.2-.4-.5-1.2-.1-1.3 1.2-.3 1.8-.5 1.8-.5.5-3.1 2-5.1 2.5-5.7 1.4-1.7 3.1-2.2 3.5-2.3 2-.3 2.8 1 2.8 2.1 0 1.7-.7 3.1-1.3 4-1.9 2.8-4.9 3.7-4.9 3.7s0 1.6 1 1.7c2.3.2 8.2-5 10.5-7.8.5-.6 2.9-3.7 3.1-3.9.2-.2.4-.2.8-.1.4.2 1.6.9 1 1.8-.5.9-2.1 3.6-2.1 3.6.3-.3.7-.5 1.3-.5 4.4-.4 8.2-1.9 9.5-3.7.7-.9 1.7-1.8 2.7-1.1.9.7 1 1.6.7 2.2-.2.4-.8.9-1.5 1.4l-1.6 4.3s7.6-3.9 8.9-4.4c.4-.2 1.2 0 1.7.7.3.4.2.8-.2 1-2.2 1-11.6 5.9-11.6 5.9s-1.5 3.9-2.1 5c-.2.8-1.1.9-1.5.9zm.8-4.4c-.8.4-1.3.7-1.4 1.1 0 .2.1.5.3.6.4.2.9-1.1 1.1-1.7m-19.9-8.1c-.7 1.2-1.1 2.6-1.1 2.7 2.2-1.2 3.7-3 3.5-4.7-.4 0-1.7.8-2.4 2"/></svg>