<svg width="106.67" height="20" viewBox="0 0 320 60"><path d="M.6 45h16.2v-2.8l-2.8-1.5.2-20.3c1.2-.5 2.3-.8 3.4-.8 2.8 0 3.8 1.2 3.8 4.3v16.7l-2.7 1.5v2.9h15.6v-2.8l-2.7-1.5v-20.3c1-.5 2.4-.8 3.4-.8 2.7 0 3.8 1.2 3.8 4.3v16.7l-2.8 1.6v2.8h16.3v-2.8l-3.3-1.5v-19c0-5.7-2.7-8.3-7.8-8.3-4.2 0-7.3 1.5-10 4h-.2c-1.2-2.7-3.5-4-7-4-4.3 0-7 1.5-9.7 4h-.3v-4h-.8l-12.8 2v2.8l3.6 1.6v21l-3.5 1.2v3zm68.7-31.6c-9.3 0-15.8 5.8-15.8 16.2 0 10.5 6.5 16.2 15.8 16.2 9.4 0 15.7-5.8 15.7-16.2 0-10.4-6.3-16.2-15.7-16.2zm0 28c-3.3 0-5-1.6-5-11.8 0-10.2 1.7-12 5-12 3.5 0 5 1.8 5 12s-1.5 12-5 12zm17.3 3.6h17v-2.8l-3.4-1.5v-20.3c1.4-.5 2.8-.8 4.3-.8 2.8 0 4 1.2 4 4.3v16.7l-3 1.5v2.9h16.5v-2.8l-3.3-1.5v-19c0-5.7-2.6-8.3-7.8-8.3-4.2 0-8 1.5-10.7 4h-.2v-4h-1l-12.6 2v2.8l3.5 1.6v21l-3.5 1.2v3zm65.4-14.4c0-13-4.4-17-13.7-17-9 0-15 5.8-15 16 0 10.4 5.3 16.2 16 16.2 5.5 0 10-2.5 11.6-4.5v-3c-2.3.7-4.5 1-8.4 1-5.6 0-8.4-2.8-9-8.7h18.5zm-13.8-13.6c2.5 0 4 1.2 4 9.4l-8.6.5c0-8.3 1.8-10 4.6-10zm20.8 37c-1.2 0-2.8 0-4-.3v3.7c1.3 1 3 1.6 5 1.6 5 0 8.5-2.3 11-9l11.5-31.4 3-1.5v-2.8h-11.8v3l3.3 1.3-5.3 16h-.3l-5.7-16 3.3-1.6v-2.8h-17.7v3l3 1.4 12.3 29.2-.6 1.2c-1.4 3.6-3.8 5-7 5zm37.4-8.2c9.8 0 14-4.4 14-10.8 0-4.7-2.4-8.7-8.3-10l-3.5-.7c-3.5-.7-4.3-1.8-4.3-3.7 0-1.8 1.7-3 4-3 1.7 0 4 .4 4.6.8l1.3 4.2h4.4v-7.6c-2.4-1-6-1.6-9.7-1.6-9 0-13 4.4-13 10.3 0 4.5 2.5 9 8.2 10.3l3.6.8c3.3.8 4 1.7 4 4 0 2.4-2 3-4.8 3-1.8 0-4.3-.3-5-1l-1.8-5h-4.3v8c3 1.3 7.4 2 10.7 2zm15-.8h17v-2.8l-3.3-1.5v-20.3c1.3-.5 2.7-.8 4.3-.8 2.8 0 4 1.2 4 4.3v16.7l-3.2 1.5v2.9h17v-2.8l-3.4-1.5v-19c0-5.7-2.6-8.3-7.7-8.3-4.3 0-8 1.5-10.8 4h-.3v-17h-1l-12.7 2v2.6l3.5 1.6v34l-3.3 1.6v2.8zm52.6-31.6c-9.4 0-16 5.8-16 16.2 0 10.5 6.6 16.2 16 16.2 9.3 0 15.7-5.7 15.7-16.2 0-10.4-6.4-16.2-15.8-16.2zm0 28c-3.4 0-5.2-1.6-5.2-11.8 0-10.2 1.8-12 5.2-12 3.4 0 5 1.8 5 12s-1.6 12-5 12zm30.4-24v-4h-.8l-12.8 2v2.8l3.5 1.6v34.2l-3.3 1.6v3h17.4v-3l-4-1.5v-9c1 .3 2.2.8 4.7.8 8 0 15.2-4.2 15.2-16.7 0-12-5-15.6-11-15.6-4 0-6.7 2-8.4 4h-.4zm3.4 24c-1.4 0-2.5-.4-3.3-1v-20c1-.5 2-.8 3.6-.8 3.4 0 5.4 3 5.4 10.2 0 8.8-2.4 11.7-5.6 11.7z"/></svg>