<svg width="112.8" height="15.4" viewBox="0 0 112.8 15.4"><g class="logo--part1"><path d="M74.6 11.5h4.3v-.7l-.8-.4V5.3c.3-.2.6-.3 1-.3.7 0 1.1.3 1.1 1.1v4.3l-.8.4v.7h4.3v-.7l-.9-.4V5.5c0-1.5-.7-2.1-2-2.1-1.1 0-2.1.4-2.8 1v-1h-.2l-3.3.5v.7l.9.4v5.4l-.9.4v.7zM64.5.1c-.8 0-1.4.6-1.4 1.4 0 .8.6 1.4 1.4 1.4.8 0 1.4-.6 1.4-1.4 0-.8-.7-1.4-1.4-1.4M62.3 3.9v.7l.9.4v5.4l-.9.4v.7h4.4v-.7l-.9-.4v-7h-.2M58.6 10c-.2.2-.4.3-.8.3-1 0-1.5-.9-1.5-2.8 0-2.2.6-3 1.5-3 .5 0 .7.1.9.4V10zm0-6.3c-.3-.2-.8-.4-1.3-.4-2 0-3.8 1.1-3.8 4.3 0 3 1.9 4 3.1 4 1 0 1.7-.4 2-.9h.1v.8h.2l3.1-.4v-.6l-.8-.5V.2H61l-3.3.5v.7l.9.4v1.9zM47.5 3.9v.7l.9.4v5.4l-.8.4v.7h4.6v-.7l-1.2-.4V6.2c.5-.4 1-.5 1.8-.5.2 0 .5 0 .7.1V3.5h-.4c-.9 0-1.7.6-2.1 1.6V3.4h-.2l-3.3.5zM41.8 4.5c.2-.1.6-.1.7-.1 1 0 1.3.5 1.3 1.5v.9l-1.5.3c-1.5.3-2.7.8-2.7 2.4 0 1.3.9 2.2 2.2 2.2 1 0 1.9-.4 2.3-1.1h.1c.1.9.9 1.1 1.7 1.1.6 0 1.3-.2 1.5-.5v-.5l-.8-.4V5.8c0-1.8-1.3-2.4-3.4-2.4-1.4 0-2.3.3-3 .7v2h1.2l.4-1.6zm2.1 5.5c-.2.2-.4.3-.7.3-.5 0-1-.3-1-1.2 0-.6.6-1.2 1.2-1.3l.5-.1V10z"/><path d="M68.8 4.5c.2-.1.6-.1.7-.1 1 0 1.3.5 1.3 1.5v.9l-1.5.3c-1.5.3-2.7.8-2.7 2.4 0 1.3.9 2.2 2.2 2.2 1 0 1.9-.4 2.3-1.1h.1c.1.9.9 1.1 1.7 1.1.6 0 1.3-.2 1.5-.5v-.5l-.8-.4V5.8c0-1.8-1.3-2.4-3.4-2.4-1.4 0-2.3.3-3 .7v2h1.2l.4-1.6zm2 5.5c-.2.2-.4.3-.7.3-.5 0-1-.3-1-1.2 0-.6.6-1.2 1.2-1.3l.5-.1V10zM31.5 9.2c0 1.4.7 2.5 2.3 2.5 1.1 0 2-.5 2.5-1.1v1.1h.2l3.2-.4v-.6l-.9-.5V3.4h-.2l-3.3.5v.7l.9.4v4.8c-.3.2-.5.3-1 .3-.7 0-1.1-.2-1.1-1.1V3.4h-.2l-3.3.5v.7l.9.4v4.2zM28 9.8h-2.8c-.3 0-.6-.2-.6-.5 0-.2.2-.4.4-.6.4.1.8.2 1.3.2 2 0 3.4-.9 3.4-2.7 0-.8-.3-1.2-.8-1.7l1.3.4V3.3l-2.1.4c-.5-.2-1.2-.4-1.8-.4-2 0-3.5 1.1-3.5 2.8 0 1 .5 1.8 1.3 2.3h.1c-.5.3-1.4 1-1.4 1.9 0 .6.4 1.2 1.3 1.4-.9.2-1.9.6-1.9 1.6 0 1.1 1.5 2.1 4 2.1 3.1 0 4.5-1.5 4.5-3.3 0-1.6-.9-2.3-2.7-2.3m-1.7-5.5c.6 0 1 .4 1 1.8 0 1.5-.4 1.8-1 1.8s-1-.3-1-1.8.4-1.8 1-1.8m0 9.9c-1.4 0-2-.6-1.9-1.1 0-.4.2-.9.9-.9h2.3c.7 0 1.1.5 1.1.9-.2.8-.8 1.1-2.4 1.1M22 7.8c0-3.3-1.5-4.4-3.5-4.4-2.4 0-3.9 1.5-3.9 4.2s1.4 4.2 4.1 4.2c1.5 0 2.6-.8 3-1.3v-.6c-.6.2-1.1.3-2.1.3-1.4 0-2.3-.7-2.3-2.3H22zm-3.6-3.5c.7 0 1 .5 1 2.5l-2.2.1c.1-2.1.5-2.6 1.2-2.6"/><path d="M6 11.5h4.3v-.7l-.8-.4V5.3c.3-.2.7-.3 1-.3.7 0 1.1.5 1.1 1.1v4.3l-.8.4v.7h4.3v-.7l-.9-.4V5.5c0-1.5-.8-2.1-2-2.1-1.1 0-2.1.4-2.8 1V0h-.2L5.9.5v.7l.9.4v8.8l-.8.4v.7zM1.2 9.4c0 1.5.7 2.4 2.3 2.4.8 0 1.7-.2 2.2-.6v-1c-.2.1-.6.1-.9.1-.8 0-1-.4-1-1.2V5h1.7V3.6H3.9V1.7l-2.7.4v1.5L0 3.8V5h1.2v4.4z"/></g><g class="logo--part2"><path d="M85.3 4.6v-.7l3.3-.5h.2v9c0 1.8-1 2.8-2.9 2.8-.7 0-1.3-.2-1.7-.4v-.9c.2 0 .5.1.8.1.7 0 1.2-.4 1.2-1V5l-.9-.4zm3.5-3.1c0 .8-.6 1.4-1.4 1.4-.8 0-1.4-.6-1.4-1.4 0-.8.6-1.4 1.4-1.4.8 0 1.4.6 1.4 1.4zM97.6 7.6c0 2.7-1.7 4.2-4.1 4.2-2.4 0-4.1-1.5-4.1-4.2s1.7-4.2 4.1-4.2c2.4 0 4.1 1.5 4.1 4.2zm-2.8 0c0-2.6-.4-3.1-1.3-3.1s-1.3.5-1.3 3.1.4 3.1 1.3 3.1c.9-.1 1.3-.5 1.3-3.1zM100.9 4.3c.6-.5 1.3-.9 2.3-.9 1.4 0 2.8 1.1 2.8 4 0 3.2-1.8 4.3-4.3 4.3-1.5 0-2.8-.3-3.5-.7V1.8l-.9-.4V.7l3.3-.5h.2v4.1zm2.3 3.3c0-2.1-.6-2.7-1.4-2.7-.4 0-.7.1-1 .2v5.4c.2.1.4.3.9.3 1 0 1.5-.9 1.5-3.2zM106.5 11.2V9.1h1.1l.5 1.3c.2.2.8.3 1.3.3.8 0 1.3-.2 1.3-.8 0-.6-.2-.8-1-1l-1-.2c-1.5-.3-2.1-1.5-2.1-2.7 0-1.5 1-2.6 3.4-2.6.9 0 1.9.1 2.5.4v2h-1.1l-.3-1.1c-.2-.1-.7-.2-1.2-.2-.6 0-1 .3-1 .8s.2.8 1.1.9l.9.2c1.5.3 2.1 1.3 2.1 2.6 0 1.7-1 2.8-3.6 2.8-1-.1-2.1-.2-2.9-.6z"/></g></svg>