<svg width="86" height="18" viewBox="-0.48 -1.133 86 18" overflow="visible" enable-background="new -0.48 -1.133 86 18"><path d="M81.95 9.55c-.55-.148-2.2-.55-2.852-1.1-.3-.3-.45-.75-.45-1.3 0-.6.2-.948.65-1.25.4-.3 1.05-.448 1.75-.448 1 0 1.7.25 2.15.4L83.45 7.5c.05.2.198.35.397.35.25 0 .45-.2.45-.45l.05-2c.05-.35-.147-.5-.397-.65-.4-.198-1.4-.6-2.9-.6-2.25 0-3.65 1.15-3.65 2.9 0 .85.3 1.7.8 2.202.65.7 1.55.95 3.4 1.5 1.45.5 2.05.8 2.05 2.05 0 .65-.15 1.2-.5 1.5-.45.35-1.15.6-2.1.6-1.25 0-2.15-.3-2.65-.5l-.2-1.65c0-.25-.2-.45-.45-.45s-.5.15-.5.4l-.1 2c0 .25.198.55.448.65.5.25 1.602.75 3.352.75 1.25 0 2.25-.302 2.95-.85.698-.552 1-1.5 1-2.552-.052-2.15-1.5-2.698-2.95-3.15zM32.2 0l-1.7.35c-.3 0-.5.2-.5.5s.25.5.6.5h1V15.3c0 .352.3.65.6.65.35 0 .65-.3.65-.6V.6c0-.45-.5-.6-.65-.6zm14.85 4.15c-1.702-.05-3.6 1.052-4.2 1.5-.5-1-1.5-1.5-2.95-1.5-1.7 0-2.85.7-3.7 1.25v-.55c0-.35-.3-.6-.6-.6-.35 0-.65.3-.65.6v10.402c0 .35.3.648.6.648.35 0 .65-.25.65-.7V6.6c.65-.398 2-1.2 3.7-1.2.8 0 1.3.15 1.6.5.3.302.5.85.5 1.45v7.902c0 .35.3.648.6.648.35 0 .648-.3.648-.6L43.2 7.35c0-.25 0-.45-.052-.7.4-.2 1.85-1.25 3.802-1.25.8 0 1.35.15 1.698.5.302.3.45.8.45 1.4v7.95c0 .352.3.65.602.65.3 0 .647-.2.647-.65v-7.9c0-2.1-1.298-3.15-3.298-3.2zM4.85 9.503C4.3 9.352 2.65 8.952 2 8.4c-.35-.3-.45-.75-.45-1.3 0-.6.2-.95.65-1.25.4-.3 1.05-.45 1.75-.45 1 0 1.7.25 2.15.4l.25 1.65c.05.2.2.35.4.35.25 0 .45-.2.45-.45l.05-2c.05-.35-.15-.5-.4-.648-.4-.2-1.4-.6-2.9-.6C1.7 4.1.3 5.25.3 7c0 .85.3 1.7.8 2.2.65.7 1.55.95 3.4 1.5 1.45.5 2.05.802 2.05 2.052 0 .648-.15 1.2-.5 1.5-.45.35-1.15.6-2.1.6-1.25 0-2.15-.3-2.65-.5l-.25-1.6c0-.25-.2-.45-.45-.45s-.5.15-.5.4l-.1 2c0 .25.2.55.45.65.5.25 1.6.75 3.35.75 1.25 0 2.25-.302 2.95-.852.7-.55 1-1.5 1-2.55 0-2.15-1.45-2.75-2.9-3.198zm68.9-4.9c-.6-.3-1.35-.45-2.15-.45-.647 0-1.35.1-1.897.3-.65.25-1.25.7-1.7 1.15-.5.5-.852 1-1.102 1.75-.3.798-.447 1.7-.447 2.7 0 1.8.35 3.15 1.1 4.15.9 1.25 2.35 1.9 4.35 1.9 2.05 0 3.45-.65 3.45-.65.3-.15.55-.4.35-.802-.148-.35-.6-.3-.95-.2 0 0-1.15.4-2.9.4-2.896 0-4.146-1.55-4.146-4.85 0-1.65.397-2.75 1.198-3.6.85-.85 1.9-1.1 2.65-1.1 1.198 0 2 .3 2.55 1.1.398.6.7 1.5.75 2.5l-5.5.1c-.3 0-.602.2-.602.45 0 .3.1.65.45.65H75.5c.35 0 .6-.25.6-.7 0-1.55-.35-2.75-1-3.65-.252-.55-1.35-1.15-1.35-1.15zm-7.902 10.1s-.6.198-1.3.198c-.45 0-.85-.2-1.05-.398-.3-.3-.25-.852-.25-1.3V5.55h2.65c.35 0 .6-.35.6-.65 0-.35-.3-.6-.6-.6h-2.65V2.15c0-.3-.35-.55-.65-.55-.35 0-.648.25-.648.55V4.3H60.9c-.302 0-.6.25-.6.55 0 .3.198.648.5.648h1.15v7.55c0 .85.048 1.7.6 2.25.448.45 1.15.7 2 .7.948 0 1.65-.25 1.698-.25.3-.1.35-.5.25-.8-.15-.198-.298-.348-.65-.25zm-11.3-10.4c-.95.15-1.5.35-1.5.35-.3.1-.6.5-.45.8.15.3.5.55.8.4l1.052-.3c.85-.15 1.75-.25 2.6-.052 1.05.25 1.4 1.35 1.4 2.45v5.75c-.65.552-1.55 1-2.4 1.15-1.55.25-3.25-.4-3.25-2.15 0-1.1.8-1.65 1.7-1.948.65-.2 1.9-.4 2.75-.45.25 0 .4-.25.4-.55 0-.3-.25-.45-.552-.45-.75 0-1.648 0-2.8.35-1.1.3-2.1.75-2.5 1.95-.5 1.45.1 3.1 1.4 3.95 1.6.95 3.95.6 5.25-.7v.45c0 .35.35.6.648.6.353 0 .603-.3.603-.6V7.9c0-1.15-.202-2-.702-2.6-.95-1.15-2.548-1.302-4.45-1zM29.324 4.926c.102-.35-.2-.65-.5-.65-.35 0-.648.3-.648.6v8.902c-.55.35-2 1.05-3.7 1.05-1 0-1.75-.25-2.1-.7-.15-.2-.352-.5-.352-1.4V4.88c-.05-.35-.3-.55-.6-.55-.25 0-.5.15-.6.35-.4 1.25-2.4 3-5.45 3-1.15 0-1.65-.65-1.65-1.25 0-1.05 1.15-1.2 2.05-.65.3.2.75.1.9-.2.1-.25.05-.65-.25-.8-.75-.4-1.6-.6-2.55-.6-1.35 0-2.55.45-3.45 1.3-.5.5-.9 1.3-1.2 2.05-.3.75-.5 1.65-.5 2.65 0 1.05.1 1.9.35 2.602.2.75.55 1.397 1 1.897.9 1 2.2 1.55 3.75 1.55 1.35 0 2.6-.55 3.5-1.398.5-.5.85-1.15 1.1-1.852.3-.75.5-1.65.5-2.65 0-.898-.05-1.6-.2-2.25.95-.45 2-1.45 2-1.45v6.2c0 .553.1 1.553.65 2.202.6.8 1.648 1.147 3.1 1.147 1.5 0 2.8-.647 3.65-1.25l-.052.4c0 .35.3.65.65.65.35 0 .65-.4.65-.75l-.048-10.3zm-12.8 9c-.65.65-1.6 1.05-2.65 1.05-1.2 0-2.15-.447-2.8-1.197-.65-.75-1-2.15-1-3.604 0-1.8.45-3.1 1.25-3.898.4-.4 1.2-.75 1.75-.85-.3.3-.4.65-.4.95 0 1.4 1.05 2.35 2.85 2.35.7 0 1.55-.15 2.15-.3.05.3.1.95.1 1.75 0 1.45-.4 2.95-1.25 3.748z"/></svg>