<svg viewBox="-837.1 3728.4 68.6 14.7">
	<path d="M-810.9,3729.4l-1.3,0.2c-0.3,0-0.4,0.2-0.4,0.4c0,0.2,0.2,0.4,0.4,0.4h0.8v11c0,0.3,0.2,0.5,0.5,0.5
	c0.3,0,0.5-0.2,0.5-0.5v-11.5c0-0.1-0.1-0.3-0.1-0.3C-810.6,3729.5-810.7,3729.4-810.9,3729.4 M-799.3,3732.6
	c-1.4,0-2.8,0.9-3.3,1.2c-0.4-0.8-1.2-1.2-2.3-1.2c-1.3,0-2.2,0.5-2.9,1v-0.4c0-0.3-0.2-0.5-0.5-0.5s-0.5,0.2-0.5,0.5v8.2
	c0,0.3,0.2,0.5,0.5,0.5s0.5-0.2,0.5-0.5v-6.9c0.5-0.3,1.6-0.9,2.9-0.9c0.6,0,1,0.1,1.3,0.4c0.2,0.3,0.3,0.6,0.3,1.2v6.2
	c0,0.3,0.2,0.5,0.5,0.5s0.5-0.2,0.5-0.5v-6.2c0-0.2,0-0.4-0.1-0.6c0.3-0.2,1.5-1,3-1c0.6,0,1.1,0.1,1.3,0.4c0.2,0.3,0.3,0.6,0.3,1.2
	v6.2c0,0.3,0.2,0.5,0.5,0.5s0.5-0.2,0.5-0.5v-6.2C-796.7,3733.5-797.6,3732.6-799.3,3732.6 M-813.5,3732.7c-0.3,0-0.5,0.2-0.5,0.5
	v6.9c-0.4,0.3-1.6,0.9-2.9,0.9c-0.8,0-1.3-0.2-1.6-0.5c-0.1-0.2-0.3-0.4-0.3-1v-6.3c0-0.3-0.2-0.5-0.5-0.5c-0.2,0-0.4,0.1-0.5,0.3
	c-0.2,1-1.7,2.4-4.1,2.4c-0.9,0-1.3-0.5-1.3-1c0-0.8,0.9-0.9,1.6-0.5c0.2,0.1,0.5,0.1,0.7-0.1c0.1-0.2,0-0.5-0.2-0.7
	c-0.6-0.3-1.2-0.5-2-0.5c-1,0-2,0.4-2.7,1c-0.4,0.4-0.7,1-0.9,1.6c-0.2,0.7-0.4,1.4-0.4,2.2s0.1,1.5,0.3,2c0.2,0.6,0.4,1,0.8,1.4
	c0.7,0.8,1.7,1.2,2.9,1.2c1.1,0,2-0.4,2.7-1c0.4-0.4,0.7-0.9,0.9-1.5c0.2-0.6,0.3-1.4,0.3-2.1s-0.1-1.2-0.2-1.7
	c0.8-0.3,1.6-1.1,1.6-1.1v4.8c0,0.4,0.1,1.1,0.5,1.6c0.5,0.6,1.3,0.9,2.4,0.9c1.2,0,2.3-0.5,2.9-1v0.3c0,0.3,0.2,0.5,0.5,0.5
	s0.5-0.2,0.5-0.5v-8C-813,3733-813.2,3732.7-813.5,3732.7 M-823,3740.3c-0.5,0.5-1.2,0.8-2.1,0.8c-0.9,0-1.7-0.3-2.2-0.9
	c-0.5-0.6-0.8-1.7-0.8-2.8c0-1.4,0.3-2.4,1-3.1c0.3-0.3,0.9-0.6,1.4-0.7c-0.3,0.2-0.3,0.5-0.3,0.8c0,1.1,0.9,1.8,2.3,1.8
	c0.6,0,1.2-0.1,1.6-0.2c0,0.2,0.1,0.8,0.1,1.4C-822.1,3738.5-822.4,3739.7-823,3740.3 M-832.2,3736.8c-0.4-0.1-0.8-0.2-1.3-0.4
	c-0.5-0.1-0.8-0.3-1-0.5s-0.3-0.5-0.3-0.9c0-0.4,0.2-0.8,0.5-1c0.3-0.3,0.8-0.4,1.4-0.4c0.8,0,1.3,0.2,1.7,0.3l0.2,1.3
	c0,0.2,0.1,0.3,0.2,0.3c0.2,0,0.3-0.1,0.4-0.3l0.1-1.6c0-0.2-0.1-0.4-0.3-0.5c-0.3-0.1-1.1-0.5-2.3-0.5c-1.7,0-2.8,0.9-2.8,2.3
	c0,0.7,0.2,1.2,0.6,1.7c0.3,0.4,0.7,0.6,1.3,0.8c0.5,0.1,0.8,0.3,1.3,0.4c1.2,0.4,1.6,0.6,1.6,1.6c0,0.5-0.1,0.9-0.4,1.2
	c-0.4,0.3-0.9,0.4-1.6,0.4c-1,0-1.7-0.2-2-0.4l-0.3-1.3c0-0.2-0.2-0.3-0.3-0.3c-0.2,0-0.4,0.1-0.4,0.4l-0.1,1.5
	c0,0.2,0.1,0.4,0.4,0.5c0.4,0.2,1.3,0.6,2.6,0.6c1,0,1.7-0.2,2.2-0.6c0.6-0.5,0.8-1.2,0.8-2C-830,3737.7-831.1,3737.2-832.2,3736.8
	 M-772,3736.8c-0.4-0.1-0.8-0.2-1.3-0.4s-0.8-0.3-1-0.5s-0.3-0.6-0.3-1c0-0.4,0.2-0.8,0.5-1c0.3-0.2,0.8-0.3,1.4-0.3
	c0.8,0,1.3,0.2,1.7,0.3l0.2,1.3c0,0.1,0.2,0.3,0.3,0.3c0.2,0,0.3-0.1,0.4-0.3l0.1-1.6c0-0.2-0.1-0.4-0.3-0.5
	c-0.3-0.1-1.1-0.5-2.3-0.5c-1.7,0-2.8,0.9-2.8,2.3c0,0.7,0.2,1.2,0.6,1.7c0.3,0.3,0.8,0.6,1.4,0.8c0.5,0.1,0.8,0.3,1.3,0.4
	c1.2,0.4,1.6,0.7,1.6,1.7c0,0.5-0.1,0.9-0.4,1.2c-0.4,0.3-0.9,0.4-1.6,0.4c-1,0-1.7-0.2-2-0.4l-0.5-1.4c0-0.2-0.2-0.3-0.3-0.3
	c-0.2,0-0.4,0.1-0.4,0.4l-0.1,1.6c0,0.2,0.1,0.4,0.4,0.5c0.4,0.2,1.3,0.6,2.6,0.6c1,0,1.7-0.2,2.2-0.6c0.5-0.4,0.8-1.1,0.8-1.9
	C-769.7,3737.7-770.8,3737.2-772,3736.8 M-778.4,3733c-0.5-0.2-1-0.4-1.7-0.4c-0.5,0-1,0.1-1.5,0.3c-0.4,0.2-0.9,0.5-1.2,0.8
	c-0.4,0.4-0.7,0.9-0.9,1.5c-0.2,0.6-0.3,1.3-0.3,2.1c0,1.4,0.3,2.5,0.9,3.2c0.7,1,1.9,1.5,3.4,1.5c1.6,0,2.7-0.5,2.7-0.5
	c0.3-0.1,0.4-0.4,0.2-0.6c-0.1-0.2-0.4-0.3-0.6-0.2c0,0-0.9,0.3-2.3,0.3c-2.3,0-3.3-1.2-3.3-3.7c0-1.3,0.3-2.3,1-2.9
	c0.6-0.7,1.5-0.8,2.1-0.8c0.9,0,1.6,0.3,2,0.9c0.3,0.5,0.5,1.1,0.5,1.9l-4.3,0.1c-0.3,0-0.4,0.2-0.4,0.4s0.2,0.4,0.4,0.4h4.8
	c0.3,0,0.5-0.2,0.5-0.5c0-1.2-0.3-2.2-0.7-2.9C-777.6,3733.5-777.9,3733.2-778.4,3733 M-784.6,3740.9c0,0-0.4,0.1-1,0.1
	c-0.4,0-0.7-0.2-0.8-0.3c-0.2-0.2-0.2-0.7-0.2-1v-6h2.1c0.3,0,0.5-0.2,0.5-0.5c0-0.3-0.2-0.5-0.5-0.5h-2.1v-1.6
	c0-0.3-0.2-0.5-0.5-0.5c-0.3,0-0.5,0.2-0.5,0.5v1.6h-0.8c-0.3,0-0.5,0.2-0.5,0.5c0,0.3,0.2,0.5,0.5,0.5h0.8v6c0,0.7,0,1.3,0.5,1.7
	c0.3,0.3,0.8,0.5,1.5,0.5c0.8,0,1.3-0.2,1.3-0.2c0.2-0.1,0.4-0.3,0.3-0.6C-784.1,3740.9-784.4,3740.8-784.6,3740.9 M-793.4,3732.7
	c-0.8,0.1-1.2,0.3-1.2,0.3c-0.2,0.1-0.4,0.4-0.3,0.7c0.1,0.3,0.4,0.4,0.6,0.3c0,0,0.5-0.2,0.8-0.2c0.6-0.1,1.4-0.2,2-0.1
	c0.9,0.2,1.1,1.1,1.1,2v4.5c-0.5,0.4-1.2,0.8-1.9,0.9c-1.2,0.2-2.5-0.3-2.5-1.7c0-0.9,0.6-1.3,1.3-1.5c0.5-0.2,1.5-0.3,2.1-0.3
	c0.2,0,0.4-0.2,0.3-0.4c0-0.2-0.2-0.4-0.4-0.4c-0.6,0-1.4,0-2.3,0.3c-0.9,0.2-1.6,0.7-1.9,1.6c-0.4,1.1,0.1,2.4,1.1,3
	c1.2,0.8,3.1,0.5,4.1-0.5v0.2c0,0.3,0.2,0.5,0.5,0.5s0.5-0.2,0.5-0.5v-1.8v-4c0-0.9-0.2-1.6-0.6-2
	C-790.6,3732.6-791.9,3732.5-793.4,3732.7"/>
</svg>
