<svg width="164" height="20" viewBox="0 0 164 20"><path d="M.1 19.5h7.2v-1.2L6 17.6v-9c.5-.2 1-.3 1.5-.3 1.2 0 1.7.4 1.7 1.9v7.3l-1.2.7v1.3h6.9v-1.2l-1.2-.7v-9c.4-.2 1-.3 1.5-.3 1.2 0 1.8.4 1.8 1.9v7.3l-1.3.8v1.2h7.1v-1.2l-1.4-.7V9.2c0-2.5-1.1-3.6-3.4-3.6-1.9 0-3.2.7-4.4 1.8h-.1C13 6.1 12 5.6 10.4 5.6c-1.9 0-3 .7-4.2 1.8H6V5.6h-.4L0 6.4v1.1l1.5.8v9.3l-1.5.5v1.4zM27.5 7.4h1.1c1.8 0 2.2.9 2.2 2.6v1.8l-2.6.4c-3 .6-4.9 1.1-4.9 4 0 2.2 1.5 3.8 4 3.8 1.7 0 3.3-.8 3.9-1.9h.1c.2 1.5 1.5 1.9 2.9 1.9 1.1 0 2.1-.3 2.5-.5v-1l-1.5-.7V9.6c0-3-2.2-4.1-5.8-4.1-2.4 0-4 .6-5.2 1.1v3.5h2.1l.9-2.8.3.1zm3.3 9.5c-.2.3-.8.5-1.2.5-.9 0-1.7-.4-1.7-2 0-1.3.9-2 1.9-2.1l1.1-.1v3.7zm11.1 2.9c4.3 0 6.2-1.9 6.2-4.8 0-2.1-1.1-3.8-3.7-4.4l-1.6-.4C41.3 10 41 9.5 41 8.7c0-.9.7-1.3 1.8-1.3.8 0 1.8.2 2 .3l.6 1.9h1.9V6.3c-1.1-.4-2.6-.7-4.3-.7-4 0-5.7 1.9-5.7 4.5 0 2 1.1 4 3.7 4.6l1.7.4c1.5.3 1.8.7 1.8 1.8 0 1-.9 1.3-2.2 1.3-.7 0-1.8-.2-2.1-.4l-.8-2.2h-1.9V19c1 .5 3 .9 4.4.8zm8.3-4c0 2.9 1.3 4.1 4 4.1 1.4 0 2.9-.4 3.7-.8v-1.8l-1.5.1c-1.3 0-1.7-.7-1.7-2V8.2h3V5.9h-3V2.7l-4.5.6v2.6l-2.1.3v2h2.1v7.6zm20.7-2.7c0-5.7-1.9-7.5-6-7.5s-6.7 2.6-6.7 7.1c0 4.6 2.4 7.2 7.1 7.2 2.5 0 4.5-1.1 5.2-2v-1.3c-1 .3-1.9.4-3.7.4-2.5 0-3.8-1.2-4-3.9h8.1zm-6.1-6c1.1 0 1.8.6 1.8 4.2l-3.8.2c0-3.6.8-4.4 2-4.4zm6.6-.7v1.2l1.5.8v9.3l-1.4.6v1.3h7.8v-1.3l-1.9-.6v-7.5c.8-.4 1.8-.5 3-.5.4 0 .9 0 1.1.1v-4h-.7c-1.5 0-2.6.9-3.5 2.7h-.1V5.6h-.4l-5.4.8zm17.5 13.4c2.2 0 4.1-1.1 4.9-1.9v-1.2c-.7.2-2.1.4-3.3.4-2.2 0-3.9-1.4-3.9-4.6 0-3.7 1.1-5.1 2.6-5.1.6 0 1.1.1 1.3.2l.8 2.6h2.3V6.1c-.8-.3-2.7-.6-4.3-.6-4.5 0-7.4 2.6-7.4 7.1.1 4.3 2.4 7.1 7 7.2zm5.6-19v1.3l1.5.6v14.7l-1.3.7v1.3h7.4v-1.3l-1.5-.6V0h-.4l-5.7.8zm12.1 6.6h1.1c1.8 0 2.3.9 2.3 2.6v1.8l-2.6.4c-3 .6-4.8 1.1-4.8 4 0 2.2 1.5 3.8 3.9 3.8 1.8 0 3.3-.8 4-1.9h.1c.2 1.5 1.5 1.9 2.9 1.9 1.1 0 2.1-.3 2.6-.5v-1l-1.5-.7V9.7c0-3-2.2-4.1-5.8-4.1-2.3 0-3.9.6-5.2 1.1v3.5h2.2l.8-2.8zm3.4 9.5c-.3.3-.8.5-1.2.5-.9 0-1.8-.4-1.8-2 0-1.3.9-2 1.9-2.1l1.1-.1v3.7zm11.1 3c4.4 0 6.2-1.9 6.2-4.8 0-2.1-1-3.8-3.6-4.4l-1.6-.4c-1.5-.3-1.9-.8-1.9-1.6 0-.9.8-1.3 1.8-1.3.8 0 1.8.2 2 .3l.6 1.9h1.9V6.3c-1.1-.4-2.7-.7-4.3-.7-4 0-5.7 1.9-5.7 4.5 0 2 1.1 4 3.6 4.6l1.7.4c1.5.3 1.8.7 1.8 1.8 0 1-.9 1.3-2.2 1.3-.8 0-1.9-.2-2.2-.4l-.7-2.2h-1.9V19c1.1.6 3 .9 4.5.9zm11.6 0c4.4 0 6.2-1.9 6.2-4.8 0-2.1-1-3.8-3.6-4.4l-1.6-.4c-1.5-.3-1.9-.8-1.9-1.6 0-.9.7-1.3 1.8-1.3.7 0 1.7.2 2 .3l.6 1.9h1.9V6.3c-1-.4-2.6-.7-4.2-.7-4 0-5.7 1.9-5.7 4.5 0 2 1.1 4 3.6 4.6l1.6.4c1.5.3 1.8.7 1.8 1.8 0 1-.9 1.3-2.1 1.3-.8 0-1.9-.2-2.2-.4l-.8-2.2H128V19c1.3.6 3.3.9 4.7.9zm19.6-6.7c0-5.7-2-7.5-6-7.5s-6.7 2.6-6.7 7.1c0 4.6 2.4 7.2 7.1 7.2 2.5 0 4.5-1.1 5.2-2v-1.3c-.9.3-1.9.4-3.7.4-2.5 0-3.8-1.2-4-3.9h8.1zm-6.2-6.1c1.1 0 1.8.6 1.8 4.2l-3.8.2c0-3.6.7-4.4 2-4.4zm11.5 12.8c4.3 0 6.1-2 6.1-4.9 0-2-1-3.8-3.6-4.3l-1.6-.4c-1.5-.3-1.9-.8-1.9-1.6 0-.9.7-1.3 1.8-1.3.8 0 1.7.2 2 .3l.6 1.9h1.9V6.3c-1.1-.4-2.7-.7-4.3-.7-4 0-5.7 1.9-5.7 4.5 0 2 1.1 4 3.6 4.6l1.7.4c1.5.3 1.8.7 1.8 1.8 0 1-.9 1.3-2.2 1.3-.8 0-1.8-.2-2.2-.4l-.7-2.2H153V19c1.2.6 3.1.9 4.6.9z"/></svg>