<svg width="140" height="17" viewBox="0 0 140 17" overflow="visible"><path d="M.085 16.677h6.158V15.65l-1.112-.6V7.356c.43-.17.856-.257 1.284-.257 1.026 0 1.454.342 1.454 1.625v6.243l-1.026.6v1.11h5.9V15.65l-1.025-.6V7.356c.342-.17.855-.257 1.283-.257 1.026 0 1.54.342 1.54 1.625v6.243l-1.112.684v1.026H19.5V15.65l-1.197-.6V7.87c0-2.138-.94-3.08-2.908-3.08-1.625 0-2.737.6-3.763 1.54h-.085c-.43-1.11-1.284-1.538-2.653-1.538-1.625 0-2.565.598-3.59 1.54H5.13V4.79h-.34L0 5.473v.94l1.283.685v7.954L0 15.48v1.196h.085zM23.52 6.33h.94c1.54 0 1.88.77 1.88 2.223v1.54l-2.223.342c-2.565.512-4.19.94-4.19 3.42 0 1.882 1.282 3.25 3.42 3.25 1.454 0 2.823-.684 3.336-1.625h.085c.17 1.282 1.283 1.625 2.48 1.625.94 0 1.796-.257 2.138-.428v-.855l-1.283-.6V8.21c0-2.566-1.882-3.507-4.96-3.507-2.053 0-3.42.513-4.447.94v2.994h1.795l.77-2.395.26.087zm2.82 8.123c-.17.257-.683.428-1.025.428-.77 0-1.454-.34-1.454-1.71 0-1.11.77-1.71 1.626-1.796l.94-.085v3.163h-.085zm9.493 2.48c3.678 0 5.303-1.624 5.303-4.104 0-1.797-.94-3.25-3.165-3.764l-1.367-.34c-1.283-.172-1.54-.6-1.54-1.284 0-.77.6-1.112 1.54-1.112.684 0 1.54.17 1.71.257l.513 1.625h1.625V5.388c-.94-.342-2.222-.598-3.676-.598-3.42 0-4.875 1.625-4.875 3.848 0 1.71.94 3.42 3.164 3.935l1.454.34c1.283.26 1.54.6 1.54 1.54 0 .856-.77 1.113-1.882 1.113-.6 0-1.54-.172-1.796-.343l-.684-1.882H32.07v2.91c.856.427 2.567.77 3.763.684zm7.1-3.42c0 2.48 1.11 3.507 3.42 3.507 1.197 0 2.48-.343 3.164-.686v-1.54l-1.283.087c-1.11 0-1.454-.598-1.454-1.71V7.014h2.566V5.046H46.78V2.31l-3.85.512v2.224l-1.795.257v1.71h1.796v6.5zm17.702-2.31c0-4.875-1.625-6.414-5.13-6.414s-5.73 2.223-5.73 6.07c0 3.935 2.052 6.16 6.07 6.16 2.14 0 3.85-.942 4.448-1.712v-1.112c-.855.257-1.625.343-3.165.343-2.138 0-3.25-1.027-3.42-3.337h6.927zm-5.217-5.13c.94 0 1.54.512 1.54 3.59l-3.25.172c0-3.08.684-3.763 1.71-3.763zm5.645-.6V6.5l1.283.684v7.954l-1.197.513v1.112h6.67V15.65l-1.626-.513V8.724c.684-.343 1.54-.428 2.565-.428.34 0 .77 0 .94.085V4.96h-.6c-1.282 0-2.222.77-2.992 2.31h-.085V4.79h-.343l-4.617.683zm14.967 11.46c1.88 0 3.506-.94 4.19-1.624v-1.027c-.6.17-1.796.342-2.822.342-1.88 0-3.335-1.197-3.335-3.934 0-3.164.94-4.36 2.224-4.36.513 0 .94.084 1.11.17l.685 2.224h1.967V5.217c-.685-.257-2.31-.513-3.678-.513-3.85 0-6.33 2.224-6.33 6.072.086 3.677 2.053 6.072 5.988 6.158zM80.818.684v1.113l1.283.513v12.57l-1.11.6v1.112h6.328V15.48l-1.282-.513V0h-.342l-4.876.684zM91.166 6.33h.94c1.54 0 1.968.77 1.968 2.223v1.54l-2.223.342c-2.565.512-4.105.94-4.105 3.42 0 1.882 1.283 3.25 3.336 3.25 1.54 0 2.823-.684 3.422-1.625h.085c.172 1.282 1.283 1.625 2.48 1.625.94 0 1.796-.257 2.224-.428v-.855l-1.282-.6V8.297c0-2.566-1.88-3.506-4.96-3.506-1.967 0-3.335.513-4.447.94v2.994h1.883l.683-2.395zm2.908 8.123c-.256.257-.684.428-1.026.428-.77 0-1.54-.34-1.54-1.71 0-1.11.77-1.71 1.626-1.796l.94-.085v3.163zm9.493 2.567c3.763 0 5.302-1.626 5.302-4.106 0-1.795-.855-3.25-3.08-3.762l-1.368-.342c-1.282-.256-1.624-.684-1.624-1.368 0-.77.684-1.112 1.54-1.112.684 0 1.538.17 1.71.257l.513 1.625h1.626V5.388c-.94-.342-2.31-.598-3.678-.598-3.42 0-4.874 1.625-4.874 3.848 0 1.71.94 3.42 3.078 3.935l1.454.34c1.282.26 1.54.6 1.54 1.54 0 .856-.77 1.113-1.882 1.113-.685 0-1.625-.172-1.882-.343l-.6-1.882H99.72v2.91c.942.512 2.566.77 3.85.77zm9.92 0c3.764 0 5.304-1.626 5.304-4.106 0-1.795-.854-3.25-3.08-3.762l-1.366-.342c-1.283-.256-1.626-.684-1.626-1.368 0-.77.6-1.112 1.54-1.112.6 0 1.453.17 1.71.257l.514 1.625h1.624V5.388c-.854-.342-2.223-.598-3.59-.598-3.422 0-4.876 1.625-4.876 3.848 0 1.71.94 3.42 3.078 3.935l1.37.34c1.282.26 1.538.6 1.538 1.54 0 .856-.77 1.113-1.796 1.113-.685 0-1.625-.172-1.88-.343l-.687-1.882h-1.795v2.91c1.112.512 2.822.77 4.02.77zm16.763-5.73c0-4.876-1.71-6.415-5.13-6.415s-5.73 2.223-5.73 6.07c0 3.936 2.052 6.16 6.07 6.16 2.14 0 3.85-.94 4.448-1.712v-1.11c-.77.256-1.625.34-3.164.34-2.138 0-3.25-1.024-3.42-3.334h6.926zm-5.303-5.218c.94 0 1.54.513 1.54 3.592l-3.25.17c0-3.078.6-3.762 1.71-3.762zm9.835 10.948c3.68 0 5.218-1.71 5.218-4.19 0-1.71-.855-3.25-3.08-3.678l-1.367-.342c-1.283-.256-1.625-.684-1.625-1.368 0-.77.6-1.112 1.54-1.112.684 0 1.453.17 1.71.257l.513 1.625h1.627V5.388c-.94-.342-2.31-.598-3.68-.598-3.42 0-4.873 1.625-4.873 3.848 0 1.71.94 3.42 3.078 3.935l1.454.34c1.283.26 1.54.6 1.54 1.54 0 .856-.77 1.113-1.882 1.113-.685 0-1.54-.172-1.882-.343l-.598-1.882h-1.626v2.91c1.027.512 2.652.77 3.934.77z"/></svg>