<svg width="856" height="631" viewBox="0 0 856 631" fill="none"><path fill="#fff" d="M0 145h856v486H0z"/><path fill="#D8D8D8" d="M586 166h120v183H586zM716 166h120v183H716zM326 359h120v208H326zM456 359h120v208H456zM134 166h442v183H134zM134 359h182v208H134z"/><path fill="#F6A623" d="M586 359h250v208H586z"/><path fill="#D8D8D8" d="M20 166h104v15H20z"/><path fill="#052962" d="M0 0h856v145H0z"/><path d="m604.008 70.501 4.84-2.517V30h-3.66l-8.941 11.843h-1.01l.57-13.201h38.765l.56 13.201h-1.061l-8.761-11.843h-3.75v37.906l4.87 2.566v1.288h-22.422V70.5Zm35.014-1.678v-42.1l-3.761-1.498v-.788L648.854 22h1.43v19.921l.379-.32c3.011-2.625 7.332-4.313 11.652-4.313 5.951 0 8.581 3.356 8.581 9.606v21.93l3.181 1.726v1.28h-17.772v-1.27l3.189-1.737V46.814c0-3.434-1.499-4.813-4.319-4.813-1.881 0-3.501.59-4.702 1.549v25.323l3.131 1.728v1.218h-17.782V70.61l3.2-1.787Zm45.406-12.931c.369 6.96 3.49 12.343 10.891 12.343 3.58 0 6.12-1.659 8.511-2.917v1.37c-1.85 2.526-6.54 6.071-13.072 6.071-11.471 0-17.332-6.362-17.332-17.386 0-10.774 6.411-17.484 16.772-17.484 9.742 0 14.802 4.863 14.802 17.664v.33h-20.572v.009Zm-.191-1.598 10.092-.619c0-8.617-1.48-14.34-4.441-14.34-3.14 0-5.651 6.64-5.651 14.96ZM540 88.614c0-18.324 12.151-24.844 25.684-24.844 5.74 0 11.161.919 14.19 2.177l.261 12.792h-1.29l-7.942-12.372c-1.359-.58-2.649-.809-5.03-.809-7.19 0-10.871 8.298-10.761 21.908.14 16.277 2.97 23.667 9.571 23.667 1.72 0 3.04-.26 3.961-.659V93.027l-4.361-2.496v-1.458h21.063v1.558l-4.291 2.397v17.205c-3.56 1.389-9.571 2.707-15.912 2.707-15.382 0-25.143-7.12-25.143-24.325Zm44.605-8.547v-1.058l14.162-2.496 1.55.13v27.86c0 3.355 1.62 4.393 4.331 4.393 1.75 0 3.33-.658 4.59-2.166V81.744l-3.88-1.678v-1.098l14.161-2.497 1.42.13v31.935l3.821 1.597v1.019l-13.972 1.718-1.42-.13v-4.194h-.39c-2.591 2.387-6.21 4.454-10.611 4.454-6.791 0-9.902-4.004-9.902-10.076V81.746l-3.86-1.679Zm89.522-3.614 1.16.13v10.314h.319c1.511-7.56 4.851-10.384 8.922-10.384.65 0 1.36.059 1.75.258v10.556c-.65-.19-1.81-.26-2.91-.26-3.23 0-5.611.579-7.701 1.538v20.391l3.22 1.788v1.317h-18.362v-1.308l3.311-1.788v-27.83l-3.881-1.157v-.95l14.172-2.615Z" fill="#fff"/><path d="M709.809 77.595V66.81l-3.882-1.346v-.861L720.224 62l1.36.187v46.321l3.952 1.416v1.197L711.429 113l-1.1-.128v-3.829h-.32c-2.071 2.048-4.922 3.898-9.385 3.898-7.703 0-13.326-5.818-13.326-17.722 0-12.549 6.534-18.713 16.438-18.713 2.832 0 4.973.515 6.073 1.09Zm-.03 29.656V79.565c-.911-.574-1.561-1.287-3.912-1.207-3.822.128-6.182 5.848-6.182 16.02 0 9.154 1.7 14.269 6.792 14.101 1.431-.049 2.591-.554 3.302-1.226v-.002Zm31.464-30.547 1.231.129v32.139l3.231 1.771v1.305h-18.368v-1.296l3.302-1.771V81.908l-3.952-1.534v-1.07l14.556-2.6Zm1.301-8.68c0 3.396-2.911 5.948-6.273 5.948-3.491 0-6.213-2.563-6.213-5.948 0-3.393 2.722-6.016 6.213-6.016 3.362 0 6.273 2.623 6.273 6.017Zm43.23 40.959V81.611l-3.883-1.345V78.94l14.107-2.603 1.421.13v4.096h.39c3.041-2.692 7.574-4.414 12.036-4.414 6.142 0 8.864 2.88 8.864 9.283v23.491l3.291 1.82v1.305h-18.368v-1.296l3.301-1.771V86.075c0-3.522-1.55-4.927-4.462-4.927-1.88 0-3.422.475-4.852 1.523v26.303l3.231 1.771v1.305h-18.378v-1.296l3.302-1.771Zm-20.38-17.199v-4.591c0-6.918-1.52-9.183-5.842-9.183-.511 0-.951.059-1.461.128l-7.693 10.31h-1.081v-9.487c3.302-1.01 7.434-2.198 12.906-2.198 9.404 0 14.876 2.583 14.876 10.371v22.384l3.372.88v.881c-1.33.82-4.001 1.573-6.932 1.573-4.643 0-6.864-1.504-7.884-4.028h-.321c-1.971 2.642-4.762 4.147-9.154 4.147-5.592 0-9.404-3.454-9.404-9.431 0-5.788 3.622-8.925 10.995-10.31l7.623-1.446Zm0 15.467V93.416l-2.35.189c-3.693.317-5.022 2.642-5.022 7.798 0 5.59 1.84 7.045 4.451 7.045 1.461-.01 2.292-.446 2.921-1.197ZM643.629 91.784v-4.591c0-6.918-1.521-9.183-5.852-9.183-.511 0-.952.059-1.462.128l-7.693 10.31h-1.081v-9.487c3.302-1.01 7.434-2.198 12.906-2.198 9.405 0 14.877 2.583 14.877 10.371v22.384l3.371.88v.881c-1.33.82-4.001 1.573-6.932 1.573-4.643 0-6.864-1.504-7.884-4.028h-.32c-1.971 2.642-4.772 4.147-9.154 4.147-5.592 0-9.405-3.454-9.405-9.431 0-5.788 3.622-8.925 10.996-10.31l7.633-1.446Zm0 15.467V93.416l-2.351.189c-3.692.317-5.022 2.642-5.022 7.798 0 5.59 1.84 7.045 4.452 7.045 1.45-.01 2.281-.446 2.921-1.197Z" fill="#fff"/></svg>
