<svg viewBox="0 0 351 227" xmlns="http://www.w3.org/2000/svg" xmlns:xlink="http://www.w3.org/1999/xlink"><defs><path id="0" d="m0 31.6h123v-15.7-15.7h-123v31.4"/><mask id="1" fill="#fff"><use xlink:href="#0"/></mask></defs><g fill="none" fill-rule="evenodd"><path fill="#005689" d="m0 0h351v52h-351z"/><g transform="translate(174 14)"><path d="m4.2 26.8c.1-.8.6-1.8 1.9-1.9h4.5c1.3 0 1.9 1.1 1.9 1.9 0 1.7-1.1 2.3-4.4 2.3-2.9 0-4.1-1.2-4-2.3m6-14.2c0 3-.7 3.4-1.8 3.4-1.2 0-2.1-.4-2.1-3.4 0-3.1.9-3.9 2.1-3.9 1.2 0 1.8 1.1 1.8 3.9m-3.9 7.4c-.6 0-1.3-.4-1.3-1 0-.4.3-.9.7-1.2.8.3 1.6.3 2.6.3 4.1 0 6.9-1.9 6.9-5.5 0-1.6-.7-2.4-1.7-3.4l2.7.7v-3.2l-4.3.8c-1-.4-2.4-.8-3.7-.8-4.1 0-6.9 2.2-6.9 5.7 0 2.2 1.1 3.7 2.6 4.6l.1.1c-.9.6-2.8 2.1-2.8 3.8 0 1.3.8 2.5 2.5 2.9-1.8.4-3.8 1.3-3.8 3.4 0 2.2 3.1 4.2 8.1 4.2 6.2 0 8.7-3 8.7-6.8 0-3.2-1.5-4.7-5-4.7h-5.5m17 4.1c.2 0 .5 0 .7-.1 1.8-.2 3.5-1.1 4.4-2.2v2.2l6.3-.8v-1.1l-1.6-1.1v-14.2h-.5l-6.3 1.2v1.4l2.1.9v9.6c-.6.4-1.3.7-2.2.7-1.3 0-2.5-.4-2.5-2.3v-11.6h-.5l-6.3 1.3v1.4l2.1.8v8.6c0 2.8 1.2 5.1 4.4 5.1m72.8-2.9c-1 0-2.1-.6-2.1-2.4 0-1.3 1.3-2.5 2.5-2.6l1.2-.3v4.5c0 0-1 .8-1.6.8m-1.2-12c2 0 2.8 1.1 2.8 3.1v1.8l-3.2.6c-3.1.6-5.5 1.5-5.5 4.9 0 2.7 1.8 4.6 4.4 4.6 2 0 3.9-.9 4.6-2.3h.2c.3 1.7 1.7 2.3 3.4 2.3 1.3 0 2.5-.3 3-.8v-1.1l-1.5-.8v-9.5c0-3.7-2.7-4.9-7-4.9-2.8 0-4.5.7-6 1.4v4.1h2.5l1.1-3.2c.6-.2 1.2-.2 1.4-.2m-52.9 12c-1 0-2.1-.6-2.1-2.4 0-1.3 1.3-2.5 2.5-2.6l1.2-.3v4.5c0 0-1 .8-1.6.8m-1.2-12c2 0 2.8 1.1 2.8 3.1v1.8l-3.2.6c-3.1.6-5.5 1.5-5.5 4.9 0 2.7 1.8 4.6 4.4 4.6 2 0 3.9-.9 4.6-2.3h.2c.3 1.7 1.7 2.3 3.4 2.3 1.3 0 2.5-.3 3-.8v-1.1l-1.5-.8v-9.5c0-3.7-2.7-4.9-7-4.9-2.8 0-4.5.7-6 1.4v4.1h2.5l1.1-3.2c.6-.2 1.2-.2 1.4-.2m10 .4l1.6.8v11l-1.6.8v1.6h8.9v-1.6l-2.1-.8v-8.6c.9-.7 2.2-1 3.6-1 .5 0 .8.1 1.2.2v-4.7c-.2-.1-.4-.1-.6-.1-1.7 0-3.2 1.2-4.1 3.3v-3.4h-.5l-6.3 1.1v1.6m22-1.8c-.6-.5-1.7-.7-2.6-.7-3.9 0-7.6 2.3-7.6 8.8 0 6.3 3.7 8.3 6.2 8.3 2 0 3.4-.9 4-1.8h.2v1.7h.5l6.2-.7v-1.2l-1.6-.9v-20.8h-.5l-6.6 1.1v1.5l1.9.8v4.1m0 12.8c-.4.3-.9.6-1.7.6-2.1 0-3.1-1.7-3.1-5.7 0-4.6 1.3-6.1 2.9-6.1.9 0 1.5.3 1.8.7v10.5m7.4-12.6v1.5l1.6.8v11l-1.6.8v1.6h8.4v-1.6l-1.6-.8v-14.4h-.5l-6.3 1.1m4.4-7.7c-1.6 0-2.8 1.3-2.8 2.9 0 1.6 1.3 2.8 2.8 2.8 1.5 0 2.8-1.3 2.8-2.8-.1-1.6-1.3-2.9-2.8-2.9m20.3 23.5h8.4v-1.6l-1.6-.8v-10.5c.6-.5 1.5-.6 2.3-.6 1.5 0 1.9.5 1.9 2.2v8.9l-1.6.8v1.6h8.4v-1.6l-1.6-.8v-10c0-3-1.1-4.4-3.7-4.4-2.2 0-4.3.8-5.7 2.1v-2.2h-.5l-6.5 1.2v1.4l1.7.8v11l-1.6.8v1.6" fill="#fff" mask="url(#1)" transform="translate(44)"/><path d="m2.1 19c0 3 1.5 4.9 4.7 4.9 1.6 0 3.3-.4 4.3-1.2v-2c-.4.2-1 .3-1.5.3-1.5 0-2.2-.8-2.2-2.4v-8.7h3.7v-2.6h-3.7v-3.9l-5.3.8v3.2l-2.1.5v2.1h2.1v9.2m17.3 4.5v-1.6l-1.6-.8v-10.3c.6-.5 1.7-.9 2.5-.9 1.5 0 2.3.8 2.2 2.2v8.9l-1.6.8v1.6h8.4v-1.6l-1.6-.8v-10c0-3-1.7-4.4-4-4.4-2.2 0-4.5.7-5.9 2v-8.9h-.5l-6.3 1.1v1.6l2.1.8v17.9l-1.6.8v1.6h7.9m17.3-15c1.3 0 2 .9 2 5l-4.4.4c.1-4.2.9-5.4 2.4-5.4m6.9 7c0-6.8-2.7-8.9-6.8-8.9-4.7 0-7.9 3.3-7.9 8.6 0 5.5 2.9 8.5 8.3 8.5 2.9 0 5.1-1.4 5.9-2.5v-1.6c-1.1.4-2 .6-4 .6-2.9 0-4.9-1.7-4.9-4.8h9.5" fill="#aadce6"/></g><path fill="#fff" d="m0 50h351v177h-351z"/><g fill="#d8d8d8"><path d="m54 58h187v72h-187z"/><path d="m6 58h42v7h-42z"/><path d="m248 58h42v72h-42z"/><path d="m150 136h42v72h-42z"/></g><path fill="#f6a623" d="m248 136h91v72h-91z"/><g fill="#d8d8d8"><path d="m54 136h91v72h-91z"/><path d="m297 58h42v72h-42z"/><path d="m199 136h42v72h-42z"/></g></g></svg>