<svg width="24" height="24" viewBox="0 0 40 40" enable-background="new 0 0 40 40"><g><circle fill="#C1C0C0" cx="20" cy="20" r="20"/></g><path fill="none" stroke="#FFFFFF" stroke-width="1.7007" stroke-linecap="round" stroke-miterlimit="10" d="M17.8,16 c-0.2,0.5-0.3,1.1-0.3,1.7c0,1.9,1.1,2.7,2.5,2.7c2.3,0,2.8-2.5,2.2-4.3c-0.7-1.9-2.4-3.5-4.1-4.5c-0.7-0.4-1.7-0.9-3.2-0.9l0,0 c-3.2,0-6.1,2.3-6.9,5.5C7.2,19,8.4,21.7,10,23.8c2.5,3.3,6.1,5.9,9.7,7.9c0.3,0.2,2.6-1.7,2.9-1.9c2.2-1.6,4.4-3.4,6.1-5.6 c1.6-2.1,3-4.7,2.5-7.4c-0.5-3.4-3.5-6-7-6l0,0c-1.9,0-3.2,0.9-3.2,0.9c-0.4,0.2-0.9,0.6-1.4,1"/></svg>