<svg width="20" height="20" viewBox="0 0 43 43" enable-background="new 0 0 43 43"><circle fill="none" stroke="#FFFFFF" stroke-width="3" stroke-linecap="round" stroke-linejoin="round" stroke-miterlimit="10" cx="21.5" cy="21.5" r="20"/><g><path fill="none" stroke="#FFFFFF" stroke-width="2.6" stroke-linecap="round" stroke-miterlimit="10" d="M18.9,31.5"/></g><path fill="none" stroke="#FFFFFF" stroke-width="2.6" stroke-linecap="round" stroke-miterlimit="10" d="M14,11.2 c1.8,0,3.6,1.9,3.6,4.8c0,7.8-8,14.1-13.6,15.3"/><path fill="none" stroke="#FFFFFF" stroke-width="2.6" stroke-linecap="round" stroke-miterlimit="10" d="M14,11.2 c-1.8,0-3.6,1.9-3.6,4.8c0,8.7,11.1,11.5,11.1,11.5"/><path fill="none" stroke="#FFFFFF" stroke-width="2.6" stroke-linecap="round" stroke-miterlimit="10" d="M29,11.2 c-1.8,0-3.6,1.9-3.6,4.8c0,7.8,8,14.1,13.6,15.3"/><path fill="none" stroke="#FFFFFF" stroke-width="2.6" stroke-linecap="round" stroke-miterlimit="10" d="M29,11.2 c1.8,0,3.6,1.9,3.6,4.8c0,8.7-11.1,11.5-11.1,11.5"/><g><g><path fill="none" stroke="#FFFFFF" stroke-width="2.6" stroke-linecap="round" stroke-miterlimit="10" d="M18.8,32.5 c0,1.7,1.2,3,2.7,3s2.7-1.3,2.7-3c0-1.1-0.1-3.7-2.7-4.8"/></g></g></svg>