<svg width="20" height="20" viewBox="0 0 43 43" enable-background="new 0 0 43 43"><g><path fill="#FFFFFF" d="M11.5,19.5v1.9v1.7v4.9c0,1,0,2.2,1.2,3c0.8,0.5,1.5,0.6,3.5,0.6c0.5,0,10,0,10.6,0c2,0,2.7-0.1,3.5-0.6 c1.2-0.8,1.2-2,1.2-3v-4.9v-1.7v-1.9H11.5z M28.5,28.5l-14,0l0-6h14L28.5,28.5z"/><path fill="none" stroke="#FFFFFF" stroke-width="3" stroke-linecap="round" stroke-linejoin="round" stroke-miterlimit="10" d="M21.6,11.5h-0.2c-3.3,0-5.9,2.7-5.9,6v2.9"/><path fill="none" stroke="#FFFFFF" stroke-width="3" stroke-linecap="round" stroke-linejoin="round" stroke-miterlimit="10" d="M21.5,11.5h0.2c3.3,0,5.9,2.7,5.9,6v2.9"/></g><circle fill="none" stroke="#FFFFFF" stroke-width="3" stroke-linecap="round" stroke-linejoin="round" stroke-miterlimit="10" cx="21.5" cy="21.5" r="20"/></svg>