<svg xmlns="http://www.w3.org/2000/svg" viewBox="0 0 25.886 14.323"><g fill-rule="evenodd"><path d="m18.5 11.4c1.3-.9 1.6-1.9 1.7-3.1 0-.2 0-.5 0-.7.1-.3.3-.7.4-1 .4.3.9.6 1 1 .3.6.2 1.4.5 2 .2.5.6 1 .9 1.5.4-.5.9-.9 1.1-1.5.6-1.4.4-2.8.1-4.3-.1-.5-.1-1-.2-1.7 1.2.7 1.6 1.6 1.7 2.6.1 1.1.1 2.3 0 3.4-.1 1.1-.6 2.2-1.8 2.5-1.2.3-2.1-.1-2.6-1.1-.9.5-1.6 1.1-2.5 1.3-1.1.2-1.5-.8-1.9-1.7-.5.3-1.1.6-1.6.9-.9.5-2 .9-2.9.1-.9-.8-1.3-1.8-.9-3 .2-.8.4-1.6.8-2.3.4-.9 1.3-1.2 2.2-.9.9.3 1.2 1 1 2-.2 1-.8 1.8-1.8 2.3-.3.2-.5.6-.7.9.4.1.9.3 1.3.2 1.7-.7 3-1.9 3.2-3.9 0-.4.1-.9.3-1.3.2-.3.7-.4 1-.5.1.3.4.6.4.9-.2 1.1-.6 2.1-.8 3.2-.1.6.1 1.2.1 2.1m-5.6-3.1l.5.2.9-1.9c-.2-.1-.3-.2-.5-.2l-.9 1.9m-10.8-2.1c-.2 2.2-.3 4.1-.5 6 0 .4 0 .9-.2 1.3-.2.3-.6.6-.9.9-.2-.4-.6-.8-.6-1.2.1-1.4.3-2.9.4-4.3.3-2.4.5-4.9.8-7.3 0-.4.3-.7.5-1.1.4.3 1 .5 1.2.8.3 1 .5 2.1.7 3.1.2 2.5 1.2 4.7 2.8 6.5.3.3 1 .7 1.3.6.3-.1.7-.8.7-1.2-.1-1.7-.2-3.5-.4-5.2-.2-1.3-.5-2.6-.7-3.9 0-.4.2-.8.3-1.1.3.3.9.5.9.9.4 2 .8 4 1.1 6.1.2 1.1.2 2.3.2 3.4 0 1-.4 1.8-1.4 2.1-1 .3-1.8.1-2.5-.7-1.4-1.5-2.7-3.1-3.3-5.1 0-.1-.1-.2-.4-.6"/></g></svg>