<svg xmlns="http://www.w3.org/2000/svg" width="72px" viewBox="0 0 46.8 47.913" enable-background="new 0 0 46.8 47.913"><g fill="#fff"><path d="m7.7 7.3h.9l1.1 3.8h-.8l-.1-.4c0-.1-.1-.3-.1-.4h-1.2c0 .1 0 .3-.1.4l-.1.4h-.7l1.1-3.8m0 2.4h.9c0-.1-.1-.3-.1-.4l-.1-.4c-.1-.4-.2-.9-.2-.9-.1 0-.1.5-.2.9l-.1.4c0 .1-.1.3-.1.4"/><path d="m10 9.8v-.2c0-1 .4-1.4 1.1-1.4.3 0 .5.1.6.2.1 0 0-.4 0-.5v-.7h.8v3.9h-.6v-.3c-.2.2-.5.4-.8.4-.5 0-1-.4-1-1.3m1.7.6v-1.5c-.1-.1-.2-.1-.4-.1-.3 0-.5.1-.5.8v.2c0 .7.2.8.5.8.2 0 .3-.1.4-.2"/><path d="m13 8.2h.8l.3 1.2c.1.5.2 1.2.2 1.2.1 0 .1-.7.2-1.2l.3-1.2h.7l-.8 2.8h-.9l-.8-2.8"/><path d="m15.9 9.7v-.2c0-.8.5-1.4 1.2-1.4.8 0 1.1.5 1.1 1.3v.3h-1.5c0 .6.3.7.7.7.3 0 .6-.1.8-.2v.5c-.2.1-.5.2-.9.2-.8 0-1.3-.5-1.3-1.4m.7-.3c.1 0 .3-.1.5-.1h.4c0-.5-.1-.7-.4-.7-.3 0-.5.2-.5.8"/><path d="m18.7 8.2h.7v.4c.2-.3.6-.5.9-.4v.7c-.3 0-.6.1-.8.2v2h-.8v-2.8"/><path d="m21 10.3v-1c0-.2 0-.4 0-.4h-.4v-.6h.4c0 0 0-.3 0-.4v-.5h.8v.5c0 .1 0 .4 0 .4h.6v.6h-.6c0 0 0 .2 0 .4v.9c0 .2.1.3.3.3.1 0 .2 0 .3 0v.5c-.1.1-.3.1-.6.1-.5 0-.8-.2-.8-.8"/><path d="m23 7.2h.8v.6h-.8v-.6m0 1h.8v2.8h-.8v-2.8"/><path d="m24.4 11v-.6c.2.1.4.2.7.2.3 0 .4-.1.4-.3 0-.2-.1-.2-.3-.3h-.3c-.4-.1-.6-.4-.6-.8 0-.6.4-.9 1-.9.3 0 .6 0 .8.1v.5c-.2-.1-.4-.1-.7-.1-.3 0-.4.1-.4.3 0 .2.1.2.3.3h.3c.5.1.7.4.7.9 0 .6-.4.9-1.1.9-.3 0-.6-.1-.8-.2"/><path d="m26.7 9.7v-.2c0-.8.5-1.4 1.2-1.4.8 0 1.1.5 1.1 1.3v.3h-1.5c0 .6.2.7.7.7.3 0 .6-.1.8-.2v.5c-.2.1-.5.2-.9.2-.8 0-1.3-.5-1.3-1.4m.7-.3c.1 0 .3-.1.5-.1h.4c0-.5-.1-.7-.4-.7-.3 0-.5.2-.5.8"/><path d="m29.6 8.2h.7v.3c.3-.2.6-.4.9-.4.3 0 .5.1.6.4.3-.3.6-.4 1-.4.5 0 .7.2.7.8v2.1h-.8v-1.9c0-.3-.1-.4-.3-.4-.2 0-.3.1-.5.2 0 0 0 .1 0 .1v2h-.8v-1.9c0-.3-.1-.4-.3-.4-.2 0-.3.1-.4.2v2.1h-.8v-2.8"/><path d="m34 9.7v-.2c0-.8.5-1.4 1.2-1.4.8 0 1.1.5 1.1 1.3v.3h-1.5c0 .6.2.7.7.7.3 0 .6-.1.8-.2v.5c-.2.1-.5.2-.9.2-.8 0-1.3-.5-1.3-1.4m.7-.3c.1 0 .3-.1.5-.1h.4c0-.5-.1-.7-.4-.7-.3 0-.5.2-.5.8"/><path d="m36.9 8.2h.7v.3c.3-.2.5-.4.9-.4.5 0 .7.3.7.8v2.1h-.8v-1.9c0-.3-.1-.4-.3-.4-.2 0-.4.1-.5.2v2.1h-.8v-2.8"/><path d="m40 10.3v-1c0-.2 0-.4 0-.4h-.4v-.6h.4c0 0 0-.3 0-.4v-.5h.8v.5c0 .1 0 .4 0 .4h.6v.6h-.6c0 0 0 .2 0 .4v.9c0 .2.1.3.3.3.1 0 .2 0 .3 0v.5c-.1.1-.3.1-.6.1-.5 0-.8-.2-.8-.8"/><path d="m5.9 22h35.8v3.3h-35.8z"/><path d="m5.9 27.7h18.7v3.3h-18.7z"/><path d="m27.9 27.7h8.4v3.3h-8.4z"/><path d="m5.9 33h13.3v3.3h-13.3z"/><path d="m0 17v30.9h46.8v-30.9h-46.8m44.8 28.4h-42.7v-25.9h42.7v25.9"/><path d="m0 3.1v12.3h46.8v-12.3h-46.8m44.8 9.8h-42.7v-7.3h42.7v7.3"/></g><path fill="#28578b" d="m22.8 8.9l-7.1-7.8 1.2-1.1 7.7 7.1 7.8-7.1 1.1 1.1-7.1 7.8 7.1 7.7-1 1-7.9-6.9-7.8 7.1-1.2-1.2 7.1-7.7"/></svg>
