<svg version="1.1" id="Layer_1" xmlns="http://www.w3.org/2000/svg" xmlns:xlink="http://www.w3.org/1999/xlink" x="0px" y="0px" width="85px" height="85px" viewBox="0 0 85 85" enable-background="new 0 0 85 85" xml:space="preserve"><g><g><circle fill="#53C1DA" cx="42.5" cy="42.5" r="40.339"/><g><g><path fill="#FFFFFF" d="M26.85,25.545h0.928l1.093,3.765h-0.845l-0.119-0.415c-0.036-0.121-0.057-0.272-0.07-0.404H26.68c-0.02,0.132-0.039,0.281-0.076,0.397l-0.111,0.422h-0.748L26.85,25.545z M26.819,27.953h0.884c-0.048-0.122-0.099-0.271-0.13-0.396l-0.12-0.44c-0.091-0.363-0.16-0.914-0.16-0.914h-0.057c0,0-0.057,0.551-0.162,0.914l-0.122,0.44C26.922,27.682,26.864,27.831,26.819,27.953z"/><path fill="#FFFFFF" d="M29.211,28.052v-0.217c0-1.031,0.451-1.429,1.061-1.429c0.328,0,0.479,0.105,0.609,0.229h0.064c0,0-0.064-0.369-0.064-0.542v-0.692h0.783v3.908h-0.595l-0.064-0.3h-0.059c-0.188,0.236-0.436,0.369-0.717,0.369C29.684,29.379,29.211,28.986,29.211,28.052z M30.891,28.649v-1.528c-0.094-0.079-0.201-0.132-0.373-0.132c-0.324,0-0.504,0.147-0.504,0.784v0.217c0,0.673,0.207,0.818,0.48,0.818C30.694,28.808,30.797,28.731,30.891,28.649z"/><path fill="#FFFFFF" d="M32.151,26.461h0.804l0.309,1.244c0.111,0.451,0.166,1.151,0.166,1.151h0.062c0,0,0.053-0.7,0.16-1.151l0.307-1.244h0.736L33.87,29.31h-0.895L32.151,26.461z"/><path fill="#FFFFFF" d="M35.002,27.977v-0.187c0-0.827,0.467-1.384,1.219-1.384c0.801,0,1.074,0.518,1.074,1.315v0.339h-1.549c0.032,0.577,0.252,0.747,0.704,0.747c0.314,0,0.572-0.07,0.787-0.17v0.491c-0.178,0.124-0.455,0.246-0.934,0.246C35.518,29.375,35.002,28.895,35.002,27.977z M35.746,27.715c0.118-0.025,0.291-0.065,0.497-0.065h0.354c0-0.48-0.09-0.735-0.375-0.735C35.946,26.915,35.754,27.121,35.746,27.715z"/><path fill="#FFFFFF" d="M37.893,26.461h0.74v0.414h0.045c0.199-0.286,0.521-0.454,0.818-0.449v0.703c-0.263-0.013-0.595,0.053-0.818,0.184v1.997h-0.785V26.461z"/><path fill="#FFFFFF" d="M40.241,28.556v-0.971c0-0.15,0.025-0.395,0.025-0.395h-0.391v-0.555h0.391c0,0-0.025-0.255-0.025-0.403v-0.478h0.781v0.478c0,0.148-0.031,0.403-0.031,0.403h0.605v0.555h-0.605c0,0,0.031,0.244,0.031,0.395v0.87c0,0.235,0.074,0.316,0.32,0.316c0.098,0,0.205-0.028,0.281-0.045v0.5c-0.111,0.053-0.326,0.129-0.578,0.129C40.512,29.356,40.241,29.141,40.241,28.556z"/><path fill="#FFFFFF" d="M42.141,25.417h0.818v0.614h-0.818V25.417z M42.155,26.461h0.789v2.849h-0.789V26.461z"/><path fill="#FFFFFF" d="M43.534,29.205v-0.553c0.205,0.092,0.412,0.156,0.727,0.156c0.301,0,0.447-0.093,0.447-0.287c0-0.175-0.084-0.244-0.316-0.325l-0.279-0.084c-0.373-0.115-0.592-0.354-0.592-0.819c0-0.577,0.352-0.886,1.004-0.886c0.305,0,0.551,0.037,0.752,0.133v0.546c-0.15-0.078-0.412-0.122-0.688-0.122c-0.264,0-0.371,0.091-0.371,0.259c0,0.18,0.113,0.234,0.283,0.292l0.283,0.084c0.488,0.148,0.656,0.392,0.656,0.865c0,0.598-0.365,0.916-1.109,0.916C44.05,29.379,43.735,29.318,43.534,29.205z"/><path fill="#FFFFFF" d="M45.853,27.977v-0.187c0-0.827,0.463-1.384,1.217-1.384c0.799,0,1.074,0.518,1.074,1.315v0.339h-1.543c0.025,0.577,0.248,0.747,0.695,0.747c0.311,0,0.572-0.07,0.791-0.17v0.491c-0.184,0.124-0.459,0.246-0.936,0.246C46.366,29.375,45.853,28.895,45.853,27.977z M46.601,27.715c0.109-0.025,0.285-0.065,0.488-0.065h0.357c0-0.48-0.096-0.735-0.377-0.735C46.792,26.915,46.603,27.121,46.601,27.715z"/><path fill="#FFFFFF" d="M48.743,26.461h0.734v0.332h0.053c0.246-0.232,0.508-0.387,0.834-0.387c0.312,0,0.512,0.112,0.619,0.417h0.062c0.242-0.251,0.547-0.417,0.889-0.417c0.455,0,0.727,0.249,0.727,0.834v2.069h-0.787v-1.884c0-0.324-0.086-0.407-0.328-0.407c-0.156,0-0.334,0.095-0.453,0.179c0,0.014,0.008,0.051,0.008,0.134v1.979H50.31v-1.884c0-0.324-0.102-0.407-0.336-0.407c-0.164,0-0.312,0.079-0.443,0.175v2.116h-0.787V26.461z"/><path fill="#FFFFFF" d="M53.21,27.977v-0.187c0-0.827,0.463-1.384,1.215-1.384c0.803,0,1.072,0.518,1.072,1.315v0.339h-1.543c0.025,0.577,0.246,0.747,0.703,0.747c0.309,0,0.57-0.07,0.785-0.17v0.491c-0.176,0.124-0.453,0.246-0.934,0.246C53.724,29.375,53.21,28.895,53.21,27.977z M53.954,27.715c0.115-0.025,0.287-0.065,0.494-0.065h0.354c0-0.48-0.094-0.735-0.377-0.735C54.149,26.915,53.958,27.121,53.954,27.715z"/><path fill="#FFFFFF" d="M56.097,26.461h0.742v0.343h0.047c0.227-0.215,0.488-0.397,0.852-0.397c0.457,0,0.727,0.254,0.727,0.808v2.096h-0.799v-1.906c0-0.268-0.057-0.38-0.305-0.38c-0.176,0-0.354,0.09-0.475,0.17v2.116h-0.789V26.461z"/><path fill="#FFFFFF" d="M59.282,28.556v-0.971c0-0.15,0.029-0.395,0.029-0.395h-0.393v-0.555h0.393c0,0-0.029-0.255-0.029-0.403v-0.478h0.785v0.478c0,0.148-0.031,0.403-0.031,0.403h0.605v0.555h-0.605c0,0,0.031,0.244,0.031,0.395v0.87c0,0.235,0.074,0.316,0.32,0.316c0.098,0,0.205-0.028,0.281-0.045v0.5c-0.113,0.053-0.322,0.129-0.574,0.129C59.556,29.356,59.282,29.141,59.282,28.556z"/></g><g id="Rectangle_2_19_"><g><rect x="25.067" y="40.463" fill="#FFFFFF" width="35.834" height="3.253"/></g></g><g id="Rectangle_2_copy_19_"><g><rect x="25.067" y="45.892" fill="#FFFFFF" width="18.733" height="3.26"/></g></g><g id="Rectangle_2_copy_3_8_"><g><rect x="47.06" y="45.892" fill="#FFFFFF" width="8.414" height="3.26"/></g></g><g id="Rectangle_2_copy_2_19_"><g><rect x="25.067" y="51.32" fill="#FFFFFF" width="13.304" height="3.259"/></g></g><path fill="#FFFFFF" d="M19.151,35.238v30.904h46.801V35.238H19.151z M63.909,63.642H21.196V37.738h42.713V63.642z"/><path fill="#FFFFFF" d="M19.151,21.291V33.57h46.801V21.291H19.151z M63.909,31.068H21.196v-7.276h42.713V31.068z"/><g><path fill="#28578B" d="M41.977,27.129l-7.098-7.792l1.154-1.106l7.745,7.098l7.791-7.098l1.148,1.106l-7.1,7.792l7.1,7.743l-0.969,0.967l-7.926-6.916l-7.79,7.102l-1.154-1.152L41.977,27.129z"/></g></g></g></g></svg>