<svg xmlns="http://www.w3.org/2000/svg" width="100px" viewBox="0 0 65 65"><circle fill="#bdbcbc" cx="32.5" cy="32.5" r="31.5"/><g fill="#00578a"><path d="m33 17.5l-1.5.7c.3 9.4-12 16.6-12 16.6l3.2 7.1 1.6-.6 1.5 8.4s6 .2 6.5-.7c0 0 .5-1 .3-1.7-.2-.8-1-.5-1.2-1.3-.2-.8.5-1 .3-1.7-.2-.8-1-.5-1.2-1.3-.2-.8.5-1 .3-1.7-.1-.2-.3-.7-.6-1.2 4.8-.9 8.1-2.1 11.4.7l1.5-.7m-26.5-3.2c-.3.8.1 2.2.5 3.3s1.2 2.3 2 2.6c.8.3 2-.9 2-.9l-2.6-5.8s-1.6 0-1.9.9zm31.4.9c-.3.8-3.7 1.7-3.7 1.7l-10.3-22.4s2.9-2 3.7-1.7c.4.2 3.4 5.4 5.9 10.9 2.5 5.5 4.5 11.2 4.4 11.6"/></g></svg>
