<svg xmlns="http://www.w3.org/2000/svg" viewBox="0 0 85 85"><circle fill="#53c1da" cx="42.5" cy="42.5" r="40"/><g fill="#fff"><path d="m26.9 25.5h.9l1.1 3.8h-.8l-.1-.4c0-.1-.1-.3-.1-.4h-1.2c0 .1 0 .3-.1.4l-.1.4h-.8l1.1-3.8m0 2.4h.9c0-.1-.1-.3-.1-.4l-.1-.4c-.1-.4-.2-.9-.2-.9s-.1.6-.2.9l-.1.4c0 .1-.1.3-.1.4m2.4.1v-.2c0-1 .5-1.4 1.1-1.4.3 0 .5.1.6.2s0-.4 0-.5v-.7h.8v3.9h-.6v-.3c-.2.2-.5.4-.8.4-.5 0-1-.4-1-1.3m1.7.6v-1.5c-.1-.1-.2-.1-.4-.1-.3 0-.5.1-.5.8v.2c0 .7.2.8.5.8.2 0 .3-.1.4-.2m1.3-2.2h.8l.3 1.2c.1.4.2 1.1.2 1.1s.1-.7.2-1.1l.3-1.2h.7l-.8 2.9h-.9l-.8-2.9m2.9 1.5v-.2c0-.8.5-1.4 1.2-1.4.8 0 1.1.5 1.1 1.3v.3h-1.5c0 .6.3.7.7.7.3 0 .6-.1.8-.2v.5c-.2.1-.5.2-.9.2-.8 0-1.3-.5-1.3-1.4m.7-.3c.1 0 .3-.1.5-.1h.4c0-.5-.1-.7-.4-.7-.3 0-.5.2-.5.8m2.1-1.3h.7v.4c.2-.3.6-.5.9-.4v.7c-.3 0-.6.1-.8.2v2h-.8v-2.9m2.3 2.1v-1c0-.1 0-.4 0-.4h-.4v-.6h.4s0-.3 0-.4v-.5h.8v.5c0 .1 0 .4 0 .4h.6v.6h-.6s0 .2 0 .4v.9c0 .2.1.3.3.3.1 0 .2 0 .3 0v.5c-.1.1-.3.1-.6.1-.5 0-.8-.2-.8-.8m1.9-3.1h.8v.6h-.8v-.6m0 1h.8v2.9h-.8v-2.9m1.4 2.7v-.6c.2.1.4.2.7.2.3 0 .4-.1.4-.3 0-.2-.1-.2-.3-.3h-.3c-.4-.1-.6-.4-.6-.8 0-.6.4-.9 1-.9.3 0 .5 0 .8.1v.5c-.1-.1-.4-.1-.7-.1-.3 0-.4.1-.4.3 0 .2.1.2.3.3h.3c.5.1.7.4.7.9 0 .6-.4.9-1.1.9-.3 0-.6-.1-.8-.2m2.3-1.2v-.2c0-.8.5-1.4 1.2-1.4.8 0 1.1.5 1.1 1.3v.3h-1.5c0 .6.3.7.7.7.3 0 .6-.1.8-.2v.5c-.2.1-.5.2-.9.2-.8 0-1.3-.5-1.3-1.4m.7-.3c.1 0 .3-.1.5-.1h.4c0-.5-.1-.7-.4-.7-.3 0-.5.2-.5.8m2.1-1.3h.7v.3c.3-.2.6-.4.9-.4.3 0 .5.1.6.4.3-.3.6-.4 1-.4.5 0 .7.3.7.8v2.1h-.8v-1.9c0-.3-.1-.4-.3-.4-.2 0-.3.1-.5.2 0 0 0 .1 0 .1v2h-.8v-1.9c0-.3-.1-.4-.3-.4-.2 0-.3.1-.4.2v2.1h-.8v-2.9m4.5 1.5v-.2c0-.8.5-1.4 1.2-1.4.8 0 1.1.5 1.1 1.3v.3h-1.5c0 .6.2.7.7.7.3 0 .6-.1.8-.2v.5c-.2.1-.5.2-.9.2-.8 0-1.3-.5-1.3-1.4m.7-.3c.1 0 .3-.1.5-.1h.4c0-.5-.1-.7-.4-.7-.3 0-.5.2-.5.8m2.1-1.3h.7v.3c.3-.2.5-.4.9-.4.5 0 .7.3.7.8v2.1h-.8v-1.9c0-.3-.1-.4-.3-.4-.2 0-.4.1-.5.2v2.1h-.8v-2.9m3.2 2.1v-1c0-.1 0-.4 0-.4h-.4v-.6h.4s0-.3 0-.4v-.5h.8v.5c0 .1 0 .4 0 .4h.6v.6h-.6s0 .2 0 .4v.9c0 .2.1.3.3.3.1 0 .2 0 .3 0v.5c-.1.1-.3.1-.6.1-.5 0-.8-.2-.8-.8"/></g><g fill="#fff"><path d="m25 40.5h35.8v3.3h-35.8zm0 5.4h18.7v3.3h-18.7zm22 0h8.4v3.3h-8.4zm-22 5.4h13.3v3.3h-13.3z"/><path d="m19 35v30.9h46.8v-30.9h-46.8m44.8 28.4h-42.7v-25.9h42.7v25.9m-44.8-42v12.3h46.8v-12.3h-46.8m44.8 9.8h-42.7v-7.3h42.7v7.3"/></g><path fill="#28578b" d="m42 27l-7.1-7.8 1.2-1.1 7.7 7.1 7.8-7.1 1.1 1.1-7.1 7.8 7.1 7.7-1 1-7.9-6.9-7.8 7.1-1.2-1.2 7.1-7.7"/></svg>