<svg version="1.1" id="Layer_1" xmlns="http://www.w3.org/2000/svg" xmlns:xlink="http://www.w3.org/1999/xlink" x="0px" y="0px" width="25.886px" height="14.323px" viewBox="0 0 25.886 14.323" enable-background="new 0 0 25.886 14.323" xml:space="preserve"><g><path fill-rule="evenodd" clip-rule="evenodd" d="M18.526,11.382c1.344-0.891,1.602-1.939,1.726-3.053 c0.026-0.239-0.048-0.5,0.019-0.721c0.103-0.344,0.287-0.663,0.436-0.992c0.357,0.324,0.861,0.584,1.035,0.986 c0.267,0.617,0.229,1.361,0.463,1.998c0.199,0.541,0.6,1.01,0.91,1.512c0.379-0.492,0.873-0.934,1.111-1.486 c0.597-1.387,0.418-2.831,0.107-4.268c-0.105-0.485-0.122-0.989-0.201-1.669c1.194,0.663,1.603,1.608,1.693,2.637 c0.1,1.12,0.07,2.265-0.04,3.388c-0.112,1.145-0.589,2.166-1.814,2.525c-1.175,0.346-2.097-0.086-2.589-1.086 c-0.883,0.482-1.624,1.123-2.458,1.283c-1.067,0.207-1.468-0.805-1.892-1.742c-0.545,0.318-1.055,0.641-1.585,0.918 c-0.949,0.498-1.988,0.873-2.903,0.104c-0.91-0.766-1.298-1.828-0.914-3.047c0.248-0.785,0.448-1.594,0.783-2.34 c0.405-0.904,1.25-1.199,2.158-0.879c0.859,0.305,1.246,0.998,1.008,1.988c-0.241,1.012-0.793,1.797-1.766,2.295 c-0.306,0.156-0.469,0.594-0.698,0.902c0.429,0.078,0.94,0.348,1.271,0.203c1.683-0.736,2.948-1.871,3.157-3.854 c0.047-0.443,0.074-0.946,0.305-1.292c0.188-0.281,0.666-0.367,1.016-0.541c0.131,0.305,0.417,0.643,0.361,0.908 c-0.223,1.075-0.619,2.116-0.814,3.194C18.303,9.851,18.468,10.495,18.526,11.382z M12.958,8.263 c0.166,0.072,0.333,0.146,0.499,0.219c0.289-0.621,0.577-1.243,0.866-1.865c-0.166-0.076-0.333-0.152-0.5-0.229 C13.535,7.013,13.246,7.638,12.958,8.263z"/><path fill-rule="evenodd" clip-rule="evenodd" d="M2.192,6.144c-0.183,2.197-0.338,4.105-0.504,6.014 c-0.038,0.441-0.019,0.926-0.202,1.307c-0.166,0.344-0.571,0.576-0.871,0.859C0.399,13.927-0.015,13.522,0,13.136 c0.058-1.443,0.251-2.879,0.404-4.318c0.258-2.43,0.506-4.861,0.804-7.285c0.048-0.389,0.337-0.746,0.515-1.117 c0.4,0.266,1.033,0.453,1.155,0.814c0.337,0.997,0.55,2.059,0.652,3.109c0.244,2.491,1.163,4.67,2.845,6.506 c0.311,0.338,0.95,0.729,1.264,0.615c0.349-0.127,0.714-0.809,0.7-1.236C8.28,8.476,8.13,6.729,7.912,4.994 C7.75,3.7,7.394,2.431,7.21,1.139C7.159,0.782,7.412,0.382,7.524,0c0.321,0.293,0.853,0.54,0.927,0.887 c0.434,2.017,0.803,4.05,1.104,6.09c0.165,1.12,0.175,2.263,0.209,3.397c0.029,0.992-0.396,1.762-1.36,2.098 c-0.964,0.336-1.84,0.113-2.54-0.652c-1.379-1.506-2.685-3.064-3.258-5.09C2.572,6.61,2.459,6.515,2.192,6.144z"/></g></svg>