<svg version="1.1" id="Layer_1" xmlns="http://www.w3.org/2000/svg" xmlns:xlink="http://www.w3.org/1999/xlink" x="0px" y="0px" width="80.676px" height="80.676px" viewBox="0 0 80.676 80.676" enable-background="new 0 0 80.676 80.676" xml:space="preserve"><g><circle fill="#7C95A9" cx="40.338" cy="40.338" r="40.338"/><g><g><path fill="#FFFFFF" d="M24.637,23.697h0.928l1.093,3.764h-0.845l-0.119-0.414c-0.036-0.121-0.057-0.273-0.07-0.404h-1.156	c-0.02,0.131-0.039,0.281-0.076,0.396l-0.111,0.422h-0.748L24.637,23.697z M24.606,26.104h0.884 c-0.048-0.121-0.099-0.27-0.13-0.395l-0.12-0.441c-0.091-0.363-0.16-0.914-0.16-0.914h-0.057c0,0-0.057,0.551-0.162,0.914 l-0.122,0.441C24.709,25.834,24.651,25.982,24.606,26.104z"/><path fill="#FFFFFF" d="M26.999,26.203v-0.217c0-1.031,0.451-1.428,1.061-1.428c0.328,0,0.479,0.105,0.609,0.229h0.064 c0,0-0.064-0.369-0.064-0.541v-0.693h0.783v3.908h-0.595l-0.064-0.299h-0.059c-0.188,0.236-0.436,0.369-0.717,0.369 C27.471,27.531,26.999,27.137,26.999,26.203z M28.678,26.801v-1.529c-0.094-0.078-0.201-0.131-0.373-0.131 c-0.324,0-0.504,0.146-0.504,0.783v0.217c0,0.674,0.207,0.818,0.48,0.818C28.481,26.959,28.584,26.883,28.678,26.801z"/><path fill="#FFFFFF" d="M29.938,24.613h0.804l0.309,1.244c0.111,0.451,0.166,1.15,0.166,1.15h0.062c0,0,0.053-0.699,0.16-1.15	l0.307-1.244h0.736l-0.826,2.848h-0.895L29.938,24.613z"/><path fill="#FFFFFF" d="M32.79,26.129v-0.188c0-0.826,0.467-1.383,1.219-1.383c0.801,0,1.074,0.518,1.074,1.314v0.34h-1.549 c0.032,0.576,0.252,0.746,0.704,0.746c0.314,0,0.572-0.07,0.787-0.17v0.492c-0.178,0.123-0.455,0.246-0.934,0.246 C33.305,27.527,32.79,27.047,32.79,26.129z M33.533,25.867c0.118-0.025,0.291-0.066,0.497-0.066h0.354 c0-0.48-0.09-0.734-0.375-0.734C33.733,25.066,33.542,25.271,33.533,25.867z"/><path fill="#FFFFFF" d="M35.68,24.613h0.74v0.414h0.045c0.199-0.287,0.521-0.455,0.818-0.449v0.703 c-0.263-0.014-0.595,0.053-0.818,0.184v1.996H35.68V24.613z"/><path fill="#FFFFFF" d="M38.028,26.707v-0.971c0-0.15,0.025-0.395,0.025-0.395h-0.391v-0.555h0.391c0,0-0.025-0.254-0.025-0.402 v-0.479h0.781v0.479c0,0.148-0.031,0.402-0.031,0.402h0.605v0.555h-0.605c0,0,0.031,0.244,0.031,0.395v0.871 c0,0.234,0.074,0.316,0.32,0.316c0.098,0,0.205-0.029,0.281-0.045v0.5c-0.111,0.053-0.326,0.129-0.578,0.129 C38.299,27.508,38.028,27.293,38.028,26.707z"/><path fill="#FFFFFF" d="M39.928,23.568h0.818v0.613h-0.818V23.568z M39.942,24.613h0.789v2.848h-0.789V24.613z"/><path fill="#FFFFFF" d="M41.321,27.355v-0.553c0.205,0.092,0.412,0.156,0.727,0.156c0.301,0,0.446-0.092,0.446-0.287	c0-0.174-0.084-0.244-0.315-0.324l-0.279-0.084c-0.373-0.115-0.592-0.355-0.592-0.82c0-0.576,0.351-0.885,1.004-0.885 c0.304,0,0.551,0.037,0.752,0.133v0.545c-0.15-0.078-0.412-0.121-0.688-0.121c-0.264,0-0.371,0.09-0.371,0.258 c0,0.18,0.113,0.234,0.283,0.293l0.283,0.084c0.488,0.148,0.656,0.391,0.656,0.865c0,0.598-0.365,0.916-1.109,0.916 C41.836,27.531,41.522,27.469,41.321,27.355z"/><path fill="#FFFFFF" d="M43.639,26.129v-0.188c0-0.826,0.463-1.383,1.217-1.383c0.799,0,1.074,0.518,1.074,1.314v0.34h-1.543 c0.025,0.576,0.248,0.746,0.695,0.746c0.311,0,0.572-0.07,0.791-0.17v0.492c-0.184,0.123-0.459,0.246-0.936,0.246 C44.153,27.527,43.639,27.047,43.639,26.129z M44.387,25.867c0.109-0.025,0.285-0.066,0.488-0.066h0.357	c0-0.48-0.096-0.734-0.377-0.734C44.579,25.066,44.389,25.271,44.387,25.867z"/><path fill="#FFFFFF" d="M46.53,24.613h0.734v0.332h0.053c0.246-0.232,0.507-0.387,0.834-0.387c0.312,0,0.512,0.111,0.619,0.416 h0.062c0.241-0.25,0.547-0.416,0.889-0.416c0.455,0,0.727,0.248,0.727,0.834v2.068H49.66v-1.883c0-0.324-0.086-0.408-0.327-0.408 c-0.156,0-0.334,0.096-0.453,0.18c0,0.014,0.008,0.051,0.008,0.133v1.979h-0.791v-1.883c0-0.324-0.103-0.408-0.336-0.408 c-0.164,0-0.312,0.08-0.443,0.176v2.115H46.53V24.613z"/><path fill="#FFFFFF" d="M50.997,26.129v-0.188c0-0.826,0.463-1.383,1.215-1.383c0.803,0,1.071,0.518,1.071,1.314v0.34H51.74 c0.026,0.576,0.247,0.746,0.704,0.746c0.309,0,0.57-0.07,0.785-0.17v0.492c-0.176,0.123-0.453,0.246-0.934,0.246	C51.51,27.527,50.997,27.047,50.997,26.129z M51.74,25.867c0.116-0.025,0.288-0.066,0.495-0.066h0.354 c0-0.48-0.094-0.734-0.377-0.734C51.936,25.066,51.745,25.271,51.74,25.867z"/><path fill="#FFFFFF" d="M53.883,24.613h0.742v0.342h0.047c0.227-0.215,0.487-0.396,0.852-0.396c0.457,0,0.727,0.254,0.727,0.807	v2.096h-0.8v-1.906c0-0.268-0.056-0.379-0.304-0.379c-0.176,0-0.354,0.09-0.475,0.17v2.115h-0.789V24.613z"/><path fill="#FFFFFF" d="M57.069,26.707v-0.971c0-0.15,0.029-0.395,0.029-0.395h-0.393v-0.555h0.393c0,0-0.029-0.254-0.029-0.402 v-0.479h0.785v0.479c0,0.148-0.031,0.402-0.031,0.402h0.605v0.555h-0.605c0,0,0.031,0.244,0.031,0.395v0.871 c0,0.234,0.074,0.316,0.32,0.316c0.098,0,0.205-0.029,0.281-0.045v0.5c-0.113,0.053-0.322,0.129-0.574,0.129	C57.342,27.508,57.069,27.293,57.069,26.707z"/></g><g id="Rectangle_2_5_"><g><rect x="22.854" y="38.615" fill="#FFFFFF" width="35.834" height="3.252"/></g></g><g id="Rectangle_2_copy_5_"><g><rect x="22.854" y="44.043" fill="#FFFFFF" width="18.732" height="3.26"/></g></g><g id="Rectangle_2_copy_3_29_"><g><rect x="44.846" y="44.043" fill="#FFFFFF" width="8.414" height="3.26"/></g></g><g id="Rectangle_2_copy_2_5_"><g><rect x="22.854" y="49.471" fill="#FFFFFF" width="13.304" height="3.26"/></g></g><path fill="#FFFFFF" d="M16.938,33.389v30.904h46.801V33.389H16.938z M61.696,61.793H18.983V35.889h42.713V61.793z"/><path fill="#FFFFFF" d="M16.938,19.441v12.279h46.801V19.441H16.938z M61.696,29.219H18.983v-7.275h42.713V29.219z"/><g><path fill="#28578B" d="M39.764,25.281l-7.098-7.793l1.154-1.105l7.744,7.098l7.791-7.098l1.148,1.105l-7.1,7.793l7.1,7.742 l-0.97,0.967l-7.925-6.916l-7.789,7.102l-1.154-1.152L39.764,25.281z"/></g></g></g></svg>


