<svg version="1.1" id="Layer_1" xmlns="http://www.w3.org/2000/svg" xmlns:xlink="http://www.w3.org/1999/xlink" x="0px" y="0px" width="80px" height="81.899px" viewBox="0 0 80 81.899" enable-background="new 0 0 80 81.899" xml:space="preserve">
<g><g><path fill="#FFFFFF" d="M13.161,12.503h1.586l1.869,6.435H15.17l-0.203-0.709c-0.061-0.207-0.098-0.466-0.121-0.691H12.87 c-0.033,0.225-0.066,0.481-0.13,0.679l-0.191,0.721h-1.278L13.161,12.503z M13.107,16.619h1.511 c-0.083-0.209-0.169-0.462-0.223-0.676l-0.204-0.753c-0.156-0.622-0.273-1.563-0.273-1.563h-0.097c0,0-0.097,0.941-0.277,1.563 l-0.208,0.753C13.284,16.156,13.184,16.41,13.107,16.619z"/><path fill="#FFFFFF" d="M17.197,16.789v-0.371c0-1.763,0.771-2.442,1.812-2.442c0.561,0,0.818,0.18,1.042,0.392h0.11 c0,0-0.11-0.63-0.11-0.926v-1.184h1.337v6.68h-1.017l-0.11-0.513h-0.1c-0.32,0.404-0.745,0.631-1.226,0.631 C18.005,19.057,17.197,18.385,17.197,16.789z M20.069,17.809v-2.614c-0.161-0.135-0.344-0.224-0.638-0.224 c-0.554,0-0.862,0.251-0.862,1.34v0.371c0,1.149,0.354,1.398,0.821,1.398C19.731,18.081,19.908,17.949,20.069,17.809z"/><path fill="#FFFFFF" d="M22.222,14.069h1.375l0.529,2.127c0.19,0.772,0.284,1.969,0.284,1.969h0.107c0,0,0.089-1.197,0.273-1.969 l0.524-2.127h1.258l-1.412,4.87h-1.529L22.222,14.069z"/><path fill="#FFFFFF" d="M27.096,16.66v-0.319c0-1.413,0.798-2.365,2.083-2.365c1.369,0,1.836,0.885,1.836,2.248v0.58h-2.648 c0.055,0.986,0.431,1.277,1.203,1.277c0.538,0,0.978-0.12,1.345-0.291v0.839c-0.304,0.212-0.778,0.422-1.596,0.422 C27.978,19.051,27.096,18.229,27.096,16.66z M28.367,16.213c0.202-0.043,0.498-0.111,0.849-0.111h0.604 c0-0.822-0.153-1.258-0.641-1.258C28.708,14.843,28.381,15.195,28.367,16.213z"/><path fill="#FFFFFF" d="M32.037,14.069h1.266v0.709h0.077c0.34-0.489,0.891-0.777,1.398-0.768v1.202 c-0.45-0.021-1.018,0.09-1.398,0.313v3.414h-1.343V14.069z"/><path fill="#FFFFFF" d="M36.051,17.65v-1.659c0-0.258,0.043-0.675,0.043-0.675h-0.668v-0.948h0.668c0,0-0.043-0.435-0.043-0.689 v-0.816h1.335v0.816c0,0.254-0.053,0.689-0.053,0.689h1.035v0.948h-1.035c0,0,0.053,0.417,0.053,0.675v1.486 c0,0.403,0.127,0.542,0.547,0.542c0.167,0,0.351-0.049,0.48-0.078v0.855c-0.189,0.089-0.557,0.22-0.988,0.22 C36.515,19.018,36.051,18.65,36.051,17.65z"/><path fill="#FFFFFF" d="M39.299,12.283h1.398v1.05h-1.398V12.283z M39.322,14.069h1.349v4.87h-1.349V14.069z"/><path fill="#FFFFFF" d="M41.68,18.758v-0.944c0.35,0.156,0.704,0.267,1.242,0.267c0.514,0,0.763-0.159,0.763-0.491 c0-0.299-0.145-0.418-0.539-0.556l-0.479-0.145c-0.638-0.197-1.012-0.605-1.012-1.399c0-0.986,0.601-1.514,1.717-1.514 c0.52,0,0.941,0.063,1.286,0.227v0.933c-0.258-0.133-0.706-0.208-1.176-0.208c-0.451,0-0.635,0.155-0.635,0.441 c0,0.308,0.193,0.401,0.484,0.5l0.483,0.144c0.835,0.253,1.123,0.67,1.123,1.479c0,1.022-0.625,1.566-1.897,1.566 C42.562,19.057,42.023,18.953,41.68,18.758z"/><path fill="#FFFFFF" d="M45.642,16.66v-0.319c0-1.413,0.791-2.365,2.081-2.365c1.365,0,1.836,0.885,1.836,2.248v0.58h-2.638 c0.044,0.986,0.423,1.277,1.188,1.277c0.531,0,0.979-0.12,1.353-0.291v0.839c-0.314,0.212-0.784,0.422-1.599,0.422 C46.521,19.051,45.642,18.229,45.642,16.66z M46.921,16.213c0.188-0.043,0.488-0.111,0.835-0.111h0.61 c0-0.822-0.163-1.258-0.644-1.258C47.248,14.843,46.924,15.195,46.921,16.213z"/><path fill="#FFFFFF" d="M50.583,14.069h1.256v0.569h0.09c0.421-0.398,0.866-0.662,1.426-0.662c0.534,0,0.875,0.192,1.058,0.712 h0.107c0.413-0.428,0.936-0.712,1.521-0.712c0.776,0,1.241,0.425,1.241,1.426v3.537h-1.349v-3.22c0-0.555-0.146-0.696-0.558-0.696 c-0.268,0-0.572,0.161-0.774,0.305c0,0.024,0.012,0.087,0.012,0.229v3.382h-1.351v-3.22c0-0.555-0.177-0.696-0.575-0.696 c-0.279,0-0.534,0.135-0.758,0.299v3.617h-1.346V14.069z"/><path fill="#FFFFFF" d="M58.22,16.66v-0.319c0-1.413,0.791-2.365,2.076-2.365c1.373,0,1.831,0.885,1.831,2.248v0.58H59.49 c0.045,0.986,0.421,1.277,1.202,1.277c0.527,0,0.977-0.12,1.342-0.291v0.839c-0.3,0.212-0.773,0.422-1.596,0.422 C59.097,19.051,58.22,18.229,58.22,16.66z M59.49,16.213c0.198-0.043,0.491-0.111,0.845-0.111h0.604 c0-0.822-0.16-1.258-0.644-1.258C59.824,14.843,59.497,15.195,59.49,16.213z"/><path fill="#FFFFFF" d="M63.153,14.069h1.269v0.587h0.08c0.388-0.367,0.833-0.68,1.456-0.68c0.781,0,1.241,0.434,1.241,1.381 v3.582h-1.366v-3.259c0-0.457-0.096-0.648-0.52-0.648c-0.301,0-0.604,0.153-0.812,0.291v3.617h-1.349V14.069z"/><path fill="#FFFFFF" d="M68.6,17.65v-1.659c0-0.258,0.049-0.675,0.049-0.675h-0.671v-0.948h0.671c0,0-0.049-0.435-0.049-0.689 v-0.816h1.342v0.816c0,0.254-0.055,0.689-0.055,0.689h1.036v0.948h-1.036c0,0,0.055,0.417,0.055,0.675v1.486 c0,0.403,0.127,0.542,0.548,0.542c0.166,0,0.35-0.049,0.479-0.078v0.855c-0.193,0.089-0.55,0.22-0.981,0.22 C69.066,19.018,68.6,18.65,68.6,17.65z"/></g><g id="Rectangle_2_5_"><g><rect x="10.112" y="38.005" fill="#FFFFFF" width="61.254" height="5.558"/></g></g><g id="Rectangle_2_copy_5_"><g><rect x="10.112" y="47.285" fill="#FFFFFF" width="32.021" height="5.571"/></g></g><g id="Rectangle_2_copy_3_29_"><g><rect x="47.705" y="47.285" fill="#FFFFFF" width="14.384" height="5.571"/></g></g><g id="Rectangle_2_copy_2_5_"><g><rect x="10.112" y="56.562" fill="#FFFFFF" width="22.742" height="5.569"/></g></g><path fill="#FFFFFF" d="M0,29.071v52.828h80V29.071H0z M76.508,77.625H3.496v-44.28h73.012V77.625z"/><path fill="#FFFFFF" d="M0,5.23v20.99h80V5.23H0z M76.508,21.944H3.496V9.505h73.012V21.944z"/><g><path fill="#28578B" d="M39.019,15.211L26.886,1.891L28.859,0l13.238,12.133L55.415,0l1.962,1.891l-12.135,13.32l12.135,13.235	L55.72,30.1L42.175,18.278l-13.316,12.14l-1.973-1.971L39.019,15.211z"/></g></g></svg>

