<svg xmlns="http://www.w3.org/2000/svg" viewBox="0 0 110 68" enable-background="new 0 0 110 68"><path fill="#f4acb9" d="m15 5.7h80v49.8h-80z"/><g fill="#fceb40"><path d="m95 2.1h-80c-2.8 0-2.8 2.8-2.8 2.8v53c0 2.8 2.8 2.8 2.8 2.8h80c2.8 0 2.8-2.8 2.8-2.8v-53c0-2.8-2.8-2.8-2.8-2.8m-.1 54h-80v-49.8h80v49.8"/><path d="m2.7 59v1.8c2 1.3 5.7 1.4 5.7 1.4h93c3.9 0 5.7-1.4 5.7-1.4v-1.8h-105"/></g><g fill="#fff"><path d="m42.9 18.2h.7l.8 2.9h-.6v-.3c0-.1 0-.2-.1-.3h-.9c0 .1 0 .2-.1.3v.3h-.6l.8-2.9m0 1.8h.7c0-.1-.1-.2-.1-.3v-.3c-.1-.3-.1-.7-.1-.7 0 0-.1.4-.2.7v.3c0 .1-.1.2-.1.3"/><path d="m44.7 20v-.2c0-.8.3-1.1.8-1.1.3 0 .4.1.5.2 0 0 0-.3 0-.4v-.5h.6v3h-.5v-.2c-.2.2-.4.3-.6.3-.4 0-.8-.3-.8-1m1.3.5v-1.2c-.1-.1-.2-.1-.3-.1-.3 0-.4.1-.4.6v.2c0 .5.2.6.4.6.2 0 .2-.1.3-.1"/><path d="m47 18.9h.6l.2 1c.1.3.1.9.1.9 0 0 .1-.5.2-.9l.2-1h.6l-.6 2.2h-.7l-.6-2.2"/><path d="m49 20v-.1c0-.6.4-1.1.9-1.1.6 0 .8.4.8 1v.3h-1.2c0 .4.2.6.5.6.2 0 .4-.1.6-.1v.4c-.1.1-.4.2-.7.2-.6 0-1-.4-1-1.1m.6-.2c.1 0 .2-.1.4-.1h.3c0-.4-.1-.6-.3-.6-.2 0-.4.2-.4.6"/><path d="m51 18.9h.6v.3c.2-.2.4-.4.7-.3v.5c-.2 0-.5 0-.6.1v1.5h-.6v-2.2"/><path d="m53 20.5v-.7c0-.1 0-.3 0-.3h-.3v-.4h.3c0 0 0-.2 0-.3v-.4h.6v.4c0 .1 0 .3 0 .3h.5v.4h-.5c0 0 0 .2 0 .3v.7c0 .2.1.2.2.2.1 0 .2 0 .2 0v.4c-.1 0-.3.1-.4.1-.4 0-.6-.2-.6-.6"/><path d="m54.6 18h.6v.5h-.6v-.5m0 .8h.6v2.2h-.6v-2.2"/><path d="m55.7 21v-.4c.2.1.3.1.6.1.2 0 .3-.1.3-.2 0-.1-.1-.2-.2-.2h-.2c-.3-.1-.5-.3-.5-.6 0-.4.3-.7.8-.7.2 0 .4 0 .6.1v.4c-.1-.1-.3-.1-.5-.1-.2 0-.3.1-.3.2 0 .1.1.2.2.2h.2c.4.1.5.3.5.7 0 .5-.3.7-.9.7-.2 0-.5 0-.6-.1"/><path d="m57 20v-.1c0-.6.4-1.1.9-1.1.6 0 .8.4.8 1v.3h-1.2c0 .4.2.6.5.6.2 0 .4-.1.6-.1v.4c-.1.1-.4.2-.7.2-.6 0-1-.4-1-1.1m.6-.2c.1 0 .2-.1.4-.1h.3c0-.4-.1-.6-.3-.6-.2 0-.4.2-.4.6"/><path d="m59.7 18.9h.6v.3c.2-.2.4-.3.7-.3.2 0 .4.1.5.3.2-.2.5-.3.7-.3.3 0 .6.2.6.6v1.6h-.6v-1.4c0-.3-.1-.3-.3-.3-.1 0-.3.1-.4.1 0 0 0 0 0 .1v1.5h-.6v-1.4c0-.3-.1-.3-.3-.3-.1 0-.2.1-.3.1v1.6h-.6v-2.2"/><path d="m63 20v-.1c0-.6.4-1.1.9-1.1.6 0 .8.4.8 1v.3h-1.2c0 .4.2.6.5.6.2 0 .4-.1.6-.1v.4c-.1.1-.3.2-.7.2-.6 0-1-.4-1-1.1m.6-.2c.1 0 .2-.1.4-.1h.3c0-.4-.1-.6-.3-.6-.2 0-.4.2-.4.6"/><path d="m65 18.9h.6v.3c.2-.2.4-.3.7-.3.4 0 .6.2.6.6v1.6h-.6v-1.5c0-.2 0-.3-.2-.3-.1 0-.3.1-.4.1v1.6h-.6v-2.2"/><path d="m67.8 20.5v-.7c0-.1 0-.3 0-.3h-.3v-.4h.3c0 0 0-.2 0-.3v-.4h.6v.4c0 .1 0 .3 0 .3h.5v.4h-.5c0 0 0 .2 0 .3v.7c0 .2.1.2.2.2.1 0 .2 0 .2 0v.4c-.1 0-.2.1-.4.1-.4 0-.6-.2-.6-.6"/><path d="m41.5 29.7h27.5v2.5h-27.5z"/><path d="m41.5 33.8h14.4v2.5h-14.4z"/><path d="m58 33.8h6.5v2.5h-6.5z"/><path d="m41.5 38h10.2v2.5h-10.2z"/><path d="m37 25.7v23.7h36v-23.7h-36m34.4 21.8h-32.8v-19.9h32.8v19.9"/><path d="m37 14.9v9.4h36v-9.4h-36m34.4 7.5h-32.8v-5.6h32.8v5.6"/></g><path fill="#28578b" d="m55 19.4l-5.5-6 .9-.9 6 5.5 6-5.5.9.9-5.5 6 5.5 5.9-.7.7-6.1-5.3-6 5.5-.9-.9 5.5-5.9"/><path fill="#fceb40" d="m99 26.5h-12.5c-3.3 0-3.3 2.8-3.3 2.8v33.6c0 3.1 3.3 3 3.3 3h12.5c3.3 0 3.3-3.1 3.3-3.1v-33.6c0-2.7-3.3-2.7-3.3-2.7m2.2 34.7h-17v-30h17v30"/><path fill="#f4acb9" d="m84 31h17v30h-17z"/><g fill="#fff"><path d="m88 41h.3l.3 1.1h-.2v-.1c0 0 0-.1 0-.1h-.3c0 0 0 .1 0 .1v.1h-.2l.3-1.1m0 .7h.2c0 0 0-.1 0-.1v-.1c0-.1 0-.3 0-.3 0 0 0 .2-.1.3v.1c0 0 0 .1 0 .1"/><path d="m89 41.8c0-.3.1-.5.3-.5.1 0 .1 0 .2.1s0-.1 0-.1v-.2h.2v1.1h-.2c-.1 0-.2 0-.2 0-.2 0-.3-.1-.3-.4m.5.2v-.4c0 0-.1 0-.1 0-.1 0-.1 0-.1.2 0 .2.1.3.1.3.1 0 .1 0 .1 0"/><path d="m90 42v-.2c.1 0 .1 0 .2 0 .1 0 .1 0 .1-.1l-.2-.1c-.1 0-.2-.1-.2-.2 0-.2.1-.2.3-.2.1 0 .2 0 .2 0v.2c0 0-.1 0-.2 0-.1 0-.1 0-.1.1l.2.1c.1 0 .2.1.2.2 0 .2-.1.3-.3.3-.1 0-.2 0-.2 0"/><path d="m88 45h10v.9h-10z"/><path d="m88 46.8h5.2v.9h-5.2z"/><path d="m94 46.8h2.3v.9h-2.3z"/><path d="m88 48h3.7v.9h-3.7z"/><path d="m86 43.8v8.6h13v-8.6h-13m12.5 7.9h-11.9v-7.2h11.9v7.2"/><path d="m86 39.9v3.4h13v-3.4h-13m12.5 2.7h-11.9v-2h11.9v2"/></g><path fill="#28578b" d="m92 41.5l-2-2.2.3-.3 2.2 2 2.2-2 .3.3-2 2.2 2 2.2-.3.3-2.2-1.9-2.2 2-.3-.3 2-2.2"/></svg>