<svg version="1.1" id="Layer_1" xmlns="http://www.w3.org/2000/svg" xmlns:xlink="http://www.w3.org/1999/xlink" x="0px" y="0px" width="110px" height="68px" viewBox="0 0 110 68" enable-background="new 0 0 110 68" xml:space="preserve"><g><g><g><rect x="13.973" y="4.932" fill="#53C1DA" width="81.99" height="51.272"/><path fill="#333333" d="M96.045,1.136h-82.04c-2.879,0-2.879,2.879-2.879,2.879v54.728c0,2.882,2.879,2.882,2.879,2.882h82.04c2.88,0,2.88-2.882,2.88-2.882V4.015C98.925,1.136,96.045,1.136,96.045,1.136z M95.963,56.204h-81.99V4.932h81.99V56.204z"/><path fill="#333333" d="M1.159,59.911v1.869c2.073,1.334,5.865,1.428,5.865,1.428h95.953c3.987-0.046,5.863-1.428,5.863-1.428v-1.869H1.159z"/></g><g><g><path fill="#FFFFFF" d="M42.535,17.761h0.733l0.864,2.976h-0.668l-0.094-0.328c-0.028-0.095-0.045-0.216-0.056-0.32h-0.913c-0.016,0.104-0.031,0.223-0.061,0.314l-0.088,0.333h-0.592L42.535,17.761z M42.51,19.664h0.698c-0.038-0.097-0.078-0.214-0.103-0.312l-0.095-0.348c-0.072-0.287-0.126-0.722-0.126-0.722H42.84c0,0-0.044,0.435-0.128,0.722l-0.095,0.348C42.592,19.45,42.545,19.567,42.51,19.664z"/><path fill="#FFFFFF" d="M44.401,19.743v-0.171c0-0.815,0.356-1.129,0.838-1.129c0.26,0,0.379,0.083,0.482,0.182h0.051c0,0-0.051-0.292-0.051-0.428v-0.547h0.619v3.088h-0.47L45.818,20.5h-0.046c-0.148,0.187-0.344,0.292-0.566,0.292C44.775,20.792,44.401,20.481,44.401,19.743z M45.728,20.214v-1.208c-0.074-0.062-0.159-0.104-0.294-0.104c-0.256,0-0.398,0.117-0.398,0.62v0.172c0,0.53,0.164,0.646,0.379,0.646C45.572,20.339,45.654,20.278,45.728,20.214z"/><path fill="#FFFFFF" d="M46.724,18.485h0.636l0.244,0.983c0.088,0.356,0.132,0.909,0.132,0.909h0.048c0,0,0.042-0.553,0.127-0.909l0.241-0.983h0.583l-0.653,2.251h-0.707L46.724,18.485z"/><path fill="#FFFFFF" d="M48.978,19.683v-0.147c0-0.653,0.369-1.093,0.963-1.093c0.633,0,0.849,0.409,0.849,1.04v0.267h-1.225c0.024,0.456,0.198,0.59,0.556,0.59c0.248,0,0.452-0.055,0.622-0.134v0.389c-0.14,0.098-0.359,0.195-0.738,0.195C49.386,20.789,48.978,20.409,48.978,19.683z M49.565,19.477c0.092-0.021,0.229-0.051,0.392-0.051h0.28c0-0.38-0.071-0.583-0.296-0.583C49.724,18.843,49.572,19.005,49.565,19.477z"/><path fill="#FFFFFF" d="M51.262,18.485h0.585v0.327h0.036c0.157-0.226,0.412-0.359,0.646-0.355v0.557c-0.208-0.01-0.471,0.041-0.646,0.145v1.578h-0.621V18.485z"/><path fill="#FFFFFF" d="M53.118,20.141v-0.768c0-0.118,0.02-0.311,0.02-0.311h-0.309v-0.438h0.309c0,0-0.02-0.202-0.02-0.32v-0.376h0.617v0.376c0,0.118-0.024,0.32-0.024,0.32h0.479v0.438H53.71c0,0,0.024,0.193,0.024,0.311v0.688c0,0.186,0.06,0.25,0.253,0.25c0.077,0,0.163-0.022,0.222-0.036v0.396c-0.088,0.042-0.258,0.103-0.456,0.103C53.332,20.773,53.118,20.603,53.118,20.141z"/><path fill="#FFFFFF" d="M54.619,17.66h0.647v0.485h-0.647V17.66z M54.63,18.485h0.624v2.251H54.63V18.485z"/><path fill="#FFFFFF" d="M55.719,20.653v-0.437c0.162,0.074,0.326,0.124,0.575,0.124c0.237,0,0.353-0.073,0.353-0.227c0-0.138-0.066-0.193-0.25-0.256l-0.221-0.067c-0.295-0.091-0.468-0.279-0.468-0.647c0-0.456,0.277-0.7,0.794-0.7c0.24,0,0.436,0.03,0.594,0.104v0.432c-0.118-0.062-0.325-0.097-0.543-0.097c-0.208,0-0.293,0.072-0.293,0.205c0,0.141,0.09,0.185,0.224,0.23l0.224,0.067c0.386,0.117,0.52,0.31,0.52,0.683c0,0.472-0.289,0.724-0.877,0.724C56.127,20.792,55.878,20.742,55.719,20.653z"/><path fill="#FFFFFF" d="M57.552,19.683v-0.147c0-0.653,0.365-1.093,0.961-1.093c0.632,0,0.85,0.409,0.85,1.04v0.267h-1.22c0.021,0.456,0.196,0.59,0.549,0.59c0.246,0,0.453-0.055,0.626-0.134v0.389c-0.146,0.098-0.362,0.195-0.739,0.195C57.958,20.789,57.552,20.409,57.552,19.683z M58.143,19.477c0.086-0.021,0.226-0.051,0.385-0.051h0.283c0-0.38-0.076-0.583-0.298-0.583C58.294,18.843,58.144,19.005,58.143,19.477z"/><path fill="#FFFFFF" d="M59.836,18.485h0.58v0.263h0.041c0.195-0.185,0.402-0.307,0.66-0.307c0.246,0,0.404,0.089,0.489,0.33h0.05c0.191-0.198,0.432-0.33,0.702-0.33c0.358,0,0.573,0.197,0.573,0.659v1.635h-0.621v-1.488c0-0.258-0.068-0.322-0.26-0.322c-0.123,0-0.264,0.074-0.357,0.141c0,0.012,0.006,0.04,0.006,0.105v1.564h-0.625v-1.488c0-0.258-0.081-0.322-0.266-0.322c-0.131,0-0.248,0.062-0.352,0.138v1.672h-0.621V18.485z"/><path fill="#FFFFFF" d="M63.366,19.683v-0.147c0-0.653,0.366-1.093,0.961-1.093c0.634,0,0.847,0.409,0.847,1.04v0.267h-1.219c0.021,0.456,0.194,0.59,0.556,0.59c0.243,0,0.45-0.055,0.62-0.134v0.389c-0.138,0.098-0.357,0.195-0.737,0.195C63.772,20.789,63.366,20.409,63.366,19.683z M63.955,19.477c0.091-0.021,0.228-0.051,0.391-0.051h0.279c0-0.38-0.073-0.583-0.298-0.583C64.11,18.843,63.958,19.005,63.955,19.477z"/><path fill="#FFFFFF" d="M65.648,18.485h0.587v0.271h0.037c0.178-0.17,0.385-0.314,0.672-0.314c0.362,0,0.575,0.201,0.575,0.639v1.655h-0.632v-1.507c0-0.211-0.045-0.299-0.24-0.299c-0.14,0-0.28,0.07-0.375,0.134v1.672h-0.624V18.485z"/><path fill="#FFFFFF" d="M68.165,20.141v-0.768c0-0.118,0.024-0.311,0.024-0.311h-0.311v-0.438h0.311c0,0-0.024-0.202-0.024-0.32v-0.376h0.621v0.376c0,0.118-0.024,0.32-0.024,0.32h0.478v0.438h-0.478c0,0,0.024,0.193,0.024,0.311v0.688c0,0.186,0.059,0.25,0.254,0.25c0.076,0,0.161-0.022,0.223-0.036v0.396c-0.09,0.042-0.256,0.103-0.455,0.103C68.381,20.773,68.165,20.603,68.165,20.141z"/></g><g id="Rectangle_2_14_"><g><rect x="41.126" y="29.551" fill="#FFFFFF" width="28.319" height="2.57"/></g></g><g id="Rectangle_2_copy_14_"><g><rect x="41.126" y="33.841" fill="#FFFFFF" width="14.804" height="2.576"/></g></g><g id="Rectangle_2_copy_3_14_"><g><rect x="58.506" y="33.841" fill="#FFFFFF" width="6.648" height="2.576"/></g></g><g id="Rectangle_2_copy_2_14_"><g><rect x="41.126" y="38.131" fill="#FFFFFF" width="10.514" height="2.575"/></g></g><path fill="#FFFFFF" d="M36.45,25.421v24.423h36.986V25.421H36.45z M71.823,47.868H38.066V27.396h33.757V47.868z"/><path fill="#FFFFFF" d="M36.45,14.399v9.704h36.986v-9.704H36.45z M71.823,22.125H38.066v-5.75h33.757V22.125z"/><g><path fill="#28578B" d="M54.49,19.014l-5.609-6.158l0.912-0.875l6.121,5.609l6.157-5.609l0.907,0.875l-5.61,6.158l5.61,6.118l-0.766,0.764l-6.263-5.464l-6.156,5.612l-0.912-0.912L54.49,19.014z"/></g></g></g><path fill="#333333" d="M99.918,26.271H87.043c-3.395,0-3.395,2.893-3.395,2.893v34.584c0,3.15,3.395,3.115,3.395,3.115h12.875c3.396,0,3.385-3.218,3.385-3.218V29.062C103.303,26.271,99.918,26.271,99.918,26.271z M102.197,62.003H84.719V31.108h17.478V62.003z"/><rect x="84.726" y="31.085" fill="#53C1DA" width="17.471" height="30.918"/><g><g><path fill="#FFFFFF" d="M89.065,41.28h0.266l0.314,1.081h-0.243l-0.034-0.118c-0.01-0.035-0.016-0.079-0.02-0.117h-0.332c-0.006,0.038-0.012,0.08-0.021,0.113l-0.033,0.122h-0.215L89.065,41.28z M89.055,41.972h0.254c-0.014-0.035-0.027-0.078-0.037-0.113l-0.035-0.127c-0.025-0.104-0.045-0.262-0.045-0.262h-0.016c0,0-0.017,0.157-0.047,0.262l-0.035,0.127C89.085,41.894,89.069,41.937,89.055,41.972z"/><path fill="#FFFFFF" d="M89.743,42.001v-0.062c0-0.297,0.129-0.411,0.305-0.411c0.094,0,0.137,0.03,0.174,0.066h0.019c0,0-0.019-0.105-0.019-0.155v-0.199h0.226v1.122h-0.171l-0.02-0.087H90.24c-0.054,0.068-0.124,0.107-0.205,0.107C89.878,42.382,89.743,42.269,89.743,42.001z M90.225,42.171v-0.438c-0.027-0.022-0.059-0.037-0.107-0.037c-0.094,0-0.145,0.042-0.145,0.225v0.062c0,0.192,0.059,0.235,0.137,0.235C90.167,42.218,90.198,42.194,90.225,42.171z"/><path fill="#FFFFFF" d="M90.617,42.331v-0.158c0.06,0.025,0.118,0.045,0.209,0.045c0.087,0,0.128-0.027,0.128-0.084c0-0.049-0.023-0.068-0.091-0.092l-0.08-0.025c-0.106-0.033-0.17-0.102-0.17-0.234c0-0.166,0.101-0.255,0.288-0.255c0.088,0,0.158,0.011,0.216,0.038v0.156c-0.043-0.021-0.118-0.033-0.196-0.033c-0.076,0-0.107,0.025-0.107,0.072c0,0.053,0.033,0.068,0.082,0.085l0.08,0.024c0.141,0.042,0.189,0.112,0.189,0.248c0,0.172-0.105,0.264-0.318,0.264C90.765,42.382,90.674,42.363,90.617,42.331z"/></g><g id="Rectangle_2_12_"><g><rect x="88.553" y="45.562" fill="#FFFFFF" width="10.285" height="0.933"/></g></g><g id="Rectangle_2_copy_12_"><g><rect x="88.553" y="47.12" fill="#FFFFFF" width="5.377" height="0.938"/></g></g><g id="Rectangle_2_copy_3_12_"><g><rect x="94.866" y="47.12" fill="#FFFFFF" width="2.415" height="0.938"/></g></g><g id="Rectangle_2_copy_2_12_"><g><rect x="88.553" y="48.679" fill="#FFFFFF" width="3.818" height="0.936"/></g></g><path fill="#FFFFFF" d="M86.854,44.063v8.871h13.434v-8.871H86.854z M99.702,52.216h-12.26V44.78h12.26V52.216z"/><path fill="#FFFFFF" d="M86.854,40.059v3.524h13.434v-3.524H86.854z M99.702,42.865h-12.26v-2.089h12.26V42.865z"/><g><path fill="#28578B" d="M93.407,41.735l-2.037-2.237l0.331-0.317l2.223,2.037l2.236-2.037l0.329,0.317l-2.037,2.237l2.037,2.223l-0.277,0.277l-2.275-1.986l-2.235,2.04l-0.331-0.331L93.407,41.735z"/></g></g></g></svg>