<svg version="1.1" id="Layer_1" xmlns="http://www.w3.org/2000/svg" xmlns:xlink="http://www.w3.org/1999/xlink" x="0px" y="0px" width="110px" height="68px" viewBox="0 0 110 68" enable-background="new 0 0 110 68" xml:space="preserve"><g><g><g><rect x="15.116" y="5.741" fill="#F4ACB9" width="79.707" height="49.845"/><path fill="#FCEB40" d="M94.902,2.051H15.147c-2.799,0-2.799,2.799-2.799,2.799v53.203c0,2.802,2.799,2.802,2.799,2.802h79.755c2.799,0,2.799-2.802,2.799-2.802V4.85C97.701,2.051,94.902,2.051,94.902,2.051z M94.822,55.586H15.116V5.741h79.707V55.586z"/><path fill="#FCEB40" d="M2.659,59.188v1.818c2.016,1.297,5.702,1.387,5.702,1.387h93.28c3.877-0.044,5.701-1.387,5.701-1.387v-1.818H2.659z"/></g><g><g><path fill="#FFFFFF" d="M42.882,18.213h0.713l0.84,2.893h-0.649l-0.092-0.318c-0.027-0.093-0.043-0.21-0.054-0.312h-0.888c-0.016,0.102-0.031,0.217-0.059,0.306l-0.085,0.324h-0.575L42.882,18.213z M42.858,20.062h0.679c-0.037-0.094-0.076-0.208-0.1-0.304l-0.092-0.338c-0.07-0.279-0.123-0.702-0.123-0.702h-0.043c0,0-0.043,0.423-0.125,0.702l-0.093,0.338C42.938,19.854,42.892,19.969,42.858,20.062z"/><path fill="#FFFFFF" d="M44.696,20.14v-0.167c0-0.792,0.346-1.098,0.814-1.098c0.252,0,0.368,0.081,0.468,0.177h0.049c0,0-0.049-0.284-0.049-0.416v-0.532h0.602v3.002h-0.457l-0.05-0.23h-0.045c-0.144,0.182-0.334,0.284-0.55,0.284C45.06,21.159,44.696,20.857,44.696,20.14z M45.986,20.598v-1.175c-0.072-0.061-0.155-0.101-0.286-0.101c-0.25,0-0.387,0.113-0.387,0.603v0.167c0,0.516,0.159,0.628,0.369,0.628C45.835,20.72,45.915,20.66,45.986,20.598z"/><path fill="#FFFFFF" d="M46.955,18.917h0.618l0.237,0.956c0.086,0.347,0.128,0.884,0.128,0.884h0.047c0,0,0.041-0.537,0.124-0.884l0.235-0.956h0.566l-0.635,2.188h-0.687L46.955,18.917z"/><path fill="#FFFFFF" d="M49.146,20.081v-0.144c0-0.635,0.359-1.062,0.937-1.062c0.615,0,0.825,0.397,0.825,1.011v0.26h-1.19c0.024,0.443,0.193,0.574,0.541,0.574c0.241,0,0.439-0.054,0.604-0.131v0.378c-0.136,0.095-0.35,0.189-0.717,0.189C49.542,21.156,49.146,20.787,49.146,20.081z M49.717,19.881c0.09-0.021,0.223-0.05,0.381-0.05h0.272c0-0.37-0.069-0.566-0.288-0.566C49.871,19.265,49.723,19.423,49.717,19.881z"/><path fill="#FFFFFF" d="M51.366,18.917h0.569v0.318h0.035c0.153-0.22,0.4-0.35,0.628-0.346v0.541c-0.203-0.01-0.458,0.04-0.628,0.141v1.534h-0.604V18.917z"/><path fill="#FFFFFF" d="M53.17,20.526V19.78c0-0.115,0.02-0.303,0.02-0.303h-0.3v-0.426h0.3c0,0-0.02-0.196-0.02-0.311v-0.366h0.6v0.366c0,0.114-0.023,0.311-0.023,0.311h0.465v0.426h-0.465c0,0,0.023,0.188,0.023,0.303v0.669c0,0.181,0.058,0.243,0.247,0.243c0.075,0,0.158-0.021,0.215-0.035v0.385c-0.085,0.04-0.25,0.1-0.443,0.1C53.378,21.142,53.17,20.976,53.17,20.526z"/><path fill="#FFFFFF" d="M54.629,18.114h0.629v0.472h-0.629V18.114z M54.64,18.917h0.606v2.188H54.64V18.917z"/><path fill="#FFFFFF" d="M55.699,21.024V20.6c0.158,0.071,0.316,0.12,0.559,0.12c0.23,0,0.344-0.071,0.344-0.221c0-0.134-0.064-0.188-0.244-0.249l-0.213-0.065c-0.288-0.089-0.456-0.271-0.456-0.629c0-0.443,0.27-0.681,0.772-0.681c0.232,0,0.422,0.029,0.576,0.102v0.42c-0.115-0.06-0.316-0.094-0.527-0.094c-0.203,0-0.285,0.07-0.285,0.199c0,0.137,0.088,0.18,0.217,0.224l0.219,0.065c0.375,0.113,0.504,0.301,0.504,0.664c0,0.459-0.281,0.704-0.852,0.704C56.096,21.159,55.854,21.111,55.699,21.024z"/><path fill="#FFFFFF" d="M57.48,20.081v-0.144c0-0.635,0.355-1.062,0.936-1.062c0.613,0,0.824,0.397,0.824,1.011v0.26h-1.186c0.02,0.443,0.191,0.574,0.535,0.574c0.238,0,0.439-0.054,0.607-0.131v0.378c-0.141,0.095-0.352,0.189-0.719,0.189C57.875,21.156,57.48,20.787,57.48,20.081z M58.055,19.881c0.084-0.021,0.221-0.05,0.375-0.05h0.275c0-0.37-0.074-0.566-0.289-0.566C58.203,19.265,58.057,19.423,58.055,19.881z"/><path fill="#FFFFFF" d="M59.701,18.917h0.564v0.256h0.041c0.189-0.18,0.389-0.298,0.641-0.298c0.24,0,0.393,0.087,0.475,0.32h0.049c0.186-0.192,0.42-0.32,0.684-0.32c0.348,0,0.557,0.191,0.557,0.641v1.59h-0.604v-1.446c0-0.251-0.066-0.313-0.252-0.313c-0.121,0-0.258,0.072-0.35,0.137c0,0.012,0.006,0.039,0.006,0.103v1.521h-0.605v-1.446c0-0.251-0.08-0.313-0.26-0.313c-0.127,0-0.24,0.061-0.34,0.134v1.626h-0.605V18.917z"/><path fill="#FFFFFF" d="M63.133,20.081v-0.144c0-0.635,0.355-1.062,0.934-1.062c0.617,0,0.824,0.397,0.824,1.011v0.26h-1.186c0.02,0.443,0.189,0.574,0.541,0.574c0.236,0,0.438-0.054,0.602-0.131v0.378c-0.135,0.095-0.348,0.189-0.717,0.189C63.527,21.156,63.133,20.787,63.133,20.081z M63.705,19.881c0.088-0.021,0.221-0.05,0.379-0.05h0.271c0-0.37-0.07-0.566-0.289-0.566C63.855,19.265,63.709,19.423,63.705,19.881z"/><path fill="#FFFFFF" d="M65.352,18.917h0.57v0.264h0.035c0.174-0.165,0.375-0.306,0.654-0.306c0.352,0,0.559,0.195,0.559,0.621v1.609h-0.615v-1.465c0-0.205-0.043-0.291-0.232-0.291c-0.135,0-0.271,0.068-0.365,0.13v1.626h-0.605V18.917z"/><path fill="#FFFFFF" d="M67.799,20.526V19.78c0-0.115,0.023-0.303,0.023-0.303H67.52v-0.426h0.303c0,0-0.023-0.196-0.023-0.311v-0.366h0.604v0.366c0,0.114-0.025,0.311-0.025,0.311h0.465v0.426h-0.465c0,0,0.025,0.188,0.025,0.303v0.669c0,0.181,0.057,0.243,0.246,0.243c0.074,0,0.156-0.021,0.215-0.035v0.385c-0.086,0.04-0.246,0.1-0.441,0.1C68.008,21.142,67.799,20.976,67.799,20.526z"/></g><g id="Rectangle_2_24_"><g><rect x="41.512" y="29.675" fill="#FFFFFF" width="27.531" height="2.498"/></g></g><g id="Rectangle_2_copy_24_"><g><rect x="41.512" y="33.845" fill="#FFFFFF" width="14.392" height="2.505"/></g></g><g id="Rectangle_2_copy_3_19_"><g><rect x="58.408" y="33.845" fill="#FFFFFF" width="6.465" height="2.505"/></g></g><g id="Rectangle_2_copy_2_24_"><g><rect x="41.512" y="38.016" fill="#FFFFFF" width="10.221" height="2.503"/></g></g><path fill="#FFFFFF" d="M36.967,25.66v23.743h35.955V25.66H36.967z M71.354,47.481H38.538V27.58h32.816V47.481z"/><path fill="#FFFFFF" d="M36.967,14.944v9.434h35.955v-9.434H36.967z M71.354,22.456H38.538v-5.59h32.816V22.456z"/><g><path fill="#28578B" d="M54.504,19.431l-5.453-5.986l0.887-0.851l5.95,5.453l5.985-5.453l0.881,0.851l-5.453,5.986l5.453,5.947l-0.744,0.743l-6.087-5.312l-5.985,5.456l-0.887-0.887L54.504,19.431z"/></g></g></g><path fill="#FCEB40" d="M98.668,26.486H86.15c-3.299,0-3.299,2.812-3.299,2.812V62.92c0,3.062,3.299,3.029,3.299,3.029h12.518c3.301,0,3.291-3.129,3.291-3.129V29.199C101.959,26.486,98.668,26.486,98.668,26.486z M100.883,61.223h-16.99V31.188h16.99V61.223z"/><rect x="83.898" y="31.166" fill="#F4ACB9" width="16.984" height="30.057"/><g><g><path fill="#FFFFFF" d="M88.115,41.077h0.26l0.305,1.051h-0.236l-0.033-0.115c-0.01-0.033-0.016-0.076-0.02-0.113h-0.322c-0.006,0.037-0.012,0.078-0.021,0.111l-0.031,0.117h-0.209L88.115,41.077z M88.107,41.749h0.246c-0.014-0.033-0.027-0.075-0.037-0.109l-0.033-0.123c-0.025-0.102-0.043-0.256-0.043-0.256h-0.018c0,0-0.016,0.154-0.045,0.256l-0.033,0.123C88.137,41.674,88.119,41.716,88.107,41.749z"/><path fill="#FFFFFF" d="M88.775,41.777v-0.061c0-0.288,0.125-0.399,0.295-0.399c0.092,0,0.135,0.029,0.17,0.064h0.018c0,0-0.018-0.103-0.018-0.15v-0.193h0.219v1.09h-0.166l-0.018-0.084h-0.018c-0.051,0.066-0.121,0.104-0.199,0.104C88.906,42.147,88.775,42.038,88.775,41.777z M89.244,41.944v-0.428c-0.027-0.021-0.057-0.036-0.105-0.036c-0.09,0-0.141,0.041-0.141,0.22v0.06c0,0.188,0.059,0.229,0.135,0.229C89.188,41.988,89.217,41.966,89.244,41.944z"/><path fill="#FFFFFF" d="M89.625,42.099v-0.154c0.057,0.025,0.115,0.044,0.203,0.044c0.084,0,0.123-0.026,0.123-0.081c0-0.048-0.023-0.067-0.088-0.09l-0.078-0.023c-0.104-0.033-0.164-0.1-0.164-0.229c0-0.161,0.098-0.248,0.279-0.248c0.086,0,0.154,0.012,0.211,0.037v0.152c-0.043-0.021-0.115-0.033-0.191-0.033c-0.074,0-0.105,0.025-0.105,0.072c0,0.05,0.033,0.064,0.08,0.081l0.078,0.024c0.137,0.041,0.184,0.108,0.184,0.24c0,0.167-0.102,0.256-0.309,0.256C89.77,42.147,89.682,42.13,89.625,42.099z"/></g><g id="Rectangle_2_11_"><g><rect x="87.617" y="45.241" fill="#FFFFFF" width="10" height="0.906"/></g></g><g id="Rectangle_2_copy_11_"><g><rect x="87.617" y="46.755" fill="#FFFFFF" width="5.229" height="0.91"/></g></g><g id="Rectangle_2_copy_3_11_"><g><rect x="93.756" y="46.755" fill="#FFFFFF" width="2.348" height="0.91"/></g></g><g id="Rectangle_2_copy_2_11_"><g><rect x="87.617" y="48.271" fill="#FFFFFF" width="3.713" height="0.908"/></g></g><path fill="#FFFFFF" d="M85.967,43.782v8.624h13.061v-8.624H85.967z M98.457,51.708h-11.92v-7.229h11.92V51.708z"/><path fill="#FFFFFF" d="M85.967,39.89v3.428h13.061V39.89H85.967z M98.457,42.618h-11.92v-2.029h11.92V42.618z"/><g><path fill="#28578B" d="M92.336,41.521l-1.98-2.176l0.322-0.309l2.162,1.98l2.174-1.98l0.32,0.309l-1.98,2.176l1.98,2.16l-0.271,0.27l-2.211-1.93l-2.174,1.981l-0.322-0.321L92.336,41.521z"/></g></g></g></svg>