<svg xmlns="http://www.w3.org/2000/svg" viewBox="0 0 110 68" enable-background="new 0 0 110 68"><path fill="#53c1da" d="m14 4.9h82v51h-82z"/><g fill="#333"><path d="m96 1.1h-82c-2.9 0-2.9 2.9-2.9 2.9v54.7c0 2.9 2.9 2.9 2.9 2.9h82c2.9 0 2.9-2.9 2.9-2.9v-54.7c0-2.9-2.9-2.9-2.9-2.9m-.1 55h-82v-51h82v51"/><path d="m1.2 59.9v1.9c2.1 1.3 5.9 1.4 5.9 1.4h96c4 0 5.9-1.4 5.9-1.4v-1.9h-108"/></g><g fill="#fff"><path d="m42.5 17.8h.7l.9 3h-.7v-.3c0-.1 0-.2-.1-.3h-.9c0 .1 0 .2-.1.3v.3h-.6l.9-3m0 1.9h.7c0-.1-.1-.2-.1-.3v-.3c-.1-.3-.1-.7-.1-.7 0 0-.1.4-.2.7v.3c0 .1-.1.2-.1.3"/><path d="m44 19.7v-.2c0-.8.4-1.1.8-1.1.3 0 .4.1.5.2.1 0 0-.3 0-.4v-.5h.6v3.1h-.5v-.2c-.2.2-.4.3-.6.3-.4 0-.8-.3-.8-1m1.3.5v-1.2c-.1-.1-.2-.1-.3-.1-.3 0-.4.1-.4.6v.2c0 .5.2.6.4.6.2 0 .2-.1.3-.1"/><path d="m46.7 18.5h.6l.2 1c.1.4.1.9.1.9 0 0 .1-.6.2-.9l.2-1h.6l-.7 2.3h-.7l-.7-2.3"/><path d="m49 19.7v-.1c0-.7.4-1.1 1-1.1.6 0 .8.4.8 1v.3h-1.2c0 .5.2.6.6.6.2 0 .5-.1.6-.1v.4c-.1.1-.4.2-.7.2-.6 0-1-.4-1-1.1m.6-.2c.1 0 .2-.1.4-.1h.3c0-.4-.1-.6-.3-.6-.2 0-.4.2-.4.6"/><path d="m51 18.5h.6v.3c.2-.2.4-.4.7-.4v.6c-.2 0-.5 0-.6.1v1.6h-.6v-2.3"/><path d="m53 20v-.8c0-.1 0-.3 0-.3h-.3v-.4h.3c0 0 0-.2 0-.3v-.4h.6v.4c0 .1 0 .3 0 .3h.5v.4h-.5c0 0 0 .2 0 .3v.7c0 .2.1.3.3.3.1 0 .2 0 .2 0v.4c-.1 0-.3.1-.5.1-.4 0-.6-.2-.6-.6"/><path d="m54.6 17.7h.6v.5h-.6v-.5m0 .8h.6v2.3h-.6v-2.3"/><path d="m55.7 20.7v-.4c.2.1.3.1.6.1.2 0 .4-.1.4-.2 0-.1-.1-.2-.3-.3h-.2c-.3-.1-.5-.3-.5-.6 0-.5.3-.7.8-.7.2 0 .4 0 .6.1v.4c-.1-.1-.3-.1-.5-.1-.2 0-.3.1-.3.2 0 .1.1.2.2.2h.2c.4.1.5.3.5.7 0 .5-.3.7-.9.7-.2 0-.5 0-.6-.1"/><path d="m58 19.7v-.1c0-.7.4-1.1 1-1.1.6 0 .9.4.9 1v.3h-1.2c0 .5.2.6.5.6.2 0 .5-.1.6-.1v.4c-.1.1-.4.2-.7.2-.6 0-1-.4-1-1.1m.6-.2c.1 0 .2-.1.4-.1h.3c0-.4-.1-.6-.3-.6-.2 0-.4.2-.4.6"/><path d="m59.8 18.5h.6v.3c.2-.2.4-.3.7-.3.2 0 .4.1.5.3.2-.2.5-.3.8-.3.4 0 .6.2.6.7v1.6h-.6v-1.5c0-.3-.1-.3-.3-.3-.1 0-.3.1-.4.1 0 0 0 0 0 .1v1.6h-.6v-1.5c0-.3-.1-.3-.3-.3-.1 0-.2.1-.4.1v1.7h-.6v-2.3"/><path d="m63 19.7v-.1c0-.7.4-1.1 1-1.1.6 0 .8.4.8 1v.3h-1.2c0 .5.2.6.6.6.2 0 .5-.1.6-.1v.4c-.1.1-.4.2-.7.2-.6 0-1-.4-1-1.1m.6-.2c.1 0 .2-.1.4-.1h.3c0-.4-.1-.6-.3-.6-.2 0-.4.2-.4.6"/><path d="m66 18.5h.6v.3c.2-.2.4-.3.7-.3.4 0 .6.2.6.6v1.7h-.6v-1.5c0-.2 0-.3-.2-.3-.1 0-.3.1-.4.1v1.7h-.6v-2.3"/><path d="m68 20v-.8c0-.1 0-.3 0-.3h-.3v-.4h.3c0 0 0-.2 0-.3v-.4h.6v.4c0 .1 0 .3 0 .3h.5v.4h-.5c0 0 0 .2 0 .3v.7c0 .2.1.3.3.3.1 0 .2 0 .2 0v.4c-.1 0-.3.1-.5.1-.4 0-.6-.2-.6-.6"/><path d="m41 29.6h28.3v2.6h-28.3z"/><path d="m41 33.8h14.8v2.6h-14.8z"/><path d="m59 33.8h6.6v2.6h-6.6z"/><path d="m41 38h10.5v2.6h-10.5z"/><path d="m36.5 25.4v24.4h37v-24.4h-37m35 22.4h-33.8v-20.5h33.8v20.5"/><path d="m36.5 14.4v9.7h37v-9.7h-37m35 7.7h-33.8v-5.8h33.8v5.8"/></g><path fill="#28578b" d="m54 19l-5.6-6.2.9-.9 6.1 5.6 6.2-5.6.9.9-5.6 6.2 5.6 6.1-.8.8-6.3-5.5-6.2 5.6-.9-.9 5.6-6.1"/><path fill="#333" d="m100 26h-12.9c-3.4 0-3.4 2.9-3.4 2.9v34.6c0 3.2 3.4 3.1 3.4 3.1h12.9c3.4 0 3.4-3.2 3.4-3.2v-34.6c0-2.8-3.4-2.8-3.4-2.8m2.3 35.7h-17.5v-30.9h17.5v30.9"/><path fill="#53c1da" d="m85 31h17.5v30.9h-17.5z"/><g fill="#fff"><path d="m89 41h.3l.3 1.1h-.2v-.1c0 0 0-.1 0-.1h-.3c0 0 0 .1 0 .1v.1h-.2l.3-1.1m0 .7h.3c0 0 0-.1 0-.1v-.1c0-.1 0-.3 0-.3 0 0 0 .2-.1.3v.1c0 0 0 .1 0 .1"/><path d="m90 42c0-.4.1-.5.3-.5.1 0 .1 0 .2.1s0-.1 0-.2v-.2h.2v1.1h-.2c-.1 0-.2 0-.2 0-.2 0-.3-.1-.3-.4m.5.2v-.4c0 0-.1 0-.1 0-.1 0-.1 0-.1.2 0 .3.1.3.1.3.1 0 .1 0 .1 0"/><path d="m91 42v-.2c.1 0 .1 0 .2 0 .1 0 .1 0 .1-.1l-.2-.1c-.1 0-.2-.1-.2-.2 0-.2.1-.3.3-.3.1 0 .2 0 .2 0v.2c0 0-.1 0-.2 0-.1 0-.1 0-.1.1l.2.1c.1 0 .2.1.2.2 0 .2-.1.3-.3.3-.1 0-.2 0-.2-.1"/><path d="m89 45.6h10.3v.9h-10.3z"/><path d="m89 47h5.4v.9h-5.4z"/><path d="m95 47h2.4v.9h-2.4z"/><path d="m89 48.7h3.8v.9h-3.8z"/><path d="m87 44v8.9h13.4v-8.9h-13.4m12.8 8.2h-12.3v-7.4h12.3v7.4"/><path d="m87 40v3.5h13.4v-3.5h-13.4m12.8 2.8h-12.3v-2.1h12.3v2.1"/></g><path fill="#28578b" d="m93 41.7l-2-2.2.3-.3 2.2 2 2.2-2 .3.3-2 2.2 2 2.2-.3.3-2.3-2-2.2 2-.3-.3 2-2.2"/></svg>