<svg xmlns="http://www.w3.org/2000/svg" width="105" viewBox="0 0 104.682 63.897"><path fill="#f4acb9" d="M12.5 3.7h80v49.8h-80z"/><g fill="#fceb40"><path d="M92 0H12C9.2 0 9.2 2.8 9.2 2.8v53c0 2.8 2.8 2.8 2.8 2.8h80c2.8 0 2.8-2.8 2.8-2.8v-53C94.8 0 92 0 92 0m-.1 54h-80V4.2h80V54"/><path d="M0 57v1.8c2 1.3 5.7 1.4 5.7 1.4h93c3.9 0 5.7-1.4 5.7-1.4V57H-.6"/></g><g fill="#fff"><path d="M40 16.6h.7l.8 2.9h-.6v-.3c0-.1 0-.2-.1-.3h-.9c0 .1 0 .2-.1.3v.3h-.6l.8-2.9m0 1.8h.7c0-.1-.1-.2-.1-.3v-.3c-.1-.3-.1-.7-.1-.7s-.1.4-.2.7v.3c0 .1-.1.2-.1.3m1.6.1v-.2c0-.8.3-1.1.8-1.1.3 0 .4.1.5.2v-.9h.6v3h-.5v-.2c-.2.2-.4.3-.6.3-.4 0-.8-.3-.8-1m1.3.5v-1.2c-.1-.1-.2-.1-.3-.1-.2 0-.4.1-.4.6v.2c0 .5.2.6.4.6s.2-.1.3-.1m.9-1.8h.6l.2.9c.1.3.1.9.1.9s.1-.5.2-.9l.2-.9h.6l-.6 2.2h-.7l-.6-2.2m2 1.1v-.1c0-.6.4-1.1.9-1.1.6 0 .8.4.8 1v.3h-1.2c0 .4.2.6.5.6.2 0 .4-.1.6-.1v.4c-.1.1-.3.2-.7.2-.6 0-1-.4-1-1.1m.6-.2c.1 0 .2-.1.4-.1h.3c0-.4-.1-.6-.3-.6-.2 0-.4.2-.4.6m1.5-.9h.6v.3c.2-.2.4-.3.7-.3v.5c-.2 0-.5 0-.6.1v1.5h-.6v-2.2m1.9 1.7v-1h-.3v-.4h.3v-.7h.6v.7h.5v.4h-.5v1c0 .2.1.2.2.2h.2v.4c-.1 0-.2.1-.4.1-.4 0-.6-.2-.6-.6m1.7-2.5h.6v.5h-.6v-.5m0 .8h.6v2.2h-.6v-2.2m1 2v-.4c.2.1.3.1.6.1.2 0 .3-.1.3-.2s-.1-.2-.2-.2h-.2c-.3-.1-.5-.3-.5-.6 0-.4.3-.7.8-.7.2 0 .4 0 .6.1v.4c-.1-.1-.3-.1-.5-.1s-.3.1-.3.2.1.2.2.2h.2c.4.1.5.3.5.7 0 .5-.3.7-.8.7-.2 0-.5 0-.6-.1"/><path d="M54 18.4v-.1c0-.6.4-1.1.9-1.1.6 0 .8.4.8 1v.3h-1.2c0 .4.2.6.5.6.2 0 .4-.1.6-.1v.4c-.1.1-.3.2-.7.2-.6 0-1-.4-1-1.1m.6-.2c.1 0 .2-.1.4-.1h.3c0-.4-.1-.6-.3-.6-.2 0-.4.2-.4.6m2.2-.9h.6v.3c.2-.2.4-.3.7-.3.2 0 .4.1.5.3.2-.2.5-.3.7-.3.3 0 .6.2.6.6v1.6h-.6v-1.4c0-.2-.1-.3-.3-.3-.1 0-.3.1-.3.1v1.6H58v-1.4c0-.2-.1-.3-.3-.3-.1 0-.2.1-.3.1v1.6h-.6v-2.2m3.2 1.1v-.1c0-.6.4-1.1.9-1.1.6 0 .8.4.8 1v.3h-1.2c0 .4.2.6.5.6.2 0 .4-.1.6-.1v.4c-.1.1-.3.2-.7.2-.6 0-1-.4-1-1.1m.6-.2c.1 0 .2-.1.4-.1h.3c0-.4-.1-.6-.3-.6-.2 0-.4.2-.4.6m1.5-.9h.6v.3c.2-.2.4-.3.7-.3.3 0 .5.2.5.6v1.6h-.6v-1.4c0-.2 0-.3-.2-.3-.1 0-.3.1-.4.1v1.6H62v-2.2m3 1.6v-1h-.3v-.4h.3v-.7h.6v.7h.5v.4h-.5v1c0 .2.1.2.2.2h.2v.4c-.1 0-.2.1-.4.1-.4 0-.6-.2-.6-.6m-26.3 8.9h27v2.5h-27zm0 4.1h14.2v2.5H38.7zM55 32h6.4v2.5H55zm-16.3 4h10v2.5h-10z"/></g><path fill="#28578b" d="M52 17.8l-5.4-5.9.9-.8 5.9 5.4 5.9-5.4.9.8-5.4 5.9 5.4 5.9-.7.7-6-5.2-5.9 5.4-.9-.9 5.4-5.9"/><path fill="#fceb40" d="M96 24.4H83.5c-3.3 0-3.3 2.8-3.3 2.8v33.6c0 3.1 3.3 3 3.3 3H96c3.3 0 3.3-3.1 3.3-3.1V27.1c0-2.7-3.3-2.7-3.3-2.7m2.2 34.7h-17v-30h17v30"/><path fill="#f4acb9" d="M81 29h17v30H81z"/><path d="M85 43h10v.9H85zm0 1.7h5.2v.9H85zm6 0h2.4v.9H91zM85 46h3.7v.9H85z" fill="#fff"/><path fill="#28578b" d="M89 39.5l-2-2.2.3-.3 2.2 2 2.2-2 .3.3-2 2.2 2 2.2-.3.3-2.2-1.9-2.2 2-.3-.3 2-2.2"/><g fill="#fff"><path d="M85 39h.3l.3 1.1h-.3v-.2H85v.2h-.2l.3-1.1m0 .7h.3v-.5s0 .2-.1.3v.2m.7.1c0-.4.1-.5.3-.5.1 0 .1 0 .2.1V39h.2v1.2h-.5c-.2 0-.3-.1-.3-.4m.5.2v-.5h-.1c-.1 0-.2 0-.2.2 0 .3.1.3.1.3h.1"/><path d="M86 40v-.2h.2c.1 0 .1 0 .1-.1l-.2-.1c-.1 0-.2-.1-.2-.2 0-.2.1-.3.3-.3h.2v.2h-.2c-.1 0-.1 0-.1.1l.2.1c.1 0 .2.1.2.3 0 .2-.1.3-.3.3H86"/></g></svg>