<svg xmlns="http://www.w3.org/2000/svg" width="176" height="20" viewBox="0 0 176 20">
    <g fill="#999" fill-rule="nonzero">
        <path d="M.969 3.988h2.248v15.78H.969zM4.341 4.88H6.59v14.89H4.341zM7.714 2.76h2.248V19.77H7.714zM11.086 3.43h2.249v16.34h-2.249zM14.459 2.483h2.248V19.77h-2.248zM17.832 3.208h2.248V19.77h-2.248zM21.204 3.932h2.249v15.837h-2.249zM24.577 4.657h2.248V19.77h-2.248zM27.949 5.549h2.249v14.22h-2.249zM31.322 6.33h2.248v13.439h-2.248zM34.695 7.557h2.248V19.77h-2.248zM38.067 7.445h2.249v12.324h-2.249zM41.44 4.992h2.248V19.77H41.44zM44.812 5.605h2.249V19.77h-2.249zM48.185 6.219h2.248v13.55h-2.248zM51.558 6.497h2.248v13.272h-2.248zM54.93 6.609h2.249v13.16H54.93zM58.303 7.223h2.248V19.77h-2.248zM61.677 7.836h2.248V19.77h-2.248zM65.049 8.505h2.249v11.264h-2.249zM68.422 8.56h2.248v11.21h-2.248zM71.794 8.338h2.249V19.77h-2.249zM75.167 8.95h2.248v10.82h-2.248zM78.54 9.62h2.248v10.149H78.54zM81.912 10.067h2.249v9.703h-2.249zM85.285 3.932h2.248v15.837h-2.248zM88.657 4.936h2.249v14.833h-2.249zM92.03 5.215h2.248V19.77H92.03zM95.403 4.713h2.248V19.77h-2.248zM98.775 2.984h2.249v16.785h-2.249zM102.148 3.486h2.248v16.283h-2.248zM105.52 4.044h2.249V19.77h-2.249zM108.893 4.713h2.248V19.77h-2.248zM112.266 5.438h2.248V19.77h-2.248zM115.638 5.717h2.249V19.77h-2.249zM119.011 1.702h2.248V19.77h-2.248zM122.384 2.148h2.249V19.77h-2.249zM125.757 1.813h2.248v17.956h-2.248zM129.13 2.706h2.248V19.77h-2.248zM132.502 3.319h2.249v16.45h-2.249zM135.875 4.323h2.248V19.77h-2.248zM139.247 3.486h2.249v16.283h-2.249zM142.62 1.702h2.248V19.77h-2.248zM145.993 1.367h2.248V19.77h-2.248zM149.365 1.98h2.249v17.789h-2.249zM152.738.977h2.248V19.77h-2.248zM156.11 1.59h2.249v18.18h-2.249zM159.483 1.367h2.248V19.77h-2.248zM162.856 2.148h2.248V19.77h-2.248zM166.228 2.76h2.249V19.77h-2.249zM169.601 3.765h2.248V19.77h-2.248zM172.974 4.434h2.248v15.335h-2.248z"/>
    </g>
</svg>
