<svg xmlns="http://www.w3.org/2000/svg" width="320" height="60"><path fill="#fff" d="M284 45h16v-3l-3-1.5v-20c1.2-.9 2.8-1.1 4.3-1.1 2.8 0 3.7.9 3.7 4.1v17l-3 1.5v3h16v-3l-3-1.5v-19c0-5.7-2.1-8.3-7.1-8.3-4.102 0-8.102 1.5-10.8 4V13h-1l-12.4 2.2v2.7l3.3 1.6v21l-3 1.5v3zM245.3.4c-3 0-5.4 2.4-5.4 5.5 0 3 2.4 5.4 5.4 5.4 2.9 0 5.4-2.4 5.4-5.4-.1-3.1-2.5-5.5-5.4-5.5zM237 15.1v2.8l3 1.6v20.9l-3 1.5V45h16v-3.1l-3-1.5V13.1h-1l-12 2zM223 39c-.7.6-1.7 1.1-3.2 1.1-4 0-5.9-3.3-5.9-10.898 0-8.7 2.4-11.6 5.602-11.6 1.8 0 2.8.6 3.5 1.4L223 39zm0-24.4c-1.2-.9-3.3-1.4-5-1.4-7.4 0-14.5 4.4-14.5 16.8 0 11.9 7.1 15.7 11.8 15.7 3.8 0 6.4-1.7 7.6-3.4h.302v3.3h.898l11.9-1.4v-2.3l-3-1.8V.6h-1l-12.6 2v2.8l3.6 1.5v7.7zM181 18l3 1.5v20.9l-3 1.5V45h17v-3.1l-4-1.5V24.1c1.8-1.4 4.1-1.9 6.8-1.9.9 0 1.6.2 2.2.3v-9c-.3-.1-.7-.2-1.2-.2-3.3 0-6 2.2-7.8 6.2V13h-1l-12 2v3zm-19.3-.8c3.9 0 5.3 2 5.3 5.9v3.5l-6.1 1.1c-5.9 1.1-10.4 2.9-10.4 9.3 0 5.1 3.5 8.7 8.3 8.7 3.8 0 7.4-1.7 8.7-4.4h.3c.5 3.3 3.3 4.4 6.4 4.4 2.4 0 4.8-.6 5.7-1.6v-2l-2.9-1.5v-18c0-7-5.2-9.4-13.3-9.4-5.3 0-8.6 1.3-11.4 2.6v7.8h4.7l2-6c1.1-.4 2.3-.4 2.7-.4zm2.3 22.9c-1.9 0-4-1.1-4-4.6 0-2.4 2.4-4.7 4.8-5l2.2-.5v8.5s-1.9 1.6-3 1.6zm100.7-22.9c3.9 0 5.3 2 5.3 5.9v3.5l-6.1 1.1c-5.9 1.1-10.4 2.9-10.4 9.3 0 5.1 3.5 8.7 8.3 8.7 3.8 0 7.4-1.7 8.7-4.4h.3c.5 3.3 3.3 4.4 6.4 4.4 2.4 0 4.8-.6 5.7-1.6v-2l-2.9-1.5v-18c0-7-5.2-9.4-13.3-9.4-5.3 0-8.6 1.3-11.4 2.6v7.8h4.7l2-6c1.1-.4 2.3-.4 2.7-.4zm2.3 22.9c-1.9 0-4-1.1-4-4.6 0-2.4 2.4-4.7 4.8-5l2.2-.5v8.5s-1.9 1.6-3 1.6zm-138.7 5.6c.4 0 .9 0 1.3-.1 3.5-.302 6.7-2 8.4-4.2v4.1l12-1.5v-2l-3-2V13h-1l-12 2.3V18l4 1.7V38c-1.1.8-2.4 1.3-4.2 1.3-2.5 0-4.8-.8-4.8-4.3V13h-1l-12 2.5v2.6l4 1.6V36c0 5.4 2.2 9.7 8.3 9.7zM96 38c-1.2 0-2.5-.8-2.5-1.9 0-.8.6-1.7 1.4-2.3 1.6.5 3 .6 5 .6 7.8 0 13.2-3.698 13.2-10.398 0-3-1.3-4.6-3.2-6.4L115 19v-6l-8.2 1.6c-1.9-.7-4.5-1.6-7-1.6-7.8 0-13.2 4.1-13.2 10.8 0 4.1 2 7.1 5 8.8l.2.2c-1.7 1.2-5.3 4-5.3 7.2 0 2.4 1.5 4.8 4.8 5.5-3.4.8-7.3 2.5-7.3 6.5 0 4.1 5.9 8 15.5 8 11.8 0 16.5-5.7 16.5-13 0-6.1-2.8-9-9.5-9H96zm7.5-14c0 5.7-1.3 6.5-3.5 6.5s-4-.8-4-6.5c0-5.8 1.8-7.5 4-7.5s3.5 2 3.5 7.5zM92 50.9c.1-1.5 1.1-3.4 3.7-3.602h8.6c2.5 0 3.7 2 3.7 3.602 0 3.2-2 4.398-8.3 4.398-5.5.002-7.8-2.198-7.7-4.398z"/><path fill="#AAD8F1" d="M83 30c0-13-5.1-16.9-13-16.9-9 0-15 6.2-15 16.4 0 10.5 5.5 16.2 15.8 16.2 5.6 0 9.7-2.7 11.2-4.7v-3c-2.1.7-3.9 1.2-7.7 1.2-5.6 0-9.3-3.2-9.3-9.2h18zM69.9 16.6c2.5 0 3.8 1.8 3.8 9.6l-8.4.7c.1-7.9 1.8-10.3 4.6-10.3zM37 45v-3l-3-1.5V21c1.2-.9 3.2-1.7 4.8-1.7 2.8 0 4.3 1.6 4.2 4.2v17L40 42v3h16v-3l-3-1.5v-19c0-5.7-3.3-8.3-7.7-8.3-4.1 0-8.6 1.3-11.3 3.8V0h-1L21 2v3l4 1.5v34L22 42v3h15zM4 36.4c0 5.7 2.8 9.3 8.9 9.3 3.1 0 6.2-.8 8.1-2.3v-3.8c-.8.3-1.9.5-2.9.5-2.9 0-4.1-1.6-4.1-4.6V19h7v-5h-7V6.5L4 8v6l-4 1v4h4v17.4z"/><g enable-background="new" fill="#AAD8F1"><path d="M145.635 49.24h1.6l1.546 6.644h.04l1.846-6.644h1.313l1.82 6.644h.038l1.547-6.644h1.443l-2.223 9.01h-1.56l-1.768-6.54h-.04l-1.82 6.54h-1.56l-2.222-9.01zM157.764 48.994h1.508v1.352h-1.508v-1.352zm.013 2.51h1.482v6.746h-1.483v-6.747zM160.767 51.503h1.43v.585h.065c.56-.416 1.39-.715 2.223-.715 1.313 0 1.977.546 1.977 1.858v5.02h-1.482v-4.667c0-.69-.246-.976-1.17-.976-.52 0-1.13.183-1.56.377v5.266h-1.482v-6.747zM167.89 51.503h1.43v.585h.065c.56-.416 1.392-.715 2.224-.715 1.312 0 1.975.546 1.975 1.858v5.02h-1.48v-4.667c0-.69-.248-.976-1.172-.976-.52 0-1.13.183-1.56.377v5.266h-1.48v-6.747zM174.637 54.96v-.18c0-2.276 1.38-3.407 3.082-3.407 1.975 0 2.846 1.13 2.846 3.275v.65h-4.394c.104 1.417.818 1.885 2.092 1.885.885 0 1.496-.194 2.08-.48v1.04c-.44.3-1.222.637-2.38.637-2.208 0-3.327-1.287-3.327-3.42zm1.535-.728h2.885c0-1.26-.467-1.755-1.364-1.755-.69 0-1.418.365-1.52 1.755zM181.645 51.503h1.43v.767h.064c.363-.468 1.053-.845 1.768-.845.183 0 .35.026.416.065v1.3c-.156-.026-.39-.04-.533-.04-.61 0-1.22.183-1.663.456v5.044h-1.48v-6.747zM188.26 55.013v-.208c0-2.17 1.314-3.432 3.2-3.432 2.026 0 3.185 1.234 3.185 3.38v.195c0 2.184-1.313 3.432-3.2 3.432-2.027 0-3.184-1.248-3.184-3.367zm4.863.065v-.325c0-1.77-.754-2.25-1.69-2.25-1.04 0-1.638.73-1.638 2.185v.338c0 1.742.74 2.224 1.677 2.224 1.04 0 1.65-.703 1.65-2.172zM196.126 52.646h-.937v-1.144h.936v-.858c0-1.47.923-2.12 2.21-2.12.585 0 1.014.118 1.248.223v1.014c-.17-.038-.468-.09-.884-.09-.702 0-1.093.325-1.093 1.104v.73h1.482v1.143h-1.483v5.604h-1.48v-5.604zM202.78 56.6v-3.953h-.91v-1.144h.91v-1.6h1.496v1.6h1.6v1.144h-1.6v3.73c0 .586.208.807.897.807.26 0 .56-.04.793-.104v.975c-.273.144-.624.286-1.248.286-1.17 0-1.937-.467-1.937-1.74zM207.02 48.643h1.48v3.42h.066c.546-.403 1.34-.69 2.17-.69 1.314 0 1.977.547 1.977 1.86v5.018h-1.48v-4.666c0-.69-.248-.976-1.172-.976-.52 0-1.13.183-1.56.377v5.266h-1.48v-9.607zM213.766 54.96v-.18c0-2.276 1.38-3.407 3.082-3.407 1.976 0 2.847 1.13 2.847 3.275v.65H215.3c.105 1.417.82 1.885 2.093 1.885.885 0 1.496-.194 2.08-.48v1.04c-.44.3-1.222.637-2.38.637-2.208 0-3.327-1.287-3.327-3.42zm1.535-.728h2.886c0-1.26-.467-1.755-1.364-1.755-.69 0-1.418.365-1.52 1.755zM223.348 49.24h3.146c2.106 0 3.16 1.002 3.16 2.757 0 1.897-1.197 2.873-3.07 2.873h-1.65v3.38h-1.585v-9.01zm2.937 4.42c1.223 0 1.703-.48 1.703-1.56 0-1.183-.48-1.612-1.664-1.612h-1.39v3.173h1.35zM230.613 56.404v-4.9h1.482v4.627c0 .742.273 1.04 1.118 1.04.61 0 1.104-.207 1.52-.415v-5.252h1.483v6.747h-1.273l-.13-.585h-.065c-.572.416-1.235.715-2.067.715-1.313 0-2.067-.65-2.067-1.976zM237.725 48.643h1.482v9.607h-1.482v-9.607zM240.74 48.994h1.508v1.352h-1.508v-1.352zm.014 2.51h1.48v6.746h-1.48v-6.747zM244.107 56.6v-3.953h-.91v-1.144h.91v-1.6h1.494v1.6h1.6v1.144h-1.6v3.73c0 .586.21.807.898.807.26 0 .56-.04.794-.104v.975c-.273.144-.625.286-1.248.286-1.17 0-1.937-.467-1.937-1.74zM247.98 57.184l3.395-4.498v-.04h-3.225v-1.143h5.03v1.014l-3.42 4.563v.04h3.395v1.13h-5.174v-1.066zM253.792 54.96v-.18c0-2.276 1.378-3.407 3.08-3.407 1.978 0 2.85 1.13 2.85 3.275v.65h-4.396c.104 1.417.818 1.885 2.093 1.885.883 0 1.494-.194 2.08-.48v1.04c-.443.3-1.223.637-2.38.637-2.21 0-3.328-1.287-3.328-3.42zm1.534-.728h2.886c0-1.26-.468-1.755-1.364-1.755-.69 0-1.418.365-1.522 1.755zM260.8 51.503h1.43v.767h.064c.364-.468 1.053-.845 1.77-.845.18 0 .35.026.415.065v1.3c-.157-.026-.392-.04-.534-.04-.61 0-1.223.183-1.664.456v5.044H260.8v-6.747zM267.975 49.24h3.146c2.106 0 3.16 1.002 3.16 2.757 0 1.897-1.196 2.873-3.07 2.873h-1.65v3.38h-1.585v-9.01zm2.937 4.42c1.223 0 1.703-.48 1.703-1.56 0-1.183-.48-1.612-1.664-1.612h-1.39v3.173h1.352zM275.28 51.503h1.43v.767h.065c.364-.468 1.054-.845 1.77-.845.182 0 .35.026.415.065v1.3c-.156-.026-.39-.04-.533-.04-.61 0-1.222.183-1.664.456v5.044h-1.48v-6.747zM279.908 48.994h1.508v1.352h-1.508v-1.352zm.014 2.51h1.48v6.746h-1.48v-6.747zM282.547 57.184l3.394-4.498v-.04h-3.223v-1.143h5.03v1.014l-3.42 4.563v.04h3.394v1.13h-5.173v-1.066zM288.358 54.96v-.18c0-2.276 1.378-3.407 3.08-3.407 1.978 0 2.85 1.13 2.85 3.275v.65h-4.396c.104 1.417.818 1.885 2.093 1.885.884 0 1.495-.194 2.08-.48v1.04c-.442.3-1.222.637-2.38.637-2.208 0-3.327-1.287-3.327-3.42zm1.535-.728h2.886c0-1.26-.47-1.755-1.365-1.755-.69 0-1.42.365-1.522 1.755z"/></g></svg>