<svg xmlns="http://www.w3.org/2000/svg" width="68" height="31" viewBox="-0.38 -1.8 136 62"><path fill="#059098" d="M118.7 0c-9.4 0-16.6 7.6-16.6 16.5 0 7.9 5.1 12.1 5.1 12.1.5.4.4.7 0 1 0 0-5.2 4.7-5.2 11.9 0 9.9 8 16.7 16.6 16.7 9.7 0 16.5-7.9 16.5-16.5 0-7.5-5-11.9-5-11.9-.7-.7-.7-.8 0-1.4 0 0 5-4.2 5-11.9.2-8.8-6.9-16.5-16.4-16.5zm-3.7 8.6c.5 0 .9.2 1.1.6.2-.4.7-.6 1.1-.6.5 0 1 .3 1.2.8.2-.5.7-.8 1.2-.8s1 .3 1.2.8c.2-.5.7-.8 1.2-.8.7 0 1.3.6 1.3 1.4s-.6 1.4-1.3 1.4c-.5 0-1-.3-1.2-.8-.2.5-.7.8-1.2.8s-1-.3-1.2-.8c-.2.5-.7.8-1.2.8s-.9-.2-1.1-.6c-.1.1-.2.3-.4.4.3.2.6.6.6 1.1 0 .5-.2.9-.6 1.1.3.2.6.6.6 1.1 0 .5-.2.9-.6 1.1l.3.3c.2-.3.6-.5 1.1-.5.5 0 .9.3 1.2.7.2-.4.7-.7 1.2-.7s.9.3 1.2.6c.2-.4.7-.6 1.2-.6.7 0 1.3.6 1.3 1.3 0 .7-.6 1.4-1.3 1.4-.5 0-.9-.3-1.2-.6-.2.4-.7.6-1.2.6s-.9-.3-1.2-.7c-.2.4-.7.7-1.2.7-.4 0-.8-.2-1.1-.5l-.3.3c.3.2.6.6.6 1.1 0 .5-.2.9-.6 1.1.3.2.6.6.6 1.1s-.2.9-.6 1.1c.1.1.3.2.4.4.2-.4.7-.6 1.1-.6.5 0 1 .3 1.2.8.2-.5.7-.8 1.2-.8s1 .3 1.2.8c.2-.5.7-.8 1.2-.8.7 0 1.3.6 1.3 1.4s-.6 1.4-1.3 1.4c-.5 0-1-.3-1.2-.8-.2.5-.7.8-1.2.8s-1-.3-1.2-.8c-.2.5-.7.8-1.2.8s-.9-.2-1.1-.6c-.2.4-.7.6-1.1.6-.7 0-1.3-.6-1.3-1.4 0-.5.2-.9.6-1.1-.4-.2-.6-.6-.6-1.1s.2-.9.6-1.1c-.4-.2-.6-.7-.6-1.1 0-.5.2-.9.6-1.1-.4-.2-.6-.7-.6-1.1s.2-.9.6-1.1c-.3-.2-.6-.6-.6-1.1 0-.5.2-.9.6-1.1-.3-.2-.6-.6-.6-1.1 0-.5.2-.9.6-1.1-.4-.2-.6-.6-.6-1.1 0-1.1.6-1.7 1.3-1.7zm0 25.1c.5 0 .9.2 1.1.6.2-.4.7-.6 1.1-.6.5 0 1 .3 1.2.8.2-.5.7-.8 1.2-.8s1 .3 1.2.8c.2-.5.7-.8 1.2-.8.7 0 1.3.6 1.3 1.4s-.6 1.3-1.3 1.3c-.5 0-1-.3-1.2-.8-.2.5-.7.8-1.2.8s-1-.3-1.2-.8c-.2.5-.7.8-1.2.8s-.9-.2-1.1-.6c-.1.1-.2.3-.4.4.4.2.6.7.6 1.1 0 .5-.2.9-.6 1.1.3.2.6.6.6 1.1 0 .5-.2.9-.6 1.1l.3.3c.2-.3.6-.5 1.1-.5.5 0 .9.3 1.2.7.2-.4.7-.7 1.2-.7s.9.3 1.2.6c.2-.4.7-.6 1.2-.6.7 0 1.3.6 1.3 1.4s-.6 1.4-1.3 1.4c-.5 0-.9-.3-1.2-.7-.2.4-.7.7-1.2.7s-.9-.3-1.2-.7c-.2.4-.7.7-1.2.7-.4 0-.8-.2-1.1-.5l-.3.3c.3.2.6.7.6 1.1 0 .5-.2.9-.6 1.1.4.2.6.7.6 1.1s-.2.9-.6 1.1c.1.1.3.2.4.4.2-.4.7-.6 1.1-.6.5 0 1 .3 1.2.8.2-.5.7-.8 1.2-.8s1 .3 1.2.8c.2-.5.7-.8 1.2-.8.7 0 1.3.6 1.3 1.3s-.6 1.4-1.3 1.4c-.5 0-1-.3-1.2-.8-.2.5-.7.8-1.2.8s-1-.3-1.2-.8c-.2.5-.7.8-1.2.8s-.9-.2-1.1-.6c-.2.4-.7.6-1.1.6-.7 0-1.3-.6-1.3-1.3 0-.5.2-.9.6-1.1-.4-.2-.6-.7-.6-1.1 0-.5.2-.9.6-1.1-.3-.2-.6-.6-.6-1.1s.2-.9.6-1.1c-.4-.2-.6-.6-.6-1.1 0-.5.2-.9.6-1.1-.3-.2-.6-.6-.6-1.1 0-.5.2-.9.6-1.1-.3-.2-.6-.6-.6-1.1 0-.5.2-.9.6-1.1-.3-.2-.6-.7-.6-1.1 0-1.1.6-1.7 1.3-1.7z"/><path fill="#676868" d="M10.2 20.4c-.1 1.5-.6 2.6-1.5 3.4-1.8 1.7-4.7 1.5-6.8.5v4.1c0 .3-.1.5-.3.7-.4.4-1 .4-1.3 0-.2-.2-.3-.5-.3-.7v-12c0-.7-.1-1.5.1-2.2.5-1.1 3-1.5 4-1.7 1.6-.2 3.4 0 4.6 1.2 1.8 1.8 1.5 4.4 1.5 6.7zm-1.9-3.2c-.3-3.5-3.9-3.7-6.4-2.1v7.3c1.5.9 4.1 1.5 5.5.1.8-.8.9-2.1.9-3.2 0-.5.1-1.3 0-2.1zm10.3-4.8c1.3 0 2.6.4 3.6 1.3.5.4.8.9 1.1 1.5.9 1.8.9 5.2 0 7.1-.3.6-.6 1.1-1.1 1.5-.5.4-1 .7-1.6 1-1.3.5-2.7.5-4 0-.6-.2-1.2-.6-1.6-1-.5-.4-.8-.9-1.1-1.5-.8-1.8-.8-5.3 0-7.1.3-.6.6-1.1 1.1-1.5.9-.9 2.3-1.3 3.6-1.3zm0 1.8c-1 0-1.8.3-2.3.8-.6.6-.9 1.3-1 2.1-.1 1-.1 2 0 3.1.1.9.4 1.7 1 2.2 1.2 1.1 3.4 1.1 4.6 0 .6-.6.9-1.3 1-2.2v-3.1c-.1-.9-.4-1.6-1-2.1-.6-.6-1.4-.8-2.3-.8zm16.4.5l-.1-.1-.1.1-1.3 5c-.3 1.2-.6 4.1-1.7 5-.6.5-1.5.5-2.1 0-.6-.4-.7-1.3-.9-2l-.9-3.4-1.5-5.6c-.1-.4-.1-.7.1-.9.3-.4.9-.5 1.3-.2s.5 1.2.6 1.7l.9 3.3c.5 1.8 1 3.6 1.4 5.3l.1.1.1-.1 1.3-5 .8-3.1c.2-.7.3-1.6.9-2.1.6-.5 1.5-.5 2.1 0 .6.5.7 1.3.9 2 .3 1.1.6 2.2.8 3.2l1.3 5 .1.1.1-.1c.4-1.7.9-3.4 1.3-5l.9-3.4c.1-.5.2-1.6.7-1.9.8-.7 1.7.3 1.5 1.2l-1.5 5.3c-.3 1.2-.6 2.3-1 3.5-.2.7-.3 1.6-.9 2.1-.6.5-1.5.5-2.1 0-1.1-.9-1.4-3.8-1.7-5l-.9-3.3-.5-1.7zm21.1 3.4c-.1.5-.1.7-.3 1-.4.4-3.1.4-4 .4h-4c0 1.1.1 2.2 1 2.9.8.7 1.9 1 2.9.9 1-.1 2.1-.8 3-.7 0 0 .5 0 .7.4s.1.7 0 .8c-.1.1-.2.3-.4.4-2.1 1.2-5.7 1.1-7.5-.6-.5-.4-.8-1-1-1.6-.8-1.9-.8-5 .1-6.9.3-.6.6-1.1 1.1-1.5.4-.4 1-.7 1.6-1 1.3-.5 2.8-.5 4.1 0 .6.2 1.2.6 1.6 1.1.4.4.8 1 1 1.6.2 1.4.2 2.3.1 2.8zm-2.1-.2c.2 0 .3-.1.3-.3 0-.5 0-1-.1-1.4-.1-.4-.3-.8-.6-1.1-.3-.3-.6-.6-1-.7-1.2-.5-3-.3-3.9.8-.6.7-.8 1.6-.8 2.8-.1-.1 6.1-.1 6.1-.1zm11.4-5.3c.7.2 1 .9.5 1.5-.5.7-1.9.1-2.6.1-.7 0-1.1.2-1.4.5-.9.9-.5 3.4-.5 4.6v4.6c0 .3-.1.5-.3.7-.6.6-1.6.2-1.6-.7v-4.9c0-1.8-.4-4.3 1-5.7 1.2-1.1 3.4-1.2 4.9-.7.5.2-.2 0 0 0zm12.8 5.5c0 .4-.1.7-.3 1-.5.6-3.1.4-4 .4h-4c0 1.1.1 2.2 1 2.9.7.6 1.6.9 2.5.9 1.1 0 2.3-.8 3.4-.7 0 0 .5.1.7.4s.1.7 0 .8c-.1.1-.2.3-.4.4-1.6.9-4.2 1-5.9.4-.6-.2-1.2-.6-1.6-1-.5-.4-.8-1-1.1-1.6-.8-1.9-.8-5 .1-6.9.3-.6.6-1.1 1.1-1.5.4-.4 1-.7 1.6-1 1.3-.5 2.8-.5 4.1 0 1.2.5 2.1 1.4 2.6 2.6.2 1.5.1 2.5.2 2.9zm-2.2-.2c.2 0 .3-.1.3-.3 0-.5 0-1-.1-1.4-.1-.4-.3-.8-.6-1.1-.3-.3-.6-.6-1-.7-1.3-.5-3-.3-3.9.8-.6.7-.8 1.6-.8 2.8-.1-.1 6.1-.1 6.1-.1zm5.3-.9c.1-1.5.6-2.6 1.4-3.4 1.8-1.7 4.8-1.4 6.8-.5v-3.9c0-.3.1-.5.3-.7.4-.4 1-.4 1.4 0 .2.2.3.4.3.7v11.8c0 .7.1 1.5-.1 2.3-.4 1-2.6 1.4-3.4 1.6-1.7.4-3.8.2-5.2-1.1-1.1-1.1-1.5-2.6-1.5-4.2v-2.6zm1.9 3.2c.3 3.4 3.9 3.7 6.4 2.1v-7.3c-1.4-.9-4.2-1.4-5.5-.1-1.3 1.3-.9 3.6-.9 5.3zm-39.4 20.8c.1 2.3.3 5-1.5 6.8-1.3 1.3-3.4 1.5-5.2 1.1-.8-.2-3.1-.6-3.4-1.6-.1-.5-.1-6.7-.1-6.7v-7.4c0-.8 1-1.3 1.6-.7.2.2.3.4.3.7v3.9c2.1-.9 5.1-1.3 6.8.5.9.8 1.4 2 1.5 3.4zm-1.9 3.2c.1-1.6.4-4-.8-5.3-1.3-1.4-4.1-.8-5.5.1v7.3c.9.6 2 1 3.1 1 1.9 0 3-1 3.2-3.1zm4.2-6.3c-.1-.4-.1-.7.1-.9.3-.4 1-.6 1.4-.2 1 .9 1.5 3.1 2 4.3.7 1.5 1.3 3 2 4.6.1.1.1.1.2 0 .6-1.5 1.2-2.9 1.7-4.4.4-.9.7-1.8 1.1-2.8.2-.5.4-1.3.8-1.6.4-.4 1.1-.2 1.4.2.2.3.2.6.1.9l-2.8 6.9c-1.1 2.7-2.2 6.6-4.8 8.2-.5.3-1.1.4-1.5 0-1.1-1 1.2-2.2 1.7-2.7.5-.6.9-1.3 1.2-2.3-.2 0-4.6-10.2-4.6-10.2zm44.3-5.4c.8 0 1.3 1 .7 1.6-.2.2-.4.3-.7.3h-7.8v5.4h7.6c.3 0 .5.1.7.3.4.3.3.9 0 1.3-.2.2-.4.3-.7.3h-7.6v5.3h7.7c.3 0 1.1.2 1.1.9s-.7 1-1.2 1h-7.9c-.5 0-.9-.2-1.2-.5-.6-.7-.4-2-.4-2.8v-9.6c0-.9-.1-2.4.4-3 .6-.6 1.5-.4 4.7-.5h4.6zm-14.6 0c.8 0 1.3 1 .7 1.6-.2.2-.4.3-.7.3h-7.8v5.4h7.6c.3 0 .5.1.7.3.4.3.3.9 0 1.3-.2.2-.4.3-.7.3h-7.6v5.3h7.7c.3 0 1.1.2 1.1.9s-.7 1-1.2 1h-7.9c-.5 0-.9-.2-1.2-.5-.6-.7-.4-2-.4-2.8v-9.6c0-.9-.1-2.4.4-3 .6-.6 1.5-.4 4.7-.5h4.6z"/></svg>