<svg xmlns="http://www.w3.org/2000/svg" width="39px" height="25px"><path d="M0,0 L0,25 L39,25 L39,0 L0,0 Z M11.78875,8.17925 C9.671,8.142 7.762,9.01775 6.4,10.4305 C6.3245,9.93275 6.279,9.42225 6.28775,8.89075 C6.35375,5.21775 9.7305,2.899 13.502,2.96475 L12.8565,2.08275 C6.9225,1.784 2.1805,6.42075 2.07975,12.19975 C1.97775,17.9805 5.428,22.72925 11.3645,22.834 L11.369,22.8145 C11.427,22.81875 11.4765,22.837 11.531,22.837 C15.57775,22.908 18.91575,19.6815 18.9875,15.636 C19.05875,11.58975 15.835,8.25125 11.78875,8.17925 Z M29.557,8.20825 C27.43925,8.17175 25.53025,9.0465 24.16725,10.45925 C24.0925,9.9615 24.0475,9.452 24.0565,8.9205 C24.122,5.24675 27.49875,2.92875 31.27125,2.99375 L30.62575,2.11175 C24.692,1.813 19.9495,6.4495 19.8475,12.22875 C19.74675,18.0095 23.1965,22.75825 29.13375,22.863 L29.1375,22.84425 C29.194,22.848 29.24475,22.86575 29.299,22.86575 C33.3465,22.937 36.68375,19.7105 36.756,15.665 C36.82625,11.61875 33.60425,8.28025 29.557,8.20825 Z" fill="#fff" fill-rule="evenodd"/></svg>