<svg xmlns="http://www.w3.org/2000/svg" width="24" height="24"><path fill="#333" d="M12.184 1c1.518 0 2.943.288 4.275.866 1.33.58 2.498 1.366 3.5 2.365 1.004.998 1.792 2.174 2.364 3.532.574 1.36.86 2.803.86 4.335 0 1.533-.286 2.97-.86 4.315-.572 1.344-1.36 2.514-2.363 3.51-1.002 1-2.17 1.786-3.5 2.364-1.333.578-2.758.868-4.276.868-1.69 0-3.252-.34-4.684-1.017-1.432-.678-2.65-1.608-3.652-2.792l-.6 3.81H2v-6.708l.473-.477h6.402v1.256l-3.61.605c.83 1.01 1.84 1.81 3.03 2.403 1.19.59 2.485.886 3.89.886 1.23 0 2.39-.237 3.48-.713 1.088-.475 2.04-1.123 2.857-1.94.816-.822 1.46-1.778 1.934-2.873.47-1.093.708-2.26.708-3.497s-.237-2.41-.708-3.52c-.473-1.106-1.118-2.07-1.934-2.89-.816-.82-1.77-1.467-2.858-1.942-1.09-.474-2.248-.712-3.48-.712-1.547 0-2.95.354-4.21 1.06-1.262.706-2.307 1.637-3.138 2.79l-.687.174-.86-.52-.13-.69c.974-1.472 2.248-2.648 3.825-3.53C8.56 1.44 10.295 1 12.185 1"/></svg>