<svg xmlns="http://www.w3.org/2000/svg" width="16px" height="20px"><g fill-rule="evenodd"><path d="M9.26587075 0.9 C4.27332893 0.9 1.8 4.4 1.8 7.4 C1.755875 9.2 2.4 10.8 3.9 11.4 C4.14844828 11.5 4.4 11.4 4.4 11.2 C4.48235814 11 4.6 10.5 4.6 10.3 C4.71881441 10.1 4.7 10 4.5 9.7 C4.07422015 9.2 3.8 8.6 3.8 7.7 C3.80380102 5 5.8 2.6 9 2.6 C11.7994308 2.6 13.3 4.4 13.3 6.7 C13.3498183 9.7 12 12.3 10 12.3 C8.91900598 12.3 8.1 11.4 8.4 10.2 C8.67566377 8.9 9.3 7.5 9.3 6.5 C9.28746226 5.6 8.8 4.9 7.9 4.9 C6.74643273 4.9 5.8 6.1 5.8 7.6 C5.84379069 8.6 6.2 9.3 6.2 9.3 C6.17886766 9.3 5 14.2 4.8 15 C4.42575336 16.7 4.8 18.8 4.8 19 C4.81264997 19.2 5 19.2 5 19.1 C5.14901076 19 6.5 17.3 6.9 15.7 C7.07135585 15.2 7.7 12.8 7.7 12.8 C8.0469422 13.5 9.1 14.1 10.2 14.1 C13.6267732 14.1 15.9 11 15.9 6.9 C15.918625 3.8 13.3 0.9 9.3 0.9" fill="#b9252c"/></g></svg>