<svg width="17px" height="17px" viewBox="0 0 17 17" version="1.1" xmlns="http://www.w3.org/2000/svg" >
    <g stroke="none" stroke-width="1" fill="#ffffff" fill-rule="evenodd">
        <path d="M8.50010119,-0.0160892857 C3.80425595,-0.0160892857 -0.0160892857,3.80425595 -0.0160892857,8.49989881 C-0.0160892857,10.3638274 0.586196429,12.0893274 1.60579167,13.493244 L0.542077381,16.6558512 L3.81457738,15.6077202 C5.15960119,16.4971845 6.77014881,17.0160893 8.50010119,17.0160893 C13.195744,17.0160893 17.0160893,13.1959464 17.0160893,8.49989881 C17.0160893,3.80425595 13.195744,-0.0160892857 8.50010119,-0.0160892857 Z M6.19255357,4.30394565 C5.98551786,3.80710042 5.77868452,3.88987423 5.63377976,3.88987423 C5.488875,3.88987423 5.32352976,3.86923137 5.15798214,3.86923137 C4.99243452,3.86923137 4.72347024,3.93115994 4.49579167,4.17968375 C4.26831548,4.42820756 3.62676786,5.02887423 3.62676786,6.25044565 C3.62676786,7.47221946 4.51643452,8.65270756 4.64069643,8.81825518 C4.76475595,8.98400518 6.35789881,11.5724576 8.88239881,12.5665528 C11.4066964,13.5604457 11.4066964,13.2289457 11.8618512,13.1876599 C12.317006,13.1461718 13.3309345,12.5869933 13.5377679,12.0073742 C13.7448036,11.4275528 13.7448036,10.9305052 13.6826726,10.8268861 C13.620744,10.7232671 13.454994,10.6613385 13.206875,10.5370766 C12.9585536,10.4128147 11.7377917,9.81214804 11.5101131,9.72937423 C11.2824345,9.64660042 11.1170893,9.60511232 10.9513393,9.85363613 C10.785994,10.1021599 10.309994,10.6613385 10.1650893,10.8268861 C10.0203869,10.9924337 9.87548214,11.013279 9.62716071,10.8892195 C9.37904167,10.7647552 8.57902976,10.5028742 7.63047024,9.65712423 C6.8923869,8.99898137 6.39392262,8.18601708 6.24922024,7.93749327 C6.10431548,7.68896946 6.23383929,7.55458851 6.35789881,7.43093375 C6.46981548,7.31962423 6.60622024,7.14092185 6.73048214,6.9958147 C6.85454167,6.85111232 6.89602976,6.74769565 6.97880357,6.58174327 C7.061375,6.41619565 7.02008929,6.27129089 6.95816071,6.14702899 C6.89602976,6.02276708 6.3993869,4.80099327 6.19255357,4.30394565 Z"></path>
    </g>
</svg>
