<svg width="30px" height="30px" viewBox="0 0 30 30" version="1.1" xmlns="http://www.w3.org/2000/svg" xmlns:xlink="http://www.w3.org/1999/xlink">
    <g id="Page-1" stroke="none" stroke-width="1" fill="none" fill-rule="evenodd">
        <path d="M14.8887273,7 C10.4687273,7 6.87272725,10.596 6.87272725,15.016 C6.87272725,16.77 7.43972725,18.395 8.39972725,19.716 L7.39772725,22.694 L10.4787273,21.706 C11.7447273,22.543 13.2607273,23.032 14.8887273,23.032 C19.3087273,23.032 22.9047273,19.436 22.9047273,15.016 C22.9047273,10.596 19.3087273,7 14.8887273,7 L14.8887273,7 Z M19.6307272,18.317 C19.4357272,18.864 18.4817272,19.389 18.0527273,19.428 C17.6247272,19.467 17.6247272,19.78 15.2487272,18.844 C12.8727273,17.909 11.3727273,15.472 11.2557272,15.315 C11.1387272,15.16 10.3017272,14.049 10.3017272,12.898 C10.3017272,11.749 10.9057272,11.184 11.1197273,10.949 C11.3337272,10.715 11.5867272,10.657 11.7427272,10.657 C11.8987273,10.657 12.0537272,10.677 12.1907273,10.677 C12.3277272,10.677 12.5217272,10.598 12.7167272,11.066 C12.9117273,11.534 13.3787273,12.684 13.4377273,12.801 C13.4957272,12.918 13.5347272,13.055 13.4567273,13.21 C13.3787273,13.367 13.3397272,13.464 13.2227273,13.6 C13.1057273,13.737 12.9777273,13.905 12.8727273,14.01 C12.7557272,14.126 12.6337272,14.253 12.7697272,14.487 C12.9067272,14.721 13.3757273,15.486 14.0707273,16.106 C14.9627273,16.901 15.7167272,17.148 15.9487273,17.265 C16.1837273,17.381 16.3207273,17.362 16.4557272,17.206 C16.5917272,17.051 17.0407272,16.524 17.1967272,16.289 C17.3517272,16.056 17.5077272,16.095 17.7227272,16.173 C17.9367273,16.25 19.0857273,16.817 19.3197272,16.934 C19.5527273,17.051 19.7087272,17.109 19.7677273,17.206 C19.8257272,17.303 19.8257272,17.772 19.6307272,18.317 L19.6307272,18.317 Z" id="Imported-Layers" fill="#FFFFFF"></path>
    </g>
</svg>