<svg xmlns="http://www.w3.org/2000/svg" width="15px" height="15px"><g stroke-width="1" fill="none" fill-rule="evenodd"><path d="M2.15418182 -0 C3.08527273 -0 3.8 0.7 3.8 1.7 C3.84209091 2.6 3.1 3.4 2.2 3.4 C1.22063636 3.4 0.5 2.6 0.5 1.7 C0.466 0.7 1.2 -0 2.2 -0 L2.15418182 -0 Z M0.697181818 4.6 L3.61090909 4.6 L3.61090909 14 L0.697181818 14 L0.697181818 4.6 Z M5.43754545 4.6 L8.23163636 4.6 L8.23163636 5.9 L8.27136364 5.9 C8.66027273 5.2 9.6 4.4 11 4.4 C13.9745455 4.4 14.5 6.4 14.5 8.9 L14.5189091 14 L11.6098182 14 L11.6098182 9.5 C11.6098182 8.4 11.6 7 10.1 7 C8.58036364 7 8.3 8.2 8.3 9.4 L8.34918182 14 L5.43754545 14 L5.43754545 4.6" fill="#0071A1"/></g></svg>