<svg width="48.4" height="51" viewBox="-0.4 0 48.4 51"><circle fill="#94B1CA" cx="24" cy="29" r="20"/><path fill="#005789" d="M24 9c11 0 20 9 20 20s-9 20-20 20S4 40 4 29 13 9 24 9m0-2C12 7 2 17 2 29s10 22 22 22 22-10 22-22S36 7 24 7z"/><path fill="#005789" d="M19 23c-1 0-1.8-.3-2.4-.8-.4.5-.6 1-.6 1.8 0 1.7 1.3 3 3 3s3-1.3 3-3c0-.7-.2-1.3-.6-1.8-.5.5-1.4.8-2.4.8zm10 0c-1 0-1.8-.3-2.4-.8-.4.5-.6 1-.6 1.8 0 1.7 1.3 3 3 3s3-1.3 3-3c0-.7-.2-1.3-.6-1.8-.5.5-1.4.8-2.4.8zm-5 7.6c-6.4 0-11.5 4.2-11.5 9.4l1 1h1l1-1c0-3.6 3.8-6.4 8.4-6.4 4.5 0 8.3 3 8.3 6.4l1 1h1l1-1c0-5.2-5-9.4-11.4-9.4z"/><path fill="#333" d="M45 15h-4c-4-5-10-8-17-8-6.8 0-13 3-17 8H2.6c-1.7 0-3 1.3-3 3s1.3 3 3 3H45c1.7 0 3-1.3 3-3s-1.3-3-3-3z"/></svg>
