<svg width="46" height="51" viewBox="0 0 46 51"><path fill="#94B1CA" d="M24 50C12.4 50 3 40.6 3 29S12.4 8 24 8s21 9.4 21 21-9.4 21-21 21z"/><path fill="#005789" d="M24 9c11 0 20 9 20 20s-9 20-20 20S4 40 4 29 13 9 24 9m0-2C12 7 2 17 2 29s10 22 22 22 22-10 22-22S36 7 24 7z"/><path fill="#005789" d="M31 32l-.4-.3h-.4l-.5-.2-16 4-.8 1.3.2 1 1.2.7 15.2-4L33 38h1.4l.6-.6V36z"/><circle fill="#005789" cx="31" cy="22" r="2.2"/><circle fill="#005789" cx="17" cy="22" r="2.2"/><path fill="#333" d="M42.4 17l-1.2-1.6-4.6 4.6c-.8-2.3-3-4-5.6-4-3 0-5.4 2.2-6 5h-2c-.6-2.8-3-5-6-5-2.6 0-4.8 1.7-5.6 4l-4.6-4.7L5.6 17l5.4 5.4c.2 3 2.8 5.6 6 5.6 3 0 5.4-2.2 6-5h2c.6 2.8 3 5 6 5 3.2 0 5.8-2.5 6-5.6l5.4-5.4zM17 26c-2.2 0-4-1.8-4-4s1.8-4 4-4 4 1.8 4 4-1.8 4-4 4zm14 0c-2.2 0-4-1.8-4-4s1.8-4 4-4 4 1.8 4 4-1.8 4-4 4z"/></svg>
