<svg width="48.4" height="51" viewBox="-0.4 0 48.4 51"><path fill="#94B1CA" d="M24 50C12.4 50 3 40.6 3 29S12.4 8 24 8s21 9.4 21 21-9.4 21-21 21z"/><path fill="#005789" d="M24 9c11 0 20 9 20 20s-9 20-20 20S4 40 4 29 13 9 24 9m0-2C11.9 7 2 16.8 2 29s9.9 22 22 22 22-9.9 22-22S36.1 7 24 7z"/><path fill="#B82166" d="M21.9 18.5c-1.2-1.2-3.3-1.2-4.5 0-1.2-1.2-3.3-1.2-4.5 0-.6.6-.9 1.4-.9 2.2 0 .8.3 1.6.9 2.2l3.4 3.4h2.2l3.4-3.4c.6-.6.9-1.4.9-2.2 0-.8-.3-1.6-.9-2.2zM35.1 18.5c-1.2-1.2-3.3-1.2-4.5 0-1.2-1.2-3.3-1.2-4.5 0-.6.6-.9 1.4-.9 2.2 0 .8.3 1.6.9 2.2l3.4 3.4h2.2l3.4-3.4c.6-.6.9-1.4.9-2.2 0-.8-.3-1.6-.9-2.2z"/><path fill="#005789" d="M34.5 32h-1l-1 .8c0 3.6-3.8 6.4-8.5 6.4s-8.5-2.7-8.5-6.3l-1-.8h-1l-1 .8c0 5.2 5.2 9.4 11.5 9.4s11.5-4.1 11.5-9.3l-1-1z"/><path fill="#333" d="M33.7 3.1c-1-2.7-7.5-2.7-15.2-.4v-.1C17.7.5 15.4-.5 13.3.3c-2.1.8-3.1 3.1-2.3 5.2 0 0 0 .1.1.1C3.8 9-.9 13.4.1 16.1c1.2 3.1 8.6-2.3 17.9-5.9 9.3-3.6 16.9-4 15.7-7.1z"/></svg>
