<svg width="48.4" height="51" viewBox="-0.4 0 48.4 51"><circle fill="#94B1CA" cx="24" cy="29" r="20"/><path fill="#005789" d="M24 9c11 0 20 9 20 20s-9 20-20 20S4 40 4 29 13 9 24 9m0-2C12 7 2 17 2 29s10 22 22 22 22-10 22-22S36 7 24 7z"/><path fill="#F6F5F5" d="M38 29c0 7.7-6.3 14-14 14s-14-6.3-14-14c0 0 6.3 4 14 4s14-4 14-4zm-23 2v10m6-9v11m6-11v11m6-12v10"/><path fill="#005789" d="M40 29l-3-1.7S31 31 24 31s-13-3.7-13-3.7L8 29c0 5.2 2.5 9.7 6.3 12.7 0 0 .2 0 .3.2 2.7 2 6 3 9.5 3 3.6 0 7-1.2 9.6-3 0-.2.2-.2.3-.3 3.5-3 6-7.5 6-12.7zm-2.2 0c0 3.8-2.2 7.3-4.2 9.8V31c2.5-1 4.2-2 4.2-2zm-6.3 11.5c-1 .8-3 1.5-4 2v-10c1 0 3-.5 4-1v9zm-16-8.8c1 .4 3 .7 4 1v9.8c-1-.4-3-1-4-2v-8.8zM9.8 29s1.4 1 4 2h-.2v7.8c-2-2.5-3.8-6-3.8-9.8zm11.7 13.8v-10l2 .2h2v9.8l-2 .2-2-.2zm4.5-21l1 1c2.4-2.6 5.3-2.6 7.5 0l1-1c-2.5-3.7-7-3.7-9.5 0m-13.5 0l1 1c2.4-2.6 5.3-2.6 7.5 0l1-1c-2.5-3.7-7-3.7-9.5 0"/><path fill="#45BCDF" d="M9.6 29.4c-1.8 1.2-4.3.7-5.5-1-1-2-.6-4.4 1.2-5.6 1.8-1.2 8.8-1 8.8-1s-2.6 6.4-4.4 7.6zm28.8 0c1.8 1.2 4.3.7 5.5-1 1-2 .6-4.4-1.2-5.6-1.8-1.2-8.8-1-8.8-1s2.6 6.4 4.4 7.6z"/></svg>
