<?xml version="1.0" encoding="utf-8"?>
<!-- Generator: Adobe Illustrator 16.0.1, SVG Export Plug-In . SVG Version: 6.00 Build 0)  -->
<!DOCTYPE svg PUBLIC "-//W3C//DTD SVG 1.1//EN" "http://www.w3.org/Graphics/SVG/1.1/DTD/svg11.dtd">
<svg version="1.1" id="Layer_1" xmlns="http://www.w3.org/2000/svg" xmlns:xlink="http://www.w3.org/1999/xlink" x="0px" y="0px"
	 width="60px" height="60px" viewBox="0 0 60 60" enable-background="new 0 0 60 60" xml:space="preserve">
<path d="M55,29.999c0,3.457-0.652,6.703-1.957,9.738c-1.305,3.031-3.082,5.689-5.334,7.973c-2.25,2.285-4.906,4.078-7.975,5.381
	c-3.064,1.305-6.326,1.959-9.783,1.959s-6.703-0.654-9.736-1.959c-3.033-1.303-5.675-3.096-7.927-5.381
	c-2.25-2.283-4.027-4.941-5.332-7.973c-1.305-3.035-1.957-6.281-1.957-9.738c0-3.455,0.652-6.703,1.957-9.736
	s3.082-5.689,5.332-7.973c2.252-2.285,4.894-4.076,7.927-5.381c3.033-1.307,6.279-1.959,9.736-1.959s6.719,0.652,9.783,1.959
	c3.068,1.305,5.725,3.096,7.975,5.381c2.252,2.283,4.029,4.939,5.334,7.973S55,26.544,55,29.999z M34.551,43.112
	c0-1.305-0.441-2.4-1.322-3.279c-0.881-0.881-1.975-1.32-3.277-1.32c-1.24,0-2.299,0.439-3.18,1.32
	c-0.881,0.879-1.322,1.975-1.322,3.279c0,1.24,0.441,2.297,1.322,3.182c0.881,0.881,1.939,1.32,3.18,1.32
	c1.303,0,2.396-0.439,3.277-1.32C34.109,45.409,34.551,44.353,34.551,43.112z M27.699,33.718h4.6l1.664-21.232l-1.664-1.762h-4.6
	l-1.662,1.762L27.699,33.718z"/>
</svg>
