<svg width="16" height="18" viewBox="0 0 16 18" fill="none" xmlns="http://www.w3.org/2000/svg">
<path d="M4.50586 4.25813C5.42633 4.25813 6.25967 3.63575 7.00586 2.39099L4.01141 0H3.26399L2.66636 2.39099L3.1 2.7281C3.82195 4.25818 3.6239 4.25813 4.50586 4.25813ZM11.5 4.25813C10.5795 4.25813 9.74619 3.63575 9 2.39099L11.7944 0H12.6419L13.2395 2.36272L13.3059 2.7281C12.5839 4.25818 12.382 4.25813 11.5 4.25813Z" fill="white"/>
<path d="M6.5 6.60002H1V3.40002L1.5 2.90002H6.5V6.60002ZM6.5 9.30002V16.9H2L1.5 16.4V9.30002H6.5ZM15 6.60002H9.5V2.90002H14.5L15 3.40002V6.60002ZM14.5 9.30002V16.4L14 16.9H9.5V9.30002H14.5Z" fill="white" stroke="white"/>
</svg>
