<svg width="24.4" height="20.5" viewBox="0 0 25 21"><path d="M6.5 19.5c-2.4 0-4.2-1.5-4.2-3.4 0-1.8 2.2-3.3 4.6-3.3.6 0 1.1.1 1.6.2 1.3.9 2.3 1.4 2.6 2.5.1.2.1.4.1.7-.1 1.9-1.3 3.3-4.7 3.3m.6-10.9c-1.6 0-3.2-1.8-3.5-4-.2-2.1.9-3.7 2.5-3.7 1.7.1 3.2 1.8 3.5 3.9.3 2.2-.8 3.9-2.5 3.8m3.4 3.2c-.6-.4-1.7-1.4-1.7-2 0-.7.2-1 1.2-1.8 1.1-.8 1.8-1.9 1.8-3.3 0-1.6-.7-3.3-2.1-3.6h2l1.6-1.1h-6.4c-2.8 0-5.5 2.2-5.5 4.7 0 2.6 1.9 4.6 4.8 4.6h.6c-.2.3-.3.7-.3 1.1 0 .7.4 1.3.8 1.8h-1.1c-3.5 0-6.2 2.3-6.2 4.6s3 3.7 6.5 3.7c4 0 6.3-2.3 6.3-4.6 0-1.8-.6-2.9-2.3-4.1"/><path d="M24.4 4.1h-4.3v-4.1h-.9v4.1h-4.1v1.1h4.1v4.1h.9v-4.1h4.3v-1.1z"/></svg>
