<svg viewBox="0 11 26 22" xmlns="http://www.w3.org/2000/svg"><path d="m7.03 21.978c.742 0 1.438.139 2.088.418.65.278 1.213.656 1.69 1.134.477.477.855 1.034 1.134 1.67.278.636.418 1.312.418 2.028 0 .742-.146 1.438-.438 2.088-.292.65-.689 1.213-1.193 1.69-.504.477-1.08.855-1.73 1.134-.65.278-1.346.418-2.088.418-.955 0-1.81-.186-2.565-.557-.756-.371-1.399-.862-1.929-1.472-.53-.61-.941-1.306-1.233-2.088-.292-.782-.438-1.571-.438-2.366 0-1.22.232-2.512.696-3.878.464-1.366 1.114-2.718 1.949-4.057.835-1.339 1.83-2.598 2.983-3.778 1.153-1.18 2.42-2.181 3.798-3l.676.636-7.04 10.739.199.199c.424-.318.902-.557 1.432-.716.53-.159 1.061-.239 1.591-.239m13.12 0c.742 0 1.438.139 2.088.418.65.278 1.213.656 1.69 1.134.477.477.855 1.034 1.134 1.67.278.636.418 1.312.418 2.028 0 .742-.146 1.438-.438 2.088-.292.65-.689 1.213-1.193 1.69-.504.477-1.08.855-1.73 1.134-.65.278-1.346.418-2.088.418-.955 0-1.81-.186-2.565-.557-.756-.371-1.399-.862-1.929-1.472-.53-.61-.941-1.306-1.233-2.088-.292-.782-.438-1.571-.438-2.366 0-1.22.232-2.512.696-3.878.464-1.366 1.114-2.718 1.949-4.057.835-1.339 1.83-2.598 2.983-3.778 1.153-1.18 2.42-2.181 3.798-3l.676.636-7.04 10.739.199.199c.424-.318.902-.557 1.432-.716.53-.159 1.061-.239 1.591-.239" fill-rule="evenodd"/></svg>
