<svg width="180" height="48" viewBox="0 0 180 48"><path fill="#000" d="M114 14.5c.4-2.6.7-5 1.2-7.9.6-2.2 2.5-2.9 4.8-2.8 3.4.5 8.8 1.7 11.2 2 .5 0 .2-1.1 1-1.2.3 0 .8.1 1.2.1 1.2.1 2.4.2 3.7.3.6 0 6.3.8 5.6-.1-.2-3.8-1.6-4.7.5-4.5l13.7 2.1c1.4.2 3.1.6 4.4.6 1.5-.1 2.5-1.3 4.2-1.6 1.5-.3 3 0 4.4.5 2.3 1 4 3.2 4.1 5.8 0 1.2-.2 2.5-.9 3.5-1.3 1.8-1.3 1.8-.6 3.6 1.5 3 2.2 7.2 3.7 7.2.9.2 3.2.7 3.6 1.5 0 .8-3.1 1-2.8 2.3.4 2.4.2 5.2-2.9 6.5-1.7.6-2.1.2-4.2-.8-2.3-1.1-2.5-.3-4.3.9-3.6 2.3-7.2 4.4-10.7 6.8-.8.6-3.5 2.6-4.2 2.4-.4-.1-.5-.5-.8-.6-1-.4-2.3-.7-3.4-1-4.3-1.2-3.9-1.9-5.5-1.4-.6.2-4.9 3-6.4 4-3.5 1.6-5.1 4.4-7.5 3.6-3.8-1.4-7.6-2.5-11.4-3.8-4.6-1.7-4.2-1.1-6.7.5l-3.6 2.3-1.9 1.2c-2.5 1.8-2 1.4-4 .6-4.7-1.5-16.1-4.8-19-5.9-4.5-1.6-4.3-2.1-6.7-.6-2.8 1.8-5.6 3.5-8.4 5.2-2.3-2-13-4.4-15.3-5.5-.8-.3-2.2-1-3-.4-2.5 1.5-5.1 3.3-7.3 4.7-.8.5-1.6 1.1-2.5 1.6-1.2.8-2.5-.1-3.7-.5-4-1.3-26.3-8.2-29-9.5-.5-.2-4.9-1.4-4-2.3 4.1-2.7 10.3-6.3 15.3-9.5 3-1.9 22.5-14.1 24.2-15 .6-.3.9-1 1.5-1.2.9-.2 2 .3 2.8.6 3.6 1.2 7.2 2.2 10.7 3.4 1.5.5 4.8 1.9 5.7 1.6 2.8-1.5 5.9-3.5 8.3-5 1.6-1 1.3-1.8 3.7-.8 1.9.7 3.8 1.3 5.7 1.9 4.1 1.3 8.1 2.7 12.2 3.9 3 .8 3.3 2 4.9.9 1.5-1 3-1.9 4.7-3 1.5-1.3 1.7-1.5 3.8-.6 2.2.8 4.4 1.3 6.6 2 1 .6 2.1 1.3 3.3 1.4z"/><path fill="#fff" d="M65.4 44c1.1.1 8.2-4.6 8.1-5-1-.8-3.7-1.3-5-1.7-3.9-1.7-3.2-.8-4.3-1.5-.8-.4-.9-1.2-.1-1.6 9.1-5.6 18.9-11.8 28.5-17.6.5-.3.5-.8-.1-.9-4.2-1.3-8.4-2.6-12.6-4l-5.2-1.7c-1.1-.3-2.8-1.2-3.9-.9-1.2.3-2.4 1.3-3.4 2l-15.1 9.5c-7.3 4.8-21 12.6-19.6 12.5.1.3 3.6 1.3 4.4 1.6 3.4 1.1 6.8 2.3 10.3 3.2 3.9 1 7.5 2.7 11.3 3.7 1.8.4 4.6 1.2 6.7 2.4zM153.5 23.5c-1.6-.6-4.9-.9-6.4-1.1-1.7.7-2.8-1.8-6.7-6.4-.3-.3-.7-.2-.8.1-1.2 2.5-.9 5.3-2.4 6-.6.3-1.5.3-2.2.6l-13.4 4c-1.4.2-4.8 1.8-4.9.9-.6-.9 2.6-1 5.1-2 2.1-.6 9.2-2.8 11.3-3.5 1.9-.6 3.2-.3 3.9-2.9.4-1.4 1.2-3.5 1.4-5-.2-.9-2.9-3.6-3.9-4.8-2.2-2.9-2.8-2.5-5.4-2.9l-4-.6c-3.6-.6-9.4-2.5-9.2 2.6-.4 3.1-.8 6.2-1.2 9.2-.2 1.7-.4 3.3-.7 5l-.5 4c-.2 1.7 1.2 1.6 2.6 2.1 8.1 2.1 15.8 5.4 23.8 7.6 3.2.9 6.2 2.1 9.8 3.3.4.2.7.6 1.1.5.9-.3 2.1-1.3 3.2-2.2 3.1-2.3 11.3-7.5 12.4-7.7-.5-.5-5-3-5.4-2.2-.9.8-1.8 1.8-2.5 2.5-1.2 1.2-2.4 2.5-3.9 3.3-1.7-1.1-3.2-2.6-4.7-4-1-1-2.6-.8-.9-2.2 1.7-1.1 3-2.7 4.5-4.2zM58.6 15.2c-.3-.9-2.8-1.3-3.5-1.5-2.4-.8-4.8-1.5-7.1-2.3-2.4-.8-5.2-2.5-7.6-.8-3 2-6 3.9-9.1 5.8-5.6 3.5-11.1 7-16.8 10.4-2.8 1.7-5.5 3.5-8.2 5.2-1.6 1.2-3.6 1.5-3.6 2.5 7.8 2.3 15.4 5 23.1 7.5 3.2 1.2 5.7 1.8 9.5 3 1.3.6 2.7-.9 3.6-1.5 2-1.3 4.4-2.5 6.7-4.3-1.8-1.2-4.2-1.7-6-2.3-7.7-2.7-8.6-1.9-8.5-3.9-.3-1.3 5.1-3.8 5.9-4.3l7.4-4.5c4.7-2.9 9.2-5.7 14.4-9.1l-.2.1zM113.8 16.2c.2-1.4-.7-.7-8-3.2-3.2-1.1-3-1.4-5-.1-1.7 1.1-3.5 2.1-5.1 3.3-4.2 2.4-6.3 3.8-9.4 5.8-2.9 1.8-5.8 3.6-8.8 5.3-2.8 1.6-5.5 3.4-8.2 5.1-.5.3-3.3 1.9-3.4 2.3.2.8 4.7 1.8 5.5 2.1 6 1.9 12 3.9 17.9 5.8l4.5 1.5c4.2 1.1 6.8 2.9 7.6 1.9 2.5-1.5 5.1-3.3 7.4-4.8.5-.3.5-.7-.1-.8-2.5-.8-5.1-1.6-7.6-2.5l-6-2c-.7-.2-1.4-.4-2.1-.7l-2-.2c-1.4-.7 2.5-2.7 2.9-3 2.1-1.3 4.2-2.5 6.4-3.8 3.5-2.1 13.2-7.9 12.8-8.2.6-1.3.7-3.8.7-3.8zM93.7 34.2c8.9 2.7 17.3 5.6 25.8 8.3 2.4.8 4.9 1.8 7.4 2.3 2.1.5 4-1.5 5.6-2.6 1.5-1 6.4-3.5 6.6-4.3 0-.4-9.7-3.5-10.3-3.7-3.9-1.3-8.2-2.1-12-3.7-2.7-1.3-4.7-.8-4.6-1.9l.8-6.6c-1.2.4-2.5 1.4-3.3 1.9l-7.2 4.3c-2.6 1.8-6.9 4.1-8.8 6zM175.5 26.8c.4-1.2-1.2-3.9-1.8-5.4-.7-1.9-1.3-3.9-2.2-5.7-.9-1.8-.8-3.1-2.2-2.5-1.3.6-2.5.3-3.3 1-.8-.2 2.6 7.5 3 8.5.2.8-.2 1.4-1 1.2-2.9 0-7.7-4.7-11.3-1.2-1.6 1.9-7.6 6.1-6.3 6.8.8.8 2.8 2.8 3.9 3.2.5-.1 1.7-1.5 2.2-1.9l3.5-3.3c.4-.4.9-.5 1.7-.4 1.9.8 4.7 2 6.8 2.8 1.4.6 3.4 2 4.9 1.1 1.5-1 2.1-2.6 2.1-4.2zM143.8 1.9c0 1.3.2 2.6.4 4s.6 4 1.1 5.4c1.1 1 2.8 1.6 4 2.2l4.7 2.5c1.3.7 2.5-.2 3.7-.6l5.3-1.9c-.6-.6-1.3-1.3-1.9-2-.4-.5-1-2.7-1.2-2.7-.6-.3-1 .2-1.4-.6 0-.8.6-.4 1-.9.7-.3 1.3-2.2 1.3-3-5.7-.9-17-2.4-17-2.4zM164.9 15.3c-.2-1.6-2.4-.2-6.6 1.2-1 .4-2.1 1-3.2 1.4-.6 0-2-1-2.6-1.3-2.2-.7-6.4-3.6-6.9-3 0 .5 1.2 5.9.2 5.6-.9 0-.8-2.8-1.2-4.4-.1-.7-.2-1.4-.5-2-.4-1-2.4-.9-1.8-2.3.6-.7 1.5.4 1.4-.9-.1-1.5.1-2.9-1.6-2.9-1-.2-8.4-.9-8.4-.5-.2.2 2.6 3.4 3.3 4.2.7.8 1.3 1.6 2 2.3 1.8 2.2 3.7 4.4 5.5 6.5.6.7 1.2 2 2.1 2.1 2.6.3 4.6.5 7.6 1 1.2.2 1.6-.4 2.4-1.1 1.1-.8 2.5-1.1 3.9-1.2 1.2 0 2.2.6 3.2 1 1.9.5 3.3 1.7 3.9 1.2-.2-.4-1.9-3.3-2.7-6.9zM161.8 6.5c.7-.2 4.4-1.4 4.7-.5.6 1.6-5.3 1-5 3 .4 2.2 1.8 3.3 3.4 3.9 1.1 0 1.9-.3 2.9-.5.9-.3 1.9-.1 2.6-.6 3-2 2.3-6.9-.9-8.7-3.2-1.8-7.4.1-7.8 3.5v-.1zM176.3 24.1c.2 0 .7-.4.7-.5.1-.2-.6-.5-.9-.5 0 0-.2.1-.2.2.1.3.1.7.4.8z"/><path fill="#E6711B" d="M64.9 17.5c1.3-.8 2.6-1.5 3.8-2.5.5-.4 1.2-.5 1.9-.2 1.1.6 2.3.9 3.5 1.2 1.2.4 2.3.9 3.4 1.7-.6.6-1.2 1.1-1.9 1.6-.9.5-1.7 1-2.5 1.7-.5.2-.9.3-1.2.1-1.6-.8-3.4-1.1-5-1.7-1-.3-3.2-1.3-3-1.1l1-.8zm-15-1.6c0 .5-.5.8-.8 1l-4.2 2.6c-.4.2-.6.2-1 0-1-.5-2-.9-3-1.1-.9-.1-1.3-.9-2-1.1-.3-.1-.2-.4 0-.6 0-.1.1-.2.2-.2l4-2.4c.4-.2.8-.4 1.2-.2 1.8.6 3.8.9 5.6 2zm55.9 4.8c-.8.5-1.5 1.1-2.3 1.4-.8.2-1.7-.6-2.5-.9-1.2-.4-2.6-.6-3.7-1.4h-.1c-.4 0-.8.3-.9-.2 0-.4.4-.6.7-.8l4.4-2.8c.4-.2.8-.3 1.2-.2 1.6.3 3 .9 4.5 1.5.5.1 1.5 1.3 1.5 1.3-.6.8-1.9 1.4-2.8 2.1z"/></svg>
