<svg xmlns="http://www.w3.org/2000/svg" width="36" height="36" viewBox="0 0 36 36">
  <g fill="none">
    <path fill="#000" d="M17.9807294,0 C8.05044706,0 0,8.05002353 0,17.9805176 C0,27.9112235 8.05044706,35.9610353 17.9807294,35.9610353 C27.9114353,35.9610353 35.9612471,27.9110118 35.9612471,17.9805176 C35.9612471,8.05002353 27.9114353,0 17.9807294,0"/>
    <path fill="#FFF" d="M21.1620706 4.44134118C23.4914824 4.81277647 26.4561882 6.40948235 27.5150118 7.54305882L27.5150118 12.7058824 26.8701882 12.7058824 21.1620706 5.01903529 21.1620706 4.44134118zM19.0444235 4.76745882C19.0444235 4.76745882 19.0060941 4.76724706 18.9876706 4.76724706 14.9082353 4.76724706 12.6914824 10.4162824 12.6914824 18.0366353L12.6914824 18.0641647C12.6914824 25.6845176 14.9084471 31.3337647 18.9876706 31.3337647 19.0060941 31.3337647 19.0444235 31.3335529 19.0444235 31.3333412L19.0444235 31.9205647C12.9032471 32.3407059 4.64442353 27.6611294 4.85618824 18.0641647L4.85618824 18.0366353C4.64442353 8.43988235 12.9032471 3.76030588 19.0444235 4.18023529L19.0444235 4.76745882zM29.4208941 19.2324706L27.5150118 20.0687294 27.5150118 28.6953882C26.4561882 29.6976706 23.7032471 31.2600706 21.1620706 31.7971059L21.1620706 31.1704941 21.1620706 29.9941412 21.1620706 19.8806824 19.0444235 19.1784706 19.0444235 18.6352941 29.4208941 18.6352941 29.4208941 19.2324706z"/>
  </g>
</svg>
