<svg  width="42" height="42" viewBox="0 0 42 42" xmlns="http://www.w3.org/2000/svg" aria-hidden="true" focusable="false">
    <g fill="none" fill-rule="evenodd">
    <path d="M21 0C9.402 0 0 9.402 0 21c0 11.597 9.402 21 21 21s21-9.403 21-21C42 9.402 32.598 0 21 0" fill="#121212"/>
    <path d="M24.15 5.269c3.287.423 6.887 2.245 8.296 3.537v5.942h-.743l-7.553-8.82v-.659zM22.57 5.968h-.084c-4.933 0-7.775 6.442-7.63 15.131v.032c-.145 8.69 2.697 15.132 7.63 15.132h.083v.669c-7.422.48-17.463-4.857-17.317-15.8v-.033C5.106 10.157 15.147 4.82 22.569 5.3v.669z" fill="#ffffff"/>
    <path d="M34.72 22.795l-2.384.954v9.837c-1.342 1.143-4.621 2.925-7.901 3.538v-13.59l-2.385-.801v-.603h12.67v.665z" fill="#ffffff"/></g>
</svg>
