<svg width="13.314" height="8.403" viewBox="0 0 13.314 8.403"><path d="M2.278 8.117l-.286.286A5.402 5.402 0 0 1 0 4.201C0 2.496.777.996 1.992 0l.286.286C1.446 1.377.927 2.728.927 4.201c0 1.474.519 2.824 1.351 3.916zm1.309-1.624l-.368.355a3.677 3.677 0 0 1-1.091-2.647c0-1.037.396-1.991 1.091-2.646l.368.341c-.45.655-.709 1.432-.709 2.305s.259 1.651.709 2.292zm3.07-.109a2.172 2.172 0 0 1-2.183-2.183c0-1.214.969-2.183 2.183-2.183s2.183.969 2.183 2.183a2.172 2.172 0 0 1-2.183 2.183zm0-3.547c-.777 0-1.364.614-1.364 1.364 0 .75.587 1.364 1.364 1.364.737 0 1.364-.614 1.364-1.364 0-.75-.627-1.364-1.364-1.364zm3.083-.941l.341-.341c.695.655 1.104 1.609 1.104 2.646a3.689 3.689 0 0 1-1.104 2.646l-.341-.354c.437-.641.696-1.419.696-2.292s-.26-1.65-.696-2.305zm1.268-1.61L11.322 0a5.405 5.405 0 0 1 1.992 4.201 5.406 5.406 0 0 1-1.992 4.202l-.314-.286c.873-1.091 1.351-2.442 1.351-3.916 0-1.473-.478-2.824-1.351-3.915z"/></svg>
