<svg width="14" height="14" viewBox="0 0 14 14" fill="none"><path fill-rule="evenodd" clip-rule="evenodd" d="M11.48 11.594A6.393 6.393 0 0 1 7 13.418a6.4 6.4 0 0 1-4.483-1.828l.84-3.246.532-.54a9.084 9.084 0 0 1 3.11-.515c1.128 0 2.075.184 3.112.516l.518.539.851 3.25zm.196.617A6.983 6.983 0 0 0 14 7a7 7 0 0 0-7-7 7 7 0 0 0-4.649 12.234A6.98 6.98 0 0 0 7 14a6.972 6.972 0 0 0 4.676-1.79zM7 6.234c.946 0 2.061-1.082 2.061-2.398 0-1.32-.765-2.086-2.061-2.086-1.296 0-2.048.766-2.048 2.086 0 1.316 1.205 2.398 2.048 2.398z" fill="#121212"/></svg>
