<svg xmlns="http://www.w3.org/2000/svg" viewBox="0 0 14 14"><path d="M7 0C3.1 0 0 3.1 0 7c0 2 .9 3.9 2.4 5.2C3.6 13.4 5.3 14 7 14s3.4-.6 4.7-1.8C13.2 10.9 14 9 14 7c0-3.9-3.1-7-7-7zm0 1.8c1.3 0 2.1.8 2.1 2.1S8 6.3 7 6.3c-.8 0-2-1.1-2-2.4 0-1.4.7-2.1 2-2.1zm0 11.6c-1.7 0-3.3-.7-4.5-1.8l.8-3.2.5-.5c1-.4 2.1-.5 3.1-.5 1.1 0 2.1.2 3.1.5l.5.5.9 3.2c-1.1 1.2-2.7 1.8-4.4 1.8z"/><path d="M9.6 4.2c.1-.1.1-.1 0 0zM9.7 4.2s0-.1 0 0c0-.1 0-.1 0 0 0-.1 0-.1 0 0 0-.1 0-.1 0 0zm0 0c0-.1 0-.1 0 0 0-.1 0-.1 0 0 0-.1 0-.1 0 0 0-.1 0 0 0 0zM9.8 4.2c0-.1 0-.1 0 0 0-.1 0-.1 0 0 0-.1 0-.1 0 0 0-.1 0-.1 0 0 0-.1 0-.1 0 0 0-.1 0-.1 0 0 0-.1 0-.1 0 0zM9.8 4.2zM9.9 4.1c0 .1 0 .1 0 0 0 .1 0 .1 0 0 0 .1 0 .1 0 0 0 .1 0 .1 0 0 0 0 0 .1 0 0 0 .1 0 .1 0 0zm0 0c0 .1 0 .1 0 0 0 .1 0 0 0 0zM9.9 4.1c.1 0 .1 0 0 0 .1 0 .1 0 0 0 .1 0 .1 0 0 0 .1 0 0 0 0 0 .1 0 .1 0 0 0 .1 0 .1 0 0 0 .1 0 0 0 0 0s.1 0 0 0c.1 0 .1 0 0 0 .1 0 .1 0 0 0 .1 0 .1 0 0 0 .1 0 .1 0 0 0 .1 0 .1 0 0 0zM10 4.1zM10.1 4.1c-.1 0-.1 0 0 0zm0 0zM10.1 4.1zM10.2 4.1s-.1 0 0 0c-.1 0-.1 0 0 0-.1 0-.1 0 0 0-.1 0-.1 0 0 0-.1 0-.1 0 0 0zm-.1 0c.1 0 .1 0 0 0 .1 0 .1 0 0 0zM10.3 4.1c-.1 0-.1 0 0 0-.1 0-.1 0 0 0-.1 0-.1 0 0 0-.1 0-.1 0 0 0-.1 0-.1 0 0 0-.1-.1-.1-.1 0 0-.1-.1-.1-.1 0 0-.1-.1-.1-.1 0 0-.1-.1-.1 0 0 0-.1-.1-.1-.1 0 0-.1-.1-.1-.1 0 0-.1-.1-.1-.1 0 0-.1-.1-.1-.1 0 0-.1 0-.1 0 0 0-.1 0-.1 0 0 0-.1 0-.1 0 0 0-.1 0-.1 0 0 0zM10.3 4.1s0-.1 0 0c0-.1 0-.1 0 0 0-.1 0-.1 0 0 0-.1 0-.1 0 0 0-.1 0-.1 0 0 0-.1 0-.1 0 0 0-.1 0-.1 0 0zm0 0c0-.1 0-.1 0 0 0-.1 0-.1 0 0 0-.1 0-.1 0 0 0-.1 0-.1 0 0zM10.4 4.1c-.1-.1-.1-.1 0 0-.1-.1-.1-.1 0 0-.1-.1-.1-.1 0 0-.1-.1-.1-.1 0 0zM10.4 4.1c0-.1 0-.1 0 0 0-.1 0-.1 0 0 0-.1 0-.1 0 0 0-.1 0 0 0 0 0-.1 0-.1 0 0 0-.1 0-.1 0 0 0-.1 0-.1 0 0 0-.1 0-.1 0 0 0-.1 0-.1 0 0 0-.1 0-.1 0 0 0-.1 0 0 0 0zm0-.1z"/></svg>