<?xml version="1.0" encoding="utf-8"?>
<!-- Generator: Adobe Illustrator 22.1.0, SVG Export Plug-In . SVG Version: 6.00 Build 0)  -->
<svg version="1.1" id="Layer_1" xmlns="http://www.w3.org/2000/svg" xmlns:xlink="http://www.w3.org/1999/xlink" x="0px" y="0px"
	 viewBox="0 0 14 14" style="enable-background:new 0 0 14 14;" xml:space="preserve">
<g>
	<path d="M7,0C3.1,0,0,3.1,0,7c0,2,0.9,3.9,2.4,5.2C3.6,13.4,5.3,14,7,14s3.4-0.6,4.7-1.8C13.2,10.9,14,9,14,7C14,3.1,10.9,0,7,0z
		 M7,1.8c1.3,0,2.1,0.8,2.1,2.1S8,6.3,7,6.3c-0.8,0-2-1.1-2-2.4C5,2.5,5.7,1.8,7,1.8z M7,13.4c-1.7,0-3.3-0.7-4.5-1.8l0.8-3.2
		l0.5-0.5c1-0.4,2.1-0.5,3.1-0.5C8,7.4,9,7.6,10,7.9l0.5,0.5l0.9,3.2C10.3,12.8,8.7,13.4,7,13.4z"/>
	<g>
		<path d="M9.6,4.2L9.6,4.2L9.6,4.2C9.7,4.1,9.7,4.1,9.6,4.2L9.6,4.2L9.6,4.2L9.6,4.2L9.6,4.2L9.6,4.2L9.6,4.2L9.6,4.2L9.6,4.2
			L9.6,4.2z"/>
		<path d="M9.7,4.2L9.7,4.2C9.7,4.2,9.7,4.2,9.7,4.2C9.7,4.2,9.7,4.2,9.7,4.2C9.7,4.2,9.7,4.2,9.7,4.2C9.7,4.2,9.7,4.2,9.7,4.2
			C9.7,4.2,9.7,4.1,9.7,4.2C9.7,4.1,9.7,4.1,9.7,4.2C9.7,4.1,9.7,4.1,9.7,4.2C9.7,4.1,9.7,4.1,9.7,4.2C9.7,4.2,9.7,4.2,9.7,4.2
			L9.7,4.2C9.7,4.2,9.7,4.2,9.7,4.2C9.7,4.2,9.7,4.2,9.7,4.2C9.7,4.2,9.7,4.2,9.7,4.2C9.7,4.2,9.7,4.2,9.7,4.2z M9.7,4.2L9.7,4.2
			C9.7,4.1,9.7,4.1,9.7,4.2C9.7,4.1,9.7,4.1,9.7,4.2C9.7,4.1,9.7,4.1,9.7,4.2C9.7,4.1,9.7,4.2,9.7,4.2z"/>
		<path d="M9.8,4.2L9.8,4.2L9.8,4.2L9.8,4.2L9.8,4.2L9.8,4.2C9.8,4.1,9.8,4.1,9.8,4.2C9.8,4.1,9.8,4.1,9.8,4.2
			C9.8,4.1,9.8,4.1,9.8,4.2C9.8,4.1,9.8,4.1,9.8,4.2L9.8,4.2C9.8,4.1,9.8,4.1,9.8,4.2C9.8,4.1,9.8,4.1,9.8,4.2
			C9.8,4.1,9.8,4.1,9.8,4.2L9.8,4.2L9.8,4.2L9.8,4.2L9.8,4.2L9.8,4.2L9.8,4.2z"/>
		<path d="M9.8,4.2L9.8,4.2L9.8,4.2L9.8,4.2L9.8,4.2C9.8,4.2,9.8,4.2,9.8,4.2L9.8,4.2L9.8,4.2L9.8,4.2L9.8,4.2L9.8,4.2L9.8,4.2
			L9.8,4.2L9.8,4.2L9.8,4.2L9.8,4.2L9.8,4.2L9.8,4.2L9.8,4.2z"/>
		<path d="M9.9,4.1C9.9,4.2,9.9,4.2,9.9,4.1C9.9,4.2,9.9,4.2,9.9,4.1C9.9,4.2,9.9,4.2,9.9,4.1C9.9,4.2,9.9,4.2,9.9,4.1
			C9.9,4.1,9.9,4.1,9.9,4.1C9.9,4.1,9.9,4.1,9.9,4.1C9.9,4.1,9.9,4.1,9.9,4.1C9.9,4.1,9.9,4.1,9.9,4.1C9.9,4.1,9.9,4.1,9.9,4.1
			C9.9,4.1,9.9,4.1,9.9,4.1C9.9,4.1,9.9,4.1,9.9,4.1C9.9,4.1,9.9,4.1,9.9,4.1C9.9,4.1,9.9,4.1,9.9,4.1C9.9,4.1,9.9,4.1,9.9,4.1
			L9.9,4.1C9.9,4.1,9.9,4.1,9.9,4.1C9.9,4.1,9.9,4.1,9.9,4.1C9.9,4.1,9.9,4.1,9.9,4.1C9.9,4.1,9.9,4.1,9.9,4.1
			C9.9,4.1,9.9,4.1,9.9,4.1C9.9,4.1,9.9,4.1,9.9,4.1C9.9,4.1,9.9,4.1,9.9,4.1L9.9,4.1C9.9,4.1,9.9,4.1,9.9,4.1
			C9.9,4.1,9.9,4.2,9.9,4.1L9.9,4.1C9.9,4.2,9.9,4.2,9.9,4.1z M9.9,4.1C9.9,4.1,9.9,4.1,9.9,4.1C9.9,4.1,9.9,4.1,9.9,4.1
			C9.9,4.1,9.9,4.1,9.9,4.1C9.9,4.1,9.9,4.1,9.9,4.1C9.9,4.1,9.9,4.1,9.9,4.1C9.9,4.2,9.9,4.2,9.9,4.1C9.9,4.2,9.9,4.1,9.9,4.1
			C9.9,4.1,9.9,4.1,9.9,4.1C9.9,4.1,9.9,4.1,9.9,4.1L9.9,4.1z"/>
		<path d="M9.9,4.1L9.9,4.1C9.9,4.1,9.9,4.1,9.9,4.1C9.9,4.1,9.9,4.1,9.9,4.1C10,4.1,10,4.1,9.9,4.1C10,4.1,10,4.1,9.9,4.1
			C10,4.1,10,4.1,9.9,4.1C10,4.1,9.9,4.1,9.9,4.1C9.9,4.1,9.9,4.1,9.9,4.1C9.9,4.1,9.9,4.1,9.9,4.1C9.9,4.1,9.9,4.1,9.9,4.1
			C9.9,4.1,9.9,4.1,9.9,4.1C9.9,4.1,9.9,4.1,9.9,4.1C9.9,4.1,9.9,4.1,9.9,4.1C9.9,4.1,9.9,4.1,9.9,4.1C9.9,4.1,9.9,4.1,9.9,4.1
			C10,4.1,10,4.1,9.9,4.1C10,4.1,10,4.1,9.9,4.1L9.9,4.1C10,4.1,9.9,4.1,9.9,4.1C9.9,4.1,9.9,4.1,9.9,4.1C9.9,4.1,9.9,4.1,9.9,4.1
			C9.9,4.1,9.9,4.1,9.9,4.1C9.9,4.1,9.9,4.1,9.9,4.1C9.9,4.1,9.9,4.1,9.9,4.1C9.9,4.1,9.9,4.1,9.9,4.1C9.9,4.1,10,4.1,9.9,4.1
			C10,4.1,10,4.1,9.9,4.1C10,4.1,10,4.1,9.9,4.1C10,4.1,10,4.1,9.9,4.1C10,4.1,10,4.1,9.9,4.1C10,4.1,10,4.1,9.9,4.1
			C9.9,4.1,9.9,4.1,9.9,4.1C9.9,4.1,9.9,4.1,9.9,4.1z"/>
		<path d="M10,4.1L10,4.1L10,4.1L10,4.1C10,4.1,10,4.1,10,4.1C10,4.1,10,4.1,10,4.1C10,4.1,10,4.1,10,4.1C10,4.1,10,4.1,10,4.1
			L10,4.1L10,4.1L10,4.1C10,4.1,10,4.1,10,4.1C10,4.1,10,4.1,10,4.1C10,4.1,10,4.1,10,4.1C10,4.1,10,4.1,10,4.1
			C10,4.1,10,4.1,10,4.1L10,4.1L10,4.1z"/>
		<path d="M10.1,4.1L10.1,4.1C10.1,4.1,10.1,4.1,10.1,4.1C10.1,4.1,10.1,4.1,10.1,4.1C10.1,4.1,10.1,4.1,10.1,4.1
			C10.1,4.1,10.1,4.1,10.1,4.1C10,4.1,10,4.1,10.1,4.1C10.1,4.1,10.1,4.1,10.1,4.1C10.1,4.1,10.1,4.1,10.1,4.1
			C10.1,4.1,10.1,4.1,10.1,4.1C10.1,4.1,10.1,4.1,10.1,4.1L10.1,4.1C10.1,4.1,10.1,4.1,10.1,4.1C10.1,4.1,10.1,4.1,10.1,4.1
			C10.1,4.1,10.1,4.1,10.1,4.1C10.1,4.1,10.1,4.1,10.1,4.1z M10.1,4.1L10.1,4.1C10.1,4.1,10.1,4.1,10.1,4.1
			C10.1,4.1,10.1,4.1,10.1,4.1C10.1,4.1,10.1,4.1,10.1,4.1C10.1,4.1,10.1,4.1,10.1,4.1z"/>
		<path d="M10.1,4.1L10.1,4.1L10.1,4.1L10.1,4.1C10.1,4.1,10.1,4.1,10.1,4.1C10.1,4.1,10.1,4.1,10.1,4.1C10.1,4.1,10.1,4.1,10.1,4.1
			L10.1,4.1C10.1,4.1,10.1,4.1,10.1,4.1C10.1,4.1,10.1,4.1,10.1,4.1C10.1,4.1,10.1,4.1,10.1,4.1C10.1,4.1,10.1,4.1,10.1,4.1
			L10.1,4.1L10.1,4.1z"/>
		<path d="M10.2,4.1L10.2,4.1C10.2,4.1,10.2,4.1,10.2,4.1C10.2,4.1,10.2,4.1,10.2,4.1C10.2,4.1,10.1,4.1,10.2,4.1
			C10.1,4.1,10.1,4.1,10.2,4.1C10.1,4.1,10.1,4.1,10.2,4.1C10.1,4.1,10.1,4.1,10.2,4.1C10.2,4.1,10.2,4.1,10.2,4.1
			C10.2,4.1,10.2,4.1,10.2,4.1C10.2,4.1,10.2,4.1,10.2,4.1L10.2,4.1C10.1,4.1,10.1,4.1,10.2,4.1C10.2,4.1,10.2,4.1,10.2,4.1
			C10.2,4.1,10.2,4.1,10.2,4.1C10.2,4.1,10.2,4.1,10.2,4.1z M10.1,4.1L10.1,4.1C10.2,4.1,10.2,4.1,10.1,4.1
			C10.2,4.1,10.2,4.1,10.1,4.1C10.1,4.1,10.1,4.1,10.1,4.1C10.1,4.1,10.1,4.1,10.1,4.1z"/>
		<path d="M10.3,4.1L10.3,4.1L10.3,4.1C10.2,4.1,10.2,4.1,10.3,4.1C10.2,4.1,10.2,4.1,10.3,4.1C10.2,4.1,10.2,4.1,10.3,4.1
			C10.2,4.1,10.2,4.1,10.3,4.1C10.2,4.1,10.2,4.1,10.3,4.1C10.2,4,10.2,4,10.3,4.1C10.2,4,10.2,4,10.3,4.1C10.2,4,10.2,4,10.3,4.1
			C10.2,4,10.2,4.1,10.3,4.1L10.3,4.1C10.2,4,10.2,4,10.3,4.1C10.2,4,10.2,4,10.3,4.1C10.2,4,10.2,4,10.3,4.1
			C10.2,4,10.2,4,10.3,4.1C10.3,4.1,10.3,4.1,10.3,4.1C10.2,4.1,10.2,4.1,10.3,4.1C10.2,4.1,10.2,4.1,10.3,4.1
			C10.2,4.1,10.2,4.1,10.3,4.1C10.2,4.1,10.2,4.1,10.3,4.1L10.3,4.1z"/>
		<path d="M10.3,4.1C10.3,4.1,10.3,4,10.3,4.1C10.3,4,10.3,4,10.3,4.1C10.3,4,10.3,4,10.3,4.1C10.3,4,10.3,4,10.3,4.1
			C10.3,4,10.3,4,10.3,4.1C10.3,4,10.3,4,10.3,4.1C10.3,4,10.3,4,10.3,4.1C10.3,4.1,10.3,4.1,10.3,4.1C10.3,4.1,10.3,4.1,10.3,4.1
			C10.3,4.1,10.3,4.1,10.3,4.1C10.3,4.1,10.3,4.1,10.3,4.1C10.3,4.1,10.3,4.1,10.3,4.1z M10.3,4.1C10.3,4.1,10.3,4.1,10.3,4.1
			C10.3,4.1,10.3,4.1,10.3,4.1C10.3,4.1,10.3,4.1,10.3,4.1C10.3,4.1,10.3,4.1,10.3,4.1C10.3,4,10.3,4,10.3,4.1
			C10.3,4,10.3,4,10.3,4.1C10.3,4,10.3,4,10.3,4.1C10.3,4,10.3,4,10.3,4.1z"/>
		<path d="M10.4,4.1L10.4,4.1L10.4,4.1C10.3,4,10.3,4,10.4,4.1C10.3,4,10.3,4,10.4,4.1L10.4,4.1C10.3,4,10.3,4,10.4,4.1
			C10.3,4,10.3,4,10.4,4.1L10.4,4.1L10.4,4.1z"/>
		<path d="M10.4,4.1L10.4,4.1C10.4,4.1,10.4,4.1,10.4,4.1C10.4,4.1,10.4,4.1,10.4,4.1C10.4,4.1,10.4,4.1,10.4,4.1
			C10.4,4.1,10.4,4.1,10.4,4.1C10.4,4.1,10.4,4.1,10.4,4.1C10.4,4,10.4,4,10.4,4.1C10.4,4,10.4,4,10.4,4.1C10.4,4,10.4,4,10.4,4.1
			C10.4,4,10.4,4.1,10.4,4.1C10.4,4.1,10.4,4.1,10.4,4.1C10.4,4,10.4,4,10.4,4.1C10.4,4,10.4,4,10.4,4.1C10.4,4,10.4,4,10.4,4.1
			C10.4,4,10.4,4,10.4,4.1C10.4,4,10.4,4,10.4,4.1C10.4,4,10.4,4,10.4,4.1C10.4,4,10.4,4.1,10.4,4.1C10.4,4.1,10.4,4.1,10.4,4.1
			C10.4,4.1,10.4,4.1,10.4,4.1C10.4,4.1,10.4,4.1,10.4,4.1C10.4,4.1,10.4,4.1,10.4,4.1z M10.4,4C10.4,4,10.4,4,10.4,4
			C10.4,4,10.4,4,10.4,4C10.4,4,10.4,4,10.4,4C10.4,4,10.4,4,10.4,4C10.4,4,10.4,4,10.4,4C10.4,4,10.4,4,10.4,4
			C10.4,4,10.4,4,10.4,4C10.4,4,10.4,4,10.4,4z"/>
	</g>
</g>
</svg>
