<?xml version="1.0" encoding="utf-8"?>
<!-- Generator: Adobe Illustrator 16.0.1, SVG Export Plug-In . SVG Version: 6.00 Build 0)  -->
<!DOCTYPE svg PUBLIC "-//W3C//DTD SVG 1.1//EN" "http://www.w3.org/Graphics/SVG/1.1/DTD/svg11.dtd">
<svg version="1.1" id="Layer_1" xmlns="http://www.w3.org/2000/svg" xmlns:xlink="http://www.w3.org/1999/xlink" x="0px" y="0px"
	 width="60px" height="60px" viewBox="0 0 60 60" enable-background="new 0 0 60 60" xml:space="preserve">
<path d="M23.178,5.048c2.541,0,4.902,0.471,7.083,1.412c2.185,0.943,4.104,2.242,5.766,3.899c1.662,1.657,2.964,3.59,3.912,5.8
	c0.94,2.208,1.417,4.547,1.417,7.018c0,2.534-0.477,4.89-1.417,7.067c-0.948,2.177-2.25,4.093-3.912,5.749
	c-1.661,1.658-3.581,2.957-5.766,3.9c-2.181,0.941-4.542,1.412-7.083,1.412c-2.479,0-4.826-0.471-7.039-1.412
	c-2.213-0.943-4.155-2.242-5.816-3.9c-1.659-1.656-2.964-3.572-3.906-5.749C5.471,28.066,5,25.711,5,23.177
	c0-2.471,0.471-4.81,1.416-7.018c0.942-2.21,2.247-4.143,3.906-5.8c1.661-1.657,3.604-2.956,5.816-3.899
	C18.352,5.519,20.699,5.048,23.178,5.048z M23.128,9.629c-1.883,0-3.655,0.356-5.312,1.067c-1.656,0.715-3.087,1.669-4.289,2.864
	c-1.201,1.2-2.161,2.625-2.875,4.275c-0.715,1.65-1.072,3.416-1.072,5.292c0,1.878,0.357,3.643,1.072,5.294
	c0.714,1.65,1.674,3.093,2.875,4.323c1.202,1.23,2.633,2.198,4.289,2.912c1.656,0.711,3.429,1.068,5.312,1.068
	c1.885,0,3.654-0.357,5.313-1.068c1.656-0.714,3.101-1.682,4.335-2.912c1.238-1.23,2.21-2.673,2.924-4.323
	c0.715-1.651,1.074-3.416,1.074-5.294c0-1.876-0.359-3.642-1.074-5.292c-0.714-1.65-1.686-3.075-2.924-4.275
	c-1.234-1.195-2.679-2.149-4.335-2.864C26.782,9.985,25.013,9.629,23.128,9.629z M41.452,36.726L55,50.347l-4.58,4.605L36.774,41.33
	v-2.351l2.289-2.254H41.452z"/>
</svg>
