<svg width="32" height="32" viewBox="-2 -2 32 32" enable-background="new -2 -2 36 36"><path d="M21.65 8.76v-3.26h-1.12v3.26h-3.35v1.12h3.35v3.34h1.12v-3.34h3.35v-1.12zm-5.37-3.26h-4.62s-4.68.1-4.68 4.06c0 3.96 4.1 3.5 4.1 3.5v1c0 .4.54.27.6 1.1-.26-.01-5.68-.16-5.68 3.42 0 3.56 4.77 3.4 4.77 3.4s5.5.25 5.5-4.2c0-2.66-3.14-3.52-3.14-4.6 0-1.07 2.37-1.38 2.37-3.9 0-1.52-.14-2.43-1.33-2.97 0-.38 2.1-.13 2.1-.83zm-1.5 12.6c.1 1.4-1.36 2.62-3.27 2.75-1.9.13-3.52-.9-3.6-2.28-.1-1.38 1.36-2.6 3.27-2.74 1.9-.13 3.53.9 3.62 2.27zm-2.8-6c-1.13.32-2.4-.72-2.84-2.3-.43-1.6.14-3.13 1.28-3.44 1.13-.3 2.4.73 2.84 2.32.43 1.6-.14 3.12-1.28 3.43z"/></svg>
