<svg viewBox="-3 -3 32 32" xmlns="http://www.w3.org/2000/svg"><path fill="#527CBE" d="M9.184 7.515v3.552h4.942a4.224 4.224 0 0 1-1.833 2.772v2.303h2.968C17 14.543 18 12.19 18 9.393c0-.65-.058-1.277-.167-1.878h-8.65z"/><path fill="#34A752" d="M9.184 14.716c-2.393 0-4.417-1.616-5.14-3.787H.978v2.378a9.18 9.18 0 0 0 8.208 5.06c2.48 0 4.558-.823 6.078-2.226l-2.968-2.304c-.823.552-1.876.878-3.11.878z"/><path fill="#F7BB17" d="M0 9.184c0 1.482.355 2.885.977 4.125l3.068-2.38a5.513 5.513 0 0 1-.288-1.745c0-.605.104-1.194.288-1.745V5.06H.977A9.18 9.18 0 0 0 0 9.184z"/><path fill="#E94535" d="M.977 5.06l3.068 2.38c.722-2.172 2.747-3.787 5.14-3.787 1.347 0 2.558.463 3.51 1.374l2.633-2.634C13.738.91 11.658 0 9.184 0A9.18 9.18 0 0 0 .977 5.06z"/></svg>
