<svg width="16px" height="20px" viewBox="0 0 16 20"><path d="m9.266.9c-4.993 0-7.466 3.5-7.466 6.5-.044 1.8.6 3.4 2.1 4 .248.1.5 0 .5-.2.082-.2.2-.7.2-.9.119-.2.1-.3-.1-.6-.426-.5-.7-1.1-.7-2 .004-2.7 2-5.1 5.2-5.1 2.799 0 4.3 1.8 4.3 4.1.05 3-1.3 5.6-3.3 5.6-1.081 0-1.9-.9-1.6-2.1.276-1.3.9-2.7.9-3.7-.013-.9-.5-1.6-1.4-1.6-1.154 0-2.1 1.2-2.1 2.7.044 1 .4 1.7.4 1.7-.021 0-1.2 4.9-1.4 5.7-.374 1.7 0 3.8 0 4 .013.2.2.2.2.1.149-.1 1.5-1.8 1.9-3.4.171-.5.8-2.9.8-2.9.347.7 1.4 1.3 2.5 1.3 3.427 0 5.7-3.1 5.7-7.2.019-3.1-2.6-6-6.6-6"/></svg>
