<svg width="12" height="12" viewBox="0 0 12 12" xmlns="http://www.w3.org/2000/svg"><path d="M10.073 8.4c-.475 0-.906.19-1.225.497l-5.308-2.676.015-.221-.015-.221 5.308-2.676c.319.308.75.497 1.225.497.982 0 1.778-.806 1.778-1.8s-.796-1.8-1.778-1.8-1.778.806-1.778 1.8l.016.233-5.299 2.675c-.32-.313-.755-.507-1.236-.507-.982 0-1.778.806-1.778 1.8s.796 1.8 1.778 1.8c.48 0 .915-.194 1.236-.507l5.299 2.675-.016.233c0 .994.796 1.8 1.778 1.8s1.778-.806 1.778-1.8-.796-1.8-1.778-1.8zm0-7.68c.588 0 1.067.484 1.067 1.08 0 .596-.479 1.08-1.067 1.08s-1.067-.484-1.067-1.08c0-.596.479-1.08 1.067-1.08zm0 10.56c-.588 0-1.067-.484-1.067-1.08 0-.596.479-1.08 1.067-1.08s1.067.484 1.067 1.08c0 .596-.479 1.08-1.067 1.08z"/></svg>