<svg width="30px" height="30px" viewBox="0 0 30 30">
    <path d="M10.5759782,7.98522727 C11.440813,7.98522727 12.1437763,8.68819053 12.1437763,9.55336309 C12.1437763,10.4194645 11.440813,11.1224278 10.5759782,11.1224278 C9.70886352,11.1224278 9.00792683,10.4194645 9.00792683,9.55336309 C9.00792683,8.68819053 9.70886352,7.98522727 10.5759782,7.98522727 L10.5759782,7.98522727 Z M9.22265782,12.3124411 L11.9290453,12.3124411 L11.9290453,21.0164351 L9.22265782,21.0164351 L9.22265782,12.3124411 Z M13.6256988,12.3124411 L16.2209632,12.3124411 L16.2209632,13.5012723 L16.2578635,13.5012723 C16.6190979,12.8171392 17.5017496,12.0954302 18.8178319,12.0954302 C21.5552088,12.0954302 22.0608357,13.8977183 22.0608357,16.2421957 L22.0608357,21.0164351 L19.3587547,21.0164351 L19.3587547,16.7838785 C19.3587547,15.7738913 19.3389113,14.4756258 17.9525749,14.4756258 C16.5448751,14.4756258 16.3301441,15.5752884 16.3301441,16.7105846 L16.3301441,21.0164351 L13.6256988,21.0164351 L13.6256988,12.3124411"></path>
</svg>
