<?xml version="1.0" encoding="UTF-8"?>
<svg width="44px" height="44px" viewBox="0 0 44 44" version="1.1" xmlns="http://www.w3.org/2000/svg" xmlns:xlink="http://www.w3.org/1999/xlink">
    <!-- Generator: Sketch 64 (93537) - https://sketch.com -->
    <title>Slice 1</title>
    <desc>Created with Sketch.</desc>
    <g id="Page-1" stroke="none" stroke-width="1" fill="none" fill-rule="evenodd">
        <g id="White-Logo-Square" fill-rule="nonzero">
            <rect id="Rectangle" fill="#000000" opacity="0" x="0" y="0" width="44" height="44"></rect>
            <path d="M21.675,10 C23.6718751,10 26.175,8.80991726 27.6656251,7.22314048 C29.0156251,5.78512387 30,3.77685952 30,1.76859496 C30,1.49586776 29.9718751,1.22314055 29.9156251,1 C27.69375,1.07438018 25.0218751,2.31404957 23.41875,3.97520654 C22.1531251,5.23966946 21,7.22314048 21,9.25619837 C21,9.5537189 21.0562502,9.85123963 21.0843751,9.95041314 C21.225,9.97520667 21.45,10 21.675,10 Z M16.5445314,43 C19.0453125,43 20.1539064,41.2564962 23.2734375,41.2564962 C26.4445314,41.2564962 27.140625,42.9463536 29.925,42.9463536 C32.6578125,42.9463536 34.4882814,40.3176866 36.215625,37.7426656 C38.1492186,34.7921206 38.9484375,31.8952222 39,31.7611064 C38.8195314,31.7074603 33.5859375,29.4811399 33.5859375,23.2313495 C33.5859375,17.8130763 37.7109375,15.3721709 37.9429686,15.184409 C35.2101564,11.1072925 31.059375,11 29.925,11 C26.8570314,11 24.35625,12.9312658 22.7835936,12.9312658 C21.0820314,12.9312658 18.8390625,11.1072925 16.1835936,11.1072925 C11.1304686,11.1072925 6,15.4526404 6,23.6605197 C6,28.7569153 7.9078125,34.1483654 10.2539064,37.6353729 C12.2648436,40.5859179 14.0179686,43 16.5445314,43 Z" id="" fill="#FFFFFF"></path>
        </g>
    </g>
</svg>