<svg xmlns="http://www.w3.org/2000/svg" xmlns:xlink="http://www.w3.org/1999/xlink" version="1.1" id="Layer_1" x="0px" y="0px" width="70px" height="70px" viewBox="0 0 60 60" enable-background="new 0 0 60 60" xml:space="preserve"  preserveAspectRatio="xMidYMid meet"><rect id="svgEditorBackground" x="0" y="0" width="60" height="60" style="fill: none; stroke: none;"/>
<path d="M47.58,40.053c2.078,0,3.836,0.719,5.269,2.15C54.283,43.637,55,45.394,55,47.472c0,2.079-0.717,3.854-2.151,5.323  C51.416,54.265,49.658,55,47.58,55s-3.852-0.735-5.322-2.205c-1.471-1.469-2.203-3.244-2.203-5.323c0-0.429,0.034-0.752,0.106-0.968  L17.795,35.43c-1.505,1.361-3.261,2.043-5.27,2.043c-2.078,0-3.852-0.717-5.322-2.15C5.735,33.889,5,32.132,5,30.053  c0-2.079,0.735-3.853,2.204-5.322c1.47-1.469,3.244-2.204,5.322-2.204c1.004,0,1.955,0.197,2.851,0.591  c0.896,0.395,1.703,0.915,2.418,1.559l22.366-11.182c-0.072-0.216-0.106-0.539-0.106-0.967c0-2.081,0.732-3.854,2.203-5.323  S45.502,5,47.58,5s3.836,0.735,5.269,2.204C54.283,8.673,55,10.447,55,12.527c0,2.079-0.717,3.853-2.151,5.322  c-1.433,1.469-3.19,2.204-5.269,2.204c-1.004,0-1.952-0.197-2.849-0.591c-0.896-0.394-1.668-0.914-2.312-1.56L19.946,29.085  c0.072,0.216,0.108,0.539,0.108,0.968c0,0.36-0.036,0.646-0.108,0.861l22.473,11.182C43.78,40.734,45.502,40.053,47.58,40.053z   M47.58,8.011c-1.219,0-2.276,0.447-3.172,1.344c-0.896,0.895-1.345,1.954-1.345,3.173c0,1.218,0.448,2.276,1.345,3.171  c0.896,0.896,1.953,1.344,3.172,1.344s2.258-0.448,3.119-1.344c0.859-0.896,1.29-1.954,1.29-3.171c0-1.219-0.431-2.278-1.29-3.173  C49.838,8.458,48.799,8.011,47.58,8.011z M47.58,51.988c1.219,0,2.258-0.43,3.119-1.29c0.859-0.859,1.29-1.937,1.29-3.227  c0-1.217-0.431-2.258-1.29-3.116c-0.861-0.861-1.9-1.291-3.119-1.291s-2.276,0.43-3.172,1.291c-0.896,0.858-1.345,1.899-1.345,3.116  c0,1.29,0.448,2.367,1.345,3.227C45.304,51.559,46.361,51.988,47.58,51.988z"/>
</svg>