<svg viewBox="0 0 32 32"><path d="M16.363 8C12.133 8 10 11.13 10 13.74c0 1.582.58 2.988 1.823 3.512.204.086.387.003.446-.23.04-.16.137-.568.18-.737.06-.23.037-.312-.127-.513-.36-.436-.588-1-.588-1.802 0-2.322 1.684-4.402 4.384-4.402 2.39 0 3.703 1.508 3.703 3.522 0 2.65-1.136 4.887-2.822 4.887-.93 0-1.628-.795-1.405-1.77.268-1.165.786-2.42.786-3.262 0-.752-.39-1.38-1.2-1.38-.952 0-1.716 1.017-1.716 2.38 0 .867.284 1.454.284 1.454l-1.146 5.006c-.34 1.487-.05 3.31-.026 3.493.014.108.15.134.21.05.09-.117 1.223-1.562 1.61-3.006.108-.41.625-2.526.625-2.526.31.61 1.215 1.145 2.176 1.145 2.862 0 4.804-2.693 4.804-6.298C22 10.54 19.763 8 16.363 8"/></svg>
