<svg id="Layer_1" xmlns="http://www.w3.org/2000/svg" viewBox="0 0 21.9 21"><style>.st0{fill:#87BE27;}</style><path class="st0" d="M0 6.3h.2c0-.6.6-.7.9-1.1.2-.3.5-.4.8-.2.6.4 1.2.7 1.8 1 .5.2.6.6.8 1 .4.7 1 1.4 1.1 2.2 0 .2.1.5.1.7v.2c.2.4.4.9.6 1.2.3.5.9.4 1.3 0 .6-.7 1.3-1.3 1.9-2 .6-.6 1.1-1.4 1.6-2 .5-.6 1.1-1 1.6-1.6.5-.5.9-1.1 1.4-1.7.4-.5.8-.9 1.3-1.4.4-.4.8-.9 1.2-1.3.3-.3.7-.6 1-.9.1-.1.2-.1.2-.1.4-.5.8-.3 1.1 0 .6.5 1.4.8 1.8 1.6.3.6.8 1.1 1 1.7.3.4.2 1.1-.1 1.4-.7.9-1.6 1.7-2.4 2.6-.5.5-1 1.1-1.4 1.6-.5.6-1 1.3-1.5 1.9-.6.7-1.3 1.3-2 1.9-.1.1-.2.3-.3.4-.8.7-1.4 1.6-2.2 2.4-.5.6-1.1 1.2-1.6 1.8-.7.9-1.4 1.9-2.1 2.8-.1.2-.4.2-.5.3-.1.1-.3.2-.4.3h-.1c-.7-.2-1.4-.5-2.1-.8-.2-.1-.4-.4-.6-.6-.2-.2-.3-.4-.4-.6-.1-.2-.2-.4-.2-.6-.1-.2-.1-.4-.2-.6-.2-.3-.6-.6-.5-1 0-.9-.4-1.6-.7-2.4-.2-.7-.5-1.4-.8-2.1-.4-1.1-.7-2.1-1.1-3.2v-.3c0-.1.1-.3 0-.4C.4 7.9.3 7.3.2 6.7c0-.1-.1-.2-.2-.3v-.1z"/></svg>
