<svg xmlns="http://www.w3.org/2000/svg" width="54" height="35"><path fill="#00C0F4" d="M0 0h54v35h-54v-35z"/><path fill="#fff" d="M4.9 12.4l-1-2.5-1 2.5h2zm22.9-.9c-.2.1-.5.1-.8.1h-1.8v-1.4h1.8c.3 0 .5 0 .7.1.2.1.3.3.3.6.1.2-.1.5-.2.6zm13.1 1l-1-2.5-1 2.5h2zm-24.5 2.7h-1.6v-5l-2.2 5h-1.3l-2.2-5v5h-3.1l-.6-1.4h-3.1l-.6 1.4h-1.7l2.7-6.3h2.3l2.6 6v-6h2.5l2 4.3 1.8-4.3h2.5v6.3zm6.2 0h-5.1v-6.3h5.1v1.3h-3.6v1.1h3.5v1.3h-3.5v1.3h3.5v1.3zm7.1-4.6c0 1-.7 1.5-1.1 1.7.3.1.6.3.8.5.2.3.3.6.3 1.2v1.2h-1.5v-.8c0-.4 0-.9-.2-1.2-.2-.2-.6-.3-1.1-.3h-1.7v2.3h-1.5v-6.3h3.5c.8 0 1.3 0 1.8.3.7.4.7 1.4.7 1.4zm2.5 4.6h-1.5v-6.3h1.5v6.3zm17.9 0h-2.1l-2.9-4.8v4.8h-3.1l-.6-1.4h-3.2l-.6 1.4h-1.8c-.7 0-1.7-.2-2.2-.7-.5-.5-.8-1.3-.8-2.4 0-.9.2-1.8.8-2.5.6-.5 1.4-.7 2.4-.7h1.5v1.4h-1.4c-.6 0-.9.1-1.2.4-.3.3-.4.8-.4 1.4 0 .7.1 1.2.4 1.5.2.3.7.3 1.1.3h.7l2.1-5h2.2l2.6 6v-6h2.3l2.7 4.4v-4.4h1.6l-.1 6.3zm-50.1 1.3h2.6l.6-1.4h1.3l.6 1.4h5.1v-1.1l.5 1.1h2.6l.5-1.1v1.1h12.7v-2.3h.2c.2 0 .2 0 .2.3v2h6.6v-.5c.5.3 1.4.5 2.4.5h2.8l.6-1.4h1.3l.6 1.4h5.3v-1.3l.8 1.3h4.3v-8.9h-4.2v1l-.6-1h-4.3v1l-.5-1h-6c-1 0-1.8.1-2.5.5v-.5h-4v.5c-.4-.4-1-.5-1.7-.5h-14.8l-1 2.3-1-2.3h-4.7v1l-.5-1h-4l-1.8 4.2v4.7zm54 4.6h-2.8c-.3 0-.5 0-.6.1-.2.1-.2.3-.2.5s.1.4.3.5c.2.1 1.4.1 1.4.1.8 0 1.4.2 1.7.5.1 0 .2.2.2.3v-2zm0 4.2c-.4.5-1.1.8-2.1.8h-2.9v-1.4h2.9c.3 0 .5 0 .6-.2.1-.1.2-.2.2-.4s-.1-.3-.2-.4c-.1-.1-.3-.1-.5-.1-1.4 0-3.2 0-3.2-2 0-.9.6-1.9 2.2-1.9h3v-1.3h-2.8c-.8 0-1.5.2-1.9.5v-.5h-4.1c-.7 0-1.4.2-1.8.5v-.5h-7.4v.6c-.6-.4-1.6-.5-2-.5h-5v.5c-.5-.5-1.5-.5-2.1-.5h-5.5l-1.3 1.4-1.2-1.4h-8.2v8.9h8l1.3-1.4 1.2 1.4h4.9v-2.1h.5c.7 0 1.4 0 2.1-.3v2.4h4.1v-2.3h.2c.2 0 .3 0 .3.3v2h12.4c.8 0 1.6-.2 2.1-.6v.6h3.9c.8 0 1.6-.1 2.2-.4l.1-1.7zm-6.1-2.5c.3.3.5.7.5 1.3 0 1.4-.9 2-2.4 2h-3v-1.4h3c.3 0 .5 0 .6-.2.1-.1.2-.2.2-.4s-.1-.3-.2-.4c-.1-.1-.3-.1-.5-.1-1.4 0-3.2 0-3.2-2 0-.9.6-1.9 2.2-1.9h3v1.4h-2.8c-.3 0-.5 0-.6.1-.2.1-.2.3-.2.5s.1.4.3.5c.2.1 1.4.1 1.4.1.8 0 1.4.1 1.7.5zm-10.8-3h5.1v1.3h-3.6v1.2h3.4v1.3h-3.5v1.3h3.6v1.3h-5.1v-6.4h.1zm-10.3 2.9h-2v-1.6h2c.5 0 .9.2.9.8.1.5-.3.8-.9.8zm-3.4 2.9l-2.4-2.6 2.3-2.5v5.1zm-6-.8h-3.7v-1.3h3.3v-1.3h-3.3v-1.2h3.8l1.7 1.9-1.8 1.9zm12-2.9c0 1.8-1.3 2.1-2.6 2.1h-1.9v2.1h-2.9l-1.9-2.1-1.9 2.1h-6v-6.4h6.1l1.9 2.1 1.9-2.1h4.8c1.2.1 2.5.4 2.5 2.2zm4.9.5c-.2.1-.5.1-.8.1h-1.8v-1.4h1.9c.3 0 .5 0 .7.1.2.1.3.3.3.6 0 .2-.2.5-.3.6zm1.9-.9c0 1-.7 1.5-1.1 1.7.3.1.6.3.8.5.2.3.3.6.3 1.2v1.2h-1.5v-.8c0-.4 0-.9-.2-1.2-.2-.2-.6-.3-1.1-.3h-1.7v2.3h-1.5v-6.4h3.5c.8 0 1.3 0 1.8.3.7.5.7 1.5.7 1.5z"/></svg>