<svg xmlns="http://www.w3.org/2000/svg" width="40" height="40"><path fill="#4BC6DF" d="M12.8 16.9s-4.8-2.3-4.7-7.9c0-3.1 1.4-5.5 3.7-7.2-7 3.2-11.8 10.1-11.8 18.2 0 5.5 2.2 10.3 5.8 14-.1-3.8 3.5-5.2 6.6-5.8-3-.6-4.4-2.7-4.4-4.9 0-2.8 3.2-5.3 4.8-6.4zm7.2-1.9c2 0 3.6-.6 3.6-6.1s-1.6-6.3-3.6-6.3-3.6.7-3.6 6.3c0 5.7 1.6 6.1 3.6 6.1zm20 5c0-8.2-5-15.3-12.1-18.4 2.4 1.6 4.1 4.4 4 7.7-.1 6-4.9 9.1-11.9 9.1-1.8 0-3-.1-4.5-.5-.7.5-1.2 1.3-1.2 2 0 1 .9 1.8 2 1.8h9.7c6.1 0 9.1 2.5 9.1 7.9 0 1.8-.4 3.4-1.1 4.8 3.7-3.7 6-8.8 6-14.4zm-16.1 9.9h-7.4c-2.5 0-3.2 1.8-3.2 3.2 0 2 1.8 3.8 7 3.8 5.9 0 7.5-1.7 7.5-3.8-.1-1.9-1.6-3.2-3.9-3.2z"/></svg>