<svg xmlns="http://www.w3.org/2000/svg" width="54" height="35"><path fill="#EAEAEA" d="M0 0h54v35h-54v-35z"/><path fill="#57B347" d="M34.8 18h2.3c.4.1.8.5.8 1s-.5.9-.9 1h-2.2v-2zm2.9-2c0 .5-.4.8-.7.9h-2.2v-1.8h2.2c.3.1.7.4.7.9zm4.4-9.6v18.5c0 2.6-2.2 3.6-3.3 3.8h-5.9v-7.5h5.9c1.2 0 2.3-.7 2.2-1.9 0-1-1.1-1.7-2.1-1.8 1.1-.2 2-1.1 1.6-2.2-.3-.9-1.2-1.2-2-1.2l-5.5-.1v-3.9c.1-1.6.9-2.6 1.8-3.2.5-.3 1.1-.5 1.7-.5h5.6z"/><path fill="#116EB7" d="M12.5 19.3v-7.5c0-1.3-.1-2.6.6-3.7 1-1.5 2.3-1.7 3.8-1.7h4.7v18.4s-.1 2-1.6 3.2c-.5.4-1.1.6-1.7.7h-5.8v-7.8c2.3.5 5.6.9 7.4-.4.5-.4.8-1 .9-1.7v-4.8h-3.2v2.6c0 .7 0 1.8-.1 2.2-.1.6-.6 1-1.1 1.2-.9.3-2 .1-2.9-.2l-1-.5z"/><path fill="#E21D3B" d="M22.8 15v-3.5c0-1.6 0-2.1.2-2.7.3-.7.8-1.3 1.4-1.8.5-.4 1.1-.6 1.8-.6h5.7v18.5c-.1 2.8-2.4 3.7-3.3 3.8h-5.8v-8.5c.9.8 2.2 1.1 3.4 1.2h.1c1.8.1 2.7 0 4-.3.2 0 .4-.1.6-.2v-1.6c-.6.3-1.1.5-2.1.7-1.1.2-2.8.1-3.6-1.1-.9-1.7 0-3.8 2-3.9 1.2-.1 2.5.3 3.6.8v-1.6c-.7-.2-2.1-.4-2.1-.4-1.8-.2-4-.2-5.7.9l-.2.3z"/></svg>